<?xml version="1.0" encoding="UTF-8" standalone="no"?>
<!DOCTYPE svg PUBLIC "-//W3C//DTD SVG 1.1//EN"
 "http://www.w3.org/Graphics/SVG/1.1/DTD/svg11.dtd">
<!-- Generated by graphviz version 2.38.0 (20140413.2041)
 -->
<!-- Title: NUnit.Framework.Constraints.NotConstraint Pages: 1 -->
<svg width="196pt" height="297pt"
 viewBox="0.00 0.00 196.00 297.00" xmlns="http://www.w3.org/2000/svg" xmlns:xlink="http://www.w3.org/1999/xlink">
<g id="graph0" class="graph" transform="scale(1 1) rotate(0) translate(4 293)">
<title>NUnit.Framework.Constraints.NotConstraint</title>
<polygon fill="white" stroke="none" points="-4,4 -4,-293 192,-293 192,4 -4,4"/>
<!-- Node1 -->
<g id="node1" class="node"><title>Node1</title>
<g id="a_node1"><a xlink:title="NotConstraint negates the effect of some other constraint">
<polygon fill="#bfbfbf" stroke="black" points="7,-0.5 7,-30.5 154,-30.5 154,-0.5 7,-0.5"/>
<text text-anchor="start" x="15" y="-18.5" font-family="Helvetica,sans-Serif" font-size="10.00">NUnit.Framework.Constraints.</text>
<text text-anchor="middle" x="80.5" y="-7.5" font-family="Helvetica,sans-Serif" font-size="10.00">NotConstraint</text>
</a>
</g>
</g>
<!-- Node2 -->
<g id="node2" class="node"><title>Node2</title>
<g id="a_node2"><a xlink:href="../../d6/d7d/classNUnit_1_1Framework_1_1Constraints_1_1PrefixConstraint.html" target="_top" xlink:title="Abstract base class used for prefixes">
<polygon fill="white" stroke="black" points="37.5,-68.5 37.5,-87.5 123.5,-87.5 123.5,-68.5 37.5,-68.5"/>
<text text-anchor="middle" x="80.5" y="-75.5" font-family="Helvetica,sans-Serif" font-size="10.00">PrefixConstraint</text>
</a>
</g>
</g>
<!-- Node2&#45;&gt;Node1 -->
<g id="edge1" class="edge"><title>Node2&#45;&gt;Node1</title>
<path fill="none" stroke="midnightblue" d="M80.5,-58.2154C80.5,-49.3565 80.5,-38.9577 80.5,-30.7587"/>
<polygon fill="midnightblue" stroke="midnightblue" points="77.0001,-58.3318 80.5,-68.3318 84.0001,-58.3319 77.0001,-58.3318"/>
</g>
<!-- Node3 -->
<g id="node3" class="node"><title>Node3</title>
<g id="a_node3"><a xlink:href="../../d9/da9/classNUnit_1_1Framework_1_1Constraints_1_1Constraint.html" target="_top" xlink:title="The Constraint class is the base of all built&#45;in constraints within NUnit. It provides the operator o...">
<polygon fill="white" stroke="black" points="0,-125.5 0,-144.5 61,-144.5 61,-125.5 0,-125.5"/>
<text text-anchor="middle" x="30.5" y="-132.5" font-family="Helvetica,sans-Serif" font-size="10.00">Constraint</text>
</a>
</g>
</g>
<!-- Node3&#45;&gt;Node2 -->
<g id="edge2" class="edge"><title>Node3&#45;&gt;Node2</title>
<path fill="none" stroke="midnightblue" d="M45.2017,-117.828C54.1551,-107.979 65.2439,-95.7817 72.5774,-87.7149"/>
<polygon fill="midnightblue" stroke="midnightblue" points="42.4495,-115.652 38.3125,-125.406 47.6291,-120.361 42.4495,-115.652"/>
</g>
<!-- Node4 -->
<g id="node4" class="node"><title>Node4</title>
<g id="a_node4"><a xlink:href="../../d1/d94/interfaceNUnit_1_1Framework_1_1Constraints_1_1IConstraint.html" target="_top" xlink:title="Interface for all constraints">
<polygon fill="white" stroke="black" points="8,-212.5 8,-231.5 71,-231.5 71,-212.5 8,-212.5"/>
<text text-anchor="middle" x="39.5" y="-219.5" font-family="Helvetica,sans-Serif" font-size="10.00">IConstraint</text>
</a>
</g>
</g>
<!-- Node4&#45;&gt;Node3 -->
<g id="edge3" class="edge"><title>Node4&#45;&gt;Node3</title>
<path fill="none" stroke="midnightblue" d="M37.5014,-202.125C35.6134,-184.293 32.8644,-158.33 31.4377,-144.856"/>
<polygon fill="midnightblue" stroke="midnightblue" points="34.0372,-202.648 38.5707,-212.224 40.9983,-201.911 34.0372,-202.648"/>
</g>
<!-- Node5 -->
<g id="node5" class="node"><title>Node5</title>
<g id="a_node5"><a xlink:href="../../d7/d29/interfaceNUnit_1_1Framework_1_1Constraints_1_1IResolveConstraint.html" target="_top" xlink:title="The IResolveConstraint interface is implemented by all complete and resolvable constraints and expres...">
<polygon fill="white" stroke="black" points="35,-269.5 35,-288.5 132,-288.5 132,-269.5 35,-269.5"/>
<text text-anchor="middle" x="83.5" y="-276.5" font-family="Helvetica,sans-Serif" font-size="10.00">IResolveConstraint</text>
</a>
</g>
</g>
<!-- Node5&#45;&gt;Node4 -->
<g id="edge4" class="edge"><title>Node5&#45;&gt;Node4</title>
<path fill="none" stroke="midnightblue" d="M70.3256,-261.532C62.4887,-251.736 52.8608,-239.701 46.4719,-231.715"/>
<polygon fill="midnightblue" stroke="midnightblue" points="67.645,-263.784 76.625,-269.406 73.1111,-259.411 67.645,-263.784"/>
</g>
<!-- Node6 -->
<g id="node6" class="node"><title>Node6</title>
<g id="a_node6"><a xlink:href="../../d1/d94/interfaceNUnit_1_1Framework_1_1Constraints_1_1IConstraint.html" target="_top" xlink:title="Interface for all constraints">
<polygon fill="white" stroke="black" points="41,-163.5 41,-193.5 188,-193.5 188,-163.5 41,-163.5"/>
<text text-anchor="start" x="49" y="-181.5" font-family="Helvetica,sans-Serif" font-size="10.00">NUnit.Framework.Constraints.</text>
<text text-anchor="middle" x="114.5" y="-170.5" font-family="Helvetica,sans-Serif" font-size="10.00">IConstraint</text>
</a>
</g>
</g>
<!-- Node5&#45;&gt;Node6 -->
<g id="edge6" class="edge"><title>Node5&#45;&gt;Node6</title>
<path fill="none" stroke="midnightblue" d="M89.2823,-259.627C95.2888,-240.542 104.559,-211.088 110.028,-193.709"/>
<polygon fill="midnightblue" stroke="midnightblue" points="85.9146,-258.669 86.251,-269.259 92.5917,-260.771 85.9146,-258.669"/>
</g>
<!-- Node6&#45;&gt;Node2 -->
<g id="edge5" class="edge"><title>Node6&#45;&gt;Node2</title>
<path fill="none" stroke="#9a32cd" stroke-dasharray="5,2" d="M106.289,-153.712C98.9125,-132.342 88.4908,-102.15 83.4536,-87.5569"/>
<polygon fill="#9a32cd" stroke="#9a32cd" points="103.057,-155.077 109.629,-163.387 109.674,-152.793 103.057,-155.077"/>
<text text-anchor="middle" x="138" y="-132.5" font-family="Helvetica,sans-Serif" font-size="10.00"> baseConstraint</text>
</g>
</g>
</svg>
