<?xml version="1.0" encoding="UTF-8" standalone="no"?>
<!DOCTYPE svg PUBLIC "-//W3C//DTD SVG 1.1//EN"
 "http://www.w3.org/Graphics/SVG/1.1/DTD/svg11.dtd">
<!-- Generated by graphviz version 2.38.0 (20140413.2041)
 -->
<!-- Title: IG.Gr3d.Graph3dManipulatorWindowExtended Pages: 1 -->
<svg width="194pt" height="106pt"
 viewBox="0.00 0.00 193.50 106.00" xmlns="http://www.w3.org/2000/svg" xmlns:xlink="http://www.w3.org/1999/xlink">
<g id="graph0" class="graph" transform="scale(1 1) rotate(0) translate(4 102)">
<title>IG.Gr3d.Graph3dManipulatorWindowExtended</title>
<polygon fill="white" stroke="none" points="-4,4 -4,-102 189.5,-102 189.5,4 -4,4"/>
<!-- Node1 -->
<g id="node1" class="node"><title>Node1</title>
<g id="a_node1"><a xlink:title="A form for manipulating 3D graphics.">
<polygon fill="#bfbfbf" stroke="black" points="0.5,-0.5 0.5,-30.5 140.5,-30.5 140.5,-0.5 0.5,-0.5"/>
<text text-anchor="start" x="8.5" y="-18.5" font-family="Helvetica,sans-Serif" font-size="10.00">IG.Gr3d.Graph3dManipulator</text>
<text text-anchor="middle" x="70.5" y="-7.5" font-family="Helvetica,sans-Serif" font-size="10.00">WindowExtended</text>
</a>
</g>
</g>
<!-- Node2 -->
<g id="node2" class="node"><title>Node2</title>
<g id="a_node2"><a xlink:title=" ">
<polygon fill="white" stroke="#bfbfbf" points="0,-73 0,-92 39,-92 39,-73 0,-73"/>
<text text-anchor="middle" x="19.5" y="-80" font-family="Helvetica,sans-Serif" font-size="10.00">Form</text>
</a>
</g>
</g>
<!-- Node2&#45;&gt;Node1 -->
<g id="edge1" class="edge"><title>Node2&#45;&gt;Node1</title>
<path fill="none" stroke="midnightblue" d="M32.7028,-64.6729C41.0033,-54.0939 51.5893,-40.6019 59.4455,-30.589"/>
<polygon fill="midnightblue" stroke="midnightblue" points="29.7974,-62.7059 26.3781,-72.7338 35.3046,-67.0269 29.7974,-62.7059"/>
</g>
<!-- Node3 -->
<g id="node3" class="node"><title>Node3</title>
<g id="a_node3"><a xlink:href="../../d3/d68/interfaceIG_1_1Forms_1_1IClosableFromContainedForm.html" target="_top" xlink:title="Marker interface indicating that a form can be closed from the contained control.">
<polygon fill="white" stroke="black" points="57.5,-67.5 57.5,-97.5 185.5,-97.5 185.5,-67.5 57.5,-67.5"/>
<text text-anchor="start" x="65.5" y="-85.5" font-family="Helvetica,sans-Serif" font-size="10.00">IG::Forms::IClosableFrom</text>
<text text-anchor="middle" x="121.5" y="-74.5" font-family="Helvetica,sans-Serif" font-size="10.00">ContainedForm</text>
</a>
</g>
</g>
<!-- Node3&#45;&gt;Node1 -->
<g id="edge2" class="edge"><title>Node3&#45;&gt;Node1</title>
<path fill="none" stroke="midnightblue" d="M104.197,-59.4472C96.7051,-49.8986 88.1567,-39.0037 81.5446,-30.5765"/>
<polygon fill="midnightblue" stroke="midnightblue" points="101.507,-61.6891 110.434,-67.396 107.014,-57.368 101.507,-61.6891"/>
</g>
</g>
</svg>
