<?xml version="1.0" encoding="UTF-8" standalone="no"?>
<!DOCTYPE svg PUBLIC "-//W3C//DTD SVG 1.1//EN"
 "http://www.w3.org/Graphics/SVG/1.1/DTD/svg11.dtd">
<!-- Generated by graphviz version 2.38.0 (20140413.2041)
 -->
<!-- Title: NUnit.Framework.Constraints.CollectionContainsConstraint Pages: 1 -->
<svg width="1015pt" height="88pt"
 viewBox="0.00 0.00 1015.00 88.00" xmlns="http://www.w3.org/2000/svg" xmlns:xlink="http://www.w3.org/1999/xlink">
<g id="graph0" class="graph" transform="scale(1 1) rotate(0) translate(4 84)">
<title>NUnit.Framework.Constraints.CollectionContainsConstraint</title>
<polygon fill="white" stroke="none" points="-4,4 -4,-84 1011,-84 1011,4 -4,4"/>
<!-- Node1 -->
<g id="node1" class="node"><title>Node1</title>
<g id="a_node1"><a xlink:title="CollectionContainsConstraint is used to test whether a collection contains an expected object as a me...">
<polygon fill="#bfbfbf" stroke="black" points="657,-24.5 657,-54.5 804,-54.5 804,-24.5 657,-24.5"/>
<text text-anchor="start" x="665" y="-42.5" font-family="Helvetica,sans-Serif" font-size="10.00">NUnit.Framework.Constraints.</text>
<text text-anchor="middle" x="730.5" y="-31.5" font-family="Helvetica,sans-Serif" font-size="10.00">CollectionContainsConstraint</text>
</a>
</g>
</g>
<!-- Node7 -->
<g id="node7" class="node"><title>Node7</title>
<g id="a_node7"><a xlink:href="../../d9/d77/classNUnit_1_1Framework_1_1Constraints_1_1DictionaryContainsKeyConstraint.html" target="_top" xlink:title="DictionaryContainsKeyConstraint is used to test whether a dictionary contains an expected object as a...">
<polygon fill="white" stroke="black" points="843.5,-49.5 843.5,-79.5 1003.5,-79.5 1003.5,-49.5 843.5,-49.5"/>
<text text-anchor="start" x="851.5" y="-67.5" font-family="Helvetica,sans-Serif" font-size="10.00">NUnit.Framework.Constraints.</text>
<text text-anchor="middle" x="923.5" y="-56.5" font-family="Helvetica,sans-Serif" font-size="10.00">DictionaryContainsKeyConstraint</text>
</a>
</g>
</g>
<!-- Node1&#45;&gt;Node7 -->
<g id="edge6" class="edge"><title>Node1&#45;&gt;Node7</title>
<path fill="none" stroke="midnightblue" d="M814.218,-50.3269C823.857,-51.5886 833.672,-52.8733 843.263,-54.1286"/>
<polygon fill="midnightblue" stroke="midnightblue" points="814.623,-46.8503 804.254,-49.0227 813.715,-53.7911 814.623,-46.8503"/>
</g>
<!-- Node8 -->
<g id="node8" class="node"><title>Node8</title>
<g id="a_node8"><a xlink:href="../../d4/d8e/classNUnit_1_1Framework_1_1Constraints_1_1DictionaryContainsValueConstraint.html" target="_top" xlink:title="DictionaryContainsValueConstraint is used to test whether a dictionary contains an expected object as...">
<polygon fill="white" stroke="black" points="840,-0.5 840,-30.5 1007,-30.5 1007,-0.5 840,-0.5"/>
<text text-anchor="start" x="848" y="-18.5" font-family="Helvetica,sans-Serif" font-size="10.00">NUnit.Framework.Constraints.</text>
<text text-anchor="middle" x="923.5" y="-7.5" font-family="Helvetica,sans-Serif" font-size="10.00">DictionaryContainsValueConstraint</text>
</a>
</g>
</g>
<!-- Node1&#45;&gt;Node8 -->
<g id="edge7" class="edge"><title>Node1&#45;&gt;Node8</title>
<path fill="none" stroke="midnightblue" d="M814.411,-29.0818C822.807,-28.0269 831.335,-26.9553 839.729,-25.9005"/>
<polygon fill="midnightblue" stroke="midnightblue" points="813.739,-25.6386 804.254,-30.3582 814.612,-32.584 813.739,-25.6386"/>
</g>
<!-- Node2 -->
<g id="node2" class="node"><title>Node2</title>
<g id="a_node2"><a xlink:href="../../da/d8e/classNUnit_1_1Framework_1_1Constraints_1_1CollectionItemsEqualConstraint.html" target="_top" xlink:title="CollectionItemsEqualConstraint is the abstract base class for all collection constraints that apply s...">
<polygon fill="white" stroke="black" points="469,-30 469,-49 621,-49 621,-30 469,-30"/>
<text text-anchor="middle" x="545" y="-37" font-family="Helvetica,sans-Serif" font-size="10.00">CollectionItemsEqualConstraint</text>
</a>
</g>
</g>
<!-- Node2&#45;&gt;Node1 -->
<g id="edge1" class="edge"><title>Node2&#45;&gt;Node1</title>
<path fill="none" stroke="midnightblue" d="M631.175,-39.5C639.747,-39.5 648.396,-39.5 656.821,-39.5"/>
<polygon fill="midnightblue" stroke="midnightblue" points="631.166,-36.0001 621.166,-39.5 631.166,-43.0001 631.166,-36.0001"/>
</g>
<!-- Node3 -->
<g id="node3" class="node"><title>Node3</title>
<g id="a_node3"><a xlink:href="../../d0/dbc/classNUnit_1_1Framework_1_1Constraints_1_1CollectionConstraint.html" target="_top" xlink:title="CollectionConstraint is the abstract base class for constraints that operate on collections.">
<polygon fill="white" stroke="black" points="329,-30 329,-49 433,-49 433,-30 329,-30"/>
<text text-anchor="middle" x="381" y="-37" font-family="Helvetica,sans-Serif" font-size="10.00">CollectionConstraint</text>
</a>
</g>
</g>
<!-- Node3&#45;&gt;Node2 -->
<g id="edge2" class="edge"><title>Node3&#45;&gt;Node2</title>
<path fill="none" stroke="midnightblue" d="M443.264,-39.5C451.61,-39.5 460.253,-39.5 468.81,-39.5"/>
<polygon fill="midnightblue" stroke="midnightblue" points="443.258,-36.0001 433.258,-39.5 443.258,-43.0001 443.258,-36.0001"/>
</g>
<!-- Node4 -->
<g id="node4" class="node"><title>Node4</title>
<g id="a_node4"><a xlink:href="../../d9/da9/classNUnit_1_1Framework_1_1Constraints_1_1Constraint.html" target="_top" xlink:title="The Constraint class is the base of all built&#45;in constraints within NUnit. It provides the operator o...">
<polygon fill="white" stroke="black" points="232,-30 232,-49 293,-49 293,-30 232,-30"/>
<text text-anchor="middle" x="262.5" y="-37" font-family="Helvetica,sans-Serif" font-size="10.00">Constraint</text>
</a>
</g>
</g>
<!-- Node4&#45;&gt;Node3 -->
<g id="edge3" class="edge"><title>Node4&#45;&gt;Node3</title>
<path fill="none" stroke="midnightblue" d="M303.209,-39.5C311.385,-39.5 320.105,-39.5 328.626,-39.5"/>
<polygon fill="midnightblue" stroke="midnightblue" points="303.199,-36.0001 293.199,-39.5 303.199,-43.0001 303.199,-36.0001"/>
</g>
<!-- Node5 -->
<g id="node5" class="node"><title>Node5</title>
<g id="a_node5"><a xlink:href="../../d1/d94/interfaceNUnit_1_1Framework_1_1Constraints_1_1IConstraint.html" target="_top" xlink:title="Interface for all constraints">
<polygon fill="white" stroke="black" points="133,-30 133,-49 196,-49 196,-30 133,-30"/>
<text text-anchor="middle" x="164.5" y="-37" font-family="Helvetica,sans-Serif" font-size="10.00">IConstraint</text>
</a>
</g>
</g>
<!-- Node5&#45;&gt;Node4 -->
<g id="edge4" class="edge"><title>Node5&#45;&gt;Node4</title>
<path fill="none" stroke="midnightblue" d="M206.341,-39.5C214.892,-39.5 223.754,-39.5 231.807,-39.5"/>
<polygon fill="midnightblue" stroke="midnightblue" points="206.139,-36.0001 196.139,-39.5 206.139,-43.0001 206.139,-36.0001"/>
</g>
<!-- Node6 -->
<g id="node6" class="node"><title>Node6</title>
<g id="a_node6"><a xlink:href="../../d7/d29/interfaceNUnit_1_1Framework_1_1Constraints_1_1IResolveConstraint.html" target="_top" xlink:title="The IResolveConstraint interface is implemented by all complete and resolvable constraints and expres...">
<polygon fill="white" stroke="black" points="0,-30 0,-49 97,-49 97,-30 0,-30"/>
<text text-anchor="middle" x="48.5" y="-37" font-family="Helvetica,sans-Serif" font-size="10.00">IResolveConstraint</text>
</a>
</g>
</g>
<!-- Node6&#45;&gt;Node5 -->
<g id="edge5" class="edge"><title>Node6&#45;&gt;Node5</title>
<path fill="none" stroke="midnightblue" d="M107.465,-39.5C116.252,-39.5 125.008,-39.5 132.899,-39.5"/>
<polygon fill="midnightblue" stroke="midnightblue" points="107.186,-36.0001 97.1857,-39.5 107.186,-43.0001 107.186,-36.0001"/>
</g>
</g>
</svg>
