<?xml version="1.0" encoding="UTF-8" standalone="no"?>
<!DOCTYPE svg PUBLIC "-//W3C//DTD SVG 1.1//EN"
 "http://www.w3.org/Graphics/SVG/1.1/DTD/svg11.dtd">
<!-- Generated by graphviz version 2.38.0 (20140413.2041)
 -->
<!-- Title: AForge.Imaging.Filters.ApplyMask Pages: 1 -->
<svg width="472pt" height="163pt"
 viewBox="0.00 0.00 471.50 163.00" xmlns="http://www.w3.org/2000/svg" xmlns:xlink="http://www.w3.org/1999/xlink">
<g id="graph0" class="graph" transform="scale(1 1) rotate(0) translate(4 159)">
<title>AForge.Imaging.Filters.ApplyMask</title>
<polygon fill="white" stroke="none" points="-4,4 -4,-159 467.5,-159 467.5,4 -4,4"/>
<!-- Node1 -->
<g id="node1" class="node"><title>Node1</title>
<g id="a_node1"><a xlink:title="Apply mask to the specified image.">
<polygon fill="#bfbfbf" stroke="black" points="243,-0.5 243,-19.5 410,-19.5 410,-0.5 243,-0.5"/>
<text text-anchor="middle" x="326.5" y="-7.5" font-family="Helvetica,sans-Serif" font-size="10.00">AForge.Imaging.Filters.ApplyMask</text>
</a>
</g>
</g>
<!-- Node2 -->
<g id="node2" class="node"><title>Node2</title>
<g id="a_node2"><a xlink:href="../../db/dc9/classAForge_1_1Imaging_1_1Filters_1_1BaseInPlacePartialFilter.html" target="_top" xlink:title="Base class for filters, which may be applied directly to the source image or its part.">
<polygon fill="white" stroke="black" points="140,-73 140,-92 261,-92 261,-73 140,-73"/>
<text text-anchor="middle" x="200.5" y="-80" font-family="Helvetica,sans-Serif" font-size="10.00">BaseInPlacePartialFilter</text>
</a>
</g>
</g>
<!-- Node2&#45;&gt;Node1 -->
<g id="edge1" class="edge"><title>Node2&#45;&gt;Node1</title>
<path fill="none" stroke="midnightblue" d="M224.964,-67.8119C250.389,-53.5859 289.411,-31.7519 310.924,-19.7154"/>
<polygon fill="midnightblue" stroke="midnightblue" points="222.968,-64.918 215.95,-72.8553 226.386,-71.0268 222.968,-64.918"/>
</g>
<!-- Node3 -->
<g id="node3" class="node"><title>Node3</title>
<g id="a_node3"><a xlink:href="../../dd/d51/interfaceAForge_1_1Imaging_1_1Filters_1_1IFilter.html" target="_top" xlink:title="Image processing filter interface.">
<polygon fill="white" stroke="black" points="0,-135.5 0,-154.5 41,-154.5 41,-135.5 0,-135.5"/>
<text text-anchor="middle" x="20.5" y="-142.5" font-family="Helvetica,sans-Serif" font-size="10.00">IFilter</text>
</a>
</g>
</g>
<!-- Node3&#45;&gt;Node2 -->
<g id="edge2" class="edge"><title>Node3&#45;&gt;Node2</title>
<path fill="none" stroke="midnightblue" d="M50.8108,-133.812C85.7455,-122.07 142.53,-102.984 175.196,-92.0049"/>
<polygon fill="midnightblue" stroke="midnightblue" points="49.5121,-130.556 41.1483,-137.06 51.7423,-137.191 49.5121,-130.556"/>
</g>
<!-- Node4 -->
<g id="node4" class="node"><title>Node4</title>
<g id="a_node4"><a xlink:href="../../de/d9b/interfaceAForge_1_1Imaging_1_1Filters_1_1IInPlaceFilter.html" target="_top" xlink:title="In&#45;place filter interface.">
<polygon fill="white" stroke="black" points="59,-135.5 59,-154.5 132,-154.5 132,-135.5 59,-135.5"/>
<text text-anchor="middle" x="95.5" y="-142.5" font-family="Helvetica,sans-Serif" font-size="10.00">IInPlaceFilter</text>
</a>
</g>
</g>
<!-- Node4&#45;&gt;Node2 -->
<g id="edge3" class="edge"><title>Node4&#45;&gt;Node2</title>
<path fill="none" stroke="midnightblue" d="M119.224,-130.331C139.544,-118.622 168.187,-102.119 185.484,-92.1521"/>
<polygon fill="midnightblue" stroke="midnightblue" points="117.461,-127.307 110.544,-135.332 120.956,-133.372 117.461,-127.307"/>
</g>
<!-- Node5 -->
<g id="node5" class="node"><title>Node5</title>
<g id="a_node5"><a xlink:href="../../d2/d66/interfaceAForge_1_1Imaging_1_1Filters_1_1IInPlacePartialFilter.html" target="_top" xlink:title="In&#45;place partial filter interface.">
<polygon fill="white" stroke="black" points="150,-135.5 150,-154.5 251,-154.5 251,-135.5 150,-135.5"/>
<text text-anchor="middle" x="200.5" y="-142.5" font-family="Helvetica,sans-Serif" font-size="10.00">IInPlacePartialFilter</text>
</a>
</g>
</g>
<!-- Node5&#45;&gt;Node2 -->
<g id="edge4" class="edge"><title>Node5&#45;&gt;Node2</title>
<path fill="none" stroke="midnightblue" d="M200.5,-125.003C200.5,-114 200.5,-100.682 200.5,-92.1521"/>
<polygon fill="midnightblue" stroke="midnightblue" points="197,-125.332 200.5,-135.332 204,-125.332 197,-125.332"/>
</g>
<!-- Node6 -->
<g id="node6" class="node"><title>Node6</title>
<g id="a_node6"><a xlink:href="../../d7/dec/interfaceAForge_1_1Imaging_1_1Filters_1_1IFilterInformation.html" target="_top" xlink:title="Interface which provides information about image processing filter.">
<polygon fill="white" stroke="black" points="269.5,-135.5 269.5,-154.5 357.5,-154.5 357.5,-135.5 269.5,-135.5"/>
<text text-anchor="middle" x="313.5" y="-142.5" font-family="Helvetica,sans-Serif" font-size="10.00">IFilterInformation</text>
</a>
</g>
</g>
<!-- Node6&#45;&gt;Node2 -->
<g id="edge5" class="edge"><title>Node6&#45;&gt;Node2</title>
<path fill="none" stroke="midnightblue" d="M288.264,-130.488C266.378,-118.771 235.359,-102.164 216.66,-92.1521"/>
<polygon fill="midnightblue" stroke="midnightblue" points="286.842,-133.697 297.31,-135.332 290.146,-127.526 286.842,-133.697"/>
</g>
<!-- Node7 -->
<g id="node7" class="node"><title>Node7</title>
<g id="a_node7"><a xlink:href="../../d0/d77/classAForge_1_1Imaging_1_1UnmanagedImage.html" target="_top" xlink:title="Image in unmanaged memory.">
<polygon fill="white" stroke="black" points="317.5,-67.5 317.5,-97.5 457.5,-97.5 457.5,-67.5 317.5,-67.5"/>
<text text-anchor="start" x="325.5" y="-85.5" font-family="Helvetica,sans-Serif" font-size="10.00">AForge.Imaging.Unmanaged</text>
<text text-anchor="middle" x="387.5" y="-74.5" font-family="Helvetica,sans-Serif" font-size="10.00">Image</text>
</a>
</g>
</g>
<!-- Node7&#45;&gt;Node1 -->
<g id="edge6" class="edge"><title>Node7&#45;&gt;Node1</title>
<path fill="none" stroke="#9a32cd" stroke-dasharray="5,2" d="M368.365,-59.3845C356.815,-46.0362 342.728,-29.7556 334.195,-19.8932"/>
<polygon fill="#9a32cd" stroke="#9a32cd" points="365.966,-61.9612 375.156,-67.2333 371.259,-57.3809 365.966,-61.9612"/>
<text text-anchor="middle" x="411.5" y="-41" font-family="Helvetica,sans-Serif" font-size="10.00"> unmanagedMaskImage</text>
</g>
<!-- Node8 -->
<g id="node8" class="node"><title>Node8</title>
<g id="a_node8"><a xlink:title=" ">
<polygon fill="white" stroke="#bfbfbf" points="376,-135.5 376,-154.5 443,-154.5 443,-135.5 376,-135.5"/>
<text text-anchor="middle" x="409.5" y="-142.5" font-family="Helvetica,sans-Serif" font-size="10.00">IDisposable</text>
</a>
</g>
</g>
<!-- Node8&#45;&gt;Node7 -->
<g id="edge7" class="edge"><title>Node8&#45;&gt;Node7</title>
<path fill="none" stroke="midnightblue" d="M402.883,-125.804C399.616,-116.82 395.733,-106.14 392.685,-97.7587"/>
<polygon fill="midnightblue" stroke="midnightblue" points="399.641,-127.13 406.348,-135.332 406.22,-124.738 399.641,-127.13"/>
</g>
</g>
</svg>
