<?xml version="1.0" encoding="UTF-8" standalone="no"?>
<!DOCTYPE svg PUBLIC "-//W3C//DTD SVG 1.1//EN"
 "http://www.w3.org/Graphics/SVG/1.1/DTD/svg11.dtd">
<!-- Generated by graphviz version 2.38.0 (20140413.2041)
 -->
<!-- Title: CShell.Framework.Results.ResultBase Pages: 1 -->
<svg width="408pt" height="382pt"
 viewBox="0.00 0.00 408.00 382.00" xmlns="http://www.w3.org/2000/svg" xmlns:xlink="http://www.w3.org/1999/xlink">
<g id="graph0" class="graph" transform="scale(1 1) rotate(0) translate(4 378)">
<title>CShell.Framework.Results.ResultBase</title>
<polygon fill="white" stroke="none" points="-4,4 -4,-378 404,-378 404,4 -4,4"/>
<!-- Node1 -->
<g id="node1" class="node"><title>Node1</title>
<g id="a_node1"><a xlink:title=" ">
<polygon fill="#bfbfbf" stroke="black" points="83,-171.5 83,-201.5 218,-201.5 218,-171.5 83,-171.5"/>
<text text-anchor="start" x="91" y="-189.5" font-family="Helvetica,sans-Serif" font-size="10.00">CShell.Framework.Results.</text>
<text text-anchor="middle" x="150.5" y="-178.5" font-family="Helvetica,sans-Serif" font-size="10.00">ResultBase</text>
</a>
</g>
</g>
<!-- Node3 -->
<g id="node3" class="node"><title>Node3</title>
<g id="a_node3"><a xlink:href="../../dd/d6d/classCShell_1_1Framework_1_1Results_1_1CloseWorkspaceResult.html" target="_top" xlink:title=" ">
<polygon fill="white" stroke="black" points="259.5,-343.5 259.5,-373.5 394.5,-373.5 394.5,-343.5 259.5,-343.5"/>
<text text-anchor="start" x="267.5" y="-361.5" font-family="Helvetica,sans-Serif" font-size="10.00">CShell.Framework.Results.</text>
<text text-anchor="middle" x="327" y="-350.5" font-family="Helvetica,sans-Serif" font-size="10.00">CloseWorkspaceResult</text>
</a>
</g>
</g>
<!-- Node1&#45;&gt;Node3 -->
<g id="edge2" class="edge"><title>Node1&#45;&gt;Node3</title>
<path fill="none" stroke="midnightblue" d="M162.43,-211.263C178.115,-244.044 210.037,-301.534 254,-334.5 258.533,-337.899 263.574,-340.833 268.826,-343.363"/>
<polygon fill="midnightblue" stroke="midnightblue" points="165.482,-209.525 158.088,-201.937 159.136,-212.48 165.482,-209.525"/>
</g>
<!-- Node4 -->
<g id="node4" class="node"><title>Node4</title>
<g id="a_node4"><a xlink:href="../../df/de8/classCShell_1_1Framework_1_1Results_1_1OpenWorkspaceResult.html" target="_top" xlink:title=" ">
<polygon fill="white" stroke="black" points="259.5,-294.5 259.5,-324.5 394.5,-324.5 394.5,-294.5 259.5,-294.5"/>
<text text-anchor="start" x="267.5" y="-312.5" font-family="Helvetica,sans-Serif" font-size="10.00">CShell.Framework.Results.</text>
<text text-anchor="middle" x="327" y="-301.5" font-family="Helvetica,sans-Serif" font-size="10.00">OpenWorkspaceResult</text>
</a>
</g>
</g>
<!-- Node1&#45;&gt;Node4 -->
<g id="edge3" class="edge"><title>Node1&#45;&gt;Node4</title>
<path fill="none" stroke="midnightblue" d="M170.106,-209.704C189.076,-231.975 220.418,-265.146 254,-285.5 259.521,-288.846 265.567,-291.791 271.734,-294.365"/>
<polygon fill="midnightblue" stroke="midnightblue" points="172.56,-207.182 163.462,-201.752 167.188,-211.67 172.56,-207.182"/>
</g>
<!-- Node5 -->
<g id="node5" class="node"><title>Node5</title>
<g id="a_node5"><a xlink:href="../../d5/dd0/classCShell_1_1Framework_1_1Results_1_1RunCodeResult.html" target="_top" xlink:title=" ">
<polygon fill="white" stroke="black" points="259.5,-245.5 259.5,-275.5 394.5,-275.5 394.5,-245.5 259.5,-245.5"/>
<text text-anchor="start" x="267.5" y="-263.5" font-family="Helvetica,sans-Serif" font-size="10.00">CShell.Framework.Results.</text>
<text text-anchor="middle" x="327" y="-252.5" font-family="Helvetica,sans-Serif" font-size="10.00">RunCodeResult</text>
</a>
</g>
</g>
<!-- Node1&#45;&gt;Node5 -->
<g id="edge4" class="edge"><title>Node1&#45;&gt;Node5</title>
<path fill="none" stroke="midnightblue" d="M188.776,-206.158C207.984,-215.907 231.948,-227.492 254,-236.5 261.685,-239.639 269.947,-242.687 278.038,-245.497"/>
<polygon fill="midnightblue" stroke="midnightblue" points="190.254,-202.982 179.758,-201.538 187.062,-209.212 190.254,-202.982"/>
</g>
<!-- Node6 -->
<g id="node6" class="node"><title>Node6</title>
<g id="a_node6"><a xlink:href="../../d6/dc4/classCShell_1_1Framework_1_1Results_1_1SaveDocumentResult.html" target="_top" xlink:title=" ">
<polygon fill="white" stroke="black" points="259.5,-196.5 259.5,-226.5 394.5,-226.5 394.5,-196.5 259.5,-196.5"/>
<text text-anchor="start" x="267.5" y="-214.5" font-family="Helvetica,sans-Serif" font-size="10.00">CShell.Framework.Results.</text>
<text text-anchor="middle" x="327" y="-203.5" font-family="Helvetica,sans-Serif" font-size="10.00">SaveDocumentResult</text>
</a>
</g>
</g>
<!-- Node1&#45;&gt;Node6 -->
<g id="edge5" class="edge"><title>Node1&#45;&gt;Node6</title>
<path fill="none" stroke="midnightblue" d="M228.592,-197.545C238.8,-199.007 249.197,-200.497 259.212,-201.932"/>
<polygon fill="midnightblue" stroke="midnightblue" points="228.863,-194.048 218.467,-196.094 227.87,-200.977 228.863,-194.048"/>
</g>
<!-- Node7 -->
<g id="node7" class="node"><title>Node7</title>
<g id="a_node7"><a xlink:href="../../dc/dd0/classCShell_1_1Framework_1_1Results_1_1ShowDialogResult.html" target="_top" xlink:title=" ">
<polygon fill="white" stroke="black" points="259.5,-147.5 259.5,-177.5 394.5,-177.5 394.5,-147.5 259.5,-147.5"/>
<text text-anchor="start" x="267.5" y="-165.5" font-family="Helvetica,sans-Serif" font-size="10.00">CShell.Framework.Results.</text>
<text text-anchor="middle" x="327" y="-154.5" font-family="Helvetica,sans-Serif" font-size="10.00">ShowDialogResult</text>
</a>
</g>
</g>
<!-- Node1&#45;&gt;Node7 -->
<g id="edge6" class="edge"><title>Node1&#45;&gt;Node7</title>
<path fill="none" stroke="midnightblue" d="M228.592,-175.897C238.8,-174.493 249.197,-173.063 259.212,-171.686"/>
<polygon fill="midnightblue" stroke="midnightblue" points="227.897,-172.46 218.467,-177.29 228.851,-179.394 227.897,-172.46"/>
</g>
<!-- Node8 -->
<g id="node8" class="node"><title>Node8</title>
<g id="a_node8"><a xlink:href="../../dc/da8/classCShell_1_1Modules_1_1Workspace_1_1Results_1_1AddFilesResult.html" target="_top" xlink:title=" ">
<polygon fill="white" stroke="black" points="257,-98.5 257,-128.5 397,-128.5 397,-98.5 257,-98.5"/>
<text text-anchor="start" x="265" y="-116.5" font-family="Helvetica,sans-Serif" font-size="10.00">CShell.Modules.Workspace.</text>
<text text-anchor="middle" x="327" y="-105.5" font-family="Helvetica,sans-Serif" font-size="10.00">Results.AddFilesResult</text>
</a>
</g>
</g>
<!-- Node1&#45;&gt;Node8 -->
<g id="edge7" class="edge"><title>Node1&#45;&gt;Node8</title>
<path fill="none" stroke="midnightblue" d="M189.643,-166.875C208.72,-157.419 232.311,-146.26 254,-137.5 261.697,-134.391 269.966,-131.359 278.059,-128.554"/>
<polygon fill="midnightblue" stroke="midnightblue" points="188.048,-163.759 180.67,-171.362 191.179,-170.02 188.048,-163.759"/>
</g>
<!-- Node9 -->
<g id="node9" class="node"><title>Node9</title>
<g id="a_node9"><a xlink:href="../../d5/dbd/classCShell_1_1Modules_1_1Workspace_1_1Results_1_1AddFolderResult.html" target="_top" xlink:title=" ">
<polygon fill="white" stroke="black" points="257,-49.5 257,-79.5 397,-79.5 397,-49.5 257,-49.5"/>
<text text-anchor="start" x="265" y="-67.5" font-family="Helvetica,sans-Serif" font-size="10.00">CShell.Modules.Workspace.</text>
<text text-anchor="middle" x="327" y="-56.5" font-family="Helvetica,sans-Serif" font-size="10.00">Results.AddFolderResult</text>
</a>
</g>
</g>
<!-- Node1&#45;&gt;Node9 -->
<g id="edge8" class="edge"><title>Node1&#45;&gt;Node9</title>
<path fill="none" stroke="midnightblue" d="M170.155,-163.54C189.161,-141.501 220.53,-108.67 254,-88.5 259.643,-85.0995 265.828,-82.1119 272.128,-79.5054"/>
<polygon fill="midnightblue" stroke="midnightblue" points="167.284,-161.514 163.497,-171.409 172.628,-166.036 167.284,-161.514"/>
</g>
<!-- Node10 -->
<g id="node10" class="node"><title>Node10</title>
<g id="a_node10"><a xlink:href="../../d9/d50/classCShell_1_1Modules_1_1Workspace_1_1Results_1_1AddReferencesResult.html" target="_top" xlink:title=" ">
<polygon fill="white" stroke="black" points="254,-0.5 254,-30.5 400,-30.5 400,-0.5 254,-0.5"/>
<text text-anchor="start" x="262" y="-18.5" font-family="Helvetica,sans-Serif" font-size="10.00">CShell.Modules.Workspace.</text>
<text text-anchor="middle" x="327" y="-7.5" font-family="Helvetica,sans-Serif" font-size="10.00">Results.AddReferencesResult</text>
</a>
</g>
</g>
<!-- Node1&#45;&gt;Node10 -->
<g id="edge9" class="edge"><title>Node1&#45;&gt;Node10</title>
<path fill="none" stroke="midnightblue" d="M162.474,-161.906C178.208,-129.347 210.185,-72.2463 254,-39.5 258.538,-36.1082 263.583,-33.1786 268.837,-30.6518"/>
<polygon fill="midnightblue" stroke="midnightblue" points="159.206,-160.629 158.117,-171.168 165.54,-163.609 159.206,-160.629"/>
</g>
<!-- Node2 -->
<g id="node2" class="node"><title>Node2</title>
<g id="a_node2"><a xlink:title=" ">
<polygon fill="white" stroke="#bfbfbf" points="0,-177 0,-196 47,-196 47,-177 0,-177"/>
<text text-anchor="middle" x="23.5" y="-184" font-family="Helvetica,sans-Serif" font-size="10.00">IResult</text>
</a>
</g>
</g>
<!-- Node2&#45;&gt;Node1 -->
<g id="edge1" class="edge"><title>Node2&#45;&gt;Node1</title>
<path fill="none" stroke="midnightblue" d="M57.3458,-186.5C65.2568,-186.5 73.9929,-186.5 82.8407,-186.5"/>
<polygon fill="midnightblue" stroke="midnightblue" points="57.1366,-183 47.1366,-186.5 57.1365,-190 57.1366,-183"/>
</g>
</g>
</svg>
