<?xml version="1.0" encoding="UTF-8" standalone="no"?>
<!DOCTYPE svg PUBLIC "-//W3C//DTD SVG 1.1//EN"
 "http://www.w3.org/Graphics/SVG/1.1/DTD/svg11.dtd">
<!-- Generated by graphviz version 2.38.0 (20140413.2041)
 -->
<!-- Title: IG.Gr3d.VtkPlotBase Pages: 1 -->
<!--zoomable 696 -->
<svg id="main" version="1.1" xmlns="http://www.w3.org/2000/svg" xmlns:xlink="http://www.w3.org/1999/xlink" xml:space="preserve" onload="init(evt)">
<style type="text/css"><![CDATA[
.edge:hover path { stroke: red; }
.edge:hover polygon { stroke: red; fill: red; }
]]></style>
<script type="text/javascript"><![CDATA[
var edges = document.getElementsByTagName('g');
if (edges && edges.length) {
  for (var i=0;i<edges.length;i++) {
    if (edges[i].id.substr(0,4)=='edge') {
      edges[i].setAttribute('class','edge');
    }
  }
}
]]></script>
        <defs>
                <circle id="rim" cx="0" cy="0" r="7"/>
                <circle id="rim2" cx="0" cy="0" r="3.5"/>
                <g id="zoomPlus">
                        <use xlink:href="#rim" fill="#404040">
                                <set attributeName="fill" to="#808080" begin="zoomplus.mouseover" end="zoomplus.mouseout"/>
                        </use>
                        <path d="M-4,0h8M0,-4v8" fill="none" stroke="white" stroke-width="1.5" pointer-events="none"/>
                </g>
                <g id="zoomMin">
                        <use xlink:href="#rim" fill="#404040">
                                <set attributeName="fill" to="#808080" begin="zoomminus.mouseover" end="zoomminus.mouseout"/>
                        </use>
                        <path d="M-4,0h8" fill="none" stroke="white" stroke-width="1.5" pointer-events="none"/>
                </g>
                <g id="dirArrow">
                        <path fill="none" stroke="white" stroke-width="1.5" d="M0,-3.0v7 M-2.5,-0.5L0,-3.0L2.5,-0.5"/>
                </g>
               <g id="resetDef">
                       <use xlink:href="#rim2" fill="#404040">
                               <set attributeName="fill" to="#808080" begin="reset.mouseover" end="reset.mouseout"/>
                       </use>
               </g>
        </defs>

<script type="text/javascript">
var viewWidth = 1233;
var viewHeight = 696;
var sectionId = 'dynsection-1';
</script>
<script xlink:href="../../svgpan.js"/>
<svg id="graph" class="graph">
<g id="viewport">
<title>IG.Gr3d.VtkPlotBase</title>
<polygon fill="white" stroke="none" points="-4,4 -4,-692 1229,-692 1229,4 -4,4"/>
<!-- Node1 -->
<g id="node1" class="node"><title>Node1</title>
<g id="a_node1"><a xlink:title="Base class for plotting classes that plot on VTK windows (class VtkPlotter).">
<polygon fill="#bfbfbf" stroke="black" points="1097,-540.5 1097,-559.5 1205,-559.5 1205,-540.5 1097,-540.5"/>
<text text-anchor="middle" x="1151" y="-547.5" font-family="Helvetica,sans-Serif" font-size="10.00">IG.Gr3d.VtkPlotBase</text>
</a>
</g>
</g>
<!-- Node2 -->
<g id="node2" class="node"><title>Node2</title>
<g id="a_node2"><a xlink:href="../../d3/db6/interfaceIG_1_1Lib_1_1ILockable.html" target="_top" xlink:title="Lockable object, has a Lock property that returns object on which lock must be performed in order to ...">
<polygon fill="white" stroke="black" points="598,-478.5 598,-497.5 656,-497.5 656,-478.5 598,-478.5"/>
<text text-anchor="middle" x="627" y="-485.5" font-family="Helvetica,sans-Serif" font-size="10.00">ILockable</text>
</a>
</g>
</g>
<!-- Node2&#45;&gt;Node1 -->
<g id="edge1" class="edge"><title>Node2&#45;&gt;Node1</title>
<path fill="none" stroke="midnightblue" d="M666.223,-497.127C680.52,-500.293 696.942,-503.638 712,-506 849.978,-527.645 1014.17,-540.81 1096.83,-546.571"/>
<polygon fill="midnightblue" stroke="midnightblue" points="666.763,-493.661 656.238,-494.869 665.22,-500.488 666.763,-493.661"/>
</g>
<!-- Node4 -->
<g id="node4" class="node"><title>Node4</title>
<g id="a_node4"><a xlink:href="../../d4/d40/classIG_1_1Gr3d_1_1VtkPlotter.html" target="_top" xlink:title="Plotter class that uses a vtkRenderWindow object for plotting 3D graphics.">
<polygon fill="white" stroke="black" points="827,-287.5 827,-306.5 924,-306.5 924,-287.5 827,-287.5"/>
<text text-anchor="middle" x="875.5" y="-294.5" font-family="Helvetica,sans-Serif" font-size="10.00">IG.Gr3d.VtkPlotter</text>
</a>
</g>
</g>
<!-- Node2&#45;&gt;Node4 -->
<g id="edge4" class="edge"><title>Node2&#45;&gt;Node4</title>
<path fill="none" stroke="midnightblue" d="M658.855,-473.826C670.874,-467.219 684.108,-458.483 694,-448 705.735,-435.565 698.861,-424.941 712,-414 743.866,-387.466 766.605,-409.162 801,-386 833.08,-364.397 858.565,-324.782 869.165,-306.592"/>
<polygon fill="midnightblue" stroke="midnightblue" points="657.224,-470.729 649.976,-478.456 660.461,-476.935 657.224,-470.729"/>
</g>
<!-- Node8 -->
<g id="node8" class="node"><title>Node8</title>
<g id="a_node8"><a xlink:href="../../d1/d9a/classIG_1_1Gr3d_1_1VtkDecorationHandler.html" target="_top" xlink:title="Manipulates axes, labels, grids, and other decorations of graphhics plotted in VTK windows.">
<polygon fill="white" stroke="black" points="1077,-179.5 1077,-198.5 1225,-198.5 1225,-179.5 1077,-179.5"/>
<text text-anchor="middle" x="1151" y="-186.5" font-family="Helvetica,sans-Serif" font-size="10.00">IG.Gr3d.VtkDecorationHandler</text>
</a>
</g>
</g>
<!-- Node2&#45;&gt;Node8 -->
<g id="edge10" class="edge"><title>Node2&#45;&gt;Node8</title>
<path fill="none" stroke="midnightblue" d="M652.265,-473.032C672.627,-460.626 700.217,-444.212 712,-439 749.923,-422.226 761.916,-424.854 801,-411 917.218,-369.805 960.784,-383.546 1059,-309 1101.07,-277.069 1133.41,-220.815 1145.18,-198.503"/>
<polygon fill="midnightblue" stroke="midnightblue" points="650.204,-470.19 643.502,-478.396 653.858,-476.161 650.204,-470.19"/>
</g>
<!-- Node24 -->
<g id="node24" class="node"><title>Node24</title>
<g id="a_node24"><a xlink:href="../../de/de7/classIG_1_1Lib_1_1StopWatch1.html" target="_top" xlink:title="Timer for measuring execution times and other intervals of time elapsed between successive events....">
<polygon fill="white" stroke="black" points="826,-560.5 826,-579.5 925,-579.5 925,-560.5 826,-560.5"/>
<text text-anchor="middle" x="875.5" y="-567.5" font-family="Helvetica,sans-Serif" font-size="10.00">IG.Lib.StopWatch1</text>
</a>
</g>
</g>
<!-- Node2&#45;&gt;Node24 -->
<g id="edge36" class="edge"><title>Node2&#45;&gt;Node24</title>
<path fill="none" stroke="midnightblue" d="M654.674,-502.529C674.772,-513.309 700.725,-526.829 712,-531 749.278,-544.791 793.196,-554.991 825.971,-561.493"/>
<polygon fill="midnightblue" stroke="midnightblue" points="656.111,-499.328 645.648,-497.662 652.789,-505.489 656.111,-499.328"/>
</g>
<!-- Node3 -->
<g id="node3" class="node"><title>Node3</title>
<g id="a_node3"><a xlink:title=" ">
<polygon fill="white" stroke="#bfbfbf" points="593.5,-419.5 593.5,-438.5 660.5,-438.5 660.5,-419.5 593.5,-419.5"/>
<text text-anchor="middle" x="627" y="-426.5" font-family="Helvetica,sans-Serif" font-size="10.00">IDisposable</text>
</a>
</g>
</g>
<!-- Node3&#45;&gt;Node1 -->
<g id="edge2" class="edge"><title>Node3&#45;&gt;Node1</title>
<path fill="none" stroke="midnightblue" d="M652.999,-443.805C665.407,-451.24 680.576,-460.463 694,-469 702.113,-474.16 703.025,-477.55 712,-481 784.75,-508.964 982.192,-518.768 1059,-532 1073.76,-534.543 1089.81,-537.614 1104.25,-540.493"/>
<polygon fill="midnightblue" stroke="midnightblue" points="654.504,-440.627 644.123,-438.508 650.916,-446.638 654.504,-440.627"/>
</g>
<!-- Node3&#45;&gt;Node4 -->
<g id="edge5" class="edge"><title>Node3&#45;&gt;Node4</title>
<path fill="none" stroke="midnightblue" d="M655.291,-414.813C671.518,-406.68 692.648,-396.609 712,-389 750.591,-373.827 764.822,-381.265 801,-361 827.571,-346.116 853.114,-320.522 865.938,-306.637"/>
<polygon fill="midnightblue" stroke="midnightblue" points="653.69,-411.701 646.354,-419.345 656.856,-417.944 653.69,-411.701"/>
</g>
<!-- Node4&#45;&gt;Node1 -->
<g id="edge3" class="edge"><title>Node4&#45;&gt;Node1</title>
<path fill="none" stroke="#9a32cd" stroke-dasharray="5,2" d="M894.405,-313.563C946.758,-361.992 1098.46,-502.324 1139.6,-540.381"/>
<polygon fill="#9a32cd" stroke="#9a32cd" points="896.605,-310.83 886.888,-306.609 891.852,-315.969 896.605,-310.83"/>
<text text-anchor="middle" x="1004.5" y="-464" font-family="Helvetica,sans-Serif" font-size="10.00"> _plotter</text>
</g>
<!-- Node4&#45;&gt;Node8 -->
<g id="edge16" class="edge"><title>Node4&#45;&gt;Node8</title>
<path fill="none" stroke="#9a32cd" stroke-dasharray="5,2" d="M893.493,-280.501C907.569,-267.701 928.656,-250.433 950,-240 976.801,-226.9 1053.34,-209.267 1103.58,-198.538"/>
<polygon fill="#9a32cd" stroke="#9a32cd" points="890.987,-278.053 886.067,-287.436 895.764,-283.169 890.987,-278.053"/>
<text text-anchor="middle" x="1004.5" y="-254" font-family="Helvetica,sans-Serif" font-size="10.00"> _plotter</text>
<text text-anchor="middle" x="1004.5" y="-243" font-family="Helvetica,sans-Serif" font-size="10.00">_plotterAccessor</text>
</g>
<!-- Node5 -->
<g id="node5" class="node"><title>Node5</title>
<g id="a_node5"><a xlink:href="../../dc/d11/interfaceIG_1_1Gr3d_1_1IVtkFormContainer.html" target="_top" xlink:title="This interface is implemented by the forms that contain the VTK control that can render VTK graphics.">
<polygon fill="white" stroke="black" points="560,-186.5 560,-205.5 694,-205.5 694,-186.5 560,-186.5"/>
<text text-anchor="middle" x="627" y="-193.5" font-family="Helvetica,sans-Serif" font-size="10.00">IG.Gr3d.IVtkFormContainer</text>
</a>
</g>
</g>
<!-- Node5&#45;&gt;Node4 -->
<g id="edge6" class="edge"><title>Node5&#45;&gt;Node4</title>
<path fill="none" stroke="#9a32cd" stroke-dasharray="5,2" d="M704.265,-197.571C735.621,-200.787 771.436,-207.915 801,-223 831.323,-238.472 856.748,-271.128 868.116,-287.385"/>
<polygon fill="#9a32cd" stroke="#9a32cd" points="704.531,-194.081 694.255,-196.66 703.896,-201.052 704.531,-194.081"/>
<text text-anchor="middle" x="756.5" y="-226" font-family="Helvetica,sans-Serif" font-size="10.00"> _formContainer</text>
</g>
<!-- Node6 -->
<g id="node6" class="node"><title>Node6</title>
<g id="a_node6"><a xlink:href="../../d3/d6e/interfaceIG_1_1Gr3d_1_1IVtkFormContainerGen.html" target="_top" xlink:title=" ">
<polygon fill="white" stroke="black" points="202,-181 202,-211 390,-211 390,-181 202,-181"/>
<text text-anchor="start" x="210" y="-199" font-family="Helvetica,sans-Serif" font-size="10.00">IVtkFormContainerGen</text>
<text text-anchor="middle" x="296" y="-188" font-family="Helvetica,sans-Serif" font-size="10.00">&lt; Kitware.VTK.RenderWindowControl &gt;</text>
</a>
</g>
</g>
<!-- Node6&#45;&gt;Node5 -->
<g id="edge7" class="edge"><title>Node6&#45;&gt;Node5</title>
<path fill="none" stroke="midnightblue" d="M400.673,-196C452.716,-196 514.213,-196 559.802,-196"/>
<polygon fill="midnightblue" stroke="midnightblue" points="400.398,-192.5 390.398,-196 400.398,-199.5 400.398,-192.5"/>
</g>
<!-- Node7 -->
<g id="node7" class="node"><title>Node7</title>
<g id="a_node7"><a xlink:href="../../df/d16/structIG_1_1Num_1_1vec3.html" target="_top" xlink:title="3D vector, struct implementation.">
<polygon fill="white" stroke="black" points="260,-233.5 260,-252.5 332,-252.5 332,-233.5 260,-233.5"/>
<text text-anchor="middle" x="296" y="-240.5" font-family="Helvetica,sans-Serif" font-size="10.00">IG.Num.vec3</text>
</a>
</g>
</g>
<!-- Node7&#45;&gt;Node4 -->
<g id="edge8" class="edge"><title>Node7&#45;&gt;Node4</title>
<path fill="none" stroke="#9a32cd" stroke-dasharray="5,2" d="M342.356,-244.741C391.581,-246.828 472.468,-250.837 542,-257 643.785,-266.022 762.527,-281.509 826.97,-290.332"/>
<polygon fill="#9a32cd" stroke="#9a32cd" points="342.485,-241.243 332.348,-244.324 342.194,-248.237 342.485,-241.243"/>
<text text-anchor="middle" x="627" y="-287" font-family="Helvetica,sans-Serif" font-size="10.00"> ScalingFactors</text>
<text text-anchor="middle" x="627" y="-276" font-family="Helvetica,sans-Serif" font-size="10.00">ScalingTranslations</text>
</g>
<!-- Node15 -->
<g id="node15" class="node"><title>Node15</title>
<g id="a_node15"><a xlink:href="../../da/d5b/classIG_1_1Num_1_1Vector3d.html" target="_top" xlink:title="Vector or point in a 3 dimensional space.">
<polygon fill="white" stroke="black" points="581,-320.5 581,-339.5 673,-339.5 673,-320.5 581,-320.5"/>
<text text-anchor="middle" x="627" y="-327.5" font-family="Helvetica,sans-Serif" font-size="10.00">IG.Num.Vector3d</text>
</a>
</g>
</g>
<!-- Node7&#45;&gt;Node15 -->
<g id="edge27" class="edge"><title>Node7&#45;&gt;Node15</title>
<path fill="none" stroke="#9a32cd" stroke-dasharray="5,2" d="M342.201,-247.184C408.378,-253.622 525.598,-266.333 542,-277 554.717,-285.27 548.224,-296.437 560,-306 567.667,-312.225 577.089,-316.914 586.389,-320.415"/>
<polygon fill="#9a32cd" stroke="#9a32cd" points="342.331,-243.68 332.041,-246.205 341.66,-250.648 342.331,-243.68"/>
<text text-anchor="middle" x="475" y="-280" font-family="Helvetica,sans-Serif" font-size="10.00"> _v</text>
</g>
<!-- Node8&#45;&gt;Node4 -->
<g id="edge9" class="edge"><title>Node8&#45;&gt;Node4</title>
<path fill="none" stroke="#9a32cd" stroke-dasharray="5,2" d="M1135.08,-206.175C1118.43,-224.147 1089.76,-251.698 1059,-266 1016.16,-285.92 962.346,-293.184 924.284,-295.759"/>
<polygon fill="#9a32cd" stroke="#9a32cd" points="1137.75,-208.442 1141.85,-198.673 1132.55,-203.753 1137.75,-208.442"/>
<text text-anchor="middle" x="1004.5" y="-297" font-family="Helvetica,sans-Serif" font-size="10.00"> _decorationHandler</text>
</g>
<!-- Node9 -->
<g id="node9" class="node"><title>Node9</title>
<g id="a_node9"><a xlink:href="../../d5/d87/classIG_1_1Lib_1_1ColorScale.html" target="_top" xlink:title=" ">
<polygon fill="white" stroke="black" points="829.5,-45.5 829.5,-64.5 921.5,-64.5 921.5,-45.5 829.5,-45.5"/>
<text text-anchor="middle" x="875.5" y="-52.5" font-family="Helvetica,sans-Serif" font-size="10.00">IG.Lib.ColorScale</text>
</a>
</g>
</g>
<!-- Node9&#45;&gt;Node8 -->
<g id="edge11" class="edge"><title>Node9&#45;&gt;Node8</title>
<path fill="none" stroke="#9a32cd" stroke-dasharray="5,2" d="M932.047,-53.2436C969.987,-54.3459 1020.21,-60.4848 1059,-82 1101.65,-105.658 1133.2,-157.658 1144.96,-179.276"/>
<polygon fill="#9a32cd" stroke="#9a32cd" points="931.753,-49.7378 921.691,-53.0576 931.627,-56.7367 931.753,-49.7378"/>
<text text-anchor="middle" x="1004.5" y="-85" font-family="Helvetica,sans-Serif" font-size="10.00"> _lookUpTableColorScale</text>
</g>
<!-- Node10 -->
<g id="node10" class="node"><title>Node10</title>
<g id="a_node10"><a xlink:href="../../d1/d6b/classIG_1_1Lib_1_1ColorScaleBase.html" target="_top" xlink:title=" ">
<polygon fill="white" stroke="black" points="584,-0.5 584,-19.5 670,-19.5 670,-0.5 584,-0.5"/>
<text text-anchor="middle" x="627" y="-7.5" font-family="Helvetica,sans-Serif" font-size="10.00">ColorScaleBase</text>
</a>
</g>
</g>
<!-- Node10&#45;&gt;Node9 -->
<g id="edge12" class="edge"><title>Node10&#45;&gt;Node9</title>
<path fill="none" stroke="midnightblue" d="M680.544,-15.3464C715.007,-19.3292 760.938,-25.5418 801,-34 815.543,-37.0705 831.429,-41.4738 844.7,-45.456"/>
<polygon fill="midnightblue" stroke="midnightblue" points="680.566,-11.8266 670.236,-14.1819 679.78,-18.7824 680.566,-11.8266"/>
</g>
<!-- Node11 -->
<g id="node11" class="node"><title>Node11</title>
<g id="a_node11"><a xlink:href="../../d0/d9a/interfaceIG_1_1Lib_1_1IColorScale.html" target="_top" xlink:title=" ">
<polygon fill="white" stroke="black" points="263,-25.5 263,-44.5 329,-44.5 329,-25.5 263,-25.5"/>
<text text-anchor="middle" x="296" y="-32.5" font-family="Helvetica,sans-Serif" font-size="10.00">IColorScale</text>
</a>
</g>
</g>
<!-- Node11&#45;&gt;Node9 -->
<g id="edge14" class="edge"><title>Node11&#45;&gt;Node9</title>
<path fill="none" stroke="midnightblue" d="M339.601,-36.4754C445.648,-40.148 720.731,-49.6747 829.391,-53.4378"/>
<polygon fill="midnightblue" stroke="midnightblue" points="339.402,-32.9664 329.286,-36.1181 339.159,-39.9623 339.402,-32.9664"/>
</g>
<!-- Node11&#45;&gt;Node10 -->
<g id="edge13" class="edge"><title>Node11&#45;&gt;Node10</title>
<path fill="none" stroke="midnightblue" d="M339.162,-31.7962C402.339,-26.9955 520.869,-17.9887 583.969,-13.1938"/>
<polygon fill="midnightblue" stroke="midnightblue" points="338.851,-28.3097 329.145,-32.5574 339.381,-35.2895 338.851,-28.3097"/>
</g>
<!-- Node12 -->
<g id="node12" class="node"><title>Node12</title>
<g id="a_node12"><a xlink:href="../../dd/d52/structIG_1_1Lib_1_1color.html" target="_top" xlink:title="Extended color representation. Stores RGB components and opacity as double numbers ranging fom 0 to 1...">
<polygon fill="white" stroke="black" points="594,-90.5 594,-109.5 660,-109.5 660,-90.5 594,-90.5"/>
<text text-anchor="middle" x="627" y="-97.5" font-family="Helvetica,sans-Serif" font-size="10.00">IG.Lib.color</text>
</a>
</g>
</g>
<!-- Node12&#45;&gt;Node4 -->
<g id="edge20" class="edge"><title>Node12&#45;&gt;Node4</title>
<path fill="none" stroke="#9a32cd" stroke-dasharray="5,2" d="M669.797,-112.356C707.675,-125.253 763.192,-148.595 801,-184 809.883,-192.318 852.853,-261.717 868.654,-287.449"/>
<polygon fill="#9a32cd" stroke="#9a32cd" points="670.684,-108.963 660.09,-109.147 668.487,-115.609 670.684,-108.963"/>
<text text-anchor="middle" x="756.5" y="-187" font-family="Helvetica,sans-Serif" font-size="10.00"> _backGround</text>
</g>
<!-- Node12&#45;&gt;Node8 -->
<g id="edge17" class="edge"><title>Node12&#45;&gt;Node8</title>
<path fill="none" stroke="#9a32cd" stroke-dasharray="5,2" d="M670.165,-96.3971C748.899,-91.1191 922.64,-86.3583 1059,-132 1090.47,-142.532 1122.17,-165.975 1138.57,-179.283"/>
<polygon fill="#9a32cd" stroke="#9a32cd" points="669.874,-92.9088 660.146,-97.1066 670.369,-99.8913 669.874,-92.9088"/>
<text text-anchor="middle" x="875.5" y="-107" font-family="Helvetica,sans-Serif" font-size="10.00"> _cubeAxesColor</text>
</g>
<!-- Node12&#45;&gt;Node9 -->
<g id="edge15" class="edge"><title>Node12&#45;&gt;Node9</title>
<path fill="none" stroke="#9a32cd" stroke-dasharray="5,2" d="M670.124,-90.573C683.487,-87.69 698.339,-84.5971 712,-82 751.474,-74.4955 796.566,-67.0956 829.22,-61.946"/>
<polygon fill="#9a32cd" stroke="#9a32cd" points="669.265,-87.1778 660.239,-92.7252 670.755,-94.0176 669.265,-87.1778"/>
<text text-anchor="middle" x="756.5" y="-85" font-family="Helvetica,sans-Serif" font-size="10.00"> _definitionColors</text>
</g>
<!-- Node13 -->
<g id="node13" class="node"><title>Node13</title>
<g id="a_node13"><a xlink:href="../../db/d5e/interfaceIG_1_1Num_1_1IBoundingBox.html" target="_top" xlink:title="Bounding box, defines minimum and maximum co&#45;ordinates of domains, geometric objects and their groups...">
<polygon fill="white" stroke="black" points="819,-179.5 819,-198.5 932,-198.5 932,-179.5 819,-179.5"/>
<text text-anchor="middle" x="875.5" y="-186.5" font-family="Helvetica,sans-Serif" font-size="10.00">IG.Num.IBoundingBox</text>
</a>
</g>
</g>
<!-- Node13&#45;&gt;Node8 -->
<g id="edge18" class="edge"><title>Node13&#45;&gt;Node8</title>
<path fill="none" stroke="#9a32cd" stroke-dasharray="5,2" d="M942.225,-189C982.781,-189 1034.87,-189 1076.75,-189"/>
<polygon fill="#9a32cd" stroke="#9a32cd" points="942.177,-185.5 932.176,-189 942.176,-192.5 942.177,-185.5"/>
<text text-anchor="middle" x="1004.5" y="-192" font-family="Helvetica,sans-Serif" font-size="10.00"> _bounds</text>
</g>
<!-- Node14 -->
<g id="node14" class="node"><title>Node14</title>
<g id="a_node14"><a xlink:title=" ">
<polygon fill="white" stroke="#bfbfbf" points="33,-385.5 33,-404.5 74,-404.5 74,-385.5 33,-385.5"/>
<text text-anchor="middle" x="53.5" y="-392.5" font-family="Helvetica,sans-Serif" font-size="10.00">static</text>
</a>
</g>
</g>
<!-- Node14&#45;&gt;Node1 -->
<g id="edge39" class="edge"><title>Node14&#45;&gt;Node1</title>
<path fill="none" stroke="#9a32cd" stroke-dasharray="5,2" d="M76.7188,-410.437C144.889,-456.652 358.673,-593.11 560,-632 680.91,-655.356 1002.06,-618.475 1059,-601 1088.95,-591.808 1119.98,-571.749 1136.95,-559.708"/>
<polygon fill="#9a32cd" stroke="#9a32cd" points="78.3134,-407.287 68.0825,-404.534 74.3635,-413.067 78.3134,-407.287"/>
<text text-anchor="middle" x="627" y="-654" font-family="Helvetica,sans-Serif" font-size="10.00"> func1</text>
<text text-anchor="middle" x="627" y="-643" font-family="Helvetica,sans-Serif" font-size="10.00">func2</text>
</g>
<!-- Node14&#45;&gt;Node4 -->
<g id="edge34" class="edge"><title>Node14&#45;&gt;Node4</title>
<path fill="none" stroke="#9a32cd" stroke-dasharray="5,2" d="M84.2047,-393.638C142.75,-390.882 277.16,-384.204 390,-376 525.286,-366.164 559.1,-363.182 694,-349 741.643,-343.991 755.297,-350.357 801,-336 822.913,-329.117 845.959,-315.739 860.278,-306.59"/>
<polygon fill="#9a32cd" stroke="#9a32cd" points="84.004,-390.143 74.1783,-394.106 84.3308,-397.135 84.004,-390.143"/>
<text text-anchor="middle" x="475" y="-422" font-family="Helvetica,sans-Serif" font-size="10.00"> DefaultIsAllowedVtkFormPlain</text>
<text text-anchor="middle" x="475" y="-411" font-family="Helvetica,sans-Serif" font-size="10.00">DefaultIsAllowedVtkForm</text>
<text text-anchor="middle" x="475" y="-400" font-family="Helvetica,sans-Serif" font-size="10.00">DefaultBackground</text>
<text text-anchor="middle" x="475" y="-389" font-family="Helvetica,sans-Serif" font-size="10.00">_defaultOutputLevel</text>
<text text-anchor="middle" x="475" y="-378" font-family="Helvetica,sans-Serif" font-size="10.00">DefaultFormContainerParallel</text>
</g>
<!-- Node14&#45;&gt;Node8 -->
<g id="edge19" class="edge"><title>Node14&#45;&gt;Node8</title>
<path fill="none" stroke="#9a32cd" stroke-dasharray="5,2" d="M66.3638,-376.501C100.466,-323.391 196.676,-174.024 202,-171 352.827,-85.3272 897.806,-152.912 1085.75,-179.482"/>
<polygon fill="#9a32cd" stroke="#9a32cd" points="63.2104,-374.935 60.7548,-385.241 69.1015,-378.716 63.2104,-374.935"/>
<text text-anchor="middle" x="627" y="-151" font-family="Helvetica,sans-Serif" font-size="10.00"> min</text>
<text text-anchor="middle" x="627" y="-140" font-family="Helvetica,sans-Serif" font-size="10.00">max</text>
</g>
<!-- Node16 -->
<g id="node16" class="node"><title>Node16</title>
<g id="a_node16"><a xlink:href="../../d0/d5a/classIG_1_1Num_1_1VectorBase.html" target="_top" xlink:title="Base class for real vectors.">
<polygon fill="white" stroke="black" points="262,-347.5 262,-366.5 330,-366.5 330,-347.5 262,-347.5"/>
<text text-anchor="middle" x="296" y="-354.5" font-family="Helvetica,sans-Serif" font-size="10.00">VectorBase</text>
</a>
</g>
</g>
<!-- Node14&#45;&gt;Node16 -->
<g id="edge24" class="edge"><title>Node14&#45;&gt;Node16</title>
<path fill="none" stroke="#9a32cd" stroke-dasharray="5,2" d="M83.6093,-382.725C96.13,-377.96 111.065,-372.949 125,-370 171.768,-360.103 227.185,-357.519 261.726,-356.961"/>
<polygon fill="#9a32cd" stroke="#9a32cd" points="82.1732,-379.529 74.151,-386.449 84.738,-386.042 82.1732,-379.529"/>
<text text-anchor="middle" x="154.5" y="-373" font-family="Helvetica,sans-Serif" font-size="10.00"> _matrixStore</text>
</g>
<!-- Node14&#45;&gt;Node24 -->
<g id="edge38" class="edge"><title>Node14&#45;&gt;Node24</title>
<path fill="none" stroke="#9a32cd" stroke-dasharray="5,2" d="M83.8926,-403.926C175.717,-431.435 465.79,-515.498 712,-556 749.999,-562.251 793.486,-565.811 825.906,-567.776"/>
<polygon fill="#9a32cd" stroke="#9a32cd" points="84.7575,-400.531 74.1731,-401.003 82.7416,-407.234 84.7575,-400.531"/>
<text text-anchor="middle" x="475" y="-559" font-family="Helvetica,sans-Serif" font-size="10.00"> lastId</text>
<text text-anchor="middle" x="475" y="-548" font-family="Helvetica,sans-Serif" font-size="10.00">_staticLock</text>
<text text-anchor="middle" x="475" y="-537" font-family="Helvetica,sans-Serif" font-size="10.00">numWarnCpu</text>
<text text-anchor="middle" x="475" y="-526" font-family="Helvetica,sans-Serif" font-size="10.00">MaxWarnCpu</text>
</g>
<!-- Node15&#45;&gt;Node4 -->
<g id="edge21" class="edge"><title>Node15&#45;&gt;Node4</title>
<path fill="none" stroke="#9a32cd" stroke-dasharray="5,2" d="M683.091,-318.822C692.704,-317.068 702.626,-315.381 712,-314 750.446,-308.338 794.282,-303.867 826.728,-300.934"/>
<polygon fill="#9a32cd" stroke="#9a32cd" points="682.408,-315.389 673.22,-320.665 683.693,-322.27 682.408,-315.389"/>
<text text-anchor="middle" x="756.5" y="-328" font-family="Helvetica,sans-Serif" font-size="10.00"> vecOriginal</text>
<text text-anchor="middle" x="756.5" y="-317" font-family="Helvetica,sans-Serif" font-size="10.00">vecScaled</text>
</g>
<!-- Node16&#45;&gt;Node15 -->
<g id="edge22" class="edge"><title>Node16&#45;&gt;Node15</title>
<path fill="none" stroke="midnightblue" d="M340.556,-354.241C389.572,-351.033 471.56,-345.359 542,-339 554.562,-337.866 568.164,-336.478 580.689,-335.135"/>
<polygon fill="midnightblue" stroke="midnightblue" points="340.068,-350.765 330.316,-354.906 340.522,-357.75 340.068,-350.765"/>
</g>
<!-- Node17 -->
<g id="node17" class="node"><title>Node17</title>
<g id="a_node17"><a xlink:href="../../d3/d24/interfaceIG_1_1Num_1_1IVector.html" target="_top" xlink:title="Generic Vector interface">
<polygon fill="white" stroke="black" points="30,-283.5 30,-302.5 77,-302.5 77,-283.5 30,-283.5"/>
<text text-anchor="middle" x="53.5" y="-290.5" font-family="Helvetica,sans-Serif" font-size="10.00">IVector</text>
</a>
</g>
</g>
<!-- Node17&#45;&gt;Node15 -->
<g id="edge25" class="edge"><title>Node17&#45;&gt;Node15</title>
<path fill="none" stroke="midnightblue" d="M87.3562,-292.56C147.495,-292.004 279.275,-291.946 390,-300 457.902,-304.939 474.469,-310.358 542,-319 554.546,-320.606 568.143,-322.374 580.668,-324.014"/>
<polygon fill="midnightblue" stroke="midnightblue" points="87.2819,-289.06 77.3186,-292.663 87.3543,-296.06 87.2819,-289.06"/>
</g>
<!-- Node17&#45;&gt;Node16 -->
<g id="edge23" class="edge"><title>Node17&#45;&gt;Node16</title>
<path fill="none" stroke="midnightblue" d="M87.1383,-303.93C116.862,-313.65 162.076,-327.856 202,-338 221.645,-342.992 243.882,-347.573 261.684,-350.986"/>
<polygon fill="midnightblue" stroke="midnightblue" points="87.8977,-300.495 77.3047,-300.693 85.7088,-307.144 87.8977,-300.495"/>
</g>
<!-- Node18 -->
<g id="node18" class="node"><title>Node18</title>
<g id="a_node18"><a xlink:title=" ">
<polygon fill="white" stroke="#bfbfbf" points="265,-309.5 265,-328.5 327,-328.5 327,-309.5 265,-309.5"/>
<text text-anchor="middle" x="296" y="-316.5" font-family="Helvetica,sans-Serif" font-size="10.00">ICloneable</text>
</a>
</g>
</g>
<!-- Node18&#45;&gt;Node15 -->
<g id="edge26" class="edge"><title>Node18&#45;&gt;Node15</title>
<path fill="none" stroke="midnightblue" d="M337.184,-320.344C398.819,-322.404 516.317,-326.333 580.824,-328.49"/>
<polygon fill="midnightblue" stroke="midnightblue" points="337.18,-316.842 327.069,-320.005 336.946,-323.838 337.18,-316.842"/>
</g>
<!-- Node19 -->
<g id="node19" class="node"><title>Node19</title>
<g id="a_node19"><a xlink:title=" ">
<polygon fill="white" stroke="#bfbfbf" points="609.5,-224.5 609.5,-243.5 644.5,-243.5 644.5,-224.5 609.5,-224.5"/>
<text text-anchor="middle" x="627" y="-231.5" font-family="Helvetica,sans-Serif" font-size="10.00">VTK</text>
</a>
</g>
</g>
<!-- Node19&#45;&gt;Node4 -->
<g id="edge28" class="edge"><title>Node19&#45;&gt;Node4</title>
<path fill="none" stroke="#9a32cd" stroke-dasharray="5,2" d="M654.946,-233.996C689.599,-234.723 751.243,-238.513 801,-255 823.74,-262.535 847.32,-277.502 861.451,-287.382"/>
<polygon fill="#9a32cd" stroke="#9a32cd" points="654.739,-230.493 644.692,-233.855 654.643,-237.492 654.739,-230.493"/>
<text text-anchor="middle" x="756.5" y="-258" font-family="Helvetica,sans-Serif" font-size="10.00"> _renderControl</text>
</g>
<!-- Node20 -->
<g id="node20" class="node"><title>Node20</title>
<g id="a_node20"><a xlink:href="../../d5/da6/classIG_1_1Num_1_1BoundingBox3d.html" target="_top" xlink:title="A 3D bounding box.">
<polygon fill="white" stroke="black" points="566.5,-565.5 566.5,-584.5 687.5,-584.5 687.5,-565.5 566.5,-565.5"/>
<text text-anchor="middle" x="627" y="-572.5" font-family="Helvetica,sans-Serif" font-size="10.00">IG.Num.BoundingBox3d</text>
</a>
</g>
</g>
<!-- Node20&#45;&gt;Node1 -->
<g id="edge40" class="edge"><title>Node20&#45;&gt;Node1</title>
<path fill="none" stroke="#9a32cd" stroke-dasharray="5,2" d="M697.762,-584.504C783.664,-594.225 933.595,-604.716 1059,-580 1082.5,-575.368 1108.36,-566.455 1126.48,-559.542"/>
<polygon fill="#9a32cd" stroke="#9a32cd" points="697.947,-581.002 687.61,-583.325 697.139,-587.956 697.947,-581.002"/>
<text text-anchor="middle" x="875.5" y="-599" font-family="Helvetica,sans-Serif" font-size="10.00"> _boundsCoordinates</text>
</g>
<!-- Node20&#45;&gt;Node4 -->
<g id="edge29" class="edge"><title>Node20&#45;&gt;Node4</title>
<path fill="none" stroke="#9a32cd" stroke-dasharray="5,2" d="M648.194,-559.162C682.223,-531.864 752.06,-473.163 801,-414 831.274,-377.402 858.686,-327.427 869.553,-306.66"/>
<polygon fill="#9a32cd" stroke="#9a32cd" points="645.993,-556.441 640.349,-565.407 650.353,-561.918 645.993,-556.441"/>
<text text-anchor="middle" x="756.5" y="-516" font-family="Helvetica,sans-Serif" font-size="10.00"> _boundsScaled</text>
<text text-anchor="middle" x="756.5" y="-505" font-family="Helvetica,sans-Serif" font-size="10.00">_boundsCoordinates</text>
</g>
<!-- Node21 -->
<g id="node21" class="node"><title>Node21</title>
<g id="a_node21"><a xlink:href="../../df/d61/classIG_1_1Num_1_1BoundingBoxBase.html" target="_top" xlink:title="Base class for bounding boxes that define minimal and maximal co&#45;ordinates of objects,...">
<polygon fill="white" stroke="black" points="247.5,-641.5 247.5,-660.5 344.5,-660.5 344.5,-641.5 247.5,-641.5"/>
<text text-anchor="middle" x="296" y="-648.5" font-family="Helvetica,sans-Serif" font-size="10.00">BoundingBoxBase</text>
</a>
</g>
</g>
<!-- Node21&#45;&gt;Node20 -->
<g id="edge30" class="edge"><title>Node21&#45;&gt;Node20</title>
<path fill="none" stroke="midnightblue" d="M355.106,-656.447C407.674,-658.557 485.307,-654.413 542,-620 554.014,-612.707 548.584,-602.198 560,-594 565.424,-590.105 571.633,-587.005 578.024,-584.539"/>
<polygon fill="midnightblue" stroke="midnightblue" points="355.1,-652.942 344.94,-655.948 354.757,-659.934 355.1,-652.942"/>
</g>
<!-- Node22 -->
<g id="node22" class="node"><title>Node22</title>
<g id="a_node22"><a xlink:href="../../db/d5e/interfaceIG_1_1Num_1_1IBoundingBox.html" target="_top" xlink:title="Bounding box, defines minimum and maximum co&#45;ordinates of domains, geometric objects and their groups...">
<polygon fill="white" stroke="black" points="15,-613.5 15,-632.5 92,-632.5 92,-613.5 15,-613.5"/>
<text text-anchor="middle" x="53.5" y="-620.5" font-family="Helvetica,sans-Serif" font-size="10.00">IBoundingBox</text>
</a>
</g>
</g>
<!-- Node22&#45;&gt;Node20 -->
<g id="edge33" class="edge"><title>Node22&#45;&gt;Node20</title>
<path fill="none" stroke="midnightblue" d="M102.295,-619.923C189.681,-614.152 381.054,-600.846 542,-585 549.892,-584.223 558.193,-583.329 566.378,-582.401"/>
<polygon fill="midnightblue" stroke="midnightblue" points="101.911,-616.44 92.1623,-620.589 102.37,-623.425 101.911,-616.44"/>
</g>
<!-- Node22&#45;&gt;Node21 -->
<g id="edge31" class="edge"><title>Node22&#45;&gt;Node21</title>
<path fill="none" stroke="midnightblue" d="M102.078,-628.539C144.158,-633.438 205.237,-640.549 247.341,-645.451"/>
<polygon fill="midnightblue" stroke="midnightblue" points="102.416,-625.055 92.0781,-627.375 101.606,-632.008 102.416,-625.055"/>
</g>
<!-- Node23 -->
<g id="node23" class="node"><title>Node23</title>
<g id="a_node23"><a xlink:href="../../d3/d24/interfaceIG_1_1Num_1_1IVector.html" target="_top" xlink:title="Generic Vector interface">
<polygon fill="white" stroke="black" points="0,-661.5 0,-680.5 107,-680.5 107,-661.5 0,-661.5"/>
<text text-anchor="middle" x="53.5" y="-668.5" font-family="Helvetica,sans-Serif" font-size="10.00">IG.Num.IVector&lt; T &gt;</text>
</a>
</g>
</g>
<!-- Node23&#45;&gt;Node21 -->
<g id="edge32" class="edge"><title>Node23&#45;&gt;Node21</title>
<path fill="none" stroke="#9a32cd" stroke-dasharray="5,2" d="M117.344,-665.774C157.963,-662.396 210,-658.069 247.24,-654.972"/>
<polygon fill="#9a32cd" stroke="#9a32cd" points="116.954,-662.294 107.279,-666.611 117.534,-669.27 116.954,-662.294"/>
<text text-anchor="middle" x="154.5" y="-680" font-family="Helvetica,sans-Serif" font-size="10.00"> _maxAux</text>
<text text-anchor="middle" x="154.5" y="-669" font-family="Helvetica,sans-Serif" font-size="10.00">_minAux</text>
</g>
<!-- Node24&#45;&gt;Node1 -->
<g id="edge35" class="edge"><title>Node24&#45;&gt;Node1</title>
<path fill="none" stroke="#9a32cd" stroke-dasharray="5,2" d="M935.307,-565.7C983.242,-562.194 1050.36,-557.286 1096.73,-553.895"/>
<polygon fill="#9a32cd" stroke="#9a32cd" points="934.799,-562.227 925.081,-566.447 935.31,-569.209 934.799,-562.227"/>
<text text-anchor="middle" x="1004.5" y="-568" font-family="Helvetica,sans-Serif" font-size="10.00"> _timer</text>
</g>
<!-- Node25 -->
<g id="node25" class="node"><title>Node25</title>
<g id="a_node25"><a xlink:href="../../dc/d79/interfaceIG_1_1Lib_1_1IIdentifiable.html" target="_top" xlink:title="Classes whose instances have unique integer IDs.">
<polygon fill="white" stroke="black" points="594.5,-603.5 594.5,-622.5 659.5,-622.5 659.5,-603.5 594.5,-603.5"/>
<text text-anchor="middle" x="627" y="-610.5" font-family="Helvetica,sans-Serif" font-size="10.00">IIdentifiable</text>
</a>
</g>
</g>
<!-- Node25&#45;&gt;Node24 -->
<g id="edge37" class="edge"><title>Node25&#45;&gt;Node24</title>
<path fill="none" stroke="midnightblue" d="M669.618,-605.74C712.816,-598.205 780.325,-586.428 825.933,-578.472"/>
<polygon fill="midnightblue" stroke="midnightblue" points="668.971,-602.3 659.721,-607.467 670.174,-609.196 668.971,-602.3"/>
</g>
</g>
</svg>
        <g id="navigator" transform="translate(0 0)" fill="#404254">
                <rect fill="#f2f5e9" fill-opacity="0.5" stroke="#606060" stroke-width=".5" x="0" y="0" width="60" height="60"/>
                <use id="zoomplus" xlink:href="#zoomPlus" x="17" y="9" onmousedown="handleZoom(evt,'in')"/>
                <use id="zoomminus" xlink:href="#zoomMin" x="42" y="9" onmousedown="handleZoom(evt,'out')"/>
                <use id="reset" xlink:href="#resetDef" x="30" y="36" onmousedown="handleReset()"/>
                <g id="arrowUp" xlink:href="#dirArrow" transform="translate(30 24)" onmousedown="handlePan(0,-1)">
                  <use xlink:href="#rim" fill="#404040">
                        <set attributeName="fill" to="#808080" begin="arrowUp.mouseover" end="arrowUp.mouseout"/>
                  </use>
                  <path fill="none" stroke="white" stroke-width="1.5" d="M0,-3.0v7 M-2.5,-0.5L0,-3.0L2.5,-0.5"/>
                </g>
                <g id="arrowRight" xlink:href="#dirArrow" transform="rotate(90) translate(36 -43)" onmousedown="handlePan(1,0)">
                  <use xlink:href="#rim" fill="#404040">
                        <set attributeName="fill" to="#808080" begin="arrowRight.mouseover" end="arrowRight.mouseout"/>
                  </use>
                  <path fill="none" stroke="white" stroke-width="1.5" d="M0,-3.0v7 M-2.5,-0.5L0,-3.0L2.5,-0.5"/>
                </g>
                <g id="arrowDown" xlink:href="#dirArrow" transform="rotate(180) translate(-30 -48)" onmousedown="handlePan(0,1)">
                  <use xlink:href="#rim" fill="#404040">
                        <set attributeName="fill" to="#808080" begin="arrowDown.mouseover" end="arrowDown.mouseout"/>
                  </use>
                  <path fill="none" stroke="white" stroke-width="1.5" d="M0,-3.0v7 M-2.5,-0.5L0,-3.0L2.5,-0.5"/>
                </g>
                <g id="arrowLeft" xlink:href="#dirArrow" transform="rotate(270) translate(-36 17)" onmousedown="handlePan(-1,0)">
                  <use xlink:href="#rim" fill="#404040">
                        <set attributeName="fill" to="#808080" begin="arrowLeft.mouseover" end="arrowLeft.mouseout"/>
                  </use>
                  <path fill="none" stroke="white" stroke-width="1.5" d="M0,-3.0v7 M-2.5,-0.5L0,-3.0L2.5,-0.5"/>
                </g>
        </g>
        <svg viewBox="0 0 15 15" width="100%" height="30px" preserveAspectRatio="xMaxYMin meet">
         <g id="arrow_out" transform="scale(0.3 0.3)">
          <a xlink:href="classIG_1_1Gr3d_1_1VtkPlotBase__coll__graph_org.svg" target="_base">
           <rect id="button" ry="5" rx="5" y="6" x="6" height="38" width="38"
                fill="#f2f5e9" fill-opacity="0.5" stroke="#606060" stroke-width="1.0"/>
           <path id="arrow"
             d="M 11.500037,31.436501 C 11.940474,20.09759 22.043105,11.32322 32.158766,21.979434 L 37.068811,17.246167 C 37.068811,17.246167 37.088388,32 37.088388,32 L 22.160133,31.978069 C 22.160133,31.978069 26.997745,27.140456 26.997745,27.140456 C 18.528582,18.264221 13.291696,25.230495 11.500037,31.436501 z"
             style="fill:#404040;"/>
          </a>
         </g>
        </svg>
</svg>
