<?xml version="1.0" encoding="UTF-8" standalone="no"?>
<!DOCTYPE svg PUBLIC "-//W3C//DTD SVG 1.1//EN"
 "http://www.w3.org/Graphics/SVG/1.1/DTD/svg11.dtd">
<!-- Generated by graphviz version 2.38.0 (20140413.2041)
 -->
<!-- Title: IG.Forms.SoundPlayerControlSimple Pages: 1 -->
<svg width="277pt" height="194pt"
 viewBox="0.00 0.00 277.00 194.00" xmlns="http://www.w3.org/2000/svg" xmlns:xlink="http://www.w3.org/1999/xlink">
<g id="graph0" class="graph" transform="scale(1 1) rotate(0) translate(4 190)">
<title>IG.Forms.SoundPlayerControlSimple</title>
<polygon fill="white" stroke="none" points="-4,4 -4,-190 273,-190 273,4 -4,4"/>
<!-- Node1 -->
<g id="node1" class="node"><title>Node1</title>
<g id="a_node1"><a xlink:title=" ">
<polygon fill="#bfbfbf" stroke="black" points="38,-0.5 38,-30.5 184,-30.5 184,-0.5 38,-0.5"/>
<text text-anchor="start" x="46" y="-18.5" font-family="Helvetica,sans-Serif" font-size="10.00">IG.Forms.SoundPlayerControl</text>
<text text-anchor="middle" x="111" y="-7.5" font-family="Helvetica,sans-Serif" font-size="10.00">Simple</text>
</a>
</g>
</g>
<!-- Node2 -->
<g id="node2" class="node"><title>Node2</title>
<g id="a_node2"><a xlink:title=" ">
<polygon fill="white" stroke="#bfbfbf" points="0,-166.5 0,-185.5 68,-185.5 68,-166.5 0,-166.5"/>
<text text-anchor="middle" x="34" y="-173.5" font-family="Helvetica,sans-Serif" font-size="10.00">UserControl</text>
</a>
</g>
</g>
<!-- Node2&#45;&gt;Node1 -->
<g id="edge1" class="edge"><title>Node2&#45;&gt;Node1</title>
<path fill="none" stroke="midnightblue" d="M42.6961,-157.1C58.1382,-125.313 90.0405,-59.6438 104.095,-30.714"/>
<polygon fill="midnightblue" stroke="midnightblue" points="39.3614,-155.954 38.1399,-166.478 45.6578,-159.013 39.3614,-155.954"/>
</g>
<!-- Node3 -->
<g id="node3" class="node"><title>Node3</title>
<g id="a_node3"><a xlink:title=" ">
<polygon fill="white" stroke="#bfbfbf" points="86,-166.5 86,-185.5 136,-185.5 136,-166.5 86,-166.5"/>
<text text-anchor="middle" x="111" y="-173.5" font-family="Helvetica,sans-Serif" font-size="10.00">System</text>
</a>
</g>
</g>
<!-- Node3&#45;&gt;Node1 -->
<g id="edge2" class="edge"><title>Node3&#45;&gt;Node1</title>
<path fill="none" stroke="#9a32cd" stroke-dasharray="5,2" d="M111,-156.263C111,-124.174 111,-59.3923 111,-30.714"/>
<polygon fill="#9a32cd" stroke="#9a32cd" points="107.5,-156.478 111,-166.478 114.5,-156.478 107.5,-156.478"/>
<text text-anchor="middle" x="149" y="-140" font-family="Helvetica,sans-Serif" font-size="10.00"> panel1</text>
<text text-anchor="middle" x="149" y="-129" font-family="Helvetica,sans-Serif" font-size="10.00">chkRepeat</text>
<text text-anchor="middle" x="149" y="-118" font-family="Helvetica,sans-Serif" font-size="10.00">_soundPlayer</text>
<text text-anchor="middle" x="149" y="-107" font-family="Helvetica,sans-Serif" font-size="10.00">btnPlay</text>
<text text-anchor="middle" x="149" y="-96" font-family="Helvetica,sans-Serif" font-size="10.00">components</text>
<text text-anchor="middle" x="149" y="-85" font-family="Helvetica,sans-Serif" font-size="10.00">lblPause</text>
<text text-anchor="middle" x="149" y="-74" font-family="Helvetica,sans-Serif" font-size="10.00">panelUpper</text>
<text text-anchor="middle" x="149" y="-63" font-family="Helvetica,sans-Serif" font-size="10.00">button1</text>
<text text-anchor="middle" x="149" y="-52" font-family="Helvetica,sans-Serif" font-size="10.00">numericUpDown1</text>
</g>
<!-- Node4 -->
<g id="node4" class="node"><title>Node4</title>
<g id="a_node4"><a xlink:title=" ">
<polygon fill="white" stroke="#bfbfbf" points="195.5,-166.5 195.5,-185.5 224.5,-185.5 224.5,-166.5 195.5,-166.5"/>
<text text-anchor="middle" x="210" y="-173.5" font-family="Helvetica,sans-Serif" font-size="10.00">IG</text>
</a>
</g>
</g>
<!-- Node4&#45;&gt;Node1 -->
<g id="edge3" class="edge"><title>Node4&#45;&gt;Node1</title>
<path fill="none" stroke="#9a32cd" stroke-dasharray="5,2" d="M211.956,-155.91C213.64,-129.079 212.691,-80.0292 188,-49 181.766,-41.1657 173.299,-35.1936 164.255,-30.6489"/>
<polygon fill="#9a32cd" stroke="#9a32cd" points="208.438,-155.977 211.103,-166.232 215.415,-156.554 208.438,-155.977"/>
<text text-anchor="middle" x="240.5" y="-96" font-family="Helvetica,sans-Serif" font-size="10.00"> fileSelector1</text>
</g>
</g>
</svg>
