<?xml version="1.0" encoding="UTF-8" standalone="no"?>
<!DOCTYPE svg PUBLIC "-//W3C//DTD SVG 1.1//EN"
 "http://www.w3.org/Graphics/SVG/1.1/DTD/svg11.dtd">
<!-- Generated by graphviz version 2.38.0 (20140413.2041)
 -->
<!-- Title: AForge.Neuro.Learning.EvolutionaryLearning Pages: 1 -->
<!--zoomable 245 -->
<svg id="main" version="1.1" xmlns="http://www.w3.org/2000/svg" xmlns:xlink="http://www.w3.org/1999/xlink" xml:space="preserve" onload="init(evt)">
<style type="text/css"><![CDATA[
.edge:hover path { stroke: red; }
.edge:hover polygon { stroke: red; fill: red; }
]]></style>
<script type="text/javascript"><![CDATA[
var edges = document.getElementsByTagName('g');
if (edges && edges.length) {
  for (var i=0;i<edges.length;i++) {
    if (edges[i].id.substr(0,4)=='edge') {
      edges[i].setAttribute('class','edge');
    }
  }
}
]]></script>
        <defs>
                <circle id="rim" cx="0" cy="0" r="7"/>
                <circle id="rim2" cx="0" cy="0" r="3.5"/>
                <g id="zoomPlus">
                        <use xlink:href="#rim" fill="#404040">
                                <set attributeName="fill" to="#808080" begin="zoomplus.mouseover" end="zoomplus.mouseout"/>
                        </use>
                        <path d="M-4,0h8M0,-4v8" fill="none" stroke="white" stroke-width="1.5" pointer-events="none"/>
                </g>
                <g id="zoomMin">
                        <use xlink:href="#rim" fill="#404040">
                                <set attributeName="fill" to="#808080" begin="zoomminus.mouseover" end="zoomminus.mouseout"/>
                        </use>
                        <path d="M-4,0h8" fill="none" stroke="white" stroke-width="1.5" pointer-events="none"/>
                </g>
                <g id="dirArrow">
                        <path fill="none" stroke="white" stroke-width="1.5" d="M0,-3.0v7 M-2.5,-0.5L0,-3.0L2.5,-0.5"/>
                </g>
               <g id="resetDef">
                       <use xlink:href="#rim2" fill="#404040">
                               <set attributeName="fill" to="#808080" begin="reset.mouseover" end="reset.mouseout"/>
                       </use>
               </g>
        </defs>

<script type="text/javascript">
var viewWidth = 1247;
var viewHeight = 245;
var sectionId = 'dynsection-1';
</script>
<script xlink:href="../../svgpan.js"/>
<svg id="graph" class="graph">
<g id="viewport">
<title>AForge.Neuro.Learning.EvolutionaryLearning</title>
<polygon fill="white" stroke="none" points="-4,4 -4,-241 1243,-241 1243,4 -4,4"/>
<!-- Node1 -->
<g id="node1" class="node"><title>Node1</title>
<g id="a_node1"><a xlink:title="Neural networks&#39; evolutionary learning algorithm, which is based on Genetic Algorithms.">
<polygon fill="#bfbfbf" stroke="black" points="1067,-115 1067,-145 1239,-145 1239,-115 1067,-115"/>
<text text-anchor="start" x="1075" y="-133" font-family="Helvetica,sans-Serif" font-size="10.00">AForge.Neuro.Learning.Evolutionary</text>
<text text-anchor="middle" x="1153" y="-122" font-family="Helvetica,sans-Serif" font-size="10.00">Learning</text>
</a>
</g>
</g>
<!-- Node2 -->
<g id="node2" class="node"><title>Node2</title>
<g id="a_node2"><a xlink:href="../../d6/d52/interfaceAForge_1_1Neuro_1_1Learning_1_1ISupervisedLearning.html" target="_top" xlink:title="Supervised learning interface">
<polygon fill="white" stroke="black" points="781,-217.5 781,-236.5 884,-236.5 884,-217.5 781,-217.5"/>
<text text-anchor="middle" x="832.5" y="-224.5" font-family="Helvetica,sans-Serif" font-size="10.00">ISupervisedLearning</text>
</a>
</g>
</g>
<!-- Node2&#45;&gt;Node1 -->
<g id="edge1" class="edge"><title>Node2&#45;&gt;Node1</title>
<path fill="none" stroke="midnightblue" d="M894.384,-227.82C938.608,-226.555 999.181,-220.91 1049,-202 1083.27,-188.992 1116.92,-162.049 1136,-145.063"/>
<polygon fill="midnightblue" stroke="midnightblue" points="894.28,-224.322 884.359,-228.04 894.434,-231.32 894.28,-224.322"/>
</g>
<!-- Node3 -->
<g id="node3" class="node"><title>Node3</title>
<g id="a_node3"><a xlink:href="../../d8/df7/interfaceAForge_1_1Genetic_1_1ISelectionMethod.html" target="_top" xlink:title="Genetic selection method interface.">
<polygon fill="white" stroke="black" points="492.5,-167 492.5,-197 623.5,-197 623.5,-167 492.5,-167"/>
<text text-anchor="start" x="500.5" y="-185" font-family="Helvetica,sans-Serif" font-size="10.00">AForge.Genetic.ISelection</text>
<text text-anchor="middle" x="558" y="-174" font-family="Helvetica,sans-Serif" font-size="10.00">Method</text>
</a>
</g>
</g>
<!-- Node3&#45;&gt;Node1 -->
<g id="edge2" class="edge"><title>Node3&#45;&gt;Node1</title>
<path fill="none" stroke="#9a32cd" stroke-dasharray="5,2" d="M633.813,-179.402C665.372,-178.103 702.494,-176.308 736,-174 875.377,-164.399 910.273,-161.517 1049,-145 1054.83,-144.306 1060.84,-143.546 1066.89,-142.748"/>
<polygon fill="#9a32cd" stroke="#9a32cd" points="633.625,-175.906 623.774,-179.806 633.907,-182.901 633.625,-175.906"/>
<text text-anchor="middle" x="832.5" y="-176" font-family="Helvetica,sans-Serif" font-size="10.00"> selectionMethod</text>
</g>
<!-- Node4 -->
<g id="node4" class="node"><title>Node4</title>
<g id="a_node4"><a xlink:href="../../db/df4/classAForge_1_1Genetic_1_1Population.html" target="_top" xlink:title="Population of chromosomes.">
<polygon fill="white" stroke="black" points="765.5,-118.5 765.5,-137.5 899.5,-137.5 899.5,-118.5 765.5,-118.5"/>
<text text-anchor="middle" x="832.5" y="-125.5" font-family="Helvetica,sans-Serif" font-size="10.00">AForge.Genetic.Population</text>
</a>
</g>
</g>
<!-- Node3&#45;&gt;Node4 -->
<g id="edge5" class="edge"><title>Node3&#45;&gt;Node4</title>
<path fill="none" stroke="#9a32cd" stroke-dasharray="5,2" d="M633.547,-167.227C681.222,-157.78 741.675,-145.8 783.158,-137.58"/>
<polygon fill="#9a32cd" stroke="#9a32cd" points="632.708,-163.826 623.579,-169.203 634.068,-170.692 632.708,-163.826"/>
<text text-anchor="middle" x="696" y="-165" font-family="Helvetica,sans-Serif" font-size="10.00"> selectionMethod</text>
</g>
<!-- Node4&#45;&gt;Node1 -->
<g id="edge3" class="edge"><title>Node4&#45;&gt;Node1</title>
<path fill="none" stroke="#9a32cd" stroke-dasharray="5,2" d="M910.063,-128.481C957.355,-128.778 1018.11,-129.159 1066.91,-129.466"/>
<polygon fill="#9a32cd" stroke="#9a32cd" points="909.902,-124.98 899.88,-128.417 909.858,-131.98 909.902,-124.98"/>
<text text-anchor="middle" x="989" y="-133" font-family="Helvetica,sans-Serif" font-size="10.00"> population</text>
</g>
<!-- Node5 -->
<g id="node5" class="node"><title>Node5</title>
<g id="a_node5"><a xlink:href="../../d3/d4c/interfaceAForge_1_1Genetic_1_1IFitnessFunction.html" target="_top" xlink:title="Fitness function interface.">
<polygon fill="white" stroke="black" points="478,-122.5 478,-141.5 638,-141.5 638,-122.5 478,-122.5"/>
<text text-anchor="middle" x="558" y="-129.5" font-family="Helvetica,sans-Serif" font-size="10.00">AForge.Genetic.IFitnessFunction</text>
</a>
</g>
</g>
<!-- Node5&#45;&gt;Node4 -->
<g id="edge4" class="edge"><title>Node5&#45;&gt;Node4</title>
<path fill="none" stroke="#9a32cd" stroke-dasharray="5,2" d="M648.273,-129.154C650.877,-129.098 653.457,-129.047 656,-129 692.1,-128.339 732.383,-128.076 765.242,-127.984"/>
<polygon fill="#9a32cd" stroke="#9a32cd" points="648.054,-125.658 638.137,-129.388 648.215,-132.656 648.054,-125.658"/>
<text text-anchor="middle" x="696" y="-132" font-family="Helvetica,sans-Serif" font-size="10.00"> fitnessFunction</text>
</g>
<!-- Node6 -->
<g id="node6" class="node"><title>Node6</title>
<g id="a_node6"><a xlink:href="../../d4/d66/interfaceAForge_1_1Genetic_1_1IChromosome.html" target="_top" xlink:title="Chromosome interface.">
<polygon fill="white" stroke="black" points="484,-84.5 484,-103.5 632,-103.5 632,-84.5 484,-84.5"/>
<text text-anchor="middle" x="558" y="-91.5" font-family="Helvetica,sans-Serif" font-size="10.00">AForge.Genetic.IChromosome</text>
</a>
</g>
</g>
<!-- Node6&#45;&gt;Node4 -->
<g id="edge6" class="edge"><title>Node6&#45;&gt;Node4</title>
<path fill="none" stroke="#9a32cd" stroke-dasharray="5,2" d="M642.542,-102.866C672.092,-106.154 705.549,-110.049 736,-114 746.552,-115.369 757.745,-116.921 768.612,-118.479"/>
<polygon fill="#9a32cd" stroke="#9a32cd" points="642.589,-99.3498 632.264,-101.729 641.819,-106.307 642.589,-99.3498"/>
<text text-anchor="middle" x="696" y="-117" font-family="Helvetica,sans-Serif" font-size="10.00"> bestChromosome</text>
</g>
<!-- Node7 -->
<g id="node7" class="node"><title>Node7</title>
<g id="a_node7"><a xlink:title=" ">
<polygon fill="white" stroke="#bfbfbf" points="324.5,-85.5 324.5,-104.5 395.5,-104.5 395.5,-85.5 324.5,-85.5"/>
<text text-anchor="middle" x="360" y="-92.5" font-family="Helvetica,sans-Serif" font-size="10.00">IComparable</text>
</a>
</g>
</g>
<!-- Node7&#45;&gt;Node6 -->
<g id="edge7" class="edge"><title>Node7&#45;&gt;Node6</title>
<path fill="none" stroke="midnightblue" d="M405.767,-94.7716C428.849,-94.6538 457.587,-94.5072 483.793,-94.3735"/>
<polygon fill="midnightblue" stroke="midnightblue" points="405.572,-91.2725 395.59,-94.8235 405.607,-98.2724 405.572,-91.2725"/>
</g>
<!-- Node8 -->
<g id="node8" class="node"><title>Node8</title>
<g id="a_node8"><a xlink:title=" ">
<polygon fill="white" stroke="#bfbfbf" points="0,-27.5 0,-46.5 41,-46.5 41,-27.5 0,-27.5"/>
<text text-anchor="middle" x="20.5" y="-34.5" font-family="Helvetica,sans-Serif" font-size="10.00">static</text>
</a>
</g>
</g>
<!-- Node8&#45;&gt;Node4 -->
<g id="edge8" class="edge"><title>Node8&#45;&gt;Node4</title>
<path fill="none" stroke="#9a32cd" stroke-dasharray="5,2" d="M51.0134,-42.7401C82.3801,-48.3333 133.492,-56 178,-56 178,-56 178,-56 559,-56 573.225,-56 733.212,-100.166 736,-101 744.079,-103.416 745.927,-104.563 754,-107 767.212,-110.988 781.795,-115.033 794.714,-118.493"/>
<polygon fill="#9a32cd" stroke="#9a32cd" points="51.638,-39.2964 41.171,-40.9368 50.3765,-46.1817 51.638,-39.2964"/>
<text text-anchor="middle" x="360" y="-59" font-family="Helvetica,sans-Serif" font-size="10.00"> rand</text>
</g>
<!-- Node12 -->
<g id="node12" class="node"><title>Node12</title>
<g id="a_node12"><a xlink:href="../../d9/d64/classAForge_1_1Neuro_1_1Neuron.html" target="_top" xlink:title="Base neuron class">
<polygon fill="white" stroke="black" points="124,-6.5 124,-25.5 234,-25.5 234,-6.5 124,-6.5"/>
<text text-anchor="middle" x="179" y="-13.5" font-family="Helvetica,sans-Serif" font-size="10.00">AForge.Neuro.Neuron</text>
</a>
</g>
</g>
<!-- Node8&#45;&gt;Node12 -->
<g id="edge13" class="edge"><title>Node8&#45;&gt;Node12</title>
<path fill="none" stroke="#9a32cd" stroke-dasharray="5,2" d="M48.3963,-23.3143C51.8929,-21.982 55.4827,-20.8221 59,-20 79.8334,-15.1305 103.272,-13.5447 123.805,-13.3832"/>
<polygon fill="#9a32cd" stroke="#9a32cd" points="46.7288,-20.2215 38.9259,-27.3884 49.4951,-26.6517 46.7288,-20.2215"/>
<text text-anchor="middle" x="82.5" y="-34" font-family="Helvetica,sans-Serif" font-size="10.00"> rand</text>
<text text-anchor="middle" x="82.5" y="-23" font-family="Helvetica,sans-Serif" font-size="10.00">randRange</text>
</g>
<!-- Node9 -->
<g id="node9" class="node"><title>Node9</title>
<g id="a_node9"><a xlink:href="../../d5/dd8/classAForge_1_1Neuro_1_1ActivationNetwork.html" target="_top" xlink:title="Activation network">
<polygon fill="white" stroke="black" points="754,-78.5 754,-97.5 911,-97.5 911,-78.5 754,-78.5"/>
<text text-anchor="middle" x="832.5" y="-85.5" font-family="Helvetica,sans-Serif" font-size="10.00">AForge.Neuro.ActivationNetwork</text>
</a>
</g>
</g>
<!-- Node9&#45;&gt;Node1 -->
<g id="edge9" class="edge"><title>Node9&#45;&gt;Node1</title>
<path fill="none" stroke="#9a32cd" stroke-dasharray="5,2" d="M921.429,-97.9225C960.531,-102.512 1007.11,-108.221 1049,-114 1054.83,-114.804 1060.83,-115.661 1066.88,-116.546"/>
<polygon fill="#9a32cd" stroke="#9a32cd" points="921.472,-94.4039 911.134,-96.7198 920.66,-101.357 921.472,-94.4039"/>
<text text-anchor="middle" x="989" y="-117" font-family="Helvetica,sans-Serif" font-size="10.00"> network</text>
</g>
<!-- Node10 -->
<g id="node10" class="node"><title>Node10</title>
<g id="a_node10"><a xlink:href="../../d3/db3/classAForge_1_1Neuro_1_1Network.html" target="_top" xlink:title="Base neural network class">
<polygon fill="white" stroke="black" points="532,-6.5 532,-25.5 584,-25.5 584,-6.5 532,-6.5"/>
<text text-anchor="middle" x="558" y="-13.5" font-family="Helvetica,sans-Serif" font-size="10.00">Network</text>
</a>
</g>
</g>
<!-- Node10&#45;&gt;Node9 -->
<g id="edge10" class="edge"><title>Node10&#45;&gt;Node9</title>
<path fill="none" stroke="midnightblue" d="M594.723,-13.9197C632.299,-13.3315 691.974,-17.0573 736,-42 746.992,-48.2275 743.521,-56.943 754,-64 763.346,-70.2943 774.42,-74.9985 785.228,-78.4916"/>
<polygon fill="midnightblue" stroke="midnightblue" points="594.179,-10.4331 584.278,-14.2037 594.369,-17.4305 594.179,-10.4331"/>
</g>
<!-- Node11 -->
<g id="node11" class="node"><title>Node11</title>
<g id="a_node11"><a xlink:href="../../d1/d23/classAForge_1_1Neuro_1_1Layer.html" target="_top" xlink:title="Base neural layer class">
<polygon fill="white" stroke="black" points="308,-0.5 308,-19.5 412,-19.5 412,-0.5 308,-0.5"/>
<text text-anchor="middle" x="360" y="-7.5" font-family="Helvetica,sans-Serif" font-size="10.00">AForge.Neuro.Layer</text>
</a>
</g>
</g>
<!-- Node11&#45;&gt;Node10 -->
<g id="edge11" class="edge"><title>Node11&#45;&gt;Node10</title>
<path fill="none" stroke="#9a32cd" stroke-dasharray="5,2" d="M422.41,-11.8799C459.302,-13.0092 504.27,-14.3858 531.757,-15.2273"/>
<polygon fill="#9a32cd" stroke="#9a32cd" points="422.343,-8.37631 412.241,-11.5686 422.129,-15.373 422.343,-8.37631"/>
<text text-anchor="middle" x="445" y="-16" font-family="Helvetica,sans-Serif" font-size="10.00"> layers</text>
</g>
<!-- Node12&#45;&gt;Node11 -->
<g id="edge12" class="edge"><title>Node12&#45;&gt;Node11</title>
<path fill="none" stroke="#9a32cd" stroke-dasharray="5,2" d="M244.25,-13.8464C265.112,-13.1471 287.966,-12.381 307.75,-11.7179"/>
<polygon fill="#9a32cd" stroke="#9a32cd" points="244.069,-10.3504 234.192,-14.1835 244.303,-17.3465 244.069,-10.3504"/>
<text text-anchor="middle" x="271" y="-17" font-family="Helvetica,sans-Serif" font-size="10.00"> neurons</text>
</g>
<!-- Node13 -->
<g id="node13" class="node"><title>Node13</title>
<g id="a_node13"><a xlink:href="../../db/d07/interfaceAForge_1_1Math_1_1Random_1_1IRandomNumberGenerator.html" target="_top" xlink:title="Interface for random numbers generators.">
<polygon fill="white" stroke="black" points="756,-25 756,-55 909,-55 909,-25 756,-25"/>
<text text-anchor="start" x="764" y="-43" font-family="Helvetica,sans-Serif" font-size="10.00">AForge.Math.Random.IRandom</text>
<text text-anchor="middle" x="832.5" y="-32" font-family="Helvetica,sans-Serif" font-size="10.00">NumberGenerator</text>
</a>
</g>
</g>
<!-- Node13&#45;&gt;Node1 -->
<g id="edge14" class="edge"><title>Node13&#45;&gt;Node1</title>
<path fill="none" stroke="#9a32cd" stroke-dasharray="5,2" d="M919.297,-39.9878C959.643,-42.2729 1007.82,-48.3624 1049,-63 1081.96,-74.7172 1114.96,-98.9186 1134.43,-114.8"/>
<polygon fill="#9a32cd" stroke="#9a32cd" points="919.379,-36.4876 909.217,-39.4859 919.031,-43.479 919.379,-36.4876"/>
<text text-anchor="middle" x="989" y="-88" font-family="Helvetica,sans-Serif" font-size="10.00"> chromosomeGenerator</text>
<text text-anchor="middle" x="989" y="-77" font-family="Helvetica,sans-Serif" font-size="10.00">mutationMultiplierGenerator</text>
<text text-anchor="middle" x="989" y="-66" font-family="Helvetica,sans-Serif" font-size="10.00">mutationAdditionGenerator</text>
</g>
</g>
</svg>
        <g id="navigator" transform="translate(0 0)" fill="#404254">
                <rect fill="#f2f5e9" fill-opacity="0.5" stroke="#606060" stroke-width=".5" x="0" y="0" width="60" height="60"/>
                <use id="zoomplus" xlink:href="#zoomPlus" x="17" y="9" onmousedown="handleZoom(evt,'in')"/>
                <use id="zoomminus" xlink:href="#zoomMin" x="42" y="9" onmousedown="handleZoom(evt,'out')"/>
                <use id="reset" xlink:href="#resetDef" x="30" y="36" onmousedown="handleReset()"/>
                <g id="arrowUp" xlink:href="#dirArrow" transform="translate(30 24)" onmousedown="handlePan(0,-1)">
                  <use xlink:href="#rim" fill="#404040">
                        <set attributeName="fill" to="#808080" begin="arrowUp.mouseover" end="arrowUp.mouseout"/>
                  </use>
                  <path fill="none" stroke="white" stroke-width="1.5" d="M0,-3.0v7 M-2.5,-0.5L0,-3.0L2.5,-0.5"/>
                </g>
                <g id="arrowRight" xlink:href="#dirArrow" transform="rotate(90) translate(36 -43)" onmousedown="handlePan(1,0)">
                  <use xlink:href="#rim" fill="#404040">
                        <set attributeName="fill" to="#808080" begin="arrowRight.mouseover" end="arrowRight.mouseout"/>
                  </use>
                  <path fill="none" stroke="white" stroke-width="1.5" d="M0,-3.0v7 M-2.5,-0.5L0,-3.0L2.5,-0.5"/>
                </g>
                <g id="arrowDown" xlink:href="#dirArrow" transform="rotate(180) translate(-30 -48)" onmousedown="handlePan(0,1)">
                  <use xlink:href="#rim" fill="#404040">
                        <set attributeName="fill" to="#808080" begin="arrowDown.mouseover" end="arrowDown.mouseout"/>
                  </use>
                  <path fill="none" stroke="white" stroke-width="1.5" d="M0,-3.0v7 M-2.5,-0.5L0,-3.0L2.5,-0.5"/>
                </g>
                <g id="arrowLeft" xlink:href="#dirArrow" transform="rotate(270) translate(-36 17)" onmousedown="handlePan(-1,0)">
                  <use xlink:href="#rim" fill="#404040">
                        <set attributeName="fill" to="#808080" begin="arrowLeft.mouseover" end="arrowLeft.mouseout"/>
                  </use>
                  <path fill="none" stroke="white" stroke-width="1.5" d="M0,-3.0v7 M-2.5,-0.5L0,-3.0L2.5,-0.5"/>
                </g>
        </g>
        <svg viewBox="0 0 15 15" width="100%" height="30px" preserveAspectRatio="xMaxYMin meet">
         <g id="arrow_out" transform="scale(0.3 0.3)">
          <a xlink:href="classAForge_1_1Neuro_1_1Learning_1_1EvolutionaryLearning__coll__graph_org.svg" target="_base">
           <rect id="button" ry="5" rx="5" y="6" x="6" height="38" width="38"
                fill="#f2f5e9" fill-opacity="0.5" stroke="#606060" stroke-width="1.0"/>
           <path id="arrow"
             d="M 11.500037,31.436501 C 11.940474,20.09759 22.043105,11.32322 32.158766,21.979434 L 37.068811,17.246167 C 37.068811,17.246167 37.088388,32 37.088388,32 L 22.160133,31.978069 C 22.160133,31.978069 26.997745,27.140456 26.997745,27.140456 C 18.528582,18.264221 13.291696,25.230495 11.500037,31.436501 z"
             style="fill:#404040;"/>
          </a>
         </g>
        </svg>
</svg>
