<?xml version="1.0" encoding="UTF-8" standalone="no"?>
<!DOCTYPE svg PUBLIC "-//W3C//DTD SVG 1.1//EN"
 "http://www.w3.org/Graphics/SVG/1.1/DTD/svg11.dtd">
<!-- Generated by graphviz version 2.38.0 (20140413.2041)
 -->
<!-- Title: alglib.ftbase.fasttransformplan Pages: 1 -->
<svg width="159pt" height="95pt"
 viewBox="0.00 0.00 159.00 95.00" xmlns="http://www.w3.org/2000/svg" xmlns:xlink="http://www.w3.org/1999/xlink">
<g id="graph0" class="graph" transform="scale(1 1) rotate(0) translate(4 91)">
<title>alglib.ftbase.fasttransformplan</title>
<polygon fill="white" stroke="none" points="-4,4 -4,-91 155,-91 155,4 -4,4"/>
<!-- Node1 -->
<g id="node1" class="node"><title>Node1</title>
<g id="a_node1"><a xlink:title=" ">
<polygon fill="#bfbfbf" stroke="black" points="0,-0.5 0,-19.5 146,-19.5 146,-0.5 0,-0.5"/>
<text text-anchor="middle" x="73" y="-7.5" font-family="Helvetica,sans-Serif" font-size="10.00">alglib.ftbase.fasttransformplan</text>
</a>
</g>
</g>
<!-- Node2 -->
<g id="node2" class="node"><title>Node2</title>
<g id="a_node2"><a xlink:href="../../d0/d58/classalglib_1_1apobject.html" target="_top" xlink:title=" ">
<polygon fill="white" stroke="black" points="14.5,-67.5 14.5,-86.5 67.5,-86.5 67.5,-67.5 14.5,-67.5"/>
<text text-anchor="middle" x="41" y="-74.5" font-family="Helvetica,sans-Serif" font-size="10.00">apobject</text>
</a>
</g>
</g>
<!-- Node2&#45;&gt;Node1 -->
<g id="edge1" class="edge"><title>Node2&#45;&gt;Node1</title>
<path fill="none" stroke="midnightblue" d="M49.7811,-58.1635C55.9523,-45.6281 63.9364,-29.4104 68.7527,-19.6273"/>
<polygon fill="midnightblue" stroke="midnightblue" points="46.5925,-56.7162 45.3157,-67.2338 52.8727,-59.808 46.5925,-56.7162"/>
</g>
<!-- Node3 -->
<g id="node3" class="node"><title>Node3</title>
<g id="a_node3"><a xlink:href="../../d7/d81/classalglib.html" target="_top" xlink:title=" ">
<polygon fill="white" stroke="black" points="85.5,-67.5 85.5,-86.5 124.5,-86.5 124.5,-67.5 85.5,-67.5"/>
<text text-anchor="middle" x="105" y="-74.5" font-family="Helvetica,sans-Serif" font-size="10.00">alglib</text>
</a>
</g>
</g>
<!-- Node3&#45;&gt;Node1 -->
<g id="edge2" class="edge"><title>Node3&#45;&gt;Node1</title>
<path fill="none" stroke="#9a32cd" stroke-dasharray="5,2" d="M96.2189,-58.1635C90.0477,-45.6281 82.0636,-29.4104 77.2473,-19.6273"/>
<polygon fill="#9a32cd" stroke="#9a32cd" points="93.1273,-59.808 100.684,-67.2338 99.4075,-56.7162 93.1273,-59.808"/>
<text text-anchor="middle" x="120.5" y="-41" font-family="Helvetica,sans-Serif" font-size="10.00"> bluesteinpool</text>
</g>
</g>
</svg>
