<?xml version="1.0" encoding="UTF-8" standalone="no"?>
<!DOCTYPE svg PUBLIC "-//W3C//DTD SVG 1.1//EN"
 "http://www.w3.org/Graphics/SVG/1.1/DTD/svg11.dtd">
<!-- Generated by graphviz version 2.38.0 (20140413.2041)
 -->
<!-- Title: IG.Forms.ScalarFunctionScriptForm Pages: 1 -->
<svg width="292pt" height="95pt"
 viewBox="0.00 0.00 291.50 95.00" xmlns="http://www.w3.org/2000/svg" xmlns:xlink="http://www.w3.org/1999/xlink">
<g id="graph0" class="graph" transform="scale(1 1) rotate(0) translate(4 91)">
<title>IG.Forms.ScalarFunctionScriptForm</title>
<polygon fill="white" stroke="none" points="-4,4 -4,-91 287.5,-91 287.5,4 -4,4"/>
<!-- Node1 -->
<g id="node1" class="node"><title>Node1</title>
<g id="a_node1"><a xlink:title="Window for definition of scalar functions by user defined expressions (through script loader).">
<polygon fill="#bfbfbf" stroke="black" points="0,-0.5 0,-19.5 173,-19.5 173,-0.5 0,-0.5"/>
<text text-anchor="middle" x="86.5" y="-7.5" font-family="Helvetica,sans-Serif" font-size="10.00">IG.Forms.ScalarFunctionScriptForm</text>
</a>
</g>
</g>
<!-- Node2 -->
<g id="node2" class="node"><title>Node2</title>
<g id="a_node2"><a xlink:title=" ">
<polygon fill="white" stroke="#bfbfbf" points="4,-67.5 4,-86.5 43,-86.5 43,-67.5 4,-67.5"/>
<text text-anchor="middle" x="23.5" y="-74.5" font-family="Helvetica,sans-Serif" font-size="10.00">Form</text>
</a>
</g>
</g>
<!-- Node2&#45;&gt;Node1 -->
<g id="edge1" class="edge"><title>Node2&#45;&gt;Node1</title>
<path fill="none" stroke="midnightblue" d="M39.0108,-59.9968C51.3658,-47.2496 68.1867,-29.8947 78.1382,-19.6273"/>
<polygon fill="midnightblue" stroke="midnightblue" points="36.443,-57.6172 31.9965,-67.2338 41.4695,-62.489 36.443,-57.6172"/>
</g>
<!-- Node3 -->
<g id="node3" class="node"><title>Node3</title>
<g id="a_node3"><a xlink:title=" ">
<polygon fill="white" stroke="#bfbfbf" points="61.5,-67.5 61.5,-86.5 111.5,-86.5 111.5,-67.5 61.5,-67.5"/>
<text text-anchor="middle" x="86.5" y="-74.5" font-family="Helvetica,sans-Serif" font-size="10.00">System</text>
</a>
</g>
</g>
<!-- Node3&#45;&gt;Node1 -->
<g id="edge2" class="edge"><title>Node3&#45;&gt;Node1</title>
<path fill="none" stroke="#9a32cd" stroke-dasharray="5,2" d="M86.5,-57.037C86.5,-44.6703 86.5,-29.1198 86.5,-19.6273"/>
<polygon fill="#9a32cd" stroke="#9a32cd" points="83.0001,-57.2338 86.5,-67.2338 90.0001,-57.2338 83.0001,-57.2338"/>
<text text-anchor="middle" x="115" y="-41" font-family="Helvetica,sans-Serif" font-size="10.00"> components</text>
</g>
<!-- Node4 -->
<g id="node4" class="node"><title>Node4</title>
<g id="a_node4"><a xlink:title=" ">
<polygon fill="white" stroke="#bfbfbf" points="152,-67.5 152,-86.5 181,-86.5 181,-67.5 152,-67.5"/>
<text text-anchor="middle" x="166.5" y="-74.5" font-family="Helvetica,sans-Serif" font-size="10.00">IG</text>
</a>
</g>
</g>
<!-- Node4&#45;&gt;Node1 -->
<g id="edge3" class="edge"><title>Node4&#45;&gt;Node1</title>
<path fill="none" stroke="#9a32cd" stroke-dasharray="5,2" d="M158.984,-58.0577C155.395,-51.1173 150.547,-43.5308 144.5,-38 135.648,-29.9041 123.943,-23.8336 113.366,-19.5206"/>
<polygon fill="#9a32cd" stroke="#9a32cd" points="155.956,-59.8476 163.336,-67.4494 162.307,-56.9046 155.956,-59.8476"/>
<text text-anchor="middle" x="219" y="-41" font-family="Helvetica,sans-Serif" font-size="10.00"> scalarFunctionScriptControl1</text>
</g>
</g>
</svg>
