<?xml version="1.0" encoding="UTF-8" standalone="no"?>
<!DOCTYPE svg PUBLIC "-//W3C//DTD SVG 1.1//EN"
 "http://www.w3.org/Graphics/SVG/1.1/DTD/svg11.dtd">
<!-- Generated by graphviz version 2.38.0 (20140413.2041)
 -->
<!-- Title: NUnit.Framework.Constraints.PrefixConstraint Pages: 1 -->
<svg width="667pt" height="431pt"
 viewBox="0.00 0.00 667.00 431.00" xmlns="http://www.w3.org/2000/svg" xmlns:xlink="http://www.w3.org/1999/xlink">
<g id="graph0" class="graph" transform="scale(1 1) rotate(0) translate(4 427)">
<title>NUnit.Framework.Constraints.PrefixConstraint</title>
<polygon fill="white" stroke="none" points="-4,4 -4,-427 663,-427 663,4 -4,4"/>
<!-- Node1 -->
<g id="node1" class="node"><title>Node1</title>
<g id="a_node1"><a xlink:title="Abstract base class used for prefixes">
<polygon fill="#bfbfbf" stroke="black" points="329,-196.5 329,-226.5 476,-226.5 476,-196.5 329,-196.5"/>
<text text-anchor="start" x="337" y="-214.5" font-family="Helvetica,sans-Serif" font-size="10.00">NUnit.Framework.Constraints.</text>
<text text-anchor="middle" x="402.5" y="-203.5" font-family="Helvetica,sans-Serif" font-size="10.00">PrefixConstraint</text>
</a>
</g>
</g>
<!-- Node5 -->
<g id="node5" class="node"><title>Node5</title>
<g id="a_node5"><a xlink:href="../../d4/d8d/classNUnit_1_1Framework_1_1Constraints_1_1AllItemsConstraint.html" target="_top" xlink:title="AllItemsConstraint applies another constraint to each item in a collection, succeeding if they all su...">
<polygon fill="white" stroke="black" points="512,-392.5 512,-422.5 659,-422.5 659,-392.5 512,-392.5"/>
<text text-anchor="start" x="520" y="-410.5" font-family="Helvetica,sans-Serif" font-size="10.00">NUnit.Framework.Constraints.</text>
<text text-anchor="middle" x="585.5" y="-399.5" font-family="Helvetica,sans-Serif" font-size="10.00">AllItemsConstraint</text>
</a>
</g>
</g>
<!-- Node1&#45;&gt;Node5 -->
<g id="edge4" class="edge"><title>Node1&#45;&gt;Node5</title>
<path fill="none" stroke="midnightblue" d="M412.682,-236.164C427.771,-273.402 461.291,-343.83 512,-383.5 516.386,-386.931 521.284,-389.882 526.409,-392.419"/>
<polygon fill="midnightblue" stroke="midnightblue" points="415.834,-234.618 408.915,-226.594 409.321,-237.181 415.834,-234.618"/>
</g>
<!-- Node6 -->
<g id="node6" class="node"><title>Node6</title>
<g id="a_node6"><a xlink:href="../../d2/da2/classNUnit_1_1Framework_1_1Constraints_1_1AttributeConstraint.html" target="_top" xlink:title="AttributeConstraint tests that a specified attribute is present on a Type or other provider and that ...">
<polygon fill="white" stroke="black" points="512,-343.5 512,-373.5 659,-373.5 659,-343.5 512,-343.5"/>
<text text-anchor="start" x="520" y="-361.5" font-family="Helvetica,sans-Serif" font-size="10.00">NUnit.Framework.Constraints.</text>
<text text-anchor="middle" x="585.5" y="-350.5" font-family="Helvetica,sans-Serif" font-size="10.00">AttributeConstraint</text>
</a>
</g>
</g>
<!-- Node1&#45;&gt;Node6 -->
<g id="edge5" class="edge"><title>Node1&#45;&gt;Node6</title>
<path fill="none" stroke="midnightblue" d="M418.695,-235.317C437.462,-262.917 471.87,-307.989 512,-334.5 517.199,-337.935 522.933,-340.917 528.83,-343.498"/>
<polygon fill="midnightblue" stroke="midnightblue" points="421.4,-233.064 412.945,-226.679 415.573,-236.943 421.4,-233.064"/>
</g>
<!-- Node7 -->
<g id="node7" class="node"><title>Node7</title>
<g id="a_node7"><a xlink:href="../../d8/d2d/classNUnit_1_1Framework_1_1Constraints_1_1DelayedConstraint.html" target="_top" xlink:title="Applies a delay to the match so that a match can be evaluated in the future. /summary&gt;">
<polygon fill="white" stroke="black" points="512,-294.5 512,-324.5 659,-324.5 659,-294.5 512,-294.5"/>
<text text-anchor="start" x="520" y="-312.5" font-family="Helvetica,sans-Serif" font-size="10.00">NUnit.Framework.Constraints.</text>
<text text-anchor="middle" x="585.5" y="-301.5" font-family="Helvetica,sans-Serif" font-size="10.00">DelayedConstraint</text>
</a>
</g>
</g>
<!-- Node1&#45;&gt;Node7 -->
<g id="edge6" class="edge"><title>Node1&#45;&gt;Node7</title>
<path fill="none" stroke="midnightblue" d="M430.282,-232.902C451.482,-249.048 482.359,-270.847 512,-285.5 518.656,-288.79 525.869,-291.79 533.077,-294.468"/>
<polygon fill="midnightblue" stroke="midnightblue" points="432.153,-229.925 422.098,-226.584 427.875,-235.466 432.153,-229.925"/>
</g>
<!-- Node8 -->
<g id="node8" class="node"><title>Node8</title>
<g id="a_node8"><a xlink:href="../../d5/d90/classNUnit_1_1Framework_1_1Constraints_1_1ExactCountConstraint.html" target="_top" xlink:title="ExactCountConstraint applies another constraint to each item in a collection, succeeding only if a sp...">
<polygon fill="white" stroke="black" points="512,-245.5 512,-275.5 659,-275.5 659,-245.5 512,-245.5"/>
<text text-anchor="start" x="520" y="-263.5" font-family="Helvetica,sans-Serif" font-size="10.00">NUnit.Framework.Constraints.</text>
<text text-anchor="middle" x="585.5" y="-252.5" font-family="Helvetica,sans-Serif" font-size="10.00">ExactCountConstraint</text>
</a>
</g>
</g>
<!-- Node1&#45;&gt;Node8 -->
<g id="edge7" class="edge"><title>Node1&#45;&gt;Node8</title>
<path fill="none" stroke="midnightblue" d="M469.061,-229.248C488.677,-234.559 509.99,-240.329 528.901,-245.448"/>
<polygon fill="midnightblue" stroke="midnightblue" points="469.85,-225.836 459.283,-226.601 468.021,-232.593 469.85,-225.836"/>
</g>
<!-- Node9 -->
<g id="node9" class="node"><title>Node9</title>
<g id="a_node9"><a xlink:href="../../db/d8b/classNUnit_1_1Framework_1_1Constraints_1_1NoItemConstraint.html" target="_top" xlink:title="NoItemConstraint applies another constraint to each item in a collection, failing if any of them succ...">
<polygon fill="white" stroke="black" points="512,-196.5 512,-226.5 659,-226.5 659,-196.5 512,-196.5"/>
<text text-anchor="start" x="520" y="-214.5" font-family="Helvetica,sans-Serif" font-size="10.00">NUnit.Framework.Constraints.</text>
<text text-anchor="middle" x="585.5" y="-203.5" font-family="Helvetica,sans-Serif" font-size="10.00">NoItemConstraint</text>
</a>
</g>
</g>
<!-- Node1&#45;&gt;Node9 -->
<g id="edge8" class="edge"><title>Node1&#45;&gt;Node9</title>
<path fill="none" stroke="midnightblue" d="M486.116,-211.5C494.722,-211.5 503.424,-211.5 511.907,-211.5"/>
<polygon fill="midnightblue" stroke="midnightblue" points="486.077,-208 476.077,-211.5 486.077,-215 486.077,-208"/>
</g>
<!-- Node10 -->
<g id="node10" class="node"><title>Node10</title>
<g id="a_node10"><a xlink:href="../../d9/d7a/classNUnit_1_1Framework_1_1Constraints_1_1NotConstraint.html" target="_top" xlink:title="NotConstraint negates the effect of some other constraint">
<polygon fill="white" stroke="black" points="512,-147.5 512,-177.5 659,-177.5 659,-147.5 512,-147.5"/>
<text text-anchor="start" x="520" y="-165.5" font-family="Helvetica,sans-Serif" font-size="10.00">NUnit.Framework.Constraints.</text>
<text text-anchor="middle" x="585.5" y="-154.5" font-family="Helvetica,sans-Serif" font-size="10.00">NotConstraint</text>
</a>
</g>
</g>
<!-- Node1&#45;&gt;Node10 -->
<g id="edge9" class="edge"><title>Node1&#45;&gt;Node10</title>
<path fill="none" stroke="midnightblue" d="M469.061,-193.752C488.677,-188.441 509.99,-182.671 528.901,-177.552"/>
<polygon fill="midnightblue" stroke="midnightblue" points="468.021,-190.407 459.283,-196.399 469.85,-197.164 468.021,-190.407"/>
</g>
<!-- Node11 -->
<g id="node11" class="node"><title>Node11</title>
<g id="a_node11"><a xlink:href="../../da/d39/classNUnit_1_1Framework_1_1Constraints_1_1PropertyConstraint.html" target="_top" xlink:title="PropertyConstraint extracts a named property and uses its value as the actual value for a chained con...">
<polygon fill="white" stroke="black" points="512,-98.5 512,-128.5 659,-128.5 659,-98.5 512,-98.5"/>
<text text-anchor="start" x="520" y="-116.5" font-family="Helvetica,sans-Serif" font-size="10.00">NUnit.Framework.Constraints.</text>
<text text-anchor="middle" x="585.5" y="-105.5" font-family="Helvetica,sans-Serif" font-size="10.00">PropertyConstraint</text>
</a>
</g>
</g>
<!-- Node1&#45;&gt;Node11 -->
<g id="edge10" class="edge"><title>Node1&#45;&gt;Node11</title>
<path fill="none" stroke="midnightblue" d="M430.282,-190.098C451.482,-173.952 482.359,-152.153 512,-137.5 518.656,-134.21 525.869,-131.21 533.077,-128.532"/>
<polygon fill="midnightblue" stroke="midnightblue" points="427.875,-187.534 422.098,-196.416 432.153,-193.075 427.875,-187.534"/>
</g>
<!-- Node12 -->
<g id="node12" class="node"><title>Node12</title>
<g id="a_node12"><a xlink:href="../../d3/d48/classNUnit_1_1Framework_1_1Constraints_1_1SomeItemsConstraint.html" target="_top" xlink:title="SomeItemsConstraint applies another constraint to each item in a collection, succeeding if any of the...">
<polygon fill="white" stroke="black" points="512,-49.5 512,-79.5 659,-79.5 659,-49.5 512,-49.5"/>
<text text-anchor="start" x="520" y="-67.5" font-family="Helvetica,sans-Serif" font-size="10.00">NUnit.Framework.Constraints.</text>
<text text-anchor="middle" x="585.5" y="-56.5" font-family="Helvetica,sans-Serif" font-size="10.00">SomeItemsConstraint</text>
</a>
</g>
</g>
<!-- Node1&#45;&gt;Node12 -->
<g id="edge11" class="edge"><title>Node1&#45;&gt;Node12</title>
<path fill="none" stroke="midnightblue" d="M418.695,-187.683C437.462,-160.083 471.87,-115.011 512,-88.5 517.199,-85.0651 522.933,-82.0825 528.83,-79.5019"/>
<polygon fill="midnightblue" stroke="midnightblue" points="415.573,-186.057 412.945,-196.321 421.4,-189.936 415.573,-186.057"/>
</g>
<!-- Node13 -->
<g id="node13" class="node"><title>Node13</title>
<g id="a_node13"><a xlink:href="../../df/de1/classNUnit_1_1Framework_1_1Constraints_1_1ThrowsConstraint.html" target="_top" xlink:title="ThrowsConstraint is used to test the exception thrown by a delegate by applying a constraint to it.">
<polygon fill="white" stroke="black" points="512,-0.5 512,-30.5 659,-30.5 659,-0.5 512,-0.5"/>
<text text-anchor="start" x="520" y="-18.5" font-family="Helvetica,sans-Serif" font-size="10.00">NUnit.Framework.Constraints.</text>
<text text-anchor="middle" x="585.5" y="-7.5" font-family="Helvetica,sans-Serif" font-size="10.00">ThrowsConstraint</text>
</a>
</g>
</g>
<!-- Node1&#45;&gt;Node13 -->
<g id="edge12" class="edge"><title>Node1&#45;&gt;Node13</title>
<path fill="none" stroke="midnightblue" d="M412.682,-186.836C427.771,-149.598 461.291,-79.1696 512,-39.5 516.386,-36.0689 521.284,-33.1176 526.409,-30.5811"/>
<polygon fill="midnightblue" stroke="midnightblue" points="409.321,-185.819 408.915,-196.406 415.834,-188.382 409.321,-185.819"/>
</g>
<!-- Node2 -->
<g id="node2" class="node"><title>Node2</title>
<g id="a_node2"><a xlink:href="../../d9/da9/classNUnit_1_1Framework_1_1Constraints_1_1Constraint.html" target="_top" xlink:title="The Constraint class is the base of all built&#45;in constraints within NUnit. It provides the operator o...">
<polygon fill="white" stroke="black" points="232,-202 232,-221 293,-221 293,-202 232,-202"/>
<text text-anchor="middle" x="262.5" y="-209" font-family="Helvetica,sans-Serif" font-size="10.00">Constraint</text>
</a>
</g>
</g>
<!-- Node2&#45;&gt;Node1 -->
<g id="edge1" class="edge"><title>Node2&#45;&gt;Node1</title>
<path fill="none" stroke="midnightblue" d="M303.277,-211.5C311.338,-211.5 320.052,-211.5 328.845,-211.5"/>
<polygon fill="midnightblue" stroke="midnightblue" points="303.104,-208 293.104,-211.5 303.104,-215 303.104,-208"/>
</g>
<!-- Node3 -->
<g id="node3" class="node"><title>Node3</title>
<g id="a_node3"><a xlink:href="../../d1/d94/interfaceNUnit_1_1Framework_1_1Constraints_1_1IConstraint.html" target="_top" xlink:title="Interface for all constraints">
<polygon fill="white" stroke="black" points="133,-202 133,-221 196,-221 196,-202 133,-202"/>
<text text-anchor="middle" x="164.5" y="-209" font-family="Helvetica,sans-Serif" font-size="10.00">IConstraint</text>
</a>
</g>
</g>
<!-- Node3&#45;&gt;Node2 -->
<g id="edge2" class="edge"><title>Node3&#45;&gt;Node2</title>
<path fill="none" stroke="midnightblue" d="M206.341,-211.5C214.892,-211.5 223.754,-211.5 231.807,-211.5"/>
<polygon fill="midnightblue" stroke="midnightblue" points="206.139,-208 196.139,-211.5 206.139,-215 206.139,-208"/>
</g>
<!-- Node4 -->
<g id="node4" class="node"><title>Node4</title>
<g id="a_node4"><a xlink:href="../../d7/d29/interfaceNUnit_1_1Framework_1_1Constraints_1_1IResolveConstraint.html" target="_top" xlink:title="The IResolveConstraint interface is implemented by all complete and resolvable constraints and expres...">
<polygon fill="white" stroke="black" points="0,-202 0,-221 97,-221 97,-202 0,-202"/>
<text text-anchor="middle" x="48.5" y="-209" font-family="Helvetica,sans-Serif" font-size="10.00">IResolveConstraint</text>
</a>
</g>
</g>
<!-- Node4&#45;&gt;Node3 -->
<g id="edge3" class="edge"><title>Node4&#45;&gt;Node3</title>
<path fill="none" stroke="midnightblue" d="M107.465,-211.5C116.252,-211.5 125.008,-211.5 132.899,-211.5"/>
<polygon fill="midnightblue" stroke="midnightblue" points="107.186,-208 97.1857,-211.5 107.186,-215 107.186,-208"/>
</g>
</g>
</svg>
