<?xml version="1.0" encoding="UTF-8" standalone="no"?>
<!DOCTYPE svg PUBLIC "-//W3C//DTD SVG 1.1//EN"
 "http://www.w3.org/Graphics/SVG/1.1/DTD/svg11.dtd">
<!-- Generated by graphviz version 2.38.0 (20140413.2041)
 -->
<!-- Title: NUnit.Framework.Constraints.ConstraintResult Pages: 1 -->
<svg width="363pt" height="269pt"
 viewBox="0.00 0.00 363.00 268.50" xmlns="http://www.w3.org/2000/svg" xmlns:xlink="http://www.w3.org/1999/xlink">
<g id="graph0" class="graph" transform="scale(1 1) rotate(0) translate(4 264.5)">
<title>NUnit.Framework.Constraints.ConstraintResult</title>
<polygon fill="white" stroke="none" points="-4,4 -4,-264.5 359,-264.5 359,4 -4,4"/>
<!-- Node1 -->
<g id="node1" class="node"><title>Node1</title>
<g id="a_node1"><a xlink:title="Contain the result of matching a Constraint against an actual value.">
<polygon fill="#bfbfbf" stroke="black" points="0,-126 0,-156 147,-156 147,-126 0,-126"/>
<text text-anchor="start" x="8" y="-144" font-family="Helvetica,sans-Serif" font-size="10.00">NUnit.Framework.Constraints.</text>
<text text-anchor="middle" x="73.5" y="-133" font-family="Helvetica,sans-Serif" font-size="10.00">ConstraintResult</text>
</a>
</g>
</g>
<!-- Node2 -->
<g id="node2" class="node"><title>Node2</title>
<g id="a_node2"><a xlink:href="../../db/d6b/classNUnit_1_1Framework_1_1Constraints_1_1AndConstraint_1_1AndConstraintResult.html" target="_top" xlink:title=" ">
<polygon fill="white" stroke="black" points="184,-230 184,-260 354,-260 354,-230 184,-230"/>
<text text-anchor="start" x="192" y="-248" font-family="Helvetica,sans-Serif" font-size="10.00">NUnit.Framework.Constraints.</text>
<text text-anchor="middle" x="269" y="-237" font-family="Helvetica,sans-Serif" font-size="10.00">AndConstraint.AndConstraintResult</text>
</a>
</g>
</g>
<!-- Node1&#45;&gt;Node2 -->
<g id="edge1" class="edge"><title>Node1&#45;&gt;Node2</title>
<path fill="none" stroke="midnightblue" d="M98.6516,-162.822C119.606,-180.726 151.454,-205.556 183,-221 189.886,-224.371 197.325,-227.341 204.837,-229.938"/>
<polygon fill="midnightblue" stroke="midnightblue" points="100.754,-160.012 90.9091,-156.096 96.1633,-165.296 100.754,-160.012"/>
</g>
<!-- Node3 -->
<g id="node3" class="node"><title>Node3</title>
<g id="a_node3"><a xlink:href="../../d7/dc6/classNUnit_1_1Framework_1_1Constraints_1_1EqualConstraintResult.html" target="_top" xlink:title="The EqualConstraintResult class is tailored for formatting and displaying the result of an EqualConst...">
<polygon fill="white" stroke="black" points="195.5,-181 195.5,-211 342.5,-211 342.5,-181 195.5,-181"/>
<text text-anchor="start" x="203.5" y="-199" font-family="Helvetica,sans-Serif" font-size="10.00">NUnit.Framework.Constraints.</text>
<text text-anchor="middle" x="269" y="-188" font-family="Helvetica,sans-Serif" font-size="10.00">EqualConstraintResult</text>
</a>
</g>
</g>
<!-- Node1&#45;&gt;Node3 -->
<g id="edge2" class="edge"><title>Node1&#45;&gt;Node3</title>
<path fill="none" stroke="midnightblue" d="M137.198,-158.821C162.382,-165.979 191.094,-174.14 215.189,-180.989"/>
<polygon fill="midnightblue" stroke="midnightblue" points="137.951,-155.396 127.375,-156.029 136.037,-162.13 137.951,-155.396"/>
</g>
<!-- Node4 -->
<g id="node4" class="node"><title>Node4</title>
<g id="a_node4"><a xlink:href="../../dc/d55/classNUnit_1_1Framework_1_1Constraints_1_1ExceptionTypeConstraint_1_1ExceptionTypeConstraintResult.html" target="_top" xlink:title=" ">
<polygon fill="white" stroke="black" points="183,-120.5 183,-161.5 355,-161.5 355,-120.5 183,-120.5"/>
<text text-anchor="start" x="191" y="-149.5" font-family="Helvetica,sans-Serif" font-size="10.00">NUnit.Framework.Constraints.</text>
<text text-anchor="start" x="191" y="-138.5" font-family="Helvetica,sans-Serif" font-size="10.00">ExceptionTypeConstraint.Exception</text>
<text text-anchor="middle" x="269" y="-127.5" font-family="Helvetica,sans-Serif" font-size="10.00">TypeConstraintResult</text>
</a>
</g>
</g>
<!-- Node1&#45;&gt;Node4 -->
<g id="edge3" class="edge"><title>Node1&#45;&gt;Node4</title>
<path fill="none" stroke="midnightblue" d="M157.347,-141C165.82,-141 174.438,-141 182.933,-141"/>
<polygon fill="midnightblue" stroke="midnightblue" points="157.103,-137.5 147.103,-141 157.103,-144.5 157.103,-137.5"/>
</g>
<!-- Node5 -->
<g id="node5" class="node"><title>Node5</title>
<g id="a_node5"><a xlink:href="../../d9/d25/classNUnit_1_1Framework_1_1Constraints_1_1ThrowsConstraint_1_1ThrowsConstraintResult.html" target="_top" xlink:title=" ">
<polygon fill="white" stroke="black" points="184,-60.5 184,-101.5 354,-101.5 354,-60.5 184,-60.5"/>
<text text-anchor="start" x="192" y="-89.5" font-family="Helvetica,sans-Serif" font-size="10.00">NUnit.Framework.Constraints.</text>
<text text-anchor="start" x="192" y="-78.5" font-family="Helvetica,sans-Serif" font-size="10.00">ThrowsConstraint.ThrowsConstraint</text>
<text text-anchor="middle" x="269" y="-67.5" font-family="Helvetica,sans-Serif" font-size="10.00">Result</text>
</a>
</g>
</g>
<!-- Node1&#45;&gt;Node5 -->
<g id="edge4" class="edge"><title>Node1&#45;&gt;Node5</title>
<path fill="none" stroke="midnightblue" d="M133.038,-122.849C154.679,-116.138 179.36,-108.485 201.645,-101.575"/>
<polygon fill="midnightblue" stroke="midnightblue" points="131.843,-119.555 123.328,-125.859 133.916,-126.241 131.843,-119.555"/>
</g>
<!-- Node6 -->
<g id="node6" class="node"><title>Node6</title>
<g id="a_node6"><a xlink:href="../../d4/d2d/classNUnit_1_1Framework_1_1Constraints_1_1ThrowsExceptionConstraint_1_1ThrowsExceptionConstraintResult.html" target="_top" xlink:title=" ">
<polygon fill="white" stroke="black" points="184.5,-0.5 184.5,-41.5 353.5,-41.5 353.5,-0.5 184.5,-0.5"/>
<text text-anchor="start" x="192.5" y="-29.5" font-family="Helvetica,sans-Serif" font-size="10.00">NUnit.Framework.Constraints.</text>
<text text-anchor="start" x="192.5" y="-18.5" font-family="Helvetica,sans-Serif" font-size="10.00">ThrowsExceptionConstraint.Throws</text>
<text text-anchor="middle" x="269" y="-7.5" font-family="Helvetica,sans-Serif" font-size="10.00">ExceptionConstraintResult</text>
</a>
</g>
</g>
<!-- Node1&#45;&gt;Node6 -->
<g id="edge5" class="edge"><title>Node1&#45;&gt;Node6</title>
<path fill="none" stroke="midnightblue" d="M96.7172,-118.49C117.489,-98.4928 150.154,-69.6272 183,-51 188.99,-47.6033 195.431,-44.488 201.992,-41.6577"/>
<polygon fill="midnightblue" stroke="midnightblue" points="94.0669,-116.186 89.3632,-125.679 98.9604,-121.191 94.0669,-116.186"/>
</g>
</g>
</svg>
