<?xml version="1.0" encoding="UTF-8" standalone="no"?>
<!DOCTYPE svg PUBLIC "-//W3C//DTD SVG 1.1//EN"
 "http://www.w3.org/Graphics/SVG/1.1/DTD/svg11.dtd">
<!-- Generated by graphviz version 2.38.0 (20140413.2041)
 -->
<!-- Title: AForge.Imaging.ImageStatisticsHSL Pages: 1 -->
<svg width="198pt" height="195pt"
 viewBox="0.00 0.00 198.00 195.00" xmlns="http://www.w3.org/2000/svg" xmlns:xlink="http://www.w3.org/1999/xlink">
<g id="graph0" class="graph" transform="scale(1 1) rotate(0) translate(4 191)">
<title>AForge.Imaging.ImageStatisticsHSL</title>
<polygon fill="white" stroke="none" points="-4,4 -4,-191 194,-191 194,4 -4,4"/>
<!-- Node1 -->
<g id="node1" class="node"><title>Node1</title>
<g id="a_node1"><a xlink:title="Gather statistics about image in HSL color space.">
<polygon fill="#bfbfbf" stroke="black" points="0,-0.5 0,-19.5 174,-19.5 174,-0.5 0,-0.5"/>
<text text-anchor="middle" x="87" y="-7.5" font-family="Helvetica,sans-Serif" font-size="10.00">AForge.Imaging.ImageStatisticsHSL</text>
</a>
</g>
</g>
<!-- Node2 -->
<g id="node2" class="node"><title>Node2</title>
<g id="a_node2"><a xlink:href="../../d9/d5d/classAForge_1_1Math_1_1ContinuousHistogram.html" target="_top" xlink:title="Histogram for continuous random values.">
<polygon fill="white" stroke="black" points="2.5,-100.5 2.5,-119.5 171.5,-119.5 171.5,-100.5 2.5,-100.5"/>
<text text-anchor="middle" x="87" y="-107.5" font-family="Helvetica,sans-Serif" font-size="10.00">AForge.Math.ContinuousHistogram</text>
</a>
</g>
</g>
<!-- Node2&#45;&gt;Node1 -->
<g id="edge1" class="edge"><title>Node2&#45;&gt;Node1</title>
<path fill="none" stroke="#9a32cd" stroke-dasharray="5,2" d="M87,-90.2203C87,-68.9514 87,-35.2197 87,-19.5374"/>
<polygon fill="#9a32cd" stroke="#9a32cd" points="83.5001,-90.3031 87,-100.303 90.5001,-90.3032 83.5001,-90.3031"/>
<text text-anchor="middle" x="138.5" y="-74" font-family="Helvetica,sans-Serif" font-size="10.00"> saturation</text>
<text text-anchor="middle" x="138.5" y="-63" font-family="Helvetica,sans-Serif" font-size="10.00">saturationWithoutBlack</text>
<text text-anchor="middle" x="138.5" y="-52" font-family="Helvetica,sans-Serif" font-size="10.00">luminanceWithoutBlack</text>
<text text-anchor="middle" x="138.5" y="-41" font-family="Helvetica,sans-Serif" font-size="10.00">luminance</text>
</g>
<!-- Node3 -->
<g id="node3" class="node"><title>Node3</title>
<g id="a_node3"><a xlink:href="../../dd/de1/structAForge_1_1Range.html" target="_top" xlink:title="Represents a range with minimum and maximum values, which are single precision numbers (floats).">
<polygon fill="white" stroke="black" points="47.5,-167.5 47.5,-186.5 126.5,-186.5 126.5,-167.5 47.5,-167.5"/>
<text text-anchor="middle" x="87" y="-174.5" font-family="Helvetica,sans-Serif" font-size="10.00">AForge.Range</text>
</a>
</g>
</g>
<!-- Node3&#45;&gt;Node2 -->
<g id="edge2" class="edge"><title>Node3&#45;&gt;Node2</title>
<path fill="none" stroke="#9a32cd" stroke-dasharray="5,2" d="M87,-157.037C87,-144.67 87,-129.12 87,-119.627"/>
<polygon fill="#9a32cd" stroke="#9a32cd" points="83.5001,-157.234 87,-167.234 90.5001,-157.234 83.5001,-157.234"/>
<text text-anchor="middle" x="101" y="-141" font-family="Helvetica,sans-Serif" font-size="10.00"> range</text>
</g>
</g>
</svg>
