<?xml version="1.0" encoding="UTF-8" standalone="no"?>
<!DOCTYPE svg PUBLIC "-//W3C//DTD SVG 1.1//EN"
 "http://www.w3.org/Graphics/SVG/1.1/DTD/svg11.dtd">
<!-- Generated by graphviz version 2.38.0 (20140413.2041)
 -->
<!-- Title: DotNumerics.LinearAlgebra.CSLapack.DLAED3 Pages: 1 -->
<svg width="1627pt" height="426pt"
 viewBox="0.00 0.00 1627.00 425.50" xmlns="http://www.w3.org/2000/svg" xmlns:xlink="http://www.w3.org/1999/xlink">
<g id="graph0" class="graph" transform="scale(1 1) rotate(0) translate(4 421.5)">
<title>DotNumerics.LinearAlgebra.CSLapack.DLAED3</title>
<polygon fill="white" stroke="none" points="-4,4 -4,-421.5 1623,-421.5 1623,4 -4,4"/>
<!-- Node1 -->
<g id="node1" class="node"><title>Node1</title>
<g id="a_node1"><a xlink:title="– LAPACK routine (version 3.1) – Univ. of Tennessee, Univ. of California Berkeley and NAG Ltd....">
<polygon fill="#bfbfbf" stroke="black" points="1481,-226 1481,-256 1619,-256 1619,-226 1481,-226"/>
<text text-anchor="start" x="1489" y="-244" font-family="Helvetica,sans-Serif" font-size="10.00">DotNumerics.LinearAlgebra.</text>
<text text-anchor="middle" x="1550" y="-233" font-family="Helvetica,sans-Serif" font-size="10.00">CSLapack.DLAED3</text>
</a>
</g>
</g>
<!-- Node2 -->
<g id="node2" class="node"><title>Node2</title>
<g id="a_node2"><a xlink:href="../../d1/d2a/classDotNumerics_1_1LinearAlgebra_1_1CSLapack_1_1DCOPY.html" target="_top" xlink:title=" ">
<polygon fill="white" stroke="black" points="1266,-387 1266,-417 1404,-417 1404,-387 1266,-387"/>
<text text-anchor="start" x="1274" y="-405" font-family="Helvetica,sans-Serif" font-size="10.00">DotNumerics.LinearAlgebra.</text>
<text text-anchor="middle" x="1335" y="-394" font-family="Helvetica,sans-Serif" font-size="10.00">CSLapack.DCOPY</text>
</a>
</g>
</g>
<!-- Node2&#45;&gt;Node1 -->
<g id="edge1" class="edge"><title>Node2&#45;&gt;Node1</title>
<path fill="none" stroke="#9a32cd" stroke-dasharray="5,2" d="M1414.27,-393.243C1431.38,-388.764 1448.65,-382.049 1463,-372 1505.56,-342.193 1532.49,-283.942 1543.41,-256.283"/>
<polygon fill="#9a32cd" stroke="#9a32cd" points="1413.15,-389.911 1404.23,-395.63 1414.77,-396.721 1413.15,-389.911"/>
<text text-anchor="middle" x="1442.5" y="-393" font-family="Helvetica,sans-Serif" font-size="10.00"> _dcopy</text>
</g>
<!-- Node3 -->
<g id="node3" class="node"><title>Node3</title>
<g id="a_node3"><a xlink:href="../../d7/d20/classDotNumerics_1_1LinearAlgebra_1_1CSLapack_1_1DGEMM.html" target="_top" xlink:title=" ">
<polygon fill="white" stroke="black" points="1266,-252 1266,-282 1404,-282 1404,-252 1266,-252"/>
<text text-anchor="start" x="1274" y="-270" font-family="Helvetica,sans-Serif" font-size="10.00">DotNumerics.LinearAlgebra.</text>
<text text-anchor="middle" x="1335" y="-259" font-family="Helvetica,sans-Serif" font-size="10.00">CSLapack.DGEMM</text>
</a>
</g>
</g>
<!-- Node3&#45;&gt;Node1 -->
<g id="edge2" class="edge"><title>Node3&#45;&gt;Node1</title>
<path fill="none" stroke="#9a32cd" stroke-dasharray="5,2" d="M1414.46,-257.422C1436.21,-254.768 1459.63,-251.908 1480.75,-249.331"/>
<polygon fill="#9a32cd" stroke="#9a32cd" points="1413.78,-253.98 1404.27,-258.666 1414.62,-260.929 1413.78,-253.98"/>
<text text-anchor="middle" x="1442.5" y="-260" font-family="Helvetica,sans-Serif" font-size="10.00"> _dgemm</text>
</g>
<!-- Node4 -->
<g id="node4" class="node"><title>Node4</title>
<g id="a_node4"><a xlink:href="../../db/d6a/classDotNumerics_1_1LinearAlgebra_1_1CSLapack_1_1XERBLA.html" target="_top" xlink:title="– LAPACK auxiliary routine (version 3.1) – Univ. of Tennessee, Univ. of California Berkeley and NAG L...">
<polygon fill="white" stroke="black" points="954,-295 954,-325 1092,-325 1092,-295 954,-295"/>
<text text-anchor="start" x="962" y="-313" font-family="Helvetica,sans-Serif" font-size="10.00">DotNumerics.LinearAlgebra.</text>
<text text-anchor="middle" x="1023" y="-302" font-family="Helvetica,sans-Serif" font-size="10.00">CSLapack.XERBLA</text>
</a>
</g>
</g>
<!-- Node4&#45;&gt;Node1 -->
<g id="edge5" class="edge"><title>Node4&#45;&gt;Node1</title>
<path fill="none" stroke="#9a32cd" stroke-dasharray="5,2" d="M1102.24,-313.417C1179.7,-315.139 1301.27,-313.358 1404,-292 1442.93,-283.907 1485.66,-267.958 1514.58,-256.039"/>
<polygon fill="#9a32cd" stroke="#9a32cd" points="1102.16,-309.914 1092.08,-313.165 1101.99,-316.912 1102.16,-309.914"/>
<text text-anchor="middle" x="1335" y="-312" font-family="Helvetica,sans-Serif" font-size="10.00"> _xerbla</text>
</g>
<!-- Node4&#45;&gt;Node3 -->
<g id="edge3" class="edge"><title>Node4&#45;&gt;Node3</title>
<path fill="none" stroke="#9a32cd" stroke-dasharray="5,2" d="M1101.93,-295.274C1104.65,-294.833 1107.35,-294.406 1110,-294 1162.08,-286.025 1221.26,-278.977 1265.72,-274.084"/>
<polygon fill="#9a32cd" stroke="#9a32cd" points="1101.29,-291.833 1092,-296.933 1102.44,-298.738 1101.29,-291.833"/>
<text text-anchor="middle" x="1179" y="-297" font-family="Helvetica,sans-Serif" font-size="10.00"> _xerbla</text>
</g>
<!-- Node5 -->
<g id="node5" class="node"><title>Node5</title>
<g id="a_node5"><a xlink:href="../../dd/dac/classDotNumerics_1_1LinearAlgebra_1_1CSLapack_1_1LSAME.html" target="_top" xlink:title="– LAPACK auxiliary routine (version 3.1) – Univ. of Tennessee, Univ. of California Berkeley and NAG L...">
<polygon fill="white" stroke="black" points="428,-226 428,-256 566,-256 566,-226 428,-226"/>
<text text-anchor="start" x="436" y="-244" font-family="Helvetica,sans-Serif" font-size="10.00">DotNumerics.LinearAlgebra.</text>
<text text-anchor="middle" x="497" y="-233" font-family="Helvetica,sans-Serif" font-size="10.00">CSLapack.LSAME</text>
</a>
</g>
</g>
<!-- Node5&#45;&gt;Node3 -->
<g id="edge4" class="edge"><title>Node5&#45;&gt;Node3</title>
<path fill="none" stroke="#9a32cd" stroke-dasharray="5,2" d="M576.239,-246.602C578.856,-246.744 581.449,-246.877 584,-247 835.263,-259.11 1134.26,-264.331 1265.97,-266.165"/>
<polygon fill="#9a32cd" stroke="#9a32cd" points="576.237,-243.097 566.053,-246.019 575.836,-250.085 576.237,-243.097"/>
<text text-anchor="middle" x="867" y="-263" font-family="Helvetica,sans-Serif" font-size="10.00"> _lsame</text>
</g>
<!-- Node7 -->
<g id="node7" class="node"><title>Node7</title>
<g id="a_node7"><a xlink:href="../../d4/dd0/classDotNumerics_1_1LinearAlgebra_1_1CSLapack_1_1DLAMCH.html" target="_top" xlink:title="– LAPACK auxiliary routine (version 3.1) – Univ. of Tennessee, Univ. of California Berkeley and NAG L...">
<polygon fill="white" stroke="black" points="642,-114 642,-144 780,-144 780,-114 642,-114"/>
<text text-anchor="start" x="650" y="-132" font-family="Helvetica,sans-Serif" font-size="10.00">DotNumerics.LinearAlgebra.</text>
<text text-anchor="middle" x="711" y="-121" font-family="Helvetica,sans-Serif" font-size="10.00">CSLapack.DLAMCH</text>
</a>
</g>
</g>
<!-- Node5&#45;&gt;Node7 -->
<g id="edge8" class="edge"><title>Node5&#45;&gt;Node7</title>
<path fill="none" stroke="#9a32cd" stroke-dasharray="5,2" d="M535.62,-221.125C577.386,-199.06 643.861,-163.941 681.524,-144.044"/>
<polygon fill="#9a32cd" stroke="#9a32cd" points="533.798,-218.129 526.591,-225.895 537.068,-224.319 533.798,-218.129"/>
<text text-anchor="middle" x="604" y="-199" font-family="Helvetica,sans-Serif" font-size="10.00"> _lsame</text>
</g>
<!-- Node15 -->
<g id="node15" class="node"><title>Node15</title>
<g id="a_node15"><a xlink:href="../../d1/dda/classDotNumerics_1_1LinearAlgebra_1_1CSLapack_1_1DLACPY.html" target="_top" xlink:title="– LAPACK auxiliary routine (version 3.1) – Univ. of Tennessee, Univ. of California Berkeley and NAG L...">
<polygon fill="white" stroke="black" points="798,-328 798,-358 936,-358 936,-328 798,-328"/>
<text text-anchor="start" x="806" y="-346" font-family="Helvetica,sans-Serif" font-size="10.00">DotNumerics.LinearAlgebra.</text>
<text text-anchor="middle" x="867" y="-335" font-family="Helvetica,sans-Serif" font-size="10.00">CSLapack.DLACPY</text>
</a>
</g>
</g>
<!-- Node5&#45;&gt;Node15 -->
<g id="edge21" class="edge"><title>Node5&#45;&gt;Node15</title>
<path fill="none" stroke="#9a32cd" stroke-dasharray="5,2" d="M542.153,-259.825C555.464,-265.127 570.205,-270.633 584,-275 655.9,-297.759 740.178,-317.16 797.749,-329.344"/>
<polygon fill="#9a32cd" stroke="#9a32cd" points="543.33,-256.526 532.748,-256.02 540.705,-263.015 543.33,-256.526"/>
<text text-anchor="middle" x="604" y="-289" font-family="Helvetica,sans-Serif" font-size="10.00"> _lsame</text>
</g>
<!-- Node18 -->
<g id="node18" class="node"><title>Node18</title>
<g id="a_node18"><a xlink:href="../../d8/dd1/classDotNumerics_1_1LinearAlgebra_1_1CSLapack_1_1DLASET.html" target="_top" xlink:title="– LAPACK auxiliary routine (version 3.1) – Univ. of Tennessee, Univ. of California Berkeley and NAG L...">
<polygon fill="white" stroke="black" points="1110,-207 1110,-237 1248,-237 1248,-207 1110,-207"/>
<text text-anchor="start" x="1118" y="-225" font-family="Helvetica,sans-Serif" font-size="10.00">DotNumerics.LinearAlgebra.</text>
<text text-anchor="middle" x="1179" y="-214" font-family="Helvetica,sans-Serif" font-size="10.00">CSLapack.DLASET</text>
</a>
</g>
</g>
<!-- Node5&#45;&gt;Node18 -->
<g id="edge25" class="edge"><title>Node5&#45;&gt;Node18</title>
<path fill="none" stroke="#9a32cd" stroke-dasharray="5,2" d="M576.12,-238.165C597.48,-237.423 620.631,-236.65 642,-236 810.177,-230.884 1008.07,-226.013 1109.88,-223.592"/>
<polygon fill="#9a32cd" stroke="#9a32cd" points="575.991,-234.667 566.12,-238.515 576.236,-241.663 575.991,-234.667"/>
<text text-anchor="middle" x="711" y="-239" font-family="Helvetica,sans-Serif" font-size="10.00"> _lsame</text>
</g>
<!-- Node6 -->
<g id="node6" class="node"><title>Node6</title>
<g id="a_node6"><a xlink:href="../../d2/d3e/classDotNumerics_1_1LinearAlgebra_1_1CSLapack_1_1DLAED4.html" target="_top" xlink:title="– LAPACK routine (version 3.1) – Univ. of Tennessee, Univ. of California Berkeley and NAG Ltd....">
<polygon fill="white" stroke="black" points="1266,-138 1266,-168 1404,-168 1404,-138 1266,-138"/>
<text text-anchor="start" x="1274" y="-156" font-family="Helvetica,sans-Serif" font-size="10.00">DotNumerics.LinearAlgebra.</text>
<text text-anchor="middle" x="1335" y="-145" font-family="Helvetica,sans-Serif" font-size="10.00">CSLapack.DLAED4</text>
</a>
</g>
</g>
<!-- Node6&#45;&gt;Node1 -->
<g id="edge6" class="edge"><title>Node6&#45;&gt;Node1</title>
<path fill="none" stroke="#9a32cd" stroke-dasharray="5,2" d="M1394.03,-171.21C1415.91,-178.566 1440.84,-187.549 1463,-197 1483.21,-205.621 1505.25,-216.94 1521.97,-225.939"/>
<polygon fill="#9a32cd" stroke="#9a32cd" points="1395.14,-167.888 1384.54,-168.055 1392.93,-174.531 1395.14,-167.888"/>
<text text-anchor="middle" x="1442.5" y="-200" font-family="Helvetica,sans-Serif" font-size="10.00"> _dlaed4</text>
</g>
<!-- Node7&#45;&gt;Node6 -->
<g id="edge7" class="edge"><title>Node7&#45;&gt;Node6</title>
<path fill="none" stroke="#9a32cd" stroke-dasharray="5,2" d="M788.778,-112.006C865.626,-97.2823 987.184,-80.2001 1092,-93 1161.39,-101.474 1239.54,-123.135 1287.78,-137.973"/>
<polygon fill="#9a32cd" stroke="#9a32cd" points="787.847,-108.621 778.703,-113.972 789.188,-115.492 787.847,-108.621"/>
<text text-anchor="middle" x="1023" y="-96" font-family="Helvetica,sans-Serif" font-size="10.00"> _dlamch</text>
</g>
<!-- Node14 -->
<g id="node14" class="node"><title>Node14</title>
<g id="a_node14"><a xlink:href="../../de/d85/classDotNumerics_1_1LinearAlgebra_1_1CSLapack_1_1DLAED6.html" target="_top" xlink:title="– LAPACK routine (version 3.1.1) – Univ. of Tennessee, Univ. of California Berkeley and NAG Ltd....">
<polygon fill="white" stroke="black" points="954,-114 954,-144 1092,-144 1092,-114 954,-114"/>
<text text-anchor="start" x="962" y="-132" font-family="Helvetica,sans-Serif" font-size="10.00">DotNumerics.LinearAlgebra.</text>
<text text-anchor="middle" x="1023" y="-121" font-family="Helvetica,sans-Serif" font-size="10.00">CSLapack.DLAED6</text>
</a>
</g>
</g>
<!-- Node7&#45;&gt;Node14 -->
<g id="edge19" class="edge"><title>Node7&#45;&gt;Node14</title>
<path fill="none" stroke="#9a32cd" stroke-dasharray="5,2" d="M790.234,-129C840.651,-129 905.564,-129 953.861,-129"/>
<polygon fill="#9a32cd" stroke="#9a32cd" points="790.031,-125.5 780.031,-129 790.031,-132.5 790.031,-125.5"/>
<text text-anchor="middle" x="867" y="-132" font-family="Helvetica,sans-Serif" font-size="10.00"> _dlamch</text>
</g>
<!-- Node8 -->
<g id="node8" class="node"><title>Node8</title>
<g id="a_node8"><a xlink:href="../../dc/ddd/classDotNumerics_1_1LinearAlgebra_1_1CSLapack_1_1DLAMC2.html" target="_top" xlink:title="– LAPACK auxiliary routine (version 3.1) – Univ. of Tennessee, Univ. of California Berkeley and NAG L...">
<polygon fill="white" stroke="black" points="428,-114 428,-144 566,-144 566,-114 428,-114"/>
<text text-anchor="start" x="436" y="-132" font-family="Helvetica,sans-Serif" font-size="10.00">DotNumerics.LinearAlgebra.</text>
<text text-anchor="middle" x="497" y="-121" font-family="Helvetica,sans-Serif" font-size="10.00">CSLapack.DLAMC2</text>
</a>
</g>
</g>
<!-- Node8&#45;&gt;Node7 -->
<g id="edge9" class="edge"><title>Node8&#45;&gt;Node7</title>
<path fill="none" stroke="#9a32cd" stroke-dasharray="5,2" d="M576.328,-129C597.843,-129 620.993,-129 641.883,-129"/>
<polygon fill="#9a32cd" stroke="#9a32cd" points="576.245,-125.5 566.245,-129 576.245,-132.5 576.245,-125.5"/>
<text text-anchor="middle" x="604" y="-132" font-family="Helvetica,sans-Serif" font-size="10.00"> _dlamc2</text>
</g>
<!-- Node9 -->
<g id="node9" class="node"><title>Node9</title>
<g id="a_node9"><a xlink:href="../../d5/db1/classDotNumerics_1_1LinearAlgebra_1_1CSLapack_1_1DLAMC1.html" target="_top" xlink:title="– LAPACK auxiliary routine (version 3.1) – Univ. of Tennessee, Univ. of California Berkeley and NAG L...">
<polygon fill="white" stroke="black" points="214,-126 214,-156 352,-156 352,-126 214,-126"/>
<text text-anchor="start" x="222" y="-144" font-family="Helvetica,sans-Serif" font-size="10.00">DotNumerics.LinearAlgebra.</text>
<text text-anchor="middle" x="283" y="-133" font-family="Helvetica,sans-Serif" font-size="10.00">CSLapack.DLAMC1</text>
</a>
</g>
</g>
<!-- Node9&#45;&gt;Node8 -->
<g id="edge10" class="edge"><title>Node9&#45;&gt;Node8</title>
<path fill="none" stroke="#9a32cd" stroke-dasharray="5,2" d="M362.328,-136.566C383.843,-135.349 406.993,-134.038 427.883,-132.856"/>
<polygon fill="#9a32cd" stroke="#9a32cd" points="362.031,-133.077 352.245,-137.137 362.427,-140.066 362.031,-133.077"/>
<text text-anchor="middle" x="390" y="-140" font-family="Helvetica,sans-Serif" font-size="10.00"> _dlamc1</text>
</g>
<!-- Node10 -->
<g id="node10" class="node"><title>Node10</title>
<g id="a_node10"><a xlink:href="../../db/dbb/classDotNumerics_1_1LinearAlgebra_1_1CSLapack_1_1DLAMC3.html" target="_top" xlink:title="– LAPACK auxiliary routine (version 3.1) – Univ. of Tennessee, Univ. of California Berkeley and NAG L...">
<polygon fill="white" stroke="black" points="0,-81 0,-111 138,-111 138,-81 0,-81"/>
<text text-anchor="start" x="8" y="-99" font-family="Helvetica,sans-Serif" font-size="10.00">DotNumerics.LinearAlgebra.</text>
<text text-anchor="middle" x="69" y="-88" font-family="Helvetica,sans-Serif" font-size="10.00">CSLapack.DLAMC3</text>
</a>
</g>
</g>
<!-- Node10&#45;&gt;Node1 -->
<g id="edge26" class="edge"><title>Node10&#45;&gt;Node1</title>
<path fill="none" stroke="#9a32cd" stroke-dasharray="5,2" d="M96.9974,-74.7112C135.652,-46.4304 210.068,-0 282,-0 282,-0 282,-0 1336,-0 1457.17,-0 1525.96,-173.164 1544.11,-225.924"/>
<polygon fill="#9a32cd" stroke="#9a32cd" points="94.7765,-72.0015 88.8572,-80.7885 98.9642,-77.6107 94.7765,-72.0015"/>
<text text-anchor="middle" x="711" y="-3" font-family="Helvetica,sans-Serif" font-size="10.00"> _dlamc3</text>
</g>
<!-- Node10&#45;&gt;Node8 -->
<g id="edge12" class="edge"><title>Node10&#45;&gt;Node8</title>
<path fill="none" stroke="#9a32cd" stroke-dasharray="5,2" d="M148.582,-95.7088C205.253,-96.1803 283.51,-98.23 352,-105 376.844,-107.456 403.888,-111.575 427.761,-115.714"/>
<polygon fill="#9a32cd" stroke="#9a32cd" points="148.283,-92.2068 138.259,-95.6383 148.235,-99.2066 148.283,-92.2068"/>
<text text-anchor="middle" x="283" y="-108" font-family="Helvetica,sans-Serif" font-size="10.00"> _dlamc3</text>
</g>
<!-- Node10&#45;&gt;Node9 -->
<g id="edge11" class="edge"><title>Node10&#45;&gt;Node9</title>
<path fill="none" stroke="#9a32cd" stroke-dasharray="5,2" d="M148.036,-112.564C169.634,-117.149 192.899,-122.087 213.883,-126.541"/>
<polygon fill="#9a32cd" stroke="#9a32cd" points="148.754,-109.139 138.245,-110.486 147.3,-115.986 148.754,-109.139"/>
<text text-anchor="middle" x="176" y="-126" font-family="Helvetica,sans-Serif" font-size="10.00"> _dlamc3</text>
</g>
<!-- Node11 -->
<g id="node11" class="node"><title>Node11</title>
<g id="a_node11"><a xlink:href="../../de/dd1/classDotNumerics_1_1LinearAlgebra_1_1CSLapack_1_1DLAMC4.html" target="_top" xlink:title="– LAPACK auxiliary routine (version 3.1) – Univ. of Tennessee, Univ. of California Berkeley and NAG L...">
<polygon fill="white" stroke="black" points="214,-29 214,-59 352,-59 352,-29 214,-29"/>
<text text-anchor="start" x="222" y="-47" font-family="Helvetica,sans-Serif" font-size="10.00">DotNumerics.LinearAlgebra.</text>
<text text-anchor="middle" x="283" y="-36" font-family="Helvetica,sans-Serif" font-size="10.00">CSLapack.DLAMC4</text>
</a>
</g>
</g>
<!-- Node10&#45;&gt;Node11 -->
<g id="edge14" class="edge"><title>Node10&#45;&gt;Node11</title>
<path fill="none" stroke="#9a32cd" stroke-dasharray="5,2" d="M129.057,-78.2273C138.054,-75.6953 147.253,-73.2055 156,-71 174.656,-66.2961 194.997,-61.7055 213.785,-57.683"/>
<polygon fill="#9a32cd" stroke="#9a32cd" points="128.061,-74.8717 119.404,-80.9799 129.98,-81.6033 128.061,-74.8717"/>
<text text-anchor="middle" x="176" y="-74" font-family="Helvetica,sans-Serif" font-size="10.00"> _dlamc3</text>
</g>
<!-- Node12 -->
<g id="node12" class="node"><title>Node12</title>
<g id="a_node12"><a xlink:href="../../d7/d30/classDotNumerics_1_1LinearAlgebra_1_1CSLapack_1_1DLAMC5.html" target="_top" xlink:title="– LAPACK auxiliary routine (version 3.1) – Univ. of Tennessee, Univ. of California Berkeley and NAG L...">
<polygon fill="white" stroke="black" points="214,-175 214,-205 352,-205 352,-175 214,-175"/>
<text text-anchor="start" x="222" y="-193" font-family="Helvetica,sans-Serif" font-size="10.00">DotNumerics.LinearAlgebra.</text>
<text text-anchor="middle" x="283" y="-182" font-family="Helvetica,sans-Serif" font-size="10.00">CSLapack.DLAMC5</text>
</a>
</g>
</g>
<!-- Node10&#45;&gt;Node12 -->
<g id="edge16" class="edge"><title>Node10&#45;&gt;Node12</title>
<path fill="none" stroke="#9a32cd" stroke-dasharray="5,2" d="M108.366,-115.75C137.092,-130.201 177.548,-149.846 214,-165 222.13,-168.38 230.898,-171.781 239.348,-174.938"/>
<polygon fill="#9a32cd" stroke="#9a32cd" points="109.6,-112.452 99.097,-111.062 106.441,-118.698 109.6,-112.452"/>
<text text-anchor="middle" x="176" y="-160" font-family="Helvetica,sans-Serif" font-size="10.00"> _dlamc3</text>
</g>
<!-- Node11&#45;&gt;Node8 -->
<g id="edge13" class="edge"><title>Node11&#45;&gt;Node8</title>
<path fill="none" stroke="#9a32cd" stroke-dasharray="5,2" d="M362.152,-55.8845C378.326,-59.6813 394.998,-64.6178 410,-71 435.52,-81.8567 461.458,-100.64 478.076,-113.885"/>
<polygon fill="#9a32cd" stroke="#9a32cd" points="362.686,-52.4179 352.164,-53.6651 361.167,-59.2512 362.686,-52.4179"/>
<text text-anchor="middle" x="390" y="-74" font-family="Helvetica,sans-Serif" font-size="10.00"> _dlamc4</text>
</g>
<!-- Node12&#45;&gt;Node8 -->
<g id="edge15" class="edge"><title>Node12&#45;&gt;Node8</title>
<path fill="none" stroke="#9a32cd" stroke-dasharray="5,2" d="M345.972,-172.168C376.995,-163.242 414.135,-152.555 443.701,-144.048"/>
<polygon fill="#9a32cd" stroke="#9a32cd" points="344.775,-168.871 336.133,-175 346.71,-175.598 344.775,-168.871"/>
<text text-anchor="middle" x="390" y="-168" font-family="Helvetica,sans-Serif" font-size="10.00"> _dlamc5</text>
</g>
<!-- Node13 -->
<g id="node13" class="node"><title>Node13</title>
<g id="a_node13"><a xlink:href="../../de/ddd/classDotNumerics_1_1LinearAlgebra_1_1CSLapack_1_1DLAED5.html" target="_top" xlink:title="– LAPACK routine (version 3.1) – Univ. of Tennessee, Univ. of California Berkeley and NAG Ltd....">
<polygon fill="white" stroke="black" points="954,-163 954,-193 1092,-193 1092,-163 954,-163"/>
<text text-anchor="start" x="962" y="-181" font-family="Helvetica,sans-Serif" font-size="10.00">DotNumerics.LinearAlgebra.</text>
<text text-anchor="middle" x="1023" y="-170" font-family="Helvetica,sans-Serif" font-size="10.00">CSLapack.DLAED5</text>
</a>
</g>
</g>
<!-- Node13&#45;&gt;Node6 -->
<g id="edge17" class="edge"><title>Node13&#45;&gt;Node6</title>
<path fill="none" stroke="#9a32cd" stroke-dasharray="5,2" d="M1102.23,-171.691C1152.65,-167.625 1217.56,-162.39 1265.86,-158.495"/>
<polygon fill="#9a32cd" stroke="#9a32cd" points="1101.72,-168.221 1092.03,-172.514 1102.28,-175.198 1101.72,-168.221"/>
<text text-anchor="middle" x="1179" y="-174" font-family="Helvetica,sans-Serif" font-size="10.00"> _dlaed5</text>
</g>
<!-- Node14&#45;&gt;Node6 -->
<g id="edge18" class="edge"><title>Node14&#45;&gt;Node6</title>
<path fill="none" stroke="#9a32cd" stroke-dasharray="5,2" d="M1102.28,-134.178C1145.31,-137.129 1199.62,-141.022 1248,-145 1253.83,-145.479 1259.88,-145.998 1265.94,-146.533"/>
<polygon fill="#9a32cd" stroke="#9a32cd" points="1102.37,-130.677 1092.16,-133.488 1101.9,-137.661 1102.37,-130.677"/>
<text text-anchor="middle" x="1179" y="-148" font-family="Helvetica,sans-Serif" font-size="10.00"> _dlaed6</text>
</g>
<!-- Node15&#45;&gt;Node1 -->
<g id="edge20" class="edge"><title>Node15&#45;&gt;Node1</title>
<path fill="none" stroke="#9a32cd" stroke-dasharray="5,2" d="M946.301,-350.015C1051.92,-357.276 1245.1,-362.761 1404,-324 1454.16,-311.764 1504.67,-276.417 1530.79,-256.013"/>
<polygon fill="#9a32cd" stroke="#9a32cd" points="946.269,-346.504 936.046,-349.285 945.772,-353.486 946.269,-346.504"/>
<text text-anchor="middle" x="1179" y="-358" font-family="Helvetica,sans-Serif" font-size="10.00"> _dlacpy</text>
</g>
<!-- Node16 -->
<g id="node16" class="node"><title>Node16</title>
<g id="a_node16"><a xlink:href="../../d3/df8/classDotNumerics_1_1LinearAlgebra_1_1CSLapack_1_1DNRM2.html" target="_top" xlink:title=" ">
<polygon fill="white" stroke="black" points="1266,-51 1266,-81 1404,-81 1404,-51 1266,-51"/>
<text text-anchor="start" x="1274" y="-69" font-family="Helvetica,sans-Serif" font-size="10.00">DotNumerics.LinearAlgebra.</text>
<text text-anchor="middle" x="1335" y="-58" font-family="Helvetica,sans-Serif" font-size="10.00">CSLapack.DNRM2</text>
</a>
</g>
</g>
<!-- Node16&#45;&gt;Node1 -->
<g id="edge22" class="edge"><title>Node16&#45;&gt;Node1</title>
<path fill="none" stroke="#9a32cd" stroke-dasharray="5,2" d="M1362.93,-87.2782C1388.75,-107.768 1428.76,-139.729 1463,-168 1486.86,-187.702 1514.03,-210.892 1531.33,-225.759"/>
<polygon fill="#9a32cd" stroke="#9a32cd" points="1365.08,-84.5163 1355.06,-81.0478 1360.73,-90.0022 1365.08,-84.5163"/>
<text text-anchor="middle" x="1442.5" y="-171" font-family="Helvetica,sans-Serif" font-size="10.00"> _dnrm2</text>
</g>
<!-- Node17 -->
<g id="node17" class="node"><title>Node17</title>
<g id="a_node17"><a xlink:href="../../d2/dbc/interfaceDotNumerics_1_1LinearAlgebra_1_1CSLapack_1_1IDNRM2.html" target="_top" xlink:title=" ">
<polygon fill="white" stroke="black" points="996.5,-28.5 996.5,-47.5 1049.5,-47.5 1049.5,-28.5 996.5,-28.5"/>
<text text-anchor="middle" x="1023" y="-35.5" font-family="Helvetica,sans-Serif" font-size="10.00">IDNRM2</text>
</a>
</g>
</g>
<!-- Node17&#45;&gt;Node16 -->
<g id="edge23" class="edge"><title>Node17&#45;&gt;Node16</title>
<path fill="none" stroke="midnightblue" d="M1059.67,-41.2221C1109.85,-45.7541 1202.23,-54.0986 1265.83,-59.8427"/>
<polygon fill="midnightblue" stroke="midnightblue" points="1059.91,-37.729 1049.63,-40.3152 1059.28,-44.7006 1059.91,-37.729"/>
</g>
<!-- Node18&#45;&gt;Node1 -->
<g id="edge24" class="edge"><title>Node18&#45;&gt;Node1</title>
<path fill="none" stroke="#9a32cd" stroke-dasharray="5,2" d="M1258.27,-224.594C1301.3,-226.159 1355.61,-228.36 1404,-231 1429.07,-232.368 1456.56,-234.183 1480.79,-235.891"/>
<polygon fill="#9a32cd" stroke="#9a32cd" points="1258.27,-221.092 1248.15,-224.23 1258.02,-228.087 1258.27,-221.092"/>
<text text-anchor="middle" x="1335" y="-234" font-family="Helvetica,sans-Serif" font-size="10.00"> _dlaset</text>
</g>
</g>
</svg>
