<?xml version="1.0" encoding="UTF-8" standalone="no"?>
<!DOCTYPE svg PUBLIC "-//W3C//DTD SVG 1.1//EN"
 "http://www.w3.org/Graphics/SVG/1.1/DTD/svg11.dtd">
<!-- Generated by graphviz version 2.38.0 (20140413.2041)
 -->
<!-- Title: NUnit.Framework.CombiningStrategyAttribute Pages: 1 -->
<svg width="547pt" height="176pt"
 viewBox="0.00 0.00 547.00 175.50" xmlns="http://www.w3.org/2000/svg" xmlns:xlink="http://www.w3.org/1999/xlink">
<g id="graph0" class="graph" transform="scale(1 1) rotate(0) translate(4 171.5)">
<title>NUnit.Framework.CombiningStrategyAttribute</title>
<polygon fill="white" stroke="none" points="-4,4 -4,-171.5 543,-171.5 543,4 -4,4"/>
<!-- Node1 -->
<g id="node1" class="node"><title>Node1</title>
<g id="a_node1"><a xlink:title="Marks a test to use a particular CombiningStrategy to join any parameter data provided....">
<polygon fill="#bfbfbf" stroke="black" points="202,-63 202,-93 342,-93 342,-63 202,-63"/>
<text text-anchor="start" x="210" y="-81" font-family="Helvetica,sans-Serif" font-size="10.00">NUnit.Framework.Combining</text>
<text text-anchor="middle" x="272" y="-70" font-family="Helvetica,sans-Serif" font-size="10.00">StrategyAttribute</text>
</a>
</g>
</g>
<!-- Node6 -->
<g id="node6" class="node"><title>Node6</title>
<g id="a_node6"><a xlink:href="../../d9/dfe/classNUnit_1_1Framework_1_1CombinatorialAttribute.html" target="_top" xlink:title="Marks a test to use a combinatorial join of any argument data provided. Since this is the default,...">
<polygon fill="white" stroke="black" points="381.5,-137 381.5,-167 535.5,-167 535.5,-137 381.5,-137"/>
<text text-anchor="start" x="389.5" y="-155" font-family="Helvetica,sans-Serif" font-size="10.00">NUnit.Framework.Combinatorial</text>
<text text-anchor="middle" x="458.5" y="-144" font-family="Helvetica,sans-Serif" font-size="10.00">Attribute</text>
</a>
</g>
</g>
<!-- Node1&#45;&gt;Node6 -->
<g id="edge5" class="edge"><title>Node1&#45;&gt;Node6</title>
<path fill="none" stroke="midnightblue" d="M310.86,-97.7355C330.566,-107.568 355.239,-119.203 378,-128 386.203,-131.17 395.011,-134.193 403.669,-136.957"/>
<polygon fill="midnightblue" stroke="midnightblue" points="312.403,-94.594 301.898,-93.2179 309.252,-100.845 312.403,-94.594"/>
</g>
<!-- Node7 -->
<g id="node7" class="node"><title>Node7</title>
<g id="a_node7"><a xlink:href="../../d7/d46/classNUnit_1_1Framework_1_1PairwiseAttribute.html" target="_top" xlink:title="Marks a test to use a pairwise join of any argument data provided. Arguments will be combined in such...">
<polygon fill="white" stroke="black" points="393,-88 393,-118 524,-118 524,-88 393,-88"/>
<text text-anchor="start" x="401" y="-106" font-family="Helvetica,sans-Serif" font-size="10.00">NUnit.Framework.Pairwise</text>
<text text-anchor="middle" x="458.5" y="-95" font-family="Helvetica,sans-Serif" font-size="10.00">Attribute</text>
</a>
</g>
</g>
<!-- Node1&#45;&gt;Node7 -->
<g id="edge6" class="edge"><title>Node1&#45;&gt;Node7</title>
<path fill="none" stroke="midnightblue" d="M352.431,-88.7631C365.897,-90.5877 379.735,-92.4627 392.766,-94.2285"/>
<polygon fill="midnightblue" stroke="midnightblue" points="352.605,-85.2547 342.226,-87.3802 351.665,-92.1913 352.605,-85.2547"/>
</g>
<!-- Node8 -->
<g id="node8" class="node"><title>Node8</title>
<g id="a_node8"><a xlink:href="../../de/d59/classNUnit_1_1Framework_1_1SequentialAttribute.html" target="_top" xlink:title="Marks a test to use a Sequential join of any argument data provided. Arguments will be combined into ...">
<polygon fill="white" stroke="black" points="388.5,-39 388.5,-69 528.5,-69 528.5,-39 388.5,-39"/>
<text text-anchor="start" x="396.5" y="-57" font-family="Helvetica,sans-Serif" font-size="10.00">NUnit.Framework.Sequential</text>
<text text-anchor="middle" x="458.5" y="-46" font-family="Helvetica,sans-Serif" font-size="10.00">Attribute</text>
</a>
</g>
</g>
<!-- Node1&#45;&gt;Node8 -->
<g id="edge7" class="edge"><title>Node1&#45;&gt;Node8</title>
<path fill="none" stroke="midnightblue" d="M352.265,-67.6891C364.324,-66.1205 376.684,-64.5127 388.5,-62.9756"/>
<polygon fill="midnightblue" stroke="midnightblue" points="351.691,-64.2342 342.226,-68.995 352.594,-71.1757 351.691,-64.2342"/>
</g>
<!-- Node9 -->
<g id="node9" class="node"><title>Node9</title>
<g id="a_node9"><a xlink:href="../../d2/dbe/classNUnit_1_1Framework_1_1TheoryAttribute.html" target="_top" xlink:title="Adding this attribute to a method within a TestFixtureAttributeclass makes the method callable from t...">
<polygon fill="white" stroke="black" points="378,-0.5 378,-19.5 539,-19.5 539,-0.5 378,-0.5"/>
<text text-anchor="middle" x="458.5" y="-7.5" font-family="Helvetica,sans-Serif" font-size="10.00">NUnit.Framework.TheoryAttribute</text>
</a>
</g>
</g>
<!-- Node1&#45;&gt;Node9 -->
<g id="edge8" class="edge"><title>Node1&#45;&gt;Node9</title>
<path fill="none" stroke="midnightblue" d="M310.276,-58.3553C330.008,-48.5379 354.88,-37.0644 378,-29 388.317,-25.4013 399.62,-22.2485 410.383,-19.599"/>
<polygon fill="midnightblue" stroke="midnightblue" points="308.668,-55.2463 301.316,-62.8749 311.821,-61.4963 308.668,-55.2463"/>
</g>
<!-- Node2 -->
<g id="node2" class="node"><title>Node2</title>
<g id="a_node2"><a xlink:href="../../d3/dee/classNUnit_1_1Framework_1_1NUnitAttribute.html" target="_top" xlink:title="The abstract base class for all custom attributes defined by NUnit.">
<polygon fill="white" stroke="black" points="89,-106.5 89,-125.5 166,-125.5 166,-106.5 89,-106.5"/>
<text text-anchor="middle" x="127.5" y="-113.5" font-family="Helvetica,sans-Serif" font-size="10.00">NUnitAttribute</text>
</a>
</g>
</g>
<!-- Node2&#45;&gt;Node1 -->
<g id="edge1" class="edge"><title>Node2&#45;&gt;Node1</title>
<path fill="none" stroke="midnightblue" d="M174.403,-103.759C187.183,-100.351 201.215,-96.6094 214.527,-93.0595"/>
<polygon fill="midnightblue" stroke="midnightblue" points="173.219,-100.452 164.459,-106.411 175.023,-107.216 173.219,-100.452"/>
</g>
<!-- Node3 -->
<g id="node3" class="node"><title>Node3</title>
<g id="a_node3"><a xlink:title=" ">
<polygon fill="white" stroke="#bfbfbf" points="0,-106.5 0,-125.5 53,-125.5 53,-106.5 0,-106.5"/>
<text text-anchor="middle" x="26.5" y="-113.5" font-family="Helvetica,sans-Serif" font-size="10.00">Attribute</text>
</a>
</g>
</g>
<!-- Node3&#45;&gt;Node2 -->
<g id="edge2" class="edge"><title>Node3&#45;&gt;Node2</title>
<path fill="none" stroke="midnightblue" d="M63.4001,-116C71.707,-116 80.5677,-116 88.9433,-116"/>
<polygon fill="midnightblue" stroke="midnightblue" points="63.2527,-112.5 53.2526,-116 63.2526,-119.5 63.2527,-112.5"/>
</g>
<!-- Node4 -->
<g id="node4" class="node"><title>Node4</title>
<g id="a_node4"><a xlink:href="../../d9/d9f/interfaceNUnit_1_1Framework_1_1Interfaces_1_1ITestBuilder.html" target="_top" xlink:title="The ITestBuilder interface is exposed by a class that knows how to build one or more TestMethods from...">
<polygon fill="white" stroke="black" points="93.5,-68.5 93.5,-87.5 161.5,-87.5 161.5,-68.5 93.5,-68.5"/>
<text text-anchor="middle" x="127.5" y="-75.5" font-family="Helvetica,sans-Serif" font-size="10.00">ITestBuilder</text>
</a>
</g>
</g>
<!-- Node4&#45;&gt;Node1 -->
<g id="edge3" class="edge"><title>Node4&#45;&gt;Node1</title>
<path fill="none" stroke="midnightblue" d="M171.581,-78C181.156,-78 191.539,-78 201.863,-78"/>
<polygon fill="midnightblue" stroke="midnightblue" points="171.551,-74.5001 161.551,-78 171.551,-81.5001 171.551,-74.5001"/>
</g>
<!-- Node5 -->
<g id="node5" class="node"><title>Node5</title>
<g id="a_node5"><a xlink:href="../../d8/d57/interfaceNUnit_1_1Framework_1_1Interfaces_1_1IApplyToTest.html" target="_top" xlink:title="The IApplyToTest interface is implemented by self&#45;applying attributes that modify the state of a test...">
<polygon fill="white" stroke="black" points="91,-30.5 91,-49.5 164,-49.5 164,-30.5 91,-30.5"/>
<text text-anchor="middle" x="127.5" y="-37.5" font-family="Helvetica,sans-Serif" font-size="10.00">IApplyToTest</text>
</a>
</g>
</g>
<!-- Node5&#45;&gt;Node1 -->
<g id="edge4" class="edge"><title>Node5&#45;&gt;Node1</title>
<path fill="none" stroke="midnightblue" d="M174.095,-52.1588C186.962,-55.59 201.118,-59.3647 214.54,-62.9441"/>
<polygon fill="midnightblue" stroke="midnightblue" points="174.655,-48.6859 164.091,-49.491 172.852,-55.4495 174.655,-48.6859"/>
</g>
</g>
</svg>
