<?xml version="1.0" encoding="UTF-8" standalone="no"?>
<!DOCTYPE svg PUBLIC "-//W3C//DTD SVG 1.1//EN"
 "http://www.w3.org/Graphics/SVG/1.1/DTD/svg11.dtd">
<!-- Generated by graphviz version 2.38.0 (20140413.2041)
 -->
<!-- Title: DotNumerics.LinearAlgebra.CSLapack.DTRTRI Pages: 1 -->
<svg width="774pt" height="458pt"
 viewBox="0.00 0.00 774.00 457.57" xmlns="http://www.w3.org/2000/svg" xmlns:xlink="http://www.w3.org/1999/xlink">
<g id="graph0" class="graph" transform="scale(1 1) rotate(0) translate(4 453.566)">
<title>DotNumerics.LinearAlgebra.CSLapack.DTRTRI</title>
<polygon fill="white" stroke="none" points="-4,4 -4,-453.566 770,-453.566 770,4 -4,4"/>
<!-- Node1 -->
<g id="node1" class="node"><title>Node1</title>
<g id="a_node1"><a xlink:title="– LAPACK routine (version 3.1) – Univ. of Tennessee, Univ. of California Berkeley and NAG Ltd....">
<polygon fill="#bfbfbf" stroke="black" points="628,-162.5 628,-192.5 766,-192.5 766,-162.5 628,-162.5"/>
<text text-anchor="start" x="636" y="-180.5" font-family="Helvetica,sans-Serif" font-size="10.00">DotNumerics.LinearAlgebra.</text>
<text text-anchor="middle" x="697" y="-169.5" font-family="Helvetica,sans-Serif" font-size="10.00">CSLapack.DTRTRI</text>
</a>
</g>
</g>
<!-- Node2 -->
<g id="node2" class="node"><title>Node2</title>
<g id="a_node2"><a xlink:href="../../de/dec/classDotNumerics_1_1LinearAlgebra_1_1CSLapack_1_1DTRTI2.html" target="_top" xlink:title="– LAPACK routine (version 3.1) – Univ. of Tennessee, Univ. of California Berkeley and NAG Ltd....">
<polygon fill="white" stroke="black" points="421,-294.5 421,-324.5 559,-324.5 559,-294.5 421,-294.5"/>
<text text-anchor="start" x="429" y="-312.5" font-family="Helvetica,sans-Serif" font-size="10.00">DotNumerics.LinearAlgebra.</text>
<text text-anchor="middle" x="490" y="-301.5" font-family="Helvetica,sans-Serif" font-size="10.00">CSLapack.DTRTI2</text>
</a>
</g>
</g>
<!-- Node2&#45;&gt;Node1 -->
<g id="edge1" class="edge"><title>Node2&#45;&gt;Node1</title>
<path fill="none" stroke="#9a32cd" stroke-dasharray="5,2" d="M523.134,-288.809C564.574,-262.126 635.675,-216.343 672.443,-192.668"/>
<polygon fill="#9a32cd" stroke="#9a32cd" points="521.029,-286.001 514.516,-294.358 524.819,-291.887 521.029,-286.001"/>
<text text-anchor="middle" x="593.5" y="-254.5" font-family="Helvetica,sans-Serif" font-size="10.00"> _dtrti2</text>
</g>
<!-- Node3 -->
<g id="node3" class="node"><title>Node3</title>
<g id="a_node3"><a xlink:href="../../d1/d76/classDotNumerics_1_1LinearAlgebra_1_1CSLapack_1_1DSCAL.html" target="_top" xlink:title=" ">
<polygon fill="white" stroke="black" points="209,-397.5 209,-427.5 347,-427.5 347,-397.5 209,-397.5"/>
<text text-anchor="start" x="217" y="-415.5" font-family="Helvetica,sans-Serif" font-size="10.00">DotNumerics.LinearAlgebra.</text>
<text text-anchor="middle" x="278" y="-404.5" font-family="Helvetica,sans-Serif" font-size="10.00">CSLapack.DSCAL</text>
</a>
</g>
</g>
<!-- Node3&#45;&gt;Node2 -->
<g id="edge2" class="edge"><title>Node3&#45;&gt;Node2</title>
<path fill="none" stroke="#9a32cd" stroke-dasharray="5,2" d="M356.996,-398.722C372.704,-394.381 388.753,-388.755 403,-381.5 431.804,-366.832 459.414,-340.913 475.266,-324.501"/>
<polygon fill="#9a32cd" stroke="#9a32cd" points="356.068,-395.346 347.278,-401.261 357.838,-402.119 356.068,-395.346"/>
<text text-anchor="middle" x="384" y="-398.5" font-family="Helvetica,sans-Serif" font-size="10.00"> _dscal</text>
</g>
<!-- Node4 -->
<g id="node4" class="node"><title>Node4</title>
<g id="a_node4"><a xlink:href="../../d1/dae/classDotNumerics_1_1LinearAlgebra_1_1CSLapack_1_1DTRMV.html" target="_top" xlink:title=" ">
<polygon fill="white" stroke="black" points="209,-294.5 209,-324.5 347,-324.5 347,-294.5 209,-294.5"/>
<text text-anchor="start" x="217" y="-312.5" font-family="Helvetica,sans-Serif" font-size="10.00">DotNumerics.LinearAlgebra.</text>
<text text-anchor="middle" x="278" y="-301.5" font-family="Helvetica,sans-Serif" font-size="10.00">CSLapack.DTRMV</text>
</a>
</g>
</g>
<!-- Node4&#45;&gt;Node2 -->
<g id="edge3" class="edge"><title>Node4&#45;&gt;Node2</title>
<path fill="none" stroke="#9a32cd" stroke-dasharray="5,2" d="M357.287,-309.5C378.152,-309.5 400.525,-309.5 420.802,-309.5"/>
<polygon fill="#9a32cd" stroke="#9a32cd" points="357.181,-306 347.181,-309.5 357.181,-313 357.181,-306"/>
<text text-anchor="middle" x="384" y="-312.5" font-family="Helvetica,sans-Serif" font-size="10.00"> _dtrmv</text>
</g>
<!-- Node5 -->
<g id="node5" class="node"><title>Node5</title>
<g id="a_node5"><a xlink:href="../../db/d6a/classDotNumerics_1_1LinearAlgebra_1_1CSLapack_1_1XERBLA.html" target="_top" xlink:title="– LAPACK auxiliary routine (version 3.1) – Univ. of Tennessee, Univ. of California Berkeley and NAG L...">
<polygon fill="white" stroke="black" points="0,-329.5 0,-359.5 138,-359.5 138,-329.5 0,-329.5"/>
<text text-anchor="start" x="8" y="-347.5" font-family="Helvetica,sans-Serif" font-size="10.00">DotNumerics.LinearAlgebra.</text>
<text text-anchor="middle" x="69" y="-336.5" font-family="Helvetica,sans-Serif" font-size="10.00">CSLapack.XERBLA</text>
</a>
</g>
</g>
<!-- Node5&#45;&gt;Node1 -->
<g id="edge8" class="edge"><title>Node5&#45;&gt;Node1</title>
<path fill="none" stroke="#9a32cd" stroke-dasharray="5,2" d="M93.6205,-366.822C119.57,-389.67 163.625,-423.72 209,-437.5 267.687,-455.322 287.208,-451.162 347,-437.5 381.106,-429.707 483.383,-391.502 559,-333.5 614.77,-290.721 665.067,-222.6 685.871,-192.564"/>
<polygon fill="#9a32cd" stroke="#9a32cd" points="95.6289,-363.921 85.8527,-359.838 90.9486,-369.126 95.6289,-363.921"/>
<text text-anchor="middle" x="384" y="-434.5" font-family="Helvetica,sans-Serif" font-size="10.00"> _xerbla</text>
</g>
<!-- Node5&#45;&gt;Node2 -->
<g id="edge6" class="edge"><title>Node5&#45;&gt;Node2</title>
<path fill="none" stroke="#9a32cd" stroke-dasharray="5,2" d="M148.393,-345.305C162.577,-345.221 177.232,-344.985 191,-344.5 260.462,-342.054 277.953,-341.467 347,-333.5 372.042,-330.611 378.138,-328.666 403,-324.5 408.83,-323.523 414.879,-322.496 420.946,-321.456"/>
<polygon fill="#9a32cd" stroke="#9a32cd" points="148.156,-341.805 138.168,-345.34 148.18,-348.805 148.156,-341.805"/>
<text text-anchor="middle" x="278" y="-347.5" font-family="Helvetica,sans-Serif" font-size="10.00"> _xerbla</text>
</g>
<!-- Node5&#45;&gt;Node4 -->
<g id="edge4" class="edge"><title>Node5&#45;&gt;Node4</title>
<path fill="none" stroke="#9a32cd" stroke-dasharray="5,2" d="M148.074,-331.299C168.079,-327.917 189.435,-324.306 208.893,-321.016"/>
<polygon fill="#9a32cd" stroke="#9a32cd" points="147.343,-327.873 138.066,-332.991 148.51,-334.775 147.343,-327.873"/>
<text text-anchor="middle" x="173.5" y="-332.5" font-family="Helvetica,sans-Serif" font-size="10.00"> _xerbla</text>
</g>
<!-- Node7 -->
<g id="node7" class="node"><title>Node7</title>
<g id="a_node7"><a xlink:href="../../db/dc9/classDotNumerics_1_1LinearAlgebra_1_1CSLapack_1_1DTRSM.html" target="_top" xlink:title=" ">
<polygon fill="white" stroke="black" points="209,-137.5 209,-167.5 347,-167.5 347,-137.5 209,-137.5"/>
<text text-anchor="start" x="217" y="-155.5" font-family="Helvetica,sans-Serif" font-size="10.00">DotNumerics.LinearAlgebra.</text>
<text text-anchor="middle" x="278" y="-144.5" font-family="Helvetica,sans-Serif" font-size="10.00">CSLapack.DTRSM</text>
</a>
</g>
</g>
<!-- Node5&#45;&gt;Node7 -->
<g id="edge10" class="edge"><title>Node5&#45;&gt;Node7</title>
<path fill="none" stroke="#9a32cd" stroke-dasharray="5,2" d="M88.6582,-321.28C124.784,-276.417 201.415,-181.749 209,-176.5 213.941,-173.08 219.42,-170.1 225.062,-167.513"/>
<polygon fill="#9a32cd" stroke="#9a32cd" points="85.7499,-319.312 82.2074,-329.297 91.2035,-323.7 85.7499,-319.312"/>
<text text-anchor="middle" x="173.5" y="-237.5" font-family="Helvetica,sans-Serif" font-size="10.00"> _xerbla</text>
</g>
<!-- Node8 -->
<g id="node8" class="node"><title>Node8</title>
<g id="a_node8"><a xlink:href="../../d7/dbf/classDotNumerics_1_1LinearAlgebra_1_1CSLapack_1_1DTRMM.html" target="_top" xlink:title=" ">
<polygon fill="white" stroke="black" points="209,-186.5 209,-216.5 347,-216.5 347,-186.5 209,-186.5"/>
<text text-anchor="start" x="217" y="-204.5" font-family="Helvetica,sans-Serif" font-size="10.00">DotNumerics.LinearAlgebra.</text>
<text text-anchor="middle" x="278" y="-193.5" font-family="Helvetica,sans-Serif" font-size="10.00">CSLapack.DTRMM</text>
</a>
</g>
</g>
<!-- Node5&#45;&gt;Node8 -->
<g id="edge14" class="edge"><title>Node5&#45;&gt;Node8</title>
<path fill="none" stroke="#9a32cd" stroke-dasharray="5,2" d="M120.21,-325.577C148.78,-313.925 180.846,-299.06 191,-287.5 208.254,-267.859 191.505,-250.926 209,-231.5 214.44,-225.459 221.321,-220.575 228.604,-216.644"/>
<polygon fill="#9a32cd" stroke="#9a32cd" points="118.669,-322.424 110.691,-329.396 121.275,-328.921 118.669,-322.424"/>
<text text-anchor="middle" x="173.5" y="-313.5" font-family="Helvetica,sans-Serif" font-size="10.00"> _xerbla</text>
</g>
<!-- Node6 -->
<g id="node6" class="node"><title>Node6</title>
<g id="a_node6"><a xlink:href="../../dd/dac/classDotNumerics_1_1LinearAlgebra_1_1CSLapack_1_1LSAME.html" target="_top" xlink:title="– LAPACK auxiliary routine (version 3.1) – Univ. of Tennessee, Univ. of California Berkeley and NAG L...">
<polygon fill="white" stroke="black" points="0,-168.5 0,-198.5 138,-198.5 138,-168.5 0,-168.5"/>
<text text-anchor="start" x="8" y="-186.5" font-family="Helvetica,sans-Serif" font-size="10.00">DotNumerics.LinearAlgebra.</text>
<text text-anchor="middle" x="69" y="-175.5" font-family="Helvetica,sans-Serif" font-size="10.00">CSLapack.LSAME</text>
</a>
</g>
</g>
<!-- Node6&#45;&gt;Node1 -->
<g id="edge12" class="edge"><title>Node6&#45;&gt;Node1</title>
<path fill="none" stroke="#9a32cd" stroke-dasharray="5,2" d="M107.211,-163.946C134.538,-150.735 173.015,-134.476 209,-127.5 366.075,-97.0482 555.481,-138.419 644.731,-162.449"/>
<polygon fill="#9a32cd" stroke="#9a32cd" points="105.454,-160.91 98.0327,-168.472 108.55,-167.189 105.454,-160.91"/>
<text text-anchor="middle" x="384" y="-122.5" font-family="Helvetica,sans-Serif" font-size="10.00"> _lsame</text>
</g>
<!-- Node6&#45;&gt;Node2 -->
<g id="edge7" class="edge"><title>Node6&#45;&gt;Node2</title>
<path fill="none" stroke="#9a32cd" stroke-dasharray="5,2" d="M102.789,-203.686C118.442,-212.623 137.711,-222.641 156,-229.5 237.565,-260.089 262.33,-253.017 347,-273.5 374.562,-280.168 405.053,-287.856 430.692,-294.412"/>
<polygon fill="#9a32cd" stroke="#9a32cd" points="104.429,-200.59 94.026,-198.58 100.905,-206.639 104.429,-200.59"/>
<text text-anchor="middle" x="278" y="-276.5" font-family="Helvetica,sans-Serif" font-size="10.00"> _lsame</text>
</g>
<!-- Node6&#45;&gt;Node4 -->
<g id="edge5" class="edge"><title>Node6&#45;&gt;Node4</title>
<path fill="none" stroke="#9a32cd" stroke-dasharray="5,2" d="M93.3982,-205.708C109.998,-220.716 133.281,-240.307 156,-254.5 181.637,-270.516 212.721,-284.542 236.964,-294.422"/>
<polygon fill="#9a32cd" stroke="#9a32cd" points="95.5521,-202.935 85.8175,-198.753 90.8195,-208.092 95.5521,-202.935"/>
<text text-anchor="middle" x="173.5" y="-275.5" font-family="Helvetica,sans-Serif" font-size="10.00"> _lsame</text>
</g>
<!-- Node6&#45;&gt;Node7 -->
<g id="edge11" class="edge"><title>Node6&#45;&gt;Node7</title>
<path fill="none" stroke="#9a32cd" stroke-dasharray="5,2" d="M147.931,-168.786C150.652,-168.341 153.348,-167.911 156,-167.5 173.048,-164.86 191.506,-162.38 208.746,-160.227"/>
<polygon fill="#9a32cd" stroke="#9a32cd" points="147.285,-165.346 138.004,-170.455 148.445,-172.249 147.285,-165.346"/>
<text text-anchor="middle" x="173.5" y="-170.5" font-family="Helvetica,sans-Serif" font-size="10.00"> _lsame</text>
</g>
<!-- Node6&#45;&gt;Node8 -->
<g id="edge15" class="edge"><title>Node6&#45;&gt;Node8</title>
<path fill="none" stroke="#9a32cd" stroke-dasharray="5,2" d="M148.496,-182.015C162.669,-182.353 177.294,-183.101 191,-184.5 196.754,-185.087 202.694,-185.875 208.639,-186.79"/>
<polygon fill="#9a32cd" stroke="#9a32cd" points="148.335,-178.512 138.275,-181.837 148.213,-185.511 148.335,-178.512"/>
<text text-anchor="middle" x="173.5" y="-187.5" font-family="Helvetica,sans-Serif" font-size="10.00"> _lsame</text>
</g>
<!-- Node7&#45;&gt;Node1 -->
<g id="edge9" class="edge"><title>Node7&#45;&gt;Node1</title>
<path fill="none" stroke="#9a32cd" stroke-dasharray="5,2" d="M357.644,-157.215C435.618,-161.89 553.85,-168.978 627.917,-173.418"/>
<polygon fill="#9a32cd" stroke="#9a32cd" points="357.584,-153.705 347.392,-156.6 357.165,-160.693 357.584,-153.705"/>
<text text-anchor="middle" x="490" y="-172.5" font-family="Helvetica,sans-Serif" font-size="10.00"> _dtrsm</text>
</g>
<!-- Node8&#45;&gt;Node1 -->
<g id="edge13" class="edge"><title>Node8&#45;&gt;Node1</title>
<path fill="none" stroke="#9a32cd" stroke-dasharray="5,2" d="M357.644,-196.974C435.618,-192.486 553.85,-185.681 627.917,-181.418"/>
<polygon fill="#9a32cd" stroke="#9a32cd" points="357.174,-193.495 347.392,-197.564 357.577,-200.483 357.174,-193.495"/>
<text text-anchor="middle" x="490" y="-196.5" font-family="Helvetica,sans-Serif" font-size="10.00"> _dtrmm</text>
</g>
<!-- Node9 -->
<g id="node9" class="node"><title>Node9</title>
<g id="a_node9"><a xlink:href="../../dd/dd0/classDotNumerics_1_1LinearAlgebra_1_1CSLapack_1_1ILAENV.html" target="_top" xlink:title="– LAPACK auxiliary routine (version 3.1.1) – Univ. of Tennessee, Univ. of California Berkeley and NAG...">
<polygon fill="white" stroke="black" points="421,-49.5 421,-79.5 559,-79.5 559,-49.5 421,-49.5"/>
<text text-anchor="start" x="429" y="-67.5" font-family="Helvetica,sans-Serif" font-size="10.00">DotNumerics.LinearAlgebra.</text>
<text text-anchor="middle" x="490" y="-56.5" font-family="Helvetica,sans-Serif" font-size="10.00">CSLapack.ILAENV</text>
</a>
</g>
</g>
<!-- Node9&#45;&gt;Node1 -->
<g id="edge16" class="edge"><title>Node9&#45;&gt;Node1</title>
<path fill="none" stroke="#9a32cd" stroke-dasharray="5,2" d="M568.85,-69.2425C583.102,-72.2175 597.429,-76.7288 610,-83.5 644.858,-102.275 673.015,-140.752 686.8,-162.199"/>
<polygon fill="#9a32cd" stroke="#9a32cd" points="569.488,-65.8013 559.018,-67.4194 568.212,-72.6839 569.488,-65.8013"/>
<text text-anchor="middle" x="593.5" y="-86.5" font-family="Helvetica,sans-Serif" font-size="10.00"> _ilaenv</text>
</g>
<!-- Node10 -->
<g id="node10" class="node"><title>Node10</title>
<g id="a_node10"><a xlink:href="../../d6/dee/classDotNumerics_1_1LinearAlgebra_1_1CSLapack_1_1IEEECK.html" target="_top" xlink:title="– LAPACK auxiliary routine (version 3.1) – Univ. of Tennessee, Univ. of California Berkeley and NAG L...">
<polygon fill="white" stroke="black" points="209,-49.5 209,-79.5 347,-79.5 347,-49.5 209,-49.5"/>
<text text-anchor="start" x="217" y="-67.5" font-family="Helvetica,sans-Serif" font-size="10.00">DotNumerics.LinearAlgebra.</text>
<text text-anchor="middle" x="278" y="-56.5" font-family="Helvetica,sans-Serif" font-size="10.00">CSLapack.IEEECK</text>
</a>
</g>
</g>
<!-- Node10&#45;&gt;Node9 -->
<g id="edge17" class="edge"><title>Node10&#45;&gt;Node9</title>
<path fill="none" stroke="#9a32cd" stroke-dasharray="5,2" d="M357.287,-64.5C378.152,-64.5 400.525,-64.5 420.802,-64.5"/>
<polygon fill="#9a32cd" stroke="#9a32cd" points="357.181,-61.0001 347.181,-64.5 357.181,-68.0001 357.181,-61.0001"/>
<text text-anchor="middle" x="384" y="-67.5" font-family="Helvetica,sans-Serif" font-size="10.00"> _ieeeck</text>
</g>
<!-- Node11 -->
<g id="node11" class="node"><title>Node11</title>
<g id="a_node11"><a xlink:href="../../da/dc9/classDotNumerics_1_1LinearAlgebra_1_1CSLapack_1_1IPARMQ.html" target="_top" xlink:title="– LAPACK auxiliary routine (version 3.1) – Univ. of Tennessee, Univ. of California Berkeley and NAG L...">
<polygon fill="white" stroke="black" points="209,-0.5 209,-30.5 347,-30.5 347,-0.5 209,-0.5"/>
<text text-anchor="start" x="217" y="-18.5" font-family="Helvetica,sans-Serif" font-size="10.00">DotNumerics.LinearAlgebra.</text>
<text text-anchor="middle" x="278" y="-7.5" font-family="Helvetica,sans-Serif" font-size="10.00">CSLapack.IPARMQ</text>
</a>
</g>
</g>
<!-- Node11&#45;&gt;Node9 -->
<g id="edge18" class="edge"><title>Node11&#45;&gt;Node9</title>
<path fill="none" stroke="#9a32cd" stroke-dasharray="5,2" d="M353.275,-32.8309C376.591,-38.2712 402.122,-44.2285 424.688,-49.4938"/>
<polygon fill="#9a32cd" stroke="#9a32cd" points="353.968,-29.3985 343.434,-30.5346 352.377,-36.2154 353.968,-29.3985"/>
<text text-anchor="middle" x="384" y="-47.5" font-family="Helvetica,sans-Serif" font-size="10.00"> _iparmq</text>
</g>
</g>
</svg>
