<?xml version="1.0" encoding="UTF-8" standalone="no"?>
<!DOCTYPE svg PUBLIC "-//W3C//DTD SVG 1.1//EN"
 "http://www.w3.org/Graphics/SVG/1.1/DTD/svg11.dtd">
<!-- Generated by graphviz version 2.38.0 (20140413.2041)
 -->
<!-- Title: AForge.Imaging.Filters.OtsuThreshold Pages: 1 -->
<svg width="366pt" height="220pt"
 viewBox="0.00 0.00 365.50 220.00" xmlns="http://www.w3.org/2000/svg" xmlns:xlink="http://www.w3.org/1999/xlink">
<g id="graph0" class="graph" transform="scale(1 1) rotate(0) translate(4 216)">
<title>AForge.Imaging.Filters.OtsuThreshold</title>
<polygon fill="white" stroke="none" points="-4,4 -4,-216 361.5,-216 361.5,4 -4,4"/>
<!-- Node1 -->
<g id="node1" class="node"><title>Node1</title>
<g id="a_node1"><a xlink:title="Otsu thresholding.">
<polygon fill="#bfbfbf" stroke="black" points="101,-0.5 101,-30.5 240,-30.5 240,-0.5 101,-0.5"/>
<text text-anchor="start" x="109" y="-18.5" font-family="Helvetica,sans-Serif" font-size="10.00">AForge.Imaging.Filters.Otsu</text>
<text text-anchor="middle" x="170.5" y="-7.5" font-family="Helvetica,sans-Serif" font-size="10.00">Threshold</text>
</a>
</g>
</g>
<!-- Node2 -->
<g id="node2" class="node"><title>Node2</title>
<g id="a_node2"><a xlink:href="../../db/dc9/classAForge_1_1Imaging_1_1Filters_1_1BaseInPlacePartialFilter.html" target="_top" xlink:title="Base class for filters, which may be applied directly to the source image or its part.">
<polygon fill="white" stroke="black" points="87,-135.5 87,-154.5 208,-154.5 208,-135.5 87,-135.5"/>
<text text-anchor="middle" x="147.5" y="-142.5" font-family="Helvetica,sans-Serif" font-size="10.00">BaseInPlacePartialFilter</text>
</a>
</g>
</g>
<!-- Node2&#45;&gt;Node1 -->
<g id="edge1" class="edge"><title>Node2&#45;&gt;Node1</title>
<path fill="none" stroke="midnightblue" d="M148.747,-125.18C149.808,-111.918 151.627,-93.7822 154.5,-78 157.504,-61.5018 162.581,-42.9141 166.211,-30.5344"/>
<polygon fill="midnightblue" stroke="midnightblue" points="145.239,-125.17 148.002,-135.398 152.22,-125.679 145.239,-125.17"/>
</g>
<!-- Node7 -->
<g id="node7" class="node"><title>Node7</title>
<g id="a_node7"><a xlink:href="../../d4/dff/classAForge_1_1Imaging_1_1Filters_1_1Threshold.html" target="_top" xlink:title="Threshold binarization.">
<polygon fill="white" stroke="black" points="163.5,-78.5 163.5,-97.5 323.5,-97.5 323.5,-78.5 163.5,-78.5"/>
<text text-anchor="middle" x="243.5" y="-85.5" font-family="Helvetica,sans-Serif" font-size="10.00">AForge.Imaging.Filters.Threshold</text>
</a>
</g>
</g>
<!-- Node2&#45;&gt;Node7 -->
<g id="edge7" class="edge"><title>Node2&#45;&gt;Node7</title>
<path fill="none" stroke="midnightblue" d="M171.249,-130.394C189.199,-120.11 213.287,-106.309 228.605,-97.5334"/>
<polygon fill="midnightblue" stroke="midnightblue" points="169.437,-127.398 162.5,-135.406 172.917,-133.472 169.437,-127.398"/>
</g>
<!-- Node3 -->
<g id="node3" class="node"><title>Node3</title>
<g id="a_node3"><a xlink:href="../../dd/d51/interfaceAForge_1_1Imaging_1_1Filters_1_1IFilter.html" target="_top" xlink:title="Image processing filter interface.">
<polygon fill="white" stroke="black" points="0,-192.5 0,-211.5 41,-211.5 41,-192.5 0,-192.5"/>
<text text-anchor="middle" x="20.5" y="-199.5" font-family="Helvetica,sans-Serif" font-size="10.00">IFilter</text>
</a>
</g>
</g>
<!-- Node3&#45;&gt;Node2 -->
<g id="edge2" class="edge"><title>Node3&#45;&gt;Node2</title>
<path fill="none" stroke="midnightblue" d="M49.6557,-188.374C73.6063,-178.001 106.88,-163.591 127.796,-154.533"/>
<polygon fill="midnightblue" stroke="midnightblue" points="48.1293,-185.22 40.3438,-192.406 50.9111,-191.644 48.1293,-185.22"/>
</g>
<!-- Node4 -->
<g id="node4" class="node"><title>Node4</title>
<g id="a_node4"><a xlink:href="../../de/d9b/interfaceAForge_1_1Imaging_1_1Filters_1_1IInPlaceFilter.html" target="_top" xlink:title="In&#45;place filter interface.">
<polygon fill="white" stroke="black" points="59,-192.5 59,-211.5 132,-211.5 132,-192.5 59,-192.5"/>
<text text-anchor="middle" x="95.5" y="-199.5" font-family="Helvetica,sans-Serif" font-size="10.00">IInPlaceFilter</text>
</a>
</g>
</g>
<!-- Node4&#45;&gt;Node2 -->
<g id="edge3" class="edge"><title>Node4&#45;&gt;Node2</title>
<path fill="none" stroke="midnightblue" d="M110.511,-185.123C119.87,-175.224 131.557,-162.862 139.26,-154.715"/>
<polygon fill="midnightblue" stroke="midnightblue" points="107.952,-182.735 103.625,-192.406 113.038,-187.544 107.952,-182.735"/>
</g>
<!-- Node5 -->
<g id="node5" class="node"><title>Node5</title>
<g id="a_node5"><a xlink:href="../../d2/d66/interfaceAForge_1_1Imaging_1_1Filters_1_1IInPlacePartialFilter.html" target="_top" xlink:title="In&#45;place partial filter interface.">
<polygon fill="white" stroke="black" points="150,-192.5 150,-211.5 251,-211.5 251,-192.5 150,-192.5"/>
<text text-anchor="middle" x="200.5" y="-199.5" font-family="Helvetica,sans-Serif" font-size="10.00">IInPlacePartialFilter</text>
</a>
</g>
</g>
<!-- Node5&#45;&gt;Node2 -->
<g id="edge4" class="edge"><title>Node5&#45;&gt;Node2</title>
<path fill="none" stroke="midnightblue" d="M185.2,-185.123C175.661,-175.224 163.749,-162.862 155.898,-154.715"/>
<polygon fill="midnightblue" stroke="midnightblue" points="182.76,-187.634 192.219,-192.406 187.8,-182.777 182.76,-187.634"/>
</g>
<!-- Node6 -->
<g id="node6" class="node"><title>Node6</title>
<g id="a_node6"><a xlink:href="../../d7/dec/interfaceAForge_1_1Imaging_1_1Filters_1_1IFilterInformation.html" target="_top" xlink:title="Interface which provides information about image processing filter.">
<polygon fill="white" stroke="black" points="269.5,-192.5 269.5,-211.5 357.5,-211.5 357.5,-192.5 269.5,-192.5"/>
<text text-anchor="middle" x="313.5" y="-199.5" font-family="Helvetica,sans-Serif" font-size="10.00">IFilterInformation</text>
</a>
</g>
</g>
<!-- Node6&#45;&gt;Node2 -->
<g id="edge5" class="edge"><title>Node6&#45;&gt;Node2</title>
<path fill="none" stroke="midnightblue" d="M277.869,-189.195C246.417,-178.774 201.322,-163.833 173.255,-154.533"/>
<polygon fill="midnightblue" stroke="midnightblue" points="276.969,-192.583 287.563,-192.406 279.171,-185.939 276.969,-192.583"/>
</g>
<!-- Node7&#45;&gt;Node1 -->
<g id="edge6" class="edge"><title>Node7&#45;&gt;Node1</title>
<path fill="none" stroke="#9a32cd" stroke-dasharray="5,2" d="M227.029,-71.0934C214.419,-58.9149 197.188,-42.2742 185.075,-30.5762"/>
<polygon fill="#9a32cd" stroke="#9a32cd" points="224.924,-73.9261 234.549,-78.3553 229.787,-68.8908 224.924,-73.9261"/>
<text text-anchor="middle" x="247" y="-52" font-family="Helvetica,sans-Serif" font-size="10.00"> thresholdFilter</text>
</g>
</g>
</svg>
