<?xml version="1.0" encoding="UTF-8" standalone="no"?>
<!DOCTYPE svg PUBLIC "-//W3C//DTD SVG 1.1//EN"
 "http://www.w3.org/Graphics/SVG/1.1/DTD/svg11.dtd">
<!-- Generated by graphviz version 2.38.0 (20140413.2041)
 -->
<!-- Title: NUnit.Framework.Internal.Commands.ApplyChangesToContextCommand Pages: 1 -->
<svg width="184pt" height="162pt"
 viewBox="0.00 0.00 184.00 162.00" xmlns="http://www.w3.org/2000/svg" xmlns:xlink="http://www.w3.org/1999/xlink">
<g id="graph0" class="graph" transform="scale(1 1) rotate(0) translate(4 158)">
<title>NUnit.Framework.Internal.Commands.ApplyChangesToContextCommand</title>
<polygon fill="white" stroke="none" points="-4,4 -4,-158 180,-158 180,4 -4,4"/>
<!-- Node1 -->
<g id="node1" class="node"><title>Node1</title>
<g id="a_node1"><a xlink:title="ContextSettingsCommand applies specified changes to the TestExecutionContext prior to running a test....">
<polygon fill="#bfbfbf" stroke="black" points="0,-0.5 0,-41.5 176,-41.5 176,-0.5 0,-0.5"/>
<text text-anchor="start" x="8" y="-29.5" font-family="Helvetica,sans-Serif" font-size="10.00">NUnit.Framework.Internal.</text>
<text text-anchor="start" x="8" y="-18.5" font-family="Helvetica,sans-Serif" font-size="10.00">Commands.ApplyChangesToContext</text>
<text text-anchor="middle" x="88" y="-7.5" font-family="Helvetica,sans-Serif" font-size="10.00">Command</text>
</a>
</g>
</g>
<!-- Node2 -->
<g id="node2" class="node"><title>Node2</title>
<g id="a_node2"><a xlink:href="../../d7/dcf/classNUnit_1_1Framework_1_1Internal_1_1Commands_1_1DelegatingTestCommand.html" target="_top" xlink:title="TODO: Documentation needed for class">
<polygon fill="white" stroke="black" points="25.5,-78.5 25.5,-97.5 150.5,-97.5 150.5,-78.5 25.5,-78.5"/>
<text text-anchor="middle" x="88" y="-85.5" font-family="Helvetica,sans-Serif" font-size="10.00">DelegatingTestCommand</text>
</a>
</g>
</g>
<!-- Node2&#45;&gt;Node1 -->
<g id="edge1" class="edge"><title>Node2&#45;&gt;Node1</title>
<path fill="none" stroke="midnightblue" d="M88,-68.037C88,-59.7084 88,-49.9358 88,-41.5421"/>
<polygon fill="midnightblue" stroke="midnightblue" points="84.5001,-68.2338 88,-78.2338 91.5001,-68.2338 84.5001,-68.2338"/>
</g>
<!-- Node3 -->
<g id="node3" class="node"><title>Node3</title>
<g id="a_node3"><a xlink:href="../../d9/d0b/classNUnit_1_1Framework_1_1Internal_1_1Commands_1_1TestCommand.html" target="_top" xlink:title="TestCommand is the abstract base class for all test commands in the framework. A TestCommand represen...">
<polygon fill="white" stroke="black" points="48,-134.5 48,-153.5 128,-153.5 128,-134.5 48,-134.5"/>
<text text-anchor="middle" x="88" y="-141.5" font-family="Helvetica,sans-Serif" font-size="10.00">TestCommand</text>
</a>
</g>
</g>
<!-- Node3&#45;&gt;Node2 -->
<g id="edge2" class="edge"><title>Node3&#45;&gt;Node2</title>
<path fill="none" stroke="midnightblue" d="M88,-123.805C88,-114.91 88,-104.78 88,-97.7511"/>
<polygon fill="midnightblue" stroke="midnightblue" points="84.5001,-124.083 88,-134.083 91.5001,-124.083 84.5001,-124.083"/>
</g>
</g>
</svg>
