<?xml version="1.0" encoding="UTF-8" standalone="no"?>
<!DOCTYPE svg PUBLIC "-//W3C//DTD SVG 1.1//EN"
 "http://www.w3.org/Graphics/SVG/1.1/DTD/svg11.dtd">
<!-- Generated by graphviz version 2.38.0 (20140413.2041)
 -->
<!-- Title: NUnit.Framework.TestFixtureSourceAttribute Pages: 1 -->
<svg width="667pt" height="135pt"
 viewBox="0.00 0.00 667.00 135.00" xmlns="http://www.w3.org/2000/svg" xmlns:xlink="http://www.w3.org/1999/xlink">
<g id="graph0" class="graph" transform="scale(1 1) rotate(0) translate(4 131)">
<title>NUnit.Framework.TestFixtureSourceAttribute</title>
<polygon fill="white" stroke="none" points="-4,4 -4,-131 663,-131 663,4 -4,4"/>
<!-- Node1 -->
<g id="node1" class="node"><title>Node1</title>
<g id="a_node1"><a xlink:title="TestCaseSourceAttribute indicates the source to be used to provide test fixture instances for a test ...">
<polygon fill="#bfbfbf" stroke="black" points="516,-64 516,-94 659,-94 659,-64 516,-64"/>
<text text-anchor="start" x="524" y="-82" font-family="Helvetica,sans-Serif" font-size="10.00">NUnit.Framework.TestFixture</text>
<text text-anchor="middle" x="587.5" y="-71" font-family="Helvetica,sans-Serif" font-size="10.00">SourceAttribute</text>
</a>
</g>
</g>
<!-- Node2 -->
<g id="node2" class="node"><title>Node2</title>
<g id="a_node2"><a xlink:href="../../d3/dee/classNUnit_1_1Framework_1_1NUnitAttribute.html" target="_top" xlink:title="The abstract base class for all custom attributes defined by NUnit.">
<polygon fill="white" stroke="black" points="325.5,-107.5 325.5,-126.5 402.5,-126.5 402.5,-107.5 325.5,-107.5"/>
<text text-anchor="middle" x="364" y="-114.5" font-family="Helvetica,sans-Serif" font-size="10.00">NUnitAttribute</text>
</a>
</g>
</g>
<!-- Node2&#45;&gt;Node1 -->
<g id="edge1" class="edge"><title>Node2&#45;&gt;Node1</title>
<path fill="none" stroke="midnightblue" d="M412.814,-108.797C442.927,-103.631 482.332,-96.8709 515.995,-91.0957"/>
<polygon fill="midnightblue" stroke="midnightblue" points="411.839,-105.413 402.574,-110.554 413.022,-112.312 411.839,-105.413"/>
</g>
<!-- Node3 -->
<g id="node3" class="node"><title>Node3</title>
<g id="a_node3"><a xlink:title=" ">
<polygon fill="white" stroke="#bfbfbf" points="43.5,-107.5 43.5,-126.5 96.5,-126.5 96.5,-107.5 43.5,-107.5"/>
<text text-anchor="middle" x="70" y="-114.5" font-family="Helvetica,sans-Serif" font-size="10.00">Attribute</text>
</a>
</g>
</g>
<!-- Node3&#45;&gt;Node2 -->
<g id="edge2" class="edge"><title>Node3&#45;&gt;Node2</title>
<path fill="none" stroke="midnightblue" d="M106.724,-117C162.207,-117 268.593,-117 325.274,-117"/>
<polygon fill="midnightblue" stroke="midnightblue" points="106.657,-113.5 96.6571,-117 106.657,-120.5 106.657,-113.5"/>
</g>
<!-- Node4 -->
<g id="node4" class="node"><title>Node4</title>
<g id="a_node4"><a xlink:href="../../d8/daf/interfaceNUnit_1_1Framework_1_1Interfaces_1_1IFixtureBuilder.html" target="_top" xlink:title="The IFixtureBuilder interface is exposed by a class that knows how to build a TestFixture from one or...">
<polygon fill="white" stroke="black" points="324.5,-69.5 324.5,-88.5 403.5,-88.5 403.5,-69.5 324.5,-69.5"/>
<text text-anchor="middle" x="364" y="-76.5" font-family="Helvetica,sans-Serif" font-size="10.00">IFixtureBuilder</text>
</a>
</g>
</g>
<!-- Node4&#45;&gt;Node1 -->
<g id="edge3" class="edge"><title>Node4&#45;&gt;Node1</title>
<path fill="none" stroke="midnightblue" d="M413.766,-79C443.672,-79 482.472,-79 515.721,-79"/>
<polygon fill="midnightblue" stroke="midnightblue" points="413.582,-75.5001 403.582,-79 413.582,-82.5001 413.582,-75.5001"/>
</g>
<!-- Node5 -->
<g id="node5" class="node"><title>Node5</title>
<g id="a_node5"><a xlink:href="../../d0/dbc/classNUnit_1_1Framework_1_1Internal_1_1Builders_1_1NUnitTestFixtureBuilder.html" target="_top" xlink:title="NUnitTestFixtureBuilder is able to build a fixture given a class marked with a TestFixtureAttribute o...">
<polygon fill="white" stroke="black" points="285,-20 285,-50 443,-50 443,-20 285,-20"/>
<text text-anchor="start" x="293" y="-38" font-family="Helvetica,sans-Serif" font-size="10.00">NUnit.Framework.Internal.</text>
<text text-anchor="middle" x="364" y="-27" font-family="Helvetica,sans-Serif" font-size="10.00">Builders.NUnitTestFixtureBuilder</text>
</a>
</g>
</g>
<!-- Node5&#45;&gt;Node1 -->
<g id="edge4" class="edge"><title>Node5&#45;&gt;Node1</title>
<path fill="none" stroke="#9a32cd" stroke-dasharray="5,2" d="M450.708,-52.0255C472.205,-56.2958 495.03,-60.83 515.709,-64.9378"/>
<polygon fill="#9a32cd" stroke="#9a32cd" points="451.099,-48.5348 440.608,-50.0192 449.735,-55.4006 451.099,-48.5348"/>
<text text-anchor="middle" x="479.5" y="-64" font-family="Helvetica,sans-Serif" font-size="10.00"> _builder</text>
</g>
<!-- Node6 -->
<g id="node6" class="node"><title>Node6</title>
<g id="a_node6"><a xlink:href="../../d2/dbb/interfaceNUnit_1_1Framework_1_1Interfaces_1_1ITestCaseBuilder.html" target="_top" xlink:title="The ITestCaseBuilder interface is exposed by a class that knows how to build a test case from certain...">
<polygon fill="white" stroke="black" points="0,-39 0,-69 140,-69 140,-39 0,-39"/>
<text text-anchor="start" x="8" y="-57" font-family="Helvetica,sans-Serif" font-size="10.00">NUnit.Framework.Interfaces.</text>
<text text-anchor="middle" x="70" y="-46" font-family="Helvetica,sans-Serif" font-size="10.00">ITestCaseBuilder</text>
</a>
</g>
</g>
<!-- Node6&#45;&gt;Node5 -->
<g id="edge5" class="edge"><title>Node6&#45;&gt;Node5</title>
<path fill="none" stroke="#9a32cd" stroke-dasharray="5,2" d="M150.334,-48.8379C192.109,-46.1196 243.158,-42.7979 284.769,-40.0904"/>
<polygon fill="#9a32cd" stroke="#9a32cd" points="149.952,-45.3552 140.2,-49.4973 150.406,-52.3405 149.952,-45.3552"/>
<text text-anchor="middle" x="212.5" y="-51" font-family="Helvetica,sans-Serif" font-size="10.00"> _testBuilder</text>
</g>
<!-- Node7 -->
<g id="node7" class="node"><title>Node7</title>
<g id="a_node7"><a xlink:title=" ">
<polygon fill="white" stroke="#bfbfbf" points="49.5,-0.5 49.5,-19.5 90.5,-19.5 90.5,-0.5 49.5,-0.5"/>
<text text-anchor="middle" x="70" y="-7.5" font-family="Helvetica,sans-Serif" font-size="10.00">static</text>
</a>
</g>
</g>
<!-- Node7&#45;&gt;Node5 -->
<g id="edge6" class="edge"><title>Node7&#45;&gt;Node5</title>
<path fill="none" stroke="#9a32cd" stroke-dasharray="5,2" d="M100.655,-12.539C143.505,-16.2076 224.24,-23.1198 284.879,-28.3116"/>
<polygon fill="#9a32cd" stroke="#9a32cd" points="100.875,-9.04503 90.6124,-11.6791 100.277,-16.0195 100.875,-9.04503"/>
<text text-anchor="middle" x="212.5" y="-30" font-family="Helvetica,sans-Serif" font-size="10.00"> NO_TYPE_ARGS_MSG</text>
</g>
</g>
</svg>
