<?xml version="1.0" encoding="UTF-8" standalone="no"?>
<!DOCTYPE svg PUBLIC "-//W3C//DTD SVG 1.1//EN"
 "http://www.w3.org/Graphics/SVG/1.1/DTD/svg11.dtd">
<!-- Generated by graphviz version 2.38.0 (20140413.2041)
 -->
<!-- Title: AForge.Neuro.Learning.IUnsupervisedLearning Pages: 1 -->
<svg width="354pt" height="106pt"
 viewBox="0.00 0.00 354.00 106.00" xmlns="http://www.w3.org/2000/svg" xmlns:xlink="http://www.w3.org/1999/xlink">
<g id="graph0" class="graph" transform="scale(1 1) rotate(0) translate(4 102)">
<title>AForge.Neuro.Learning.IUnsupervisedLearning</title>
<polygon fill="white" stroke="none" points="-4,4 -4,-102 350,-102 350,4 -4,4"/>
<!-- Node1 -->
<g id="node1" class="node"><title>Node1</title>
<g id="a_node1"><a xlink:title="Unsupervised learning interface">
<polygon fill="#bfbfbf" stroke="black" points="76,-67.5 76,-97.5 255,-97.5 255,-67.5 76,-67.5"/>
<text text-anchor="start" x="84" y="-85.5" font-family="Helvetica,sans-Serif" font-size="10.00">AForge.Neuro.Learning.IUnsupervised</text>
<text text-anchor="middle" x="165.5" y="-74.5" font-family="Helvetica,sans-Serif" font-size="10.00">Learning</text>
</a>
</g>
</g>
<!-- Node2 -->
<g id="node2" class="node"><title>Node2</title>
<g id="a_node2"><a xlink:href="../../d8/de3/classAForge_1_1Neuro_1_1Learning_1_1ElasticNetworkLearning.html" target="_top" xlink:title="Elastic network learning algorithm">
<polygon fill="white" stroke="black" points="0,-0.5 0,-30.5 149,-30.5 149,-0.5 0,-0.5"/>
<text text-anchor="start" x="8" y="-18.5" font-family="Helvetica,sans-Serif" font-size="10.00">AForge.Neuro.Learning.Elastic</text>
<text text-anchor="middle" x="74.5" y="-7.5" font-family="Helvetica,sans-Serif" font-size="10.00">NetworkLearning</text>
</a>
</g>
</g>
<!-- Node1&#45;&gt;Node2 -->
<g id="edge1" class="edge"><title>Node1&#45;&gt;Node2</title>
<path fill="none" stroke="midnightblue" d="M137.432,-61.4511C123.432,-51.4517 106.839,-39.5995 94.2071,-30.5765"/>
<polygon fill="midnightblue" stroke="midnightblue" points="135.583,-64.4316 145.754,-67.396 139.651,-58.7355 135.583,-64.4316"/>
</g>
<!-- Node3 -->
<g id="node3" class="node"><title>Node3</title>
<g id="a_node3"><a xlink:href="../../db/d8a/classAForge_1_1Neuro_1_1Learning_1_1SOMLearning.html" target="_top" xlink:title="Kohonen Self Organizing Map (SOM) learning algorithm">
<polygon fill="white" stroke="black" points="167,-6 167,-25 346,-25 346,-6 167,-6"/>
<text text-anchor="middle" x="256.5" y="-13" font-family="Helvetica,sans-Serif" font-size="10.00">AForge.Neuro.Learning.SOMLearning</text>
</a>
</g>
</g>
<!-- Node1&#45;&gt;Node3 -->
<g id="edge2" class="edge"><title>Node1&#45;&gt;Node3</title>
<path fill="none" stroke="midnightblue" d="M193.772,-61.3056C210.86,-49.0999 231.752,-34.1772 244.59,-25.007"/>
<polygon fill="midnightblue" stroke="midnightblue" points="191.349,-58.7355 185.246,-67.396 195.417,-64.4316 191.349,-58.7355"/>
</g>
</g>
</svg>
