<?xml version="1.0" encoding="UTF-8" standalone="no"?>
<!DOCTYPE svg PUBLIC "-//W3C//DTD SVG 1.1//EN"
 "http://www.w3.org/Graphics/SVG/1.1/DTD/svg11.dtd">
<!-- Generated by graphviz version 2.38.0 (20140413.2041)
 -->
<!-- Title: AForge.Imaging.ComplexImage Pages: 1 -->
<svg width="233pt" height="184pt"
 viewBox="0.00 0.00 232.50 184.00" xmlns="http://www.w3.org/2000/svg" xmlns:xlink="http://www.w3.org/1999/xlink">
<g id="graph0" class="graph" transform="scale(1 1) rotate(0) translate(4 180)">
<title>AForge.Imaging.ComplexImage</title>
<polygon fill="white" stroke="none" points="-4,4 -4,-180 228.5,-180 228.5,4 -4,4"/>
<!-- Node1 -->
<g id="node1" class="node"><title>Node1</title>
<g id="a_node1"><a xlink:title="Complex image.">
<polygon fill="#bfbfbf" stroke="black" points="0,-0.5 0,-19.5 152,-19.5 152,-0.5 0,-0.5"/>
<text text-anchor="middle" x="76" y="-7.5" font-family="Helvetica,sans-Serif" font-size="10.00">AForge.Imaging.ComplexImage</text>
</a>
</g>
</g>
<!-- Node2 -->
<g id="node2" class="node"><title>Node2</title>
<g id="a_node2"><a xlink:title=" ">
<polygon fill="white" stroke="#bfbfbf" points="16,-156.5 16,-175.5 78,-175.5 78,-156.5 16,-156.5"/>
<text text-anchor="middle" x="47" y="-163.5" font-family="Helvetica,sans-Serif" font-size="10.00">ICloneable</text>
</a>
</g>
</g>
<!-- Node2&#45;&gt;Node1 -->
<g id="edge1" class="edge"><title>Node2&#45;&gt;Node1</title>
<path fill="none" stroke="midnightblue" d="M50.4988,-146.42C56.7971,-112.974 69.812,-43.8604 74.3758,-19.6253"/>
<polygon fill="midnightblue" stroke="midnightblue" points="47.0534,-145.804 48.6423,-156.279 53.9325,-147.1 47.0534,-145.804"/>
</g>
<!-- Node3 -->
<g id="node3" class="node"><title>Node3</title>
<g id="a_node3"><a xlink:href="../../dc/de5/structAForge_1_1Math_1_1Complex.html" target="_top" xlink:title="Complex number wrapper class.">
<polygon fill="white" stroke="black" points="75,-67.5 75,-86.5 189,-86.5 189,-67.5 75,-67.5"/>
<text text-anchor="middle" x="132" y="-74.5" font-family="Helvetica,sans-Serif" font-size="10.00">AForge.Math.Complex</text>
</a>
</g>
</g>
<!-- Node2&#45;&gt;Node3 -->
<g id="edge3" class="edge"><title>Node2&#45;&gt;Node3</title>
<path fill="none" stroke="midnightblue" d="M62.8815,-148.745C80.8574,-130.346 109.468,-101.062 123.573,-86.6249"/>
<polygon fill="midnightblue" stroke="midnightblue" points="59.9458,-146.741 55.4609,-156.34 64.9528,-151.633 59.9458,-146.741"/>
</g>
<!-- Node3&#45;&gt;Node1 -->
<g id="edge2" class="edge"><title>Node3&#45;&gt;Node1</title>
<path fill="none" stroke="#9a32cd" stroke-dasharray="5,2" d="M117.901,-59.6348C106.949,-46.9228 92.195,-29.7978 83.4328,-19.6273"/>
<polygon fill="#9a32cd" stroke="#9a32cd" points="115.269,-61.9422 124.448,-67.2338 120.572,-57.3732 115.269,-61.9422"/>
<text text-anchor="middle" x="119" y="-41" font-family="Helvetica,sans-Serif" font-size="10.00"> data</text>
</g>
<!-- Node4 -->
<g id="node4" class="node"><title>Node4</title>
<g id="a_node4"><a xlink:title=" ">
<polygon fill="white" stroke="#bfbfbf" points="96.5,-156.5 96.5,-175.5 165.5,-175.5 165.5,-156.5 96.5,-156.5"/>
<text text-anchor="middle" x="131" y="-163.5" font-family="Helvetica,sans-Serif" font-size="10.00">ISerializable</text>
</a>
</g>
</g>
<!-- Node4&#45;&gt;Node3 -->
<g id="edge4" class="edge"><title>Node4&#45;&gt;Node3</title>
<path fill="none" stroke="midnightblue" d="M131.216,-146.195C131.428,-127.738 131.742,-100.412 131.901,-86.6249"/>
<polygon fill="midnightblue" stroke="midnightblue" points="127.715,-146.3 131.1,-156.34 134.714,-146.381 127.715,-146.3"/>
</g>
<!-- Node5 -->
<g id="node5" class="node"><title>Node5</title>
<g id="a_node5"><a xlink:title=" ">
<polygon fill="white" stroke="#bfbfbf" points="183.5,-156.5 183.5,-175.5 224.5,-175.5 224.5,-156.5 183.5,-156.5"/>
<text text-anchor="middle" x="204" y="-163.5" font-family="Helvetica,sans-Serif" font-size="10.00">static</text>
</a>
</g>
</g>
<!-- Node5&#45;&gt;Node3 -->
<g id="edge5" class="edge"><title>Node5&#45;&gt;Node3</title>
<path fill="none" stroke="#9a32cd" stroke-dasharray="5,2" d="M190.134,-148.245C174.885,-129.819 150.978,-100.932 139.138,-86.6249"/>
<polygon fill="#9a32cd" stroke="#9a32cd" points="187.761,-150.868 196.833,-156.34 193.154,-146.405 187.761,-150.868"/>
<text text-anchor="middle" x="192" y="-130" font-family="Helvetica,sans-Serif" font-size="10.00"> One</text>
<text text-anchor="middle" x="192" y="-119" font-family="Helvetica,sans-Serif" font-size="10.00">I</text>
<text text-anchor="middle" x="192" y="-108" font-family="Helvetica,sans-Serif" font-size="10.00">Zero</text>
</g>
</g>
</svg>
