<?xml version="1.0" encoding="UTF-8" standalone="no"?>
<!DOCTYPE svg PUBLIC "-//W3C//DTD SVG 1.1//EN"
 "http://www.w3.org/Graphics/SVG/1.1/DTD/svg11.dtd">
<!-- Generated by graphviz version 2.38.0 (20140413.2041)
 -->
<!-- Title: IG.Script.ScriptExtGraphics3d Pages: 1 -->
<svg width="209pt" height="196pt"
 viewBox="0.00 0.00 209.00 196.00" xmlns="http://www.w3.org/2000/svg" xmlns:xlink="http://www.w3.org/1999/xlink">
<g id="graph0" class="graph" transform="scale(1 1) rotate(0) translate(4 192)">
<title>IG.Script.ScriptExtGraphics3d</title>
<polygon fill="white" stroke="none" points="-4,4 -4,-192 205,-192 205,4 -4,4"/>
<!-- Node1 -->
<g id="node1" class="node"><title>Node1</title>
<g id="a_node1"><a xlink:title="Script class with graphics examples.">
<polygon fill="#bfbfbf" stroke="black" points="0,-0.5 0,-19.5 148,-19.5 148,-0.5 0,-0.5"/>
<text text-anchor="middle" x="74" y="-7.5" font-family="Helvetica,sans-Serif" font-size="10.00">IG.Script.ScriptExtGraphics3d</text>
</a>
</g>
</g>
<!-- Node2 -->
<g id="node2" class="node"><title>Node2</title>
<g id="a_node2"><a xlink:href="../../d2/d7e/classIG_1_1Script_1_1ScriptGraphics3DBase.html" target="_top" xlink:title="Base class for script classes with graphics examples.">
<polygon fill="white" stroke="black" points="59,-56.5 59,-75.5 175,-75.5 175,-56.5 59,-56.5"/>
<text text-anchor="middle" x="117" y="-63.5" font-family="Helvetica,sans-Serif" font-size="10.00">ScriptGraphics3DBase</text>
</a>
</g>
</g>
<!-- Node2&#45;&gt;Node1 -->
<g id="edge1" class="edge"><title>Node2&#45;&gt;Node1</title>
<path fill="none" stroke="midnightblue" d="M103.578,-48.144C96.0858,-38.7357 87.0629,-27.4046 80.9685,-19.7511"/>
<polygon fill="midnightblue" stroke="midnightblue" points="100.932,-50.4404 109.899,-56.083 106.408,-46.0799 100.932,-50.4404"/>
</g>
<!-- Node3 -->
<g id="node3" class="node"><title>Node3</title>
<g id="a_node3"><a xlink:href="../../d7/d15/classIG_1_1Lib_1_1LoadableScriptBase.html" target="_top" xlink:title="Base class for classes that can be dynamically loadeded from scripts and run, which provides function...">
<polygon fill="white" stroke="black" points="97,-112.5 97,-131.5 201,-131.5 201,-112.5 97,-112.5"/>
<text text-anchor="middle" x="149" y="-119.5" font-family="Helvetica,sans-Serif" font-size="10.00">LoadableScriptBase</text>
</a>
</g>
</g>
<!-- Node3&#45;&gt;Node2 -->
<g id="edge2" class="edge"><title>Node3&#45;&gt;Node2</title>
<path fill="none" stroke="midnightblue" d="M138.496,-103.275C133.027,-94.0454 126.582,-83.1703 122.186,-75.7511"/>
<polygon fill="midnightblue" stroke="midnightblue" points="135.607,-105.264 143.716,-112.083 141.629,-101.696 135.607,-105.264"/>
</g>
<!-- Node4 -->
<g id="node4" class="node"><title>Node4</title>
<g id="a_node4"><a xlink:href="../../d7/d66/interfaceIG_1_1Lib_1_1ILoadableScript.html" target="_top" xlink:title="Interface for classes that can be dynamically loadeded from scripts and run, which provides functiona...">
<polygon fill="white" stroke="black" points="22.5,-168.5 22.5,-187.5 105.5,-187.5 105.5,-168.5 22.5,-168.5"/>
<text text-anchor="middle" x="64" y="-175.5" font-family="Helvetica,sans-Serif" font-size="10.00">ILoadableScript</text>
</a>
</g>
</g>
<!-- Node4&#45;&gt;Node1 -->
<g id="edge6" class="edge"><title>Node4&#45;&gt;Node1</title>
<path fill="none" stroke="midnightblue" d="M57.8051,-158.498C50.6972,-134.53 41.1003,-91.5987 50,-56 53.393,-42.4281 61.7398,-28.4676 67.6332,-19.768"/>
<polygon fill="midnightblue" stroke="midnightblue" points="54.5674,-159.869 60.9115,-168.355 61.2437,-157.765 54.5674,-159.869"/>
</g>
<!-- Node4&#45;&gt;Node2 -->
<g id="edge5" class="edge"><title>Node4&#45;&gt;Node2</title>
<path fill="none" stroke="midnightblue" d="M69.6257,-158.515C73.9467,-145.256 80.4434,-127.135 88,-112 94.6429,-98.6954 104.31,-84.4434 110.627,-75.6254"/>
<polygon fill="midnightblue" stroke="midnightblue" points="66.198,-157.748 66.5323,-168.337 72.8747,-159.851 66.198,-157.748"/>
</g>
<!-- Node4&#45;&gt;Node3 -->
<g id="edge3" class="edge"><title>Node4&#45;&gt;Node3</title>
<path fill="none" stroke="midnightblue" d="M86.1936,-162.901C101.78,-152.999 122.13,-140.071 135.377,-131.655"/>
<polygon fill="midnightblue" stroke="midnightblue" points="84.2206,-160.007 77.6567,-168.324 87.9743,-165.916 84.2206,-160.007"/>
</g>
<!-- Node5 -->
<g id="node5" class="node"><title>Node5</title>
<g id="a_node5"><a xlink:href="../../d3/db6/interfaceIG_1_1Lib_1_1ILockable.html" target="_top" xlink:title="Lockable object, has a Lock property that returns object on which lock must be performed in order to ...">
<polygon fill="white" stroke="black" points="124,-168.5 124,-187.5 182,-187.5 182,-168.5 124,-168.5"/>
<text text-anchor="middle" x="153" y="-175.5" font-family="Helvetica,sans-Serif" font-size="10.00">ILockable</text>
</a>
</g>
</g>
<!-- Node5&#45;&gt;Node3 -->
<g id="edge4" class="edge"><title>Node5&#45;&gt;Node3</title>
<path fill="none" stroke="midnightblue" d="M151.6,-158.101C150.936,-149.136 150.175,-138.858 149.648,-131.751"/>
<polygon fill="midnightblue" stroke="midnightblue" points="148.11,-158.369 152.339,-168.083 155.091,-157.852 148.11,-158.369"/>
</g>
</g>
</svg>
