<?xml version="1.0" encoding="UTF-8" standalone="no"?>
<!DOCTYPE svg PUBLIC "-//W3C//DTD SVG 1.1//EN"
 "http://www.w3.org/Graphics/SVG/1.1/DTD/svg11.dtd">
<!-- Generated by graphviz version 2.38.0 (20140413.2041)
 -->
<!-- Title: CShell.Modules.Repl.Views.OutputView Pages: 1 -->
<svg width="164pt" height="95pt"
 viewBox="0.00 0.00 163.50 95.00" xmlns="http://www.w3.org/2000/svg" xmlns:xlink="http://www.w3.org/1999/xlink">
<g id="graph0" class="graph" transform="scale(1 1) rotate(0) translate(4 91)">
<title>CShell.Modules.Repl.Views.OutputView</title>
<polygon fill="white" stroke="none" points="-4,4 -4,-91 159.5,-91 159.5,4 -4,4"/>
<!-- Node1 -->
<g id="node1" class="node"><title>Node1</title>
<g id="a_node1"><a xlink:title="Interaction logic for OutputView.xaml">
<polygon fill="#bfbfbf" stroke="black" points="7,-0.5 7,-30.5 147,-30.5 147,-0.5 7,-0.5"/>
<text text-anchor="start" x="15" y="-18.5" font-family="Helvetica,sans-Serif" font-size="10.00">CShell.Modules.Repl.Views.</text>
<text text-anchor="middle" x="77" y="-7.5" font-family="Helvetica,sans-Serif" font-size="10.00">OutputView</text>
</a>
</g>
</g>
<!-- Node2 -->
<g id="node2" class="node"><title>Node2</title>
<g id="a_node2"><a xlink:title=" ">
<polygon fill="white" stroke="#bfbfbf" points="0,-67.5 0,-86.5 68,-86.5 68,-67.5 0,-67.5"/>
<text text-anchor="middle" x="34" y="-74.5" font-family="Helvetica,sans-Serif" font-size="10.00">UserControl</text>
</a>
</g>
</g>
<!-- Node2&#45;&gt;Node1 -->
<g id="edge1" class="edge"><title>Node2&#45;&gt;Node1</title>
<path fill="none" stroke="midnightblue" d="M46.1071,-59.2472C52.6551,-50.1866 60.6499,-39.124 66.8658,-30.523"/>
<polygon fill="midnightblue" stroke="midnightblue" points="43.1815,-57.32 40.1609,-67.4751 48.855,-61.4202 43.1815,-57.32"/>
</g>
<!-- Node3 -->
<g id="node3" class="node"><title>Node3</title>
<g id="a_node3"><a xlink:href="../../d9/d3e/interfaceCShell_1_1Modules_1_1Repl_1_1Views_1_1IOutputView.html" target="_top" xlink:title=" ">
<polygon fill="white" stroke="black" points="86.5,-67.5 86.5,-86.5 155.5,-86.5 155.5,-67.5 86.5,-67.5"/>
<text text-anchor="middle" x="121" y="-74.5" font-family="Helvetica,sans-Serif" font-size="10.00">IOutputView</text>
</a>
</g>
</g>
<!-- Node3&#45;&gt;Node1 -->
<g id="edge2" class="edge"><title>Node3&#45;&gt;Node1</title>
<path fill="none" stroke="midnightblue" d="M108.611,-59.2472C101.911,-50.1866 93.7304,-39.124 87.3699,-30.523"/>
<polygon fill="midnightblue" stroke="midnightblue" points="105.936,-61.5158 114.696,-67.4751 111.564,-57.3537 105.936,-61.5158"/>
</g>
</g>
</svg>
