<?xml version="1.0" encoding="UTF-8" standalone="no"?>
<!DOCTYPE svg PUBLIC "-//W3C//DTD SVG 1.1//EN"
 "http://www.w3.org/Graphics/SVG/1.1/DTD/svg11.dtd">
<!-- Generated by graphviz version 2.38.0 (20140413.2041)
 -->
<!-- Title: NUnit.Framework.Syntax.NoneTest Pages: 1 -->
<svg width="178pt" height="185pt"
 viewBox="0.00 0.00 178.00 185.00" xmlns="http://www.w3.org/2000/svg" xmlns:xlink="http://www.w3.org/1999/xlink">
<g id="graph0" class="graph" transform="scale(1 1) rotate(0) translate(4 181)">
<title>NUnit.Framework.Syntax.NoneTest</title>
<polygon fill="white" stroke="none" points="-4,4 -4,-181 174,-181 174,4 -4,4"/>
<!-- Node1 -->
<g id="node1" class="node"><title>Node1</title>
<g id="a_node1"><a xlink:title=" ">
<polygon fill="#bfbfbf" stroke="black" points="0,-0.5 0,-19.5 170,-19.5 170,-0.5 0,-0.5"/>
<text text-anchor="middle" x="85" y="-7.5" font-family="Helvetica,sans-Serif" font-size="10.00">NUnit.Framework.Syntax.NoneTest</text>
</a>
</g>
</g>
<!-- Node2 -->
<g id="node2" class="node"><title>Node2</title>
<g id="a_node2"><a xlink:href="../../dc/dba/classNUnit_1_1Framework_1_1Syntax_1_1SyntaxTest.html" target="_top" xlink:title=" ">
<polygon fill="white" stroke="black" points="52,-57.5 52,-76.5 118,-76.5 118,-57.5 52,-57.5"/>
<text text-anchor="middle" x="85" y="-64.5" font-family="Helvetica,sans-Serif" font-size="10.00">SyntaxTest</text>
</a>
</g>
</g>
<!-- Node2&#45;&gt;Node1 -->
<g id="edge1" class="edge"><title>Node2&#45;&gt;Node1</title>
<path fill="none" stroke="midnightblue" d="M85,-47.1166C85,-37.8173 85,-27.0557 85,-19.7149"/>
<polygon fill="midnightblue" stroke="midnightblue" points="81.5001,-47.4062 85,-57.4063 88.5001,-47.4063 81.5001,-47.4062"/>
</g>
<!-- Node3 -->
<g id="node3" class="node"><title>Node3</title>
<g id="a_node3"><a xlink:href="../../d7/d29/interfaceNUnit_1_1Framework_1_1Constraints_1_1IResolveConstraint.html" target="_top" xlink:title="The IResolveConstraint interface is implemented by all complete and resolvable constraints and expres...">
<polygon fill="white" stroke="black" points="11.5,-146.5 11.5,-176.5 158.5,-176.5 158.5,-146.5 11.5,-146.5"/>
<text text-anchor="start" x="19.5" y="-164.5" font-family="Helvetica,sans-Serif" font-size="10.00">NUnit.Framework.Constraints.</text>
<text text-anchor="middle" x="85" y="-153.5" font-family="Helvetica,sans-Serif" font-size="10.00">IResolveConstraint</text>
</a>
</g>
</g>
<!-- Node3&#45;&gt;Node2 -->
<g id="edge2" class="edge"><title>Node3&#45;&gt;Node2</title>
<path fill="none" stroke="#9a32cd" stroke-dasharray="5,2" d="M85,-136.382C85,-116.736 85,-90.1188 85,-76.6191"/>
<polygon fill="#9a32cd" stroke="#9a32cd" points="81.5001,-136.451 85,-146.451 88.5001,-136.451 81.5001,-136.451"/>
<text text-anchor="middle" x="119" y="-120" font-family="Helvetica,sans-Serif" font-size="10.00"> builderSyntax</text>
<text text-anchor="middle" x="119" y="-109" font-family="Helvetica,sans-Serif" font-size="10.00">inheritedSyntax</text>
<text text-anchor="middle" x="119" y="-98" font-family="Helvetica,sans-Serif" font-size="10.00">staticSyntax</text>
</g>
</g>
</svg>
