<?xml version="1.0" encoding="UTF-8" standalone="no"?>
<!DOCTYPE svg PUBLIC "-//W3C//DTD SVG 1.1//EN"
 "http://www.w3.org/Graphics/SVG/1.1/DTD/svg11.dtd">
<!-- Generated by graphviz version 2.38.0 (20140413.2041)
 -->
<!-- Title: CShell.Modules.Sink.ViewModels.GridSinkViewModel Pages: 1 -->
<svg width="179pt" height="263pt"
 viewBox="0.00 0.00 178.50 263.00" xmlns="http://www.w3.org/2000/svg" xmlns:xlink="http://www.w3.org/1999/xlink">
<g id="graph0" class="graph" transform="scale(1 1) rotate(0) translate(4 259)">
<title>CShell.Modules.Sink.ViewModels.GridSinkViewModel</title>
<polygon fill="white" stroke="none" points="-4,4 -4,-259 174.5,-259 174.5,4 -4,4"/>
<!-- Node1 -->
<g id="node1" class="node"><title>Node1</title>
<g id="a_node1"><a xlink:title=" ">
<polygon fill="#bfbfbf" stroke="black" points="34.5,-0.5 34.5,-30.5 170.5,-30.5 170.5,-0.5 34.5,-0.5"/>
<text text-anchor="start" x="42.5" y="-18.5" font-family="Helvetica,sans-Serif" font-size="10.00">CShell.Modules.Sink.View</text>
<text text-anchor="middle" x="102.5" y="-7.5" font-family="Helvetica,sans-Serif" font-size="10.00">Models.GridSinkViewModel</text>
</a>
</g>
</g>
<!-- Node2 -->
<g id="node2" class="node"><title>Node2</title>
<g id="a_node2"><a xlink:href="../../d4/dba/classCShell_1_1Framework_1_1Sink.html" target="_top" xlink:title=" ">
<polygon fill="white" stroke="black" points="57.5,-67.5 57.5,-86.5 147.5,-86.5 147.5,-67.5 57.5,-67.5"/>
<text text-anchor="middle" x="102.5" y="-74.5" font-family="Helvetica,sans-Serif" font-size="10.00">Framework::Sink</text>
</a>
</g>
</g>
<!-- Node2&#45;&gt;Node1 -->
<g id="edge1" class="edge"><title>Node2&#45;&gt;Node1</title>
<path fill="none" stroke="midnightblue" d="M102.5,-57.2349C102.5,-48.5864 102.5,-38.4969 102.5,-30.523"/>
<polygon fill="midnightblue" stroke="midnightblue" points="99.0001,-57.4751 102.5,-67.4751 106,-57.4751 99.0001,-57.4751"/>
</g>
<!-- Node3 -->
<g id="node3" class="node"><title>Node3</title>
<g id="a_node3"><a xlink:href="../../d1/d9b/classCShell_1_1Framework_1_1Document.html" target="_top" xlink:title=" ">
<polygon fill="white" stroke="black" points="38,-123.5 38,-142.5 99,-142.5 99,-123.5 38,-123.5"/>
<text text-anchor="middle" x="68.5" y="-130.5" font-family="Helvetica,sans-Serif" font-size="10.00">Document</text>
</a>
</g>
</g>
<!-- Node3&#45;&gt;Node2 -->
<g id="edge2" class="edge"><title>Node3&#45;&gt;Node2</title>
<path fill="none" stroke="midnightblue" d="M79.4772,-114.566C85.327,-105.275 92.2695,-94.2484 96.9901,-86.7511"/>
<polygon fill="midnightblue" stroke="midnightblue" points="76.4808,-112.756 74.1144,-123.083 82.4044,-116.486 76.4808,-112.756"/>
</g>
<!-- Node4 -->
<g id="node4" class="node"><title>Node4</title>
<g id="a_node4"><a xlink:href="../../d5/d57/classCShell_1_1Framework_1_1LayoutItemBase.html" target="_top" xlink:title=" ">
<polygon fill="white" stroke="black" points="0,-179.5 0,-198.5 87,-198.5 87,-179.5 0,-179.5"/>
<text text-anchor="middle" x="43.5" y="-186.5" font-family="Helvetica,sans-Serif" font-size="10.00">LayoutItemBase</text>
</a>
</g>
</g>
<!-- Node4&#45;&gt;Node3 -->
<g id="edge3" class="edge"><title>Node4&#45;&gt;Node3</title>
<path fill="none" stroke="midnightblue" d="M51.8413,-169.983C56.0848,-160.817 61.0499,-150.092 64.4486,-142.751"/>
<polygon fill="midnightblue" stroke="midnightblue" points="48.6534,-168.538 47.6282,-179.083 55.0057,-171.479 48.6534,-168.538"/>
</g>
<!-- Node5 -->
<g id="node5" class="node"><title>Node5</title>
<g id="a_node5"><a xlink:title=" ">
<polygon fill="white" stroke="#bfbfbf" points="20,-235.5 20,-254.5 67,-254.5 67,-235.5 20,-235.5"/>
<text text-anchor="middle" x="43.5" y="-242.5" font-family="Helvetica,sans-Serif" font-size="10.00">Screen</text>
</a>
</g>
</g>
<!-- Node5&#45;&gt;Node4 -->
<g id="edge4" class="edge"><title>Node5&#45;&gt;Node4</title>
<path fill="none" stroke="midnightblue" d="M43.5,-224.805C43.5,-215.91 43.5,-205.78 43.5,-198.751"/>
<polygon fill="midnightblue" stroke="midnightblue" points="40.0001,-225.083 43.5,-235.083 47.0001,-225.083 40.0001,-225.083"/>
</g>
<!-- Node6 -->
<g id="node6" class="node"><title>Node6</title>
<g id="a_node6"><a xlink:href="../../dd/d21/interfaceCShell_1_1Framework_1_1IDocument.html" target="_top" xlink:title=" ">
<polygon fill="white" stroke="black" points="105,-179.5 105,-198.5 168,-198.5 168,-179.5 105,-179.5"/>
<text text-anchor="middle" x="136.5" y="-186.5" font-family="Helvetica,sans-Serif" font-size="10.00">IDocument</text>
</a>
</g>
</g>
<!-- Node6&#45;&gt;Node3 -->
<g id="edge5" class="edge"><title>Node6&#45;&gt;Node3</title>
<path fill="none" stroke="midnightblue" d="M117.738,-173.101C105.5,-163.382 89.9413,-151.027 79.6242,-142.834"/>
<polygon fill="midnightblue" stroke="midnightblue" points="115.567,-175.846 125.575,-179.324 119.92,-170.364 115.567,-175.846"/>
</g>
<!-- Node8 -->
<g id="node8" class="node"><title>Node8</title>
<g id="a_node8"><a xlink:href="../../d5/df7/interfaceCShell_1_1Framework_1_1ISink.html" target="_top" xlink:title=" ">
<polygon fill="white" stroke="black" points="117.5,-123.5 117.5,-142.5 155.5,-142.5 155.5,-123.5 117.5,-123.5"/>
<text text-anchor="middle" x="136.5" y="-130.5" font-family="Helvetica,sans-Serif" font-size="10.00">ISink</text>
</a>
</g>
</g>
<!-- Node6&#45;&gt;Node8 -->
<g id="edge8" class="edge"><title>Node6&#45;&gt;Node8</title>
<path fill="none" stroke="midnightblue" d="M136.5,-168.805C136.5,-159.91 136.5,-149.78 136.5,-142.751"/>
<polygon fill="midnightblue" stroke="midnightblue" points="133,-169.083 136.5,-179.083 140,-169.083 133,-169.083"/>
</g>
<!-- Node7 -->
<g id="node7" class="node"><title>Node7</title>
<g id="a_node7"><a xlink:title=" ">
<polygon fill="white" stroke="#bfbfbf" points="111.5,-235.5 111.5,-254.5 161.5,-254.5 161.5,-235.5 111.5,-235.5"/>
<text text-anchor="middle" x="136.5" y="-242.5" font-family="Helvetica,sans-Serif" font-size="10.00">IScreen</text>
</a>
</g>
</g>
<!-- Node7&#45;&gt;Node6 -->
<g id="edge6" class="edge"><title>Node7&#45;&gt;Node6</title>
<path fill="none" stroke="midnightblue" d="M136.5,-224.805C136.5,-215.91 136.5,-205.78 136.5,-198.751"/>
<polygon fill="midnightblue" stroke="midnightblue" points="133,-225.083 136.5,-235.083 140,-225.083 133,-225.083"/>
</g>
<!-- Node8&#45;&gt;Node2 -->
<g id="edge7" class="edge"><title>Node8&#45;&gt;Node2</title>
<path fill="none" stroke="midnightblue" d="M125.523,-114.566C119.673,-105.275 112.73,-94.2484 108.01,-86.7511"/>
<polygon fill="midnightblue" stroke="midnightblue" points="122.596,-116.486 130.886,-123.083 128.519,-112.756 122.596,-116.486"/>
</g>
</g>
</svg>
