<?xml version="1.0" encoding="UTF-8" standalone="no"?>
<!DOCTYPE svg PUBLIC "-//W3C//DTD SVG 1.1//EN"
 "http://www.w3.org/Graphics/SVG/1.1/DTD/svg11.dtd">
<!-- Generated by graphviz version 2.38.0 (20140413.2041)
 -->
<!-- Title: Meta.Numerics.Statistics.Distributions.Distribution Pages: 1 -->
<!--zoomable 1290 -->
<svg id="main" version="1.1" xmlns="http://www.w3.org/2000/svg" xmlns:xlink="http://www.w3.org/1999/xlink" xml:space="preserve" onload="init(evt)">
<style type="text/css"><![CDATA[
.edge:hover path { stroke: red; }
.edge:hover polygon { stroke: red; fill: red; }
]]></style>
<script type="text/javascript"><![CDATA[
var edges = document.getElementsByTagName('g');
if (edges && edges.length) {
  for (var i=0;i<edges.length;i++) {
    if (edges[i].id.substr(0,4)=='edge') {
      edges[i].setAttribute('class','edge');
    }
  }
}
]]></script>
        <defs>
                <circle id="rim" cx="0" cy="0" r="7"/>
                <circle id="rim2" cx="0" cy="0" r="3.5"/>
                <g id="zoomPlus">
                        <use xlink:href="#rim" fill="#404040">
                                <set attributeName="fill" to="#808080" begin="zoomplus.mouseover" end="zoomplus.mouseout"/>
                        </use>
                        <path d="M-4,0h8M0,-4v8" fill="none" stroke="white" stroke-width="1.5" pointer-events="none"/>
                </g>
                <g id="zoomMin">
                        <use xlink:href="#rim" fill="#404040">
                                <set attributeName="fill" to="#808080" begin="zoomminus.mouseover" end="zoomminus.mouseout"/>
                        </use>
                        <path d="M-4,0h8" fill="none" stroke="white" stroke-width="1.5" pointer-events="none"/>
                </g>
                <g id="dirArrow">
                        <path fill="none" stroke="white" stroke-width="1.5" d="M0,-3.0v7 M-2.5,-0.5L0,-3.0L2.5,-0.5"/>
                </g>
               <g id="resetDef">
                       <use xlink:href="#rim2" fill="#404040">
                               <set attributeName="fill" to="#808080" begin="reset.mouseover" end="reset.mouseout"/>
                       </use>
               </g>
        </defs>

<script type="text/javascript">
var viewWidth = 515;
var viewHeight = 1290;
var sectionId = 'dynsection-0';
</script>
<script xlink:href="../../svgpan.js"/>
<svg id="graph" class="graph">
<g id="viewport">
<title>Meta.Numerics.Statistics.Distributions.Distribution</title>
<polygon fill="white" stroke="none" points="-4,4 -4,-1285.5 511,-1285.5 511,4 -4,4"/>
<!-- Node1 -->
<g id="node1" class="node"><title>Node1</title>
<g id="a_node1"><a xlink:title="Represents all continuous, univariate probability distribution.">
<polygon fill="#bfbfbf" stroke="black" points="143,-602 143,-632 273,-632 273,-602 143,-602"/>
<text text-anchor="start" x="151" y="-620" font-family="Helvetica,sans-Serif" font-size="10.00">Meta.Numerics.Statistics.</text>
<text text-anchor="middle" x="208" y="-609" font-family="Helvetica,sans-Serif" font-size="10.00">Distributions.Distribution</text>
</a>
</g>
</g>
<!-- Node3 -->
<g id="node3" class="node"><title>Node3</title>
<g id="a_node3"><a xlink:href="../../df/d40/classMeta_1_1Numerics_1_1Statistics_1_1Distributions_1_1BetaDistribution.html" target="_top" xlink:title="Represents a beta distribution.">
<polygon fill="white" stroke="black" points="336.5,-1251 336.5,-1281 479.5,-1281 479.5,-1251 336.5,-1251"/>
<text text-anchor="start" x="344.5" y="-1269" font-family="Helvetica,sans-Serif" font-size="10.00">Meta.Numerics.Statistics.</text>
<text text-anchor="middle" x="408" y="-1258" font-family="Helvetica,sans-Serif" font-size="10.00">Distributions.BetaDistribution</text>
</a>
</g>
</g>
<!-- Node1&#45;&gt;Node3 -->
<g id="edge2" class="edge"><title>Node1&#45;&gt;Node3</title>
<path fill="none" stroke="midnightblue" d="M209.444,-642.201C211.823,-747.662 226.285,-1152.25 309,-1242 316.36,-1249.99 325.903,-1255.51 336.141,-1259.3"/>
<polygon fill="midnightblue" stroke="midnightblue" points="212.943,-642.08 209.235,-632.155 205.944,-642.226 212.943,-642.08"/>
</g>
<!-- Node4 -->
<g id="node4" class="node"><title>Node4</title>
<g id="a_node4"><a xlink:href="../../dc/d4e/classMeta_1_1Numerics_1_1Statistics_1_1Distributions_1_1CauchyDistribution.html" target="_top" xlink:title="Represents a Cauchy distribution.">
<polygon fill="white" stroke="black" points="330.5,-1202 330.5,-1232 485.5,-1232 485.5,-1202 330.5,-1202"/>
<text text-anchor="start" x="338.5" y="-1220" font-family="Helvetica,sans-Serif" font-size="10.00">Meta.Numerics.Statistics.</text>
<text text-anchor="middle" x="408" y="-1209" font-family="Helvetica,sans-Serif" font-size="10.00">Distributions.CauchyDistribution</text>
</a>
</g>
</g>
<!-- Node1&#45;&gt;Node4 -->
<g id="edge3" class="edge"><title>Node1&#45;&gt;Node4</title>
<path fill="none" stroke="midnightblue" d="M209.818,-642.132C213.59,-742.239 232.544,-1111.14 309,-1193 314.978,-1199.4 322.359,-1204.22 330.368,-1207.82"/>
<polygon fill="midnightblue" stroke="midnightblue" points="213.312,-641.904 209.455,-632.036 206.316,-642.155 213.312,-641.904"/>
</g>
<!-- Node5 -->
<g id="node5" class="node"><title>Node5</title>
<g id="a_node5"><a xlink:href="../../d3/d2a/classMeta_1_1Numerics_1_1Statistics_1_1Distributions_1_1ChiSquaredDistribution.html" target="_top" xlink:title="Represents a &#x3C7;2 distribution.">
<polygon fill="white" stroke="black" points="321.5,-1153 321.5,-1183 494.5,-1183 494.5,-1153 321.5,-1153"/>
<text text-anchor="start" x="329.5" y="-1171" font-family="Helvetica,sans-Serif" font-size="10.00">Meta.Numerics.Statistics.</text>
<text text-anchor="middle" x="408" y="-1160" font-family="Helvetica,sans-Serif" font-size="10.00">Distributions.ChiSquaredDistribution</text>
</a>
</g>
</g>
<!-- Node1&#45;&gt;Node5 -->
<g id="edge4" class="edge"><title>Node1&#45;&gt;Node5</title>
<path fill="none" stroke="midnightblue" d="M210.306,-642.353C215.702,-737.12 239.341,-1068.89 309,-1143 312.608,-1146.84 316.716,-1150.12 321.157,-1152.92"/>
<polygon fill="midnightblue" stroke="midnightblue" points="213.794,-642.034 209.75,-632.241 206.805,-642.419 213.794,-642.034"/>
</g>
<!-- Node6 -->
<g id="node6" class="node"><title>Node6</title>
<g id="a_node6"><a xlink:href="../../d9/d3d/classMeta_1_1Numerics_1_1Statistics_1_1Distributions_1_1DiscreteAsContinuousDistribution.html" target="_top" xlink:title="Represents a discrete distribution as a continous distribution.">
<polygon fill="white" stroke="black" points="323,-1092.5 323,-1133.5 493,-1133.5 493,-1092.5 323,-1092.5"/>
<text text-anchor="start" x="331" y="-1121.5" font-family="Helvetica,sans-Serif" font-size="10.00">Meta.Numerics.Statistics.</text>
<text text-anchor="start" x="331" y="-1110.5" font-family="Helvetica,sans-Serif" font-size="10.00">Distributions.DiscreteAsContinuous</text>
<text text-anchor="middle" x="408" y="-1099.5" font-family="Helvetica,sans-Serif" font-size="10.00">Distribution</text>
</a>
</g>
</g>
<!-- Node1&#45;&gt;Node6 -->
<g id="edge5" class="edge"><title>Node1&#45;&gt;Node6</title>
<path fill="none" stroke="midnightblue" d="M211.108,-642.448C218.857,-730.008 248.504,-1017.09 309,-1083 313.091,-1087.46 317.823,-1091.26 322.955,-1094.5"/>
<polygon fill="midnightblue" stroke="midnightblue" points="214.583,-642.002 210.234,-632.341 207.609,-642.605 214.583,-642.002"/>
</g>
<!-- Node7 -->
<g id="node7" class="node"><title>Node7</title>
<g id="a_node7"><a xlink:href="../../d0/d8e/classMeta_1_1Numerics_1_1Statistics_1_1Distributions_1_1ExponentialDistribution.html" target="_top" xlink:title="Represents an exponential distribution.">
<polygon fill="white" stroke="black" points="321.5,-1043 321.5,-1073 494.5,-1073 494.5,-1043 321.5,-1043"/>
<text text-anchor="start" x="329.5" y="-1061" font-family="Helvetica,sans-Serif" font-size="10.00">Meta.Numerics.Statistics.</text>
<text text-anchor="middle" x="408" y="-1050" font-family="Helvetica,sans-Serif" font-size="10.00">Distributions.ExponentialDistribution</text>
</a>
</g>
</g>
<!-- Node1&#45;&gt;Node7 -->
<g id="edge6" class="edge"><title>Node1&#45;&gt;Node7</title>
<path fill="none" stroke="midnightblue" d="M211.662,-642.502C220.701,-724.225 252.824,-977.553 309,-1034 312.707,-1037.72 316.891,-1040.91 321.389,-1043.62"/>
<polygon fill="midnightblue" stroke="midnightblue" points="215.097,-641.712 210.54,-632.148 208.138,-642.467 215.097,-641.712"/>
</g>
<!-- Node8 -->
<g id="node8" class="node"><title>Node8</title>
<g id="a_node8"><a xlink:href="../../d2/de9/classMeta_1_1Numerics_1_1Statistics_1_1Distributions_1_1FisherDistribution.html" target="_top" xlink:title="Represents the distribution of Fisher&#39;s F&#45;statistic.">
<polygon fill="white" stroke="black" points="333.5,-994 333.5,-1024 482.5,-1024 482.5,-994 333.5,-994"/>
<text text-anchor="start" x="341.5" y="-1012" font-family="Helvetica,sans-Serif" font-size="10.00">Meta.Numerics.Statistics.</text>
<text text-anchor="middle" x="408" y="-1001" font-family="Helvetica,sans-Serif" font-size="10.00">Distributions.FisherDistribution</text>
</a>
</g>
</g>
<!-- Node1&#45;&gt;Node8 -->
<g id="edge7" class="edge"><title>Node1&#45;&gt;Node8</title>
<path fill="none" stroke="midnightblue" d="M212.456,-641.963C223.286,-716.63 258.853,-936.099 309,-985 315.898,-991.726 324.355,-996.67 333.383,-1000.29"/>
<polygon fill="midnightblue" stroke="midnightblue" points="215.917,-641.439 211.039,-632.034 208.987,-642.429 215.917,-641.439"/>
</g>
<!-- Node9 -->
<g id="node9" class="node"><title>Node9</title>
<g id="a_node9"><a xlink:href="../../d3/dda/classMeta_1_1Numerics_1_1Statistics_1_1Distributions_1_1GammaDistribution.html" target="_top" xlink:title="Represents a Gamma distribution.">
<polygon fill="white" stroke="black" points="329.5,-945 329.5,-975 486.5,-975 486.5,-945 329.5,-945"/>
<text text-anchor="start" x="337.5" y="-963" font-family="Helvetica,sans-Serif" font-size="10.00">Meta.Numerics.Statistics.</text>
<text text-anchor="middle" x="408" y="-952" font-family="Helvetica,sans-Serif" font-size="10.00">Distributions.GammaDistribution</text>
</a>
</g>
</g>
<!-- Node1&#45;&gt;Node9 -->
<g id="edge8" class="edge"><title>Node1&#45;&gt;Node9</title>
<path fill="none" stroke="midnightblue" d="M209.05,-642.524C210.619,-702.934 223.335,-855.617 309,-936 314.876,-941.514 321.804,-945.821 329.217,-949.177"/>
<polygon fill="midnightblue" stroke="midnightblue" points="212.546,-642.293 208.871,-632.356 205.547,-642.416 212.546,-642.293"/>
</g>
<!-- Node10 -->
<g id="node10" class="node"><title>Node10</title>
<g id="a_node10"><a xlink:href="../../d0/d08/classMeta_1_1Numerics_1_1Statistics_1_1Distributions_1_1GumbelDistribution.html" target="_top" xlink:title="Represents a Gumbel distribution.">
<polygon fill="white" stroke="black" points="330,-896 330,-926 486,-926 486,-896 330,-896"/>
<text text-anchor="start" x="338" y="-914" font-family="Helvetica,sans-Serif" font-size="10.00">Meta.Numerics.Statistics.</text>
<text text-anchor="middle" x="408" y="-903" font-family="Helvetica,sans-Serif" font-size="10.00">Distributions.GumbelDistribution</text>
</a>
</g>
</g>
<!-- Node1&#45;&gt;Node10 -->
<g id="edge9" class="edge"><title>Node1&#45;&gt;Node10</title>
<path fill="none" stroke="midnightblue" d="M210.819,-642.451C216.047,-695.882 235.843,-820.223 309,-886 315.137,-891.518 322.324,-895.852 329.968,-899.252"/>
<polygon fill="midnightblue" stroke="midnightblue" points="214.278,-641.825 209.911,-632.172 207.305,-642.441 214.278,-641.825"/>
</g>
<!-- Node11 -->
<g id="node11" class="node"><title>Node11</title>
<g id="a_node11"><a xlink:title=" ">
<polygon fill="white" stroke="#bfbfbf" points="321.5,-835.5 321.5,-876.5 494.5,-876.5 494.5,-835.5 321.5,-835.5"/>
<text text-anchor="start" x="329.5" y="-864.5" font-family="Helvetica,sans-Serif" font-size="10.00">Meta.Numerics.Statistics.</text>
<text text-anchor="start" x="329.5" y="-853.5" font-family="Helvetica,sans-Serif" font-size="10.00">Distributions.KolmogorovAsymptotic</text>
<text text-anchor="middle" x="408" y="-842.5" font-family="Helvetica,sans-Serif" font-size="10.00">Distribution</text>
</a>
</g>
</g>
<!-- Node1&#45;&gt;Node11 -->
<g id="edge10" class="edge"><title>Node1&#45;&gt;Node11</title>
<path fill="none" stroke="midnightblue" d="M214.062,-641.994C224.227,-685.752 251.268,-776.298 309,-826 313.045,-829.483 317.488,-832.561 322.18,-835.282"/>
<polygon fill="midnightblue" stroke="midnightblue" points="217.467,-641.179 211.885,-632.174 210.633,-642.694 217.467,-641.179"/>
</g>
<!-- Node12 -->
<g id="node12" class="node"><title>Node12</title>
<g id="a_node12"><a xlink:href="../../d9/de3/classMeta_1_1Numerics_1_1Statistics_1_1Distributions_1_1KolmogorovDistribution.html" target="_top" xlink:title="Represents the distribution of the Kolmogorov&#45;Smirnov D statistic.">
<polygon fill="white" stroke="black" points="321.5,-786 321.5,-816 494.5,-816 494.5,-786 321.5,-786"/>
<text text-anchor="start" x="329.5" y="-804" font-family="Helvetica,sans-Serif" font-size="10.00">Meta.Numerics.Statistics.</text>
<text text-anchor="middle" x="408" y="-793" font-family="Helvetica,sans-Serif" font-size="10.00">Distributions.KolmogorovDistribution</text>
</a>
</g>
</g>
<!-- Node1&#45;&gt;Node12 -->
<g id="edge11" class="edge"><title>Node1&#45;&gt;Node12</title>
<path fill="none" stroke="midnightblue" d="M217.528,-641.67C231.124,-677.229 261.169,-742.404 309,-777 313.684,-780.388 318.788,-783.301 324.128,-785.805"/>
<polygon fill="midnightblue" stroke="midnightblue" points="220.728,-640.232 213.981,-632.064 214.161,-642.657 220.728,-640.232"/>
</g>
<!-- Node13 -->
<g id="node13" class="node"><title>Node13</title>
<g id="a_node13"><a xlink:title=" ">
<polygon fill="white" stroke="#bfbfbf" points="309,-737 309,-767 507,-767 507,-737 309,-737"/>
<text text-anchor="start" x="317" y="-755" font-family="Helvetica,sans-Serif" font-size="10.00">Meta.Numerics.Statistics.</text>
<text text-anchor="middle" x="408" y="-744" font-family="Helvetica,sans-Serif" font-size="10.00">Distributions.KolmogorovExactDistribution</text>
</a>
</g>
</g>
<!-- Node1&#45;&gt;Node13 -->
<g id="edge12" class="edge"><title>Node1&#45;&gt;Node13</title>
<path fill="none" stroke="midnightblue" d="M224.164,-640.605C241.6,-665.814 272.556,-705.086 309,-727 315.471,-730.891 322.532,-734.18 329.804,-736.96"/>
<polygon fill="midnightblue" stroke="midnightblue" points="226.861,-638.345 218.367,-632.012 221.058,-642.26 226.861,-638.345"/>
</g>
<!-- Node14 -->
<g id="node14" class="node"><title>Node14</title>
<g id="a_node14"><a xlink:title=" ">
<polygon fill="white" stroke="#bfbfbf" points="332.5,-676.5 332.5,-717.5 483.5,-717.5 483.5,-676.5 332.5,-676.5"/>
<text text-anchor="start" x="340.5" y="-705.5" font-family="Helvetica,sans-Serif" font-size="10.00">Meta.Numerics.Statistics.</text>
<text text-anchor="start" x="340.5" y="-694.5" font-family="Helvetica,sans-Serif" font-size="10.00">Distributions.KuiperAsymptotic</text>
<text text-anchor="middle" x="408" y="-683.5" font-family="Helvetica,sans-Serif" font-size="10.00">Distribution</text>
</a>
</g>
</g>
<!-- Node1&#45;&gt;Node14 -->
<g id="edge13" class="edge"><title>Node1&#45;&gt;Node14</title>
<path fill="none" stroke="midnightblue" d="M245.08,-636.867C263.806,-646.707 287.26,-658.308 309,-667 317.343,-670.336 326.209,-673.523 335.065,-676.49"/>
<polygon fill="midnightblue" stroke="midnightblue" points="246.497,-633.657 236.024,-632.053 243.212,-639.838 246.497,-633.657"/>
</g>
<!-- Node15 -->
<g id="node15" class="node"><title>Node15</title>
<g id="a_node15"><a xlink:href="../../d4/d9b/classMeta_1_1Numerics_1_1Statistics_1_1Distributions_1_1KuiperDistribution.html" target="_top" xlink:title="Represents the asymptotic distribution of Kuiper&#39;s V statistic.">
<polygon fill="white" stroke="black" points="333,-627 333,-657 483,-657 483,-627 333,-627"/>
<text text-anchor="start" x="341" y="-645" font-family="Helvetica,sans-Serif" font-size="10.00">Meta.Numerics.Statistics.</text>
<text text-anchor="middle" x="408" y="-634" font-family="Helvetica,sans-Serif" font-size="10.00">Distributions.KuiperDistribution</text>
</a>
</g>
</g>
<!-- Node1&#45;&gt;Node15 -->
<g id="edge14" class="edge"><title>Node1&#45;&gt;Node15</title>
<path fill="none" stroke="midnightblue" d="M283.016,-626.346C299.313,-628.403 316.577,-630.583 332.878,-632.641"/>
<polygon fill="midnightblue" stroke="midnightblue" points="283.371,-622.863 273.011,-625.082 282.494,-629.807 283.371,-622.863"/>
</g>
<!-- Node16 -->
<g id="node16" class="node"><title>Node16</title>
<g id="a_node16"><a xlink:title=" ">
<polygon fill="white" stroke="#bfbfbf" points="320,-578 320,-608 496,-608 496,-578 320,-578"/>
<text text-anchor="start" x="328" y="-596" font-family="Helvetica,sans-Serif" font-size="10.00">Meta.Numerics.Statistics.</text>
<text text-anchor="middle" x="408" y="-585" font-family="Helvetica,sans-Serif" font-size="10.00">Distributions.KuiperExactDistribution</text>
</a>
</g>
</g>
<!-- Node1&#45;&gt;Node16 -->
<g id="edge15" class="edge"><title>Node1&#45;&gt;Node16</title>
<path fill="none" stroke="midnightblue" d="M282.956,-608.036C294.963,-606.58 307.496,-605.061 319.783,-603.572"/>
<polygon fill="midnightblue" stroke="midnightblue" points="282.518,-604.563 273.011,-609.241 283.36,-611.512 282.518,-604.563"/>
</g>
<!-- Node17 -->
<g id="node17" class="node"><title>Node17</title>
<g id="a_node17"><a xlink:href="../../d8/d95/classMeta_1_1Numerics_1_1Statistics_1_1Distributions_1_1LogisticDistribution.html" target="_top" xlink:title="Represents a logistic distribution.">
<polygon fill="white" stroke="black" points="330,-529 330,-559 486,-559 486,-529 330,-529"/>
<text text-anchor="start" x="338" y="-547" font-family="Helvetica,sans-Serif" font-size="10.00">Meta.Numerics.Statistics.</text>
<text text-anchor="middle" x="408" y="-536" font-family="Helvetica,sans-Serif" font-size="10.00">Distributions.LogisticDistribution</text>
</a>
</g>
</g>
<!-- Node1&#45;&gt;Node17 -->
<g id="edge16" class="edge"><title>Node1&#45;&gt;Node17</title>
<path fill="none" stroke="midnightblue" d="M244.926,-597.054C263.612,-587.287 287.077,-575.95 309,-568 318.139,-564.686 327.922,-561.68 337.64,-559.006"/>
<polygon fill="midnightblue" stroke="midnightblue" points="243.088,-594.067 235.895,-601.846 246.369,-600.25 243.088,-594.067"/>
</g>
<!-- Node18 -->
<g id="node18" class="node"><title>Node18</title>
<g id="a_node18"><a xlink:href="../../df/d29/classMeta_1_1Numerics_1_1Statistics_1_1Distributions_1_1LognormalDistribution.html" target="_top" xlink:title="Represents a log&#45;normal distribution.">
<polygon fill="white" stroke="black" points="324.5,-480 324.5,-510 491.5,-510 491.5,-480 324.5,-480"/>
<text text-anchor="start" x="332.5" y="-498" font-family="Helvetica,sans-Serif" font-size="10.00">Meta.Numerics.Statistics.</text>
<text text-anchor="middle" x="408" y="-487" font-family="Helvetica,sans-Serif" font-size="10.00">Distributions.LognormalDistribution</text>
</a>
</g>
</g>
<!-- Node1&#45;&gt;Node18 -->
<g id="edge17" class="edge"><title>Node1&#45;&gt;Node18</title>
<path fill="none" stroke="midnightblue" d="M226.436,-593.805C244.597,-571.3 275.097,-537.863 309,-519 315.199,-515.551 321.89,-512.592 328.761,-510.055"/>
<polygon fill="midnightblue" stroke="midnightblue" points="223.542,-591.822 220.098,-601.841 229.038,-596.157 223.542,-591.822"/>
</g>
<!-- Node19 -->
<g id="node19" class="node"><title>Node19</title>
<g id="a_node19"><a xlink:href="../../df/d92/classMeta_1_1Numerics_1_1Statistics_1_1Distributions_1_1NormalDistribution.html" target="_top" xlink:title="Represents a normal (Gaussian) distribution.">
<polygon fill="white" stroke="black" points="331.5,-431 331.5,-461 484.5,-461 484.5,-431 331.5,-431"/>
<text text-anchor="start" x="339.5" y="-449" font-family="Helvetica,sans-Serif" font-size="10.00">Meta.Numerics.Statistics.</text>
<text text-anchor="middle" x="408" y="-438" font-family="Helvetica,sans-Serif" font-size="10.00">Distributions.NormalDistribution</text>
</a>
</g>
</g>
<!-- Node1&#45;&gt;Node19 -->
<g id="edge18" class="edge"><title>Node1&#45;&gt;Node19</title>
<path fill="none" stroke="midnightblue" d="M218.94,-592.386C233.594,-559.315 264.192,-501.105 309,-470 315.835,-465.255 323.508,-461.445 331.471,-458.386"/>
<polygon fill="midnightblue" stroke="midnightblue" points="215.634,-591.215 214.906,-601.785 222.066,-593.976 215.634,-591.215"/>
</g>
<!-- Node20 -->
<g id="node20" class="node"><title>Node20</title>
<g id="a_node20"><a xlink:href="../../dd/d2f/classMeta_1_1Numerics_1_1Statistics_1_1Distributions_1_1ParetoDistribution.html" target="_top" xlink:title="Represents a Pareto or power law distribution.">
<polygon fill="white" stroke="black" points="332.5,-382 332.5,-412 483.5,-412 483.5,-382 332.5,-382"/>
<text text-anchor="start" x="340.5" y="-400" font-family="Helvetica,sans-Serif" font-size="10.00">Meta.Numerics.Statistics.</text>
<text text-anchor="middle" x="408" y="-389" font-family="Helvetica,sans-Serif" font-size="10.00">Distributions.ParetoDistribution</text>
</a>
</g>
</g>
<!-- Node1&#45;&gt;Node20 -->
<g id="edge19" class="edge"><title>Node1&#45;&gt;Node20</title>
<path fill="none" stroke="midnightblue" d="M214.636,-591.76C225.388,-549.667 252.928,-465.386 309,-421 315.867,-415.564 323.79,-411.336 332.095,-408.051"/>
<polygon fill="midnightblue" stroke="midnightblue" points="211.171,-591.195 212.202,-601.739 217.972,-592.853 211.171,-591.195"/>
</g>
<!-- Node21 -->
<g id="node21" class="node"><title>Node21</title>
<g id="a_node21"><a xlink:href="../../da/d77/classMeta_1_1Numerics_1_1Statistics_1_1Distributions_1_1PearsonRDistribution.html" target="_top" xlink:title="Represents the distribution of Pearsons&#39;s r statistic.">
<polygon fill="white" stroke="black" points="325.5,-333 325.5,-363 490.5,-363 490.5,-333 325.5,-333"/>
<text text-anchor="start" x="333.5" y="-351" font-family="Helvetica,sans-Serif" font-size="10.00">Meta.Numerics.Statistics.</text>
<text text-anchor="middle" x="408" y="-340" font-family="Helvetica,sans-Serif" font-size="10.00">Distributions.PearsonRDistribution</text>
</a>
</g>
</g>
<!-- Node1&#45;&gt;Node21 -->
<g id="edge20" class="edge"><title>Node1&#45;&gt;Node21</title>
<path fill="none" stroke="midnightblue" d="M211.797,-591.687C218.703,-541.774 241.242,-430.443 309,-372 313.908,-367.767 319.444,-364.256 325.325,-361.347"/>
<polygon fill="midnightblue" stroke="midnightblue" points="208.287,-591.544 210.486,-601.909 215.23,-592.435 208.287,-591.544"/>
</g>
<!-- Node22 -->
<g id="node22" class="node"><title>Node22</title>
<g id="a_node22"><a xlink:href="../../d3/d86/classMeta_1_1Numerics_1_1Statistics_1_1Distributions_1_1StudentDistribution.html" target="_top" xlink:title="Represents the distribution of Student&#39;t t statistic.">
<polygon fill="white" stroke="black" points="330,-284 330,-314 486,-314 486,-284 330,-284"/>
<text text-anchor="start" x="338" y="-302" font-family="Helvetica,sans-Serif" font-size="10.00">Meta.Numerics.Statistics.</text>
<text text-anchor="middle" x="408" y="-291" font-family="Helvetica,sans-Serif" font-size="10.00">Distributions.StudentDistribution</text>
</a>
</g>
</g>
<!-- Node1&#45;&gt;Node22 -->
<g id="edge21" class="edge"><title>Node1&#45;&gt;Node22</title>
<path fill="none" stroke="midnightblue" d="M209.84,-591.539C213.152,-534.523 229.424,-395.887 309,-323 315.071,-317.439 322.216,-313.111 329.836,-309.751"/>
<polygon fill="midnightblue" stroke="midnightblue" points="206.33,-591.65 209.335,-601.81 213.322,-591.994 206.33,-591.65"/>
</g>
<!-- Node23 -->
<g id="node23" class="node"><title>Node23</title>
<g id="a_node23"><a xlink:title=" ">
<polygon fill="white" stroke="#bfbfbf" points="320,-235 320,-265 496,-265 496,-235 320,-235"/>
<text text-anchor="start" x="328" y="-253" font-family="Helvetica,sans-Serif" font-size="10.00">Meta.Numerics.Statistics.</text>
<text text-anchor="middle" x="408" y="-242" font-family="Helvetica,sans-Serif" font-size="10.00">Distributions.TransformedDistribution</text>
</a>
</g>
</g>
<!-- Node1&#45;&gt;Node23 -->
<g id="edge22" class="edge"><title>Node1&#45;&gt;Node23</title>
<path fill="none" stroke="midnightblue" d="M208.388,-591.347C208.346,-527.744 217.493,-361.609 309,-274 312.543,-270.608 316.483,-267.671 320.691,-265.13"/>
<polygon fill="midnightblue" stroke="midnightblue" points="204.891,-591.686 208.48,-601.655 211.891,-591.624 204.891,-591.686"/>
</g>
<!-- Node24 -->
<g id="node24" class="node"><title>Node24</title>
<g id="a_node24"><a xlink:href="../../d2/dab/classMeta_1_1Numerics_1_1Statistics_1_1Distributions_1_1TriangularDistribution.html" target="_top" xlink:title="Represents a triangular distribution.">
<polygon fill="white" stroke="black" points="326,-186 326,-216 490,-216 490,-186 326,-186"/>
<text text-anchor="start" x="334" y="-204" font-family="Helvetica,sans-Serif" font-size="10.00">Meta.Numerics.Statistics.</text>
<text text-anchor="middle" x="408" y="-193" font-family="Helvetica,sans-Serif" font-size="10.00">Distributions.TriangularDistribution</text>
</a>
</g>
</g>
<!-- Node1&#45;&gt;Node24 -->
<g id="edge23" class="edge"><title>Node1&#45;&gt;Node24</title>
<path fill="none" stroke="midnightblue" d="M212.082,-591.492C222.063,-513.05 255.968,-277.525 309,-225 313.854,-220.193 319.503,-216.293 325.593,-213.136"/>
<polygon fill="midnightblue" stroke="midnightblue" points="208.55,-591.528 210.783,-601.885 215.496,-592.396 208.55,-591.528"/>
</g>
<!-- Node25 -->
<g id="node25" class="node"><title>Node25</title>
<g id="a_node25"><a xlink:href="../../d7/d9e/classMeta_1_1Numerics_1_1Statistics_1_1Distributions_1_1UniformDistribution.html" target="_top" xlink:title="Represents a uniform distribution over an interval.">
<polygon fill="white" stroke="black" points="330.5,-137 330.5,-167 485.5,-167 485.5,-137 330.5,-137"/>
<text text-anchor="start" x="338.5" y="-155" font-family="Helvetica,sans-Serif" font-size="10.00">Meta.Numerics.Statistics.</text>
<text text-anchor="middle" x="408" y="-144" font-family="Helvetica,sans-Serif" font-size="10.00">Distributions.UniformDistribution</text>
</a>
</g>
</g>
<!-- Node1&#45;&gt;Node25 -->
<g id="edge24" class="edge"><title>Node1&#45;&gt;Node25</title>
<path fill="none" stroke="midnightblue" d="M211.258,-591.97C219.361,-507.72 249.687,-236.341 309,-176 315.017,-169.879 322.321,-165.222 330.199,-161.692"/>
<polygon fill="midnightblue" stroke="midnightblue" points="207.773,-591.653 210.32,-601.937 214.742,-592.309 207.773,-591.653"/>
</g>
<!-- Node26 -->
<g id="node26" class="node"><title>Node26</title>
<g id="a_node26"><a xlink:href="../../d3/d55/classMeta_1_1Numerics_1_1Statistics_1_1Distributions_1_1WaldDistribution.html" target="_top" xlink:title="Represents a Wald distribution.">
<polygon fill="white" stroke="black" points="335.5,-88 335.5,-118 480.5,-118 480.5,-88 335.5,-88"/>
<text text-anchor="start" x="343.5" y="-106" font-family="Helvetica,sans-Serif" font-size="10.00">Meta.Numerics.Statistics.</text>
<text text-anchor="middle" x="408" y="-95" font-family="Helvetica,sans-Serif" font-size="10.00">Distributions.WaldDistribution</text>
</a>
</g>
</g>
<!-- Node1&#45;&gt;Node26 -->
<g id="edge25" class="edge"><title>Node1&#45;&gt;Node26</title>
<path fill="none" stroke="midnightblue" d="M210.67,-591.617C217.145,-500.974 243.565,-195.028 309,-127 316.286,-119.425 325.54,-114.083 335.439,-110.343"/>
<polygon fill="midnightblue" stroke="midnightblue" points="207.164,-591.584 209.962,-601.803 214.147,-592.069 207.164,-591.584"/>
</g>
<!-- Node27 -->
<g id="node27" class="node"><title>Node27</title>
<g id="a_node27"><a xlink:href="../../d1/da4/classMeta_1_1Numerics_1_1Statistics_1_1Distributions_1_1WeibullDistribution.html" target="_top" xlink:title="Represents a Weibull distribution.">
<polygon fill="white" stroke="black" points="330.5,-39 330.5,-69 485.5,-69 485.5,-39 330.5,-39"/>
<text text-anchor="start" x="338.5" y="-57" font-family="Helvetica,sans-Serif" font-size="10.00">Meta.Numerics.Statistics.</text>
<text text-anchor="middle" x="408" y="-46" font-family="Helvetica,sans-Serif" font-size="10.00">Distributions.WeibullDistribution</text>
</a>
</g>
</g>
<!-- Node1&#45;&gt;Node27 -->
<g id="edge26" class="edge"><title>Node1&#45;&gt;Node27</title>
<path fill="none" stroke="midnightblue" d="M210.156,-591.642C215.064,-495.336 237.325,-153.861 309,-78 315.015,-71.6338 322.419,-66.8388 330.439,-63.2442"/>
<polygon fill="midnightblue" stroke="midnightblue" points="206.648,-591.737 209.653,-601.897 213.639,-592.08 206.648,-591.737"/>
</g>
<!-- Node28 -->
<g id="node28" class="node"><title>Node28</title>
<g id="a_node28"><a xlink:href="../../d6/d2f/classTest_1_1TestDistribution.html" target="_top" xlink:title=" ">
<polygon fill="white" stroke="black" points="355,-0.5 355,-19.5 461,-19.5 461,-0.5 355,-0.5"/>
<text text-anchor="middle" x="408" y="-7.5" font-family="Helvetica,sans-Serif" font-size="10.00">Test.TestDistribution</text>
</a>
</g>
</g>
<!-- Node1&#45;&gt;Node28 -->
<g id="edge27" class="edge"><title>Node1&#45;&gt;Node28</title>
<path fill="none" stroke="midnightblue" d="M209.613,-591.575C212.613,-489.472 229.041,-110.823 309,-29 320.931,-16.7909 338.189,-11.1642 354.909,-8.86209"/>
<polygon fill="midnightblue" stroke="midnightblue" points="206.107,-591.769 209.33,-601.862 213.104,-591.962 206.107,-591.769"/>
</g>
<!-- Node2 -->
<g id="node2" class="node"><title>Node2</title>
<g id="a_node2"><a xlink:href="../../da/d1a/classMeta_1_1Numerics_1_1Statistics_1_1Distributions_1_1UnivariateDistribution.html" target="_top" xlink:title="Represents a probability distribution over a single variable.">
<polygon fill="white" stroke="black" points="0,-607.5 0,-626.5 107,-626.5 107,-607.5 0,-607.5"/>
<text text-anchor="middle" x="53.5" y="-614.5" font-family="Helvetica,sans-Serif" font-size="10.00">UnivariateDistribution</text>
</a>
</g>
</g>
<!-- Node2&#45;&gt;Node1 -->
<g id="edge1" class="edge"><title>Node2&#45;&gt;Node1</title>
<path fill="none" stroke="midnightblue" d="M117.497,-617C125.881,-617 134.484,-617 142.886,-617"/>
<polygon fill="midnightblue" stroke="midnightblue" points="117.409,-613.5 107.409,-617 117.409,-620.5 117.409,-613.5"/>
</g>
</g>
</svg>
        <g id="navigator" transform="translate(0 0)" fill="#404254">
                <rect fill="#f2f5e9" fill-opacity="0.5" stroke="#606060" stroke-width=".5" x="0" y="0" width="60" height="60"/>
                <use id="zoomplus" xlink:href="#zoomPlus" x="17" y="9" onmousedown="handleZoom(evt,'in')"/>
                <use id="zoomminus" xlink:href="#zoomMin" x="42" y="9" onmousedown="handleZoom(evt,'out')"/>
                <use id="reset" xlink:href="#resetDef" x="30" y="36" onmousedown="handleReset()"/>
                <g id="arrowUp" xlink:href="#dirArrow" transform="translate(30 24)" onmousedown="handlePan(0,-1)">
                  <use xlink:href="#rim" fill="#404040">
                        <set attributeName="fill" to="#808080" begin="arrowUp.mouseover" end="arrowUp.mouseout"/>
                  </use>
                  <path fill="none" stroke="white" stroke-width="1.5" d="M0,-3.0v7 M-2.5,-0.5L0,-3.0L2.5,-0.5"/>
                </g>
                <g id="arrowRight" xlink:href="#dirArrow" transform="rotate(90) translate(36 -43)" onmousedown="handlePan(1,0)">
                  <use xlink:href="#rim" fill="#404040">
                        <set attributeName="fill" to="#808080" begin="arrowRight.mouseover" end="arrowRight.mouseout"/>
                  </use>
                  <path fill="none" stroke="white" stroke-width="1.5" d="M0,-3.0v7 M-2.5,-0.5L0,-3.0L2.5,-0.5"/>
                </g>
                <g id="arrowDown" xlink:href="#dirArrow" transform="rotate(180) translate(-30 -48)" onmousedown="handlePan(0,1)">
                  <use xlink:href="#rim" fill="#404040">
                        <set attributeName="fill" to="#808080" begin="arrowDown.mouseover" end="arrowDown.mouseout"/>
                  </use>
                  <path fill="none" stroke="white" stroke-width="1.5" d="M0,-3.0v7 M-2.5,-0.5L0,-3.0L2.5,-0.5"/>
                </g>
                <g id="arrowLeft" xlink:href="#dirArrow" transform="rotate(270) translate(-36 17)" onmousedown="handlePan(-1,0)">
                  <use xlink:href="#rim" fill="#404040">
                        <set attributeName="fill" to="#808080" begin="arrowLeft.mouseover" end="arrowLeft.mouseout"/>
                  </use>
                  <path fill="none" stroke="white" stroke-width="1.5" d="M0,-3.0v7 M-2.5,-0.5L0,-3.0L2.5,-0.5"/>
                </g>
        </g>
        <svg viewBox="0 0 15 15" width="100%" height="30px" preserveAspectRatio="xMaxYMin meet">
         <g id="arrow_out" transform="scale(0.3 0.3)">
          <a xlink:href="classMeta_1_1Numerics_1_1Statistics_1_1Distributions_1_1Distribution__inherit__graph_org.svg" target="_base">
           <rect id="button" ry="5" rx="5" y="6" x="6" height="38" width="38"
                fill="#f2f5e9" fill-opacity="0.5" stroke="#606060" stroke-width="1.0"/>
           <path id="arrow"
             d="M 11.500037,31.436501 C 11.940474,20.09759 22.043105,11.32322 32.158766,21.979434 L 37.068811,17.246167 C 37.068811,17.246167 37.088388,32 37.088388,32 L 22.160133,31.978069 C 22.160133,31.978069 26.997745,27.140456 26.997745,27.140456 C 18.528582,18.264221 13.291696,25.230495 11.500037,31.436501 z"
             style="fill:#404040;"/>
          </a>
         </g>
        </svg>
</svg>
