<?xml version="1.0" encoding="UTF-8" standalone="no"?>
<!DOCTYPE svg PUBLIC "-//W3C//DTD SVG 1.1//EN"
 "http://www.w3.org/Graphics/SVG/1.1/DTD/svg11.dtd">
<!-- Generated by graphviz version 2.38.0 (20140413.2041)
 -->
<!-- Title: AForge.Fuzzy.Rule Pages: 1 -->
<!--zoomable 180 -->
<svg id="main" version="1.1" xmlns="http://www.w3.org/2000/svg" xmlns:xlink="http://www.w3.org/1999/xlink" xml:space="preserve" onload="init(evt)">
<style type="text/css"><![CDATA[
.edge:hover path { stroke: red; }
.edge:hover polygon { stroke: red; fill: red; }
]]></style>
<script type="text/javascript"><![CDATA[
var edges = document.getElementsByTagName('g');
if (edges && edges.length) {
  for (var i=0;i<edges.length;i++) {
    if (edges[i].id.substr(0,4)=='edge') {
      edges[i].setAttribute('class','edge');
    }
  }
}
]]></script>
        <defs>
                <circle id="rim" cx="0" cy="0" r="7"/>
                <circle id="rim2" cx="0" cy="0" r="3.5"/>
                <g id="zoomPlus">
                        <use xlink:href="#rim" fill="#404040">
                                <set attributeName="fill" to="#808080" begin="zoomplus.mouseover" end="zoomplus.mouseout"/>
                        </use>
                        <path d="M-4,0h8M0,-4v8" fill="none" stroke="white" stroke-width="1.5" pointer-events="none"/>
                </g>
                <g id="zoomMin">
                        <use xlink:href="#rim" fill="#404040">
                                <set attributeName="fill" to="#808080" begin="zoomminus.mouseover" end="zoomminus.mouseout"/>
                        </use>
                        <path d="M-4,0h8" fill="none" stroke="white" stroke-width="1.5" pointer-events="none"/>
                </g>
                <g id="dirArrow">
                        <path fill="none" stroke="white" stroke-width="1.5" d="M0,-3.0v7 M-2.5,-0.5L0,-3.0L2.5,-0.5"/>
                </g>
               <g id="resetDef">
                       <use xlink:href="#rim2" fill="#404040">
                               <set attributeName="fill" to="#808080" begin="reset.mouseover" end="reset.mouseout"/>
                       </use>
               </g>
        </defs>

<script type="text/javascript">
var viewWidth = 804;
var viewHeight = 180;
var sectionId = 'dynsection-0';
</script>
<script xlink:href="../../svgpan.js"/>
<svg id="graph" class="graph">
<g id="viewport">
<title>AForge.Fuzzy.Rule</title>
<polygon fill="white" stroke="none" points="-4,4 -4,-176 800,-176 800,4 -4,4"/>
<!-- Node1 -->
<g id="node1" class="node"><title>Node1</title>
<g id="a_node1"><a xlink:title="This class represents a Fuzzy Rule, a linguistic expression representing some behavioral aspect of a ...">
<polygon fill="#bfbfbf" stroke="black" points="695,-76.5 695,-95.5 796,-95.5 796,-76.5 695,-76.5"/>
<text text-anchor="middle" x="745.5" y="-83.5" font-family="Helvetica,sans-Serif" font-size="10.00">AForge.Fuzzy.Rule</text>
</a>
</g>
</g>
<!-- Node2 -->
<g id="node2" class="node"><title>Node2</title>
<g id="a_node2"><a xlink:href="../../d1/dff/interfaceAForge_1_1Fuzzy_1_1INorm.html" target="_top" xlink:title="Interface with the common methods of a Fuzzy Norm.">
<polygon fill="white" stroke="black" points="459.5,-152.5 459.5,-171.5 566.5,-171.5 566.5,-152.5 459.5,-152.5"/>
<text text-anchor="middle" x="513" y="-159.5" font-family="Helvetica,sans-Serif" font-size="10.00">AForge.Fuzzy.INorm</text>
</a>
</g>
</g>
<!-- Node2&#45;&gt;Node1 -->
<g id="edge1" class="edge"><title>Node2&#45;&gt;Node1</title>
<path fill="none" stroke="#9a32cd" stroke-dasharray="5,2" d="M576.903,-153.542C607.782,-148.134 645.106,-139.69 677,-127 697.384,-118.89 718.655,-104.902 731.742,-95.5511"/>
<polygon fill="#9a32cd" stroke="#9a32cd" points="575.974,-150.149 566.695,-155.262 577.137,-157.052 575.974,-150.149"/>
<text text-anchor="middle" x="640.5" y="-150" font-family="Helvetica,sans-Serif" font-size="10.00"> normOperator</text>
</g>
<!-- Node3 -->
<g id="node3" class="node"><title>Node3</title>
<g id="a_node3"><a xlink:href="../../d3/da6/classAForge_1_1Fuzzy_1_1Database.html" target="_top" xlink:title="The class represents a fuzzy database, a set of linguistic variables used in a Fuzzy Inference System...">
<polygon fill="white" stroke="black" points="452,-114.5 452,-133.5 574,-133.5 574,-114.5 452,-114.5"/>
<text text-anchor="middle" x="513" y="-121.5" font-family="Helvetica,sans-Serif" font-size="10.00">AForge.Fuzzy.Database</text>
</a>
</g>
</g>
<!-- Node3&#45;&gt;Node1 -->
<g id="edge2" class="edge"><title>Node3&#45;&gt;Node1</title>
<path fill="none" stroke="#9a32cd" stroke-dasharray="5,2" d="M584.162,-115.327C613.005,-111.443 646.689,-106.498 677,-101 685.741,-99.4146 695.068,-97.4925 703.913,-95.5607"/>
<polygon fill="#9a32cd" stroke="#9a32cd" points="583.627,-111.867 574.176,-116.656 584.55,-118.806 583.627,-111.867"/>
<text text-anchor="middle" x="640.5" y="-115" font-family="Helvetica,sans-Serif" font-size="10.00"> database</text>
</g>
<!-- Node4 -->
<g id="node4" class="node"><title>Node4</title>
<g id="a_node4"><a xlink:href="../../da/d20/interfaceAForge_1_1Fuzzy_1_1ICoNorm.html" target="_top" xlink:title="Interface with the common methods of a Fuzzy CoNorm.">
<polygon fill="white" stroke="black" points="453.5,-76.5 453.5,-95.5 572.5,-95.5 572.5,-76.5 453.5,-76.5"/>
<text text-anchor="middle" x="513" y="-83.5" font-family="Helvetica,sans-Serif" font-size="10.00">AForge.Fuzzy.ICoNorm</text>
</a>
</g>
</g>
<!-- Node4&#45;&gt;Node1 -->
<g id="edge3" class="edge"><title>Node4&#45;&gt;Node1</title>
<path fill="none" stroke="#9a32cd" stroke-dasharray="5,2" d="M583.178,-86C619.119,-86 662.214,-86 694.819,-86"/>
<polygon fill="#9a32cd" stroke="#9a32cd" points="582.761,-82.5001 572.761,-86 582.761,-89.5001 582.761,-82.5001"/>
<text text-anchor="middle" x="640.5" y="-89" font-family="Helvetica,sans-Serif" font-size="10.00"> conormOperator</text>
</g>
<!-- Node5 -->
<g id="node5" class="node"><title>Node5</title>
<g id="a_node5"><a xlink:href="../../db/d18/classAForge_1_1Fuzzy_1_1Clause.html" target="_top" xlink:title="This class represents a fuzzy clause, a linguistic expression of the type &quot;Variable IS Value&quot;.">
<polygon fill="white" stroke="black" points="457.5,-38.5 457.5,-57.5 568.5,-57.5 568.5,-38.5 457.5,-38.5"/>
<text text-anchor="middle" x="513" y="-45.5" font-family="Helvetica,sans-Serif" font-size="10.00">AForge.Fuzzy.Clause</text>
</a>
</g>
</g>
<!-- Node5&#45;&gt;Node1 -->
<g id="edge4" class="edge"><title>Node5&#45;&gt;Node1</title>
<path fill="none" stroke="#9a32cd" stroke-dasharray="5,2" d="M578.443,-55.908C608.484,-59.8976 644.662,-65.1347 677,-71 685.741,-72.5854 695.068,-74.5075 703.913,-76.4393"/>
<polygon fill="#9a32cd" stroke="#9a32cd" points="578.875,-52.4348 568.505,-54.6037 577.964,-59.3753 578.875,-52.4348"/>
<text text-anchor="middle" x="640.5" y="-74" font-family="Helvetica,sans-Serif" font-size="10.00"> output</text>
</g>
<!-- Node6 -->
<g id="node6" class="node"><title>Node6</title>
<g id="a_node6"><a xlink:href="../../d7/dbf/classAForge_1_1Fuzzy_1_1LinguisticVariable.html" target="_top" xlink:title="The class represents a linguistic variable.">
<polygon fill="white" stroke="black" points="210,-57.5 210,-76.5 368,-76.5 368,-57.5 210,-57.5"/>
<text text-anchor="middle" x="289" y="-64.5" font-family="Helvetica,sans-Serif" font-size="10.00">AForge.Fuzzy.LinguisticVariable</text>
</a>
</g>
</g>
<!-- Node6&#45;&gt;Node5 -->
<g id="edge5" class="edge"><title>Node6&#45;&gt;Node5</title>
<path fill="none" stroke="#9a32cd" stroke-dasharray="5,2" d="M378.397,-59.4345C405.093,-57.1497 433.61,-54.7091 457.413,-52.6719"/>
<polygon fill="#9a32cd" stroke="#9a32cd" points="377.934,-55.9612 368.269,-60.3013 378.531,-62.9357 377.934,-55.9612"/>
<text text-anchor="middle" x="404" y="-61" font-family="Helvetica,sans-Serif" font-size="10.00"> variable</text>
</g>
<!-- Node7 -->
<g id="node7" class="node"><title>Node7</title>
<g id="a_node7"><a xlink:href="../../df/dda/classAForge_1_1Fuzzy_1_1FuzzySet.html" target="_top" xlink:title="The class represents a fuzzy set.">
<polygon fill="white" stroke="black" points="227.5,-19.5 227.5,-38.5 350.5,-38.5 350.5,-19.5 227.5,-19.5"/>
<text text-anchor="middle" x="289" y="-26.5" font-family="Helvetica,sans-Serif" font-size="10.00">AForge.Fuzzy.FuzzySet</text>
</a>
</g>
</g>
<!-- Node7&#45;&gt;Node5 -->
<g id="edge6" class="edge"><title>Node7&#45;&gt;Node5</title>
<path fill="none" stroke="#9a32cd" stroke-dasharray="5,2" d="M360.954,-34.8405C380.719,-36.487 402.197,-38.2947 422,-40 433.409,-40.9824 445.63,-42.0551 457.271,-43.0866"/>
<polygon fill="#9a32cd" stroke="#9a32cd" points="361.048,-31.3363 350.793,-33.9955 360.468,-38.3122 361.048,-31.3363"/>
<text text-anchor="middle" x="404" y="-43" font-family="Helvetica,sans-Serif" font-size="10.00"> label</text>
</g>
<!-- Node8 -->
<g id="node8" class="node"><title>Node8</title>
<g id="a_node8"><a xlink:href="../../d0/d72/interfaceAForge_1_1Fuzzy_1_1IMembershipFunction.html" target="_top" xlink:title="Interface which specifies set of methods required to be implemented by all membership functions.">
<polygon fill="white" stroke="black" points="0,-14 0,-44 137,-44 137,-14 0,-14"/>
<text text-anchor="start" x="8" y="-32" font-family="Helvetica,sans-Serif" font-size="10.00">AForge.Fuzzy.IMembership</text>
<text text-anchor="middle" x="68.5" y="-21" font-family="Helvetica,sans-Serif" font-size="10.00">Function</text>
</a>
</g>
</g>
<!-- Node8&#45;&gt;Node7 -->
<g id="edge7" class="edge"><title>Node8&#45;&gt;Node7</title>
<path fill="none" stroke="#9a32cd" stroke-dasharray="5,2" d="M147.444,-29C173.713,-29 202.62,-29 227.352,-29"/>
<polygon fill="#9a32cd" stroke="#9a32cd" points="147.138,-25.5001 137.138,-29 147.138,-32.5001 147.138,-25.5001"/>
<text text-anchor="middle" x="173.5" y="-32" font-family="Helvetica,sans-Serif" font-size="10.00"> function</text>
</g>
<!-- Node9 -->
<g id="node9" class="node"><title>Node9</title>
<g id="a_node9"><a xlink:href="../../d9/d0d/interfaceAForge_1_1Fuzzy_1_1IUnaryOperator.html" target="_top" xlink:title="Interface with the common methods of Fuzzy Unary Operator.">
<polygon fill="white" stroke="black" points="440,-0.5 440,-19.5 586,-19.5 586,-0.5 440,-0.5"/>
<text text-anchor="middle" x="513" y="-7.5" font-family="Helvetica,sans-Serif" font-size="10.00">AForge.Fuzzy.IUnaryOperator</text>
</a>
</g>
</g>
<!-- Node9&#45;&gt;Node1 -->
<g id="edge8" class="edge"><title>Node9&#45;&gt;Node1</title>
<path fill="none" stroke="#9a32cd" stroke-dasharray="5,2" d="M596.172,-21.3276C622.563,-26.4881 651.541,-33.7981 677,-44 697.499,-52.2141 718.741,-66.5668 731.791,-76.1763"/>
<polygon fill="#9a32cd" stroke="#9a32cd" points="596.672,-17.8603 586.197,-19.4536 595.379,-24.7399 596.672,-17.8603"/>
<text text-anchor="middle" x="640.5" y="-47" font-family="Helvetica,sans-Serif" font-size="10.00"> notOperator</text>
</g>
</g>
</svg>
        <g id="navigator" transform="translate(0 0)" fill="#404254">
                <rect fill="#f2f5e9" fill-opacity="0.5" stroke="#606060" stroke-width=".5" x="0" y="0" width="60" height="60"/>
                <use id="zoomplus" xlink:href="#zoomPlus" x="17" y="9" onmousedown="handleZoom(evt,'in')"/>
                <use id="zoomminus" xlink:href="#zoomMin" x="42" y="9" onmousedown="handleZoom(evt,'out')"/>
                <use id="reset" xlink:href="#resetDef" x="30" y="36" onmousedown="handleReset()"/>
                <g id="arrowUp" xlink:href="#dirArrow" transform="translate(30 24)" onmousedown="handlePan(0,-1)">
                  <use xlink:href="#rim" fill="#404040">
                        <set attributeName="fill" to="#808080" begin="arrowUp.mouseover" end="arrowUp.mouseout"/>
                  </use>
                  <path fill="none" stroke="white" stroke-width="1.5" d="M0,-3.0v7 M-2.5,-0.5L0,-3.0L2.5,-0.5"/>
                </g>
                <g id="arrowRight" xlink:href="#dirArrow" transform="rotate(90) translate(36 -43)" onmousedown="handlePan(1,0)">
                  <use xlink:href="#rim" fill="#404040">
                        <set attributeName="fill" to="#808080" begin="arrowRight.mouseover" end="arrowRight.mouseout"/>
                  </use>
                  <path fill="none" stroke="white" stroke-width="1.5" d="M0,-3.0v7 M-2.5,-0.5L0,-3.0L2.5,-0.5"/>
                </g>
                <g id="arrowDown" xlink:href="#dirArrow" transform="rotate(180) translate(-30 -48)" onmousedown="handlePan(0,1)">
                  <use xlink:href="#rim" fill="#404040">
                        <set attributeName="fill" to="#808080" begin="arrowDown.mouseover" end="arrowDown.mouseout"/>
                  </use>
                  <path fill="none" stroke="white" stroke-width="1.5" d="M0,-3.0v7 M-2.5,-0.5L0,-3.0L2.5,-0.5"/>
                </g>
                <g id="arrowLeft" xlink:href="#dirArrow" transform="rotate(270) translate(-36 17)" onmousedown="handlePan(-1,0)">
                  <use xlink:href="#rim" fill="#404040">
                        <set attributeName="fill" to="#808080" begin="arrowLeft.mouseover" end="arrowLeft.mouseout"/>
                  </use>
                  <path fill="none" stroke="white" stroke-width="1.5" d="M0,-3.0v7 M-2.5,-0.5L0,-3.0L2.5,-0.5"/>
                </g>
        </g>
        <svg viewBox="0 0 15 15" width="100%" height="30px" preserveAspectRatio="xMaxYMin meet">
         <g id="arrow_out" transform="scale(0.3 0.3)">
          <a xlink:href="classAForge_1_1Fuzzy_1_1Rule__coll__graph_org.svg" target="_base">
           <rect id="button" ry="5" rx="5" y="6" x="6" height="38" width="38"
                fill="#f2f5e9" fill-opacity="0.5" stroke="#606060" stroke-width="1.0"/>
           <path id="arrow"
             d="M 11.500037,31.436501 C 11.940474,20.09759 22.043105,11.32322 32.158766,21.979434 L 37.068811,17.246167 C 37.068811,17.246167 37.088388,32 37.088388,32 L 22.160133,31.978069 C 22.160133,31.978069 26.997745,27.140456 26.997745,27.140456 C 18.528582,18.264221 13.291696,25.230495 11.500037,31.436501 z"
             style="fill:#404040;"/>
          </a>
         </g>
        </svg>
</svg>
