<?xml version="1.0" encoding="UTF-8" standalone="no"?>
<!DOCTYPE svg PUBLIC "-//W3C//DTD SVG 1.1//EN"
 "http://www.w3.org/Graphics/SVG/1.1/DTD/svg11.dtd">
<!-- Generated by graphviz version 2.38.0 (20140413.2041)
 -->
<!-- Title: AForge.Vision.Motion.TwoFramesDifferenceDetector Pages: 1 -->
<svg width="696pt" height="180pt"
 viewBox="0.00 0.00 696.00 180.00" xmlns="http://www.w3.org/2000/svg" xmlns:xlink="http://www.w3.org/1999/xlink">
<g id="graph0" class="graph" transform="scale(1 1) rotate(0) translate(4 176)">
<title>AForge.Vision.Motion.TwoFramesDifferenceDetector</title>
<polygon fill="white" stroke="none" points="-4,4 -4,-176 692,-176 692,4 -4,4"/>
<!-- Node1 -->
<g id="node1" class="node"><title>Node1</title>
<g id="a_node1"><a xlink:title="Motion detector based on two continues frames difference.">
<polygon fill="#bfbfbf" stroke="black" points="557,-99 557,-129 688,-129 688,-99 557,-99"/>
<text text-anchor="start" x="565" y="-117" font-family="Helvetica,sans-Serif" font-size="10.00">AForge.Vision.Motion.Two</text>
<text text-anchor="middle" x="622.5" y="-106" font-family="Helvetica,sans-Serif" font-size="10.00">FramesDifferenceDetector</text>
</a>
</g>
</g>
<!-- Node2 -->
<g id="node2" class="node"><title>Node2</title>
<g id="a_node2"><a xlink:href="../../d2/d43/interfaceAForge_1_1Vision_1_1Motion_1_1IMotionDetector.html" target="_top" xlink:title="Interface of motion detector algorithm.">
<polygon fill="white" stroke="black" points="341.5,-152.5 341.5,-171.5 426.5,-171.5 426.5,-152.5 341.5,-152.5"/>
<text text-anchor="middle" x="384" y="-159.5" font-family="Helvetica,sans-Serif" font-size="10.00">IMotionDetector</text>
</a>
</g>
</g>
<!-- Node2&#45;&gt;Node1 -->
<g id="edge1" class="edge"><title>Node2&#45;&gt;Node1</title>
<path fill="none" stroke="midnightblue" d="M437.029,-161.143C467.177,-159.69 505.649,-156.189 539,-148 556.903,-143.604 575.989,-135.948 591.289,-129.013"/>
<polygon fill="midnightblue" stroke="midnightblue" points="436.578,-157.659 426.734,-161.576 436.873,-164.653 436.578,-157.659"/>
</g>
<!-- Node3 -->
<g id="node3" class="node"><title>Node3</title>
<g id="a_node3"><a xlink:href="../../d0/d77/classAForge_1_1Imaging_1_1UnmanagedImage.html" target="_top" xlink:title="Image in unmanaged memory.">
<polygon fill="white" stroke="black" points="314,-101 314,-131 454,-131 454,-101 314,-101"/>
<text text-anchor="start" x="322" y="-119" font-family="Helvetica,sans-Serif" font-size="10.00">AForge.Imaging.Unmanaged</text>
<text text-anchor="middle" x="384" y="-108" font-family="Helvetica,sans-Serif" font-size="10.00">Image</text>
</a>
</g>
</g>
<!-- Node3&#45;&gt;Node1 -->
<g id="edge2" class="edge"><title>Node3&#45;&gt;Node1</title>
<path fill="none" stroke="#9a32cd" stroke-dasharray="5,2" d="M464.421,-115.099C467.996,-115.064 471.536,-115.031 475,-115 501.832,-114.759 531.43,-114.547 556.956,-114.381"/>
<polygon fill="#9a32cd" stroke="#9a32cd" points="464.246,-111.6 454.281,-115.2 464.316,-118.6 464.246,-111.6"/>
<text text-anchor="middle" x="507" y="-140" font-family="Helvetica,sans-Serif" font-size="10.00"> tempFrame</text>
<text text-anchor="middle" x="507" y="-129" font-family="Helvetica,sans-Serif" font-size="10.00">previousFrame</text>
<text text-anchor="middle" x="507" y="-118" font-family="Helvetica,sans-Serif" font-size="10.00">motionFrame</text>
</g>
<!-- Node4 -->
<g id="node4" class="node"><title>Node4</title>
<g id="a_node4"><a xlink:title=" ">
<polygon fill="white" stroke="#bfbfbf" points="172.5,-106.5 172.5,-125.5 239.5,-125.5 239.5,-106.5 172.5,-106.5"/>
<text text-anchor="middle" x="206" y="-113.5" font-family="Helvetica,sans-Serif" font-size="10.00">IDisposable</text>
</a>
</g>
</g>
<!-- Node4&#45;&gt;Node3 -->
<g id="edge3" class="edge"><title>Node4&#45;&gt;Node3</title>
<path fill="none" stroke="midnightblue" d="M249.903,-116C269.069,-116 292.147,-116 313.664,-116"/>
<polygon fill="midnightblue" stroke="midnightblue" points="249.692,-112.5 239.692,-116 249.692,-119.5 249.692,-112.5"/>
</g>
<!-- Node5 -->
<g id="node5" class="node"><title>Node5</title>
<g id="a_node5"><a xlink:href="../../dd/de9/classAForge_1_1Imaging_1_1Filters_1_1BinaryErosion3x3.html" target="_top" xlink:title="Binary erosion operator from Mathematical Morphology with 3x3 structuring element.">
<polygon fill="white" stroke="black" points="311,-52 311,-82 457,-82 457,-52 311,-52"/>
<text text-anchor="start" x="319" y="-70" font-family="Helvetica,sans-Serif" font-size="10.00">AForge.Imaging.Filters.Binary</text>
<text text-anchor="middle" x="384" y="-59" font-family="Helvetica,sans-Serif" font-size="10.00">Erosion3x3</text>
</a>
</g>
</g>
<!-- Node5&#45;&gt;Node1 -->
<g id="edge4" class="edge"><title>Node5&#45;&gt;Node1</title>
<path fill="none" stroke="#9a32cd" stroke-dasharray="5,2" d="M467.078,-83.3116C496.49,-89.1565 529.204,-95.658 556.924,-101.167"/>
<polygon fill="#9a32cd" stroke="#9a32cd" points="467.733,-79.8733 457.243,-81.3569 466.369,-86.7391 467.733,-79.8733"/>
<text text-anchor="middle" x="507" y="-100" font-family="Helvetica,sans-Serif" font-size="10.00"> erosionFilter</text>
</g>
<!-- Node6 -->
<g id="node6" class="node"><title>Node6</title>
<g id="a_node6"><a xlink:href="../../d8/ddf/classAForge_1_1Imaging_1_1Filters_1_1BaseUsingCopyPartialFilter.html" target="_top" xlink:title="Base class for filters, which require source image backup to make them applicable to source image (or...">
<polygon fill="white" stroke="black" points="138,-57.5 138,-76.5 274,-76.5 274,-57.5 138,-57.5"/>
<text text-anchor="middle" x="206" y="-64.5" font-family="Helvetica,sans-Serif" font-size="10.00">BaseUsingCopyPartialFilter</text>
</a>
</g>
</g>
<!-- Node6&#45;&gt;Node5 -->
<g id="edge5" class="edge"><title>Node6&#45;&gt;Node5</title>
<path fill="none" stroke="midnightblue" d="M284.314,-67C293.141,-67 302.114,-67 310.871,-67"/>
<polygon fill="midnightblue" stroke="midnightblue" points="284.04,-63.5001 274.04,-67 284.04,-70.5001 284.04,-63.5001"/>
</g>
<!-- Node7 -->
<g id="node7" class="node"><title>Node7</title>
<g id="a_node7"><a xlink:href="../../dd/d51/interfaceAForge_1_1Imaging_1_1Filters_1_1IFilter.html" target="_top" xlink:title="Image processing filter interface.">
<polygon fill="white" stroke="black" points="30,-114.5 30,-133.5 71,-133.5 71,-114.5 30,-114.5"/>
<text text-anchor="middle" x="50.5" y="-121.5" font-family="Helvetica,sans-Serif" font-size="10.00">IFilter</text>
</a>
</g>
</g>
<!-- Node7&#45;&gt;Node6 -->
<g id="edge6" class="edge"><title>Node7&#45;&gt;Node6</title>
<path fill="none" stroke="midnightblue" d="M80.6629,-113.171C109.102,-102.61 151.941,-86.7025 179.18,-76.5877"/>
<polygon fill="midnightblue" stroke="midnightblue" points="79.4093,-109.903 71.2532,-116.665 81.8461,-116.465 79.4093,-109.903"/>
</g>
<!-- Node8 -->
<g id="node8" class="node"><title>Node8</title>
<g id="a_node8"><a xlink:href="../../de/d9b/interfaceAForge_1_1Imaging_1_1Filters_1_1IInPlaceFilter.html" target="_top" xlink:title="In&#45;place filter interface.">
<polygon fill="white" stroke="black" points="14,-76.5 14,-95.5 87,-95.5 87,-76.5 14,-76.5"/>
<text text-anchor="middle" x="50.5" y="-83.5" font-family="Helvetica,sans-Serif" font-size="10.00">IInPlaceFilter</text>
</a>
</g>
</g>
<!-- Node8&#45;&gt;Node6 -->
<g id="edge7" class="edge"><title>Node8&#45;&gt;Node6</title>
<path fill="none" stroke="midnightblue" d="M97.0558,-80.3612C109.886,-78.7731 124.117,-77.0116 137.924,-75.3026"/>
<polygon fill="midnightblue" stroke="midnightblue" points="96.5961,-76.8913 87.1018,-81.5933 97.456,-83.8383 96.5961,-76.8913"/>
</g>
<!-- Node9 -->
<g id="node9" class="node"><title>Node9</title>
<g id="a_node9"><a xlink:href="../../d2/d66/interfaceAForge_1_1Imaging_1_1Filters_1_1IInPlacePartialFilter.html" target="_top" xlink:title="In&#45;place partial filter interface.">
<polygon fill="white" stroke="black" points="0,-38.5 0,-57.5 101,-57.5 101,-38.5 0,-38.5"/>
<text text-anchor="middle" x="50.5" y="-45.5" font-family="Helvetica,sans-Serif" font-size="10.00">IInPlacePartialFilter</text>
</a>
</g>
</g>
<!-- Node9&#45;&gt;Node6 -->
<g id="edge8" class="edge"><title>Node9&#45;&gt;Node6</title>
<path fill="none" stroke="midnightblue" d="M111.357,-55.409C120.035,-56.4832 129.017,-57.5949 137.827,-58.6854"/>
<polygon fill="midnightblue" stroke="midnightblue" points="111.691,-51.9238 101.337,-54.1688 110.831,-58.8707 111.691,-51.9238"/>
</g>
<!-- Node10 -->
<g id="node10" class="node"><title>Node10</title>
<g id="a_node10"><a xlink:href="../../d7/dec/interfaceAForge_1_1Imaging_1_1Filters_1_1IFilterInformation.html" target="_top" xlink:title="Interface which provides information about image processing filter.">
<polygon fill="white" stroke="black" points="6.5,-0.5 6.5,-19.5 94.5,-19.5 94.5,-0.5 6.5,-0.5"/>
<text text-anchor="middle" x="50.5" y="-7.5" font-family="Helvetica,sans-Serif" font-size="10.00">IFilterInformation</text>
</a>
</g>
</g>
<!-- Node10&#45;&gt;Node6 -->
<g id="edge9" class="edge"><title>Node10&#45;&gt;Node6</title>
<path fill="none" stroke="midnightblue" d="M86.6851,-23.0655C114.9,-33.5428 153.847,-48.0051 179.224,-57.4284"/>
<polygon fill="midnightblue" stroke="midnightblue" points="87.7854,-19.7406 77.1924,-19.5405 85.3486,-26.3028 87.7854,-19.7406"/>
</g>
</g>
</svg>
