<?xml version="1.0" encoding="UTF-8" standalone="no"?>
<!DOCTYPE svg PUBLIC "-//W3C//DTD SVG 1.1//EN"
 "http://www.w3.org/Graphics/SVG/1.1/DTD/svg11.dtd">
<!-- Generated by graphviz version 2.38.0 (20140413.2041)
 -->
<!-- Title: NUnit.Framework.Constraints.CollectionTally Pages: 1 -->
<svg width="685pt" height="148pt"
 viewBox="0.00 0.00 685.00 148.00" xmlns="http://www.w3.org/2000/svg" xmlns:xlink="http://www.w3.org/1999/xlink">
<g id="graph0" class="graph" transform="scale(1 1) rotate(0) translate(4 144)">
<title>NUnit.Framework.Constraints.CollectionTally</title>
<polygon fill="white" stroke="none" points="-4,4 -4,-144 681,-144 681,4 -4,4"/>
<!-- Node1 -->
<g id="node1" class="node"><title>Node1</title>
<g id="a_node1"><a xlink:title="CollectionTally counts (tallies) the number of occurrences of each object in one or more enumerations...">
<polygon fill="#bfbfbf" stroke="black" points="530,-72 530,-102 677,-102 677,-72 530,-72"/>
<text text-anchor="start" x="538" y="-90" font-family="Helvetica,sans-Serif" font-size="10.00">NUnit.Framework.Constraints.</text>
<text text-anchor="middle" x="603.5" y="-79" font-family="Helvetica,sans-Serif" font-size="10.00">CollectionTally</text>
</a>
</g>
</g>
<!-- Node2 -->
<g id="node2" class="node"><title>Node2</title>
<g id="a_node2"><a xlink:href="../../d7/d49/classNUnit_1_1Framework_1_1List.html" target="_top" xlink:title=" ">
<polygon fill="white" stroke="black" points="321.5,-93 321.5,-123 431.5,-123 431.5,-93 321.5,-93"/>
<text text-anchor="start" x="329.5" y="-111" font-family="Helvetica,sans-Serif" font-size="10.00">NUnit.Framework.List</text>
<text text-anchor="middle" x="376.5" y="-100" font-family="Helvetica,sans-Serif" font-size="10.00">&lt; object &gt;</text>
</a>
</g>
</g>
<!-- Node2&#45;&gt;Node1 -->
<g id="edge1" class="edge"><title>Node2&#45;&gt;Node1</title>
<path fill="none" stroke="#9a32cd" stroke-dasharray="5,2" d="M441.931,-101.986C469.325,-99.4296 501.403,-96.4357 529.654,-93.7989"/>
<polygon fill="#9a32cd" stroke="#9a32cd" points="441.311,-98.529 431.679,-102.943 441.961,-105.499 441.311,-98.529"/>
<text text-anchor="middle" x="490" y="-102" font-family="Helvetica,sans-Serif" font-size="10.00"> list</text>
</g>
<!-- Node3 -->
<g id="node3" class="node"><title>Node3</title>
<g id="a_node3"><a xlink:href="../../d9/d74/classNUnit_1_1Framework_1_1Constraints_1_1NUnitEqualityComparer.html" target="_top" xlink:title="NUnitEqualityComparer encapsulates NUnit&#39;s handling of equality tests between objects.">
<polygon fill="white" stroke="black" points="303,-44 303,-74 450,-74 450,-44 303,-44"/>
<text text-anchor="start" x="311" y="-62" font-family="Helvetica,sans-Serif" font-size="10.00">NUnit.Framework.Constraints.</text>
<text text-anchor="middle" x="376.5" y="-51" font-family="Helvetica,sans-Serif" font-size="10.00">NUnitEqualityComparer</text>
</a>
</g>
</g>
<!-- Node3&#45;&gt;Node1 -->
<g id="edge2" class="edge"><title>Node3&#45;&gt;Node1</title>
<path fill="none" stroke="#9a32cd" stroke-dasharray="5,2" d="M460.213,-69.2932C482.966,-72.1247 507.471,-75.1741 529.625,-77.9311"/>
<polygon fill="#9a32cd" stroke="#9a32cd" points="460.596,-65.8139 450.24,-68.0521 459.732,-72.7603 460.596,-65.8139"/>
<text text-anchor="middle" x="490" y="-78" font-family="Helvetica,sans-Serif" font-size="10.00"> comparer</text>
</g>
<!-- Node4 -->
<g id="node4" class="node"><title>Node4</title>
<g id="a_node4"><a xlink:href="../../d7/d49/classNUnit_1_1Framework_1_1List.html" target="_top" xlink:title=" ">
<polygon fill="white" stroke="black" points="0,-98.5 0,-139.5 182,-139.5 182,-98.5 0,-98.5"/>
<text text-anchor="start" x="8" y="-127.5" font-family="Helvetica,sans-Serif" font-size="10.00">NUnit.Framework.List</text>
<text text-anchor="start" x="8" y="-116.5" font-family="Helvetica,sans-Serif" font-size="10.00">&lt; NUnit.Framework.Constraints.</text>
<text text-anchor="middle" x="91" y="-105.5" font-family="Helvetica,sans-Serif" font-size="10.00">NUnitEqualityComparer.FailurePoint &gt;</text>
</a>
</g>
</g>
<!-- Node4&#45;&gt;Node3 -->
<g id="edge3" class="edge"><title>Node4&#45;&gt;Node3</title>
<path fill="none" stroke="#9a32cd" stroke-dasharray="5,2" d="M191.944,-97.8479C229.104,-89.9833 270.474,-81.2278 304.518,-74.0226"/>
<polygon fill="#9a32cd" stroke="#9a32cd" points="191.149,-94.4384 182.091,-99.9332 192.599,-101.287 191.149,-94.4384"/>
<text text-anchor="middle" x="242.5" y="-99" font-family="Helvetica,sans-Serif" font-size="10.00"> failurePoints</text>
</g>
<!-- Node5 -->
<g id="node5" class="node"><title>Node5</title>
<g id="a_node5"><a xlink:href="../../d7/d49/classNUnit_1_1Framework_1_1List.html" target="_top" xlink:title=" ">
<polygon fill="white" stroke="black" points="13,-38.5 13,-79.5 169,-79.5 169,-38.5 13,-38.5"/>
<text text-anchor="start" x="21" y="-67.5" font-family="Helvetica,sans-Serif" font-size="10.00">NUnit.Framework.List</text>
<text text-anchor="start" x="21" y="-56.5" font-family="Helvetica,sans-Serif" font-size="10.00">&lt; NUnit.Framework.Constraints.</text>
<text text-anchor="middle" x="91" y="-45.5" font-family="Helvetica,sans-Serif" font-size="10.00">EqualityAdapter &gt;</text>
</a>
</g>
</g>
<!-- Node5&#45;&gt;Node3 -->
<g id="edge4" class="edge"><title>Node5&#45;&gt;Node3</title>
<path fill="none" stroke="#9a32cd" stroke-dasharray="5,2" d="M179.27,-59C218.863,-59 265.143,-59 302.812,-59"/>
<polygon fill="#9a32cd" stroke="#9a32cd" points="179.093,-55.5001 169.093,-59 179.093,-62.5001 179.093,-55.5001"/>
<text text-anchor="middle" x="242.5" y="-62" font-family="Helvetica,sans-Serif" font-size="10.00"> externalComparers</text>
</g>
<!-- Node6 -->
<g id="node6" class="node"><title>Node6</title>
<g id="a_node6"><a xlink:title=" ">
<polygon fill="white" stroke="#bfbfbf" points="70.5,-0.5 70.5,-19.5 111.5,-19.5 111.5,-0.5 70.5,-0.5"/>
<text text-anchor="middle" x="91" y="-7.5" font-family="Helvetica,sans-Serif" font-size="10.00">static</text>
</a>
</g>
</g>
<!-- Node6&#45;&gt;Node3 -->
<g id="edge5" class="edge"><title>Node6&#45;&gt;Node3</title>
<path fill="none" stroke="#9a32cd" stroke-dasharray="5,2" d="M121.943,-15.1753C164.568,-22.5427 244.072,-36.284 302.733,-46.4229"/>
<polygon fill="#9a32cd" stroke="#9a32cd" points="122.385,-11.6999 111.935,-13.4456 121.193,-18.5977 122.385,-11.6999"/>
<text text-anchor="middle" x="242.5" y="-46" font-family="Helvetica,sans-Serif" font-size="10.00"> BUFFER_SIZE</text>
</g>
</g>
</svg>
