<?xml version="1.0" encoding="UTF-8" standalone="no"?>
<!DOCTYPE svg PUBLIC "-//W3C//DTD SVG 1.1//EN"
 "http://www.w3.org/Graphics/SVG/1.1/DTD/svg11.dtd">
<!-- Generated by graphviz version 2.38.0 (20140413.2041)
 -->
<!-- Title: IG.Lib.opt.opttest.ParticlePotentialProblem.ConstraintFunctionParticleConstraint Pages: 1 -->
<!--zoomable 377 -->
<svg id="main" version="1.1" xmlns="http://www.w3.org/2000/svg" xmlns:xlink="http://www.w3.org/1999/xlink" xml:space="preserve" onload="init(evt)">
<style type="text/css"><![CDATA[
.edge:hover path { stroke: red; }
.edge:hover polygon { stroke: red; fill: red; }
]]></style>
<script type="text/javascript"><![CDATA[
var edges = document.getElementsByTagName('g');
if (edges && edges.length) {
  for (var i=0;i<edges.length;i++) {
    if (edges[i].id.substr(0,4)=='edge') {
      edges[i].setAttribute('class','edge');
    }
  }
}
]]></script>
        <defs>
                <circle id="rim" cx="0" cy="0" r="7"/>
                <circle id="rim2" cx="0" cy="0" r="3.5"/>
                <g id="zoomPlus">
                        <use xlink:href="#rim" fill="#404040">
                                <set attributeName="fill" to="#808080" begin="zoomplus.mouseover" end="zoomplus.mouseout"/>
                        </use>
                        <path d="M-4,0h8M0,-4v8" fill="none" stroke="white" stroke-width="1.5" pointer-events="none"/>
                </g>
                <g id="zoomMin">
                        <use xlink:href="#rim" fill="#404040">
                                <set attributeName="fill" to="#808080" begin="zoomminus.mouseover" end="zoomminus.mouseout"/>
                        </use>
                        <path d="M-4,0h8" fill="none" stroke="white" stroke-width="1.5" pointer-events="none"/>
                </g>
                <g id="dirArrow">
                        <path fill="none" stroke="white" stroke-width="1.5" d="M0,-3.0v7 M-2.5,-0.5L0,-3.0L2.5,-0.5"/>
                </g>
               <g id="resetDef">
                       <use xlink:href="#rim2" fill="#404040">
                               <set attributeName="fill" to="#808080" begin="reset.mouseover" end="reset.mouseout"/>
                       </use>
               </g>
        </defs>

<script type="text/javascript">
var viewWidth = 1133;
var viewHeight = 377;
var sectionId = 'dynsection-1';
</script>
<script xlink:href="../../svgpan.js"/>
<svg id="graph" class="graph">
<g id="viewport">
<title>IG.Lib.opt.opttest.ParticlePotentialProblem.ConstraintFunctionParticleConstraint</title>
<polygon fill="white" stroke="none" points="-4,4 -4,-373.031 1129,-373.031 1129,4 -4,4"/>
<!-- Node1 -->
<g id="node1" class="node"><title>Node1</title>
<g id="a_node1"><a xlink:title="Class that returns the objective function (total potential energy) of the specified particle potentia...">
<polygon fill="#bfbfbf" stroke="black" points="949,-246.891 949,-287.891 1125,-287.891 1125,-246.891 949,-246.891"/>
<text text-anchor="start" x="957" y="-275.891" font-family="Helvetica,sans-Serif" font-size="10.00">IG.Lib.opt.opttest.Particle</text>
<text text-anchor="start" x="957" y="-264.891" font-family="Helvetica,sans-Serif" font-size="10.00">PotentialProblem.ConstraintFunction</text>
<text text-anchor="middle" x="1037" y="-253.891" font-family="Helvetica,sans-Serif" font-size="10.00">ParticleConstraint</text>
</a>
</g>
</g>
<!-- Node2 -->
<g id="node2" class="node"><title>Node2</title>
<g id="a_node2"><a xlink:href="../../d2/d85/classIG_1_1Num_1_1ScalarFunctionBase.html" target="_top" xlink:title="Base class for scalar functions with affine transformation of co&#45;ordinates. The reference function is...">
<polygon fill="white" stroke="black" points="453,-71.8908 453,-90.8908 557,-90.8908 557,-71.8908 453,-71.8908"/>
<text text-anchor="middle" x="505" y="-78.8908" font-family="Helvetica,sans-Serif" font-size="10.00">ScalarFunctionBase</text>
</a>
</g>
</g>
<!-- Node2&#45;&gt;Node1 -->
<g id="edge1" class="edge"><title>Node2&#45;&gt;Node1</title>
<path fill="none" stroke="midnightblue" d="M542.949,-94.3577C633.533,-126.148 867.253,-208.17 977.191,-246.752"/>
<polygon fill="midnightblue" stroke="midnightblue" points="543.974,-91.0082 533.379,-90.9993 541.656,-97.6133 543.974,-91.0082"/>
</g>
<!-- Node3 -->
<g id="node3" class="node"><title>Node3</title>
<g id="a_node3"><a xlink:href="../../d2/d9e/classIG_1_1Num_1_1ScalarFunctionUntransformedBase.html" target="_top" xlink:title="Base class for defining scalar functions without possibility of affine transformation of parameters.">
<polygon fill="white" stroke="black" points="184,-190.891 184,-209.891 351,-209.891 351,-190.891 184,-190.891"/>
<text text-anchor="middle" x="267.5" y="-197.891" font-family="Helvetica,sans-Serif" font-size="10.00">ScalarFunctionUntransformedBase</text>
</a>
</g>
</g>
<!-- Node3&#45;&gt;Node2 -->
<g id="edge2" class="edge"><title>Node3&#45;&gt;Node2</title>
<path fill="none" stroke="midnightblue" d="M306.537,-186.674C322.447,-179.139 339.805,-168.247 351,-153.391 371.37,-126.359 342.387,-100.306 369,-79.3908 399.501,-55.4196 446.987,-63.2783 476.75,-71.8304"/>
<polygon fill="midnightblue" stroke="midnightblue" points="305.117,-183.475 297.394,-190.728 307.954,-189.875 305.117,-183.475"/>
</g>
<!-- Node11 -->
<g id="node11" class="node"><title>Node11</title>
<g id="a_node11"><a xlink:href="../../d2/d85/classIG_1_1Num_1_1ScalarFunctionBase.html" target="_top" xlink:title="Base class for scalar functions with affine transformation of co&#45;ordinates. The reference function is...">
<polygon fill="white" stroke="black" points="435,-226.891 435,-245.891 575,-245.891 575,-226.891 435,-226.891"/>
<text text-anchor="middle" x="505" y="-233.891" font-family="Helvetica,sans-Serif" font-size="10.00">IG.Num.ScalarFunctionBase</text>
</a>
</g>
</g>
<!-- Node3&#45;&gt;Node11 -->
<g id="edge13" class="edge"><title>Node3&#45;&gt;Node11</title>
<path fill="none" stroke="midnightblue" d="M340.921,-211.461C373.076,-216.377 410.554,-222.106 441.468,-226.832"/>
<polygon fill="midnightblue" stroke="midnightblue" points="341.097,-207.948 330.683,-209.896 340.039,-214.867 341.097,-207.948"/>
</g>
<!-- Node4 -->
<g id="node4" class="node"><title>Node4</title>
<g id="a_node4"><a xlink:href="../../d8/d56/interfaceIG_1_1Num_1_1IScalarFunctionUntransformed.html" target="_top" xlink:title="Scalar functions of vector arguments.">
<polygon fill="white" stroke="black" points="0,-249.891 0,-268.891 147,-268.891 147,-249.891 0,-249.891"/>
<text text-anchor="middle" x="73.5" y="-256.891" font-family="Helvetica,sans-Serif" font-size="10.00">IScalarFunctionUntransformed</text>
</a>
</g>
</g>
<!-- Node4&#45;&gt;Node3 -->
<g id="edge3" class="edge"><title>Node4&#45;&gt;Node3</title>
<path fill="none" stroke="midnightblue" d="M107.488,-246.127C129.038,-237.765 157.919,-227.125 184,-219.391 195.696,-215.922 208.48,-212.706 220.417,-209.942"/>
<polygon fill="midnightblue" stroke="midnightblue" points="106.173,-242.883 98.1393,-249.79 108.727,-249.401 106.173,-242.883"/>
</g>
<!-- Node5 -->
<g id="node5" class="node"><title>Node5</title>
<g id="a_node5"><a xlink:href="../../dd/d1e/interfaceIG_1_1Num_1_1IScalarFunction.html" target="_top" xlink:title="Scalar functions of vector arguments, with eventual affine transformation of parameters....">
<polygon fill="white" stroke="black" points="225.5,-290.891 225.5,-309.891 309.5,-309.891 309.5,-290.891 225.5,-290.891"/>
<text text-anchor="middle" x="267.5" y="-297.891" font-family="Helvetica,sans-Serif" font-size="10.00">IScalarFunction</text>
</a>
</g>
</g>
<!-- Node4&#45;&gt;Node5 -->
<g id="edge5" class="edge"><title>Node4&#45;&gt;Node5</title>
<path fill="none" stroke="midnightblue" d="M129.134,-271.057C159.779,-277.601 197.378,-285.63 225.488,-291.633"/>
<polygon fill="midnightblue" stroke="midnightblue" points="129.542,-267.566 119.031,-268.9 128.08,-274.411 129.542,-267.566"/>
</g>
<!-- Node5&#45;&gt;Node1 -->
<g id="edge9" class="edge"><title>Node5&#45;&gt;Node1</title>
<path fill="none" stroke="midnightblue" d="M297.792,-314.222C330.42,-328.802 385.149,-350.82 435,-359.391 635.256,-393.823 874.171,-324.452 980.374,-287.92"/>
<polygon fill="midnightblue" stroke="midnightblue" points="298.957,-310.908 288.405,-309.959 296.063,-317.281 298.957,-310.908"/>
</g>
<!-- Node5&#45;&gt;Node2 -->
<g id="edge4" class="edge"><title>Node5&#45;&gt;Node2</title>
<path fill="none" stroke="midnightblue" d="M319.889,-291.985C357.255,-284.84 403.549,-273.504 417,-259.391 442.143,-233.009 420.226,-212.707 435,-179.391 450.858,-143.63 480.637,-107.541 495.338,-90.8916"/>
<polygon fill="midnightblue" stroke="midnightblue" points="318.816,-288.624 309.622,-293.887 320.092,-295.507 318.816,-288.624"/>
</g>
<!-- Node5&#45;&gt;Node11 -->
<g id="edge14" class="edge"><title>Node5&#45;&gt;Node11</title>
<path fill="none" stroke="midnightblue" d="M319.813,-304.687C349.573,-305.086 386.98,-301.887 417,-287.391 427.475,-282.333 425.555,-275.181 435,-268.391 447.973,-259.064 464.097,-251.405 477.496,-245.921"/>
<polygon fill="midnightblue" stroke="midnightblue" points="319.722,-301.184 309.63,-304.409 319.531,-308.181 319.722,-301.184"/>
</g>
<!-- Node6 -->
<g id="node6" class="node"><title>Node6</title>
<g id="a_node6"><a xlink:href="../../d8/d86/interfaceIG_1_1Num_1_1IMatrix.html" target="_top" xlink:title="Generic Matrix interface.">
<polygon fill="white" stroke="black" points="197.5,-20.3908 197.5,-50.3908 337.5,-50.3908 337.5,-20.3908 197.5,-20.3908"/>
<text text-anchor="start" x="205.5" y="-38.3908" font-family="Helvetica,sans-Serif" font-size="10.00">IG.Num.IMatrix&lt; Component</text>
<text text-anchor="middle" x="267.5" y="-27.3908" font-family="Helvetica,sans-Serif" font-size="10.00">Type &gt;</text>
</a>
</g>
</g>
<!-- Node6&#45;&gt;Node2 -->
<g id="edge6" class="edge"><title>Node6&#45;&gt;Node2</title>
<path fill="none" stroke="#9a32cd" stroke-dasharray="5,2" d="M307.733,-16.35C338.232,-4.23327 381.227,6.9 417,-6.39079 452.517,-19.5867 483.237,-54.5081 496.716,-71.6374"/>
<polygon fill="#9a32cd" stroke="#9a32cd" points="306.175,-13.2075 298.294,-20.2889 308.871,-19.6676 306.175,-13.2075"/>
<text text-anchor="middle" x="393" y="-9.39079" font-family="Helvetica,sans-Serif" font-size="10.00"> _refHess</text>
</g>
<!-- Node6&#45;&gt;Node11 -->
<g id="edge15" class="edge"><title>Node6&#45;&gt;Node11</title>
<path fill="none" stroke="#9a32cd" stroke-dasharray="5,2" d="M293.635,-57.2084C313.873,-74.7003 343.113,-99.8043 369,-121.391 390.111,-138.995 401.544,-137.661 417,-160.391 431.939,-182.359 415.869,-198.958 435,-217.391 439.026,-221.27 443.769,-224.373 448.852,-226.852"/>
<polygon fill="#9a32cd" stroke="#9a32cd" points="295.667,-54.3382 285.815,-50.441 291.087,-59.6314 295.667,-54.3382"/>
<text text-anchor="middle" x="393" y="-163.391" font-family="Helvetica,sans-Serif" font-size="10.00"> _refHess</text>
</g>
<!-- Node7 -->
<g id="node7" class="node"><title>Node7</title>
<g id="a_node7"><a xlink:href="../../d3/d24/interfaceIG_1_1Num_1_1IVector.html" target="_top" xlink:title="Generic Vector interface">
<polygon fill="white" stroke="black" points="214,-228.891 214,-247.891 321,-247.891 321,-228.891 214,-228.891"/>
<text text-anchor="middle" x="267.5" y="-235.891" font-family="Helvetica,sans-Serif" font-size="10.00">IG.Num.IVector&lt; T &gt;</text>
</a>
</g>
</g>
<!-- Node7&#45;&gt;Node2 -->
<g id="edge7" class="edge"><title>Node7&#45;&gt;Node2</title>
<path fill="none" stroke="#9a32cd" stroke-dasharray="5,2" d="M331.122,-232.592C338.61,-229.561 345.525,-225.307 351,-219.391 387.629,-179.808 330.555,-137.212 369,-99.3908 390.575,-78.1654 424.325,-73.6654 452.681,-74.4717"/>
<polygon fill="#9a32cd" stroke="#9a32cd" points="329.79,-229.346 321.397,-235.811 331.991,-235.991 329.79,-229.346"/>
<text text-anchor="middle" x="393" y="-113.391" font-family="Helvetica,sans-Serif" font-size="10.00"> _refParam</text>
<text text-anchor="middle" x="393" y="-102.391" font-family="Helvetica,sans-Serif" font-size="10.00">_refGrad</text>
</g>
<!-- Node9 -->
<g id="node9" class="node"><title>Node9</title>
<g id="a_node9"><a xlink:href="../../dd/da6/classIG_1_1Lib_1_1opt_1_1opttest_1_1ParticlePotentialProblem.html" target="_top" xlink:title="Base class for the charged particle potential problem.">
<polygon fill="white" stroke="black" points="702,-252.391 702,-282.391 830,-282.391 830,-252.391 702,-252.391"/>
<text text-anchor="start" x="710" y="-270.391" font-family="Helvetica,sans-Serif" font-size="10.00">IG.Lib.opt.opttest.Particle</text>
<text text-anchor="middle" x="766" y="-259.391" font-family="Helvetica,sans-Serif" font-size="10.00">PotentialProblem</text>
</a>
</g>
</g>
<!-- Node7&#45;&gt;Node9 -->
<g id="edge18" class="edge"><title>Node7&#45;&gt;Node9</title>
<path fill="none" stroke="#9a32cd" stroke-dasharray="5,2" d="M308.672,-250.745C326.91,-255.844 348.863,-261.279 369,-264.391 507.458,-285.79 544.113,-284.138 684,-276.391 689.792,-276.07 695.807,-275.621 701.824,-275.093"/>
<polygon fill="#9a32cd" stroke="#9a32cd" points="309.535,-247.352 298.958,-247.964 307.609,-254.081 309.535,-247.352"/>
<text text-anchor="middle" x="505" y="-295.391" font-family="Helvetica,sans-Serif" font-size="10.00"> _auxParticleVector</text>
<text text-anchor="middle" x="505" y="-284.391" font-family="Helvetica,sans-Serif" font-size="10.00">_staticParticleCoordinates</text>
</g>
<!-- Node7&#45;&gt;Node11 -->
<g id="edge16" class="edge"><title>Node7&#45;&gt;Node11</title>
<path fill="none" stroke="#9a32cd" stroke-dasharray="5,2" d="M331.145,-237.859C363.016,-237.588 401.842,-237.258 434.617,-236.98"/>
<polygon fill="#9a32cd" stroke="#9a32cd" points="331.028,-234.36 321.058,-237.944 331.087,-241.359 331.028,-234.36"/>
<text text-anchor="middle" x="393" y="-252.391" font-family="Helvetica,sans-Serif" font-size="10.00"> _refParam</text>
<text text-anchor="middle" x="393" y="-241.391" font-family="Helvetica,sans-Serif" font-size="10.00">_refGrad</text>
</g>
<!-- Node8 -->
<g id="node8" class="node"><title>Node8</title>
<g id="a_node8"><a xlink:href="../../d5/d50/interfaceIG_1_1Num_1_1IAffineTransformation.html" target="_top" xlink:title="Affine Transformation.">
<polygon fill="white" stroke="black" points="196,-124.891 196,-143.891 339,-143.891 339,-124.891 196,-124.891"/>
<text text-anchor="middle" x="267.5" y="-131.891" font-family="Helvetica,sans-Serif" font-size="10.00">IG.Num.IAffineTransformation</text>
</a>
</g>
</g>
<!-- Node8&#45;&gt;Node2 -->
<g id="edge8" class="edge"><title>Node8&#45;&gt;Node2</title>
<path fill="none" stroke="#9a32cd" stroke-dasharray="5,2" d="M287.27,-118.044C304.233,-103.104 329.73,-80.2282 351,-59.3908 359.309,-51.2506 358.314,-44.987 369,-40.3908 412.428,-21.7112 467.105,-54.5003 491.387,-71.7699"/>
<polygon fill="#9a32cd" stroke="#9a32cd" points="284.894,-115.473 279.684,-124.698 289.51,-120.735 284.894,-115.473"/>
<text text-anchor="middle" x="393" y="-43.3908" font-family="Helvetica,sans-Serif" font-size="10.00"> _transf</text>
</g>
<!-- Node8&#45;&gt;Node11 -->
<g id="edge17" class="edge"><title>Node8&#45;&gt;Node11</title>
<path fill="none" stroke="#9a32cd" stroke-dasharray="5,2" d="M305.617,-147.517C336.663,-159.328 381.452,-178.342 417,-201.391 425.981,-207.214 425.595,-212.281 435,-217.391 442.097,-221.246 450.038,-224.369 457.937,-226.882"/>
<polygon fill="#9a32cd" stroke="#9a32cd" points="306.642,-144.164 296.05,-143.94 304.191,-150.721 306.642,-144.164"/>
<text text-anchor="middle" x="393" y="-204.391" font-family="Helvetica,sans-Serif" font-size="10.00"> _transf</text>
</g>
<!-- Node9&#45;&gt;Node1 -->
<g id="edge10" class="edge"><title>Node9&#45;&gt;Node1</title>
<path fill="none" stroke="#9a32cd" stroke-dasharray="5,2" d="M840.259,-267.391C873.805,-267.391 913.813,-267.391 948.89,-267.391"/>
<polygon fill="#9a32cd" stroke="#9a32cd" points="840.069,-263.891 830.069,-267.391 840.069,-270.891 840.069,-263.891"/>
<text text-anchor="middle" x="889.5" y="-270.391" font-family="Helvetica,sans-Serif" font-size="10.00"> _problemDefinition</text>
</g>
<!-- Node10 -->
<g id="node10" class="node"><title>Node10</title>
<g id="a_node10"><a xlink:href="../../d3/db6/interfaceIG_1_1Lib_1_1ILockable.html" target="_top" xlink:title="Lockable object, has a Lock property that returns object on which lock must be performed in order to ...">
<polygon fill="white" stroke="black" points="476,-330.891 476,-349.891 534,-349.891 534,-330.891 476,-330.891"/>
<text text-anchor="middle" x="505" y="-337.891" font-family="Helvetica,sans-Serif" font-size="10.00">ILockable</text>
</a>
</g>
</g>
<!-- Node10&#45;&gt;Node9 -->
<g id="edge11" class="edge"><title>Node10&#45;&gt;Node9</title>
<path fill="none" stroke="midnightblue" d="M544.466,-335.215C580.964,-329.698 637.057,-319.636 684,-304.391 701.939,-298.565 721.176,-289.889 736.4,-282.402"/>
<polygon fill="midnightblue" stroke="midnightblue" points="543.642,-331.799 534.258,-336.717 544.661,-338.724 543.642,-331.799"/>
</g>
<!-- Node11&#45;&gt;Node9 -->
<g id="edge12" class="edge"><title>Node11&#45;&gt;Node9</title>
<path fill="none" stroke="#9a32cd" stroke-dasharray="5,2" d="M585.668,-243.446C616.438,-246.433 651.902,-250.196 684,-254.391 689.79,-255.148 695.803,-255.995 701.82,-256.886"/>
<polygon fill="#9a32cd" stroke="#9a32cd" points="585.713,-239.934 575.425,-242.463 585.045,-246.902 585.713,-239.934"/>
<text text-anchor="middle" x="638.5" y="-268.391" font-family="Helvetica,sans-Serif" font-size="10.00"> _objectiveFunction</text>
<text text-anchor="middle" x="638.5" y="-257.391" font-family="Helvetica,sans-Serif" font-size="10.00">_constraintFunctions</text>
</g>
<!-- Node12 -->
<g id="node12" class="node"><title>Node12</title>
<g id="a_node12"><a xlink:href="../../db/d0e/interfaceIG_1_1Num_1_1IRealFunction.html" target="_top" xlink:title="Interface for real functions.">
<polygon fill="white" stroke="black" points="449,-188.891 449,-207.891 561,-207.891 561,-188.891 449,-188.891"/>
<text text-anchor="middle" x="505" y="-195.891" font-family="Helvetica,sans-Serif" font-size="10.00">IG.Num.IRealFunction</text>
</a>
</g>
</g>
<!-- Node12&#45;&gt;Node9 -->
<g id="edge19" class="edge"><title>Node12&#45;&gt;Node9</title>
<path fill="none" stroke="#9a32cd" stroke-dasharray="5,2" d="M571.676,-206.184C605.69,-211.223 647.61,-219.007 684,-230.391 702.001,-236.022 721.241,-244.689 736.451,-252.22"/>
<polygon fill="#9a32cd" stroke="#9a32cd" points="571.784,-202.664 561.388,-204.708 570.789,-209.593 571.784,-202.664"/>
<text text-anchor="middle" x="638.5" y="-233.391" font-family="Helvetica,sans-Serif" font-size="10.00"> _potentialFunction</text>
</g>
</g>
</svg>
        <g id="navigator" transform="translate(0 0)" fill="#404254">
                <rect fill="#f2f5e9" fill-opacity="0.5" stroke="#606060" stroke-width=".5" x="0" y="0" width="60" height="60"/>
                <use id="zoomplus" xlink:href="#zoomPlus" x="17" y="9" onmousedown="handleZoom(evt,'in')"/>
                <use id="zoomminus" xlink:href="#zoomMin" x="42" y="9" onmousedown="handleZoom(evt,'out')"/>
                <use id="reset" xlink:href="#resetDef" x="30" y="36" onmousedown="handleReset()"/>
                <g id="arrowUp" xlink:href="#dirArrow" transform="translate(30 24)" onmousedown="handlePan(0,-1)">
                  <use xlink:href="#rim" fill="#404040">
                        <set attributeName="fill" to="#808080" begin="arrowUp.mouseover" end="arrowUp.mouseout"/>
                  </use>
                  <path fill="none" stroke="white" stroke-width="1.5" d="M0,-3.0v7 M-2.5,-0.5L0,-3.0L2.5,-0.5"/>
                </g>
                <g id="arrowRight" xlink:href="#dirArrow" transform="rotate(90) translate(36 -43)" onmousedown="handlePan(1,0)">
                  <use xlink:href="#rim" fill="#404040">
                        <set attributeName="fill" to="#808080" begin="arrowRight.mouseover" end="arrowRight.mouseout"/>
                  </use>
                  <path fill="none" stroke="white" stroke-width="1.5" d="M0,-3.0v7 M-2.5,-0.5L0,-3.0L2.5,-0.5"/>
                </g>
                <g id="arrowDown" xlink:href="#dirArrow" transform="rotate(180) translate(-30 -48)" onmousedown="handlePan(0,1)">
                  <use xlink:href="#rim" fill="#404040">
                        <set attributeName="fill" to="#808080" begin="arrowDown.mouseover" end="arrowDown.mouseout"/>
                  </use>
                  <path fill="none" stroke="white" stroke-width="1.5" d="M0,-3.0v7 M-2.5,-0.5L0,-3.0L2.5,-0.5"/>
                </g>
                <g id="arrowLeft" xlink:href="#dirArrow" transform="rotate(270) translate(-36 17)" onmousedown="handlePan(-1,0)">
                  <use xlink:href="#rim" fill="#404040">
                        <set attributeName="fill" to="#808080" begin="arrowLeft.mouseover" end="arrowLeft.mouseout"/>
                  </use>
                  <path fill="none" stroke="white" stroke-width="1.5" d="M0,-3.0v7 M-2.5,-0.5L0,-3.0L2.5,-0.5"/>
                </g>
        </g>
        <svg viewBox="0 0 15 15" width="100%" height="30px" preserveAspectRatio="xMaxYMin meet">
         <g id="arrow_out" transform="scale(0.3 0.3)">
          <a xlink:href="classIG_1_1Lib_1_1opt_1_1opttest_1_1ParticlePotentialProblem_1_1ConstraintFunctionParticleConstraint__coll__graph_org.svg" target="_base">
           <rect id="button" ry="5" rx="5" y="6" x="6" height="38" width="38"
                fill="#f2f5e9" fill-opacity="0.5" stroke="#606060" stroke-width="1.0"/>
           <path id="arrow"
             d="M 11.500037,31.436501 C 11.940474,20.09759 22.043105,11.32322 32.158766,21.979434 L 37.068811,17.246167 C 37.068811,17.246167 37.088388,32 37.088388,32 L 22.160133,31.978069 C 22.160133,31.978069 26.997745,27.140456 26.997745,27.140456 C 18.528582,18.264221 13.291696,25.230495 11.500037,31.436501 z"
             style="fill:#404040;"/>
          </a>
         </g>
        </svg>
</svg>
