<?xml version="1.0" encoding="UTF-8" standalone="no"?>
<!DOCTYPE svg PUBLIC "-//W3C//DTD SVG 1.1//EN"
 "http://www.w3.org/Graphics/SVG/1.1/DTD/svg11.dtd">
<!-- Generated by graphviz version 2.38.0 (20140413.2041)
 -->
<!-- Title: AForge.Imaging.Filters.ExtractBiggestBlob Pages: 1 -->
<svg width="258pt" height="106pt"
 viewBox="0.00 0.00 257.50 106.00" xmlns="http://www.w3.org/2000/svg" xmlns:xlink="http://www.w3.org/1999/xlink">
<g id="graph0" class="graph" transform="scale(1 1) rotate(0) translate(4 102)">
<title>AForge.Imaging.Filters.ExtractBiggestBlob</title>
<polygon fill="white" stroke="none" points="-4,4 -4,-102 253.5,-102 253.5,4 -4,4"/>
<!-- Node1 -->
<g id="node1" class="node"><title>Node1</title>
<g id="a_node1"><a xlink:title="Extract the biggest blob from image.">
<polygon fill="#bfbfbf" stroke="black" points="29,-0.5 29,-30.5 178,-30.5 178,-0.5 29,-0.5"/>
<text text-anchor="start" x="37" y="-18.5" font-family="Helvetica,sans-Serif" font-size="10.00">AForge.Imaging.Filters.Extract</text>
<text text-anchor="middle" x="103.5" y="-7.5" font-family="Helvetica,sans-Serif" font-size="10.00">BiggestBlob</text>
</a>
</g>
</g>
<!-- Node2 -->
<g id="node2" class="node"><title>Node2</title>
<g id="a_node2"><a xlink:href="../../dd/d51/interfaceAForge_1_1Imaging_1_1Filters_1_1IFilter.html" target="_top" xlink:title="Image processing filter interface.">
<polygon fill="white" stroke="black" points="0,-78.5 0,-97.5 41,-97.5 41,-78.5 0,-78.5"/>
<text text-anchor="middle" x="20.5" y="-85.5" font-family="Helvetica,sans-Serif" font-size="10.00">IFilter</text>
</a>
</g>
</g>
<!-- Node2&#45;&gt;Node1 -->
<g id="edge1" class="edge"><title>Node2&#45;&gt;Node1</title>
<path fill="none" stroke="midnightblue" d="M38.4134,-71.7844C52.8163,-59.5506 72.8936,-42.497 86.9281,-30.5762"/>
<polygon fill="midnightblue" stroke="midnightblue" points="36.0333,-69.2139 30.6774,-78.3553 40.565,-74.5491 36.0333,-69.2139"/>
</g>
<!-- Node3 -->
<g id="node3" class="node"><title>Node3</title>
<g id="a_node3"><a xlink:href="../../d7/dec/interfaceAForge_1_1Imaging_1_1Filters_1_1IFilterInformation.html" target="_top" xlink:title="Interface which provides information about image processing filter.">
<polygon fill="white" stroke="black" points="59.5,-78.5 59.5,-97.5 147.5,-97.5 147.5,-78.5 59.5,-78.5"/>
<text text-anchor="middle" x="103.5" y="-85.5" font-family="Helvetica,sans-Serif" font-size="10.00">IFilterInformation</text>
</a>
</g>
</g>
<!-- Node3&#45;&gt;Node1 -->
<g id="edge2" class="edge"><title>Node3&#45;&gt;Node1</title>
<path fill="none" stroke="midnightblue" d="M103.5,-68.2362C103.5,-56.4079 103.5,-41.3829 103.5,-30.5762"/>
<polygon fill="midnightblue" stroke="midnightblue" points="100,-68.3553 103.5,-78.3553 107,-68.3554 100,-68.3553"/>
</g>
<!-- Node4 -->
<g id="node4" class="node"><title>Node4</title>
<g id="a_node4"><a xlink:href="../../dc/d3d/structAForge_1_1IntPoint.html" target="_top" xlink:title="Structure for representing a pair of coordinates of integer type.">
<polygon fill="white" stroke="black" points="165.5,-78.5 165.5,-97.5 249.5,-97.5 249.5,-78.5 165.5,-78.5"/>
<text text-anchor="middle" x="207.5" y="-85.5" font-family="Helvetica,sans-Serif" font-size="10.00">AForge.IntPoint</text>
</a>
</g>
</g>
<!-- Node4&#45;&gt;Node1 -->
<g id="edge3" class="edge"><title>Node4&#45;&gt;Node1</title>
<path fill="none" stroke="#9a32cd" stroke-dasharray="5,2" d="M186.059,-72.4653C167.95,-60.1899 142.179,-42.7198 124.265,-30.5762"/>
<polygon fill="#9a32cd" stroke="#9a32cd" points="184.506,-75.6412 194.748,-78.3553 188.434,-69.8471 184.506,-75.6412"/>
<text text-anchor="middle" x="194" y="-52" font-family="Helvetica,sans-Serif" font-size="10.00"> blobPosition</text>
</g>
</g>
</svg>
