<?xml version="1.0" encoding="UTF-8" standalone="no"?>
<!DOCTYPE svg PUBLIC "-//W3C//DTD SVG 1.1//EN"
 "http://www.w3.org/Graphics/SVG/1.1/DTD/svg11.dtd">
<!-- Generated by graphviz version 2.38.0 (20140413.2041)
 -->
<!-- Title: IG.Neural.Forms.Old.FormNeural2DOld Pages: 1 -->
<!--zoomable 397 -->
<svg id="main" version="1.1" xmlns="http://www.w3.org/2000/svg" xmlns:xlink="http://www.w3.org/1999/xlink" xml:space="preserve" onload="init(evt)">
<style type="text/css"><![CDATA[
.edge:hover path { stroke: red; }
.edge:hover polygon { stroke: red; fill: red; }
]]></style>
<script type="text/javascript"><![CDATA[
var edges = document.getElementsByTagName('g');
if (edges && edges.length) {
  for (var i=0;i<edges.length;i++) {
    if (edges[i].id.substr(0,4)=='edge') {
      edges[i].setAttribute('class','edge');
    }
  }
}
]]></script>
        <defs>
                <circle id="rim" cx="0" cy="0" r="7"/>
                <circle id="rim2" cx="0" cy="0" r="3.5"/>
                <g id="zoomPlus">
                        <use xlink:href="#rim" fill="#404040">
                                <set attributeName="fill" to="#808080" begin="zoomplus.mouseover" end="zoomplus.mouseout"/>
                        </use>
                        <path d="M-4,0h8M0,-4v8" fill="none" stroke="white" stroke-width="1.5" pointer-events="none"/>
                </g>
                <g id="zoomMin">
                        <use xlink:href="#rim" fill="#404040">
                                <set attributeName="fill" to="#808080" begin="zoomminus.mouseover" end="zoomminus.mouseout"/>
                        </use>
                        <path d="M-4,0h8" fill="none" stroke="white" stroke-width="1.5" pointer-events="none"/>
                </g>
                <g id="dirArrow">
                        <path fill="none" stroke="white" stroke-width="1.5" d="M0,-3.0v7 M-2.5,-0.5L0,-3.0L2.5,-0.5"/>
                </g>
               <g id="resetDef">
                       <use xlink:href="#rim2" fill="#404040">
                               <set attributeName="fill" to="#808080" begin="reset.mouseover" end="reset.mouseout"/>
                       </use>
               </g>
        </defs>

<script type="text/javascript">
var viewWidth = 546;
var viewHeight = 397;
var sectionId = 'dynsection-1';
</script>
<script xlink:href="../../svgpan.js"/>
<svg id="graph" class="graph">
<g id="viewport">
<title>IG.Neural.Forms.Old.FormNeural2DOld</title>
<polygon fill="white" stroke="none" points="-4,4 -4,-393 541.5,-393 541.5,4 -4,4"/>
<!-- Node1 -->
<g id="node1" class="node"><title>Node1</title>
<g id="a_node1"><a xlink:title=" ">
<polygon fill="#bfbfbf" stroke="black" points="225,-0.5 225,-30.5 356,-30.5 356,-0.5 225,-0.5"/>
<text text-anchor="start" x="233" y="-18.5" font-family="Helvetica,sans-Serif" font-size="10.00">IG.Neural.Forms.Old.Form</text>
<text text-anchor="middle" x="290.5" y="-7.5" font-family="Helvetica,sans-Serif" font-size="10.00">Neural2DOld</text>
</a>
</g>
</g>
<!-- Node2 -->
<g id="node2" class="node"><title>Node2</title>
<g id="a_node2"><a xlink:title=" ">
<polygon fill="white" stroke="#bfbfbf" points="147,-188.5 147,-207.5 186,-207.5 186,-188.5 147,-188.5"/>
<text text-anchor="middle" x="166.5" y="-195.5" font-family="Helvetica,sans-Serif" font-size="10.00">Form</text>
</a>
</g>
</g>
<!-- Node2&#45;&gt;Node1 -->
<g id="edge1" class="edge"><title>Node2&#45;&gt;Node1</title>
<path fill="none" stroke="midnightblue" d="M178.219,-179.942C202.6,-144.451 258.383,-63.2509 280.855,-30.5391"/>
<polygon fill="midnightblue" stroke="midnightblue" points="175.258,-178.07 172.481,-188.294 181.028,-182.034 175.258,-178.07"/>
</g>
<!-- Node3 -->
<g id="node3" class="node"><title>Node3</title>
<g id="a_node3"><a xlink:href="../../d9/dc1/classIG_1_1Neural_1_1Func2dFromApproximator.html" target="_top" xlink:title="Approximator function of 2 variables that is based on a general approximator function of vector argum...">
<polygon fill="white" stroke="black" points="204,-188.5 204,-207.5 377,-207.5 377,-188.5 204,-188.5"/>
<text text-anchor="middle" x="290.5" y="-195.5" font-family="Helvetica,sans-Serif" font-size="10.00">IG.Neural.Func2dFromApproximator</text>
</a>
</g>
</g>
<!-- Node3&#45;&gt;Node1 -->
<g id="edge2" class="edge"><title>Node3&#45;&gt;Node1</title>
<path fill="none" stroke="#9a32cd" stroke-dasharray="5,2" d="M290.5,-178.09C290.5,-141.701 290.5,-62.6941 290.5,-30.5391"/>
<polygon fill="#9a32cd" stroke="#9a32cd" points="287,-178.294 290.5,-188.294 294,-178.294 287,-178.294"/>
<text text-anchor="middle" x="341" y="-107" font-family="Helvetica,sans-Serif" font-size="10.00"> iFunctionApproximator</text>
</g>
<!-- Node4 -->
<g id="node4" class="node"><title>Node4</title>
<g id="a_node4"><a xlink:href="../../da/d29/classIG_1_1Num_1_1Func2dBase.html" target="_top" xlink:title="Base class for scalar functions of 2 variables (base for implementation of IFunc2d interface).">
<polygon fill="white" stroke="black" points="162,-255.5 162,-274.5 233,-274.5 233,-255.5 162,-255.5"/>
<text text-anchor="middle" x="197.5" y="-262.5" font-family="Helvetica,sans-Serif" font-size="10.00">Func2dBase</text>
</a>
</g>
</g>
<!-- Node4&#45;&gt;Node3 -->
<g id="edge3" class="edge"><title>Node4&#45;&gt;Node3</title>
<path fill="none" stroke="midnightblue" d="M218.361,-249.42C236.747,-236.569 262.912,-218.282 278.156,-207.627"/>
<polygon fill="midnightblue" stroke="midnightblue" points="216.234,-246.636 210.042,-255.234 220.244,-252.374 216.234,-246.636"/>
</g>
<!-- Node5 -->
<g id="node5" class="node"><title>Node5</title>
<g id="a_node5"><a xlink:href="../../d2/d9e/classIG_1_1Num_1_1ScalarFunctionUntransformedBase.html" target="_top" xlink:title="Base class for defining scalar functions without possibility of affine transformation of parameters.">
<polygon fill="white" stroke="black" points="102,-312.5 102,-331.5 269,-331.5 269,-312.5 102,-312.5"/>
<text text-anchor="middle" x="185.5" y="-319.5" font-family="Helvetica,sans-Serif" font-size="10.00">ScalarFunctionUntransformedBase</text>
</a>
</g>
</g>
<!-- Node5&#45;&gt;Node4 -->
<g id="edge4" class="edge"><title>Node5&#45;&gt;Node4</title>
<path fill="none" stroke="midnightblue" d="M189.553,-302.423C191.597,-293.054 193.979,-282.136 195.599,-274.715"/>
<polygon fill="midnightblue" stroke="midnightblue" points="186.087,-301.89 187.375,-312.406 192.926,-303.382 186.087,-301.89"/>
</g>
<!-- Node6 -->
<g id="node6" class="node"><title>Node6</title>
<g id="a_node6"><a xlink:href="../../d8/d56/interfaceIG_1_1Num_1_1IScalarFunctionUntransformed.html" target="_top" xlink:title="Scalar functions of vector arguments.">
<polygon fill="white" stroke="black" points="0,-369.5 0,-388.5 147,-388.5 147,-369.5 0,-369.5"/>
<text text-anchor="middle" x="73.5" y="-376.5" font-family="Helvetica,sans-Serif" font-size="10.00">IScalarFunctionUntransformed</text>
</a>
</g>
</g>
<!-- Node6&#45;&gt;Node3 -->
<g id="edge9" class="edge"><title>Node6&#45;&gt;Node3</title>
<path fill="none" stroke="midnightblue" d="M70.351,-359.251C68.9752,-345.289 69.2248,-326.258 77.5,-312 113.537,-249.909 196.884,-220.296 247.979,-207.512"/>
<polygon fill="midnightblue" stroke="midnightblue" points="66.8834,-359.727 71.6806,-369.173 73.8214,-358.797 66.8834,-359.727"/>
</g>
<!-- Node6&#45;&gt;Node4 -->
<g id="edge7" class="edge"><title>Node6&#45;&gt;Node4</title>
<path fill="none" stroke="midnightblue" d="M74.6882,-358.928C76.5167,-344.505 81.0967,-325.025 92.5,-312 110.394,-291.56 139.058,-279.84 161.919,-273.351"/>
<polygon fill="midnightblue" stroke="midnightblue" points="71.1748,-358.911 73.7339,-369.192 78.1448,-359.559 71.1748,-358.911"/>
</g>
<!-- Node6&#45;&gt;Node5 -->
<g id="edge5" class="edge"><title>Node6&#45;&gt;Node5</title>
<path fill="none" stroke="midnightblue" d="M100.061,-364.957C121.114,-354.618 149.924,-340.47 168.123,-331.533"/>
<polygon fill="midnightblue" stroke="midnightblue" points="98.4333,-361.857 91,-369.406 101.519,-368.14 98.4333,-361.857"/>
</g>
<!-- Node7 -->
<g id="node7" class="node"><title>Node7</title>
<g id="a_node7"><a xlink:href="../../d8/d15/interfaceIG_1_1Num_1_1IFunc2d.html" target="_top" xlink:title="Represents scalar functions of 2 variables.">
<polygon fill="white" stroke="black" points="287,-312.5 287,-331.5 338,-331.5 338,-312.5 287,-312.5"/>
<text text-anchor="middle" x="312.5" y="-319.5" font-family="Helvetica,sans-Serif" font-size="10.00">IFunc2d</text>
</a>
</g>
</g>
<!-- Node7&#45;&gt;Node3 -->
<g id="edge8" class="edge"><title>Node7&#45;&gt;Node3</title>
<path fill="none" stroke="midnightblue" d="M309.108,-302.191C304.277,-275.397 295.606,-227.314 292.068,-207.694"/>
<polygon fill="midnightblue" stroke="midnightblue" points="305.699,-303.006 310.918,-312.226 312.588,-301.764 305.699,-303.006"/>
</g>
<!-- Node7&#45;&gt;Node4 -->
<g id="edge6" class="edge"><title>Node7&#45;&gt;Node4</title>
<path fill="none" stroke="midnightblue" d="M285.227,-307.957C263.61,-297.618 234.029,-283.47 215.343,-274.533"/>
<polygon fill="midnightblue" stroke="midnightblue" points="284,-311.249 294.531,-312.406 287.02,-304.934 284,-311.249"/>
</g>
<!-- Node8 -->
<g id="node8" class="node"><title>Node8</title>
<g id="a_node8"><a xlink:href="../../d7/db4/interfaceIG_1_1Num_1_1INeuralApproximator.html" target="_top" xlink:title="Approximator of response by using neural networks. $A Igor Mar11;">
<polygon fill="white" stroke="black" points="338.5,-255.5 338.5,-274.5 478.5,-274.5 478.5,-255.5 338.5,-255.5"/>
<text text-anchor="middle" x="408.5" y="-262.5" font-family="Helvetica,sans-Serif" font-size="10.00">IG.Num.INeuralApproximator</text>
</a>
</g>
</g>
<!-- Node8&#45;&gt;Node3 -->
<g id="edge10" class="edge"><title>Node8&#45;&gt;Node3</title>
<path fill="none" stroke="#9a32cd" stroke-dasharray="5,2" d="M383.606,-250.287C360.219,-237.405 325.944,-218.524 306.162,-207.627"/>
<polygon fill="#9a32cd" stroke="#9a32cd" points="382.138,-253.475 392.586,-255.234 385.516,-247.343 382.138,-253.475"/>
<text text-anchor="middle" x="396" y="-229" font-family="Helvetica,sans-Serif" font-size="10.00"> _originalFunction</text>
</g>
<!-- Node9 -->
<g id="node9" class="node"><title>Node9</title>
<g id="a_node9"><a xlink:href="../../dc/d13/interfaceIG_1_1Num_1_1IVectorApproximator.html" target="_top" xlink:title="Interface for vector function approximators.">
<polygon fill="white" stroke="black" points="356,-312.5 356,-331.5 461,-331.5 461,-312.5 356,-312.5"/>
<text text-anchor="middle" x="408.5" y="-319.5" font-family="Helvetica,sans-Serif" font-size="10.00">IVectorApproximator</text>
</a>
</g>
</g>
<!-- Node9&#45;&gt;Node8 -->
<g id="edge11" class="edge"><title>Node9&#45;&gt;Node8</title>
<path fill="none" stroke="midnightblue" d="M408.5,-302.117C408.5,-292.817 408.5,-282.056 408.5,-274.715"/>
<polygon fill="midnightblue" stroke="midnightblue" points="405,-302.406 408.5,-312.406 412,-302.406 405,-302.406"/>
</g>
<!-- Node10 -->
<g id="node10" class="node"><title>Node10</title>
<g id="a_node10"><a xlink:href="../../d3/db6/interfaceIG_1_1Lib_1_1ILockable.html" target="_top" xlink:title="Lockable object, has a Lock property that returns object on which lock must be performed in order to ...">
<polygon fill="white" stroke="black" points="479.5,-312.5 479.5,-331.5 537.5,-331.5 537.5,-312.5 479.5,-312.5"/>
<text text-anchor="middle" x="508.5" y="-319.5" font-family="Helvetica,sans-Serif" font-size="10.00">ILockable</text>
</a>
</g>
</g>
<!-- Node10&#45;&gt;Node8 -->
<g id="edge12" class="edge"><title>Node10&#45;&gt;Node8</title>
<path fill="none" stroke="midnightblue" d="M484.019,-307.535C465.294,-297.236 440.045,-283.35 424.015,-274.533"/>
<polygon fill="midnightblue" stroke="midnightblue" points="482.426,-310.654 492.875,-312.406 485.8,-304.52 482.426,-310.654"/>
</g>
<!-- Node11 -->
<g id="node11" class="node"><title>Node11</title>
<g id="a_node11"><a xlink:title=" ">
<polygon fill="white" stroke="#bfbfbf" points="395.5,-188.5 395.5,-207.5 445.5,-207.5 445.5,-188.5 395.5,-188.5"/>
<text text-anchor="middle" x="420.5" y="-195.5" font-family="Helvetica,sans-Serif" font-size="10.00">System</text>
</a>
</g>
</g>
<!-- Node11&#45;&gt;Node1 -->
<g id="edge13" class="edge"><title>Node11&#45;&gt;Node1</title>
<path fill="none" stroke="#9a32cd" stroke-dasharray="5,2" d="M423.064,-178.14C426.152,-147.213 427.459,-85.5129 395.5,-49 385.257,-37.2974 370.894,-29.752 356.072,-24.9031"/>
<polygon fill="#9a32cd" stroke="#9a32cd" points="419.553,-178.029 421.86,-188.37 426.505,-178.848 419.553,-178.029"/>
<text text-anchor="middle" x="469.5" y="-162" font-family="Helvetica,sans-Serif" font-size="10.00"> tbEquationError</text>
<text text-anchor="middle" x="469.5" y="-151" font-family="Helvetica,sans-Serif" font-size="10.00">numMaxEpoch</text>
<text text-anchor="middle" x="469.5" y="-140" font-family="Helvetica,sans-Serif" font-size="10.00">numLearningRate</text>
<text text-anchor="middle" x="469.5" y="-129" font-family="Helvetica,sans-Serif" font-size="10.00">tbSelfMadeEquation</text>
<text text-anchor="middle" x="469.5" y="-118" font-family="Helvetica,sans-Serif" font-size="10.00">cbContourDefault</text>
<text text-anchor="middle" x="469.5" y="-107" font-family="Helvetica,sans-Serif" font-size="10.00">label1</text>
<text text-anchor="middle" x="469.5" y="-96" font-family="Helvetica,sans-Serif" font-size="10.00">numOutputSafety</text>
<text text-anchor="middle" x="469.5" y="-85" font-family="Helvetica,sans-Serif" font-size="10.00">label2</text>
<text text-anchor="middle" x="469.5" y="-74" font-family="Helvetica,sans-Serif" font-size="10.00">numRMS</text>
<text text-anchor="middle" x="469.5" y="-63" font-family="Helvetica,sans-Serif" font-size="10.00">cbxAforge</text>
<text text-anchor="middle" x="469.5" y="-52" font-family="Helvetica,sans-Serif" font-size="10.00">...</text>
</g>
</g>
</svg>
        <g id="navigator" transform="translate(0 0)" fill="#404254">
                <rect fill="#f2f5e9" fill-opacity="0.5" stroke="#606060" stroke-width=".5" x="0" y="0" width="60" height="60"/>
                <use id="zoomplus" xlink:href="#zoomPlus" x="17" y="9" onmousedown="handleZoom(evt,'in')"/>
                <use id="zoomminus" xlink:href="#zoomMin" x="42" y="9" onmousedown="handleZoom(evt,'out')"/>
                <use id="reset" xlink:href="#resetDef" x="30" y="36" onmousedown="handleReset()"/>
                <g id="arrowUp" xlink:href="#dirArrow" transform="translate(30 24)" onmousedown="handlePan(0,-1)">
                  <use xlink:href="#rim" fill="#404040">
                        <set attributeName="fill" to="#808080" begin="arrowUp.mouseover" end="arrowUp.mouseout"/>
                  </use>
                  <path fill="none" stroke="white" stroke-width="1.5" d="M0,-3.0v7 M-2.5,-0.5L0,-3.0L2.5,-0.5"/>
                </g>
                <g id="arrowRight" xlink:href="#dirArrow" transform="rotate(90) translate(36 -43)" onmousedown="handlePan(1,0)">
                  <use xlink:href="#rim" fill="#404040">
                        <set attributeName="fill" to="#808080" begin="arrowRight.mouseover" end="arrowRight.mouseout"/>
                  </use>
                  <path fill="none" stroke="white" stroke-width="1.5" d="M0,-3.0v7 M-2.5,-0.5L0,-3.0L2.5,-0.5"/>
                </g>
                <g id="arrowDown" xlink:href="#dirArrow" transform="rotate(180) translate(-30 -48)" onmousedown="handlePan(0,1)">
                  <use xlink:href="#rim" fill="#404040">
                        <set attributeName="fill" to="#808080" begin="arrowDown.mouseover" end="arrowDown.mouseout"/>
                  </use>
                  <path fill="none" stroke="white" stroke-width="1.5" d="M0,-3.0v7 M-2.5,-0.5L0,-3.0L2.5,-0.5"/>
                </g>
                <g id="arrowLeft" xlink:href="#dirArrow" transform="rotate(270) translate(-36 17)" onmousedown="handlePan(-1,0)">
                  <use xlink:href="#rim" fill="#404040">
                        <set attributeName="fill" to="#808080" begin="arrowLeft.mouseover" end="arrowLeft.mouseout"/>
                  </use>
                  <path fill="none" stroke="white" stroke-width="1.5" d="M0,-3.0v7 M-2.5,-0.5L0,-3.0L2.5,-0.5"/>
                </g>
        </g>
        <svg viewBox="0 0 15 15" width="100%" height="30px" preserveAspectRatio="xMaxYMin meet">
         <g id="arrow_out" transform="scale(0.3 0.3)">
          <a xlink:href="classIG_1_1Neural_1_1Forms_1_1Old_1_1FormNeural2DOld__coll__graph_org.svg" target="_base">
           <rect id="button" ry="5" rx="5" y="6" x="6" height="38" width="38"
                fill="#f2f5e9" fill-opacity="0.5" stroke="#606060" stroke-width="1.0"/>
           <path id="arrow"
             d="M 11.500037,31.436501 C 11.940474,20.09759 22.043105,11.32322 32.158766,21.979434 L 37.068811,17.246167 C 37.068811,17.246167 37.088388,32 37.088388,32 L 22.160133,31.978069 C 22.160133,31.978069 26.997745,27.140456 26.997745,27.140456 C 18.528582,18.264221 13.291696,25.230495 11.500037,31.436501 z"
             style="fill:#404040;"/>
          </a>
         </g>
        </svg>
</svg>
