<?xml version="1.0" encoding="UTF-8" standalone="no"?>
<!DOCTYPE svg PUBLIC "-//W3C//DTD SVG 1.1//EN"
 "http://www.w3.org/Graphics/SVG/1.1/DTD/svg11.dtd">
<!-- Generated by graphviz version 2.38.0 (20140413.2041)
 -->
<!-- Title: NUnit.Engine.Runners.TestDomainRunner Pages: 1 -->
<svg width="366pt" height="288pt"
 viewBox="0.00 0.00 365.50 288.00" xmlns="http://www.w3.org/2000/svg" xmlns:xlink="http://www.w3.org/1999/xlink">
<g id="graph0" class="graph" transform="scale(1 1) rotate(0) translate(4 284)">
<title>NUnit.Engine.Runners.TestDomainRunner</title>
<polygon fill="white" stroke="none" points="-4,4 -4,-284 361.5,-284 361.5,4 -4,4"/>
<!-- Node1 -->
<g id="node1" class="node"><title>Node1</title>
<g id="a_node1"><a xlink:title="TestDomainRunner loads and runs tests in a separate domain whose lifetime it controls.">
<polygon fill="#bfbfbf" stroke="black" points="111,-0.5 111,-30.5 245,-30.5 245,-0.5 111,-0.5"/>
<text text-anchor="start" x="119" y="-18.5" font-family="Helvetica,sans-Serif" font-size="10.00">NUnit.Engine.Runners.Test</text>
<text text-anchor="middle" x="178" y="-7.5" font-family="Helvetica,sans-Serif" font-size="10.00">DomainRunner</text>
</a>
</g>
</g>
<!-- Node2 -->
<g id="node2" class="node"><title>Node2</title>
<g id="a_node2"><a xlink:href="../../d0/d25/classNUnit_1_1Engine_1_1Runners_1_1DirectTestRunner.html" target="_top" xlink:title="DirectTestRunner is the abstract base for runners that deal directly with a framework driver.">
<polygon fill="white" stroke="black" points="71,-68.5 71,-87.5 163,-87.5 163,-68.5 71,-68.5"/>
<text text-anchor="middle" x="117" y="-75.5" font-family="Helvetica,sans-Serif" font-size="10.00">DirectTestRunner</text>
</a>
</g>
</g>
<!-- Node2&#45;&gt;Node1 -->
<g id="edge1" class="edge"><title>Node2&#45;&gt;Node1</title>
<path fill="none" stroke="midnightblue" d="M133.025,-61.1063C142.515,-51.6944 154.438,-39.8687 163.624,-30.7587"/>
<polygon fill="midnightblue" stroke="midnightblue" points="130.375,-58.8048 125.74,-68.3318 135.305,-63.7749 130.375,-58.8048"/>
</g>
<!-- Node3 -->
<g id="node3" class="node"><title>Node3</title>
<g id="a_node3"><a xlink:href="../../d6/dfe/classNUnit_1_1Engine_1_1Runners_1_1AbstractTestRunner.html" target="_top" xlink:title="AbstractTestRunner is the base class for all runners within the NUnit Engine. It implements the ITest...">
<polygon fill="white" stroke="black" points="14.5,-131 14.5,-150 117.5,-150 117.5,-131 14.5,-131"/>
<text text-anchor="middle" x="66" y="-138" font-family="Helvetica,sans-Serif" font-size="10.00">AbstractTestRunner</text>
</a>
</g>
</g>
<!-- Node3&#45;&gt;Node2 -->
<g id="edge2" class="edge"><title>Node3&#45;&gt;Node2</title>
<path fill="none" stroke="midnightblue" d="M79.9984,-122.894C89.6126,-111.489 101.986,-96.8105 109.706,-87.6521"/>
<polygon fill="midnightblue" stroke="midnightblue" points="77.0763,-120.93 73.3071,-130.832 82.4284,-125.442 77.0763,-120.93"/>
</g>
<!-- Node4 -->
<g id="node4" class="node"><title>Node4</title>
<g id="a_node4"><a xlink:href="../../d3/df0/interfaceNUnit_1_1Engine_1_1ITestEngineRunner.html" target="_top" xlink:title="Interface implemented by all internal test runners in the engine, allowing them to pass back TestEngi...">
<polygon fill="white" stroke="black" points="0,-203.5 0,-222.5 98,-222.5 98,-203.5 0,-203.5"/>
<text text-anchor="middle" x="49" y="-210.5" font-family="Helvetica,sans-Serif" font-size="10.00">ITestEngineRunner</text>
</a>
</g>
</g>
<!-- Node4&#45;&gt;Node3 -->
<g id="edge3" class="edge"><title>Node4&#45;&gt;Node3</title>
<path fill="none" stroke="midnightblue" d="M53.4952,-193.358C56.8621,-179.395 61.3156,-160.926 63.8984,-150.215"/>
<polygon fill="midnightblue" stroke="midnightblue" points="50.0263,-192.813 51.0845,-203.355 56.8312,-194.454 50.0263,-192.813"/>
</g>
<!-- Node5 -->
<g id="node5" class="node"><title>Node5</title>
<g id="a_node5"><a xlink:title=" ">
<polygon fill="white" stroke="#bfbfbf" points="26.5,-260.5 26.5,-279.5 93.5,-279.5 93.5,-260.5 26.5,-260.5"/>
<text text-anchor="middle" x="60" y="-267.5" font-family="Helvetica,sans-Serif" font-size="10.00">IDisposable</text>
</a>
</g>
</g>
<!-- Node5&#45;&gt;Node4 -->
<g id="edge4" class="edge"><title>Node5&#45;&gt;Node4</title>
<path fill="none" stroke="midnightblue" d="M56.2845,-250.423C54.4108,-241.054 52.2273,-230.136 50.743,-222.715"/>
<polygon fill="midnightblue" stroke="midnightblue" points="52.888,-251.287 58.2813,-260.406 59.752,-249.914 52.888,-251.287"/>
</g>
<!-- Node7 -->
<g id="node7" class="node"><title>Node7</title>
<g id="a_node7"><a xlink:href="../../df/d6e/classNUnit_1_1Engine_1_1Services_1_1Service.html" target="_top" xlink:title="Abstract base class for services that can use it. Some Services already inherit from a different clas...">
<polygon fill="white" stroke="black" points="116,-203.5 116,-222.5 164,-222.5 164,-203.5 116,-203.5"/>
<text text-anchor="middle" x="140" y="-210.5" font-family="Helvetica,sans-Serif" font-size="10.00">Service</text>
</a>
</g>
</g>
<!-- Node5&#45;&gt;Node7 -->
<g id="edge8" class="edge"><title>Node5&#45;&gt;Node7</title>
<path fill="none" stroke="midnightblue" d="M81.037,-254.537C95.8488,-244.354 115.174,-231.068 127.588,-222.533"/>
<polygon fill="midnightblue" stroke="midnightblue" points="78.7576,-251.857 72.5,-260.406 82.7233,-257.625 78.7576,-251.857"/>
</g>
<!-- Node6 -->
<g id="node6" class="node"><title>Node6</title>
<g id="a_node6"><a xlink:href="../../de/d4f/classNUnit_1_1Engine_1_1Services_1_1DomainManager.html" target="_top" xlink:title="The DomainManager class handles the creation and unloading of domains as needed and keeps track of al...">
<polygon fill="white" stroke="black" points="141.5,-125.5 141.5,-155.5 290.5,-155.5 290.5,-125.5 141.5,-125.5"/>
<text text-anchor="start" x="149.5" y="-143.5" font-family="Helvetica,sans-Serif" font-size="10.00">NUnit.Engine.Services.Domain</text>
<text text-anchor="middle" x="216" y="-132.5" font-family="Helvetica,sans-Serif" font-size="10.00">Manager</text>
</a>
</g>
</g>
<!-- Node6&#45;&gt;Node1 -->
<g id="edge5" class="edge"><title>Node6&#45;&gt;Node1</title>
<path fill="none" stroke="#9a32cd" stroke-dasharray="5,2" d="M208.593,-115.525C200.816,-90.3512 188.843,-51.5984 182.425,-30.824"/>
<polygon fill="#9a32cd" stroke="#9a32cd" points="205.345,-116.869 211.641,-125.39 212.033,-114.803 205.345,-116.869"/>
<text text-anchor="middle" x="239" y="-75.5" font-family="Helvetica,sans-Serif" font-size="10.00"> _domainManager</text>
</g>
<!-- Node7&#45;&gt;Node6 -->
<g id="edge6" class="edge"><title>Node7&#45;&gt;Node6</title>
<path fill="none" stroke="midnightblue" d="M156.774,-196.44C169.934,-184.232 188.095,-167.386 200.826,-155.576"/>
<polygon fill="midnightblue" stroke="midnightblue" points="154.27,-193.988 149.319,-203.355 159.031,-199.12 154.27,-193.988"/>
</g>
<!-- Node8 -->
<g id="node8" class="node"><title>Node8</title>
<g id="a_node8"><a xlink:href="../../df/da1/interfaceNUnit_1_1Engine_1_1IService.html" target="_top" xlink:title="The IService interface is implemented by all Services. Although it is extensible, it does not reside ...">
<polygon fill="white" stroke="black" points="115,-260.5 115,-279.5 165,-279.5 165,-260.5 115,-260.5"/>
<text text-anchor="middle" x="140" y="-267.5" font-family="Helvetica,sans-Serif" font-size="10.00">IService</text>
</a>
</g>
</g>
<!-- Node8&#45;&gt;Node7 -->
<g id="edge7" class="edge"><title>Node8&#45;&gt;Node7</title>
<path fill="none" stroke="midnightblue" d="M140,-250.117C140,-240.817 140,-230.056 140,-222.715"/>
<polygon fill="midnightblue" stroke="midnightblue" points="136.5,-250.406 140,-260.406 143.5,-250.406 136.5,-250.406"/>
</g>
<!-- Node9 -->
<g id="node9" class="node"><title>Node9</title>
<g id="a_node9"><a xlink:href="../../d5/d1d/interfaceNUnit_1_1Engine_1_1ISettings.html" target="_top" xlink:title="The ISettings interface is used to access all user settings and options.">
<polygon fill="white" stroke="black" points="182.5,-203.5 182.5,-222.5 297.5,-222.5 297.5,-203.5 182.5,-203.5"/>
<text text-anchor="middle" x="240" y="-210.5" font-family="Helvetica,sans-Serif" font-size="10.00">NUnit.Engine.ISettings</text>
</a>
</g>
</g>
<!-- Node9&#45;&gt;Node6 -->
<g id="edge9" class="edge"><title>Node9&#45;&gt;Node6</title>
<path fill="none" stroke="#9a32cd" stroke-dasharray="5,2" d="M233.737,-193.601C229.691,-181.718 224.509,-166.494 220.792,-155.576"/>
<polygon fill="#9a32cd" stroke="#9a32cd" points="230.521,-195.017 237.057,-203.355 237.148,-192.761 230.521,-195.017"/>
<text text-anchor="middle" x="268.5" y="-177" font-family="Helvetica,sans-Serif" font-size="10.00"> _settingsService</text>
</g>
<!-- Node10 -->
<g id="node10" class="node"><title>Node10</title>
<g id="a_node10"><a xlink:title=" ">
<polygon fill="white" stroke="#bfbfbf" points="316.5,-203.5 316.5,-222.5 357.5,-222.5 357.5,-203.5 316.5,-203.5"/>
<text text-anchor="middle" x="337" y="-210.5" font-family="Helvetica,sans-Serif" font-size="10.00">static</text>
</a>
</g>
</g>
<!-- Node10&#45;&gt;Node6 -->
<g id="edge10" class="edge"><title>Node10&#45;&gt;Node6</title>
<path fill="none" stroke="#9a32cd" stroke-dasharray="5,2" d="M327.623,-194.227C323.112,-187.104 317.125,-179.337 310,-174 299.635,-166.235 287.276,-160.231 274.98,-155.621"/>
<polygon fill="#9a32cd" stroke="#9a32cd" points="324.801,-196.338 332.829,-203.252 330.864,-192.841 324.801,-196.338"/>
<text text-anchor="middle" x="328" y="-177" font-family="Helvetica,sans-Serif" font-size="10.00"> log</text>
</g>
</g>
</svg>
