<?xml version="1.0" encoding="UTF-8" standalone="no"?>
<!DOCTYPE svg PUBLIC "-//W3C//DTD SVG 1.1//EN"
 "http://www.w3.org/Graphics/SVG/1.1/DTD/svg11.dtd">
<!-- Generated by graphviz version 2.38.0 (20140413.2041)
 -->
<!-- Title: AForge.MachineLearning.TabuSearchExploration Pages: 1 -->
<svg width="300pt" height="117pt"
 viewBox="0.00 0.00 300.00 117.00" xmlns="http://www.w3.org/2000/svg" xmlns:xlink="http://www.w3.org/1999/xlink">
<g id="graph0" class="graph" transform="scale(1 1) rotate(0) translate(4 113)">
<title>AForge.MachineLearning.TabuSearchExploration</title>
<polygon fill="white" stroke="none" points="-4,4 -4,-113 296,-113 296,4 -4,4"/>
<!-- Node1 -->
<g id="node1" class="node"><title>Node1</title>
<g id="a_node1"><a xlink:title="Tabu search exploration policy.">
<polygon fill="#bfbfbf" stroke="black" points="50,-0.5 50,-30.5 199,-30.5 199,-0.5 50,-0.5"/>
<text text-anchor="start" x="58" y="-18.5" font-family="Helvetica,sans-Serif" font-size="10.00">AForge.MachineLearning.Tabu</text>
<text text-anchor="middle" x="124.5" y="-7.5" font-family="Helvetica,sans-Serif" font-size="10.00">SearchExploration</text>
</a>
</g>
</g>
<!-- Node2 -->
<g id="node2" class="node"><title>Node2</title>
<g id="a_node2"><a xlink:href="../../d9/d24/interfaceAForge_1_1MachineLearning_1_1IExplorationPolicy.html" target="_top" xlink:title="Exploration policy interface.">
<polygon fill="white" stroke="black" points="0,-84 0,-103 95,-103 95,-84 0,-84"/>
<text text-anchor="middle" x="47.5" y="-91" font-family="Helvetica,sans-Serif" font-size="10.00">IExplorationPolicy</text>
</a>
</g>
</g>
<!-- Node2&#45;&gt;Node1 -->
<g id="edge1" class="edge"><title>Node2&#45;&gt;Node1</title>
<path fill="none" stroke="midnightblue" d="M63.6864,-76.5238C77.4783,-62.911 97.1044,-43.5398 110.296,-30.5198"/>
<polygon fill="midnightblue" stroke="midnightblue" points="60.9914,-74.2661 56.3329,-83.7818 65.9087,-79.2481 60.9914,-74.2661"/>
</g>
<!-- Node3 -->
<g id="node3" class="node"><title>Node3</title>
<g id="a_node3"><a xlink:href="../../d9/d24/interfaceAForge_1_1MachineLearning_1_1IExplorationPolicy.html" target="_top" xlink:title="Exploration policy interface.">
<polygon fill="white" stroke="black" points="113,-78.5 113,-108.5 292,-108.5 292,-78.5 113,-78.5"/>
<text text-anchor="start" x="121" y="-96.5" font-family="Helvetica,sans-Serif" font-size="10.00">AForge.MachineLearning.IExploration</text>
<text text-anchor="middle" x="202.5" y="-85.5" font-family="Helvetica,sans-Serif" font-size="10.00">Policy</text>
</a>
</g>
</g>
<!-- Node3&#45;&gt;Node1 -->
<g id="edge2" class="edge"><title>Node3&#45;&gt;Node1</title>
<path fill="none" stroke="#9a32cd" stroke-dasharray="5,2" d="M180.468,-71.0332C167.227,-58.1316 150.744,-42.0716 139.105,-30.7309"/>
<polygon fill="#9a32cd" stroke="#9a32cd" points="178.224,-73.7331 187.829,-78.205 183.109,-68.7195 178.224,-73.7331"/>
<text text-anchor="middle" x="194.5" y="-52" font-family="Helvetica,sans-Serif" font-size="10.00"> basePolicy</text>
</g>
</g>
</svg>
