<?xml version="1.0" encoding="UTF-8" standalone="no"?>
<!DOCTYPE svg PUBLIC "-//W3C//DTD SVG 1.1//EN"
 "http://www.w3.org/Graphics/SVG/1.1/DTD/svg11.dtd">
<!-- Generated by graphviz version 2.38.0 (20140413.2041)
 -->
<!-- Title: NUnit.Engine.Runners.AbstractTestRunner Pages: 1 -->
<!--zoomable 235 -->
<svg id="main" version="1.1" xmlns="http://www.w3.org/2000/svg" xmlns:xlink="http://www.w3.org/1999/xlink" xml:space="preserve" onload="init(evt)">
<style type="text/css"><![CDATA[
.edge:hover path { stroke: red; }
.edge:hover polygon { stroke: red; fill: red; }
]]></style>
<script type="text/javascript"><![CDATA[
var edges = document.getElementsByTagName('g');
if (edges && edges.length) {
  for (var i=0;i<edges.length;i++) {
    if (edges[i].id.substr(0,4)=='edge') {
      edges[i].setAttribute('class','edge');
    }
  }
}
]]></script>
        <defs>
                <circle id="rim" cx="0" cy="0" r="7"/>
                <circle id="rim2" cx="0" cy="0" r="3.5"/>
                <g id="zoomPlus">
                        <use xlink:href="#rim" fill="#404040">
                                <set attributeName="fill" to="#808080" begin="zoomplus.mouseover" end="zoomplus.mouseout"/>
                        </use>
                        <path d="M-4,0h8M0,-4v8" fill="none" stroke="white" stroke-width="1.5" pointer-events="none"/>
                </g>
                <g id="zoomMin">
                        <use xlink:href="#rim" fill="#404040">
                                <set attributeName="fill" to="#808080" begin="zoomminus.mouseover" end="zoomminus.mouseout"/>
                        </use>
                        <path d="M-4,0h8" fill="none" stroke="white" stroke-width="1.5" pointer-events="none"/>
                </g>
                <g id="dirArrow">
                        <path fill="none" stroke="white" stroke-width="1.5" d="M0,-3.0v7 M-2.5,-0.5L0,-3.0L2.5,-0.5"/>
                </g>
               <g id="resetDef">
                       <use xlink:href="#rim2" fill="#404040">
                               <set attributeName="fill" to="#808080" begin="reset.mouseover" end="reset.mouseout"/>
                       </use>
               </g>
        </defs>

<script type="text/javascript">
var viewWidth = 785;
var viewHeight = 235;
var sectionId = 'dynsection-0';
</script>
<script xlink:href="../../svgpan.js"/>
<svg id="graph" class="graph">
<g id="viewport">
<title>NUnit.Engine.Runners.AbstractTestRunner</title>
<polygon fill="white" stroke="none" points="-4,4 -4,-231 781,-231 781,4 -4,4"/>
<!-- Node1 -->
<g id="node1" class="node"><title>Node1</title>
<g id="a_node1"><a xlink:title="AbstractTestRunner is the base class for all runners within the NUnit Engine. It implements the ITest...">
<polygon fill="#bfbfbf" stroke="black" points="237,-73.5 237,-103.5 389,-103.5 389,-73.5 237,-73.5"/>
<text text-anchor="start" x="245" y="-91.5" font-family="Helvetica,sans-Serif" font-size="10.00">NUnit.Engine.Runners.Abstract</text>
<text text-anchor="middle" x="313" y="-80.5" font-family="Helvetica,sans-Serif" font-size="10.00">TestRunner</text>
</a>
</g>
</g>
<!-- Node4 -->
<g id="node4" class="node"><title>Node4</title>
<g id="a_node4"><a xlink:href="../../d5/dff/classNUnit_1_1Engine_1_1Runners_1_1AggregatingTestRunner.html" target="_top" xlink:title="AggregatingTestRunner runs tests using multiple subordinate runners and combines the results.">
<polygon fill="white" stroke="black" points="425,-147.5 425,-177.5 592,-177.5 592,-147.5 425,-147.5"/>
<text text-anchor="start" x="433" y="-165.5" font-family="Helvetica,sans-Serif" font-size="10.00">NUnit.Engine.Runners.Aggregating</text>
<text text-anchor="middle" x="508.5" y="-154.5" font-family="Helvetica,sans-Serif" font-size="10.00">TestRunner</text>
</a>
</g>
</g>
<!-- Node1&#45;&gt;Node4 -->
<g id="edge3" class="edge"><title>Node1&#45;&gt;Node4</title>
<path fill="none" stroke="midnightblue" d="M353.819,-108.07C374.719,-117.923 400.924,-129.625 425,-138.5 433.538,-141.647 442.691,-144.657 451.681,-147.417"/>
<polygon fill="midnightblue" stroke="midnightblue" points="355.15,-104.828 344.617,-103.691 352.142,-111.149 355.15,-104.828"/>
</g>
<!-- Node7 -->
<g id="node7" class="node"><title>Node7</title>
<g id="a_node7"><a xlink:href="../../d0/d25/classNUnit_1_1Engine_1_1Runners_1_1DirectTestRunner.html" target="_top" xlink:title="DirectTestRunner is the abstract base for runners that deal directly with a framework driver.">
<polygon fill="white" stroke="black" points="438,-98.5 438,-128.5 579,-128.5 579,-98.5 438,-98.5"/>
<text text-anchor="start" x="446" y="-116.5" font-family="Helvetica,sans-Serif" font-size="10.00">NUnit.Engine.Runners.Direct</text>
<text text-anchor="middle" x="508.5" y="-105.5" font-family="Helvetica,sans-Serif" font-size="10.00">TestRunner</text>
</a>
</g>
</g>
<!-- Node1&#45;&gt;Node7 -->
<g id="edge6" class="edge"><title>Node1&#45;&gt;Node7</title>
<path fill="none" stroke="midnightblue" d="M399.334,-99.5251C412.204,-101.188 425.347,-102.886 437.836,-104.499"/>
<polygon fill="midnightblue" stroke="midnightblue" points="399.455,-96.0117 389.089,-98.2014 398.558,-102.954 399.455,-96.0117"/>
</g>
<!-- Node10 -->
<g id="node10" class="node"><title>Node10</title>
<g id="a_node10"><a xlink:href="../../d7/d86/classNUnit_1_1Engine_1_1Runners_1_1MasterTestRunner.html" target="_top" xlink:title=" ">
<polygon fill="white" stroke="black" points="435.5,-49.5 435.5,-79.5 581.5,-79.5 581.5,-49.5 435.5,-49.5"/>
<text text-anchor="start" x="443.5" y="-67.5" font-family="Helvetica,sans-Serif" font-size="10.00">NUnit.Engine.Runners.Master</text>
<text text-anchor="middle" x="508.5" y="-56.5" font-family="Helvetica,sans-Serif" font-size="10.00">TestRunner</text>
</a>
</g>
</g>
<!-- Node1&#45;&gt;Node10 -->
<g id="edge9" class="edge"><title>Node1&#45;&gt;Node10</title>
<path fill="none" stroke="midnightblue" d="M399.149,-77.9388C411.214,-76.4424 423.524,-74.9157 435.312,-73.4536"/>
<polygon fill="midnightblue" stroke="midnightblue" points="398.582,-74.4823 389.089,-79.1866 399.444,-81.429 398.582,-74.4823"/>
</g>
<!-- Node11 -->
<g id="node11" class="node"><title>Node11</title>
<g id="a_node11"><a xlink:href="../../da/d5d/classNUnit_1_1Engine_1_1Runners_1_1ProcessRunner.html" target="_top" xlink:title="Summary description for ProcessRunner.">
<polygon fill="white" stroke="black" points="432.5,-0.5 432.5,-30.5 584.5,-30.5 584.5,-0.5 432.5,-0.5"/>
<text text-anchor="start" x="440.5" y="-18.5" font-family="Helvetica,sans-Serif" font-size="10.00">NUnit.Engine.Runners.Process</text>
<text text-anchor="middle" x="508.5" y="-7.5" font-family="Helvetica,sans-Serif" font-size="10.00">Runner</text>
</a>
</g>
</g>
<!-- Node1&#45;&gt;Node11 -->
<g id="edge10" class="edge"><title>Node1&#45;&gt;Node11</title>
<path fill="none" stroke="midnightblue" d="M354.307,-69.1619C375.143,-59.5627 401.143,-48.1925 425,-39.5 433.69,-36.3339 443.009,-33.2937 452.144,-30.5041"/>
<polygon fill="midnightblue" stroke="midnightblue" points="352.716,-66.0418 345.124,-73.4317 355.667,-72.3893 352.716,-66.0418"/>
</g>
<!-- Node2 -->
<g id="node2" class="node"><title>Node2</title>
<g id="a_node2"><a xlink:href="../../d3/df0/interfaceNUnit_1_1Engine_1_1ITestEngineRunner.html" target="_top" xlink:title="Interface implemented by all internal test runners in the engine, allowing them to pass back TestEngi...">
<polygon fill="white" stroke="black" points="103,-79 103,-98 201,-98 201,-79 103,-79"/>
<text text-anchor="middle" x="152" y="-86" font-family="Helvetica,sans-Serif" font-size="10.00">ITestEngineRunner</text>
</a>
</g>
</g>
<!-- Node2&#45;&gt;Node1 -->
<g id="edge1" class="edge"><title>Node2&#45;&gt;Node1</title>
<path fill="none" stroke="midnightblue" d="M211.384,-88.5C219.635,-88.5 228.213,-88.5 236.726,-88.5"/>
<polygon fill="midnightblue" stroke="midnightblue" points="211.137,-85.0001 201.137,-88.5 211.137,-92.0001 211.137,-85.0001"/>
</g>
<!-- Node3 -->
<g id="node3" class="node"><title>Node3</title>
<g id="a_node3"><a xlink:title=" ">
<polygon fill="white" stroke="#bfbfbf" points="0,-79 0,-98 67,-98 67,-79 0,-79"/>
<text text-anchor="middle" x="33.5" y="-86" font-family="Helvetica,sans-Serif" font-size="10.00">IDisposable</text>
</a>
</g>
</g>
<!-- Node3&#45;&gt;Node2 -->
<g id="edge2" class="edge"><title>Node3&#45;&gt;Node2</title>
<path fill="none" stroke="midnightblue" d="M77.4388,-88.5C85.7038,-88.5 94.4113,-88.5 102.829,-88.5"/>
<polygon fill="midnightblue" stroke="midnightblue" points="77.2618,-85.0001 67.2618,-88.5 77.2617,-92.0001 77.2618,-85.0001"/>
</g>
<!-- Node5 -->
<g id="node5" class="node"><title>Node5</title>
<g id="a_node5"><a xlink:href="../../d7/d9e/classNUnit_1_1Engine_1_1Runners_1_1MultipleTestDomainRunner.html" target="_top" xlink:title="MultipleTestDomainRunner runs tests using separate AppDomains for each assembly.">
<polygon fill="white" stroke="black" points="628,-196.5 628,-226.5 777,-226.5 777,-196.5 628,-196.5"/>
<text text-anchor="start" x="636" y="-214.5" font-family="Helvetica,sans-Serif" font-size="10.00">NUnit.Engine.Runners.Multiple</text>
<text text-anchor="middle" x="702.5" y="-203.5" font-family="Helvetica,sans-Serif" font-size="10.00">TestDomainRunner</text>
</a>
</g>
</g>
<!-- Node4&#45;&gt;Node5 -->
<g id="edge4" class="edge"><title>Node4&#45;&gt;Node5</title>
<path fill="none" stroke="midnightblue" d="M578.267,-180.05C599.351,-185.431 622.345,-191.299 642.7,-196.494"/>
<polygon fill="midnightblue" stroke="midnightblue" points="578.966,-176.616 568.411,-177.535 577.235,-183.399 578.966,-176.616"/>
</g>
<!-- Node6 -->
<g id="node6" class="node"><title>Node6</title>
<g id="a_node6"><a xlink:href="../../d7/d23/classNUnit_1_1Engine_1_1Runners_1_1MultipleTestProcessRunner.html" target="_top" xlink:title="MultipleTestProcessRunner runs tests using separate Processes for each assembly.">
<polygon fill="white" stroke="black" points="628,-147.5 628,-177.5 777,-177.5 777,-147.5 628,-147.5"/>
<text text-anchor="start" x="636" y="-165.5" font-family="Helvetica,sans-Serif" font-size="10.00">NUnit.Engine.Runners.Multiple</text>
<text text-anchor="middle" x="702.5" y="-154.5" font-family="Helvetica,sans-Serif" font-size="10.00">TestProcessRunner</text>
</a>
</g>
</g>
<!-- Node4&#45;&gt;Node6 -->
<g id="edge5" class="edge"><title>Node4&#45;&gt;Node6</title>
<path fill="none" stroke="midnightblue" d="M602.123,-162.5C610.741,-162.5 619.396,-162.5 627.808,-162.5"/>
<polygon fill="midnightblue" stroke="midnightblue" points="602.04,-159 592.04,-162.5 602.04,-166 602.04,-159"/>
</g>
<!-- Node8 -->
<g id="node8" class="node"><title>Node8</title>
<g id="a_node8"><a xlink:href="../../d1/d77/classNUnit_1_1Engine_1_1Runners_1_1LocalTestRunner.html" target="_top" xlink:title="LocalTestRunner runs tests in the current AppDomain.">
<polygon fill="white" stroke="black" points="633,-98.5 633,-128.5 772,-128.5 772,-98.5 633,-98.5"/>
<text text-anchor="start" x="641" y="-116.5" font-family="Helvetica,sans-Serif" font-size="10.00">NUnit.Engine.Runners.Local</text>
<text text-anchor="middle" x="702.5" y="-105.5" font-family="Helvetica,sans-Serif" font-size="10.00">TestRunner</text>
</a>
</g>
</g>
<!-- Node7&#45;&gt;Node8 -->
<g id="edge7" class="edge"><title>Node7&#45;&gt;Node8</title>
<path fill="none" stroke="midnightblue" d="M589.464,-113.5C603.86,-113.5 618.751,-113.5 632.792,-113.5"/>
<polygon fill="midnightblue" stroke="midnightblue" points="589.088,-110 579.088,-113.5 589.088,-117 589.088,-110"/>
</g>
<!-- Node9 -->
<g id="node9" class="node"><title>Node9</title>
<g id="a_node9"><a xlink:href="../../d2/d8d/classNUnit_1_1Engine_1_1Runners_1_1TestDomainRunner.html" target="_top" xlink:title="TestDomainRunner loads and runs tests in a separate domain whose lifetime it controls.">
<polygon fill="white" stroke="black" points="635.5,-49.5 635.5,-79.5 769.5,-79.5 769.5,-49.5 635.5,-49.5"/>
<text text-anchor="start" x="643.5" y="-67.5" font-family="Helvetica,sans-Serif" font-size="10.00">NUnit.Engine.Runners.Test</text>
<text text-anchor="middle" x="702.5" y="-56.5" font-family="Helvetica,sans-Serif" font-size="10.00">DomainRunner</text>
</a>
</g>
</g>
<!-- Node7&#45;&gt;Node9 -->
<g id="edge8" class="edge"><title>Node7&#45;&gt;Node9</title>
<path fill="none" stroke="midnightblue" d="M578.267,-95.9502C599.351,-90.5694 622.345,-84.701 642.7,-79.5062"/>
<polygon fill="midnightblue" stroke="midnightblue" points="577.235,-92.6012 568.411,-98.4654 578.966,-99.3838 577.235,-92.6012"/>
</g>
</g>
</svg>
        <g id="navigator" transform="translate(0 0)" fill="#404254">
                <rect fill="#f2f5e9" fill-opacity="0.5" stroke="#606060" stroke-width=".5" x="0" y="0" width="60" height="60"/>
                <use id="zoomplus" xlink:href="#zoomPlus" x="17" y="9" onmousedown="handleZoom(evt,'in')"/>
                <use id="zoomminus" xlink:href="#zoomMin" x="42" y="9" onmousedown="handleZoom(evt,'out')"/>
                <use id="reset" xlink:href="#resetDef" x="30" y="36" onmousedown="handleReset()"/>
                <g id="arrowUp" xlink:href="#dirArrow" transform="translate(30 24)" onmousedown="handlePan(0,-1)">
                  <use xlink:href="#rim" fill="#404040">
                        <set attributeName="fill" to="#808080" begin="arrowUp.mouseover" end="arrowUp.mouseout"/>
                  </use>
                  <path fill="none" stroke="white" stroke-width="1.5" d="M0,-3.0v7 M-2.5,-0.5L0,-3.0L2.5,-0.5"/>
                </g>
                <g id="arrowRight" xlink:href="#dirArrow" transform="rotate(90) translate(36 -43)" onmousedown="handlePan(1,0)">
                  <use xlink:href="#rim" fill="#404040">
                        <set attributeName="fill" to="#808080" begin="arrowRight.mouseover" end="arrowRight.mouseout"/>
                  </use>
                  <path fill="none" stroke="white" stroke-width="1.5" d="M0,-3.0v7 M-2.5,-0.5L0,-3.0L2.5,-0.5"/>
                </g>
                <g id="arrowDown" xlink:href="#dirArrow" transform="rotate(180) translate(-30 -48)" onmousedown="handlePan(0,1)">
                  <use xlink:href="#rim" fill="#404040">
                        <set attributeName="fill" to="#808080" begin="arrowDown.mouseover" end="arrowDown.mouseout"/>
                  </use>
                  <path fill="none" stroke="white" stroke-width="1.5" d="M0,-3.0v7 M-2.5,-0.5L0,-3.0L2.5,-0.5"/>
                </g>
                <g id="arrowLeft" xlink:href="#dirArrow" transform="rotate(270) translate(-36 17)" onmousedown="handlePan(-1,0)">
                  <use xlink:href="#rim" fill="#404040">
                        <set attributeName="fill" to="#808080" begin="arrowLeft.mouseover" end="arrowLeft.mouseout"/>
                  </use>
                  <path fill="none" stroke="white" stroke-width="1.5" d="M0,-3.0v7 M-2.5,-0.5L0,-3.0L2.5,-0.5"/>
                </g>
        </g>
        <svg viewBox="0 0 15 15" width="100%" height="30px" preserveAspectRatio="xMaxYMin meet">
         <g id="arrow_out" transform="scale(0.3 0.3)">
          <a xlink:href="classNUnit_1_1Engine_1_1Runners_1_1AbstractTestRunner__inherit__graph_org.svg" target="_base">
           <rect id="button" ry="5" rx="5" y="6" x="6" height="38" width="38"
                fill="#f2f5e9" fill-opacity="0.5" stroke="#606060" stroke-width="1.0"/>
           <path id="arrow"
             d="M 11.500037,31.436501 C 11.940474,20.09759 22.043105,11.32322 32.158766,21.979434 L 37.068811,17.246167 C 37.068811,17.246167 37.088388,32 37.088388,32 L 22.160133,31.978069 C 22.160133,31.978069 26.997745,27.140456 26.997745,27.140456 C 18.528582,18.264221 13.291696,25.230495 11.500037,31.436501 z"
             style="fill:#404040;"/>
          </a>
         </g>
        </svg>
</svg>
