<?xml version="1.0" encoding="UTF-8" standalone="no"?>
<!DOCTYPE svg PUBLIC "-//W3C//DTD SVG 1.1//EN"
 "http://www.w3.org/Graphics/SVG/1.1/DTD/svg11.dtd">
<!-- Generated by graphviz version 2.38.0 (20140413.2041)
 -->
<!-- Title: CShell.Modules.Shell.ViewModels.ToolBarViewModel Pages: 1 -->
<svg width="310pt" height="253pt"
 viewBox="0.00 0.00 309.50 253.00" xmlns="http://www.w3.org/2000/svg" xmlns:xlink="http://www.w3.org/1999/xlink">
<g id="graph0" class="graph" transform="scale(1 1) rotate(0) translate(4 249)">
<title>CShell.Modules.Shell.ViewModels.ToolBarViewModel</title>
<polygon fill="white" stroke="none" points="-4,4 -4,-249 305.5,-249 305.5,4 -4,4"/>
<!-- Node1 -->
<g id="node1" class="node"><title>Node1</title>
<g id="a_node1"><a xlink:title=" ">
<polygon fill="#bfbfbf" stroke="black" points="113,-0.5 113,-30.5 247,-30.5 247,-0.5 113,-0.5"/>
<text text-anchor="start" x="121" y="-18.5" font-family="Helvetica,sans-Serif" font-size="10.00">CShell.Modules.Shell.View</text>
<text text-anchor="middle" x="180" y="-7.5" font-family="Helvetica,sans-Serif" font-size="10.00">Models.ToolBarViewModel</text>
</a>
</g>
</g>
<!-- Node2 -->
<g id="node2" class="node"><title>Node2</title>
<g id="a_node2"><a xlink:href="../../d5/d58/classCShell_1_1Framework_1_1Menus_1_1ToolBarModel.html" target="_top" xlink:title=" ">
<polygon fill="white" stroke="black" points="68,-84 68,-103 144,-103 144,-84 68,-84"/>
<text text-anchor="middle" x="106" y="-91" font-family="Helvetica,sans-Serif" font-size="10.00">ToolBarModel</text>
</a>
</g>
</g>
<!-- Node2&#45;&gt;Node1 -->
<g id="edge1" class="edge"><title>Node2&#45;&gt;Node1</title>
<path fill="none" stroke="midnightblue" d="M121.556,-76.5238C134.81,-62.911 153.672,-43.5398 166.349,-30.5198"/>
<polygon fill="midnightblue" stroke="midnightblue" points="118.957,-74.1754 114.489,-83.7818 123.973,-79.0588 118.957,-74.1754"/>
</g>
<!-- Node3 -->
<g id="node3" class="node"><title>Node3</title>
<g id="a_node3"><a xlink:title=" ">
<polygon fill="white" stroke="#bfbfbf" points="0,-146.5 0,-176.5 100,-176.5 100,-146.5 0,-146.5"/>
<text text-anchor="start" x="8" y="-164.5" font-family="Helvetica,sans-Serif" font-size="10.00">BindableCollection</text>
<text text-anchor="middle" x="50" y="-153.5" font-family="Helvetica,sans-Serif" font-size="10.00">&lt; MenuItemBase &gt;</text>
</a>
</g>
</g>
<!-- Node3&#45;&gt;Node2 -->
<g id="edge2" class="edge"><title>Node3&#45;&gt;Node2</title>
<path fill="none" stroke="midnightblue" d="M68.8185,-138.321C78.9782,-126.347 90.9513,-112.236 98.5093,-103.328"/>
<polygon fill="midnightblue" stroke="midnightblue" points="65.9522,-136.289 62.1512,-146.179 71.2898,-140.818 65.9522,-136.289"/>
</g>
<!-- Node4 -->
<g id="node4" class="node"><title>Node4</title>
<g id="a_node4"><a xlink:href="../../df/db0/interfaceCShell_1_1Framework_1_1Menus_1_1IToolBar.html" target="_top" xlink:title=" ">
<polygon fill="white" stroke="black" points="118,-152 118,-171 170,-171 170,-152 118,-152"/>
<text text-anchor="middle" x="144" y="-159" font-family="Helvetica,sans-Serif" font-size="10.00">IToolBar</text>
</a>
</g>
</g>
<!-- Node4&#45;&gt;Node2 -->
<g id="edge3" class="edge"><title>Node4&#45;&gt;Node2</title>
<path fill="none" stroke="midnightblue" d="M133.961,-143.063C126.601,-130.281 116.916,-113.46 111.09,-103.341"/>
<polygon fill="midnightblue" stroke="midnightblue" points="131.009,-144.952 139.032,-151.872 137.076,-141.459 131.009,-144.952"/>
</g>
<!-- Node5 -->
<g id="node5" class="node"><title>Node5</title>
<g id="a_node5"><a xlink:title=" ">
<polygon fill="white" stroke="#bfbfbf" points="89,-214.5 89,-244.5 199,-244.5 199,-214.5 89,-214.5"/>
<text text-anchor="start" x="97" y="-232.5" font-family="Helvetica,sans-Serif" font-size="10.00">IObservableCollection</text>
<text text-anchor="middle" x="144" y="-221.5" font-family="Helvetica,sans-Serif" font-size="10.00">&lt; MenuItemBase &gt;</text>
</a>
</g>
</g>
<!-- Node5&#45;&gt;Node4 -->
<g id="edge4" class="edge"><title>Node5&#45;&gt;Node4</title>
<path fill="none" stroke="midnightblue" d="M144,-203.876C144,-192.471 144,-179.636 144,-171.328"/>
<polygon fill="midnightblue" stroke="midnightblue" points="140.5,-204.179 144,-214.179 147.5,-204.179 140.5,-204.179"/>
</g>
<!-- Node6 -->
<g id="node6" class="node"><title>Node6</title>
<g id="a_node6"><a xlink:href="../../d9/da1/interfaceCShell_1_1Framework_1_1Services_1_1IShell.html" target="_top" xlink:title=" ">
<polygon fill="white" stroke="black" points="162.5,-78.5 162.5,-108.5 301.5,-108.5 301.5,-78.5 162.5,-78.5"/>
<text text-anchor="start" x="170.5" y="-96.5" font-family="Helvetica,sans-Serif" font-size="10.00">CShell.Framework.Services.</text>
<text text-anchor="middle" x="232" y="-85.5" font-family="Helvetica,sans-Serif" font-size="10.00">IShell</text>
</a>
</g>
</g>
<!-- Node6&#45;&gt;Node1 -->
<g id="edge5" class="edge"><title>Node6&#45;&gt;Node1</title>
<path fill="none" stroke="#9a32cd" stroke-dasharray="5,2" d="M216.565,-69.9408C207.871,-57.2348 197.279,-41.7536 189.737,-30.7309"/>
<polygon fill="#9a32cd" stroke="#9a32cd" points="213.684,-71.9283 222.219,-78.205 219.461,-67.9755 213.684,-71.9283"/>
<text text-anchor="middle" x="224.5" y="-52" font-family="Helvetica,sans-Serif" font-size="10.00"> _shell</text>
</g>
<!-- Node7 -->
<g id="node7" class="node"><title>Node7</title>
<g id="a_node7"><a xlink:title=" ">
<polygon fill="white" stroke="#bfbfbf" points="200.5,-152 200.5,-171 263.5,-171 263.5,-152 200.5,-152"/>
<text text-anchor="middle" x="232" y="-159" font-family="Helvetica,sans-Serif" font-size="10.00">IConductor</text>
</a>
</g>
</g>
<!-- Node7&#45;&gt;Node6 -->
<g id="edge6" class="edge"><title>Node7&#45;&gt;Node6</title>
<path fill="none" stroke="midnightblue" d="M232,-141.674C232,-131.178 232,-118.321 232,-108.681"/>
<polygon fill="midnightblue" stroke="midnightblue" points="228.5,-141.872 232,-151.872 235.5,-141.872 228.5,-141.872"/>
</g>
</g>
</svg>
