<?xml version="1.0" encoding="UTF-8" standalone="no"?>
<!DOCTYPE svg PUBLIC "-//W3C//DTD SVG 1.1//EN"
 "http://www.w3.org/Graphics/SVG/1.1/DTD/svg11.dtd">
<!-- Generated by graphviz version 2.38.0 (20140413.2041)
 -->
<!-- Title: IG.Neural.Forms.NeuralInputParameterSelectorMinMax Pages: 1 -->
<svg width="374pt" height="216pt"
 viewBox="0.00 0.00 374.00 216.00" xmlns="http://www.w3.org/2000/svg" xmlns:xlink="http://www.w3.org/1999/xlink">
<g id="graph0" class="graph" transform="scale(1 1) rotate(0) translate(4 212)">
<title>IG.Neural.Forms.NeuralInputParameterSelectorMinMax</title>
<polygon fill="white" stroke="none" points="-4,4 -4,-212 370,-212 370,4 -4,4"/>
<!-- Node1 -->
<g id="node1" class="node"><title>Node1</title>
<g id="a_node1"><a xlink:title="Selection of parameter to be varied, together with bounds &#45; for parametric tests.">
<polygon fill="#bfbfbf" stroke="black" points="41,-0.5 41,-30.5 181,-30.5 181,-0.5 41,-0.5"/>
<text text-anchor="start" x="49" y="-18.5" font-family="Helvetica,sans-Serif" font-size="10.00">IG.Neural.Forms.NeuralInput</text>
<text text-anchor="middle" x="111" y="-7.5" font-family="Helvetica,sans-Serif" font-size="10.00">ParameterSelectorMinMax</text>
</a>
</g>
</g>
<!-- Node2 -->
<g id="node2" class="node"><title>Node2</title>
<g id="a_node2"><a xlink:title=" ">
<polygon fill="white" stroke="#bfbfbf" points="0,-188.5 0,-207.5 68,-207.5 68,-188.5 0,-188.5"/>
<text text-anchor="middle" x="34" y="-195.5" font-family="Helvetica,sans-Serif" font-size="10.00">UserControl</text>
</a>
</g>
</g>
<!-- Node2&#45;&gt;Node1 -->
<g id="edge1" class="edge"><title>Node2&#45;&gt;Node1</title>
<path fill="none" stroke="midnightblue" d="M41.6676,-179.026C57.005,-143.073 91.1752,-62.9725 105.011,-30.5391"/>
<polygon fill="midnightblue" stroke="midnightblue" points="38.4184,-177.723 37.7139,-188.294 44.8571,-180.469 38.4184,-177.723"/>
</g>
<!-- Node3 -->
<g id="node3" class="node"><title>Node3</title>
<g id="a_node3"><a xlink:title=" ">
<polygon fill="white" stroke="#bfbfbf" points="86,-188.5 86,-207.5 136,-207.5 136,-188.5 86,-188.5"/>
<text text-anchor="middle" x="111" y="-195.5" font-family="Helvetica,sans-Serif" font-size="10.00">System</text>
</a>
</g>
</g>
<!-- Node3&#45;&gt;Node1 -->
<g id="edge2" class="edge"><title>Node3&#45;&gt;Node1</title>
<path fill="none" stroke="#9a32cd" stroke-dasharray="5,2" d="M111,-178.09C111,-141.701 111,-62.6941 111,-30.5391"/>
<polygon fill="#9a32cd" stroke="#9a32cd" points="107.5,-178.294 111,-188.294 114.5,-178.294 107.5,-178.294"/>
<text text-anchor="middle" x="152.5" y="-162" font-family="Helvetica,sans-Serif" font-size="10.00"> btnIncrease</text>
<text text-anchor="middle" x="152.5" y="-151" font-family="Helvetica,sans-Serif" font-size="10.00">lblFrom</text>
<text text-anchor="middle" x="152.5" y="-140" font-family="Helvetica,sans-Serif" font-size="10.00">txtMaxValue</text>
<text text-anchor="middle" x="152.5" y="-129" font-family="Helvetica,sans-Serif" font-size="10.00">txtParamNum</text>
<text text-anchor="middle" x="152.5" y="-118" font-family="Helvetica,sans-Serif" font-size="10.00">components</text>
<text text-anchor="middle" x="152.5" y="-107" font-family="Helvetica,sans-Serif" font-size="10.00">lblSelectParameter</text>
<text text-anchor="middle" x="152.5" y="-96" font-family="Helvetica,sans-Serif" font-size="10.00">lblParamNum</text>
<text text-anchor="middle" x="152.5" y="-85" font-family="Helvetica,sans-Serif" font-size="10.00">txtMinValue</text>
<text text-anchor="middle" x="152.5" y="-74" font-family="Helvetica,sans-Serif" font-size="10.00">btnDecrease</text>
<text text-anchor="middle" x="152.5" y="-63" font-family="Helvetica,sans-Serif" font-size="10.00">pnlMain</text>
<text text-anchor="middle" x="152.5" y="-52" font-family="Helvetica,sans-Serif" font-size="10.00">...</text>
</g>
<!-- Node4 -->
<g id="node4" class="node"><title>Node4</title>
<g id="a_node4"><a xlink:href="../../d1/d98/interfaceIG_1_1Neural_1_1INeuralModelContainer.html" target="_top" xlink:title="Interface for classes that contain the NeuralModel property that implements the INeuralModel interfac...">
<polygon fill="white" stroke="black" points="154,-188.5 154,-207.5 312,-207.5 312,-188.5 154,-188.5"/>
<text text-anchor="middle" x="233" y="-195.5" font-family="Helvetica,sans-Serif" font-size="10.00">IG.Neural.INeuralModelContainer</text>
</a>
</g>
</g>
<!-- Node4&#45;&gt;Node1 -->
<g id="edge3" class="edge"><title>Node4&#45;&gt;Node1</title>
<path fill="none" stroke="#9a32cd" stroke-dasharray="5,2" d="M233.865,-178.221C234.249,-147.41 230.521,-85.8736 198,-49 191.068,-41.1399 182.047,-35.176 172.445,-30.6521"/>
<polygon fill="#9a32cd" stroke="#9a32cd" points="230.361,-178.312 233.568,-188.41 237.358,-178.516 230.361,-178.312"/>
<text text-anchor="middle" x="299.5" y="-107" font-family="Helvetica,sans-Serif" font-size="10.00"> _neuralModelContainerControl</text>
</g>
</g>
</svg>
