<?xml version="1.0" encoding="UTF-8" standalone="no"?>
<!DOCTYPE svg PUBLIC "-//W3C//DTD SVG 1.1//EN"
 "http://www.w3.org/Graphics/SVG/1.1/DTD/svg11.dtd">
<!-- Generated by graphviz version 2.38.0 (20140413.2041)
 -->
<!-- Title: Test.ThreeJSymbol Pages: 1 -->
<svg width="159pt" height="184pt"
 viewBox="0.00 0.00 159.00 184.00" xmlns="http://www.w3.org/2000/svg" xmlns:xlink="http://www.w3.org/1999/xlink">
<g id="graph0" class="graph" transform="scale(1 1) rotate(0) translate(4 180)">
<title>Test.ThreeJSymbol</title>
<polygon fill="white" stroke="none" points="-4,4 -4,-180 155,-180 155,4 -4,4"/>
<!-- Node1 -->
<g id="node1" class="node"><title>Node1</title>
<g id="a_node1"><a xlink:title=" ">
<polygon fill="#bfbfbf" stroke="black" points="25.5,-0.5 25.5,-19.5 125.5,-19.5 125.5,-0.5 25.5,-0.5"/>
<text text-anchor="middle" x="75.5" y="-7.5" font-family="Helvetica,sans-Serif" font-size="10.00">Test.ThreeJSymbol</text>
</a>
</g>
</g>
<!-- Node2 -->
<g id="node2" class="node"><title>Node2</title>
<g id="a_node2"><a xlink:href="../../d0/d21/structMeta_1_1Numerics_1_1Spin_1_1SpinState.html" target="_top" xlink:title="Represents the state of a spinor.">
<polygon fill="white" stroke="black" points="0,-89.5 0,-108.5 151,-108.5 151,-89.5 0,-89.5"/>
<text text-anchor="middle" x="75.5" y="-96.5" font-family="Helvetica,sans-Serif" font-size="10.00">Meta.Numerics.Spin.SpinState</text>
</a>
</g>
</g>
<!-- Node2&#45;&gt;Node1 -->
<g id="edge1" class="edge"><title>Node2&#45;&gt;Node1</title>
<path fill="none" stroke="#9a32cd" stroke-dasharray="5,2" d="M75.5,-79.1946C75.5,-60.7379 75.5,-33.412 75.5,-19.6249"/>
<polygon fill="#9a32cd" stroke="#9a32cd" points="72.0001,-79.34 75.5,-89.34 79.0001,-79.3401 72.0001,-79.34"/>
<text text-anchor="middle" x="96.5" y="-63" font-family="Helvetica,sans-Serif" font-size="10.00"> Column1</text>
<text text-anchor="middle" x="96.5" y="-52" font-family="Helvetica,sans-Serif" font-size="10.00">Column2</text>
<text text-anchor="middle" x="96.5" y="-41" font-family="Helvetica,sans-Serif" font-size="10.00">Column3</text>
</g>
<!-- Node3 -->
<g id="node3" class="node"><title>Node3</title>
<g id="a_node3"><a xlink:href="../../d9/d01/structMeta_1_1Numerics_1_1Spin_1_1Spin.html" target="_top" xlink:title="Represents a spinor.">
<polygon fill="white" stroke="black" points="11.5,-156.5 11.5,-175.5 139.5,-175.5 139.5,-156.5 11.5,-156.5"/>
<text text-anchor="middle" x="75.5" y="-163.5" font-family="Helvetica,sans-Serif" font-size="10.00">Meta.Numerics.Spin.Spin</text>
</a>
</g>
</g>
<!-- Node3&#45;&gt;Node2 -->
<g id="edge2" class="edge"><title>Node3&#45;&gt;Node2</title>
<path fill="none" stroke="#9a32cd" stroke-dasharray="5,2" d="M75.5,-146.037C75.5,-133.67 75.5,-118.12 75.5,-108.627"/>
<polygon fill="#9a32cd" stroke="#9a32cd" points="72.0001,-146.234 75.5,-156.234 79.0001,-146.234 72.0001,-146.234"/>
<text text-anchor="middle" x="86.5" y="-130" font-family="Helvetica,sans-Serif" font-size="10.00"> spin</text>
</g>
</g>
</svg>
