<?xml version="1.0" encoding="UTF-8" standalone="no"?>
<!DOCTYPE svg PUBLIC "-//W3C//DTD SVG 1.1//EN"
 "http://www.w3.org/Graphics/SVG/1.1/DTD/svg11.dtd">
<!-- Generated by graphviz version 2.38.0 (20140413.2041)
 -->
<!-- Title: NUnit.Framework.Constraints.ComparisonAdapter.ComparerAdapter Pages: 1 -->
<svg width="195pt" height="117pt"
 viewBox="0.00 0.00 195.00 117.00" xmlns="http://www.w3.org/2000/svg" xmlns:xlink="http://www.w3.org/1999/xlink">
<g id="graph0" class="graph" transform="scale(1 1) rotate(0) translate(4 113)">
<title>NUnit.Framework.Constraints.ComparisonAdapter.ComparerAdapter</title>
<polygon fill="white" stroke="none" points="-4,4 -4,-113 191,-113 191,4 -4,4"/>
<!-- Node1 -->
<g id="node1" class="node"><title>Node1</title>
<g id="a_node1"><a xlink:title=" ">
<polygon fill="#bfbfbf" stroke="black" points="3,-78.5 3,-108.5 184,-108.5 184,-78.5 3,-78.5"/>
<text text-anchor="start" x="11" y="-96.5" font-family="Helvetica,sans-Serif" font-size="10.00">NUnit.Framework.Constraints.</text>
<text text-anchor="middle" x="93.5" y="-85.5" font-family="Helvetica,sans-Serif" font-size="10.00">ComparisonAdapter.ComparerAdapter</text>
</a>
</g>
</g>
<!-- Node2 -->
<g id="node2" class="node"><title>Node2</title>
<g id="a_node2"><a xlink:href="../../de/d32/classNUnit_1_1Framework_1_1Constraints_1_1ComparisonAdapter_1_1DefaultComparisonAdapter.html" target="_top" xlink:title=" ">
<polygon fill="white" stroke="black" points="0,-0.5 0,-41.5 187,-41.5 187,-0.5 0,-0.5"/>
<text text-anchor="start" x="8" y="-29.5" font-family="Helvetica,sans-Serif" font-size="10.00">NUnit.Framework.Constraints.</text>
<text text-anchor="start" x="8" y="-18.5" font-family="Helvetica,sans-Serif" font-size="10.00">ComparisonAdapter.DefaultComparison</text>
<text text-anchor="middle" x="93.5" y="-7.5" font-family="Helvetica,sans-Serif" font-size="10.00">Adapter</text>
</a>
</g>
</g>
<!-- Node1&#45;&gt;Node2 -->
<g id="edge1" class="edge"><title>Node1&#45;&gt;Node2</title>
<path fill="none" stroke="midnightblue" d="M93.5,-67.9815C93.5,-59.3468 93.5,-49.7625 93.5,-41.5884"/>
<polygon fill="midnightblue" stroke="midnightblue" points="90.0001,-68.2332 93.5,-78.2333 97.0001,-68.2333 90.0001,-68.2332"/>
</g>
</g>
</svg>
