<?xml version="1.0" encoding="UTF-8" standalone="no"?>
<!DOCTYPE svg PUBLIC "-//W3C//DTD SVG 1.1//EN"
 "http://www.w3.org/Graphics/SVG/1.1/DTD/svg11.dtd">
<!-- Generated by graphviz version 2.38.0 (20140413.2041)
 -->
<!-- Title: IG.Num.Func2dBaseNoHessian Pages: 1 -->
<!--zoomable 339 -->
<svg id="main" version="1.1" xmlns="http://www.w3.org/2000/svg" xmlns:xlink="http://www.w3.org/1999/xlink" xml:space="preserve" onload="init(evt)">
<style type="text/css"><![CDATA[
.edge:hover path { stroke: red; }
.edge:hover polygon { stroke: red; fill: red; }
]]></style>
<script type="text/javascript"><![CDATA[
var edges = document.getElementsByTagName('g');
if (edges && edges.length) {
  for (var i=0;i<edges.length;i++) {
    if (edges[i].id.substr(0,4)=='edge') {
      edges[i].setAttribute('class','edge');
    }
  }
}
]]></script>
        <defs>
                <circle id="rim" cx="0" cy="0" r="7"/>
                <circle id="rim2" cx="0" cy="0" r="3.5"/>
                <g id="zoomPlus">
                        <use xlink:href="#rim" fill="#404040">
                                <set attributeName="fill" to="#808080" begin="zoomplus.mouseover" end="zoomplus.mouseout"/>
                        </use>
                        <path d="M-4,0h8M0,-4v8" fill="none" stroke="white" stroke-width="1.5" pointer-events="none"/>
                </g>
                <g id="zoomMin">
                        <use xlink:href="#rim" fill="#404040">
                                <set attributeName="fill" to="#808080" begin="zoomminus.mouseover" end="zoomminus.mouseout"/>
                        </use>
                        <path d="M-4,0h8" fill="none" stroke="white" stroke-width="1.5" pointer-events="none"/>
                </g>
                <g id="dirArrow">
                        <path fill="none" stroke="white" stroke-width="1.5" d="M0,-3.0v7 M-2.5,-0.5L0,-3.0L2.5,-0.5"/>
                </g>
               <g id="resetDef">
                       <use xlink:href="#rim2" fill="#404040">
                               <set attributeName="fill" to="#808080" begin="reset.mouseover" end="reset.mouseout"/>
                       </use>
               </g>
        </defs>

<script type="text/javascript">
var viewWidth = 868;
var viewHeight = 339;
var sectionId = 'dynsection-0';
</script>
<script xlink:href="../../svgpan.js"/>
<svg id="graph" class="graph">
<g id="viewport">
<title>IG.Num.Func2dBaseNoHessian</title>
<polygon fill="white" stroke="none" points="-4,4 -4,-334.5 864,-334.5 864,4 -4,4"/>
<!-- Node1 -->
<g id="node1" class="node"><title>Node1</title>
<g id="a_node1"><a xlink:title="Base class for scalar functions of 2 variables (implementations of the IFunc2d interface)....">
<polygon fill="#bfbfbf" stroke="black" points="493,-136.5 493,-155.5 648,-155.5 648,-136.5 493,-136.5"/>
<text text-anchor="middle" x="570.5" y="-143.5" font-family="Helvetica,sans-Serif" font-size="10.00">IG.Num.Func2dBaseNoHessian</text>
</a>
</g>
</g>
<!-- Node6 -->
<g id="node6" class="node"><title>Node6</title>
<g id="a_node6"><a xlink:href="../../db/da2/classIG_1_1Gr3d_1_1VtkPlotBase_1_1ExampleFunc2dLinear.html" target="_top" xlink:title="Function f(x,y)=x+y.">
<polygon fill="white" stroke="black" points="697.5,-300 697.5,-330 846.5,-330 846.5,-300 697.5,-300"/>
<text text-anchor="start" x="705.5" y="-318" font-family="Helvetica,sans-Serif" font-size="10.00">IG.Gr3d.VtkPlotBase.Example</text>
<text text-anchor="middle" x="772" y="-307" font-family="Helvetica,sans-Serif" font-size="10.00">Func2dLinear</text>
</a>
</g>
</g>
<!-- Node1&#45;&gt;Node6 -->
<g id="edge8" class="edge"><title>Node1&#45;&gt;Node6</title>
<path fill="none" stroke="midnightblue" d="M580.88,-164.805C597.37,-195.902 634.55,-257.886 684,-291 689.077,-294.4 694.627,-297.321 700.387,-299.83"/>
<polygon fill="midnightblue" stroke="midnightblue" points="583.963,-163.148 576.264,-155.87 577.744,-166.361 583.963,-163.148"/>
</g>
<!-- Node7 -->
<g id="node7" class="node"><title>Node7</title>
<g id="a_node7"><a xlink:href="../../d8/d3a/classIG_1_1Gr3d_1_1VtkPlotBase_1_1ExampleFunc2dSquare.html" target="_top" xlink:title="Function f(x,y)=x*x+y*y.">
<polygon fill="white" stroke="black" points="697.5,-251 697.5,-281 846.5,-281 846.5,-251 697.5,-251"/>
<text text-anchor="start" x="705.5" y="-269" font-family="Helvetica,sans-Serif" font-size="10.00">IG.Gr3d.VtkPlotBase.Example</text>
<text text-anchor="middle" x="772" y="-258" font-family="Helvetica,sans-Serif" font-size="10.00">Func2dSquare</text>
</a>
</g>
</g>
<!-- Node1&#45;&gt;Node7 -->
<g id="edge9" class="edge"><title>Node1&#45;&gt;Node7</title>
<path fill="none" stroke="midnightblue" d="M586.967,-163.199C607.219,-184.697 644.782,-221.192 684,-242 690.367,-245.378 697.255,-248.317 704.271,-250.865"/>
<polygon fill="midnightblue" stroke="midnightblue" points="589.444,-160.723 580.085,-155.757 584.305,-165.476 589.444,-160.723"/>
</g>
<!-- Node8 -->
<g id="node8" class="node"><title>Node8</title>
<g id="a_node8"><a xlink:href="../../d5/d33/classIG_1_1Gr3d_1_1VtkPlotBase_1_1ExampleFunc2dXY.html" target="_top" xlink:title="Function f(x,y)=x*y.">
<polygon fill="white" stroke="black" points="697.5,-202 697.5,-232 846.5,-232 846.5,-202 697.5,-202"/>
<text text-anchor="start" x="705.5" y="-220" font-family="Helvetica,sans-Serif" font-size="10.00">IG.Gr3d.VtkPlotBase.Example</text>
<text text-anchor="middle" x="772" y="-209" font-family="Helvetica,sans-Serif" font-size="10.00">Func2dXY</text>
</a>
</g>
</g>
<!-- Node1&#45;&gt;Node8 -->
<g id="edge10" class="edge"><title>Node1&#45;&gt;Node8</title>
<path fill="none" stroke="midnightblue" d="M601.661,-159.827C624.087,-169.805 655.591,-183.191 684,-193 693.034,-196.119 702.703,-199.115 712.191,-201.868"/>
<polygon fill="midnightblue" stroke="midnightblue" points="602.898,-156.545 592.341,-155.643 600.031,-162.931 602.898,-156.545"/>
</g>
<!-- Node9 -->
<g id="node9" class="node"><title>Node9</title>
<g id="a_node9"><a xlink:href="../../d8/d7b/classIG_1_1Gr3d_1_1VtkPlotBase_1_1ExampleFuncDiff.html" target="_top" xlink:title="Difference between the two auxiliary functions.">
<polygon fill="white" stroke="black" points="697.5,-153 697.5,-183 846.5,-183 846.5,-153 697.5,-153"/>
<text text-anchor="start" x="705.5" y="-171" font-family="Helvetica,sans-Serif" font-size="10.00">IG.Gr3d.VtkPlotBase.Example</text>
<text text-anchor="middle" x="772" y="-160" font-family="Helvetica,sans-Serif" font-size="10.00">FuncDiff</text>
</a>
</g>
</g>
<!-- Node1&#45;&gt;Node9 -->
<g id="edge11" class="edge"><title>Node1&#45;&gt;Node9</title>
<path fill="none" stroke="midnightblue" d="M658.381,-155.581C671.348,-157.011 684.61,-158.473 697.272,-159.87"/>
<polygon fill="midnightblue" stroke="midnightblue" points="658.385,-152.06 648.061,-154.443 657.617,-159.018 658.385,-152.06"/>
</g>
<!-- Node10 -->
<g id="node10" class="node"><title>Node10</title>
<g id="a_node10"><a xlink:href="../../df/de1/classIG_1_1Gr3d_1_1VtkPlotBase_1_1Func2dX.html" target="_top" xlink:title="2D function that returns the first parameter. Used as the first componnet of parametric definition of...">
<polygon fill="white" stroke="black" points="697.5,-114.5 697.5,-133.5 846.5,-133.5 846.5,-114.5 697.5,-114.5"/>
<text text-anchor="middle" x="772" y="-121.5" font-family="Helvetica,sans-Serif" font-size="10.00">IG.Gr3d.VtkPlotBase.Func2dX</text>
</a>
</g>
</g>
<!-- Node1&#45;&gt;Node10 -->
<g id="edge12" class="edge"><title>Node1&#45;&gt;Node10</title>
<path fill="none" stroke="midnightblue" d="M658.381,-136.419C671.348,-134.989 684.61,-133.527 697.272,-132.13"/>
<polygon fill="midnightblue" stroke="midnightblue" points="657.617,-132.982 648.061,-137.557 658.385,-139.94 657.617,-132.982"/>
</g>
<!-- Node11 -->
<g id="node11" class="node"><title>Node11</title>
<g id="a_node11"><a xlink:href="../../db/d2e/classIG_1_1Gr3d_1_1VtkPlotBase_1_1Func2dY.html" target="_top" xlink:title="2D function that returns the second parameter. Used as the second componnet of parametric definition ...">
<polygon fill="white" stroke="black" points="697,-76.5 697,-95.5 847,-95.5 847,-76.5 697,-76.5"/>
<text text-anchor="middle" x="772" y="-83.5" font-family="Helvetica,sans-Serif" font-size="10.00">IG.Gr3d.VtkPlotBase.Func2dY</text>
</a>
</g>
</g>
<!-- Node1&#45;&gt;Node11 -->
<g id="edge13" class="edge"><title>Node1&#45;&gt;Node11</title>
<path fill="none" stroke="midnightblue" d="M604.212,-132.755C626.457,-124.077 656.695,-112.918 684,-105 696.176,-101.469 709.478,-98.2508 721.935,-95.5071"/>
<polygon fill="midnightblue" stroke="midnightblue" points="602.918,-129.503 594.898,-136.426 605.484,-136.016 602.918,-129.503"/>
</g>
<!-- Node12 -->
<g id="node12" class="node"><title>Node12</title>
<g id="a_node12"><a xlink:href="../../d7/d4d/classIG_1_1Gr3d_1_1VtkPlotBase_1_1Func2dZero.html" target="_top" xlink:title="Auxiliary 2D function that returns 0.">
<polygon fill="white" stroke="black" points="691,-38.5 691,-57.5 853,-57.5 853,-38.5 691,-38.5"/>
<text text-anchor="middle" x="772" y="-45.5" font-family="Helvetica,sans-Serif" font-size="10.00">IG.Gr3d.VtkPlotBase.Func2dZero</text>
</a>
</g>
</g>
<!-- Node1&#45;&gt;Node12 -->
<g id="edge14" class="edge"><title>Node1&#45;&gt;Node12</title>
<path fill="none" stroke="midnightblue" d="M589.661,-129.754C610.815,-111.706 647.537,-83.0048 684,-67 692.777,-63.1475 702.406,-60.0465 711.959,-57.5592"/>
<polygon fill="midnightblue" stroke="midnightblue" points="587.352,-127.124 582.097,-136.324 591.942,-132.409 587.352,-127.124"/>
</g>
<!-- Node13 -->
<g id="node13" class="node"><title>Node13</title>
<g id="a_node13"><a xlink:href="../../df/d8b/classIG_1_1Num_1_1Func2dExamples_1_1Func2dXY.html" target="_top" xlink:title="Function f(x, y) = x * y.">
<polygon fill="white" stroke="black" points="684,-0.5 684,-19.5 860,-19.5 860,-0.5 684,-0.5"/>
<text text-anchor="middle" x="772" y="-7.5" font-family="Helvetica,sans-Serif" font-size="10.00">IG.Num.Func2dExamples.Func2dXY</text>
</a>
</g>
</g>
<!-- Node1&#45;&gt;Node13 -->
<g id="edge15" class="edge"><title>Node1&#45;&gt;Node13</title>
<path fill="none" stroke="midnightblue" d="M583.441,-128.037C601.807,-101.915 639.561,-53.8577 684,-29 690.881,-25.1508 698.474,-22.0812 706.221,-19.6333"/>
<polygon fill="midnightblue" stroke="midnightblue" points="580.55,-126.063 577.774,-136.288 586.321,-130.026 580.55,-126.063"/>
</g>
<!-- Node2 -->
<g id="node2" class="node"><title>Node2</title>
<g id="a_node2"><a xlink:href="../../da/d29/classIG_1_1Num_1_1Func2dBase.html" target="_top" xlink:title="Base class for scalar functions of 2 variables (base for implementation of IFunc2d interface).">
<polygon fill="white" stroke="black" points="386,-136.5 386,-155.5 457,-155.5 457,-136.5 386,-136.5"/>
<text text-anchor="middle" x="421.5" y="-143.5" font-family="Helvetica,sans-Serif" font-size="10.00">Func2dBase</text>
</a>
</g>
</g>
<!-- Node2&#45;&gt;Node1 -->
<g id="edge1" class="edge"><title>Node2&#45;&gt;Node1</title>
<path fill="none" stroke="midnightblue" d="M467.585,-146C475.647,-146 484.248,-146 492.907,-146"/>
<polygon fill="midnightblue" stroke="midnightblue" points="467.337,-142.5 457.337,-146 467.337,-149.5 467.337,-142.5"/>
</g>
<!-- Node3 -->
<g id="node3" class="node"><title>Node3</title>
<g id="a_node3"><a xlink:href="../../d2/d9e/classIG_1_1Num_1_1ScalarFunctionUntransformedBase.html" target="_top" xlink:title="Base class for defining scalar functions without possibility of affine transformation of parameters.">
<polygon fill="white" stroke="black" points="183,-136.5 183,-155.5 350,-155.5 350,-136.5 183,-136.5"/>
<text text-anchor="middle" x="266.5" y="-143.5" font-family="Helvetica,sans-Serif" font-size="10.00">ScalarFunctionUntransformedBase</text>
</a>
</g>
</g>
<!-- Node3&#45;&gt;Node2 -->
<g id="edge2" class="edge"><title>Node3&#45;&gt;Node2</title>
<path fill="none" stroke="midnightblue" d="M360.472,-146C369.414,-146 378.041,-146 385.833,-146"/>
<polygon fill="midnightblue" stroke="midnightblue" points="360.269,-142.5 350.269,-146 360.269,-149.5 360.269,-142.5"/>
</g>
<!-- Node4 -->
<g id="node4" class="node"><title>Node4</title>
<g id="a_node4"><a xlink:href="../../d8/d56/interfaceIG_1_1Num_1_1IScalarFunctionUntransformed.html" target="_top" xlink:title="Scalar functions of vector arguments.">
<polygon fill="white" stroke="black" points="0,-174.5 0,-193.5 147,-193.5 147,-174.5 0,-174.5"/>
<text text-anchor="middle" x="73.5" y="-181.5" font-family="Helvetica,sans-Serif" font-size="10.00">IScalarFunctionUntransformed</text>
</a>
</g>
</g>
<!-- Node4&#45;&gt;Node1 -->
<g id="edge7" class="edge"><title>Node4&#45;&gt;Node1</title>
<path fill="none" stroke="midnightblue" d="M157.306,-187.368C165.981,-187.627 174.669,-187.846 183,-188 257.21,-189.367 276.109,-195.006 350,-188 414.312,-181.902 487.818,-165.97 531.355,-155.575"/>
<polygon fill="midnightblue" stroke="midnightblue" points="157.257,-183.865 147.151,-187.049 157.036,-190.862 157.257,-183.865"/>
</g>
<!-- Node4&#45;&gt;Node2 -->
<g id="edge5" class="edge"><title>Node4&#45;&gt;Node2</title>
<path fill="none" stroke="midnightblue" d="M157.209,-182.485C212.179,-180.452 285.789,-175.761 350,-165 363.377,-162.758 377.888,-159.071 390.248,-155.538"/>
<polygon fill="midnightblue" stroke="midnightblue" points="157.04,-178.988 147.168,-182.834 157.284,-185.984 157.04,-178.988"/>
</g>
<!-- Node4&#45;&gt;Node3 -->
<g id="edge3" class="edge"><title>Node4&#45;&gt;Node3</title>
<path fill="none" stroke="midnightblue" d="M132.853,-172.39C160.018,-166.986 191.932,-160.636 217.649,-155.52"/>
<polygon fill="midnightblue" stroke="midnightblue" points="131.822,-169.027 122.697,-174.411 133.188,-175.892 131.822,-169.027"/>
</g>
<!-- Node5 -->
<g id="node5" class="node"><title>Node5</title>
<g id="a_node5"><a xlink:href="../../d8/d15/interfaceIG_1_1Num_1_1IFunc2d.html" target="_top" xlink:title="Represents scalar functions of 2 variables.">
<polygon fill="white" stroke="black" points="241,-98.5 241,-117.5 292,-117.5 292,-98.5 241,-98.5"/>
<text text-anchor="middle" x="266.5" y="-105.5" font-family="Helvetica,sans-Serif" font-size="10.00">IFunc2d</text>
</a>
</g>
</g>
<!-- Node5&#45;&gt;Node1 -->
<g id="edge6" class="edge"><title>Node5&#45;&gt;Node1</title>
<path fill="none" stroke="midnightblue" d="M302.139,-110.768C340.196,-113.973 403.084,-119.753 457,-127 476.828,-129.665 498.521,-133.185 517.522,-136.47"/>
<polygon fill="midnightblue" stroke="midnightblue" points="302.348,-107.273 292.092,-109.933 301.768,-114.249 302.348,-107.273"/>
</g>
<!-- Node5&#45;&gt;Node2 -->
<g id="edge4" class="edge"><title>Node5&#45;&gt;Node2</title>
<path fill="none" stroke="midnightblue" d="M301.887,-115.621C316.718,-118.986 334.243,-123.064 350,-127 361.806,-129.949 374.672,-133.359 386.142,-136.468"/>
<polygon fill="midnightblue" stroke="midnightblue" points="302.629,-112.201 292.104,-113.417 301.09,-119.03 302.629,-112.201"/>
</g>
</g>
</svg>
        <g id="navigator" transform="translate(0 0)" fill="#404254">
                <rect fill="#f2f5e9" fill-opacity="0.5" stroke="#606060" stroke-width=".5" x="0" y="0" width="60" height="60"/>
                <use id="zoomplus" xlink:href="#zoomPlus" x="17" y="9" onmousedown="handleZoom(evt,'in')"/>
                <use id="zoomminus" xlink:href="#zoomMin" x="42" y="9" onmousedown="handleZoom(evt,'out')"/>
                <use id="reset" xlink:href="#resetDef" x="30" y="36" onmousedown="handleReset()"/>
                <g id="arrowUp" xlink:href="#dirArrow" transform="translate(30 24)" onmousedown="handlePan(0,-1)">
                  <use xlink:href="#rim" fill="#404040">
                        <set attributeName="fill" to="#808080" begin="arrowUp.mouseover" end="arrowUp.mouseout"/>
                  </use>
                  <path fill="none" stroke="white" stroke-width="1.5" d="M0,-3.0v7 M-2.5,-0.5L0,-3.0L2.5,-0.5"/>
                </g>
                <g id="arrowRight" xlink:href="#dirArrow" transform="rotate(90) translate(36 -43)" onmousedown="handlePan(1,0)">
                  <use xlink:href="#rim" fill="#404040">
                        <set attributeName="fill" to="#808080" begin="arrowRight.mouseover" end="arrowRight.mouseout"/>
                  </use>
                  <path fill="none" stroke="white" stroke-width="1.5" d="M0,-3.0v7 M-2.5,-0.5L0,-3.0L2.5,-0.5"/>
                </g>
                <g id="arrowDown" xlink:href="#dirArrow" transform="rotate(180) translate(-30 -48)" onmousedown="handlePan(0,1)">
                  <use xlink:href="#rim" fill="#404040">
                        <set attributeName="fill" to="#808080" begin="arrowDown.mouseover" end="arrowDown.mouseout"/>
                  </use>
                  <path fill="none" stroke="white" stroke-width="1.5" d="M0,-3.0v7 M-2.5,-0.5L0,-3.0L2.5,-0.5"/>
                </g>
                <g id="arrowLeft" xlink:href="#dirArrow" transform="rotate(270) translate(-36 17)" onmousedown="handlePan(-1,0)">
                  <use xlink:href="#rim" fill="#404040">
                        <set attributeName="fill" to="#808080" begin="arrowLeft.mouseover" end="arrowLeft.mouseout"/>
                  </use>
                  <path fill="none" stroke="white" stroke-width="1.5" d="M0,-3.0v7 M-2.5,-0.5L0,-3.0L2.5,-0.5"/>
                </g>
        </g>
        <svg viewBox="0 0 15 15" width="100%" height="30px" preserveAspectRatio="xMaxYMin meet">
         <g id="arrow_out" transform="scale(0.3 0.3)">
          <a xlink:href="classIG_1_1Num_1_1Func2dBaseNoHessian__inherit__graph_org.svg" target="_base">
           <rect id="button" ry="5" rx="5" y="6" x="6" height="38" width="38"
                fill="#f2f5e9" fill-opacity="0.5" stroke="#606060" stroke-width="1.0"/>
           <path id="arrow"
             d="M 11.500037,31.436501 C 11.940474,20.09759 22.043105,11.32322 32.158766,21.979434 L 37.068811,17.246167 C 37.068811,17.246167 37.088388,32 37.088388,32 L 22.160133,31.978069 C 22.160133,31.978069 26.997745,27.140456 26.997745,27.140456 C 18.528582,18.264221 13.291696,25.230495 11.500037,31.436501 z"
             style="fill:#404040;"/>
          </a>
         </g>
        </svg>
</svg>
