<?xml version="1.0" encoding="UTF-8" standalone="no"?>
<!DOCTYPE svg PUBLIC "-//W3C//DTD SVG 1.1//EN"
 "http://www.w3.org/Graphics/SVG/1.1/DTD/svg11.dtd">
<!-- Generated by graphviz version 2.38.0 (20140413.2041)
 -->
<!-- Title: NeuronDotNet.Core.SOM.NeighborhoodFunctions.GaussianFunction Pages: 1 -->
<svg width="196pt" height="151pt"
 viewBox="0.00 0.00 196.00 151.00" xmlns="http://www.w3.org/2000/svg" xmlns:xlink="http://www.w3.org/1999/xlink">
<g id="graph0" class="graph" transform="scale(1 1) rotate(0) translate(4 147)">
<title>NeuronDotNet.Core.SOM.NeighborhoodFunctions.GaussianFunction</title>
<polygon fill="white" stroke="none" points="-4,4 -4,-147 192,-147 192,4 -4,4"/>
<!-- Node1 -->
<g id="node1" class="node"><title>Node1</title>
<g id="a_node1"><a xlink:title="Gaussian Neighborhood Function. It is a continuous bell shaped curve centered at winner neuron.">
<polygon fill="#bfbfbf" stroke="black" points="0,-0.5 0,-30.5 188,-30.5 188,-0.5 0,-0.5"/>
<text text-anchor="start" x="8" y="-18.5" font-family="Helvetica,sans-Serif" font-size="10.00">NeuronDotNet.Core.SOM.Neighborhood</text>
<text text-anchor="middle" x="94" y="-7.5" font-family="Helvetica,sans-Serif" font-size="10.00">Functions.GaussianFunction</text>
</a>
</g>
</g>
<!-- Node2 -->
<g id="node2" class="node"><title>Node2</title>
<g id="a_node2"><a xlink:href="../../d2/dcb/interfaceNeuronDotNet_1_1Core_1_1SOM_1_1INeighborhoodFunction.html" target="_top" xlink:title="This interface represents a neighborhood function. A neighborhood function determines the neighborhoo...">
<polygon fill="white" stroke="black" points="36,-67.5 36,-86.5 152,-86.5 152,-67.5 36,-67.5"/>
<text text-anchor="middle" x="94" y="-74.5" font-family="Helvetica,sans-Serif" font-size="10.00">INeighborhoodFunction</text>
</a>
</g>
</g>
<!-- Node2&#45;&gt;Node1 -->
<g id="edge1" class="edge"><title>Node2&#45;&gt;Node1</title>
<path fill="none" stroke="midnightblue" d="M94,-57.2349C94,-48.5864 94,-38.4969 94,-30.523"/>
<polygon fill="midnightblue" stroke="midnightblue" points="90.5001,-57.4751 94,-67.4751 97.5001,-57.4751 90.5001,-57.4751"/>
</g>
<!-- Node3 -->
<g id="node3" class="node"><title>Node3</title>
<g id="a_node3"><a xlink:title=" ">
<polygon fill="white" stroke="#bfbfbf" points="59.5,-123.5 59.5,-142.5 128.5,-142.5 128.5,-123.5 59.5,-123.5"/>
<text text-anchor="middle" x="94" y="-130.5" font-family="Helvetica,sans-Serif" font-size="10.00">ISerializable</text>
</a>
</g>
</g>
<!-- Node3&#45;&gt;Node2 -->
<g id="edge2" class="edge"><title>Node3&#45;&gt;Node2</title>
<path fill="none" stroke="midnightblue" d="M94,-112.805C94,-103.91 94,-93.7798 94,-86.7511"/>
<polygon fill="midnightblue" stroke="midnightblue" points="90.5001,-113.083 94,-123.083 97.5001,-113.083 90.5001,-113.083"/>
</g>
</g>
</svg>
