<?xml version="1.0" encoding="UTF-8" standalone="no"?>
<!DOCTYPE svg PUBLIC "-//W3C//DTD SVG 1.1//EN"
 "http://www.w3.org/Graphics/SVG/1.1/DTD/svg11.dtd">
<!-- Generated by graphviz version 2.38.0 (20140413.2041)
 -->
<!-- Title: NUnit.Framework.Internal.Commands.ApplyChangesToContextCommand Pages: 1 -->
<svg width="331pt" height="206pt"
 viewBox="0.00 0.00 331.00 206.00" xmlns="http://www.w3.org/2000/svg" xmlns:xlink="http://www.w3.org/1999/xlink">
<g id="graph0" class="graph" transform="scale(1 1) rotate(0) translate(4 202)">
<title>NUnit.Framework.Internal.Commands.ApplyChangesToContextCommand</title>
<polygon fill="white" stroke="none" points="-4,4 -4,-202 327,-202 327,4 -4,4"/>
<!-- Node1 -->
<g id="node1" class="node"><title>Node1</title>
<g id="a_node1"><a xlink:title="ContextSettingsCommand applies specified changes to the TestExecutionContext prior to running a test....">
<polygon fill="#bfbfbf" stroke="black" points="127,-0.5 127,-41.5 303,-41.5 303,-0.5 127,-0.5"/>
<text text-anchor="start" x="135" y="-29.5" font-family="Helvetica,sans-Serif" font-size="10.00">NUnit.Framework.Internal.</text>
<text text-anchor="start" x="135" y="-18.5" font-family="Helvetica,sans-Serif" font-size="10.00">Commands.ApplyChangesToContext</text>
<text text-anchor="middle" x="215" y="-7.5" font-family="Helvetica,sans-Serif" font-size="10.00">Command</text>
</a>
</g>
</g>
<!-- Node2 -->
<g id="node2" class="node"><title>Node2</title>
<g id="a_node2"><a xlink:href="../../d7/dcf/classNUnit_1_1Framework_1_1Internal_1_1Commands_1_1DelegatingTestCommand.html" target="_top" xlink:title="TODO: Documentation needed for class">
<polygon fill="white" stroke="black" points="39.5,-95 39.5,-114 164.5,-114 164.5,-95 39.5,-95"/>
<text text-anchor="middle" x="102" y="-102" font-family="Helvetica,sans-Serif" font-size="10.00">DelegatingTestCommand</text>
</a>
</g>
</g>
<!-- Node2&#45;&gt;Node1 -->
<g id="edge1" class="edge"><title>Node2&#45;&gt;Node1</title>
<path fill="none" stroke="midnightblue" d="M122.278,-88.8748C140.514,-75.7226 167.453,-56.293 187.601,-41.7614"/>
<polygon fill="midnightblue" stroke="midnightblue" points="120.156,-86.0897 114.093,-94.7781 124.251,-91.7671 120.156,-86.0897"/>
</g>
<!-- Node3 -->
<g id="node3" class="node"><title>Node3</title>
<g id="a_node3"><a xlink:href="../../d9/d0b/classNUnit_1_1Framework_1_1Internal_1_1Commands_1_1TestCommand.html" target="_top" xlink:title="TestCommand is the abstract base class for all test commands in the framework. A TestCommand represen...">
<polygon fill="white" stroke="black" points="0,-173 0,-192 80,-192 80,-173 0,-173"/>
<text text-anchor="middle" x="40" y="-180" font-family="Helvetica,sans-Serif" font-size="10.00">TestCommand</text>
</a>
</g>
</g>
<!-- Node3&#45;&gt;Node2 -->
<g id="edge2" class="edge"><title>Node3&#45;&gt;Node2</title>
<path fill="none" stroke="midnightblue" d="M53.5077,-164.942C66.2751,-149.292 84.927,-126.428 94.9708,-114.116"/>
<polygon fill="midnightblue" stroke="midnightblue" points="50.7215,-162.821 47.1122,-172.782 56.1455,-167.246 50.7215,-162.821"/>
</g>
<!-- Node4 -->
<g id="node4" class="node"><title>Node4</title>
<g id="a_node4"><a xlink:href="../../d9/d0b/classNUnit_1_1Framework_1_1Internal_1_1Commands_1_1TestCommand.html" target="_top" xlink:title="TestCommand is the abstract base class for all test commands in the framework. A TestCommand represen...">
<polygon fill="white" stroke="black" points="98,-167.5 98,-197.5 230,-197.5 230,-167.5 98,-167.5"/>
<text text-anchor="start" x="106" y="-185.5" font-family="Helvetica,sans-Serif" font-size="10.00">NUnit.Framework.Internal.</text>
<text text-anchor="middle" x="164" y="-174.5" font-family="Helvetica,sans-Serif" font-size="10.00">Commands.TestCommand</text>
</a>
</g>
</g>
<!-- Node4&#45;&gt;Node2 -->
<g id="edge3" class="edge"><title>Node4&#45;&gt;Node2</title>
<path fill="none" stroke="#9a32cd" stroke-dasharray="5,2" d="M145.883,-159.293C133.535,-144.156 117.869,-124.952 108.986,-114.064"/>
<polygon fill="#9a32cd" stroke="#9a32cd" points="143.305,-161.669 152.338,-167.205 148.729,-157.244 143.305,-161.669"/>
<text text-anchor="middle" x="171.5" y="-141" font-family="Helvetica,sans-Serif" font-size="10.00"> innerCommand</text>
</g>
<!-- Node5 -->
<g id="node5" class="node"><title>Node5</title>
<g id="a_node5"><a xlink:href="../../d9/df2/interfaceNUnit_1_1Framework_1_1Interfaces_1_1IApplyToContext.html" target="_top" xlink:title="The IApplyToContext interface is implemented by attributes that want to make changes to the execution...">
<polygon fill="white" stroke="black" points="183,-89.5 183,-119.5 323,-119.5 323,-89.5 183,-89.5"/>
<text text-anchor="start" x="191" y="-107.5" font-family="Helvetica,sans-Serif" font-size="10.00">NUnit.Framework.Interfaces.</text>
<text text-anchor="middle" x="253" y="-96.5" font-family="Helvetica,sans-Serif" font-size="10.00">IApplyToContext</text>
</a>
</g>
</g>
<!-- Node5&#45;&gt;Node1 -->
<g id="edge4" class="edge"><title>Node5&#45;&gt;Node1</title>
<path fill="none" stroke="#9a32cd" stroke-dasharray="5,2" d="M242.119,-80.1622C236.419,-67.9377 229.519,-53.1386 224.105,-41.5278"/>
<polygon fill="#9a32cd" stroke="#9a32cd" points="238.983,-81.7196 246.381,-89.3038 245.327,-78.7615 238.983,-81.7196"/>
<text text-anchor="middle" x="261" y="-63" font-family="Helvetica,sans-Serif" font-size="10.00"> _changes</text>
</g>
</g>
</svg>
