<?xml version="1.0" encoding="UTF-8" standalone="no"?>
<!DOCTYPE svg PUBLIC "-//W3C//DTD SVG 1.1//EN"
 "http://www.w3.org/Graphics/SVG/1.1/DTD/svg11.dtd">
<!-- Generated by graphviz version 2.38.0 (20140413.2041)
 -->
<!-- Title: Optimization1D.MainForm Pages: 1 -->
<!--zoomable 340 -->
<svg id="main" version="1.1" xmlns="http://www.w3.org/2000/svg" xmlns:xlink="http://www.w3.org/1999/xlink" xml:space="preserve" onload="init(evt)">
<style type="text/css"><![CDATA[
.edge:hover path { stroke: red; }
.edge:hover polygon { stroke: red; fill: red; }
]]></style>
<script type="text/javascript"><![CDATA[
var edges = document.getElementsByTagName('g');
if (edges && edges.length) {
  for (var i=0;i<edges.length;i++) {
    if (edges[i].id.substr(0,4)=='edge') {
      edges[i].setAttribute('class','edge');
    }
  }
}
]]></script>
        <defs>
                <circle id="rim" cx="0" cy="0" r="7"/>
                <circle id="rim2" cx="0" cy="0" r="3.5"/>
                <g id="zoomPlus">
                        <use xlink:href="#rim" fill="#404040">
                                <set attributeName="fill" to="#808080" begin="zoomplus.mouseover" end="zoomplus.mouseout"/>
                        </use>
                        <path d="M-4,0h8M0,-4v8" fill="none" stroke="white" stroke-width="1.5" pointer-events="none"/>
                </g>
                <g id="zoomMin">
                        <use xlink:href="#rim" fill="#404040">
                                <set attributeName="fill" to="#808080" begin="zoomminus.mouseover" end="zoomminus.mouseout"/>
                        </use>
                        <path d="M-4,0h8" fill="none" stroke="white" stroke-width="1.5" pointer-events="none"/>
                </g>
                <g id="dirArrow">
                        <path fill="none" stroke="white" stroke-width="1.5" d="M0,-3.0v7 M-2.5,-0.5L0,-3.0L2.5,-0.5"/>
                </g>
               <g id="resetDef">
                       <use xlink:href="#rim2" fill="#404040">
                               <set attributeName="fill" to="#808080" begin="reset.mouseover" end="reset.mouseout"/>
                       </use>
               </g>
        </defs>

<script type="text/javascript">
var viewWidth = 510;
var viewHeight = 340;
var sectionId = 'dynsection-1';
</script>
<script xlink:href="../../svgpan.js"/>
<svg id="graph" class="graph">
<g id="viewport">
<title>Optimization1D.MainForm</title>
<polygon fill="white" stroke="none" points="-4,4 -4,-336 506,-336 506,4 -4,4"/>
<!-- Node1 -->
<g id="node1" class="node"><title>Node1</title>
<g id="a_node1"><a xlink:title="Summary description for MainForm.">
<polygon fill="#bfbfbf" stroke="black" points="227,-0.5 227,-19.5 357,-19.5 357,-0.5 227,-0.5"/>
<text text-anchor="middle" x="292" y="-7.5" font-family="Helvetica,sans-Serif" font-size="10.00">Optimization1D.MainForm</text>
</a>
</g>
</g>
<!-- Node2 -->
<g id="node2" class="node"><title>Node2</title>
<g id="a_node2"><a xlink:title=" ">
<polygon fill="white" stroke="#bfbfbf" points="0,-177.5 0,-207.5 130,-207.5 130,-177.5 0,-177.5"/>
<text text-anchor="start" x="8" y="-195.5" font-family="Helvetica,sans-Serif" font-size="10.00">System::Windows::Forms</text>
<text text-anchor="middle" x="65" y="-184.5" font-family="Helvetica,sans-Serif" font-size="10.00">::Form</text>
</a>
</g>
</g>
<!-- Node2&#45;&gt;Node1 -->
<g id="edge1" class="edge"><title>Node2&#45;&gt;Node1</title>
<path fill="none" stroke="midnightblue" d="M80.4681,-168.817C104.313,-135.501 153.178,-73.4591 209,-38 222.046,-29.7127 237.873,-23.743 252.193,-19.5597"/>
<polygon fill="midnightblue" stroke="midnightblue" points="77.316,-167.215 74.4212,-177.406 83.0398,-171.244 77.316,-167.215"/>
</g>
<!-- Node3 -->
<g id="node3" class="node"><title>Node3</title>
<g id="a_node3"><a xlink:href="../../d2/d9c/classOptimization1D_1_1UserFunction.html" target="_top" xlink:title=" ">
<polygon fill="white" stroke="black" points="148,-183 148,-202 292,-202 292,-183 148,-183"/>
<text text-anchor="middle" x="220" y="-190" font-family="Helvetica,sans-Serif" font-size="10.00">Optimization1D.UserFunction</text>
</a>
</g>
</g>
<!-- Node3&#45;&gt;Node1 -->
<g id="edge2" class="edge"><title>Node3&#45;&gt;Node1</title>
<path fill="none" stroke="#9a32cd" stroke-dasharray="5,2" d="M216.407,-172.999C211.471,-142.005 206.191,-78.9641 235,-38 240.984,-29.4911 250.376,-23.5792 259.823,-19.5086"/>
<polygon fill="#9a32cd" stroke="#9a32cd" points="212.963,-173.627 218.146,-182.868 219.857,-172.412 212.963,-173.627"/>
<text text-anchor="middle" x="265" y="-96" font-family="Helvetica,sans-Serif" font-size="10.00"> userFunction</text>
</g>
<!-- Node4 -->
<g id="node4" class="node"><title>Node4</title>
<g id="a_node4"><a xlink:href="../../d6/d82/classAForge_1_1Genetic_1_1OptimizationFunction1D.html" target="_top" xlink:title="Base class for one dimensional function optimizations.">
<polygon fill="white" stroke="black" points="159.5,-245.5 159.5,-264.5 280.5,-264.5 280.5,-245.5 159.5,-245.5"/>
<text text-anchor="middle" x="220" y="-252.5" font-family="Helvetica,sans-Serif" font-size="10.00">OptimizationFunction1D</text>
</a>
</g>
</g>
<!-- Node4&#45;&gt;Node3 -->
<g id="edge3" class="edge"><title>Node4&#45;&gt;Node3</title>
<path fill="none" stroke="midnightblue" d="M220,-235.003C220,-224 220,-210.682 220,-202.152"/>
<polygon fill="midnightblue" stroke="midnightblue" points="216.5,-235.332 220,-245.332 223.5,-235.332 216.5,-235.332"/>
</g>
<!-- Node5 -->
<g id="node5" class="node"><title>Node5</title>
<g id="a_node5"><a xlink:href="../../d3/d4c/interfaceAForge_1_1Genetic_1_1IFitnessFunction.html" target="_top" xlink:title="Fitness function interface.">
<polygon fill="white" stroke="black" points="124.5,-312.5 124.5,-331.5 213.5,-331.5 213.5,-312.5 124.5,-312.5"/>
<text text-anchor="middle" x="169" y="-319.5" font-family="Helvetica,sans-Serif" font-size="10.00">IFitnessFunction</text>
</a>
</g>
</g>
<!-- Node5&#45;&gt;Node4 -->
<g id="edge4" class="edge"><title>Node5&#45;&gt;Node4</title>
<path fill="none" stroke="midnightblue" d="M182.126,-304.27C192.07,-291.597 205.327,-274.701 213.231,-264.627"/>
<polygon fill="midnightblue" stroke="midnightblue" points="179.297,-302.206 175.878,-312.234 184.805,-306.527 179.297,-302.206"/>
</g>
<!-- Node6 -->
<g id="node6" class="node"><title>Node6</title>
<g id="a_node6"><a xlink:href="../../dd/de1/structAForge_1_1Range.html" target="_top" xlink:title="Represents a range with minimum and maximum values, which are single precision numbers (floats).">
<polygon fill="white" stroke="black" points="231.5,-312.5 231.5,-331.5 310.5,-331.5 310.5,-312.5 231.5,-312.5"/>
<text text-anchor="middle" x="271" y="-319.5" font-family="Helvetica,sans-Serif" font-size="10.00">AForge.Range</text>
</a>
</g>
</g>
<!-- Node6&#45;&gt;Node4 -->
<g id="edge5" class="edge"><title>Node6&#45;&gt;Node4</title>
<path fill="none" stroke="#9a32cd" stroke-dasharray="5,2" d="M257.874,-304.27C247.93,-291.597 234.673,-274.701 226.769,-264.627"/>
<polygon fill="#9a32cd" stroke="#9a32cd" points="255.195,-306.527 264.122,-312.234 260.703,-302.206 255.195,-306.527"/>
<text text-anchor="middle" x="263" y="-286" font-family="Helvetica,sans-Serif" font-size="10.00"> range</text>
</g>
<!-- Node7 -->
<g id="node7" class="node"><title>Node7</title>
<g id="a_node7"><a xlink:title=" ">
<polygon fill="white" stroke="#bfbfbf" points="310,-183 310,-202 358,-202 358,-183 310,-183"/>
<text text-anchor="middle" x="334" y="-190" font-family="Helvetica,sans-Serif" font-size="10.00">AForge</text>
</a>
</g>
</g>
<!-- Node7&#45;&gt;Node1 -->
<g id="edge6" class="edge"><title>Node7&#45;&gt;Node1</title>
<path fill="none" stroke="#9a32cd" stroke-dasharray="5,2" d="M329.946,-172.906C323.6,-143.993 310.821,-86.5305 299,-38 297.533,-31.9777 295.783,-25.2277 294.4,-19.9833"/>
<polygon fill="#9a32cd" stroke="#9a32cd" points="326.559,-173.803 332.116,-182.824 333.398,-172.307 326.559,-173.803"/>
<text text-anchor="middle" x="339.5" y="-96" font-family="Helvetica,sans-Serif" font-size="10.00"> chart</text>
</g>
<!-- Node8 -->
<g id="node8" class="node"><title>Node8</title>
<g id="a_node8"><a xlink:title=" ">
<polygon fill="white" stroke="#bfbfbf" points="376,-183 376,-202 426,-202 426,-183 376,-183"/>
<text text-anchor="middle" x="401" y="-190" font-family="Helvetica,sans-Serif" font-size="10.00">System</text>
</a>
</g>
</g>
<!-- Node8&#45;&gt;Node1 -->
<g id="edge7" class="edge"><title>Node8&#45;&gt;Node1</title>
<path fill="none" stroke="#9a32cd" stroke-dasharray="5,2" d="M400.516,-172.97C398.725,-141.428 390.739,-76.9454 356,-38 348.454,-29.5405 337.821,-23.6532 327.385,-19.5896"/>
<polygon fill="#9a32cd" stroke="#9a32cd" points="397.02,-173.146 400.933,-182.992 404.014,-172.855 397.02,-173.146"/>
<text text-anchor="middle" x="450.5" y="-151" font-family="Helvetica,sans-Serif" font-size="10.00"> populationSizeBox</text>
<text text-anchor="middle" x="450.5" y="-140" font-family="Helvetica,sans-Serif" font-size="10.00">stopButton</text>
<text text-anchor="middle" x="450.5" y="-129" font-family="Helvetica,sans-Serif" font-size="10.00">onlyBestCheck</text>
<text text-anchor="middle" x="450.5" y="-118" font-family="Helvetica,sans-Serif" font-size="10.00">label1</text>
<text text-anchor="middle" x="450.5" y="-107" font-family="Helvetica,sans-Serif" font-size="10.00">chromosomeLengthBox</text>
<text text-anchor="middle" x="450.5" y="-96" font-family="Helvetica,sans-Serif" font-size="10.00">label2</text>
<text text-anchor="middle" x="450.5" y="-85" font-family="Helvetica,sans-Serif" font-size="10.00">label3</text>
<text text-anchor="middle" x="450.5" y="-74" font-family="Helvetica,sans-Serif" font-size="10.00">label10</text>
<text text-anchor="middle" x="450.5" y="-63" font-family="Helvetica,sans-Serif" font-size="10.00">startButton</text>
<text text-anchor="middle" x="450.5" y="-52" font-family="Helvetica,sans-Serif" font-size="10.00">label4</text>
<text text-anchor="middle" x="450.5" y="-41" font-family="Helvetica,sans-Serif" font-size="10.00">...</text>
</g>
</g>
</svg>
        <g id="navigator" transform="translate(0 0)" fill="#404254">
                <rect fill="#f2f5e9" fill-opacity="0.5" stroke="#606060" stroke-width=".5" x="0" y="0" width="60" height="60"/>
                <use id="zoomplus" xlink:href="#zoomPlus" x="17" y="9" onmousedown="handleZoom(evt,'in')"/>
                <use id="zoomminus" xlink:href="#zoomMin" x="42" y="9" onmousedown="handleZoom(evt,'out')"/>
                <use id="reset" xlink:href="#resetDef" x="30" y="36" onmousedown="handleReset()"/>
                <g id="arrowUp" xlink:href="#dirArrow" transform="translate(30 24)" onmousedown="handlePan(0,-1)">
                  <use xlink:href="#rim" fill="#404040">
                        <set attributeName="fill" to="#808080" begin="arrowUp.mouseover" end="arrowUp.mouseout"/>
                  </use>
                  <path fill="none" stroke="white" stroke-width="1.5" d="M0,-3.0v7 M-2.5,-0.5L0,-3.0L2.5,-0.5"/>
                </g>
                <g id="arrowRight" xlink:href="#dirArrow" transform="rotate(90) translate(36 -43)" onmousedown="handlePan(1,0)">
                  <use xlink:href="#rim" fill="#404040">
                        <set attributeName="fill" to="#808080" begin="arrowRight.mouseover" end="arrowRight.mouseout"/>
                  </use>
                  <path fill="none" stroke="white" stroke-width="1.5" d="M0,-3.0v7 M-2.5,-0.5L0,-3.0L2.5,-0.5"/>
                </g>
                <g id="arrowDown" xlink:href="#dirArrow" transform="rotate(180) translate(-30 -48)" onmousedown="handlePan(0,1)">
                  <use xlink:href="#rim" fill="#404040">
                        <set attributeName="fill" to="#808080" begin="arrowDown.mouseover" end="arrowDown.mouseout"/>
                  </use>
                  <path fill="none" stroke="white" stroke-width="1.5" d="M0,-3.0v7 M-2.5,-0.5L0,-3.0L2.5,-0.5"/>
                </g>
                <g id="arrowLeft" xlink:href="#dirArrow" transform="rotate(270) translate(-36 17)" onmousedown="handlePan(-1,0)">
                  <use xlink:href="#rim" fill="#404040">
                        <set attributeName="fill" to="#808080" begin="arrowLeft.mouseover" end="arrowLeft.mouseout"/>
                  </use>
                  <path fill="none" stroke="white" stroke-width="1.5" d="M0,-3.0v7 M-2.5,-0.5L0,-3.0L2.5,-0.5"/>
                </g>
        </g>
        <svg viewBox="0 0 15 15" width="100%" height="30px" preserveAspectRatio="xMaxYMin meet">
         <g id="arrow_out" transform="scale(0.3 0.3)">
          <a xlink:href="classOptimization1D_1_1MainForm__coll__graph_org.svg" target="_base">
           <rect id="button" ry="5" rx="5" y="6" x="6" height="38" width="38"
                fill="#f2f5e9" fill-opacity="0.5" stroke="#606060" stroke-width="1.0"/>
           <path id="arrow"
             d="M 11.500037,31.436501 C 11.940474,20.09759 22.043105,11.32322 32.158766,21.979434 L 37.068811,17.246167 C 37.068811,17.246167 37.088388,32 37.088388,32 L 22.160133,31.978069 C 22.160133,31.978069 26.997745,27.140456 26.997745,27.140456 C 18.528582,18.264221 13.291696,25.230495 11.500037,31.436501 z"
             style="fill:#404040;"/>
          </a>
         </g>
        </svg>
</svg>
