<?xml version="1.0" encoding="UTF-8" standalone="no"?>
<!DOCTYPE svg PUBLIC "-//W3C//DTD SVG 1.1//EN"
 "http://www.w3.org/Graphics/SVG/1.1/DTD/svg11.dtd">
<!-- Generated by graphviz version 2.38.0 (20140413.2041)
 -->
<!-- Title: Meta.Numerics.Analysis.EvaluationSettings Pages: 1 -->
<svg width="179pt" height="106pt"
 viewBox="0.00 0.00 179.00 106.00" xmlns="http://www.w3.org/2000/svg" xmlns:xlink="http://www.w3.org/1999/xlink">
<g id="graph0" class="graph" transform="scale(1 1) rotate(0) translate(4 102)">
<title>Meta.Numerics.Analysis.EvaluationSettings</title>
<polygon fill="white" stroke="none" points="-4,4 -4,-102 175,-102 175,4 -4,4"/>
<!-- Node1 -->
<g id="node1" class="node"><title>Node1</title>
<g id="a_node1"><a xlink:title="Contains settings controling the evaluation of a function.">
<polygon fill="#bfbfbf" stroke="black" points="0.5,-67.5 0.5,-97.5 170.5,-97.5 170.5,-67.5 0.5,-67.5"/>
<text text-anchor="start" x="8.5" y="-85.5" font-family="Helvetica,sans-Serif" font-size="10.00">Meta.Numerics.Analysis.Evaluation</text>
<text text-anchor="middle" x="85.5" y="-74.5" font-family="Helvetica,sans-Serif" font-size="10.00">Settings</text>
</a>
</g>
</g>
<!-- Node2 -->
<g id="node2" class="node"><title>Node2</title>
<g id="a_node2"><a xlink:title=" ">
<polygon fill="white" stroke="#bfbfbf" points="0,-0.5 0,-30.5 171,-30.5 171,-0.5 0,-0.5"/>
<text text-anchor="start" x="8" y="-18.5" font-family="Helvetica,sans-Serif" font-size="10.00">Meta.Numerics.Analysis.Differential</text>
<text text-anchor="middle" x="85.5" y="-7.5" font-family="Helvetica,sans-Serif" font-size="10.00">EvolutionSettings</text>
</a>
</g>
</g>
<!-- Node1&#45;&gt;Node2 -->
<g id="edge1" class="edge"><title>Node1&#45;&gt;Node2</title>
<path fill="none" stroke="midnightblue" d="M85.5,-57.1081C85.5,-48.1539 85.5,-38.3227 85.5,-30.5765"/>
<polygon fill="midnightblue" stroke="midnightblue" points="82.0001,-57.3959 85.5,-67.396 89.0001,-57.396 82.0001,-57.3959"/>
</g>
</g>
</svg>
