<?xml version="1.0" encoding="UTF-8" standalone="no"?>
<!DOCTYPE svg PUBLIC "-//W3C//DTD SVG 1.1//EN"
 "http://www.w3.org/Graphics/SVG/1.1/DTD/svg11.dtd">
<!-- Generated by graphviz version 2.38.0 (20140413.2041)
 -->
<!-- Title: IG.Gr3d.VtkCurvePlot Pages: 1 -->
<svg width="152pt" height="196pt"
 viewBox="0.00 0.00 151.50 196.00" xmlns="http://www.w3.org/2000/svg" xmlns:xlink="http://www.w3.org/1999/xlink">
<g id="graph0" class="graph" transform="scale(1 1) rotate(0) translate(4 192)">
<title>IG.Gr3d.VtkCurvePlot</title>
<polygon fill="white" stroke="none" points="-4,4 -4,-192 147.5,-192 147.5,4 -4,4"/>
<!-- Node1 -->
<g id="node1" class="node"><title>Node1</title>
<g id="a_node1"><a xlink:title="Handles 3D curve plots in VTK render window accessed through the VtkPlotter class.">
<polygon fill="#bfbfbf" stroke="black" points="14,-0.5 14,-19.5 124,-19.5 124,-0.5 14,-0.5"/>
<text text-anchor="middle" x="69" y="-7.5" font-family="Helvetica,sans-Serif" font-size="10.00">IG.Gr3d.VtkCurvePlot</text>
</a>
</g>
</g>
<!-- Node2 -->
<g id="node2" class="node"><title>Node2</title>
<g id="a_node2"><a xlink:href="../../d8/d62/classIG_1_1Gr3d_1_1VtkSurfacePlotBase.html" target="_top" xlink:title="Contains basic settings for various surface and contour plots.">
<polygon fill="white" stroke="black" points="17,-56.5 17,-75.5 121,-75.5 121,-56.5 17,-56.5"/>
<text text-anchor="middle" x="69" y="-63.5" font-family="Helvetica,sans-Serif" font-size="10.00">VtkSurfacePlotBase</text>
</a>
</g>
</g>
<!-- Node2&#45;&gt;Node1 -->
<g id="edge1" class="edge"><title>Node2&#45;&gt;Node1</title>
<path fill="none" stroke="midnightblue" d="M69,-45.8045C69,-36.9102 69,-26.7798 69,-19.7511"/>
<polygon fill="midnightblue" stroke="midnightblue" points="65.5001,-46.083 69,-56.083 72.5001,-46.083 65.5001,-46.083"/>
</g>
<!-- Node3 -->
<g id="node3" class="node"><title>Node3</title>
<g id="a_node3"><a xlink:href="../../de/dac/classIG_1_1Gr3d_1_1VtkPlotBase.html" target="_top" xlink:title="Base class for plotting classes that plot on VTK windows (class VtkPlotter).">
<polygon fill="white" stroke="black" points="33.5,-112.5 33.5,-131.5 104.5,-131.5 104.5,-112.5 33.5,-112.5"/>
<text text-anchor="middle" x="69" y="-119.5" font-family="Helvetica,sans-Serif" font-size="10.00">VtkPlotBase</text>
</a>
</g>
</g>
<!-- Node3&#45;&gt;Node2 -->
<g id="edge2" class="edge"><title>Node3&#45;&gt;Node2</title>
<path fill="none" stroke="midnightblue" d="M69,-101.805C69,-92.9102 69,-82.7798 69,-75.7511"/>
<polygon fill="midnightblue" stroke="midnightblue" points="65.5001,-102.083 69,-112.083 72.5001,-102.083 65.5001,-102.083"/>
</g>
<!-- Node4 -->
<g id="node4" class="node"><title>Node4</title>
<g id="a_node4"><a xlink:href="../../d3/db6/interfaceIG_1_1Lib_1_1ILockable.html" target="_top" xlink:title="Lockable object, has a Lock property that returns object on which lock must be performed in order to ...">
<polygon fill="white" stroke="black" points="0,-168.5 0,-187.5 58,-187.5 58,-168.5 0,-168.5"/>
<text text-anchor="middle" x="29" y="-175.5" font-family="Helvetica,sans-Serif" font-size="10.00">ILockable</text>
</a>
</g>
</g>
<!-- Node4&#45;&gt;Node3 -->
<g id="edge3" class="edge"><title>Node4&#45;&gt;Node3</title>
<path fill="none" stroke="midnightblue" d="M41.6997,-159.855C48.626,-150.505 56.9063,-139.327 62.5177,-131.751"/>
<polygon fill="midnightblue" stroke="midnightblue" points="38.745,-157.964 35.6052,-168.083 44.37,-162.131 38.745,-157.964"/>
</g>
<!-- Node5 -->
<g id="node5" class="node"><title>Node5</title>
<g id="a_node5"><a xlink:title=" ">
<polygon fill="white" stroke="#bfbfbf" points="76.5,-168.5 76.5,-187.5 143.5,-187.5 143.5,-168.5 76.5,-168.5"/>
<text text-anchor="middle" x="110" y="-175.5" font-family="Helvetica,sans-Serif" font-size="10.00">IDisposable</text>
</a>
</g>
</g>
<!-- Node5&#45;&gt;Node3 -->
<g id="edge4" class="edge"><title>Node5&#45;&gt;Node3</title>
<path fill="none" stroke="midnightblue" d="M96.9828,-159.855C89.8833,-150.505 81.396,-139.327 75.6443,-131.751"/>
<polygon fill="midnightblue" stroke="midnightblue" points="94.395,-162.235 103.23,-168.083 99.9701,-158.002 94.395,-162.235"/>
</g>
</g>
</svg>
