<?xml version="1.0" encoding="UTF-8" standalone="no"?>
<!DOCTYPE svg PUBLIC "-//W3C//DTD SVG 1.1//EN"
 "http://www.w3.org/Graphics/SVG/1.1/DTD/svg11.dtd">
<!-- Generated by graphviz version 2.38.0 (20140413.2041)
 -->
<!-- Title: AForge.Controls.Chart Pages: 1 -->
<svg width="431pt" height="117pt"
 viewBox="0.00 0.00 431.00 117.00" xmlns="http://www.w3.org/2000/svg" xmlns:xlink="http://www.w3.org/1999/xlink">
<g id="graph0" class="graph" transform="scale(1 1) rotate(0) translate(4 113)">
<title>AForge.Controls.Chart</title>
<polygon fill="white" stroke="none" points="-4,4 -4,-113 427,-113 427,4 -4,4"/>
<!-- Node1 -->
<g id="node1" class="node"><title>Node1</title>
<g id="a_node1"><a xlink:title="Chart control">
<polygon fill="#bfbfbf" stroke="black" points="187.5,-0.5 187.5,-19.5 300.5,-19.5 300.5,-0.5 187.5,-0.5"/>
<text text-anchor="middle" x="244" y="-7.5" font-family="Helvetica,sans-Serif" font-size="10.00">AForge.Controls.Chart</text>
</a>
</g>
</g>
<!-- Node2 -->
<g id="node2" class="node"><title>Node2</title>
<g id="a_node2"><a xlink:title=" ">
<polygon fill="white" stroke="#bfbfbf" points="0,-78.5 0,-108.5 130,-108.5 130,-78.5 0,-78.5"/>
<text text-anchor="start" x="8" y="-96.5" font-family="Helvetica,sans-Serif" font-size="10.00">System::Windows::Forms</text>
<text text-anchor="middle" x="65" y="-85.5" font-family="Helvetica,sans-Serif" font-size="10.00">::Control</text>
</a>
</g>
</g>
<!-- Node2&#45;&gt;Node1 -->
<g id="edge1" class="edge"><title>Node2&#45;&gt;Node1</title>
<path fill="none" stroke="midnightblue" d="M104.904,-74.3316C142.363,-57.2762 196.762,-32.508 225.153,-19.5811"/>
<polygon fill="midnightblue" stroke="midnightblue" points="103.422,-71.1604 95.7712,-78.4897 106.323,-77.5312 103.422,-71.1604"/>
</g>
<!-- Node3 -->
<g id="node3" class="node"><title>Node3</title>
<g id="a_node3"><a xlink:href="../../dd/de1/structAForge_1_1Range.html" target="_top" xlink:title="Represents a range with minimum and maximum values, which are single precision numbers (floats).">
<polygon fill="white" stroke="black" points="148.5,-84 148.5,-103 227.5,-103 227.5,-84 148.5,-84"/>
<text text-anchor="middle" x="188" y="-91" font-family="Helvetica,sans-Serif" font-size="10.00">AForge.Range</text>
</a>
</g>
</g>
<!-- Node3&#45;&gt;Node1 -->
<g id="edge2" class="edge"><title>Node3&#45;&gt;Node1</title>
<path fill="none" stroke="#9a32cd" stroke-dasharray="5,2" d="M199.816,-75.3029C211.525,-58.2629 228.982,-32.8561 238.05,-19.6592"/>
<polygon fill="#9a32cd" stroke="#9a32cd" points="196.771,-73.554 193.993,-83.7781 202.541,-77.5183 196.771,-73.554"/>
<text text-anchor="middle" x="241.5" y="-52" font-family="Helvetica,sans-Serif" font-size="10.00"> rangeX</text>
<text text-anchor="middle" x="241.5" y="-41" font-family="Helvetica,sans-Serif" font-size="10.00">rangeY</text>
</g>
<!-- Node4 -->
<g id="node4" class="node"><title>Node4</title>
<g id="a_node4"><a xlink:href="../../d8/dbc/classAForge_1_1DoubleRange.html" target="_top" xlink:title="Represents a double range with minimum and maximum values">
<polygon fill="white" stroke="black" points="245.5,-84 245.5,-103 354.5,-103 354.5,-84 245.5,-84"/>
<text text-anchor="middle" x="300" y="-91" font-family="Helvetica,sans-Serif" font-size="10.00">AForge.DoubleRange</text>
</a>
</g>
</g>
<!-- Node4&#45;&gt;Node1 -->
<g id="edge3" class="edge"><title>Node4&#45;&gt;Node1</title>
<path fill="none" stroke="#9a32cd" stroke-dasharray="5,2" d="M288.184,-75.3029C276.475,-58.2629 259.018,-32.8561 249.95,-19.6592"/>
<polygon fill="#9a32cd" stroke="#9a32cd" points="285.459,-77.5183 294.007,-83.7781 291.229,-73.554 285.459,-77.5183"/>
<text text-anchor="middle" x="294.5" y="-52" font-family="Helvetica,sans-Serif" font-size="10.00"> rangeX</text>
<text text-anchor="middle" x="294.5" y="-41" font-family="Helvetica,sans-Serif" font-size="10.00">rangeY</text>
</g>
<!-- Node5 -->
<g id="node5" class="node"><title>Node5</title>
<g id="a_node5"><a xlink:title=" ">
<polygon fill="white" stroke="#bfbfbf" points="373,-84 373,-103 423,-103 423,-84 373,-84"/>
<text text-anchor="middle" x="398" y="-91" font-family="Helvetica,sans-Serif" font-size="10.00">System</text>
</a>
</g>
</g>
<!-- Node5&#45;&gt;Node1 -->
<g id="edge4" class="edge"><title>Node5&#45;&gt;Node1</title>
<path fill="none" stroke="#9a32cd" stroke-dasharray="5,2" d="M378.445,-77.9C362.075,-66.1177 337.798,-49.6438 315,-38 300.789,-30.7419 284.15,-24.3131 270.554,-19.5511"/>
<polygon fill="#9a32cd" stroke="#9a32cd" points="376.525,-80.8323 386.665,-83.9026 380.653,-75.1789 376.525,-80.8323"/>
<text text-anchor="middle" x="379.5" y="-46.5" font-family="Helvetica,sans-Serif" font-size="10.00"> components</text>
</g>
</g>
</svg>
