<?xml version="1.0" encoding="UTF-8" standalone="no"?>
<!DOCTYPE svg PUBLIC "-//W3C//DTD SVG 1.1//EN"
 "http://www.w3.org/Graphics/SVG/1.1/DTD/svg11.dtd">
<!-- Generated by graphviz version 2.38.0 (20140413.2041)
 -->
<!-- Title: NUnit.Framework.Internal.Filters.CompositeFilter Pages: 1 -->
<svg width="613pt" height="88pt"
 viewBox="0.00 0.00 613.00 88.00" xmlns="http://www.w3.org/2000/svg" xmlns:xlink="http://www.w3.org/1999/xlink">
<g id="graph0" class="graph" transform="scale(1 1) rotate(0) translate(4 84)">
<title>NUnit.Framework.Internal.Filters.CompositeFilter</title>
<polygon fill="white" stroke="none" points="-4,4 -4,-84 609,-84 609,4 -4,4"/>
<!-- Node1 -->
<g id="node1" class="node"><title>Node1</title>
<g id="a_node1"><a xlink:title="A base class for multi&#45;part filters">
<polygon fill="#bfbfbf" stroke="black" points="311,-24.5 311,-54.5 440,-54.5 440,-24.5 311,-24.5"/>
<text text-anchor="start" x="319" y="-42.5" font-family="Helvetica,sans-Serif" font-size="10.00">NUnit.Framework.Internal.</text>
<text text-anchor="middle" x="375.5" y="-31.5" font-family="Helvetica,sans-Serif" font-size="10.00">Filters.CompositeFilter</text>
</a>
</g>
</g>
<!-- Node5 -->
<g id="node5" class="node"><title>Node5</title>
<g id="a_node5"><a xlink:href="../../df/dcc/classNUnit_1_1Framework_1_1Internal_1_1Filters_1_1AndFilter.html" target="_top" xlink:title="Combines multiple filters so that a test must pass all of them in order to pass this filter.">
<polygon fill="white" stroke="black" points="476,-49.5 476,-79.5 605,-79.5 605,-49.5 476,-49.5"/>
<text text-anchor="start" x="484" y="-67.5" font-family="Helvetica,sans-Serif" font-size="10.00">NUnit.Framework.Internal.</text>
<text text-anchor="middle" x="540.5" y="-56.5" font-family="Helvetica,sans-Serif" font-size="10.00">Filters.AndFilter</text>
</a>
</g>
</g>
<!-- Node1&#45;&gt;Node5 -->
<g id="edge4" class="edge"><title>Node1&#45;&gt;Node5</title>
<path fill="none" stroke="midnightblue" d="M450.409,-50.8358C458.953,-52.1462 467.609,-53.4738 475.998,-54.7604"/>
<polygon fill="midnightblue" stroke="midnightblue" points="450.869,-47.3655 440.454,-49.3089 449.808,-54.2846 450.869,-47.3655"/>
</g>
<!-- Node6 -->
<g id="node6" class="node"><title>Node6</title>
<g id="a_node6"><a xlink:href="../../d1/dc1/classNUnit_1_1Framework_1_1Internal_1_1Filters_1_1OrFilter.html" target="_top" xlink:title="Combines multiple filters so that a test must pass one of them in order to pass this filter.">
<polygon fill="white" stroke="black" points="476,-0.5 476,-30.5 605,-30.5 605,-0.5 476,-0.5"/>
<text text-anchor="start" x="484" y="-18.5" font-family="Helvetica,sans-Serif" font-size="10.00">NUnit.Framework.Internal.</text>
<text text-anchor="middle" x="540.5" y="-7.5" font-family="Helvetica,sans-Serif" font-size="10.00">Filters.OrFilter</text>
</a>
</g>
</g>
<!-- Node1&#45;&gt;Node6 -->
<g id="edge5" class="edge"><title>Node1&#45;&gt;Node6</title>
<path fill="none" stroke="midnightblue" d="M450.409,-28.6176C458.953,-27.3596 467.609,-26.0851 475.998,-24.85"/>
<polygon fill="midnightblue" stroke="midnightblue" points="449.838,-25.164 440.454,-30.0834 450.857,-32.0893 449.838,-25.164"/>
</g>
<!-- Node2 -->
<g id="node2" class="node"><title>Node2</title>
<g id="a_node2"><a xlink:href="../../da/dc4/classNUnit_1_1Framework_1_1Internal_1_1TestFilter.html" target="_top" xlink:title="Interface to be implemented by filters applied to tests. The filter applies when running the test,...">
<polygon fill="white" stroke="black" points="218,-30 218,-49 275,-49 275,-30 218,-30"/>
<text text-anchor="middle" x="246.5" y="-37" font-family="Helvetica,sans-Serif" font-size="10.00">TestFilter</text>
</a>
</g>
</g>
<!-- Node2&#45;&gt;Node1 -->
<g id="edge1" class="edge"><title>Node2&#45;&gt;Node1</title>
<path fill="none" stroke="midnightblue" d="M285.223,-39.5C293.292,-39.5 302.029,-39.5 310.772,-39.5"/>
<polygon fill="midnightblue" stroke="midnightblue" points="285.057,-36.0001 275.057,-39.5 285.057,-43.0001 285.057,-36.0001"/>
</g>
<!-- Node3 -->
<g id="node3" class="node"><title>Node3</title>
<g id="a_node3"><a xlink:href="../../d2/df0/interfaceNUnit_1_1Framework_1_1Interfaces_1_1ITestFilter.html" target="_top" xlink:title="Interface to be implemented by filters applied to tests. The filter applies when running the test,...">
<polygon fill="white" stroke="black" points="123,-30 123,-49 182,-49 182,-30 123,-30"/>
<text text-anchor="middle" x="152.5" y="-37" font-family="Helvetica,sans-Serif" font-size="10.00">ITestFilter</text>
</a>
</g>
</g>
<!-- Node3&#45;&gt;Node2 -->
<g id="edge2" class="edge"><title>Node3&#45;&gt;Node2</title>
<path fill="none" stroke="midnightblue" d="M192.321,-39.5C200.903,-39.5 209.827,-39.5 217.858,-39.5"/>
<polygon fill="midnightblue" stroke="midnightblue" points="192.105,-36.0001 182.105,-39.5 192.105,-43.0001 192.105,-36.0001"/>
</g>
<!-- Node4 -->
<g id="node4" class="node"><title>Node4</title>
<g id="a_node4"><a xlink:href="../../d9/dc0/interfaceNUnit_1_1Framework_1_1Interfaces_1_1IXmlNodeBuilder.html" target="_top" xlink:title="An object implementing IXmlNodeBuilder is able to build an XML representation of itself and any child...">
<polygon fill="white" stroke="black" points="0,-30 0,-49 87,-49 87,-30 0,-30"/>
<text text-anchor="middle" x="43.5" y="-37" font-family="Helvetica,sans-Serif" font-size="10.00">IXmlNodeBuilder</text>
</a>
</g>
</g>
<!-- Node4&#45;&gt;Node3 -->
<g id="edge3" class="edge"><title>Node4&#45;&gt;Node3</title>
<path fill="none" stroke="midnightblue" d="M97.3509,-39.5C106.144,-39.5 114.96,-39.5 122.849,-39.5"/>
<polygon fill="midnightblue" stroke="midnightblue" points="97.0967,-36.0001 87.0967,-39.5 97.0966,-43.0001 97.0967,-36.0001"/>
</g>
</g>
</svg>
