<?xml version="1.0" encoding="UTF-8" standalone="no"?>
<!DOCTYPE svg PUBLIC "-//W3C//DTD SVG 1.1//EN"
 "http://www.w3.org/Graphics/SVG/1.1/DTD/svg11.dtd">
<!-- Generated by graphviz version 2.38.0 (20140413.2041)
 -->
<!-- Title: Meta.Numerics.Matrices.AnySquareMatrix Pages: 1 -->
<svg width="274pt" height="162pt"
 viewBox="0.00 0.00 273.50 162.00" xmlns="http://www.w3.org/2000/svg" xmlns:xlink="http://www.w3.org/1999/xlink">
<g id="graph0" class="graph" transform="scale(1 1) rotate(0) translate(4 158)">
<title>Meta.Numerics.Matrices.AnySquareMatrix</title>
<polygon fill="white" stroke="none" points="-4,4 -4,-158 269.5,-158 269.5,4 -4,4"/>
<!-- Node1 -->
<g id="node1" class="node"><title>Node1</title>
<g id="a_node1"><a xlink:title="Describes the form of all real, square matrices.">
<polygon fill="#bfbfbf" stroke="black" points="53,-0.5 53,-30.5 196,-30.5 196,-0.5 53,-0.5"/>
<text text-anchor="start" x="61" y="-18.5" font-family="Helvetica,sans-Serif" font-size="10.00">Meta.Numerics.Matrices.Any</text>
<text text-anchor="middle" x="124.5" y="-7.5" font-family="Helvetica,sans-Serif" font-size="10.00">SquareMatrix</text>
</a>
</g>
</g>
<!-- Node2 -->
<g id="node2" class="node"><title>Node2</title>
<g id="a_node2"><a xlink:href="../../d9/d5b/classMeta_1_1Numerics_1_1Matrices_1_1AnyRectangularMatrix.html" target="_top" xlink:title="Describes the form of all real matrices.">
<polygon fill="white" stroke="black" points="68,-67.5 68,-86.5 181,-86.5 181,-67.5 68,-67.5"/>
<text text-anchor="middle" x="124.5" y="-74.5" font-family="Helvetica,sans-Serif" font-size="10.00">AnyRectangularMatrix</text>
</a>
</g>
</g>
<!-- Node2&#45;&gt;Node1 -->
<g id="edge1" class="edge"><title>Node2&#45;&gt;Node1</title>
<path fill="none" stroke="midnightblue" d="M124.5,-57.2349C124.5,-48.5864 124.5,-38.4969 124.5,-30.523"/>
<polygon fill="midnightblue" stroke="midnightblue" points="121,-57.4751 124.5,-67.4751 128,-57.4751 121,-57.4751"/>
</g>
<!-- Node3 -->
<g id="node3" class="node"><title>Node3</title>
<g id="a_node3"><a xlink:href="../../df/de5/classMeta_1_1Numerics_1_1Matrices_1_1AnyMatrix.html" target="_top" xlink:title=" ">
<polygon fill="white" stroke="black" points="0,-129 0,-148 107,-148 107,-129 0,-129"/>
<text text-anchor="middle" x="53.5" y="-136" font-family="Helvetica,sans-Serif" font-size="10.00">AnyMatrix&lt; double &gt;</text>
</a>
</g>
</g>
<!-- Node3&#45;&gt;Node2 -->
<g id="edge2" class="edge"><title>Node3&#45;&gt;Node2</title>
<path fill="none" stroke="midnightblue" d="M71.4317,-122.473C85.0114,-111.093 103.177,-95.8694 114.346,-86.5091"/>
<polygon fill="midnightblue" stroke="midnightblue" points="69.089,-119.869 63.6726,-128.975 73.5852,-125.235 69.089,-119.869"/>
</g>
<!-- Node4 -->
<g id="node4" class="node"><title>Node4</title>
<g id="a_node4"><a xlink:title=" ">
<polygon fill="white" stroke="#bfbfbf" points="125.5,-123.5 125.5,-153.5 265.5,-153.5 265.5,-123.5 125.5,-123.5"/>
<text text-anchor="start" x="133.5" y="-141.5" font-family="Helvetica,sans-Serif" font-size="10.00">IEquatable&lt; AnyRectangular</text>
<text text-anchor="middle" x="195.5" y="-130.5" font-family="Helvetica,sans-Serif" font-size="10.00">Matrix &gt;</text>
</a>
</g>
</g>
<!-- Node4&#45;&gt;Node2 -->
<g id="edge3" class="edge"><title>Node4&#45;&gt;Node2</title>
<path fill="none" stroke="midnightblue" d="M170.911,-116.893C158.56,-106.543 144.258,-94.5577 134.831,-86.6578"/>
<polygon fill="midnightblue" stroke="midnightblue" points="168.761,-119.659 178.674,-123.399 173.258,-114.294 168.761,-119.659"/>
</g>
</g>
</svg>
