<?xml version="1.0" encoding="UTF-8" standalone="no"?>
<!DOCTYPE svg PUBLIC "-//W3C//DTD SVG 1.1//EN"
 "http://www.w3.org/Graphics/SVG/1.1/DTD/svg11.dtd">
<!-- Generated by graphviz version 2.38.0 (20140413.2041)
 -->
<!-- Title: IG.Lib.StringSettings Pages: 1 -->
<svg width="159pt" height="140pt"
 viewBox="0.00 0.00 159.00 140.00" xmlns="http://www.w3.org/2000/svg" xmlns:xlink="http://www.w3.org/1999/xlink">
<g id="graph0" class="graph" transform="scale(1 1) rotate(0) translate(4 136)">
<title>IG.Lib.StringSettings</title>
<polygon fill="white" stroke="none" points="-4,4 -4,-136 155,-136 155,4 -4,4"/>
<!-- Node1 -->
<g id="node1" class="node"><title>Node1</title>
<g id="a_node1"><a xlink:title=" ">
<polygon fill="#bfbfbf" stroke="black" points="0,-0.5 0,-19.5 107,-19.5 107,-0.5 0,-0.5"/>
<text text-anchor="middle" x="53.5" y="-7.5" font-family="Helvetica,sans-Serif" font-size="10.00">IG.Lib.StringSettings</text>
</a>
</g>
</g>
<!-- Node2 -->
<g id="node2" class="node"><title>Node2</title>
<g id="a_node2"><a xlink:href="../../dc/d9f/classIG_1_1Lib_1_1StringVariableSystem.html" target="_top" xlink:title="A lightweight system of string&#45;valued variables, with some support to type conversion.">
<polygon fill="white" stroke="black" points="40,-56.5 40,-75.5 151,-75.5 151,-56.5 40,-56.5"/>
<text text-anchor="middle" x="95.5" y="-63.5" font-family="Helvetica,sans-Serif" font-size="10.00">StringVariableSystem</text>
</a>
</g>
</g>
<!-- Node2&#45;&gt;Node1 -->
<g id="edge1" class="edge"><title>Node2&#45;&gt;Node1</title>
<path fill="none" stroke="midnightblue" d="M82.3898,-48.144C75.0722,-38.7357 66.2591,-27.4046 60.3064,-19.7511"/>
<polygon fill="midnightblue" stroke="midnightblue" points="79.6624,-50.3383 88.5646,-56.083 85.1878,-46.0406 79.6624,-50.3383"/>
</g>
<!-- Node3 -->
<g id="node3" class="node"><title>Node3</title>
<g id="a_node3"><a xlink:href="../../d3/db6/interfaceIG_1_1Lib_1_1ILockable.html" target="_top" xlink:title="Lockable object, has a Lock property that returns object on which lock must be performed in order to ...">
<polygon fill="white" stroke="black" points="24.5,-112.5 24.5,-131.5 82.5,-131.5 82.5,-112.5 24.5,-112.5"/>
<text text-anchor="middle" x="53.5" y="-119.5" font-family="Helvetica,sans-Serif" font-size="10.00">ILockable</text>
</a>
</g>
</g>
<!-- Node3&#45;&gt;Node1 -->
<g id="edge3" class="edge"><title>Node3&#45;&gt;Node1</title>
<path fill="none" stroke="midnightblue" d="M42.0053,-103.573C34.8569,-90.6382 27.6909,-72.4638 31.5,-56 34.6363,-42.4442 42.446,-28.255 47.8622,-19.5194"/>
<polygon fill="midnightblue" stroke="midnightblue" points="39.1242,-105.573 47.2862,-112.328 45.1182,-101.958 39.1242,-105.573"/>
</g>
<!-- Node3&#45;&gt;Node2 -->
<g id="edge2" class="edge"><title>Node3&#45;&gt;Node2</title>
<path fill="none" stroke="midnightblue" d="M66.6102,-104.144C73.9278,-94.7357 82.7409,-83.4046 88.6936,-75.7511"/>
<polygon fill="midnightblue" stroke="midnightblue" points="63.8122,-102.041 60.4354,-112.083 69.3376,-106.338 63.8122,-102.041"/>
</g>
</g>
</svg>
