<?xml version="1.0" encoding="UTF-8" standalone="no"?>
<!DOCTYPE svg PUBLIC "-//W3C//DTD SVG 1.1//EN"
 "http://www.w3.org/Graphics/SVG/1.1/DTD/svg11.dtd">
<!-- Generated by graphviz version 2.38.0 (20140413.2041)
 -->
<!-- Title: IG.Sim.SimScalarFieldElementDto&lt; FieldType &gt; Pages: 1 -->
<svg width="521pt" height="88pt"
 viewBox="0.00 0.00 521.00 88.00" xmlns="http://www.w3.org/2000/svg" xmlns:xlink="http://www.w3.org/1999/xlink">
<g id="graph0" class="graph" transform="scale(1 1) rotate(0) translate(4 84)">
<title>IG.Sim.SimScalarFieldElementDto&lt; FieldType &gt;</title>
<polygon fill="white" stroke="none" points="-4,4 -4,-84 517,-84 517,4 -4,4"/>
<!-- Node1 -->
<g id="node1" class="node"><title>Node1</title>
<g id="a_node1"><a xlink:title="Base class for a DTO that holds node values of a single element (component) of a specific scalar fiel...">
<polygon fill="#bfbfbf" stroke="black" points="361,-17 361,-47 513,-47 513,-17 361,-17"/>
<text text-anchor="start" x="369" y="-35" font-family="Helvetica,sans-Serif" font-size="10.00">IG.Sim.SimScalarFieldElement</text>
<text text-anchor="middle" x="437" y="-24" font-family="Helvetica,sans-Serif" font-size="10.00">Dto&lt; FieldType &gt;</text>
</a>
</g>
</g>
<!-- Node2 -->
<g id="node2" class="node"><title>Node2</title>
<g id="a_node2"><a xlink:href="../../de/d1a/classIG_1_1Sim_1_1SimFieldElemetDto.html" target="_top" xlink:title="Base class for a DTO that holds node values of a single element (component) of a specific simulation ...">
<polygon fill="white" stroke="black" points="218,-39 218,-69 325,-69 325,-39 218,-39"/>
<text text-anchor="start" x="226" y="-57" font-family="Helvetica,sans-Serif" font-size="10.00">SimFieldElemetDto&lt;</text>
<text text-anchor="middle" x="271.5" y="-46" font-family="Helvetica,sans-Serif" font-size="10.00"> FieldType &gt;</text>
</a>
</g>
</g>
<!-- Node2&#45;&gt;Node1 -->
<g id="edge1" class="edge"><title>Node2&#45;&gt;Node1</title>
<path fill="none" stroke="midnightblue" d="M335.201,-45.5632C343.591,-44.4343 352.265,-43.2671 360.841,-42.1131"/>
<polygon fill="midnightblue" stroke="midnightblue" points="334.576,-42.1156 325.132,-46.918 335.51,-49.0531 334.576,-42.1156"/>
</g>
<!-- Node3 -->
<g id="node3" class="node"><title>Node3</title>
<g id="a_node3"><a xlink:title=" ">
<polygon fill="white" stroke="#bfbfbf" points="0,-38.5 0,-79.5 182,-79.5 182,-38.5 0,-38.5"/>
<text text-anchor="start" x="8" y="-67.5" font-family="Helvetica,sans-Serif" font-size="10.00">SimulationComponentDtoBase</text>
<text text-anchor="start" x="8" y="-56.5" font-family="Helvetica,sans-Serif" font-size="10.00">&lt; SimFieldElemetDto&lt; FieldType</text>
<text text-anchor="middle" x="91" y="-45.5" font-family="Helvetica,sans-Serif" font-size="10.00"> &gt;, SimFieldElemetDto&lt; FieldType &gt;&gt;</text>
</a>
</g>
</g>
<!-- Node3&#45;&gt;Node2 -->
<g id="edge2" class="edge"><title>Node3&#45;&gt;Node2</title>
<path fill="none" stroke="midnightblue" d="M192.104,-56.196C200.984,-55.9472 209.719,-55.7025 217.95,-55.472"/>
<polygon fill="midnightblue" stroke="midnightblue" points="191.932,-52.6993 182.034,-56.478 192.129,-59.6966 191.932,-52.6993"/>
</g>
<!-- Node4 -->
<g id="node4" class="node"><title>Node4</title>
<g id="a_node4"><a xlink:href="../../d9/d17/interfaceIG_1_1Sim_1_1ISimulationComponentDto.html" target="_top" xlink:title="Interface for all components of simulation DTOs.">
<polygon fill="white" stroke="black" points="26.5,-0.5 26.5,-19.5 155.5,-19.5 155.5,-0.5 26.5,-0.5"/>
<text text-anchor="middle" x="91" y="-7.5" font-family="Helvetica,sans-Serif" font-size="10.00">ISimulationComponentDto</text>
</a>
</g>
</g>
<!-- Node4&#45;&gt;Node1 -->
<g id="edge4" class="edge"><title>Node4&#45;&gt;Node1</title>
<path fill="none" stroke="midnightblue" d="M166.009,-14.7331C223.513,-18.4107 302.945,-23.4907 360.759,-27.1881"/>
<polygon fill="midnightblue" stroke="midnightblue" points="166.101,-11.2319 155.898,-14.0865 165.654,-18.2177 166.101,-11.2319"/>
</g>
<!-- Node4&#45;&gt;Node2 -->
<g id="edge3" class="edge"><title>Node4&#45;&gt;Node2</title>
<path fill="none" stroke="midnightblue" d="M150.261,-21.7013C160.851,-23.998 171.777,-26.4801 182,-29 194.091,-31.9806 207.03,-35.4657 219.178,-38.8713"/>
<polygon fill="midnightblue" stroke="midnightblue" points="150.756,-18.228 140.245,-19.5609 149.293,-25.0735 150.756,-18.228"/>
</g>
</g>
</svg>
