<?xml version="1.0" encoding="UTF-8" standalone="no"?>
<!DOCTYPE svg PUBLIC "-//W3C//DTD SVG 1.1//EN"
 "http://www.w3.org/Graphics/SVG/1.1/DTD/svg11.dtd">
<!-- Generated by graphviz version 2.38.0 (20140413.2041)
 -->
<!-- Title: NUnit.Framework.Syntax.SamePathOrUnderTest_IgnoreCase Pages: 1 -->
<svg width="162pt" height="196pt"
 viewBox="0.00 0.00 162.00 196.00" xmlns="http://www.w3.org/2000/svg" xmlns:xlink="http://www.w3.org/1999/xlink">
<g id="graph0" class="graph" transform="scale(1 1) rotate(0) translate(4 192)">
<title>NUnit.Framework.Syntax.SamePathOrUnderTest_IgnoreCase</title>
<polygon fill="white" stroke="none" points="-4,4 -4,-192 158,-192 158,4 -4,4"/>
<!-- Node1 -->
<g id="node1" class="node"><title>Node1</title>
<g id="a_node1"><a xlink:title=" ">
<polygon fill="#bfbfbf" stroke="black" points="0,-0.5 0,-30.5 154,-30.5 154,-0.5 0,-0.5"/>
<text text-anchor="start" x="8" y="-18.5" font-family="Helvetica,sans-Serif" font-size="10.00">NUnit.Framework.Syntax.Same</text>
<text text-anchor="middle" x="77" y="-7.5" font-family="Helvetica,sans-Serif" font-size="10.00">PathOrUnderTest_IgnoreCase</text>
</a>
</g>
</g>
<!-- Node2 -->
<g id="node2" class="node"><title>Node2</title>
<g id="a_node2"><a xlink:href="../../dc/dba/classNUnit_1_1Framework_1_1Syntax_1_1SyntaxTest.html" target="_top" xlink:title=" ">
<polygon fill="white" stroke="black" points="44,-68.5 44,-87.5 110,-87.5 110,-68.5 44,-68.5"/>
<text text-anchor="middle" x="77" y="-75.5" font-family="Helvetica,sans-Serif" font-size="10.00">SyntaxTest</text>
</a>
</g>
</g>
<!-- Node2&#45;&gt;Node1 -->
<g id="edge1" class="edge"><title>Node2&#45;&gt;Node1</title>
<path fill="none" stroke="midnightblue" d="M77,-58.2154C77,-49.3565 77,-38.9577 77,-30.7587"/>
<polygon fill="midnightblue" stroke="midnightblue" points="73.5001,-58.3318 77,-68.3318 80.5001,-58.3319 73.5001,-58.3318"/>
</g>
<!-- Node3 -->
<g id="node3" class="node"><title>Node3</title>
<g id="a_node3"><a xlink:href="../../d7/d29/interfaceNUnit_1_1Framework_1_1Constraints_1_1IResolveConstraint.html" target="_top" xlink:title="The IResolveConstraint interface is implemented by all complete and resolvable constraints and expres...">
<polygon fill="white" stroke="black" points="3.5,-157.5 3.5,-187.5 150.5,-187.5 150.5,-157.5 3.5,-157.5"/>
<text text-anchor="start" x="11.5" y="-175.5" font-family="Helvetica,sans-Serif" font-size="10.00">NUnit.Framework.Constraints.</text>
<text text-anchor="middle" x="77" y="-164.5" font-family="Helvetica,sans-Serif" font-size="10.00">IResolveConstraint</text>
</a>
</g>
</g>
<!-- Node3&#45;&gt;Node2 -->
<g id="edge2" class="edge"><title>Node3&#45;&gt;Node2</title>
<path fill="none" stroke="#9a32cd" stroke-dasharray="5,2" d="M77,-147.382C77,-127.736 77,-101.119 77,-87.6191"/>
<polygon fill="#9a32cd" stroke="#9a32cd" points="73.5001,-147.451 77,-157.451 80.5001,-147.451 73.5001,-147.451"/>
<text text-anchor="middle" x="111" y="-131" font-family="Helvetica,sans-Serif" font-size="10.00"> builderSyntax</text>
<text text-anchor="middle" x="111" y="-120" font-family="Helvetica,sans-Serif" font-size="10.00">inheritedSyntax</text>
<text text-anchor="middle" x="111" y="-109" font-family="Helvetica,sans-Serif" font-size="10.00">staticSyntax</text>
</g>
</g>
</svg>
