<?xml version="1.0" encoding="UTF-8" standalone="no"?>
<!DOCTYPE svg PUBLIC "-//W3C//DTD SVG 1.1//EN"
 "http://www.w3.org/Graphics/SVG/1.1/DTD/svg11.dtd">
<!-- Generated by graphviz version 2.38.0 (20140413.2041)
 -->
<!-- Title: IG.Lib.MsgObervationOrder Pages: 1 -->
<svg width="142pt" height="140pt"
 viewBox="0.00 0.00 142.00 140.00" xmlns="http://www.w3.org/2000/svg" xmlns:xlink="http://www.w3.org/1999/xlink">
<g id="graph0" class="graph" transform="scale(1 1) rotate(0) translate(4 136)">
<title>IG.Lib.MsgObervationOrder</title>
<polygon fill="white" stroke="none" points="-4,4 -4,-136 138,-136 138,4 -4,4"/>
<!-- Node1 -->
<g id="node1" class="node"><title>Node1</title>
<g id="a_node1"><a xlink:title="Class for holding and manipulating the data about observation order. Includes parsing an XML file,...">
<polygon fill="#bfbfbf" stroke="black" points="0,-0.5 0,-19.5 134,-19.5 134,-0.5 0,-0.5"/>
<text text-anchor="middle" x="67" y="-7.5" font-family="Helvetica,sans-Serif" font-size="10.00">IG.Lib.MsgObervationOrder</text>
</a>
</g>
</g>
<!-- Node2 -->
<g id="node2" class="node"><title>Node2</title>
<g id="a_node2"><a xlink:href="../../d8/d6e/classIG_1_1Lib_1_1MsgBase.html" target="_top" xlink:title="Base class for all messages.">
<polygon fill="white" stroke="black" points="38,-56.5 38,-75.5 96,-75.5 96,-56.5 38,-56.5"/>
<text text-anchor="middle" x="67" y="-63.5" font-family="Helvetica,sans-Serif" font-size="10.00">MsgBase</text>
</a>
</g>
</g>
<!-- Node2&#45;&gt;Node1 -->
<g id="edge1" class="edge"><title>Node2&#45;&gt;Node1</title>
<path fill="none" stroke="midnightblue" d="M67,-45.8045C67,-36.9102 67,-26.7798 67,-19.7511"/>
<polygon fill="midnightblue" stroke="midnightblue" points="63.5001,-46.083 67,-56.083 70.5001,-46.083 63.5001,-46.083"/>
</g>
<!-- Node3 -->
<g id="node3" class="node"><title>Node3</title>
<g id="a_node3"><a xlink:href="../../da/dac/classIG_1_1Lib_1_1ParsableXmlObject.html" target="_top" xlink:title="Base class for data classes that support writing data to / reading from custom XML files,...">
<polygon fill="white" stroke="black" points="17.5,-112.5 17.5,-131.5 116.5,-131.5 116.5,-112.5 17.5,-112.5"/>
<text text-anchor="middle" x="67" y="-119.5" font-family="Helvetica,sans-Serif" font-size="10.00">ParsableXmlObject</text>
</a>
</g>
</g>
<!-- Node3&#45;&gt;Node2 -->
<g id="edge2" class="edge"><title>Node3&#45;&gt;Node2</title>
<path fill="none" stroke="midnightblue" d="M67,-101.805C67,-92.9102 67,-82.7798 67,-75.7511"/>
<polygon fill="midnightblue" stroke="midnightblue" points="63.5001,-102.083 67,-112.083 70.5001,-102.083 63.5001,-102.083"/>
</g>
</g>
</svg>
