<?xml version="1.0" encoding="UTF-8" standalone="no"?>
<!DOCTYPE svg PUBLIC "-//W3C//DTD SVG 1.1//EN"
 "http://www.w3.org/Graphics/SVG/1.1/DTD/svg11.dtd">
<!-- Generated by graphviz version 2.38.0 (20140413.2041)
 -->
<!-- Title: NUnit.Framework.SetUICultureAttribute Pages: 1 -->
<svg width="244pt" height="207pt"
 viewBox="0.00 0.00 243.50 207.00" xmlns="http://www.w3.org/2000/svg" xmlns:xlink="http://www.w3.org/1999/xlink">
<g id="graph0" class="graph" transform="scale(1 1) rotate(0) translate(4 203)">
<title>NUnit.Framework.SetUICultureAttribute</title>
<polygon fill="white" stroke="none" points="-4,4 -4,-203 239.5,-203 239.5,4 -4,4"/>
<!-- Node1 -->
<g id="node1" class="node"><title>Node1</title>
<g id="a_node1"><a xlink:title="Summary description for SetUICultureAttribute.">
<polygon fill="#bfbfbf" stroke="black" points="63,-0.5 63,-30.5 212,-30.5 212,-0.5 63,-0.5"/>
<text text-anchor="start" x="71" y="-18.5" font-family="Helvetica,sans-Serif" font-size="10.00">NUnit.Framework.SetUICulture</text>
<text text-anchor="middle" x="137.5" y="-7.5" font-family="Helvetica,sans-Serif" font-size="10.00">Attribute</text>
</a>
</g>
</g>
<!-- Node2 -->
<g id="node2" class="node"><title>Node2</title>
<g id="a_node2"><a xlink:href="../../d6/d1b/classNUnit_1_1Framework_1_1PropertyAttribute.html" target="_top" xlink:title="PropertyAttribute is used to attach information to a test as a name/value pair..">
<polygon fill="white" stroke="black" points="39.5,-67.5 39.5,-86.5 129.5,-86.5 129.5,-67.5 39.5,-67.5"/>
<text text-anchor="middle" x="84.5" y="-74.5" font-family="Helvetica,sans-Serif" font-size="10.00">PropertyAttribute</text>
</a>
</g>
</g>
<!-- Node2&#45;&gt;Node1 -->
<g id="edge1" class="edge"><title>Node2&#45;&gt;Node1</title>
<path fill="none" stroke="midnightblue" d="M98.9206,-59.8108C107.082,-50.6486 117.188,-39.3032 125.009,-30.523"/>
<polygon fill="midnightblue" stroke="midnightblue" points="96.1315,-57.6799 92.0936,-67.4751 101.359,-62.3359 96.1315,-57.6799"/>
</g>
<!-- Node3 -->
<g id="node3" class="node"><title>Node3</title>
<g id="a_node3"><a xlink:href="../../d3/dee/classNUnit_1_1Framework_1_1NUnitAttribute.html" target="_top" xlink:title="The abstract base class for all custom attributes defined by NUnit.">
<polygon fill="white" stroke="black" points="0,-123.5 0,-142.5 77,-142.5 77,-123.5 0,-123.5"/>
<text text-anchor="middle" x="38.5" y="-130.5" font-family="Helvetica,sans-Serif" font-size="10.00">NUnitAttribute</text>
</a>
</g>
</g>
<!-- Node3&#45;&gt;Node2 -->
<g id="edge2" class="edge"><title>Node3&#45;&gt;Node2</title>
<path fill="none" stroke="midnightblue" d="M52.614,-115.431C60.676,-105.967 70.4592,-94.4827 77.0454,-86.7511"/>
<polygon fill="midnightblue" stroke="midnightblue" points="49.9163,-113.201 46.096,-123.083 55.245,-117.74 49.9163,-113.201"/>
</g>
<!-- Node4 -->
<g id="node4" class="node"><title>Node4</title>
<g id="a_node4"><a xlink:title=" ">
<polygon fill="white" stroke="#bfbfbf" points="12,-179.5 12,-198.5 65,-198.5 65,-179.5 12,-179.5"/>
<text text-anchor="middle" x="38.5" y="-186.5" font-family="Helvetica,sans-Serif" font-size="10.00">Attribute</text>
</a>
</g>
</g>
<!-- Node4&#45;&gt;Node3 -->
<g id="edge3" class="edge"><title>Node4&#45;&gt;Node3</title>
<path fill="none" stroke="midnightblue" d="M38.5,-168.805C38.5,-159.91 38.5,-149.78 38.5,-142.751"/>
<polygon fill="midnightblue" stroke="midnightblue" points="35.0001,-169.083 38.5,-179.083 42.0001,-169.083 35.0001,-169.083"/>
</g>
<!-- Node5 -->
<g id="node5" class="node"><title>Node5</title>
<g id="a_node5"><a xlink:href="../../d8/d57/interfaceNUnit_1_1Framework_1_1Interfaces_1_1IApplyToTest.html" target="_top" xlink:title="The IApplyToTest interface is implemented by self&#45;applying attributes that modify the state of a test...">
<polygon fill="white" stroke="black" points="95,-123.5 95,-142.5 168,-142.5 168,-123.5 95,-123.5"/>
<text text-anchor="middle" x="131.5" y="-130.5" font-family="Helvetica,sans-Serif" font-size="10.00">IApplyToTest</text>
</a>
</g>
</g>
<!-- Node5&#45;&gt;Node2 -->
<g id="edge4" class="edge"><title>Node5&#45;&gt;Node2</title>
<path fill="none" stroke="midnightblue" d="M117.079,-115.431C108.842,-105.967 98.8461,-94.4827 92.1167,-86.7511"/>
<polygon fill="midnightblue" stroke="midnightblue" points="114.534,-117.838 123.739,-123.083 119.814,-113.242 114.534,-117.838"/>
</g>
<!-- Node6 -->
<g id="node6" class="node"><title>Node6</title>
<g id="a_node6"><a xlink:href="../../d9/df2/interfaceNUnit_1_1Framework_1_1Interfaces_1_1IApplyToContext.html" target="_top" xlink:title="The IApplyToContext interface is implemented by attributes that want to make changes to the execution...">
<polygon fill="white" stroke="black" points="147.5,-67.5 147.5,-86.5 235.5,-86.5 235.5,-67.5 147.5,-67.5"/>
<text text-anchor="middle" x="191.5" y="-74.5" font-family="Helvetica,sans-Serif" font-size="10.00">IApplyToContext</text>
</a>
</g>
</g>
<!-- Node6&#45;&gt;Node1 -->
<g id="edge5" class="edge"><title>Node6&#45;&gt;Node1</title>
<path fill="none" stroke="midnightblue" d="M176.807,-59.8108C168.492,-50.6486 158.195,-39.3032 150.227,-30.523"/>
<polygon fill="midnightblue" stroke="midnightblue" points="174.451,-62.4222 183.763,-67.4751 179.634,-57.7178 174.451,-62.4222"/>
</g>
</g>
</svg>
