<?xml version="1.0" encoding="UTF-8" standalone="no"?>
<!DOCTYPE svg PUBLIC "-//W3C//DTD SVG 1.1//EN"
 "http://www.w3.org/Graphics/SVG/1.1/DTD/svg11.dtd">
<!-- Generated by graphviz version 2.38.0 (20140413.2041)
 -->
<!-- Title: IG.Script.AppEmbeddedCryptoIGShell Pages: 1 -->
<svg width="236pt" height="151pt"
 viewBox="0.00 0.00 236.00 151.00" xmlns="http://www.w3.org/2000/svg" xmlns:xlink="http://www.w3.org/1999/xlink">
<g id="graph0" class="graph" transform="scale(1 1) rotate(0) translate(4 147)">
<title>IG.Script.AppEmbeddedCryptoIGShell</title>
<polygon fill="white" stroke="none" points="-4,4 -4,-147 232,-147 232,4 -4,4"/>
<!-- Node1 -->
<g id="node1" class="node"><title>Node1</title>
<g id="a_node1"><a xlink:title="Embedded script class for cryptographic utilities such as calculation and verification of file hashes...">
<polygon fill="#bfbfbf" stroke="black" points="67,-0.5 67,-30.5 217,-30.5 217,-0.5 67,-0.5"/>
<text text-anchor="start" x="75" y="-18.5" font-family="Helvetica,sans-Serif" font-size="10.00">IG.Script.AppEmbeddedCrypto</text>
<text text-anchor="middle" x="142" y="-7.5" font-family="Helvetica,sans-Serif" font-size="10.00">IGShell</text>
</a>
</g>
</g>
<!-- Node2 -->
<g id="node2" class="node"><title>Node2</title>
<g id="a_node2"><a xlink:href="../../d5/d63/classIG_1_1Script_1_1AppBase.html" target="_top" xlink:title="Base cls. for application scripts that can also be used on its own.">
<polygon fill="white" stroke="black" points="58,-67.5 58,-86.5 114,-86.5 114,-67.5 58,-67.5"/>
<text text-anchor="middle" x="86" y="-74.5" font-family="Helvetica,sans-Serif" font-size="10.00">AppBase</text>
</a>
</g>
</g>
<!-- Node2&#45;&gt;Node1 -->
<g id="edge1" class="edge"><title>Node2&#45;&gt;Node1</title>
<path fill="none" stroke="midnightblue" d="M100.974,-60.0906C109.642,-50.8804 120.454,-39.3928 128.802,-30.523"/>
<polygon fill="midnightblue" stroke="midnightblue" points="98.3284,-57.7943 94.0234,-67.4751 103.426,-62.5919 98.3284,-57.7943"/>
</g>
<!-- Node3 -->
<g id="node3" class="node"><title>Node3</title>
<g id="a_node3"><a xlink:href="../../db/da4/classIG_1_1Script_1_1ScriptAppBase.html" target="_top" xlink:title="Partial class definition containing tests of CSV utilities.">
<polygon fill="white" stroke="black" points="0,-123.5 0,-142.5 82,-142.5 82,-123.5 0,-123.5"/>
<text text-anchor="middle" x="41" y="-130.5" font-family="Helvetica,sans-Serif" font-size="10.00">ScriptAppBase</text>
</a>
</g>
</g>
<!-- Node3&#45;&gt;Node2 -->
<g id="edge2" class="edge"><title>Node3&#45;&gt;Node2</title>
<path fill="none" stroke="midnightblue" d="M55.0467,-115.144C62.8869,-105.736 72.3295,-94.4046 78.7074,-86.7511"/>
<polygon fill="midnightblue" stroke="midnightblue" points="52.1439,-113.16 48.4308,-123.083 57.5215,-117.641 52.1439,-113.16"/>
</g>
<!-- Node4 -->
<g id="node4" class="node"><title>Node4</title>
<g id="a_node4"><a xlink:href="../../d7/d66/interfaceIG_1_1Lib_1_1ILoadableScript.html" target="_top" xlink:title="Interface for classes that can be dynamically loadeded from scripts and run, which provides functiona...">
<polygon fill="white" stroke="black" points="100.5,-123.5 100.5,-142.5 183.5,-142.5 183.5,-123.5 100.5,-123.5"/>
<text text-anchor="middle" x="142" y="-130.5" font-family="Helvetica,sans-Serif" font-size="10.00">ILoadableScript</text>
</a>
</g>
</g>
<!-- Node4&#45;&gt;Node1 -->
<g id="edge4" class="edge"><title>Node4&#45;&gt;Node1</title>
<path fill="none" stroke="midnightblue" d="M142,-113.068C142,-89.9036 142,-51.2226 142,-30.5453"/>
<polygon fill="midnightblue" stroke="midnightblue" points="138.5,-113.319 142,-123.319 145.5,-113.319 138.5,-113.319"/>
</g>
<!-- Node4&#45;&gt;Node2 -->
<g id="edge3" class="edge"><title>Node4&#45;&gt;Node2</title>
<path fill="none" stroke="midnightblue" d="M125.67,-116.253C115.735,-106.673 103.412,-94.7906 95.1611,-86.8339"/>
<polygon fill="midnightblue" stroke="midnightblue" points="123.375,-118.902 133.003,-123.324 128.234,-113.863 123.375,-118.902"/>
</g>
<!-- Node5 -->
<g id="node5" class="node"><title>Node5</title>
<g id="a_node5"><a xlink:href="../../d3/db6/interfaceIG_1_1Lib_1_1ILockable.html" target="_top" xlink:title="Lockable object, has a Lock property that returns object on which lock must be performed in order to ...">
<polygon fill="white" stroke="black" points="170,-67.5 170,-86.5 228,-86.5 228,-67.5 170,-67.5"/>
<text text-anchor="middle" x="199" y="-74.5" font-family="Helvetica,sans-Serif" font-size="10.00">ILockable</text>
</a>
</g>
</g>
<!-- Node5&#45;&gt;Node1 -->
<g id="edge5" class="edge"><title>Node5&#45;&gt;Node1</title>
<path fill="none" stroke="midnightblue" d="M183.759,-60.0906C174.936,-50.8804 163.931,-39.3928 155.434,-30.523"/>
<polygon fill="midnightblue" stroke="midnightblue" points="181.388,-62.6751 190.833,-67.4751 186.443,-57.8327 181.388,-62.6751"/>
</g>
</g>
</svg>
