<?xml version="1.0" encoding="UTF-8" standalone="no"?>
<!DOCTYPE svg PUBLIC "-//W3C//DTD SVG 1.1//EN"
 "http://www.w3.org/Graphics/SVG/1.1/DTD/svg11.dtd">
<!-- Generated by graphviz version 2.38.0 (20140413.2041)
 -->
<!-- Title: NUnit.TestUtilities.Collections.SimpleObjectCollection Pages: 1 -->
<svg width="198pt" height="117pt"
 viewBox="0.00 0.00 198.00 117.00" xmlns="http://www.w3.org/2000/svg" xmlns:xlink="http://www.w3.org/1999/xlink">
<g id="graph0" class="graph" transform="scale(1 1) rotate(0) translate(4 113)">
<title>NUnit.TestUtilities.Collections.SimpleObjectCollection</title>
<polygon fill="white" stroke="none" points="-4,4 -4,-113 194,-113 194,4 -4,4"/>
<!-- Node1 -->
<g id="node1" class="node"><title>Node1</title>
<g id="a_node1"><a xlink:title="SimpleObjectCollection is used in testing to ensure that only methods of the ICollection interface ar...">
<polygon fill="#bfbfbf" stroke="black" points="8.5,-0.5 8.5,-30.5 157.5,-30.5 157.5,-0.5 8.5,-0.5"/>
<text text-anchor="start" x="16.5" y="-18.5" font-family="Helvetica,sans-Serif" font-size="10.00">NUnit.TestUtilities.Collections.</text>
<text text-anchor="middle" x="83" y="-7.5" font-family="Helvetica,sans-Serif" font-size="10.00">SimpleObjectCollection</text>
</a>
</g>
</g>
<!-- Node2 -->
<g id="node2" class="node"><title>Node2</title>
<g id="a_node2"><a xlink:title=" ">
<polygon fill="white" stroke="#bfbfbf" points="0,-84 0,-103 62,-103 62,-84 0,-84"/>
<text text-anchor="middle" x="31" y="-91" font-family="Helvetica,sans-Serif" font-size="10.00">ICollection</text>
</a>
</g>
</g>
<!-- Node2&#45;&gt;Node1 -->
<g id="edge1" class="edge"><title>Node2&#45;&gt;Node1</title>
<path fill="none" stroke="midnightblue" d="M42.7236,-75.3655C51.9849,-61.8297 64.7488,-43.1748 73.4075,-30.5198"/>
<polygon fill="midnightblue" stroke="midnightblue" points="39.7234,-73.5523 36.9651,-83.7818 45.5005,-77.5052 39.7234,-73.5523"/>
</g>
<!-- Node3 -->
<g id="node3" class="node"><title>Node3</title>
<g id="a_node3"><a xlink:href="../../d7/d49/classNUnit_1_1Framework_1_1List.html" target="_top" xlink:title=" ">
<polygon fill="white" stroke="black" points="80,-78.5 80,-108.5 190,-108.5 190,-78.5 80,-78.5"/>
<text text-anchor="start" x="88" y="-96.5" font-family="Helvetica,sans-Serif" font-size="10.00">NUnit.Framework.List</text>
<text text-anchor="middle" x="135" y="-85.5" font-family="Helvetica,sans-Serif" font-size="10.00">&lt; object &gt;</text>
</a>
</g>
</g>
<!-- Node3&#45;&gt;Node1 -->
<g id="edge2" class="edge"><title>Node3&#45;&gt;Node1</title>
<path fill="none" stroke="#9a32cd" stroke-dasharray="5,2" d="M119.565,-69.9408C110.871,-57.2348 100.279,-41.7536 92.7369,-30.7309"/>
<polygon fill="#9a32cd" stroke="#9a32cd" points="116.684,-71.9283 125.219,-78.205 122.461,-67.9755 116.684,-71.9283"/>
<text text-anchor="middle" x="132.5" y="-52" font-family="Helvetica,sans-Serif" font-size="10.00"> contents</text>
</g>
</g>
</svg>
