<?xml version="1.0" encoding="UTF-8" standalone="no"?>
<!DOCTYPE svg PUBLIC "-//W3C//DTD SVG 1.1//EN"
 "http://www.w3.org/Graphics/SVG/1.1/DTD/svg11.dtd">
<!-- Generated by graphviz version 2.38.0 (20140413.2041)
 -->
<!-- Title: DotNumerics.LinearAlgebra.CSLapack.DLARZB Pages: 1 -->
<svg width="570pt" height="218pt"
 viewBox="0.00 0.00 570.00 217.90" xmlns="http://www.w3.org/2000/svg" xmlns:xlink="http://www.w3.org/1999/xlink">
<g id="graph0" class="graph" transform="scale(1 1) rotate(0) translate(4 213.897)">
<title>DotNumerics.LinearAlgebra.CSLapack.DLARZB</title>
<polygon fill="white" stroke="none" points="-4,4 -4,-213.897 566,-213.897 566,4 -4,4"/>
<!-- Node1 -->
<g id="node1" class="node"><title>Node1</title>
<g id="a_node1"><a xlink:title="– LAPACK routine (version 3.1) – Univ. of Tennessee, Univ. of California Berkeley and NAG Ltd....">
<polygon fill="#bfbfbf" stroke="black" points="424,-82.3973 424,-112.397 562,-112.397 562,-82.3973 424,-82.3973"/>
<text text-anchor="start" x="432" y="-100.397" font-family="Helvetica,sans-Serif" font-size="10.00">DotNumerics.LinearAlgebra.</text>
<text text-anchor="middle" x="493" y="-89.3973" font-family="Helvetica,sans-Serif" font-size="10.00">CSLapack.DLARZB</text>
</a>
</g>
</g>
<!-- Node2 -->
<g id="node2" class="node"><title>Node2</title>
<g id="a_node2"><a xlink:href="../../d1/d2a/classDotNumerics_1_1LinearAlgebra_1_1CSLapack_1_1DCOPY.html" target="_top" xlink:title=" ">
<polygon fill="white" stroke="black" points="209,-179.397 209,-209.397 347,-209.397 347,-179.397 209,-179.397"/>
<text text-anchor="start" x="217" y="-197.397" font-family="Helvetica,sans-Serif" font-size="10.00">DotNumerics.LinearAlgebra.</text>
<text text-anchor="middle" x="278" y="-186.397" font-family="Helvetica,sans-Serif" font-size="10.00">CSLapack.DCOPY</text>
</a>
</g>
</g>
<!-- Node2&#45;&gt;Node1 -->
<g id="edge1" class="edge"><title>Node2&#45;&gt;Node1</title>
<path fill="none" stroke="#9a32cd" stroke-dasharray="5,2" d="M356.789,-180.823C373.479,-176.435 390.688,-170.737 406,-163.397 433.324,-150.3 460.295,-127.572 476.549,-112.507"/>
<polygon fill="#9a32cd" stroke="#9a32cd" points="355.894,-177.439 347.041,-183.258 357.591,-184.23 355.894,-177.439"/>
<text text-anchor="middle" x="385.5" y="-180.397" font-family="Helvetica,sans-Serif" font-size="10.00"> _dcopy</text>
</g>
<!-- Node3 -->
<g id="node3" class="node"><title>Node3</title>
<g id="a_node3"><a xlink:href="../../d7/d20/classDotNumerics_1_1LinearAlgebra_1_1CSLapack_1_1DGEMM.html" target="_top" xlink:title=" ">
<polygon fill="white" stroke="black" points="209,-82.3973 209,-112.397 347,-112.397 347,-82.3973 209,-82.3973"/>
<text text-anchor="start" x="217" y="-100.397" font-family="Helvetica,sans-Serif" font-size="10.00">DotNumerics.LinearAlgebra.</text>
<text text-anchor="middle" x="278" y="-89.3973" font-family="Helvetica,sans-Serif" font-size="10.00">CSLapack.DGEMM</text>
</a>
</g>
</g>
<!-- Node3&#45;&gt;Node1 -->
<g id="edge2" class="edge"><title>Node3&#45;&gt;Node1</title>
<path fill="none" stroke="#9a32cd" stroke-dasharray="5,2" d="M357.463,-97.3973C379.21,-97.3973 402.635,-97.3973 423.748,-97.3973"/>
<polygon fill="#9a32cd" stroke="#9a32cd" points="357.273,-93.8974 347.273,-97.3973 357.273,-100.897 357.273,-93.8974"/>
<text text-anchor="middle" x="385.5" y="-100.397" font-family="Helvetica,sans-Serif" font-size="10.00"> _dgemm</text>
</g>
<!-- Node4 -->
<g id="node4" class="node"><title>Node4</title>
<g id="a_node4"><a xlink:href="../../db/d6a/classDotNumerics_1_1LinearAlgebra_1_1CSLapack_1_1XERBLA.html" target="_top" xlink:title="– LAPACK auxiliary routine (version 3.1) – Univ. of Tennessee, Univ. of California Berkeley and NAG L...">
<polygon fill="white" stroke="black" points="0,-108.397 0,-138.397 138,-138.397 138,-108.397 0,-108.397"/>
<text text-anchor="start" x="8" y="-126.397" font-family="Helvetica,sans-Serif" font-size="10.00">DotNumerics.LinearAlgebra.</text>
<text text-anchor="middle" x="69" y="-115.397" font-family="Helvetica,sans-Serif" font-size="10.00">CSLapack.XERBLA</text>
</a>
</g>
</g>
<!-- Node4&#45;&gt;Node1 -->
<g id="edge5" class="edge"><title>Node4&#45;&gt;Node1</title>
<path fill="none" stroke="#9a32cd" stroke-dasharray="5,2" d="M148.242,-127.192C150.859,-127.269 153.45,-127.338 156,-127.397 240.908,-129.371 262.451,-129.446 347,-121.397 373.406,-118.884 379.822,-116.676 406,-112.397 411.833,-111.444 417.885,-110.433 423.954,-109.404"/>
<polygon fill="#9a32cd" stroke="#9a32cd" points="148.169,-123.687 138.058,-126.855 147.937,-130.683 148.169,-123.687"/>
<text text-anchor="middle" x="278" y="-132.397" font-family="Helvetica,sans-Serif" font-size="10.00"> _xerbla</text>
</g>
<!-- Node4&#45;&gt;Node3 -->
<g id="edge3" class="edge"><title>Node4&#45;&gt;Node3</title>
<path fill="none" stroke="#9a32cd" stroke-dasharray="5,2" d="M148.074,-113.591C168.079,-111.078 189.435,-108.396 208.893,-105.952"/>
<polygon fill="#9a32cd" stroke="#9a32cd" points="147.552,-110.129 138.066,-114.848 148.425,-117.074 147.552,-110.129"/>
<text text-anchor="middle" x="173.5" y="-115.397" font-family="Helvetica,sans-Serif" font-size="10.00"> _xerbla</text>
</g>
<!-- Node6 -->
<g id="node6" class="node"><title>Node6</title>
<g id="a_node6"><a xlink:href="../../d7/dbf/classDotNumerics_1_1LinearAlgebra_1_1CSLapack_1_1DTRMM.html" target="_top" xlink:title=" ">
<polygon fill="white" stroke="black" points="209,-33.3973 209,-63.3973 347,-63.3973 347,-33.3973 209,-33.3973"/>
<text text-anchor="start" x="217" y="-51.3973" font-family="Helvetica,sans-Serif" font-size="10.00">DotNumerics.LinearAlgebra.</text>
<text text-anchor="middle" x="278" y="-40.3973" font-family="Helvetica,sans-Serif" font-size="10.00">CSLapack.DTRMM</text>
</a>
</g>
</g>
<!-- Node4&#45;&gt;Node6 -->
<g id="edge8" class="edge"><title>Node4&#45;&gt;Node6</title>
<path fill="none" stroke="#9a32cd" stroke-dasharray="5,2" d="M120.119,-104.839C146.533,-95.1008 179.489,-83.0186 209,-72.3973 217.128,-69.472 225.814,-66.3801 234.168,-63.4239"/>
<polygon fill="#9a32cd" stroke="#9a32cd" points="118.873,-101.568 110.703,-108.313 121.296,-108.135 118.873,-101.568"/>
<text text-anchor="middle" x="173.5" y="-94.3973" font-family="Helvetica,sans-Serif" font-size="10.00"> _xerbla</text>
</g>
<!-- Node5 -->
<g id="node5" class="node"><title>Node5</title>
<g id="a_node5"><a xlink:href="../../dd/dac/classDotNumerics_1_1LinearAlgebra_1_1CSLapack_1_1LSAME.html" target="_top" xlink:title="– LAPACK auxiliary routine (version 3.1) – Univ. of Tennessee, Univ. of California Berkeley and NAG L...">
<polygon fill="white" stroke="black" points="0,-6.39733 0,-36.3973 138,-36.3973 138,-6.39733 0,-6.39733"/>
<text text-anchor="start" x="8" y="-24.3973" font-family="Helvetica,sans-Serif" font-size="10.00">DotNumerics.LinearAlgebra.</text>
<text text-anchor="middle" x="69" y="-13.3973" font-family="Helvetica,sans-Serif" font-size="10.00">CSLapack.LSAME</text>
</a>
</g>
</g>
<!-- Node5&#45;&gt;Node1 -->
<g id="edge6" class="edge"><title>Node5&#45;&gt;Node1</title>
<path fill="none" stroke="#9a32cd" stroke-dasharray="5,2" d="M148.08,-6.78602C204.369,0.855919 281.622,5.35279 347,-12.3973 397.126,-26.0065 447.647,-61.7844 473.78,-82.3233"/>
<polygon fill="#9a32cd" stroke="#9a32cd" points="147.584,-3.32133 138.175,-8.19239 148.568,-10.2518 147.584,-3.32133"/>
<text text-anchor="middle" x="278" y="-15.3973" font-family="Helvetica,sans-Serif" font-size="10.00"> _lsame</text>
</g>
<!-- Node5&#45;&gt;Node3 -->
<g id="edge4" class="edge"><title>Node5&#45;&gt;Node3</title>
<path fill="none" stroke="#9a32cd" stroke-dasharray="5,2" d="M124.527,-39.7761C145.448,-47.088 169.462,-55.7986 191,-64.3973 199.131,-67.6433 200.887,-69.1073 209,-72.3973 217.276,-75.7535 226.192,-79.171 234.756,-82.3577"/>
<polygon fill="#9a32cd" stroke="#9a32cd" points="125.437,-36.3871 114.842,-36.4134 123.141,-42.9998 125.437,-36.3871"/>
<text text-anchor="middle" x="173.5" y="-67.3973" font-family="Helvetica,sans-Serif" font-size="10.00"> _lsame</text>
</g>
<!-- Node5&#45;&gt;Node6 -->
<g id="edge9" class="edge"><title>Node5&#45;&gt;Node6</title>
<path fill="none" stroke="#9a32cd" stroke-dasharray="5,2" d="M148.378,-18.7875C162.617,-19.2369 177.296,-20.3132 191,-22.3973 205.804,-24.6487 221.599,-28.8678 235.559,-33.2623"/>
<polygon fill="#9a32cd" stroke="#9a32cd" points="148.18,-15.2826 138.106,-18.5657 148.028,-22.2809 148.18,-15.2826"/>
<text text-anchor="middle" x="173.5" y="-25.3973" font-family="Helvetica,sans-Serif" font-size="10.00"> _lsame</text>
</g>
<!-- Node6&#45;&gt;Node1 -->
<g id="edge7" class="edge"><title>Node6&#45;&gt;Node1</title>
<path fill="none" stroke="#9a32cd" stroke-dasharray="5,2" d="M354.337,-65.7283C377.985,-71.1685 403.881,-77.1258 426.769,-82.3911"/>
<polygon fill="#9a32cd" stroke="#9a32cd" points="354.885,-62.263 344.355,-63.4319 353.315,-69.0848 354.885,-62.263"/>
<text text-anchor="middle" x="385.5" y="-80.3973" font-family="Helvetica,sans-Serif" font-size="10.00"> _dtrmm</text>
</g>
</g>
</svg>
