<?xml version="1.0" encoding="UTF-8" standalone="no"?>
<!DOCTYPE svg PUBLIC "-//W3C//DTD SVG 1.1//EN"
 "http://www.w3.org/Graphics/SVG/1.1/DTD/svg11.dtd">
<!-- Generated by graphviz version 2.38.0 (20140413.2041)
 -->
<!-- Title: SRVTest.MainForm Pages: 1 -->
<svg width="404pt" height="395pt"
 viewBox="0.00 0.00 403.50 395.00" xmlns="http://www.w3.org/2000/svg" xmlns:xlink="http://www.w3.org/1999/xlink">
<g id="graph0" class="graph" transform="scale(1 1) rotate(0) translate(4 391)">
<title>SRVTest.MainForm</title>
<polygon fill="white" stroke="none" points="-4,4 -4,-391 399.5,-391 399.5,4 -4,4"/>
<!-- Node1 -->
<g id="node1" class="node"><title>Node1</title>
<g id="a_node1"><a xlink:title=" ">
<polygon fill="#bfbfbf" stroke="black" points="83.5,-0.5 83.5,-19.5 185.5,-19.5 185.5,-0.5 83.5,-0.5"/>
<text text-anchor="middle" x="134.5" y="-7.5" font-family="Helvetica,sans-Serif" font-size="10.00">SRVTest.MainForm</text>
</a>
</g>
</g>
<!-- Node2 -->
<g id="node2" class="node"><title>Node2</title>
<g id="a_node2"><a xlink:title=" ">
<polygon fill="white" stroke="#bfbfbf" points="0,-140 0,-159 39,-159 39,-140 0,-140"/>
<text text-anchor="middle" x="19.5" y="-147" font-family="Helvetica,sans-Serif" font-size="10.00">Form</text>
</a>
</g>
</g>
<!-- Node2&#45;&gt;Node1 -->
<g id="edge1" class="edge"><title>Node2&#45;&gt;Node1</title>
<path fill="none" stroke="midnightblue" d="M23.4661,-129.759C29.4873,-105.568 43.1336,-63.5558 69.5,-38 78.1866,-29.5805 89.8755,-23.635 100.946,-19.5093"/>
<polygon fill="midnightblue" stroke="midnightblue" points="19.9929,-129.245 21.1588,-139.776 26.8143,-130.817 19.9929,-129.245"/>
</g>
<!-- Node3 -->
<g id="node3" class="node"><title>Node3</title>
<g id="a_node3"><a xlink:title=" ">
<polygon fill="white" stroke="#bfbfbf" points="57.5,-140 57.5,-159 105.5,-159 105.5,-140 57.5,-140"/>
<text text-anchor="middle" x="81.5" y="-147" font-family="Helvetica,sans-Serif" font-size="10.00">AForge</text>
</a>
</g>
</g>
<!-- Node3&#45;&gt;Node1 -->
<g id="edge2" class="edge"><title>Node3&#45;&gt;Node1</title>
<path fill="none" stroke="#9a32cd" stroke-dasharray="5,2" d="M76.4902,-129.997C71.3021,-106.677 66.1485,-66.2378 83.5,-38 88.6401,-29.635 97.3187,-23.7177 106.073,-19.6"/>
<polygon fill="#9a32cd" stroke="#9a32cd" points="73.1496,-131.069 78.9414,-139.94 79.9462,-129.393 73.1496,-131.069"/>
<text text-anchor="middle" x="124.5" y="-63" font-family="Helvetica,sans-Serif" font-size="10.00"> cameraPlayer</text>
<text text-anchor="middle" x="124.5" y="-52" font-family="Helvetica,sans-Serif" font-size="10.00">turnControl</text>
<text text-anchor="middle" x="124.5" y="-41" font-family="Helvetica,sans-Serif" font-size="10.00">manipulatorControl</text>
</g>
<!-- Node4 -->
<g id="node4" class="node"><title>Node4</title>
<g id="a_node4"><a xlink:href="../../de/d26/classSRVTest_1_1SrvDriverControl.html" target="_top" xlink:title=" ">
<polygon fill="white" stroke="black" points="124,-140 124,-159 251,-159 251,-140 124,-140"/>
<text text-anchor="middle" x="187.5" y="-147" font-family="Helvetica,sans-Serif" font-size="10.00">SRVTest.SrvDriverControl</text>
</a>
</g>
</g>
<!-- Node4&#45;&gt;Node1 -->
<g id="edge3" class="edge"><title>Node4&#45;&gt;Node1</title>
<path fill="none" stroke="#9a32cd" stroke-dasharray="5,2" d="M187.384,-129.652C186.461,-106.563 182.285,-66.9531 165.5,-38 161.276,-30.7141 154.36,-24.4084 148.13,-19.7272"/>
<polygon fill="#9a32cd" stroke="#9a32cd" points="183.889,-129.893 187.619,-139.809 190.887,-129.731 183.889,-129.893"/>
<text text-anchor="middle" x="213.5" y="-52" font-family="Helvetica,sans-Serif" font-size="10.00"> srvDriverControl</text>
</g>
<!-- Node5 -->
<g id="node5" class="node"><title>Node5</title>
<g id="a_node5"><a xlink:title=" ">
<polygon fill="white" stroke="#bfbfbf" points="120.5,-367.5 120.5,-386.5 188.5,-386.5 188.5,-367.5 120.5,-367.5"/>
<text text-anchor="middle" x="154.5" y="-374.5" font-family="Helvetica,sans-Serif" font-size="10.00">UserControl</text>
</a>
</g>
</g>
<!-- Node5&#45;&gt;Node4 -->
<g id="edge4" class="edge"><title>Node5&#45;&gt;Node4</title>
<path fill="none" stroke="midnightblue" d="M155.396,-357.22C156.939,-329.007 160.716,-274.076 168.5,-228 172.792,-202.593 180.877,-173.194 184.978,-159.016"/>
<polygon fill="midnightblue" stroke="midnightblue" points="151.897,-357.101 154.88,-367.268 158.888,-357.46 151.897,-357.101"/>
</g>
<!-- Node6 -->
<g id="node6" class="node"><title>Node6</title>
<g id="a_node6"><a xlink:title=" ">
<polygon fill="white" stroke="#bfbfbf" points="237.5,-367.5 237.5,-386.5 287.5,-386.5 287.5,-367.5 237.5,-367.5"/>
<text text-anchor="middle" x="262.5" y="-374.5" font-family="Helvetica,sans-Serif" font-size="10.00">System</text>
</a>
</g>
</g>
<!-- Node6&#45;&gt;Node1 -->
<g id="edge6" class="edge"><title>Node6&#45;&gt;Node1</title>
<path fill="none" stroke="#9a32cd" stroke-dasharray="5,2" d="M275.351,-358.669C277.06,-355.585 278.548,-352.3 279.5,-349 317.97,-215.698 346.411,-140.128 252.5,-38 243.289,-27.9835 213.202,-21.1917 185.716,-16.9254"/>
<polygon fill="#9a32cd" stroke="#9a32cd" points="272.37,-356.833 269.879,-367.131 278.248,-360.634 272.37,-356.833"/>
<text text-anchor="middle" x="356" y="-202" font-family="Helvetica,sans-Serif" font-size="10.00"> ipBox</text>
<text text-anchor="middle" x="356" y="-191" font-family="Helvetica,sans-Serif" font-size="10.00">statusLabel</text>
<text text-anchor="middle" x="356" y="-180" font-family="Helvetica,sans-Serif" font-size="10.00">label1</text>
<text text-anchor="middle" x="356" y="-169" font-family="Helvetica,sans-Serif" font-size="10.00">label2</text>
<text text-anchor="middle" x="356" y="-158" font-family="Helvetica,sans-Serif" font-size="10.00">aboutButton</text>
<text text-anchor="middle" x="356" y="-147" font-family="Helvetica,sans-Serif" font-size="10.00">minPowerUpDown</text>
<text text-anchor="middle" x="356" y="-136" font-family="Helvetica,sans-Serif" font-size="10.00">qualityCombo</text>
<text text-anchor="middle" x="356" y="-125" font-family="Helvetica,sans-Serif" font-size="10.00">label3</text>
<text text-anchor="middle" x="356" y="-114" font-family="Helvetica,sans-Serif" font-size="10.00">statusStrip</text>
<text text-anchor="middle" x="356" y="-103" font-family="Helvetica,sans-Serif" font-size="10.00">label4</text>
<text text-anchor="middle" x="356" y="-92" font-family="Helvetica,sans-Serif" font-size="10.00">...</text>
</g>
<!-- Node6&#45;&gt;Node4 -->
<g id="edge5" class="edge"><title>Node6&#45;&gt;Node4</title>
<path fill="none" stroke="#9a32cd" stroke-dasharray="5,2" d="M227.637,-372.041C213.056,-368.471 197.45,-361.724 188.5,-349 145.674,-288.114 174.405,-188.658 184.429,-159.065"/>
<polygon fill="#9a32cd" stroke="#9a32cd" points="226.976,-375.478 237.473,-374.039 228.37,-368.618 226.976,-375.478"/>
<text text-anchor="middle" x="234" y="-341" font-family="Helvetica,sans-Serif" font-size="10.00"> leftBackwardButton</text>
<text text-anchor="middle" x="234" y="-330" font-family="Helvetica,sans-Serif" font-size="10.00">backwardButton</text>
<text text-anchor="middle" x="234" y="-319" font-family="Helvetica,sans-Serif" font-size="10.00">stopButton</text>
<text text-anchor="middle" x="234" y="-308" font-family="Helvetica,sans-Serif" font-size="10.00">slowDownButton</text>
<text text-anchor="middle" x="234" y="-297" font-family="Helvetica,sans-Serif" font-size="10.00">rightButton</text>
<text text-anchor="middle" x="234" y="-286" font-family="Helvetica,sans-Serif" font-size="10.00">leftDriftButton</text>
<text text-anchor="middle" x="234" y="-275" font-family="Helvetica,sans-Serif" font-size="10.00">leftButton</text>
<text text-anchor="middle" x="234" y="-264" font-family="Helvetica,sans-Serif" font-size="10.00">components</text>
<text text-anchor="middle" x="234" y="-253" font-family="Helvetica,sans-Serif" font-size="10.00">speedUpButton</text>
<text text-anchor="middle" x="234" y="-242" font-family="Helvetica,sans-Serif" font-size="10.00">rightBackwardButton</text>
<text text-anchor="middle" x="234" y="-231" font-family="Helvetica,sans-Serif" font-size="10.00">...</text>
</g>
</g>
</svg>
