<?xml version="1.0" encoding="UTF-8" standalone="no"?>
<!DOCTYPE svg PUBLIC "-//W3C//DTD SVG 1.1//EN"
 "http://www.w3.org/Graphics/SVG/1.1/DTD/svg11.dtd">
<!-- Generated by graphviz version 2.38.0 (20140413.2041)
 -->
<!-- Title: NUnit.Framework.Constraints.AndConstraint.AndConstraintResult Pages: 1 -->
<svg width="262pt" height="128pt"
 viewBox="0.00 0.00 262.00 128.00" xmlns="http://www.w3.org/2000/svg" xmlns:xlink="http://www.w3.org/1999/xlink">
<g id="graph0" class="graph" transform="scale(1 1) rotate(0) translate(4 124)">
<title>NUnit.Framework.Constraints.AndConstraint.AndConstraintResult</title>
<polygon fill="white" stroke="none" points="-4,4 -4,-124 258,-124 258,4 -4,4"/>
<!-- Node1 -->
<g id="node1" class="node"><title>Node1</title>
<g id="a_node1"><a xlink:title=" ">
<polygon fill="#bfbfbf" stroke="black" points="27.5,-0.5 27.5,-30.5 197.5,-30.5 197.5,-0.5 27.5,-0.5"/>
<text text-anchor="start" x="35.5" y="-18.5" font-family="Helvetica,sans-Serif" font-size="10.00">NUnit.Framework.Constraints.</text>
<text text-anchor="middle" x="112.5" y="-7.5" font-family="Helvetica,sans-Serif" font-size="10.00">AndConstraint.AndConstraintResult</text>
</a>
</g>
</g>
<!-- Node2 -->
<g id="node2" class="node"><title>Node2</title>
<g id="a_node2"><a xlink:href="../../d7/d91/classNUnit_1_1Framework_1_1Constraints_1_1ConstraintResult.html" target="_top" xlink:title="Contain the result of matching a Constraint against an actual value.">
<polygon fill="white" stroke="black" points="0,-95 0,-114 89,-114 89,-95 0,-95"/>
<text text-anchor="middle" x="44.5" y="-102" font-family="Helvetica,sans-Serif" font-size="10.00">ConstraintResult</text>
</a>
</g>
</g>
<!-- Node2&#45;&gt;Node1 -->
<g id="edge1" class="edge"><title>Node2&#45;&gt;Node1</title>
<path fill="none" stroke="midnightblue" d="M57.6121,-86.7242C70.3724,-70.3986 89.5409,-45.8741 101.52,-30.5475"/>
<polygon fill="midnightblue" stroke="midnightblue" points="54.6693,-84.8058 51.2687,-94.84 60.1846,-89.1165 54.6693,-84.8058"/>
</g>
<!-- Node3 -->
<g id="node3" class="node"><title>Node3</title>
<g id="a_node3"><a xlink:href="../../d7/d91/classNUnit_1_1Framework_1_1Constraints_1_1ConstraintResult.html" target="_top" xlink:title="Contain the result of matching a Constraint against an actual value.">
<polygon fill="white" stroke="black" points="107,-89.5 107,-119.5 254,-119.5 254,-89.5 107,-89.5"/>
<text text-anchor="start" x="115" y="-107.5" font-family="Helvetica,sans-Serif" font-size="10.00">NUnit.Framework.Constraints.</text>
<text text-anchor="middle" x="180.5" y="-96.5" font-family="Helvetica,sans-Serif" font-size="10.00">ConstraintResult</text>
</a>
</g>
</g>
<!-- Node3&#45;&gt;Node1 -->
<g id="edge2" class="edge"><title>Node3&#45;&gt;Node1</title>
<path fill="none" stroke="#9a32cd" stroke-dasharray="5,2" d="M162.818,-80.8769C150.387,-64.9727 134.141,-44.1879 123.52,-30.599"/>
<polygon fill="#9a32cd" stroke="#9a32cd" points="160.355,-83.4102 169.271,-89.1337 165.871,-79.0994 160.355,-83.4102"/>
<text text-anchor="middle" x="179.5" y="-63" font-family="Helvetica,sans-Serif" font-size="10.00"> rightResult</text>
<text text-anchor="middle" x="179.5" y="-52" font-family="Helvetica,sans-Serif" font-size="10.00">leftResult</text>
</g>
</g>
</svg>
