<?xml version="1.0" encoding="UTF-8" standalone="no"?>
<!DOCTYPE svg PUBLIC "-//W3C//DTD SVG 1.1//EN"
 "http://www.w3.org/Graphics/SVG/1.1/DTD/svg11.dtd">
<!-- Generated by graphviz version 2.38.0 (20140413.2041)
 -->
<!-- Title: IG.MPetekLib.Algorithms.PlottableModels.Oscillators.DrivenHarmonicOscillator Pages: 1 -->
<svg width="147pt" height="218pt"
 viewBox="0.00 0.00 147.00 218.00" xmlns="http://www.w3.org/2000/svg" xmlns:xlink="http://www.w3.org/1999/xlink">
<g id="graph0" class="graph" transform="scale(1 1) rotate(0) translate(4 214)">
<title>IG.MPetekLib.Algorithms.PlottableModels.Oscillators.DrivenHarmonicOscillator</title>
<polygon fill="white" stroke="none" points="-4,4 -4,-214 143,-214 143,4 -4,4"/>
<!-- Node1 -->
<g id="node1" class="node"><title>Node1</title>
<g id="a_node1"><a xlink:title="SpecifiÄni solver, ki zastopa vsiljeno nihanje.">
<polygon fill="#bfbfbf" stroke="black" points="0,-0.5 0,-41.5 139,-41.5 139,-0.5 0,-0.5"/>
<text text-anchor="start" x="8" y="-29.5" font-family="Helvetica,sans-Serif" font-size="10.00">IG.MPetekLib.Algorithms.</text>
<text text-anchor="start" x="8" y="-18.5" font-family="Helvetica,sans-Serif" font-size="10.00">PlottableModels.Oscillators.</text>
<text text-anchor="middle" x="69.5" y="-7.5" font-family="Helvetica,sans-Serif" font-size="10.00">DrivenHarmonicOscillator</text>
</a>
</g>
</g>
<!-- Node2 -->
<g id="node2" class="node"><title>Node2</title>
<g id="a_node2"><a xlink:href="../../df/d12/classIG_1_1MPetekLib_1_1Algorithms_1_1PlottableModels_1_1Oscillators_1_1DrivenOscillatorBase.html" target="_top" xlink:title="A template class for the driven oscillators. Holds the values for: angular driving frequency,...">
<polygon fill="white" stroke="black" points="16,-78.5 16,-97.5 123,-97.5 123,-78.5 16,-78.5"/>
<text text-anchor="middle" x="69.5" y="-85.5" font-family="Helvetica,sans-Serif" font-size="10.00">DrivenOscillatorBase</text>
</a>
</g>
</g>
<!-- Node2&#45;&gt;Node1 -->
<g id="edge1" class="edge"><title>Node2&#45;&gt;Node1</title>
<path fill="none" stroke="midnightblue" d="M69.5,-68.037C69.5,-59.7084 69.5,-49.9358 69.5,-41.5421"/>
<polygon fill="midnightblue" stroke="midnightblue" points="66.0001,-68.2338 69.5,-78.2338 73.0001,-68.2338 66.0001,-68.2338"/>
</g>
<!-- Node3 -->
<g id="node3" class="node"><title>Node3</title>
<g id="a_node3"><a xlink:href="../../db/db8/classIG_1_1MPetekLib_1_1Algorithms_1_1PlottableModels_1_1PlottableODEModelBase.html" target="_top" xlink:title="A template class for physical models, which are described by ordinary differential equations (ODEs)....">
<polygon fill="white" stroke="black" points="7,-134.5 7,-153.5 132,-153.5 132,-134.5 7,-134.5"/>
<text text-anchor="middle" x="69.5" y="-141.5" font-family="Helvetica,sans-Serif" font-size="10.00">PlottableODEModelBase</text>
</a>
</g>
</g>
<!-- Node3&#45;&gt;Node2 -->
<g id="edge2" class="edge"><title>Node3&#45;&gt;Node2</title>
<path fill="none" stroke="midnightblue" d="M69.5,-123.805C69.5,-114.91 69.5,-104.78 69.5,-97.7511"/>
<polygon fill="midnightblue" stroke="midnightblue" points="66.0001,-124.083 69.5,-134.083 73.0001,-124.083 66.0001,-124.083"/>
</g>
<!-- Node4 -->
<g id="node4" class="node"><title>Node4</title>
<g id="a_node4"><a xlink:href="../../d2/d4f/classIG_1_1MPetekLib_1_1Algorithms_1_1PlottableModels_1_1PlottableModelBase.html" target="_top" xlink:title="A template class for physical models. Each child should define its own plottable curves).">
<polygon fill="white" stroke="black" points="17.5,-190.5 17.5,-209.5 121.5,-209.5 121.5,-190.5 17.5,-190.5"/>
<text text-anchor="middle" x="69.5" y="-197.5" font-family="Helvetica,sans-Serif" font-size="10.00">PlottableModelBase</text>
</a>
</g>
</g>
<!-- Node4&#45;&gt;Node3 -->
<g id="edge3" class="edge"><title>Node4&#45;&gt;Node3</title>
<path fill="none" stroke="midnightblue" d="M69.5,-179.805C69.5,-170.91 69.5,-160.78 69.5,-153.751"/>
<polygon fill="midnightblue" stroke="midnightblue" points="66.0001,-180.083 69.5,-190.083 73.0001,-180.083 66.0001,-180.083"/>
</g>
</g>
</svg>
