<?xml version="1.0" encoding="UTF-8" standalone="no"?>
<!DOCTYPE svg PUBLIC "-//W3C//DTD SVG 1.1//EN"
 "http://www.w3.org/Graphics/SVG/1.1/DTD/svg11.dtd">
<!-- Generated by graphviz version 2.38.0 (20140413.2041)
 -->
<!-- Title: AForge.Imaging.Filters.ColorFiltering Pages: 1 -->
<svg width="366pt" height="185pt"
 viewBox="0.00 0.00 365.50 185.00" xmlns="http://www.w3.org/2000/svg" xmlns:xlink="http://www.w3.org/1999/xlink">
<g id="graph0" class="graph" transform="scale(1 1) rotate(0) translate(4 181)">
<title>AForge.Imaging.Filters.ColorFiltering</title>
<polygon fill="white" stroke="none" points="-4,4 -4,-181 361.5,-181 361.5,4 -4,4"/>
<!-- Node1 -->
<g id="node1" class="node"><title>Node1</title>
<g id="a_node1"><a xlink:title="Color filtering.">
<polygon fill="#bfbfbf" stroke="black" points="169.5,-0.5 169.5,-30.5 309.5,-30.5 309.5,-0.5 169.5,-0.5"/>
<text text-anchor="start" x="177.5" y="-18.5" font-family="Helvetica,sans-Serif" font-size="10.00">AForge.Imaging.Filters.Color</text>
<text text-anchor="middle" x="239.5" y="-7.5" font-family="Helvetica,sans-Serif" font-size="10.00">Filtering</text>
</a>
</g>
</g>
<!-- Node2 -->
<g id="node2" class="node"><title>Node2</title>
<g id="a_node2"><a xlink:href="../../db/dc9/classAForge_1_1Imaging_1_1Filters_1_1BaseInPlacePartialFilter.html" target="_top" xlink:title="Base class for filters, which may be applied directly to the source image or its part.">
<polygon fill="white" stroke="black" points="87,-100.5 87,-119.5 208,-119.5 208,-100.5 87,-100.5"/>
<text text-anchor="middle" x="147.5" y="-107.5" font-family="Helvetica,sans-Serif" font-size="10.00">BaseInPlacePartialFilter</text>
</a>
</g>
</g>
<!-- Node2&#45;&gt;Node1 -->
<g id="edge1" class="edge"><title>Node2&#45;&gt;Node1</title>
<path fill="none" stroke="midnightblue" d="M163.193,-93.2214C180.646,-75.674 208.586,-47.5825 225.377,-30.6999"/>
<polygon fill="midnightblue" stroke="midnightblue" points="160.561,-90.9052 155.99,-100.464 165.524,-95.8416 160.561,-90.9052"/>
</g>
<!-- Node3 -->
<g id="node3" class="node"><title>Node3</title>
<g id="a_node3"><a xlink:href="../../dd/d51/interfaceAForge_1_1Imaging_1_1Filters_1_1IFilter.html" target="_top" xlink:title="Image processing filter interface.">
<polygon fill="white" stroke="black" points="0,-157.5 0,-176.5 41,-176.5 41,-157.5 0,-157.5"/>
<text text-anchor="middle" x="20.5" y="-164.5" font-family="Helvetica,sans-Serif" font-size="10.00">IFilter</text>
</a>
</g>
</g>
<!-- Node3&#45;&gt;Node2 -->
<g id="edge2" class="edge"><title>Node3&#45;&gt;Node2</title>
<path fill="none" stroke="midnightblue" d="M49.6557,-153.374C73.6063,-143.001 106.88,-128.591 127.796,-119.533"/>
<polygon fill="midnightblue" stroke="midnightblue" points="48.1293,-150.22 40.3438,-157.406 50.9111,-156.644 48.1293,-150.22"/>
</g>
<!-- Node4 -->
<g id="node4" class="node"><title>Node4</title>
<g id="a_node4"><a xlink:href="../../de/d9b/interfaceAForge_1_1Imaging_1_1Filters_1_1IInPlaceFilter.html" target="_top" xlink:title="In&#45;place filter interface.">
<polygon fill="white" stroke="black" points="59,-157.5 59,-176.5 132,-176.5 132,-157.5 59,-157.5"/>
<text text-anchor="middle" x="95.5" y="-164.5" font-family="Helvetica,sans-Serif" font-size="10.00">IInPlaceFilter</text>
</a>
</g>
</g>
<!-- Node4&#45;&gt;Node2 -->
<g id="edge3" class="edge"><title>Node4&#45;&gt;Node2</title>
<path fill="none" stroke="midnightblue" d="M110.511,-150.123C119.87,-140.224 131.557,-127.862 139.26,-119.715"/>
<polygon fill="midnightblue" stroke="midnightblue" points="107.952,-147.735 103.625,-157.406 113.038,-152.544 107.952,-147.735"/>
</g>
<!-- Node5 -->
<g id="node5" class="node"><title>Node5</title>
<g id="a_node5"><a xlink:href="../../d2/d66/interfaceAForge_1_1Imaging_1_1Filters_1_1IInPlacePartialFilter.html" target="_top" xlink:title="In&#45;place partial filter interface.">
<polygon fill="white" stroke="black" points="150,-157.5 150,-176.5 251,-176.5 251,-157.5 150,-157.5"/>
<text text-anchor="middle" x="200.5" y="-164.5" font-family="Helvetica,sans-Serif" font-size="10.00">IInPlacePartialFilter</text>
</a>
</g>
</g>
<!-- Node5&#45;&gt;Node2 -->
<g id="edge4" class="edge"><title>Node5&#45;&gt;Node2</title>
<path fill="none" stroke="midnightblue" d="M185.2,-150.123C175.661,-140.224 163.749,-127.862 155.898,-119.715"/>
<polygon fill="midnightblue" stroke="midnightblue" points="182.76,-152.634 192.219,-157.406 187.8,-147.777 182.76,-152.634"/>
</g>
<!-- Node6 -->
<g id="node6" class="node"><title>Node6</title>
<g id="a_node6"><a xlink:href="../../d7/dec/interfaceAForge_1_1Imaging_1_1Filters_1_1IFilterInformation.html" target="_top" xlink:title="Interface which provides information about image processing filter.">
<polygon fill="white" stroke="black" points="269.5,-157.5 269.5,-176.5 357.5,-176.5 357.5,-157.5 269.5,-157.5"/>
<text text-anchor="middle" x="313.5" y="-164.5" font-family="Helvetica,sans-Serif" font-size="10.00">IFilterInformation</text>
</a>
</g>
</g>
<!-- Node6&#45;&gt;Node2 -->
<g id="edge5" class="edge"><title>Node6&#45;&gt;Node2</title>
<path fill="none" stroke="midnightblue" d="M277.869,-154.195C246.417,-143.774 201.322,-128.833 173.255,-119.533"/>
<polygon fill="midnightblue" stroke="midnightblue" points="276.969,-157.583 287.563,-157.406 279.171,-150.939 276.969,-157.583"/>
</g>
<!-- Node7 -->
<g id="node7" class="node"><title>Node7</title>
<g id="a_node7"><a xlink:href="../../d9/d09/classAForge_1_1IntRange.html" target="_top" xlink:title="Represents an integer range with minimum and maximum values">
<polygon fill="white" stroke="black" points="226,-100.5 226,-119.5 315,-119.5 315,-100.5 226,-100.5"/>
<text text-anchor="middle" x="270.5" y="-107.5" font-family="Helvetica,sans-Serif" font-size="10.00">AForge.IntRange</text>
</a>
</g>
</g>
<!-- Node7&#45;&gt;Node1 -->
<g id="edge6" class="edge"><title>Node7&#45;&gt;Node1</title>
<path fill="none" stroke="#9a32cd" stroke-dasharray="5,2" d="M264.397,-90.7879C258.491,-73.166 249.662,-46.822 244.259,-30.6999"/>
<polygon fill="#9a32cd" stroke="#9a32cd" points="261.143,-92.0941 267.639,-100.464 267.78,-89.8697 261.143,-92.0941"/>
<text text-anchor="middle" x="274" y="-74" font-family="Helvetica,sans-Serif" font-size="10.00"> blue</text>
<text text-anchor="middle" x="274" y="-63" font-family="Helvetica,sans-Serif" font-size="10.00">red</text>
<text text-anchor="middle" x="274" y="-52" font-family="Helvetica,sans-Serif" font-size="10.00">green</text>
</g>
</g>
</svg>
