<?xml version="1.0" encoding="UTF-8" standalone="no"?>
<!DOCTYPE svg PUBLIC "-//W3C//DTD SVG 1.1//EN"
 "http://www.w3.org/Graphics/SVG/1.1/DTD/svg11.dtd">
<!-- Generated by graphviz version 2.38.0 (20140413.2041)
 -->
<!-- Title: NeuronDotNet.Core.Initializers.ConstantFunction Pages: 1 -->
<svg width="158pt" height="218pt"
 viewBox="0.00 0.00 158.00 218.00" xmlns="http://www.w3.org/2000/svg" xmlns:xlink="http://www.w3.org/1999/xlink">
<g id="graph0" class="graph" transform="scale(1 1) rotate(0) translate(4 214)">
<title>NeuronDotNet.Core.Initializers.ConstantFunction</title>
<polygon fill="white" stroke="none" points="-4,4 -4,-214 154,-214 154,4 -4,4"/>
<!-- Node1 -->
<g id="node1" class="node"><title>Node1</title>
<g id="a_node1"><a xlink:title="An IInitializer using constant function">
<polygon fill="#bfbfbf" stroke="black" points="0,-67.5 0,-97.5 150,-97.5 150,-67.5 0,-67.5"/>
<text text-anchor="start" x="8" y="-85.5" font-family="Helvetica,sans-Serif" font-size="10.00">NeuronDotNet.Core.Initializers.</text>
<text text-anchor="middle" x="75" y="-74.5" font-family="Helvetica,sans-Serif" font-size="10.00">ConstantFunction</text>
</a>
</g>
</g>
<!-- Node4 -->
<g id="node4" class="node"><title>Node4</title>
<g id="a_node4"><a xlink:href="../../df/d48/classNeuronDotNet_1_1Core_1_1Initializers_1_1ZeroFunction.html" target="_top" xlink:title="An IInitializer using zero function">
<polygon fill="white" stroke="black" points="0,-0.5 0,-30.5 150,-30.5 150,-0.5 0,-0.5"/>
<text text-anchor="start" x="8" y="-18.5" font-family="Helvetica,sans-Serif" font-size="10.00">NeuronDotNet.Core.Initializers.</text>
<text text-anchor="middle" x="75" y="-7.5" font-family="Helvetica,sans-Serif" font-size="10.00">ZeroFunction</text>
</a>
</g>
</g>
<!-- Node1&#45;&gt;Node4 -->
<g id="edge3" class="edge"><title>Node1&#45;&gt;Node4</title>
<path fill="none" stroke="midnightblue" d="M75,-57.1081C75,-48.1539 75,-38.3227 75,-30.5765"/>
<polygon fill="midnightblue" stroke="midnightblue" points="71.5001,-57.3959 75,-67.396 78.5001,-57.396 71.5001,-57.3959"/>
</g>
<!-- Node2 -->
<g id="node2" class="node"><title>Node2</title>
<g id="a_node2"><a xlink:href="../../dd/d78/interfaceNeuronDotNet_1_1Core_1_1IInitializer.html" target="_top" xlink:title="Initializer interface. An initializer should define initialization methods for all concrete initializ...">
<polygon fill="white" stroke="black" points="46.5,-134.5 46.5,-153.5 103.5,-153.5 103.5,-134.5 46.5,-134.5"/>
<text text-anchor="middle" x="75" y="-141.5" font-family="Helvetica,sans-Serif" font-size="10.00">IInitializer</text>
</a>
</g>
</g>
<!-- Node2&#45;&gt;Node1 -->
<g id="edge1" class="edge"><title>Node2&#45;&gt;Node1</title>
<path fill="none" stroke="midnightblue" d="M75,-124.235C75,-115.586 75,-105.497 75,-97.523"/>
<polygon fill="midnightblue" stroke="midnightblue" points="71.5001,-124.475 75,-134.475 78.5001,-124.475 71.5001,-124.475"/>
</g>
<!-- Node3 -->
<g id="node3" class="node"><title>Node3</title>
<g id="a_node3"><a xlink:title=" ">
<polygon fill="white" stroke="#bfbfbf" points="40.5,-190.5 40.5,-209.5 109.5,-209.5 109.5,-190.5 40.5,-190.5"/>
<text text-anchor="middle" x="75" y="-197.5" font-family="Helvetica,sans-Serif" font-size="10.00">ISerializable</text>
</a>
</g>
</g>
<!-- Node3&#45;&gt;Node2 -->
<g id="edge2" class="edge"><title>Node3&#45;&gt;Node2</title>
<path fill="none" stroke="midnightblue" d="M75,-179.805C75,-170.91 75,-160.78 75,-153.751"/>
<polygon fill="midnightblue" stroke="midnightblue" points="71.5001,-180.083 75,-190.083 78.5001,-180.083 71.5001,-180.083"/>
</g>
</g>
</svg>
