<?xml version="1.0" encoding="UTF-8" standalone="no"?>
<!DOCTYPE svg PUBLIC "-//W3C//DTD SVG 1.1//EN"
 "http://www.w3.org/Graphics/SVG/1.1/DTD/svg11.dtd">
<!-- Generated by graphviz version 2.38.0 (20140413.2041)
 -->
<!-- Title: AForge.Robotics.Surveyor.SVS Pages: 1 -->
<svg width="383pt" height="243pt"
 viewBox="0.00 0.00 382.50 243.00" xmlns="http://www.w3.org/2000/svg" xmlns:xlink="http://www.w3.org/1999/xlink">
<g id="graph0" class="graph" transform="scale(1 1) rotate(0) translate(4 239)">
<title>AForge.Robotics.Surveyor.SVS</title>
<polygon fill="white" stroke="none" points="-4,4 -4,-239 378.5,-239 378.5,4 -4,4"/>
<!-- Node1 -->
<g id="node1" class="node"><title>Node1</title>
<g id="a_node1"><a xlink:title="Manipulation of Surveyor SVS (Stereo Vision System) board.">
<polygon fill="#bfbfbf" stroke="black" points="207,-0.5 207,-19.5 360,-19.5 360,-0.5 207,-0.5"/>
<text text-anchor="middle" x="283.5" y="-7.5" font-family="Helvetica,sans-Serif" font-size="10.00">AForge.Robotics.Surveyor.SVS</text>
</a>
</g>
</g>
<!-- Node2 -->
<g id="node2" class="node"><title>Node2</title>
<g id="a_node2"><a xlink:href="../../de/d17/classAForge_1_1Robotics_1_1Surveyor_1_1SRV1Camera.html" target="_top" xlink:title="Provides access to video stream from Surveyor SRV&#45;1 Blackfin camera.">
<polygon fill="white" stroke="black" points="190,-147.5 190,-177.5 323,-177.5 323,-147.5 190,-147.5"/>
<text text-anchor="start" x="198" y="-165.5" font-family="Helvetica,sans-Serif" font-size="10.00">AForge.Robotics.Surveyor.</text>
<text text-anchor="middle" x="256.5" y="-154.5" font-family="Helvetica,sans-Serif" font-size="10.00">SRV1Camera</text>
</a>
</g>
</g>
<!-- Node2&#45;&gt;Node1 -->
<g id="edge1" class="edge"><title>Node2&#45;&gt;Node1</title>
<path fill="none" stroke="#9a32cd" stroke-dasharray="5,2" d="M297.124,-141.784C301.85,-138.09 306.165,-133.839 309.5,-129 327.21,-103.306 319.599,-91.071 322.5,-60 323.409,-50.2646 327.038,-46.661 322.5,-38 318.372,-30.122 310.786,-24.0856 303.394,-19.7391"/>
<polygon fill="#9a32cd" stroke="#9a32cd" points="295.118,-138.916 288.882,-147.481 299.098,-144.674 295.118,-138.916"/>
<text text-anchor="middle" x="348" y="-92" font-family="Helvetica,sans-Serif" font-size="10.00"> leftCamera</text>
<text text-anchor="middle" x="348" y="-81" font-family="Helvetica,sans-Serif" font-size="10.00">rightCamera</text>
</g>
<!-- Node4 -->
<g id="node4" class="node"><title>Node4</title>
<g id="a_node4"><a xlink:href="../../d7/d88/classAForge_1_1Robotics_1_1Surveyor_1_1SRV1.html" target="_top" xlink:title="Manipulation of Surveyor SRV&#45;1 Blackfin robot/camera.">
<polygon fill="white" stroke="black" points="130.5,-79.5 130.5,-98.5 288.5,-98.5 288.5,-79.5 130.5,-79.5"/>
<text text-anchor="middle" x="209.5" y="-86.5" font-family="Helvetica,sans-Serif" font-size="10.00">AForge.Robotics.Surveyor.SRV1</text>
</a>
</g>
</g>
<!-- Node2&#45;&gt;Node4 -->
<g id="edge4" class="edge"><title>Node2&#45;&gt;Node4</title>
<path fill="none" stroke="#9a32cd" stroke-dasharray="5,2" d="M205.877,-141.628C201.396,-138.053 197.448,-133.874 194.5,-129 188.643,-119.317 195.494,-106.953 201.741,-98.771"/>
<polygon fill="#9a32cd" stroke="#9a32cd" points="204.182,-144.708 214.421,-147.43 208.115,-138.917 204.182,-144.708"/>
<text text-anchor="middle" x="212.5" y="-121" font-family="Helvetica,sans-Serif" font-size="10.00"> camera</text>
</g>
<!-- Node3 -->
<g id="node3" class="node"><title>Node3</title>
<g id="a_node3"><a xlink:href="../../d3/d61/interfaceAForge_1_1Video_1_1IVideoSource.html" target="_top" xlink:title="Video source interface.">
<polygon fill="white" stroke="black" points="219.5,-215.5 219.5,-234.5 293.5,-234.5 293.5,-215.5 219.5,-215.5"/>
<text text-anchor="middle" x="256.5" y="-222.5" font-family="Helvetica,sans-Serif" font-size="10.00">IVideoSource</text>
</a>
</g>
</g>
<!-- Node3&#45;&gt;Node2 -->
<g id="edge2" class="edge"><title>Node3&#45;&gt;Node2</title>
<path fill="none" stroke="midnightblue" d="M256.5,-205.215C256.5,-196.356 256.5,-185.958 256.5,-177.759"/>
<polygon fill="midnightblue" stroke="midnightblue" points="253,-205.332 256.5,-215.332 260,-205.332 253,-205.332"/>
</g>
<!-- Node4&#45;&gt;Node1 -->
<g id="edge6" class="edge"><title>Node4&#45;&gt;Node1</title>
<path fill="none" stroke="#9a32cd" stroke-dasharray="5,2" d="M222.883,-71.2441C231.094,-61.2739 242.014,-48.5523 252.5,-38 258.939,-31.52 266.689,-24.77 272.83,-19.64"/>
<polygon fill="#9a32cd" stroke="#9a32cd" points="220.031,-69.2047 216.444,-79.1738 225.465,-73.6175 220.031,-69.2047"/>
<text text-anchor="middle" x="287.5" y="-52" font-family="Helvetica,sans-Serif" font-size="10.00"> communicator1</text>
<text text-anchor="middle" x="287.5" y="-41" font-family="Helvetica,sans-Serif" font-size="10.00">communicator2</text>
</g>
<!-- Node4&#45;&gt;Node2 -->
<g id="edge3" class="edge"><title>Node4&#45;&gt;Node2</title>
<path fill="none" stroke="#9a32cd" stroke-dasharray="5,2" d="M225.321,-106.293C228.548,-109.996 231.783,-114.016 234.5,-118 240.794,-127.229 246.447,-138.506 250.446,-147.265"/>
<polygon fill="#9a32cd" stroke="#9a32cd" points="227.815,-103.834 218.475,-98.8315 222.657,-108.566 227.815,-103.834"/>
<text text-anchor="middle" x="273" y="-121" font-family="Helvetica,sans-Serif" font-size="10.00"> communicator</text>
</g>
<!-- Node5 -->
<g id="node5" class="node"><title>Node5</title>
<g id="a_node5"><a xlink:href="../../df/dce/classAForge_1_1Robotics_1_1Surveyor_1_1SRV1_1_1CommunicationRequest.html" target="_top" xlink:title=" ">
<polygon fill="white" stroke="black" points="0,-147.5 0,-177.5 149,-177.5 149,-147.5 0,-147.5"/>
<text text-anchor="start" x="8" y="-165.5" font-family="Helvetica,sans-Serif" font-size="10.00">AForge.Robotics.Surveyor.</text>
<text text-anchor="middle" x="74.5" y="-154.5" font-family="Helvetica,sans-Serif" font-size="10.00">SRV1.CommunicationRequest</text>
</a>
</g>
</g>
<!-- Node5&#45;&gt;Node4 -->
<g id="edge5" class="edge"><title>Node5&#45;&gt;Node4</title>
<path fill="none" stroke="#9a32cd" stroke-dasharray="5,2" d="M77.0306,-137.389C78.901,-130.287 82.0903,-123.07 87.5,-118 96.4983,-109.567 121.499,-103.107 146.543,-98.5296"/>
<polygon fill="#9a32cd" stroke="#9a32cd" points="73.5476,-136.972 75.1291,-147.448 80.4257,-138.272 73.5476,-136.972"/>
<text text-anchor="middle" x="137.5" y="-121" font-family="Helvetica,sans-Serif" font-size="10.00"> lastRequestWithReply</text>
</g>
</g>
</svg>
