<?xml version="1.0" encoding="UTF-8" standalone="no"?>
<!DOCTYPE svg PUBLIC "-//W3C//DTD SVG 1.1//EN"
 "http://www.w3.org/Graphics/SVG/1.1/DTD/svg11.dtd">
<!-- Generated by graphviz version 2.38.0 (20140413.2041)
 -->
<!-- Title: NUnit.Framework.DatapointSourceAttribute Pages: 1 -->
<svg width="149pt" height="218pt"
 viewBox="0.00 0.00 149.00 218.00" xmlns="http://www.w3.org/2000/svg" xmlns:xlink="http://www.w3.org/1999/xlink">
<g id="graph0" class="graph" transform="scale(1 1) rotate(0) translate(4 214)">
<title>NUnit.Framework.DatapointSourceAttribute</title>
<polygon fill="white" stroke="none" points="-4,4 -4,-214 145,-214 145,4 -4,4"/>
<!-- Node1 -->
<g id="node1" class="node"><title>Node1</title>
<g id="a_node1"><a xlink:title="Used to mark a field, property or method providing a set of datapoints to be used in executing any th...">
<polygon fill="#bfbfbf" stroke="black" points="2.5,-67.5 2.5,-97.5 138.5,-97.5 138.5,-67.5 2.5,-67.5"/>
<text text-anchor="start" x="10.5" y="-85.5" font-family="Helvetica,sans-Serif" font-size="10.00">NUnit.Framework.Datapoint</text>
<text text-anchor="middle" x="70.5" y="-74.5" font-family="Helvetica,sans-Serif" font-size="10.00">SourceAttribute</text>
</a>
</g>
</g>
<!-- Node4 -->
<g id="node4" class="node"><title>Node4</title>
<g id="a_node4"><a xlink:href="../../d7/dae/classNUnit_1_1Framework_1_1DatapointsAttribute.html" target="_top" xlink:title="Used to mark a field, property or method providing a set of datapoints to be used in executing any th...">
<polygon fill="white" stroke="black" points="0,-0.5 0,-30.5 141,-30.5 141,-0.5 0,-0.5"/>
<text text-anchor="start" x="8" y="-18.5" font-family="Helvetica,sans-Serif" font-size="10.00">NUnit.Framework.Datapoints</text>
<text text-anchor="middle" x="70.5" y="-7.5" font-family="Helvetica,sans-Serif" font-size="10.00">Attribute</text>
</a>
</g>
</g>
<!-- Node1&#45;&gt;Node4 -->
<g id="edge3" class="edge"><title>Node1&#45;&gt;Node4</title>
<path fill="none" stroke="midnightblue" d="M70.5,-57.1081C70.5,-48.1539 70.5,-38.3227 70.5,-30.5765"/>
<polygon fill="midnightblue" stroke="midnightblue" points="67.0001,-57.3959 70.5,-67.396 74.0001,-57.396 67.0001,-57.3959"/>
</g>
<!-- Node2 -->
<g id="node2" class="node"><title>Node2</title>
<g id="a_node2"><a xlink:href="../../d3/dee/classNUnit_1_1Framework_1_1NUnitAttribute.html" target="_top" xlink:title="The abstract base class for all custom attributes defined by NUnit.">
<polygon fill="white" stroke="black" points="32,-134.5 32,-153.5 109,-153.5 109,-134.5 32,-134.5"/>
<text text-anchor="middle" x="70.5" y="-141.5" font-family="Helvetica,sans-Serif" font-size="10.00">NUnitAttribute</text>
</a>
</g>
</g>
<!-- Node2&#45;&gt;Node1 -->
<g id="edge1" class="edge"><title>Node2&#45;&gt;Node1</title>
<path fill="none" stroke="midnightblue" d="M70.5,-124.235C70.5,-115.586 70.5,-105.497 70.5,-97.523"/>
<polygon fill="midnightblue" stroke="midnightblue" points="67.0001,-124.475 70.5,-134.475 74.0001,-124.475 67.0001,-124.475"/>
</g>
<!-- Node3 -->
<g id="node3" class="node"><title>Node3</title>
<g id="a_node3"><a xlink:title=" ">
<polygon fill="white" stroke="#bfbfbf" points="44,-190.5 44,-209.5 97,-209.5 97,-190.5 44,-190.5"/>
<text text-anchor="middle" x="70.5" y="-197.5" font-family="Helvetica,sans-Serif" font-size="10.00">Attribute</text>
</a>
</g>
</g>
<!-- Node3&#45;&gt;Node2 -->
<g id="edge2" class="edge"><title>Node3&#45;&gt;Node2</title>
<path fill="none" stroke="midnightblue" d="M70.5,-179.805C70.5,-170.91 70.5,-160.78 70.5,-153.751"/>
<polygon fill="midnightblue" stroke="midnightblue" points="67.0001,-180.083 70.5,-190.083 74.0001,-180.083 67.0001,-180.083"/>
</g>
</g>
</svg>
