<?xml version="1.0" encoding="UTF-8" standalone="no"?>
<!DOCTYPE svg PUBLIC "-//W3C//DTD SVG 1.1//EN"
 "http://www.w3.org/Graphics/SVG/1.1/DTD/svg11.dtd">
<!-- Generated by graphviz version 2.38.0 (20140413.2041)
 -->
<!-- Title: NUnit.Framework.Constraints.CollectionItemsEqualConstraint Pages: 1 -->
<!--zoomable 259 -->
<svg id="main" version="1.1" xmlns="http://www.w3.org/2000/svg" xmlns:xlink="http://www.w3.org/1999/xlink" xml:space="preserve" onload="init(evt)">
<style type="text/css"><![CDATA[
.edge:hover path { stroke: red; }
.edge:hover polygon { stroke: red; fill: red; }
]]></style>
<script type="text/javascript"><![CDATA[
var edges = document.getElementsByTagName('g');
if (edges && edges.length) {
  for (var i=0;i<edges.length;i++) {
    if (edges[i].id.substr(0,4)=='edge') {
      edges[i].setAttribute('class','edge');
    }
  }
}
]]></script>
        <defs>
                <circle id="rim" cx="0" cy="0" r="7"/>
                <circle id="rim2" cx="0" cy="0" r="3.5"/>
                <g id="zoomPlus">
                        <use xlink:href="#rim" fill="#404040">
                                <set attributeName="fill" to="#808080" begin="zoomplus.mouseover" end="zoomplus.mouseout"/>
                        </use>
                        <path d="M-4,0h8M0,-4v8" fill="none" stroke="white" stroke-width="1.5" pointer-events="none"/>
                </g>
                <g id="zoomMin">
                        <use xlink:href="#rim" fill="#404040">
                                <set attributeName="fill" to="#808080" begin="zoomminus.mouseover" end="zoomminus.mouseout"/>
                        </use>
                        <path d="M-4,0h8" fill="none" stroke="white" stroke-width="1.5" pointer-events="none"/>
                </g>
                <g id="dirArrow">
                        <path fill="none" stroke="white" stroke-width="1.5" d="M0,-3.0v7 M-2.5,-0.5L0,-3.0L2.5,-0.5"/>
                </g>
               <g id="resetDef">
                       <use xlink:href="#rim2" fill="#404040">
                               <set attributeName="fill" to="#808080" begin="reset.mouseover" end="reset.mouseout"/>
                       </use>
               </g>
        </defs>

<script type="text/javascript">
var viewWidth = 1016;
var viewHeight = 259;
var sectionId = 'dynsection-0';
</script>
<script xlink:href="../../svgpan.js"/>
<svg id="graph" class="graph">
<g id="viewport">
<title>NUnit.Framework.Constraints.CollectionItemsEqualConstraint</title>
<polygon fill="white" stroke="none" points="-4,4 -4,-255 1012,-255 1012,4 -4,4"/>
<!-- Node1 -->
<g id="node1" class="node"><title>Node1</title>
<g id="a_node1"><a xlink:title="CollectionItemsEqualConstraint is the abstract base class for all collection constraints that apply s...">
<polygon fill="#bfbfbf" stroke="black" points="469,-98.5 469,-128.5 621,-128.5 621,-98.5 469,-98.5"/>
<text text-anchor="start" x="477" y="-116.5" font-family="Helvetica,sans-Serif" font-size="10.00">NUnit.Framework.Constraints.</text>
<text text-anchor="middle" x="545" y="-105.5" font-family="Helvetica,sans-Serif" font-size="10.00">CollectionItemsEqualConstraint</text>
</a>
</g>
</g>
<!-- Node6 -->
<g id="node6" class="node"><title>Node6</title>
<g id="a_node6"><a xlink:href="../../da/d82/classNUnit_1_1Framework_1_1Constraints_1_1CollectionContainsConstraint.html" target="_top" xlink:title="CollectionContainsConstraint is used to test whether a collection contains an expected object as a me...">
<polygon fill="white" stroke="black" points="657.5,-196.5 657.5,-226.5 804.5,-226.5 804.5,-196.5 657.5,-196.5"/>
<text text-anchor="start" x="665.5" y="-214.5" font-family="Helvetica,sans-Serif" font-size="10.00">NUnit.Framework.Constraints.</text>
<text text-anchor="middle" x="731" y="-203.5" font-family="Helvetica,sans-Serif" font-size="10.00">CollectionContainsConstraint</text>
</a>
</g>
</g>
<!-- Node1&#45;&gt;Node6 -->
<g id="edge5" class="edge"><title>Node1&#45;&gt;Node6</title>
<path fill="none" stroke="midnightblue" d="M573.67,-134.539C595.444,-150.378 627.016,-171.8 657,-186.5 664.458,-190.156 672.585,-193.508 680.62,-196.488"/>
<polygon fill="midnightblue" stroke="midnightblue" points="575.672,-131.667 565.544,-128.556 571.521,-137.303 575.672,-131.667"/>
</g>
<!-- Node9 -->
<g id="node9" class="node"><title>Node9</title>
<g id="a_node9"><a xlink:href="../../df/d10/classNUnit_1_1Framework_1_1Constraints_1_1CollectionEquivalentConstraint.html" target="_top" xlink:title="CollectionEquivalentConstraint is used to determine whether two collections are equivalent.">
<polygon fill="white" stroke="black" points="657,-147.5 657,-177.5 805,-177.5 805,-147.5 657,-147.5"/>
<text text-anchor="start" x="665" y="-165.5" font-family="Helvetica,sans-Serif" font-size="10.00">NUnit.Framework.Constraints.</text>
<text text-anchor="middle" x="731" y="-154.5" font-family="Helvetica,sans-Serif" font-size="10.00">CollectionEquivalentConstraint</text>
</a>
</g>
</g>
<!-- Node1&#45;&gt;Node9 -->
<g id="edge8" class="edge"><title>Node1&#45;&gt;Node9</title>
<path fill="none" stroke="midnightblue" d="M612.176,-131.123C632.306,-136.484 654.232,-142.323 673.65,-147.494"/>
<polygon fill="midnightblue" stroke="midnightblue" points="613.02,-127.726 602.457,-128.535 611.219,-134.49 613.02,-127.726"/>
</g>
<!-- Node10 -->
<g id="node10" class="node"><title>Node10</title>
<g id="a_node10"><a xlink:href="../../dc/d21/classNUnit_1_1Framework_1_1Constraints_1_1CollectionSubsetConstraint.html" target="_top" xlink:title="CollectionSubsetConstraint is used to determine whether one collection is a subset of another">
<polygon fill="white" stroke="black" points="657.5,-98.5 657.5,-128.5 804.5,-128.5 804.5,-98.5 657.5,-98.5"/>
<text text-anchor="start" x="665.5" y="-116.5" font-family="Helvetica,sans-Serif" font-size="10.00">NUnit.Framework.Constraints.</text>
<text text-anchor="middle" x="731" y="-105.5" font-family="Helvetica,sans-Serif" font-size="10.00">CollectionSubsetConstraint</text>
</a>
</g>
</g>
<!-- Node1&#45;&gt;Node10 -->
<g id="edge9" class="edge"><title>Node1&#45;&gt;Node10</title>
<path fill="none" stroke="midnightblue" d="M631.241,-113.5C639.923,-113.5 648.685,-113.5 657.216,-113.5"/>
<polygon fill="midnightblue" stroke="midnightblue" points="631.105,-110 621.105,-113.5 631.105,-117 631.105,-110"/>
</g>
<!-- Node11 -->
<g id="node11" class="node"><title>Node11</title>
<g id="a_node11"><a xlink:href="../../de/da8/classNUnit_1_1Framework_1_1Constraints_1_1CollectionSupersetConstraint.html" target="_top" xlink:title="CollectionSupersetConstraint is used to determine whether one collection is a superset of another">
<polygon fill="white" stroke="black" points="657.5,-49.5 657.5,-79.5 804.5,-79.5 804.5,-49.5 657.5,-49.5"/>
<text text-anchor="start" x="665.5" y="-67.5" font-family="Helvetica,sans-Serif" font-size="10.00">NUnit.Framework.Constraints.</text>
<text text-anchor="middle" x="731" y="-56.5" font-family="Helvetica,sans-Serif" font-size="10.00">CollectionSupersetConstraint</text>
</a>
</g>
</g>
<!-- Node1&#45;&gt;Node11 -->
<g id="edge10" class="edge"><title>Node1&#45;&gt;Node11</title>
<path fill="none" stroke="midnightblue" d="M612.176,-95.8771C632.306,-90.5163 654.232,-84.6775 673.65,-79.5062"/>
<polygon fill="midnightblue" stroke="midnightblue" points="611.219,-92.5098 602.457,-98.4654 613.02,-99.2741 611.219,-92.5098"/>
</g>
<!-- Node12 -->
<g id="node12" class="node"><title>Node12</title>
<g id="a_node12"><a xlink:href="../../d3/d1e/classNUnit_1_1Framework_1_1Constraints_1_1UniqueItemsConstraint.html" target="_top" xlink:title="UniqueItemsConstraint tests whether all the items in a collection are unique.">
<polygon fill="white" stroke="black" points="657.5,-0.5 657.5,-30.5 804.5,-30.5 804.5,-0.5 657.5,-0.5"/>
<text text-anchor="start" x="665.5" y="-18.5" font-family="Helvetica,sans-Serif" font-size="10.00">NUnit.Framework.Constraints.</text>
<text text-anchor="middle" x="731" y="-7.5" font-family="Helvetica,sans-Serif" font-size="10.00">UniqueItemsConstraint</text>
</a>
</g>
</g>
<!-- Node1&#45;&gt;Node12 -->
<g id="edge11" class="edge"><title>Node1&#45;&gt;Node12</title>
<path fill="none" stroke="midnightblue" d="M573.178,-92.3358C594.912,-76.1814 626.663,-54.2599 657,-39.5 663.718,-36.2314 670.99,-33.2444 678.252,-30.5722"/>
<polygon fill="midnightblue" stroke="midnightblue" points="570.963,-89.6228 565.079,-98.4339 575.173,-95.2148 570.963,-89.6228"/>
</g>
<!-- Node2 -->
<g id="node2" class="node"><title>Node2</title>
<g id="a_node2"><a xlink:href="../../d0/dbc/classNUnit_1_1Framework_1_1Constraints_1_1CollectionConstraint.html" target="_top" xlink:title="CollectionConstraint is the abstract base class for constraints that operate on collections.">
<polygon fill="white" stroke="black" points="329,-104 329,-123 433,-123 433,-104 329,-104"/>
<text text-anchor="middle" x="381" y="-111" font-family="Helvetica,sans-Serif" font-size="10.00">CollectionConstraint</text>
</a>
</g>
</g>
<!-- Node2&#45;&gt;Node1 -->
<g id="edge1" class="edge"><title>Node2&#45;&gt;Node1</title>
<path fill="none" stroke="midnightblue" d="M443.264,-113.5C451.61,-113.5 460.253,-113.5 468.81,-113.5"/>
<polygon fill="midnightblue" stroke="midnightblue" points="443.258,-110 433.258,-113.5 443.258,-117 443.258,-110"/>
</g>
<!-- Node3 -->
<g id="node3" class="node"><title>Node3</title>
<g id="a_node3"><a xlink:href="../../d9/da9/classNUnit_1_1Framework_1_1Constraints_1_1Constraint.html" target="_top" xlink:title="The Constraint class is the base of all built&#45;in constraints within NUnit. It provides the operator o...">
<polygon fill="white" stroke="black" points="232,-104 232,-123 293,-123 293,-104 232,-104"/>
<text text-anchor="middle" x="262.5" y="-111" font-family="Helvetica,sans-Serif" font-size="10.00">Constraint</text>
</a>
</g>
</g>
<!-- Node3&#45;&gt;Node2 -->
<g id="edge2" class="edge"><title>Node3&#45;&gt;Node2</title>
<path fill="none" stroke="midnightblue" d="M303.209,-113.5C311.385,-113.5 320.105,-113.5 328.626,-113.5"/>
<polygon fill="midnightblue" stroke="midnightblue" points="303.199,-110 293.199,-113.5 303.199,-117 303.199,-110"/>
</g>
<!-- Node4 -->
<g id="node4" class="node"><title>Node4</title>
<g id="a_node4"><a xlink:href="../../d1/d94/interfaceNUnit_1_1Framework_1_1Constraints_1_1IConstraint.html" target="_top" xlink:title="Interface for all constraints">
<polygon fill="white" stroke="black" points="133,-104 133,-123 196,-123 196,-104 133,-104"/>
<text text-anchor="middle" x="164.5" y="-111" font-family="Helvetica,sans-Serif" font-size="10.00">IConstraint</text>
</a>
</g>
</g>
<!-- Node4&#45;&gt;Node3 -->
<g id="edge3" class="edge"><title>Node4&#45;&gt;Node3</title>
<path fill="none" stroke="midnightblue" d="M206.341,-113.5C214.892,-113.5 223.754,-113.5 231.807,-113.5"/>
<polygon fill="midnightblue" stroke="midnightblue" points="206.139,-110 196.139,-113.5 206.139,-117 206.139,-110"/>
</g>
<!-- Node5 -->
<g id="node5" class="node"><title>Node5</title>
<g id="a_node5"><a xlink:href="../../d7/d29/interfaceNUnit_1_1Framework_1_1Constraints_1_1IResolveConstraint.html" target="_top" xlink:title="The IResolveConstraint interface is implemented by all complete and resolvable constraints and expres...">
<polygon fill="white" stroke="black" points="0,-104 0,-123 97,-123 97,-104 0,-104"/>
<text text-anchor="middle" x="48.5" y="-111" font-family="Helvetica,sans-Serif" font-size="10.00">IResolveConstraint</text>
</a>
</g>
</g>
<!-- Node5&#45;&gt;Node4 -->
<g id="edge4" class="edge"><title>Node5&#45;&gt;Node4</title>
<path fill="none" stroke="midnightblue" d="M107.465,-113.5C116.252,-113.5 125.008,-113.5 132.899,-113.5"/>
<polygon fill="midnightblue" stroke="midnightblue" points="107.186,-110 97.1857,-113.5 107.186,-117 107.186,-110"/>
</g>
<!-- Node7 -->
<g id="node7" class="node"><title>Node7</title>
<g id="a_node7"><a xlink:href="../../d9/d77/classNUnit_1_1Framework_1_1Constraints_1_1DictionaryContainsKeyConstraint.html" target="_top" xlink:title="DictionaryContainsKeyConstraint is used to test whether a dictionary contains an expected object as a...">
<polygon fill="white" stroke="black" points="844.5,-220.5 844.5,-250.5 1004.5,-250.5 1004.5,-220.5 844.5,-220.5"/>
<text text-anchor="start" x="852.5" y="-238.5" font-family="Helvetica,sans-Serif" font-size="10.00">NUnit.Framework.Constraints.</text>
<text text-anchor="middle" x="924.5" y="-227.5" font-family="Helvetica,sans-Serif" font-size="10.00">DictionaryContainsKeyConstraint</text>
</a>
</g>
</g>
<!-- Node6&#45;&gt;Node7 -->
<g id="edge6" class="edge"><title>Node6&#45;&gt;Node7</title>
<path fill="none" stroke="midnightblue" d="M814.84,-221.882C824.679,-223.115 834.703,-224.371 844.487,-225.598"/>
<polygon fill="midnightblue" stroke="midnightblue" points="815.029,-218.378 804.671,-220.608 814.158,-225.324 815.029,-218.378"/>
</g>
<!-- Node8 -->
<g id="node8" class="node"><title>Node8</title>
<g id="a_node8"><a xlink:href="../../d4/d8e/classNUnit_1_1Framework_1_1Constraints_1_1DictionaryContainsValueConstraint.html" target="_top" xlink:title="DictionaryContainsValueConstraint is used to test whether a dictionary contains an expected object as...">
<polygon fill="white" stroke="black" points="841,-171.5 841,-201.5 1008,-201.5 1008,-171.5 841,-171.5"/>
<text text-anchor="start" x="849" y="-189.5" font-family="Helvetica,sans-Serif" font-size="10.00">NUnit.Framework.Constraints.</text>
<text text-anchor="middle" x="924.5" y="-178.5" font-family="Helvetica,sans-Serif" font-size="10.00">DictionaryContainsValueConstraint</text>
</a>
</g>
</g>
<!-- Node6&#45;&gt;Node8 -->
<g id="edge7" class="edge"><title>Node6&#45;&gt;Node8</title>
<path fill="none" stroke="midnightblue" d="M814.771,-200.694C823.447,-199.562 832.268,-198.41 840.941,-197.278"/>
<polygon fill="midnightblue" stroke="midnightblue" points="814.134,-197.248 804.671,-202.013 815.04,-204.189 814.134,-197.248"/>
</g>
</g>
</svg>
        <g id="navigator" transform="translate(0 0)" fill="#404254">
                <rect fill="#f2f5e9" fill-opacity="0.5" stroke="#606060" stroke-width=".5" x="0" y="0" width="60" height="60"/>
                <use id="zoomplus" xlink:href="#zoomPlus" x="17" y="9" onmousedown="handleZoom(evt,'in')"/>
                <use id="zoomminus" xlink:href="#zoomMin" x="42" y="9" onmousedown="handleZoom(evt,'out')"/>
                <use id="reset" xlink:href="#resetDef" x="30" y="36" onmousedown="handleReset()"/>
                <g id="arrowUp" xlink:href="#dirArrow" transform="translate(30 24)" onmousedown="handlePan(0,-1)">
                  <use xlink:href="#rim" fill="#404040">
                        <set attributeName="fill" to="#808080" begin="arrowUp.mouseover" end="arrowUp.mouseout"/>
                  </use>
                  <path fill="none" stroke="white" stroke-width="1.5" d="M0,-3.0v7 M-2.5,-0.5L0,-3.0L2.5,-0.5"/>
                </g>
                <g id="arrowRight" xlink:href="#dirArrow" transform="rotate(90) translate(36 -43)" onmousedown="handlePan(1,0)">
                  <use xlink:href="#rim" fill="#404040">
                        <set attributeName="fill" to="#808080" begin="arrowRight.mouseover" end="arrowRight.mouseout"/>
                  </use>
                  <path fill="none" stroke="white" stroke-width="1.5" d="M0,-3.0v7 M-2.5,-0.5L0,-3.0L2.5,-0.5"/>
                </g>
                <g id="arrowDown" xlink:href="#dirArrow" transform="rotate(180) translate(-30 -48)" onmousedown="handlePan(0,1)">
                  <use xlink:href="#rim" fill="#404040">
                        <set attributeName="fill" to="#808080" begin="arrowDown.mouseover" end="arrowDown.mouseout"/>
                  </use>
                  <path fill="none" stroke="white" stroke-width="1.5" d="M0,-3.0v7 M-2.5,-0.5L0,-3.0L2.5,-0.5"/>
                </g>
                <g id="arrowLeft" xlink:href="#dirArrow" transform="rotate(270) translate(-36 17)" onmousedown="handlePan(-1,0)">
                  <use xlink:href="#rim" fill="#404040">
                        <set attributeName="fill" to="#808080" begin="arrowLeft.mouseover" end="arrowLeft.mouseout"/>
                  </use>
                  <path fill="none" stroke="white" stroke-width="1.5" d="M0,-3.0v7 M-2.5,-0.5L0,-3.0L2.5,-0.5"/>
                </g>
        </g>
        <svg viewBox="0 0 15 15" width="100%" height="30px" preserveAspectRatio="xMaxYMin meet">
         <g id="arrow_out" transform="scale(0.3 0.3)">
          <a xlink:href="classNUnit_1_1Framework_1_1Constraints_1_1CollectionItemsEqualConstraint__inherit__graph_org.svg" target="_base">
           <rect id="button" ry="5" rx="5" y="6" x="6" height="38" width="38"
                fill="#f2f5e9" fill-opacity="0.5" stroke="#606060" stroke-width="1.0"/>
           <path id="arrow"
             d="M 11.500037,31.436501 C 11.940474,20.09759 22.043105,11.32322 32.158766,21.979434 L 37.068811,17.246167 C 37.068811,17.246167 37.088388,32 37.088388,32 L 22.160133,31.978069 C 22.160133,31.978069 26.997745,27.140456 26.997745,27.140456 C 18.528582,18.264221 13.291696,25.230495 11.500037,31.436501 z"
             style="fill:#404040;"/>
          </a>
         </g>
        </svg>
</svg>
