<?xml version="1.0" encoding="UTF-8" standalone="no"?>
<!DOCTYPE svg PUBLIC "-//W3C//DTD SVG 1.1//EN"
 "http://www.w3.org/Graphics/SVG/1.1/DTD/svg11.dtd">
<!-- Generated by graphviz version 2.38.0 (20140413.2041)
 -->
<!-- Title: Meta.Numerics.Matrices.AnyRectangularMatrix Pages: 1 -->
<svg width="750pt" height="284pt"
 viewBox="0.00 0.00 750.00 284.00" xmlns="http://www.w3.org/2000/svg" xmlns:xlink="http://www.w3.org/1999/xlink">
<g id="graph0" class="graph" transform="scale(1 1) rotate(0) translate(4 280)">
<title>Meta.Numerics.Matrices.AnyRectangularMatrix</title>
<polygon fill="white" stroke="none" points="-4,4 -4,-280 746,-280 746,4 -4,4"/>
<!-- Node1 -->
<g id="node1" class="node"><title>Node1</title>
<g id="a_node1"><a xlink:title="Describes the form of all real matrices.">
<polygon fill="#bfbfbf" stroke="black" points="176,-96.5 176,-126.5 319,-126.5 319,-96.5 176,-96.5"/>
<text text-anchor="start" x="184" y="-114.5" font-family="Helvetica,sans-Serif" font-size="10.00">Meta.Numerics.Matrices.Any</text>
<text text-anchor="middle" x="247.5" y="-103.5" font-family="Helvetica,sans-Serif" font-size="10.00">RectangularMatrix</text>
</a>
</g>
</g>
<!-- Node4 -->
<g id="node4" class="node"><title>Node4</title>
<g id="a_node4"><a xlink:href="../../d1/da7/classMeta_1_1Numerics_1_1Matrices_1_1AnySquareMatrix.html" target="_top" xlink:title="Describes the form of all real, square matrices.">
<polygon fill="white" stroke="black" points="372.5,-147.5 372.5,-177.5 515.5,-177.5 515.5,-147.5 372.5,-147.5"/>
<text text-anchor="start" x="380.5" y="-165.5" font-family="Helvetica,sans-Serif" font-size="10.00">Meta.Numerics.Matrices.Any</text>
<text text-anchor="middle" x="444" y="-154.5" font-family="Helvetica,sans-Serif" font-size="10.00">SquareMatrix</text>
</a>
</g>
</g>
<!-- Node1&#45;&gt;Node4 -->
<g id="edge3" class="edge"><title>Node1&#45;&gt;Node4</title>
<path fill="none" stroke="midnightblue" d="M315.752,-129.134C338.563,-135.115 363.814,-141.737 385.769,-147.494"/>
<polygon fill="midnightblue" stroke="midnightblue" points="316.365,-125.677 305.804,-126.526 314.59,-132.448 316.365,-125.677"/>
</g>
<!-- Node9 -->
<g id="node9" class="node"><title>Node9</title>
<g id="a_node9"><a xlink:href="../../d2/dee/classMeta_1_1Numerics_1_1Matrices_1_1RectangularMatrix.html" target="_top" xlink:title="A rectangular matrix of real numbers.">
<polygon fill="white" stroke="black" points="355,-96.5 355,-126.5 533,-126.5 533,-96.5 355,-96.5"/>
<text text-anchor="start" x="363" y="-114.5" font-family="Helvetica,sans-Serif" font-size="10.00">Meta.Numerics.Matrices.Rectangular</text>
<text text-anchor="middle" x="444" y="-103.5" font-family="Helvetica,sans-Serif" font-size="10.00">Matrix</text>
</a>
</g>
</g>
<!-- Node1&#45;&gt;Node9 -->
<g id="edge8" class="edge"><title>Node1&#45;&gt;Node9</title>
<path fill="none" stroke="midnightblue" d="M329.371,-111.5C337.734,-111.5 346.263,-111.5 354.702,-111.5"/>
<polygon fill="midnightblue" stroke="midnightblue" points="329.269,-108 319.269,-111.5 329.269,-115 329.269,-108"/>
</g>
<!-- Node10 -->
<g id="node10" class="node"><title>Node10</title>
<g id="a_node10"><a xlink:href="../../d5/dcb/classMeta_1_1Numerics_1_1Matrices_1_1VectorBase.html" target="_top" xlink:title="Implements functionality shared between row and column vectors.">
<polygon fill="white" stroke="black" points="355.5,-55 355.5,-74 532.5,-74 532.5,-55 355.5,-55"/>
<text text-anchor="middle" x="444" y="-62" font-family="Helvetica,sans-Serif" font-size="10.00">Meta.Numerics.Matrices.VectorBase</text>
</a>
</g>
</g>
<!-- Node1&#45;&gt;Node10 -->
<g id="edge9" class="edge"><title>Node1&#45;&gt;Node10</title>
<path fill="none" stroke="midnightblue" d="M320.375,-94.1318C348.485,-87.3392 379.636,-79.8117 403.506,-74.0434"/>
<polygon fill="midnightblue" stroke="midnightblue" points="319.474,-90.7487 310.576,-96.4997 321.118,-97.5528 319.474,-90.7487"/>
</g>
<!-- Node2 -->
<g id="node2" class="node"><title>Node2</title>
<g id="a_node2"><a xlink:href="../../df/de5/classMeta_1_1Numerics_1_1Matrices_1_1AnyMatrix.html" target="_top" xlink:title=" ">
<polygon fill="white" stroke="black" points="16.5,-124 16.5,-143 123.5,-143 123.5,-124 16.5,-124"/>
<text text-anchor="middle" x="70" y="-131" font-family="Helvetica,sans-Serif" font-size="10.00">AnyMatrix&lt; double &gt;</text>
</a>
</g>
</g>
<!-- Node2&#45;&gt;Node1 -->
<g id="edge1" class="edge"><title>Node2&#45;&gt;Node1</title>
<path fill="none" stroke="midnightblue" d="M133.84,-125.623C147.41,-123.921 161.847,-122.112 175.698,-120.375"/>
<polygon fill="midnightblue" stroke="midnightblue" points="133.143,-122.183 123.656,-126.899 134.013,-129.128 133.143,-122.183"/>
</g>
<!-- Node3 -->
<g id="node3" class="node"><title>Node3</title>
<g id="a_node3"><a xlink:title=" ">
<polygon fill="white" stroke="#bfbfbf" points="0,-74.5 0,-104.5 140,-104.5 140,-74.5 0,-74.5"/>
<text text-anchor="start" x="8" y="-92.5" font-family="Helvetica,sans-Serif" font-size="10.00">IEquatable&lt; AnyRectangular</text>
<text text-anchor="middle" x="70" y="-81.5" font-family="Helvetica,sans-Serif" font-size="10.00">Matrix &gt;</text>
</a>
</g>
</g>
<!-- Node3&#45;&gt;Node1 -->
<g id="edge2" class="edge"><title>Node3&#45;&gt;Node1</title>
<path fill="none" stroke="midnightblue" d="M150.075,-99.4125C158.623,-100.484 167.282,-101.57 175.723,-102.628"/>
<polygon fill="midnightblue" stroke="midnightblue" points="150.468,-95.9345 140.11,-98.1634 149.597,-102.88 150.468,-95.9345"/>
</g>
<!-- Node5 -->
<g id="node5" class="node"><title>Node5</title>
<g id="a_node5"><a xlink:href="../../d5/d2a/classMeta_1_1Numerics_1_1Matrices_1_1SparseSquareMatrix.html" target="_top" xlink:title="Represents a sparse, square matrix.">
<polygon fill="white" stroke="black" points="577,-245.5 577,-275.5 734,-275.5 734,-245.5 577,-245.5"/>
<text text-anchor="start" x="585" y="-263.5" font-family="Helvetica,sans-Serif" font-size="10.00">Meta.Numerics.Matrices.Sparse</text>
<text text-anchor="middle" x="655.5" y="-252.5" font-family="Helvetica,sans-Serif" font-size="10.00">SquareMatrix</text>
</a>
</g>
</g>
<!-- Node4&#45;&gt;Node5 -->
<g id="edge4" class="edge"><title>Node4&#45;&gt;Node5</title>
<path fill="none" stroke="midnightblue" d="M474.905,-183.425C499.304,-199.725 535.152,-221.955 569,-236.5 576.649,-239.787 584.876,-242.755 593.095,-245.393"/>
<polygon fill="midnightblue" stroke="midnightblue" points="476.704,-180.416 466.459,-177.713 472.782,-186.214 476.704,-180.416"/>
</g>
<!-- Node6 -->
<g id="node6" class="node"><title>Node6</title>
<g id="a_node6"><a xlink:href="../../d2/d0f/classMeta_1_1Numerics_1_1Matrices_1_1SquareMatrix.html" target="_top" xlink:title="Represents a square matrix.">
<polygon fill="white" stroke="black" points="577,-196.5 577,-226.5 734,-226.5 734,-196.5 577,-196.5"/>
<text text-anchor="start" x="585" y="-214.5" font-family="Helvetica,sans-Serif" font-size="10.00">Meta.Numerics.Matrices.Square</text>
<text text-anchor="middle" x="655.5" y="-203.5" font-family="Helvetica,sans-Serif" font-size="10.00">Matrix</text>
</a>
</g>
</g>
<!-- Node4&#45;&gt;Node6 -->
<g id="edge5" class="edge"><title>Node4&#45;&gt;Node6</title>
<path fill="none" stroke="midnightblue" d="M519.099,-179.831C542.358,-185.271 567.829,-191.229 590.341,-196.494"/>
<polygon fill="midnightblue" stroke="midnightblue" points="519.815,-176.404 509.281,-177.535 518.221,-183.22 519.815,-176.404"/>
</g>
<!-- Node7 -->
<g id="node7" class="node"><title>Node7</title>
<g id="a_node7"><a xlink:href="../../d3/d15/classMeta_1_1Numerics_1_1Matrices_1_1SymmetricMatrix.html" target="_top" xlink:title="Represents a symmetric matrix.">
<polygon fill="white" stroke="black" points="569,-147.5 569,-177.5 742,-177.5 742,-147.5 569,-147.5"/>
<text text-anchor="start" x="577" y="-165.5" font-family="Helvetica,sans-Serif" font-size="10.00">Meta.Numerics.Matrices.Symmetric</text>
<text text-anchor="middle" x="655.5" y="-154.5" font-family="Helvetica,sans-Serif" font-size="10.00">Matrix</text>
</a>
</g>
</g>
<!-- Node4&#45;&gt;Node7 -->
<g id="edge6" class="edge"><title>Node4&#45;&gt;Node7</title>
<path fill="none" stroke="midnightblue" d="M525.798,-162.5C539.926,-162.5 554.668,-162.5 568.92,-162.5"/>
<polygon fill="midnightblue" stroke="midnightblue" points="525.635,-159 515.635,-162.5 525.635,-166 525.635,-159"/>
</g>
<!-- Node8 -->
<g id="node8" class="node"><title>Node8</title>
<g id="a_node8"><a xlink:href="../../d9/d78/classMeta_1_1Numerics_1_1Matrices_1_1TridiagonalMatrix.html" target="_top" xlink:title="Represents a tridiagonal matrix.">
<polygon fill="white" stroke="black" points="569,-98.5 569,-128.5 742,-128.5 742,-98.5 569,-98.5"/>
<text text-anchor="start" x="577" y="-116.5" font-family="Helvetica,sans-Serif" font-size="10.00">Meta.Numerics.Matrices.Tridiagonal</text>
<text text-anchor="middle" x="655.5" y="-105.5" font-family="Helvetica,sans-Serif" font-size="10.00">Matrix</text>
</a>
</g>
</g>
<!-- Node4&#45;&gt;Node8 -->
<g id="edge7" class="edge"><title>Node4&#45;&gt;Node8</title>
<path fill="none" stroke="midnightblue" d="M519.099,-145.169C542.358,-139.729 567.829,-133.771 590.341,-128.506"/>
<polygon fill="midnightblue" stroke="midnightblue" points="518.221,-141.78 509.281,-147.465 519.815,-148.596 518.221,-141.78"/>
</g>
<!-- Node11 -->
<g id="node11" class="node"><title>Node11</title>
<g id="a_node11"><a xlink:href="../../d3/d34/classMeta_1_1Numerics_1_1Matrices_1_1ColumnVector.html" target="_top" xlink:title="A column vector of real numbers.">
<polygon fill="white" stroke="black" points="576,-49.5 576,-79.5 735,-79.5 735,-49.5 576,-49.5"/>
<text text-anchor="start" x="584" y="-67.5" font-family="Helvetica,sans-Serif" font-size="10.00">Meta.Numerics.Matrices.Column</text>
<text text-anchor="middle" x="655.5" y="-56.5" font-family="Helvetica,sans-Serif" font-size="10.00">Vector</text>
</a>
</g>
</g>
<!-- Node10&#45;&gt;Node11 -->
<g id="edge10" class="edge"><title>Node10&#45;&gt;Node11</title>
<path fill="none" stroke="midnightblue" d="M542.783,-64.5C553.882,-64.5 565.086,-64.5 575.894,-64.5"/>
<polygon fill="midnightblue" stroke="midnightblue" points="542.633,-61.0001 532.633,-64.5 542.633,-68.0001 542.633,-61.0001"/>
</g>
<!-- Node12 -->
<g id="node12" class="node"><title>Node12</title>
<g id="a_node12"><a xlink:href="../../df/d01/classMeta_1_1Numerics_1_1Matrices_1_1RowVector.html" target="_top" xlink:title="A row vector of real numbers.">
<polygon fill="white" stroke="black" points="583,-0.5 583,-30.5 728,-30.5 728,-0.5 583,-0.5"/>
<text text-anchor="start" x="591" y="-18.5" font-family="Helvetica,sans-Serif" font-size="10.00">Meta.Numerics.Matrices.Row</text>
<text text-anchor="middle" x="655.5" y="-7.5" font-family="Helvetica,sans-Serif" font-size="10.00">Vector</text>
</a>
</g>
</g>
<!-- Node10&#45;&gt;Node12 -->
<g id="edge11" class="edge"><title>Node10&#45;&gt;Node12</title>
<path fill="none" stroke="midnightblue" d="M495.993,-52.5732C524.362,-45.938 559.947,-37.6149 590.209,-30.537"/>
<polygon fill="midnightblue" stroke="midnightblue" points="494.831,-49.2504 485.891,-54.936 496.425,-56.0665 494.831,-49.2504"/>
</g>
</g>
</svg>
