<?xml version="1.0" encoding="UTF-8" standalone="no"?>
<!DOCTYPE svg PUBLIC "-//W3C//DTD SVG 1.1//EN"
 "http://www.w3.org/Graphics/SVG/1.1/DTD/svg11.dtd">
<!-- Generated by graphviz version 2.38.0 (20140413.2041)
 -->
<!-- Title: NUnit.Framework.Constraints.StringConstraint Pages: 1 -->
<svg width="850pt" height="284pt"
 viewBox="0.00 0.00 850.00 284.00" xmlns="http://www.w3.org/2000/svg" xmlns:xlink="http://www.w3.org/1999/xlink">
<g id="graph0" class="graph" transform="scale(1 1) rotate(0) translate(4 280)">
<title>NUnit.Framework.Constraints.StringConstraint</title>
<polygon fill="white" stroke="none" points="-4,4 -4,-280 846,-280 846,4 -4,4"/>
<!-- Node1 -->
<g id="node1" class="node"><title>Node1</title>
<g id="a_node1"><a xlink:title="StringConstraint is the abstract base for constraints that operate on strings. It supports the Ignore...">
<polygon fill="#bfbfbf" stroke="black" points="329,-122.5 329,-152.5 476,-152.5 476,-122.5 329,-122.5"/>
<text text-anchor="start" x="337" y="-140.5" font-family="Helvetica,sans-Serif" font-size="10.00">NUnit.Framework.Constraints.</text>
<text text-anchor="middle" x="402.5" y="-129.5" font-family="Helvetica,sans-Serif" font-size="10.00">StringConstraint</text>
</a>
</g>
</g>
<!-- Node5 -->
<g id="node5" class="node"><title>Node5</title>
<g id="a_node5"><a xlink:href="../../d6/de8/classNUnit_1_1Framework_1_1Constraints_1_1EmptyStringConstraint.html" target="_top" xlink:title="EmptyStringConstraint tests whether a string is empty.">
<polygon fill="white" stroke="black" points="512,-245.5 512,-275.5 659,-275.5 659,-245.5 512,-245.5"/>
<text text-anchor="start" x="520" y="-263.5" font-family="Helvetica,sans-Serif" font-size="10.00">NUnit.Framework.Constraints.</text>
<text text-anchor="middle" x="585.5" y="-252.5" font-family="Helvetica,sans-Serif" font-size="10.00">EmptyStringConstraint</text>
</a>
</g>
</g>
<!-- Node1&#45;&gt;Node5 -->
<g id="edge4" class="edge"><title>Node1&#45;&gt;Node5</title>
<path fill="none" stroke="midnightblue" d="M423.196,-160.369C443.453,-182.61 476.918,-215.961 512,-236.5 517.721,-239.849 523.973,-242.806 530.33,-245.395"/>
<polygon fill="midnightblue" stroke="midnightblue" points="425.629,-157.84 416.352,-152.722 420.413,-162.508 425.629,-157.84"/>
</g>
<!-- Node6 -->
<g id="node6" class="node"><title>Node6</title>
<g id="a_node6"><a xlink:href="../../dc/d45/classNUnit_1_1Framework_1_1Constraints_1_1EndsWithConstraint.html" target="_top" xlink:title="EndsWithConstraint can test whether a string ends with an expected substring.">
<polygon fill="white" stroke="black" points="512,-196.5 512,-226.5 659,-226.5 659,-196.5 512,-196.5"/>
<text text-anchor="start" x="520" y="-214.5" font-family="Helvetica,sans-Serif" font-size="10.00">NUnit.Framework.Constraints.</text>
<text text-anchor="middle" x="585.5" y="-203.5" font-family="Helvetica,sans-Serif" font-size="10.00">EndsWithConstraint</text>
</a>
</g>
</g>
<!-- Node1&#45;&gt;Node6 -->
<g id="edge5" class="edge"><title>Node1&#45;&gt;Node6</title>
<path fill="none" stroke="midnightblue" d="M443.229,-157.108C463.562,-166.81 488.848,-178.367 512,-187.5 519.77,-190.565 528.107,-193.575 536.26,-196.372"/>
<polygon fill="midnightblue" stroke="midnightblue" points="444.498,-153.835 433.969,-152.656 441.464,-160.144 444.498,-153.835"/>
</g>
<!-- Node7 -->
<g id="node7" class="node"><title>Node7</title>
<g id="a_node7"><a xlink:href="../../dc/d67/classNUnit_1_1Framework_1_1Constraints_1_1PathConstraint.html" target="_top" xlink:title="PathConstraint serves as the abstract base of constraints that operate on paths and provides several ...">
<polygon fill="white" stroke="black" points="512,-147.5 512,-177.5 659,-177.5 659,-147.5 512,-147.5"/>
<text text-anchor="start" x="520" y="-165.5" font-family="Helvetica,sans-Serif" font-size="10.00">NUnit.Framework.Constraints.</text>
<text text-anchor="middle" x="585.5" y="-154.5" font-family="Helvetica,sans-Serif" font-size="10.00">PathConstraint</text>
</a>
</g>
</g>
<!-- Node1&#45;&gt;Node7 -->
<g id="edge6" class="edge"><title>Node1&#45;&gt;Node7</title>
<path fill="none" stroke="midnightblue" d="M486.116,-148.911C494.722,-150.1 503.424,-151.302 511.907,-152.473"/>
<polygon fill="midnightblue" stroke="midnightblue" points="486.462,-145.426 476.077,-147.524 485.504,-152.36 486.462,-145.426"/>
</g>
<!-- Node11 -->
<g id="node11" class="node"><title>Node11</title>
<g id="a_node11"><a xlink:href="../../da/d0b/classNUnit_1_1Framework_1_1Constraints_1_1RegexConstraint.html" target="_top" xlink:title="RegexConstraint can test whether a string matches the pattern provided.">
<polygon fill="white" stroke="black" points="512,-98.5 512,-128.5 659,-128.5 659,-98.5 512,-98.5"/>
<text text-anchor="start" x="520" y="-116.5" font-family="Helvetica,sans-Serif" font-size="10.00">NUnit.Framework.Constraints.</text>
<text text-anchor="middle" x="585.5" y="-105.5" font-family="Helvetica,sans-Serif" font-size="10.00">RegexConstraint</text>
</a>
</g>
</g>
<!-- Node1&#45;&gt;Node11 -->
<g id="edge10" class="edge"><title>Node1&#45;&gt;Node11</title>
<path fill="none" stroke="midnightblue" d="M486.116,-126.545C494.722,-125.404 503.424,-124.25 511.907,-123.126"/>
<polygon fill="midnightblue" stroke="midnightblue" points="485.53,-123.092 476.077,-127.877 486.45,-130.032 485.53,-123.092"/>
</g>
<!-- Node12 -->
<g id="node12" class="node"><title>Node12</title>
<g id="a_node12"><a xlink:href="../../d7/d26/classNUnit_1_1Framework_1_1Constraints_1_1StartsWithConstraint.html" target="_top" xlink:title="StartsWithConstraint can test whether a string starts with an expected substring.">
<polygon fill="white" stroke="black" points="512,-49.5 512,-79.5 659,-79.5 659,-49.5 512,-49.5"/>
<text text-anchor="start" x="520" y="-67.5" font-family="Helvetica,sans-Serif" font-size="10.00">NUnit.Framework.Constraints.</text>
<text text-anchor="middle" x="585.5" y="-56.5" font-family="Helvetica,sans-Serif" font-size="10.00">StartsWithConstraint</text>
</a>
</g>
</g>
<!-- Node1&#45;&gt;Node12 -->
<g id="edge11" class="edge"><title>Node1&#45;&gt;Node12</title>
<path fill="none" stroke="midnightblue" d="M443.707,-118.132C463.974,-108.68 489.06,-97.4486 512,-88.5 519.905,-85.4162 528.389,-82.3743 536.668,-79.5461"/>
<polygon fill="midnightblue" stroke="midnightblue" points="442.031,-115.052 434.468,-122.472 445.008,-121.388 442.031,-115.052"/>
</g>
<!-- Node13 -->
<g id="node13" class="node"><title>Node13</title>
<g id="a_node13"><a xlink:href="../../d2/dc6/classNUnit_1_1Framework_1_1Constraints_1_1SubstringConstraint.html" target="_top" xlink:title="SubstringConstraint can test whether a string contains the expected substring.">
<polygon fill="white" stroke="black" points="512,-0.5 512,-30.5 659,-30.5 659,-0.5 512,-0.5"/>
<text text-anchor="start" x="520" y="-18.5" font-family="Helvetica,sans-Serif" font-size="10.00">NUnit.Framework.Constraints.</text>
<text text-anchor="middle" x="585.5" y="-7.5" font-family="Helvetica,sans-Serif" font-size="10.00">SubstringConstraint</text>
</a>
</g>
</g>
<!-- Node1&#45;&gt;Node13 -->
<g id="edge12" class="edge"><title>Node1&#45;&gt;Node13</title>
<path fill="none" stroke="midnightblue" d="M423.243,-114.872C443.535,-92.8647 477.027,-59.8569 512,-39.5 517.729,-36.1651 523.986,-33.2173 530.346,-30.6327"/>
<polygon fill="midnightblue" stroke="midnightblue" points="420.507,-112.679 416.385,-122.439 425.694,-117.38 420.507,-112.679"/>
</g>
<!-- Node2 -->
<g id="node2" class="node"><title>Node2</title>
<g id="a_node2"><a xlink:href="../../d9/da9/classNUnit_1_1Framework_1_1Constraints_1_1Constraint.html" target="_top" xlink:title="The Constraint class is the base of all built&#45;in constraints within NUnit. It provides the operator o...">
<polygon fill="white" stroke="black" points="232,-128 232,-147 293,-147 293,-128 232,-128"/>
<text text-anchor="middle" x="262.5" y="-135" font-family="Helvetica,sans-Serif" font-size="10.00">Constraint</text>
</a>
</g>
</g>
<!-- Node2&#45;&gt;Node1 -->
<g id="edge1" class="edge"><title>Node2&#45;&gt;Node1</title>
<path fill="none" stroke="midnightblue" d="M303.277,-137.5C311.338,-137.5 320.052,-137.5 328.845,-137.5"/>
<polygon fill="midnightblue" stroke="midnightblue" points="303.104,-134 293.104,-137.5 303.104,-141 303.104,-134"/>
</g>
<!-- Node3 -->
<g id="node3" class="node"><title>Node3</title>
<g id="a_node3"><a xlink:href="../../d1/d94/interfaceNUnit_1_1Framework_1_1Constraints_1_1IConstraint.html" target="_top" xlink:title="Interface for all constraints">
<polygon fill="white" stroke="black" points="133,-128 133,-147 196,-147 196,-128 133,-128"/>
<text text-anchor="middle" x="164.5" y="-135" font-family="Helvetica,sans-Serif" font-size="10.00">IConstraint</text>
</a>
</g>
</g>
<!-- Node3&#45;&gt;Node2 -->
<g id="edge2" class="edge"><title>Node3&#45;&gt;Node2</title>
<path fill="none" stroke="midnightblue" d="M206.341,-137.5C214.892,-137.5 223.754,-137.5 231.807,-137.5"/>
<polygon fill="midnightblue" stroke="midnightblue" points="206.139,-134 196.139,-137.5 206.139,-141 206.139,-134"/>
</g>
<!-- Node4 -->
<g id="node4" class="node"><title>Node4</title>
<g id="a_node4"><a xlink:href="../../d7/d29/interfaceNUnit_1_1Framework_1_1Constraints_1_1IResolveConstraint.html" target="_top" xlink:title="The IResolveConstraint interface is implemented by all complete and resolvable constraints and expres...">
<polygon fill="white" stroke="black" points="0,-128 0,-147 97,-147 97,-128 0,-128"/>
<text text-anchor="middle" x="48.5" y="-135" font-family="Helvetica,sans-Serif" font-size="10.00">IResolveConstraint</text>
</a>
</g>
</g>
<!-- Node4&#45;&gt;Node3 -->
<g id="edge3" class="edge"><title>Node4&#45;&gt;Node3</title>
<path fill="none" stroke="midnightblue" d="M107.465,-137.5C116.252,-137.5 125.008,-137.5 132.899,-137.5"/>
<polygon fill="midnightblue" stroke="midnightblue" points="107.186,-134 97.1857,-137.5 107.186,-141 107.186,-134"/>
</g>
<!-- Node8 -->
<g id="node8" class="node"><title>Node8</title>
<g id="a_node8"><a xlink:href="../../d0/d6e/classNUnit_1_1Framework_1_1Constraints_1_1SamePathConstraint.html" target="_top" xlink:title="Summary description for SamePathConstraint.">
<polygon fill="white" stroke="black" points="695,-196.5 695,-226.5 842,-226.5 842,-196.5 695,-196.5"/>
<text text-anchor="start" x="703" y="-214.5" font-family="Helvetica,sans-Serif" font-size="10.00">NUnit.Framework.Constraints.</text>
<text text-anchor="middle" x="768.5" y="-203.5" font-family="Helvetica,sans-Serif" font-size="10.00">SamePathConstraint</text>
</a>
</g>
</g>
<!-- Node7&#45;&gt;Node8 -->
<g id="edge7" class="edge"><title>Node7&#45;&gt;Node8</title>
<path fill="none" stroke="midnightblue" d="M652.061,-180.248C671.677,-185.559 692.99,-191.329 711.901,-196.448"/>
<polygon fill="midnightblue" stroke="midnightblue" points="652.85,-176.836 642.283,-177.601 651.021,-183.593 652.85,-176.836"/>
</g>
<!-- Node9 -->
<g id="node9" class="node"><title>Node9</title>
<g id="a_node9"><a xlink:href="../../dc/ddd/classNUnit_1_1Framework_1_1Constraints_1_1SamePathOrUnderConstraint.html" target="_top" xlink:title="SamePathOrUnderConstraint tests that one path is under another">
<polygon fill="white" stroke="black" points="695,-147.5 695,-177.5 842,-177.5 842,-147.5 695,-147.5"/>
<text text-anchor="start" x="703" y="-165.5" font-family="Helvetica,sans-Serif" font-size="10.00">NUnit.Framework.Constraints.</text>
<text text-anchor="middle" x="768.5" y="-154.5" font-family="Helvetica,sans-Serif" font-size="10.00">SamePathOrUnderConstraint</text>
</a>
</g>
</g>
<!-- Node7&#45;&gt;Node9 -->
<g id="edge8" class="edge"><title>Node7&#45;&gt;Node9</title>
<path fill="none" stroke="midnightblue" d="M669.116,-162.5C677.722,-162.5 686.424,-162.5 694.907,-162.5"/>
<polygon fill="midnightblue" stroke="midnightblue" points="669.077,-159 659.077,-162.5 669.077,-166 669.077,-159"/>
</g>
<!-- Node10 -->
<g id="node10" class="node"><title>Node10</title>
<g id="a_node10"><a xlink:href="../../d9/d7f/classNUnit_1_1Framework_1_1Constraints_1_1SubPathConstraint.html" target="_top" xlink:title="SubPathConstraint tests that the actual path is under the expected path">
<polygon fill="white" stroke="black" points="695,-98.5 695,-128.5 842,-128.5 842,-98.5 695,-98.5"/>
<text text-anchor="start" x="703" y="-116.5" font-family="Helvetica,sans-Serif" font-size="10.00">NUnit.Framework.Constraints.</text>
<text text-anchor="middle" x="768.5" y="-105.5" font-family="Helvetica,sans-Serif" font-size="10.00">SubPathConstraint</text>
</a>
</g>
</g>
<!-- Node7&#45;&gt;Node10 -->
<g id="edge9" class="edge"><title>Node7&#45;&gt;Node10</title>
<path fill="none" stroke="midnightblue" d="M652.061,-144.752C671.677,-139.441 692.99,-133.671 711.901,-128.552"/>
<polygon fill="midnightblue" stroke="midnightblue" points="651.021,-141.407 642.283,-147.399 652.85,-148.164 651.021,-141.407"/>
</g>
</g>
</svg>
