<?xml version="1.0" encoding="UTF-8" standalone="no"?>
<!DOCTYPE svg PUBLIC "-//W3C//DTD SVG 1.1//EN"
 "http://www.w3.org/Graphics/SVG/1.1/DTD/svg11.dtd">
<!-- Generated by graphviz version 2.38.0 (20140413.2041)
 -->
<!-- Title: alglib.testalglibbasicsunit.poolrec2 Pages: 1 -->
<svg width="271pt" height="162pt"
 viewBox="0.00 0.00 271.00 162.00" xmlns="http://www.w3.org/2000/svg" xmlns:xlink="http://www.w3.org/1999/xlink">
<g id="graph0" class="graph" transform="scale(1 1) rotate(0) translate(4 158)">
<title>alglib.testalglibbasicsunit.poolrec2</title>
<polygon fill="white" stroke="none" points="-4,4 -4,-158 267,-158 267,4 -4,4"/>
<!-- Node1 -->
<g id="node1" class="node"><title>Node1</title>
<g id="a_node1"><a xlink:title=" ">
<polygon fill="#bfbfbf" stroke="black" points="41,-0.5 41,-19.5 206,-19.5 206,-0.5 41,-0.5"/>
<text text-anchor="middle" x="123.5" y="-7.5" font-family="Helvetica,sans-Serif" font-size="10.00">alglib.testalglibbasicsunit.poolrec2</text>
</a>
</g>
</g>
<!-- Node2 -->
<g id="node2" class="node"><title>Node2</title>
<g id="a_node2"><a xlink:href="../../d0/d58/classalglib_1_1apobject.html" target="_top" xlink:title=" ">
<polygon fill="white" stroke="black" points="0,-134.5 0,-153.5 53,-153.5 53,-134.5 0,-134.5"/>
<text text-anchor="middle" x="26.5" y="-141.5" font-family="Helvetica,sans-Serif" font-size="10.00">apobject</text>
</a>
</g>
</g>
<!-- Node2&#45;&gt;Node1 -->
<g id="edge1" class="edge"><title>Node2&#45;&gt;Node1</title>
<path fill="none" stroke="midnightblue" d="M23.1753,-124.314C21.2756,-107.992 21.0315,-84.2735 31.5,-67 46.0369,-43.0135 75.124,-27.9101 96.7195,-19.515"/>
<polygon fill="midnightblue" stroke="midnightblue" points="19.7209,-124.88 24.6437,-134.262 26.6459,-123.858 19.7209,-124.88"/>
</g>
<!-- Node3 -->
<g id="node3" class="node"><title>Node3</title>
<g id="a_node3"><a xlink:href="../../df/dbf/classalglib_1_1testalglibbasicsunit_1_1poolrec1.html" target="_top" xlink:title=" ">
<polygon fill="white" stroke="black" points="41,-67.5 41,-86.5 206,-86.5 206,-67.5 41,-67.5"/>
<text text-anchor="middle" x="123.5" y="-74.5" font-family="Helvetica,sans-Serif" font-size="10.00">alglib.testalglibbasicsunit.poolrec1</text>
</a>
</g>
</g>
<!-- Node2&#45;&gt;Node3 -->
<g id="edge3" class="edge"><title>Node2&#45;&gt;Node3</title>
<path fill="none" stroke="midnightblue" d="M47.9974,-128.595C67.1864,-115.736 94.6529,-97.3306 110.625,-86.6273"/>
<polygon fill="midnightblue" stroke="midnightblue" points="45.9408,-125.759 39.5819,-134.234 49.8375,-131.575 45.9408,-125.759"/>
</g>
<!-- Node3&#45;&gt;Node1 -->
<g id="edge2" class="edge"><title>Node3&#45;&gt;Node1</title>
<path fill="none" stroke="#9a32cd" stroke-dasharray="5,2" d="M123.5,-57.037C123.5,-44.6703 123.5,-29.1198 123.5,-19.6273"/>
<polygon fill="#9a32cd" stroke="#9a32cd" points="120,-57.2338 123.5,-67.2338 127,-57.2338 120,-57.2338"/>
<text text-anchor="middle" x="137.5" y="-41" font-family="Helvetica,sans-Serif" font-size="10.00"> recval</text>
</g>
<!-- Node4 -->
<g id="node4" class="node"><title>Node4</title>
<g id="a_node4"><a xlink:href="../../d2/d10/structalglib_1_1complex.html" target="_top" xlink:title=" ">
<polygon fill="white" stroke="black" points="84,-134.5 84,-153.5 163,-153.5 163,-134.5 84,-134.5"/>
<text text-anchor="middle" x="123.5" y="-141.5" font-family="Helvetica,sans-Serif" font-size="10.00">alglib.complex</text>
</a>
</g>
</g>
<!-- Node4&#45;&gt;Node3 -->
<g id="edge4" class="edge"><title>Node4&#45;&gt;Node3</title>
<path fill="none" stroke="#9a32cd" stroke-dasharray="5,2" d="M123.5,-124.037C123.5,-111.67 123.5,-96.1198 123.5,-86.6273"/>
<polygon fill="#9a32cd" stroke="#9a32cd" points="120,-124.234 123.5,-134.234 127,-124.234 120,-124.234"/>
<text text-anchor="middle" x="133.5" y="-108" font-family="Helvetica,sans-Serif" font-size="10.00"> cval</text>
</g>
<!-- Node5 -->
<g id="node5" class="node"><title>Node5</title>
<g id="a_node5"><a xlink:href="../../d7/d81/classalglib.html" target="_top" xlink:title=" ">
<polygon fill="white" stroke="black" points="224,-67.5 224,-86.5 263,-86.5 263,-67.5 224,-67.5"/>
<text text-anchor="middle" x="243.5" y="-74.5" font-family="Helvetica,sans-Serif" font-size="10.00">alglib</text>
</a>
</g>
</g>
<!-- Node5&#45;&gt;Node1 -->
<g id="edge5" class="edge"><title>Node5&#45;&gt;Node1</title>
<path fill="none" stroke="#9a32cd" stroke-dasharray="5,2" d="M218.5,-62.4586C194.711,-49.5727 159.634,-30.5727 139.427,-19.6273"/>
<polygon fill="#9a32cd" stroke="#9a32cd" points="216.856,-65.5485 227.316,-67.2338 220.19,-59.3934 216.856,-65.5485"/>
<text text-anchor="middle" x="202.5" y="-41" font-family="Helvetica,sans-Serif" font-size="10.00"> pool</text>
</g>
</g>
</svg>
