<?xml version="1.0" encoding="UTF-8" standalone="no"?>
<!DOCTYPE svg PUBLIC "-//W3C//DTD SVG 1.1//EN"
 "http://www.w3.org/Graphics/SVG/1.1/DTD/svg11.dtd">
<!-- Generated by graphviz version 2.38.0 (20140413.2041)
 -->
<!-- Title: AForge.Imaging.VerticalIntensityStatistics Pages: 1 -->
<svg width="166pt" height="139pt"
 viewBox="0.00 0.00 166.00 139.00" xmlns="http://www.w3.org/2000/svg" xmlns:xlink="http://www.w3.org/1999/xlink">
<g id="graph0" class="graph" transform="scale(1 1) rotate(0) translate(4 135)">
<title>AForge.Imaging.VerticalIntensityStatistics</title>
<polygon fill="white" stroke="none" points="-4,4 -4,-135 162,-135 162,4 -4,4"/>
<!-- Node1 -->
<g id="node1" class="node"><title>Node1</title>
<g id="a_node1"><a xlink:title="Vertical intensity statistics.">
<polygon fill="#bfbfbf" stroke="black" points="0,-0.5 0,-30.5 158,-30.5 158,-0.5 0,-0.5"/>
<text text-anchor="start" x="8" y="-18.5" font-family="Helvetica,sans-Serif" font-size="10.00">AForge.Imaging.VerticalIntensity</text>
<text text-anchor="middle" x="79" y="-7.5" font-family="Helvetica,sans-Serif" font-size="10.00">Statistics</text>
</a>
</g>
</g>
<!-- Node2 -->
<g id="node2" class="node"><title>Node2</title>
<g id="a_node2"><a xlink:href="../../d8/d62/classAForge_1_1Math_1_1Histogram.html" target="_top" xlink:title="Histogram for discrete random values.">
<polygon fill="white" stroke="black" points="19,-111.5 19,-130.5 139,-130.5 139,-111.5 19,-111.5"/>
<text text-anchor="middle" x="79" y="-118.5" font-family="Helvetica,sans-Serif" font-size="10.00">AForge.Math.Histogram</text>
</a>
</g>
</g>
<!-- Node2&#45;&gt;Node1 -->
<g id="edge1" class="edge"><title>Node2&#45;&gt;Node1</title>
<path fill="none" stroke="#9a32cd" stroke-dasharray="5,2" d="M79,-100.996C79,-80.7355 79,-49.1085 79,-30.8403"/>
<polygon fill="#9a32cd" stroke="#9a32cd" points="75.5001,-101.176 79,-111.176 82.5001,-101.176 75.5001,-101.176"/>
<text text-anchor="middle" x="91.5" y="-85" font-family="Helvetica,sans-Serif" font-size="10.00"> gray</text>
<text text-anchor="middle" x="91.5" y="-74" font-family="Helvetica,sans-Serif" font-size="10.00">blue</text>
<text text-anchor="middle" x="91.5" y="-63" font-family="Helvetica,sans-Serif" font-size="10.00">red</text>
<text text-anchor="middle" x="91.5" y="-52" font-family="Helvetica,sans-Serif" font-size="10.00">green</text>
</g>
</g>
</svg>
