<?xml version="1.0" encoding="UTF-8" standalone="no"?>
<!DOCTYPE svg PUBLIC "-//W3C//DTD SVG 1.1//EN"
 "http://www.w3.org/Graphics/SVG/1.1/DTD/svg11.dtd">
<!-- Generated by graphviz version 2.38.0 (20140413.2041)
 -->
<!-- Title: AForge.Imaging.Filters.TopHat Pages: 1 -->
<!--zoomable 338 -->
<svg id="main" version="1.1" xmlns="http://www.w3.org/2000/svg" xmlns:xlink="http://www.w3.org/1999/xlink" xml:space="preserve" onload="init(evt)">
<style type="text/css"><![CDATA[
.edge:hover path { stroke: red; }
.edge:hover polygon { stroke: red; fill: red; }
]]></style>
<script type="text/javascript"><![CDATA[
var edges = document.getElementsByTagName('g');
if (edges && edges.length) {
  for (var i=0;i<edges.length;i++) {
    if (edges[i].id.substr(0,4)=='edge') {
      edges[i].setAttribute('class','edge');
    }
  }
}
]]></script>
        <defs>
                <circle id="rim" cx="0" cy="0" r="7"/>
                <circle id="rim2" cx="0" cy="0" r="3.5"/>
                <g id="zoomPlus">
                        <use xlink:href="#rim" fill="#404040">
                                <set attributeName="fill" to="#808080" begin="zoomplus.mouseover" end="zoomplus.mouseout"/>
                        </use>
                        <path d="M-4,0h8M0,-4v8" fill="none" stroke="white" stroke-width="1.5" pointer-events="none"/>
                </g>
                <g id="zoomMin">
                        <use xlink:href="#rim" fill="#404040">
                                <set attributeName="fill" to="#808080" begin="zoomminus.mouseover" end="zoomminus.mouseout"/>
                        </use>
                        <path d="M-4,0h8" fill="none" stroke="white" stroke-width="1.5" pointer-events="none"/>
                </g>
                <g id="dirArrow">
                        <path fill="none" stroke="white" stroke-width="1.5" d="M0,-3.0v7 M-2.5,-0.5L0,-3.0L2.5,-0.5"/>
                </g>
               <g id="resetDef">
                       <use xlink:href="#rim2" fill="#404040">
                               <set attributeName="fill" to="#808080" begin="reset.mouseover" end="reset.mouseout"/>
                       </use>
               </g>
        </defs>

<script type="text/javascript">
var viewWidth = 1050;
var viewHeight = 338;
var sectionId = 'dynsection-1';
</script>
<script xlink:href="../../svgpan.js"/>
<svg id="graph" class="graph">
<g id="viewport">
<title>AForge.Imaging.Filters.TopHat</title>
<polygon fill="white" stroke="none" points="-4,4 -4,-333.5 1046,-333.5 1046,4 -4,4"/>
<!-- Node1 -->
<g id="node1" class="node"><title>Node1</title>
<g id="a_node1"><a xlink:title="Top&#45;hat operator from Mathematical Morphology.">
<polygon fill="#bfbfbf" stroke="black" points="893,-246.5 893,-265.5 1042,-265.5 1042,-246.5 893,-246.5"/>
<text text-anchor="middle" x="967.5" y="-253.5" font-family="Helvetica,sans-Serif" font-size="10.00">AForge.Imaging.Filters.TopHat</text>
</a>
</g>
</g>
<!-- Node2 -->
<g id="node2" class="node"><title>Node2</title>
<g id="a_node2"><a xlink:href="../../d6/d11/classAForge_1_1Imaging_1_1Filters_1_1BaseInPlaceFilter.html" target="_top" xlink:title="Base class for filters, which may be applied directly to the source image.">
<polygon fill="white" stroke="black" points="161.5,-246.5 161.5,-265.5 254.5,-265.5 254.5,-246.5 161.5,-246.5"/>
<text text-anchor="middle" x="208" y="-253.5" font-family="Helvetica,sans-Serif" font-size="10.00">BaseInPlaceFilter</text>
</a>
</g>
</g>
<!-- Node2&#45;&gt;Node1 -->
<g id="edge1" class="edge"><title>Node2&#45;&gt;Node1</title>
<path fill="none" stroke="midnightblue" d="M264.765,-256C399.323,-256 741.828,-256 892.948,-256"/>
<polygon fill="midnightblue" stroke="midnightblue" points="264.679,-252.5 254.679,-256 264.679,-259.5 264.679,-252.5"/>
</g>
<!-- Node7 -->
<g id="node7" class="node"><title>Node7</title>
<g id="a_node7"><a xlink:href="../../dc/df2/classAForge_1_1Imaging_1_1Filters_1_1BaseInPlaceFilter2.html" target="_top" xlink:title="Base class for filters, which operate with two images of the same size and format and may be applied ...">
<polygon fill="white" stroke="black" points="456,-284.5 456,-303.5 554,-303.5 554,-284.5 456,-284.5"/>
<text text-anchor="middle" x="505" y="-291.5" font-family="Helvetica,sans-Serif" font-size="10.00">BaseInPlaceFilter2</text>
</a>
</g>
</g>
<!-- Node2&#45;&gt;Node7 -->
<g id="edge7" class="edge"><title>Node2&#45;&gt;Node7</title>
<path fill="none" stroke="midnightblue" d="M264.715,-263.177C319.819,-270.275 403.287,-281.027 455.669,-287.774"/>
<polygon fill="midnightblue" stroke="midnightblue" points="265.135,-259.702 254.77,-261.896 264.241,-266.645 265.135,-259.702"/>
</g>
<!-- Node3 -->
<g id="node3" class="node"><title>Node3</title>
<g id="a_node3"><a xlink:href="../../dd/d51/interfaceAForge_1_1Imaging_1_1Filters_1_1IFilter.html" target="_top" xlink:title="Image processing filter interface.">
<polygon fill="white" stroke="black" points="30,-121.5 30,-140.5 71,-140.5 71,-121.5 30,-121.5"/>
<text text-anchor="middle" x="50.5" y="-128.5" font-family="Helvetica,sans-Serif" font-size="10.00">IFilter</text>
</a>
</g>
</g>
<!-- Node3&#45;&gt;Node2 -->
<g id="edge2" class="edge"><title>Node3&#45;&gt;Node2</title>
<path fill="none" stroke="midnightblue" d="M69.2518,-147.991C82.6058,-160.536 101.532,-177.821 119,-192 144.228,-212.477 175.28,-234.329 192.942,-246.464"/>
<polygon fill="midnightblue" stroke="midnightblue" points="71.3887,-145.195 61.72,-140.863 66.5769,-150.279 71.3887,-145.195"/>
</g>
<!-- Node10 -->
<g id="node10" class="node"><title>Node10</title>
<g id="a_node10"><a xlink:href="../../d2/d79/classAForge_1_1Imaging_1_1Filters_1_1Opening.html" target="_top" xlink:title="Opening operator from Mathematical Morphology.">
<polygon fill="white" stroke="black" points="663.5,-113.5 663.5,-132.5 817.5,-132.5 817.5,-113.5 663.5,-113.5"/>
<text text-anchor="middle" x="740.5" y="-120.5" font-family="Helvetica,sans-Serif" font-size="10.00">AForge.Imaging.Filters.Opening</text>
</a>
</g>
</g>
<!-- Node3&#45;&gt;Node10 -->
<g id="edge11" class="edge"><title>Node3&#45;&gt;Node10</title>
<path fill="none" stroke="midnightblue" d="M81.7977,-132.758C163.106,-137.231 392.903,-148.259 584,-142 611.155,-141.111 617.999,-141.022 645,-138 658.042,-136.54 672.034,-134.553 685.147,-132.503"/>
<polygon fill="midnightblue" stroke="midnightblue" points="81.5095,-129.237 71.3297,-132.173 81.1188,-136.226 81.5095,-129.237"/>
</g>
<!-- Node13 -->
<g id="node13" class="node"><title>Node13</title>
<g id="a_node13"><a xlink:href="../../d8/ddf/classAForge_1_1Imaging_1_1Filters_1_1BaseUsingCopyPartialFilter.html" target="_top" xlink:title="Base class for filters, which require source image backup to make them applicable to source image (or...">
<polygon fill="white" stroke="black" points="140,-81.5 140,-100.5 276,-100.5 276,-81.5 140,-81.5"/>
<text text-anchor="middle" x="208" y="-88.5" font-family="Helvetica,sans-Serif" font-size="10.00">BaseUsingCopyPartialFilter</text>
</a>
</g>
</g>
<!-- Node3&#45;&gt;Node13 -->
<g id="edge17" class="edge"><title>Node3&#45;&gt;Node13</title>
<path fill="none" stroke="midnightblue" d="M80.9392,-123.427C106.198,-116.93 142.726,-107.534 169.965,-100.527"/>
<polygon fill="midnightblue" stroke="midnightblue" points="80.0069,-120.053 71.1942,-125.934 81.7509,-126.832 80.0069,-120.053"/>
</g>
<!-- Node4 -->
<g id="node4" class="node"><title>Node4</title>
<g id="a_node4"><a xlink:href="../../de/d9b/interfaceAForge_1_1Imaging_1_1Filters_1_1IInPlaceFilter.html" target="_top" xlink:title="In&#45;place filter interface.">
<polygon fill="white" stroke="black" points="14,-71.5 14,-90.5 87,-90.5 87,-71.5 14,-71.5"/>
<text text-anchor="middle" x="50.5" y="-78.5" font-family="Helvetica,sans-Serif" font-size="10.00">IInPlaceFilter</text>
</a>
</g>
</g>
<!-- Node4&#45;&gt;Node2 -->
<g id="edge3" class="edge"><title>Node4&#45;&gt;Node2</title>
<path fill="none" stroke="midnightblue" d="M79.593,-96.0446C86.9619,-100.653 94.6231,-106.085 101,-112 147.655,-155.279 187.562,-221.584 201.61,-246.285"/>
<polygon fill="midnightblue" stroke="midnightblue" points="80.9211,-92.7631 70.5343,-90.6738 77.3511,-98.7844 80.9211,-92.7631"/>
</g>
<!-- Node4&#45;&gt;Node10 -->
<g id="edge12" class="edge"><title>Node4&#45;&gt;Node10</title>
<path fill="none" stroke="midnightblue" d="M97.2257,-73.53C189.912,-59.7408 406.225,-34.444 584,-66 634.959,-75.0455 691.134,-99.5507 719.996,-113.303"/>
<polygon fill="midnightblue" stroke="midnightblue" points="96.4323,-70.1102 87.0697,-75.0691 97.4812,-77.0312 96.4323,-70.1102"/>
</g>
<!-- Node4&#45;&gt;Node13 -->
<g id="edge18" class="edge"><title>Node4&#45;&gt;Node13</title>
<path fill="none" stroke="midnightblue" d="M97.5032,-83.9584C110.831,-84.8155 125.662,-85.7692 139.995,-86.691"/>
<polygon fill="midnightblue" stroke="midnightblue" points="97.3789,-80.4433 87.1748,-83.2942 96.9296,-87.4288 97.3789,-80.4433"/>
</g>
<!-- Node5 -->
<g id="node5" class="node"><title>Node5</title>
<g id="a_node5"><a xlink:href="../../d7/dec/interfaceAForge_1_1Imaging_1_1Filters_1_1IFilterInformation.html" target="_top" xlink:title="Interface which provides information about image processing filter.">
<polygon fill="white" stroke="black" points="6.5,-221.5 6.5,-240.5 94.5,-240.5 94.5,-221.5 6.5,-221.5"/>
<text text-anchor="middle" x="50.5" y="-228.5" font-family="Helvetica,sans-Serif" font-size="10.00">IFilterInformation</text>
</a>
</g>
</g>
<!-- Node5&#45;&gt;Node2 -->
<g id="edge4" class="edge"><title>Node5&#45;&gt;Node2</title>
<path fill="none" stroke="midnightblue" d="M104.637,-239.679C109.493,-240.466 114.337,-241.249 119,-242 132.746,-244.213 147.703,-246.601 161.321,-248.766"/>
<polygon fill="midnightblue" stroke="midnightblue" points="105.139,-236.214 94.7069,-238.066 104.017,-243.124 105.139,-236.214"/>
</g>
<!-- Node5&#45;&gt;Node10 -->
<g id="edge14" class="edge"><title>Node5&#45;&gt;Node10</title>
<path fill="none" stroke="midnightblue" d="M104.811,-227.458C209.449,-219.768 448.628,-198.532 645,-154 669.08,-148.539 695.744,-139.507 714.593,-132.596"/>
<polygon fill="midnightblue" stroke="midnightblue" points="104.533,-223.969 94.812,-228.182 105.039,-230.951 104.533,-223.969"/>
</g>
<!-- Node5&#45;&gt;Node13 -->
<g id="edge20" class="edge"><title>Node5&#45;&gt;Node13</title>
<path fill="none" stroke="midnightblue" d="M69.6922,-214.621C102.353,-185.216 169.97,-124.339 196.237,-100.69"/>
<polygon fill="midnightblue" stroke="midnightblue" points="67.2781,-212.085 62.1881,-221.377 71.9618,-217.287 67.2781,-212.085"/>
</g>
<!-- Node6 -->
<g id="node6" class="node"><title>Node6</title>
<g id="a_node6"><a xlink:href="../../de/df6/classAForge_1_1Imaging_1_1Filters_1_1Subtract.html" target="_top" xlink:title="Subtract filter &#45; subtract pixel values of two images.">
<polygon fill="white" stroke="black" points="663,-284.5 663,-303.5 818,-303.5 818,-284.5 663,-284.5"/>
<text text-anchor="middle" x="740.5" y="-291.5" font-family="Helvetica,sans-Serif" font-size="10.00">AForge.Imaging.Filters.Subtract</text>
</a>
</g>
</g>
<!-- Node6&#45;&gt;Node1 -->
<g id="edge5" class="edge"><title>Node6&#45;&gt;Node1</title>
<path fill="none" stroke="#9a32cd" stroke-dasharray="5,2" d="M808.265,-282.724C840.635,-277.257 879.094,-270.762 909.99,-265.544"/>
<polygon fill="#9a32cd" stroke="#9a32cd" points="807.264,-279.344 797.987,-284.46 808.43,-286.246 807.264,-279.344"/>
<text text-anchor="middle" x="855.5" y="-280" font-family="Helvetica,sans-Serif" font-size="10.00"> subtract</text>
</g>
<!-- Node7&#45;&gt;Node6 -->
<g id="edge6" class="edge"><title>Node7&#45;&gt;Node6</title>
<path fill="none" stroke="midnightblue" d="M564.349,-294C594.189,-294 630.886,-294 662.967,-294"/>
<polygon fill="midnightblue" stroke="midnightblue" points="564.098,-290.5 554.098,-294 564.098,-297.5 564.098,-290.5"/>
</g>
<!-- Node8 -->
<g id="node8" class="node"><title>Node8</title>
<g id="a_node8"><a xlink:href="../../d0/d77/classAForge_1_1Imaging_1_1UnmanagedImage.html" target="_top" xlink:title="Image in unmanaged memory.">
<polygon fill="white" stroke="black" points="138,-299 138,-329 278,-329 278,-299 138,-299"/>
<text text-anchor="start" x="146" y="-317" font-family="Helvetica,sans-Serif" font-size="10.00">AForge.Imaging.Unmanaged</text>
<text text-anchor="middle" x="208" y="-306" font-family="Helvetica,sans-Serif" font-size="10.00">Image</text>
</a>
</g>
</g>
<!-- Node8&#45;&gt;Node7 -->
<g id="edge8" class="edge"><title>Node8&#45;&gt;Node7</title>
<path fill="none" stroke="#9a32cd" stroke-dasharray="5,2" d="M288.306,-308.623C341.801,-304.997 410.642,-300.329 455.986,-297.255"/>
<polygon fill="#9a32cd" stroke="#9a32cd" points="287.905,-305.142 278.164,-309.311 288.378,-312.126 287.905,-305.142"/>
<text text-anchor="middle" x="352" y="-311" font-family="Helvetica,sans-Serif" font-size="10.00"> unmanagedOverlayImage</text>
</g>
<!-- Node9 -->
<g id="node9" class="node"><title>Node9</title>
<g id="a_node9"><a xlink:title=" ">
<polygon fill="white" stroke="#bfbfbf" points="17,-304.5 17,-323.5 84,-323.5 84,-304.5 17,-304.5"/>
<text text-anchor="middle" x="50.5" y="-311.5" font-family="Helvetica,sans-Serif" font-size="10.00">IDisposable</text>
</a>
</g>
</g>
<!-- Node9&#45;&gt;Node8 -->
<g id="edge9" class="edge"><title>Node9&#45;&gt;Node8</title>
<path fill="none" stroke="midnightblue" d="M94.4753,-314C107.935,-314 123.146,-314 137.932,-314"/>
<polygon fill="midnightblue" stroke="midnightblue" points="94.0979,-310.5 84.0979,-314 94.0979,-317.5 94.0979,-310.5"/>
</g>
<!-- Node10&#45;&gt;Node1 -->
<g id="edge10" class="edge"><title>Node10&#45;&gt;Node1</title>
<path fill="none" stroke="#9a32cd" stroke-dasharray="5,2" d="M766.501,-137.778C812.926,-165.221 911.26,-223.347 950.163,-246.343"/>
<polygon fill="#9a32cd" stroke="#9a32cd" points="768.071,-134.641 757.681,-132.565 764.509,-140.667 768.071,-134.641"/>
<text text-anchor="middle" x="855.5" y="-205" font-family="Helvetica,sans-Serif" font-size="10.00"> opening</text>
</g>
<!-- Node11 -->
<g id="node11" class="node"><title>Node11</title>
<g id="a_node11"><a xlink:href="../../d2/d66/interfaceAForge_1_1Imaging_1_1Filters_1_1IInPlacePartialFilter.html" target="_top" xlink:title="In&#45;place partial filter interface.">
<polygon fill="white" stroke="black" points="0,-0.5 0,-19.5 101,-19.5 101,-0.5 0,-0.5"/>
<text text-anchor="middle" x="50.5" y="-7.5" font-family="Helvetica,sans-Serif" font-size="10.00">IInPlacePartialFilter</text>
</a>
</g>
</g>
<!-- Node11&#45;&gt;Node10 -->
<g id="edge13" class="edge"><title>Node11&#45;&gt;Node10</title>
<path fill="none" stroke="midnightblue" d="M111.246,-10.0831C210.304,-11.1516 414.439,-17.3046 584,-48 611.815,-53.0353 619.131,-54.6071 645,-66 675.51,-79.4367 708.202,-100.94 726.015,-113.338"/>
<polygon fill="midnightblue" stroke="midnightblue" points="111.163,-6.58225 101.131,-9.98789 111.097,-13.5819 111.163,-6.58225"/>
</g>
<!-- Node11&#45;&gt;Node13 -->
<g id="edge19" class="edge"><title>Node11&#45;&gt;Node13</title>
<path fill="none" stroke="midnightblue" d="M79.079,-24.3659C110.645,-40.8085 161.468,-67.2823 188.575,-81.4027"/>
<polygon fill="midnightblue" stroke="midnightblue" points="80.4344,-21.1256 69.9485,-19.6098 77.2005,-27.3338 80.4344,-21.1256"/>
</g>
<!-- Node12 -->
<g id="node12" class="node"><title>Node12</title>
<g id="a_node12"><a xlink:href="../../da/dce/classAForge_1_1Imaging_1_1Filters_1_1Erosion.html" target="_top" xlink:title="Erosion operator from Mathematical Morphology.">
<polygon fill="white" stroke="black" points="429.5,-113.5 429.5,-132.5 580.5,-132.5 580.5,-113.5 429.5,-113.5"/>
<text text-anchor="middle" x="505" y="-120.5" font-family="Helvetica,sans-Serif" font-size="10.00">AForge.Imaging.Filters.Erosion</text>
</a>
</g>
</g>
<!-- Node12&#45;&gt;Node10 -->
<g id="edge15" class="edge"><title>Node12&#45;&gt;Node10</title>
<path fill="none" stroke="#9a32cd" stroke-dasharray="5,2" d="M590.576,-123C614.34,-123 640.033,-123 663.278,-123"/>
<polygon fill="#9a32cd" stroke="#9a32cd" points="590.523,-119.5 580.523,-123 590.523,-126.5 590.523,-119.5"/>
<text text-anchor="middle" x="623.5" y="-126" font-family="Helvetica,sans-Serif" font-size="10.00"> errosion</text>
</g>
<!-- Node13&#45;&gt;Node12 -->
<g id="edge16" class="edge"><title>Node13&#45;&gt;Node12</title>
<path fill="none" stroke="midnightblue" d="M286.066,-101.801C289.421,-102.218 292.744,-102.619 296,-103 340.139,-108.164 389.663,-112.965 429.311,-116.569"/>
<polygon fill="midnightblue" stroke="midnightblue" points="286.298,-98.3029 275.937,-100.516 285.417,-105.247 286.298,-98.3029"/>
</g>
<!-- Node14 -->
<g id="node14" class="node"><title>Node14</title>
<g id="a_node14"><a xlink:href="../../db/de4/classAForge_1_1Imaging_1_1Filters_1_1Dilatation.html" target="_top" xlink:title="Dilatation operator from Mathematical Morphology.">
<polygon fill="white" stroke="black" points="426,-75.5 426,-94.5 584,-94.5 584,-75.5 426,-75.5"/>
<text text-anchor="middle" x="505" y="-82.5" font-family="Helvetica,sans-Serif" font-size="10.00">AForge.Imaging.Filters.Dilatation</text>
</a>
</g>
</g>
<!-- Node13&#45;&gt;Node14 -->
<g id="edge22" class="edge"><title>Node13&#45;&gt;Node14</title>
<path fill="none" stroke="midnightblue" d="M286.431,-89.4251C329.387,-88.5515 382.671,-87.4677 425.757,-86.5914"/>
<polygon fill="midnightblue" stroke="midnightblue" points="286.236,-85.9283 276.309,-89.631 286.378,-92.9268 286.236,-85.9283"/>
</g>
<!-- Node14&#45;&gt;Node10 -->
<g id="edge21" class="edge"><title>Node14&#45;&gt;Node10</title>
<path fill="none" stroke="#9a32cd" stroke-dasharray="5,2" d="M574.851,-96.205C608.535,-101.687 648.653,-108.215 680.855,-113.456"/>
<polygon fill="#9a32cd" stroke="#9a32cd" points="575.053,-92.6918 564.621,-94.54 573.928,-99.6009 575.053,-92.6918"/>
<text text-anchor="middle" x="623.5" y="-111" font-family="Helvetica,sans-Serif" font-size="10.00"> dilatation</text>
</g>
</g>
</svg>
        <g id="navigator" transform="translate(0 0)" fill="#404254">
                <rect fill="#f2f5e9" fill-opacity="0.5" stroke="#606060" stroke-width=".5" x="0" y="0" width="60" height="60"/>
                <use id="zoomplus" xlink:href="#zoomPlus" x="17" y="9" onmousedown="handleZoom(evt,'in')"/>
                <use id="zoomminus" xlink:href="#zoomMin" x="42" y="9" onmousedown="handleZoom(evt,'out')"/>
                <use id="reset" xlink:href="#resetDef" x="30" y="36" onmousedown="handleReset()"/>
                <g id="arrowUp" xlink:href="#dirArrow" transform="translate(30 24)" onmousedown="handlePan(0,-1)">
                  <use xlink:href="#rim" fill="#404040">
                        <set attributeName="fill" to="#808080" begin="arrowUp.mouseover" end="arrowUp.mouseout"/>
                  </use>
                  <path fill="none" stroke="white" stroke-width="1.5" d="M0,-3.0v7 M-2.5,-0.5L0,-3.0L2.5,-0.5"/>
                </g>
                <g id="arrowRight" xlink:href="#dirArrow" transform="rotate(90) translate(36 -43)" onmousedown="handlePan(1,0)">
                  <use xlink:href="#rim" fill="#404040">
                        <set attributeName="fill" to="#808080" begin="arrowRight.mouseover" end="arrowRight.mouseout"/>
                  </use>
                  <path fill="none" stroke="white" stroke-width="1.5" d="M0,-3.0v7 M-2.5,-0.5L0,-3.0L2.5,-0.5"/>
                </g>
                <g id="arrowDown" xlink:href="#dirArrow" transform="rotate(180) translate(-30 -48)" onmousedown="handlePan(0,1)">
                  <use xlink:href="#rim" fill="#404040">
                        <set attributeName="fill" to="#808080" begin="arrowDown.mouseover" end="arrowDown.mouseout"/>
                  </use>
                  <path fill="none" stroke="white" stroke-width="1.5" d="M0,-3.0v7 M-2.5,-0.5L0,-3.0L2.5,-0.5"/>
                </g>
                <g id="arrowLeft" xlink:href="#dirArrow" transform="rotate(270) translate(-36 17)" onmousedown="handlePan(-1,0)">
                  <use xlink:href="#rim" fill="#404040">
                        <set attributeName="fill" to="#808080" begin="arrowLeft.mouseover" end="arrowLeft.mouseout"/>
                  </use>
                  <path fill="none" stroke="white" stroke-width="1.5" d="M0,-3.0v7 M-2.5,-0.5L0,-3.0L2.5,-0.5"/>
                </g>
        </g>
        <svg viewBox="0 0 15 15" width="100%" height="30px" preserveAspectRatio="xMaxYMin meet">
         <g id="arrow_out" transform="scale(0.3 0.3)">
          <a xlink:href="classAForge_1_1Imaging_1_1Filters_1_1TopHat__coll__graph_org.svg" target="_base">
           <rect id="button" ry="5" rx="5" y="6" x="6" height="38" width="38"
                fill="#f2f5e9" fill-opacity="0.5" stroke="#606060" stroke-width="1.0"/>
           <path id="arrow"
             d="M 11.500037,31.436501 C 11.940474,20.09759 22.043105,11.32322 32.158766,21.979434 L 37.068811,17.246167 C 37.068811,17.246167 37.088388,32 37.088388,32 L 22.160133,31.978069 C 22.160133,31.978069 26.997745,27.140456 26.997745,27.140456 C 18.528582,18.264221 13.291696,25.230495 11.500037,31.436501 z"
             style="fill:#404040;"/>
          </a>
         </g>
        </svg>
</svg>
