<?xml version="1.0" encoding="UTF-8" standalone="no"?>
<!DOCTYPE svg PUBLIC "-//W3C//DTD SVG 1.1//EN"
 "http://www.w3.org/Graphics/SVG/1.1/DTD/svg11.dtd">
<!-- Generated by graphviz version 2.38.0 (20140413.2041)
 -->
<!-- Title: NUnit.Framework.Api.FrameworkControllerTests Pages: 1 -->
<svg width="255pt" height="253pt"
 viewBox="0.00 0.00 254.50 253.00" xmlns="http://www.w3.org/2000/svg" xmlns:xlink="http://www.w3.org/1999/xlink">
<g id="graph0" class="graph" transform="scale(1 1) rotate(0) translate(4 249)">
<title>NUnit.Framework.Api.FrameworkControllerTests</title>
<polygon fill="white" stroke="none" points="-4,4 -4,-249 250.5,-249 250.5,4 -4,4"/>
<!-- Node1 -->
<g id="node1" class="node"><title>Node1</title>
<g id="a_node1"><a xlink:title=" ">
<polygon fill="#bfbfbf" stroke="black" points="13.5,-0.5 13.5,-30.5 173.5,-30.5 173.5,-0.5 13.5,-0.5"/>
<text text-anchor="start" x="21.5" y="-18.5" font-family="Helvetica,sans-Serif" font-size="10.00">NUnit.Framework.Api.Framework</text>
<text text-anchor="middle" x="93.5" y="-7.5" font-family="Helvetica,sans-Serif" font-size="10.00">ControllerTests</text>
</a>
</g>
</g>
<!-- Node2 -->
<g id="node2" class="node"><title>Node2</title>
<g id="a_node2"><a xlink:title=" ">
<polygon fill="white" stroke="#bfbfbf" points="0,-106 0,-125 41,-125 41,-106 0,-106"/>
<text text-anchor="middle" x="20.5" y="-113" font-family="Helvetica,sans-Serif" font-size="10.00">static</text>
</a>
</g>
</g>
<!-- Node2&#45;&gt;Node1 -->
<g id="edge1" class="edge"><title>Node2&#45;&gt;Node1</title>
<path fill="none" stroke="#9a32cd" stroke-dasharray="5,2" d="M15.7254,-95.6052C13.3139,-81.5998 12.5354,-62.6523 21.5,-49 26.6941,-41.0899 34.3188,-35.0828 42.6866,-30.5275"/>
<polygon fill="#9a32cd" stroke="#9a32cd" points="12.3444,-96.5329 17.8545,-105.582 19.1903,-95.0719 12.3444,-96.5329"/>
<text text-anchor="middle" x="83" y="-74" font-family="Helvetica,sans-Serif" font-size="10.00"> EXPECTED_NAME</text>
<text text-anchor="middle" x="83" y="-63" font-family="Helvetica,sans-Serif" font-size="10.00">MOCK_ASSEMBLY_PATH</text>
<text text-anchor="middle" x="83" y="-52" font-family="Helvetica,sans-Serif" font-size="10.00">MOCK_ASSEMBLY_NAME</text>
</g>
<!-- Node3 -->
<g id="node3" class="node"><title>Node3</title>
<g id="a_node3"><a xlink:href="../../dc/d92/classNUnit_1_1Framework_1_1Api_1_1FrameworkController.html" target="_top" xlink:title="FrameworkController provides a facade for use in loading, browsing and running tests without requirin...">
<polygon fill="white" stroke="black" points="86.5,-100.5 86.5,-130.5 246.5,-130.5 246.5,-100.5 86.5,-100.5"/>
<text text-anchor="start" x="94.5" y="-118.5" font-family="Helvetica,sans-Serif" font-size="10.00">NUnit.Framework.Api.Framework</text>
<text text-anchor="middle" x="166.5" y="-107.5" font-family="Helvetica,sans-Serif" font-size="10.00">Controller</text>
</a>
</g>
</g>
<!-- Node3&#45;&gt;Node1 -->
<g id="edge2" class="edge"><title>Node3&#45;&gt;Node1</title>
<path fill="none" stroke="#9a32cd" stroke-dasharray="5,2" d="M162.524,-90.5199C159.377,-77.2242 153.888,-61.004 144.5,-49 138.743,-41.6396 130.825,-35.4688 122.944,-30.5502"/>
<polygon fill="#9a32cd" stroke="#9a32cd" points="159.119,-91.3378 164.575,-100.419 165.973,-89.9172 159.119,-91.3378"/>
<text text-anchor="middle" x="185" y="-63" font-family="Helvetica,sans-Serif" font-size="10.00"> _controller</text>
</g>
<!-- Node4 -->
<g id="node4" class="node"><title>Node4</title>
<g id="a_node4"><a xlink:href="../../d8/d34/classNUnit_1_1Framework_1_1Compatibility_1_1LongLivedMarshalByRefObject.html" target="_top" xlink:title="A MarshalByRefObject that lives forever">
<polygon fill="white" stroke="black" points="92,-168.5 92,-187.5 241,-187.5 241,-168.5 92,-168.5"/>
<text text-anchor="middle" x="166.5" y="-175.5" font-family="Helvetica,sans-Serif" font-size="10.00">LongLivedMarshalByRefObject</text>
</a>
</g>
</g>
<!-- Node4&#45;&gt;Node3 -->
<g id="edge3" class="edge"><title>Node4&#45;&gt;Node3</title>
<path fill="none" stroke="midnightblue" d="M166.5,-158.215C166.5,-149.356 166.5,-138.958 166.5,-130.759"/>
<polygon fill="midnightblue" stroke="midnightblue" points="163,-158.332 166.5,-168.332 170,-158.332 163,-158.332"/>
</g>
<!-- Node5 -->
<g id="node5" class="node"><title>Node5</title>
<g id="a_node5"><a xlink:title=" ">
<polygon fill="white" stroke="#bfbfbf" points="113.5,-225.5 113.5,-244.5 219.5,-244.5 219.5,-225.5 113.5,-225.5"/>
<text text-anchor="middle" x="166.5" y="-232.5" font-family="Helvetica,sans-Serif" font-size="10.00">MarshalByRefObject</text>
</a>
</g>
</g>
<!-- Node5&#45;&gt;Node4 -->
<g id="edge4" class="edge"><title>Node5&#45;&gt;Node4</title>
<path fill="none" stroke="midnightblue" d="M166.5,-215.117C166.5,-205.817 166.5,-195.056 166.5,-187.715"/>
<polygon fill="midnightblue" stroke="midnightblue" points="163,-215.406 166.5,-225.406 170,-215.406 163,-215.406"/>
</g>
</g>
</svg>
