<?xml version="1.0" encoding="UTF-8" standalone="no"?>
<!DOCTYPE svg PUBLIC "-//W3C//DTD SVG 1.1//EN"
 "http://www.w3.org/Graphics/SVG/1.1/DTD/svg11.dtd">
<!-- Generated by graphviz version 2.38.0 (20140413.2041)
 -->
<!-- Title: IG.Web.WSDevelop1Class Pages: 1 -->
<svg width="424pt" height="207pt"
 viewBox="0.00 0.00 424.00 207.00" xmlns="http://www.w3.org/2000/svg" xmlns:xlink="http://www.w3.org/1999/xlink">
<g id="graph0" class="graph" transform="scale(1 1) rotate(0) translate(4 203)">
<title>IG.Web.WSDevelop1Class</title>
<polygon fill="white" stroke="none" points="-4,4 -4,-203 420,-203 420,4 -4,4"/>
<!-- Node1 -->
<g id="node1" class="node"><title>Node1</title>
<g id="a_node1"><a xlink:title="Web service class.">
<polygon fill="#bfbfbf" stroke="black" points="283,-0.5 283,-19.5 416,-19.5 416,-0.5 283,-0.5"/>
<text text-anchor="middle" x="349.5" y="-7.5" font-family="Helvetica,sans-Serif" font-size="10.00">IG.Web.WSDevelop1Class</text>
</a>
</g>
</g>
<!-- Node2 -->
<g id="node2" class="node"><title>Node2</title>
<g id="a_node2"><a xlink:href="../../d0/ddd/classIG_1_1Web_1_1WSDevelopClass.html" target="_top" xlink:title="Web service class.">
<polygon fill="white" stroke="black" points="202.5,-56.5 202.5,-75.5 294.5,-75.5 294.5,-56.5 202.5,-56.5"/>
<text text-anchor="middle" x="248.5" y="-63.5" font-family="Helvetica,sans-Serif" font-size="10.00">WSDevelopClass</text>
</a>
</g>
</g>
<!-- Node2&#45;&gt;Node1 -->
<g id="edge1" class="edge"><title>Node2&#45;&gt;Node1</title>
<path fill="none" stroke="midnightblue" d="M273.583,-51.5895C292.257,-41.6052 317.204,-28.2672 333.313,-19.6545"/>
<polygon fill="midnightblue" stroke="midnightblue" points="271.896,-48.5224 264.727,-56.324 275.196,-54.6955 271.896,-48.5224"/>
</g>
<!-- Node3 -->
<g id="node3" class="node"><title>Node3</title>
<g id="a_node3"><a xlink:href="../../d8/dbb/classIG_1_1Web_1_1WSBaseClass.html" target="_top" xlink:title="Base class for IGLib webservices.">
<polygon fill="white" stroke="black" points="142.5,-112.5 142.5,-131.5 222.5,-131.5 222.5,-112.5 142.5,-112.5"/>
<text text-anchor="middle" x="182.5" y="-119.5" font-family="Helvetica,sans-Serif" font-size="10.00">WSBaseClass</text>
</a>
</g>
</g>
<!-- Node3&#45;&gt;Node2 -->
<g id="edge2" class="edge"><title>Node3&#45;&gt;Node2</title>
<path fill="none" stroke="midnightblue" d="M201.054,-105.82C212.878,-96.1452 227.786,-83.9481 237.703,-75.8339"/>
<polygon fill="midnightblue" stroke="midnightblue" points="198.627,-103.283 193.104,-112.324 203.06,-108.7 198.627,-103.283"/>
</g>
<!-- Node4 -->
<g id="node4" class="node"><title>Node4</title>
<g id="a_node4"><a xlink:title=" ">
<polygon fill="white" stroke="#bfbfbf" points="0,-168.5 0,-198.5 119,-198.5 119,-168.5 0,-168.5"/>
<text text-anchor="start" x="8" y="-186.5" font-family="Helvetica,sans-Serif" font-size="10.00">System::Web::Services</text>
<text text-anchor="middle" x="59.5" y="-175.5" font-family="Helvetica,sans-Serif" font-size="10.00">::WebService</text>
</a>
</g>
</g>
<!-- Node4&#45;&gt;Node3 -->
<g id="edge3" class="edge"><title>Node4&#45;&gt;Node3</title>
<path fill="none" stroke="midnightblue" d="M97.868,-163.94C120.154,-153.159 147.183,-140.084 164.602,-131.658"/>
<polygon fill="midnightblue" stroke="midnightblue" points="96.1272,-160.894 88.6493,-168.399 99.1755,-167.195 96.1272,-160.894"/>
</g>
<!-- Node5 -->
<g id="node5" class="node"><title>Node5</title>
<g id="a_node5"><a xlink:href="../../d3/d45/interfaceIG_1_1Web_1_1IWSBase.html" target="_top" xlink:title="Interface for basic web service.">
<polygon fill="white" stroke="black" points="296.5,-174 296.5,-193 354.5,-193 354.5,-174 296.5,-174"/>
<text text-anchor="middle" x="325.5" y="-181" font-family="Helvetica,sans-Serif" font-size="10.00">IWSBase</text>
</a>
</g>
</g>
<!-- Node5&#45;&gt;Node1 -->
<g id="edge13" class="edge"><title>Node5&#45;&gt;Node1</title>
<path fill="none" stroke="midnightblue" d="M342.384,-166.898C351.859,-157.477 363.374,-144.839 371.5,-132 385.889,-109.264 389.29,-102.397 394.5,-76 396.221,-67.2793 397.902,-64.2123 394.5,-56 388.073,-40.4846 373.414,-27.5295 362.564,-19.5641"/>
<polygon fill="midnightblue" stroke="midnightblue" points="339.796,-164.53 335.023,-173.989 344.653,-169.572 339.796,-164.53"/>
</g>
<!-- Node5&#45;&gt;Node2 -->
<g id="edge9" class="edge"><title>Node5&#45;&gt;Node2</title>
<path fill="none" stroke="midnightblue" d="M304.538,-167.958C292.774,-158.838 278.663,-146.147 269.5,-132 257.767,-113.884 252.103,-88.6738 249.808,-75.6126"/>
<polygon fill="midnightblue" stroke="midnightblue" points="302.471,-170.783 312.585,-173.938 306.646,-165.165 302.471,-170.783"/>
</g>
<!-- Node5&#45;&gt;Node3 -->
<g id="edge4" class="edge"><title>Node5&#45;&gt;Node3</title>
<path fill="none" stroke="midnightblue" d="M295.773,-170.131C267.992,-158.572 227.25,-141.62 202.95,-131.509"/>
<polygon fill="midnightblue" stroke="midnightblue" points="294.434,-173.365 305.012,-173.975 297.123,-166.902 294.434,-173.365"/>
</g>
<!-- Node8 -->
<g id="node8" class="node"><title>Node8</title>
<g id="a_node8"><a xlink:href="../../d3/d6b/interfaceIG_1_1Web_1_1IWsDevelop.html" target="_top" xlink:title="Interface for development web services.">
<polygon fill="white" stroke="black" points="278.5,-112.5 278.5,-131.5 346.5,-131.5 346.5,-112.5 278.5,-112.5"/>
<text text-anchor="middle" x="312.5" y="-119.5" font-family="Helvetica,sans-Serif" font-size="10.00">IWsDevelop</text>
</a>
</g>
</g>
<!-- Node5&#45;&gt;Node8 -->
<g id="edge8" class="edge"><title>Node5&#45;&gt;Node8</title>
<path fill="none" stroke="midnightblue" d="M321.492,-164.157C319.114,-153.272 316.211,-139.986 314.359,-131.509"/>
<polygon fill="midnightblue" stroke="midnightblue" points="318.083,-164.953 323.637,-173.975 324.922,-163.458 318.083,-164.953"/>
</g>
<!-- Node9 -->
<g id="node9" class="node"><title>Node9</title>
<g id="a_node9"><a xlink:href="../../d3/d6d/interfaceIG_1_1Web_1_1IWsDevelop1.html" target="_top" xlink:title="Interface for higher level development web services.">
<polygon fill="white" stroke="black" points="313,-56.5 313,-75.5 386,-75.5 386,-56.5 313,-56.5"/>
<text text-anchor="middle" x="349.5" y="-63.5" font-family="Helvetica,sans-Serif" font-size="10.00">IWsDevelop1</text>
</a>
</g>
</g>
<!-- Node5&#45;&gt;Node9 -->
<g id="edge12" class="edge"><title>Node5&#45;&gt;Node9</title>
<path fill="none" stroke="midnightblue" d="M338.689,-165.565C345.123,-156.226 352.178,-144.095 355.5,-132 360.902,-112.329 355.741,-88.1856 352.201,-75.5838"/>
<polygon fill="midnightblue" stroke="midnightblue" points="335.695,-163.73 332.623,-173.87 341.348,-167.859 335.695,-163.73"/>
</g>
<!-- Node6 -->
<g id="node6" class="node"><title>Node6</title>
<g id="a_node6"><a xlink:href="../../dc/d79/interfaceIG_1_1Lib_1_1IIdentifiable.html" target="_top" xlink:title="Classes whose instances have unique integer IDs.">
<polygon fill="white" stroke="black" points="137,-174 137,-193 202,-193 202,-174 137,-174"/>
<text text-anchor="middle" x="169.5" y="-181" font-family="Helvetica,sans-Serif" font-size="10.00">IIdentifiable</text>
</a>
</g>
</g>
<!-- Node6&#45;&gt;Node3 -->
<g id="edge5" class="edge"><title>Node6&#45;&gt;Node3</title>
<path fill="none" stroke="midnightblue" d="M173.508,-164.157C175.886,-153.272 178.789,-139.986 180.641,-131.509"/>
<polygon fill="midnightblue" stroke="midnightblue" points="170.078,-163.458 171.363,-173.975 176.917,-164.953 170.078,-163.458"/>
</g>
<!-- Node7 -->
<g id="node7" class="node"><title>Node7</title>
<g id="a_node7"><a xlink:href="../../d3/db6/interfaceIG_1_1Lib_1_1ILockable.html" target="_top" xlink:title="Lockable object, has a Lock property that returns object on which lock must be performed in order to ...">
<polygon fill="white" stroke="black" points="220.5,-174 220.5,-193 278.5,-193 278.5,-174 220.5,-174"/>
<text text-anchor="middle" x="249.5" y="-181" font-family="Helvetica,sans-Serif" font-size="10.00">ILockable</text>
</a>
</g>
</g>
<!-- Node7&#45;&gt;Node3 -->
<g id="edge6" class="edge"><title>Node7&#45;&gt;Node3</title>
<path fill="none" stroke="midnightblue" d="M232.215,-167.15C219.441,-155.806 202.522,-140.781 192.082,-131.509"/>
<polygon fill="midnightblue" stroke="midnightblue" points="230.099,-169.952 239.901,-173.975 234.747,-164.718 230.099,-169.952"/>
</g>
<!-- Node8&#45;&gt;Node2 -->
<g id="edge7" class="edge"><title>Node8&#45;&gt;Node2</title>
<path fill="none" stroke="midnightblue" d="M294.509,-105.82C283.042,-96.1452 268.587,-83.9481 258.97,-75.8339"/>
<polygon fill="midnightblue" stroke="midnightblue" points="292.317,-108.55 302.217,-112.324 296.831,-103.2 292.317,-108.55"/>
</g>
<!-- Node8&#45;&gt;Node9 -->
<g id="edge11" class="edge"><title>Node8&#45;&gt;Node9</title>
<path fill="none" stroke="midnightblue" d="M324.446,-103.566C330.812,-94.2747 338.367,-83.2484 343.504,-75.7511"/>
<polygon fill="midnightblue" stroke="midnightblue" points="321.375,-101.855 318.61,-112.083 327.149,-105.812 321.375,-101.855"/>
</g>
<!-- Node9&#45;&gt;Node1 -->
<g id="edge10" class="edge"><title>Node9&#45;&gt;Node1</title>
<path fill="none" stroke="midnightblue" d="M349.5,-45.8045C349.5,-36.9102 349.5,-26.7798 349.5,-19.7511"/>
<polygon fill="midnightblue" stroke="midnightblue" points="346,-46.083 349.5,-56.083 353,-46.083 346,-46.083"/>
</g>
</g>
</svg>
