<?xml version="1.0" encoding="UTF-8" standalone="no"?>
<!DOCTYPE svg PUBLIC "-//W3C//DTD SVG 1.1//EN"
 "http://www.w3.org/Graphics/SVG/1.1/DTD/svg11.dtd">
<!-- Generated by graphviz version 2.38.0 (20140413.2041)
 -->
<!-- Title: IG.Lib.InterfaceInterpreterBase Pages: 1 -->
<svg width="414pt" height="127pt"
 viewBox="0.00 0.00 414.00 126.50" xmlns="http://www.w3.org/2000/svg" xmlns:xlink="http://www.w3.org/1999/xlink">
<g id="graph0" class="graph" transform="scale(1 1) rotate(0) translate(4 122.5)">
<title>IG.Lib.InterfaceInterpreterBase</title>
<polygon fill="white" stroke="none" points="-4,4 -4,-122.5 410,-122.5 410,4 -4,4"/>
<!-- Node1 -->
<g id="node1" class="node"><title>Node1</title>
<g id="a_node1"><a xlink:title="Base class for interfaces with interpreters.">
<polygon fill="#bfbfbf" stroke="black" points="94,-55 94,-74 242,-74 242,-55 94,-55"/>
<text text-anchor="middle" x="168" y="-62" font-family="Helvetica,sans-Serif" font-size="10.00">IG.Lib.InterfaceInterpreterBase</text>
</a>
</g>
</g>
<!-- Node3 -->
<g id="node3" class="node"><title>Node3</title>
<g id="a_node3"><a xlink:href="../../dc/dd2/classIG_1_1Lib_1_1InterfaceInverse.html" target="_top" xlink:title="Interface for Inverse Interpreter.">
<polygon fill="white" stroke="black" points="286,-99 286,-118 398,-118 398,-99 286,-99"/>
<text text-anchor="middle" x="342" y="-106" font-family="Helvetica,sans-Serif" font-size="10.00">IG.Lib.InterfaceInverse</text>
</a>
</g>
</g>
<!-- Node1&#45;&gt;Node3 -->
<g id="edge2" class="edge"><title>Node1&#45;&gt;Node3</title>
<path fill="none" stroke="midnightblue" d="M216.15,-76.5617C243.736,-83.6185 278.073,-92.4024 303.751,-98.9713"/>
<polygon fill="midnightblue" stroke="midnightblue" points="216.877,-73.1349 206.321,-74.0473 215.142,-79.9166 216.877,-73.1349"/>
</g>
<!-- Node4 -->
<g id="node4" class="node"><title>Node4</title>
<g id="a_node4"><a xlink:href="../../dc/d3a/classIG_1_1Lib_1_1TemporaryInterfaceInvAn.html" target="_top" xlink:title="Interface for Inverse Interpreter.">
<polygon fill="white" stroke="black" points="278,-49.5 278,-79.5 406,-79.5 406,-49.5 278,-49.5"/>
<text text-anchor="start" x="286" y="-67.5" font-family="Helvetica,sans-Serif" font-size="10.00">IG.Lib.TemporaryInterface</text>
<text text-anchor="middle" x="342" y="-56.5" font-family="Helvetica,sans-Serif" font-size="10.00">InvAn</text>
</a>
</g>
</g>
<!-- Node1&#45;&gt;Node4 -->
<g id="edge3" class="edge"><title>Node1&#45;&gt;Node4</title>
<path fill="none" stroke="midnightblue" d="M252.715,-64.5C261.167,-64.5 269.648,-64.5 277.832,-64.5"/>
<polygon fill="midnightblue" stroke="midnightblue" points="252.442,-61.0001 242.442,-64.5 252.442,-68.0001 252.442,-61.0001"/>
</g>
<!-- Node5 -->
<g id="node5" class="node"><title>Node5</title>
<g id="a_node5"><a xlink:href="../../d1/d4b/classIG_1_1Lib_1_1TemporaryInterfaceInvAn__Temp__For__Testing.html" target="_top" xlink:title="Interface for Inverse Interpreter.">
<polygon fill="white" stroke="black" points="278,-0.5 278,-30.5 406,-30.5 406,-0.5 278,-0.5"/>
<text text-anchor="start" x="286" y="-18.5" font-family="Helvetica,sans-Serif" font-size="10.00">IG.Lib.TemporaryInterface</text>
<text text-anchor="middle" x="342" y="-7.5" font-family="Helvetica,sans-Serif" font-size="10.00">InvAn_Temp_For_Testing</text>
</a>
</g>
</g>
<!-- Node1&#45;&gt;Node5 -->
<g id="edge4" class="edge"><title>Node1&#45;&gt;Node5</title>
<path fill="none" stroke="midnightblue" d="M212.406,-52.1343C235.436,-45.5735 263.917,-37.4597 288.217,-30.537"/>
<polygon fill="midnightblue" stroke="midnightblue" points="211.23,-48.83 202.572,-54.936 213.148,-55.5622 211.23,-48.83"/>
</g>
<!-- Node2 -->
<g id="node2" class="node"><title>Node2</title>
<g id="a_node2"><a xlink:href="../../d3/db6/interfaceIG_1_1Lib_1_1ILockable.html" target="_top" xlink:title="Lockable object, has a Lock property that returns object on which lock must be performed in order to ...">
<polygon fill="white" stroke="black" points="0,-55 0,-74 58,-74 58,-55 0,-55"/>
<text text-anchor="middle" x="29" y="-62" font-family="Helvetica,sans-Serif" font-size="10.00">ILockable</text>
</a>
</g>
</g>
<!-- Node2&#45;&gt;Node1 -->
<g id="edge1" class="edge"><title>Node2&#45;&gt;Node1</title>
<path fill="none" stroke="midnightblue" d="M68.2213,-64.5C76.3019,-64.5 85.0863,-64.5 93.9727,-64.5"/>
<polygon fill="midnightblue" stroke="midnightblue" points="68.0546,-61.0001 58.0546,-64.5 68.0546,-68.0001 68.0546,-61.0001"/>
</g>
</g>
</svg>
