<?xml version="1.0" encoding="UTF-8" standalone="no"?>
<!DOCTYPE svg PUBLIC "-//W3C//DTD SVG 1.1//EN"
 "http://www.w3.org/Graphics/SVG/1.1/DTD/svg11.dtd">
<!-- Generated by graphviz version 2.38.0 (20140413.2041)
 -->
<!-- Title: IG.Web.WebServiceLauncher&lt; ServiceType &gt; Pages: 1 -->
<svg width="471pt" height="385pt"
 viewBox="0.00 0.00 471.00 385.00" xmlns="http://www.w3.org/2000/svg" xmlns:xlink="http://www.w3.org/1999/xlink">
<g id="graph0" class="graph" transform="scale(1 1) rotate(0) translate(4 381)">
<title>IG.Web.WebServiceLauncher&lt; ServiceType &gt;</title>
<polygon fill="white" stroke="none" points="-4,4 -4,-381 467,-381 467,4 -4,4"/>
<!-- Node1 -->
<g id="node1" class="node"><title>Node1</title>
<g id="a_node1"><a xlink:title="Generic class for launching web services.">
<polygon fill="#bfbfbf" stroke="black" points="96,-0.5 96,-30.5 240,-30.5 240,-0.5 96,-0.5"/>
<text text-anchor="start" x="104" y="-18.5" font-family="Helvetica,sans-Serif" font-size="10.00">IG.Web.WebServiceLauncher</text>
<text text-anchor="middle" x="168" y="-7.5" font-family="Helvetica,sans-Serif" font-size="10.00">&lt; ServiceType &gt;</text>
</a>
</g>
</g>
<!-- Node2 -->
<g id="node2" class="node"><title>Node2</title>
<g id="a_node2"><a xlink:href="../../d3/db6/interfaceIG_1_1Lib_1_1ILockable.html" target="_top" xlink:title="Lockable object, has a Lock property that returns object on which lock must be performed in order to ...">
<polygon fill="white" stroke="black" points="50,-357.5 50,-376.5 108,-376.5 108,-357.5 50,-357.5"/>
<text text-anchor="middle" x="79" y="-364.5" font-family="Helvetica,sans-Serif" font-size="10.00">ILockable</text>
</a>
</g>
</g>
<!-- Node2&#45;&gt;Node1 -->
<g id="edge1" class="edge"><title>Node2&#45;&gt;Node1</title>
<path fill="none" stroke="midnightblue" d="M40.1907,-354.835C20.2132,-346.461 0,-332.64 0,-311 0,-311 0,-311 0,-87 0,-42.717 50.2441,-25.7839 95.7779,-19.5306"/>
<polygon fill="midnightblue" stroke="midnightblue" points="38.9924,-358.124 49.5833,-358.413 41.4846,-351.583 38.9924,-358.124"/>
</g>
<!-- Node3 -->
<g id="node3" class="node"><title>Node3</title>
<g id="a_node3"><a xlink:href="../../da/d67/classIG_1_1Lib_1_1WaitCondition.html" target="_top" xlink:title="Provides a framework for blocking execution until the specified condition becomes satisfied....">
<polygon fill="white" stroke="black" points="115,-78.5 115,-97.5 221,-97.5 221,-78.5 115,-78.5"/>
<text text-anchor="middle" x="168" y="-85.5" font-family="Helvetica,sans-Serif" font-size="10.00">IG.Lib.WaitCondition</text>
</a>
</g>
</g>
<!-- Node2&#45;&gt;Node3 -->
<g id="edge8" class="edge"><title>Node2&#45;&gt;Node3</title>
<path fill="none" stroke="midnightblue" d="M71.2783,-347.917C59.1426,-316.792 38.7745,-251.48 57,-200 73.0302,-154.721 89.0627,-147.87 125,-116 133.046,-108.865 143.189,-102.398 151.603,-97.5835"/>
<polygon fill="midnightblue" stroke="midnightblue" points="68.1363,-349.481 75.1508,-357.421 74.6189,-346.84 68.1363,-349.481"/>
</g>
<!-- Node4 -->
<g id="node4" class="node"><title>Node4</title>
<g id="a_node4"><a xlink:href="../../df/dea/classIG_1_1Lib_1_1WaitConditionBase.html" target="_top" xlink:title="Base class for objects that perform waiting until a condition is fulfilled.">
<polygon fill="white" stroke="black" points="66,-200.5 66,-219.5 166,-219.5 166,-200.5 66,-200.5"/>
<text text-anchor="middle" x="116" y="-207.5" font-family="Helvetica,sans-Serif" font-size="10.00">WaitConditionBase</text>
</a>
</g>
</g>
<!-- Node2&#45;&gt;Node4 -->
<g id="edge6" class="edge"><title>Node2&#45;&gt;Node4</title>
<path fill="none" stroke="midnightblue" d="M83.464,-347.3C91.4997,-313.636 108.105,-244.074 113.928,-219.681"/>
<polygon fill="midnightblue" stroke="midnightblue" points="80.0129,-346.683 81.0953,-357.222 86.8216,-348.308 80.0129,-346.683"/>
</g>
<!-- Node5 -->
<g id="node5" class="node"><title>Node5</title>
<g id="a_node5"><a xlink:href="../../de/d1e/interfaceIG_1_1Lib_1_1IWaitCondition.html" target="_top" xlink:title="Interface for classes that implement blocking until a specified condition is met.">
<polygon fill="white" stroke="black" points="107,-300.5 107,-319.5 187,-319.5 187,-300.5 107,-300.5"/>
<text text-anchor="middle" x="147" y="-307.5" font-family="Helvetica,sans-Serif" font-size="10.00">IWaitCondition</text>
</a>
</g>
</g>
<!-- Node2&#45;&gt;Node5 -->
<g id="edge5" class="edge"><title>Node2&#45;&gt;Node5</title>
<path fill="none" stroke="midnightblue" d="M97.5476,-350.998C109.956,-340.962 125.853,-328.104 136.225,-319.715"/>
<polygon fill="midnightblue" stroke="midnightblue" points="95.1991,-348.396 89.625,-357.406 99.6012,-353.839 95.1991,-348.396"/>
</g>
<!-- Node6 -->
<g id="node6" class="node"><title>Node6</title>
<g id="a_node6"><a xlink:href="../../de/de7/classIG_1_1Lib_1_1StopWatch1.html" target="_top" xlink:title="Timer for measuring execution times and other intervals of time elapsed between successive events....">
<polygon fill="white" stroke="black" points="222.5,-200.5 222.5,-219.5 321.5,-219.5 321.5,-200.5 222.5,-200.5"/>
<text text-anchor="middle" x="272" y="-207.5" font-family="Helvetica,sans-Serif" font-size="10.00">IG.Lib.StopWatch1</text>
</a>
</g>
</g>
<!-- Node2&#45;&gt;Node6 -->
<g id="edge10" class="edge"><title>Node2&#45;&gt;Node6</title>
<path fill="none" stroke="midnightblue" d="M118.295,-356.804C142.526,-349.7 173.215,-337.987 196,-320 232.577,-291.126 258.75,-239.953 268.164,-219.649"/>
<polygon fill="midnightblue" stroke="midnightblue" points="117.043,-353.519 108.347,-359.571 118.919,-360.263 117.043,-353.519"/>
</g>
<!-- Node3&#45;&gt;Node1 -->
<g id="edge2" class="edge"><title>Node3&#45;&gt;Node1</title>
<path fill="none" stroke="#9a32cd" stroke-dasharray="5,2" d="M168,-68.2362C168,-56.4079 168,-41.3829 168,-30.5762"/>
<polygon fill="#9a32cd" stroke="#9a32cd" points="164.5,-68.3553 168,-78.3553 171.5,-68.3554 164.5,-68.3553"/>
<text text-anchor="middle" x="185" y="-52" font-family="Helvetica,sans-Serif" font-size="10.00"> _waiter</text>
</g>
<!-- Node4&#45;&gt;Node3 -->
<g id="edge3" class="edge"><title>Node4&#45;&gt;Node3</title>
<path fill="none" stroke="midnightblue" d="M123.864,-190.851C135.254,-164.568 155.894,-116.936 164.294,-97.5519"/>
<polygon fill="midnightblue" stroke="midnightblue" points="120.504,-189.803 119.74,-200.37 126.927,-192.586 120.504,-189.803"/>
</g>
<!-- Node5&#45;&gt;Node3 -->
<g id="edge7" class="edge"><title>Node5&#45;&gt;Node3</title>
<path fill="none" stroke="midnightblue" d="M154.546,-290.758C161.44,-273.037 171.131,-245.191 175,-220 182.019,-174.302 173.505,-118.705 169.678,-97.6437"/>
<polygon fill="midnightblue" stroke="midnightblue" points="151.166,-289.785 150.692,-300.369 157.663,-292.39 151.166,-289.785"/>
</g>
<!-- Node5&#45;&gt;Node4 -->
<g id="edge4" class="edge"><title>Node5&#45;&gt;Node4</title>
<path fill="none" stroke="midnightblue" d="M141.152,-290.514C134.43,-269.263 123.684,-235.292 118.701,-219.537"/>
<polygon fill="midnightblue" stroke="midnightblue" points="137.896,-291.824 144.249,-300.303 144.57,-289.713 137.896,-291.824"/>
</g>
<!-- Node6&#45;&gt;Node3 -->
<g id="edge9" class="edge"><title>Node6&#45;&gt;Node3</title>
<path fill="none" stroke="#9a32cd" stroke-dasharray="5,2" d="M262.565,-191.383C251.356,-171.525 231.223,-139.015 208,-116 200.74,-108.805 191.315,-102.335 183.438,-97.5343"/>
<polygon fill="#9a32cd" stroke="#9a32cd" points="259.563,-193.188 267.454,-200.258 265.695,-189.81 259.563,-193.188"/>
<text text-anchor="middle" x="272.5" y="-146.5" font-family="Helvetica,sans-Serif" font-size="10.00"> _timer</text>
</g>
<!-- Node7 -->
<g id="node7" class="node"><title>Node7</title>
<g id="a_node7"><a xlink:href="../../dc/d79/interfaceIG_1_1Lib_1_1IIdentifiable.html" target="_top" xlink:title="Classes whose instances have unique integer IDs.">
<polygon fill="white" stroke="black" points="247.5,-300.5 247.5,-319.5 312.5,-319.5 312.5,-300.5 247.5,-300.5"/>
<text text-anchor="middle" x="280" y="-307.5" font-family="Helvetica,sans-Serif" font-size="10.00">IIdentifiable</text>
</a>
</g>
</g>
<!-- Node7&#45;&gt;Node6 -->
<g id="edge11" class="edge"><title>Node7&#45;&gt;Node6</title>
<path fill="none" stroke="midnightblue" d="M278.467,-290.22C276.731,-268.951 273.977,-235.22 272.697,-219.537"/>
<polygon fill="midnightblue" stroke="midnightblue" points="274.988,-290.621 279.29,-300.303 281.965,-290.052 274.988,-290.621"/>
</g>
<!-- Node8 -->
<g id="node8" class="node"><title>Node8</title>
<g id="a_node8"><a xlink:title=" ">
<polygon fill="white" stroke="#bfbfbf" points="344.5,-300.5 344.5,-319.5 385.5,-319.5 385.5,-300.5 344.5,-300.5"/>
<text text-anchor="middle" x="365" y="-307.5" font-family="Helvetica,sans-Serif" font-size="10.00">static</text>
</a>
</g>
</g>
<!-- Node8&#45;&gt;Node1 -->
<g id="edge13" class="edge"><title>Node8&#45;&gt;Node1</title>
<path fill="none" stroke="#9a32cd" stroke-dasharray="5,2" d="M368.109,-290.296C369.85,-275.76 370.819,-255.237 366,-238 348.925,-176.925 333.812,-163.681 292,-116 261.063,-80.7203 216.533,-48.419 190.106,-30.6981"/>
<polygon fill="#9a32cd" stroke="#9a32cd" points="364.601,-290.098 366.642,-300.494 371.53,-291.095 364.601,-290.098"/>
<text text-anchor="middle" x="404" y="-174" font-family="Helvetica,sans-Serif" font-size="10.00"> DefaultBaseUrl</text>
<text text-anchor="middle" x="404" y="-163" font-family="Helvetica,sans-Serif" font-size="10.00">DefaultMaxRelativeLatency</text>
<text text-anchor="middle" x="404" y="-152" font-family="Helvetica,sans-Serif" font-size="10.00">DefaultMaxSleepMs</text>
<text text-anchor="middle" x="404" y="-141" font-family="Helvetica,sans-Serif" font-size="10.00">DefaultMinSleepMs</text>
<text text-anchor="middle" x="404" y="-130" font-family="Helvetica,sans-Serif" font-size="10.00">DefaultSleepFirst</text>
<text text-anchor="middle" x="404" y="-119" font-family="Helvetica,sans-Serif" font-size="10.00">DefaultOutputLevel</text>
</g>
<!-- Node8&#45;&gt;Node6 -->
<g id="edge12" class="edge"><title>Node8&#45;&gt;Node6</title>
<path fill="none" stroke="#9a32cd" stroke-dasharray="5,2" d="M334.935,-299.941C324.801,-295.746 314.037,-289.898 306,-282 301.175,-277.258 283.475,-237.379 275.702,-219.552"/>
<polygon fill="#9a32cd" stroke="#9a32cd" points="333.755,-303.236 344.347,-303.468 336.211,-296.681 333.755,-303.236"/>
<text text-anchor="middle" x="336" y="-274" font-family="Helvetica,sans-Serif" font-size="10.00"> lastId</text>
<text text-anchor="middle" x="336" y="-263" font-family="Helvetica,sans-Serif" font-size="10.00">_staticLock</text>
<text text-anchor="middle" x="336" y="-252" font-family="Helvetica,sans-Serif" font-size="10.00">numWarnCpu</text>
<text text-anchor="middle" x="336" y="-241" font-family="Helvetica,sans-Serif" font-size="10.00">MaxWarnCpu</text>
</g>
</g>
</svg>
