<?xml version="1.0" encoding="UTF-8" standalone="no"?>
<!DOCTYPE svg PUBLIC "-//W3C//DTD SVG 1.1//EN"
 "http://www.w3.org/Graphics/SVG/1.1/DTD/svg11.dtd">
<!-- Generated by graphviz version 2.38.0 (20140413.2041)
 -->
<!-- Title: IG.App.TadejFormOldObsolete Pages: 1 -->
<svg width="197pt" height="205pt"
 viewBox="0.00 0.00 196.50 205.00" xmlns="http://www.w3.org/2000/svg" xmlns:xlink="http://www.w3.org/1999/xlink">
<g id="graph0" class="graph" transform="scale(1 1) rotate(0) translate(4 201)">
<title>IG.App.TadejFormOldObsolete</title>
<polygon fill="white" stroke="none" points="-4,4 -4,-201 192.5,-201 192.5,4 -4,4"/>
<!-- Node1 -->
<g id="node1" class="node"><title>Node1</title>
<g id="a_node1"><a xlink:title="GUI Form for training neural networks.">
<polygon fill="#bfbfbf" stroke="black" points="0,-0.5 0,-19.5 149,-19.5 149,-0.5 0,-0.5"/>
<text text-anchor="middle" x="74.5" y="-7.5" font-family="Helvetica,sans-Serif" font-size="10.00">IG.App.TadejFormOldObsolete</text>
</a>
</g>
</g>
<!-- Node2 -->
<g id="node2" class="node"><title>Node2</title>
<g id="a_node2"><a xlink:title=" ">
<polygon fill="white" stroke="#bfbfbf" points="24,-177.5 24,-196.5 63,-196.5 63,-177.5 24,-177.5"/>
<text text-anchor="middle" x="43.5" y="-184.5" font-family="Helvetica,sans-Serif" font-size="10.00">Form</text>
</a>
</g>
</g>
<!-- Node2&#45;&gt;Node1 -->
<g id="edge1" class="edge"><title>Node2&#45;&gt;Node1</title>
<path fill="none" stroke="midnightblue" d="M46.8744,-166.951C53.5445,-129.297 68.1842,-46.6537 72.9601,-19.6932"/>
<polygon fill="midnightblue" stroke="midnightblue" points="43.3779,-166.624 45.0799,-177.081 50.2706,-167.845 43.3779,-166.624"/>
</g>
<!-- Node3 -->
<g id="node3" class="node"><title>Node3</title>
<g id="a_node3"><a xlink:title=" ">
<polygon fill="white" stroke="#bfbfbf" points="81.5,-177.5 81.5,-196.5 131.5,-196.5 131.5,-177.5 81.5,-177.5"/>
<text text-anchor="middle" x="106.5" y="-184.5" font-family="Helvetica,sans-Serif" font-size="10.00">System</text>
</a>
</g>
</g>
<!-- Node3&#45;&gt;Node1 -->
<g id="edge2" class="edge"><title>Node3&#45;&gt;Node1</title>
<path fill="none" stroke="#9a32cd" stroke-dasharray="5,2" d="M103.017,-166.951C96.1315,-129.297 81.0195,-46.6537 76.0896,-19.6932"/>
<polygon fill="#9a32cd" stroke="#9a32cd" points="99.6274,-167.874 104.869,-177.081 106.513,-166.615 99.6274,-167.874"/>
<text text-anchor="middle" x="145" y="-151" font-family="Helvetica,sans-Serif" font-size="10.00"> tbSavePath</text>
<text text-anchor="middle" x="145" y="-140" font-family="Helvetica,sans-Serif" font-size="10.00">numStandardDev</text>
<text text-anchor="middle" x="145" y="-129" font-family="Helvetica,sans-Serif" font-size="10.00">labTollerance</text>
<text text-anchor="middle" x="145" y="-118" font-family="Helvetica,sans-Serif" font-size="10.00">labAlphaValue</text>
<text text-anchor="middle" x="145" y="-107" font-family="Helvetica,sans-Serif" font-size="10.00">numMaxEpoch</text>
<text text-anchor="middle" x="145" y="-96" font-family="Helvetica,sans-Serif" font-size="10.00">numLearningRate</text>
<text text-anchor="middle" x="145" y="-85" font-family="Helvetica,sans-Serif" font-size="10.00">progressBarTraining</text>
<text text-anchor="middle" x="145" y="-74" font-family="Helvetica,sans-Serif" font-size="10.00">tbTrainingTime</text>
<text text-anchor="middle" x="145" y="-63" font-family="Helvetica,sans-Serif" font-size="10.00">cbxZeroData</text>
<text text-anchor="middle" x="145" y="-52" font-family="Helvetica,sans-Serif" font-size="10.00">tbInputPar</text>
<text text-anchor="middle" x="145" y="-41" font-family="Helvetica,sans-Serif" font-size="10.00">...</text>
</g>
</g>
</svg>
