<?xml version="1.0" encoding="UTF-8" standalone="no"?>
<!DOCTYPE svg PUBLIC "-//W3C//DTD SVG 1.1//EN"
 "http://www.w3.org/Graphics/SVG/1.1/DTD/svg11.dtd">
<!-- Generated by graphviz version 2.38.0 (20140413.2041)
 -->
<!-- Title: Test.IDeviateGenerator Pages: 1 -->
<svg width="314pt" height="301pt"
 viewBox="0.00 0.00 314.00 301.00" xmlns="http://www.w3.org/2000/svg" xmlns:xlink="http://www.w3.org/1999/xlink">
<g id="graph0" class="graph" transform="scale(1 1) rotate(0) translate(4 297)">
<title>Test.IDeviateGenerator</title>
<polygon fill="white" stroke="none" points="-4,4 -4,-297 310,-297 310,4 -4,4"/>
<!-- Node1 -->
<g id="node1" class="node"><title>Node1</title>
<g id="a_node1"><a xlink:title=" ">
<polygon fill="#bfbfbf" stroke="black" points="0,-148 0,-167 115,-167 115,-148 0,-148"/>
<text text-anchor="middle" x="57.5" y="-155" font-family="Helvetica,sans-Serif" font-size="10.00">Test.IDeviateGenerator</text>
</a>
</g>
</g>
<!-- Node2 -->
<g id="node2" class="node"><title>Node2</title>
<g id="a_node2"><a xlink:href="../../db/d7b/classTest_1_1AhrensDieterLowAlphaGammaGenerator.html" target="_top" xlink:title=" ">
<polygon fill="white" stroke="black" points="160,-262.5 160,-292.5 297,-292.5 297,-262.5 160,-262.5"/>
<text text-anchor="start" x="168" y="-280.5" font-family="Helvetica,sans-Serif" font-size="10.00">Test.AhrensDieterLowAlpha</text>
<text text-anchor="middle" x="228.5" y="-269.5" font-family="Helvetica,sans-Serif" font-size="10.00">GammaGenerator</text>
</a>
</g>
</g>
<!-- Node1&#45;&gt;Node2 -->
<g id="edge1" class="edge"><title>Node1&#45;&gt;Node2</title>
<path fill="none" stroke="midnightblue" d="M71.3792,-175.219C87.6751,-196.443 117.666,-231.726 151,-252.5 157.166,-256.343 163.984,-259.656 170.934,-262.496"/>
<polygon fill="midnightblue" stroke="midnightblue" points="74.0646,-172.966 65.2639,-167.067 68.4651,-177.167 74.0646,-172.966"/>
</g>
<!-- Node3 -->
<g id="node3" class="node"><title>Node3</title>
<g id="a_node3"><a xlink:href="../../d9/dfc/classTest_1_1BoxMullerNormalGenerator.html" target="_top" xlink:title=" ">
<polygon fill="white" stroke="black" points="151,-224 151,-243 306,-243 306,-224 151,-224"/>
<text text-anchor="middle" x="228.5" y="-231" font-family="Helvetica,sans-Serif" font-size="10.00">Test.BoxMullerNormalGenerator</text>
</a>
</g>
</g>
<!-- Node1&#45;&gt;Node3 -->
<g id="edge2" class="edge"><title>Node1&#45;&gt;Node3</title>
<path fill="none" stroke="midnightblue" d="M79.882,-173.336C97.9962,-186.082 125.085,-203.609 151,-214.5 159.957,-218.264 169.83,-221.402 179.422,-223.971"/>
<polygon fill="midnightblue" stroke="midnightblue" points="81.447,-170.152 71.2812,-167.167 77.367,-175.84 81.447,-170.152"/>
</g>
<!-- Node4 -->
<g id="node4" class="node"><title>Node4</title>
<g id="a_node4"><a xlink:href="../../dd/d84/classTest_1_1CauchyGenerator.html" target="_top" xlink:title=" ">
<polygon fill="white" stroke="black" points="171.5,-186 171.5,-205 285.5,-205 285.5,-186 171.5,-186"/>
<text text-anchor="middle" x="228.5" y="-193" font-family="Helvetica,sans-Serif" font-size="10.00">Test.CauchyGenerator</text>
</a>
</g>
</g>
<!-- Node1&#45;&gt;Node4 -->
<g id="edge3" class="edge"><title>Node1&#45;&gt;Node4</title>
<path fill="none" stroke="midnightblue" d="M111.087,-169.324C134.913,-174.682 162.707,-180.931 185.161,-185.98"/>
<polygon fill="midnightblue" stroke="midnightblue" points="111.67,-165.868 101.146,-167.089 110.134,-172.698 111.67,-165.868"/>
</g>
<!-- Node5 -->
<g id="node5" class="node"><title>Node5</title>
<g id="a_node5"><a xlink:href="../../d2/db3/classTest_1_1LevaNormalGenerator.html" target="_top" xlink:title=" ">
<polygon fill="white" stroke="black" points="163,-148 163,-167 294,-167 294,-148 163,-148"/>
<text text-anchor="middle" x="228.5" y="-155" font-family="Helvetica,sans-Serif" font-size="10.00">Test.LevaNormalGenerator</text>
</a>
</g>
</g>
<!-- Node1&#45;&gt;Node5 -->
<g id="edge4" class="edge"><title>Node1&#45;&gt;Node5</title>
<path fill="none" stroke="midnightblue" d="M125.421,-157.5C137.709,-157.5 150.517,-157.5 162.741,-157.5"/>
<polygon fill="midnightblue" stroke="midnightblue" points="125.245,-154 115.245,-157.5 125.245,-161 125.245,-154"/>
</g>
<!-- Node6 -->
<g id="node6" class="node"><title>Node6</title>
<g id="a_node6"><a xlink:href="../../d7/d70/classTest_1_1MarsagliaTsangGammaGenerator.html" target="_top" xlink:title=" ">
<polygon fill="white" stroke="black" points="158,-98.5 158,-128.5 299,-128.5 299,-98.5 158,-98.5"/>
<text text-anchor="start" x="166" y="-116.5" font-family="Helvetica,sans-Serif" font-size="10.00">Test.MarsagliaTsangGamma</text>
<text text-anchor="middle" x="228.5" y="-105.5" font-family="Helvetica,sans-Serif" font-size="10.00">Generator</text>
</a>
</g>
</g>
<!-- Node1&#45;&gt;Node6 -->
<g id="edge5" class="edge"><title>Node1&#45;&gt;Node6</title>
<path fill="none" stroke="midnightblue" d="M104.965,-145.403C124.953,-140.199 148.529,-134.061 169.635,-128.565"/>
<polygon fill="midnightblue" stroke="midnightblue" points="103.966,-142.046 95.1705,-147.953 105.73,-148.82 103.966,-142.046"/>
</g>
<!-- Node7 -->
<g id="node7" class="node"><title>Node7</title>
<g id="a_node7"><a xlink:href="../../d1/d13/classTest_1_1PolarRejectionNormalDeviateGenerator.html" target="_top" xlink:title=" ">
<polygon fill="white" stroke="black" points="162.5,-49.5 162.5,-79.5 294.5,-79.5 294.5,-49.5 162.5,-49.5"/>
<text text-anchor="start" x="170.5" y="-67.5" font-family="Helvetica,sans-Serif" font-size="10.00">Test.PolarRejectionNormal</text>
<text text-anchor="middle" x="228.5" y="-56.5" font-family="Helvetica,sans-Serif" font-size="10.00">DeviateGenerator</text>
</a>
</g>
</g>
<!-- Node1&#45;&gt;Node7 -->
<g id="edge6" class="edge"><title>Node1&#45;&gt;Node7</title>
<path fill="none" stroke="midnightblue" d="M77.0184,-141.104C94.9004,-125.973 123.276,-103.754 151,-89.5 158.207,-85.7945 166.076,-82.4848 173.935,-79.5818"/>
<polygon fill="midnightblue" stroke="midnightblue" points="74.4248,-138.719 69.1318,-147.897 78.993,-144.023 74.4248,-138.719"/>
</g>
<!-- Node8 -->
<g id="node8" class="node"><title>Node8</title>
<g id="a_node8"><a xlink:href="../../d6/d67/classTest_1_1RatioOfUniformsNormalGenerator.html" target="_top" xlink:title=" ">
<polygon fill="white" stroke="black" points="158.5,-0.5 158.5,-30.5 298.5,-30.5 298.5,-0.5 158.5,-0.5"/>
<text text-anchor="start" x="166.5" y="-18.5" font-family="Helvetica,sans-Serif" font-size="10.00">Test.RatioOfUniformsNormal</text>
<text text-anchor="middle" x="228.5" y="-7.5" font-family="Helvetica,sans-Serif" font-size="10.00">Generator</text>
</a>
</g>
</g>
<!-- Node1&#45;&gt;Node8 -->
<g id="edge7" class="edge"><title>Node1&#45;&gt;Node8</title>
<path fill="none" stroke="midnightblue" d="M68.4416,-138.975C83.1625,-113.248 113.142,-66.8942 151,-40.5 156.502,-36.6643 162.63,-33.3881 168.956,-30.5964"/>
<polygon fill="midnightblue" stroke="midnightblue" points="65.3678,-137.301 63.5621,-147.741 71.4841,-140.706 65.3678,-137.301"/>
</g>
</g>
</svg>
