<?xml version="1.0" encoding="UTF-8" standalone="no"?>
<!DOCTYPE svg PUBLIC "-//W3C//DTD SVG 1.1//EN"
 "http://www.w3.org/Graphics/SVG/1.1/DTD/svg11.dtd">
<!-- Generated by graphviz version 2.38.0 (20140413.2041)
 -->
<!-- Title: NUnit.Framework.Constraints.EqualityAdapter.GenericEqualityAdapter&lt; T &gt; Pages: 1 -->
<svg width="530pt" height="149pt"
 viewBox="0.00 0.00 530.00 148.50" xmlns="http://www.w3.org/2000/svg" xmlns:xlink="http://www.w3.org/1999/xlink">
<g id="graph0" class="graph" transform="scale(1 1) rotate(0) translate(4 144.5)">
<title>NUnit.Framework.Constraints.EqualityAdapter.GenericEqualityAdapter&lt; T &gt;</title>
<polygon fill="white" stroke="none" points="-4,4 -4,-144.5 526,-144.5 526,4 -4,4"/>
<!-- Node1 -->
<g id="node1" class="node"><title>Node1</title>
<g id="a_node1"><a xlink:title=" ">
<polygon fill="#bfbfbf" stroke="black" points="122,-55.5 122,-96.5 280,-96.5 280,-55.5 122,-55.5"/>
<text text-anchor="start" x="130" y="-84.5" font-family="Helvetica,sans-Serif" font-size="10.00">NUnit.Framework.Constraints.</text>
<text text-anchor="start" x="130" y="-73.5" font-family="Helvetica,sans-Serif" font-size="10.00">EqualityAdapter.GenericEquality</text>
<text text-anchor="middle" x="201" y="-62.5" font-family="Helvetica,sans-Serif" font-size="10.00">Adapter&lt; T &gt;</text>
</a>
</g>
</g>
<!-- Node3 -->
<g id="node3" class="node"><title>Node3</title>
<g id="a_node3"><a xlink:href="../../d0/d81/classNUnit_1_1Framework_1_1Constraints_1_1EqualityAdapter_1_1ComparerAdapter.html" target="_top" xlink:title="EqualityAdapter that wraps an IComparer.">
<polygon fill="white" stroke="black" points="320.5,-110 320.5,-140 517.5,-140 517.5,-110 320.5,-110"/>
<text text-anchor="start" x="328.5" y="-128" font-family="Helvetica,sans-Serif" font-size="10.00">NUnit::Framework::Constraints</text>
<text text-anchor="middle" x="419" y="-117" font-family="Helvetica,sans-Serif" font-size="10.00">::EqualityAdapter::ComparerAdapter&lt; T &gt;</text>
</a>
</g>
</g>
<!-- Node1&#45;&gt;Node3 -->
<g id="edge2" class="edge"><title>Node1&#45;&gt;Node3</title>
<path fill="none" stroke="midnightblue" d="M290.274,-96.0251C310.808,-100.683 332.327,-105.565 351.724,-109.965"/>
<polygon fill="midnightblue" stroke="midnightblue" points="290.813,-92.5585 280.286,-93.7594 289.264,-99.3851 290.813,-92.5585"/>
</g>
<!-- Node4 -->
<g id="node4" class="node"><title>Node4</title>
<g id="a_node4"><a xlink:href="../../db/d9e/classNUnit_1_1Framework_1_1Constraints_1_1EqualityAdapter_1_1ComparisonAdapter.html" target="_top" xlink:title=" ">
<polygon fill="white" stroke="black" points="316,-61 316,-91 522,-91 522,-61 316,-61"/>
<text text-anchor="start" x="324" y="-79" font-family="Helvetica,sans-Serif" font-size="10.00">NUnit::Framework::Constraints</text>
<text text-anchor="middle" x="419" y="-68" font-family="Helvetica,sans-Serif" font-size="10.00">::EqualityAdapter::ComparisonAdapter&lt; T &gt;</text>
</a>
</g>
</g>
<!-- Node1&#45;&gt;Node4 -->
<g id="edge3" class="edge"><title>Node1&#45;&gt;Node4</title>
<path fill="none" stroke="midnightblue" d="M290.447,-76C298.855,-76 307.427,-76 315.95,-76"/>
<polygon fill="midnightblue" stroke="midnightblue" points="290.286,-72.5001 280.286,-76 290.286,-79.5001 290.286,-72.5001"/>
</g>
<!-- Node5 -->
<g id="node5" class="node"><title>Node5</title>
<g id="a_node5"><a xlink:href="../../d2/dda/classNUnit_1_1Framework_1_1Constraints_1_1EqualityAdapter_1_1EqualityComparerAdapter.html" target="_top" xlink:title=" ">
<polygon fill="white" stroke="black" points="331.5,-0.5 331.5,-41.5 506.5,-41.5 506.5,-0.5 331.5,-0.5"/>
<text text-anchor="start" x="339.5" y="-29.5" font-family="Helvetica,sans-Serif" font-size="10.00">NUnit::Framework::Constraints</text>
<text text-anchor="start" x="339.5" y="-18.5" font-family="Helvetica,sans-Serif" font-size="10.00">::EqualityAdapter::EqualityComparer</text>
<text text-anchor="middle" x="419" y="-7.5" font-family="Helvetica,sans-Serif" font-size="10.00">Adapter&lt; T &gt;</text>
</a>
</g>
</g>
<!-- Node1&#45;&gt;Node5 -->
<g id="edge4" class="edge"><title>Node1&#45;&gt;Node5</title>
<path fill="none" stroke="midnightblue" d="M290.418,-53.4861C305.981,-49.5233 322.105,-45.4177 337.439,-41.5133"/>
<polygon fill="midnightblue" stroke="midnightblue" points="289.113,-50.2066 280.286,-56.066 290.841,-56.9901 289.113,-50.2066"/>
</g>
<!-- Node2 -->
<g id="node2" class="node"><title>Node2</title>
<g id="a_node2"><a xlink:href="../../da/d28/classNUnit_1_1Framework_1_1Constraints_1_1EqualityAdapter.html" target="_top" xlink:title="EqualityAdapter class handles all equality comparisons that use an IEqualityComparer,...">
<polygon fill="white" stroke="black" points="0,-66.5 0,-85.5 86,-85.5 86,-66.5 0,-66.5"/>
<text text-anchor="middle" x="43" y="-73.5" font-family="Helvetica,sans-Serif" font-size="10.00">EqualityAdapter</text>
</a>
</g>
</g>
<!-- Node2&#45;&gt;Node1 -->
<g id="edge1" class="edge"><title>Node2&#45;&gt;Node1</title>
<path fill="none" stroke="midnightblue" d="M96.3948,-76C104.637,-76 113.309,-76 121.981,-76"/>
<polygon fill="midnightblue" stroke="midnightblue" points="96.2159,-72.5001 86.2158,-76 96.2158,-79.5001 96.2159,-72.5001"/>
</g>
</g>
</svg>
