<?xml version="1.0" encoding="UTF-8" standalone="no"?>
<!DOCTYPE svg PUBLIC "-//W3C//DTD SVG 1.1//EN"
 "http://www.w3.org/Graphics/SVG/1.1/DTD/svg11.dtd">
<!-- Generated by graphviz version 2.38.0 (20140413.2041)
 -->
<!-- Title: IG.Script.AppMarkoPetekDerivedScriptExt Pages: 1 -->
<!--zoomable 857 -->
<svg id="main" version="1.1" xmlns="http://www.w3.org/2000/svg" xmlns:xlink="http://www.w3.org/1999/xlink" xml:space="preserve" onload="init(evt)">
<style type="text/css"><![CDATA[
.edge:hover path { stroke: red; }
.edge:hover polygon { stroke: red; fill: red; }
]]></style>
<script type="text/javascript"><![CDATA[
var edges = document.getElementsByTagName('g');
if (edges && edges.length) {
  for (var i=0;i<edges.length;i++) {
    if (edges[i].id.substr(0,4)=='edge') {
      edges[i].setAttribute('class','edge');
    }
  }
}
]]></script>
        <defs>
                <circle id="rim" cx="0" cy="0" r="7"/>
                <circle id="rim2" cx="0" cy="0" r="3.5"/>
                <g id="zoomPlus">
                        <use xlink:href="#rim" fill="#404040">
                                <set attributeName="fill" to="#808080" begin="zoomplus.mouseover" end="zoomplus.mouseout"/>
                        </use>
                        <path d="M-4,0h8M0,-4v8" fill="none" stroke="white" stroke-width="1.5" pointer-events="none"/>
                </g>
                <g id="zoomMin">
                        <use xlink:href="#rim" fill="#404040">
                                <set attributeName="fill" to="#808080" begin="zoomminus.mouseover" end="zoomminus.mouseout"/>
                        </use>
                        <path d="M-4,0h8" fill="none" stroke="white" stroke-width="1.5" pointer-events="none"/>
                </g>
                <g id="dirArrow">
                        <path fill="none" stroke="white" stroke-width="1.5" d="M0,-3.0v7 M-2.5,-0.5L0,-3.0L2.5,-0.5"/>
                </g>
               <g id="resetDef">
                       <use xlink:href="#rim2" fill="#404040">
                               <set attributeName="fill" to="#808080" begin="reset.mouseover" end="reset.mouseout"/>
                       </use>
               </g>
        </defs>

<script type="text/javascript">
var viewWidth = 1410;
var viewHeight = 857;
var sectionId = 'dynsection-1';
</script>
<script xlink:href="../../svgpan.js"/>
<svg id="graph" class="graph">
<g id="viewport">
<title>IG.Script.AppMarkoPetekDerivedScriptExt</title>
<polygon fill="white" stroke="none" points="-4,4 -4,-853 1406,-853 1406,4 -4,4"/>
<!-- Node1 -->
<g id="node1" class="node"><title>Node1</title>
<g id="a_node1"><a xlink:title="Tells to the interpreter, which custom classes are available.">
<polygon fill="#bfbfbf" stroke="black" points="1108.5,-0.5 1108.5,-30.5 1267.5,-30.5 1267.5,-0.5 1108.5,-0.5"/>
<text text-anchor="start" x="1116.5" y="-18.5" font-family="Helvetica,sans-Serif" font-size="10.00">IG.Script.AppMarkoPetekDerived</text>
<text text-anchor="middle" x="1188" y="-7.5" font-family="Helvetica,sans-Serif" font-size="10.00">ScriptExt</text>
</a>
</g>
</g>
<!-- Node2 -->
<g id="node2" class="node"><title>Node2</title>
<g id="a_node2"><a xlink:href="../../d0/d8c/classIG_1_1Script_1_1AppMarkoPetekExt.html" target="_top" xlink:title="Internal script for running EXTENDED embedded applications.">
<polygon fill="white" stroke="black" points="1256.5,-68.5 1256.5,-87.5 1357.5,-87.5 1357.5,-68.5 1256.5,-68.5"/>
<text text-anchor="middle" x="1307" y="-75.5" font-family="Helvetica,sans-Serif" font-size="10.00">AppMarkoPetekExt</text>
</a>
</g>
</g>
<!-- Node2&#45;&gt;Node1 -->
<g id="edge1" class="edge"><title>Node2&#45;&gt;Node1</title>
<path fill="none" stroke="midnightblue" d="M1281.08,-63.8227C1261.77,-54.0045 1235.44,-40.6186 1215.71,-30.5885"/>
<polygon fill="midnightblue" stroke="midnightblue" points="1279.7,-67.0481 1290.2,-68.4601 1282.87,-60.8082 1279.7,-67.0481"/>
</g>
<!-- Node3 -->
<g id="node3" class="node"><title>Node3</title>
<g id="a_node3"><a xlink:href="../../dd/d51/classIG_1_1Script_1_1AppMarkoPetek.html" target="_top" xlink:title="Internal script for running embedded applications.">
<polygon fill="white" stroke="black" points="1264,-125.5 1264,-144.5 1350,-144.5 1350,-125.5 1264,-125.5"/>
<text text-anchor="middle" x="1307" y="-132.5" font-family="Helvetica,sans-Serif" font-size="10.00">AppMarkoPetek</text>
</a>
</g>
</g>
<!-- Node3&#45;&gt;Node2 -->
<g id="edge2" class="edge"><title>Node3&#45;&gt;Node2</title>
<path fill="none" stroke="midnightblue" d="M1307,-115.117C1307,-105.817 1307,-95.0557 1307,-87.7149"/>
<polygon fill="midnightblue" stroke="midnightblue" points="1303.5,-115.406 1307,-125.406 1310.5,-115.406 1303.5,-115.406"/>
</g>
<!-- Node4 -->
<g id="node4" class="node"><title>Node4</title>
<g id="a_node4"><a xlink:href="../../d9/d4e/classIG_1_1Script_1_1AppIgorGresovnik.html" target="_top" xlink:title="Internal script for running embedded applications.">
<polygon fill="white" stroke="black" points="1168,-182.5 1168,-201.5 1260,-201.5 1260,-182.5 1168,-182.5"/>
<text text-anchor="middle" x="1214" y="-189.5" font-family="Helvetica,sans-Serif" font-size="10.00">AppIgorGresovnik</text>
</a>
</g>
</g>
<!-- Node4&#45;&gt;Node3 -->
<g id="edge3" class="edge"><title>Node4&#45;&gt;Node3</title>
<path fill="none" stroke="midnightblue" d="M1237.49,-177.11C1254.82,-166.857 1277.87,-153.229 1292.57,-144.533"/>
<polygon fill="midnightblue" stroke="midnightblue" points="1235.36,-174.303 1228.53,-182.406 1238.92,-180.328 1235.36,-174.303"/>
</g>
<!-- Node5 -->
<g id="node5" class="node"><title>Node5</title>
<g id="a_node5"><a xlink:href="../../d0/dec/classIG_1_1Script_1_1AppExtBase.html" target="_top" xlink:title="Internal script for running embedded applications.">
<polygon fill="white" stroke="black" points="965.5,-239.5 965.5,-258.5 1036.5,-258.5 1036.5,-239.5 965.5,-239.5"/>
<text text-anchor="middle" x="1001" y="-246.5" font-family="Helvetica,sans-Serif" font-size="10.00">AppExtBase</text>
</a>
</g>
</g>
<!-- Node5&#45;&gt;Node4 -->
<g id="edge4" class="edge"><title>Node5&#45;&gt;Node4</title>
<path fill="none" stroke="midnightblue" d="M1044.12,-236.865C1084.56,-226.423 1144.16,-211.034 1180.95,-201.533"/>
<polygon fill="midnightblue" stroke="midnightblue" points="1043.09,-233.517 1034.28,-239.406 1044.84,-240.295 1043.09,-233.517"/>
</g>
<!-- Node6 -->
<g id="node6" class="node"><title>Node6</title>
<g id="a_node6"><a xlink:href="../../d5/d63/classIG_1_1Script_1_1AppBase.html" target="_top" xlink:title="Base cls. for application scripts that can also be used on its own.">
<polygon fill="white" stroke="black" points="1030,-306.5 1030,-325.5 1086,-325.5 1086,-306.5 1030,-306.5"/>
<text text-anchor="middle" x="1058" y="-313.5" font-family="Helvetica,sans-Serif" font-size="10.00">AppBase</text>
</a>
</g>
</g>
<!-- Node6&#45;&gt;Node5 -->
<g id="edge5" class="edge"><title>Node6&#45;&gt;Node5</title>
<path fill="none" stroke="midnightblue" d="M1045.81,-297.891C1040.82,-291.194 1034.84,-283.561 1029,-277 1023.25,-270.546 1016.25,-263.796 1010.69,-258.659"/>
<polygon fill="midnightblue" stroke="midnightblue" points="1043.19,-300.237 1051.91,-306.254 1048.84,-296.112 1043.19,-300.237"/>
</g>
<!-- Node7 -->
<g id="node7" class="node"><title>Node7</title>
<g id="a_node7"><a xlink:href="../../db/da4/classIG_1_1Script_1_1ScriptAppBase.html" target="_top" xlink:title="Partial class definition containing tests of CSV utilities.">
<polygon fill="white" stroke="black" points="1067,-373.5 1067,-392.5 1149,-392.5 1149,-373.5 1067,-373.5"/>
<text text-anchor="middle" x="1108" y="-380.5" font-family="Helvetica,sans-Serif" font-size="10.00">ScriptAppBase</text>
</a>
</g>
</g>
<!-- Node7&#45;&gt;Node6 -->
<g id="edge6" class="edge"><title>Node7&#45;&gt;Node6</title>
<path fill="none" stroke="midnightblue" d="M1088.84,-366.614C1085,-363.035 1081.17,-359.072 1078,-355 1070.86,-345.821 1064.99,-333.718 1061.5,-325.663"/>
<polygon fill="midnightblue" stroke="midnightblue" points="1086.71,-369.405 1096.55,-373.337 1091.31,-364.128 1086.71,-369.405"/>
</g>
<!-- Node8 -->
<g id="node8" class="node"><title>Node8</title>
<g id="a_node8"><a xlink:href="../../d7/d66/interfaceIG_1_1Lib_1_1ILoadableScript.html" target="_top" xlink:title="Interface for classes that can be dynamically loadeded from scripts and run, which provides functiona...">
<polygon fill="white" stroke="black" points="1167.5,-373.5 1167.5,-392.5 1250.5,-392.5 1250.5,-373.5 1167.5,-373.5"/>
<text text-anchor="middle" x="1209" y="-380.5" font-family="Helvetica,sans-Serif" font-size="10.00">ILoadableScript</text>
</a>
</g>
</g>
<!-- Node8&#45;&gt;Node1 -->
<g id="edge40" class="edge"><title>Node8&#45;&gt;Node1</title>
<path fill="none" stroke="midnightblue" d="M1199.29,-364.293C1180.29,-327.915 1140,-241.653 1140,-164 1140,-164 1140,-164 1140,-77 1140,-58.0951 1154.56,-41.6618 1167.64,-30.7126"/>
<polygon fill="midnightblue" stroke="midnightblue" points="1196.24,-366.009 1204.04,-373.182 1202.42,-362.712 1196.24,-366.009"/>
</g>
<!-- Node8&#45;&gt;Node2 -->
<g id="edge39" class="edge"><title>Node8&#45;&gt;Node2</title>
<path fill="none" stroke="midnightblue" d="M1261.03,-381.018C1292.66,-378.528 1333,-371.868 1365,-355 1385.85,-344.009 1402,-340.572 1402,-317 1402,-317 1402,-317 1402,-134 1402,-108.844 1376.74,-95.0071 1352.27,-87.505"/>
<polygon fill="midnightblue" stroke="midnightblue" points="1260.4,-377.552 1250.66,-381.711 1260.87,-384.536 1260.4,-377.552"/>
</g>
<!-- Node8&#45;&gt;Node3 -->
<g id="edge37" class="edge"><title>Node8&#45;&gt;Node3</title>
<path fill="none" stroke="midnightblue" d="M1260.51,-380.919C1305.62,-376.902 1364,-362.847 1364,-317 1364,-317 1364,-317 1364,-191 1364,-169.41 1342.56,-153.615 1325.98,-144.628"/>
<polygon fill="midnightblue" stroke="midnightblue" points="1260.25,-377.429 1250.54,-381.668 1260.77,-384.409 1260.25,-377.429"/>
</g>
<!-- Node8&#45;&gt;Node4 -->
<g id="edge36" class="edge"><title>Node8&#45;&gt;Node4</title>
<path fill="none" stroke="midnightblue" d="M1209.5,-363.144C1210.56,-322.998 1213.01,-230.395 1213.77,-201.663"/>
<polygon fill="midnightblue" stroke="midnightblue" points="1205.99,-363.299 1209.23,-373.388 1212.99,-363.484 1205.99,-363.299"/>
</g>
<!-- Node8&#45;&gt;Node5 -->
<g id="edge8" class="edge"><title>Node8&#45;&gt;Node5</title>
<path fill="none" stroke="midnightblue" d="M1167.16,-369.952C1157.13,-366.043 1146.78,-361.099 1138,-355 1114.2,-338.474 1117.13,-324.703 1095,-306 1076.25,-290.156 1069.09,-289.559 1048,-277 1037.49,-270.74 1025.53,-263.876 1016.31,-258.635"/>
<polygon fill="midnightblue" stroke="midnightblue" points="1166.03,-373.265 1176.62,-373.387 1168.42,-366.685 1166.03,-373.265"/>
</g>
<!-- Node8&#45;&gt;Node6 -->
<g id="edge7" class="edge"><title>Node8&#45;&gt;Node6</title>
<path fill="none" stroke="midnightblue" d="M1157.72,-371.213C1135.73,-366.123 1112.85,-360.068 1103,-355 1088.27,-347.419 1074.16,-334.216 1065.79,-325.541"/>
<polygon fill="midnightblue" stroke="midnightblue" points="1157.18,-374.681 1167.71,-373.477 1158.73,-367.854 1157.18,-374.681"/>
</g>
<!-- Node9 -->
<g id="node9" class="node"><title>Node9</title>
<g id="a_node9"><a xlink:href="../../d4/d4e/classIG_1_1Forms_1_1HashAllForm.html" target="_top" xlink:title=" ">
<polygon fill="white" stroke="black" points="893,-306.5 893,-325.5 1009,-325.5 1009,-306.5 893,-306.5"/>
<text text-anchor="middle" x="951" y="-313.5" font-family="Helvetica,sans-Serif" font-size="10.00">IG.Forms.HashAllForm</text>
</a>
</g>
</g>
<!-- Node9&#45;&gt;Node5 -->
<g id="edge9" class="edge"><title>Node9&#45;&gt;Node5</title>
<path fill="none" stroke="#9a32cd" stroke-dasharray="5,2" d="M958.899,-296.878C962.176,-290.307 966.313,-283.024 971,-277 976.336,-270.142 983.541,-263.593 989.553,-258.663"/>
<polygon fill="#9a32cd" stroke="#9a32cd" points="955.544,-295.793 954.502,-306.337 961.892,-298.744 955.544,-295.793"/>
<text text-anchor="middle" x="1000" y="-280" font-family="Helvetica,sans-Serif" font-size="10.00"> hashAllForm</text>
</g>
<!-- Node10 -->
<g id="node10" class="node"><title>Node10</title>
<g id="a_node10"><a xlink:title=" ">
<polygon fill="white" stroke="#bfbfbf" points="55.5,-829.5 55.5,-848.5 94.5,-848.5 94.5,-829.5 55.5,-829.5"/>
<text text-anchor="middle" x="75" y="-836.5" font-family="Helvetica,sans-Serif" font-size="10.00">Form</text>
</a>
</g>
</g>
<!-- Node10&#45;&gt;Node9 -->
<g id="edge10" class="edge"><title>Node10&#45;&gt;Node9</title>
<path fill="none" stroke="midnightblue" d="M73.1934,-819.014C68.1271,-760.957 56.5413,-587.521 95,-551 132.658,-515.24 284.804,-561.828 328,-533 350.815,-517.773 337.942,-498.647 356,-478 390.494,-438.561 404.65,-431.187 453,-411 603.612,-348.117 797.433,-327.01 892.764,-320.153"/>
<polygon fill="midnightblue" stroke="midnightblue" points="69.7365,-819.647 74.1292,-829.288 76.7076,-819.012 69.7365,-819.647"/>
</g>
<!-- Node17 -->
<g id="node17" class="node"><title>Node17</title>
<g id="a_node17"><a xlink:href="../../da/df7/classIG_1_1Forms_1_1HashAboutForm.html" target="_top" xlink:title=" ">
<polygon fill="white" stroke="black" points="239.5,-602 239.5,-621 370.5,-621 370.5,-602 239.5,-602"/>
<text text-anchor="middle" x="305" y="-609" font-family="Helvetica,sans-Serif" font-size="10.00">IG.Forms.HashAboutForm</text>
</a>
</g>
</g>
<!-- Node10&#45;&gt;Node17 -->
<g id="edge20" class="edge"><title>Node10&#45;&gt;Node17</title>
<path fill="none" stroke="midnightblue" d="M104.795,-834.92C136.091,-831.075 182.481,-823.443 195,-811 234.15,-772.088 195.549,-737.889 223,-690 240.437,-659.58 273.58,-633.81 291.94,-621.06"/>
<polygon fill="midnightblue" stroke="midnightblue" points="104.359,-831.447 94.8306,-836.081 105.168,-838.4 104.359,-831.447"/>
</g>
<!-- Node19 -->
<g id="node19" class="node"><title>Node19</title>
<g id="a_node19"><a xlink:href="../../df/d8d/classIG_1_1Forms_1_1HashForm.html" target="_top" xlink:title="A window form to calculate various checksums of selected files or inserted text.">
<polygon fill="white" stroke="black" points="208.5,-373.5 208.5,-392.5 313.5,-392.5 313.5,-373.5 208.5,-373.5"/>
<text text-anchor="middle" x="261" y="-380.5" font-family="Helvetica,sans-Serif" font-size="10.00">IG.Forms.HashForm</text>
</a>
</g>
</g>
<!-- Node10&#45;&gt;Node19 -->
<g id="edge29" class="edge"><title>Node10&#45;&gt;Node19</title>
<path fill="none" stroke="midnightblue" d="M57.8633,-821.422C55.4634,-818.207 53.3563,-814.684 52,-811 12.0447,-702.481 9.3997,-653.986 62,-551 103.235,-470.266 202.396,-413.359 243.101,-392.633"/>
<polygon fill="midnightblue" stroke="midnightblue" points="55.367,-823.884 64.5849,-829.107 60.6361,-819.276 55.367,-823.884"/>
</g>
<!-- Node20 -->
<g id="node20" class="node"><title>Node20</title>
<g id="a_node20"><a xlink:href="../../de/d7e/classIG_1_1Forms_1_1HashDirForm.html" target="_top" xlink:title=" ">
<polygon fill="white" stroke="black" points="104.5,-602 104.5,-621 221.5,-621 221.5,-602 104.5,-602"/>
<text text-anchor="middle" x="163" y="-609" font-family="Helvetica,sans-Serif" font-size="10.00">IG.Forms.HashDirForm</text>
</a>
</g>
</g>
<!-- Node10&#45;&gt;Node20 -->
<g id="edge33" class="edge"><title>Node10&#45;&gt;Node20</title>
<path fill="none" stroke="midnightblue" d="M75.5672,-818.881C77.0602,-789.815 82.4663,-733.318 102,-690 114.811,-661.591 140.237,-634.405 153.867,-621.062"/>
<polygon fill="midnightblue" stroke="midnightblue" points="72.0557,-819.092 75.1461,-829.226 79.05,-819.377 72.0557,-819.092"/>
</g>
<!-- Node11 -->
<g id="node11" class="node"><title>Node11</title>
<g id="a_node11"><a xlink:href="../../dd/d24/classIG_1_1Forms_1_1HashAllControl.html" target="_top" xlink:title=" ">
<polygon fill="white" stroke="black" points="884.5,-373.5 884.5,-392.5 1009.5,-392.5 1009.5,-373.5 884.5,-373.5"/>
<text text-anchor="middle" x="947" y="-380.5" font-family="Helvetica,sans-Serif" font-size="10.00">IG.Forms.HashAllControl</text>
</a>
</g>
</g>
<!-- Node11&#45;&gt;Node9 -->
<g id="edge11" class="edge"><title>Node11&#45;&gt;Node9</title>
<path fill="none" stroke="#9a32cd" stroke-dasharray="5,2" d="M948.167,-363.037C948.928,-350.67 949.885,-335.12 950.469,-325.627"/>
<polygon fill="#9a32cd" stroke="#9a32cd" points="944.66,-363.038 947.539,-373.234 951.647,-363.468 944.66,-363.038"/>
<text text-anchor="middle" x="986" y="-347" font-family="Helvetica,sans-Serif" font-size="10.00"> hashAllControl1</text>
</g>
<!-- Node12 -->
<g id="node12" class="node"><title>Node12</title>
<g id="a_node12"><a xlink:title=" ">
<polygon fill="white" stroke="#bfbfbf" points="965,-829.5 965,-848.5 1033,-848.5 1033,-829.5 965,-829.5"/>
<text text-anchor="middle" x="999" y="-836.5" font-family="Helvetica,sans-Serif" font-size="10.00">UserControl</text>
</a>
</g>
</g>
<!-- Node12&#45;&gt;Node11 -->
<g id="edge12" class="edge"><title>Node12&#45;&gt;Node11</title>
<path fill="none" stroke="midnightblue" d="M1004.02,-819.483C1017.78,-765.349 1052.59,-603.279 1013,-478 1001.7,-442.254 971.405,-408.315 956.105,-392.807"/>
<polygon fill="midnightblue" stroke="midnightblue" points="1000.58,-818.784 1001.43,-829.345 1007.35,-820.559 1000.58,-818.784"/>
</g>
<!-- Node13 -->
<g id="node13" class="node"><title>Node13</title>
<g id="a_node13"><a xlink:href="../../d7/d96/classIG_1_1Forms_1_1HashControl.html" target="_top" xlink:title="A control used to calculate various checksums of selected files or inserted text.">
<polygon fill="white" stroke="black" points="649.5,-440.5 649.5,-459.5 762.5,-459.5 762.5,-440.5 649.5,-440.5"/>
<text text-anchor="middle" x="706" y="-447.5" font-family="Helvetica,sans-Serif" font-size="10.00">IG.Forms.HashControl</text>
</a>
</g>
</g>
<!-- Node12&#45;&gt;Node13 -->
<g id="edge14" class="edge"><title>Node12&#45;&gt;Node13</title>
<path fill="none" stroke="midnightblue" d="M995.217,-819.25C980.734,-748.359 928.209,-499.612 900,-478 879.012,-461.921 811.943,-455.413 762.518,-452.782"/>
<polygon fill="midnightblue" stroke="midnightblue" points="991.851,-820.263 997.272,-829.366 998.711,-818.87 991.851,-820.263"/>
</g>
<!-- Node14 -->
<g id="node14" class="node"><title>Node14</title>
<g id="a_node14"><a xlink:href="../../de/d72/classIG_1_1Forms_1_1IndicatorLight.html" target="_top" xlink:title=" ">
<polygon fill="white" stroke="black" points="661,-602 661,-621 779,-621 779,-602 661,-602"/>
<text text-anchor="middle" x="720" y="-609" font-family="Helvetica,sans-Serif" font-size="10.00">IG.Forms.IndicatorLight</text>
</a>
</g>
</g>
<!-- Node12&#45;&gt;Node14 -->
<g id="edge16" class="edge"><title>Node12&#45;&gt;Node14</title>
<path fill="none" stroke="midnightblue" d="M982.483,-822.302C952.346,-794.064 885.832,-733.588 824,-690 810.978,-680.821 806.104,-681.061 793,-672 769.062,-655.448 743.12,-633.148 729.534,-621.095"/>
<polygon fill="midnightblue" stroke="midnightblue" points="980.306,-825.06 989.985,-829.371 985.107,-819.966 980.306,-825.06"/>
</g>
<!-- Node13&#45;&gt;Node11 -->
<g id="edge13" class="edge"><title>Node13&#45;&gt;Node11</title>
<path fill="none" stroke="#9a32cd" stroke-dasharray="5,2" d="M718.792,-432.759C725.926,-424.874 735.485,-416.036 746,-411 769.816,-399.594 834.731,-392.284 884.405,-388.187"/>
<polygon fill="#9a32cd" stroke="#9a32cd" points="716.085,-430.539 712.296,-440.433 721.428,-435.062 716.085,-430.539"/>
<text text-anchor="middle" x="776.5" y="-414" font-family="Helvetica,sans-Serif" font-size="10.00"> hashControl1</text>
</g>
<!-- Node13&#45;&gt;Node19 -->
<g id="edge30" class="edge"><title>Node13&#45;&gt;Node19</title>
<path fill="none" stroke="#9a32cd" stroke-dasharray="5,2" d="M639.211,-439.244C550.282,-426.255 394.805,-403.545 313.668,-391.693"/>
<polygon fill="#9a32cd" stroke="#9a32cd" points="638.788,-442.72 649.188,-440.702 639.799,-435.793 638.788,-442.72"/>
<text text-anchor="middle" x="562.5" y="-414" font-family="Helvetica,sans-Serif" font-size="10.00"> hashGeneratorControl1</text>
</g>
<!-- Node14&#45;&gt;Node13 -->
<g id="edge15" class="edge"><title>Node14&#45;&gt;Node13</title>
<path fill="none" stroke="#9a32cd" stroke-dasharray="5,2" d="M716.076,-592.023C712.955,-576.386 708.819,-553.338 707,-533 704.616,-506.341 705.194,-474.614 705.67,-459.64"/>
<polygon fill="#9a32cd" stroke="#9a32cd" points="712.677,-592.867 718.123,-601.955 719.533,-591.454 712.677,-592.867"/>
<text text-anchor="middle" x="740.5" y="-503" font-family="Helvetica,sans-Serif" font-size="10.00"> indicatorLight1</text>
</g>
<!-- Node15 -->
<g id="node15" class="node"><title>Node15</title>
<g id="a_node15"><a xlink:title=" ">
<polygon fill="white" stroke="#bfbfbf" points="716,-829.5 716,-848.5 766,-848.5 766,-829.5 716,-829.5"/>
<text text-anchor="middle" x="741" y="-836.5" font-family="Helvetica,sans-Serif" font-size="10.00">System</text>
</a>
</g>
</g>
<!-- Node15&#45;&gt;Node9 -->
<g id="edge27" class="edge"><title>Node15&#45;&gt;Node9</title>
<path fill="none" stroke="#9a32cd" stroke-dasharray="5,2" d="M776.366,-835.97C817.291,-832.952 881.444,-825.944 900,-811 1063.66,-679.189 1017.34,-565.004 1025,-355 1025.18,-350.114 1027.8,-348.006 1025,-344 1019.04,-335.484 1010.1,-329.644 1000.47,-325.643"/>
<polygon fill="#9a32cd" stroke="#9a32cd" points="775.986,-832.488 766.252,-836.67 776.47,-839.471 775.986,-832.488"/>
<text text-anchor="middle" x="1053.5" y="-447.5" font-family="Helvetica,sans-Serif" font-size="10.00"> components</text>
</g>
<!-- Node15&#45;&gt;Node11 -->
<g id="edge25" class="edge"><title>Node15&#45;&gt;Node11</title>
<path fill="none" stroke="#9a32cd" stroke-dasharray="5,2" d="M776.446,-835.442C798.01,-832.37 825.13,-825.651 845,-811 903.469,-767.886 909.2,-741.298 931,-672 935.292,-658.356 944.669,-439.62 946.634,-392.784"/>
<polygon fill="#9a32cd" stroke="#9a32cd" points="775.863,-831.988 766.363,-836.676 776.714,-838.936 775.863,-831.988"/>
<text text-anchor="middle" x="975.5" y="-525" font-family="Helvetica,sans-Serif" font-size="10.00"> tabPageAbout</text>
<text text-anchor="middle" x="975.5" y="-514" font-family="Helvetica,sans-Serif" font-size="10.00">tabControl1</text>
<text text-anchor="middle" x="975.5" y="-503" font-family="Helvetica,sans-Serif" font-size="10.00">components</text>
<text text-anchor="middle" x="975.5" y="-492" font-family="Helvetica,sans-Serif" font-size="10.00">tabPageDir</text>
<text text-anchor="middle" x="975.5" y="-481" font-family="Helvetica,sans-Serif" font-size="10.00">tabPageHash</text>
</g>
<!-- Node15&#45;&gt;Node13 -->
<g id="edge23" class="edge"><title>Node15&#45;&gt;Node13</title>
<path fill="none" stroke="#9a32cd" stroke-dasharray="5,2" d="M776.53,-835.644C793.498,-832.518 812.377,-825.681 823,-811 854.524,-767.431 829.095,-743.431 823,-690 817.52,-641.958 805.518,-514.67 774,-478 766.631,-469.427 756.167,-463.551 745.651,-459.534"/>
<polygon fill="#9a32cd" stroke="#9a32cd" points="775.688,-832.23 766.304,-837.149 776.706,-839.156 775.688,-832.23"/>
<text text-anchor="middle" x="874" y="-664" font-family="Helvetica,sans-Serif" font-size="10.00"> contextMenuStrip1</text>
<text text-anchor="middle" x="874" y="-653" font-family="Helvetica,sans-Serif" font-size="10.00">aboutToolStripMenuItem</text>
<text text-anchor="middle" x="874" y="-642" font-family="Helvetica,sans-Serif" font-size="10.00">lvlVerifyMain</text>
<text text-anchor="middle" x="874" y="-631" font-family="Helvetica,sans-Serif" font-size="10.00">contextMenuStrip2</text>
<text text-anchor="middle" x="874" y="-620" font-family="Helvetica,sans-Serif" font-size="10.00">btnClearHashes</text>
<text text-anchor="middle" x="874" y="-609" font-family="Helvetica,sans-Serif" font-size="10.00">lblSha512</text>
<text text-anchor="middle" x="874" y="-598" font-family="Helvetica,sans-Serif" font-size="10.00">chkGenerateFile</text>
<text text-anchor="middle" x="874" y="-587" font-family="Helvetica,sans-Serif" font-size="10.00">btnGenerate</text>
<text text-anchor="middle" x="874" y="-576" font-family="Helvetica,sans-Serif" font-size="10.00">txtMd5</text>
<text text-anchor="middle" x="874" y="-565" font-family="Helvetica,sans-Serif" font-size="10.00">lblVerify</text>
<text text-anchor="middle" x="874" y="-554" font-family="Helvetica,sans-Serif" font-size="10.00">...</text>
</g>
<!-- Node15&#45;&gt;Node14 -->
<g id="edge17" class="edge"><title>Node15&#45;&gt;Node14</title>
<path fill="none" stroke="#9a32cd" stroke-dasharray="5,2" d="M739.259,-819.307C734.941,-772.942 723.866,-654.017 720.798,-621.073"/>
<polygon fill="#9a32cd" stroke="#9a32cd" points="735.79,-819.803 740.202,-829.435 742.76,-819.154 735.79,-819.803"/>
<text text-anchor="middle" x="779.5" y="-803" font-family="Helvetica,sans-Serif" font-size="10.00"> _colorLightError</text>
<text text-anchor="middle" x="779.5" y="-792" font-family="Helvetica,sans-Serif" font-size="10.00">_colorLabel</text>
<text text-anchor="middle" x="779.5" y="-781" font-family="Helvetica,sans-Serif" font-size="10.00">timer1</text>
<text text-anchor="middle" x="779.5" y="-770" font-family="Helvetica,sans-Serif" font-size="10.00">flowOuter</text>
<text text-anchor="middle" x="779.5" y="-759" font-family="Helvetica,sans-Serif" font-size="10.00">_colorLightOk</text>
<text text-anchor="middle" x="779.5" y="-748" font-family="Helvetica,sans-Serif" font-size="10.00">_specialBlinkColor</text>
<text text-anchor="middle" x="779.5" y="-737" font-family="Helvetica,sans-Serif" font-size="10.00">_colorLightOff</text>
<text text-anchor="middle" x="779.5" y="-726" font-family="Helvetica,sans-Serif" font-size="10.00">lblText</text>
<text text-anchor="middle" x="779.5" y="-715" font-family="Helvetica,sans-Serif" font-size="10.00">components</text>
<text text-anchor="middle" x="779.5" y="-704" font-family="Helvetica,sans-Serif" font-size="10.00">_colorLightBusy</text>
<text text-anchor="middle" x="779.5" y="-693" font-family="Helvetica,sans-Serif" font-size="10.00">...</text>
</g>
<!-- Node15&#45;&gt;Node17 -->
<g id="edge21" class="edge"><title>Node15&#45;&gt;Node17</title>
<path fill="none" stroke="#9a32cd" stroke-dasharray="5,2" d="M705.749,-836.762C683.627,-834.237 655.827,-827.632 637,-811 593.641,-772.696 635.385,-724.577 589,-690 552.513,-662.801 427.532,-688.191 385,-672 355.235,-660.669 326.929,-634.888 313.361,-621.283"/>
<polygon fill="#9a32cd" stroke="#9a32cd" points="705.497,-840.254 715.774,-837.679 706.134,-833.283 705.497,-840.254"/>
<text text-anchor="middle" x="665.5" y="-748" font-family="Helvetica,sans-Serif" font-size="10.00"> components</text>
</g>
<!-- Node15&#45;&gt;Node19 -->
<g id="edge31" class="edge"><title>Node15&#45;&gt;Node19</title>
<path fill="none" stroke="#9a32cd" stroke-dasharray="5,2" d="M729,-820.723C727.145,-817.58 725.389,-814.262 724,-811 702.298,-760.021 736.524,-725.518 694,-690 645.976,-649.888 461.638,-711.365 413,-672 369.579,-636.857 419.856,-589.095 379,-551 350.121,-524.072 319.936,-560.905 292,-533 252.557,-493.6 257.074,-417.927 259.881,-392.541"/>
<polygon fill="#9a32cd" stroke="#9a32cd" points="726.226,-822.88 734.583,-829.393 732.111,-819.09 726.226,-822.88"/>
<text text-anchor="middle" x="320.5" y="-503" font-family="Helvetica,sans-Serif" font-size="10.00"> components</text>
</g>
<!-- Node15&#45;&gt;Node20 -->
<g id="edge34" class="edge"><title>Node15&#45;&gt;Node20</title>
<path fill="none" stroke="#9a32cd" stroke-dasharray="5,2" d="M705.784,-837.576C618.348,-836.226 396.468,-830.859 370,-811 324.106,-776.565 368.847,-727.007 325,-690 292.16,-662.283 268.569,-690.951 230,-672 204.589,-659.514 181.445,-634.708 170.189,-621.411"/>
<polygon fill="#9a32cd" stroke="#9a32cd" points="705.949,-841.079 715.999,-837.725 706.051,-834.08 705.949,-841.079"/>
<text text-anchor="middle" x="398.5" y="-748" font-family="Helvetica,sans-Serif" font-size="10.00"> components</text>
</g>
<!-- Node16 -->
<g id="node16" class="node"><title>Node16</title>
<g id="a_node16"><a xlink:title=" ">
<polygon fill="white" stroke="#bfbfbf" points="427.5,-829.5 427.5,-848.5 468.5,-848.5 468.5,-829.5 427.5,-829.5"/>
<text text-anchor="middle" x="448" y="-836.5" font-family="Helvetica,sans-Serif" font-size="10.00">static</text>
</a>
</g>
</g>
<!-- Node16&#45;&gt;Node14 -->
<g id="edge18" class="edge"><title>Node16&#45;&gt;Node14</title>
<path fill="none" stroke="#9a32cd" stroke-dasharray="5,2" d="M441.509,-819.625C431.961,-788.949 418.367,-727.03 449,-690 475.279,-658.233 500.129,-682.49 540,-672 597.453,-656.884 663.373,-633.505 697.258,-621.029"/>
<polygon fill="#9a32cd" stroke="#9a32cd" points="438.283,-821.019 444.754,-829.409 444.928,-818.815 438.283,-821.019"/>
<text text-anchor="middle" x="519" y="-803" font-family="Helvetica,sans-Serif" font-size="10.00"> _defaultColorLabel</text>
<text text-anchor="middle" x="519" y="-792" font-family="Helvetica,sans-Serif" font-size="10.00">_defaultBorderOut</text>
<text text-anchor="middle" x="519" y="-781" font-family="Helvetica,sans-Serif" font-size="10.00">_defaultBorderLabel</text>
<text text-anchor="middle" x="519" y="-770" font-family="Helvetica,sans-Serif" font-size="10.00">_defaultColorLightOff</text>
<text text-anchor="middle" x="519" y="-759" font-family="Helvetica,sans-Serif" font-size="10.00">_defaultPaddingLabel</text>
<text text-anchor="middle" x="519" y="-748" font-family="Helvetica,sans-Serif" font-size="10.00">_defaultMarginLabel</text>
<text text-anchor="middle" x="519" y="-737" font-family="Helvetica,sans-Serif" font-size="10.00">_defaultColorLightBusy</text>
<text text-anchor="middle" x="519" y="-726" font-family="Helvetica,sans-Serif" font-size="10.00">_defaultBlinkIntervalMilliseconds</text>
<text text-anchor="middle" x="519" y="-715" font-family="Helvetica,sans-Serif" font-size="10.00">_defaultPaddingOut</text>
<text text-anchor="middle" x="519" y="-704" font-family="Helvetica,sans-Serif" font-size="10.00">_defaultColorLightError</text>
<text text-anchor="middle" x="519" y="-693" font-family="Helvetica,sans-Serif" font-size="10.00">...</text>
</g>
<!-- Node17&#45;&gt;Node13 -->
<g id="edge19" class="edge"><title>Node17&#45;&gt;Node13</title>
<path fill="none" stroke="#9a32cd" stroke-dasharray="5,2" d="M316.803,-593.225C327.06,-577.816 341.964,-554.442 353,-533 365.125,-509.441 354.562,-493.571 376,-478 397.54,-462.355 560.708,-455.214 649.252,-452.462"/>
<polygon fill="#9a32cd" stroke="#9a32cd" points="313.777,-591.453 311.093,-601.702 319.582,-595.363 313.777,-591.453"/>
<text text-anchor="middle" x="403.5" y="-503" font-family="Helvetica,sans-Serif" font-size="10.00"> _aboutForm</text>
</g>
<!-- Node18 -->
<g id="node18" class="node"><title>Node18</title>
<g id="a_node18"><a xlink:title=" ">
<polygon fill="white" stroke="#bfbfbf" points="273.5,-829.5 273.5,-848.5 302.5,-848.5 302.5,-829.5 273.5,-829.5"/>
<text text-anchor="middle" x="288" y="-836.5" font-family="Helvetica,sans-Serif" font-size="10.00">IG</text>
</a>
</g>
</g>
<!-- Node18&#45;&gt;Node11 -->
<g id="edge26" class="edge"><title>Node18&#45;&gt;Node11</title>
<path fill="none" stroke="#9a32cd" stroke-dasharray="5,2" d="M312.934,-836.261C397.564,-830.355 668.619,-811.409 669,-811 705.658,-771.652 688.868,-739.973 669,-690 664.935,-679.775 656.065,-682.225 652,-672 632.132,-622.027 616.765,-591.627 652,-551 670.532,-529.633 752.317,-544.849 778,-533 816.182,-515.385 909.432,-422.263 938.322,-392.886"/>
<polygon fill="#9a32cd" stroke="#9a32cd" points="312.651,-832.772 302.919,-836.96 313.138,-839.755 312.651,-832.772"/>
<text text-anchor="middle" x="888" y="-508.5" font-family="Helvetica,sans-Serif" font-size="10.00"> hashFormAbout1</text>
<text text-anchor="middle" x="888" y="-497.5" font-family="Helvetica,sans-Serif" font-size="10.00">hashDirControl1</text>
</g>
<!-- Node18&#45;&gt;Node13 -->
<g id="edge24" class="edge"><title>Node18&#45;&gt;Node13</title>
<path fill="none" stroke="#9a32cd" stroke-dasharray="5,2" d="M310.292,-823.207C314.354,-819.632 318.19,-815.52 321,-811 350.145,-764.122 316.529,-734.638 349,-690 358.147,-677.426 366.266,-680.923 379,-672 448.862,-623.043 457.446,-598.954 528,-551 584.139,-512.844 655.893,-475.815 688.486,-459.579"/>
<polygon fill="#9a32cd" stroke="#9a32cd" points="308.119,-820.463 302.409,-829.388 312.438,-825.972 308.119,-820.463"/>
<text text-anchor="middle" x="573.5" y="-609" font-family="Helvetica,sans-Serif" font-size="10.00"> backgroundWorker1</text>
</g>
<!-- Node18&#45;&gt;Node17 -->
<g id="edge22" class="edge"><title>Node18&#45;&gt;Node17</title>
<path fill="none" stroke="#9a32cd" stroke-dasharray="5,2" d="M264.065,-829.407C255.891,-825.19 247.646,-819.206 243,-811 216.504,-764.203 225.199,-740.746 243,-690 253.266,-660.733 279.747,-634.308 294.566,-621.198"/>
<polygon fill="#9a32cd" stroke="#9a32cd" points="262.85,-832.697 273.409,-833.574 265.701,-826.304 262.85,-832.697"/>
<text text-anchor="middle" x="282" y="-748" font-family="Helvetica,sans-Serif" font-size="10.00"> hashFormAbout1</text>
</g>
<!-- Node18&#45;&gt;Node20 -->
<g id="edge35" class="edge"><title>Node18&#45;&gt;Node20</title>
<path fill="none" stroke="#9a32cd" stroke-dasharray="5,2" d="M263.17,-836.807C227.388,-834.509 164.062,-828.08 150,-811 102.586,-753.41 144.438,-651.688 158.674,-621.306"/>
<polygon fill="#9a32cd" stroke="#9a32cd" points="263.12,-840.31 273.306,-837.395 263.525,-833.322 263.12,-840.31"/>
<text text-anchor="middle" x="186.5" y="-748" font-family="Helvetica,sans-Serif" font-size="10.00"> hashDirControl1</text>
</g>
<!-- Node19&#45;&gt;Node5 -->
<g id="edge28" class="edge"><title>Node19&#45;&gt;Node5</title>
<path fill="none" stroke="#9a32cd" stroke-dasharray="5,2" d="M281.646,-367.576C294.424,-359.355 311.493,-349.605 328,-344 561.753,-264.625 863.016,-252.207 965.252,-250.318"/>
<polygon fill="#9a32cd" stroke="#9a32cd" points="279.56,-364.759 273.169,-373.21 283.435,-370.589 279.56,-364.759"/>
<text text-anchor="middle" x="480.5" y="-313.5" font-family="Helvetica,sans-Serif" font-size="10.00"> hashForm</text>
</g>
<!-- Node20&#45;&gt;Node5 -->
<g id="edge32" class="edge"><title>Node20&#45;&gt;Node5</title>
<path fill="none" stroke="#9a32cd" stroke-dasharray="5,2" d="M132.88,-597.658C85.7748,-575.312 0,-524.526 0,-451 0,-451 0,-451 0,-315 0,-265.585 787.056,-252.697 965.374,-250.411"/>
<polygon fill="#9a32cd" stroke="#9a32cd" points="131.477,-600.865 142.024,-601.869 134.406,-594.507 131.477,-600.865"/>
<text text-anchor="middle" x="29.5" y="-380.5" font-family="Helvetica,sans-Serif" font-size="10.00"> hashDirForm</text>
</g>
<!-- Node21 -->
<g id="node21" class="node"><title>Node21</title>
<g id="a_node21"><a xlink:href="../../d3/db6/interfaceIG_1_1Lib_1_1ILockable.html" target="_top" xlink:title="Lockable object, has a Lock property that returns object on which lock must be performed in order to ...">
<polygon fill="white" stroke="black" points="1278,-182.5 1278,-201.5 1336,-201.5 1336,-182.5 1278,-182.5"/>
<text text-anchor="middle" x="1307" y="-189.5" font-family="Helvetica,sans-Serif" font-size="10.00">ILockable</text>
</a>
</g>
</g>
<!-- Node21&#45;&gt;Node3 -->
<g id="edge38" class="edge"><title>Node21&#45;&gt;Node3</title>
<path fill="none" stroke="midnightblue" d="M1307,-172.117C1307,-162.817 1307,-152.056 1307,-144.715"/>
<polygon fill="midnightblue" stroke="midnightblue" points="1303.5,-172.406 1307,-182.406 1310.5,-172.406 1303.5,-172.406"/>
</g>
</g>
</svg>
        <g id="navigator" transform="translate(0 0)" fill="#404254">
                <rect fill="#f2f5e9" fill-opacity="0.5" stroke="#606060" stroke-width=".5" x="0" y="0" width="60" height="60"/>
                <use id="zoomplus" xlink:href="#zoomPlus" x="17" y="9" onmousedown="handleZoom(evt,'in')"/>
                <use id="zoomminus" xlink:href="#zoomMin" x="42" y="9" onmousedown="handleZoom(evt,'out')"/>
                <use id="reset" xlink:href="#resetDef" x="30" y="36" onmousedown="handleReset()"/>
                <g id="arrowUp" xlink:href="#dirArrow" transform="translate(30 24)" onmousedown="handlePan(0,-1)">
                  <use xlink:href="#rim" fill="#404040">
                        <set attributeName="fill" to="#808080" begin="arrowUp.mouseover" end="arrowUp.mouseout"/>
                  </use>
                  <path fill="none" stroke="white" stroke-width="1.5" d="M0,-3.0v7 M-2.5,-0.5L0,-3.0L2.5,-0.5"/>
                </g>
                <g id="arrowRight" xlink:href="#dirArrow" transform="rotate(90) translate(36 -43)" onmousedown="handlePan(1,0)">
                  <use xlink:href="#rim" fill="#404040">
                        <set attributeName="fill" to="#808080" begin="arrowRight.mouseover" end="arrowRight.mouseout"/>
                  </use>
                  <path fill="none" stroke="white" stroke-width="1.5" d="M0,-3.0v7 M-2.5,-0.5L0,-3.0L2.5,-0.5"/>
                </g>
                <g id="arrowDown" xlink:href="#dirArrow" transform="rotate(180) translate(-30 -48)" onmousedown="handlePan(0,1)">
                  <use xlink:href="#rim" fill="#404040">
                        <set attributeName="fill" to="#808080" begin="arrowDown.mouseover" end="arrowDown.mouseout"/>
                  </use>
                  <path fill="none" stroke="white" stroke-width="1.5" d="M0,-3.0v7 M-2.5,-0.5L0,-3.0L2.5,-0.5"/>
                </g>
                <g id="arrowLeft" xlink:href="#dirArrow" transform="rotate(270) translate(-36 17)" onmousedown="handlePan(-1,0)">
                  <use xlink:href="#rim" fill="#404040">
                        <set attributeName="fill" to="#808080" begin="arrowLeft.mouseover" end="arrowLeft.mouseout"/>
                  </use>
                  <path fill="none" stroke="white" stroke-width="1.5" d="M0,-3.0v7 M-2.5,-0.5L0,-3.0L2.5,-0.5"/>
                </g>
        </g>
        <svg viewBox="0 0 15 15" width="100%" height="30px" preserveAspectRatio="xMaxYMin meet">
         <g id="arrow_out" transform="scale(0.3 0.3)">
          <a xlink:href="classIG_1_1Script_1_1AppMarkoPetekDerivedScriptExt__coll__graph_org.svg" target="_base">
           <rect id="button" ry="5" rx="5" y="6" x="6" height="38" width="38"
                fill="#f2f5e9" fill-opacity="0.5" stroke="#606060" stroke-width="1.0"/>
           <path id="arrow"
             d="M 11.500037,31.436501 C 11.940474,20.09759 22.043105,11.32322 32.158766,21.979434 L 37.068811,17.246167 C 37.068811,17.246167 37.088388,32 37.088388,32 L 22.160133,31.978069 C 22.160133,31.978069 26.997745,27.140456 26.997745,27.140456 C 18.528582,18.264221 13.291696,25.230495 11.500037,31.436501 z"
             style="fill:#404040;"/>
          </a>
         </g>
        </svg>
</svg>
