<?xml version="1.0" encoding="UTF-8" standalone="no"?>
<!DOCTYPE svg PUBLIC "-//W3C//DTD SVG 1.1//EN"
 "http://www.w3.org/Graphics/SVG/1.1/DTD/svg11.dtd">
<!-- Generated by graphviz version 2.38.0 (20140413.2041)
 -->
<!-- Title: NUnit.Framework.Constraints.EqualityAdapter Pages: 1 -->
<!--zoomable 215 -->
<svg id="main" version="1.1" xmlns="http://www.w3.org/2000/svg" xmlns:xlink="http://www.w3.org/1999/xlink" xml:space="preserve" onload="init(evt)">
<style type="text/css"><![CDATA[
.edge:hover path { stroke: red; }
.edge:hover polygon { stroke: red; fill: red; }
]]></style>
<script type="text/javascript"><![CDATA[
var edges = document.getElementsByTagName('g');
if (edges && edges.length) {
  for (var i=0;i<edges.length;i++) {
    if (edges[i].id.substr(0,4)=='edge') {
      edges[i].setAttribute('class','edge');
    }
  }
}
]]></script>
        <defs>
                <circle id="rim" cx="0" cy="0" r="7"/>
                <circle id="rim2" cx="0" cy="0" r="3.5"/>
                <g id="zoomPlus">
                        <use xlink:href="#rim" fill="#404040">
                                <set attributeName="fill" to="#808080" begin="zoomplus.mouseover" end="zoomplus.mouseout"/>
                        </use>
                        <path d="M-4,0h8M0,-4v8" fill="none" stroke="white" stroke-width="1.5" pointer-events="none"/>
                </g>
                <g id="zoomMin">
                        <use xlink:href="#rim" fill="#404040">
                                <set attributeName="fill" to="#808080" begin="zoomminus.mouseover" end="zoomminus.mouseout"/>
                        </use>
                        <path d="M-4,0h8" fill="none" stroke="white" stroke-width="1.5" pointer-events="none"/>
                </g>
                <g id="dirArrow">
                        <path fill="none" stroke="white" stroke-width="1.5" d="M0,-3.0v7 M-2.5,-0.5L0,-3.0L2.5,-0.5"/>
                </g>
               <g id="resetDef">
                       <use xlink:href="#rim2" fill="#404040">
                               <set attributeName="fill" to="#808080" begin="reset.mouseover" end="reset.mouseout"/>
                       </use>
               </g>
        </defs>

<script type="text/javascript">
var viewWidth = 621;
var viewHeight = 215;
var sectionId = 'dynsection-0';
</script>
<script xlink:href="../../svgpan.js"/>
<svg id="graph" class="graph">
<g id="viewport">
<title>NUnit.Framework.Constraints.EqualityAdapter</title>
<polygon fill="white" stroke="none" points="-4,4 -4,-210.5 617,-210.5 617,4 -4,4"/>
<!-- Node1 -->
<g id="node1" class="node"><title>Node1</title>
<g id="a_node1"><a xlink:title="EqualityAdapter class handles all equality comparisons that use an IEqualityComparer,...">
<polygon fill="#bfbfbf" stroke="black" points="0,-121 0,-151 147,-151 147,-121 0,-121"/>
<text text-anchor="start" x="8" y="-139" font-family="Helvetica,sans-Serif" font-size="10.00">NUnit.Framework.Constraints.</text>
<text text-anchor="middle" x="73.5" y="-128" font-family="Helvetica,sans-Serif" font-size="10.00">EqualityAdapter</text>
</a>
</g>
</g>
<!-- Node2 -->
<g id="node2" class="node"><title>Node2</title>
<g id="a_node2"><a xlink:href="../../d0/d81/classNUnit_1_1Framework_1_1Constraints_1_1EqualityAdapter_1_1ComparerAdapter.html" target="_top" xlink:title="EqualityAdapter that wraps an IComparer.">
<polygon fill="white" stroke="black" points="183,-176 183,-206 371,-206 371,-176 183,-176"/>
<text text-anchor="start" x="191" y="-194" font-family="Helvetica,sans-Serif" font-size="10.00">NUnit.Framework.Constraints.</text>
<text text-anchor="middle" x="277" y="-183" font-family="Helvetica,sans-Serif" font-size="10.00">EqualityAdapter.ComparerAdapter&lt; T &gt;</text>
</a>
</g>
</g>
<!-- Node1&#45;&gt;Node2 -->
<g id="edge1" class="edge"><title>Node1&#45;&gt;Node2</title>
<path fill="none" stroke="midnightblue" d="M138.521,-153.783C153.134,-157.82 168.599,-162.074 183,-166 194.936,-169.254 207.743,-172.716 219.919,-175.994"/>
<polygon fill="midnightblue" stroke="midnightblue" points="139.135,-150.322 128.564,-151.03 137.27,-157.069 139.135,-150.322"/>
</g>
<!-- Node3 -->
<g id="node3" class="node"><title>Node3</title>
<g id="a_node3"><a xlink:href="../../d2/dda/classNUnit_1_1Framework_1_1Constraints_1_1EqualityAdapter_1_1EqualityComparerAdapter.html" target="_top" xlink:title=" ">
<polygon fill="white" stroke="black" points="194,-115.5 194,-156.5 360,-156.5 360,-115.5 194,-115.5"/>
<text text-anchor="start" x="202" y="-144.5" font-family="Helvetica,sans-Serif" font-size="10.00">NUnit.Framework.Constraints.</text>
<text text-anchor="start" x="202" y="-133.5" font-family="Helvetica,sans-Serif" font-size="10.00">EqualityAdapter.EqualityComparer</text>
<text text-anchor="middle" x="277" y="-122.5" font-family="Helvetica,sans-Serif" font-size="10.00">Adapter&lt; T &gt;</text>
</a>
</g>
</g>
<!-- Node1&#45;&gt;Node3 -->
<g id="edge2" class="edge"><title>Node1&#45;&gt;Node3</title>
<path fill="none" stroke="midnightblue" d="M157.274,-136C169.331,-136 181.743,-136 193.788,-136"/>
<polygon fill="midnightblue" stroke="midnightblue" points="157.246,-132.5 147.246,-136 157.246,-139.5 157.246,-132.5"/>
</g>
<!-- Node4 -->
<g id="node4" class="node"><title>Node4</title>
<g id="a_node4"><a xlink:href="../../d1/d7f/classNUnit_1_1Framework_1_1Constraints_1_1EqualityAdapter_1_1GenericEqualityAdapter.html" target="_top" xlink:title=" ">
<polygon fill="white" stroke="black" points="198,-55.5 198,-96.5 356,-96.5 356,-55.5 198,-55.5"/>
<text text-anchor="start" x="206" y="-84.5" font-family="Helvetica,sans-Serif" font-size="10.00">NUnit.Framework.Constraints.</text>
<text text-anchor="start" x="206" y="-73.5" font-family="Helvetica,sans-Serif" font-size="10.00">EqualityAdapter.GenericEquality</text>
<text text-anchor="middle" x="277" y="-62.5" font-family="Helvetica,sans-Serif" font-size="10.00">Adapter&lt; T &gt;</text>
</a>
</g>
</g>
<!-- Node1&#45;&gt;Node4 -->
<g id="edge3" class="edge"><title>Node1&#45;&gt;Node4</title>
<path fill="none" stroke="midnightblue" d="M134.943,-118.002C157.671,-111.234 183.676,-103.491 207.116,-96.5114"/>
<polygon fill="midnightblue" stroke="midnightblue" points="133.672,-114.729 125.087,-120.937 135.67,-121.437 133.672,-114.729"/>
</g>
<!-- Node5 -->
<g id="node5" class="node"><title>Node5</title>
<g id="a_node5"><a xlink:href="../../d0/d81/classNUnit_1_1Framework_1_1Constraints_1_1EqualityAdapter_1_1ComparerAdapter.html" target="_top" xlink:title="EqualityAdapter that wraps an IComparer.">
<polygon fill="white" stroke="black" points="411.5,-110 411.5,-140 608.5,-140 608.5,-110 411.5,-110"/>
<text text-anchor="start" x="419.5" y="-128" font-family="Helvetica,sans-Serif" font-size="10.00">NUnit::Framework::Constraints</text>
<text text-anchor="middle" x="510" y="-117" font-family="Helvetica,sans-Serif" font-size="10.00">::EqualityAdapter::ComparerAdapter&lt; T &gt;</text>
</a>
</g>
</g>
<!-- Node4&#45;&gt;Node5 -->
<g id="edge4" class="edge"><title>Node4&#45;&gt;Node5</title>
<path fill="none" stroke="midnightblue" d="M366.295,-94.7293C390.101,-99.7789 415.541,-105.175 438.25,-109.993"/>
<polygon fill="midnightblue" stroke="midnightblue" points="366.715,-91.2405 356.206,-92.5892 365.262,-98.0881 366.715,-91.2405"/>
</g>
<!-- Node6 -->
<g id="node6" class="node"><title>Node6</title>
<g id="a_node6"><a xlink:href="../../db/d9e/classNUnit_1_1Framework_1_1Constraints_1_1EqualityAdapter_1_1ComparisonAdapter.html" target="_top" xlink:title=" ">
<polygon fill="white" stroke="black" points="407,-61 407,-91 613,-91 613,-61 407,-61"/>
<text text-anchor="start" x="415" y="-79" font-family="Helvetica,sans-Serif" font-size="10.00">NUnit::Framework::Constraints</text>
<text text-anchor="middle" x="510" y="-68" font-family="Helvetica,sans-Serif" font-size="10.00">::EqualityAdapter::ComparisonAdapter&lt; T &gt;</text>
</a>
</g>
</g>
<!-- Node4&#45;&gt;Node6 -->
<g id="edge5" class="edge"><title>Node4&#45;&gt;Node6</title>
<path fill="none" stroke="midnightblue" d="M366.22,-76C379.461,-76 393.209,-76 406.713,-76"/>
<polygon fill="midnightblue" stroke="midnightblue" points="366.206,-72.5001 356.206,-76 366.206,-79.5001 366.206,-72.5001"/>
</g>
<!-- Node7 -->
<g id="node7" class="node"><title>Node7</title>
<g id="a_node7"><a xlink:href="../../d2/dda/classNUnit_1_1Framework_1_1Constraints_1_1EqualityAdapter_1_1EqualityComparerAdapter.html" target="_top" xlink:title=" ">
<polygon fill="white" stroke="black" points="422.5,-0.5 422.5,-41.5 597.5,-41.5 597.5,-0.5 422.5,-0.5"/>
<text text-anchor="start" x="430.5" y="-29.5" font-family="Helvetica,sans-Serif" font-size="10.00">NUnit::Framework::Constraints</text>
<text text-anchor="start" x="430.5" y="-18.5" font-family="Helvetica,sans-Serif" font-size="10.00">::EqualityAdapter::EqualityComparer</text>
<text text-anchor="middle" x="510" y="-7.5" font-family="Helvetica,sans-Serif" font-size="10.00">Adapter&lt; T &gt;</text>
</a>
</g>
</g>
<!-- Node4&#45;&gt;Node7 -->
<g id="edge6" class="edge"><title>Node4&#45;&gt;Node7</title>
<path fill="none" stroke="midnightblue" d="M366.077,-55.0292C384.587,-50.6222 404.093,-45.9778 422.543,-41.5851"/>
<polygon fill="midnightblue" stroke="midnightblue" points="365.123,-51.6584 356.206,-57.3795 366.745,-58.4681 365.123,-51.6584"/>
</g>
</g>
</svg>
        <g id="navigator" transform="translate(0 0)" fill="#404254">
                <rect fill="#f2f5e9" fill-opacity="0.5" stroke="#606060" stroke-width=".5" x="0" y="0" width="60" height="60"/>
                <use id="zoomplus" xlink:href="#zoomPlus" x="17" y="9" onmousedown="handleZoom(evt,'in')"/>
                <use id="zoomminus" xlink:href="#zoomMin" x="42" y="9" onmousedown="handleZoom(evt,'out')"/>
                <use id="reset" xlink:href="#resetDef" x="30" y="36" onmousedown="handleReset()"/>
                <g id="arrowUp" xlink:href="#dirArrow" transform="translate(30 24)" onmousedown="handlePan(0,-1)">
                  <use xlink:href="#rim" fill="#404040">
                        <set attributeName="fill" to="#808080" begin="arrowUp.mouseover" end="arrowUp.mouseout"/>
                  </use>
                  <path fill="none" stroke="white" stroke-width="1.5" d="M0,-3.0v7 M-2.5,-0.5L0,-3.0L2.5,-0.5"/>
                </g>
                <g id="arrowRight" xlink:href="#dirArrow" transform="rotate(90) translate(36 -43)" onmousedown="handlePan(1,0)">
                  <use xlink:href="#rim" fill="#404040">
                        <set attributeName="fill" to="#808080" begin="arrowRight.mouseover" end="arrowRight.mouseout"/>
                  </use>
                  <path fill="none" stroke="white" stroke-width="1.5" d="M0,-3.0v7 M-2.5,-0.5L0,-3.0L2.5,-0.5"/>
                </g>
                <g id="arrowDown" xlink:href="#dirArrow" transform="rotate(180) translate(-30 -48)" onmousedown="handlePan(0,1)">
                  <use xlink:href="#rim" fill="#404040">
                        <set attributeName="fill" to="#808080" begin="arrowDown.mouseover" end="arrowDown.mouseout"/>
                  </use>
                  <path fill="none" stroke="white" stroke-width="1.5" d="M0,-3.0v7 M-2.5,-0.5L0,-3.0L2.5,-0.5"/>
                </g>
                <g id="arrowLeft" xlink:href="#dirArrow" transform="rotate(270) translate(-36 17)" onmousedown="handlePan(-1,0)">
                  <use xlink:href="#rim" fill="#404040">
                        <set attributeName="fill" to="#808080" begin="arrowLeft.mouseover" end="arrowLeft.mouseout"/>
                  </use>
                  <path fill="none" stroke="white" stroke-width="1.5" d="M0,-3.0v7 M-2.5,-0.5L0,-3.0L2.5,-0.5"/>
                </g>
        </g>
        <svg viewBox="0 0 15 15" width="100%" height="30px" preserveAspectRatio="xMaxYMin meet">
         <g id="arrow_out" transform="scale(0.3 0.3)">
          <a xlink:href="classNUnit_1_1Framework_1_1Constraints_1_1EqualityAdapter__inherit__graph_org.svg" target="_base">
           <rect id="button" ry="5" rx="5" y="6" x="6" height="38" width="38"
                fill="#f2f5e9" fill-opacity="0.5" stroke="#606060" stroke-width="1.0"/>
           <path id="arrow"
             d="M 11.500037,31.436501 C 11.940474,20.09759 22.043105,11.32322 32.158766,21.979434 L 37.068811,17.246167 C 37.068811,17.246167 37.088388,32 37.088388,32 L 22.160133,31.978069 C 22.160133,31.978069 26.997745,27.140456 26.997745,27.140456 C 18.528582,18.264221 13.291696,25.230495 11.500037,31.436501 z"
             style="fill:#404040;"/>
          </a>
         </g>
        </svg>
</svg>
