<?xml version="1.0" encoding="UTF-8" standalone="no"?>
<!DOCTYPE svg PUBLIC "-//W3C//DTD SVG 1.1//EN"
 "http://www.w3.org/Graphics/SVG/1.1/DTD/svg11.dtd">
<!-- Generated by graphviz version 2.38.0 (20140413.2041)
 -->
<!-- Title: NUnit.Framework.Internal.Filters.OrFilterTests Pages: 1 -->
<svg width="320pt" height="431pt"
 viewBox="0.00 0.00 319.50 431.00" xmlns="http://www.w3.org/2000/svg" xmlns:xlink="http://www.w3.org/1999/xlink">
<g id="graph0" class="graph" transform="scale(1 1) rotate(0) translate(4 427)">
<title>NUnit.Framework.Internal.Filters.OrFilterTests</title>
<polygon fill="white" stroke="none" points="-4,4 -4,-427 315.5,-427 315.5,4 -4,4"/>
<!-- Node1 -->
<g id="node1" class="node"><title>Node1</title>
<g id="a_node1"><a xlink:title=" ">
<polygon fill="#bfbfbf" stroke="black" points="134,-0.5 134,-30.5 263,-30.5 263,-0.5 134,-0.5"/>
<text text-anchor="start" x="142" y="-18.5" font-family="Helvetica,sans-Serif" font-size="10.00">NUnit.Framework.Internal.</text>
<text text-anchor="middle" x="198.5" y="-7.5" font-family="Helvetica,sans-Serif" font-size="10.00">Filters.OrFilterTests</text>
</a>
</g>
</g>
<!-- Node2 -->
<g id="node2" class="node"><title>Node2</title>
<g id="a_node2"><a xlink:href="../../d6/dde/classNUnit_1_1Framework_1_1Internal_1_1Filters_1_1TestFilterTests.html" target="_top" xlink:title=" ">
<polygon fill="white" stroke="black" points="158,-68.5 158,-87.5 239,-87.5 239,-68.5 158,-68.5"/>
<text text-anchor="middle" x="198.5" y="-75.5" font-family="Helvetica,sans-Serif" font-size="10.00">TestFilterTests</text>
</a>
</g>
</g>
<!-- Node2&#45;&gt;Node1 -->
<g id="edge1" class="edge"><title>Node2&#45;&gt;Node1</title>
<path fill="none" stroke="midnightblue" d="M198.5,-58.2154C198.5,-49.3565 198.5,-38.9577 198.5,-30.7587"/>
<polygon fill="midnightblue" stroke="midnightblue" points="195,-58.3318 198.5,-68.3318 202,-58.3319 195,-58.3318"/>
</g>
<!-- Node3 -->
<g id="node3" class="node"><title>Node3</title>
<g id="a_node3"><a xlink:href="../../d4/dec/classNUnit_1_1Framework_1_1Internal_1_1TestSuite.html" target="_top" xlink:title="TestSuite represents a composite test, which contains other tests.">
<polygon fill="white" stroke="black" points="134,-179.5 134,-209.5 263,-209.5 263,-179.5 134,-179.5"/>
<text text-anchor="start" x="142" y="-197.5" font-family="Helvetica,sans-Serif" font-size="10.00">NUnit.Framework.Internal.</text>
<text text-anchor="middle" x="198.5" y="-186.5" font-family="Helvetica,sans-Serif" font-size="10.00">TestSuite</text>
</a>
</g>
</g>
<!-- Node3&#45;&gt;Node2 -->
<g id="edge2" class="edge"><title>Node3&#45;&gt;Node2</title>
<path fill="none" stroke="#9a32cd" stroke-dasharray="5,2" d="M198.5,-169.425C198.5,-143.841 198.5,-104.762 198.5,-87.5944"/>
<polygon fill="#9a32cd" stroke="#9a32cd" points="195,-169.46 198.5,-179.46 202,-169.46 195,-169.46"/>
<text text-anchor="middle" x="255" y="-153" font-family="Helvetica,sans-Serif" font-size="10.00"> _fixtureWithMultipleTests</text>
<text text-anchor="middle" x="255" y="-142" font-family="Helvetica,sans-Serif" font-size="10.00">_yetAnotherFixture</text>
<text text-anchor="middle" x="255" y="-131" font-family="Helvetica,sans-Serif" font-size="10.00">_anotherFixture</text>
<text text-anchor="middle" x="255" y="-120" font-family="Helvetica,sans-Serif" font-size="10.00">_topLevelSuite</text>
<text text-anchor="middle" x="255" y="-109" font-family="Helvetica,sans-Serif" font-size="10.00">_dummyFixture</text>
</g>
<!-- Node4 -->
<g id="node4" class="node"><title>Node4</title>
<g id="a_node4"><a xlink:href="../../d6/d59/classNUnit_1_1Framework_1_1Internal_1_1Test.html" target="_top" xlink:title="The Test abstract class represents a test within the framework.">
<polygon fill="white" stroke="black" points="99,-268.5 99,-287.5 134,-287.5 134,-268.5 99,-268.5"/>
<text text-anchor="middle" x="116.5" y="-275.5" font-family="Helvetica,sans-Serif" font-size="10.00">Test</text>
</a>
</g>
</g>
<!-- Node4&#45;&gt;Node3 -->
<g id="edge3" class="edge"><title>Node4&#45;&gt;Node3</title>
<path fill="none" stroke="midnightblue" d="M132.399,-261.198C147.455,-246.234 169.852,-223.974 184.316,-209.597"/>
<polygon fill="midnightblue" stroke="midnightblue" points="129.901,-258.746 125.275,-268.278 134.835,-263.711 129.901,-258.746"/>
</g>
<!-- Node5 -->
<g id="node5" class="node"><title>Node5</title>
<g id="a_node5"><a xlink:href="../../d6/dd5/interfaceNUnit_1_1Framework_1_1Interfaces_1_1ITest.html" target="_top" xlink:title="Common interface supported by all representations of a test. Only includes informational fields....">
<polygon fill="white" stroke="black" points="24.5,-346.5 24.5,-365.5 62.5,-365.5 62.5,-346.5 24.5,-346.5"/>
<text text-anchor="middle" x="43.5" y="-353.5" font-family="Helvetica,sans-Serif" font-size="10.00">ITest</text>
</a>
</g>
</g>
<!-- Node5&#45;&gt;Node4 -->
<g id="edge4" class="edge"><title>Node5&#45;&gt;Node4</title>
<path fill="none" stroke="midnightblue" d="M58.9885,-338.875C74.0293,-323.216 96.2885,-300.042 108.224,-287.616"/>
<polygon fill="midnightblue" stroke="midnightblue" points="56.2772,-336.645 51.874,-346.282 61.3256,-341.494 56.2772,-336.645"/>
</g>
<!-- Node6 -->
<g id="node6" class="node"><title>Node6</title>
<g id="a_node6"><a xlink:href="../../d9/dc0/interfaceNUnit_1_1Framework_1_1Interfaces_1_1IXmlNodeBuilder.html" target="_top" xlink:title="An object implementing IXmlNodeBuilder is able to build an XML representation of itself and any child...">
<polygon fill="white" stroke="black" points="0,-403.5 0,-422.5 87,-422.5 87,-403.5 0,-403.5"/>
<text text-anchor="middle" x="43.5" y="-410.5" font-family="Helvetica,sans-Serif" font-size="10.00">IXmlNodeBuilder</text>
</a>
</g>
</g>
<!-- Node6&#45;&gt;Node5 -->
<g id="edge5" class="edge"><title>Node6&#45;&gt;Node5</title>
<path fill="none" stroke="midnightblue" d="M43.5,-393.117C43.5,-383.817 43.5,-373.056 43.5,-365.715"/>
<polygon fill="midnightblue" stroke="midnightblue" points="40.0001,-393.406 43.5,-403.406 47.0001,-393.406 40.0001,-393.406"/>
</g>
<!-- Node7 -->
<g id="node7" class="node"><title>Node7</title>
<g id="a_node7"><a xlink:title=" ">
<polygon fill="white" stroke="#bfbfbf" points="81,-346.5 81,-365.5 152,-365.5 152,-346.5 81,-346.5"/>
<text text-anchor="middle" x="116.5" y="-353.5" font-family="Helvetica,sans-Serif" font-size="10.00">IComparable</text>
</a>
</g>
</g>
<!-- Node7&#45;&gt;Node4 -->
<g id="edge6" class="edge"><title>Node7&#45;&gt;Node4</title>
<path fill="none" stroke="midnightblue" d="M116.5,-336.224C116.5,-320.697 116.5,-299.358 116.5,-287.616"/>
<polygon fill="midnightblue" stroke="midnightblue" points="113,-336.282 116.5,-346.282 120,-336.282 113,-336.282"/>
</g>
<!-- Node8 -->
<g id="node8" class="node"><title>Node8</title>
<g id="a_node8"><a xlink:title=" ">
<polygon fill="white" stroke="#bfbfbf" points="170,-346.5 170,-365.5 211,-365.5 211,-346.5 170,-346.5"/>
<text text-anchor="middle" x="190.5" y="-353.5" font-family="Helvetica,sans-Serif" font-size="10.00">static</text>
</a>
</g>
</g>
<!-- Node8&#45;&gt;Node4 -->
<g id="edge7" class="edge"><title>Node8&#45;&gt;Node4</title>
<path fill="none" stroke="#9a32cd" stroke-dasharray="5,2" d="M174.799,-338.875C159.553,-323.216 136.988,-300.042 124.89,-287.616"/>
<polygon fill="#9a32cd" stroke="#9a32cd" points="172.527,-341.559 182.011,-346.282 177.543,-336.675 172.527,-341.559"/>
<text text-anchor="middle" x="181" y="-320" font-family="Helvetica,sans-Serif" font-size="10.00"> _nextID</text>
</g>
<!-- Node9 -->
<g id="node9" class="node"><title>Node9</title>
<g id="a_node9"><a xlink:href="../../d7/d49/classNUnit_1_1Framework_1_1List.html" target="_top" xlink:title=" ">
<polygon fill="white" stroke="black" points="152,-257.5 152,-298.5 301,-298.5 301,-257.5 152,-257.5"/>
<text text-anchor="start" x="160" y="-286.5" font-family="Helvetica,sans-Serif" font-size="10.00">NUnit.Framework.List</text>
<text text-anchor="start" x="160" y="-275.5" font-family="Helvetica,sans-Serif" font-size="10.00">&lt; NUnit.Framework.Interfaces.</text>
<text text-anchor="middle" x="226.5" y="-264.5" font-family="Helvetica,sans-Serif" font-size="10.00">ITest &gt;</text>
</a>
</g>
</g>
<!-- Node9&#45;&gt;Node3 -->
<g id="edge8" class="edge"><title>Node9&#45;&gt;Node3</title>
<path fill="none" stroke="#9a32cd" stroke-dasharray="5,2" d="M216.465,-247.79C212.013,-234.831 206.978,-220.176 203.373,-209.685"/>
<polygon fill="#9a32cd" stroke="#9a32cd" points="213.163,-248.951 219.722,-257.271 219.783,-246.676 213.163,-248.951"/>
<text text-anchor="middle" x="226" y="-231" font-family="Helvetica,sans-Serif" font-size="10.00"> tests</text>
</g>
</g>
</svg>
