<?xml version="1.0" encoding="UTF-8" standalone="no"?>
<!DOCTYPE svg PUBLIC "-//W3C//DTD SVG 1.1//EN"
 "http://www.w3.org/Graphics/SVG/1.1/DTD/svg11.dtd">
<!-- Generated by graphviz version 2.38.0 (20140413.2041)
 -->
<!-- Title: AForge.Imaging.Formats.FITSImageInfo Pages: 1 -->
<svg width="196pt" height="140pt"
 viewBox="0.00 0.00 196.00 140.00" xmlns="http://www.w3.org/2000/svg" xmlns:xlink="http://www.w3.org/1999/xlink">
<g id="graph0" class="graph" transform="scale(1 1) rotate(0) translate(4 136)">
<title>AForge.Imaging.Formats.FITSImageInfo</title>
<polygon fill="white" stroke="none" points="-4,4 -4,-136 192,-136 192,4 -4,4"/>
<!-- Node1 -->
<g id="node1" class="node"><title>Node1</title>
<g id="a_node1"><a xlink:title="Information about FITS image&#39;s frame.">
<polygon fill="#bfbfbf" stroke="black" points="0,-0.5 0,-19.5 188,-19.5 188,-0.5 0,-0.5"/>
<text text-anchor="middle" x="94" y="-7.5" font-family="Helvetica,sans-Serif" font-size="10.00">AForge.Imaging.Formats.FITSImageInfo</text>
</a>
</g>
</g>
<!-- Node2 -->
<g id="node2" class="node"><title>Node2</title>
<g id="a_node2"><a xlink:href="../../d9/d2a/classAForge_1_1Imaging_1_1Formats_1_1ImageInfo.html" target="_top" xlink:title="Information about image&#39;s frame.">
<polygon fill="white" stroke="black" points="65,-56.5 65,-75.5 123,-75.5 123,-56.5 65,-56.5"/>
<text text-anchor="middle" x="94" y="-63.5" font-family="Helvetica,sans-Serif" font-size="10.00">ImageInfo</text>
</a>
</g>
</g>
<!-- Node2&#45;&gt;Node1 -->
<g id="edge1" class="edge"><title>Node2&#45;&gt;Node1</title>
<path fill="none" stroke="midnightblue" d="M94,-45.8045C94,-36.9102 94,-26.7798 94,-19.7511"/>
<polygon fill="midnightblue" stroke="midnightblue" points="90.5001,-46.083 94,-56.083 97.5001,-46.083 90.5001,-46.083"/>
</g>
<!-- Node3 -->
<g id="node3" class="node"><title>Node3</title>
<g id="a_node3"><a xlink:title=" ">
<polygon fill="white" stroke="#bfbfbf" points="63,-112.5 63,-131.5 125,-131.5 125,-112.5 63,-112.5"/>
<text text-anchor="middle" x="94" y="-119.5" font-family="Helvetica,sans-Serif" font-size="10.00">ICloneable</text>
</a>
</g>
</g>
<!-- Node3&#45;&gt;Node2 -->
<g id="edge2" class="edge"><title>Node3&#45;&gt;Node2</title>
<path fill="none" stroke="midnightblue" d="M94,-101.805C94,-92.9102 94,-82.7798 94,-75.7511"/>
<polygon fill="midnightblue" stroke="midnightblue" points="90.5001,-102.083 94,-112.083 97.5001,-102.083 90.5001,-102.083"/>
</g>
</g>
</svg>
