<?xml version="1.0" encoding="UTF-8" standalone="no"?>
<!DOCTYPE svg PUBLIC "-//W3C//DTD SVG 1.1//EN"
 "http://www.w3.org/Graphics/SVG/1.1/DTD/svg11.dtd">
<!-- Generated by graphviz version 2.38.0 (20140413.2041)
 -->
<!-- Title: TSP.TSPChromosome Pages: 1 -->
<svg width="185pt" height="323pt"
 viewBox="0.00 0.00 185.00 323.00" xmlns="http://www.w3.org/2000/svg" xmlns:xlink="http://www.w3.org/1999/xlink">
<g id="graph0" class="graph" transform="scale(1 1) rotate(0) translate(4 319)">
<title>TSP.TSPChromosome</title>
<polygon fill="white" stroke="none" points="-4,4 -4,-319 181,-319 181,4 -4,4"/>
<!-- Node1 -->
<g id="node1" class="node"><title>Node1</title>
<g id="a_node1"><a xlink:title="The chromosome is to solve TSP task (Travailing Salesman Problem).">
<polygon fill="#bfbfbf" stroke="black" points="56,-0.5 56,-19.5 171,-19.5 171,-0.5 56,-0.5"/>
<text text-anchor="middle" x="113.5" y="-7.5" font-family="Helvetica,sans-Serif" font-size="10.00">TSP.TSPChromosome</text>
</a>
</g>
</g>
<!-- Node2 -->
<g id="node2" class="node"><title>Node2</title>
<g id="a_node2"><a xlink:href="../../d9/dc4/classAForge_1_1Genetic_1_1PermutationChromosome.html" target="_top" xlink:title="Permutation chromosome.">
<polygon fill="white" stroke="black" points="50,-57.5 50,-76.5 177,-76.5 177,-57.5 50,-57.5"/>
<text text-anchor="middle" x="113.5" y="-64.5" font-family="Helvetica,sans-Serif" font-size="10.00">PermutationChromosome</text>
</a>
</g>
</g>
<!-- Node2&#45;&gt;Node1 -->
<g id="edge1" class="edge"><title>Node2&#45;&gt;Node1</title>
<path fill="none" stroke="midnightblue" d="M113.5,-47.1166C113.5,-37.8173 113.5,-27.0557 113.5,-19.7149"/>
<polygon fill="midnightblue" stroke="midnightblue" points="110,-47.4062 113.5,-57.4063 117,-47.4063 110,-47.4062"/>
</g>
<!-- Node3 -->
<g id="node3" class="node"><title>Node3</title>
<g id="a_node3"><a xlink:href="../../df/d47/classAForge_1_1Genetic_1_1ShortArrayChromosome.html" target="_top" xlink:title="Short array chromosome.">
<polygon fill="white" stroke="black" points="53,-114.5 53,-133.5 174,-133.5 174,-114.5 53,-114.5"/>
<text text-anchor="middle" x="113.5" y="-121.5" font-family="Helvetica,sans-Serif" font-size="10.00">ShortArrayChromosome</text>
</a>
</g>
</g>
<!-- Node3&#45;&gt;Node2 -->
<g id="edge2" class="edge"><title>Node3&#45;&gt;Node2</title>
<path fill="none" stroke="midnightblue" d="M113.5,-104.117C113.5,-94.8173 113.5,-84.0557 113.5,-76.7149"/>
<polygon fill="midnightblue" stroke="midnightblue" points="110,-104.406 113.5,-114.406 117,-104.406 110,-104.406"/>
</g>
<!-- Node4 -->
<g id="node4" class="node"><title>Node4</title>
<g id="a_node4"><a xlink:href="../../df/da8/classAForge_1_1Genetic_1_1ChromosomeBase.html" target="_top" xlink:title="Chromosomes&#39; base class.">
<polygon fill="white" stroke="black" points="0,-181.5 0,-200.5 97,-200.5 97,-181.5 0,-181.5"/>
<text text-anchor="middle" x="48.5" y="-188.5" font-family="Helvetica,sans-Serif" font-size="10.00">ChromosomeBase</text>
</a>
</g>
</g>
<!-- Node4&#45;&gt;Node3 -->
<g id="edge3" class="edge"><title>Node4&#45;&gt;Node3</title>
<path fill="none" stroke="midnightblue" d="M64.5032,-173.997C77.2504,-161.25 94.6053,-143.895 104.873,-133.627"/>
<polygon fill="midnightblue" stroke="midnightblue" points="61.8624,-171.688 57.2662,-181.234 66.8122,-176.638 61.8624,-171.688"/>
</g>
<!-- Node5 -->
<g id="node5" class="node"><title>Node5</title>
<g id="a_node5"><a xlink:href="../../d4/d66/interfaceAForge_1_1Genetic_1_1IChromosome.html" target="_top" xlink:title="Chromosome interface.">
<polygon fill="white" stroke="black" points="10,-238.5 10,-257.5 87,-257.5 87,-238.5 10,-238.5"/>
<text text-anchor="middle" x="48.5" y="-245.5" font-family="Helvetica,sans-Serif" font-size="10.00">IChromosome</text>
</a>
</g>
</g>
<!-- Node5&#45;&gt;Node4 -->
<g id="edge4" class="edge"><title>Node5&#45;&gt;Node4</title>
<path fill="none" stroke="midnightblue" d="M48.5,-228.117C48.5,-218.817 48.5,-208.056 48.5,-200.715"/>
<polygon fill="midnightblue" stroke="midnightblue" points="45.0001,-228.406 48.5,-238.406 52.0001,-228.406 45.0001,-228.406"/>
</g>
<!-- Node6 -->
<g id="node6" class="node"><title>Node6</title>
<g id="a_node6"><a xlink:title=" ">
<polygon fill="white" stroke="#bfbfbf" points="13,-295.5 13,-314.5 84,-314.5 84,-295.5 13,-295.5"/>
<text text-anchor="middle" x="48.5" y="-302.5" font-family="Helvetica,sans-Serif" font-size="10.00">IComparable</text>
</a>
</g>
</g>
<!-- Node6&#45;&gt;Node5 -->
<g id="edge5" class="edge"><title>Node6&#45;&gt;Node5</title>
<path fill="none" stroke="midnightblue" d="M48.5,-285.117C48.5,-275.817 48.5,-265.056 48.5,-257.715"/>
<polygon fill="midnightblue" stroke="midnightblue" points="45.0001,-285.406 48.5,-295.406 52.0001,-285.406 45.0001,-285.406"/>
</g>
<!-- Node7 -->
<g id="node7" class="node"><title>Node7</title>
<g id="a_node7"><a xlink:title=" ">
<polygon fill="white" stroke="#bfbfbf" points="115,-181.5 115,-200.5 156,-200.5 156,-181.5 115,-181.5"/>
<text text-anchor="middle" x="135.5" y="-188.5" font-family="Helvetica,sans-Serif" font-size="10.00">static</text>
</a>
</g>
</g>
<!-- Node7&#45;&gt;Node3 -->
<g id="edge6" class="edge"><title>Node7&#45;&gt;Node3</title>
<path fill="none" stroke="#9a32cd" stroke-dasharray="5,2" d="M129.21,-171.415C125.004,-158.988 119.666,-143.217 116.42,-133.627"/>
<polygon fill="#9a32cd" stroke="#9a32cd" points="126.012,-172.884 132.533,-181.234 132.642,-170.64 126.012,-172.884"/>
<text text-anchor="middle" x="136.5" y="-155" font-family="Helvetica,sans-Serif" font-size="10.00"> rand</text>
</g>
</g>
</svg>
