<?xml version="1.0" encoding="UTF-8" standalone="no"?>
<!DOCTYPE svg PUBLIC "-//W3C//DTD SVG 1.1//EN"
 "http://www.w3.org/Graphics/SVG/1.1/DTD/svg11.dtd">
<!-- Generated by graphviz version 2.38.0 (20140413.2041)
 -->
<!-- Title: CShell.Modules.Repl.Controls.CSReplTextEditor Pages: 1 -->
<svg width="157pt" height="162pt"
 viewBox="0.00 0.00 157.00 162.00" xmlns="http://www.w3.org/2000/svg" xmlns:xlink="http://www.w3.org/1999/xlink">
<g id="graph0" class="graph" transform="scale(1 1) rotate(0) translate(4 158)">
<title>CShell.Modules.Repl.Controls.CSReplTextEditor</title>
<polygon fill="white" stroke="none" points="-4,4 -4,-158 153,-158 153,4 -4,4"/>
<!-- Node1 -->
<g id="node1" class="node"><title>Node1</title>
<g id="a_node1"><a xlink:title=" ">
<polygon fill="#bfbfbf" stroke="black" points="0,-0.5 0,-30.5 149,-30.5 149,-0.5 0,-0.5"/>
<text text-anchor="start" x="8" y="-18.5" font-family="Helvetica,sans-Serif" font-size="10.00">CShell.Modules.Repl.Controls.</text>
<text text-anchor="middle" x="74.5" y="-7.5" font-family="Helvetica,sans-Serif" font-size="10.00">CSReplTextEditor</text>
</a>
</g>
</g>
<!-- Node2 -->
<g id="node2" class="node"><title>Node2</title>
<g id="a_node2"><a xlink:href="../../d4/d1c/classCShellCore_1_1CodeCompletion_1_1CodeTextEditor.html" target="_top" xlink:title=" ">
<polygon fill="white" stroke="black" points="33,-67.5 33,-86.5 116,-86.5 116,-67.5 33,-67.5"/>
<text text-anchor="middle" x="74.5" y="-74.5" font-family="Helvetica,sans-Serif" font-size="10.00">CodeTextEditor</text>
</a>
</g>
</g>
<!-- Node2&#45;&gt;Node1 -->
<g id="edge1" class="edge"><title>Node2&#45;&gt;Node1</title>
<path fill="none" stroke="midnightblue" d="M74.5,-57.2349C74.5,-48.5864 74.5,-38.4969 74.5,-30.523"/>
<polygon fill="midnightblue" stroke="midnightblue" points="71.0001,-57.4751 74.5,-67.4751 78.0001,-57.4751 71.0001,-57.4751"/>
</g>
<!-- Node3 -->
<g id="node3" class="node"><title>Node3</title>
<g id="a_node3"><a xlink:title=" ">
<polygon fill="white" stroke="#bfbfbf" points="12,-123.5 12,-153.5 137,-153.5 137,-123.5 12,-123.5"/>
<text text-anchor="start" x="20" y="-141.5" font-family="Helvetica,sans-Serif" font-size="10.00">ICSharpCode::AvalonEdit</text>
<text text-anchor="middle" x="74.5" y="-130.5" font-family="Helvetica,sans-Serif" font-size="10.00">::TextEditor</text>
</a>
</g>
</g>
<!-- Node3&#45;&gt;Node2 -->
<g id="edge2" class="edge"><title>Node3&#45;&gt;Node2</title>
<path fill="none" stroke="midnightblue" d="M74.5,-113.289C74.5,-103.857 74.5,-93.6548 74.5,-86.6578"/>
<polygon fill="midnightblue" stroke="midnightblue" points="71.0001,-113.399 74.5,-123.399 78.0001,-113.399 71.0001,-113.399"/>
</g>
</g>
</svg>
