<?xml version="1.0" encoding="UTF-8" standalone="no"?>
<!DOCTYPE svg PUBLIC "-//W3C//DTD SVG 1.1//EN"
 "http://www.w3.org/Graphics/SVG/1.1/DTD/svg11.dtd">
<!-- Generated by graphviz version 2.38.0 (20140413.2041)
 -->
<!-- Title: NeuronDotNet.Core.IInitializer Pages: 1 -->
<svg width="629pt" height="186pt"
 viewBox="0.00 0.00 629.00 186.00" xmlns="http://www.w3.org/2000/svg" xmlns:xlink="http://www.w3.org/1999/xlink">
<g id="graph0" class="graph" transform="scale(1 1) rotate(0) translate(4 182)">
<title>NeuronDotNet.Core.IInitializer</title>
<polygon fill="white" stroke="none" points="-4,4 -4,-182 625,-182 625,4 -4,4"/>
<!-- Node1 -->
<g id="node1" class="node"><title>Node1</title>
<g id="a_node1"><a xlink:title="Initializer interface. An initializer should define initialization methods for all concrete initializ...">
<polygon fill="#bfbfbf" stroke="black" points="105,-79 105,-98 249,-98 249,-79 105,-79"/>
<text text-anchor="middle" x="177" y="-86" font-family="Helvetica,sans-Serif" font-size="10.00">NeuronDotNet.Core.IInitializer</text>
</a>
</g>
</g>
<!-- Node3 -->
<g id="node3" class="node"><title>Node3</title>
<g id="a_node3"><a xlink:href="../../de/d3a/classNeuronDotNet_1_1Core_1_1Initializers_1_1ConstantFunction.html" target="_top" xlink:title="An IInitializer using constant function">
<polygon fill="white" stroke="black" points="285,-147.5 285,-177.5 435,-177.5 435,-147.5 285,-147.5"/>
<text text-anchor="start" x="293" y="-165.5" font-family="Helvetica,sans-Serif" font-size="10.00">NeuronDotNet.Core.Initializers.</text>
<text text-anchor="middle" x="360" y="-154.5" font-family="Helvetica,sans-Serif" font-size="10.00">ConstantFunction</text>
</a>
</g>
</g>
<!-- Node1&#45;&gt;Node3 -->
<g id="edge2" class="edge"><title>Node1&#45;&gt;Node3</title>
<path fill="none" stroke="midnightblue" d="M206.615,-102.585C227.967,-112.854 257.99,-126.786 285,-137.5 293.698,-140.95 303.082,-144.356 312.152,-147.492"/>
<polygon fill="midnightblue" stroke="midnightblue" points="207.983,-99.3586 197.457,-98.1498 204.931,-105.659 207.983,-99.3586"/>
</g>
<!-- Node5 -->
<g id="node5" class="node"><title>Node5</title>
<g id="a_node5"><a xlink:href="../../d2/d19/classNeuronDotNet_1_1Core_1_1Initializers_1_1NguyenWidrowFunction.html" target="_top" xlink:title="An IInitializer using Nguyen Widrow function.">
<polygon fill="white" stroke="black" points="285,-98.5 285,-128.5 435,-128.5 435,-98.5 285,-98.5"/>
<text text-anchor="start" x="293" y="-116.5" font-family="Helvetica,sans-Serif" font-size="10.00">NeuronDotNet.Core.Initializers.</text>
<text text-anchor="middle" x="360" y="-105.5" font-family="Helvetica,sans-Serif" font-size="10.00">NguyenWidrowFunction</text>
</a>
</g>
</g>
<!-- Node1&#45;&gt;Node5 -->
<g id="edge4" class="edge"><title>Node1&#45;&gt;Node5</title>
<path fill="none" stroke="midnightblue" d="M256.919,-99.4004C266.187,-100.681 275.621,-101.984 284.821,-103.254"/>
<polygon fill="midnightblue" stroke="midnightblue" points="257.33,-95.924 246.945,-98.0227 256.372,-102.858 257.33,-95.924"/>
</g>
<!-- Node6 -->
<g id="node6" class="node"><title>Node6</title>
<g id="a_node6"><a xlink:href="../../d0/d36/classNeuronDotNet_1_1Core_1_1Initializers_1_1NormalizedRandomFunction.html" target="_top" xlink:title="An IInitializer using Normalized Random function.">
<polygon fill="white" stroke="black" points="285,-49.5 285,-79.5 435,-79.5 435,-49.5 285,-49.5"/>
<text text-anchor="start" x="293" y="-67.5" font-family="Helvetica,sans-Serif" font-size="10.00">NeuronDotNet.Core.Initializers.</text>
<text text-anchor="middle" x="360" y="-56.5" font-family="Helvetica,sans-Serif" font-size="10.00">NormalizedRandomFunction</text>
</a>
</g>
</g>
<!-- Node1&#45;&gt;Node6 -->
<g id="edge5" class="edge"><title>Node1&#45;&gt;Node6</title>
<path fill="none" stroke="midnightblue" d="M259.052,-77.7528C267.661,-76.6112 276.386,-75.4543 284.91,-74.3241"/>
<polygon fill="midnightblue" stroke="midnightblue" points="258.47,-74.2993 249.016,-79.0834 259.39,-81.2385 258.47,-74.2993"/>
</g>
<!-- Node7 -->
<g id="node7" class="node"><title>Node7</title>
<g id="a_node7"><a xlink:href="../../d8/dbe/classNeuronDotNet_1_1Core_1_1Initializers_1_1RandomFunction.html" target="_top" xlink:title="An IInitializer using random function">
<polygon fill="white" stroke="black" points="285,-0.5 285,-30.5 435,-30.5 435,-0.5 285,-0.5"/>
<text text-anchor="start" x="293" y="-18.5" font-family="Helvetica,sans-Serif" font-size="10.00">NeuronDotNet.Core.Initializers.</text>
<text text-anchor="middle" x="360" y="-7.5" font-family="Helvetica,sans-Serif" font-size="10.00">RandomFunction</text>
</a>
</g>
</g>
<!-- Node1&#45;&gt;Node7 -->
<g id="edge6" class="edge"><title>Node1&#45;&gt;Node7</title>
<path fill="none" stroke="midnightblue" d="M206.187,-74.5056C227.543,-64.1703 257.76,-50.1134 285,-39.5 292.928,-36.411 301.436,-33.3888 309.758,-30.5877"/>
<polygon fill="midnightblue" stroke="midnightblue" points="204.495,-71.437 197.041,-78.9666 207.564,-77.7285 204.495,-71.437"/>
</g>
<!-- Node2 -->
<g id="node2" class="node"><title>Node2</title>
<g id="a_node2"><a xlink:title=" ">
<polygon fill="white" stroke="#bfbfbf" points="0,-79 0,-98 69,-98 69,-79 0,-79"/>
<text text-anchor="middle" x="34.5" y="-86" font-family="Helvetica,sans-Serif" font-size="10.00">ISerializable</text>
</a>
</g>
</g>
<!-- Node2&#45;&gt;Node1 -->
<g id="edge1" class="edge"><title>Node2&#45;&gt;Node1</title>
<path fill="none" stroke="midnightblue" d="M79.4242,-88.5C87.5091,-88.5 96.1379,-88.5 104.786,-88.5"/>
<polygon fill="midnightblue" stroke="midnightblue" points="79.1533,-85.0001 69.1533,-88.5 79.1532,-92.0001 79.1533,-85.0001"/>
</g>
<!-- Node4 -->
<g id="node4" class="node"><title>Node4</title>
<g id="a_node4"><a xlink:href="../../df/d48/classNeuronDotNet_1_1Core_1_1Initializers_1_1ZeroFunction.html" target="_top" xlink:title="An IInitializer using zero function">
<polygon fill="white" stroke="black" points="471,-147.5 471,-177.5 621,-177.5 621,-147.5 471,-147.5"/>
<text text-anchor="start" x="479" y="-165.5" font-family="Helvetica,sans-Serif" font-size="10.00">NeuronDotNet.Core.Initializers.</text>
<text text-anchor="middle" x="546" y="-154.5" font-family="Helvetica,sans-Serif" font-size="10.00">ZeroFunction</text>
</a>
</g>
</g>
<!-- Node3&#45;&gt;Node4 -->
<g id="edge3" class="edge"><title>Node3&#45;&gt;Node4</title>
<path fill="none" stroke="midnightblue" d="M445.066,-162.5C453.654,-162.5 462.336,-162.5 470.808,-162.5"/>
<polygon fill="midnightblue" stroke="midnightblue" points="445.045,-159 435.044,-162.5 445.044,-166 445.045,-159"/>
</g>
</g>
</svg>
