<?xml version="1.0" encoding="UTF-8" standalone="no"?>
<!DOCTYPE svg PUBLIC "-//W3C//DTD SVG 1.1//EN"
 "http://www.w3.org/Graphics/SVG/1.1/DTD/svg11.dtd">
<!-- Generated by graphviz version 2.38.0 (20140413.2041)
 -->
<!-- Title: IG.Num.RealFunction Pages: 1 -->
<svg width="738pt" height="845pt"
 viewBox="0.00 0.00 738.00 845.00" xmlns="http://www.w3.org/2000/svg" xmlns:xlink="http://www.w3.org/1999/xlink">
<g id="graph0" class="graph" transform="scale(1 1) rotate(0) translate(4 841)">
<title>IG.Num.RealFunction</title>
<polygon fill="white" stroke="none" points="-4,4 -4,-841 734,-841 734,4 -4,4"/>
<!-- Node1 -->
<g id="node1" class="node"><title>Node1</title>
<g id="a_node1"><a xlink:title="Represents a real function of a real variabe.">
<polygon fill="#bfbfbf" stroke="black" points="244,-404 244,-423 354,-423 354,-404 244,-404"/>
<text text-anchor="middle" x="299" y="-411" font-family="Helvetica,sans-Serif" font-size="10.00">IG.Num.RealFunction</text>
</a>
</g>
</g>
<!-- Node5 -->
<g id="node5" class="node"><title>Node5</title>
<g id="a_node5"><a xlink:href="../../d3/d60/classIG_1_1Gr3d_1_1VtkPlotBase_1_1ExampleFunctionTorusKnot.html" target="_top" xlink:title="Functions for all 3 co&#45;ordinates of parametric curve definition of a p&#45;q torus knot ....">
<polygon fill="white" stroke="black" points="397.5,-806.5 397.5,-836.5 546.5,-836.5 546.5,-806.5 397.5,-806.5"/>
<text text-anchor="start" x="405.5" y="-824.5" font-family="Helvetica,sans-Serif" font-size="10.00">IG.Gr3d.VtkPlotBase.Example</text>
<text text-anchor="middle" x="472" y="-813.5" font-family="Helvetica,sans-Serif" font-size="10.00">FunctionTorusKnot</text>
</a>
</g>
</g>
<!-- Node1&#45;&gt;Node5 -->
<g id="edge5" class="edge"><title>Node1&#45;&gt;Node5</title>
<path fill="none" stroke="midnightblue" d="M302.066,-433.298C309.815,-503.931 339.331,-742.232 390,-796.5 393.616,-800.373 397.816,-803.65 402.366,-806.424"/>
<polygon fill="midnightblue" stroke="midnightblue" points="305.521,-432.69 300.974,-423.121 298.561,-433.437 305.521,-432.69"/>
</g>
<!-- Node6 -->
<g id="node6" class="node"><title>Node6</title>
<g id="a_node6"><a xlink:href="../../dc/d39/classIG_1_1Gr3d_1_1VtkPlotBase_1_1ExampleSineFunctionForLissajous.html" target="_top" xlink:title="Sine function with the specified frequency factor and phase. Used in the ExampleLissajous.">
<polygon fill="white" stroke="black" points="397.5,-757.5 397.5,-787.5 546.5,-787.5 546.5,-757.5 397.5,-757.5"/>
<text text-anchor="start" x="405.5" y="-775.5" font-family="Helvetica,sans-Serif" font-size="10.00">IG.Gr3d.VtkPlotBase.Example</text>
<text text-anchor="middle" x="472" y="-764.5" font-family="Helvetica,sans-Serif" font-size="10.00">SineFunctionForLissajous</text>
</a>
</g>
</g>
<!-- Node1&#45;&gt;Node6 -->
<g id="edge6" class="edge"><title>Node1&#45;&gt;Node6</title>
<path fill="none" stroke="midnightblue" d="M299.194,-433.159C297.973,-490.077 302.438,-656.713 390,-747.5 393.678,-751.313 397.923,-754.549 402.504,-757.293"/>
<polygon fill="midnightblue" stroke="midnightblue" points="302.696,-433.12 299.501,-423.019 295.7,-432.908 302.696,-433.12"/>
</g>
<!-- Node7 -->
<g id="node7" class="node"><title>Node7</title>
<g id="a_node7"><a xlink:href="../../d1/dad/classIG_1_1Gr_1_1PlotterZedGraph_1_1ExampleSineFunctionForLissajous.html" target="_top" xlink:title="Sine function with the specified frequency factor and phase. Used in the ExampleLissajous.">
<polygon fill="white" stroke="black" points="394.5,-708.5 394.5,-738.5 549.5,-738.5 549.5,-708.5 394.5,-708.5"/>
<text text-anchor="start" x="402.5" y="-726.5" font-family="Helvetica,sans-Serif" font-size="10.00">IG.Gr.PlotterZedGraph.Example</text>
<text text-anchor="middle" x="472" y="-715.5" font-family="Helvetica,sans-Serif" font-size="10.00">SineFunctionForLissajous</text>
</a>
</g>
</g>
<!-- Node1&#45;&gt;Node7 -->
<g id="edge7" class="edge"><title>Node1&#45;&gt;Node7</title>
<path fill="none" stroke="midnightblue" d="M300.283,-433.303C302.112,-484.628 314.2,-623.192 390,-698.5 393.863,-702.338 398.301,-705.589 403.068,-708.342"/>
<polygon fill="midnightblue" stroke="midnightblue" points="303.779,-433.125 300.021,-423.22 296.782,-433.307 303.779,-433.125"/>
</g>
<!-- Node8 -->
<g id="node8" class="node"><title>Node8</title>
<g id="a_node8"><a xlink:href="../../db/d84/classIG_1_1Lib_1_1LoadableRealFunctionBase.html" target="_top" xlink:title="A RealFunction class used as base class for dynamically loaded functions. Bunctions loaded from scrip...">
<polygon fill="white" stroke="black" points="390,-670 390,-689 554,-689 554,-670 390,-670"/>
<text text-anchor="middle" x="472" y="-677" font-family="Helvetica,sans-Serif" font-size="10.00">IG.Lib.LoadableRealFunctionBase</text>
</a>
</g>
</g>
<!-- Node1&#45;&gt;Node8 -->
<g id="edge8" class="edge"><title>Node1&#45;&gt;Node8</title>
<path fill="none" stroke="midnightblue" d="M301.077,-433.121C304.751,-479.98 320.782,-599.066 390,-660.5 394.321,-664.335 399.27,-667.436 404.544,-669.938"/>
<polygon fill="midnightblue" stroke="midnightblue" points="304.565,-432.817 300.398,-423.076 297.581,-433.29 304.565,-432.817"/>
</g>
<!-- Node10 -->
<g id="node10" class="node"><title>Node10</title>
<g id="a_node10"><a xlink:href="../../d2/d7a/classIG_1_1Num_1_1ComposedFunction.html" target="_top" xlink:title="Composition of real functions.">
<polygon fill="white" stroke="black" points="403.5,-632 403.5,-651 540.5,-651 540.5,-632 403.5,-632"/>
<text text-anchor="middle" x="472" y="-639" font-family="Helvetica,sans-Serif" font-size="10.00">IG.Num.ComposedFunction</text>
</a>
</g>
</g>
<!-- Node1&#45;&gt;Node10 -->
<g id="edge10" class="edge"><title>Node1&#45;&gt;Node10</title>
<path fill="none" stroke="midnightblue" d="M302.546,-433.177C309.02,-474.853 330.079,-572.306 390,-622.5 394.54,-626.303 399.703,-629.375 405.174,-631.853"/>
<polygon fill="midnightblue" stroke="midnightblue" points="305.999,-432.601 301.114,-423.2 299.07,-433.596 305.999,-432.601"/>
</g>
<!-- Node11 -->
<g id="node11" class="node"><title>Node11</title>
<g id="a_node11"><a xlink:href="../../d6/d88/classIG_1_1Num_1_1Func_1_1Constant.html" target="_top" xlink:title="A RealFunction class representing a constant function.">
<polygon fill="white" stroke="black" points="414,-594 414,-613 530,-613 530,-594 414,-594"/>
<text text-anchor="middle" x="472" y="-601" font-family="Helvetica,sans-Serif" font-size="10.00">IG.Num.Func.Constant</text>
</a>
</g>
</g>
<!-- Node1&#45;&gt;Node11 -->
<g id="edge11" class="edge"><title>Node1&#45;&gt;Node11</title>
<path fill="none" stroke="midnightblue" d="M304.613,-433.224C314.084,-469.168 339.236,-545.235 390,-584.5 396.969,-589.891 405.217,-593.791 413.737,-596.606"/>
<polygon fill="midnightblue" stroke="midnightblue" points="307.894,-431.916 302.076,-423.062 301.103,-433.612 307.894,-431.916"/>
</g>
<!-- Node12 -->
<g id="node12" class="node"><title>Node12</title>
<g id="a_node12"><a xlink:href="../../dc/dbf/classIG_1_1Num_1_1Func_1_1Cubic.html" target="_top" xlink:title="Cubic function, f(x) = a3*x*x*x + a2*x*x + a1*x + a0. Specific properties: Zero &#45; returns a zero....">
<polygon fill="white" stroke="black" points="421,-556 421,-575 523,-575 523,-556 421,-556"/>
<text text-anchor="middle" x="472" y="-563" font-family="Helvetica,sans-Serif" font-size="10.00">IG.Num.Func.Cubic</text>
</a>
</g>
</g>
<!-- Node1&#45;&gt;Node12 -->
<g id="edge12" class="edge"><title>Node1&#45;&gt;Node12</title>
<path fill="none" stroke="midnightblue" d="M307.435,-432.492C319.903,-461.747 347.874,-517.485 390,-546.5 399.041,-552.727 409.852,-556.931 420.587,-559.765"/>
<polygon fill="midnightblue" stroke="midnightblue" points="310.579,-430.934 303.546,-423.011 304.103,-433.591 310.579,-430.934"/>
</g>
<!-- Node13 -->
<g id="node13" class="node"><title>Node13</title>
<g id="a_node13"><a xlink:href="../../da/da5/classIG_1_1Num_1_1Func_1_1Exp.html" target="_top" xlink:title="A RealFunction class representing exponential function.">
<polygon fill="white" stroke="black" points="424.5,-518 424.5,-537 519.5,-537 519.5,-518 424.5,-518"/>
<text text-anchor="middle" x="472" y="-525" font-family="Helvetica,sans-Serif" font-size="10.00">IG.Num.Func.Exp</text>
</a>
</g>
</g>
<!-- Node1&#45;&gt;Node13 -->
<g id="edge13" class="edge"><title>Node1&#45;&gt;Node13</title>
<path fill="none" stroke="midnightblue" d="M311.901,-431.375C327.304,-453.052 356.214,-489.092 390,-508.5 400.396,-514.472 412.565,-518.568 424.265,-521.378"/>
<polygon fill="midnightblue" stroke="midnightblue" points="314.715,-429.291 306.151,-423.054 308.956,-433.271 314.715,-429.291"/>
</g>
<!-- Node14 -->
<g id="node14" class="node"><title>Node14</title>
<g id="a_node14"><a xlink:href="../../d4/d1e/classIG_1_1Num_1_1Func_1_1Identity.html" target="_top" xlink:title="A RealFunction class representing identity (or linear) function.">
<polygon fill="white" stroke="black" points="417.5,-480 417.5,-499 526.5,-499 526.5,-480 417.5,-480"/>
<text text-anchor="middle" x="472" y="-487" font-family="Helvetica,sans-Serif" font-size="10.00">IG.Num.Func.Identity</text>
</a>
</g>
</g>
<!-- Node1&#45;&gt;Node14 -->
<g id="edge14" class="edge"><title>Node1&#45;&gt;Node14</title>
<path fill="none" stroke="midnightblue" d="M320.4,-429.233C337.962,-442.067 364.442,-459.77 390,-470.5 399.056,-474.302 409.017,-477.425 418.761,-479.961"/>
<polygon fill="midnightblue" stroke="midnightblue" points="322.19,-426.202 312.081,-423.029 318.004,-431.813 322.19,-426.202"/>
</g>
<!-- Node15 -->
<g id="node15" class="node"><title>Node15</title>
<g id="a_node15"><a xlink:href="../../d8/ddb/classIG_1_1Num_1_1Func_1_1Linear.html" target="_top" xlink:title="Linear function, f(x) = a1*x + a0. Specific properties: Zero &#45; returns a zero. HasZero &#45; either the f...">
<polygon fill="white" stroke="black" points="420,-442 420,-461 524,-461 524,-442 420,-442"/>
<text text-anchor="middle" x="472" y="-449" font-family="Helvetica,sans-Serif" font-size="10.00">IG.Num.Func.Linear</text>
</a>
</g>
</g>
<!-- Node1&#45;&gt;Node15 -->
<g id="edge15" class="edge"><title>Node1&#45;&gt;Node15</title>
<path fill="none" stroke="midnightblue" d="M353.209,-425.324C377.317,-430.682 405.44,-436.931 428.16,-441.98"/>
<polygon fill="midnightblue" stroke="midnightblue" points="353.672,-421.842 343.151,-423.089 352.153,-428.675 353.672,-421.842"/>
</g>
<!-- Node16 -->
<g id="node16" class="node"><title>Node16</title>
<g id="a_node16"><a xlink:href="../../dd/dd0/classIG_1_1Num_1_1Func_1_1PenaltyPower.html" target="_top" xlink:title="Penalty function consisting of sticked together constant zero&#45;valued function and a power function wi...">
<polygon fill="white" stroke="black" points="403.5,-404 403.5,-423 540.5,-423 540.5,-404 403.5,-404"/>
<text text-anchor="middle" x="472" y="-411" font-family="Helvetica,sans-Serif" font-size="10.00">IG.Num.Func.PenaltyPower</text>
</a>
</g>
</g>
<!-- Node1&#45;&gt;Node16 -->
<g id="edge16" class="edge"><title>Node1&#45;&gt;Node16</title>
<path fill="none" stroke="midnightblue" d="M364.206,-413.5C377.013,-413.5 390.5,-413.5 403.416,-413.5"/>
<polygon fill="midnightblue" stroke="midnightblue" points="364.106,-410 354.105,-413.5 364.105,-417 364.106,-410"/>
</g>
<!-- Node17 -->
<g id="node17" class="node"><title>Node17</title>
<g id="a_node17"><a xlink:href="../../d7/d61/classIG_1_1Num_1_1Func_1_1Quadratic.html" target="_top" xlink:title="Quadratic function, f(x) = a2*x*x + a1*x + a0. Specific properties: Zero &#45; returns a zero....">
<polygon fill="white" stroke="black" points="412.5,-366 412.5,-385 531.5,-385 531.5,-366 412.5,-366"/>
<text text-anchor="middle" x="472" y="-373" font-family="Helvetica,sans-Serif" font-size="10.00">IG.Num.Func.Quadratic</text>
</a>
</g>
</g>
<!-- Node1&#45;&gt;Node17 -->
<g id="edge17" class="edge"><title>Node1&#45;&gt;Node17</title>
<path fill="none" stroke="midnightblue" d="M353.209,-401.676C377.317,-396.318 405.44,-390.069 428.16,-385.02"/>
<polygon fill="midnightblue" stroke="midnightblue" points="352.153,-398.325 343.151,-403.911 353.672,-405.158 352.153,-398.325"/>
</g>
<!-- Node18 -->
<g id="node18" class="node"><title>Node18</title>
<g id="a_node18"><a xlink:href="../../d0/dc0/classIG_1_1Num_1_1Func_1_1ReciprocalPower.html" target="_top" xlink:title="A RealFunction class representing a reciprocal power function.">
<polygon fill="white" stroke="black" points="397,-328 397,-347 547,-347 547,-328 397,-328"/>
<text text-anchor="middle" x="472" y="-335" font-family="Helvetica,sans-Serif" font-size="10.00">IG.Num.Func.ReciprocalPower</text>
</a>
</g>
</g>
<!-- Node1&#45;&gt;Node18 -->
<g id="edge18" class="edge"><title>Node1&#45;&gt;Node18</title>
<path fill="none" stroke="midnightblue" d="M320.4,-397.767C337.962,-384.933 364.442,-367.23 390,-356.5 399.056,-352.698 409.017,-349.575 418.761,-347.039"/>
<polygon fill="midnightblue" stroke="midnightblue" points="318.004,-395.187 312.081,-403.971 322.19,-400.798 318.004,-395.187"/>
</g>
<!-- Node19 -->
<g id="node19" class="node"><title>Node19</title>
<g id="a_node19"><a xlink:href="../../d9/d61/classIG_1_1Num_1_1Func_1_1WeightGauss.html" target="_top" xlink:title="A RealFunction class representing bell like polynomial weighting function with finite support,...">
<polygon fill="white" stroke="black" points="403.5,-290 403.5,-309 540.5,-309 540.5,-290 403.5,-290"/>
<text text-anchor="middle" x="472" y="-297" font-family="Helvetica,sans-Serif" font-size="10.00">IG.Num.Func.WeightGauss</text>
</a>
</g>
</g>
<!-- Node1&#45;&gt;Node19 -->
<g id="edge19" class="edge"><title>Node1&#45;&gt;Node19</title>
<path fill="none" stroke="midnightblue" d="M311.901,-395.625C327.304,-373.948 356.214,-337.908 390,-318.5 396.763,-314.615 404.278,-311.523 411.925,-309.064"/>
<polygon fill="midnightblue" stroke="midnightblue" points="308.956,-393.729 306.151,-403.946 314.715,-397.709 308.956,-393.729"/>
</g>
<!-- Node20 -->
<g id="node20" class="node"><title>Node20</title>
<g id="a_node20"><a xlink:href="../../d5/d42/classIG_1_1Num_1_1Func_1_1WeightPol3.html" target="_top" xlink:title="A RealFunction class representing bell like polynomial weighting function with finite support....">
<polygon fill="white" stroke="black" points="408,-252 408,-271 536,-271 536,-252 408,-252"/>
<text text-anchor="middle" x="472" y="-259" font-family="Helvetica,sans-Serif" font-size="10.00">IG.Num.Func.WeightPol3</text>
</a>
</g>
</g>
<!-- Node1&#45;&gt;Node20 -->
<g id="edge20" class="edge"><title>Node1&#45;&gt;Node20</title>
<path fill="none" stroke="midnightblue" d="M307.435,-394.508C319.903,-365.253 347.874,-309.515 390,-280.5 395.591,-276.649 401.859,-273.572 408.368,-271.114"/>
<polygon fill="midnightblue" stroke="midnightblue" points="304.103,-393.409 303.546,-403.989 310.579,-396.066 304.103,-393.409"/>
</g>
<!-- Node21 -->
<g id="node21" class="node"><title>Node21</title>
<g id="a_node21"><a xlink:href="../../da/d50/classIG_1_1Num_1_1Func_1_1WeightPol4.html" target="_top" xlink:title="A RealFunction class representing bell like polynomial weighting function with finite support,...">
<polygon fill="white" stroke="black" points="408,-214 408,-233 536,-233 536,-214 408,-214"/>
<text text-anchor="middle" x="472" y="-221" font-family="Helvetica,sans-Serif" font-size="10.00">IG.Num.Func.WeightPol4</text>
</a>
</g>
</g>
<!-- Node1&#45;&gt;Node21 -->
<g id="edge21" class="edge"><title>Node1&#45;&gt;Node21</title>
<path fill="none" stroke="midnightblue" d="M304.613,-393.776C314.084,-357.832 339.236,-281.765 390,-242.5 395.37,-238.346 401.498,-235.078 407.926,-232.509"/>
<polygon fill="midnightblue" stroke="midnightblue" points="301.103,-393.388 302.076,-403.938 307.894,-395.084 301.103,-393.388"/>
</g>
<!-- Node22 -->
<g id="node22" class="node"><title>Node22</title>
<g id="a_node22"><a xlink:href="../../d1/d27/classIG_1_1Num_1_1Func_1_1WeightPol5.html" target="_top" xlink:title="A RealFunction class representing bell like polynomial weighting function with finite support,...">
<polygon fill="white" stroke="black" points="408,-176 408,-195 536,-195 536,-176 408,-176"/>
<text text-anchor="middle" x="472" y="-183" font-family="Helvetica,sans-Serif" font-size="10.00">IG.Num.Func.WeightPol5</text>
</a>
</g>
</g>
<!-- Node1&#45;&gt;Node22 -->
<g id="edge22" class="edge"><title>Node1&#45;&gt;Node22</title>
<path fill="none" stroke="midnightblue" d="M302.546,-393.823C309.02,-352.147 330.079,-254.694 390,-204.5 395.204,-200.141 401.228,-196.742 407.594,-194.097"/>
<polygon fill="midnightblue" stroke="midnightblue" points="299.07,-393.404 301.114,-403.8 305.999,-394.399 299.07,-393.404"/>
</g>
<!-- Node23 -->
<g id="node23" class="node"><title>Node23</title>
<g id="a_node23"><a xlink:href="../../df/d14/classIG_1_1Num_1_1Func_1_1WeightPol7.html" target="_top" xlink:title="A RealFunction class representing bell like polynomial weighting function with finite support,...">
<polygon fill="white" stroke="black" points="408,-138 408,-157 536,-157 536,-138 408,-138"/>
<text text-anchor="middle" x="472" y="-145" font-family="Helvetica,sans-Serif" font-size="10.00">IG.Num.Func.WeightPol7</text>
</a>
</g>
</g>
<!-- Node1&#45;&gt;Node23 -->
<g id="edge23" class="edge"><title>Node1&#45;&gt;Node23</title>
<path fill="none" stroke="midnightblue" d="M301.077,-393.879C304.751,-347.02 320.782,-227.934 390,-166.5 395.185,-161.898 401.274,-158.353 407.745,-155.632"/>
<polygon fill="midnightblue" stroke="midnightblue" points="297.581,-393.71 300.398,-403.924 304.565,-394.183 297.581,-393.71"/>
</g>
<!-- Node24 -->
<g id="node24" class="node"><title>Node24</title>
<g id="a_node24"><a xlink:href="../../d4/d40/classIG_1_1Num_1_1Func_1_1WeightReciprocalPower.html" target="_top" xlink:title="A RealFunction class representing bell like polynomial weighting function with finite support,...">
<polygon fill="white" stroke="black" points="395,-88.5 395,-118.5 549,-118.5 549,-88.5 395,-88.5"/>
<text text-anchor="start" x="403" y="-106.5" font-family="Helvetica,sans-Serif" font-size="10.00">IG.Num.Func.WeightReciprocal</text>
<text text-anchor="middle" x="472" y="-95.5" font-family="Helvetica,sans-Serif" font-size="10.00">Power</text>
</a>
</g>
</g>
<!-- Node1&#45;&gt;Node24 -->
<g id="edge24" class="edge"><title>Node1&#45;&gt;Node24</title>
<path fill="none" stroke="midnightblue" d="M300.283,-393.697C302.112,-342.372 314.2,-203.808 390,-128.5 393.863,-124.662 398.301,-121.411 403.068,-118.658"/>
<polygon fill="midnightblue" stroke="midnightblue" points="296.782,-393.693 300.021,-403.78 303.779,-393.875 296.782,-393.693"/>
</g>
<!-- Node25 -->
<g id="node25" class="node"><title>Node25</title>
<g id="a_node25"><a xlink:href="../../d6/d03/classIG_1_1Num_1_1FunctionPolynomial.html" target="_top" xlink:title="Polynomial real functions of one variable.">
<polygon fill="white" stroke="black" points="403,-50 403,-69 541,-69 541,-50 403,-50"/>
<text text-anchor="middle" x="472" y="-57" font-family="Helvetica,sans-Serif" font-size="10.00">IG.Num.FunctionPolynomial</text>
</a>
</g>
</g>
<!-- Node1&#45;&gt;Node25 -->
<g id="edge25" class="edge"><title>Node1&#45;&gt;Node25</title>
<path fill="none" stroke="midnightblue" d="M302.656,-393.59C311.738,-328.477 343.578,-123.457 390,-78.5 393.943,-74.6815 398.5,-71.578 403.402,-69.0614"/>
<polygon fill="midnightblue" stroke="midnightblue" points="299.155,-393.358 301.268,-403.74 306.091,-394.307 299.155,-393.358"/>
</g>
<!-- Node26 -->
<g id="node26" class="node"><title>Node26</title>
<g id="a_node26"><a xlink:href="../../dc/d7d/classIG_1_1Num_1_1LineSearchTestFunc_1_1Quadratic.html" target="_top" xlink:title="A RealFunction class representing quadratic function for testing line search algorithms.">
<polygon fill="white" stroke="black" points="399.5,-0.5 399.5,-30.5 544.5,-30.5 544.5,-0.5 399.5,-0.5"/>
<text text-anchor="start" x="407.5" y="-18.5" font-family="Helvetica,sans-Serif" font-size="10.00">IG.Num.LineSearchTestFunc.</text>
<text text-anchor="middle" x="472" y="-7.5" font-family="Helvetica,sans-Serif" font-size="10.00">Quadratic</text>
</a>
</g>
</g>
<!-- Node1&#45;&gt;Node26 -->
<g id="edge26" class="edge"><title>Node1&#45;&gt;Node26</title>
<path fill="none" stroke="midnightblue" d="M302.193,-393.762C310.277,-324.398 340.534,-93.164 390,-40.5 393.627,-36.6382 397.836,-33.3682 402.391,-30.5999"/>
<polygon fill="midnightblue" stroke="midnightblue" points="298.706,-393.451 301.05,-403.783 305.661,-394.244 298.706,-393.451"/>
</g>
<!-- Node2 -->
<g id="node2" class="node"><title>Node2</title>
<g id="a_node2"><a xlink:href="../../d6/d30/classIG_1_1Num_1_1RealFunctionBase.html" target="_top" xlink:title="Base class for real functions of real variable.">
<polygon fill="white" stroke="black" points="112,-404 112,-423 208,-423 208,-404 112,-404"/>
<text text-anchor="middle" x="160" y="-411" font-family="Helvetica,sans-Serif" font-size="10.00">RealFunctionBase</text>
</a>
</g>
</g>
<!-- Node2&#45;&gt;Node1 -->
<g id="edge1" class="edge"><title>Node2&#45;&gt;Node1</title>
<path fill="none" stroke="midnightblue" d="M218.268,-413.5C226.689,-413.5 235.342,-413.5 243.7,-413.5"/>
<polygon fill="midnightblue" stroke="midnightblue" points="218.148,-410 208.148,-413.5 218.148,-417 218.148,-410"/>
</g>
<!-- Node3 -->
<g id="node3" class="node"><title>Node3</title>
<g id="a_node3"><a xlink:href="../../db/d0e/interfaceIG_1_1Num_1_1IRealFunction.html" target="_top" xlink:title="Interface for real functions.">
<polygon fill="white" stroke="black" points="0,-423 0,-442 76,-442 76,-423 0,-423"/>
<text text-anchor="middle" x="38" y="-430" font-family="Helvetica,sans-Serif" font-size="10.00">IRealFunction</text>
</a>
</g>
</g>
<!-- Node3&#45;&gt;Node1 -->
<g id="edge3" class="edge"><title>Node3&#45;&gt;Node1</title>
<path fill="none" stroke="midnightblue" d="M86.1466,-435.115C120.12,-436.363 167.009,-436.78 208,-432.5 225.789,-430.643 245.239,-426.774 261.492,-423.009"/>
<polygon fill="midnightblue" stroke="midnightblue" points="86.1722,-431.613 76.0387,-434.705 85.8887,-438.607 86.1722,-431.613"/>
</g>
<!-- Node3&#45;&gt;Node2 -->
<g id="edge2" class="edge"><title>Node3&#45;&gt;Node2</title>
<path fill="none" stroke="midnightblue" d="M86.3631,-425.001C94.7844,-423.667 103.554,-422.279 111.966,-420.947"/>
<polygon fill="midnightblue" stroke="midnightblue" points="85.6405,-421.572 76.311,-426.592 86.7353,-428.485 85.6405,-421.572"/>
</g>
<!-- Node4 -->
<g id="node4" class="node"><title>Node4</title>
<g id="a_node4"><a xlink:title=" ">
<polygon fill="white" stroke="#bfbfbf" points="129,-366 129,-385 191,-385 191,-366 129,-366"/>
<text text-anchor="middle" x="160" y="-373" font-family="Helvetica,sans-Serif" font-size="10.00">ICloneable</text>
</a>
</g>
</g>
<!-- Node4&#45;&gt;Node1 -->
<g id="edge4" class="edge"><title>Node4&#45;&gt;Node1</title>
<path fill="none" stroke="midnightblue" d="M200.777,-386.533C220.69,-392.056 244.558,-398.677 263.661,-403.975"/>
<polygon fill="midnightblue" stroke="midnightblue" points="201.637,-383.139 191.065,-383.839 199.766,-389.885 201.637,-383.139"/>
</g>
<!-- Node9 -->
<g id="node9" class="node"><title>Node9</title>
<g id="a_node9"><a xlink:href="../../d5/d44/classIG_1_1Script_1_1ScritpRealFunctionExample_1_1Container_1_1Function.html" target="_top" xlink:title=" ">
<polygon fill="white" stroke="black" points="590,-664.5 590,-694.5 730,-694.5 730,-664.5 590,-664.5"/>
<text text-anchor="start" x="598" y="-682.5" font-family="Helvetica,sans-Serif" font-size="10.00">IG.Script.ScritpRealFunction</text>
<text text-anchor="middle" x="660" y="-671.5" font-family="Helvetica,sans-Serif" font-size="10.00">Example.Container.Function</text>
</a>
</g>
</g>
<!-- Node8&#45;&gt;Node9 -->
<g id="edge9" class="edge"><title>Node8&#45;&gt;Node9</title>
<path fill="none" stroke="midnightblue" d="M564.164,-679.5C572.811,-679.5 581.479,-679.5 589.869,-679.5"/>
<polygon fill="midnightblue" stroke="midnightblue" points="564.041,-676 554.041,-679.5 564.041,-683 564.041,-676"/>
</g>
</g>
</svg>
