<?xml version="1.0" encoding="UTF-8" standalone="no"?>
<!DOCTYPE svg PUBLIC "-//W3C//DTD SVG 1.1//EN"
 "http://www.w3.org/Graphics/SVG/1.1/DTD/svg11.dtd">
<!-- Generated by graphviz version 2.38.0 (20140413.2041)
 -->
<!-- Title: NeuronDotNet.Core.ILayer Pages: 1 -->
<svg width="138pt" height="151pt"
 viewBox="0.00 0.00 138.00 151.00" xmlns="http://www.w3.org/2000/svg" xmlns:xlink="http://www.w3.org/1999/xlink">
<g id="graph0" class="graph" transform="scale(1 1) rotate(0) translate(4 147)">
<title>NeuronDotNet.Core.ILayer</title>
<polygon fill="white" stroke="none" points="-4,4 -4,-147 134,-147 134,4 -4,4"/>
<!-- Node1 -->
<g id="node1" class="node"><title>Node1</title>
<g id="a_node1"><a xlink:title="This interface represents a Layer in a neural network. A layer is a container for similar neurons....">
<polygon fill="#bfbfbf" stroke="black" points="0,-67.5 0,-86.5 130,-86.5 130,-67.5 0,-67.5"/>
<text text-anchor="middle" x="65" y="-74.5" font-family="Helvetica,sans-Serif" font-size="10.00">NeuronDotNet.Core.ILayer</text>
</a>
</g>
</g>
<!-- Node3 -->
<g id="node3" class="node"><title>Node3</title>
<g id="a_node3"><a xlink:href="../../db/d81/classNeuronDotNet_1_1Core_1_1Layer.html" target="_top" xlink:title="Layer is an abstract container for similar neurons. No two neurons within a layer can be connected to...">
<polygon fill="white" stroke="black" points="1,-0.5 1,-30.5 129,-30.5 129,-0.5 1,-0.5"/>
<text text-anchor="start" x="9" y="-18.5" font-family="Helvetica,sans-Serif" font-size="10.00">NeuronDotNet.Core.Layer</text>
<text text-anchor="middle" x="65" y="-7.5" font-family="Helvetica,sans-Serif" font-size="10.00">&lt; TNeuron &gt;</text>
</a>
</g>
</g>
<!-- Node1&#45;&gt;Node3 -->
<g id="edge2" class="edge"><title>Node1&#45;&gt;Node3</title>
<path fill="none" stroke="midnightblue" d="M65,-57.2349C65,-48.5864 65,-38.4969 65,-30.523"/>
<polygon fill="midnightblue" stroke="midnightblue" points="61.5001,-57.4751 65,-67.4751 68.5001,-57.4751 61.5001,-57.4751"/>
</g>
<!-- Node2 -->
<g id="node2" class="node"><title>Node2</title>
<g id="a_node2"><a xlink:title=" ">
<polygon fill="white" stroke="#bfbfbf" points="30.5,-123.5 30.5,-142.5 99.5,-142.5 99.5,-123.5 30.5,-123.5"/>
<text text-anchor="middle" x="65" y="-130.5" font-family="Helvetica,sans-Serif" font-size="10.00">ISerializable</text>
</a>
</g>
</g>
<!-- Node2&#45;&gt;Node1 -->
<g id="edge1" class="edge"><title>Node2&#45;&gt;Node1</title>
<path fill="none" stroke="midnightblue" d="M65,-112.805C65,-103.91 65,-93.7798 65,-86.7511"/>
<polygon fill="midnightblue" stroke="midnightblue" points="61.5001,-113.083 65,-123.083 68.5001,-113.083 61.5001,-113.083"/>
</g>
</g>
</svg>
