<?xml version="1.0" encoding="UTF-8" standalone="no"?>
<!DOCTYPE svg PUBLIC "-//W3C//DTD SVG 1.1//EN"
 "http://www.w3.org/Graphics/SVG/1.1/DTD/svg11.dtd">
<!-- Generated by graphviz version 2.38.0 (20140413.2041)
 -->
<!-- Title: NUnit.Engine.Internal.SettingsStore Pages: 1 -->
<svg width="155pt" height="163pt"
 viewBox="0.00 0.00 155.00 163.00" xmlns="http://www.w3.org/2000/svg" xmlns:xlink="http://www.w3.org/1999/xlink">
<g id="graph0" class="graph" transform="scale(1 1) rotate(0) translate(4 159)">
<title>NUnit.Engine.Internal.SettingsStore</title>
<polygon fill="white" stroke="none" points="-4,4 -4,-159 151,-159 151,4 -4,4"/>
<!-- Node1 -->
<g id="node1" class="node"><title>Node1</title>
<g id="a_node1"><a xlink:title="SettingsStore extends SettingsGroup to provide for loading and saving the settings from an XML file.">
<polygon fill="#bfbfbf" stroke="black" points="0,-0.5 0,-30.5 147,-30.5 147,-0.5 0,-0.5"/>
<text text-anchor="start" x="8" y="-18.5" font-family="Helvetica,sans-Serif" font-size="10.00">NUnit.Engine.Internal.Settings</text>
<text text-anchor="middle" x="73.5" y="-7.5" font-family="Helvetica,sans-Serif" font-size="10.00">Store</text>
</a>
</g>
</g>
<!-- Node2 -->
<g id="node2" class="node"><title>Node2</title>
<g id="a_node2"><a xlink:href="../../db/d74/classNUnit_1_1Engine_1_1Internal_1_1SettingsGroup.html" target="_top" xlink:title="SettingsGroup is the base class representing a group of user or system settings.">
<polygon fill="white" stroke="black" points="34,-68.5 34,-87.5 113,-87.5 113,-68.5 34,-68.5"/>
<text text-anchor="middle" x="73.5" y="-75.5" font-family="Helvetica,sans-Serif" font-size="10.00">SettingsGroup</text>
</a>
</g>
</g>
<!-- Node2&#45;&gt;Node1 -->
<g id="edge1" class="edge"><title>Node2&#45;&gt;Node1</title>
<path fill="none" stroke="midnightblue" d="M73.5,-58.2154C73.5,-49.3565 73.5,-38.9577 73.5,-30.7587"/>
<polygon fill="midnightblue" stroke="midnightblue" points="70.0001,-58.3318 73.5,-68.3318 77.0001,-58.3319 70.0001,-58.3318"/>
</g>
<!-- Node3 -->
<g id="node3" class="node"><title>Node3</title>
<g id="a_node3"><a xlink:href="../../d5/d1d/interfaceNUnit_1_1Engine_1_1ISettings.html" target="_top" xlink:title="The ISettings interface is used to access all user settings and options.">
<polygon fill="white" stroke="black" points="13,-135.5 13,-154.5 68,-154.5 68,-135.5 13,-135.5"/>
<text text-anchor="middle" x="40.5" y="-142.5" font-family="Helvetica,sans-Serif" font-size="10.00">ISettings</text>
</a>
</g>
</g>
<!-- Node3&#45;&gt;Node2 -->
<g id="edge2" class="edge"><title>Node3&#45;&gt;Node2</title>
<path fill="none" stroke="midnightblue" d="M49.5555,-126.163C55.9196,-113.628 64.1532,-97.4104 69.12,-87.6273"/>
<polygon fill="midnightblue" stroke="midnightblue" points="46.3567,-124.733 44.9505,-135.234 52.5983,-127.902 46.3567,-124.733"/>
</g>
<!-- Node4 -->
<g id="node4" class="node"><title>Node4</title>
<g id="a_node4"><a xlink:title=" ">
<polygon fill="white" stroke="#bfbfbf" points="86,-135.5 86,-154.5 127,-154.5 127,-135.5 86,-135.5"/>
<text text-anchor="middle" x="106.5" y="-142.5" font-family="Helvetica,sans-Serif" font-size="10.00">static</text>
</a>
</g>
</g>
<!-- Node4&#45;&gt;Node2 -->
<g id="edge3" class="edge"><title>Node4&#45;&gt;Node2</title>
<path fill="none" stroke="#9a32cd" stroke-dasharray="5,2" d="M97.4445,-126.163C91.0804,-113.628 82.8468,-97.4104 77.88,-87.6273"/>
<polygon fill="#9a32cd" stroke="#9a32cd" points="94.4017,-127.902 102.049,-135.234 100.643,-124.733 94.4017,-127.902"/>
<text text-anchor="middle" x="99.5" y="-109" font-family="Helvetica,sans-Serif" font-size="10.00"> log</text>
</g>
</g>
</svg>
