<?xml version="1.0" encoding="UTF-8" standalone="no"?>
<!DOCTYPE svg PUBLIC "-//W3C//DTD SVG 1.1//EN"
 "http://www.w3.org/Graphics/SVG/1.1/DTD/svg11.dtd">
<!-- Generated by graphviz version 2.38.0 (20140413.2041)
 -->
<!-- Title: NUnit.Common.Logger Pages: 1 -->
<svg width="147pt" height="106pt"
 viewBox="0.00 0.00 146.50 106.00" xmlns="http://www.w3.org/2000/svg" xmlns:xlink="http://www.w3.org/1999/xlink">
<g id="graph0" class="graph" transform="scale(1 1) rotate(0) translate(4 102)">
<title>NUnit.Common.Logger</title>
<polygon fill="white" stroke="none" points="-4,4 -4,-102 142.5,-102 142.5,4 -4,4"/>
<!-- Node1 -->
<g id="node1" class="node"><title>Node1</title>
<g id="a_node1"><a xlink:title="Provides internal logging to the NUnit framework">
<polygon fill="#bfbfbf" stroke="black" points="0,-0.5 0,-19.5 115,-19.5 115,-0.5 0,-0.5"/>
<text text-anchor="middle" x="57.5" y="-7.5" font-family="Helvetica,sans-Serif" font-size="10.00">NUnit.Common.Logger</text>
</a>
</g>
</g>
<!-- Node2 -->
<g id="node2" class="node"><title>Node2</title>
<g id="a_node2"><a xlink:href="../../df/dcd/interfaceNUnit_1_1Common_1_1ILogger.html" target="_top" xlink:title="Interface for logging within the engine">
<polygon fill="white" stroke="black" points="2.5,-78.5 2.5,-97.5 50.5,-97.5 50.5,-78.5 2.5,-78.5"/>
<text text-anchor="middle" x="26.5" y="-85.5" font-family="Helvetica,sans-Serif" font-size="10.00">ILogger</text>
</a>
</g>
</g>
<!-- Node2&#45;&gt;Node1 -->
<g id="edge1" class="edge"><title>Node2&#45;&gt;Node1</title>
<path fill="none" stroke="midnightblue" d="M33.9749,-68.6744C40.3225,-53.1127 49.1495,-31.4722 53.9854,-19.6165"/>
<polygon fill="midnightblue" stroke="midnightblue" points="30.5922,-67.7006 30.0561,-78.2818 37.0738,-70.3444 30.5922,-67.7006"/>
</g>
<!-- Node3 -->
<g id="node3" class="node"><title>Node3</title>
<g id="a_node3"><a xlink:title=" ">
<polygon fill="white" stroke="#bfbfbf" points="69,-78.5 69,-97.5 110,-97.5 110,-78.5 69,-78.5"/>
<text text-anchor="middle" x="89.5" y="-85.5" font-family="Helvetica,sans-Serif" font-size="10.00">static</text>
</a>
</g>
</g>
<!-- Node3&#45;&gt;Node1 -->
<g id="edge2" class="edge"><title>Node3&#45;&gt;Node1</title>
<path fill="none" stroke="#9a32cd" stroke-dasharray="5,2" d="M81.784,-68.6744C75.2317,-53.1127 66.1199,-31.4722 61.128,-19.6165"/>
<polygon fill="#9a32cd" stroke="#9a32cd" points="78.7228,-70.4237 85.8292,-78.2818 85.1743,-67.7073 78.7228,-70.4237"/>
<text text-anchor="middle" x="108" y="-52" font-family="Helvetica,sans-Serif" font-size="10.00"> TRACE_FMT</text>
<text text-anchor="middle" x="108" y="-41" font-family="Helvetica,sans-Serif" font-size="10.00">TIME_FMT</text>
</g>
</g>
</svg>
