<?xml version="1.0" encoding="UTF-8" standalone="no"?>
<!DOCTYPE svg PUBLIC "-//W3C//DTD SVG 1.1//EN"
 "http://www.w3.org/Graphics/SVG/1.1/DTD/svg11.dtd">
<!-- Generated by graphviz version 2.38.0 (20140413.2041)
 -->
<!-- Title: CShell.Modules.Workspace.Results.AddReferencesResult Pages: 1 -->
<!--zoomable 216 -->
<svg id="main" version="1.1" xmlns="http://www.w3.org/2000/svg" xmlns:xlink="http://www.w3.org/1999/xlink" xml:space="preserve" onload="init(evt)">
<style type="text/css"><![CDATA[
.edge:hover path { stroke: red; }
.edge:hover polygon { stroke: red; fill: red; }
]]></style>
<script type="text/javascript"><![CDATA[
var edges = document.getElementsByTagName('g');
if (edges && edges.length) {
  for (var i=0;i<edges.length;i++) {
    if (edges[i].id.substr(0,4)=='edge') {
      edges[i].setAttribute('class','edge');
    }
  }
}
]]></script>
        <defs>
                <circle id="rim" cx="0" cy="0" r="7"/>
                <circle id="rim2" cx="0" cy="0" r="3.5"/>
                <g id="zoomPlus">
                        <use xlink:href="#rim" fill="#404040">
                                <set attributeName="fill" to="#808080" begin="zoomplus.mouseover" end="zoomplus.mouseout"/>
                        </use>
                        <path d="M-4,0h8M0,-4v8" fill="none" stroke="white" stroke-width="1.5" pointer-events="none"/>
                </g>
                <g id="zoomMin">
                        <use xlink:href="#rim" fill="#404040">
                                <set attributeName="fill" to="#808080" begin="zoomminus.mouseover" end="zoomminus.mouseout"/>
                        </use>
                        <path d="M-4,0h8" fill="none" stroke="white" stroke-width="1.5" pointer-events="none"/>
                </g>
                <g id="dirArrow">
                        <path fill="none" stroke="white" stroke-width="1.5" d="M0,-3.0v7 M-2.5,-0.5L0,-3.0L2.5,-0.5"/>
                </g>
               <g id="resetDef">
                       <use xlink:href="#rim2" fill="#404040">
                               <set attributeName="fill" to="#808080" begin="reset.mouseover" end="reset.mouseout"/>
                       </use>
               </g>
        </defs>

<script type="text/javascript">
var viewWidth = 851;
var viewHeight = 216;
var sectionId = 'dynsection-1';
</script>
<script xlink:href="../../svgpan.js"/>
<svg id="graph" class="graph">
<g id="viewport">
<title>CShell.Modules.Workspace.Results.AddReferencesResult</title>
<polygon fill="white" stroke="none" points="-4,4 -4,-211.5 847,-211.5 847,4 -4,4"/>
<!-- Node1 -->
<g id="node1" class="node"><title>Node1</title>
<g id="a_node1"><a xlink:title=" ">
<polygon fill="#bfbfbf" stroke="black" points="697,-141.5 697,-171.5 843,-171.5 843,-141.5 697,-141.5"/>
<text text-anchor="start" x="705" y="-159.5" font-family="Helvetica,sans-Serif" font-size="10.00">CShell.Modules.Workspace.</text>
<text text-anchor="middle" x="770" y="-148.5" font-family="Helvetica,sans-Serif" font-size="10.00">Results.AddReferencesResult</text>
</a>
</g>
</g>
<!-- Node2 -->
<g id="node2" class="node"><title>Node2</title>
<g id="a_node2"><a xlink:href="../../d6/dae/classCShell_1_1Framework_1_1Results_1_1ResultBase.html" target="_top" xlink:title=" ">
<polygon fill="white" stroke="black" points="508.5,-175 508.5,-194 575.5,-194 575.5,-175 508.5,-175"/>
<text text-anchor="middle" x="542" y="-182" font-family="Helvetica,sans-Serif" font-size="10.00">ResultBase</text>
</a>
</g>
</g>
<!-- Node2&#45;&gt;Node1 -->
<g id="edge1" class="edge"><title>Node2&#45;&gt;Node1</title>
<path fill="none" stroke="midnightblue" d="M585.992,-179.174C617.275,-175.298 660.37,-169.959 696.883,-165.435"/>
<polygon fill="midnightblue" stroke="midnightblue" points="585.356,-175.725 575.862,-180.429 586.217,-182.672 585.356,-175.725"/>
</g>
<!-- Node3 -->
<g id="node3" class="node"><title>Node3</title>
<g id="a_node3"><a xlink:title=" ">
<polygon fill="white" stroke="#bfbfbf" points="304.5,-188 304.5,-207 351.5,-207 351.5,-188 304.5,-188"/>
<text text-anchor="middle" x="328" y="-195" font-family="Helvetica,sans-Serif" font-size="10.00">IResult</text>
</a>
</g>
</g>
<!-- Node3&#45;&gt;Node2 -->
<g id="edge2" class="edge"><title>Node3&#45;&gt;Node2</title>
<path fill="none" stroke="midnightblue" d="M361.695,-195.495C401.596,-193.048 468.654,-188.936 508.477,-186.494"/>
<polygon fill="midnightblue" stroke="midnightblue" points="361.455,-192.003 351.688,-196.109 361.883,-198.99 361.455,-192.003"/>
</g>
<!-- Node4 -->
<g id="node4" class="node"><title>Node4</title>
<g id="a_node4"><a xlink:href="../../d6/dc3/classCShell_1_1AssemblyReferences.html" target="_top" xlink:title=" ">
<polygon fill="white" stroke="black" points="472,-112 472,-131 612,-131 612,-112 472,-112"/>
<text text-anchor="middle" x="542" y="-119" font-family="Helvetica,sans-Serif" font-size="10.00">CShell.AssemblyReferences</text>
</a>
</g>
</g>
<!-- Node4&#45;&gt;Node1 -->
<g id="edge3" class="edge"><title>Node4&#45;&gt;Node1</title>
<path fill="none" stroke="#9a32cd" stroke-dasharray="5,2" d="M614.341,-132.548C640.612,-136.617 670.378,-141.227 696.731,-145.308"/>
<polygon fill="#9a32cd" stroke="#9a32cd" points="614.875,-129.089 604.457,-131.018 613.803,-136.007 614.875,-129.089"/>
<text text-anchor="middle" x="654.5" y="-144.5" font-family="Helvetica,sans-Serif" font-size="10.00"> references</text>
</g>
<!-- Node5 -->
<g id="node5" class="node"><title>Node5</title>
<g id="a_node5"><a xlink:href="../../de/d8d/classCShell_1_1Util_1_1ObservableKeyedCollection.html" target="_top" xlink:title=" ">
<polygon fill="white" stroke="black" points="252,-138.5 252,-168.5 404,-168.5 404,-138.5 252,-138.5"/>
<text text-anchor="start" x="260" y="-156.5" font-family="Helvetica,sans-Serif" font-size="10.00">ObservableKeyedCollection</text>
<text text-anchor="middle" x="328" y="-145.5" font-family="Helvetica,sans-Serif" font-size="10.00">&lt; string, AssemblyReference &gt;</text>
</a>
</g>
</g>
<!-- Node5&#45;&gt;Node4 -->
<g id="edge4" class="edge"><title>Node5&#45;&gt;Node4</title>
<path fill="none" stroke="midnightblue" d="M414.077,-140.658C435.415,-137.437 457.932,-134.039 477.98,-131.012"/>
<polygon fill="midnightblue" stroke="midnightblue" points="413.407,-137.22 404.042,-142.173 414.452,-144.141 413.407,-137.22"/>
</g>
<!-- Node6 -->
<g id="node6" class="node"><title>Node6</title>
<g id="a_node6"><a xlink:title=" ">
<polygon fill="white" stroke="#bfbfbf" points="38,-94 38,-113 105,-113 105,-94 38,-94"/>
<text text-anchor="middle" x="71.5" y="-101" font-family="Helvetica,sans-Serif" font-size="10.00">IDisposable</text>
</a>
</g>
</g>
<!-- Node6&#45;&gt;Node4 -->
<g id="edge5" class="edge"><title>Node6&#45;&gt;Node4</title>
<path fill="none" stroke="midnightblue" d="M115.419,-105.149C196.644,-108.27 373.483,-115.064 471.718,-118.838"/>
<polygon fill="midnightblue" stroke="midnightblue" points="115.199,-101.638 105.072,-104.751 114.93,-108.633 115.199,-101.638"/>
</g>
<!-- Node7 -->
<g id="node7" class="node"><title>Node7</title>
<g id="a_node7"><a xlink:href="../../dc/d7b/classCShell_1_1ScriptingEngine.html" target="_top" xlink:title=" ">
<polygon fill="white" stroke="black" points="270,-56 270,-75 386,-75 386,-56 270,-56"/>
<text text-anchor="middle" x="328" y="-63" font-family="Helvetica,sans-Serif" font-size="10.00">CShell.ScriptingEngine</text>
</a>
</g>
</g>
<!-- Node6&#45;&gt;Node7 -->
<g id="edge7" class="edge"><title>Node6&#45;&gt;Node7</title>
<path fill="none" stroke="midnightblue" d="M115.241,-97.1182C157.605,-90.7927 222.777,-81.0618 269.629,-74.0662"/>
<polygon fill="midnightblue" stroke="midnightblue" points="114.624,-93.6715 105.25,-98.61 115.658,-100.595 114.624,-93.6715"/>
</g>
<!-- Node7&#45;&gt;Node4 -->
<g id="edge6" class="edge"><title>Node7&#45;&gt;Node4</title>
<path fill="none" stroke="#9a32cd" stroke-dasharray="5,2" d="M396.282,-72.5628C415.163,-75.3955 435.563,-79.2686 454,-84.5 478.317,-91.3998 504.861,-103.388 522.153,-111.845"/>
<polygon fill="#9a32cd" stroke="#9a32cd" points="396.664,-69.0819 386.27,-71.1344 395.676,-76.0118 396.664,-69.0819"/>
<text text-anchor="middle" x="438" y="-87.5" font-family="Helvetica,sans-Serif" font-size="10.00"> engine</text>
</g>
<!-- Node8 -->
<g id="node8" class="node"><title>Node8</title>
<g id="a_node8"><a xlink:href="../../d0/dc3/interfaceCShellCore_1_1CodeCompletion_1_1ICSharpScriptProvider.html" target="_top" xlink:title="This interface allows to provide more information for scripts such as using statements,...">
<polygon fill="white" stroke="black" points="16,-50 16,-69 127,-69 127,-50 16,-50"/>
<text text-anchor="middle" x="71.5" y="-57" font-family="Helvetica,sans-Serif" font-size="10.00">ICSharpScriptProvider</text>
</a>
</g>
</g>
<!-- Node8&#45;&gt;Node7 -->
<g id="edge8" class="edge"><title>Node8&#45;&gt;Node7</title>
<path fill="none" stroke="midnightblue" d="M137.232,-61.0261C178.129,-61.9903 230.489,-63.2247 269.846,-64.1525"/>
<polygon fill="midnightblue" stroke="midnightblue" points="137.176,-57.5239 127.097,-60.7872 137.011,-64.522 137.176,-57.5239"/>
</g>
<!-- Node9 -->
<g id="node9" class="node"><title>Node9</title>
<g id="a_node9"><a xlink:href="../../da/dc3/classCShellCore_1_1CodeCompletion_1_1CSharpCompletion.html" target="_top" xlink:title=" ">
<polygon fill="white" stroke="black" points="0,-0.5 0,-30.5 143,-30.5 143,-0.5 0,-0.5"/>
<text text-anchor="start" x="8" y="-18.5" font-family="Helvetica,sans-Serif" font-size="10.00">CShellCore.CodeCompletion.</text>
<text text-anchor="middle" x="71.5" y="-7.5" font-family="Helvetica,sans-Serif" font-size="10.00">CSharpCompletion</text>
</a>
</g>
</g>
<!-- Node9&#45;&gt;Node7 -->
<g id="edge9" class="edge"><title>Node9&#45;&gt;Node7</title>
<path fill="none" stroke="#9a32cd" stroke-dasharray="5,2" d="M153.082,-31.3314C194.293,-39.428 243.086,-49.0139 278.485,-55.9686"/>
<polygon fill="#9a32cd" stroke="#9a32cd" points="153.542,-27.8549 143.054,-29.3614 152.192,-34.7236 153.542,-27.8549"/>
<text text-anchor="middle" x="197.5" y="-49.5" font-family="Helvetica,sans-Serif" font-size="10.00"> codeCompletion</text>
</g>
</g>
</svg>
        <g id="navigator" transform="translate(0 0)" fill="#404254">
                <rect fill="#f2f5e9" fill-opacity="0.5" stroke="#606060" stroke-width=".5" x="0" y="0" width="60" height="60"/>
                <use id="zoomplus" xlink:href="#zoomPlus" x="17" y="9" onmousedown="handleZoom(evt,'in')"/>
                <use id="zoomminus" xlink:href="#zoomMin" x="42" y="9" onmousedown="handleZoom(evt,'out')"/>
                <use id="reset" xlink:href="#resetDef" x="30" y="36" onmousedown="handleReset()"/>
                <g id="arrowUp" xlink:href="#dirArrow" transform="translate(30 24)" onmousedown="handlePan(0,-1)">
                  <use xlink:href="#rim" fill="#404040">
                        <set attributeName="fill" to="#808080" begin="arrowUp.mouseover" end="arrowUp.mouseout"/>
                  </use>
                  <path fill="none" stroke="white" stroke-width="1.5" d="M0,-3.0v7 M-2.5,-0.5L0,-3.0L2.5,-0.5"/>
                </g>
                <g id="arrowRight" xlink:href="#dirArrow" transform="rotate(90) translate(36 -43)" onmousedown="handlePan(1,0)">
                  <use xlink:href="#rim" fill="#404040">
                        <set attributeName="fill" to="#808080" begin="arrowRight.mouseover" end="arrowRight.mouseout"/>
                  </use>
                  <path fill="none" stroke="white" stroke-width="1.5" d="M0,-3.0v7 M-2.5,-0.5L0,-3.0L2.5,-0.5"/>
                </g>
                <g id="arrowDown" xlink:href="#dirArrow" transform="rotate(180) translate(-30 -48)" onmousedown="handlePan(0,1)">
                  <use xlink:href="#rim" fill="#404040">
                        <set attributeName="fill" to="#808080" begin="arrowDown.mouseover" end="arrowDown.mouseout"/>
                  </use>
                  <path fill="none" stroke="white" stroke-width="1.5" d="M0,-3.0v7 M-2.5,-0.5L0,-3.0L2.5,-0.5"/>
                </g>
                <g id="arrowLeft" xlink:href="#dirArrow" transform="rotate(270) translate(-36 17)" onmousedown="handlePan(-1,0)">
                  <use xlink:href="#rim" fill="#404040">
                        <set attributeName="fill" to="#808080" begin="arrowLeft.mouseover" end="arrowLeft.mouseout"/>
                  </use>
                  <path fill="none" stroke="white" stroke-width="1.5" d="M0,-3.0v7 M-2.5,-0.5L0,-3.0L2.5,-0.5"/>
                </g>
        </g>
        <svg viewBox="0 0 15 15" width="100%" height="30px" preserveAspectRatio="xMaxYMin meet">
         <g id="arrow_out" transform="scale(0.3 0.3)">
          <a xlink:href="classCShell_1_1Modules_1_1Workspace_1_1Results_1_1AddReferencesResult__coll__graph_org.svg" target="_base">
           <rect id="button" ry="5" rx="5" y="6" x="6" height="38" width="38"
                fill="#f2f5e9" fill-opacity="0.5" stroke="#606060" stroke-width="1.0"/>
           <path id="arrow"
             d="M 11.500037,31.436501 C 11.940474,20.09759 22.043105,11.32322 32.158766,21.979434 L 37.068811,17.246167 C 37.068811,17.246167 37.088388,32 37.088388,32 L 22.160133,31.978069 C 22.160133,31.978069 26.997745,27.140456 26.997745,27.140456 C 18.528582,18.264221 13.291696,25.230495 11.500037,31.436501 z"
             style="fill:#404040;"/>
          </a>
         </g>
        </svg>
</svg>
