<?xml version="1.0" encoding="UTF-8" standalone="no"?>
<!DOCTYPE svg PUBLIC "-//W3C//DTD SVG 1.1//EN"
 "http://www.w3.org/Graphics/SVG/1.1/DTD/svg11.dtd">
<!-- Generated by graphviz version 2.38.0 (20140413.2041)
 -->
<!-- Title: IG.Num.Matrix Pages: 1 -->
<svg width="115pt" height="196pt"
 viewBox="0.00 0.00 114.50 196.00" xmlns="http://www.w3.org/2000/svg" xmlns:xlink="http://www.w3.org/1999/xlink">
<g id="graph0" class="graph" transform="scale(1 1) rotate(0) translate(4 192)">
<title>IG.Num.Matrix</title>
<polygon fill="white" stroke="none" points="-4,4 -4,-192 110.5,-192 110.5,4 -4,4"/>
<!-- Node1 -->
<g id="node1" class="node"><title>Node1</title>
<g id="a_node1"><a xlink:title="Real matrix class. Some operations are performed by the MathNet.Numerics.LinearAlgebra....">
<polygon fill="#bfbfbf" stroke="black" points="2.5,-56.5 2.5,-75.5 82.5,-75.5 82.5,-56.5 2.5,-56.5"/>
<text text-anchor="middle" x="42.5" y="-63.5" font-family="Helvetica,sans-Serif" font-size="10.00">IG.Num.Matrix</text>
</a>
</g>
</g>
<!-- Node4 -->
<g id="node4" class="node"><title>Node4</title>
<g id="a_node4"><a xlink:href="../../d5/d1d/classIG_1_1Num_1_1Matrix1.html" target="_top" xlink:title=" ">
<polygon fill="white" stroke="black" points="0,-0.5 0,-19.5 85,-19.5 85,-0.5 0,-0.5"/>
<text text-anchor="middle" x="42.5" y="-7.5" font-family="Helvetica,sans-Serif" font-size="10.00">IG.Num.Matrix1</text>
</a>
</g>
</g>
<!-- Node1&#45;&gt;Node4 -->
<g id="edge4" class="edge"><title>Node1&#45;&gt;Node4</title>
<path fill="none" stroke="midnightblue" d="M42.5,-45.8045C42.5,-36.9102 42.5,-26.7798 42.5,-19.7511"/>
<polygon fill="midnightblue" stroke="midnightblue" points="39.0001,-46.083 42.5,-56.083 46.0001,-46.083 39.0001,-46.083"/>
</g>
<!-- Node2 -->
<g id="node2" class="node"><title>Node2</title>
<g id="a_node2"><a xlink:href="../../d9/db9/classIG_1_1Num_1_1MatrixBase.html" target="_top" xlink:title="Base class for matrices.">
<polygon fill="white" stroke="black" points="40.5,-112.5 40.5,-131.5 106.5,-131.5 106.5,-112.5 40.5,-112.5"/>
<text text-anchor="middle" x="73.5" y="-119.5" font-family="Helvetica,sans-Serif" font-size="10.00">MatrixBase</text>
</a>
</g>
</g>
<!-- Node2&#45;&gt;Node1 -->
<g id="edge1" class="edge"><title>Node2&#45;&gt;Node1</title>
<path fill="none" stroke="midnightblue" d="M63.3244,-103.275C58.0261,-94.0454 51.783,-83.1703 47.5238,-75.7511"/>
<polygon fill="midnightblue" stroke="midnightblue" points="60.3669,-105.153 68.381,-112.083 66.4376,-101.668 60.3669,-105.153"/>
</g>
<!-- Node3 -->
<g id="node3" class="node"><title>Node3</title>
<g id="a_node3"><a xlink:href="../../d8/d86/interfaceIG_1_1Num_1_1IMatrix.html" target="_top" xlink:title="Generic Matrix interface.">
<polygon fill="white" stroke="black" points="19.5,-168.5 19.5,-187.5 65.5,-187.5 65.5,-168.5 19.5,-168.5"/>
<text text-anchor="middle" x="42.5" y="-175.5" font-family="Helvetica,sans-Serif" font-size="10.00">IMatrix</text>
</a>
</g>
</g>
<!-- Node3&#45;&gt;Node1 -->
<g id="edge3" class="edge"><title>Node3&#45;&gt;Node1</title>
<path fill="none" stroke="midnightblue" d="M36.9601,-158.656C34.7923,-150.566 32.5712,-140.893 31.5,-132 29.0638,-111.774 35.3335,-88.2498 39.3802,-75.7925"/>
<polygon fill="midnightblue" stroke="midnightblue" points="33.6563,-159.833 39.7701,-168.486 40.3868,-157.909 33.6563,-159.833"/>
</g>
<!-- Node3&#45;&gt;Node2 -->
<g id="edge2" class="edge"><title>Node3&#45;&gt;Node2</title>
<path fill="none" stroke="midnightblue" d="M52.6756,-159.275C57.9739,-150.045 64.217,-139.17 68.4762,-131.751"/>
<polygon fill="midnightblue" stroke="midnightblue" points="49.5624,-157.668 47.619,-168.083 55.6331,-161.153 49.5624,-157.668"/>
</g>
</g>
</svg>
