<?xml version="1.0" encoding="UTF-8" standalone="no"?>
<!DOCTYPE svg PUBLIC "-//W3C//DTD SVG 1.1//EN"
 "http://www.w3.org/Graphics/SVG/1.1/DTD/svg11.dtd">
<!-- Generated by graphviz version 2.38.0 (20140413.2041)
 -->
<!-- Title: Test.VectorTest Pages: 1 -->
<svg width="912pt" height="214pt"
 viewBox="0.00 0.00 912.00 213.50" xmlns="http://www.w3.org/2000/svg" xmlns:xlink="http://www.w3.org/1999/xlink">
<g id="graph0" class="graph" transform="scale(1 1) rotate(0) translate(4 209.5)">
<title>Test.VectorTest</title>
<polygon fill="white" stroke="none" points="-4,4 -4,-209.5 908,-209.5 908,4 -4,4"/>
<!-- Node1 -->
<g id="node1" class="node"><title>Node1</title>
<g id="a_node1"><a xlink:title=" ">
<polygon fill="#bfbfbf" stroke="black" points="818,-70 818,-89 904,-89 904,-70 818,-70"/>
<text text-anchor="middle" x="861" y="-77" font-family="Helvetica,sans-Serif" font-size="10.00">Test.VectorTest</text>
</a>
</g>
</g>
<!-- Node2 -->
<g id="node2" class="node"><title>Node2</title>
<g id="a_node2"><a xlink:href="../../d2/dee/classMeta_1_1Numerics_1_1Matrices_1_1RectangularMatrix.html" target="_top" xlink:title="A rectangular matrix of real numbers.">
<polygon fill="white" stroke="black" points="417,-19.5 417,-49.5 595,-49.5 595,-19.5 417,-19.5"/>
<text text-anchor="start" x="425" y="-37.5" font-family="Helvetica,sans-Serif" font-size="10.00">Meta.Numerics.Matrices.Rectangular</text>
<text text-anchor="middle" x="506" y="-26.5" font-family="Helvetica,sans-Serif" font-size="10.00">Matrix</text>
</a>
</g>
</g>
<!-- Node2&#45;&gt;Node1 -->
<g id="edge1" class="edge"><title>Node2&#45;&gt;Node1</title>
<path fill="none" stroke="#9a32cd" stroke-dasharray="5,2" d="M605.314,-29.6268C655.679,-29.1917 717.678,-31.8572 772,-43.5 797.34,-48.9311 824.697,-61.2407 842.066,-69.9492"/>
<polygon fill="#9a32cd" stroke="#9a32cd" points="605.031,-26.13 595.077,-29.7589 605.121,-33.1294 605.031,-26.13"/>
<text text-anchor="middle" x="692.5" y="-46.5" font-family="Helvetica,sans-Serif" font-size="10.00"> M</text>
</g>
<!-- Node3 -->
<g id="node3" class="node"><title>Node3</title>
<g id="a_node3"><a xlink:href="../../d9/d5b/classMeta_1_1Numerics_1_1Matrices_1_1AnyRectangularMatrix.html" target="_top" xlink:title="Describes the form of all real matrices.">
<polygon fill="white" stroke="black" points="179,-28 179,-47 292,-47 292,-28 179,-28"/>
<text text-anchor="middle" x="235.5" y="-35" font-family="Helvetica,sans-Serif" font-size="10.00">AnyRectangularMatrix</text>
</a>
</g>
</g>
<!-- Node3&#45;&gt;Node2 -->
<g id="edge2" class="edge"><title>Node3&#45;&gt;Node2</title>
<path fill="none" stroke="midnightblue" d="M302.556,-36.7619C337.035,-36.3767 379.685,-35.9002 416.933,-35.484"/>
<polygon fill="midnightblue" stroke="midnightblue" points="302.094,-33.2668 292.133,-36.8784 302.172,-40.2664 302.094,-33.2668"/>
</g>
<!-- Node7 -->
<g id="node7" class="node"><title>Node7</title>
<g id="a_node7"><a xlink:href="../../d5/dcb/classMeta_1_1Numerics_1_1Matrices_1_1VectorBase.html" target="_top" xlink:title="Implements functionality shared between row and column vectors.">
<polygon fill="white" stroke="black" points="331,-110 331,-129 399,-129 399,-110 331,-110"/>
<text text-anchor="middle" x="365" y="-117" font-family="Helvetica,sans-Serif" font-size="10.00">VectorBase</text>
</a>
</g>
</g>
<!-- Node3&#45;&gt;Node7 -->
<g id="edge7" class="edge"><title>Node3&#45;&gt;Node7</title>
<path fill="none" stroke="midnightblue" d="M271.77,-51.0181C279.301,-54.4008 287.07,-58.2819 294,-62.5 317.026,-76.5151 340.71,-97.4281 353.774,-109.643"/>
<polygon fill="midnightblue" stroke="midnightblue" points="273.007,-47.7406 262.437,-47.012 270.246,-54.173 273.007,-47.7406"/>
</g>
<!-- Node4 -->
<g id="node4" class="node"><title>Node4</title>
<g id="a_node4"><a xlink:href="../../df/de5/classMeta_1_1Numerics_1_1Matrices_1_1AnyMatrix.html" target="_top" xlink:title=" ">
<polygon fill="white" stroke="black" points="16.5,-50 16.5,-69 123.5,-69 123.5,-50 16.5,-50"/>
<text text-anchor="middle" x="70" y="-57" font-family="Helvetica,sans-Serif" font-size="10.00">AnyMatrix&lt; double &gt;</text>
</a>
</g>
</g>
<!-- Node4&#45;&gt;Node3 -->
<g id="edge3" class="edge"><title>Node4&#45;&gt;Node3</title>
<path fill="none" stroke="midnightblue" d="M133.75,-51.0565C148.607,-49.0574 164.351,-46.939 178.866,-44.9859"/>
<polygon fill="midnightblue" stroke="midnightblue" points="133.076,-47.6156 123.632,-52.418 134.01,-54.5531 133.076,-47.6156"/>
</g>
<!-- Node5 -->
<g id="node5" class="node"><title>Node5</title>
<g id="a_node5"><a xlink:title=" ">
<polygon fill="white" stroke="#bfbfbf" points="0,-0.5 0,-30.5 140,-30.5 140,-0.5 0,-0.5"/>
<text text-anchor="start" x="8" y="-18.5" font-family="Helvetica,sans-Serif" font-size="10.00">IEquatable&lt; AnyRectangular</text>
<text text-anchor="middle" x="70" y="-7.5" font-family="Helvetica,sans-Serif" font-size="10.00">Matrix &gt;</text>
</a>
</g>
</g>
<!-- Node5&#45;&gt;Node3 -->
<g id="edge4" class="edge"><title>Node5&#45;&gt;Node3</title>
<path fill="none" stroke="midnightblue" d="M150.363,-26.1788C160.019,-27.4781 169.72,-28.7834 178.925,-30.0221"/>
<polygon fill="midnightblue" stroke="midnightblue" points="150.716,-22.6949 140.339,-24.83 149.783,-29.6324 150.716,-22.6949"/>
</g>
<!-- Node6 -->
<g id="node6" class="node"><title>Node6</title>
<g id="a_node6"><a xlink:href="../../d3/d34/classMeta_1_1Numerics_1_1Matrices_1_1ColumnVector.html" target="_top" xlink:title="A column vector of real numbers.">
<polygon fill="white" stroke="black" points="613,-113.5 613,-143.5 772,-143.5 772,-113.5 613,-113.5"/>
<text text-anchor="start" x="621" y="-131.5" font-family="Helvetica,sans-Serif" font-size="10.00">Meta.Numerics.Matrices.Column</text>
<text text-anchor="middle" x="692.5" y="-120.5" font-family="Helvetica,sans-Serif" font-size="10.00">Vector</text>
</a>
</g>
</g>
<!-- Node6&#45;&gt;Node1 -->
<g id="edge5" class="edge"><title>Node6&#45;&gt;Node1</title>
<path fill="none" stroke="#9a32cd" stroke-dasharray="5,2" d="M754.481,-110.554C779.188,-103.283 806.719,-95.1803 827.463,-89.0754"/>
<polygon fill="#9a32cd" stroke="#9a32cd" points="753.419,-107.218 744.814,-113.399 755.395,-113.933 753.419,-107.218"/>
<text text-anchor="middle" x="795" y="-103.5" font-family="Helvetica,sans-Serif" font-size="10.00"> C</text>
</g>
<!-- Node7&#45;&gt;Node6 -->
<g id="edge6" class="edge"><title>Node7&#45;&gt;Node6</title>
<path fill="none" stroke="midnightblue" d="M409.181,-120.694C461.01,-122.127 548.927,-124.558 612.907,-126.327"/>
<polygon fill="midnightblue" stroke="midnightblue" points="409.095,-117.19 399.002,-120.412 408.901,-124.188 409.095,-117.19"/>
</g>
<!-- Node12 -->
<g id="node12" class="node"><title>Node12</title>
<g id="a_node12"><a xlink:href="../../df/d01/classMeta_1_1Numerics_1_1Matrices_1_1RowVector.html" target="_top" xlink:title="A row vector of real numbers.">
<polygon fill="white" stroke="black" points="620,-64.5 620,-94.5 765,-94.5 765,-64.5 620,-64.5"/>
<text text-anchor="start" x="628" y="-82.5" font-family="Helvetica,sans-Serif" font-size="10.00">Meta.Numerics.Matrices.Row</text>
<text text-anchor="middle" x="692.5" y="-71.5" font-family="Helvetica,sans-Serif" font-size="10.00">Vector</text>
</a>
</g>
</g>
<!-- Node7&#45;&gt;Node12 -->
<g id="edge13" class="edge"><title>Node7&#45;&gt;Node12</title>
<path fill="none" stroke="midnightblue" d="M409.21,-114.19C462.932,-107.588 555.394,-96.2258 619.802,-88.3108"/>
<polygon fill="midnightblue" stroke="midnightblue" points="408.5,-110.751 399.002,-115.444 409.354,-117.699 408.5,-110.751"/>
</g>
<!-- Node8 -->
<g id="node8" class="node"><title>Node8</title>
<g id="a_node8"><a xlink:title=" ">
<polygon fill="white" stroke="#bfbfbf" points="200,-186 200,-205 271,-205 271,-186 200,-186"/>
<text text-anchor="middle" x="235.5" y="-193" font-family="Helvetica,sans-Serif" font-size="10.00">IEnumerable</text>
</a>
</g>
</g>
<!-- Node8&#45;&gt;Node7 -->
<g id="edge8" class="edge"><title>Node8&#45;&gt;Node7</title>
<path fill="none" stroke="midnightblue" d="M280.621,-182.777C285.241,-180.901 289.785,-178.81 294,-176.5 317.915,-163.396 341.659,-141.773 354.416,-129.265"/>
<polygon fill="midnightblue" stroke="midnightblue" points="279.254,-179.551 271.11,-186.328 281.703,-186.109 279.254,-179.551"/>
</g>
<!-- Node9 -->
<g id="node9" class="node"><title>Node9</title>
<g id="a_node9"><a xlink:title=" ">
<polygon fill="white" stroke="#bfbfbf" points="177,-148 177,-167 294,-167 294,-148 177,-148"/>
<text text-anchor="middle" x="235.5" y="-155" font-family="Helvetica,sans-Serif" font-size="10.00">IEnumerable&lt; double &gt;</text>
</a>
</g>
</g>
<!-- Node9&#45;&gt;Node7 -->
<g id="edge9" class="edge"><title>Node9&#45;&gt;Node7</title>
<path fill="none" stroke="midnightblue" d="M278.559,-144.965C295.904,-139.795 315.681,-133.901 331.837,-129.086"/>
<polygon fill="midnightblue" stroke="midnightblue" points="277.257,-141.7 268.674,-147.911 279.257,-148.409 277.257,-141.7"/>
</g>
<!-- Node10 -->
<g id="node10" class="node"><title>Node10</title>
<g id="a_node10"><a xlink:title=" ">
<polygon fill="white" stroke="#bfbfbf" points="181.5,-110 181.5,-129 289.5,-129 289.5,-110 181.5,-110"/>
<text text-anchor="middle" x="235.5" y="-117" font-family="Helvetica,sans-Serif" font-size="10.00">ICollection&lt; double &gt;</text>
</a>
</g>
</g>
<!-- Node10&#45;&gt;Node7 -->
<g id="edge10" class="edge"><title>Node10&#45;&gt;Node7</title>
<path fill="none" stroke="midnightblue" d="M300.028,-119.5C310.705,-119.5 321.39,-119.5 330.886,-119.5"/>
<polygon fill="midnightblue" stroke="midnightblue" points="299.833,-116 289.833,-119.5 299.833,-123 299.833,-116"/>
</g>
<!-- Node11 -->
<g id="node11" class="node"><title>Node11</title>
<g id="a_node11"><a xlink:title=" ">
<polygon fill="white" stroke="#bfbfbf" points="195,-72 195,-91 276,-91 276,-72 195,-72"/>
<text text-anchor="middle" x="235.5" y="-79" font-family="Helvetica,sans-Serif" font-size="10.00">IList&lt; double &gt;</text>
</a>
</g>
</g>
<!-- Node11&#45;&gt;Node7 -->
<g id="edge11" class="edge"><title>Node11&#45;&gt;Node7</title>
<path fill="none" stroke="midnightblue" d="M278.559,-94.0353C295.904,-99.2048 315.681,-105.099 331.837,-109.914"/>
<polygon fill="midnightblue" stroke="midnightblue" points="279.257,-90.5911 268.674,-91.089 277.257,-97.2995 279.257,-90.5911"/>
</g>
<!-- Node12&#45;&gt;Node1 -->
<g id="edge12" class="edge"><title>Node12&#45;&gt;Node1</title>
<path fill="none" stroke="#9a32cd" stroke-dasharray="5,2" d="M775.247,-79.5C789.983,-79.5 804.782,-79.5 817.797,-79.5"/>
<polygon fill="#9a32cd" stroke="#9a32cd" points="775.077,-76.0001 765.077,-79.5 775.077,-83.0001 775.077,-76.0001"/>
<text text-anchor="middle" x="795" y="-82.5" font-family="Helvetica,sans-Serif" font-size="10.00"> R</text>
</g>
</g>
</svg>
