<?xml version="1.0" encoding="UTF-8" standalone="no"?>
<!DOCTYPE svg PUBLIC "-//W3C//DTD SVG 1.1//EN"
 "http://www.w3.org/Graphics/SVG/1.1/DTD/svg11.dtd">
<!-- Generated by graphviz version 2.38.0 (20140413.2041)
 -->
<!-- Title: IG.Forms.ScalarFunctionEvaluatorForm Pages: 1 -->
<svg width="343pt" height="294pt"
 viewBox="0.00 0.00 342.50 294.00" xmlns="http://www.w3.org/2000/svg" xmlns:xlink="http://www.w3.org/1999/xlink">
<g id="graph0" class="graph" transform="scale(1 1) rotate(0) translate(4 290)">
<title>IG.Forms.ScalarFunctionEvaluatorForm</title>
<polygon fill="white" stroke="none" points="-4,4 -4,-290 338.5,-290 338.5,4 -4,4"/>
<!-- Node1 -->
<g id="node1" class="node"><title>Node1</title>
<g id="a_node1"><a xlink:title="Control for test evaluation of scalar functions.">
<polygon fill="#bfbfbf" stroke="black" points="0,-0.5 0,-19.5 188,-19.5 188,-0.5 0,-0.5"/>
<text text-anchor="middle" x="94" y="-7.5" font-family="Helvetica,sans-Serif" font-size="10.00">IG.Forms.ScalarFunctionEvaluatorForm</text>
</a>
</g>
</g>
<!-- Node2 -->
<g id="node2" class="node"><title>Node2</title>
<g id="a_node2"><a xlink:title=" ">
<polygon fill="white" stroke="#bfbfbf" points="18.5,-73 18.5,-92 57.5,-92 57.5,-73 18.5,-73"/>
<text text-anchor="middle" x="38" y="-80" font-family="Helvetica,sans-Serif" font-size="10.00">Form</text>
</a>
</g>
</g>
<!-- Node2&#45;&gt;Node1 -->
<g id="edge1" class="edge"><title>Node2&#45;&gt;Node1</title>
<path fill="none" stroke="midnightblue" d="M51.1881,-64.8971C62.431,-50.7431 78.148,-30.9566 87.0771,-19.7154"/>
<polygon fill="midnightblue" stroke="midnightblue" points="48.3459,-62.848 44.8667,-72.8553 53.8272,-67.2019 48.3459,-62.848"/>
</g>
<!-- Node3 -->
<g id="node3" class="node"><title>Node3</title>
<g id="a_node3"><a xlink:title=" ">
<polygon fill="white" stroke="#bfbfbf" points="90,-266.5 90,-285.5 140,-285.5 140,-266.5 90,-266.5"/>
<text text-anchor="middle" x="115" y="-273.5" font-family="Helvetica,sans-Serif" font-size="10.00">System</text>
</a>
</g>
</g>
<!-- Node3&#45;&gt;Node1 -->
<g id="edge2" class="edge"><title>Node3&#45;&gt;Node1</title>
<path fill="none" stroke="#9a32cd" stroke-dasharray="5,2" d="M110.427,-256.186C109.877,-253.452 109.378,-250.662 109,-248 96.4327,-159.422 94.3931,-50.7219 94.0633,-19.6581"/>
<polygon fill="#9a32cd" stroke="#9a32cd" points="107.04,-257.075 112.648,-266.064 113.869,-255.54 107.04,-257.075"/>
<text text-anchor="middle" x="125.5" y="-80" font-family="Helvetica,sans-Serif" font-size="10.00"> components</text>
</g>
<!-- Node4 -->
<g id="node4" class="node"><title>Node4</title>
<g id="a_node4"><a xlink:href="../../d1/d79/classIG_1_1Forms_1_1ScalarFunctionEvaluatorControl.html" target="_top" xlink:title="Control for test evaluation of scalar functions.">
<polygon fill="white" stroke="black" points="169.5,-67.5 169.5,-97.5 334.5,-97.5 334.5,-67.5 169.5,-67.5"/>
<text text-anchor="start" x="177.5" y="-85.5" font-family="Helvetica,sans-Serif" font-size="10.00">IG.Forms.ScalarFunctionEvaluator</text>
<text text-anchor="middle" x="252" y="-74.5" font-family="Helvetica,sans-Serif" font-size="10.00">Control</text>
</a>
</g>
</g>
<!-- Node3&#45;&gt;Node4 -->
<g id="edge5" class="edge"><title>Node3&#45;&gt;Node4</title>
<path fill="none" stroke="#9a32cd" stroke-dasharray="5,2" d="M113.121,-256.476C110.883,-223.797 111.207,-155.626 147,-116 154.099,-108.141 163.055,-102.162 172.729,-97.6169"/>
<polygon fill="#9a32cd" stroke="#9a32cd" points="109.634,-256.78 113.965,-266.449 116.609,-256.19 109.634,-256.78"/>
<text text-anchor="middle" x="197.5" y="-240" font-family="Helvetica,sans-Serif" font-size="10.00"> columnValue</text>
<text text-anchor="middle" x="197.5" y="-229" font-family="Helvetica,sans-Serif" font-size="10.00">label1</text>
<text text-anchor="middle" x="197.5" y="-218" font-family="Helvetica,sans-Serif" font-size="10.00">btnResetDefault</text>
<text text-anchor="middle" x="197.5" y="-207" font-family="Helvetica,sans-Serif" font-size="10.00">txtValue</text>
<text text-anchor="start" x="147" y="-196" font-family="Helvetica,sans-Serif" font-size="10.00">resetToDefaultToolStrip</text>
<text text-anchor="middle" x="197.5" y="-185" font-family="Helvetica,sans-Serif" font-size="10.00">MenuItem</text>
<text text-anchor="middle" x="197.5" y="-174" font-family="Helvetica,sans-Serif" font-size="10.00">columnName</text>
<text text-anchor="middle" x="197.5" y="-163" font-family="Helvetica,sans-Serif" font-size="10.00">btnCalculate</text>
<text text-anchor="middle" x="197.5" y="-152" font-family="Helvetica,sans-Serif" font-size="10.00">groupBox1</text>
<text text-anchor="middle" x="197.5" y="-141" font-family="Helvetica,sans-Serif" font-size="10.00">btnShowDefinition</text>
<text text-anchor="middle" x="197.5" y="-130" font-family="Helvetica,sans-Serif" font-size="10.00">components</text>
<text text-anchor="middle" x="197.5" y="-119" font-family="Helvetica,sans-Serif" font-size="10.00">...</text>
</g>
<!-- Node4&#45;&gt;Node1 -->
<g id="edge3" class="edge"><title>Node4&#45;&gt;Node1</title>
<path fill="none" stroke="#9a32cd" stroke-dasharray="5,2" d="M210.985,-63.1991C179.429,-49.1186 137.261,-30.303 113.125,-19.5336"/>
<polygon fill="#9a32cd" stroke="#9a32cd" points="209.848,-66.5241 220.406,-67.4027 212.7,-60.1316 209.848,-66.5241"/>
<text text-anchor="middle" x="249.5" y="-41" font-family="Helvetica,sans-Serif" font-size="10.00"> scalarFunctionEvaluatorControl1</text>
</g>
<!-- Node5 -->
<g id="node5" class="node"><title>Node5</title>
<g id="a_node5"><a xlink:title=" ">
<polygon fill="white" stroke="#bfbfbf" points="218,-266.5 218,-285.5 286,-285.5 286,-266.5 218,-266.5"/>
<text text-anchor="middle" x="252" y="-273.5" font-family="Helvetica,sans-Serif" font-size="10.00">UserControl</text>
</a>
</g>
</g>
<!-- Node5&#45;&gt;Node4 -->
<g id="edge4" class="edge"><title>Node5&#45;&gt;Node4</title>
<path fill="none" stroke="midnightblue" d="M252,-256.005C252,-217.637 252,-131.662 252,-97.6957"/>
<polygon fill="midnightblue" stroke="midnightblue" points="248.5,-256.274 252,-266.274 255.5,-256.274 248.5,-256.274"/>
</g>
</g>
</svg>
