<?xml version="1.0" encoding="UTF-8" standalone="no"?>
<!DOCTYPE svg PUBLIC "-//W3C//DTD SVG 1.1//EN"
 "http://www.w3.org/Graphics/SVG/1.1/DTD/svg11.dtd">
<!-- Generated by graphviz version 2.38.0 (20140413.2041)
 -->
<!-- Title: IG.Web.IWsDevelop1 Pages: 1 -->
<svg width="408pt" height="196pt"
 viewBox="0.00 0.00 408.00 196.00" xmlns="http://www.w3.org/2000/svg" xmlns:xlink="http://www.w3.org/1999/xlink">
<g id="graph0" class="graph" transform="scale(1 1) rotate(0) translate(4 192)">
<title>IG.Web.IWsDevelop1</title>
<polygon fill="white" stroke="none" points="-4,4 -4,-192 404,-192 404,4 -4,4"/>
<!-- Node1 -->
<g id="node1" class="node"><title>Node1</title>
<g id="a_node1"><a xlink:title="Interface for higher level development web services.">
<polygon fill="#bfbfbf" stroke="black" points="138.5,-56.5 138.5,-75.5 247.5,-75.5 247.5,-56.5 138.5,-56.5"/>
<text text-anchor="middle" x="193" y="-63.5" font-family="Helvetica,sans-Serif" font-size="10.00">IG.Web.IWsDevelop1</text>
</a>
</g>
</g>
<!-- Node4 -->
<g id="node4" class="node"><title>Node4</title>
<g id="a_node4"><a xlink:href="../../da/dbe/classIG_1_1Web_1_1WSDevelop1.html" target="_top" xlink:title="Web service class.">
<polygon fill="white" stroke="black" points="0,-0.5 0,-19.5 108,-19.5 108,-0.5 0,-0.5"/>
<text text-anchor="middle" x="54" y="-7.5" font-family="Helvetica,sans-Serif" font-size="10.00">IG.Web.WSDevelop1</text>
</a>
</g>
</g>
<!-- Node1&#45;&gt;Node4 -->
<g id="edge4" class="edge"><title>Node1&#45;&gt;Node4</title>
<path fill="none" stroke="midnightblue" d="M161.524,-52.772C135.415,-42.6287 98.961,-28.4669 75.9219,-19.5164"/>
<polygon fill="midnightblue" stroke="midnightblue" points="160.386,-56.0847 170.975,-56.4435 162.921,-49.5598 160.386,-56.0847"/>
</g>
<!-- Node5 -->
<g id="node5" class="node"><title>Node5</title>
<g id="a_node5"><a xlink:href="../../d4/d76/classIG_1_1Web_1_1WSDevelop1Class.html" target="_top" xlink:title="Web service class.">
<polygon fill="white" stroke="black" points="126.5,-0.5 126.5,-19.5 259.5,-19.5 259.5,-0.5 126.5,-0.5"/>
<text text-anchor="middle" x="193" y="-7.5" font-family="Helvetica,sans-Serif" font-size="10.00">IG.Web.WSDevelop1Class</text>
</a>
</g>
</g>
<!-- Node1&#45;&gt;Node5 -->
<g id="edge5" class="edge"><title>Node1&#45;&gt;Node5</title>
<path fill="none" stroke="midnightblue" d="M193,-45.8045C193,-36.9102 193,-26.7798 193,-19.7511"/>
<polygon fill="midnightblue" stroke="midnightblue" points="189.5,-46.083 193,-56.083 196.5,-46.083 189.5,-46.083"/>
</g>
<!-- Node6 -->
<g id="node6" class="node"><title>Node6</title>
<g id="a_node6"><a xlink:href="../../d6/d6f/classIG_1_1Web_1_1WSDevelop1Ref.html" target="_top" xlink:title="Class for referencing a web service based on the WSDevelopClass.">
<polygon fill="white" stroke="black" points="278,-0.5 278,-19.5 400,-19.5 400,-0.5 278,-0.5"/>
<text text-anchor="middle" x="339" y="-7.5" font-family="Helvetica,sans-Serif" font-size="10.00">IG.Web.WSDevelop1Ref</text>
</a>
</g>
</g>
<!-- Node1&#45;&gt;Node6 -->
<g id="edge6" class="edge"><title>Node1&#45;&gt;Node6</title>
<path fill="none" stroke="midnightblue" d="M225.699,-52.9058C253.148,-42.7536 291.668,-28.5063 315.974,-19.5164"/>
<polygon fill="midnightblue" stroke="midnightblue" points="224.299,-49.6919 216.134,-56.4435 226.727,-56.2572 224.299,-49.6919"/>
</g>
<!-- Node2 -->
<g id="node2" class="node"><title>Node2</title>
<g id="a_node2"><a xlink:href="../../d3/d6b/interfaceIG_1_1Web_1_1IWsDevelop.html" target="_top" xlink:title="Interface for development web services.">
<polygon fill="white" stroke="black" points="190,-112.5 190,-131.5 258,-131.5 258,-112.5 190,-112.5"/>
<text text-anchor="middle" x="224" y="-119.5" font-family="Helvetica,sans-Serif" font-size="10.00">IWsDevelop</text>
</a>
</g>
</g>
<!-- Node2&#45;&gt;Node1 -->
<g id="edge1" class="edge"><title>Node2&#45;&gt;Node1</title>
<path fill="none" stroke="midnightblue" d="M213.824,-103.275C208.526,-94.0454 202.283,-83.1703 198.024,-75.7511"/>
<polygon fill="midnightblue" stroke="midnightblue" points="210.867,-105.153 218.881,-112.083 216.938,-101.668 210.867,-105.153"/>
</g>
<!-- Node3 -->
<g id="node3" class="node"><title>Node3</title>
<g id="a_node3"><a xlink:href="../../d3/d45/interfaceIG_1_1Web_1_1IWSBase.html" target="_top" xlink:title="Interface for basic web service.">
<polygon fill="white" stroke="black" points="164,-168.5 164,-187.5 222,-187.5 222,-168.5 164,-168.5"/>
<text text-anchor="middle" x="193" y="-175.5" font-family="Helvetica,sans-Serif" font-size="10.00">IWSBase</text>
</a>
</g>
</g>
<!-- Node3&#45;&gt;Node1 -->
<g id="edge3" class="edge"><title>Node3&#45;&gt;Node1</title>
<path fill="none" stroke="midnightblue" d="M186.478,-158.607C182.647,-145.635 178.927,-127.823 181,-112 182.681,-99.1729 186.948,-84.8015 189.912,-75.8268"/>
<polygon fill="midnightblue" stroke="midnightblue" points="183.18,-159.785 189.598,-168.215 189.838,-157.623 183.18,-159.785"/>
</g>
<!-- Node3&#45;&gt;Node2 -->
<g id="edge2" class="edge"><title>Node3&#45;&gt;Node2</title>
<path fill="none" stroke="midnightblue" d="M203.176,-159.275C208.474,-150.045 214.717,-139.17 218.976,-131.751"/>
<polygon fill="midnightblue" stroke="midnightblue" points="200.062,-157.668 198.119,-168.083 206.133,-161.153 200.062,-157.668"/>
</g>
</g>
</svg>
