<?xml version="1.0" encoding="UTF-8" standalone="no"?>
<!DOCTYPE svg PUBLIC "-//W3C//DTD SVG 1.1//EN"
 "http://www.w3.org/Graphics/SVG/1.1/DTD/svg11.dtd">
<!-- Generated by graphviz version 2.38.0 (20140413.2041)
 -->
<!-- Title: alglib.testalglibbasicsunit.rec1 Pages: 1 -->
<svg width="155pt" height="117pt"
 viewBox="0.00 0.00 155.00 117.00" xmlns="http://www.w3.org/2000/svg" xmlns:xlink="http://www.w3.org/1999/xlink">
<g id="graph0" class="graph" transform="scale(1 1) rotate(0) translate(4 113)">
<title>alglib.testalglibbasicsunit.rec1</title>
<polygon fill="white" stroke="none" points="-4,4 -4,-113 151,-113 151,4 -4,4"/>
<!-- Node1 -->
<g id="node1" class="node"><title>Node1</title>
<g id="a_node1"><a xlink:title=" ">
<polygon fill="#bfbfbf" stroke="black" points="0,-0.5 0,-19.5 147,-19.5 147,-0.5 0,-0.5"/>
<text text-anchor="middle" x="73.5" y="-7.5" font-family="Helvetica,sans-Serif" font-size="10.00">alglib.testalglibbasicsunit.rec1</text>
</a>
</g>
</g>
<!-- Node2 -->
<g id="node2" class="node"><title>Node2</title>
<g id="a_node2"><a xlink:href="../../d2/d10/structalglib_1_1complex.html" target="_top" xlink:title=" ">
<polygon fill="white" stroke="black" points="34,-89.5 34,-108.5 113,-108.5 113,-89.5 34,-89.5"/>
<text text-anchor="middle" x="73.5" y="-96.5" font-family="Helvetica,sans-Serif" font-size="10.00">alglib.complex</text>
</a>
</g>
</g>
<!-- Node2&#45;&gt;Node1 -->
<g id="edge1" class="edge"><title>Node2&#45;&gt;Node1</title>
<path fill="none" stroke="#9a32cd" stroke-dasharray="5,2" d="M73.5,-79.1946C73.5,-60.7379 73.5,-33.412 73.5,-19.6249"/>
<polygon fill="#9a32cd" stroke="#9a32cd" points="70.0001,-79.34 73.5,-89.34 77.0001,-79.3401 70.0001,-79.34"/>
<text text-anchor="middle" x="89" y="-63" font-family="Helvetica,sans-Serif" font-size="10.00"> c2field</text>
<text text-anchor="middle" x="89" y="-52" font-family="Helvetica,sans-Serif" font-size="10.00">c1field</text>
<text text-anchor="middle" x="89" y="-41" font-family="Helvetica,sans-Serif" font-size="10.00">cfield</text>
</g>
</g>
</svg>
