<?xml version="1.0" encoding="UTF-8" standalone="no"?>
<!DOCTYPE svg PUBLIC "-//W3C//DTD SVG 1.1//EN"
 "http://www.w3.org/Graphics/SVG/1.1/DTD/svg11.dtd">
<!-- Generated by graphviz version 2.38.0 (20140413.2041)
 -->
<!-- Title: IG.Script.AppFerdo Pages: 1 -->
<svg width="255pt" height="196pt"
 viewBox="0.00 0.00 255.00 196.00" xmlns="http://www.w3.org/2000/svg" xmlns:xlink="http://www.w3.org/1999/xlink">
<g id="graph0" class="graph" transform="scale(1 1) rotate(0) translate(4 192)">
<title>IG.Script.AppFerdo</title>
<polygon fill="white" stroke="none" points="-4,4 -4,-192 251,-192 251,4 -4,4"/>
<!-- Node1 -->
<g id="node1" class="node"><title>Node1</title>
<g id="a_node1"><a xlink:title="Internal script for running embedded applications.">
<polygon fill="#bfbfbf" stroke="black" points="111,-0.5 111,-19.5 211,-19.5 211,-0.5 111,-0.5"/>
<text text-anchor="middle" x="161" y="-7.5" font-family="Helvetica,sans-Serif" font-size="10.00">IG.Script.AppFerdo</text>
</a>
</g>
</g>
<!-- Node2 -->
<g id="node2" class="node"><title>Node2</title>
<g id="a_node2"><a xlink:href="../../db/d07/classIG_1_1Script_1_1AppIgorForFerdo.html" target="_top" xlink:title="Internal script for running embedded applications.">
<polygon fill="white" stroke="black" points="43.5,-56.5 43.5,-75.5 132.5,-75.5 132.5,-56.5 43.5,-56.5"/>
<text text-anchor="middle" x="88" y="-63.5" font-family="Helvetica,sans-Serif" font-size="10.00">AppIgorForFerdo</text>
</a>
</g>
</g>
<!-- Node2&#45;&gt;Node1 -->
<g id="edge1" class="edge"><title>Node2&#45;&gt;Node1</title>
<path fill="none" stroke="midnightblue" d="M108.142,-50.1008C121.279,-40.3824 137.982,-28.0269 149.058,-19.8339"/>
<polygon fill="midnightblue" stroke="midnightblue" points="105.687,-47.5631 99.7287,-56.324 109.85,-53.1907 105.687,-47.5631"/>
</g>
<!-- Node3 -->
<g id="node3" class="node"><title>Node3</title>
<g id="a_node3"><a xlink:href="../../d5/d63/classIG_1_1Script_1_1AppBase.html" target="_top" xlink:title="Base cls. for application scripts that can also be used on its own.">
<polygon fill="white" stroke="black" points="39,-112.5 39,-131.5 95,-131.5 95,-112.5 39,-112.5"/>
<text text-anchor="middle" x="67" y="-119.5" font-family="Helvetica,sans-Serif" font-size="10.00">AppBase</text>
</a>
</g>
</g>
<!-- Node3&#45;&gt;Node2 -->
<g id="edge2" class="edge"><title>Node3&#45;&gt;Node2</title>
<path fill="none" stroke="midnightblue" d="M74.1207,-102.69C77.6598,-93.589 81.7723,-83.0141 84.5968,-75.7511"/>
<polygon fill="midnightblue" stroke="midnightblue" points="70.8302,-101.494 70.4677,-112.083 77.3543,-104.032 70.8302,-101.494"/>
</g>
<!-- Node4 -->
<g id="node4" class="node"><title>Node4</title>
<g id="a_node4"><a xlink:href="../../db/da4/classIG_1_1Script_1_1ScriptAppBase.html" target="_top" xlink:title="Partial class definition containing tests of CSV utilities.">
<polygon fill="white" stroke="black" points="0,-168.5 0,-187.5 82,-187.5 82,-168.5 0,-168.5"/>
<text text-anchor="middle" x="41" y="-175.5" font-family="Helvetica,sans-Serif" font-size="10.00">ScriptAppBase</text>
</a>
</g>
</g>
<!-- Node4&#45;&gt;Node3 -->
<g id="edge3" class="edge"><title>Node4&#45;&gt;Node3</title>
<path fill="none" stroke="midnightblue" d="M49.675,-158.983C54.0882,-149.817 59.2519,-139.092 62.7865,-131.751"/>
<polygon fill="midnightblue" stroke="midnightblue" points="46.4781,-157.555 45.2934,-168.083 52.7851,-160.591 46.4781,-157.555"/>
</g>
<!-- Node5 -->
<g id="node5" class="node"><title>Node5</title>
<g id="a_node5"><a xlink:href="../../d7/d66/interfaceIG_1_1Lib_1_1ILoadableScript.html" target="_top" xlink:title="Interface for classes that can be dynamically loadeded from scripts and run, which provides functiona...">
<polygon fill="white" stroke="black" points="100.5,-168.5 100.5,-187.5 183.5,-187.5 183.5,-168.5 100.5,-168.5"/>
<text text-anchor="middle" x="142" y="-175.5" font-family="Helvetica,sans-Serif" font-size="10.00">ILoadableScript</text>
</a>
</g>
</g>
<!-- Node5&#45;&gt;Node1 -->
<g id="edge6" class="edge"><title>Node5&#45;&gt;Node1</title>
<path fill="none" stroke="midnightblue" d="M144.183,-157.93C148.304,-121.92 157.082,-45.2312 160.019,-19.5681"/>
<polygon fill="midnightblue" stroke="midnightblue" points="140.681,-157.742 143.022,-168.075 147.636,-158.538 140.681,-157.742"/>
</g>
<!-- Node5&#45;&gt;Node2 -->
<g id="edge5" class="edge"><title>Node5&#45;&gt;Node2</title>
<path fill="none" stroke="midnightblue" d="M133.321,-159.32C121.563,-135.37 101.033,-93.5484 92.2176,-75.5914"/>
<polygon fill="midnightblue" stroke="midnightblue" points="130.214,-160.934 137.763,-168.368 136.498,-157.849 130.214,-160.934"/>
</g>
<!-- Node5&#45;&gt;Node3 -->
<g id="edge4" class="edge"><title>Node5&#45;&gt;Node3</title>
<path fill="none" stroke="midnightblue" d="M121.695,-162.38C108.139,-152.62 90.7579,-140.106 79.2693,-131.834"/>
<polygon fill="midnightblue" stroke="midnightblue" points="119.79,-165.321 129.95,-168.324 123.88,-159.641 119.79,-165.321"/>
</g>
<!-- Node6 -->
<g id="node6" class="node"><title>Node6</title>
<g id="a_node6"><a xlink:href="../../d3/db6/interfaceIG_1_1Lib_1_1ILockable.html" target="_top" xlink:title="Lockable object, has a Lock property that returns object on which lock must be performed in order to ...">
<polygon fill="white" stroke="black" points="189,-56.5 189,-75.5 247,-75.5 247,-56.5 189,-56.5"/>
<text text-anchor="middle" x="218" y="-63.5" font-family="Helvetica,sans-Serif" font-size="10.00">ILockable</text>
</a>
</g>
</g>
<!-- Node6&#45;&gt;Node1 -->
<g id="edge7" class="edge"><title>Node6&#45;&gt;Node1</title>
<path fill="none" stroke="midnightblue" d="M201.379,-49.2533C191.266,-39.6731 178.723,-27.7906 170.325,-19.8339"/>
<polygon fill="midnightblue" stroke="midnightblue" points="199.175,-51.9873 208.842,-56.324 203.99,-46.9056 199.175,-51.9873"/>
</g>
</g>
</svg>
