<?xml version="1.0" encoding="UTF-8" standalone="no"?>
<!DOCTYPE svg PUBLIC "-//W3C//DTD SVG 1.1//EN"
 "http://www.w3.org/Graphics/SVG/1.1/DTD/svg11.dtd">
<!-- Generated by graphviz version 2.38.0 (20140413.2041)
 -->
<!-- Title: NUnit.Framework.Constraints.SubstringConstraintTests Pages: 1 -->
<svg width="227pt" height="423pt"
 viewBox="0.00 0.00 226.50 423.00" xmlns="http://www.w3.org/2000/svg" xmlns:xlink="http://www.w3.org/1999/xlink">
<g id="graph0" class="graph" transform="scale(1 1) rotate(0) translate(4 419)">
<title>NUnit.Framework.Constraints.SubstringConstraintTests</title>
<polygon fill="white" stroke="none" points="-4,4 -4,-419 222.5,-419 222.5,4 -4,4"/>
<!-- Node1 -->
<g id="node1" class="node"><title>Node1</title>
<g id="a_node1"><a xlink:title=" ">
<polygon fill="#bfbfbf" stroke="black" points="70,-0.5 70,-30.5 217,-30.5 217,-0.5 70,-0.5"/>
<text text-anchor="start" x="78" y="-18.5" font-family="Helvetica,sans-Serif" font-size="10.00">NUnit.Framework.Constraints.</text>
<text text-anchor="middle" x="143.5" y="-7.5" font-family="Helvetica,sans-Serif" font-size="10.00">SubstringConstraintTests</text>
</a>
</g>
</g>
<!-- Node2 -->
<g id="node2" class="node"><title>Node2</title>
<g id="a_node2"><a xlink:href="../../dc/dcc/classNUnit_1_1Framework_1_1Constraints_1_1StringConstraintTests.html" target="_top" xlink:title=" ">
<polygon fill="white" stroke="black" points="18.5,-89.5 18.5,-108.5 128.5,-108.5 128.5,-89.5 18.5,-89.5"/>
<text text-anchor="middle" x="73.5" y="-96.5" font-family="Helvetica,sans-Serif" font-size="10.00">StringConstraintTests</text>
</a>
</g>
</g>
<!-- Node2&#45;&gt;Node1 -->
<g id="edge1" class="edge"><title>Node2&#45;&gt;Node1</title>
<path fill="none" stroke="midnightblue" d="M87.7858,-81.3673C100.624,-66.4199 119.271,-44.71 131.392,-30.5974"/>
<polygon fill="midnightblue" stroke="midnightblue" points="84.8517,-79.4116 80.9912,-89.2781 90.1619,-83.9725 84.8517,-79.4116"/>
</g>
<!-- Node3 -->
<g id="node3" class="node"><title>Node3</title>
<g id="a_node3"><a xlink:href="../../d5/d7a/classNUnit_1_1Framework_1_1Constraints_1_1ConstraintTestBase.html" target="_top" xlink:title=" ">
<polygon fill="white" stroke="black" points="22.5,-146.5 22.5,-165.5 124.5,-165.5 124.5,-146.5 22.5,-146.5"/>
<text text-anchor="middle" x="73.5" y="-153.5" font-family="Helvetica,sans-Serif" font-size="10.00">ConstraintTestBase</text>
</a>
</g>
</g>
<!-- Node3&#45;&gt;Node2 -->
<g id="edge2" class="edge"><title>Node3&#45;&gt;Node2</title>
<path fill="none" stroke="midnightblue" d="M73.5,-136.117C73.5,-126.817 73.5,-116.056 73.5,-108.715"/>
<polygon fill="midnightblue" stroke="midnightblue" points="70.0001,-136.406 73.5,-146.406 77.0001,-136.406 70.0001,-136.406"/>
</g>
<!-- Node4 -->
<g id="node4" class="node"><title>Node4</title>
<g id="a_node4"><a xlink:href="../../dc/d5c/classNUnit_1_1Framework_1_1Constraints_1_1ConstraintTestBaseNoData.html" target="_top" xlink:title=" ">
<polygon fill="white" stroke="black" points="6.5,-203.5 6.5,-222.5 140.5,-222.5 140.5,-203.5 6.5,-203.5"/>
<text text-anchor="middle" x="73.5" y="-210.5" font-family="Helvetica,sans-Serif" font-size="10.00">ConstraintTestBaseNoData</text>
</a>
</g>
</g>
<!-- Node4&#45;&gt;Node3 -->
<g id="edge3" class="edge"><title>Node4&#45;&gt;Node3</title>
<path fill="none" stroke="midnightblue" d="M73.5,-193.117C73.5,-183.817 73.5,-173.056 73.5,-165.715"/>
<polygon fill="midnightblue" stroke="midnightblue" points="70.0001,-193.406 73.5,-203.406 77.0001,-193.406 70.0001,-193.406"/>
</g>
<!-- Node5 -->
<g id="node5" class="node"><title>Node5</title>
<g id="a_node5"><a xlink:href="../../d9/da9/classNUnit_1_1Framework_1_1Constraints_1_1Constraint.html" target="_top" xlink:title="The Constraint class is the base of all built&#45;in constraints within NUnit. It provides the operator o...">
<polygon fill="white" stroke="black" points="0,-270.5 0,-300.5 147,-300.5 147,-270.5 0,-270.5"/>
<text text-anchor="start" x="8" y="-288.5" font-family="Helvetica,sans-Serif" font-size="10.00">NUnit.Framework.Constraints.</text>
<text text-anchor="middle" x="73.5" y="-277.5" font-family="Helvetica,sans-Serif" font-size="10.00">Constraint</text>
</a>
</g>
</g>
<!-- Node5&#45;&gt;Node4 -->
<g id="edge4" class="edge"><title>Node5&#45;&gt;Node4</title>
<path fill="none" stroke="#9a32cd" stroke-dasharray="5,2" d="M73.5,-260.091C73.5,-247.214 73.5,-232.197 73.5,-222.893"/>
<polygon fill="#9a32cd" stroke="#9a32cd" points="70.0001,-260.233 73.5,-270.233 77.0001,-260.233 70.0001,-260.233"/>
<text text-anchor="middle" x="104" y="-244" font-family="Helvetica,sans-Serif" font-size="10.00"> theConstraint</text>
</g>
<!-- Node6 -->
<g id="node6" class="node"><title>Node6</title>
<g id="a_node6"><a xlink:href="../../d1/d94/interfaceNUnit_1_1Framework_1_1Constraints_1_1IConstraint.html" target="_top" xlink:title="Interface for all constraints">
<polygon fill="white" stroke="black" points="42,-338.5 42,-357.5 105,-357.5 105,-338.5 42,-338.5"/>
<text text-anchor="middle" x="73.5" y="-345.5" font-family="Helvetica,sans-Serif" font-size="10.00">IConstraint</text>
</a>
</g>
</g>
<!-- Node6&#45;&gt;Node5 -->
<g id="edge5" class="edge"><title>Node6&#45;&gt;Node5</title>
<path fill="none" stroke="midnightblue" d="M73.5,-328.215C73.5,-319.356 73.5,-308.958 73.5,-300.759"/>
<polygon fill="midnightblue" stroke="midnightblue" points="70.0001,-328.332 73.5,-338.332 77.0001,-328.332 70.0001,-328.332"/>
</g>
<!-- Node7 -->
<g id="node7" class="node"><title>Node7</title>
<g id="a_node7"><a xlink:href="../../d7/d29/interfaceNUnit_1_1Framework_1_1Constraints_1_1IResolveConstraint.html" target="_top" xlink:title="The IResolveConstraint interface is implemented by all complete and resolvable constraints and expres...">
<polygon fill="white" stroke="black" points="25,-395.5 25,-414.5 122,-414.5 122,-395.5 25,-395.5"/>
<text text-anchor="middle" x="73.5" y="-402.5" font-family="Helvetica,sans-Serif" font-size="10.00">IResolveConstraint</text>
</a>
</g>
</g>
<!-- Node7&#45;&gt;Node6 -->
<g id="edge6" class="edge"><title>Node7&#45;&gt;Node6</title>
<path fill="none" stroke="midnightblue" d="M73.5,-385.117C73.5,-375.817 73.5,-365.056 73.5,-357.715"/>
<polygon fill="midnightblue" stroke="midnightblue" points="70.0001,-385.406 73.5,-395.406 77.0001,-385.406 70.0001,-385.406"/>
</g>
<!-- Node8 -->
<g id="node8" class="node"><title>Node8</title>
<g id="a_node8"><a xlink:title=" ">
<polygon fill="white" stroke="#bfbfbf" points="147,-89.5 147,-108.5 188,-108.5 188,-89.5 147,-89.5"/>
<text text-anchor="middle" x="167.5" y="-96.5" font-family="Helvetica,sans-Serif" font-size="10.00">static</text>
</a>
</g>
</g>
<!-- Node8&#45;&gt;Node1 -->
<g id="edge7" class="edge"><title>Node8&#45;&gt;Node1</title>
<path fill="none" stroke="#9a32cd" stroke-dasharray="5,2" d="M162.1,-79.6633C157.725,-64.8073 151.652,-44.1824 147.651,-30.5974"/>
<polygon fill="#9a32cd" stroke="#9a32cd" points="158.749,-80.6741 164.932,-89.2781 165.464,-78.6966 158.749,-80.6741"/>
<text text-anchor="middle" x="189" y="-63" font-family="Helvetica,sans-Serif" font-size="10.00"> FailureData</text>
<text text-anchor="middle" x="189" y="-52" font-family="Helvetica,sans-Serif" font-size="10.00">SuccessData</text>
</g>
</g>
</svg>
