<?xml version="1.0" encoding="UTF-8" standalone="no"?>
<!DOCTYPE svg PUBLIC "-//W3C//DTD SVG 1.1//EN"
 "http://www.w3.org/Graphics/SVG/1.1/DTD/svg11.dtd">
<!-- Generated by graphviz version 2.38.0 (20140413.2041)
 -->
<!-- Title: IG.Num.ResponseTab1dGeneric&lt; TypeData, TypeEvaluator &gt; Pages: 1 -->
<svg width="460pt" height="88pt"
 viewBox="0.00 0.00 460.00 88.00" xmlns="http://www.w3.org/2000/svg" xmlns:xlink="http://www.w3.org/1999/xlink">
<g id="graph0" class="graph" transform="scale(1 1) rotate(0) translate(4 84)">
<title>IG.Num.ResponseTab1dGeneric&lt; TypeData, TypeEvaluator &gt;</title>
<polygon fill="white" stroke="none" points="-4,4 -4,-84 456,-84 456,4 -4,4"/>
<!-- Node1 -->
<g id="node1" class="node"><title>Node1</title>
<g id="a_node1"><a xlink:title=" ">
<polygon fill="#bfbfbf" stroke="black" points="296,-30 296,-60 452,-60 452,-30 296,-30"/>
<text text-anchor="start" x="304" y="-48" font-family="Helvetica,sans-Serif" font-size="10.00">IG.Num.ResponseTab1dGeneric</text>
<text text-anchor="middle" x="374" y="-37" font-family="Helvetica,sans-Serif" font-size="10.00">&lt; TypeData, TypeEvaluator &gt;</text>
</a>
</g>
</g>
<!-- Node2 -->
<g id="node2" class="node"><title>Node2</title>
<g id="a_node2"><a xlink:href="../../d3/db6/interfaceIG_1_1Lib_1_1ILockable.html" target="_top" xlink:title="Lockable object, has a Lock property that returns object on which lock must be performed in order to ...">
<polygon fill="white" stroke="black" points="74,-60.5 74,-79.5 132,-79.5 132,-60.5 74,-60.5"/>
<text text-anchor="middle" x="103" y="-67.5" font-family="Helvetica,sans-Serif" font-size="10.00">ILockable</text>
</a>
</g>
</g>
<!-- Node2&#45;&gt;Node1 -->
<g id="edge1" class="edge"><title>Node2&#45;&gt;Node1</title>
<path fill="none" stroke="midnightblue" d="M142.102,-66.4589C181.906,-62.7597 245.445,-56.8545 295.803,-52.1744"/>
<polygon fill="midnightblue" stroke="midnightblue" points="141.66,-62.9849 132.026,-67.3953 142.307,-69.9548 141.66,-62.9849"/>
</g>
<!-- Node3 -->
<g id="node3" class="node"><title>Node3</title>
<g id="a_node3"><a xlink:href="../../df/d15/classIG_1_1Num_1_1ResponseEvaluatorWithStorageBase.html" target="_top" xlink:title=" ">
<polygon fill="white" stroke="black" points="0,-0.5 0,-41.5 206,-41.5 206,-0.5 0,-0.5"/>
<text text-anchor="start" x="8" y="-29.5" font-family="Helvetica,sans-Serif" font-size="10.00">IG.Num.ResponseEvaluator</text>
<text text-anchor="start" x="8" y="-18.5" font-family="Helvetica,sans-Serif" font-size="10.00">WithStorageBase&lt; IG.Num.Vector</text>
<text text-anchor="middle" x="103" y="-7.5" font-family="Helvetica,sans-Serif" font-size="10.00">FunctionResults, IG.Num.IVectorFunction &gt;</text>
</a>
</g>
</g>
<!-- Node3&#45;&gt;Node1 -->
<g id="edge2" class="edge"><title>Node3&#45;&gt;Node1</title>
<path fill="none" stroke="#9a32cd" stroke-dasharray="5,2" d="M216.26,-31.0158C242.999,-33.4014 270.943,-35.8945 295.707,-38.104"/>
<polygon fill="#9a32cd" stroke="#9a32cd" points="216.352,-27.5102 206.081,-30.1076 215.73,-34.4825 216.352,-27.5102"/>
<text text-anchor="middle" x="251" y="-38" font-family="Helvetica,sans-Serif" font-size="10.00"> _responses</text>
</g>
</g>
</svg>
