<?xml version="1.0" encoding="UTF-8" standalone="no"?>
<!DOCTYPE svg PUBLIC "-//W3C//DTD SVG 1.1//EN"
 "http://www.w3.org/Graphics/SVG/1.1/DTD/svg11.dtd">
<!-- Generated by graphviz version 2.38.0 (20140413.2041)
 -->
<!-- Title: NUnit.Framework.Constraints.EqualityAdapter.ComparerAdapter&lt; T &gt; Pages: 1 -->
<svg width="224pt" height="151pt"
 viewBox="0.00 0.00 223.50 151.00" xmlns="http://www.w3.org/2000/svg" xmlns:xlink="http://www.w3.org/1999/xlink">
<g id="graph0" class="graph" transform="scale(1 1) rotate(0) translate(4 147)">
<title>NUnit.Framework.Constraints.EqualityAdapter.ComparerAdapter&lt; T &gt;</title>
<polygon fill="white" stroke="none" points="-4,4 -4,-147 219.5,-147 219.5,4 -4,4"/>
<!-- Node1 -->
<g id="node1" class="node"><title>Node1</title>
<g id="a_node1"><a xlink:title="EqualityAdapter that wraps an IComparer.">
<polygon fill="#bfbfbf" stroke="black" points="0,-0.5 0,-30.5 188,-30.5 188,-0.5 0,-0.5"/>
<text text-anchor="start" x="8" y="-18.5" font-family="Helvetica,sans-Serif" font-size="10.00">NUnit.Framework.Constraints.</text>
<text text-anchor="middle" x="94" y="-7.5" font-family="Helvetica,sans-Serif" font-size="10.00">EqualityAdapter.ComparerAdapter&lt; T &gt;</text>
</a>
</g>
</g>
<!-- Node2 -->
<g id="node2" class="node"><title>Node2</title>
<g id="a_node2"><a xlink:href="../../d1/d7f/classNUnit_1_1Framework_1_1Constraints_1_1EqualityAdapter_1_1GenericEqualityAdapter.html" target="_top" xlink:title=" ">
<polygon fill="white" stroke="black" points="72.5,-67.5 72.5,-86.5 215.5,-86.5 215.5,-67.5 72.5,-67.5"/>
<text text-anchor="middle" x="144" y="-74.5" font-family="Helvetica,sans-Serif" font-size="10.00">GenericEqualityAdapter&lt; T &gt;</text>
</a>
</g>
</g>
<!-- Node2&#45;&gt;Node1 -->
<g id="edge1" class="edge"><title>Node2&#45;&gt;Node1</title>
<path fill="none" stroke="midnightblue" d="M130.396,-59.8108C122.696,-50.6486 113.162,-39.3032 105.784,-30.523"/>
<polygon fill="midnightblue" stroke="midnightblue" points="127.723,-62.071 136.836,-67.4751 133.082,-57.5676 127.723,-62.071"/>
</g>
<!-- Node3 -->
<g id="node3" class="node"><title>Node3</title>
<g id="a_node3"><a xlink:href="../../da/d28/classNUnit_1_1Framework_1_1Constraints_1_1EqualityAdapter.html" target="_top" xlink:title="EqualityAdapter class handles all equality comparisons that use an IEqualityComparer,...">
<polygon fill="white" stroke="black" points="51,-123.5 51,-142.5 137,-142.5 137,-123.5 51,-123.5"/>
<text text-anchor="middle" x="94" y="-130.5" font-family="Helvetica,sans-Serif" font-size="10.00">EqualityAdapter</text>
</a>
</g>
</g>
<!-- Node3&#45;&gt;Node1 -->
<g id="edge3" class="edge"><title>Node3&#45;&gt;Node1</title>
<path fill="none" stroke="midnightblue" d="M79.5011,-115.398C73.4523,-107.388 67.1171,-97.2952 64,-87 57.9097,-66.8852 70.7647,-44.7447 81.4994,-30.7411"/>
<polygon fill="midnightblue" stroke="midnightblue" points="76.7813,-117.601 85.7864,-123.182 82.2277,-113.203 76.7813,-117.601"/>
</g>
<!-- Node3&#45;&gt;Node2 -->
<g id="edge2" class="edge"><title>Node3&#45;&gt;Node2</title>
<path fill="none" stroke="midnightblue" d="M109.076,-115.718C117.889,-106.2 128.666,-94.5608 135.897,-86.7511"/>
<polygon fill="midnightblue" stroke="midnightblue" points="106.482,-113.367 102.256,-123.083 111.619,-118.123 106.482,-113.367"/>
</g>
</g>
</svg>
