<?xml version="1.0" encoding="UTF-8" standalone="no"?>
<!DOCTYPE svg PUBLIC "-//W3C//DTD SVG 1.1//EN"
 "http://www.w3.org/Graphics/SVG/1.1/DTD/svg11.dtd">
<!-- Generated by graphviz version 2.38.0 (20140413.2041)
 -->
<!-- Title: Meta.Numerics.Matrices.SparseSquareMatrix Pages: 1 -->
<svg width="436pt" height="253pt"
 viewBox="0.00 0.00 436.00 253.00" xmlns="http://www.w3.org/2000/svg" xmlns:xlink="http://www.w3.org/1999/xlink">
<g id="graph0" class="graph" transform="scale(1 1) rotate(0) translate(4 249)">
<title>Meta.Numerics.Matrices.SparseSquareMatrix</title>
<polygon fill="white" stroke="none" points="-4,4 -4,-249 432,-249 432,4 -4,4"/>
<!-- Node1 -->
<g id="node1" class="node"><title>Node1</title>
<g id="a_node1"><a xlink:title="Represents a sparse, square matrix.">
<polygon fill="#bfbfbf" stroke="black" points="117,-0.5 117,-30.5 274,-30.5 274,-0.5 117,-0.5"/>
<text text-anchor="start" x="125" y="-18.5" font-family="Helvetica,sans-Serif" font-size="10.00">Meta.Numerics.Matrices.Sparse</text>
<text text-anchor="middle" x="195.5" y="-7.5" font-family="Helvetica,sans-Serif" font-size="10.00">SquareMatrix</text>
</a>
</g>
</g>
<!-- Node2 -->
<g id="node2" class="node"><title>Node2</title>
<g id="a_node2"><a xlink:href="../../d1/da7/classMeta_1_1Numerics_1_1Matrices_1_1AnySquareMatrix.html" target="_top" xlink:title="Describes the form of all real, square matrices.">
<polygon fill="white" stroke="black" points="78.5,-95 78.5,-114 170.5,-114 170.5,-95 78.5,-95"/>
<text text-anchor="middle" x="124.5" y="-102" font-family="Helvetica,sans-Serif" font-size="10.00">AnySquareMatrix</text>
</a>
</g>
</g>
<!-- Node2&#45;&gt;Node1 -->
<g id="edge1" class="edge"><title>Node2&#45;&gt;Node1</title>
<path fill="none" stroke="midnightblue" d="M138.191,-86.7242C151.514,-70.3986 171.528,-45.8741 184.036,-30.5475"/>
<polygon fill="midnightblue" stroke="midnightblue" points="135.178,-84.8796 131.567,-94.84 140.602,-89.3055 135.178,-84.8796"/>
</g>
<!-- Node3 -->
<g id="node3" class="node"><title>Node3</title>
<g id="a_node3"><a xlink:href="../../d9/d5b/classMeta_1_1Numerics_1_1Matrices_1_1AnyRectangularMatrix.html" target="_top" xlink:title="Describes the form of all real matrices.">
<polygon fill="white" stroke="black" points="68,-157.5 68,-176.5 181,-176.5 181,-157.5 68,-157.5"/>
<text text-anchor="middle" x="124.5" y="-164.5" font-family="Helvetica,sans-Serif" font-size="10.00">AnyRectangularMatrix</text>
</a>
</g>
</g>
<!-- Node3&#45;&gt;Node2 -->
<g id="edge2" class="edge"><title>Node3&#45;&gt;Node2</title>
<path fill="none" stroke="midnightblue" d="M124.5,-147.003C124.5,-136 124.5,-122.682 124.5,-114.152"/>
<polygon fill="midnightblue" stroke="midnightblue" points="121,-147.332 124.5,-157.332 128,-147.332 121,-147.332"/>
</g>
<!-- Node4 -->
<g id="node4" class="node"><title>Node4</title>
<g id="a_node4"><a xlink:href="../../df/de5/classMeta_1_1Numerics_1_1Matrices_1_1AnyMatrix.html" target="_top" xlink:title=" ">
<polygon fill="white" stroke="black" points="0,-220 0,-239 107,-239 107,-220 0,-220"/>
<text text-anchor="middle" x="53.5" y="-227" font-family="Helvetica,sans-Serif" font-size="10.00">AnyMatrix&lt; double &gt;</text>
</a>
</g>
</g>
<!-- Node4&#45;&gt;Node3 -->
<g id="edge3" class="edge"><title>Node4&#45;&gt;Node3</title>
<path fill="none" stroke="midnightblue" d="M71.4317,-213.22C85.0114,-201.649 103.177,-186.17 114.346,-176.652"/>
<polygon fill="midnightblue" stroke="midnightblue" points="69.014,-210.682 63.6726,-219.832 73.5541,-216.01 69.014,-210.682"/>
</g>
<!-- Node5 -->
<g id="node5" class="node"><title>Node5</title>
<g id="a_node5"><a xlink:title=" ">
<polygon fill="white" stroke="#bfbfbf" points="125.5,-214.5 125.5,-244.5 265.5,-244.5 265.5,-214.5 125.5,-214.5"/>
<text text-anchor="start" x="133.5" y="-232.5" font-family="Helvetica,sans-Serif" font-size="10.00">IEquatable&lt; AnyRectangular</text>
<text text-anchor="middle" x="195.5" y="-221.5" font-family="Helvetica,sans-Serif" font-size="10.00">Matrix &gt;</text>
</a>
</g>
</g>
<!-- Node5&#45;&gt;Node3 -->
<g id="edge4" class="edge"><title>Node5&#45;&gt;Node3</title>
<path fill="none" stroke="midnightblue" d="M171.164,-207.763C158.62,-197.074 144.007,-184.622 134.522,-176.54"/>
<polygon fill="midnightblue" stroke="midnightblue" points="169.151,-210.646 179.033,-214.468 173.691,-205.318 169.151,-210.646"/>
</g>
<!-- Node6 -->
<g id="node6" class="node"><title>Node6</title>
<g id="a_node6"><a xlink:title=" ">
<polygon fill="white" stroke="#bfbfbf" points="189,-89.5 189,-119.5 346,-119.5 346,-89.5 189,-89.5"/>
<text text-anchor="start" x="197" y="-107.5" font-family="Helvetica,sans-Serif" font-size="10.00">Meta.Numerics.Matrices.Sparse</text>
<text text-anchor="middle" x="267.5" y="-96.5" font-family="Helvetica,sans-Serif" font-size="10.00">MatrixElement</text>
</a>
</g>
</g>
<!-- Node6&#45;&gt;Node1 -->
<g id="edge5" class="edge"><title>Node6&#45;&gt;Node1</title>
<path fill="none" stroke="#9a32cd" stroke-dasharray="5,2" d="M249.142,-81.3174C235.934,-65.3582 218.518,-44.3137 207.168,-30.599"/>
<polygon fill="#9a32cd" stroke="#9a32cd" points="246.539,-83.6613 255.611,-89.1337 251.931,-79.1983 246.539,-83.6613"/>
<text text-anchor="middle" x="258" y="-63" font-family="Helvetica,sans-Serif" font-size="10.00"> rows</text>
<text text-anchor="middle" x="258" y="-52" font-family="Helvetica,sans-Serif" font-size="10.00">columns</text>
</g>
<!-- Node6&#45;&gt;Node6 -->
<g id="edge6" class="edge"><title>Node6&#45;&gt;Node6</title>
<path fill="none" stroke="#9a32cd" stroke-dasharray="5,2" d="M356.197,-108.77C361.089,-107.731 364,-106.308 364,-104.5 364,-101.678 356.908,-99.7925 346.255,-98.8444"/>
<polygon fill="#9a32cd" stroke="#9a32cd" points="355.676,-105.309 346.255,-110.156 356.642,-112.242 355.676,-105.309"/>
<text text-anchor="middle" x="396" y="-107.5" font-family="Helvetica,sans-Serif" font-size="10.00"> NextInColumn</text>
<text text-anchor="middle" x="396" y="-96.5" font-family="Helvetica,sans-Serif" font-size="10.00">NextInRow</text>
</g>
</g>
</svg>
