<?xml version="1.0" encoding="UTF-8" standalone="no"?>
<!DOCTYPE svg PUBLIC "-//W3C//DTD SVG 1.1//EN"
 "http://www.w3.org/Graphics/SVG/1.1/DTD/svg11.dtd">
<!-- Generated by graphviz version 2.38.0 (20140413.2041)
 -->
<!-- Title: NUnit.Framework.Internal.TestProgressReporter Pages: 1 -->
<svg width="146pt" height="106pt"
 viewBox="0.00 0.00 145.50 106.00" xmlns="http://www.w3.org/2000/svg" xmlns:xlink="http://www.w3.org/1999/xlink">
<g id="graph0" class="graph" transform="scale(1 1) rotate(0) translate(4 102)">
<title>NUnit.Framework.Internal.TestProgressReporter</title>
<polygon fill="white" stroke="none" points="-4,4 -4,-102 141.5,-102 141.5,4 -4,4"/>
<!-- Node1 -->
<g id="node1" class="node"><title>Node1</title>
<g id="a_node1"><a xlink:title="TestProgressReporter translates ITestListener events into the async callbacks that are used to inform...">
<polygon fill="#bfbfbf" stroke="black" points="8.5,-0.5 8.5,-30.5 137.5,-30.5 137.5,-0.5 8.5,-0.5"/>
<text text-anchor="start" x="16.5" y="-18.5" font-family="Helvetica,sans-Serif" font-size="10.00">NUnit.Framework.Internal.</text>
<text text-anchor="middle" x="73" y="-7.5" font-family="Helvetica,sans-Serif" font-size="10.00">TestProgressReporter</text>
</a>
</g>
</g>
<!-- Node2 -->
<g id="node2" class="node"><title>Node2</title>
<g id="a_node2"><a xlink:href="../../de/d53/interfaceNUnit_1_1Framework_1_1Interfaces_1_1ITestListener.html" target="_top" xlink:title="The ITestListener interface is used internally to receive notifications of significant events while a...">
<polygon fill="white" stroke="black" points="0,-78.5 0,-97.5 72,-97.5 72,-78.5 0,-78.5"/>
<text text-anchor="middle" x="36" y="-85.5" font-family="Helvetica,sans-Serif" font-size="10.00">ITestListener</text>
</a>
</g>
</g>
<!-- Node2&#45;&gt;Node1 -->
<g id="edge1" class="edge"><title>Node2&#45;&gt;Node1</title>
<path fill="none" stroke="midnightblue" d="M45.2766,-69.3243C51.5656,-57.3413 59.7655,-41.7171 65.6125,-30.5762"/>
<polygon fill="midnightblue" stroke="midnightblue" points="42.085,-67.8742 40.5369,-78.3553 48.2832,-71.1272 42.085,-67.8742"/>
</g>
<!-- Node3 -->
<g id="node3" class="node"><title>Node3</title>
<g id="a_node3"><a xlink:title=" ">
<polygon fill="white" stroke="#bfbfbf" points="90.5,-78.5 90.5,-97.5 131.5,-97.5 131.5,-78.5 90.5,-78.5"/>
<text text-anchor="middle" x="111" y="-85.5" font-family="Helvetica,sans-Serif" font-size="10.00">static</text>
</a>
</g>
</g>
<!-- Node3&#45;&gt;Node1 -->
<g id="edge2" class="edge"><title>Node3&#45;&gt;Node1</title>
<path fill="none" stroke="#9a32cd" stroke-dasharray="5,2" d="M101.473,-69.3243C95.0137,-57.3413 86.5922,-41.7171 80.5871,-30.5762"/>
<polygon fill="#9a32cd" stroke="#9a32cd" points="98.5147,-71.2133 106.34,-78.3553 104.677,-67.8919 98.5147,-71.2133"/>
<text text-anchor="middle" x="104" y="-52" font-family="Helvetica,sans-Serif" font-size="10.00"> log</text>
</g>
</g>
</svg>
