<?xml version="1.0" encoding="UTF-8" standalone="no"?>
<!DOCTYPE svg PUBLIC "-//W3C//DTD SVG 1.1//EN"
 "http://www.w3.org/Graphics/SVG/1.1/DTD/svg11.dtd">
<!-- Generated by graphviz version 2.38.0 (20140413.2041)
 -->
<!-- Title: NUnit.Framework.Internal.Filters.ValueMatchFilter Pages: 1 -->
<svg width="167pt" height="231pt"
 viewBox="0.00 0.00 167.00 231.00" xmlns="http://www.w3.org/2000/svg" xmlns:xlink="http://www.w3.org/1999/xlink">
<g id="graph0" class="graph" transform="scale(1 1) rotate(0) translate(4 227)">
<title>NUnit.Framework.Internal.Filters.ValueMatchFilter</title>
<polygon fill="white" stroke="none" points="-4,4 -4,-227 163,-227 163,4 -4,4"/>
<!-- Node1 -->
<g id="node1" class="node"><title>Node1</title>
<g id="a_node1"><a xlink:title="ValueMatchFilter selects tests based on some value, which is expected to be contained in the test.">
<polygon fill="#bfbfbf" stroke="black" points="30,-0.5 30,-30.5 159,-30.5 159,-0.5 30,-0.5"/>
<text text-anchor="start" x="38" y="-18.5" font-family="Helvetica,sans-Serif" font-size="10.00">NUnit.Framework.Internal.</text>
<text text-anchor="middle" x="94.5" y="-7.5" font-family="Helvetica,sans-Serif" font-size="10.00">Filters.ValueMatchFilter</text>
</a>
</g>
</g>
<!-- Node2 -->
<g id="node2" class="node"><title>Node2</title>
<g id="a_node2"><a xlink:href="../../da/dc4/classNUnit_1_1Framework_1_1Internal_1_1TestFilter.html" target="_top" xlink:title="Interface to be implemented by filters applied to tests. The filter applies when running the test,...">
<polygon fill="white" stroke="black" points="66,-68.5 66,-87.5 123,-87.5 123,-68.5 66,-68.5"/>
<text text-anchor="middle" x="94.5" y="-75.5" font-family="Helvetica,sans-Serif" font-size="10.00">TestFilter</text>
</a>
</g>
</g>
<!-- Node2&#45;&gt;Node1 -->
<g id="edge1" class="edge"><title>Node2&#45;&gt;Node1</title>
<path fill="none" stroke="midnightblue" d="M94.5,-58.2154C94.5,-49.3565 94.5,-38.9577 94.5,-30.7587"/>
<polygon fill="midnightblue" stroke="midnightblue" points="91.0001,-58.3318 94.5,-68.3318 98.0001,-58.3319 91.0001,-58.3318"/>
</g>
<!-- Node3 -->
<g id="node3" class="node"><title>Node3</title>
<g id="a_node3"><a xlink:href="../../d2/df0/interfaceNUnit_1_1Framework_1_1Interfaces_1_1ITestFilter.html" target="_top" xlink:title="Interface to be implemented by filters applied to tests. The filter applies when running the test,...">
<polygon fill="white" stroke="black" points="14,-146.5 14,-165.5 73,-165.5 73,-146.5 14,-146.5"/>
<text text-anchor="middle" x="43.5" y="-153.5" font-family="Helvetica,sans-Serif" font-size="10.00">ITestFilter</text>
</a>
</g>
</g>
<!-- Node3&#45;&gt;Node2 -->
<g id="edge2" class="edge"><title>Node3&#45;&gt;Node2</title>
<path fill="none" stroke="midnightblue" d="M55.1996,-137.565C65.6792,-121.949 80.6091,-99.7002 88.7179,-87.6165"/>
<polygon fill="midnightblue" stroke="midnightblue" points="52.0163,-136.028 49.3503,-146.282 57.8289,-139.928 52.0163,-136.028"/>
</g>
<!-- Node4 -->
<g id="node4" class="node"><title>Node4</title>
<g id="a_node4"><a xlink:href="../../d9/dc0/interfaceNUnit_1_1Framework_1_1Interfaces_1_1IXmlNodeBuilder.html" target="_top" xlink:title="An object implementing IXmlNodeBuilder is able to build an XML representation of itself and any child...">
<polygon fill="white" stroke="black" points="0,-203.5 0,-222.5 87,-222.5 87,-203.5 0,-203.5"/>
<text text-anchor="middle" x="43.5" y="-210.5" font-family="Helvetica,sans-Serif" font-size="10.00">IXmlNodeBuilder</text>
</a>
</g>
</g>
<!-- Node4&#45;&gt;Node3 -->
<g id="edge3" class="edge"><title>Node4&#45;&gt;Node3</title>
<path fill="none" stroke="midnightblue" d="M43.5,-193.117C43.5,-183.817 43.5,-173.056 43.5,-165.715"/>
<polygon fill="midnightblue" stroke="midnightblue" points="40.0001,-193.406 43.5,-203.406 47.0001,-193.406 40.0001,-193.406"/>
</g>
<!-- Node5 -->
<g id="node5" class="node"><title>Node5</title>
<g id="a_node5"><a xlink:title=" ">
<polygon fill="white" stroke="#bfbfbf" points="91,-146.5 91,-165.5 132,-165.5 132,-146.5 91,-146.5"/>
<text text-anchor="middle" x="111.5" y="-153.5" font-family="Helvetica,sans-Serif" font-size="10.00">static</text>
</a>
</g>
</g>
<!-- Node5&#45;&gt;Node2 -->
<g id="edge4" class="edge"><title>Node5&#45;&gt;Node2</title>
<path fill="none" stroke="#9a32cd" stroke-dasharray="5,2" d="M107.3,-136.224C103.827,-120.697 99.0538,-99.3582 96.4274,-87.6165"/>
<polygon fill="#9a32cd" stroke="#9a32cd" points="103.951,-137.287 109.55,-146.282 110.783,-135.759 103.951,-137.287"/>
<text text-anchor="middle" x="125" y="-120" font-family="Helvetica,sans-Serif" font-size="10.00"> COMMA</text>
<text text-anchor="middle" x="125" y="-109" font-family="Helvetica,sans-Serif" font-size="10.00">Empty</text>
</g>
</g>
</svg>
