<?xml version="1.0" encoding="UTF-8" standalone="no"?>
<!DOCTYPE svg PUBLIC "-//W3C//DTD SVG 1.1//EN"
 "http://www.w3.org/Graphics/SVG/1.1/DTD/svg11.dtd">
<!-- Generated by graphviz version 2.38.0 (20140413.2041)
 -->
<!-- Title: IG.Lib.DocFindings Pages: 1 -->
<svg width="617pt" height="570pt"
 viewBox="0.00 0.00 617.00 570.00" xmlns="http://www.w3.org/2000/svg" xmlns:xlink="http://www.w3.org/1999/xlink">
<g id="graph0" class="graph" transform="scale(1 1) rotate(0) translate(4 566)">
<title>IG.Lib.DocFindings</title>
<polygon fill="white" stroke="none" points="-4,4 -4,-566 613,-566 613,4 -4,4"/>
<!-- Node1 -->
<g id="node1" class="node"><title>Node1</title>
<g id="a_node1"><a xlink:title="Class for holding and manipulating the data about observation order. Includes parsing an XML file,...">
<polygon fill="#bfbfbf" stroke="black" points="302,-0.5 302,-19.5 401,-19.5 401,-0.5 302,-0.5"/>
<text text-anchor="middle" x="351.5" y="-7.5" font-family="Helvetica,sans-Serif" font-size="10.00">IG.Lib.DocFindings</text>
</a>
</g>
</g>
<!-- Node2 -->
<g id="node2" class="node"><title>Node2</title>
<g id="a_node2"><a xlink:href="../../d8/d6e/classIG_1_1Lib_1_1MsgBase.html" target="_top" xlink:title="Base class for all messages.">
<polygon fill="white" stroke="black" points="169.5,-101.5 169.5,-120.5 227.5,-120.5 227.5,-101.5 169.5,-101.5"/>
<text text-anchor="middle" x="198.5" y="-108.5" font-family="Helvetica,sans-Serif" font-size="10.00">MsgBase</text>
</a>
</g>
</g>
<!-- Node2&#45;&gt;Node1 -->
<g id="edge1" class="edge"><title>Node2&#45;&gt;Node1</title>
<path fill="none" stroke="midnightblue" d="M213.463,-93.8432C228.963,-77.8803 254.517,-53.645 280.5,-38 293.379,-30.2451 308.868,-24.0427 322.087,-19.548"/>
<polygon fill="midnightblue" stroke="midnightblue" points="210.681,-91.6895 206.325,-101.347 215.753,-96.514 210.681,-91.6895"/>
</g>
<!-- Node3 -->
<g id="node3" class="node"><title>Node3</title>
<g id="a_node3"><a xlink:href="../../da/dac/classIG_1_1Lib_1_1ParsableXmlObject.html" target="_top" xlink:title="Base class for data classes that support writing data to / reading from custom XML files,...">
<polygon fill="white" stroke="black" points="116,-180.5 116,-199.5 215,-199.5 215,-180.5 116,-180.5"/>
<text text-anchor="middle" x="165.5" y="-187.5" font-family="Helvetica,sans-Serif" font-size="10.00">ParsableXmlObject</text>
</a>
</g>
</g>
<!-- Node3&#45;&gt;Node2 -->
<g id="edge2" class="edge"><title>Node3&#45;&gt;Node2</title>
<path fill="none" stroke="midnightblue" d="M169.306,-170.525C171.605,-161.128 174.976,-149.678 179.5,-140 182.684,-133.188 187.434,-126.188 191.388,-120.891"/>
<polygon fill="midnightblue" stroke="midnightblue" points="165.868,-169.86 167.094,-180.384 172.698,-171.392 165.868,-169.86"/>
</g>
<!-- Node4 -->
<g id="node4" class="node"><title>Node4</title>
<g id="a_node4"><a xlink:href="../../d8/d6b/classIG_1_1Lib_1_1XmlBuilder.html" target="_top" xlink:title="Class that enables custom parsing and building of an Xml document.">
<polygon fill="white" stroke="black" points="178,-247.5 178,-266.5 269,-266.5 269,-247.5 178,-247.5"/>
<text text-anchor="middle" x="223.5" y="-254.5" font-family="Helvetica,sans-Serif" font-size="10.00">IG.Lib.XmlBuilder</text>
</a>
</g>
</g>
<!-- Node4&#45;&gt;Node3 -->
<g id="edge3" class="edge"><title>Node4&#45;&gt;Node3</title>
<path fill="none" stroke="#9a32cd" stroke-dasharray="5,2" d="M208.897,-239.635C197.554,-226.923 182.273,-209.798 173.198,-199.627"/>
<polygon fill="#9a32cd" stroke="#9a32cd" points="206.408,-242.103 215.678,-247.234 211.631,-237.442 206.408,-242.103"/>
<text text-anchor="middle" x="210.5" y="-221" font-family="Helvetica,sans-Serif" font-size="10.00"> Data</text>
</g>
<!-- Node5 -->
<g id="node5" class="node"><title>Node5</title>
<g id="a_node5"><a xlink:href="../../d3/d02/classIG_1_1Lib_1_1XmlParser.html" target="_top" xlink:title="Base class for classes taht contain an Xml document that can be parsed. Provides comfortable utilitie...">
<polygon fill="white" stroke="black" points="189,-304.5 189,-323.5 250,-323.5 250,-304.5 189,-304.5"/>
<text text-anchor="middle" x="219.5" y="-311.5" font-family="Helvetica,sans-Serif" font-size="10.00">XmlParser</text>
</a>
</g>
</g>
<!-- Node5&#45;&gt;Node4 -->
<g id="edge4" class="edge"><title>Node5&#45;&gt;Node4</title>
<path fill="none" stroke="midnightblue" d="M220.851,-294.423C221.532,-285.054 222.326,-274.136 222.866,-266.715"/>
<polygon fill="midnightblue" stroke="midnightblue" points="217.36,-294.179 220.125,-304.406 224.341,-294.686 217.36,-294.179"/>
</g>
<!-- Node6 -->
<g id="node6" class="node"><title>Node6</title>
<g id="a_node6"><a xlink:href="../../d9/da0/classIG_1_1Lib_1_1XmlUtilityBase.html" target="_top" xlink:title="Base class for various utilities operating on XmlDocumnt.">
<polygon fill="white" stroke="black" points="177.5,-361.5 177.5,-380.5 257.5,-380.5 257.5,-361.5 177.5,-361.5"/>
<text text-anchor="middle" x="217.5" y="-368.5" font-family="Helvetica,sans-Serif" font-size="10.00">XmlUtilityBase</text>
</a>
</g>
</g>
<!-- Node6&#45;&gt;Node5 -->
<g id="edge5" class="edge"><title>Node6&#45;&gt;Node5</title>
<path fill="none" stroke="midnightblue" d="M218.187,-351.117C218.525,-341.817 218.916,-331.056 219.183,-323.715"/>
<polygon fill="midnightblue" stroke="midnightblue" points="214.678,-351.286 217.813,-361.406 221.674,-351.54 214.678,-351.286"/>
</g>
<!-- Node7 -->
<g id="node7" class="node"><title>Node7</title>
<g id="a_node7"><a xlink:href="../../db/db1/interfaceIG_1_1Lib_1_1IReporter.html" target="_top" xlink:title="Interface from which majority of reporters inherit. Includes generic reporting functionality plus tra...">
<polygon fill="white" stroke="black" points="132.5,-428.5 132.5,-447.5 216.5,-447.5 216.5,-428.5 132.5,-428.5"/>
<text text-anchor="middle" x="174.5" y="-435.5" font-family="Helvetica,sans-Serif" font-size="10.00">IG.Lib.IReporter</text>
</a>
</g>
</g>
<!-- Node7&#45;&gt;Node3 -->
<g id="edge15" class="edge"><title>Node7&#45;&gt;Node3</title>
<path fill="none" stroke="#9a32cd" stroke-dasharray="5,2" d="M163.589,-419.176C156.857,-406.493 149.5,-388.791 149.5,-372 149.5,-372 149.5,-372 149.5,-256 149.5,-235.314 157.235,-211.969 161.949,-199.664"/>
<polygon fill="#9a32cd" stroke="#9a32cd" points="160.713,-421.199 168.702,-428.159 166.797,-417.736 160.713,-421.199"/>
<text text-anchor="middle" x="157.5" y="-311.5" font-family="Helvetica,sans-Serif" font-size="10.00"> _R</text>
</g>
<!-- Node7&#45;&gt;Node6 -->
<g id="edge6" class="edge"><title>Node7&#45;&gt;Node6</title>
<path fill="none" stroke="#9a32cd" stroke-dasharray="5,2" d="M186.054,-419.535C194.379,-406.95 205.257,-390.507 211.793,-380.627"/>
<polygon fill="#9a32cd" stroke="#9a32cd" points="182.897,-417.963 180.299,-428.234 188.736,-421.825 182.897,-417.963"/>
<text text-anchor="middle" x="207.5" y="-402" font-family="Helvetica,sans-Serif" font-size="10.00"> _R</text>
</g>
<!-- Node8 -->
<g id="node8" class="node"><title>Node8</title>
<g id="a_node8"><a xlink:title=" ">
<polygon fill="white" stroke="#bfbfbf" points="0,-485.5 0,-504.5 67,-504.5 67,-485.5 0,-485.5"/>
<text text-anchor="middle" x="33.5" y="-492.5" font-family="Helvetica,sans-Serif" font-size="10.00">IDisposable</text>
</a>
</g>
</g>
<!-- Node8&#45;&gt;Node7 -->
<g id="edge7" class="edge"><title>Node8&#45;&gt;Node7</title>
<path fill="none" stroke="midnightblue" d="M55.2229,-479.807C63.2547,-474.973 72.5787,-469.828 81.5,-466 99.2679,-458.376 119.84,-452.153 137.111,-447.611"/>
<polygon fill="midnightblue" stroke="midnightblue" points="53.1296,-476.988 46.4894,-485.243 56.8287,-482.931 53.1296,-476.988"/>
</g>
<!-- Node9 -->
<g id="node9" class="node"><title>Node9</title>
<g id="a_node9"><a xlink:href="../../de/d0d/interfaceIG_1_1Lib_1_1IReporterBase.html" target="_top" xlink:title="Interface from which all reporters inherit.">
<polygon fill="white" stroke="black" points="195.5,-542.5 195.5,-561.5 273.5,-561.5 273.5,-542.5 195.5,-542.5"/>
<text text-anchor="middle" x="234.5" y="-549.5" font-family="Helvetica,sans-Serif" font-size="10.00">IReporterBase</text>
</a>
</g>
</g>
<!-- Node9&#45;&gt;Node7 -->
<g id="edge8" class="edge"><title>Node9&#45;&gt;Node7</title>
<path fill="none" stroke="midnightblue" d="M185.295,-545.354C159.655,-539.634 130.403,-528.128 114.5,-505 98.97,-482.415 133.598,-459.51 156.448,-447.524"/>
<polygon fill="midnightblue" stroke="midnightblue" points="184.784,-548.821 195.275,-547.341 186.15,-541.956 184.784,-548.821"/>
</g>
<!-- Node10 -->
<g id="node10" class="node"><title>Node10</title>
<g id="a_node10"><a xlink:href="../../d2/d8e/interfaceIG_1_1Lib_1_1IReporterTextWriter.html" target="_top" xlink:title="Reporters that utilize writing messages to files. Messages are typically formatted as multi&#45;line mess...">
<polygon fill="white" stroke="black" points="124,-485.5 124,-504.5 225,-504.5 225,-485.5 124,-485.5"/>
<text text-anchor="middle" x="174.5" y="-492.5" font-family="Helvetica,sans-Serif" font-size="10.00">IReporterTextWriter</text>
</a>
</g>
</g>
<!-- Node9&#45;&gt;Node10 -->
<g id="edge10" class="edge"><title>Node9&#45;&gt;Node10</title>
<path fill="none" stroke="midnightblue" d="M217.499,-535.416C206.648,-525.469 192.983,-512.943 184.007,-504.715"/>
<polygon fill="midnightblue" stroke="midnightblue" points="215.388,-538.229 225.125,-542.406 220.118,-533.069 215.388,-538.229"/>
</g>
<!-- Node11 -->
<g id="node11" class="node"><title>Node11</title>
<g id="a_node11"><a xlink:href="../../d1/ddb/interfaceIG_1_1Lib_1_1IReporterTextLogger.html" target="_top" xlink:title="Reporters that utilize logging messages to files. IReporterTextLogger typically outputs (to a file) m...">
<polygon fill="white" stroke="black" points="243.5,-485.5 243.5,-504.5 347.5,-504.5 347.5,-485.5 243.5,-485.5"/>
<text text-anchor="middle" x="295.5" y="-492.5" font-family="Helvetica,sans-Serif" font-size="10.00">IReporterTextLogger</text>
</a>
</g>
</g>
<!-- Node9&#45;&gt;Node11 -->
<g id="edge12" class="edge"><title>Node9&#45;&gt;Node11</title>
<path fill="none" stroke="midnightblue" d="M251.46,-535.708C262.543,-525.715 276.619,-513.024 285.834,-504.715"/>
<polygon fill="midnightblue" stroke="midnightblue" points="249.114,-533.11 244.031,-542.406 253.802,-538.309 249.114,-533.11"/>
</g>
<!-- Node12 -->
<g id="node12" class="node"><title>Node12</title>
<g id="a_node12"><a xlink:href="../../d0/d0e/interfaceIG_1_1Lib_1_1IReporterTrace.html" target="_top" xlink:title="Reporters that utilize system&#39;s trace utility.">
<polygon fill="white" stroke="black" points="365.5,-485.5 365.5,-504.5 445.5,-504.5 445.5,-485.5 365.5,-485.5"/>
<text text-anchor="middle" x="405.5" y="-492.5" font-family="Helvetica,sans-Serif" font-size="10.00">IReporterTrace</text>
</a>
</g>
</g>
<!-- Node9&#45;&gt;Node12 -->
<g id="edge14" class="edge"><title>Node9&#45;&gt;Node12</title>
<path fill="none" stroke="midnightblue" d="M270.784,-539.33C303.201,-528.903 349.931,-513.873 378.969,-504.533"/>
<polygon fill="midnightblue" stroke="midnightblue" points="269.667,-536.012 261.219,-542.406 271.81,-542.676 269.667,-536.012"/>
</g>
<!-- Node10&#45;&gt;Node7 -->
<g id="edge9" class="edge"><title>Node10&#45;&gt;Node7</title>
<path fill="none" stroke="midnightblue" d="M174.5,-475.117C174.5,-465.817 174.5,-455.056 174.5,-447.715"/>
<polygon fill="midnightblue" stroke="midnightblue" points="171,-475.406 174.5,-485.406 178,-475.406 171,-475.406"/>
</g>
<!-- Node11&#45;&gt;Node7 -->
<g id="edge11" class="edge"><title>Node11&#45;&gt;Node7</title>
<path fill="none" stroke="midnightblue" d="M267.417,-481.235C244.621,-470.873 213.112,-456.551 193.273,-447.533"/>
<polygon fill="midnightblue" stroke="midnightblue" points="266.042,-484.454 276.594,-485.406 268.938,-478.082 266.042,-484.454"/>
</g>
<!-- Node12&#45;&gt;Node7 -->
<g id="edge13" class="edge"><title>Node12&#45;&gt;Node7</title>
<path fill="none" stroke="midnightblue" d="M359.829,-483.126C315.991,-472.688 250.668,-457.135 210.424,-447.553"/>
<polygon fill="midnightblue" stroke="midnightblue" points="359.121,-486.555 369.66,-485.467 360.742,-479.745 359.121,-486.555"/>
</g>
<!-- Node13 -->
<g id="node13" class="node"><title>Node13</title>
<g id="a_node13"><a xlink:title=" ">
<polygon fill="white" stroke="#bfbfbf" points="253,-180.5 253,-199.5 294,-199.5 294,-180.5 253,-180.5"/>
<text text-anchor="middle" x="273.5" y="-187.5" font-family="Helvetica,sans-Serif" font-size="10.00">static</text>
</a>
</g>
</g>
<!-- Node13&#45;&gt;Node1 -->
<g id="edge19" class="edge"><title>Node13&#45;&gt;Node1</title>
<path fill="none" stroke="#9a32cd" stroke-dasharray="5,2" d="M278.632,-170.849C284.013,-152.622 293.12,-123.891 303.5,-100 316.792,-69.4075 336.794,-35.2008 346.224,-19.5963"/>
<polygon fill="#9a32cd" stroke="#9a32cd" points="275.263,-169.899 275.848,-180.478 281.988,-171.843 275.263,-169.899"/>
<text text-anchor="middle" x="323.5" y="-114" font-family="Helvetica,sans-Serif" font-size="10.00"> LockRtb</text>
<text text-anchor="middle" x="323.5" y="-103" font-family="Helvetica,sans-Serif" font-size="10.00">Rtb</text>
</g>
<!-- Node13&#45;&gt;Node2 -->
<g id="edge16" class="edge"><title>Node13&#45;&gt;Node2</title>
<path fill="none" stroke="#9a32cd" stroke-dasharray="5,2" d="M242.89,-185.927C227.226,-182.638 209.414,-175.873 199.5,-162 190.817,-149.85 193.351,-131.456 195.948,-120.693"/>
<polygon fill="#9a32cd" stroke="#9a32cd" points="242.32,-189.38 252.768,-187.626 243.506,-182.481 242.32,-189.38"/>
<text text-anchor="middle" x="240" y="-154" font-family="Helvetica,sans-Serif" font-size="10.00"> BisIdLowercase</text>
<text text-anchor="middle" x="240" y="-143" font-family="Helvetica,sans-Serif" font-size="10.00">LabexIdLowercase</text>
</g>
<!-- Node14 -->
<g id="node14" class="node"><title>Node14</title>
<g id="a_node14"><a xlink:href="../../d0/d22/classIG_1_1Lib_1_1FindingsPatient.html" target="_top" xlink:title="Patient data for inclusion in findings.">
<polygon fill="white" stroke="black" points="353,-101.5 353,-120.5 466,-120.5 466,-101.5 353,-101.5"/>
<text text-anchor="middle" x="409.5" y="-108.5" font-family="Helvetica,sans-Serif" font-size="10.00">IG.Lib.FindingsPatient</text>
</a>
</g>
</g>
<!-- Node14&#45;&gt;Node1 -->
<g id="edge17" class="edge"><title>Node14&#45;&gt;Node1</title>
<path fill="none" stroke="#9a32cd" stroke-dasharray="5,2" d="M399.244,-92.4935C386.723,-71.1227 366.048,-35.8318 356.553,-19.6245"/>
<polygon fill="#9a32cd" stroke="#9a32cd" points="396.278,-94.3554 404.353,-101.214 402.318,-90.8169 396.278,-94.3554"/>
<text text-anchor="middle" x="409.5" y="-57.5" font-family="Helvetica,sans-Serif" font-size="10.00"> Patient</text>
</g>
<!-- Node15 -->
<g id="node15" class="node"><title>Node15</title>
<g id="a_node15"><a xlink:href="../../da/d48/classIG_1_1Lib_1_1FindingsPhysician.html" target="_top" xlink:title="Patient data for inclusion in findings.">
<polygon fill="white" stroke="black" points="484,-101.5 484,-120.5 609,-120.5 609,-101.5 484,-101.5"/>
<text text-anchor="middle" x="546.5" y="-108.5" font-family="Helvetica,sans-Serif" font-size="10.00">IG.Lib.FindingsPhysician</text>
</a>
</g>
</g>
<!-- Node15&#45;&gt;Node1 -->
<g id="edge18" class="edge"><title>Node15&#45;&gt;Node1</title>
<path fill="none" stroke="#9a32cd" stroke-dasharray="5,2" d="M526.442,-95.5886C503.924,-79.8852 465.895,-54.7674 430.5,-38 414.913,-30.6158 396.746,-24.2624 381.767,-19.5771"/>
<polygon fill="#9a32cd" stroke="#9a32cd" points="524.629,-98.593 534.819,-101.497 528.664,-92.8727 524.629,-98.593"/>
<text text-anchor="middle" x="538.5" y="-74" font-family="Helvetica,sans-Serif" font-size="10.00"> SignerPart</text>
<text text-anchor="middle" x="538.5" y="-63" font-family="Helvetica,sans-Serif" font-size="10.00">Physician</text>
<text text-anchor="middle" x="538.5" y="-52" font-family="Helvetica,sans-Serif" font-size="10.00">SignerFinish</text>
<text text-anchor="middle" x="538.5" y="-41" font-family="Helvetica,sans-Serif" font-size="10.00">SignerAddition</text>
</g>
</g>
</svg>
