<?xml version="1.0" encoding="UTF-8" standalone="no"?>
<!DOCTYPE svg PUBLIC "-//W3C//DTD SVG 1.1//EN"
 "http://www.w3.org/Graphics/SVG/1.1/DTD/svg11.dtd">
<!-- Generated by graphviz version 2.38.0 (20140413.2041)
 -->
<!-- Title: IG.Neural.Forms.NeuralAboutControlToDelete Pages: 1 -->
<svg width="480pt" height="128pt"
 viewBox="0.00 0.00 480.00 128.00" xmlns="http://www.w3.org/2000/svg" xmlns:xlink="http://www.w3.org/1999/xlink">
<g id="graph0" class="graph" transform="scale(1 1) rotate(0) translate(4 124)">
<title>IG.Neural.Forms.NeuralAboutControlToDelete</title>
<polygon fill="white" stroke="none" points="-4,4 -4,-124 476,-124 476,4 -4,4"/>
<!-- Node1 -->
<g id="node1" class="node"><title>Node1</title>
<g id="a_node1"><a xlink:title="Control for making predictions of output values based on ANN model.">
<polygon fill="#bfbfbf" stroke="black" points="121,-0.5 121,-30.5 265,-30.5 265,-0.5 121,-0.5"/>
<text text-anchor="start" x="129" y="-18.5" font-family="Helvetica,sans-Serif" font-size="10.00">IG.Neural.Forms.NeuralAbout</text>
<text text-anchor="middle" x="193" y="-7.5" font-family="Helvetica,sans-Serif" font-size="10.00">ControlToDelete</text>
</a>
</g>
</g>
<!-- Node2 -->
<g id="node2" class="node"><title>Node2</title>
<g id="a_node2"><a xlink:title=" ">
<polygon fill="white" stroke="#bfbfbf" points="0,-100.5 0,-119.5 68,-119.5 68,-100.5 0,-100.5"/>
<text text-anchor="middle" x="34" y="-107.5" font-family="Helvetica,sans-Serif" font-size="10.00">UserControl</text>
</a>
</g>
</g>
<!-- Node2&#45;&gt;Node1 -->
<g id="edge1" class="edge"><title>Node2&#45;&gt;Node1</title>
<path fill="none" stroke="midnightblue" d="M57.5727,-95.2863C87.4617,-77.8981 138.722,-48.0765 168.873,-30.5362"/>
<polygon fill="midnightblue" stroke="midnightblue" points="55.557,-92.4097 48.6733,-100.464 59.0771,-98.4603 55.557,-92.4097"/>
</g>
<!-- Node3 -->
<g id="node3" class="node"><title>Node3</title>
<g id="a_node3"><a xlink:href="../../d1/d98/interfaceIG_1_1Neural_1_1INeuralModelContainer.html" target="_top" xlink:title="Interface for classes that contain the NeuralModel property that implements the INeuralModel interfac...">
<polygon fill="white" stroke="black" points="86,-100.5 86,-119.5 200,-119.5 200,-100.5 86,-100.5"/>
<text text-anchor="middle" x="143" y="-107.5" font-family="Helvetica,sans-Serif" font-size="10.00">INeuralModelContainer</text>
</a>
</g>
</g>
<!-- Node3&#45;&gt;Node1 -->
<g id="edge2" class="edge"><title>Node3&#45;&gt;Node1</title>
<path fill="none" stroke="midnightblue" d="M152.576,-91.2843C162.101,-73.664 176.528,-46.9741 185.324,-30.6999"/>
<polygon fill="midnightblue" stroke="midnightblue" points="149.291,-90.0022 147.614,-100.464 155.448,-93.3309 149.291,-90.0022"/>
</g>
<!-- Node4 -->
<g id="node4" class="node"><title>Node4</title>
<g id="a_node4"><a xlink:title=" ">
<polygon fill="white" stroke="#bfbfbf" points="218,-100.5 218,-119.5 268,-119.5 268,-100.5 218,-100.5"/>
<text text-anchor="middle" x="243" y="-107.5" font-family="Helvetica,sans-Serif" font-size="10.00">System</text>
</a>
</g>
</g>
<!-- Node4&#45;&gt;Node1 -->
<g id="edge3" class="edge"><title>Node4&#45;&gt;Node1</title>
<path fill="none" stroke="#9a32cd" stroke-dasharray="5,2" d="M233.424,-91.2843C223.899,-73.664 209.472,-46.9741 200.676,-30.6999"/>
<polygon fill="#9a32cd" stroke="#9a32cd" points="230.552,-93.3309 238.386,-100.464 236.709,-90.0022 230.552,-93.3309"/>
<text text-anchor="middle" x="260.5" y="-74" font-family="Helvetica,sans-Serif" font-size="10.00"> lblTitleTraining</text>
<text text-anchor="middle" x="260.5" y="-63" font-family="Helvetica,sans-Serif" font-size="10.00">label1</text>
<text text-anchor="middle" x="260.5" y="-52" font-family="Helvetica,sans-Serif" font-size="10.00">components</text>
</g>
<!-- Node5 -->
<g id="node5" class="node"><title>Node5</title>
<g id="a_node5"><a xlink:href="../../d1/d98/interfaceIG_1_1Neural_1_1INeuralModelContainer.html" target="_top" xlink:title="Interface for classes that contain the NeuralModel property that implements the INeuralModel interfac...">
<polygon fill="white" stroke="black" points="286,-100.5 286,-119.5 444,-119.5 444,-100.5 286,-100.5"/>
<text text-anchor="middle" x="365" y="-107.5" font-family="Helvetica,sans-Serif" font-size="10.00">IG.Neural.INeuralModelContainer</text>
</a>
</g>
</g>
<!-- Node5&#45;&gt;Node1 -->
<g id="edge4" class="edge"><title>Node5&#45;&gt;Node1</title>
<path fill="none" stroke="#9a32cd" stroke-dasharray="5,2" d="M350.448,-92.8117C337.576,-79.3752 317.676,-60.6448 297,-49 283.485,-41.3879 267.957,-35.3178 253.093,-30.5829"/>
<polygon fill="#9a32cd" stroke="#9a32cd" points="348.121,-95.4496 357.498,-100.383 353.244,-90.6793 348.121,-95.4496"/>
<text text-anchor="middle" x="405.5" y="-63" font-family="Helvetica,sans-Serif" font-size="10.00"> _neuralModelContainerControl</text>
</g>
</g>
</svg>
