<?xml version="1.0" encoding="UTF-8" standalone="no"?>
<!DOCTYPE svg PUBLIC "-//W3C//DTD SVG 1.1//EN"
 "http://www.w3.org/Graphics/SVG/1.1/DTD/svg11.dtd">
<!-- Generated by graphviz version 2.38.0 (20140413.2041)
 -->
<!-- Title: NUnit.Framework.Constraints.ComparisonConstraintTestBase Pages: 1 -->
<svg width="399pt" height="356pt"
 viewBox="0.00 0.00 399.00 356.00" xmlns="http://www.w3.org/2000/svg" xmlns:xlink="http://www.w3.org/1999/xlink">
<g id="graph0" class="graph" transform="scale(1 1) rotate(0) translate(4 352)">
<title>NUnit.Framework.Constraints.ComparisonConstraintTestBase</title>
<polygon fill="white" stroke="none" points="-4,4 -4,-352 395,-352 395,4 -4,4"/>
<!-- Node1 -->
<g id="node1" class="node"><title>Node1</title>
<g id="a_node1"><a xlink:title=" ">
<polygon fill="#bfbfbf" stroke="black" points="121.5,-0.5 121.5,-30.5 275.5,-30.5 275.5,-0.5 121.5,-0.5"/>
<text text-anchor="start" x="129.5" y="-18.5" font-family="Helvetica,sans-Serif" font-size="10.00">NUnit.Framework.Constraints.</text>
<text text-anchor="middle" x="198.5" y="-7.5" font-family="Helvetica,sans-Serif" font-size="10.00">ComparisonConstraintTestBase</text>
</a>
</g>
</g>
<!-- Node2 -->
<g id="node2" class="node"><title>Node2</title>
<g id="a_node2"><a xlink:href="../../d5/d7a/classNUnit_1_1Framework_1_1Constraints_1_1ConstraintTestBase.html" target="_top" xlink:title=" ">
<polygon fill="white" stroke="black" points="266.5,-68.5 266.5,-87.5 368.5,-87.5 368.5,-68.5 266.5,-68.5"/>
<text text-anchor="middle" x="317.5" y="-75.5" font-family="Helvetica,sans-Serif" font-size="10.00">ConstraintTestBase</text>
</a>
</g>
</g>
<!-- Node2&#45;&gt;Node1 -->
<g id="edge1" class="edge"><title>Node2&#45;&gt;Node1</title>
<path fill="none" stroke="midnightblue" d="M291.581,-63.8227C272.269,-54.0045 245.94,-40.6186 226.211,-30.5885"/>
<polygon fill="midnightblue" stroke="midnightblue" points="290.202,-67.0481 300.703,-68.4601 293.375,-60.8082 290.202,-67.0481"/>
</g>
<!-- Node3 -->
<g id="node3" class="node"><title>Node3</title>
<g id="a_node3"><a xlink:href="../../dc/d5c/classNUnit_1_1Framework_1_1Constraints_1_1ConstraintTestBaseNoData.html" target="_top" xlink:title=" ">
<polygon fill="white" stroke="black" points="250.5,-131 250.5,-150 384.5,-150 384.5,-131 250.5,-131"/>
<text text-anchor="middle" x="317.5" y="-138" font-family="Helvetica,sans-Serif" font-size="10.00">ConstraintTestBaseNoData</text>
</a>
</g>
</g>
<!-- Node3&#45;&gt;Node2 -->
<g id="edge2" class="edge"><title>Node3&#45;&gt;Node2</title>
<path fill="none" stroke="midnightblue" d="M317.5,-120.503C317.5,-109.5 317.5,-96.182 317.5,-87.6521"/>
<polygon fill="midnightblue" stroke="midnightblue" points="314,-120.832 317.5,-130.832 321,-120.832 314,-120.832"/>
</g>
<!-- Node4 -->
<g id="node4" class="node"><title>Node4</title>
<g id="a_node4"><a xlink:href="../../d9/da9/classNUnit_1_1Framework_1_1Constraints_1_1Constraint.html" target="_top" xlink:title="The Constraint class is the base of all built&#45;in constraints within NUnit. It provides the operator o...">
<polygon fill="white" stroke="black" points="244,-203.5 244,-233.5 391,-233.5 391,-203.5 244,-203.5"/>
<text text-anchor="start" x="252" y="-221.5" font-family="Helvetica,sans-Serif" font-size="10.00">NUnit.Framework.Constraints.</text>
<text text-anchor="middle" x="317.5" y="-210.5" font-family="Helvetica,sans-Serif" font-size="10.00">Constraint</text>
</a>
</g>
</g>
<!-- Node4&#45;&gt;Node3 -->
<g id="edge3" class="edge"><title>Node4&#45;&gt;Node3</title>
<path fill="none" stroke="#9a32cd" stroke-dasharray="5,2" d="M317.5,-193.165C317.5,-178.396 317.5,-160.448 317.5,-150.064"/>
<polygon fill="#9a32cd" stroke="#9a32cd" points="314,-193.205 317.5,-203.205 321,-193.205 314,-193.205"/>
<text text-anchor="middle" x="348" y="-177" font-family="Helvetica,sans-Serif" font-size="10.00"> theConstraint</text>
</g>
<!-- Node5 -->
<g id="node5" class="node"><title>Node5</title>
<g id="a_node5"><a xlink:href="../../d1/d94/interfaceNUnit_1_1Framework_1_1Constraints_1_1IConstraint.html" target="_top" xlink:title="Interface for all constraints">
<polygon fill="white" stroke="black" points="200,-271.5 200,-290.5 263,-290.5 263,-271.5 200,-271.5"/>
<text text-anchor="middle" x="231.5" y="-278.5" font-family="Helvetica,sans-Serif" font-size="10.00">IConstraint</text>
</a>
</g>
</g>
<!-- Node5&#45;&gt;Node4 -->
<g id="edge4" class="edge"><title>Node5&#45;&gt;Node4</title>
<path fill="none" stroke="midnightblue" d="M252.172,-265.457C265.944,-255.769 283.944,-243.106 297.562,-233.526"/>
<polygon fill="midnightblue" stroke="midnightblue" points="249.987,-262.715 243.822,-271.332 254.014,-268.441 249.987,-262.715"/>
</g>
<!-- Node8 -->
<g id="node8" class="node"><title>Node8</title>
<g id="a_node8"><a xlink:href="../../d9/da9/classNUnit_1_1Framework_1_1Constraints_1_1Constraint.html" target="_top" xlink:title="The Constraint class is the base of all built&#45;in constraints within NUnit. It provides the operator o...">
<polygon fill="white" stroke="black" points="165,-209 165,-228 226,-228 226,-209 165,-209"/>
<text text-anchor="middle" x="195.5" y="-216" font-family="Helvetica,sans-Serif" font-size="10.00">Constraint</text>
</a>
</g>
</g>
<!-- Node5&#45;&gt;Node8 -->
<g id="edge8" class="edge"><title>Node5&#45;&gt;Node8</title>
<path fill="none" stroke="midnightblue" d="M221.217,-262.719C214.491,-251.415 205.991,-237.131 200.648,-228.152"/>
<polygon fill="midnightblue" stroke="midnightblue" points="218.221,-264.528 226.342,-271.332 224.236,-260.948 218.221,-264.528"/>
</g>
<!-- Node6 -->
<g id="node6" class="node"><title>Node6</title>
<g id="a_node6"><a xlink:href="../../d7/d29/interfaceNUnit_1_1Framework_1_1Constraints_1_1IResolveConstraint.html" target="_top" xlink:title="The IResolveConstraint interface is implemented by all complete and resolvable constraints and expres...">
<polygon fill="white" stroke="black" points="183,-328.5 183,-347.5 280,-347.5 280,-328.5 183,-328.5"/>
<text text-anchor="middle" x="231.5" y="-335.5" font-family="Helvetica,sans-Serif" font-size="10.00">IResolveConstraint</text>
</a>
</g>
</g>
<!-- Node6&#45;&gt;Node5 -->
<g id="edge5" class="edge"><title>Node6&#45;&gt;Node5</title>
<path fill="none" stroke="midnightblue" d="M231.5,-318.117C231.5,-308.817 231.5,-298.056 231.5,-290.715"/>
<polygon fill="midnightblue" stroke="midnightblue" points="228,-318.406 231.5,-328.406 235,-318.406 228,-318.406"/>
</g>
<!-- Node7 -->
<g id="node7" class="node"><title>Node7</title>
<g id="a_node7"><a xlink:href="../../d6/dcd/classNUnit_1_1Framework_1_1Constraints_1_1ComparisonConstraint.html" target="_top" xlink:title="Abstract base class for constraints that compare _values to determine if one is greater than,...">
<polygon fill="white" stroke="black" points="77,-125.5 77,-155.5 224,-155.5 224,-125.5 77,-125.5"/>
<text text-anchor="start" x="85" y="-143.5" font-family="Helvetica,sans-Serif" font-size="10.00">NUnit.Framework.Constraints.</text>
<text text-anchor="middle" x="150.5" y="-132.5" font-family="Helvetica,sans-Serif" font-size="10.00">ComparisonConstraint</text>
</a>
</g>
</g>
<!-- Node7&#45;&gt;Node1 -->
<g id="edge6" class="edge"><title>Node7&#45;&gt;Node1</title>
<path fill="none" stroke="#9a32cd" stroke-dasharray="5,2" d="M150.452,-115.236C151.173,-101.013 153.409,-82.9586 159.5,-68 165.252,-53.8732 175.899,-40.2215 184.617,-30.527"/>
<polygon fill="#9a32cd" stroke="#9a32cd" points="146.953,-115.153 150.158,-125.252 153.95,-115.359 146.953,-115.153"/>
<text text-anchor="middle" x="208.5" y="-75.5" font-family="Helvetica,sans-Serif" font-size="10.00"> comparisonConstraint</text>
</g>
<!-- Node8&#45;&gt;Node7 -->
<g id="edge7" class="edge"><title>Node8&#45;&gt;Node7</title>
<path fill="none" stroke="midnightblue" d="M185.123,-199.974C177.128,-186.472 166.222,-168.053 158.801,-155.52"/>
<polygon fill="midnightblue" stroke="midnightblue" points="182.231,-201.96 190.338,-208.782 188.255,-198.394 182.231,-201.96"/>
</g>
<!-- Node9 -->
<g id="node9" class="node"><title>Node9</title>
<g id="a_node9"><a xlink:href="../../d1/d18/classNUnit_1_1Framework_1_1Constraints_1_1ComparisonAdapter.html" target="_top" xlink:title="ComparisonAdapter class centralizes all comparisons of _values in NUnit, adapting to the use of any p...">
<polygon fill="white" stroke="black" points="0,-203.5 0,-233.5 147,-233.5 147,-203.5 0,-203.5"/>
<text text-anchor="start" x="8" y="-221.5" font-family="Helvetica,sans-Serif" font-size="10.00">NUnit.Framework.Constraints.</text>
<text text-anchor="middle" x="73.5" y="-210.5" font-family="Helvetica,sans-Serif" font-size="10.00">ComparisonAdapter</text>
</a>
</g>
</g>
<!-- Node9&#45;&gt;Node7 -->
<g id="edge9" class="edge"><title>Node9&#45;&gt;Node7</title>
<path fill="none" stroke="#9a32cd" stroke-dasharray="5,2" d="M95.2492,-196.033C108.321,-183.132 124.592,-167.072 136.082,-155.731"/>
<polygon fill="#9a32cd" stroke="#9a32cd" points="92.6416,-193.689 87.9831,-203.205 97.5589,-198.671 92.6416,-193.689"/>
<text text-anchor="middle" x="139.5" y="-177" font-family="Helvetica,sans-Serif" font-size="10.00"> comparer</text>
</g>
</g>
</svg>
