<?xml version="1.0" encoding="UTF-8" standalone="no"?>
<!DOCTYPE svg PUBLIC "-//W3C//DTD SVG 1.1//EN"
 "http://www.w3.org/Graphics/SVG/1.1/DTD/svg11.dtd">
<!-- Generated by graphviz version 2.38.0 (20140413.2041)
 -->
<!-- Title: NUnit.Engine.Runners.MasterTestRunner Pages: 1 -->
<svg width="290pt" height="240pt"
 viewBox="0.00 0.00 289.50 240.00" xmlns="http://www.w3.org/2000/svg" xmlns:xlink="http://www.w3.org/1999/xlink">
<g id="graph0" class="graph" transform="scale(1 1) rotate(0) translate(4 236)">
<title>NUnit.Engine.Runners.MasterTestRunner</title>
<polygon fill="white" stroke="none" points="-4,4 -4,-236 285.5,-236 285.5,4 -4,4"/>
<!-- Node1 -->
<g id="node1" class="node"><title>Node1</title>
<g id="a_node1"><a xlink:title=" ">
<polygon fill="#bfbfbf" stroke="black" points="58.5,-0.5 58.5,-30.5 204.5,-30.5 204.5,-0.5 58.5,-0.5"/>
<text text-anchor="start" x="66.5" y="-18.5" font-family="Helvetica,sans-Serif" font-size="10.00">NUnit.Engine.Runners.Master</text>
<text text-anchor="middle" x="131.5" y="-7.5" font-family="Helvetica,sans-Serif" font-size="10.00">TestRunner</text>
</a>
</g>
</g>
<!-- Node2 -->
<g id="node2" class="node"><title>Node2</title>
<g id="a_node2"><a xlink:href="../../d6/dfe/classNUnit_1_1Engine_1_1Runners_1_1AbstractTestRunner.html" target="_top" xlink:title="AbstractTestRunner is the base class for all runners within the NUnit Engine. It implements the ITest...">
<polygon fill="white" stroke="black" points="0,-68.5 0,-87.5 103,-87.5 103,-68.5 0,-68.5"/>
<text text-anchor="middle" x="51.5" y="-75.5" font-family="Helvetica,sans-Serif" font-size="10.00">AbstractTestRunner</text>
</a>
</g>
</g>
<!-- Node2&#45;&gt;Node1 -->
<g id="edge1" class="edge"><title>Node2&#45;&gt;Node1</title>
<path fill="none" stroke="midnightblue" d="M71.0973,-62.1795C83.8597,-52.528 100.406,-40.0147 112.953,-30.526"/>
<polygon fill="midnightblue" stroke="midnightblue" points="68.8269,-59.5083 62.962,-68.3318 73.0492,-65.0915 68.8269,-59.5083"/>
</g>
<!-- Node3 -->
<g id="node3" class="node"><title>Node3</title>
<g id="a_node3"><a xlink:href="../../d3/df0/interfaceNUnit_1_1Engine_1_1ITestEngineRunner.html" target="_top" xlink:title="Interface implemented by all internal test runners in the engine, allowing them to pass back TestEngi...">
<polygon fill="white" stroke="black" points="2.5,-155.5 2.5,-174.5 100.5,-174.5 100.5,-155.5 2.5,-155.5"/>
<text text-anchor="middle" x="51.5" y="-162.5" font-family="Helvetica,sans-Serif" font-size="10.00">ITestEngineRunner</text>
</a>
</g>
</g>
<!-- Node3&#45;&gt;Node2 -->
<g id="edge2" class="edge"><title>Node3&#45;&gt;Node2</title>
<path fill="none" stroke="midnightblue" d="M51.5,-145.125C51.5,-127.293 51.5,-101.33 51.5,-87.8559"/>
<polygon fill="midnightblue" stroke="midnightblue" points="48.0001,-145.224 51.5,-155.224 55.0001,-145.224 48.0001,-145.224"/>
</g>
<!-- Node4 -->
<g id="node4" class="node"><title>Node4</title>
<g id="a_node4"><a xlink:title=" ">
<polygon fill="white" stroke="#bfbfbf" points="95,-212.5 95,-231.5 162,-231.5 162,-212.5 95,-212.5"/>
<text text-anchor="middle" x="128.5" y="-219.5" font-family="Helvetica,sans-Serif" font-size="10.00">IDisposable</text>
</a>
</g>
</g>
<!-- Node4&#45;&gt;Node3 -->
<g id="edge3" class="edge"><title>Node4&#45;&gt;Node3</title>
<path fill="none" stroke="midnightblue" d="M108.252,-206.537C93.9955,-196.354 75.3949,-183.068 63.4468,-174.533"/>
<polygon fill="midnightblue" stroke="midnightblue" points="106.297,-209.442 116.469,-212.406 110.366,-203.746 106.297,-209.442"/>
</g>
<!-- Node5 -->
<g id="node5" class="node"><title>Node5</title>
<g id="a_node5"><a xlink:href="../../d3/d05/interfaceNUnit_1_1Engine_1_1ITestRunner.html" target="_top" xlink:title="Interface implemented by all test runners.">
<polygon fill="white" stroke="black" points="80.5,-112 80.5,-131 148.5,-131 148.5,-112 80.5,-112"/>
<text text-anchor="middle" x="114.5" y="-119" font-family="Helvetica,sans-Serif" font-size="10.00">ITestRunner</text>
</a>
</g>
</g>
<!-- Node4&#45;&gt;Node5 -->
<g id="edge5" class="edge"><title>Node4&#45;&gt;Node5</title>
<path fill="none" stroke="midnightblue" d="M125.817,-202.125C122.779,-180.747 117.96,-146.843 115.72,-131.081"/>
<polygon fill="midnightblue" stroke="midnightblue" points="122.385,-202.851 127.258,-212.259 129.316,-201.866 122.385,-202.851"/>
</g>
<!-- Node6 -->
<g id="node6" class="node"><title>Node6</title>
<g id="a_node6"><a xlink:href="../../d3/df0/interfaceNUnit_1_1Engine_1_1ITestEngineRunner.html" target="_top" xlink:title="Interface implemented by all internal test runners in the engine, allowing them to pass back TestEngi...">
<polygon fill="white" stroke="black" points="153.5,-106.5 153.5,-136.5 281.5,-136.5 281.5,-106.5 153.5,-106.5"/>
<text text-anchor="start" x="161.5" y="-124.5" font-family="Helvetica,sans-Serif" font-size="10.00">NUnit.Engine.ITestEngine</text>
<text text-anchor="middle" x="217.5" y="-113.5" font-family="Helvetica,sans-Serif" font-size="10.00">Runner</text>
</a>
</g>
</g>
<!-- Node4&#45;&gt;Node6 -->
<g id="edge7" class="edge"><title>Node4&#45;&gt;Node6</title>
<path fill="none" stroke="midnightblue" d="M143.216,-204.713C160.35,-185.751 188.374,-154.735 204.661,-136.709"/>
<polygon fill="midnightblue" stroke="midnightblue" points="140.505,-202.492 136.398,-212.259 145.699,-207.185 140.505,-202.492"/>
</g>
<!-- Node5&#45;&gt;Node1 -->
<g id="edge4" class="edge"><title>Node5&#45;&gt;Node1</title>
<path fill="none" stroke="midnightblue" d="M117.515,-102.052C120.852,-81.6399 126.157,-49.1888 129.183,-30.6748"/>
<polygon fill="midnightblue" stroke="midnightblue" points="114.05,-101.556 115.891,-111.989 120.959,-102.685 114.05,-101.556"/>
</g>
<!-- Node6&#45;&gt;Node1 -->
<g id="edge6" class="edge"><title>Node6&#45;&gt;Node1</title>
<path fill="none" stroke="#9a32cd" stroke-dasharray="5,2" d="M199.396,-98.6068C182.458,-78.1239 157.659,-48.1338 143.189,-30.6358"/>
<polygon fill="#9a32cd" stroke="#9a32cd" points="196.832,-100.998 205.902,-106.474 202.226,-96.5372 196.832,-100.998"/>
<text text-anchor="middle" x="218" y="-75.5" font-family="Helvetica,sans-Serif" font-size="10.00"> _realRunner</text>
</g>
</g>
</svg>
