<?xml version="1.0" encoding="UTF-8" standalone="no"?>
<!DOCTYPE svg PUBLIC "-//W3C//DTD SVG 1.1//EN"
 "http://www.w3.org/Graphics/SVG/1.1/DTD/svg11.dtd">
<!-- Generated by graphviz version 2.38.0 (20140413.2041)
 -->
<!-- Title: AForge.Imaging.Filters.BaseTransformationFilter Pages: 1 -->
<!--zoomable 583 -->
<svg id="main" version="1.1" xmlns="http://www.w3.org/2000/svg" xmlns:xlink="http://www.w3.org/1999/xlink" xml:space="preserve" onload="init(evt)">
<style type="text/css"><![CDATA[
.edge:hover path { stroke: red; }
.edge:hover polygon { stroke: red; fill: red; }
]]></style>
<script type="text/javascript"><![CDATA[
var edges = document.getElementsByTagName('g');
if (edges && edges.length) {
  for (var i=0;i<edges.length;i++) {
    if (edges[i].id.substr(0,4)=='edge') {
      edges[i].setAttribute('class','edge');
    }
  }
}
]]></script>
        <defs>
                <circle id="rim" cx="0" cy="0" r="7"/>
                <circle id="rim2" cx="0" cy="0" r="3.5"/>
                <g id="zoomPlus">
                        <use xlink:href="#rim" fill="#404040">
                                <set attributeName="fill" to="#808080" begin="zoomplus.mouseover" end="zoomplus.mouseout"/>
                        </use>
                        <path d="M-4,0h8M0,-4v8" fill="none" stroke="white" stroke-width="1.5" pointer-events="none"/>
                </g>
                <g id="zoomMin">
                        <use xlink:href="#rim" fill="#404040">
                                <set attributeName="fill" to="#808080" begin="zoomminus.mouseover" end="zoomminus.mouseout"/>
                        </use>
                        <path d="M-4,0h8" fill="none" stroke="white" stroke-width="1.5" pointer-events="none"/>
                </g>
                <g id="dirArrow">
                        <path fill="none" stroke="white" stroke-width="1.5" d="M0,-3.0v7 M-2.5,-0.5L0,-3.0L2.5,-0.5"/>
                </g>
               <g id="resetDef">
                       <use xlink:href="#rim2" fill="#404040">
                               <set attributeName="fill" to="#808080" begin="reset.mouseover" end="reset.mouseout"/>
                       </use>
               </g>
        </defs>

<script type="text/javascript">
var viewWidth = 665;
var viewHeight = 583;
var sectionId = 'dynsection-0';
</script>
<script xlink:href="../../svgpan.js"/>
<svg id="graph" class="graph">
<g id="viewport">
<title>AForge.Imaging.Filters.BaseTransformationFilter</title>
<polygon fill="white" stroke="none" points="-4,4 -4,-579 661,-579 661,4 -4,4"/>
<!-- Node1 -->
<g id="node1" class="node"><title>Node1</title>
<g id="a_node1"><a xlink:title="Base class for filters, which may produce new image of different size as a result of image processing...">
<polygon fill="#bfbfbf" stroke="black" points="124,-210.5 124,-240.5 264,-240.5 264,-210.5 124,-210.5"/>
<text text-anchor="start" x="132" y="-228.5" font-family="Helvetica,sans-Serif" font-size="10.00">AForge.Imaging.Filters.Base</text>
<text text-anchor="middle" x="194" y="-217.5" font-family="Helvetica,sans-Serif" font-size="10.00">TransformationFilter</text>
</a>
</g>
</g>
<!-- Node4 -->
<g id="node4" class="node"><title>Node4</title>
<g id="a_node4"><a xlink:href="../../df/d41/classAForge_1_1Imaging_1_1Filters_1_1BaseResizeFilter.html" target="_top" xlink:title="Base class for image resizing filters.">
<polygon fill="white" stroke="black" points="316.5,-470.5 316.5,-500.5 456.5,-500.5 456.5,-470.5 316.5,-470.5"/>
<text text-anchor="start" x="324.5" y="-488.5" font-family="Helvetica,sans-Serif" font-size="10.00">AForge.Imaging.Filters.Base</text>
<text text-anchor="middle" x="386.5" y="-477.5" font-family="Helvetica,sans-Serif" font-size="10.00">ResizeFilter</text>
</a>
</g>
</g>
<!-- Node1&#45;&gt;Node4 -->
<g id="edge3" class="edge"><title>Node1&#45;&gt;Node4</title>
<path fill="none" stroke="midnightblue" d="M205.565,-250.108C222.264,-287.37 257.292,-359.292 300,-411.5 319.018,-434.748 345.843,-456.64 364.351,-470.492"/>
<polygon fill="midnightblue" stroke="midnightblue" points="208.591,-248.296 201.349,-240.562 202.187,-251.124 208.591,-248.296"/>
</g>
<!-- Node8 -->
<g id="node8" class="node"><title>Node8</title>
<g id="a_node8"><a xlink:href="../../dd/d74/classAForge_1_1Imaging_1_1Filters_1_1BaseRotateFilter.html" target="_top" xlink:title="Base class for image rotation filters.">
<polygon fill="white" stroke="black" points="316.5,-372.5 316.5,-402.5 456.5,-402.5 456.5,-372.5 316.5,-372.5"/>
<text text-anchor="start" x="324.5" y="-390.5" font-family="Helvetica,sans-Serif" font-size="10.00">AForge.Imaging.Filters.Base</text>
<text text-anchor="middle" x="386.5" y="-379.5" font-family="Helvetica,sans-Serif" font-size="10.00">RotateFilter</text>
</a>
</g>
</g>
<!-- Node1&#45;&gt;Node8 -->
<g id="edge7" class="edge"><title>Node1&#45;&gt;Node8</title>
<path fill="none" stroke="midnightblue" d="M207.395,-249.992C224.221,-280.784 257.17,-333.156 300,-362.5 305.614,-366.346 311.823,-369.608 318.258,-372.374"/>
<polygon fill="midnightblue" stroke="midnightblue" points="210.295,-247.991 202.507,-240.809 204.116,-251.281 210.295,-247.991"/>
</g>
<!-- Node12 -->
<g id="node12" class="node"><title>Node12</title>
<g id="a_node12"><a xlink:href="../../d6/d12/classAForge_1_1Imaging_1_1Filters_1_1Crop.html" target="_top" xlink:title="Crop an image.">
<polygon fill="white" stroke="black" points="317.5,-334 317.5,-353 455.5,-353 455.5,-334 317.5,-334"/>
<text text-anchor="middle" x="386.5" y="-341" font-family="Helvetica,sans-Serif" font-size="10.00">AForge.Imaging.Filters.Crop</text>
</a>
</g>
</g>
<!-- Node1&#45;&gt;Node12 -->
<g id="edge11" class="edge"><title>Node1&#45;&gt;Node12</title>
<path fill="none" stroke="midnightblue" d="M213.262,-248.449C232.462,-270.996 264.736,-304.674 300,-323.5 308.203,-327.879 317.352,-331.307 326.529,-333.988"/>
<polygon fill="midnightblue" stroke="midnightblue" points="215.89,-246.135 206.799,-240.694 210.513,-250.617 215.89,-246.135"/>
</g>
<!-- Node13 -->
<g id="node13" class="node"><title>Node13</title>
<g id="a_node13"><a xlink:href="../../d0/d90/classAForge_1_1Imaging_1_1Filters_1_1QuadrilateralTransformation.html" target="_top" xlink:title="Performs quadrilateral transformation of an area in a given source image.">
<polygon fill="white" stroke="black" points="300,-284.5 300,-314.5 473,-314.5 473,-284.5 300,-284.5"/>
<text text-anchor="start" x="308" y="-302.5" font-family="Helvetica,sans-Serif" font-size="10.00">AForge.Imaging.Filters.Quadrilateral</text>
<text text-anchor="middle" x="386.5" y="-291.5" font-family="Helvetica,sans-Serif" font-size="10.00">Transformation</text>
</a>
</g>
</g>
<!-- Node1&#45;&gt;Node13 -->
<g id="edge12" class="edge"><title>Node1&#45;&gt;Node13</title>
<path fill="none" stroke="midnightblue" d="M233.56,-245.215C253.152,-254.788 277.515,-266.023 300,-274.5 309.406,-278.046 319.548,-281.404 329.445,-284.439"/>
<polygon fill="midnightblue" stroke="midnightblue" points="234.87,-241.958 224.354,-240.668 231.77,-248.235 234.87,-241.958"/>
</g>
<!-- Node14 -->
<g id="node14" class="node"><title>Node14</title>
<g id="a_node14"><a xlink:href="../../d5/d51/classAForge_1_1Imaging_1_1Filters_1_1QuadrilateralTransformationBilinear.html" target="_top" xlink:title="Performs quadrilateral transformation using bilinear algorithm for interpolation.">
<polygon fill="white" stroke="black" points="300,-235.5 300,-265.5 473,-265.5 473,-235.5 300,-235.5"/>
<text text-anchor="start" x="308" y="-253.5" font-family="Helvetica,sans-Serif" font-size="10.00">AForge.Imaging.Filters.Quadrilateral</text>
<text text-anchor="middle" x="386.5" y="-242.5" font-family="Helvetica,sans-Serif" font-size="10.00">TransformationBilinear</text>
</a>
</g>
</g>
<!-- Node1&#45;&gt;Node14 -->
<g id="edge13" class="edge"><title>Node1&#45;&gt;Node14</title>
<path fill="none" stroke="midnightblue" d="M274.232,-235.898C282.669,-237.005 291.279,-238.135 299.786,-239.251"/>
<polygon fill="midnightblue" stroke="midnightblue" points="274.415,-232.392 264.044,-234.561 273.504,-239.332 274.415,-232.392"/>
</g>
<!-- Node15 -->
<g id="node15" class="node"><title>Node15</title>
<g id="a_node15"><a xlink:href="../../dc/dae/classAForge_1_1Imaging_1_1Filters_1_1QuadrilateralTransformationNearestNeighbor.html" target="_top" xlink:title="Performs quadrilateral transformation using nearest neighbor algorithm for interpolation.">
<polygon fill="white" stroke="black" points="300,-186.5 300,-216.5 473,-216.5 473,-186.5 300,-186.5"/>
<text text-anchor="start" x="308" y="-204.5" font-family="Helvetica,sans-Serif" font-size="10.00">AForge.Imaging.Filters.Quadrilateral</text>
<text text-anchor="middle" x="386.5" y="-193.5" font-family="Helvetica,sans-Serif" font-size="10.00">TransformationNearestNeighbor</text>
</a>
</g>
</g>
<!-- Node1&#45;&gt;Node15 -->
<g id="edge14" class="edge"><title>Node1&#45;&gt;Node15</title>
<path fill="none" stroke="midnightblue" d="M274.232,-215.518C282.669,-214.455 291.279,-213.37 299.786,-212.299"/>
<polygon fill="midnightblue" stroke="midnightblue" points="273.528,-212.079 264.044,-216.802 274.403,-219.024 273.528,-212.079"/>
</g>
<!-- Node16 -->
<g id="node16" class="node"><title>Node16</title>
<g id="a_node16"><a xlink:href="../../d6/d05/classAForge_1_1Imaging_1_1Filters_1_1Shrink.html" target="_top" xlink:title="Shrink an image by removing specified color from its boundaries.">
<polygon fill="white" stroke="black" points="313.5,-148 313.5,-167 459.5,-167 459.5,-148 313.5,-148"/>
<text text-anchor="middle" x="386.5" y="-155" font-family="Helvetica,sans-Serif" font-size="10.00">AForge.Imaging.Filters.Shrink</text>
</a>
</g>
</g>
<!-- Node1&#45;&gt;Node16 -->
<g id="edge15" class="edge"><title>Node1&#45;&gt;Node16</title>
<path fill="none" stroke="midnightblue" d="M231.805,-205.913C251.588,-196.007 276.652,-184.436 300,-176.5 310.798,-172.83 322.607,-169.679 333.909,-167.059"/>
<polygon fill="midnightblue" stroke="midnightblue" points="230.161,-202.822 222.831,-210.472 233.332,-209.063 230.161,-202.822"/>
</g>
<!-- Node17 -->
<g id="node17" class="node"><title>Node17</title>
<g id="a_node17"><a xlink:href="../../d0/dcd/classAForge_1_1Imaging_1_1Filters_1_1SimpleQuadrilateralTransformation.html" target="_top" xlink:title="Performs quadrilateral transformation of an area in the source image.">
<polygon fill="white" stroke="black" points="312.5,-98.5 312.5,-128.5 460.5,-128.5 460.5,-98.5 312.5,-98.5"/>
<text text-anchor="start" x="320.5" y="-116.5" font-family="Helvetica,sans-Serif" font-size="10.00">AForge.Imaging.Filters.Simple</text>
<text text-anchor="middle" x="386.5" y="-105.5" font-family="Helvetica,sans-Serif" font-size="10.00">QuadrilateralTransformation</text>
</a>
</g>
</g>
<!-- Node1&#45;&gt;Node17 -->
<g id="edge16" class="edge"><title>Node1&#45;&gt;Node17</title>
<path fill="none" stroke="midnightblue" d="M216.541,-203.066C236.504,-183.468 267.883,-155.556 300,-138.5 307.102,-134.728 314.847,-131.457 322.68,-128.639"/>
<polygon fill="midnightblue" stroke="midnightblue" points="213.817,-200.841 209.22,-210.387 218.766,-205.791 213.817,-200.841"/>
</g>
<!-- Node18 -->
<g id="node18" class="node"><title>Node18</title>
<g id="a_node18"><a xlink:href="../../d1/d01/classAForge_1_1Imaging_1_1Filters_1_1TransformFromPolar.html" target="_top" xlink:title="Transform polar image into rectangle.">
<polygon fill="white" stroke="black" points="306,-49.5 306,-79.5 467,-79.5 467,-49.5 306,-49.5"/>
<text text-anchor="start" x="314" y="-67.5" font-family="Helvetica,sans-Serif" font-size="10.00">AForge.Imaging.Filters.Transform</text>
<text text-anchor="middle" x="386.5" y="-56.5" font-family="Helvetica,sans-Serif" font-size="10.00">FromPolar</text>
</a>
</g>
</g>
<!-- Node1&#45;&gt;Node18 -->
<g id="edge17" class="edge"><title>Node1&#45;&gt;Node18</title>
<path fill="none" stroke="midnightblue" d="M207.346,-200.936C224.119,-170.066 257.012,-117.612 300,-88.5 305.106,-85.042 310.704,-82.0787 316.516,-79.5399"/>
<polygon fill="midnightblue" stroke="midnightblue" points="204.057,-199.667 202.474,-210.143 210.244,-202.941 204.057,-199.667"/>
</g>
<!-- Node19 -->
<g id="node19" class="node"><title>Node19</title>
<g id="a_node19"><a xlink:href="../../d2/d6b/classAForge_1_1Imaging_1_1Filters_1_1TransformToPolar.html" target="_top" xlink:title="Transform rectangle image into circle (to polar coordinates).">
<polygon fill="white" stroke="black" points="306,-0.5 306,-30.5 467,-30.5 467,-0.5 306,-0.5"/>
<text text-anchor="start" x="314" y="-18.5" font-family="Helvetica,sans-Serif" font-size="10.00">AForge.Imaging.Filters.Transform</text>
<text text-anchor="middle" x="386.5" y="-7.5" font-family="Helvetica,sans-Serif" font-size="10.00">ToPolar</text>
</a>
</g>
</g>
<!-- Node1&#45;&gt;Node19 -->
<g id="edge18" class="edge"><title>Node1&#45;&gt;Node19</title>
<path fill="none" stroke="midnightblue" d="M202.205,-200.566C215.085,-160.487 245.903,-81.9438 300,-39.5 304.367,-36.074 309.196,-33.1369 314.272,-30.619"/>
<polygon fill="midnightblue" stroke="midnightblue" points="198.795,-199.747 199.178,-210.335 205.481,-201.819 198.795,-199.747"/>
</g>
<!-- Node2 -->
<g id="node2" class="node"><title>Node2</title>
<g id="a_node2"><a xlink:href="../../dd/d51/interfaceAForge_1_1Imaging_1_1Filters_1_1IFilter.html" target="_top" xlink:title="Image processing filter interface.">
<polygon fill="white" stroke="black" points="23.5,-235 23.5,-254 64.5,-254 64.5,-235 23.5,-235"/>
<text text-anchor="middle" x="44" y="-242" font-family="Helvetica,sans-Serif" font-size="10.00">IFilter</text>
</a>
</g>
</g>
<!-- Node2&#45;&gt;Node1 -->
<g id="edge1" class="edge"><title>Node2&#45;&gt;Node1</title>
<path fill="none" stroke="midnightblue" d="M74.7926,-240.675C89.0102,-238.85 106.665,-236.584 123.957,-234.364"/>
<polygon fill="midnightblue" stroke="midnightblue" points="74.1262,-237.232 64.6533,-241.977 75.0176,-244.175 74.1262,-237.232"/>
</g>
<!-- Node3 -->
<g id="node3" class="node"><title>Node3</title>
<g id="a_node3"><a xlink:href="../../d7/dec/interfaceAForge_1_1Imaging_1_1Filters_1_1IFilterInformation.html" target="_top" xlink:title="Interface which provides information about image processing filter.">
<polygon fill="white" stroke="black" points="0,-197 0,-216 88,-216 88,-197 0,-197"/>
<text text-anchor="middle" x="44" y="-204" font-family="Helvetica,sans-Serif" font-size="10.00">IFilterInformation</text>
</a>
</g>
</g>
<!-- Node3&#45;&gt;Node1 -->
<g id="edge2" class="edge"><title>Node3&#45;&gt;Node1</title>
<path fill="none" stroke="midnightblue" d="M98.1523,-213.324C106.489,-214.394 115.211,-215.514 123.844,-216.622"/>
<polygon fill="midnightblue" stroke="midnightblue" points="98.5699,-209.849 88.2056,-212.047 97.6785,-216.792 98.5699,-209.849"/>
</g>
<!-- Node5 -->
<g id="node5" class="node"><title>Node5</title>
<g id="a_node5"><a xlink:href="../../d2/d82/classAForge_1_1Imaging_1_1Filters_1_1ResizeBicubic.html" target="_top" xlink:title="Resize image using bicubic interpolation algorithm.">
<polygon fill="white" stroke="black" points="509,-544.5 509,-574.5 657,-574.5 657,-544.5 509,-544.5"/>
<text text-anchor="start" x="517" y="-562.5" font-family="Helvetica,sans-Serif" font-size="10.00">AForge.Imaging.Filters.Resize</text>
<text text-anchor="middle" x="583" y="-551.5" font-family="Helvetica,sans-Serif" font-size="10.00">Bicubic</text>
</a>
</g>
</g>
<!-- Node4&#45;&gt;Node5 -->
<g id="edge4" class="edge"><title>Node4&#45;&gt;Node5</title>
<path fill="none" stroke="midnightblue" d="M432.856,-504.461C455.6,-513.798 483.637,-525.05 509,-534.5 517.913,-537.821 527.497,-541.222 536.694,-544.405"/>
<polygon fill="midnightblue" stroke="midnightblue" points="434.034,-501.161 423.455,-500.587 431.367,-507.633 434.034,-501.161"/>
</g>
<!-- Node6 -->
<g id="node6" class="node"><title>Node6</title>
<g id="a_node6"><a xlink:href="../../d5/d3b/classAForge_1_1Imaging_1_1Filters_1_1ResizeBilinear.html" target="_top" xlink:title="Resize image using bilinear interpolation algorithm.">
<polygon fill="white" stroke="black" points="509,-495.5 509,-525.5 657,-525.5 657,-495.5 509,-495.5"/>
<text text-anchor="start" x="517" y="-513.5" font-family="Helvetica,sans-Serif" font-size="10.00">AForge.Imaging.Filters.Resize</text>
<text text-anchor="middle" x="583" y="-502.5" font-family="Helvetica,sans-Serif" font-size="10.00">Bilinear</text>
</a>
</g>
</g>
<!-- Node4&#45;&gt;Node6 -->
<g id="edge5" class="edge"><title>Node4&#45;&gt;Node6</title>
<path fill="none" stroke="midnightblue" d="M466.663,-495.675C480.602,-497.467 495.055,-499.325 508.821,-501.094"/>
<polygon fill="midnightblue" stroke="midnightblue" points="466.986,-492.188 456.621,-494.384 466.093,-499.131 466.986,-492.188"/>
</g>
<!-- Node7 -->
<g id="node7" class="node"><title>Node7</title>
<g id="a_node7"><a xlink:href="../../db/d91/classAForge_1_1Imaging_1_1Filters_1_1ResizeNearestNeighbor.html" target="_top" xlink:title="Resize image using nearest neighbor algorithm.">
<polygon fill="white" stroke="black" points="509,-446.5 509,-476.5 657,-476.5 657,-446.5 509,-446.5"/>
<text text-anchor="start" x="517" y="-464.5" font-family="Helvetica,sans-Serif" font-size="10.00">AForge.Imaging.Filters.Resize</text>
<text text-anchor="middle" x="583" y="-453.5" font-family="Helvetica,sans-Serif" font-size="10.00">NearestNeighbor</text>
</a>
</g>
</g>
<!-- Node4&#45;&gt;Node7 -->
<g id="edge6" class="edge"><title>Node4&#45;&gt;Node7</title>
<path fill="none" stroke="midnightblue" d="M466.663,-475.732C480.602,-474.012 495.055,-472.228 508.821,-470.53"/>
<polygon fill="midnightblue" stroke="midnightblue" points="466.117,-472.273 456.621,-476.971 466.974,-479.22 466.117,-472.273"/>
</g>
<!-- Node9 -->
<g id="node9" class="node"><title>Node9</title>
<g id="a_node9"><a xlink:href="../../d2/d15/classAForge_1_1Imaging_1_1Filters_1_1RotateBicubic.html" target="_top" xlink:title="Rotate image using bicubic interpolation.">
<polygon fill="white" stroke="black" points="510,-397.5 510,-427.5 656,-427.5 656,-397.5 510,-397.5"/>
<text text-anchor="start" x="518" y="-415.5" font-family="Helvetica,sans-Serif" font-size="10.00">AForge.Imaging.Filters.Rotate</text>
<text text-anchor="middle" x="583" y="-404.5" font-family="Helvetica,sans-Serif" font-size="10.00">Bicubic</text>
</a>
</g>
</g>
<!-- Node8&#45;&gt;Node9 -->
<g id="edge8" class="edge"><title>Node8&#45;&gt;Node9</title>
<path fill="none" stroke="midnightblue" d="M466.859,-397.7C481.073,-399.527 495.815,-401.422 509.813,-403.221"/>
<polygon fill="midnightblue" stroke="midnightblue" points="466.986,-394.188 456.621,-396.384 466.093,-401.131 466.986,-394.188"/>
</g>
<!-- Node10 -->
<g id="node10" class="node"><title>Node10</title>
<g id="a_node10"><a xlink:href="../../d7/df8/classAForge_1_1Imaging_1_1Filters_1_1RotateBilinear.html" target="_top" xlink:title="Rotate image using bilinear interpolation.">
<polygon fill="white" stroke="black" points="510,-348.5 510,-378.5 656,-378.5 656,-348.5 510,-348.5"/>
<text text-anchor="start" x="518" y="-366.5" font-family="Helvetica,sans-Serif" font-size="10.00">AForge.Imaging.Filters.Rotate</text>
<text text-anchor="middle" x="583" y="-355.5" font-family="Helvetica,sans-Serif" font-size="10.00">Bilinear</text>
</a>
</g>
</g>
<!-- Node8&#45;&gt;Node10 -->
<g id="edge9" class="edge"><title>Node8&#45;&gt;Node10</title>
<path fill="none" stroke="midnightblue" d="M466.859,-377.708C481.073,-375.954 495.815,-374.135 509.813,-372.407"/>
<polygon fill="midnightblue" stroke="midnightblue" points="466.117,-374.273 456.621,-378.971 466.974,-381.22 466.117,-374.273"/>
</g>
<!-- Node11 -->
<g id="node11" class="node"><title>Node11</title>
<g id="a_node11"><a xlink:href="../../da/d34/classAForge_1_1Imaging_1_1Filters_1_1RotateNearestNeighbor.html" target="_top" xlink:title="Rotate image using nearest neighbor algorithm.">
<polygon fill="white" stroke="black" points="510,-299.5 510,-329.5 656,-329.5 656,-299.5 510,-299.5"/>
<text text-anchor="start" x="518" y="-317.5" font-family="Helvetica,sans-Serif" font-size="10.00">AForge.Imaging.Filters.Rotate</text>
<text text-anchor="middle" x="583" y="-306.5" font-family="Helvetica,sans-Serif" font-size="10.00">NearestNeighbor</text>
</a>
</g>
</g>
<!-- Node8&#45;&gt;Node11 -->
<g id="edge10" class="edge"><title>Node8&#45;&gt;Node11</title>
<path fill="none" stroke="midnightblue" d="M457.392,-368.993C462.747,-366.992 468.006,-364.828 473,-362.5 490.429,-354.375 491.708,-346.913 509,-338.5 515.718,-335.231 522.99,-332.244 530.252,-329.572"/>
<polygon fill="midnightblue" stroke="midnightblue" points="455.953,-365.789 447.688,-372.418 458.283,-372.39 455.953,-365.789"/>
</g>
</g>
</svg>
        <g id="navigator" transform="translate(0 0)" fill="#404254">
                <rect fill="#f2f5e9" fill-opacity="0.5" stroke="#606060" stroke-width=".5" x="0" y="0" width="60" height="60"/>
                <use id="zoomplus" xlink:href="#zoomPlus" x="17" y="9" onmousedown="handleZoom(evt,'in')"/>
                <use id="zoomminus" xlink:href="#zoomMin" x="42" y="9" onmousedown="handleZoom(evt,'out')"/>
                <use id="reset" xlink:href="#resetDef" x="30" y="36" onmousedown="handleReset()"/>
                <g id="arrowUp" xlink:href="#dirArrow" transform="translate(30 24)" onmousedown="handlePan(0,-1)">
                  <use xlink:href="#rim" fill="#404040">
                        <set attributeName="fill" to="#808080" begin="arrowUp.mouseover" end="arrowUp.mouseout"/>
                  </use>
                  <path fill="none" stroke="white" stroke-width="1.5" d="M0,-3.0v7 M-2.5,-0.5L0,-3.0L2.5,-0.5"/>
                </g>
                <g id="arrowRight" xlink:href="#dirArrow" transform="rotate(90) translate(36 -43)" onmousedown="handlePan(1,0)">
                  <use xlink:href="#rim" fill="#404040">
                        <set attributeName="fill" to="#808080" begin="arrowRight.mouseover" end="arrowRight.mouseout"/>
                  </use>
                  <path fill="none" stroke="white" stroke-width="1.5" d="M0,-3.0v7 M-2.5,-0.5L0,-3.0L2.5,-0.5"/>
                </g>
                <g id="arrowDown" xlink:href="#dirArrow" transform="rotate(180) translate(-30 -48)" onmousedown="handlePan(0,1)">
                  <use xlink:href="#rim" fill="#404040">
                        <set attributeName="fill" to="#808080" begin="arrowDown.mouseover" end="arrowDown.mouseout"/>
                  </use>
                  <path fill="none" stroke="white" stroke-width="1.5" d="M0,-3.0v7 M-2.5,-0.5L0,-3.0L2.5,-0.5"/>
                </g>
                <g id="arrowLeft" xlink:href="#dirArrow" transform="rotate(270) translate(-36 17)" onmousedown="handlePan(-1,0)">
                  <use xlink:href="#rim" fill="#404040">
                        <set attributeName="fill" to="#808080" begin="arrowLeft.mouseover" end="arrowLeft.mouseout"/>
                  </use>
                  <path fill="none" stroke="white" stroke-width="1.5" d="M0,-3.0v7 M-2.5,-0.5L0,-3.0L2.5,-0.5"/>
                </g>
        </g>
        <svg viewBox="0 0 15 15" width="100%" height="30px" preserveAspectRatio="xMaxYMin meet">
         <g id="arrow_out" transform="scale(0.3 0.3)">
          <a xlink:href="classAForge_1_1Imaging_1_1Filters_1_1BaseTransformationFilter__inherit__graph_org.svg" target="_base">
           <rect id="button" ry="5" rx="5" y="6" x="6" height="38" width="38"
                fill="#f2f5e9" fill-opacity="0.5" stroke="#606060" stroke-width="1.0"/>
           <path id="arrow"
             d="M 11.500037,31.436501 C 11.940474,20.09759 22.043105,11.32322 32.158766,21.979434 L 37.068811,17.246167 C 37.068811,17.246167 37.088388,32 37.088388,32 L 22.160133,31.978069 C 22.160133,31.978069 26.997745,27.140456 26.997745,27.140456 C 18.528582,18.264221 13.291696,25.230495 11.500037,31.436501 z"
             style="fill:#404040;"/>
          </a>
         </g>
        </svg>
</svg>
