<?xml version="1.0" encoding="UTF-8" standalone="no"?>
<!DOCTYPE svg PUBLIC "-//W3C//DTD SVG 1.1//EN"
 "http://www.w3.org/Graphics/SVG/1.1/DTD/svg11.dtd">
<!-- Generated by graphviz version 2.38.0 (20140413.2041)
 -->
<!-- Title: IG.Num.OptUnconstrained.ExampleRosenbrockGeneralizedExhaustive Pages: 1 -->
<svg width="203pt" height="229pt"
 viewBox="0.00 0.00 202.82 229.00" xmlns="http://www.w3.org/2000/svg" xmlns:xlink="http://www.w3.org/1999/xlink">
<g id="graph0" class="graph" transform="scale(1 1) rotate(0) translate(4 225)">
<title>IG.Num.OptUnconstrained.ExampleRosenbrockGeneralizedExhaustive</title>
<polygon fill="white" stroke="none" points="-4,4 -4,-225 198.821,-225 198.821,4 -4,4"/>
<!-- Node1 -->
<g id="node1" class="node"><title>Node1</title>
<g id="a_node1"><a xlink:title="The generalized Rosenbrock&#39;s unconstrained optimization problem in arbitrary dimensions Dim &gt;= 2.">
<polygon fill="#bfbfbf" stroke="black" points="18.4105,-0.5 18.4105,-41.5 176.41,-41.5 176.41,-0.5 18.4105,-0.5"/>
<text text-anchor="start" x="26.4105" y="-29.5" font-family="Helvetica,sans-Serif" font-size="10.00">IG.Num.OptUnconstrained.</text>
<text text-anchor="start" x="26.4105" y="-18.5" font-family="Helvetica,sans-Serif" font-size="10.00">ExampleRosenbrockGeneralized</text>
<text text-anchor="middle" x="97.4105" y="-7.5" font-family="Helvetica,sans-Serif" font-size="10.00">Exhaustive</text>
</a>
</g>
</g>
<!-- Node2 -->
<g id="node2" class="node"><title>Node2</title>
<g id="a_node2"><a xlink:href="../../d4/d0a/classIG_1_1Num_1_1OptUnconstrained_1_1ExampleRosenbrockGeneralizedAdjacent.html" target="_top" xlink:title="The generalized Rosenbrock&#39;s unconstrained optimization problem in arbitrary dimensions Dim &gt;= 2.">
<polygon fill="white" stroke="black" points="18.4105,-78.5 18.4105,-108.5 176.41,-108.5 176.41,-78.5 18.4105,-78.5"/>
<text text-anchor="start" x="26.4105" y="-96.5" font-family="Helvetica,sans-Serif" font-size="10.00">ExampleRosenbrockGeneralized</text>
<text text-anchor="middle" x="97.4105" y="-85.5" font-family="Helvetica,sans-Serif" font-size="10.00">Adjacent</text>
</a>
</g>
</g>
<!-- Node2&#45;&gt;Node1 -->
<g id="edge1" class="edge"><title>Node2&#45;&gt;Node1</title>
<path fill="none" stroke="midnightblue" d="M97.4105,-67.9815C97.4105,-59.3468 97.4105,-49.7625 97.4105,-41.5884"/>
<polygon fill="midnightblue" stroke="midnightblue" points="93.9106,-68.2332 97.4105,-78.2333 100.911,-68.2333 93.9106,-68.2332"/>
</g>
<!-- Node3 -->
<g id="node3" class="node"><title>Node3</title>
<g id="a_node3"><a xlink:href="../../dd/d1e/classIG_1_1Num_1_1AnalysisBase.html" target="_top" xlink:title="Base class for direct analysis classes that define optimization problems. Represent the complete defi...">
<polygon fill="white" stroke="black" points="58.9105,-145.5 58.9105,-164.5 135.91,-164.5 135.91,-145.5 58.9105,-145.5"/>
<text text-anchor="middle" x="97.4105" y="-152.5" font-family="Helvetica,sans-Serif" font-size="10.00">AnalysisBase</text>
</a>
</g>
</g>
<!-- Node3&#45;&gt;Node2 -->
<g id="edge2" class="edge"><title>Node3&#45;&gt;Node2</title>
<path fill="none" stroke="midnightblue" d="M97.4105,-135.235C97.4105,-126.586 97.4105,-116.497 97.4105,-108.523"/>
<polygon fill="midnightblue" stroke="midnightblue" points="93.9106,-135.475 97.4105,-145.475 100.911,-135.475 93.9106,-135.475"/>
</g>
<!-- Node4 -->
<g id="node4" class="node"><title>Node4</title>
<g id="a_node4"><a xlink:href="../../d5/d59/interfaceIG_1_1Num_1_1IAnalysis.html" target="_top" xlink:title="Interface for direct analysis classes used in optimization problems.">
<polygon fill="white" stroke="black" points="2.4105,-201.5 2.4105,-220.5 58.4105,-220.5 58.4105,-201.5 2.4105,-201.5"/>
<text text-anchor="middle" x="30.4105" y="-208.5" font-family="Helvetica,sans-Serif" font-size="10.00">IAnalysis</text>
</a>
</g>
</g>
<!-- Node4&#45;&gt;Node1 -->
<g id="edge7" class="edge"><title>Node4&#45;&gt;Node1</title>
<path fill="none" stroke="midnightblue" d="M20.8501,-192.12C8.06089,-165.546 -10.7981,-114.813 9.4105,-78 18.0375,-62.2844 33.1526,-50.3489 48.4475,-41.6202"/>
<polygon fill="midnightblue" stroke="midnightblue" points="17.8768,-193.995 25.5167,-201.336 24.1218,-190.833 17.8768,-193.995"/>
</g>
<!-- Node4&#45;&gt;Node2 -->
<g id="edge5" class="edge"><title>Node4&#45;&gt;Node2</title>
<path fill="none" stroke="midnightblue" d="M33.3933,-191.473C36.1351,-177.935 41.0722,-159.489 49.4105,-145 57.3745,-131.161 69.8873,-118.167 80.1407,-108.826"/>
<polygon fill="midnightblue" stroke="midnightblue" points="29.9163,-191.032 31.58,-201.495 36.8045,-192.278 29.9163,-191.032"/>
</g>
<!-- Node4&#45;&gt;Node3 -->
<g id="edge3" class="edge"><title>Node4&#45;&gt;Node3</title>
<path fill="none" stroke="midnightblue" d="M49.2453,-194.82C61.2489,-185.145 76.3822,-172.948 86.4499,-164.834"/>
<polygon fill="midnightblue" stroke="midnightblue" points="46.7648,-192.324 41.1752,-201.324 51.1575,-197.774 46.7648,-192.324"/>
</g>
<!-- Node5 -->
<g id="node5" class="node"><title>Node5</title>
<g id="a_node5"><a xlink:href="../../d3/db6/interfaceIG_1_1Lib_1_1ILockable.html" target="_top" xlink:title="Lockable object, has a Lock property that returns object on which lock must be performed in order to ...">
<polygon fill="white" stroke="black" points="135.41,-201.5 135.41,-220.5 193.41,-220.5 193.41,-201.5 135.41,-201.5"/>
<text text-anchor="middle" x="164.41" y="-208.5" font-family="Helvetica,sans-Serif" font-size="10.00">ILockable</text>
</a>
</g>
</g>
<!-- Node5&#45;&gt;Node1 -->
<g id="edge8" class="edge"><title>Node5&#45;&gt;Node1</title>
<path fill="none" stroke="midnightblue" d="M173.971,-192.12C186.76,-165.546 205.619,-114.813 185.41,-78 176.783,-62.2844 161.668,-50.3489 146.374,-41.6202"/>
<polygon fill="midnightblue" stroke="midnightblue" points="170.699,-190.833 169.304,-201.336 176.944,-193.995 170.699,-190.833"/>
</g>
<!-- Node5&#45;&gt;Node2 -->
<g id="edge6" class="edge"><title>Node5&#45;&gt;Node2</title>
<path fill="none" stroke="midnightblue" d="M160.947,-191.052C157.934,-177.571 152.718,-159.376 144.41,-145 136.38,-131.104 123.879,-117.919 113.788,-108.508"/>
<polygon fill="midnightblue" stroke="midnightblue" points="157.563,-191.975 162.981,-201.08 164.424,-190.584 157.563,-191.975"/>
</g>
<!-- Node5&#45;&gt;Node3 -->
<g id="edge4" class="edge"><title>Node5&#45;&gt;Node3</title>
<path fill="none" stroke="midnightblue" d="M145.576,-194.82C133.572,-185.145 118.439,-172.948 108.371,-164.834"/>
<polygon fill="midnightblue" stroke="midnightblue" points="143.663,-197.774 153.646,-201.324 148.056,-192.324 143.663,-197.774"/>
</g>
</g>
</svg>
