<?xml version="1.0" encoding="UTF-8" standalone="no"?>
<!DOCTYPE svg PUBLIC "-//W3C//DTD SVG 1.1//EN"
 "http://www.w3.org/Graphics/SVG/1.1/DTD/svg11.dtd">
<!-- Generated by graphviz version 2.38.0 (20140413.2041)
 -->
<!-- Title: IG.Gr.PlotterZedGraph Pages: 1 -->
<svg width="152pt" height="84pt"
 viewBox="0.00 0.00 151.50 84.00" xmlns="http://www.w3.org/2000/svg" xmlns:xlink="http://www.w3.org/1999/xlink">
<g id="graph0" class="graph" transform="scale(1 1) rotate(0) translate(4 80)">
<title>IG.Gr.PlotterZedGraph</title>
<polygon fill="white" stroke="none" points="-4,4 -4,-80 147.5,-80 147.5,4 -4,4"/>
<!-- Node1 -->
<g id="node1" class="node"><title>Node1</title>
<g id="a_node1"><a xlink:title="Plotter class that uses a ZedGraphControl object for plotting ordinary 2D graphs.">
<polygon fill="#bfbfbf" stroke="black" points="12.5,-0.5 12.5,-19.5 125.5,-19.5 125.5,-0.5 12.5,-0.5"/>
<text text-anchor="middle" x="69" y="-7.5" font-family="Helvetica,sans-Serif" font-size="10.00">IG.Gr.PlotterZedGraph</text>
</a>
</g>
</g>
<!-- Node2 -->
<g id="node2" class="node"><title>Node2</title>
<g id="a_node2"><a xlink:href="../../d3/db6/interfaceIG_1_1Lib_1_1ILockable.html" target="_top" xlink:title="Lockable object, has a Lock property that returns object on which lock must be performed in order to ...">
<polygon fill="white" stroke="black" points="0,-56.5 0,-75.5 58,-75.5 58,-56.5 0,-56.5"/>
<text text-anchor="middle" x="29" y="-63.5" font-family="Helvetica,sans-Serif" font-size="10.00">ILockable</text>
</a>
</g>
</g>
<!-- Node2&#45;&gt;Node1 -->
<g id="edge1" class="edge"><title>Node2&#45;&gt;Node1</title>
<path fill="none" stroke="midnightblue" d="M41.6997,-47.8554C48.626,-38.5048 56.9063,-27.3265 62.5177,-19.7511"/>
<polygon fill="midnightblue" stroke="midnightblue" points="38.745,-45.9641 35.6052,-56.083 44.37,-50.1307 38.745,-45.9641"/>
</g>
<!-- Node3 -->
<g id="node3" class="node"><title>Node3</title>
<g id="a_node3"><a xlink:title=" ">
<polygon fill="white" stroke="#bfbfbf" points="76.5,-56.5 76.5,-75.5 143.5,-75.5 143.5,-56.5 76.5,-56.5"/>
<text text-anchor="middle" x="110" y="-63.5" font-family="Helvetica,sans-Serif" font-size="10.00">IDisposable</text>
</a>
</g>
</g>
<!-- Node3&#45;&gt;Node1 -->
<g id="edge2" class="edge"><title>Node3&#45;&gt;Node1</title>
<path fill="none" stroke="midnightblue" d="M96.9828,-47.8554C89.8833,-38.5048 81.396,-27.3265 75.6443,-19.7511"/>
<polygon fill="midnightblue" stroke="midnightblue" points="94.395,-50.235 103.23,-56.083 99.9701,-46.002 94.395,-50.235"/>
</g>
</g>
</svg>
