<?xml version="1.0" encoding="UTF-8" standalone="no"?>
<!DOCTYPE svg PUBLIC "-//W3C//DTD SVG 1.1//EN"
 "http://www.w3.org/Graphics/SVG/1.1/DTD/svg11.dtd">
<!-- Generated by graphviz version 2.38.0 (20140413.2041)
 -->
<!-- Title: IG.Num.OptUnconstrained.ExampleRosenbrock Pages: 1 -->
<svg width="156pt" height="151pt"
 viewBox="0.00 0.00 156.00 151.00" xmlns="http://www.w3.org/2000/svg" xmlns:xlink="http://www.w3.org/1999/xlink">
<g id="graph0" class="graph" transform="scale(1 1) rotate(0) translate(4 147)">
<title>IG.Num.OptUnconstrained.ExampleRosenbrock</title>
<polygon fill="white" stroke="none" points="-4,4 -4,-147 152,-147 152,4 -4,4"/>
<!-- Node1 -->
<g id="node1" class="node"><title>Node1</title>
<g id="a_node1"><a xlink:title="The Rosenbrock&#39;s unconstrained optimization problem (2D).">
<polygon fill="#bfbfbf" stroke="black" points="0,-0.5 0,-30.5 134,-30.5 134,-0.5 0,-0.5"/>
<text text-anchor="start" x="8" y="-18.5" font-family="Helvetica,sans-Serif" font-size="10.00">IG.Num.OptUnconstrained.</text>
<text text-anchor="middle" x="67" y="-7.5" font-family="Helvetica,sans-Serif" font-size="10.00">ExampleRosenbrock</text>
</a>
</g>
</g>
<!-- Node2 -->
<g id="node2" class="node"><title>Node2</title>
<g id="a_node2"><a xlink:href="../../dd/d1e/classIG_1_1Num_1_1AnalysisBase.html" target="_top" xlink:title="Base class for direct analysis classes that define optimization problems. Represent the complete defi...">
<polygon fill="white" stroke="black" points="28.5,-67.5 28.5,-86.5 105.5,-86.5 105.5,-67.5 28.5,-67.5"/>
<text text-anchor="middle" x="67" y="-74.5" font-family="Helvetica,sans-Serif" font-size="10.00">AnalysisBase</text>
</a>
</g>
</g>
<!-- Node2&#45;&gt;Node1 -->
<g id="edge1" class="edge"><title>Node2&#45;&gt;Node1</title>
<path fill="none" stroke="midnightblue" d="M67,-57.2349C67,-48.5864 67,-38.4969 67,-30.523"/>
<polygon fill="midnightblue" stroke="midnightblue" points="63.5001,-57.4751 67,-67.4751 70.5001,-57.4751 63.5001,-57.4751"/>
</g>
<!-- Node3 -->
<g id="node3" class="node"><title>Node3</title>
<g id="a_node3"><a xlink:href="../../d5/d59/interfaceIG_1_1Num_1_1IAnalysis.html" target="_top" xlink:title="Interface for direct analysis classes used in optimization problems.">
<polygon fill="white" stroke="black" points="1,-123.5 1,-142.5 57,-142.5 57,-123.5 1,-123.5"/>
<text text-anchor="middle" x="29" y="-130.5" font-family="Helvetica,sans-Serif" font-size="10.00">IAnalysis</text>
</a>
</g>
</g>
<!-- Node3&#45;&gt;Node1 -->
<g id="edge4" class="edge"><title>Node3&#45;&gt;Node1</title>
<path fill="none" stroke="midnightblue" d="M21.2423,-113.777C16.7223,-100.417 12.9848,-82.0595 19,-67 24.8328,-52.3971 37.1196,-39.6027 47.8014,-30.5457"/>
<polygon fill="midnightblue" stroke="midnightblue" points="18.0269,-115.168 24.8637,-123.261 24.5665,-112.671 18.0269,-115.168"/>
</g>
<!-- Node3&#45;&gt;Node2 -->
<g id="edge2" class="edge"><title>Node3&#45;&gt;Node2</title>
<path fill="none" stroke="midnightblue" d="M41.0647,-114.855C47.6447,-105.505 55.511,-94.3265 60.8418,-86.7511"/>
<polygon fill="midnightblue" stroke="midnightblue" points="38.1676,-112.891 35.2749,-123.083 43.8922,-116.919 38.1676,-112.891"/>
</g>
<!-- Node4 -->
<g id="node4" class="node"><title>Node4</title>
<g id="a_node4"><a xlink:href="../../d3/db6/interfaceIG_1_1Lib_1_1ILockable.html" target="_top" xlink:title="Lockable object, has a Lock property that returns object on which lock must be performed in order to ...">
<polygon fill="white" stroke="black" points="90,-123.5 90,-142.5 148,-142.5 148,-123.5 90,-123.5"/>
<text text-anchor="middle" x="119" y="-130.5" font-family="Helvetica,sans-Serif" font-size="10.00">ILockable</text>
</a>
</g>
</g>
<!-- Node4&#45;&gt;Node1 -->
<g id="edge5" class="edge"><title>Node4&#45;&gt;Node1</title>
<path fill="none" stroke="midnightblue" d="M120.777,-112.771C121.25,-99.3896 120.326,-81.4311 114,-67 107.749,-52.74 95.7264,-39.9402 85.4062,-30.7948"/>
<polygon fill="midnightblue" stroke="midnightblue" points="117.259,-112.942 120.102,-123.149 124.244,-113.397 117.259,-112.942"/>
</g>
<!-- Node4&#45;&gt;Node2 -->
<g id="edge3" class="edge"><title>Node4&#45;&gt;Node2</title>
<path fill="none" stroke="midnightblue" d="M103.321,-115.718C94.1553,-106.2 82.9474,-94.5608 75.427,-86.7511"/>
<polygon fill="midnightblue" stroke="midnightblue" points="100.956,-118.308 110.413,-123.083 105.998,-113.452 100.956,-118.308"/>
</g>
</g>
</svg>
