<?xml version="1.0" encoding="UTF-8" standalone="no"?>
<!DOCTYPE svg PUBLIC "-//W3C//DTD SVG 1.1//EN"
 "http://www.w3.org/Graphics/SVG/1.1/DTD/svg11.dtd">
<!-- Generated by graphviz version 2.38.0 (20140413.2041)
 -->
<!-- Title: IG.NumExperimental.ResponseEvaluatorWithStorageVector Pages: 1 -->
<svg width="518pt" height="126pt"
 viewBox="0.00 0.00 518.00 126.00" xmlns="http://www.w3.org/2000/svg" xmlns:xlink="http://www.w3.org/1999/xlink">
<g id="graph0" class="graph" transform="scale(1 1) rotate(0) translate(4 122)">
<title>IG.NumExperimental.ResponseEvaluatorWithStorageVector</title>
<polygon fill="white" stroke="none" points="-4,4 -4,-122 514,-122 514,4 -4,4"/>
<!-- Node1 -->
<g id="node1" class="node"><title>Node1</title>
<g id="a_node1"><a xlink:title="Base class for response evaluators where response is evaluated by objects of type IAnalysis .">
<polygon fill="#bfbfbf" stroke="black" points="357,-33 357,-63 510,-63 510,-33 357,-33"/>
<text text-anchor="start" x="365" y="-51" font-family="Helvetica,sans-Serif" font-size="10.00">IG.NumExperimental.Response</text>
<text text-anchor="middle" x="433.5" y="-40" font-family="Helvetica,sans-Serif" font-size="10.00">EvaluatorWithStorageVector</text>
</a>
</g>
</g>
<!-- Node2 -->
<g id="node2" class="node"><title>Node2</title>
<g id="a_node2"><a xlink:href="../../dc/dc7/classIG_1_1NumExperimental_1_1ResponseEvaluatorWithStorageBase.html" target="_top" xlink:title=" ">
<polygon fill="white" stroke="black" points="95,-76.5 95,-117.5 249,-117.5 249,-76.5 95,-76.5"/>
<text text-anchor="start" x="103" y="-105.5" font-family="Helvetica,sans-Serif" font-size="10.00">ResponseEvaluatorWithStorage</text>
<text text-anchor="start" x="103" y="-94.5" font-family="Helvetica,sans-Serif" font-size="10.00">Base&lt; VectorFunctionResults,</text>
<text text-anchor="middle" x="172" y="-83.5" font-family="Helvetica,sans-Serif" font-size="10.00"> IVectorFunction &gt;</text>
</a>
</g>
</g>
<!-- Node2&#45;&gt;Node1 -->
<g id="edge1" class="edge"><title>Node2&#45;&gt;Node1</title>
<path fill="none" stroke="midnightblue" d="M259.21,-80.7214C290.788,-74.7586 326.259,-68.0609 356.845,-62.2856"/>
<polygon fill="midnightblue" stroke="midnightblue" points="258.282,-77.3347 249.105,-82.6295 259.581,-84.2132 258.282,-77.3347"/>
</g>
<!-- Node3 -->
<g id="node3" class="node"><title>Node3</title>
<g id="a_node3"><a xlink:href="../../d3/db6/interfaceIG_1_1Lib_1_1ILockable.html" target="_top" xlink:title="Lockable object, has a Lock property that returns object on which lock must be performed in order to ...">
<polygon fill="white" stroke="black" points="0,-22.5 0,-41.5 58,-41.5 58,-22.5 0,-22.5"/>
<text text-anchor="middle" x="29" y="-29.5" font-family="Helvetica,sans-Serif" font-size="10.00">ILockable</text>
</a>
</g>
</g>
<!-- Node3&#45;&gt;Node1 -->
<g id="edge2" class="edge"><title>Node3&#45;&gt;Node1</title>
<path fill="none" stroke="midnightblue" d="M68.2776,-33.6765C70.891,-33.7872 73.4842,-33.8959 76,-34 172.853,-38.0072 284.52,-42.3471 356.693,-45.1153"/>
<polygon fill="midnightblue" stroke="midnightblue" points="68.3592,-30.1768 58.2186,-33.2456 68.0596,-37.1704 68.3592,-30.1768"/>
</g>
<!-- Node4 -->
<g id="node4" class="node"><title>Node4</title>
<g id="a_node4"><a xlink:href="../../da/d06/interfaceIG_1_1Num_1_1IVectorFunction.html" target="_top" xlink:title="Vector function of a vector argument.">
<polygon fill="white" stroke="black" points="111.5,-0.5 111.5,-19.5 232.5,-19.5 232.5,-0.5 111.5,-0.5"/>
<text text-anchor="middle" x="172" y="-7.5" font-family="Helvetica,sans-Serif" font-size="10.00">IG.Num.IVectorFunction</text>
</a>
</g>
</g>
<!-- Node3&#45;&gt;Node4 -->
<g id="edge4" class="edge"><title>Node3&#45;&gt;Node4</title>
<path fill="none" stroke="midnightblue" d="M68.3692,-26.0133C81.6331,-23.9438 96.8274,-21.573 111.387,-19.3013"/>
<polygon fill="midnightblue" stroke="midnightblue" points="67.5354,-22.601 58.1946,-27.6008 68.6146,-29.5173 67.5354,-22.601"/>
</g>
<!-- Node4&#45;&gt;Node1 -->
<g id="edge3" class="edge"><title>Node4&#45;&gt;Node1</title>
<path fill="none" stroke="#9a32cd" stroke-dasharray="5,2" d="M243.152,-12.6428C272.87,-14.498 307.778,-17.6498 339,-23 353.408,-25.469 368.822,-29.1472 382.894,-32.9276"/>
<polygon fill="#9a32cd" stroke="#9a32cd" points="243.059,-9.13141 232.871,-12.0392 242.649,-16.1194 243.059,-9.13141"/>
<text text-anchor="middle" x="303" y="-26" font-family="Helvetica,sans-Serif" font-size="10.00"> _vectorFunction</text>
</g>
</g>
</svg>
