<?xml version="1.0" encoding="UTF-8" standalone="no"?>
<!DOCTYPE svg PUBLIC "-//W3C//DTD SVG 1.1//EN"
 "http://www.w3.org/Graphics/SVG/1.1/DTD/svg11.dtd">
<!-- Generated by graphviz version 2.38.0 (20140413.2041)
 -->
<!-- Title: NUnit.Framework.TestActionAttribute Pages: 1 -->
<svg width="440pt" height="100pt"
 viewBox="0.00 0.00 440.00 99.50" xmlns="http://www.w3.org/2000/svg" xmlns:xlink="http://www.w3.org/1999/xlink">
<g id="graph0" class="graph" transform="scale(1 1) rotate(0) translate(4 95.5)">
<title>NUnit.Framework.TestActionAttribute</title>
<polygon fill="white" stroke="none" points="-4,4 -4,-95.5 436,-95.5 436,4 -4,4"/>
<!-- Node1 -->
<g id="node1" class="node"><title>Node1</title>
<g id="a_node1"><a xlink:title="Provide actions to execute before and after tests.">
<polygon fill="#bfbfbf" stroke="black" points="101,-27.5 101,-57.5 242,-57.5 242,-27.5 101,-27.5"/>
<text text-anchor="start" x="109" y="-45.5" font-family="Helvetica,sans-Serif" font-size="10.00">NUnit.Framework.TestAction</text>
<text text-anchor="middle" x="171.5" y="-34.5" font-family="Helvetica,sans-Serif" font-size="10.00">Attribute</text>
</a>
</g>
</g>
<!-- Node4 -->
<g id="node4" class="node"><title>Node4</title>
<g id="a_node4"><a xlink:href="../../da/d11/classNUnit_1_1Framework_1_1Internal_1_1TestFixtureTests_1_1FixtureNotNullTestAttribute.html" target="_top" xlink:title=" ">
<polygon fill="white" stroke="black" points="278,-50 278,-91 432,-91 432,-50 278,-50"/>
<text text-anchor="start" x="286" y="-79" font-family="Helvetica,sans-Serif" font-size="10.00">NUnit.Framework.Internal.</text>
<text text-anchor="start" x="286" y="-68" font-family="Helvetica,sans-Serif" font-size="10.00">TestFixtureTests.FixtureNotNull</text>
<text text-anchor="middle" x="355" y="-57" font-family="Helvetica,sans-Serif" font-size="10.00">TestAttribute</text>
</a>
</g>
</g>
<!-- Node1&#45;&gt;Node4 -->
<g id="edge3" class="edge"><title>Node1&#45;&gt;Node4</title>
<path fill="none" stroke="midnightblue" d="M252.121,-54.7832C260.68,-56.1036 269.374,-57.4447 277.89,-58.7586"/>
<polygon fill="midnightblue" stroke="midnightblue" points="252.57,-51.3111 242.154,-53.2455 251.503,-58.2293 252.57,-51.3111"/>
</g>
<!-- Node5 -->
<g id="node5" class="node"><title>Node5</title>
<g id="a_node5"><a xlink:href="../../d8/d9c/classNUnit_1_1TestData_1_1ActionAttributeTests_1_1TaggedActionAttribute.html" target="_top" xlink:title=" ">
<polygon fill="white" stroke="black" points="280,-0.5 280,-30.5 430,-30.5 430,-0.5 280,-0.5"/>
<text text-anchor="start" x="288" y="-18.5" font-family="Helvetica,sans-Serif" font-size="10.00">NUnit.TestData.ActionAttribute</text>
<text text-anchor="middle" x="355" y="-7.5" font-family="Helvetica,sans-Serif" font-size="10.00">Tests.TaggedActionAttribute</text>
</a>
</g>
</g>
<!-- Node1&#45;&gt;Node5 -->
<g id="edge4" class="edge"><title>Node1&#45;&gt;Node5</title>
<path fill="none" stroke="midnightblue" d="M252.05,-30.6662C261.243,-29.2986 270.591,-27.9079 279.711,-26.5513"/>
<polygon fill="midnightblue" stroke="midnightblue" points="251.53,-27.2049 242.154,-32.1383 252.56,-34.1287 251.53,-27.2049"/>
</g>
<!-- Node2 -->
<g id="node2" class="node"><title>Node2</title>
<g id="a_node2"><a xlink:title=" ">
<polygon fill="white" stroke="#bfbfbf" points="6,-52 6,-71 59,-71 59,-52 6,-52"/>
<text text-anchor="middle" x="32.5" y="-59" font-family="Helvetica,sans-Serif" font-size="10.00">Attribute</text>
</a>
</g>
</g>
<!-- Node2&#45;&gt;Node1 -->
<g id="edge1" class="edge"><title>Node2&#45;&gt;Node1</title>
<path fill="none" stroke="midnightblue" d="M69.3381,-56.5298C79.0828,-55.1783 89.9789,-53.6672 100.912,-52.1509"/>
<polygon fill="midnightblue" stroke="midnightblue" points="68.693,-53.0856 59.2687,-57.9262 69.6547,-60.0193 68.693,-53.0856"/>
</g>
<!-- Node3 -->
<g id="node3" class="node"><title>Node3</title>
<g id="a_node3"><a xlink:href="../../d9/d1f/interfaceNUnit_1_1Framework_1_1ITestAction.html" target="_top" xlink:title="When implemented by an attribute, this interface implemented to provide actions to execute before and...">
<polygon fill="white" stroke="black" points="0,-14 0,-33 65,-33 65,-14 0,-14"/>
<text text-anchor="middle" x="32.5" y="-21" font-family="Helvetica,sans-Serif" font-size="10.00">ITestAction</text>
</a>
</g>
</g>
<!-- Node3&#45;&gt;Node1 -->
<g id="edge2" class="edge"><title>Node3&#45;&gt;Node1</title>
<path fill="none" stroke="midnightblue" d="M75.2586,-29.2913C83.4292,-30.4245 92.2019,-31.6411 100.997,-32.8608"/>
<polygon fill="midnightblue" stroke="midnightblue" points="75.6609,-25.8137 65.2749,-27.9067 74.6993,-32.7474 75.6609,-25.8137"/>
</g>
</g>
</svg>
