<?xml version="1.0" encoding="UTF-8" standalone="no"?>
<!DOCTYPE svg PUBLIC "-//W3C//DTD SVG 1.1//EN"
 "http://www.w3.org/Graphics/SVG/1.1/DTD/svg11.dtd">
<!-- Generated by graphviz version 2.38.0 (20140413.2041)
 -->
<!-- Title: IG.NumExperimental.ResponseEvaluatorWithStorageVector Pages: 1 -->
<svg width="351pt" height="88pt"
 viewBox="0.00 0.00 351.00 88.00" xmlns="http://www.w3.org/2000/svg" xmlns:xlink="http://www.w3.org/1999/xlink">
<g id="graph0" class="graph" transform="scale(1 1) rotate(0) translate(4 84)">
<title>IG.NumExperimental.ResponseEvaluatorWithStorageVector</title>
<polygon fill="white" stroke="none" points="-4,4 -4,-84 347,-84 347,4 -4,4"/>
<!-- Node1 -->
<g id="node1" class="node"><title>Node1</title>
<g id="a_node1"><a xlink:title="Base class for response evaluators where response is evaluated by objects of type IAnalysis .">
<polygon fill="#bfbfbf" stroke="black" points="190,-19 190,-49 343,-49 343,-19 190,-19"/>
<text text-anchor="start" x="198" y="-37" font-family="Helvetica,sans-Serif" font-size="10.00">IG.NumExperimental.Response</text>
<text text-anchor="middle" x="266.5" y="-26" font-family="Helvetica,sans-Serif" font-size="10.00">EvaluatorWithStorageVector</text>
</a>
</g>
</g>
<!-- Node2 -->
<g id="node2" class="node"><title>Node2</title>
<g id="a_node2"><a xlink:href="../../dc/dc7/classIG_1_1NumExperimental_1_1ResponseEvaluatorWithStorageBase.html" target="_top" xlink:title=" ">
<polygon fill="white" stroke="black" points="0,-38.5 0,-79.5 154,-79.5 154,-38.5 0,-38.5"/>
<text text-anchor="start" x="8" y="-67.5" font-family="Helvetica,sans-Serif" font-size="10.00">ResponseEvaluatorWithStorage</text>
<text text-anchor="start" x="8" y="-56.5" font-family="Helvetica,sans-Serif" font-size="10.00">Base&lt; VectorFunctionResults,</text>
<text text-anchor="middle" x="77" y="-45.5" font-family="Helvetica,sans-Serif" font-size="10.00"> IVectorFunction &gt;</text>
</a>
</g>
</g>
<!-- Node2&#45;&gt;Node1 -->
<g id="edge1" class="edge"><title>Node2&#45;&gt;Node1</title>
<path fill="none" stroke="midnightblue" d="M164.26,-47.4987C172.823,-46.357 181.47,-45.2041 189.912,-44.0784"/>
<polygon fill="midnightblue" stroke="midnightblue" points="163.713,-44.0405 154.263,-48.8315 164.638,-50.9791 163.713,-44.0405"/>
</g>
<!-- Node3 -->
<g id="node3" class="node"><title>Node3</title>
<g id="a_node3"><a xlink:href="../../d3/db6/interfaceIG_1_1Lib_1_1ILockable.html" target="_top" xlink:title="Lockable object, has a Lock property that returns object on which lock must be performed in order to ...">
<polygon fill="white" stroke="black" points="48,-0.5 48,-19.5 106,-19.5 106,-0.5 48,-0.5"/>
<text text-anchor="middle" x="77" y="-7.5" font-family="Helvetica,sans-Serif" font-size="10.00">ILockable</text>
</a>
</g>
</g>
<!-- Node3&#45;&gt;Node1 -->
<g id="edge2" class="edge"><title>Node3&#45;&gt;Node1</title>
<path fill="none" stroke="midnightblue" d="M116.263,-14.8976C137.442,-17.6086 164.524,-21.075 189.789,-24.3089"/>
<polygon fill="midnightblue" stroke="midnightblue" points="116.434,-11.3911 106.071,-13.593 115.545,-18.3344 116.434,-11.3911"/>
</g>
</g>
</svg>
