<?xml version="1.0" encoding="UTF-8" standalone="no"?>
<!DOCTYPE svg PUBLIC "-//W3C//DTD SVG 1.1//EN"
 "http://www.w3.org/Graphics/SVG/1.1/DTD/svg11.dtd">
<!-- Generated by graphviz version 2.38.0 (20140413.2041)
 -->
<!-- Title: AForge.Math.Geometry.IShapeOptimizer Pages: 1 -->
<svg width="342pt" height="137pt"
 viewBox="0.00 0.00 342.00 137.00" xmlns="http://www.w3.org/2000/svg" xmlns:xlink="http://www.w3.org/1999/xlink">
<g id="graph0" class="graph" transform="scale(1 1) rotate(0) translate(4 133)">
<title>AForge.Math.Geometry.IShapeOptimizer</title>
<polygon fill="white" stroke="none" points="-4,4 -4,-133 338,-133 338,4 -4,4"/>
<!-- Node1 -->
<g id="node1" class="node"><title>Node1</title>
<g id="a_node1"><a xlink:title="Interface for shape optimizing algorithms.">
<polygon fill="#bfbfbf" stroke="black" points="0,-49.5 0,-79.5 152,-79.5 152,-49.5 0,-49.5"/>
<text text-anchor="start" x="8" y="-67.5" font-family="Helvetica,sans-Serif" font-size="10.00">AForge.Math.Geometry.IShape</text>
<text text-anchor="middle" x="76" y="-56.5" font-family="Helvetica,sans-Serif" font-size="10.00">Optimizer</text>
</a>
</g>
</g>
<!-- Node2 -->
<g id="node2" class="node"><title>Node2</title>
<g id="a_node2"><a xlink:href="../../d6/d3a/classAForge_1_1Math_1_1Geometry_1_1ClosePointsMergingOptimizer.html" target="_top" xlink:title="Shape optimizer, which merges points within close distance to each other.">
<polygon fill="white" stroke="black" points="188,-98.5 188,-128.5 334,-128.5 334,-98.5 188,-98.5"/>
<text text-anchor="start" x="196" y="-116.5" font-family="Helvetica,sans-Serif" font-size="10.00">AForge.Math.Geometry.Close</text>
<text text-anchor="middle" x="261" y="-105.5" font-family="Helvetica,sans-Serif" font-size="10.00">PointsMergingOptimizer</text>
</a>
</g>
</g>
<!-- Node1&#45;&gt;Node2 -->
<g id="edge1" class="edge"><title>Node1&#45;&gt;Node2</title>
<path fill="none" stroke="midnightblue" d="M143.285,-82.2485C163.119,-87.5591 184.667,-93.3288 203.787,-98.4484"/>
<polygon fill="midnightblue" stroke="midnightblue" points="143.964,-78.8071 133.399,-79.6014 142.154,-85.5689 143.964,-78.8071"/>
</g>
<!-- Node3 -->
<g id="node3" class="node"><title>Node3</title>
<g id="a_node3"><a xlink:href="../../d4/d30/classAForge_1_1Math_1_1Geometry_1_1FlatAnglesOptimizer.html" target="_top" xlink:title="Shape optimizer, which removes obtuse angles (close to flat) from a shape.">
<polygon fill="white" stroke="black" points="192,-49.5 192,-79.5 330,-79.5 330,-49.5 192,-49.5"/>
<text text-anchor="start" x="200" y="-67.5" font-family="Helvetica,sans-Serif" font-size="10.00">AForge.Math.Geometry.Flat</text>
<text text-anchor="middle" x="261" y="-56.5" font-family="Helvetica,sans-Serif" font-size="10.00">AnglesOptimizer</text>
</a>
</g>
</g>
<!-- Node1&#45;&gt;Node3 -->
<g id="edge2" class="edge"><title>Node1&#45;&gt;Node3</title>
<path fill="none" stroke="midnightblue" d="M162.439,-64.5C172.291,-64.5 182.237,-64.5 191.817,-64.5"/>
<polygon fill="midnightblue" stroke="midnightblue" points="162.225,-61.0001 152.225,-64.5 162.225,-68.0001 162.225,-61.0001"/>
</g>
<!-- Node4 -->
<g id="node4" class="node"><title>Node4</title>
<g id="a_node4"><a xlink:href="../../db/d3f/classAForge_1_1Math_1_1Geometry_1_1LineStraighteningOptimizer.html" target="_top" xlink:title="Shape optimizer, which removes points within close range to shapes&#39; body.">
<polygon fill="white" stroke="black" points="191,-0.5 191,-30.5 331,-30.5 331,-0.5 191,-0.5"/>
<text text-anchor="start" x="199" y="-18.5" font-family="Helvetica,sans-Serif" font-size="10.00">AForge.Math.Geometry.Line</text>
<text text-anchor="middle" x="261" y="-7.5" font-family="Helvetica,sans-Serif" font-size="10.00">StraighteningOptimizer</text>
</a>
</g>
</g>
<!-- Node1&#45;&gt;Node4 -->
<g id="edge3" class="edge"><title>Node1&#45;&gt;Node4</title>
<path fill="none" stroke="midnightblue" d="M143.285,-46.7515C163.119,-41.4409 184.667,-35.6712 203.787,-30.5516"/>
<polygon fill="midnightblue" stroke="midnightblue" points="142.154,-43.4311 133.399,-49.3986 143.964,-50.1929 142.154,-43.4311"/>
</g>
</g>
</svg>
