<?xml version="1.0" encoding="UTF-8" standalone="no"?>
<!DOCTYPE svg PUBLIC "-//W3C//DTD SVG 1.1//EN"
 "http://www.w3.org/Graphics/SVG/1.1/DTD/svg11.dtd">
<!-- Generated by graphviz version 2.38.0 (20140413.2041)
 -->
<!-- Title: NUnit.Common.CommandLineOptions Pages: 1 -->
<svg width="314pt" height="151pt"
 viewBox="0.00 0.00 314.00 151.00" xmlns="http://www.w3.org/2000/svg" xmlns:xlink="http://www.w3.org/1999/xlink">
<g id="graph0" class="graph" transform="scale(1 1) rotate(0) translate(4 147)">
<title>NUnit.Common.CommandLineOptions</title>
<polygon fill="white" stroke="none" points="-4,4 -4,-147 310,-147 310,4 -4,4"/>
<!-- Node1 -->
<g id="node1" class="node"><title>Node1</title>
<g id="a_node1"><a xlink:title="CommandLineOptions is the base class the specific option classes used for nunit3&#45;console and nunitlit...">
<polygon fill="#bfbfbf" stroke="black" points="84.5,-56.5 84.5,-86.5 232.5,-86.5 232.5,-56.5 84.5,-56.5"/>
<text text-anchor="start" x="92.5" y="-74.5" font-family="Helvetica,sans-Serif" font-size="10.00">NUnit.Common.CommandLine</text>
<text text-anchor="middle" x="158.5" y="-63.5" font-family="Helvetica,sans-Serif" font-size="10.00">Options</text>
</a>
</g>
</g>
<!-- Node3 -->
<g id="node3" class="node"><title>Node3</title>
<g id="a_node3"><a xlink:href="../../d4/d86/classNUnit_1_1Common_1_1ConsoleOptions.html" target="_top" xlink:title="ConsoleOptions encapsulates the option settings for the nunit3&#45;console program.">
<polygon fill="white" stroke="black" points="0,-0.5 0,-19.5 155,-19.5 155,-0.5 0,-0.5"/>
<text text-anchor="middle" x="77.5" y="-7.5" font-family="Helvetica,sans-Serif" font-size="10.00">NUnit.Common.ConsoleOptions</text>
</a>
</g>
</g>
<!-- Node1&#45;&gt;Node3 -->
<g id="edge2" class="edge"><title>Node1&#45;&gt;Node3</title>
<path fill="none" stroke="midnightblue" d="M130.849,-50.1886C116.668,-39.7719 100.143,-27.6329 89.2862,-19.6578"/>
<polygon fill="midnightblue" stroke="midnightblue" points="129.173,-53.2999 139.304,-56.3993 133.317,-47.6584 129.173,-53.2999"/>
</g>
<!-- Node4 -->
<g id="node4" class="node"><title>Node4</title>
<g id="a_node4"><a xlink:href="../../d1/d00/classNUnitLite_1_1NUnitLiteOptions.html" target="_top" xlink:title="NUnitLiteOptions encapsulates the option settings for NUnitLite. Currently, there are no additional o...">
<polygon fill="white" stroke="black" points="173,-0.5 173,-19.5 306,-19.5 306,-0.5 173,-0.5"/>
<text text-anchor="middle" x="239.5" y="-7.5" font-family="Helvetica,sans-Serif" font-size="10.00">NUnitLite.NUnitLiteOptions</text>
</a>
</g>
</g>
<!-- Node1&#45;&gt;Node4 -->
<g id="edge3" class="edge"><title>Node1&#45;&gt;Node4</title>
<path fill="none" stroke="midnightblue" d="M186.151,-50.1886C200.332,-39.7719 216.857,-27.6329 227.714,-19.6578"/>
<polygon fill="midnightblue" stroke="midnightblue" points="183.683,-47.6584 177.696,-56.3993 187.827,-53.2999 183.683,-47.6584"/>
</g>
<!-- Node2 -->
<g id="node2" class="node"><title>Node2</title>
<g id="a_node2"><a xlink:title=" ">
<polygon fill="white" stroke="#bfbfbf" points="128.5,-123.5 128.5,-142.5 188.5,-142.5 188.5,-123.5 128.5,-123.5"/>
<text text-anchor="middle" x="158.5" y="-130.5" font-family="Helvetica,sans-Serif" font-size="10.00">OptionSet</text>
</a>
</g>
</g>
<!-- Node2&#45;&gt;Node1 -->
<g id="edge1" class="edge"><title>Node2&#45;&gt;Node1</title>
<path fill="none" stroke="midnightblue" d="M158.5,-113.235C158.5,-104.586 158.5,-94.4969 158.5,-86.523"/>
<polygon fill="midnightblue" stroke="midnightblue" points="155,-113.475 158.5,-123.475 162,-113.475 155,-113.475"/>
</g>
</g>
</svg>
