<?xml version="1.0" encoding="UTF-8" standalone="no"?>
<!DOCTYPE svg PUBLIC "-//W3C//DTD SVG 1.1//EN"
 "http://www.w3.org/Graphics/SVG/1.1/DTD/svg11.dtd">
<!-- Generated by graphviz version 2.38.0 (20140413.2041)
 -->
<!-- Title: DotNumerics.LinearAlgebra.CSLapack.DLAMCH Pages: 1 -->
<svg width="788pt" height="165pt"
 viewBox="0.00 0.00 788.00 164.50" xmlns="http://www.w3.org/2000/svg" xmlns:xlink="http://www.w3.org/1999/xlink">
<g id="graph0" class="graph" transform="scale(1 1) rotate(0) translate(4 160.5)">
<title>DotNumerics.LinearAlgebra.CSLapack.DLAMCH</title>
<polygon fill="white" stroke="none" points="-4,4 -4,-160.5 784,-160.5 784,4 -4,4"/>
<!-- Node1 -->
<g id="node1" class="node"><title>Node1</title>
<g id="a_node1"><a xlink:title="– LAPACK auxiliary routine (version 3.1) – Univ. of Tennessee, Univ. of California Berkeley and NAG L...">
<polygon fill="#bfbfbf" stroke="black" points="642,-100.5 642,-130.5 780,-130.5 780,-100.5 642,-100.5"/>
<text text-anchor="start" x="650" y="-118.5" font-family="Helvetica,sans-Serif" font-size="10.00">DotNumerics.LinearAlgebra.</text>
<text text-anchor="middle" x="711" y="-107.5" font-family="Helvetica,sans-Serif" font-size="10.00">CSLapack.DLAMCH</text>
</a>
</g>
</g>
<!-- Node2 -->
<g id="node2" class="node"><title>Node2</title>
<g id="a_node2"><a xlink:href="../../dd/dac/classDotNumerics_1_1LinearAlgebra_1_1CSLapack_1_1LSAME.html" target="_top" xlink:title="– LAPACK auxiliary routine (version 3.1) – Univ. of Tennessee, Univ. of California Berkeley and NAG L...">
<polygon fill="white" stroke="black" points="428,-121.5 428,-151.5 566,-151.5 566,-121.5 428,-121.5"/>
<text text-anchor="start" x="436" y="-139.5" font-family="Helvetica,sans-Serif" font-size="10.00">DotNumerics.LinearAlgebra.</text>
<text text-anchor="middle" x="497" y="-128.5" font-family="Helvetica,sans-Serif" font-size="10.00">CSLapack.LSAME</text>
</a>
</g>
</g>
<!-- Node2&#45;&gt;Node1 -->
<g id="edge1" class="edge"><title>Node2&#45;&gt;Node1</title>
<path fill="none" stroke="#9a32cd" stroke-dasharray="5,2" d="M576.328,-128.741C597.843,-126.61 620.993,-124.317 641.883,-122.247"/>
<polygon fill="#9a32cd" stroke="#9a32cd" points="575.851,-125.271 566.245,-129.74 576.541,-132.237 575.851,-125.271"/>
<text text-anchor="middle" x="604" y="-130.5" font-family="Helvetica,sans-Serif" font-size="10.00"> _lsame</text>
</g>
<!-- Node3 -->
<g id="node3" class="node"><title>Node3</title>
<g id="a_node3"><a xlink:href="../../dc/ddd/classDotNumerics_1_1LinearAlgebra_1_1CSLapack_1_1DLAMC2.html" target="_top" xlink:title="– LAPACK auxiliary routine (version 3.1) – Univ. of Tennessee, Univ. of California Berkeley and NAG L...">
<polygon fill="white" stroke="black" points="428,-72.5 428,-102.5 566,-102.5 566,-72.5 428,-72.5"/>
<text text-anchor="start" x="436" y="-90.5" font-family="Helvetica,sans-Serif" font-size="10.00">DotNumerics.LinearAlgebra.</text>
<text text-anchor="middle" x="497" y="-79.5" font-family="Helvetica,sans-Serif" font-size="10.00">CSLapack.DLAMC2</text>
</a>
</g>
</g>
<!-- Node3&#45;&gt;Node1 -->
<g id="edge2" class="edge"><title>Node3&#45;&gt;Node1</title>
<path fill="none" stroke="#9a32cd" stroke-dasharray="5,2" d="M576.328,-97.8453C597.843,-100.687 620.993,-103.744 641.883,-106.503"/>
<polygon fill="#9a32cd" stroke="#9a32cd" points="576.617,-94.3531 566.245,-96.5135 575.701,-101.293 576.617,-94.3531"/>
<text text-anchor="middle" x="604" y="-107.5" font-family="Helvetica,sans-Serif" font-size="10.00"> _dlamc2</text>
</g>
<!-- Node4 -->
<g id="node4" class="node"><title>Node4</title>
<g id="a_node4"><a xlink:href="../../d5/db1/classDotNumerics_1_1LinearAlgebra_1_1CSLapack_1_1DLAMC1.html" target="_top" xlink:title="– LAPACK auxiliary routine (version 3.1) – Univ. of Tennessee, Univ. of California Berkeley and NAG L...">
<polygon fill="white" stroke="black" points="214,-98.5 214,-128.5 352,-128.5 352,-98.5 214,-98.5"/>
<text text-anchor="start" x="222" y="-116.5" font-family="Helvetica,sans-Serif" font-size="10.00">DotNumerics.LinearAlgebra.</text>
<text text-anchor="middle" x="283" y="-105.5" font-family="Helvetica,sans-Serif" font-size="10.00">CSLapack.DLAMC1</text>
</a>
</g>
</g>
<!-- Node4&#45;&gt;Node3 -->
<g id="edge3" class="edge"><title>Node4&#45;&gt;Node3</title>
<path fill="none" stroke="#9a32cd" stroke-dasharray="5,2" d="M362.328,-103.894C383.843,-101.255 406.993,-98.4159 427.883,-95.854"/>
<polygon fill="#9a32cd" stroke="#9a32cd" points="361.745,-100.439 352.245,-105.13 362.597,-107.387 361.745,-100.439"/>
<text text-anchor="middle" x="390" y="-106.5" font-family="Helvetica,sans-Serif" font-size="10.00"> _dlamc1</text>
</g>
<!-- Node5 -->
<g id="node5" class="node"><title>Node5</title>
<g id="a_node5"><a xlink:href="../../db/dbb/classDotNumerics_1_1LinearAlgebra_1_1CSLapack_1_1DLAMC3.html" target="_top" xlink:title="– LAPACK auxiliary routine (version 3.1) – Univ. of Tennessee, Univ. of California Berkeley and NAG L...">
<polygon fill="white" stroke="black" points="0,-72.5 0,-102.5 138,-102.5 138,-72.5 0,-72.5"/>
<text text-anchor="start" x="8" y="-90.5" font-family="Helvetica,sans-Serif" font-size="10.00">DotNumerics.LinearAlgebra.</text>
<text text-anchor="middle" x="69" y="-79.5" font-family="Helvetica,sans-Serif" font-size="10.00">CSLapack.DLAMC3</text>
</a>
</g>
</g>
<!-- Node5&#45;&gt;Node3 -->
<g id="edge5" class="edge"><title>Node5&#45;&gt;Node3</title>
<path fill="none" stroke="#9a32cd" stroke-dasharray="5,2" d="M111.829,-106.691C140.027,-118.524 178.435,-132.54 214,-138.5 274.49,-148.636 291.51,-148.636 352,-138.5 387.353,-132.576 394.39,-123.963 428,-111.5 435.982,-108.54 444.521,-105.459 452.759,-102.531"/>
<polygon fill="#9a32cd" stroke="#9a32cd" points="112.873,-103.331 102.302,-102.613 110.118,-109.766 112.873,-103.331"/>
<text text-anchor="middle" x="283" y="-148.5" font-family="Helvetica,sans-Serif" font-size="10.00"> _dlamc3</text>
</g>
<!-- Node5&#45;&gt;Node4 -->
<g id="edge4" class="edge"><title>Node5&#45;&gt;Node4</title>
<path fill="none" stroke="#9a32cd" stroke-dasharray="5,2" d="M148.328,-97.1063C169.843,-99.7449 192.993,-102.584 213.883,-105.146"/>
<polygon fill="#9a32cd" stroke="#9a32cd" points="148.597,-93.6131 138.245,-95.8697 147.745,-100.561 148.597,-93.6131"/>
<text text-anchor="middle" x="176" y="-106.5" font-family="Helvetica,sans-Serif" font-size="10.00"> _dlamc3</text>
</g>
<!-- Node6 -->
<g id="node6" class="node"><title>Node6</title>
<g id="a_node6"><a xlink:href="../../de/dd1/classDotNumerics_1_1LinearAlgebra_1_1CSLapack_1_1DLAMC4.html" target="_top" xlink:title="– LAPACK auxiliary routine (version 3.1) – Univ. of Tennessee, Univ. of California Berkeley and NAG L...">
<polygon fill="white" stroke="black" points="214,-49.5 214,-79.5 352,-79.5 352,-49.5 214,-49.5"/>
<text text-anchor="start" x="222" y="-67.5" font-family="Helvetica,sans-Serif" font-size="10.00">DotNumerics.LinearAlgebra.</text>
<text text-anchor="middle" x="283" y="-56.5" font-family="Helvetica,sans-Serif" font-size="10.00">CSLapack.DLAMC4</text>
</a>
</g>
</g>
<!-- Node5&#45;&gt;Node6 -->
<g id="edge7" class="edge"><title>Node5&#45;&gt;Node6</title>
<path fill="none" stroke="#9a32cd" stroke-dasharray="5,2" d="M148.407,-74.4352C150.966,-74.105 153.502,-73.7919 156,-73.5 174.733,-71.3107 195.099,-69.5766 213.888,-68.239"/>
<polygon fill="#9a32cd" stroke="#9a32cd" points="147.896,-70.9724 138.457,-75.7854 148.837,-77.9088 147.896,-70.9724"/>
<text text-anchor="middle" x="176" y="-76.5" font-family="Helvetica,sans-Serif" font-size="10.00"> _dlamc3</text>
</g>
<!-- Node7 -->
<g id="node7" class="node"><title>Node7</title>
<g id="a_node7"><a xlink:href="../../d7/d30/classDotNumerics_1_1LinearAlgebra_1_1CSLapack_1_1DLAMC5.html" target="_top" xlink:title="– LAPACK auxiliary routine (version 3.1) – Univ. of Tennessee, Univ. of California Berkeley and NAG L...">
<polygon fill="white" stroke="black" points="214,-0.5 214,-30.5 352,-30.5 352,-0.5 214,-0.5"/>
<text text-anchor="start" x="222" y="-18.5" font-family="Helvetica,sans-Serif" font-size="10.00">DotNumerics.LinearAlgebra.</text>
<text text-anchor="middle" x="283" y="-7.5" font-family="Helvetica,sans-Serif" font-size="10.00">CSLapack.DLAMC5</text>
</a>
</g>
</g>
<!-- Node5&#45;&gt;Node7 -->
<g id="edge9" class="edge"><title>Node5&#45;&gt;Node7</title>
<path fill="none" stroke="#9a32cd" stroke-dasharray="5,2" d="M118.749,-68.8899C130.877,-64.3901 143.878,-59.6767 156,-55.5 181.171,-46.8275 209.401,-37.8015 232.75,-30.5231"/>
<polygon fill="#9a32cd" stroke="#9a32cd" points="117.387,-65.6623 109.243,-72.4386 119.835,-72.2202 117.387,-65.6623"/>
<text text-anchor="middle" x="176" y="-58.5" font-family="Helvetica,sans-Serif" font-size="10.00"> _dlamc3</text>
</g>
<!-- Node6&#45;&gt;Node3 -->
<g id="edge6" class="edge"><title>Node6&#45;&gt;Node3</title>
<path fill="none" stroke="#9a32cd" stroke-dasharray="5,2" d="M362.375,-68.9988C378.167,-70.2145 394.633,-71.7041 410,-73.5 415.709,-74.1673 421.619,-74.9449 427.543,-75.7854"/>
<polygon fill="#9a32cd" stroke="#9a32cd" points="362.344,-65.487 352.112,-68.239 361.827,-72.4679 362.344,-65.487"/>
<text text-anchor="middle" x="390" y="-76.5" font-family="Helvetica,sans-Serif" font-size="10.00"> _dlamc4</text>
</g>
<!-- Node7&#45;&gt;Node3 -->
<g id="edge8" class="edge"><title>Node7&#45;&gt;Node3</title>
<path fill="none" stroke="#9a32cd" stroke-dasharray="5,2" d="M343.08,-33.601C364.261,-40.263 388.271,-48.0132 410,-55.5 425.363,-60.7933 442.136,-66.9485 456.757,-72.4386"/>
<polygon fill="#9a32cd" stroke="#9a32cd" points="343.839,-30.1711 333.25,-30.5231 341.747,-36.8513 343.839,-30.1711"/>
<text text-anchor="middle" x="390" y="-58.5" font-family="Helvetica,sans-Serif" font-size="10.00"> _dlamc5</text>
</g>
</g>
</svg>
