<?xml version="1.0" encoding="UTF-8" standalone="no"?>
<!DOCTYPE svg PUBLIC "-//W3C//DTD SVG 1.1//EN"
 "http://www.w3.org/Graphics/SVG/1.1/DTD/svg11.dtd">
<!-- Generated by graphviz version 2.38.0 (20140413.2041)
 -->
<!-- Title: AForge.Imaging.Filters.ResizeBilinear Pages: 1 -->
<svg width="168pt" height="207pt"
 viewBox="0.00 0.00 168.00 207.00" xmlns="http://www.w3.org/2000/svg" xmlns:xlink="http://www.w3.org/1999/xlink">
<g id="graph0" class="graph" transform="scale(1 1) rotate(0) translate(4 203)">
<title>AForge.Imaging.Filters.ResizeBilinear</title>
<polygon fill="white" stroke="none" points="-4,4 -4,-203 164,-203 164,4 -4,4"/>
<!-- Node1 -->
<g id="node1" class="node"><title>Node1</title>
<g id="a_node1"><a xlink:title="Resize image using bilinear interpolation algorithm.">
<polygon fill="#bfbfbf" stroke="black" points="0,-0.5 0,-30.5 148,-30.5 148,-0.5 0,-0.5"/>
<text text-anchor="start" x="8" y="-18.5" font-family="Helvetica,sans-Serif" font-size="10.00">AForge.Imaging.Filters.Resize</text>
<text text-anchor="middle" x="74" y="-7.5" font-family="Helvetica,sans-Serif" font-size="10.00">Bilinear</text>
</a>
</g>
</g>
<!-- Node2 -->
<g id="node2" class="node"><title>Node2</title>
<g id="a_node2"><a xlink:href="../../df/d41/classAForge_1_1Imaging_1_1Filters_1_1BaseResizeFilter.html" target="_top" xlink:title="Base class for image resizing filters.">
<polygon fill="white" stroke="black" points="28.5,-67.5 28.5,-86.5 119.5,-86.5 119.5,-67.5 28.5,-67.5"/>
<text text-anchor="middle" x="74" y="-74.5" font-family="Helvetica,sans-Serif" font-size="10.00">BaseResizeFilter</text>
</a>
</g>
</g>
<!-- Node2&#45;&gt;Node1 -->
<g id="edge1" class="edge"><title>Node2&#45;&gt;Node1</title>
<path fill="none" stroke="midnightblue" d="M74,-57.2349C74,-48.5864 74,-38.4969 74,-30.523"/>
<polygon fill="midnightblue" stroke="midnightblue" points="70.5001,-57.4751 74,-67.4751 77.5001,-57.4751 70.5001,-57.4751"/>
</g>
<!-- Node3 -->
<g id="node3" class="node"><title>Node3</title>
<g id="a_node3"><a xlink:href="../../dc/d45/classAForge_1_1Imaging_1_1Filters_1_1BaseTransformationFilter.html" target="_top" xlink:title="Base class for filters, which may produce new image of different size as a result of image processing...">
<polygon fill="white" stroke="black" points="11.5,-123.5 11.5,-142.5 136.5,-142.5 136.5,-123.5 11.5,-123.5"/>
<text text-anchor="middle" x="74" y="-130.5" font-family="Helvetica,sans-Serif" font-size="10.00">BaseTransformationFilter</text>
</a>
</g>
</g>
<!-- Node3&#45;&gt;Node2 -->
<g id="edge2" class="edge"><title>Node3&#45;&gt;Node2</title>
<path fill="none" stroke="midnightblue" d="M74,-112.805C74,-103.91 74,-93.7798 74,-86.7511"/>
<polygon fill="midnightblue" stroke="midnightblue" points="70.5001,-113.083 74,-123.083 77.5001,-113.083 70.5001,-113.083"/>
</g>
<!-- Node4 -->
<g id="node4" class="node"><title>Node4</title>
<g id="a_node4"><a xlink:href="../../dd/d51/interfaceAForge_1_1Imaging_1_1Filters_1_1IFilter.html" target="_top" xlink:title="Image processing filter interface.">
<polygon fill="white" stroke="black" points="12.5,-179.5 12.5,-198.5 53.5,-198.5 53.5,-179.5 12.5,-179.5"/>
<text text-anchor="middle" x="33" y="-186.5" font-family="Helvetica,sans-Serif" font-size="10.00">IFilter</text>
</a>
</g>
</g>
<!-- Node4&#45;&gt;Node3 -->
<g id="edge3" class="edge"><title>Node4&#45;&gt;Node3</title>
<path fill="none" stroke="midnightblue" d="M46.0172,-170.855C53.1167,-161.505 61.604,-150.327 67.3557,-142.751"/>
<polygon fill="midnightblue" stroke="midnightblue" points="43.0299,-169.002 39.7703,-179.083 48.605,-173.235 43.0299,-169.002"/>
</g>
<!-- Node5 -->
<g id="node5" class="node"><title>Node5</title>
<g id="a_node5"><a xlink:href="../../d7/dec/interfaceAForge_1_1Imaging_1_1Filters_1_1IFilterInformation.html" target="_top" xlink:title="Interface which provides information about image processing filter.">
<polygon fill="white" stroke="black" points="72,-179.5 72,-198.5 160,-198.5 160,-179.5 72,-179.5"/>
<text text-anchor="middle" x="116" y="-186.5" font-family="Helvetica,sans-Serif" font-size="10.00">IFilterInformation</text>
</a>
</g>
</g>
<!-- Node5&#45;&gt;Node3 -->
<g id="edge4" class="edge"><title>Node5&#45;&gt;Node3</title>
<path fill="none" stroke="midnightblue" d="M102.89,-171.144C95.5722,-161.736 86.7591,-150.405 80.8064,-142.751"/>
<polygon fill="midnightblue" stroke="midnightblue" points="100.162,-173.338 109.065,-179.083 105.688,-169.041 100.162,-173.338"/>
</g>
</g>
</svg>
