<?xml version="1.0" encoding="UTF-8" standalone="no"?>
<!DOCTYPE svg PUBLIC "-//W3C//DTD SVG 1.1//EN"
 "http://www.w3.org/Graphics/SVG/1.1/DTD/svg11.dtd">
<!-- Generated by graphviz version 2.38.0 (20140413.2041)
 -->
<!-- Title: NUnit.Common.TestSelectionParser Pages: 1 -->
<svg width="237pt" height="283pt"
 viewBox="0.00 0.00 237.00 283.00" xmlns="http://www.w3.org/2000/svg" xmlns:xlink="http://www.w3.org/1999/xlink">
<g id="graph0" class="graph" transform="scale(1 1) rotate(0) translate(4 279)">
<title>NUnit.Common.TestSelectionParser</title>
<polygon fill="white" stroke="none" points="-4,4 -4,-279 233,-279 233,4 -4,4"/>
<!-- Node1 -->
<g id="node1" class="node"><title>Node1</title>
<g id="a_node1"><a xlink:title=" ">
<polygon fill="#bfbfbf" stroke="black" points="57.5,-0.5 57.5,-30.5 202.5,-30.5 202.5,-0.5 57.5,-0.5"/>
<text text-anchor="start" x="65.5" y="-18.5" font-family="Helvetica,sans-Serif" font-size="10.00">NUnit.Common.TestSelection</text>
<text text-anchor="middle" x="130" y="-7.5" font-family="Helvetica,sans-Serif" font-size="10.00">Parser</text>
</a>
</g>
</g>
<!-- Node2 -->
<g id="node2" class="node"><title>Node2</title>
<g id="a_node2"><a xlink:href="../../d9/d38/classNUnit_1_1Common_1_1Tokenizer.html" target="_top" xlink:title="Tokenizer class performs lexical analysis for the TestSelectionParser. It recognizes a very limited s...">
<polygon fill="white" stroke="black" points="0,-188.5 0,-207.5 128,-207.5 128,-188.5 0,-188.5"/>
<text text-anchor="middle" x="64" y="-195.5" font-family="Helvetica,sans-Serif" font-size="10.00">NUnit.Common.Tokenizer</text>
</a>
</g>
</g>
<!-- Node2&#45;&gt;Node1 -->
<g id="edge1" class="edge"><title>Node2&#45;&gt;Node1</title>
<path fill="none" stroke="#9a32cd" stroke-dasharray="5,2" d="M62.1809,-177.983C60.2699,-148.213 60.3715,-89.7963 85,-49 89.3829,-41.7399 96.0699,-35.6307 102.959,-30.7392"/>
<polygon fill="#9a32cd" stroke="#9a32cd" points="58.7129,-178.525 62.9956,-188.216 65.6908,-177.969 58.7129,-178.525"/>
<text text-anchor="middle" x="109.5" y="-107" font-family="Helvetica,sans-Serif" font-size="10.00"> _tokenizer</text>
</g>
<!-- Node3 -->
<g id="node3" class="node"><title>Node3</title>
<g id="a_node3"><a xlink:href="../../d3/d81/classNUnit_1_1Common_1_1Token.html" target="_top" xlink:title=" ">
<polygon fill="white" stroke="black" points="8,-255.5 8,-274.5 120,-274.5 120,-255.5 8,-255.5"/>
<text text-anchor="middle" x="64" y="-262.5" font-family="Helvetica,sans-Serif" font-size="10.00">NUnit.Common.Token</text>
</a>
</g>
</g>
<!-- Node3&#45;&gt;Node2 -->
<g id="edge2" class="edge"><title>Node3&#45;&gt;Node2</title>
<path fill="none" stroke="#9a32cd" stroke-dasharray="5,2" d="M64,-245.037C64,-232.67 64,-217.12 64,-207.627"/>
<polygon fill="#9a32cd" stroke="#9a32cd" points="60.5001,-245.234 64,-255.234 67.5001,-245.234 60.5001,-245.234"/>
<text text-anchor="middle" x="90.5" y="-229" font-family="Helvetica,sans-Serif" font-size="10.00"> _lookahead</text>
</g>
<!-- Node4 -->
<g id="node4" class="node"><title>Node4</title>
<g id="a_node4"><a xlink:title=" ">
<polygon fill="white" stroke="#bfbfbf" points="146.5,-188.5 146.5,-207.5 187.5,-207.5 187.5,-188.5 146.5,-188.5"/>
<text text-anchor="middle" x="167" y="-195.5" font-family="Helvetica,sans-Serif" font-size="10.00">static</text>
</a>
</g>
</g>
<!-- Node4&#45;&gt;Node1 -->
<g id="edge3" class="edge"><title>Node4&#45;&gt;Node1</title>
<path fill="none" stroke="#9a32cd" stroke-dasharray="5,2" d="M163.124,-178.09C155.665,-141.701 139.469,-62.6941 132.878,-30.5391"/>
<polygon fill="#9a32cd" stroke="#9a32cd" points="159.779,-179.201 165.215,-188.294 166.636,-177.795 159.779,-179.201"/>
<text text-anchor="middle" x="195" y="-162" font-family="Helvetica,sans-Serif" font-size="10.00"> EQ_OP2</text>
<text text-anchor="middle" x="195" y="-151" font-family="Helvetica,sans-Serif" font-size="10.00">REL_OPS</text>
<text text-anchor="middle" x="195" y="-140" font-family="Helvetica,sans-Serif" font-size="10.00">NE_OP</text>
<text text-anchor="middle" x="195" y="-129" font-family="Helvetica,sans-Serif" font-size="10.00">NOMATCH_OP</text>
<text text-anchor="middle" x="195" y="-118" font-family="Helvetica,sans-Serif" font-size="10.00">OR_OPS</text>
<text text-anchor="middle" x="195" y="-107" font-family="Helvetica,sans-Serif" font-size="10.00">OR_OP1</text>
<text text-anchor="middle" x="195" y="-96" font-family="Helvetica,sans-Serif" font-size="10.00">RPAREN</text>
<text text-anchor="middle" x="195" y="-85" font-family="Helvetica,sans-Serif" font-size="10.00">OR_OP2</text>
<text text-anchor="middle" x="195" y="-74" font-family="Helvetica,sans-Serif" font-size="10.00">AND_OP1</text>
<text text-anchor="middle" x="195" y="-63" font-family="Helvetica,sans-Serif" font-size="10.00">EOF</text>
<text text-anchor="middle" x="195" y="-52" font-family="Helvetica,sans-Serif" font-size="10.00">...</text>
</g>
</g>
</svg>
