<?xml version="1.0" encoding="UTF-8" standalone="no"?>
<!DOCTYPE svg PUBLIC "-//W3C//DTD SVG 1.1//EN"
 "http://www.w3.org/Graphics/SVG/1.1/DTD/svg11.dtd">
<!-- Generated by graphviz version 2.38.0 (20140413.2041)
 -->
<!-- Title: NeuronDotNet.Core.ILearningRateFunction Pages: 1 -->
<svg width="656pt" height="137pt"
 viewBox="0.00 0.00 656.00 137.00" xmlns="http://www.w3.org/2000/svg" xmlns:xlink="http://www.w3.org/1999/xlink">
<g id="graph0" class="graph" transform="scale(1 1) rotate(0) translate(4 133)">
<title>NeuronDotNet.Core.ILearningRateFunction</title>
<polygon fill="white" stroke="none" points="-4,4 -4,-133 652,-133 652,4 -4,4"/>
<!-- Node1 -->
<g id="node1" class="node"><title>Node1</title>
<g id="a_node1"><a xlink:title="Learning Rate Function interface. This interface defines the way in which learning rate changes from ...">
<polygon fill="#bfbfbf" stroke="black" points="105,-49.5 105,-79.5 248,-79.5 248,-49.5 105,-49.5"/>
<text text-anchor="start" x="113" y="-67.5" font-family="Helvetica,sans-Serif" font-size="10.00">NeuronDotNet.Core.ILearning</text>
<text text-anchor="middle" x="176.5" y="-56.5" font-family="Helvetica,sans-Serif" font-size="10.00">RateFunction</text>
</a>
</g>
</g>
<!-- Node3 -->
<g id="node3" class="node"><title>Node3</title>
<g id="a_node3"><a xlink:href="../../da/d79/classNeuronDotNet_1_1Core_1_1LearningRateFunctions_1_1AbstractFunction.html" target="_top" xlink:title="An abstract base class for a learning rate function.">
<polygon fill="white" stroke="black" points="284,-49.5 284,-79.5 441,-79.5 441,-49.5 284,-49.5"/>
<text text-anchor="start" x="292" y="-67.5" font-family="Helvetica,sans-Serif" font-size="10.00">NeuronDotNet.Core.Learning</text>
<text text-anchor="middle" x="362.5" y="-56.5" font-family="Helvetica,sans-Serif" font-size="10.00">RateFunctions.AbstractFunction</text>
</a>
</g>
</g>
<!-- Node1&#45;&gt;Node3 -->
<g id="edge2" class="edge"><title>Node1&#45;&gt;Node3</title>
<path fill="none" stroke="midnightblue" d="M258.322,-64.5C266.759,-64.5 275.324,-64.5 283.726,-64.5"/>
<polygon fill="midnightblue" stroke="midnightblue" points="258.113,-61.0001 248.113,-64.5 258.113,-68.0001 258.113,-61.0001"/>
</g>
<!-- Node2 -->
<g id="node2" class="node"><title>Node2</title>
<g id="a_node2"><a xlink:title=" ">
<polygon fill="white" stroke="#bfbfbf" points="0,-55 0,-74 69,-74 69,-55 0,-55"/>
<text text-anchor="middle" x="34.5" y="-62" font-family="Helvetica,sans-Serif" font-size="10.00">ISerializable</text>
</a>
</g>
</g>
<!-- Node2&#45;&gt;Node1 -->
<g id="edge1" class="edge"><title>Node2&#45;&gt;Node1</title>
<path fill="none" stroke="midnightblue" d="M79.0741,-64.5C87.273,-64.5 96.0389,-64.5 104.819,-64.5"/>
<polygon fill="midnightblue" stroke="midnightblue" points="79.0335,-61.0001 69.0335,-64.5 79.0335,-68.0001 79.0335,-61.0001"/>
</g>
<!-- Node4 -->
<g id="node4" class="node"><title>Node4</title>
<g id="a_node4"><a xlink:href="../../d1/dc7/classNeuronDotNet_1_1Core_1_1LearningRateFunctions_1_1ExponentialFunction.html" target="_top" xlink:title="Exponential Learning Rate Function. As training progresses, The learning rate exponentially changes f...">
<polygon fill="white" stroke="black" points="477,-98.5 477,-128.5 648,-128.5 648,-98.5 477,-98.5"/>
<text text-anchor="start" x="485" y="-116.5" font-family="Helvetica,sans-Serif" font-size="10.00">NeuronDotNet.Core.Learning</text>
<text text-anchor="middle" x="562.5" y="-105.5" font-family="Helvetica,sans-Serif" font-size="10.00">RateFunctions.ExponentialFunction</text>
</a>
</g>
</g>
<!-- Node3&#45;&gt;Node4 -->
<g id="edge3" class="edge"><title>Node3&#45;&gt;Node4</title>
<path fill="none" stroke="midnightblue" d="M434.121,-81.9768C455.944,-87.3775 479.777,-93.2755 500.863,-98.4938"/>
<polygon fill="midnightblue" stroke="midnightblue" points="434.8,-78.5395 424.252,-79.5346 433.118,-85.3345 434.8,-78.5395"/>
</g>
<!-- Node5 -->
<g id="node5" class="node"><title>Node5</title>
<g id="a_node5"><a xlink:href="../../d6/dc8/classNeuronDotNet_1_1Core_1_1LearningRateFunctions_1_1HyperbolicFunction.html" target="_top" xlink:title="Hyperbolic Learning Rate Function. As training progresses, The learning rate hyperbolically changes f...">
<polygon fill="white" stroke="black" points="479.5,-49.5 479.5,-79.5 645.5,-79.5 645.5,-49.5 479.5,-49.5"/>
<text text-anchor="start" x="487.5" y="-67.5" font-family="Helvetica,sans-Serif" font-size="10.00">NeuronDotNet.Core.Learning</text>
<text text-anchor="middle" x="562.5" y="-56.5" font-family="Helvetica,sans-Serif" font-size="10.00">RateFunctions.HyperbolicFunction</text>
</a>
</g>
</g>
<!-- Node3&#45;&gt;Node5 -->
<g id="edge4" class="edge"><title>Node3&#45;&gt;Node5</title>
<path fill="none" stroke="midnightblue" d="M451.287,-64.5C460.659,-64.5 470.167,-64.5 479.469,-64.5"/>
<polygon fill="midnightblue" stroke="midnightblue" points="451.187,-61.0001 441.187,-64.5 451.187,-68.0001 451.187,-61.0001"/>
</g>
<!-- Node6 -->
<g id="node6" class="node"><title>Node6</title>
<g id="a_node6"><a xlink:href="../../d3/da1/classNeuronDotNet_1_1Core_1_1LearningRateFunctions_1_1LinearFunction.html" target="_top" xlink:title="Linear Learning Rate Function. As the training progresses, the learning rate uniformly changes from i...">
<polygon fill="white" stroke="black" points="489.5,-0.5 489.5,-30.5 635.5,-30.5 635.5,-0.5 489.5,-0.5"/>
<text text-anchor="start" x="497.5" y="-18.5" font-family="Helvetica,sans-Serif" font-size="10.00">NeuronDotNet.Core.Learning</text>
<text text-anchor="middle" x="562.5" y="-7.5" font-family="Helvetica,sans-Serif" font-size="10.00">RateFunctions.LinearFunction</text>
</a>
</g>
</g>
<!-- Node3&#45;&gt;Node6 -->
<g id="edge5" class="edge"><title>Node3&#45;&gt;Node6</title>
<path fill="none" stroke="midnightblue" d="M434.121,-47.0232C455.944,-41.6225 479.777,-35.7245 500.863,-30.5062"/>
<polygon fill="midnightblue" stroke="midnightblue" points="433.118,-43.6655 424.252,-49.4654 434.8,-50.4605 433.118,-43.6655"/>
</g>
</g>
</svg>
