<?xml version="1.0" encoding="UTF-8" standalone="no"?>
<!DOCTYPE svg PUBLIC "-//W3C//DTD SVG 1.1//EN"
 "http://www.w3.org/Graphics/SVG/1.1/DTD/svg11.dtd">
<!-- Generated by graphviz version 2.38.0 (20140413.2041)
 -->
<!-- Title: IG.Neural.AnalysisFileServerNeural Pages: 1 -->
<svg width="509pt" height="88pt"
 viewBox="0.00 0.00 509.00 88.00" xmlns="http://www.w3.org/2000/svg" xmlns:xlink="http://www.w3.org/1999/xlink">
<g id="graph0" class="graph" transform="scale(1 1) rotate(0) translate(4 84)">
<title>IG.Neural.AnalysisFileServerNeural</title>
<polygon fill="white" stroke="none" points="-4,4 -4,-84 505,-84 505,4 -4,4"/>
<!-- Node1 -->
<g id="node1" class="node"><title>Node1</title>
<g id="a_node1"><a xlink:title="Class containing direct analysis (in optimization) based on neural network optimization.">
<polygon fill="#bfbfbf" stroke="black" points="185,-24.5 185,-54.5 325,-54.5 325,-24.5 185,-24.5"/>
<text text-anchor="start" x="193" y="-42.5" font-family="Helvetica,sans-Serif" font-size="10.00">IG.Neural.AnalysisFileServer</text>
<text text-anchor="middle" x="255" y="-31.5" font-family="Helvetica,sans-Serif" font-size="10.00">Neural</text>
</a>
</g>
</g>
<!-- Node4 -->
<g id="node4" class="node"><title>Node4</title>
<g id="a_node4"><a xlink:href="../../db/d90/classIG_1_1Neural_1_1AnalysisFileServerNeuralExtBase.html" target="_top" xlink:title="Analysis server based on neural approximations for IJS, for Robert&#39;s data.">
<polygon fill="white" stroke="black" points="361,-49.5 361,-79.5 501,-79.5 501,-49.5 361,-49.5"/>
<text text-anchor="start" x="369" y="-67.5" font-family="Helvetica,sans-Serif" font-size="10.00">IG.Neural.AnalysisFileServer</text>
<text text-anchor="middle" x="431" y="-56.5" font-family="Helvetica,sans-Serif" font-size="10.00">NeuralExtBase</text>
</a>
</g>
</g>
<!-- Node1&#45;&gt;Node4 -->
<g id="edge3" class="edge"><title>Node1&#45;&gt;Node4</title>
<path fill="none" stroke="midnightblue" d="M335.035,-50.8556C343.625,-52.0898 352.319,-53.339 360.779,-54.5545"/>
<polygon fill="midnightblue" stroke="midnightblue" points="335.415,-47.3744 325.019,-49.4166 334.42,-54.3033 335.415,-47.3744"/>
</g>
<!-- Node5 -->
<g id="node5" class="node"><title>Node5</title>
<g id="a_node5"><a xlink:href="../../d5/d3d/classIG_1_1Neural_1_1AnalysisFileServerNeuralStoreBase.html" target="_top" xlink:title="Analysis server based on neural approximations for IJS, for Robert&#39;s data.">
<polygon fill="white" stroke="black" points="361,-0.5 361,-30.5 501,-30.5 501,-0.5 361,-0.5"/>
<text text-anchor="start" x="369" y="-18.5" font-family="Helvetica,sans-Serif" font-size="10.00">IG.Neural.AnalysisFileServer</text>
<text text-anchor="middle" x="431" y="-7.5" font-family="Helvetica,sans-Serif" font-size="10.00">NeuralStoreBase</text>
</a>
</g>
</g>
<!-- Node1&#45;&gt;Node5 -->
<g id="edge4" class="edge"><title>Node1&#45;&gt;Node5</title>
<path fill="none" stroke="midnightblue" d="M335.035,-28.5986C343.625,-27.4138 352.319,-26.2146 360.779,-25.0477"/>
<polygon fill="midnightblue" stroke="midnightblue" points="334.447,-25.1465 325.019,-29.9801 335.404,-32.0808 334.447,-25.1465"/>
</g>
<!-- Node2 -->
<g id="node2" class="node"><title>Node2</title>
<g id="a_node2"><a xlink:href="../../d2/dba/classIG_1_1Neural_1_1ApproximationFileServerNeural.html" target="_top" xlink:title="Class for approximation file server.">
<polygon fill="white" stroke="black" points="0,-49 0,-68 149,-68 149,-49 0,-49"/>
<text text-anchor="middle" x="74.5" y="-56" font-family="Helvetica,sans-Serif" font-size="10.00">ApproximationFileServerNeural</text>
</a>
</g>
</g>
<!-- Node2&#45;&gt;Node1 -->
<g id="edge1" class="edge"><title>Node2&#45;&gt;Node1</title>
<path fill="none" stroke="midnightblue" d="M159.17,-49.5939C167.763,-48.6792 176.426,-47.7572 184.838,-46.8618"/>
<polygon fill="midnightblue" stroke="midnightblue" points="158.707,-46.1234 149.133,-50.6623 159.448,-53.0841 158.707,-46.1234"/>
</g>
<!-- Node3 -->
<g id="node3" class="node"><title>Node3</title>
<g id="a_node3"><a xlink:href="../../d5/d59/interfaceIG_1_1Num_1_1IAnalysis.html" target="_top" xlink:title="Interface for direct analysis classes used in optimization problems.">
<polygon fill="white" stroke="black" points="46.5,-11 46.5,-30 102.5,-30 102.5,-11 46.5,-11"/>
<text text-anchor="middle" x="74.5" y="-18" font-family="Helvetica,sans-Serif" font-size="10.00">IAnalysis</text>
</a>
</g>
</g>
<!-- Node3&#45;&gt;Node1 -->
<g id="edge2" class="edge"><title>Node3&#45;&gt;Node1</title>
<path fill="none" stroke="midnightblue" d="M112.662,-24.4556C133.561,-26.6801 160.321,-29.5286 184.923,-32.1473"/>
<polygon fill="midnightblue" stroke="midnightblue" points="112.925,-20.9639 102.61,-23.3857 112.184,-27.9246 112.925,-20.9639"/>
</g>
</g>
</svg>
