<?xml version="1.0" encoding="UTF-8" standalone="no"?>
<!DOCTYPE svg PUBLIC "-//W3C//DTD SVG 1.1//EN"
 "http://www.w3.org/Graphics/SVG/1.1/DTD/svg11.dtd">
<!-- Generated by graphviz version 2.38.0 (20140413.2041)
 -->
<!-- Title: BlobsExplorer.MainForm Pages: 1 -->
<svg width="334pt" height="263pt"
 viewBox="0.00 0.00 333.50 263.00" xmlns="http://www.w3.org/2000/svg" xmlns:xlink="http://www.w3.org/1999/xlink">
<g id="graph0" class="graph" transform="scale(1 1) rotate(0) translate(4 259)">
<title>BlobsExplorer.MainForm</title>
<polygon fill="white" stroke="none" points="-4,4 -4,-259 329.5,-259 329.5,4 -4,4"/>
<!-- Node1 -->
<g id="node1" class="node"><title>Node1</title>
<g id="a_node1"><a xlink:title=" ">
<polygon fill="#bfbfbf" stroke="black" points="65.5,-0.5 65.5,-19.5 189.5,-19.5 189.5,-0.5 65.5,-0.5"/>
<text text-anchor="middle" x="127.5" y="-7.5" font-family="Helvetica,sans-Serif" font-size="10.00">BlobsExplorer.MainForm</text>
</a>
</g>
</g>
<!-- Node2 -->
<g id="node2" class="node"><title>Node2</title>
<g id="a_node2"><a xlink:title=" ">
<polygon fill="white" stroke="#bfbfbf" points="0,-118 0,-137 39,-137 39,-118 0,-118"/>
<text text-anchor="middle" x="19.5" y="-125" font-family="Helvetica,sans-Serif" font-size="10.00">Form</text>
</a>
</g>
</g>
<!-- Node2&#45;&gt;Node1 -->
<g id="edge1" class="edge"><title>Node2&#45;&gt;Node1</title>
<path fill="none" stroke="midnightblue" d="M25.6515,-108.223C30.4949,-95.6873 38.1584,-79.1829 48.5,-67 66.2336,-46.1089 93.412,-29.1183 110.818,-19.5306"/>
<polygon fill="midnightblue" stroke="midnightblue" points="22.3562,-107.044 22.2494,-117.638 28.9396,-109.423 22.3562,-107.044"/>
</g>
<!-- Node3 -->
<g id="node3" class="node"><title>Node3</title>
<g id="a_node3"><a xlink:href="../../d7/d4c/classBlobsExplorer_1_1BlobsBrowser.html" target="_top" xlink:title=" ">
<polygon fill="white" stroke="black" points="57.5,-118 57.5,-137 197.5,-137 197.5,-118 57.5,-118"/>
<text text-anchor="middle" x="127.5" y="-125" font-family="Helvetica,sans-Serif" font-size="10.00">BlobsExplorer.BlobsBrowser</text>
</a>
</g>
</g>
<!-- Node3&#45;&gt;Node1 -->
<g id="edge2" class="edge"><title>Node3&#45;&gt;Node1</title>
<path fill="none" stroke="#9a32cd" stroke-dasharray="5,2" d="M127.5,-107.664C127.5,-82.3651 127.5,-38.4353 127.5,-19.782"/>
<polygon fill="#9a32cd" stroke="#9a32cd" points="124,-107.819 127.5,-117.819 131,-107.819 124,-107.819"/>
<text text-anchor="middle" x="158.5" y="-41" font-family="Helvetica,sans-Serif" font-size="10.00"> blobsBrowser</text>
</g>
<!-- Node4 -->
<g id="node4" class="node"><title>Node4</title>
<g id="a_node4"><a xlink:title=" ">
<polygon fill="white" stroke="#bfbfbf" points="104,-235.5 104,-254.5 151,-254.5 151,-235.5 104,-235.5"/>
<text text-anchor="middle" x="127.5" y="-242.5" font-family="Helvetica,sans-Serif" font-size="10.00">Control</text>
</a>
</g>
</g>
<!-- Node4&#45;&gt;Node3 -->
<g id="edge3" class="edge"><title>Node4&#45;&gt;Node3</title>
<path fill="none" stroke="midnightblue" d="M127.5,-225.164C127.5,-199.865 127.5,-155.935 127.5,-137.282"/>
<polygon fill="midnightblue" stroke="midnightblue" points="124,-225.319 127.5,-235.319 131,-225.319 124,-225.319"/>
</g>
<!-- Node5 -->
<g id="node5" class="node"><title>Node5</title>
<g id="a_node5"><a xlink:title=" ">
<polygon fill="white" stroke="#bfbfbf" points="188.5,-235.5 188.5,-254.5 238.5,-254.5 238.5,-235.5 188.5,-235.5"/>
<text text-anchor="middle" x="213.5" y="-242.5" font-family="Helvetica,sans-Serif" font-size="10.00">System</text>
</a>
</g>
</g>
<!-- Node5&#45;&gt;Node1 -->
<g id="edge5" class="edge"><title>Node5&#45;&gt;Node1</title>
<path fill="none" stroke="#9a32cd" stroke-dasharray="5,2" d="M218.227,-225.205C218.754,-222.469 219.207,-219.673 219.5,-217 220.033,-212.14 219.728,-210.884 219.5,-206 216.608,-144.02 222.291,-127.004 206.5,-67 202.905,-53.3404 203.652,-47.821 193.5,-38 184.78,-29.5642 173.065,-23.6303 161.925,-19.5191"/>
<polygon fill="#9a32cd" stroke="#9a32cd" points="214.785,-224.557 215.997,-235.082 221.613,-226.099 214.785,-224.557"/>
<text text-anchor="middle" x="272.5" y="-180" font-family="Helvetica,sans-Serif" font-size="10.00"> exitToolStripMenuItem</text>
<text text-anchor="middle" x="272.5" y="-169" font-family="Helvetica,sans-Serif" font-size="10.00">aboutToolStripMenuItem</text>
<text text-anchor="middle" x="272.5" y="-158" font-family="Helvetica,sans-Serif" font-size="10.00">blobsCountLabel</text>
<text text-anchor="middle" x="272.5" y="-147" font-family="Helvetica,sans-Serif" font-size="10.00">toolStripMenuItem1</text>
<text text-anchor="middle" x="272.5" y="-136" font-family="Helvetica,sans-Serif" font-size="10.00">fileToolStripMenuItem</text>
<text text-anchor="middle" x="272.5" y="-125" font-family="Helvetica,sans-Serif" font-size="10.00">statusStrip</text>
<text text-anchor="middle" x="272.5" y="-114" font-family="Helvetica,sans-Serif" font-size="10.00">mainMenu</text>
<text text-anchor="middle" x="272.5" y="-103" font-family="Helvetica,sans-Serif" font-size="10.00">splitContainer</text>
<text text-anchor="middle" x="272.5" y="-92" font-family="Helvetica,sans-Serif" font-size="10.00">openToolStripMenuItem</text>
<text text-anchor="middle" x="272.5" y="-81" font-family="Helvetica,sans-Serif" font-size="10.00">highlightTypeCombo</text>
<text text-anchor="middle" x="272.5" y="-70" font-family="Helvetica,sans-Serif" font-size="10.00">...</text>
</g>
<!-- Node5&#45;&gt;Node3 -->
<g id="edge4" class="edge"><title>Node5&#45;&gt;Node3</title>
<path fill="none" stroke="#9a32cd" stroke-dasharray="5,2" d="M180.385,-230.876C173.836,-227.14 167.462,-222.542 162.5,-217 141.008,-192.997 131.95,-154.212 128.854,-137.091"/>
<polygon fill="#9a32cd" stroke="#9a32cd" points="178.813,-234.003 189.309,-235.444 182.002,-227.772 178.813,-234.003"/>
<text text-anchor="middle" x="191" y="-209" font-family="Helvetica,sans-Serif" font-size="10.00"> components</text>
</g>
</g>
</svg>
