<?xml version="1.0" encoding="UTF-8" standalone="no"?>
<!DOCTYPE svg PUBLIC "-//W3C//DTD SVG 1.1//EN"
 "http://www.w3.org/Graphics/SVG/1.1/DTD/svg11.dtd">
<!-- Generated by graphviz version 2.38.0 (20140413.2041)
 -->
<!-- Title: NUnit.Framework.Internal.TextMessageWriterTests Pages: 1 -->
<svg width="137pt" height="151pt"
 viewBox="0.00 0.00 137.00 151.00" xmlns="http://www.w3.org/2000/svg" xmlns:xlink="http://www.w3.org/1999/xlink">
<g id="graph0" class="graph" transform="scale(1 1) rotate(0) translate(4 147)">
<title>NUnit.Framework.Internal.TextMessageWriterTests</title>
<polygon fill="white" stroke="none" points="-4,4 -4,-147 133,-147 133,4 -4,4"/>
<!-- Node1 -->
<g id="node1" class="node"><title>Node1</title>
<g id="a_node1"><a xlink:title=" ">
<polygon fill="#bfbfbf" stroke="black" points="0,-0.5 0,-30.5 129,-30.5 129,-0.5 0,-0.5"/>
<text text-anchor="start" x="8" y="-18.5" font-family="Helvetica,sans-Serif" font-size="10.00">NUnit.Framework.Internal.</text>
<text text-anchor="middle" x="64.5" y="-7.5" font-family="Helvetica,sans-Serif" font-size="10.00">TextMessageWriterTests</text>
</a>
</g>
</g>
<!-- Node2 -->
<g id="node2" class="node"><title>Node2</title>
<g id="a_node2"><a xlink:href="../../d2/dbf/classNUnit_1_1Framework_1_1AssertionHelper.html" target="_top" xlink:title="AssertionHelper is an optional base class for user tests, allowing the use of shorter ids for constra...">
<polygon fill="white" stroke="black" points="21.5,-67.5 21.5,-86.5 107.5,-86.5 107.5,-67.5 21.5,-67.5"/>
<text text-anchor="middle" x="64.5" y="-74.5" font-family="Helvetica,sans-Serif" font-size="10.00">AssertionHelper</text>
</a>
</g>
</g>
<!-- Node2&#45;&gt;Node1 -->
<g id="edge1" class="edge"><title>Node2&#45;&gt;Node1</title>
<path fill="none" stroke="midnightblue" d="M64.5,-57.2349C64.5,-48.5864 64.5,-38.4969 64.5,-30.523"/>
<polygon fill="midnightblue" stroke="midnightblue" points="61.0001,-57.4751 64.5,-67.4751 68.0001,-57.4751 61.0001,-57.4751"/>
</g>
<!-- Node3 -->
<g id="node3" class="node"><title>Node3</title>
<g id="a_node3"><a xlink:href="../../d2/dab/classNUnit_1_1Framework_1_1Constraints_1_1ConstraintFactory.html" target="_top" xlink:title="Helper class with properties and methods that supply a number of constraints used in Asserts.">
<polygon fill="white" stroke="black" points="17.5,-123.5 17.5,-142.5 111.5,-142.5 111.5,-123.5 17.5,-123.5"/>
<text text-anchor="middle" x="64.5" y="-130.5" font-family="Helvetica,sans-Serif" font-size="10.00">ConstraintFactory</text>
</a>
</g>
</g>
<!-- Node3&#45;&gt;Node2 -->
<g id="edge2" class="edge"><title>Node3&#45;&gt;Node2</title>
<path fill="none" stroke="midnightblue" d="M64.5,-112.805C64.5,-103.91 64.5,-93.7798 64.5,-86.7511"/>
<polygon fill="midnightblue" stroke="midnightblue" points="61.0001,-113.083 64.5,-123.083 68.0001,-113.083 61.0001,-113.083"/>
</g>
</g>
</svg>
