<?xml version="1.0" encoding="UTF-8" standalone="no"?>
<!DOCTYPE svg PUBLIC "-//W3C//DTD SVG 1.1//EN"
 "http://www.w3.org/Graphics/SVG/1.1/DTD/svg11.dtd">
<!-- Generated by graphviz version 2.38.0 (20140413.2041)
 -->
<!-- Title: AForge.Robotics.Lego.NXTBrick Pages: 1 -->
<svg width="192pt" height="106pt"
 viewBox="0.00 0.00 192.00 106.00" xmlns="http://www.w3.org/2000/svg" xmlns:xlink="http://www.w3.org/1999/xlink">
<g id="graph0" class="graph" transform="scale(1 1) rotate(0) translate(4 102)">
<title>AForge.Robotics.Lego.NXTBrick</title>
<polygon fill="white" stroke="none" points="-4,4 -4,-102 188,-102 188,4 -4,4"/>
<!-- Node1 -->
<g id="node1" class="node"><title>Node1</title>
<g id="a_node1"><a xlink:title="Manipulation of Lego Mindstorms NXT device.">
<polygon fill="#bfbfbf" stroke="black" points="0,-0.5 0,-19.5 156,-19.5 156,-0.5 0,-0.5"/>
<text text-anchor="middle" x="78" y="-7.5" font-family="Helvetica,sans-Serif" font-size="10.00">AForge.Robotics.Lego.NXTBrick</text>
</a>
</g>
</g>
<!-- Node2 -->
<g id="node2" class="node"><title>Node2</title>
<g id="a_node2"><a xlink:title="Interface, which wraps communication functions with Lego Mindstorms NXT brick.">
<polygon fill="white" stroke="#bfbfbf" points="0,-67.5 0,-97.5 156,-97.5 156,-67.5 0,-67.5"/>
<text text-anchor="start" x="8" y="-85.5" font-family="Helvetica,sans-Serif" font-size="10.00">AForge.Robotics.Lego.Internals.</text>
<text text-anchor="middle" x="78" y="-74.5" font-family="Helvetica,sans-Serif" font-size="10.00">INXTCommunicationInterface</text>
</a>
</g>
</g>
<!-- Node2&#45;&gt;Node1 -->
<g id="edge1" class="edge"><title>Node2&#45;&gt;Node1</title>
<path fill="none" stroke="#9a32cd" stroke-dasharray="5,2" d="M78,-57.0913C78,-44.2136 78,-29.1974 78,-19.8932"/>
<polygon fill="#9a32cd" stroke="#9a32cd" points="74.5001,-57.2332 78,-67.2333 81.5001,-57.2333 74.5001,-57.2332"/>
<text text-anchor="middle" x="131" y="-41" font-family="Helvetica,sans-Serif" font-size="10.00"> communicationInterface</text>
</g>
</g>
</svg>
