<?xml version="1.0" encoding="UTF-8" standalone="no"?>
<!DOCTYPE svg PUBLIC "-//W3C//DTD SVG 1.1//EN"
 "http://www.w3.org/Graphics/SVG/1.1/DTD/svg11.dtd">
<!-- Generated by graphviz version 2.38.0 (20140413.2041)
 -->
<!-- Title: NUnit.Engine.RunTestsCallbackHandler Pages: 1 -->
<svg width="343pt" height="163pt"
 viewBox="0.00 0.00 343.00 163.00" xmlns="http://www.w3.org/2000/svg" xmlns:xlink="http://www.w3.org/1999/xlink">
<g id="graph0" class="graph" transform="scale(1 1) rotate(0) translate(4 159)">
<title>NUnit.Engine.RunTestsCallbackHandler</title>
<polygon fill="white" stroke="none" points="-4,4 -4,-159 339,-159 339,4 -4,4"/>
<!-- Node1 -->
<g id="node1" class="node"><title>Node1</title>
<g id="a_node1"><a xlink:title=" ">
<polygon fill="#bfbfbf" stroke="black" points="144.5,-0.5 144.5,-30.5 299.5,-30.5 299.5,-0.5 144.5,-0.5"/>
<text text-anchor="start" x="152.5" y="-18.5" font-family="Helvetica,sans-Serif" font-size="10.00">NUnit.Engine.RunTestsCallback</text>
<text text-anchor="middle" x="222" y="-7.5" font-family="Helvetica,sans-Serif" font-size="10.00">Handler</text>
</a>
</g>
</g>
<!-- Node2 -->
<g id="node2" class="node"><title>Node2</title>
<g id="a_node2"><a xlink:href="../../de/df7/classNUnit_1_1Engine_1_1CallbackHandler.html" target="_top" xlink:title=" ">
<polygon fill="white" stroke="black" points="73.5,-78.5 73.5,-97.5 160.5,-97.5 160.5,-78.5 73.5,-78.5"/>
<text text-anchor="middle" x="117" y="-85.5" font-family="Helvetica,sans-Serif" font-size="10.00">CallbackHandler</text>
</a>
</g>
</g>
<!-- Node2&#45;&gt;Node1 -->
<g id="edge1" class="edge"><title>Node2&#45;&gt;Node1</title>
<path fill="none" stroke="midnightblue" d="M138.396,-72.6339C156.691,-60.3503 182.866,-42.7755 201.036,-30.5762"/>
<polygon fill="midnightblue" stroke="midnightblue" points="136.226,-69.8752 129.875,-78.3553 140.128,-75.6867 136.226,-69.8752"/>
</g>
<!-- Node3 -->
<g id="node3" class="node"><title>Node3</title>
<g id="a_node3"><a xlink:title=" ">
<polygon fill="white" stroke="#bfbfbf" points="0,-135.5 0,-154.5 106,-154.5 106,-135.5 0,-135.5"/>
<text text-anchor="middle" x="53" y="-142.5" font-family="Helvetica,sans-Serif" font-size="10.00">MarshalByRefObject</text>
</a>
</g>
</g>
<!-- Node3&#45;&gt;Node2 -->
<g id="edge2" class="edge"><title>Node3&#45;&gt;Node2</title>
<path fill="none" stroke="midnightblue" d="M70.7944,-128.708C82.4225,-118.715 97.1906,-106.024 106.859,-97.7149"/>
<polygon fill="midnightblue" stroke="midnightblue" points="68.303,-126.234 63,-135.406 72.8654,-131.543 68.303,-126.234"/>
</g>
<!-- Node4 -->
<g id="node4" class="node"><title>Node4</title>
<g id="a_node4"><a xlink:title=" ">
<polygon fill="white" stroke="#bfbfbf" points="124.5,-135.5 124.5,-154.5 237.5,-154.5 237.5,-135.5 124.5,-135.5"/>
<text text-anchor="middle" x="181" y="-142.5" font-family="Helvetica,sans-Serif" font-size="10.00">ICallbackEventHandler</text>
</a>
</g>
</g>
<!-- Node4&#45;&gt;Node2 -->
<g id="edge3" class="edge"><title>Node4&#45;&gt;Node2</title>
<path fill="none" stroke="midnightblue" d="M163.206,-128.708C151.577,-118.715 136.809,-106.024 127.141,-97.7149"/>
<polygon fill="midnightblue" stroke="midnightblue" points="161.135,-131.543 171,-135.406 165.697,-126.234 161.135,-131.543"/>
</g>
<!-- Node5 -->
<g id="node5" class="node"><title>Node5</title>
<g id="a_node5"><a xlink:href="../../d1/d83/interfaceNUnit_1_1Engine_1_1ITestEventListener.html" target="_top" xlink:title="The ITestListener interface is used to receive notices of significant events while a test is running....">
<polygon fill="white" stroke="black" points="179,-78.5 179,-97.5 335,-97.5 335,-78.5 179,-78.5"/>
<text text-anchor="middle" x="257" y="-85.5" font-family="Helvetica,sans-Serif" font-size="10.00">NUnit.Engine.ITestEventListener</text>
</a>
</g>
</g>
<!-- Node5&#45;&gt;Node1 -->
<g id="edge4" class="edge"><title>Node5&#45;&gt;Node1</title>
<path fill="none" stroke="#9a32cd" stroke-dasharray="5,2" d="M248.225,-69.3243C242.276,-57.3413 234.519,-41.7171 228.988,-30.5762"/>
<polygon fill="#9a32cd" stroke="#9a32cd" points="245.127,-70.9547 252.708,-78.3553 251.396,-67.842 245.127,-70.9547"/>
<text text-anchor="middle" x="260.5" y="-52" font-family="Helvetica,sans-Serif" font-size="10.00"> listener</text>
</g>
</g>
</svg>
