<?xml version="1.0" encoding="UTF-8" standalone="no"?>
<!DOCTYPE svg PUBLIC "-//W3C//DTD SVG 1.1//EN"
 "http://www.w3.org/Graphics/SVG/1.1/DTD/svg11.dtd">
<!-- Generated by graphviz version 2.38.0 (20140413.2041)
 -->
<!-- Title: NUnitLite.TextRunner Pages: 1 -->
<!--zoomable 260 -->
<svg id="main" version="1.1" xmlns="http://www.w3.org/2000/svg" xmlns:xlink="http://www.w3.org/1999/xlink" xml:space="preserve" onload="init(evt)">
<style type="text/css"><![CDATA[
.edge:hover path { stroke: red; }
.edge:hover polygon { stroke: red; fill: red; }
]]></style>
<script type="text/javascript"><![CDATA[
var edges = document.getElementsByTagName('g');
if (edges && edges.length) {
  for (var i=0;i<edges.length;i++) {
    if (edges[i].id.substr(0,4)=='edge') {
      edges[i].setAttribute('class','edge');
    }
  }
}
]]></script>
        <defs>
                <circle id="rim" cx="0" cy="0" r="7"/>
                <circle id="rim2" cx="0" cy="0" r="3.5"/>
                <g id="zoomPlus">
                        <use xlink:href="#rim" fill="#404040">
                                <set attributeName="fill" to="#808080" begin="zoomplus.mouseover" end="zoomplus.mouseout"/>
                        </use>
                        <path d="M-4,0h8M0,-4v8" fill="none" stroke="white" stroke-width="1.5" pointer-events="none"/>
                </g>
                <g id="zoomMin">
                        <use xlink:href="#rim" fill="#404040">
                                <set attributeName="fill" to="#808080" begin="zoomminus.mouseover" end="zoomminus.mouseout"/>
                        </use>
                        <path d="M-4,0h8" fill="none" stroke="white" stroke-width="1.5" pointer-events="none"/>
                </g>
                <g id="dirArrow">
                        <path fill="none" stroke="white" stroke-width="1.5" d="M0,-3.0v7 M-2.5,-0.5L0,-3.0L2.5,-0.5"/>
                </g>
               <g id="resetDef">
                       <use xlink:href="#rim2" fill="#404040">
                               <set attributeName="fill" to="#808080" begin="reset.mouseover" end="reset.mouseout"/>
                       </use>
               </g>
        </defs>

<script type="text/javascript">
var viewWidth = 1001;
var viewHeight = 260;
var sectionId = 'dynsection-1';
</script>
<script xlink:href="../../svgpan.js"/>
<svg id="graph" class="graph">
<g id="viewport">
<title>NUnitLite.TextRunner</title>
<polygon fill="white" stroke="none" points="-4,4 -4,-256 997,-256 997,4 -4,4"/>
<!-- Node1 -->
<g id="node1" class="node"><title>Node1</title>
<g id="a_node1"><a xlink:title="TextRunner is a general purpose class that runs tests and outputs to a text&#45;based user interface (Tex...">
<polygon fill="#bfbfbf" stroke="black" points="884,-155.5 884,-174.5 993,-174.5 993,-155.5 884,-155.5"/>
<text text-anchor="middle" x="938.5" y="-162.5" font-family="Helvetica,sans-Serif" font-size="10.00">NUnitLite.TextRunner</text>
</a>
</g>
</g>
<!-- Node2 -->
<g id="node2" class="node"><title>Node2</title>
<g id="a_node2"><a xlink:href="../../de/d53/interfaceNUnit_1_1Framework_1_1Interfaces_1_1ITestListener.html" target="_top" xlink:title="The ITestListener interface is used internally to receive notifications of significant events while a...">
<polygon fill="white" stroke="black" points="431,-206.5 431,-225.5 503,-225.5 503,-206.5 431,-206.5"/>
<text text-anchor="middle" x="467" y="-213.5" font-family="Helvetica,sans-Serif" font-size="10.00">ITestListener</text>
</a>
</g>
</g>
<!-- Node2&#45;&gt;Node1 -->
<g id="edge1" class="edge"><title>Node2&#45;&gt;Node1</title>
<path fill="none" stroke="midnightblue" d="M513.535,-211.851C587.543,-204.987 738.495,-190.479 866,-175 871.724,-174.305 877.699,-173.537 883.651,-172.745"/>
<polygon fill="midnightblue" stroke="midnightblue" points="512.822,-208.402 503.186,-212.808 513.466,-215.373 512.822,-208.402"/>
</g>
<!-- Node11 -->
<g id="node11" class="node"><title>Node11</title>
<g id="a_node11"><a xlink:href="../../d1/d7a/classNUnitLite_1_1TeamCityEventListener.html" target="_top" xlink:title="TeamCityEventListener class handles ITestListener events by issuing TeamCity service messages on the ...">
<polygon fill="white" stroke="black" points="641,-232.5 641,-251.5 800,-251.5 800,-232.5 641,-232.5"/>
<text text-anchor="middle" x="720.5" y="-239.5" font-family="Helvetica,sans-Serif" font-size="10.00">NUnitLite.TeamCityEventListener</text>
</a>
</g>
</g>
<!-- Node2&#45;&gt;Node11 -->
<g id="edge13" class="edge"><title>Node2&#45;&gt;Node11</title>
<path fill="none" stroke="midnightblue" d="M513.273,-220.68C548.695,-224.342 598.809,-229.523 640.766,-233.86"/>
<polygon fill="midnightblue" stroke="midnightblue" points="513.542,-217.19 503.235,-219.643 512.822,-224.152 513.542,-217.19"/>
</g>
<!-- Node3 -->
<g id="node3" class="node"><title>Node3</title>
<g id="a_node3"><a xlink:href="../../de/dda/classNUnitLite_1_1TextUI.html" target="_top" xlink:title=" ">
<polygon fill="white" stroke="black" points="677,-103.5 677,-122.5 764,-122.5 764,-103.5 677,-103.5"/>
<text text-anchor="middle" x="720.5" y="-110.5" font-family="Helvetica,sans-Serif" font-size="10.00">NUnitLite.TextUI</text>
</a>
</g>
</g>
<!-- Node3&#45;&gt;Node1 -->
<g id="edge2" class="edge"><title>Node3&#45;&gt;Node1</title>
<path fill="none" stroke="#9a32cd" stroke-dasharray="5,2" d="M774.451,-120.915C801.979,-125.527 836.043,-132.013 866,-140 881.883,-144.234 899.302,-150.294 912.97,-155.387"/>
<polygon fill="#9a32cd" stroke="#9a32cd" points="774.677,-117.405 764.243,-119.24 773.544,-124.313 774.677,-117.405"/>
<text text-anchor="middle" x="842" y="-143" font-family="Helvetica,sans-Serif" font-size="10.00"> _textUI</text>
</g>
<!-- Node4 -->
<g id="node4" class="node"><title>Node4</title>
<g id="a_node4"><a xlink:href="../../d0/d56/classNUnit_1_1Common_1_1ExtendedTextWriter.html" target="_top" xlink:title="ExtendedTextWriter extends the TextWriter abstract class to support displaying text in color....">
<polygon fill="white" stroke="black" points="394,-39 394,-69 540,-69 540,-39 394,-39"/>
<text text-anchor="start" x="402" y="-57" font-family="Helvetica,sans-Serif" font-size="10.00">NUnit.Common.ExtendedText</text>
<text text-anchor="middle" x="467" y="-46" font-family="Helvetica,sans-Serif" font-size="10.00">Writer</text>
</a>
</g>
</g>
<!-- Node4&#45;&gt;Node3 -->
<g id="edge3" class="edge"><title>Node4&#45;&gt;Node3</title>
<path fill="none" stroke="#9a32cd" stroke-dasharray="5,2" d="M550.453,-61.868C574.418,-65.8725 600.252,-71.9079 623,-81 631.928,-84.5684 632.216,-89.0906 641,-93 652.178,-97.975 664.825,-101.878 676.651,-104.864"/>
<polygon fill="#9a32cd" stroke="#9a32cd" points="550.734,-58.3692 540.311,-60.2731 549.646,-65.2842 550.734,-58.3692"/>
<text text-anchor="middle" x="590.5" y="-84" font-family="Helvetica,sans-Serif" font-size="10.00"> _outWriter</text>
</g>
<!-- Node5 -->
<g id="node5" class="node"><title>Node5</title>
<g id="a_node5"><a xlink:title=" ">
<polygon fill="white" stroke="#bfbfbf" points="122.5,-44.5 122.5,-63.5 184.5,-63.5 184.5,-44.5 122.5,-44.5"/>
<text text-anchor="middle" x="153.5" y="-51.5" font-family="Helvetica,sans-Serif" font-size="10.00">TextWriter</text>
</a>
</g>
</g>
<!-- Node5&#45;&gt;Node4 -->
<g id="edge4" class="edge"><title>Node5&#45;&gt;Node4</title>
<path fill="none" stroke="midnightblue" d="M194.802,-54C245.079,-54 331.952,-54 393.825,-54"/>
<polygon fill="midnightblue" stroke="midnightblue" points="194.651,-50.5001 184.651,-54 194.651,-57.5001 194.651,-50.5001"/>
</g>
<!-- Node6 -->
<g id="node6" class="node"><title>Node6</title>
<g id="a_node6"><a xlink:href="../../d1/d00/classNUnitLite_1_1NUnitLiteOptions.html" target="_top" xlink:title="NUnitLiteOptions encapsulates the option settings for NUnitLite. Currently, there are no additional o...">
<polygon fill="white" stroke="black" points="400.5,-135.5 400.5,-154.5 533.5,-154.5 533.5,-135.5 400.5,-135.5"/>
<text text-anchor="middle" x="467" y="-142.5" font-family="Helvetica,sans-Serif" font-size="10.00">NUnitLite.NUnitLiteOptions</text>
</a>
</g>
</g>
<!-- Node6&#45;&gt;Node1 -->
<g id="edge11" class="edge"><title>Node6&#45;&gt;Node1</title>
<path fill="none" stroke="#9a32cd" stroke-dasharray="5,2" d="M543.927,-148.234C639.25,-152.295 800.365,-159.158 883.811,-162.713"/>
<polygon fill="#9a32cd" stroke="#9a32cd" points="543.916,-144.731 533.776,-147.802 543.618,-151.724 543.916,-144.731"/>
<text text-anchor="middle" x="720.5" y="-162" font-family="Helvetica,sans-Serif" font-size="10.00"> _options</text>
</g>
<!-- Node6&#45;&gt;Node3 -->
<g id="edge5" class="edge"><title>Node6&#45;&gt;Node3</title>
<path fill="none" stroke="#9a32cd" stroke-dasharray="5,2" d="M543.73,-135.364C587.233,-129.829 640.278,-123.08 676.644,-118.453"/>
<polygon fill="#9a32cd" stroke="#9a32cd" points="543.228,-131.9 533.75,-136.634 544.112,-138.844 543.228,-131.9"/>
<text text-anchor="middle" x="590.5" y="-136" font-family="Helvetica,sans-Serif" font-size="10.00"> _options</text>
</g>
<!-- Node7 -->
<g id="node7" class="node"><title>Node7</title>
<g id="a_node7"><a xlink:href="../../da/d32/classNUnit_1_1Common_1_1CommandLineOptions.html" target="_top" xlink:title="CommandLineOptions is the base class the specific option classes used for nunit3&#45;console and nunitlit...">
<polygon fill="white" stroke="black" points="97,-134.5 97,-153.5 210,-153.5 210,-134.5 97,-134.5"/>
<text text-anchor="middle" x="153.5" y="-141.5" font-family="Helvetica,sans-Serif" font-size="10.00">CommandLineOptions</text>
</a>
</g>
</g>
<!-- Node7&#45;&gt;Node6 -->
<g id="edge6" class="edge"><title>Node7&#45;&gt;Node6</title>
<path fill="none" stroke="midnightblue" d="M220.486,-144.212C273.431,-144.382 347.386,-144.619 400.265,-144.789"/>
<polygon fill="midnightblue" stroke="midnightblue" points="220.201,-140.711 210.19,-144.179 220.179,-147.711 220.201,-140.711"/>
</g>
<!-- Node8 -->
<g id="node8" class="node"><title>Node8</title>
<g id="a_node8"><a xlink:title=" ">
<polygon fill="white" stroke="#bfbfbf" points="0,-111.5 0,-130.5 60,-130.5 60,-111.5 0,-111.5"/>
<text text-anchor="middle" x="30" y="-118.5" font-family="Helvetica,sans-Serif" font-size="10.00">OptionSet</text>
</a>
</g>
</g>
<!-- Node8&#45;&gt;Node7 -->
<g id="edge7" class="edge"><title>Node8&#45;&gt;Node7</title>
<path fill="none" stroke="midnightblue" d="M70.0029,-128.383C80.2743,-130.328 91.5012,-132.453 102.273,-134.492"/>
<polygon fill="midnightblue" stroke="midnightblue" points="70.5788,-124.93 60.1023,-126.509 69.2768,-131.808 70.5788,-124.93"/>
</g>
<!-- Node9 -->
<g id="node9" class="node"><title>Node9</title>
<g id="a_node9"><a xlink:href="../../da/d32/classNUnit_1_1Common_1_1CommandLineOptions.html" target="_top" xlink:title="CommandLineOptions is the base class the specific option classes used for nunit3&#45;console and nunitlit...">
<polygon fill="white" stroke="black" points="228,-91 228,-121 376,-121 376,-91 228,-91"/>
<text text-anchor="start" x="236" y="-109" font-family="Helvetica,sans-Serif" font-size="10.00">NUnit.Common.CommandLine</text>
<text text-anchor="middle" x="302" y="-98" font-family="Helvetica,sans-Serif" font-size="10.00">Options</text>
</a>
</g>
</g>
<!-- Node8&#45;&gt;Node9 -->
<g id="edge9" class="edge"><title>Node8&#45;&gt;Node9</title>
<path fill="none" stroke="midnightblue" d="M70.3241,-118.815C111.505,-116.527 177.124,-112.882 227.865,-110.063"/>
<polygon fill="midnightblue" stroke="midnightblue" points="69.9417,-115.331 60.1513,-119.38 70.33,-122.32 69.9417,-115.331"/>
</g>
<!-- Node9&#45;&gt;Node3 -->
<g id="edge8" class="edge"><title>Node9&#45;&gt;Node3</title>
<path fill="none" stroke="#9a32cd" stroke-dasharray="5,2" d="M386.217,-107.399C473.936,-108.873 608.651,-111.137 676.826,-112.283"/>
<polygon fill="#9a32cd" stroke="#9a32cd" points="386.083,-103.896 376.025,-107.227 385.965,-110.895 386.083,-103.896"/>
<text text-anchor="middle" x="467" y="-113" font-family="Helvetica,sans-Serif" font-size="10.00"> _options</text>
</g>
<!-- Node10 -->
<g id="node10" class="node"><title>Node10</title>
<g id="a_node10"><a xlink:title=" ">
<polygon fill="white" stroke="#bfbfbf" points="446.5,-0.5 446.5,-19.5 487.5,-19.5 487.5,-0.5 446.5,-0.5"/>
<text text-anchor="middle" x="467" y="-7.5" font-family="Helvetica,sans-Serif" font-size="10.00">static</text>
</a>
</g>
</g>
<!-- Node10&#45;&gt;Node3 -->
<g id="edge10" class="edge"><title>Node10&#45;&gt;Node3</title>
<path fill="none" stroke="#9a32cd" stroke-dasharray="5,2" d="M497.971,-9.83296C532.145,-11.2185 587.818,-18.4847 623,-49 638.961,-62.8441 625.059,-79.1322 641,-93 650.974,-101.677 664.207,-106.678 676.961,-109.533"/>
<polygon fill="#9a32cd" stroke="#9a32cd" points="497.771,-6.32674 487.684,-9.56772 497.59,-13.3244 497.771,-6.32674"/>
<text text-anchor="middle" x="590.5" y="-52" font-family="Helvetica,sans-Serif" font-size="10.00"> TRIM_CHARS</text>
</g>
<!-- Node11&#45;&gt;Node1 -->
<g id="edge12" class="edge"><title>Node11&#45;&gt;Node1</title>
<path fill="none" stroke="#9a32cd" stroke-dasharray="5,2" d="M810.317,-233.21C829.164,-229.546 848.608,-224.354 866,-217 890.316,-206.718 914.233,-186.779 927.311,-174.801"/>
<polygon fill="#9a32cd" stroke="#9a32cd" points="809.443,-229.812 800.229,-235.042 810.693,-236.699 809.443,-229.812"/>
<text text-anchor="middle" x="842" y="-235" font-family="Helvetica,sans-Serif" font-size="10.00"> _teamCity</text>
</g>
<!-- Node12 -->
<g id="node12" class="node"><title>Node12</title>
<g id="a_node12"><a xlink:href="../../df/d48/interfaceNUnit_1_1Framework_1_1Api_1_1ITestAssemblyRunner.html" target="_top" xlink:title="The ITestAssemblyRunner interface is implemented by classes that are able to execute a suite of tests...">
<polygon fill="white" stroke="black" points="654,-54 654,-84 787,-84 787,-54 654,-54"/>
<text text-anchor="start" x="662" y="-72" font-family="Helvetica,sans-Serif" font-size="10.00">NUnit.Framework.Api.ITest</text>
<text text-anchor="middle" x="720.5" y="-61" font-family="Helvetica,sans-Serif" font-size="10.00">AssemblyRunner</text>
</a>
</g>
</g>
<!-- Node12&#45;&gt;Node1 -->
<g id="edge14" class="edge"><title>Node12&#45;&gt;Node1</title>
<path fill="none" stroke="#9a32cd" stroke-dasharray="5,2" d="M792.581,-86.9673C816.515,-94.2272 842.976,-103.615 866,-115 888.811,-126.28 912.475,-144.288 926.049,-155.336"/>
<polygon fill="#9a32cd" stroke="#9a32cd" points="793.429,-83.5685 782.847,-84.0882 791.443,-90.281 793.429,-83.5685"/>
<text text-anchor="middle" x="842" y="-118" font-family="Helvetica,sans-Serif" font-size="10.00"> _runner</text>
</g>
</g>
</svg>
        <g id="navigator" transform="translate(0 0)" fill="#404254">
                <rect fill="#f2f5e9" fill-opacity="0.5" stroke="#606060" stroke-width=".5" x="0" y="0" width="60" height="60"/>
                <use id="zoomplus" xlink:href="#zoomPlus" x="17" y="9" onmousedown="handleZoom(evt,'in')"/>
                <use id="zoomminus" xlink:href="#zoomMin" x="42" y="9" onmousedown="handleZoom(evt,'out')"/>
                <use id="reset" xlink:href="#resetDef" x="30" y="36" onmousedown="handleReset()"/>
                <g id="arrowUp" xlink:href="#dirArrow" transform="translate(30 24)" onmousedown="handlePan(0,-1)">
                  <use xlink:href="#rim" fill="#404040">
                        <set attributeName="fill" to="#808080" begin="arrowUp.mouseover" end="arrowUp.mouseout"/>
                  </use>
                  <path fill="none" stroke="white" stroke-width="1.5" d="M0,-3.0v7 M-2.5,-0.5L0,-3.0L2.5,-0.5"/>
                </g>
                <g id="arrowRight" xlink:href="#dirArrow" transform="rotate(90) translate(36 -43)" onmousedown="handlePan(1,0)">
                  <use xlink:href="#rim" fill="#404040">
                        <set attributeName="fill" to="#808080" begin="arrowRight.mouseover" end="arrowRight.mouseout"/>
                  </use>
                  <path fill="none" stroke="white" stroke-width="1.5" d="M0,-3.0v7 M-2.5,-0.5L0,-3.0L2.5,-0.5"/>
                </g>
                <g id="arrowDown" xlink:href="#dirArrow" transform="rotate(180) translate(-30 -48)" onmousedown="handlePan(0,1)">
                  <use xlink:href="#rim" fill="#404040">
                        <set attributeName="fill" to="#808080" begin="arrowDown.mouseover" end="arrowDown.mouseout"/>
                  </use>
                  <path fill="none" stroke="white" stroke-width="1.5" d="M0,-3.0v7 M-2.5,-0.5L0,-3.0L2.5,-0.5"/>
                </g>
                <g id="arrowLeft" xlink:href="#dirArrow" transform="rotate(270) translate(-36 17)" onmousedown="handlePan(-1,0)">
                  <use xlink:href="#rim" fill="#404040">
                        <set attributeName="fill" to="#808080" begin="arrowLeft.mouseover" end="arrowLeft.mouseout"/>
                  </use>
                  <path fill="none" stroke="white" stroke-width="1.5" d="M0,-3.0v7 M-2.5,-0.5L0,-3.0L2.5,-0.5"/>
                </g>
        </g>
        <svg viewBox="0 0 15 15" width="100%" height="30px" preserveAspectRatio="xMaxYMin meet">
         <g id="arrow_out" transform="scale(0.3 0.3)">
          <a xlink:href="classNUnitLite_1_1TextRunner__coll__graph_org.svg" target="_base">
           <rect id="button" ry="5" rx="5" y="6" x="6" height="38" width="38"
                fill="#f2f5e9" fill-opacity="0.5" stroke="#606060" stroke-width="1.0"/>
           <path id="arrow"
             d="M 11.500037,31.436501 C 11.940474,20.09759 22.043105,11.32322 32.158766,21.979434 L 37.068811,17.246167 C 37.068811,17.246167 37.088388,32 37.088388,32 L 22.160133,31.978069 C 22.160133,31.978069 26.997745,27.140456 26.997745,27.140456 C 18.528582,18.264221 13.291696,25.230495 11.500037,31.436501 z"
             style="fill:#404040;"/>
          </a>
         </g>
        </svg>
</svg>
