<?xml version="1.0" encoding="UTF-8" standalone="no"?>
<!DOCTYPE svg PUBLIC "-//W3C//DTD SVG 1.1//EN"
 "http://www.w3.org/Graphics/SVG/1.1/DTD/svg11.dtd">
<!-- Generated by graphviz version 2.38.0 (20140413.2041)
 -->
<!-- Title: NUnit.Framework.Syntax.MessageTest Pages: 1 -->
<svg width="195pt" height="185pt"
 viewBox="0.00 0.00 195.00 185.00" xmlns="http://www.w3.org/2000/svg" xmlns:xlink="http://www.w3.org/1999/xlink">
<g id="graph0" class="graph" transform="scale(1 1) rotate(0) translate(4 181)">
<title>NUnit.Framework.Syntax.MessageTest</title>
<polygon fill="white" stroke="none" points="-4,4 -4,-181 191,-181 191,4 -4,4"/>
<!-- Node1 -->
<g id="node1" class="node"><title>Node1</title>
<g id="a_node1"><a xlink:title=" ">
<polygon fill="#bfbfbf" stroke="black" points="0,-0.5 0,-19.5 187,-19.5 187,-0.5 0,-0.5"/>
<text text-anchor="middle" x="93.5" y="-7.5" font-family="Helvetica,sans-Serif" font-size="10.00">NUnit.Framework.Syntax.MessageTest</text>
</a>
</g>
</g>
<!-- Node2 -->
<g id="node2" class="node"><title>Node2</title>
<g id="a_node2"><a xlink:href="../../dc/dba/classNUnit_1_1Framework_1_1Syntax_1_1SyntaxTest.html" target="_top" xlink:title=" ">
<polygon fill="white" stroke="black" points="60.5,-57.5 60.5,-76.5 126.5,-76.5 126.5,-57.5 60.5,-57.5"/>
<text text-anchor="middle" x="93.5" y="-64.5" font-family="Helvetica,sans-Serif" font-size="10.00">SyntaxTest</text>
</a>
</g>
</g>
<!-- Node2&#45;&gt;Node1 -->
<g id="edge1" class="edge"><title>Node2&#45;&gt;Node1</title>
<path fill="none" stroke="midnightblue" d="M93.5,-47.1166C93.5,-37.8173 93.5,-27.0557 93.5,-19.7149"/>
<polygon fill="midnightblue" stroke="midnightblue" points="90.0001,-47.4062 93.5,-57.4063 97.0001,-47.4063 90.0001,-47.4062"/>
</g>
<!-- Node3 -->
<g id="node3" class="node"><title>Node3</title>
<g id="a_node3"><a xlink:href="../../d7/d29/interfaceNUnit_1_1Framework_1_1Constraints_1_1IResolveConstraint.html" target="_top" xlink:title="The IResolveConstraint interface is implemented by all complete and resolvable constraints and expres...">
<polygon fill="white" stroke="black" points="20,-146.5 20,-176.5 167,-176.5 167,-146.5 20,-146.5"/>
<text text-anchor="start" x="28" y="-164.5" font-family="Helvetica,sans-Serif" font-size="10.00">NUnit.Framework.Constraints.</text>
<text text-anchor="middle" x="93.5" y="-153.5" font-family="Helvetica,sans-Serif" font-size="10.00">IResolveConstraint</text>
</a>
</g>
</g>
<!-- Node3&#45;&gt;Node2 -->
<g id="edge2" class="edge"><title>Node3&#45;&gt;Node2</title>
<path fill="none" stroke="#9a32cd" stroke-dasharray="5,2" d="M93.5,-136.382C93.5,-116.736 93.5,-90.1188 93.5,-76.6191"/>
<polygon fill="#9a32cd" stroke="#9a32cd" points="90.0001,-136.451 93.5,-146.451 97.0001,-136.451 90.0001,-136.451"/>
<text text-anchor="middle" x="127.5" y="-120" font-family="Helvetica,sans-Serif" font-size="10.00"> builderSyntax</text>
<text text-anchor="middle" x="127.5" y="-109" font-family="Helvetica,sans-Serif" font-size="10.00">inheritedSyntax</text>
<text text-anchor="middle" x="127.5" y="-98" font-family="Helvetica,sans-Serif" font-size="10.00">staticSyntax</text>
</g>
</g>
</svg>
