<?xml version="1.0" encoding="UTF-8" standalone="no"?>
<!DOCTYPE svg PUBLIC "-//W3C//DTD SVG 1.1//EN"
 "http://www.w3.org/Graphics/SVG/1.1/DTD/svg11.dtd">
<!-- Generated by graphviz version 2.38.0 (20140413.2041)
 -->
<!-- Title: IG.Gr3d.VtkPlotter.Accessor Pages: 1 -->
<!--zoomable 512 -->
<svg id="main" version="1.1" xmlns="http://www.w3.org/2000/svg" xmlns:xlink="http://www.w3.org/1999/xlink" xml:space="preserve" onload="init(evt)">
<style type="text/css"><![CDATA[
.edge:hover path { stroke: red; }
.edge:hover polygon { stroke: red; fill: red; }
]]></style>
<script type="text/javascript"><![CDATA[
var edges = document.getElementsByTagName('g');
if (edges && edges.length) {
  for (var i=0;i<edges.length;i++) {
    if (edges[i].id.substr(0,4)=='edge') {
      edges[i].setAttribute('class','edge');
    }
  }
}
]]></script>
        <defs>
                <circle id="rim" cx="0" cy="0" r="7"/>
                <circle id="rim2" cx="0" cy="0" r="3.5"/>
                <g id="zoomPlus">
                        <use xlink:href="#rim" fill="#404040">
                                <set attributeName="fill" to="#808080" begin="zoomplus.mouseover" end="zoomplus.mouseout"/>
                        </use>
                        <path d="M-4,0h8M0,-4v8" fill="none" stroke="white" stroke-width="1.5" pointer-events="none"/>
                </g>
                <g id="zoomMin">
                        <use xlink:href="#rim" fill="#404040">
                                <set attributeName="fill" to="#808080" begin="zoomminus.mouseover" end="zoomminus.mouseout"/>
                        </use>
                        <path d="M-4,0h8" fill="none" stroke="white" stroke-width="1.5" pointer-events="none"/>
                </g>
                <g id="dirArrow">
                        <path fill="none" stroke="white" stroke-width="1.5" d="M0,-3.0v7 M-2.5,-0.5L0,-3.0L2.5,-0.5"/>
                </g>
               <g id="resetDef">
                       <use xlink:href="#rim2" fill="#404040">
                               <set attributeName="fill" to="#808080" begin="reset.mouseover" end="reset.mouseout"/>
                       </use>
               </g>
        </defs>

<script type="text/javascript">
var viewWidth = 1233;
var viewHeight = 512;
var sectionId = 'dynsection-0';
</script>
<script xlink:href="../../svgpan.js"/>
<svg id="graph" class="graph">
<g id="viewport">
<title>IG.Gr3d.VtkPlotter.Accessor</title>
<polygon fill="white" stroke="none" points="-4,4 -4,-508 1229,-508 1229,4 -4,4"/>
<!-- Node1 -->
<g id="node1" class="node"><title>Node1</title>
<g id="a_node1"><a xlink:title="Class that is used to access the VtkPlotter&#39;s window in classes that are not derived from that class....">
<polygon fill="#bfbfbf" stroke="black" points="1080.5,-210.5 1080.5,-229.5 1221.5,-229.5 1221.5,-210.5 1080.5,-210.5"/>
<text text-anchor="middle" x="1151" y="-217.5" font-family="Helvetica,sans-Serif" font-size="10.00">IG.Gr3d.VtkPlotter.Accessor</text>
</a>
</g>
</g>
<!-- Node2 -->
<g id="node2" class="node"><title>Node2</title>
<g id="a_node2"><a xlink:href="../../d4/d40/classIG_1_1Gr3d_1_1VtkPlotter.html" target="_top" xlink:title="Plotter class that uses a vtkRenderWindow object for plotting 3D graphics.">
<polygon fill="white" stroke="black" points="827,-210.5 827,-229.5 924,-229.5 924,-210.5 827,-210.5"/>
<text text-anchor="middle" x="875.5" y="-217.5" font-family="Helvetica,sans-Serif" font-size="10.00">IG.Gr3d.VtkPlotter</text>
</a>
</g>
</g>
<!-- Node2&#45;&gt;Node1 -->
<g id="edge1" class="edge"><title>Node2&#45;&gt;Node1</title>
<path fill="none" stroke="#9a32cd" stroke-dasharray="5,2" d="M934.352,-220C976.981,-220 1035.16,-220 1080.34,-220"/>
<polygon fill="#9a32cd" stroke="#9a32cd" points="934.14,-216.5 924.14,-220 934.14,-223.5 934.14,-216.5"/>
<text text-anchor="middle" x="1004.5" y="-223" font-family="Helvetica,sans-Serif" font-size="10.00"> _plotter</text>
</g>
<!-- Node8 -->
<g id="node8" class="node"><title>Node8</title>
<g id="a_node8"><a xlink:href="../../d1/d9a/classIG_1_1Gr3d_1_1VtkDecorationHandler.html" target="_top" xlink:title="Manipulates axes, labels, grids, and other decorations of graphhics plotted in VTK windows.">
<polygon fill="white" stroke="black" points="1077,-329.5 1077,-348.5 1225,-348.5 1225,-329.5 1077,-329.5"/>
<text text-anchor="middle" x="1151" y="-336.5" font-family="Helvetica,sans-Serif" font-size="10.00">IG.Gr3d.VtkDecorationHandler</text>
</a>
</g>
</g>
<!-- Node2&#45;&gt;Node8 -->
<g id="edge14" class="edge"><title>Node2&#45;&gt;Node8</title>
<path fill="none" stroke="#9a32cd" stroke-dasharray="5,2" d="M893.449,-236.589C907.5,-249.44 928.575,-266.733 950,-277 994.913,-298.523 1011.5,-288.024 1059,-303 1083.14,-310.612 1110.01,-321.559 1128.25,-329.38"/>
<polygon fill="#9a32cd" stroke="#9a32cd" points="895.722,-233.921 886.039,-229.622 890.927,-239.021 895.722,-233.921"/>
<text text-anchor="middle" x="1004.5" y="-317" font-family="Helvetica,sans-Serif" font-size="10.00"> _plotter</text>
<text text-anchor="middle" x="1004.5" y="-306" font-family="Helvetica,sans-Serif" font-size="10.00">_plotterAccessor</text>
</g>
<!-- Node3 -->
<g id="node3" class="node"><title>Node3</title>
<g id="a_node3"><a xlink:href="../../d3/db6/interfaceIG_1_1Lib_1_1ILockable.html" target="_top" xlink:title="Lockable object, has a Lock property that returns object on which lock must be performed in order to ...">
<polygon fill="white" stroke="black" points="598,-0.5 598,-19.5 656,-19.5 656,-0.5 598,-0.5"/>
<text text-anchor="middle" x="627" y="-7.5" font-family="Helvetica,sans-Serif" font-size="10.00">ILockable</text>
</a>
</g>
</g>
<!-- Node3&#45;&gt;Node2 -->
<g id="edge2" class="edge"><title>Node3&#45;&gt;Node2</title>
<path fill="none" stroke="midnightblue" d="M666.369,-14.5483C710.905,-20.5177 780.831,-32.2416 801,-49 853.691,-92.7794 869.518,-181.319 873.402,-210.462"/>
<polygon fill="midnightblue" stroke="midnightblue" points="666.554,-11.043 656.186,-13.2239 665.651,-17.9845 666.554,-11.043"/>
</g>
<!-- Node3&#45;&gt;Node8 -->
<g id="edge8" class="edge"><title>Node3&#45;&gt;Node8</title>
<path fill="none" stroke="midnightblue" d="M666.37,-7.15651C702.327,-5.85342 756.984,-7.41937 801,-24 934.759,-74.3868 958.072,-114.789 1059,-216 1063.95,-220.961 1122.56,-301.302 1143.01,-329.394"/>
<polygon fill="midnightblue" stroke="midnightblue" points="666.127,-3.66384 656.296,-7.61459 666.445,-10.6566 666.127,-3.66384"/>
</g>
<!-- Node4 -->
<g id="node4" class="node"><title>Node4</title>
<g id="a_node4"><a xlink:title=" ">
<polygon fill="white" stroke="#bfbfbf" points="593.5,-76.5 593.5,-95.5 660.5,-95.5 660.5,-76.5 593.5,-76.5"/>
<text text-anchor="middle" x="627" y="-83.5" font-family="Helvetica,sans-Serif" font-size="10.00">IDisposable</text>
</a>
</g>
</g>
<!-- Node4&#45;&gt;Node2 -->
<g id="edge3" class="edge"><title>Node4&#45;&gt;Node2</title>
<path fill="none" stroke="midnightblue" d="M670.876,-90.5338C714.89,-95.8229 779.843,-105.585 801,-119 837.263,-141.994 861.4,-189.838 870.475,-210.337"/>
<polygon fill="midnightblue" stroke="midnightblue" points="671.066,-87.0323 660.727,-89.3484 670.254,-93.985 671.066,-87.0323"/>
</g>
<!-- Node5 -->
<g id="node5" class="node"><title>Node5</title>
<g id="a_node5"><a xlink:href="../../dc/d11/interfaceIG_1_1Gr3d_1_1IVtkFormContainer.html" target="_top" xlink:title="This interface is implemented by the forms that contain the VTK control that can render VTK graphics.">
<polygon fill="white" stroke="black" points="560,-248.5 560,-267.5 694,-267.5 694,-248.5 560,-248.5"/>
<text text-anchor="middle" x="627" y="-255.5" font-family="Helvetica,sans-Serif" font-size="10.00">IG.Gr3d.IVtkFormContainer</text>
</a>
</g>
</g>
<!-- Node5&#45;&gt;Node2 -->
<g id="edge4" class="edge"><title>Node5&#45;&gt;Node2</title>
<path fill="none" stroke="#9a32cd" stroke-dasharray="5,2" d="M703.041,-246.934C733.461,-242.393 768.92,-237.029 801,-232 809.303,-230.698 818.128,-229.284 826.674,-227.898"/>
<polygon fill="#9a32cd" stroke="#9a32cd" points="702.305,-243.505 692.93,-248.441 703.336,-250.428 702.305,-243.505"/>
<text text-anchor="middle" x="756.5" y="-249" font-family="Helvetica,sans-Serif" font-size="10.00"> _formContainer</text>
</g>
<!-- Node6 -->
<g id="node6" class="node"><title>Node6</title>
<g id="a_node6"><a xlink:href="../../d3/d6e/interfaceIG_1_1Gr3d_1_1IVtkFormContainerGen.html" target="_top" xlink:title=" ">
<polygon fill="white" stroke="black" points="202,-237 202,-267 390,-267 390,-237 202,-237"/>
<text text-anchor="start" x="210" y="-255" font-family="Helvetica,sans-Serif" font-size="10.00">IVtkFormContainerGen</text>
<text text-anchor="middle" x="296" y="-244" font-family="Helvetica,sans-Serif" font-size="10.00">&lt; Kitware.VTK.RenderWindowControl &gt;</text>
</a>
</g>
</g>
<!-- Node6&#45;&gt;Node5 -->
<g id="edge5" class="edge"><title>Node6&#45;&gt;Node5</title>
<path fill="none" stroke="midnightblue" d="M400.673,-253.891C452.716,-254.84 514.213,-255.961 559.802,-256.793"/>
<polygon fill="midnightblue" stroke="midnightblue" points="400.46,-250.386 390.398,-253.703 400.333,-257.385 400.46,-250.386"/>
</g>
<!-- Node7 -->
<g id="node7" class="node"><title>Node7</title>
<g id="a_node7"><a xlink:href="../../df/d16/structIG_1_1Num_1_1vec3.html" target="_top" xlink:title="3D vector, struct implementation.">
<polygon fill="white" stroke="black" points="260,-118.5 260,-137.5 332,-137.5 332,-118.5 260,-118.5"/>
<text text-anchor="middle" x="296" y="-125.5" font-family="Helvetica,sans-Serif" font-size="10.00">IG.Num.vec3</text>
</a>
</g>
</g>
<!-- Node7&#45;&gt;Node2 -->
<g id="edge6" class="edge"><title>Node7&#45;&gt;Node2</title>
<path fill="none" stroke="#9a32cd" stroke-dasharray="5,2" d="M342.595,-124.862C416.96,-120.774 568.648,-116.746 694,-141 758.817,-153.541 828.494,-192.074 858.862,-210.28"/>
<polygon fill="#9a32cd" stroke="#9a32cd" points="341.978,-121.392 332.196,-125.462 342.381,-128.38 341.978,-121.392"/>
<text text-anchor="middle" x="627" y="-155" font-family="Helvetica,sans-Serif" font-size="10.00"> ScalingFactors</text>
<text text-anchor="middle" x="627" y="-144" font-family="Helvetica,sans-Serif" font-size="10.00">ScalingTranslations</text>
</g>
<!-- Node15 -->
<g id="node15" class="node"><title>Node15</title>
<g id="a_node15"><a xlink:href="../../da/d5b/classIG_1_1Num_1_1Vector3d.html" target="_top" xlink:title="Vector or point in a 3 dimensional space.">
<polygon fill="white" stroke="black" points="581,-38.5 581,-57.5 673,-57.5 673,-38.5 581,-38.5"/>
<text text-anchor="middle" x="627" y="-45.5" font-family="Helvetica,sans-Serif" font-size="10.00">IG.Num.Vector3d</text>
</a>
</g>
</g>
<!-- Node7&#45;&gt;Node15 -->
<g id="edge25" class="edge"><title>Node7&#45;&gt;Node15</title>
<path fill="none" stroke="#9a32cd" stroke-dasharray="5,2" d="M342.121,-119.48C412.262,-106.218 539.714,-82.0352 542,-81 551.232,-76.8185 550.967,-71.596 560,-67 567.439,-63.215 575.744,-60.0793 583.886,-57.5208"/>
<polygon fill="#9a32cd" stroke="#9a32cd" points="341.386,-116.057 332.21,-121.354 342.686,-122.935 341.386,-116.057"/>
<text text-anchor="middle" x="475" y="-110" font-family="Helvetica,sans-Serif" font-size="10.00"> _v</text>
</g>
<!-- Node8&#45;&gt;Node2 -->
<g id="edge7" class="edge"><title>Node8&#45;&gt;Node2</title>
<path fill="none" stroke="#9a32cd" stroke-dasharray="5,2" d="M1133.4,-321.941C1116.25,-305.29 1087.99,-280.416 1059,-266 1035.52,-254.324 969.747,-239.207 923.941,-229.554"/>
<polygon fill="#9a32cd" stroke="#9a32cd" points="1131.32,-324.806 1140.88,-329.373 1136.25,-319.841 1131.32,-324.806"/>
<text text-anchor="middle" x="1004.5" y="-269" font-family="Helvetica,sans-Serif" font-size="10.00"> _decorationHandler</text>
</g>
<!-- Node9 -->
<g id="node9" class="node"><title>Node9</title>
<g id="a_node9"><a xlink:href="../../d5/d87/classIG_1_1Lib_1_1ColorScale.html" target="_top" xlink:title=" ">
<polygon fill="white" stroke="black" points="829.5,-368.5 829.5,-387.5 921.5,-387.5 921.5,-368.5 829.5,-368.5"/>
<text text-anchor="middle" x="875.5" y="-375.5" font-family="Helvetica,sans-Serif" font-size="10.00">IG.Lib.ColorScale</text>
</a>
</g>
</g>
<!-- Node9&#45;&gt;Node8 -->
<g id="edge9" class="edge"><title>Node9&#45;&gt;Node8</title>
<path fill="none" stroke="#9a32cd" stroke-dasharray="5,2" d="M931.877,-370.656C968.074,-365.796 1016.37,-359.199 1059,-353 1068.65,-351.597 1078.87,-350.068 1088.83,-348.552"/>
<polygon fill="#9a32cd" stroke="#9a32cd" points="930.976,-367.245 921.529,-372.042 931.905,-374.183 930.976,-367.245"/>
<text text-anchor="middle" x="1004.5" y="-372" font-family="Helvetica,sans-Serif" font-size="10.00"> _lookUpTableColorScale</text>
</g>
<!-- Node10 -->
<g id="node10" class="node"><title>Node10</title>
<g id="a_node10"><a xlink:href="../../d1/d6b/classIG_1_1Lib_1_1ColorScaleBase.html" target="_top" xlink:title=" ">
<polygon fill="white" stroke="black" points="584,-426.5 584,-445.5 670,-445.5 670,-426.5 584,-426.5"/>
<text text-anchor="middle" x="627" y="-433.5" font-family="Helvetica,sans-Serif" font-size="10.00">ColorScaleBase</text>
</a>
</g>
</g>
<!-- Node10&#45;&gt;Node9 -->
<g id="edge10" class="edge"><title>Node10&#45;&gt;Node9</title>
<path fill="none" stroke="midnightblue" d="M680.427,-436.169C715.835,-434.527 762.886,-428.851 801,-412 810.524,-407.789 809.923,-402.104 819,-397 825.569,-393.306 832.978,-390.16 840.192,-387.554"/>
<polygon fill="midnightblue" stroke="midnightblue" points="680.166,-432.676 670.302,-436.544 680.425,-439.671 680.166,-432.676"/>
</g>
<!-- Node11 -->
<g id="node11" class="node"><title>Node11</title>
<g id="a_node11"><a xlink:href="../../d0/d9a/interfaceIG_1_1Lib_1_1IColorScale.html" target="_top" xlink:title=" ">
<polygon fill="white" stroke="black" points="263,-404.5 263,-423.5 329,-423.5 329,-404.5 263,-404.5"/>
<text text-anchor="middle" x="296" y="-411.5" font-family="Helvetica,sans-Serif" font-size="10.00">IColorScale</text>
</a>
</g>
</g>
<!-- Node11&#45;&gt;Node9 -->
<g id="edge12" class="edge"><title>Node11&#45;&gt;Node9</title>
<path fill="none" stroke="midnightblue" d="M339.28,-411.364C445.092,-404.768 720.621,-387.592 829.391,-380.812"/>
<polygon fill="midnightblue" stroke="midnightblue" points="339.049,-407.872 329.286,-411.987 339.485,-414.858 339.049,-407.872"/>
</g>
<!-- Node11&#45;&gt;Node10 -->
<g id="edge11" class="edge"><title>Node11&#45;&gt;Node10</title>
<path fill="none" stroke="midnightblue" d="M339.162,-416.819C402.339,-421.044 520.869,-428.97 583.969,-433.189"/>
<polygon fill="midnightblue" stroke="midnightblue" points="339.356,-413.325 329.145,-416.15 338.889,-420.309 339.356,-413.325"/>
</g>
<!-- Node12 -->
<g id="node12" class="node"><title>Node12</title>
<g id="a_node12"><a xlink:href="../../dd/d52/structIG_1_1Lib_1_1color.html" target="_top" xlink:title="Extended color representation. Stores RGB components and opacity as double numbers ranging fom 0 to 1...">
<polygon fill="white" stroke="black" points="594,-329.5 594,-348.5 660,-348.5 660,-329.5 594,-329.5"/>
<text text-anchor="middle" x="627" y="-336.5" font-family="Helvetica,sans-Serif" font-size="10.00">IG.Lib.color</text>
</a>
</g>
</g>
<!-- Node12&#45;&gt;Node2 -->
<g id="edge18" class="edge"><title>Node12&#45;&gt;Node2</title>
<path fill="none" stroke="#9a32cd" stroke-dasharray="5,2" d="M668.689,-326.566C682.416,-322.457 697.844,-317.934 712,-314 751.363,-303.06 765.354,-310.962 801,-291 829.483,-275.049 854.992,-245.349 867.088,-229.904"/>
<polygon fill="#9a32cd" stroke="#9a32cd" points="667.605,-323.237 659.038,-329.469 669.622,-329.94 667.605,-323.237"/>
<text text-anchor="middle" x="756.5" y="-317" font-family="Helvetica,sans-Serif" font-size="10.00"> _backGround</text>
</g>
<!-- Node12&#45;&gt;Node8 -->
<g id="edge15" class="edge"><title>Node12&#45;&gt;Node8</title>
<path fill="none" stroke="#9a32cd" stroke-dasharray="5,2" d="M670.51,-339C759.465,-339 966.138,-339 1076.86,-339"/>
<polygon fill="#9a32cd" stroke="#9a32cd" points="670.26,-335.5 660.26,-339 670.259,-342.5 670.26,-335.5"/>
<text text-anchor="middle" x="875.5" y="-342" font-family="Helvetica,sans-Serif" font-size="10.00"> _cubeAxesColor</text>
</g>
<!-- Node12&#45;&gt;Node9 -->
<g id="edge13" class="edge"><title>Node12&#45;&gt;Node9</title>
<path fill="none" stroke="#9a32cd" stroke-dasharray="5,2" d="M670.375,-345.704C714.682,-352.714 783.955,-363.674 829.293,-370.848"/>
<polygon fill="#9a32cd" stroke="#9a32cd" points="670.65,-342.204 660.226,-344.099 669.556,-349.118 670.65,-342.204"/>
<text text-anchor="middle" x="756.5" y="-369" font-family="Helvetica,sans-Serif" font-size="10.00"> _definitionColors</text>
</g>
<!-- Node13 -->
<g id="node13" class="node"><title>Node13</title>
<g id="a_node13"><a xlink:href="../../db/d5e/interfaceIG_1_1Num_1_1IBoundingBox.html" target="_top" xlink:title="Bounding box, defines minimum and maximum co&#45;ordinates of domains, geometric objects and their groups...">
<polygon fill="white" stroke="black" points="819,-406.5 819,-425.5 932,-425.5 932,-406.5 819,-406.5"/>
<text text-anchor="middle" x="875.5" y="-413.5" font-family="Helvetica,sans-Serif" font-size="10.00">IG.Num.IBoundingBox</text>
</a>
</g>
</g>
<!-- Node13&#45;&gt;Node8 -->
<g id="edge16" class="edge"><title>Node13&#45;&gt;Node8</title>
<path fill="none" stroke="#9a32cd" stroke-dasharray="5,2" d="M942.367,-409.07C977.568,-404.221 1021.3,-396.344 1059,-384 1086.64,-374.951 1116.45,-358.873 1134.16,-348.586"/>
<polygon fill="#9a32cd" stroke="#9a32cd" points="941.658,-405.634 932.206,-410.419 942.58,-412.573 941.658,-405.634"/>
<text text-anchor="middle" x="1004.5" y="-411" font-family="Helvetica,sans-Serif" font-size="10.00"> _bounds</text>
</g>
<!-- Node14 -->
<g id="node14" class="node"><title>Node14</title>
<g id="a_node14"><a xlink:title=" ">
<polygon fill="white" stroke="#bfbfbf" points="33,-286.5 33,-305.5 74,-305.5 74,-286.5 33,-286.5"/>
<text text-anchor="middle" x="53.5" y="-293.5" font-family="Helvetica,sans-Serif" font-size="10.00">static</text>
</a>
</g>
</g>
<!-- Node14&#45;&gt;Node2 -->
<g id="edge32" class="edge"><title>Node14&#45;&gt;Node2</title>
<path fill="none" stroke="#9a32cd" stroke-dasharray="5,2" d="M84.3511,-296.37C175.762,-297.232 459.849,-297.911 694,-277 741.894,-272.723 755.489,-276.519 801,-261 823.266,-253.408 846.596,-239.149 860.846,-229.611"/>
<polygon fill="#9a32cd" stroke="#9a32cd" points="84.2104,-292.868 74.1749,-296.265 84.1383,-299.868 84.2104,-292.868"/>
<text text-anchor="middle" x="475" y="-340" font-family="Helvetica,sans-Serif" font-size="10.00"> DefaultIsAllowedVtkFormPlain</text>
<text text-anchor="middle" x="475" y="-329" font-family="Helvetica,sans-Serif" font-size="10.00">DefaultIsAllowedVtkForm</text>
<text text-anchor="middle" x="475" y="-318" font-family="Helvetica,sans-Serif" font-size="10.00">DefaultBackground</text>
<text text-anchor="middle" x="475" y="-307" font-family="Helvetica,sans-Serif" font-size="10.00">_defaultOutputLevel</text>
<text text-anchor="middle" x="475" y="-296" font-family="Helvetica,sans-Serif" font-size="10.00">DefaultFormContainerParallel</text>
</g>
<!-- Node14&#45;&gt;Node8 -->
<g id="edge17" class="edge"><title>Node14&#45;&gt;Node8</title>
<path fill="none" stroke="#9a32cd" stroke-dasharray="5,2" d="M65.8668,-314.317C96.5465,-361.224 186.114,-482 295,-482 295,-482 295,-482 876.5,-482 961.744,-482 985.41,-466.024 1059,-423 1094.27,-402.382 1127.31,-366.098 1142.01,-348.76"/>
<polygon fill="#9a32cd" stroke="#9a32cd" points="68.7152,-312.275 60.3773,-305.738 62.8189,-316.048 68.7152,-312.275"/>
<text text-anchor="middle" x="627" y="-496" font-family="Helvetica,sans-Serif" font-size="10.00"> min</text>
<text text-anchor="middle" x="627" y="-485" font-family="Helvetica,sans-Serif" font-size="10.00">max</text>
</g>
<!-- Node16 -->
<g id="node16" class="node"><title>Node16</title>
<g id="a_node16"><a xlink:href="../../d0/d5a/classIG_1_1Num_1_1VectorBase.html" target="_top" xlink:title="Base class for real vectors.">
<polygon fill="white" stroke="black" points="262,-76.5 262,-95.5 330,-95.5 330,-76.5 262,-76.5"/>
<text text-anchor="middle" x="296" y="-83.5" font-family="Helvetica,sans-Serif" font-size="10.00">VectorBase</text>
</a>
</g>
</g>
<!-- Node14&#45;&gt;Node16 -->
<g id="edge22" class="edge"><title>Node14&#45;&gt;Node16</title>
<path fill="none" stroke="#9a32cd" stroke-dasharray="5,2" d="M77.2724,-280.446C106.325,-259.421 156.138,-219.202 184,-173 199.259,-147.697 180.778,-129.56 202,-109 217.768,-93.7239 242.002,-88.0863 261.778,-86.2089"/>
<polygon fill="#9a32cd" stroke="#9a32cd" points="75.098,-277.698 68.9699,-286.34 79.1501,-283.406 75.098,-277.698"/>
<text text-anchor="middle" x="154.5" y="-243" font-family="Helvetica,sans-Serif" font-size="10.00"> _matrixStore</text>
</g>
<!-- Node15&#45;&gt;Node2 -->
<g id="edge19" class="edge"><title>Node15&#45;&gt;Node2</title>
<path fill="none" stroke="#9a32cd" stroke-dasharray="5,2" d="M683.345,-49.7741C726.679,-52.1699 782.596,-57.7959 801,-71 849.982,-106.143 867.975,-183.215 872.93,-210.331"/>
<polygon fill="#9a32cd" stroke="#9a32cd" points="683.356,-46.2702 673.191,-49.2579 683,-53.2612 683.356,-46.2702"/>
<text text-anchor="middle" x="756.5" y="-85" font-family="Helvetica,sans-Serif" font-size="10.00"> vecOriginal</text>
<text text-anchor="middle" x="756.5" y="-74" font-family="Helvetica,sans-Serif" font-size="10.00">vecScaled</text>
</g>
<!-- Node16&#45;&gt;Node15 -->
<g id="edge20" class="edge"><title>Node16&#45;&gt;Node15</title>
<path fill="none" stroke="midnightblue" d="M340.551,-81.4722C389.563,-76.3134 471.547,-67.4942 542,-59 554.558,-57.486 568.158,-55.7478 580.683,-54.1069"/>
<polygon fill="midnightblue" stroke="midnightblue" points="339.892,-78.022 330.312,-82.5471 340.623,-84.9838 339.892,-78.022"/>
</g>
<!-- Node17 -->
<g id="node17" class="node"><title>Node17</title>
<g id="a_node17"><a xlink:href="../../d3/d24/interfaceIG_1_1Num_1_1IVector.html" target="_top" xlink:title="Generic Vector interface">
<polygon fill="white" stroke="black" points="30,-38.5 30,-57.5 77,-57.5 77,-38.5 30,-38.5"/>
<text text-anchor="middle" x="53.5" y="-45.5" font-family="Helvetica,sans-Serif" font-size="10.00">IVector</text>
</a>
</g>
</g>
<!-- Node17&#45;&gt;Node15 -->
<g id="edge23" class="edge"><title>Node17&#45;&gt;Node15</title>
<path fill="none" stroke="midnightblue" d="M87.6636,-42.4929C117.481,-37.8368 162.529,-31.5317 202,-29 339.876,-20.1564 503.237,-34.4597 580.788,-42.7474"/>
<polygon fill="midnightblue" stroke="midnightblue" points="86.7323,-39.0969 77.4059,-44.1237 87.8314,-46.0101 86.7323,-39.0969"/>
</g>
<!-- Node17&#45;&gt;Node16 -->
<g id="edge21" class="edge"><title>Node17&#45;&gt;Node16</title>
<path fill="none" stroke="midnightblue" d="M87.1249,-53.1549C132.959,-60.3968 215.946,-73.5092 261.988,-80.784"/>
<polygon fill="midnightblue" stroke="midnightblue" points="87.5494,-49.6786 77.1257,-51.5749 86.4569,-56.5928 87.5494,-49.6786"/>
</g>
<!-- Node18 -->
<g id="node18" class="node"><title>Node18</title>
<g id="a_node18"><a xlink:title=" ">
<polygon fill="white" stroke="#bfbfbf" points="265,-38.5 265,-57.5 327,-57.5 327,-38.5 265,-38.5"/>
<text text-anchor="middle" x="296" y="-45.5" font-family="Helvetica,sans-Serif" font-size="10.00">ICloneable</text>
</a>
</g>
</g>
<!-- Node18&#45;&gt;Node15 -->
<g id="edge24" class="edge"><title>Node18&#45;&gt;Node15</title>
<path fill="none" stroke="midnightblue" d="M337.184,-48C398.819,-48 516.317,-48 580.824,-48"/>
<polygon fill="midnightblue" stroke="midnightblue" points="337.069,-44.5001 327.069,-48 337.069,-51.5001 337.069,-44.5001"/>
</g>
<!-- Node19 -->
<g id="node19" class="node"><title>Node19</title>
<g id="a_node19"><a xlink:title=" ">
<polygon fill="white" stroke="#bfbfbf" points="609.5,-210.5 609.5,-229.5 644.5,-229.5 644.5,-210.5 609.5,-210.5"/>
<text text-anchor="middle" x="627" y="-217.5" font-family="Helvetica,sans-Serif" font-size="10.00">VTK</text>
</a>
</g>
</g>
<!-- Node19&#45;&gt;Node2 -->
<g id="edge26" class="edge"><title>Node19&#45;&gt;Node2</title>
<path fill="none" stroke="#9a32cd" stroke-dasharray="5,2" d="M654.604,-220C695.693,-220 775.201,-220 826.511,-220"/>
<polygon fill="#9a32cd" stroke="#9a32cd" points="654.556,-216.5 644.556,-220 654.556,-223.5 654.556,-216.5"/>
<text text-anchor="middle" x="756.5" y="-223" font-family="Helvetica,sans-Serif" font-size="10.00"> _renderControl</text>
</g>
<!-- Node20 -->
<g id="node20" class="node"><title>Node20</title>
<g id="a_node20"><a xlink:href="../../d5/da6/classIG_1_1Num_1_1BoundingBox3d.html" target="_top" xlink:title="A 3D bounding box.">
<polygon fill="white" stroke="black" points="566.5,-172.5 566.5,-191.5 687.5,-191.5 687.5,-172.5 566.5,-172.5"/>
<text text-anchor="middle" x="627" y="-179.5" font-family="Helvetica,sans-Serif" font-size="10.00">IG.Num.BoundingBox3d</text>
</a>
</g>
</g>
<!-- Node20&#45;&gt;Node2 -->
<g id="edge27" class="edge"><title>Node20&#45;&gt;Node2</title>
<path fill="none" stroke="#9a32cd" stroke-dasharray="5,2" d="M697.871,-182.554C729.615,-183.9 767.484,-187.044 801,-194 818.759,-197.686 838.064,-204.636 852.432,-210.424"/>
<polygon fill="#9a32cd" stroke="#9a32cd" points="697.916,-179.053 687.792,-182.177 697.655,-186.048 697.916,-179.053"/>
<text text-anchor="middle" x="756.5" y="-208" font-family="Helvetica,sans-Serif" font-size="10.00"> _boundsScaled</text>
<text text-anchor="middle" x="756.5" y="-197" font-family="Helvetica,sans-Serif" font-size="10.00">_boundsCoordinates</text>
</g>
<!-- Node21 -->
<g id="node21" class="node"><title>Node21</title>
<g id="a_node21"><a xlink:href="../../df/d61/classIG_1_1Num_1_1BoundingBoxBase.html" target="_top" xlink:title="Base class for bounding boxes that define minimal and maximal co&#45;ordinates of objects,...">
<polygon fill="white" stroke="black" points="247.5,-160.5 247.5,-179.5 344.5,-179.5 344.5,-160.5 247.5,-160.5"/>
<text text-anchor="middle" x="296" y="-167.5" font-family="Helvetica,sans-Serif" font-size="10.00">BoundingBoxBase</text>
</a>
</g>
</g>
<!-- Node21&#45;&gt;Node20 -->
<g id="edge28" class="edge"><title>Node21&#45;&gt;Node20</title>
<path fill="none" stroke="midnightblue" d="M355.181,-172.122C414.615,-174.29 506.446,-177.639 566.392,-179.826"/>
<polygon fill="midnightblue" stroke="midnightblue" points="354.96,-168.612 344.839,-171.745 354.705,-175.607 354.96,-168.612"/>
</g>
<!-- Node22 -->
<g id="node22" class="node"><title>Node22</title>
<g id="a_node22"><a xlink:href="../../db/d5e/interfaceIG_1_1Num_1_1IBoundingBox.html" target="_top" xlink:title="Bounding box, defines minimum and maximum co&#45;ordinates of domains, geometric objects and their groups...">
<polygon fill="white" stroke="black" points="15,-186.5 15,-205.5 92,-205.5 92,-186.5 15,-186.5"/>
<text text-anchor="middle" x="53.5" y="-193.5" font-family="Helvetica,sans-Serif" font-size="10.00">IBoundingBox</text>
</a>
</g>
</g>
<!-- Node22&#45;&gt;Node20 -->
<g id="edge31" class="edge"><title>Node22&#45;&gt;Node20</title>
<path fill="none" stroke="midnightblue" d="M102.29,-197.037C189.67,-198.592 381.032,-200.427 542,-191 549.907,-190.537 558.215,-189.869 566.404,-189.103"/>
<polygon fill="midnightblue" stroke="midnightblue" points="102.222,-193.535 92.1588,-196.849 102.092,-200.534 102.222,-193.535"/>
</g>
<!-- Node22&#45;&gt;Node21 -->
<g id="edge29" class="edge"><title>Node22&#45;&gt;Node21</title>
<path fill="none" stroke="midnightblue" d="M102.078,-190.856C144.158,-186.307 205.237,-179.704 247.341,-175.152"/>
<polygon fill="midnightblue" stroke="midnightblue" points="101.644,-187.383 92.0781,-191.938 102.396,-194.342 101.644,-187.383"/>
</g>
<!-- Node23 -->
<g id="node23" class="node"><title>Node23</title>
<g id="a_node23"><a xlink:href="../../d3/d24/interfaceIG_1_1Num_1_1IVector.html" target="_top" xlink:title="Generic Vector interface">
<polygon fill="white" stroke="black" points="0,-136.5 0,-155.5 107,-155.5 107,-136.5 0,-136.5"/>
<text text-anchor="middle" x="53.5" y="-143.5" font-family="Helvetica,sans-Serif" font-size="10.00">IG.Num.IVector&lt; T &gt;</text>
</a>
</g>
</g>
<!-- Node23&#45;&gt;Node21 -->
<g id="edge30" class="edge"><title>Node23&#45;&gt;Node21</title>
<path fill="none" stroke="#9a32cd" stroke-dasharray="5,2" d="M117.426,-144.007C138.627,-143.994 162.385,-144.7 184,-147 209.049,-149.666 236.799,-155.416 258.287,-160.499"/>
<polygon fill="#9a32cd" stroke="#9a32cd" points="117.224,-140.508 107.245,-144.067 117.265,-147.508 117.224,-140.508"/>
<text text-anchor="middle" x="154.5" y="-161" font-family="Helvetica,sans-Serif" font-size="10.00"> _maxAux</text>
<text text-anchor="middle" x="154.5" y="-150" font-family="Helvetica,sans-Serif" font-size="10.00">_minAux</text>
</g>
</g>
</svg>
        <g id="navigator" transform="translate(0 0)" fill="#404254">
                <rect fill="#f2f5e9" fill-opacity="0.5" stroke="#606060" stroke-width=".5" x="0" y="0" width="60" height="60"/>
                <use id="zoomplus" xlink:href="#zoomPlus" x="17" y="9" onmousedown="handleZoom(evt,'in')"/>
                <use id="zoomminus" xlink:href="#zoomMin" x="42" y="9" onmousedown="handleZoom(evt,'out')"/>
                <use id="reset" xlink:href="#resetDef" x="30" y="36" onmousedown="handleReset()"/>
                <g id="arrowUp" xlink:href="#dirArrow" transform="translate(30 24)" onmousedown="handlePan(0,-1)">
                  <use xlink:href="#rim" fill="#404040">
                        <set attributeName="fill" to="#808080" begin="arrowUp.mouseover" end="arrowUp.mouseout"/>
                  </use>
                  <path fill="none" stroke="white" stroke-width="1.5" d="M0,-3.0v7 M-2.5,-0.5L0,-3.0L2.5,-0.5"/>
                </g>
                <g id="arrowRight" xlink:href="#dirArrow" transform="rotate(90) translate(36 -43)" onmousedown="handlePan(1,0)">
                  <use xlink:href="#rim" fill="#404040">
                        <set attributeName="fill" to="#808080" begin="arrowRight.mouseover" end="arrowRight.mouseout"/>
                  </use>
                  <path fill="none" stroke="white" stroke-width="1.5" d="M0,-3.0v7 M-2.5,-0.5L0,-3.0L2.5,-0.5"/>
                </g>
                <g id="arrowDown" xlink:href="#dirArrow" transform="rotate(180) translate(-30 -48)" onmousedown="handlePan(0,1)">
                  <use xlink:href="#rim" fill="#404040">
                        <set attributeName="fill" to="#808080" begin="arrowDown.mouseover" end="arrowDown.mouseout"/>
                  </use>
                  <path fill="none" stroke="white" stroke-width="1.5" d="M0,-3.0v7 M-2.5,-0.5L0,-3.0L2.5,-0.5"/>
                </g>
                <g id="arrowLeft" xlink:href="#dirArrow" transform="rotate(270) translate(-36 17)" onmousedown="handlePan(-1,0)">
                  <use xlink:href="#rim" fill="#404040">
                        <set attributeName="fill" to="#808080" begin="arrowLeft.mouseover" end="arrowLeft.mouseout"/>
                  </use>
                  <path fill="none" stroke="white" stroke-width="1.5" d="M0,-3.0v7 M-2.5,-0.5L0,-3.0L2.5,-0.5"/>
                </g>
        </g>
        <svg viewBox="0 0 15 15" width="100%" height="30px" preserveAspectRatio="xMaxYMin meet">
         <g id="arrow_out" transform="scale(0.3 0.3)">
          <a xlink:href="classIG_1_1Gr3d_1_1VtkPlotter_1_1Accessor__coll__graph_org.svg" target="_base">
           <rect id="button" ry="5" rx="5" y="6" x="6" height="38" width="38"
                fill="#f2f5e9" fill-opacity="0.5" stroke="#606060" stroke-width="1.0"/>
           <path id="arrow"
             d="M 11.500037,31.436501 C 11.940474,20.09759 22.043105,11.32322 32.158766,21.979434 L 37.068811,17.246167 C 37.068811,17.246167 37.088388,32 37.088388,32 L 22.160133,31.978069 C 22.160133,31.978069 26.997745,27.140456 26.997745,27.140456 C 18.528582,18.264221 13.291696,25.230495 11.500037,31.436501 z"
             style="fill:#404040;"/>
          </a>
         </g>
        </svg>
</svg>
