<?xml version="1.0" encoding="UTF-8" standalone="no"?>
<!DOCTYPE svg PUBLIC "-//W3C//DTD SVG 1.1//EN"
 "http://www.w3.org/Graphics/SVG/1.1/DTD/svg11.dtd">
<!-- Generated by graphviz version 2.38.0 (20140413.2041)
 -->
<!-- Title: NUnit.Framework.Api.DefaultTestAssemblyBuilder Pages: 1 -->
<svg width="337pt" height="117pt"
 viewBox="0.00 0.00 336.50 117.00" xmlns="http://www.w3.org/2000/svg" xmlns:xlink="http://www.w3.org/1999/xlink">
<g id="graph0" class="graph" transform="scale(1 1) rotate(0) translate(4 113)">
<title>NUnit.Framework.Api.DefaultTestAssemblyBuilder</title>
<polygon fill="white" stroke="none" points="-4,4 -4,-113 332.5,-113 332.5,4 -4,4"/>
<!-- Node1 -->
<g id="node1" class="node"><title>Node1</title>
<g id="a_node1"><a xlink:title="DefaultTestAssemblyBuilder loads a single assembly and builds a TestSuite containing test fixtures pr...">
<polygon fill="#bfbfbf" stroke="black" points="78.5,-0.5 78.5,-30.5 220.5,-30.5 220.5,-0.5 78.5,-0.5"/>
<text text-anchor="start" x="86.5" y="-18.5" font-family="Helvetica,sans-Serif" font-size="10.00">NUnit.Framework.Api.Default</text>
<text text-anchor="middle" x="149.5" y="-7.5" font-family="Helvetica,sans-Serif" font-size="10.00">TestAssemblyBuilder</text>
</a>
</g>
</g>
<!-- Node2 -->
<g id="node2" class="node"><title>Node2</title>
<g id="a_node2"><a xlink:href="../../dd/d84/interfaceNUnit_1_1Framework_1_1Api_1_1ITestAssemblyBuilder.html" target="_top" xlink:title="The ITestAssemblyBuilder interface is implemented by a class that is able to build a suite of tests g...">
<polygon fill="white" stroke="black" points="0,-84 0,-103 111,-103 111,-84 0,-84"/>
<text text-anchor="middle" x="55.5" y="-91" font-family="Helvetica,sans-Serif" font-size="10.00">ITestAssemblyBuilder</text>
</a>
</g>
</g>
<!-- Node2&#45;&gt;Node1 -->
<g id="edge1" class="edge"><title>Node2&#45;&gt;Node1</title>
<path fill="none" stroke="midnightblue" d="M74.3235,-77.281C91.1985,-63.6374 115.755,-43.7832 132.16,-30.5198"/>
<polygon fill="midnightblue" stroke="midnightblue" points="71.8588,-74.7729 66.283,-83.7818 76.2599,-80.2163 71.8588,-74.7729"/>
</g>
<!-- Node3 -->
<g id="node3" class="node"><title>Node3</title>
<g id="a_node3"><a xlink:title=" ">
<polygon fill="white" stroke="#bfbfbf" points="129,-84 129,-103 170,-103 170,-84 129,-84"/>
<text text-anchor="middle" x="149.5" y="-91" font-family="Helvetica,sans-Serif" font-size="10.00">static</text>
</a>
</g>
</g>
<!-- Node3&#45;&gt;Node1 -->
<g id="edge2" class="edge"><title>Node3&#45;&gt;Node1</title>
<path fill="none" stroke="#9a32cd" stroke-dasharray="5,2" d="M149.5,-73.7816C149.5,-60.4036 149.5,-42.688 149.5,-30.5198"/>
<polygon fill="#9a32cd" stroke="#9a32cd" points="146,-73.7818 149.5,-83.7818 153,-73.7819 146,-73.7818"/>
<text text-anchor="middle" x="157.5" y="-52" font-family="Helvetica,sans-Serif" font-size="10.00"> log</text>
</g>
<!-- Node4 -->
<g id="node4" class="node"><title>Node4</title>
<g id="a_node4"><a xlink:href="../../d0/d01/interfaceNUnit_1_1Framework_1_1Interfaces_1_1ISuiteBuilder.html" target="_top" xlink:title="The ISuiteBuilder interface is exposed by a class that knows how to build a suite from one or more Ty...">
<polygon fill="white" stroke="black" points="188.5,-78.5 188.5,-108.5 328.5,-108.5 328.5,-78.5 188.5,-78.5"/>
<text text-anchor="start" x="196.5" y="-96.5" font-family="Helvetica,sans-Serif" font-size="10.00">NUnit.Framework.Interfaces.</text>
<text text-anchor="middle" x="258.5" y="-85.5" font-family="Helvetica,sans-Serif" font-size="10.00">ISuiteBuilder</text>
</a>
</g>
</g>
<!-- Node4&#45;&gt;Node1 -->
<g id="edge3" class="edge"><title>Node4&#45;&gt;Node1</title>
<path fill="none" stroke="#9a32cd" stroke-dasharray="5,2" d="M229.974,-72.6106C211.016,-59.3919 186.584,-42.3569 169.638,-30.5413"/>
<polygon fill="#9a32cd" stroke="#9a32cd" points="228.049,-75.5346 238.253,-78.3831 232.052,-69.7926 228.049,-75.5346"/>
<text text-anchor="middle" x="256.5" y="-52" font-family="Helvetica,sans-Serif" font-size="10.00"> _defaultSuiteBuilder</text>
</g>
</g>
</svg>
