<?xml version="1.0" encoding="UTF-8" standalone="no"?>
<!DOCTYPE svg PUBLIC "-//W3C//DTD SVG 1.1//EN"
 "http://www.w3.org/Graphics/SVG/1.1/DTD/svg11.dtd">
<!-- Generated by graphviz version 2.38.0 (20140413.2041)
 -->
<!-- Title: IG.Script.ScriptExtTemplate Pages: 1 -->
<svg width="182pt" height="140pt"
 viewBox="0.00 0.00 181.50 140.00" xmlns="http://www.w3.org/2000/svg" xmlns:xlink="http://www.w3.org/1999/xlink">
<g id="graph0" class="graph" transform="scale(1 1) rotate(0) translate(4 136)">
<title>IG.Script.ScriptExtTemplate</title>
<polygon fill="white" stroke="none" points="-4,4 -4,-136 177.5,-136 177.5,4 -4,4"/>
<!-- Node1 -->
<g id="node1" class="node"><title>Node1</title>
<g id="a_node1"><a xlink:title="A template script for running tests.">
<polygon fill="#bfbfbf" stroke="black" points="12.5,-0.5 12.5,-19.5 150.5,-19.5 150.5,-0.5 12.5,-0.5"/>
<text text-anchor="middle" x="81.5" y="-7.5" font-family="Helvetica,sans-Serif" font-size="10.00">IG.Script.ScriptExtTemplate</text>
</a>
</g>
</g>
<!-- Node2 -->
<g id="node2" class="node"><title>Node2</title>
<g id="a_node2"><a xlink:href="../../d7/d15/classIG_1_1Lib_1_1LoadableScriptBase.html" target="_top" xlink:title="Base class for classes that can be dynamically loadeded from scripts and run, which provides function...">
<polygon fill="white" stroke="black" points="69.5,-56.5 69.5,-75.5 173.5,-75.5 173.5,-56.5 69.5,-56.5"/>
<text text-anchor="middle" x="121.5" y="-63.5" font-family="Helvetica,sans-Serif" font-size="10.00">LoadableScriptBase</text>
</a>
</g>
</g>
<!-- Node2&#45;&gt;Node1 -->
<g id="edge1" class="edge"><title>Node2&#45;&gt;Node1</title>
<path fill="none" stroke="midnightblue" d="M108.8,-47.8554C101.874,-38.5048 93.5937,-27.3265 87.9823,-19.7511"/>
<polygon fill="midnightblue" stroke="midnightblue" points="106.13,-50.1307 114.895,-56.083 111.755,-45.9641 106.13,-50.1307"/>
</g>
<!-- Node3 -->
<g id="node3" class="node"><title>Node3</title>
<g id="a_node3"><a xlink:href="../../d7/d66/interfaceIG_1_1Lib_1_1ILoadableScript.html" target="_top" xlink:title="Interface for classes that can be dynamically loadeded from scripts and run, which provides functiona...">
<polygon fill="white" stroke="black" points="0,-112.5 0,-131.5 83,-131.5 83,-112.5 0,-112.5"/>
<text text-anchor="middle" x="41.5" y="-119.5" font-family="Helvetica,sans-Serif" font-size="10.00">ILoadableScript</text>
</a>
</g>
</g>
<!-- Node3&#45;&gt;Node1 -->
<g id="edge4" class="edge"><title>Node3&#45;&gt;Node1</title>
<path fill="none" stroke="midnightblue" d="M46.0453,-102.72C49.51,-89.5582 54.6679,-71.4704 60.5,-56 65.3658,-43.0926 72.3525,-28.7413 76.9082,-19.793"/>
<polygon fill="midnightblue" stroke="midnightblue" points="42.6435,-101.895 43.5556,-112.451 49.4251,-103.631 42.6435,-101.895"/>
</g>
<!-- Node3&#45;&gt;Node2 -->
<g id="edge2" class="edge"><title>Node3&#45;&gt;Node2</title>
<path fill="none" stroke="midnightblue" d="M62.8006,-106.622C77.415,-96.7574 96.3268,-83.9919 108.679,-75.6545"/>
<polygon fill="midnightblue" stroke="midnightblue" points="60.6837,-103.828 54.3534,-112.324 64.6001,-109.63 60.6837,-103.828"/>
</g>
<!-- Node4 -->
<g id="node4" class="node"><title>Node4</title>
<g id="a_node4"><a xlink:href="../../d3/db6/interfaceIG_1_1Lib_1_1ILockable.html" target="_top" xlink:title="Lockable object, has a Lock property that returns object on which lock must be performed in order to ...">
<polygon fill="white" stroke="black" points="101.5,-112.5 101.5,-131.5 159.5,-131.5 159.5,-112.5 101.5,-112.5"/>
<text text-anchor="middle" x="130.5" y="-119.5" font-family="Helvetica,sans-Serif" font-size="10.00">ILockable</text>
</a>
</g>
</g>
<!-- Node4&#45;&gt;Node2 -->
<g id="edge3" class="edge"><title>Node4&#45;&gt;Node2</title>
<path fill="none" stroke="midnightblue" d="M127.35,-102.101C125.856,-93.1357 124.143,-82.8579 122.959,-75.7511"/>
<polygon fill="midnightblue" stroke="midnightblue" points="123.917,-102.794 129.014,-112.083 130.822,-101.644 123.917,-102.794"/>
</g>
</g>
</svg>
