<?xml version="1.0" encoding="UTF-8" standalone="no"?>
<!DOCTYPE svg PUBLIC "-//W3C//DTD SVG 1.1//EN"
 "http://www.w3.org/Graphics/SVG/1.1/DTD/svg11.dtd">
<!-- Generated by graphviz version 2.38.0 (20140413.2041)
 -->
<!-- Title: NUnit.Framework.TimeoutAttribute Pages: 1 -->
<svg width="244pt" height="196pt"
 viewBox="0.00 0.00 243.50 196.00" xmlns="http://www.w3.org/2000/svg" xmlns:xlink="http://www.w3.org/1999/xlink">
<g id="graph0" class="graph" transform="scale(1 1) rotate(0) translate(4 192)">
<title>NUnit.Framework.TimeoutAttribute</title>
<polygon fill="white" stroke="none" points="-4,4 -4,-192 239.5,-192 239.5,4 -4,4"/>
<!-- Node1 -->
<g id="node1" class="node"><title>Node1</title>
<g id="a_node1"><a xlink:title="Used on a method, marks the test with a timeout value in milliseconds. The test will be run in a sepa...">
<polygon fill="#bfbfbf" stroke="black" points="54.5,-0.5 54.5,-19.5 220.5,-19.5 220.5,-0.5 54.5,-0.5"/>
<text text-anchor="middle" x="137.5" y="-7.5" font-family="Helvetica,sans-Serif" font-size="10.00">NUnit.Framework.TimeoutAttribute</text>
</a>
</g>
</g>
<!-- Node2 -->
<g id="node2" class="node"><title>Node2</title>
<g id="a_node2"><a xlink:href="../../d6/d1b/classNUnit_1_1Framework_1_1PropertyAttribute.html" target="_top" xlink:title="PropertyAttribute is used to attach information to a test as a name/value pair..">
<polygon fill="white" stroke="black" points="39.5,-56.5 39.5,-75.5 129.5,-75.5 129.5,-56.5 39.5,-56.5"/>
<text text-anchor="middle" x="84.5" y="-63.5" font-family="Helvetica,sans-Serif" font-size="10.00">PropertyAttribute</text>
</a>
</g>
</g>
<!-- Node2&#45;&gt;Node1 -->
<g id="edge1" class="edge"><title>Node2&#45;&gt;Node1</title>
<path fill="none" stroke="midnightblue" d="M100.481,-48.7175C109.822,-39.1997 121.246,-27.5608 128.911,-19.7511"/>
<polygon fill="midnightblue" stroke="midnightblue" points="97.7587,-46.4945 93.2519,-56.083 102.754,-51.3978 97.7587,-46.4945"/>
</g>
<!-- Node3 -->
<g id="node3" class="node"><title>Node3</title>
<g id="a_node3"><a xlink:href="../../d3/dee/classNUnit_1_1Framework_1_1NUnitAttribute.html" target="_top" xlink:title="The abstract base class for all custom attributes defined by NUnit.">
<polygon fill="white" stroke="black" points="0,-112.5 0,-131.5 77,-131.5 77,-112.5 0,-112.5"/>
<text text-anchor="middle" x="38.5" y="-119.5" font-family="Helvetica,sans-Serif" font-size="10.00">NUnitAttribute</text>
</a>
</g>
</g>
<!-- Node3&#45;&gt;Node2 -->
<g id="edge2" class="edge"><title>Node3&#45;&gt;Node2</title>
<path fill="none" stroke="midnightblue" d="M52.614,-104.431C60.676,-94.9673 70.4592,-83.4827 77.0454,-75.7511"/>
<polygon fill="midnightblue" stroke="midnightblue" points="49.9163,-102.201 46.096,-112.083 55.245,-106.74 49.9163,-102.201"/>
</g>
<!-- Node4 -->
<g id="node4" class="node"><title>Node4</title>
<g id="a_node4"><a xlink:title=" ">
<polygon fill="white" stroke="#bfbfbf" points="12,-168.5 12,-187.5 65,-187.5 65,-168.5 12,-168.5"/>
<text text-anchor="middle" x="38.5" y="-175.5" font-family="Helvetica,sans-Serif" font-size="10.00">Attribute</text>
</a>
</g>
</g>
<!-- Node4&#45;&gt;Node3 -->
<g id="edge3" class="edge"><title>Node4&#45;&gt;Node3</title>
<path fill="none" stroke="midnightblue" d="M38.5,-157.805C38.5,-148.91 38.5,-138.78 38.5,-131.751"/>
<polygon fill="midnightblue" stroke="midnightblue" points="35.0001,-158.083 38.5,-168.083 42.0001,-158.083 35.0001,-158.083"/>
</g>
<!-- Node5 -->
<g id="node5" class="node"><title>Node5</title>
<g id="a_node5"><a xlink:href="../../d8/d57/interfaceNUnit_1_1Framework_1_1Interfaces_1_1IApplyToTest.html" target="_top" xlink:title="The IApplyToTest interface is implemented by self&#45;applying attributes that modify the state of a test...">
<polygon fill="white" stroke="black" points="95,-112.5 95,-131.5 168,-131.5 168,-112.5 95,-112.5"/>
<text text-anchor="middle" x="131.5" y="-119.5" font-family="Helvetica,sans-Serif" font-size="10.00">IApplyToTest</text>
</a>
</g>
</g>
<!-- Node5&#45;&gt;Node2 -->
<g id="edge4" class="edge"><title>Node5&#45;&gt;Node2</title>
<path fill="none" stroke="midnightblue" d="M117.079,-104.431C108.842,-94.9673 98.8461,-83.4827 92.1167,-75.7511"/>
<polygon fill="midnightblue" stroke="midnightblue" points="114.534,-106.838 123.739,-112.083 119.814,-102.242 114.534,-106.838"/>
</g>
<!-- Node6 -->
<g id="node6" class="node"><title>Node6</title>
<g id="a_node6"><a xlink:href="../../d9/df2/interfaceNUnit_1_1Framework_1_1Interfaces_1_1IApplyToContext.html" target="_top" xlink:title="The IApplyToContext interface is implemented by attributes that want to make changes to the execution...">
<polygon fill="white" stroke="black" points="147.5,-56.5 147.5,-75.5 235.5,-75.5 235.5,-56.5 147.5,-56.5"/>
<text text-anchor="middle" x="191.5" y="-63.5" font-family="Helvetica,sans-Serif" font-size="10.00">IApplyToContext</text>
</a>
</g>
</g>
<!-- Node6&#45;&gt;Node1 -->
<g id="edge5" class="edge"><title>Node6&#45;&gt;Node1</title>
<path fill="none" stroke="midnightblue" d="M175.502,-49.0024C165.933,-39.4329 154.139,-27.6389 146.251,-19.7511"/>
<polygon fill="midnightblue" stroke="midnightblue" points="173.037,-51.4868 182.583,-56.083 177.987,-46.537 173.037,-51.4868"/>
</g>
</g>
</svg>
