<?xml version="1.0" encoding="UTF-8" standalone="no"?>
<!DOCTYPE svg PUBLIC "-//W3C//DTD SVG 1.1//EN"
 "http://www.w3.org/Graphics/SVG/1.1/DTD/svg11.dtd">
<!-- Generated by graphviz version 2.38.0 (20140413.2041)
 -->
<!-- Title: AForge.Imaging.Filters.LevelsLinear Pages: 1 -->
<svg width="366pt" height="218pt"
 viewBox="0.00 0.00 365.50 218.00" xmlns="http://www.w3.org/2000/svg" xmlns:xlink="http://www.w3.org/1999/xlink">
<g id="graph0" class="graph" transform="scale(1 1) rotate(0) translate(4 214)">
<title>AForge.Imaging.Filters.LevelsLinear</title>
<polygon fill="white" stroke="none" points="-4,4 -4,-214 361.5,-214 361.5,4 -4,4"/>
<!-- Node1 -->
<g id="node1" class="node"><title>Node1</title>
<g id="a_node1"><a xlink:title="Linear correction of RGB channels.">
<polygon fill="#bfbfbf" stroke="black" points="167,-0.5 167,-30.5 312,-30.5 312,-0.5 167,-0.5"/>
<text text-anchor="start" x="175" y="-18.5" font-family="Helvetica,sans-Serif" font-size="10.00">AForge.Imaging.Filters.Levels</text>
<text text-anchor="middle" x="239.5" y="-7.5" font-family="Helvetica,sans-Serif" font-size="10.00">Linear</text>
</a>
</g>
</g>
<!-- Node2 -->
<g id="node2" class="node"><title>Node2</title>
<g id="a_node2"><a xlink:href="../../db/dc9/classAForge_1_1Imaging_1_1Filters_1_1BaseInPlacePartialFilter.html" target="_top" xlink:title="Base class for filters, which may be applied directly to the source image or its part.">
<polygon fill="white" stroke="black" points="87,-133.5 87,-152.5 208,-152.5 208,-133.5 87,-133.5"/>
<text text-anchor="middle" x="147.5" y="-140.5" font-family="Helvetica,sans-Serif" font-size="10.00">BaseInPlacePartialFilter</text>
</a>
</g>
</g>
<!-- Node2&#45;&gt;Node1 -->
<g id="edge1" class="edge"><title>Node2&#45;&gt;Node1</title>
<path fill="none" stroke="midnightblue" d="M159.769,-125.264C177.996,-100.399 211.914,-54.1312 229.036,-30.7743"/>
<polygon fill="midnightblue" stroke="midnightblue" points="156.913,-123.239 153.824,-133.374 162.559,-127.378 156.913,-123.239"/>
</g>
<!-- Node3 -->
<g id="node3" class="node"><title>Node3</title>
<g id="a_node3"><a xlink:href="../../dd/d51/interfaceAForge_1_1Imaging_1_1Filters_1_1IFilter.html" target="_top" xlink:title="Image processing filter interface.">
<polygon fill="white" stroke="black" points="0,-190.5 0,-209.5 41,-209.5 41,-190.5 0,-190.5"/>
<text text-anchor="middle" x="20.5" y="-197.5" font-family="Helvetica,sans-Serif" font-size="10.00">IFilter</text>
</a>
</g>
</g>
<!-- Node3&#45;&gt;Node2 -->
<g id="edge2" class="edge"><title>Node3&#45;&gt;Node2</title>
<path fill="none" stroke="midnightblue" d="M49.6557,-186.374C73.6063,-176.001 106.88,-161.591 127.796,-152.533"/>
<polygon fill="midnightblue" stroke="midnightblue" points="48.1293,-183.22 40.3438,-190.406 50.9111,-189.644 48.1293,-183.22"/>
</g>
<!-- Node4 -->
<g id="node4" class="node"><title>Node4</title>
<g id="a_node4"><a xlink:href="../../de/d9b/interfaceAForge_1_1Imaging_1_1Filters_1_1IInPlaceFilter.html" target="_top" xlink:title="In&#45;place filter interface.">
<polygon fill="white" stroke="black" points="59,-190.5 59,-209.5 132,-209.5 132,-190.5 59,-190.5"/>
<text text-anchor="middle" x="95.5" y="-197.5" font-family="Helvetica,sans-Serif" font-size="10.00">IInPlaceFilter</text>
</a>
</g>
</g>
<!-- Node4&#45;&gt;Node2 -->
<g id="edge3" class="edge"><title>Node4&#45;&gt;Node2</title>
<path fill="none" stroke="midnightblue" d="M110.511,-183.123C119.87,-173.224 131.557,-160.862 139.26,-152.715"/>
<polygon fill="midnightblue" stroke="midnightblue" points="107.952,-180.735 103.625,-190.406 113.038,-185.544 107.952,-180.735"/>
</g>
<!-- Node5 -->
<g id="node5" class="node"><title>Node5</title>
<g id="a_node5"><a xlink:href="../../d2/d66/interfaceAForge_1_1Imaging_1_1Filters_1_1IInPlacePartialFilter.html" target="_top" xlink:title="In&#45;place partial filter interface.">
<polygon fill="white" stroke="black" points="150,-190.5 150,-209.5 251,-209.5 251,-190.5 150,-190.5"/>
<text text-anchor="middle" x="200.5" y="-197.5" font-family="Helvetica,sans-Serif" font-size="10.00">IInPlacePartialFilter</text>
</a>
</g>
</g>
<!-- Node5&#45;&gt;Node2 -->
<g id="edge4" class="edge"><title>Node5&#45;&gt;Node2</title>
<path fill="none" stroke="midnightblue" d="M185.2,-183.123C175.661,-173.224 163.749,-160.862 155.898,-152.715"/>
<polygon fill="midnightblue" stroke="midnightblue" points="182.76,-185.634 192.219,-190.406 187.8,-180.777 182.76,-185.634"/>
</g>
<!-- Node6 -->
<g id="node6" class="node"><title>Node6</title>
<g id="a_node6"><a xlink:href="../../d7/dec/interfaceAForge_1_1Imaging_1_1Filters_1_1IFilterInformation.html" target="_top" xlink:title="Interface which provides information about image processing filter.">
<polygon fill="white" stroke="black" points="269.5,-190.5 269.5,-209.5 357.5,-209.5 357.5,-190.5 269.5,-190.5"/>
<text text-anchor="middle" x="313.5" y="-197.5" font-family="Helvetica,sans-Serif" font-size="10.00">IFilterInformation</text>
</a>
</g>
</g>
<!-- Node6&#45;&gt;Node2 -->
<g id="edge5" class="edge"><title>Node6&#45;&gt;Node2</title>
<path fill="none" stroke="midnightblue" d="M277.869,-187.195C246.417,-176.774 201.322,-161.833 173.255,-152.533"/>
<polygon fill="midnightblue" stroke="midnightblue" points="276.969,-190.583 287.563,-190.406 279.171,-183.939 276.969,-190.583"/>
</g>
<!-- Node7 -->
<g id="node7" class="node"><title>Node7</title>
<g id="a_node7"><a xlink:href="../../d9/d09/classAForge_1_1IntRange.html" target="_top" xlink:title="Represents an integer range with minimum and maximum values">
<polygon fill="white" stroke="black" points="226,-133.5 226,-152.5 315,-152.5 315,-133.5 226,-133.5"/>
<text text-anchor="middle" x="270.5" y="-140.5" font-family="Helvetica,sans-Serif" font-size="10.00">AForge.IntRange</text>
</a>
</g>
</g>
<!-- Node7&#45;&gt;Node1 -->
<g id="edge6" class="edge"><title>Node7&#45;&gt;Node1</title>
<path fill="none" stroke="#9a32cd" stroke-dasharray="5,2" d="M265.954,-123.597C259.725,-98.3806 248.669,-53.619 243.026,-30.7743"/>
<polygon fill="#9a32cd" stroke="#9a32cd" points="262.573,-124.505 268.369,-133.374 269.369,-122.826 262.573,-124.505"/>
<text text-anchor="middle" x="284.5" y="-107" font-family="Helvetica,sans-Serif" font-size="10.00"> inGreen</text>
<text text-anchor="middle" x="284.5" y="-96" font-family="Helvetica,sans-Serif" font-size="10.00">outRed</text>
<text text-anchor="middle" x="284.5" y="-85" font-family="Helvetica,sans-Serif" font-size="10.00">outBlue</text>
<text text-anchor="middle" x="284.5" y="-74" font-family="Helvetica,sans-Serif" font-size="10.00">outGreen</text>
<text text-anchor="middle" x="284.5" y="-63" font-family="Helvetica,sans-Serif" font-size="10.00">inRed</text>
<text text-anchor="middle" x="284.5" y="-52" font-family="Helvetica,sans-Serif" font-size="10.00">inBlue</text>
</g>
</g>
</svg>
