<?xml version="1.0" encoding="UTF-8" standalone="no"?>
<!DOCTYPE svg PUBLIC "-//W3C//DTD SVG 1.1//EN"
 "http://www.w3.org/Graphics/SVG/1.1/DTD/svg11.dtd">
<!-- Generated by graphviz version 2.38.0 (20140413.2041)
 -->
<!-- Title: IG.Neural.Applications.NeuralParametricDemoAboutWindow Pages: 1 -->
<svg width="302pt" height="106pt"
 viewBox="0.00 0.00 301.50 106.00" xmlns="http://www.w3.org/2000/svg" xmlns:xlink="http://www.w3.org/1999/xlink">
<g id="graph0" class="graph" transform="scale(1 1) rotate(0) translate(4 102)">
<title>IG.Neural.Applications.NeuralParametricDemoAboutWindow</title>
<polygon fill="white" stroke="none" points="-4,4 -4,-102 297.5,-102 297.5,4 -4,4"/>
<!-- Node1 -->
<g id="node1" class="node"><title>Node1</title>
<g id="a_node1"><a xlink:title="Window that displays information about Demo application for performing parametric studies on ANN mode...">
<polygon fill="#bfbfbf" stroke="black" points="18,-0.5 18,-30.5 167,-30.5 167,-0.5 18,-0.5"/>
<text text-anchor="start" x="26" y="-18.5" font-family="Helvetica,sans-Serif" font-size="10.00">IG.Neural.Applications.Neural</text>
<text text-anchor="middle" x="92.5" y="-7.5" font-family="Helvetica,sans-Serif" font-size="10.00">ParametricDemoAboutWindow</text>
</a>
</g>
</g>
<!-- Node2 -->
<g id="node2" class="node"><title>Node2</title>
<g id="a_node2"><a xlink:title=" ">
<polygon fill="white" stroke="#bfbfbf" points="0,-78.5 0,-97.5 39,-97.5 39,-78.5 0,-78.5"/>
<text text-anchor="middle" x="19.5" y="-85.5" font-family="Helvetica,sans-Serif" font-size="10.00">Form</text>
</a>
</g>
</g>
<!-- Node2&#45;&gt;Node1 -->
<g id="edge1" class="edge"><title>Node2&#45;&gt;Node1</title>
<path fill="none" stroke="midnightblue" d="M35.9706,-71.0934C48.581,-58.9149 65.8118,-42.2742 77.9247,-30.5762"/>
<polygon fill="midnightblue" stroke="midnightblue" points="33.213,-68.8908 28.4512,-78.3553 38.0758,-73.9261 33.213,-68.8908"/>
</g>
<!-- Node3 -->
<g id="node3" class="node"><title>Node3</title>
<g id="a_node3"><a xlink:title=" ">
<polygon fill="white" stroke="#bfbfbf" points="57.5,-78.5 57.5,-97.5 127.5,-97.5 127.5,-78.5 57.5,-78.5"/>
<text text-anchor="middle" x="92.5" y="-85.5" font-family="Helvetica,sans-Serif" font-size="10.00">Applications</text>
</a>
</g>
</g>
<!-- Node3&#45;&gt;Node1 -->
<g id="edge2" class="edge"><title>Node3&#45;&gt;Node1</title>
<path fill="none" stroke="#9a32cd" stroke-dasharray="5,2" d="M92.5,-68.2362C92.5,-56.4079 92.5,-41.3829 92.5,-30.5762"/>
<polygon fill="#9a32cd" stroke="#9a32cd" points="89.0001,-68.3553 92.5,-78.3553 96.0001,-68.3554 89.0001,-68.3553"/>
<text text-anchor="middle" x="159" y="-52" font-family="Helvetica,sans-Serif" font-size="10.00"> neuralParametricDemoAbout1</text>
</g>
<!-- Node4 -->
<g id="node4" class="node"><title>Node4</title>
<g id="a_node4"><a xlink:title=" ">
<polygon fill="white" stroke="#bfbfbf" points="223.5,-78.5 223.5,-97.5 273.5,-97.5 273.5,-78.5 223.5,-78.5"/>
<text text-anchor="middle" x="248.5" y="-85.5" font-family="Helvetica,sans-Serif" font-size="10.00">System</text>
</a>
</g>
</g>
<!-- Node4&#45;&gt;Node1 -->
<g id="edge3" class="edge"><title>Node4&#45;&gt;Node1</title>
<path fill="none" stroke="#9a32cd" stroke-dasharray="5,2" d="M241.637,-68.6915C238.117,-61.581 233.145,-53.9682 226.5,-49 209.34,-36.1713 187.801,-28.3403 167.041,-23.5806"/>
<polygon fill="#9a32cd" stroke="#9a32cd" points="238.631,-70.5644 245.78,-78.3832 245.067,-67.8124 238.631,-70.5644"/>
<text text-anchor="middle" x="265" y="-52" font-family="Helvetica,sans-Serif" font-size="10.00"> components</text>
</g>
</g>
</svg>
