<?xml version="1.0" encoding="UTF-8" standalone="no"?>
<!DOCTYPE svg PUBLIC "-//W3C//DTD SVG 1.1//EN"
 "http://www.w3.org/Graphics/SVG/1.1/DTD/svg11.dtd">
<!-- Generated by graphviz version 2.38.0 (20140413.2041)
 -->
<!-- Title: NUnit.Framework.Interfaces.IFixtureBuilder Pages: 1 -->
<svg width="532pt" height="137pt"
 viewBox="0.00 0.00 532.00 137.00" xmlns="http://www.w3.org/2000/svg" xmlns:xlink="http://www.w3.org/1999/xlink">
<g id="graph0" class="graph" transform="scale(1 1) rotate(0) translate(4 133)">
<title>NUnit.Framework.Interfaces.IFixtureBuilder</title>
<polygon fill="white" stroke="none" points="-4,4 -4,-133 528,-133 528,4 -4,4"/>
<!-- Node1 -->
<g id="node1" class="node"><title>Node1</title>
<g id="a_node1"><a xlink:title="The IFixtureBuilder interface is exposed by a class that knows how to build a TestFixture from one or...">
<polygon fill="#bfbfbf" stroke="black" points="0,-49.5 0,-79.5 140,-79.5 140,-49.5 0,-49.5"/>
<text text-anchor="start" x="8" y="-67.5" font-family="Helvetica,sans-Serif" font-size="10.00">NUnit.Framework.Interfaces.</text>
<text text-anchor="middle" x="70" y="-56.5" font-family="Helvetica,sans-Serif" font-size="10.00">IFixtureBuilder</text>
</a>
</g>
</g>
<!-- Node2 -->
<g id="node2" class="node"><title>Node2</title>
<g id="a_node2"><a xlink:href="../../da/deb/classNUnit_1_1Framework_1_1SetUpFixtureAttribute.html" target="_top" xlink:title="SetUpFixtureAttribute is used to identify a SetUpFixture">
<polygon fill="white" stroke="black" points="176,-98.5 176,-128.5 328,-128.5 328,-98.5 176,-98.5"/>
<text text-anchor="start" x="184" y="-116.5" font-family="Helvetica,sans-Serif" font-size="10.00">NUnit.Framework.SetUpFixture</text>
<text text-anchor="middle" x="252" y="-105.5" font-family="Helvetica,sans-Serif" font-size="10.00">Attribute</text>
</a>
</g>
</g>
<!-- Node1&#45;&gt;Node2 -->
<g id="edge1" class="edge"><title>Node1&#45;&gt;Node2</title>
<path fill="none" stroke="midnightblue" d="M136.198,-82.2485C155.707,-87.5591 176.902,-93.3288 195.708,-98.4484"/>
<polygon fill="midnightblue" stroke="midnightblue" points="137.043,-78.851 126.475,-79.6014 135.204,-85.6053 137.043,-78.851"/>
</g>
<!-- Node3 -->
<g id="node3" class="node"><title>Node3</title>
<g id="a_node3"><a xlink:href="../../d8/dee/classNUnit_1_1Framework_1_1TestFixtureAttribute.html" target="_top" xlink:title="TestFixtureAttribute is used to mark a class that represents a TestFixture.">
<polygon fill="white" stroke="black" points="180.5,-49.5 180.5,-79.5 323.5,-79.5 323.5,-49.5 180.5,-49.5"/>
<text text-anchor="start" x="188.5" y="-67.5" font-family="Helvetica,sans-Serif" font-size="10.00">NUnit.Framework.TestFixture</text>
<text text-anchor="middle" x="252" y="-56.5" font-family="Helvetica,sans-Serif" font-size="10.00">Attribute</text>
</a>
</g>
</g>
<!-- Node1&#45;&gt;Node3 -->
<g id="edge2" class="edge"><title>Node1&#45;&gt;Node3</title>
<path fill="none" stroke="midnightblue" d="M150.382,-64.5C160.351,-64.5 170.496,-64.5 180.319,-64.5"/>
<polygon fill="midnightblue" stroke="midnightblue" points="150.078,-61.0001 140.078,-64.5 150.078,-68.0001 150.078,-61.0001"/>
</g>
<!-- Node5 -->
<g id="node5" class="node"><title>Node5</title>
<g id="a_node5"><a xlink:href="../../df/d28/classNUnit_1_1Framework_1_1TestFixtureSourceAttribute.html" target="_top" xlink:title="TestCaseSourceAttribute indicates the source to be used to provide test fixture instances for a test ...">
<polygon fill="white" stroke="black" points="180.5,-0.5 180.5,-30.5 323.5,-30.5 323.5,-0.5 180.5,-0.5"/>
<text text-anchor="start" x="188.5" y="-18.5" font-family="Helvetica,sans-Serif" font-size="10.00">NUnit.Framework.TestFixture</text>
<text text-anchor="middle" x="252" y="-7.5" font-family="Helvetica,sans-Serif" font-size="10.00">SourceAttribute</text>
</a>
</g>
</g>
<!-- Node1&#45;&gt;Node5 -->
<g id="edge4" class="edge"><title>Node1&#45;&gt;Node5</title>
<path fill="none" stroke="midnightblue" d="M136.198,-46.7515C155.707,-41.4409 176.902,-35.6712 195.708,-30.5516"/>
<polygon fill="midnightblue" stroke="midnightblue" points="135.204,-43.3947 126.475,-49.3986 137.043,-50.149 135.204,-43.3947"/>
</g>
<!-- Node4 -->
<g id="node4" class="node"><title>Node4</title>
<g id="a_node4"><a xlink:href="../../dc/d20/classNUnit_1_1TestData_1_1AttributeInheritanceData_1_1ConcernAttribute.html" target="_top" xlink:title=" ">
<polygon fill="white" stroke="black" points="364,-49.5 364,-79.5 524,-79.5 524,-49.5 364,-49.5"/>
<text text-anchor="start" x="372" y="-67.5" font-family="Helvetica,sans-Serif" font-size="10.00">NUnit.TestData.Attribute</text>
<text text-anchor="middle" x="444" y="-56.5" font-family="Helvetica,sans-Serif" font-size="10.00">InheritanceData.ConcernAttribute</text>
</a>
</g>
</g>
<!-- Node3&#45;&gt;Node4 -->
<g id="edge3" class="edge"><title>Node3&#45;&gt;Node4</title>
<path fill="none" stroke="midnightblue" d="M333.98,-64.5C343.888,-64.5 354.004,-64.5 363.885,-64.5"/>
<polygon fill="midnightblue" stroke="midnightblue" points="333.749,-61.0001 323.749,-64.5 333.749,-68.0001 333.749,-61.0001"/>
</g>
</g>
</svg>
