<?xml version="1.0" encoding="UTF-8" standalone="no"?>
<!DOCTYPE svg PUBLIC "-//W3C//DTD SVG 1.1//EN"
 "http://www.w3.org/Graphics/SVG/1.1/DTD/svg11.dtd">
<!-- Generated by graphviz version 2.38.0 (20140413.2041)
 -->
<!-- Title: IG.Script.S_11_10_Clanek_Neural_Base Pages: 1 -->
<!--zoomable 509 -->
<svg id="main" version="1.1" xmlns="http://www.w3.org/2000/svg" xmlns:xlink="http://www.w3.org/1999/xlink" xml:space="preserve" onload="init(evt)">
<style type="text/css"><![CDATA[
.edge:hover path { stroke: red; }
.edge:hover polygon { stroke: red; fill: red; }
]]></style>
<script type="text/javascript"><![CDATA[
var edges = document.getElementsByTagName('g');
if (edges && edges.length) {
  for (var i=0;i<edges.length;i++) {
    if (edges[i].id.substr(0,4)=='edge') {
      edges[i].setAttribute('class','edge');
    }
  }
}
]]></script>
        <defs>
                <circle id="rim" cx="0" cy="0" r="7"/>
                <circle id="rim2" cx="0" cy="0" r="3.5"/>
                <g id="zoomPlus">
                        <use xlink:href="#rim" fill="#404040">
                                <set attributeName="fill" to="#808080" begin="zoomplus.mouseover" end="zoomplus.mouseout"/>
                        </use>
                        <path d="M-4,0h8M0,-4v8" fill="none" stroke="white" stroke-width="1.5" pointer-events="none"/>
                </g>
                <g id="zoomMin">
                        <use xlink:href="#rim" fill="#404040">
                                <set attributeName="fill" to="#808080" begin="zoomminus.mouseover" end="zoomminus.mouseout"/>
                        </use>
                        <path d="M-4,0h8" fill="none" stroke="white" stroke-width="1.5" pointer-events="none"/>
                </g>
                <g id="dirArrow">
                        <path fill="none" stroke="white" stroke-width="1.5" d="M0,-3.0v7 M-2.5,-0.5L0,-3.0L2.5,-0.5"/>
                </g>
               <g id="resetDef">
                       <use xlink:href="#rim2" fill="#404040">
                               <set attributeName="fill" to="#808080" begin="reset.mouseover" end="reset.mouseout"/>
                       </use>
               </g>
        </defs>

<script type="text/javascript">
var viewWidth = 473;
var viewHeight = 509;
var sectionId = 'dynsection-0';
</script>
<script xlink:href="../../svgpan.js"/>
<svg id="graph" class="graph">
<g id="viewport">
<title>IG.Script.S_11_10_Clanek_Neural_Base</title>
<polygon fill="white" stroke="none" points="-4,4 -4,-505 469.41,-505 469.41,4 -4,4"/>
<!-- Node1 -->
<g id="node1" class="node"><title>Node1</title>
<g id="a_node1"><a xlink:title=" ">
<polygon fill="#bfbfbf" stroke="black" points="69.5,-67.5 69.5,-97.5 200.5,-97.5 200.5,-67.5 69.5,-67.5"/>
<text text-anchor="start" x="77.5" y="-85.5" font-family="Helvetica,sans-Serif" font-size="10.00">IG.Script.S_11_10_Clanek</text>
<text text-anchor="middle" x="135" y="-74.5" font-family="Helvetica,sans-Serif" font-size="10.00">_Neural_Base</text>
</a>
</g>
</g>
<!-- Node12 -->
<g id="node12" class="node"><title>Node12</title>
<g id="a_node12"><a xlink:href="../../d3/d9c/classIG_1_1Script_1_1S__11__10__clanek__neural__00.html" target="_top" xlink:title=" ">
<polygon fill="white" stroke="black" points="0,-0.5 0,-30.5 130,-30.5 130,-0.5 0,-0.5"/>
<text text-anchor="start" x="8" y="-18.5" font-family="Helvetica,sans-Serif" font-size="10.00">IG.Script.S_11_10_clanek</text>
<text text-anchor="middle" x="65" y="-7.5" font-family="Helvetica,sans-Serif" font-size="10.00">_neural_00</text>
</a>
</g>
</g>
<!-- Node1&#45;&gt;Node12 -->
<g id="edge20" class="edge"><title>Node1&#45;&gt;Node12</title>
<path fill="none" stroke="midnightblue" d="M112.182,-60.3115C101.681,-50.5612 89.5097,-39.259 80.1593,-30.5765"/>
<polygon fill="midnightblue" stroke="midnightblue" points="110.101,-63.1562 119.811,-67.396 114.865,-58.0266 110.101,-63.1562"/>
</g>
<!-- Node13 -->
<g id="node13" class="node"><title>Node13</title>
<g id="a_node13"><a xlink:href="../../d0/dee/classIG_1_1Script_1_1Script__11__10__clanek__neural__01.html" target="_top" xlink:title=" ">
<polygon fill="white" stroke="black" points="148.5,-0.5 148.5,-30.5 261.5,-30.5 261.5,-0.5 148.5,-0.5"/>
<text text-anchor="start" x="156.5" y="-18.5" font-family="Helvetica,sans-Serif" font-size="10.00">IG.Script.Script_11</text>
<text text-anchor="middle" x="205" y="-7.5" font-family="Helvetica,sans-Serif" font-size="10.00">_10_clanek_neural_01</text>
</a>
</g>
</g>
<!-- Node1&#45;&gt;Node13 -->
<g id="edge21" class="edge"><title>Node1&#45;&gt;Node13</title>
<path fill="none" stroke="midnightblue" d="M157.818,-60.3115C168.319,-50.5612 180.49,-39.259 189.841,-30.5765"/>
<polygon fill="midnightblue" stroke="midnightblue" points="155.135,-58.0266 150.189,-67.396 159.899,-63.1562 155.135,-58.0266"/>
</g>
<!-- Node2 -->
<g id="node2" class="node"><title>Node2</title>
<g id="a_node2"><a xlink:href="../../d1/d30/classIG_1_1Script_1_1LoadableScriptShellNeural.html" target="_top" xlink:title="Base class for loadable scripts that are used as custom applications that inclued neural networks app...">
<polygon fill="white" stroke="black" points="116.5,-134.5 116.5,-153.5 247.5,-153.5 247.5,-134.5 116.5,-134.5"/>
<text text-anchor="middle" x="182" y="-141.5" font-family="Helvetica,sans-Serif" font-size="10.00">LoadableScriptShellNeural</text>
</a>
</g>
</g>
<!-- Node2&#45;&gt;Node1 -->
<g id="edge1" class="edge"><title>Node2&#45;&gt;Node1</title>
<path fill="none" stroke="midnightblue" d="M168.99,-126.53C161.792,-117.417 152.942,-106.214 146.077,-97.523"/>
<polygon fill="midnightblue" stroke="midnightblue" points="166.321,-128.797 175.266,-134.475 171.814,-124.458 166.321,-128.797"/>
</g>
<!-- Node3 -->
<g id="node3" class="node"><title>Node3</title>
<g id="a_node3"><a xlink:href="../../dc/d0c/classIG_1_1Script_1_1LoadableScriptShellNeuralBase.html" target="_top" xlink:title="Base class for loadable scripts that are used as custom applications that inclued neural networks app...">
<polygon fill="white" stroke="black" points="166.5,-190.5 166.5,-209.5 319.5,-209.5 319.5,-190.5 166.5,-190.5"/>
<text text-anchor="middle" x="243" y="-197.5" font-family="Helvetica,sans-Serif" font-size="10.00">LoadableScriptShellNeuralBase</text>
</a>
</g>
</g>
<!-- Node3&#45;&gt;Node2 -->
<g id="edge2" class="edge"><title>Node3&#45;&gt;Node2</title>
<path fill="none" stroke="midnightblue" d="M225.533,-183.537C214.656,-173.909 201.056,-161.869 191.979,-153.834"/>
<polygon fill="midnightblue" stroke="midnightblue" points="223.392,-186.316 233.199,-190.324 228.032,-181.075 223.392,-186.316"/>
</g>
<!-- Node4 -->
<g id="node4" class="node"><title>Node4</title>
<g id="a_node4"><a xlink:href="../../d6/d59/classIG_1_1Lib_1_1LoadableScriptShellBase.html" target="_top" xlink:title="Loadable script base class for the shell application that includes tols for definition of optiimizati...">
<polygon fill="white" stroke="black" points="192.5,-246.5 192.5,-265.5 317.5,-265.5 317.5,-246.5 192.5,-246.5"/>
<text text-anchor="middle" x="255" y="-253.5" font-family="Helvetica,sans-Serif" font-size="10.00">LoadableScriptShellBase</text>
</a>
</g>
</g>
<!-- Node4&#45;&gt;Node3 -->
<g id="edge3" class="edge"><title>Node4&#45;&gt;Node3</title>
<path fill="none" stroke="midnightblue" d="M250.8,-236.101C248.808,-227.136 246.524,-216.858 244.945,-209.751"/>
<polygon fill="midnightblue" stroke="midnightblue" points="247.432,-237.08 253.018,-246.083 254.266,-235.562 247.432,-237.08"/>
</g>
<!-- Node5 -->
<g id="node5" class="node"><title>Node5</title>
<g id="a_node5"><a xlink:href="../../d7/d31/classIG_1_1Lib_1_1LoadableScriptOptShellBaseControllable.html" target="_top" xlink:title="Controllable version of LoadableScriptOptBase, implements the ILoadableScriptC interface.">
<polygon fill="white" stroke="black" points="277.5,-302.5 277.5,-332.5 418.5,-332.5 418.5,-302.5 277.5,-302.5"/>
<text text-anchor="start" x="285.5" y="-320.5" font-family="Helvetica,sans-Serif" font-size="10.00">LoadableScriptOptShellBase</text>
<text text-anchor="middle" x="348" y="-309.5" font-family="Helvetica,sans-Serif" font-size="10.00">Controllable</text>
</a>
</g>
</g>
<!-- Node5&#45;&gt;Node4 -->
<g id="edge4" class="edge"><title>Node5&#45;&gt;Node4</title>
<path fill="none" stroke="midnightblue" d="M317.171,-296.776C300.69,-286.231 281.233,-273.783 268.532,-265.658"/>
<polygon fill="midnightblue" stroke="midnightblue" points="315.65,-299.958 325.96,-302.399 319.423,-294.062 315.65,-299.958"/>
</g>
<!-- Node6 -->
<g id="node6" class="node"><title>Node6</title>
<g id="a_node6"><a xlink:href="../../d5/d05/classIG_1_1Lib_1_1LoadableScriptOptBase.html" target="_top" xlink:title="Base class for loadable scripts for optimization problems. AGREEMENTS: The first argument to initiali...">
<polygon fill="white" stroke="black" points="300.5,-369.5 300.5,-388.5 419.5,-388.5 419.5,-369.5 300.5,-369.5"/>
<text text-anchor="middle" x="360" y="-376.5" font-family="Helvetica,sans-Serif" font-size="10.00">LoadableScriptOptBase</text>
</a>
</g>
</g>
<!-- Node6&#45;&gt;Node5 -->
<g id="edge5" class="edge"><title>Node6&#45;&gt;Node5</title>
<path fill="none" stroke="midnightblue" d="M356.274,-359.526C354.517,-350.813 352.454,-340.586 350.828,-332.523"/>
<polygon fill="midnightblue" stroke="midnightblue" points="352.873,-360.364 358.281,-369.475 359.735,-358.98 352.873,-360.364"/>
</g>
<!-- Node7 -->
<g id="node7" class="node"><title>Node7</title>
<g id="a_node7"><a xlink:href="../../d7/d15/classIG_1_1Lib_1_1LoadableScriptBase.html" target="_top" xlink:title="Base class for classes that can be dynamically loadeded from scripts and run, which provides function...">
<polygon fill="white" stroke="black" points="278,-425.5 278,-444.5 382,-444.5 382,-425.5 278,-425.5"/>
<text text-anchor="middle" x="330" y="-432.5" font-family="Helvetica,sans-Serif" font-size="10.00">LoadableScriptBase</text>
</a>
</g>
</g>
<!-- Node7&#45;&gt;Node6 -->
<g id="edge6" class="edge"><title>Node7&#45;&gt;Node6</title>
<path fill="none" stroke="midnightblue" d="M339.847,-416.275C344.975,-407.045 351.016,-396.17 355.138,-388.751"/>
<polygon fill="midnightblue" stroke="midnightblue" points="336.751,-414.642 334.954,-425.083 342.87,-418.041 336.751,-414.642"/>
</g>
<!-- Node8 -->
<g id="node8" class="node"><title>Node8</title>
<g id="a_node8"><a xlink:href="../../d7/d66/interfaceIG_1_1Lib_1_1ILoadableScript.html" target="_top" xlink:title="Interface for classes that can be dynamically loadeded from scripts and run, which provides functiona...">
<polygon fill="white" stroke="black" points="142.5,-481.5 142.5,-500.5 225.5,-500.5 225.5,-481.5 142.5,-481.5"/>
<text text-anchor="middle" x="184" y="-488.5" font-family="Helvetica,sans-Serif" font-size="10.00">ILoadableScript</text>
</a>
</g>
</g>
<!-- Node8&#45;&gt;Node1 -->
<g id="edge19" class="edge"><title>Node8&#45;&gt;Node1</title>
<path fill="none" stroke="midnightblue" d="M159.5,-476.149C131.057,-458.043 88,-423.457 88,-380 88,-380 88,-380 88,-199 88,-160.032 111.236,-118.761 125.033,-97.6914"/>
<polygon fill="midnightblue" stroke="midnightblue" points="157.791,-479.206 168.148,-481.439 161.443,-473.235 157.791,-479.206"/>
</g>
<!-- Node8&#45;&gt;Node2 -->
<g id="edge18" class="edge"><title>Node8&#45;&gt;Node2</title>
<path fill="none" stroke="midnightblue" d="M168.95,-473.749C151.765,-453.435 126,-416.837 126,-380 126,-380 126,-380 126,-255 126,-213.212 158.492,-171.262 173.977,-153.642"/>
<polygon fill="midnightblue" stroke="midnightblue" points="166.457,-476.214 175.69,-481.411 171.713,-471.59 166.457,-476.214"/>
</g>
<!-- Node8&#45;&gt;Node3 -->
<g id="edge16" class="edge"><title>Node8&#45;&gt;Node3</title>
<path fill="none" stroke="midnightblue" d="M178.509,-471.408C172.588,-449.685 164,-412.562 164,-380 164,-380 164,-380 164,-316.5 164,-284.049 164.803,-272.87 183,-246 193.879,-229.936 212.42,-217.327 226.018,-209.594"/>
<polygon fill="midnightblue" stroke="midnightblue" points="175.207,-472.592 181.303,-481.258 181.942,-470.683 175.207,-472.592"/>
</g>
<!-- Node8&#45;&gt;Node6 -->
<g id="edge9" class="edge"><title>Node8&#45;&gt;Node6</title>
<path fill="none" stroke="midnightblue" d="M201.837,-474.724C218.547,-460.817 244.546,-440.197 269,-425 292.353,-410.488 321.036,-396.952 339.881,-388.592"/>
<polygon fill="midnightblue" stroke="midnightblue" points="199.398,-472.202 194.003,-481.32 203.906,-477.557 199.398,-472.202"/>
</g>
<!-- Node8&#45;&gt;Node7 -->
<g id="edge7" class="edge"><title>Node8&#45;&gt;Node7</title>
<path fill="none" stroke="midnightblue" d="M216.699,-477.906C244.148,-467.754 282.668,-453.506 306.974,-444.516"/>
<polygon fill="midnightblue" stroke="midnightblue" points="215.299,-474.692 207.134,-481.444 217.727,-481.257 215.299,-474.692"/>
</g>
<!-- Node10 -->
<g id="node10" class="node"><title>Node10</title>
<g id="a_node10"><a xlink:href="../../d1/dca/interfaceIG_1_1Lib_1_1ILoadableScriptC.html" target="_top" xlink:title="Controllable loadable script, provides more control over loading and execution.">
<polygon fill="white" stroke="black" points="192,-369.5 192,-388.5 282,-388.5 282,-369.5 192,-369.5"/>
<text text-anchor="middle" x="237" y="-376.5" font-family="Helvetica,sans-Serif" font-size="10.00">ILoadableScriptC</text>
</a>
</g>
</g>
<!-- Node8&#45;&gt;Node10 -->
<g id="edge12" class="edge"><title>Node8&#45;&gt;Node10</title>
<path fill="none" stroke="midnightblue" d="M192.519,-472.32C204.058,-448.37 224.208,-406.548 232.86,-388.591"/>
<polygon fill="midnightblue" stroke="midnightblue" points="189.346,-470.84 188.159,-481.368 195.653,-473.879 189.346,-470.84"/>
</g>
<!-- Node9 -->
<g id="node9" class="node"><title>Node9</title>
<g id="a_node9"><a xlink:href="../../d3/db6/interfaceIG_1_1Lib_1_1ILockable.html" target="_top" xlink:title="Lockable object, has a Lock property that returns object on which lock must be performed in order to ...">
<polygon fill="white" stroke="black" points="400,-481.5 400,-500.5 458,-500.5 458,-481.5 400,-481.5"/>
<text text-anchor="middle" x="429" y="-488.5" font-family="Helvetica,sans-Serif" font-size="10.00">ILockable</text>
</a>
</g>
</g>
<!-- Node9&#45;&gt;Node4 -->
<g id="edge15" class="edge"><title>Node9&#45;&gt;Node4</title>
<path fill="none" stroke="midnightblue" d="M441.241,-472.834C446.247,-464.788 451.454,-454.825 454,-445 470.224,-382.389 473.2,-347.265 427,-302 410.519,-285.853 354.629,-273.218 310.979,-265.501"/>
<polygon fill="midnightblue" stroke="midnightblue" points="438.251,-471.01 435.629,-481.275 444.08,-474.886 438.251,-471.01"/>
</g>
<!-- Node9&#45;&gt;Node5 -->
<g id="edge13" class="edge"><title>Node9&#45;&gt;Node5</title>
<path fill="none" stroke="midnightblue" d="M434.033,-471.417C439.71,-446.402 445.989,-401.312 428,-369 418.812,-352.497 401.735,-340.63 385.711,-332.564"/>
<polygon fill="midnightblue" stroke="midnightblue" points="430.573,-470.831 431.557,-481.38 437.366,-472.52 430.573,-470.831"/>
</g>
<!-- Node9&#45;&gt;Node6 -->
<g id="edge10" class="edge"><title>Node9&#45;&gt;Node6</title>
<path fill="none" stroke="midnightblue" d="M419.254,-472.529C411.774,-459.322 401.057,-440.824 391,-425 382.858,-412.189 372.784,-397.814 366.374,-388.834"/>
<polygon fill="midnightblue" stroke="midnightblue" points="416.326,-474.464 424.278,-481.466 422.428,-471.034 416.326,-474.464"/>
</g>
<!-- Node9&#45;&gt;Node7 -->
<g id="edge8" class="edge"><title>Node9&#45;&gt;Node7</title>
<path fill="none" stroke="midnightblue" d="M404.163,-476.453C385.886,-466.483 361.584,-453.228 345.867,-444.655"/>
<polygon fill="midnightblue" stroke="midnightblue" points="402.639,-479.608 413.094,-481.324 405.991,-473.463 402.639,-479.608"/>
</g>
<!-- Node10&#45;&gt;Node4 -->
<g id="edge14" class="edge"><title>Node10&#45;&gt;Node4</title>
<path fill="none" stroke="midnightblue" d="M239.775,-359.345C243.728,-332.771 250.823,-285.082 253.717,-265.623"/>
<polygon fill="midnightblue" stroke="midnightblue" points="236.304,-358.892 238.295,-369.298 243.228,-359.922 236.304,-358.892"/>
</g>
<!-- Node10&#45;&gt;Node5 -->
<g id="edge11" class="edge"><title>Node10&#45;&gt;Node5</title>
<path fill="none" stroke="midnightblue" d="M262.106,-364.542C279.925,-354.991 303.788,-342.199 321.839,-332.523"/>
<polygon fill="midnightblue" stroke="midnightblue" points="260.064,-361.666 252.904,-369.475 263.371,-367.835 260.064,-361.666"/>
</g>
<!-- Node11 -->
<g id="node11" class="node"><title>Node11</title>
<g id="a_node11"><a xlink:href="../../d0/d98/interfaceIG_1_1Num_1_1INeuralModel.html" target="_top" xlink:title="Interface for artificial neural network &#45;based models that we can operate on.">
<polygon fill="white" stroke="black" points="335.5,-246.5 335.5,-265.5 408.5,-265.5 408.5,-246.5 335.5,-246.5"/>
<text text-anchor="middle" x="372" y="-253.5" font-family="Helvetica,sans-Serif" font-size="10.00">INeuralModel</text>
</a>
</g>
</g>
<!-- Node11&#45;&gt;Node3 -->
<g id="edge17" class="edge"><title>Node11&#45;&gt;Node3</title>
<path fill="none" stroke="midnightblue" d="M342.146,-242.503C317.962,-232.38 284.538,-218.388 263.345,-209.516"/>
<polygon fill="midnightblue" stroke="midnightblue" points="340.984,-245.811 351.56,-246.444 343.687,-239.354 340.984,-245.811"/>
</g>
</g>
</svg>
        <g id="navigator" transform="translate(0 0)" fill="#404254">
                <rect fill="#f2f5e9" fill-opacity="0.5" stroke="#606060" stroke-width=".5" x="0" y="0" width="60" height="60"/>
                <use id="zoomplus" xlink:href="#zoomPlus" x="17" y="9" onmousedown="handleZoom(evt,'in')"/>
                <use id="zoomminus" xlink:href="#zoomMin" x="42" y="9" onmousedown="handleZoom(evt,'out')"/>
                <use id="reset" xlink:href="#resetDef" x="30" y="36" onmousedown="handleReset()"/>
                <g id="arrowUp" xlink:href="#dirArrow" transform="translate(30 24)" onmousedown="handlePan(0,-1)">
                  <use xlink:href="#rim" fill="#404040">
                        <set attributeName="fill" to="#808080" begin="arrowUp.mouseover" end="arrowUp.mouseout"/>
                  </use>
                  <path fill="none" stroke="white" stroke-width="1.5" d="M0,-3.0v7 M-2.5,-0.5L0,-3.0L2.5,-0.5"/>
                </g>
                <g id="arrowRight" xlink:href="#dirArrow" transform="rotate(90) translate(36 -43)" onmousedown="handlePan(1,0)">
                  <use xlink:href="#rim" fill="#404040">
                        <set attributeName="fill" to="#808080" begin="arrowRight.mouseover" end="arrowRight.mouseout"/>
                  </use>
                  <path fill="none" stroke="white" stroke-width="1.5" d="M0,-3.0v7 M-2.5,-0.5L0,-3.0L2.5,-0.5"/>
                </g>
                <g id="arrowDown" xlink:href="#dirArrow" transform="rotate(180) translate(-30 -48)" onmousedown="handlePan(0,1)">
                  <use xlink:href="#rim" fill="#404040">
                        <set attributeName="fill" to="#808080" begin="arrowDown.mouseover" end="arrowDown.mouseout"/>
                  </use>
                  <path fill="none" stroke="white" stroke-width="1.5" d="M0,-3.0v7 M-2.5,-0.5L0,-3.0L2.5,-0.5"/>
                </g>
                <g id="arrowLeft" xlink:href="#dirArrow" transform="rotate(270) translate(-36 17)" onmousedown="handlePan(-1,0)">
                  <use xlink:href="#rim" fill="#404040">
                        <set attributeName="fill" to="#808080" begin="arrowLeft.mouseover" end="arrowLeft.mouseout"/>
                  </use>
                  <path fill="none" stroke="white" stroke-width="1.5" d="M0,-3.0v7 M-2.5,-0.5L0,-3.0L2.5,-0.5"/>
                </g>
        </g>
        <svg viewBox="0 0 15 15" width="100%" height="30px" preserveAspectRatio="xMaxYMin meet">
         <g id="arrow_out" transform="scale(0.3 0.3)">
          <a xlink:href="classIG_1_1Script_1_1S__11__10__Clanek__Neural__Base__inherit__graph_org.svg" target="_base">
           <rect id="button" ry="5" rx="5" y="6" x="6" height="38" width="38"
                fill="#f2f5e9" fill-opacity="0.5" stroke="#606060" stroke-width="1.0"/>
           <path id="arrow"
             d="M 11.500037,31.436501 C 11.940474,20.09759 22.043105,11.32322 32.158766,21.979434 L 37.068811,17.246167 C 37.068811,17.246167 37.088388,32 37.088388,32 L 22.160133,31.978069 C 22.160133,31.978069 26.997745,27.140456 26.997745,27.140456 C 18.528582,18.264221 13.291696,25.230495 11.500037,31.436501 z"
             style="fill:#404040;"/>
          </a>
         </g>
        </svg>
</svg>
