<?xml version="1.0" encoding="UTF-8" standalone="no"?>
<!DOCTYPE svg PUBLIC "-//W3C//DTD SVG 1.1//EN"
 "http://www.w3.org/Graphics/SVG/1.1/DTD/svg11.dtd">
<!-- Generated by graphviz version 2.38.0 (20140413.2041)
 -->
<!-- Title: AForge.Video.DirectShow.VideoCaptureDeviceForm Pages: 1 -->
<svg width="695pt" height="374pt"
 viewBox="0.00 0.00 695.00 374.04" xmlns="http://www.w3.org/2000/svg" xmlns:xlink="http://www.w3.org/1999/xlink">
<g id="graph0" class="graph" transform="scale(1 1) rotate(0) translate(4 370.039)">
<title>AForge.Video.DirectShow.VideoCaptureDeviceForm</title>
<polygon fill="white" stroke="none" points="-4,4 -4,-370.039 691,-370.039 691,4 -4,4"/>
<!-- Node1 -->
<g id="node1" class="node"><title>Node1</title>
<g id="a_node1"><a xlink:title="Local video device selection form.">
<polygon fill="#bfbfbf" stroke="black" points="556,-219.261 556,-249.261 687,-249.261 687,-219.261 556,-219.261"/>
<text text-anchor="start" x="564" y="-237.261" font-family="Helvetica,sans-Serif" font-size="10.00">AForge.Video.DirectShow.</text>
<text text-anchor="middle" x="621.5" y="-226.261" font-family="Helvetica,sans-Serif" font-size="10.00">VideoCaptureDeviceForm</text>
</a>
</g>
</g>
<!-- Node2 -->
<g id="node2" class="node"><title>Node2</title>
<g id="a_node2"><a xlink:title=" ">
<polygon fill="white" stroke="#bfbfbf" points="331,-317.761 331,-336.761 370,-336.761 370,-317.761 331,-317.761"/>
<text text-anchor="middle" x="350.5" y="-324.761" font-family="Helvetica,sans-Serif" font-size="10.00">Form</text>
</a>
</g>
</g>
<!-- Node2&#45;&gt;Node1 -->
<g id="edge1" class="edge"><title>Node2&#45;&gt;Node1</title>
<path fill="none" stroke="midnightblue" d="M380.196,-322.998C417.511,-316.861 484.268,-303.837 538,-282.261 559.682,-273.554 582.507,-259.877 598.639,-249.346"/>
<polygon fill="midnightblue" stroke="midnightblue" points="379.371,-319.585 370.047,-324.616 380.473,-326.498 379.371,-319.585"/>
</g>
<!-- Node3 -->
<g id="node3" class="node"><title>Node3</title>
<g id="a_node3"><a xlink:href="../../d1/dc4/classAForge_1_1Video_1_1DirectShow_1_1FilterInfoCollection.html" target="_top" xlink:title="Collection of filters&#39; information objects.">
<polygon fill="white" stroke="black" points="285,-268.261 285,-298.261 416,-298.261 416,-268.261 285,-268.261"/>
<text text-anchor="start" x="293" y="-286.261" font-family="Helvetica,sans-Serif" font-size="10.00">AForge.Video.DirectShow.</text>
<text text-anchor="middle" x="350.5" y="-275.261" font-family="Helvetica,sans-Serif" font-size="10.00">FilterInfoCollection</text>
</a>
</g>
</g>
<!-- Node3&#45;&gt;Node1 -->
<g id="edge2" class="edge"><title>Node3&#45;&gt;Node1</title>
<path fill="none" stroke="#9a32cd" stroke-dasharray="5,2" d="M426.147,-269.663C466.865,-262.246 516.775,-253.155 555.822,-246.042"/>
<polygon fill="#9a32cd" stroke="#9a32cd" points="425.485,-266.226 416.275,-271.462 426.74,-273.113 425.485,-266.226"/>
<text text-anchor="middle" x="486" y="-270.261" font-family="Helvetica,sans-Serif" font-size="10.00"> videoDevices</text>
</g>
<!-- Node4 -->
<g id="node4" class="node"><title>Node4</title>
<g id="a_node4"><a xlink:title=" ">
<polygon fill="white" stroke="#bfbfbf" points="24.5,-344.761 24.5,-363.761 106.5,-363.761 106.5,-344.761 24.5,-344.761"/>
<text text-anchor="middle" x="65.5" y="-351.761" font-family="Helvetica,sans-Serif" font-size="10.00">CollectionBase</text>
</a>
</g>
</g>
<!-- Node4&#45;&gt;Node3 -->
<g id="edge3" class="edge"><title>Node4&#45;&gt;Node3</title>
<path fill="none" stroke="midnightblue" d="M116.839,-363.263C160.039,-368.236 222.228,-368.584 267,-340.261 280.79,-331.537 272.669,-318.948 285,-308.261 289.447,-304.407 294.555,-301.112 299.907,-298.304"/>
<polygon fill="midnightblue" stroke="midnightblue" points="117.196,-359.78 106.835,-361.99 116.313,-366.724 117.196,-359.78"/>
</g>
<!-- Node5 -->
<g id="node5" class="node"><title>Node5</title>
<g id="a_node5"><a xlink:href="../../d1/ddf/classAForge_1_1Video_1_1DirectShow_1_1VideoCaptureDevice.html" target="_top" xlink:title="Video source for local video capture device (for example USB webcam).">
<polygon fill="white" stroke="black" points="285,-219.261 285,-249.261 416,-249.261 416,-219.261 285,-219.261"/>
<text text-anchor="start" x="293" y="-237.261" font-family="Helvetica,sans-Serif" font-size="10.00">AForge.Video.DirectShow.</text>
<text text-anchor="middle" x="350.5" y="-226.261" font-family="Helvetica,sans-Serif" font-size="10.00">VideoCaptureDevice</text>
</a>
</g>
</g>
<!-- Node5&#45;&gt;Node1 -->
<g id="edge4" class="edge"><title>Node5&#45;&gt;Node1</title>
<path fill="none" stroke="#9a32cd" stroke-dasharray="5,2" d="M426.406,-234.261C467.076,-234.261 516.857,-234.261 555.822,-234.261"/>
<polygon fill="#9a32cd" stroke="#9a32cd" points="426.275,-230.761 416.275,-234.261 426.274,-237.761 426.275,-230.761"/>
<text text-anchor="middle" x="486" y="-237.261" font-family="Helvetica,sans-Serif" font-size="10.00"> videoDevice</text>
</g>
<!-- Node6 -->
<g id="node6" class="node"><title>Node6</title>
<g id="a_node6"><a xlink:href="../../d3/d61/interfaceAForge_1_1Video_1_1IVideoSource.html" target="_top" xlink:title="Video source interface.">
<polygon fill="white" stroke="black" points="28.5,-261.761 28.5,-280.761 102.5,-280.761 102.5,-261.761 28.5,-261.761"/>
<text text-anchor="middle" x="65.5" y="-268.761" font-family="Helvetica,sans-Serif" font-size="10.00">IVideoSource</text>
</a>
</g>
</g>
<!-- Node6&#45;&gt;Node5 -->
<g id="edge5" class="edge"><title>Node6&#45;&gt;Node5</title>
<path fill="none" stroke="midnightblue" d="M112.808,-270.675C153.651,-269.531 214.648,-266.29 267,-257.261 278.429,-255.289 290.553,-252.384 301.886,-249.297"/>
<polygon fill="midnightblue" stroke="midnightblue" points="112.529,-267.181 102.619,-270.929 112.703,-274.179 112.529,-267.181"/>
</g>
<!-- Node7 -->
<g id="node7" class="node"><title>Node7</title>
<g id="a_node7"><a xlink:href="../../d6/d57/classAForge_1_1Video_1_1DirectShow_1_1VideoCapabilities.html" target="_top" xlink:title="Capabilities of video device such as frame size and frame rate.">
<polygon fill="white" stroke="black" points="0,-212.261 0,-242.261 131,-242.261 131,-212.261 0,-212.261"/>
<text text-anchor="start" x="8" y="-230.261" font-family="Helvetica,sans-Serif" font-size="10.00">AForge.Video.DirectShow.</text>
<text text-anchor="middle" x="65.5" y="-219.261" font-family="Helvetica,sans-Serif" font-size="10.00">VideoCapabilities</text>
</a>
</g>
</g>
<!-- Node7&#45;&gt;Node5 -->
<g id="edge6" class="edge"><title>Node7&#45;&gt;Node5</title>
<path fill="none" stroke="#9a32cd" stroke-dasharray="5,2" d="M141.277,-229.11C185.896,-230.214 241.993,-231.601 284.717,-232.658"/>
<polygon fill="#9a32cd" stroke="#9a32cd" points="141.155,-225.606 131.071,-228.858 140.982,-232.604 141.155,-225.606"/>
<text text-anchor="middle" x="208" y="-246.261" font-family="Helvetica,sans-Serif" font-size="10.00"> snapshotCapabilities</text>
<text text-anchor="middle" x="208" y="-235.261" font-family="Helvetica,sans-Serif" font-size="10.00">videoCapabilities</text>
</g>
<!-- Node8 -->
<g id="node8" class="node"><title>Node8</title>
<g id="a_node8"><a xlink:href="../../d7/d99/classAForge_1_1Video_1_1DirectShow_1_1VideoInput.html" target="_top" xlink:title="Video input of a capture board.">
<polygon fill="white" stroke="black" points="0,-152.261 0,-182.261 131,-182.261 131,-152.261 0,-152.261"/>
<text text-anchor="start" x="8" y="-170.261" font-family="Helvetica,sans-Serif" font-size="10.00">AForge.Video.DirectShow.</text>
<text text-anchor="middle" x="65.5" y="-159.261" font-family="Helvetica,sans-Serif" font-size="10.00">VideoInput</text>
</a>
</g>
</g>
<!-- Node8&#45;&gt;Node1 -->
<g id="edge10" class="edge"><title>Node8&#45;&gt;Node1</title>
<path fill="none" stroke="#9a32cd" stroke-dasharray="5,2" d="M141.473,-170.113C179.152,-171.677 225.509,-173.798 267,-176.261 333.286,-180.194 350.341,-177.351 416,-187.261 467.15,-194.981 524.476,-208.597 565.388,-219.193"/>
<polygon fill="#9a32cd" stroke="#9a32cd" points="141.222,-166.6 131.086,-169.687 140.935,-173.594 141.222,-166.6"/>
<text text-anchor="middle" x="350.5" y="-201.261" font-family="Helvetica,sans-Serif" font-size="10.00"> availableVideoInputs</text>
<text text-anchor="middle" x="350.5" y="-190.261" font-family="Helvetica,sans-Serif" font-size="10.00">videoInput</text>
</g>
<!-- Node8&#45;&gt;Node5 -->
<g id="edge7" class="edge"><title>Node8&#45;&gt;Node5</title>
<path fill="none" stroke="#9a32cd" stroke-dasharray="5,2" d="M141.193,-178.012C179.199,-184.246 225.927,-193.086 267,-204.261 282,-208.341 298.144,-213.933 312.139,-219.183"/>
<polygon fill="#9a32cd" stroke="#9a32cd" points="141.653,-174.541 131.223,-176.404 140.538,-181.452 141.653,-174.541"/>
<text text-anchor="middle" x="208" y="-218.261" font-family="Helvetica,sans-Serif" font-size="10.00"> crossbarVideoInput</text>
<text text-anchor="middle" x="208" y="-207.261" font-family="Helvetica,sans-Serif" font-size="10.00">crossbarVideoInputs</text>
</g>
<!-- Node9 -->
<g id="node9" class="node"><title>Node9</title>
<g id="a_node9"><a xlink:title=" ">
<polygon fill="white" stroke="#bfbfbf" points="45,-299.761 45,-318.761 86,-318.761 86,-299.761 45,-299.761"/>
<text text-anchor="middle" x="65.5" y="-306.761" font-family="Helvetica,sans-Serif" font-size="10.00">static</text>
</a>
</g>
</g>
<!-- Node9&#45;&gt;Node5 -->
<g id="edge8" class="edge"><title>Node9&#45;&gt;Node5</title>
<path fill="none" stroke="#9a32cd" stroke-dasharray="5,2" d="M96.3672,-306.506C144.68,-301.693 237.538,-290.857 267,-276.261 276.86,-271.376 275.696,-265.136 285,-259.261 290.889,-255.541 297.421,-252.224 304.001,-249.317"/>
<polygon fill="#9a32cd" stroke="#9a32cd" points="95.8306,-303.042 86.2167,-307.494 96.5087,-310.009 95.8306,-303.042"/>
<text text-anchor="middle" x="208" y="-325.261" font-family="Helvetica,sans-Serif" font-size="10.00"> cacheVideoCapabilities</text>
<text text-anchor="middle" x="208" y="-314.261" font-family="Helvetica,sans-Serif" font-size="10.00">cacheCrossbarVideoInputs</text>
<text text-anchor="middle" x="208" y="-303.261" font-family="Helvetica,sans-Serif" font-size="10.00">cacheSnapshotCapabilities</text>
</g>
<!-- Node10 -->
<g id="node10" class="node"><title>Node10</title>
<g id="a_node10"><a xlink:title=" ">
<polygon fill="white" stroke="#bfbfbf" points="325.5,-10.7606 325.5,-29.7606 375.5,-29.7606 375.5,-10.7606 325.5,-10.7606"/>
<text text-anchor="middle" x="350.5" y="-17.7606" font-family="Helvetica,sans-Serif" font-size="10.00">System</text>
</a>
</g>
</g>
<!-- Node10&#45;&gt;Node1 -->
<g id="edge9" class="edge"><title>Node10&#45;&gt;Node1</title>
<path fill="none" stroke="#9a32cd" stroke-dasharray="5,2" d="M385.349,-9.90087C425.521,0.195012 492.746,9.91963 538,-21.2606 605.76,-67.9478 617.876,-178.889 620.035,-219.249"/>
<polygon fill="#9a32cd" stroke="#9a32cd" points="384.27,-6.5661 375.506,-12.5191 386.07,-13.3309 384.27,-6.5661"/>
<text text-anchor="middle" x="486" y="-134.261" font-family="Helvetica,sans-Serif" font-size="10.00"> label1</text>
<text text-anchor="middle" x="486" y="-123.261" font-family="Helvetica,sans-Serif" font-size="10.00">okButton</text>
<text text-anchor="middle" x="486" y="-112.261" font-family="Helvetica,sans-Serif" font-size="10.00">label2</text>
<text text-anchor="middle" x="486" y="-101.261" font-family="Helvetica,sans-Serif" font-size="10.00">devicesCombo</text>
<text text-anchor="middle" x="486" y="-90.2606" font-family="Helvetica,sans-Serif" font-size="10.00">label3</text>
<text text-anchor="middle" x="486" y="-79.2606" font-family="Helvetica,sans-Serif" font-size="10.00">videoInputsCombo</text>
<text text-anchor="middle" x="486" y="-68.2606" font-family="Helvetica,sans-Serif" font-size="10.00">pictureBox</text>
<text text-anchor="middle" x="486" y="-57.2606" font-family="Helvetica,sans-Serif" font-size="10.00">cancelButton</text>
<text text-anchor="middle" x="486" y="-46.2606" font-family="Helvetica,sans-Serif" font-size="10.00">videoResolutionsCombo</text>
<text text-anchor="middle" x="486" y="-35.2606" font-family="Helvetica,sans-Serif" font-size="10.00">groupBox1</text>
<text text-anchor="middle" x="486" y="-24.2606" font-family="Helvetica,sans-Serif" font-size="10.00">...</text>
</g>
</g>
</svg>
