<?xml version="1.0" encoding="UTF-8" standalone="no"?>
<!DOCTYPE svg PUBLIC "-//W3C//DTD SVG 1.1//EN"
 "http://www.w3.org/Graphics/SVG/1.1/DTD/svg11.dtd">
<!-- Generated by graphviz version 2.38.0 (20140413.2041)
 -->
<!-- Title: Mono.Options.OptionContext Pages: 1 -->
<!--zoomable 139 -->
<svg id="main" version="1.1" xmlns="http://www.w3.org/2000/svg" xmlns:xlink="http://www.w3.org/1999/xlink" xml:space="preserve" onload="init(evt)">
<style type="text/css"><![CDATA[
.edge:hover path { stroke: red; }
.edge:hover polygon { stroke: red; fill: red; }
]]></style>
<script type="text/javascript"><![CDATA[
var edges = document.getElementsByTagName('g');
if (edges && edges.length) {
  for (var i=0;i<edges.length;i++) {
    if (edges[i].id.substr(0,4)=='edge') {
      edges[i].setAttribute('class','edge');
    }
  }
}
]]></script>
        <defs>
                <circle id="rim" cx="0" cy="0" r="7"/>
                <circle id="rim2" cx="0" cy="0" r="3.5"/>
                <g id="zoomPlus">
                        <use xlink:href="#rim" fill="#404040">
                                <set attributeName="fill" to="#808080" begin="zoomplus.mouseover" end="zoomplus.mouseout"/>
                        </use>
                        <path d="M-4,0h8M0,-4v8" fill="none" stroke="white" stroke-width="1.5" pointer-events="none"/>
                </g>
                <g id="zoomMin">
                        <use xlink:href="#rim" fill="#404040">
                                <set attributeName="fill" to="#808080" begin="zoomminus.mouseover" end="zoomminus.mouseout"/>
                        </use>
                        <path d="M-4,0h8" fill="none" stroke="white" stroke-width="1.5" pointer-events="none"/>
                </g>
                <g id="dirArrow">
                        <path fill="none" stroke="white" stroke-width="1.5" d="M0,-3.0v7 M-2.5,-0.5L0,-3.0L2.5,-0.5"/>
                </g>
               <g id="resetDef">
                       <use xlink:href="#rim2" fill="#404040">
                               <set attributeName="fill" to="#808080" begin="reset.mouseover" end="reset.mouseout"/>
                       </use>
               </g>
        </defs>

<script type="text/javascript">
var viewWidth = 754;
var viewHeight = 139;
var sectionId = 'dynsection-0';
</script>
<script xlink:href="../../svgpan.js"/>
<svg id="graph" class="graph">
<g id="viewport">
<title>Mono.Options.OptionContext</title>
<polygon fill="white" stroke="none" points="-4,4 -4,-135 750,-135 750,4 -4,4"/>
<!-- Node1 -->
<g id="node1" class="node"><title>Node1</title>
<g id="a_node1"><a xlink:title=" ">
<polygon fill="#bfbfbf" stroke="black" points="424,-24.5 424,-43.5 567,-43.5 567,-24.5 424,-24.5"/>
<text text-anchor="middle" x="495.5" y="-31.5" font-family="Helvetica,sans-Serif" font-size="10.00">Mono.Options.OptionContext</text>
</a>
</g>
</g>
<!-- Node7 -->
<g id="node7" class="node"><title>Node7</title>
<g id="a_node7"><a xlink:href="../../d5/dc6/classMono_1_1Options_1_1OptionValueCollection.html" target="_top" xlink:title=" ">
<polygon fill="white" stroke="black" points="612,-55 612,-85 746,-85 746,-55 612,-55"/>
<text text-anchor="start" x="620" y="-73" font-family="Helvetica,sans-Serif" font-size="10.00">Mono.Options.OptionValue</text>
<text text-anchor="middle" x="679" y="-62" font-family="Helvetica,sans-Serif" font-size="10.00">Collection</text>
</a>
</g>
</g>
<!-- Node1&#45;&gt;Node7 -->
<g id="edge9" class="edge"><title>Node1&#45;&gt;Node7</title>
<path fill="none" stroke="#9a32cd" stroke-dasharray="5,2" d="M554.565,-45.5171C572.808,-49.1355 593.085,-53.1573 611.844,-56.8782"/>
<polygon fill="#9a32cd" stroke="#9a32cd" points="555.152,-42.0654 544.662,-43.5528 553.79,-48.9316 555.152,-42.0654"/>
<text text-anchor="middle" x="589.5" y="-57" font-family="Helvetica,sans-Serif" font-size="10.00"> c</text>
</g>
<!-- Node2 -->
<g id="node2" class="node"><title>Node2</title>
<g id="a_node2"><a xlink:href="../../d9/de9/classMono_1_1Options_1_1OptionSet.html" target="_top" xlink:title=" ">
<polygon fill="white" stroke="black" points="234,-44.5 234,-63.5 358,-63.5 358,-44.5 234,-44.5"/>
<text text-anchor="middle" x="296" y="-51.5" font-family="Helvetica,sans-Serif" font-size="10.00">Mono.Options.OptionSet</text>
</a>
</g>
</g>
<!-- Node2&#45;&gt;Node1 -->
<g id="edge1" class="edge"><title>Node2&#45;&gt;Node1</title>
<path fill="none" stroke="#9a32cd" stroke-dasharray="5,2" d="M368.337,-46.776C386.452,-44.9416 405.903,-42.9718 423.978,-41.1415"/>
<polygon fill="#9a32cd" stroke="#9a32cd" points="367.734,-43.3191 358.138,-47.8088 368.439,-50.2834 367.734,-43.3191"/>
<text text-anchor="middle" x="391" y="-49" font-family="Helvetica,sans-Serif" font-size="10.00"> set</text>
</g>
<!-- Node3 -->
<g id="node3" class="node"><title>Node3</title>
<g id="a_node3"><a xlink:title=" ">
<polygon fill="white" stroke="#bfbfbf" points="0,-88 0,-118 123,-118 123,-88 0,-88"/>
<text text-anchor="start" x="8" y="-106" font-family="Helvetica,sans-Serif" font-size="10.00">KeyedCollection&lt; string,</text>
<text text-anchor="middle" x="61.5" y="-95" font-family="Helvetica,sans-Serif" font-size="10.00"> Option &gt;</text>
</a>
</g>
</g>
<!-- Node3&#45;&gt;Node2 -->
<g id="edge2" class="edge"><title>Node3&#45;&gt;Node2</title>
<path fill="none" stroke="midnightblue" d="M133.229,-88.0936C171.066,-80.1193 216.544,-70.5347 249.632,-63.5615"/>
<polygon fill="midnightblue" stroke="midnightblue" points="132.346,-84.7028 123.283,-90.1898 133.79,-91.5523 132.346,-84.7028"/>
</g>
<!-- Node4 -->
<g id="node4" class="node"><title>Node4</title>
<g id="a_node4"><a xlink:title=" ">
<polygon fill="white" stroke="#bfbfbf" points="15,-39 15,-69 108,-69 108,-39 15,-39"/>
<text text-anchor="start" x="23" y="-57" font-family="Helvetica,sans-Serif" font-size="10.00">Converter&lt; string,</text>
<text text-anchor="middle" x="61.5" y="-46" font-family="Helvetica,sans-Serif" font-size="10.00"> string &gt;</text>
</a>
</g>
</g>
<!-- Node4&#45;&gt;Node2 -->
<g id="edge3" class="edge"><title>Node4&#45;&gt;Node2</title>
<path fill="none" stroke="#9a32cd" stroke-dasharray="5,2" d="M118.596,-54C153.321,-54 197.931,-54 233.602,-54"/>
<polygon fill="#9a32cd" stroke="#9a32cd" points="118.157,-50.5001 108.157,-54 118.157,-57.5001 118.157,-50.5001"/>
<text text-anchor="middle" x="178.5" y="-57" font-family="Helvetica,sans-Serif" font-size="10.00"> localizer</text>
</g>
<!-- Node5 -->
<g id="node5" class="node"><title>Node5</title>
<g id="a_node5"><a xlink:href="../../d0/dca/classMono_1_1Options_1_1Option.html" target="_top" xlink:title=" ">
<polygon fill="white" stroke="black" points="241.5,-3.5 241.5,-22.5 350.5,-22.5 350.5,-3.5 241.5,-3.5"/>
<text text-anchor="middle" x="296" y="-10.5" font-family="Helvetica,sans-Serif" font-size="10.00">Mono.Options.Option</text>
</a>
</g>
</g>
<!-- Node5&#45;&gt;Node1 -->
<g id="edge4" class="edge"><title>Node5&#45;&gt;Node1</title>
<path fill="none" stroke="#9a32cd" stroke-dasharray="5,2" d="M360.693,-19.7725C380.812,-21.9116 403.16,-24.2879 423.741,-26.4763"/>
<polygon fill="#9a32cd" stroke="#9a32cd" points="361.021,-16.2876 350.707,-18.7106 360.281,-23.2484 361.021,-16.2876"/>
<text text-anchor="middle" x="391" y="-28" font-family="Helvetica,sans-Serif" font-size="10.00"> option</text>
</g>
<!-- Node6 -->
<g id="node6" class="node"><title>Node6</title>
<g id="a_node6"><a xlink:title=" ">
<polygon fill="white" stroke="#bfbfbf" points="41,-0.5 41,-19.5 82,-19.5 82,-0.5 41,-0.5"/>
<text text-anchor="middle" x="61.5" y="-7.5" font-family="Helvetica,sans-Serif" font-size="10.00">static</text>
</a>
</g>
</g>
<!-- Node6&#45;&gt;Node5 -->
<g id="edge5" class="edge"><title>Node6&#45;&gt;Node5</title>
<path fill="none" stroke="#9a32cd" stroke-dasharray="5,2" d="M92.5917,-10.3883C130.111,-10.8724 194.924,-11.7087 241.098,-12.3045"/>
<polygon fill="#9a32cd" stroke="#9a32cd" points="92.3672,-6.88519 82.3228,-10.2558 92.2768,-13.8846 92.3672,-6.88519"/>
<text text-anchor="middle" x="178.5" y="-15" font-family="Helvetica,sans-Serif" font-size="10.00"> NameTerminator</text>
</g>
<!-- Node7&#45;&gt;Node1 -->
<g id="edge6" class="edge"><title>Node7&#45;&gt;Node1</title>
<path fill="none" stroke="#9a32cd" stroke-dasharray="5,2" d="M648.9,-49.3268C633.391,-39.5734 613.524,-28.996 594,-24 573.889,-18.8539 550.802,-20.8837 532.144,-24.4188"/>
<polygon fill="#9a32cd" stroke="#9a32cd" points="647.202,-52.3984 657.491,-54.9259 651.024,-46.5338 647.202,-52.3984"/>
<text text-anchor="middle" x="589.5" y="-27" font-family="Helvetica,sans-Serif" font-size="10.00"> c</text>
</g>
<!-- Node8 -->
<g id="node8" class="node"><title>Node8</title>
<g id="a_node8"><a xlink:title=" ">
<polygon fill="white" stroke="#bfbfbf" points="478,-111.5 478,-130.5 513,-130.5 513,-111.5 478,-111.5"/>
<text text-anchor="middle" x="495.5" y="-118.5" font-family="Helvetica,sans-Serif" font-size="10.00">IList</text>
</a>
</g>
</g>
<!-- Node8&#45;&gt;Node7 -->
<g id="edge7" class="edge"><title>Node8&#45;&gt;Node7</title>
<path fill="none" stroke="midnightblue" d="M522.928,-113.994C536.174,-110.454 552.452,-106.057 567,-102 586.512,-96.5587 607.905,-90.43 626.658,-85.0032"/>
<polygon fill="midnightblue" stroke="midnightblue" points="521.808,-110.671 513.046,-116.628 523.61,-117.435 521.808,-110.671"/>
</g>
<!-- Node9 -->
<g id="node9" class="node"><title>Node9</title>
<g id="a_node9"><a xlink:title=" ">
<polygon fill="white" stroke="#bfbfbf" points="457,-73.5 457,-92.5 534,-92.5 534,-73.5 457,-73.5"/>
<text text-anchor="middle" x="495.5" y="-80.5" font-family="Helvetica,sans-Serif" font-size="10.00">IList&lt; string &gt;</text>
</a>
</g>
</g>
<!-- Node9&#45;&gt;Node7 -->
<g id="edge8" class="edge"><title>Node9&#45;&gt;Node7</title>
<path fill="none" stroke="midnightblue" d="M544.221,-79.5819C564.889,-78.1016 589.431,-76.3438 611.816,-74.7404"/>
<polygon fill="midnightblue" stroke="midnightblue" points="543.831,-76.1008 534.107,-80.3064 544.331,-83.0829 543.831,-76.1008"/>
</g>
</g>
</svg>
        <g id="navigator" transform="translate(0 0)" fill="#404254">
                <rect fill="#f2f5e9" fill-opacity="0.5" stroke="#606060" stroke-width=".5" x="0" y="0" width="60" height="60"/>
                <use id="zoomplus" xlink:href="#zoomPlus" x="17" y="9" onmousedown="handleZoom(evt,'in')"/>
                <use id="zoomminus" xlink:href="#zoomMin" x="42" y="9" onmousedown="handleZoom(evt,'out')"/>
                <use id="reset" xlink:href="#resetDef" x="30" y="36" onmousedown="handleReset()"/>
                <g id="arrowUp" xlink:href="#dirArrow" transform="translate(30 24)" onmousedown="handlePan(0,-1)">
                  <use xlink:href="#rim" fill="#404040">
                        <set attributeName="fill" to="#808080" begin="arrowUp.mouseover" end="arrowUp.mouseout"/>
                  </use>
                  <path fill="none" stroke="white" stroke-width="1.5" d="M0,-3.0v7 M-2.5,-0.5L0,-3.0L2.5,-0.5"/>
                </g>
                <g id="arrowRight" xlink:href="#dirArrow" transform="rotate(90) translate(36 -43)" onmousedown="handlePan(1,0)">
                  <use xlink:href="#rim" fill="#404040">
                        <set attributeName="fill" to="#808080" begin="arrowRight.mouseover" end="arrowRight.mouseout"/>
                  </use>
                  <path fill="none" stroke="white" stroke-width="1.5" d="M0,-3.0v7 M-2.5,-0.5L0,-3.0L2.5,-0.5"/>
                </g>
                <g id="arrowDown" xlink:href="#dirArrow" transform="rotate(180) translate(-30 -48)" onmousedown="handlePan(0,1)">
                  <use xlink:href="#rim" fill="#404040">
                        <set attributeName="fill" to="#808080" begin="arrowDown.mouseover" end="arrowDown.mouseout"/>
                  </use>
                  <path fill="none" stroke="white" stroke-width="1.5" d="M0,-3.0v7 M-2.5,-0.5L0,-3.0L2.5,-0.5"/>
                </g>
                <g id="arrowLeft" xlink:href="#dirArrow" transform="rotate(270) translate(-36 17)" onmousedown="handlePan(-1,0)">
                  <use xlink:href="#rim" fill="#404040">
                        <set attributeName="fill" to="#808080" begin="arrowLeft.mouseover" end="arrowLeft.mouseout"/>
                  </use>
                  <path fill="none" stroke="white" stroke-width="1.5" d="M0,-3.0v7 M-2.5,-0.5L0,-3.0L2.5,-0.5"/>
                </g>
        </g>
        <svg viewBox="0 0 15 15" width="100%" height="30px" preserveAspectRatio="xMaxYMin meet">
         <g id="arrow_out" transform="scale(0.3 0.3)">
          <a xlink:href="classMono_1_1Options_1_1OptionContext__coll__graph_org.svg" target="_base">
           <rect id="button" ry="5" rx="5" y="6" x="6" height="38" width="38"
                fill="#f2f5e9" fill-opacity="0.5" stroke="#606060" stroke-width="1.0"/>
           <path id="arrow"
             d="M 11.500037,31.436501 C 11.940474,20.09759 22.043105,11.32322 32.158766,21.979434 L 37.068811,17.246167 C 37.068811,17.246167 37.088388,32 37.088388,32 L 22.160133,31.978069 C 22.160133,31.978069 26.997745,27.140456 26.997745,27.140456 C 18.528582,18.264221 13.291696,25.230495 11.500037,31.436501 z"
             style="fill:#404040;"/>
          </a>
         </g>
        </svg>
</svg>
