<?xml version="1.0" encoding="UTF-8" standalone="no"?>
<!DOCTYPE svg PUBLIC "-//W3C//DTD SVG 1.1//EN"
 "http://www.w3.org/Graphics/SVG/1.1/DTD/svg11.dtd">
<!-- Generated by graphviz version 2.38.0 (20140413.2041)
 -->
<!-- Title: Mono.Options.OptionContext Pages: 1 -->
<svg width="754pt" height="139pt"
 viewBox="0.00 0.00 754.00 139.00" xmlns="http://www.w3.org/2000/svg" xmlns:xlink="http://www.w3.org/1999/xlink">
<g id="graph0" class="graph" transform="scale(1 1) rotate(0) translate(4 135)">
<title>Mono.Options.OptionContext</title>
<polygon fill="white" stroke="none" points="-4,4 -4,-135 750,-135 750,4 -4,4"/>
<!-- Node1 -->
<g id="node1" class="node"><title>Node1</title>
<g id="a_node1"><a xlink:title=" ">
<polygon fill="#bfbfbf" stroke="black" points="424,-24.5 424,-43.5 567,-43.5 567,-24.5 424,-24.5"/>
<text text-anchor="middle" x="495.5" y="-31.5" font-family="Helvetica,sans-Serif" font-size="10.00">Mono.Options.OptionContext</text>
</a>
</g>
</g>
<!-- Node7 -->
<g id="node7" class="node"><title>Node7</title>
<g id="a_node7"><a xlink:href="../../d5/dc6/classMono_1_1Options_1_1OptionValueCollection.html" target="_top" xlink:title=" ">
<polygon fill="white" stroke="black" points="612,-55 612,-85 746,-85 746,-55 612,-55"/>
<text text-anchor="start" x="620" y="-73" font-family="Helvetica,sans-Serif" font-size="10.00">Mono.Options.OptionValue</text>
<text text-anchor="middle" x="679" y="-62" font-family="Helvetica,sans-Serif" font-size="10.00">Collection</text>
</a>
</g>
</g>
<!-- Node1&#45;&gt;Node7 -->
<g id="edge9" class="edge"><title>Node1&#45;&gt;Node7</title>
<path fill="none" stroke="#9a32cd" stroke-dasharray="5,2" d="M554.565,-45.5171C572.808,-49.1355 593.085,-53.1573 611.844,-56.8782"/>
<polygon fill="#9a32cd" stroke="#9a32cd" points="555.152,-42.0654 544.662,-43.5528 553.79,-48.9316 555.152,-42.0654"/>
<text text-anchor="middle" x="589.5" y="-57" font-family="Helvetica,sans-Serif" font-size="10.00"> c</text>
</g>
<!-- Node2 -->
<g id="node2" class="node"><title>Node2</title>
<g id="a_node2"><a xlink:href="../../d9/de9/classMono_1_1Options_1_1OptionSet.html" target="_top" xlink:title=" ">
<polygon fill="white" stroke="black" points="234,-44.5 234,-63.5 358,-63.5 358,-44.5 234,-44.5"/>
<text text-anchor="middle" x="296" y="-51.5" font-family="Helvetica,sans-Serif" font-size="10.00">Mono.Options.OptionSet</text>
</a>
</g>
</g>
<!-- Node2&#45;&gt;Node1 -->
<g id="edge1" class="edge"><title>Node2&#45;&gt;Node1</title>
<path fill="none" stroke="#9a32cd" stroke-dasharray="5,2" d="M368.337,-46.776C386.452,-44.9416 405.903,-42.9718 423.978,-41.1415"/>
<polygon fill="#9a32cd" stroke="#9a32cd" points="367.734,-43.3191 358.138,-47.8088 368.439,-50.2834 367.734,-43.3191"/>
<text text-anchor="middle" x="391" y="-49" font-family="Helvetica,sans-Serif" font-size="10.00"> set</text>
</g>
<!-- Node3 -->
<g id="node3" class="node"><title>Node3</title>
<g id="a_node3"><a xlink:title=" ">
<polygon fill="white" stroke="#bfbfbf" points="0,-88 0,-118 123,-118 123,-88 0,-88"/>
<text text-anchor="start" x="8" y="-106" font-family="Helvetica,sans-Serif" font-size="10.00">KeyedCollection&lt; string,</text>
<text text-anchor="middle" x="61.5" y="-95" font-family="Helvetica,sans-Serif" font-size="10.00"> Option &gt;</text>
</a>
</g>
</g>
<!-- Node3&#45;&gt;Node2 -->
<g id="edge2" class="edge"><title>Node3&#45;&gt;Node2</title>
<path fill="none" stroke="midnightblue" d="M133.229,-88.0936C171.066,-80.1193 216.544,-70.5347 249.632,-63.5615"/>
<polygon fill="midnightblue" stroke="midnightblue" points="132.346,-84.7028 123.283,-90.1898 133.79,-91.5523 132.346,-84.7028"/>
</g>
<!-- Node4 -->
<g id="node4" class="node"><title>Node4</title>
<g id="a_node4"><a xlink:title=" ">
<polygon fill="white" stroke="#bfbfbf" points="15,-39 15,-69 108,-69 108,-39 15,-39"/>
<text text-anchor="start" x="23" y="-57" font-family="Helvetica,sans-Serif" font-size="10.00">Converter&lt; string,</text>
<text text-anchor="middle" x="61.5" y="-46" font-family="Helvetica,sans-Serif" font-size="10.00"> string &gt;</text>
</a>
</g>
</g>
<!-- Node4&#45;&gt;Node2 -->
<g id="edge3" class="edge"><title>Node4&#45;&gt;Node2</title>
<path fill="none" stroke="#9a32cd" stroke-dasharray="5,2" d="M118.596,-54C153.321,-54 197.931,-54 233.602,-54"/>
<polygon fill="#9a32cd" stroke="#9a32cd" points="118.157,-50.5001 108.157,-54 118.157,-57.5001 118.157,-50.5001"/>
<text text-anchor="middle" x="178.5" y="-57" font-family="Helvetica,sans-Serif" font-size="10.00"> localizer</text>
</g>
<!-- Node5 -->
<g id="node5" class="node"><title>Node5</title>
<g id="a_node5"><a xlink:href="../../d0/dca/classMono_1_1Options_1_1Option.html" target="_top" xlink:title=" ">
<polygon fill="white" stroke="black" points="241.5,-3.5 241.5,-22.5 350.5,-22.5 350.5,-3.5 241.5,-3.5"/>
<text text-anchor="middle" x="296" y="-10.5" font-family="Helvetica,sans-Serif" font-size="10.00">Mono.Options.Option</text>
</a>
</g>
</g>
<!-- Node5&#45;&gt;Node1 -->
<g id="edge4" class="edge"><title>Node5&#45;&gt;Node1</title>
<path fill="none" stroke="#9a32cd" stroke-dasharray="5,2" d="M360.693,-19.7725C380.812,-21.9116 403.16,-24.2879 423.741,-26.4763"/>
<polygon fill="#9a32cd" stroke="#9a32cd" points="361.021,-16.2876 350.707,-18.7106 360.281,-23.2484 361.021,-16.2876"/>
<text text-anchor="middle" x="391" y="-28" font-family="Helvetica,sans-Serif" font-size="10.00"> option</text>
</g>
<!-- Node6 -->
<g id="node6" class="node"><title>Node6</title>
<g id="a_node6"><a xlink:title=" ">
<polygon fill="white" stroke="#bfbfbf" points="41,-0.5 41,-19.5 82,-19.5 82,-0.5 41,-0.5"/>
<text text-anchor="middle" x="61.5" y="-7.5" font-family="Helvetica,sans-Serif" font-size="10.00">static</text>
</a>
</g>
</g>
<!-- Node6&#45;&gt;Node5 -->
<g id="edge5" class="edge"><title>Node6&#45;&gt;Node5</title>
<path fill="none" stroke="#9a32cd" stroke-dasharray="5,2" d="M92.5917,-10.3883C130.111,-10.8724 194.924,-11.7087 241.098,-12.3045"/>
<polygon fill="#9a32cd" stroke="#9a32cd" points="92.3672,-6.88519 82.3228,-10.2558 92.2768,-13.8846 92.3672,-6.88519"/>
<text text-anchor="middle" x="178.5" y="-15" font-family="Helvetica,sans-Serif" font-size="10.00"> NameTerminator</text>
</g>
<!-- Node7&#45;&gt;Node1 -->
<g id="edge6" class="edge"><title>Node7&#45;&gt;Node1</title>
<path fill="none" stroke="#9a32cd" stroke-dasharray="5,2" d="M648.9,-49.3268C633.391,-39.5734 613.524,-28.996 594,-24 573.889,-18.8539 550.802,-20.8837 532.144,-24.4188"/>
<polygon fill="#9a32cd" stroke="#9a32cd" points="647.202,-52.3984 657.491,-54.9259 651.024,-46.5338 647.202,-52.3984"/>
<text text-anchor="middle" x="589.5" y="-27" font-family="Helvetica,sans-Serif" font-size="10.00"> c</text>
</g>
<!-- Node8 -->
<g id="node8" class="node"><title>Node8</title>
<g id="a_node8"><a xlink:title=" ">
<polygon fill="white" stroke="#bfbfbf" points="478,-111.5 478,-130.5 513,-130.5 513,-111.5 478,-111.5"/>
<text text-anchor="middle" x="495.5" y="-118.5" font-family="Helvetica,sans-Serif" font-size="10.00">IList</text>
</a>
</g>
</g>
<!-- Node8&#45;&gt;Node7 -->
<g id="edge7" class="edge"><title>Node8&#45;&gt;Node7</title>
<path fill="none" stroke="midnightblue" d="M522.928,-113.994C536.174,-110.454 552.452,-106.057 567,-102 586.512,-96.5587 607.905,-90.43 626.658,-85.0032"/>
<polygon fill="midnightblue" stroke="midnightblue" points="521.808,-110.671 513.046,-116.628 523.61,-117.435 521.808,-110.671"/>
</g>
<!-- Node9 -->
<g id="node9" class="node"><title>Node9</title>
<g id="a_node9"><a xlink:title=" ">
<polygon fill="white" stroke="#bfbfbf" points="457,-73.5 457,-92.5 534,-92.5 534,-73.5 457,-73.5"/>
<text text-anchor="middle" x="495.5" y="-80.5" font-family="Helvetica,sans-Serif" font-size="10.00">IList&lt; string &gt;</text>
</a>
</g>
</g>
<!-- Node9&#45;&gt;Node7 -->
<g id="edge8" class="edge"><title>Node9&#45;&gt;Node7</title>
<path fill="none" stroke="midnightblue" d="M544.221,-79.5819C564.889,-78.1016 589.431,-76.3438 611.816,-74.7404"/>
<polygon fill="midnightblue" stroke="midnightblue" points="543.831,-76.1008 534.107,-80.3064 544.331,-83.0829 543.831,-76.1008"/>
</g>
</g>
</svg>
