<?xml version="1.0" encoding="UTF-8" standalone="no"?>
<!DOCTYPE svg PUBLIC "-//W3C//DTD SVG 1.1//EN"
 "http://www.w3.org/Graphics/SVG/1.1/DTD/svg11.dtd">
<!-- Generated by graphviz version 2.38.0 (20140413.2041)
 -->
<!-- Title: NeuronDotNet.Core.Backpropagation.ActivationLayer Pages: 1 -->
<svg width="569pt" height="235pt"
 viewBox="0.00 0.00 569.00 235.00" xmlns="http://www.w3.org/2000/svg" xmlns:xlink="http://www.w3.org/1999/xlink">
<g id="graph0" class="graph" transform="scale(1 1) rotate(0) translate(4 231)">
<title>NeuronDotNet.Core.Backpropagation.ActivationLayer</title>
<polygon fill="white" stroke="none" points="-4,4 -4,-231 565,-231 565,4 -4,4"/>
<!-- Node1 -->
<g id="node1" class="node"><title>Node1</title>
<g id="a_node1"><a xlink:title="Activation Layer is a layer of activation neurons.">
<polygon fill="#bfbfbf" stroke="black" points="167,-98.5 167,-128.5 346,-128.5 346,-98.5 167,-98.5"/>
<text text-anchor="start" x="175" y="-116.5" font-family="Helvetica,sans-Serif" font-size="10.00">NeuronDotNet.Core.Backpropagation.</text>
<text text-anchor="middle" x="256.5" y="-105.5" font-family="Helvetica,sans-Serif" font-size="10.00">ActivationLayer</text>
</a>
</g>
</g>
<!-- Node3 -->
<g id="node3" class="node"><title>Node3</title>
<g id="a_node3"><a xlink:href="../../dc/da8/classNeuronDotNet_1_1Core_1_1Backpropagation_1_1LinearLayer.html" target="_top" xlink:title="An ActivationLayer using linear activation function">
<polygon fill="white" stroke="black" points="382,-196.5 382,-226.5 561,-226.5 561,-196.5 382,-196.5"/>
<text text-anchor="start" x="390" y="-214.5" font-family="Helvetica,sans-Serif" font-size="10.00">NeuronDotNet.Core.Backpropagation.</text>
<text text-anchor="middle" x="471.5" y="-203.5" font-family="Helvetica,sans-Serif" font-size="10.00">LinearLayer</text>
</a>
</g>
</g>
<!-- Node1&#45;&gt;Node3 -->
<g id="edge2" class="edge"><title>Node1&#45;&gt;Node3</title>
<path fill="none" stroke="midnightblue" d="M287.503,-134.499C311.988,-150.841 347.974,-173.092 382,-187.5 389.77,-190.79 398.115,-193.746 406.466,-196.366"/>
<polygon fill="midnightblue" stroke="midnightblue" points="289.273,-131.471 279.028,-128.772 285.354,-137.271 289.273,-131.471"/>
</g>
<!-- Node4 -->
<g id="node4" class="node"><title>Node4</title>
<g id="a_node4"><a xlink:href="../../dd/daf/classNeuronDotNet_1_1Core_1_1Backpropagation_1_1LogarithmLayer.html" target="_top" xlink:title="An ActivationLayer using logarithmic activation function">
<polygon fill="white" stroke="black" points="382,-147.5 382,-177.5 561,-177.5 561,-147.5 382,-147.5"/>
<text text-anchor="start" x="390" y="-165.5" font-family="Helvetica,sans-Serif" font-size="10.00">NeuronDotNet.Core.Backpropagation.</text>
<text text-anchor="middle" x="471.5" y="-154.5" font-family="Helvetica,sans-Serif" font-size="10.00">LogarithmLayer</text>
</a>
</g>
</g>
<!-- Node1&#45;&gt;Node4 -->
<g id="edge3" class="edge"><title>Node1&#45;&gt;Node4</title>
<path fill="none" stroke="midnightblue" d="M332.837,-130.831C356.485,-136.271 382.381,-142.229 405.269,-147.494"/>
<polygon fill="midnightblue" stroke="midnightblue" points="333.385,-127.366 322.855,-128.535 331.815,-134.188 333.385,-127.366"/>
</g>
<!-- Node5 -->
<g id="node5" class="node"><title>Node5</title>
<g id="a_node5"><a xlink:href="../../d0/d8e/classNeuronDotNet_1_1Core_1_1Backpropagation_1_1SigmoidLayer.html" target="_top" xlink:title="An ActivationLayer using sigmoid activation function">
<polygon fill="white" stroke="black" points="382,-98.5 382,-128.5 561,-128.5 561,-98.5 382,-98.5"/>
<text text-anchor="start" x="390" y="-116.5" font-family="Helvetica,sans-Serif" font-size="10.00">NeuronDotNet.Core.Backpropagation.</text>
<text text-anchor="middle" x="471.5" y="-105.5" font-family="Helvetica,sans-Serif" font-size="10.00">SigmoidLayer</text>
</a>
</g>
</g>
<!-- Node1&#45;&gt;Node5 -->
<g id="edge4" class="edge"><title>Node1&#45;&gt;Node5</title>
<path fill="none" stroke="midnightblue" d="M356.545,-113.5C364.99,-113.5 373.498,-113.5 381.855,-113.5"/>
<polygon fill="midnightblue" stroke="midnightblue" points="356.289,-110 346.289,-113.5 356.289,-117 356.289,-110"/>
</g>
<!-- Node6 -->
<g id="node6" class="node"><title>Node6</title>
<g id="a_node6"><a xlink:href="../../d7/d77/classNeuronDotNet_1_1Core_1_1Backpropagation_1_1SineLayer.html" target="_top" xlink:title="An ActivationLayer using sine activation function">
<polygon fill="white" stroke="black" points="382,-49.5 382,-79.5 561,-79.5 561,-49.5 382,-49.5"/>
<text text-anchor="start" x="390" y="-67.5" font-family="Helvetica,sans-Serif" font-size="10.00">NeuronDotNet.Core.Backpropagation.</text>
<text text-anchor="middle" x="471.5" y="-56.5" font-family="Helvetica,sans-Serif" font-size="10.00">SineLayer</text>
</a>
</g>
</g>
<!-- Node1&#45;&gt;Node6 -->
<g id="edge5" class="edge"><title>Node1&#45;&gt;Node6</title>
<path fill="none" stroke="midnightblue" d="M332.837,-96.1691C356.485,-90.7288 382.381,-84.7715 405.269,-79.5062"/>
<polygon fill="midnightblue" stroke="midnightblue" points="331.815,-92.8125 322.855,-98.4654 333.385,-99.6343 331.815,-92.8125"/>
</g>
<!-- Node7 -->
<g id="node7" class="node"><title>Node7</title>
<g id="a_node7"><a xlink:href="../../db/db6/classNeuronDotNet_1_1Core_1_1Backpropagation_1_1TanhLayer.html" target="_top" xlink:title="An ActivationLayer using tanh activation function">
<polygon fill="white" stroke="black" points="382,-0.5 382,-30.5 561,-30.5 561,-0.5 382,-0.5"/>
<text text-anchor="start" x="390" y="-18.5" font-family="Helvetica,sans-Serif" font-size="10.00">NeuronDotNet.Core.Backpropagation.</text>
<text text-anchor="middle" x="471.5" y="-7.5" font-family="Helvetica,sans-Serif" font-size="10.00">TanhLayer</text>
</a>
</g>
</g>
<!-- Node1&#45;&gt;Node7 -->
<g id="edge6" class="edge"><title>Node1&#45;&gt;Node7</title>
<path fill="none" stroke="midnightblue" d="M287.503,-92.5006C311.988,-76.1587 347.974,-53.9078 382,-39.5 389.77,-36.2101 398.115,-33.2537 406.466,-30.6338"/>
<polygon fill="midnightblue" stroke="midnightblue" points="285.354,-89.7291 279.028,-98.2285 289.273,-95.5287 285.354,-89.7291"/>
</g>
<!-- Node2 -->
<g id="node2" class="node"><title>Node2</title>
<g id="a_node2"><a xlink:href="../../db/d81/classNeuronDotNet_1_1Core_1_1Layer.html" target="_top" xlink:title=" ">
<polygon fill="white" stroke="black" points="0,-104 0,-123 131,-123 131,-104 0,-104"/>
<text text-anchor="middle" x="65.5" y="-111" font-family="Helvetica,sans-Serif" font-size="10.00">Layer&lt; ActivationNeuron &gt;</text>
</a>
</g>
</g>
<!-- Node2&#45;&gt;Node1 -->
<g id="edge1" class="edge"><title>Node2&#45;&gt;Node1</title>
<path fill="none" stroke="midnightblue" d="M141.178,-113.5C149.615,-113.5 158.274,-113.5 166.867,-113.5"/>
<polygon fill="midnightblue" stroke="midnightblue" points="141.014,-110 131.014,-113.5 141.014,-117 141.014,-110"/>
</g>
</g>
</svg>
