<?xml version="1.0" encoding="UTF-8" standalone="no"?>
<!DOCTYPE svg PUBLIC "-//W3C//DTD SVG 1.1//EN"
 "http://www.w3.org/Graphics/SVG/1.1/DTD/svg11.dtd">
<!-- Generated by graphviz version 2.38.0 (20140413.2041)
 -->
<!-- Title: IG.Num.NeuralApproximatorBase Pages: 1 -->
<!--zoomable 421 -->
<svg id="main" version="1.1" xmlns="http://www.w3.org/2000/svg" xmlns:xlink="http://www.w3.org/1999/xlink" xml:space="preserve" onload="init(evt)">
<style type="text/css"><![CDATA[
.edge:hover path { stroke: red; }
.edge:hover polygon { stroke: red; fill: red; }
]]></style>
<script type="text/javascript"><![CDATA[
var edges = document.getElementsByTagName('g');
if (edges && edges.length) {
  for (var i=0;i<edges.length;i++) {
    if (edges[i].id.substr(0,4)=='edge') {
      edges[i].setAttribute('class','edge');
    }
  }
}
]]></script>
        <defs>
                <circle id="rim" cx="0" cy="0" r="7"/>
                <circle id="rim2" cx="0" cy="0" r="3.5"/>
                <g id="zoomPlus">
                        <use xlink:href="#rim" fill="#404040">
                                <set attributeName="fill" to="#808080" begin="zoomplus.mouseover" end="zoomplus.mouseout"/>
                        </use>
                        <path d="M-4,0h8M0,-4v8" fill="none" stroke="white" stroke-width="1.5" pointer-events="none"/>
                </g>
                <g id="zoomMin">
                        <use xlink:href="#rim" fill="#404040">
                                <set attributeName="fill" to="#808080" begin="zoomminus.mouseover" end="zoomminus.mouseout"/>
                        </use>
                        <path d="M-4,0h8" fill="none" stroke="white" stroke-width="1.5" pointer-events="none"/>
                </g>
                <g id="dirArrow">
                        <path fill="none" stroke="white" stroke-width="1.5" d="M0,-3.0v7 M-2.5,-0.5L0,-3.0L2.5,-0.5"/>
                </g>
               <g id="resetDef">
                       <use xlink:href="#rim2" fill="#404040">
                               <set attributeName="fill" to="#808080" begin="reset.mouseover" end="reset.mouseout"/>
                       </use>
               </g>
        </defs>

<script type="text/javascript">
var viewWidth = 715;
var viewHeight = 421;
var sectionId = 'dynsection-1';
</script>
<script xlink:href="../../svgpan.js"/>
<svg id="graph" class="graph">
<g id="viewport">
<title>IG.Num.NeuralApproximatorBase</title>
<polygon fill="white" stroke="none" points="-4,4 -4,-417.11 711,-417.11 711,4 -4,4"/>
<!-- Node1 -->
<g id="node1" class="node"><title>Node1</title>
<g id="a_node1"><a xlink:title="Base class for neural network approximators.">
<polygon fill="#bfbfbf" stroke="black" points="546,-166.051 546,-185.051 707,-185.051 707,-166.051 546,-166.051"/>
<text text-anchor="middle" x="626.5" y="-173.051" font-family="Helvetica,sans-Serif" font-size="10.00">IG.Num.NeuralApproximatorBase</text>
</a>
</g>
</g>
<!-- Node2 -->
<g id="node2" class="node"><title>Node2</title>
<g id="a_node2"><a xlink:href="../../db/d03/classIG_1_1Num_1_1VectorApproximatorBase.html" target="_top" xlink:title="Base class for vector function approximators.">
<polygon fill="white" stroke="black" points="287.5,-260.051 287.5,-279.051 412.5,-279.051 412.5,-260.051 287.5,-260.051"/>
<text text-anchor="middle" x="350" y="-267.051" font-family="Helvetica,sans-Serif" font-size="10.00">VectorApproximatorBase</text>
</a>
</g>
</g>
<!-- Node2&#45;&gt;Node1 -->
<g id="edge1" class="edge"><title>Node2&#45;&gt;Node1</title>
<path fill="none" stroke="midnightblue" d="M388.335,-256.766C444.104,-237.668 547.91,-202.121 597.595,-185.107"/>
<polygon fill="midnightblue" stroke="midnightblue" points="387.158,-253.469 378.831,-260.02 389.426,-260.092 387.158,-253.469"/>
</g>
<!-- Node3 -->
<g id="node3" class="node"><title>Node3</title>
<g id="a_node3"><a xlink:href="../../dc/d13/interfaceIG_1_1Num_1_1IVectorApproximator.html" target="_top" xlink:title="Interface for vector function approximators.">
<polygon fill="white" stroke="black" points="2.5,-373.051 2.5,-392.051 107.5,-392.051 107.5,-373.051 2.5,-373.051"/>
<text text-anchor="middle" x="55" y="-380.051" font-family="Helvetica,sans-Serif" font-size="10.00">IVectorApproximator</text>
</a>
</g>
</g>
<!-- Node3&#45;&gt;Node1 -->
<g id="edge8" class="edge"><title>Node3&#45;&gt;Node1</title>
<path fill="none" stroke="midnightblue" d="M105.004,-394.123C197.018,-412.869 398.058,-439.358 528,-349.551 588.676,-307.616 615.88,-215.007 623.307,-185.08"/>
<polygon fill="midnightblue" stroke="midnightblue" points="105.63,-390.678 95.1245,-392.054 104.195,-397.529 105.63,-390.678"/>
</g>
<!-- Node3&#45;&gt;Node2 -->
<g id="edge2" class="edge"><title>Node3&#45;&gt;Node2</title>
<path fill="none" stroke="midnightblue" d="M90.359,-369.3C150.092,-346.263 271.701,-299.362 324.082,-279.161"/>
<polygon fill="midnightblue" stroke="midnightblue" points="89.0518,-366.053 80.981,-372.917 91.5706,-372.584 89.0518,-366.053"/>
</g>
<!-- Node6 -->
<g id="node6" class="node"><title>Node6</title>
<g id="a_node6"><a xlink:href="../../d7/db4/interfaceIG_1_1Num_1_1INeuralApproximator.html" target="_top" xlink:title="Approximator of response by using neural networks. $A Igor Mar11;">
<polygon fill="white" stroke="black" points="298,-336.051 298,-355.051 402,-355.051 402,-336.051 298,-336.051"/>
<text text-anchor="middle" x="350" y="-343.051" font-family="Helvetica,sans-Serif" font-size="10.00">INeuralApproximator</text>
</a>
</g>
</g>
<!-- Node3&#45;&gt;Node6 -->
<g id="edge6" class="edge"><title>Node3&#45;&gt;Node6</title>
<path fill="none" stroke="midnightblue" d="M117.829,-381.977C160.566,-380.731 218.579,-377.351 269,-368.551 286.653,-365.47 305.974,-359.977 321.206,-355.132"/>
<polygon fill="midnightblue" stroke="midnightblue" points="117.488,-378.485 107.582,-382.244 117.67,-385.482 117.488,-378.485"/>
</g>
<!-- Node4 -->
<g id="node4" class="node"><title>Node4</title>
<g id="a_node4"><a xlink:href="../../d3/db6/interfaceIG_1_1Lib_1_1ILockable.html" target="_top" xlink:title="Lockable object, has a Lock property that returns object on which lock must be performed in order to ...">
<polygon fill="white" stroke="black" points="26,-298.051 26,-317.051 84,-317.051 84,-298.051 26,-298.051"/>
<text text-anchor="middle" x="55" y="-305.051" font-family="Helvetica,sans-Serif" font-size="10.00">ILockable</text>
</a>
</g>
</g>
<!-- Node4&#45;&gt;Node1 -->
<g id="edge9" class="edge"><title>Node4&#45;&gt;Node1</title>
<path fill="none" stroke="midnightblue" d="M94.5496,-309.664C160.633,-312.368 299.409,-314.021 413,-288.551 466.877,-276.47 479.322,-267.611 528,-241.551 560.257,-224.282 595.073,-198.895 613.099,-185.185"/>
<polygon fill="midnightblue" stroke="midnightblue" points="94.3503,-306.152 84.2056,-309.207 94.0414,-313.145 94.3503,-306.152"/>
</g>
<!-- Node4&#45;&gt;Node2 -->
<g id="edge3" class="edge"><title>Node4&#45;&gt;Node2</title>
<path fill="none" stroke="midnightblue" d="M94.3283,-299.48C105.181,-297.363 117.027,-295.211 128,-293.551 181.614,-285.442 242.946,-279.005 287.376,-274.847"/>
<polygon fill="midnightblue" stroke="midnightblue" points="93.4106,-296.094 84.288,-301.481 94.7793,-302.958 93.4106,-296.094"/>
</g>
<!-- Node4&#45;&gt;Node6 -->
<g id="edge7" class="edge"><title>Node4&#45;&gt;Node6</title>
<path fill="none" stroke="midnightblue" d="M94.1177,-313.593C105.049,-315.266 116.988,-317.037 128,-318.551 186.014,-326.525 252.763,-334.517 297.59,-339.713"/>
<polygon fill="midnightblue" stroke="midnightblue" points="94.427,-310.099 84.0096,-312.03 93.3574,-317.017 94.427,-310.099"/>
</g>
<!-- Node5 -->
<g id="node5" class="node"><title>Node5</title>
<g id="a_node5"><a xlink:href="../../d3/d24/interfaceIG_1_1Num_1_1IVector.html" target="_top" xlink:title="Generic Vector interface">
<polygon fill="white" stroke="black" points="1.5,-192.051 1.5,-211.051 108.5,-211.051 108.5,-192.051 1.5,-192.051"/>
<text text-anchor="middle" x="55" y="-199.051" font-family="Helvetica,sans-Serif" font-size="10.00">IG.Num.IVector&lt; T &gt;</text>
</a>
</g>
</g>
<!-- Node5&#45;&gt;Node1 -->
<g id="edge13" class="edge"><title>Node5&#45;&gt;Node1</title>
<path fill="none" stroke="#9a32cd" stroke-dasharray="5,2" d="M118.917,-196.12C165.337,-192.309 230.059,-187.402 287,-184.551 375.512,-180.12 477.16,-177.786 545.781,-176.617"/>
<polygon fill="#9a32cd" stroke="#9a32cd" points="118.387,-192.652 108.71,-196.965 118.965,-199.628 118.387,-192.652"/>
<text text-anchor="middle" x="350" y="-242.551" font-family="Helvetica,sans-Serif" font-size="10.00"> _tolMaxRelative</text>
<text text-anchor="middle" x="350" y="-231.551" font-family="Helvetica,sans-Serif" font-size="10.00">_output</text>
<text text-anchor="middle" x="350" y="-220.551" font-family="Helvetica,sans-Serif" font-size="10.00">_tolRmsRelative</text>
<text text-anchor="middle" x="350" y="-209.551" font-family="Helvetica,sans-Serif" font-size="10.00">_toleranceMax</text>
<text text-anchor="middle" x="350" y="-198.551" font-family="Helvetica,sans-Serif" font-size="10.00">_toleranceRms</text>
<text text-anchor="middle" x="350" y="-187.551" font-family="Helvetica,sans-Serif" font-size="10.00">_outputFiltered1</text>
</g>
<!-- Node5&#45;&gt;Node2 -->
<g id="edge4" class="edge"><title>Node5&#45;&gt;Node2</title>
<path fill="none" stroke="#9a32cd" stroke-dasharray="5,2" d="M106.924,-213.369C163.89,-226.59 255.066,-247.751 307.757,-259.979"/>
<polygon fill="#9a32cd" stroke="#9a32cd" points="107.581,-209.929 97.0489,-211.078 105.999,-216.748 107.581,-209.929"/>
<text text-anchor="middle" x="198.5" y="-263.551" font-family="Helvetica,sans-Serif" font-size="10.00"> _lastCalculationOutputValues</text>
<text text-anchor="middle" x="198.5" y="-252.551" font-family="Helvetica,sans-Serif" font-size="10.00">_lastCalculationInputParameters</text>
</g>
<!-- Node6&#45;&gt;Node1 -->
<g id="edge5" class="edge"><title>Node6&#45;&gt;Node1</title>
<path fill="none" stroke="midnightblue" d="M412.451,-349.357C448.595,-348.779 493.77,-342.935 528,-321.551 582.027,-287.8 612.824,-211.846 622.311,-185.095"/>
<polygon fill="midnightblue" stroke="midnightblue" points="412.022,-345.858 402.031,-349.384 412.04,-352.858 412.022,-345.858"/>
</g>
<!-- Node7 -->
<g id="node7" class="node"><title>Node7</title>
<g id="a_node7"><a xlink:href="../../d5/d84/classIG_1_1Lib_1_1IndexList.html" target="_top" xlink:title="Index list, a sorted list of unique integer indices. Used for tasks such as filtering specified eleme...">
<polygon fill="white" stroke="black" points="308,-120.051 308,-139.051 392,-139.051 392,-120.051 308,-120.051"/>
<text text-anchor="middle" x="350" y="-127.051" font-family="Helvetica,sans-Serif" font-size="10.00">IG.Lib.IndexList</text>
</a>
</g>
</g>
<!-- Node7&#45;&gt;Node1 -->
<g id="edge10" class="edge"><title>Node7&#45;&gt;Node1</title>
<path fill="none" stroke="#9a32cd" stroke-dasharray="5,2" d="M402.128,-133.803C437.627,-137.197 485.917,-142.695 528,-150.551 549.816,-154.623 573.982,-160.808 592.797,-166.007"/>
<polygon fill="#9a32cd" stroke="#9a32cd" points="402.29,-130.303 392.008,-132.859 401.64,-137.273 402.29,-130.303"/>
<text text-anchor="middle" x="479.5" y="-153.551" font-family="Helvetica,sans-Serif" font-size="10.00"> _verificationIndices</text>
</g>
<!-- Node8 -->
<g id="node8" class="node"><title>Node8</title>
<g id="a_node8"><a xlink:href="../../da/d2a/classIG_1_1Lib_1_1SortedUniqueItemList.html" target="_top" xlink:title=" ">
<polygon fill="white" stroke="black" points="0,-114.551 0,-144.551 110,-144.551 110,-114.551 0,-114.551"/>
<text text-anchor="start" x="8" y="-132.551" font-family="Helvetica,sans-Serif" font-size="10.00">SortedUniqueItemList</text>
<text text-anchor="middle" x="55" y="-121.551" font-family="Helvetica,sans-Serif" font-size="10.00">&lt; int &gt;</text>
</a>
</g>
</g>
<!-- Node8&#45;&gt;Node7 -->
<g id="edge11" class="edge"><title>Node8&#45;&gt;Node7</title>
<path fill="none" stroke="midnightblue" d="M120.097,-129.551C177.256,-129.551 259.218,-129.551 307.984,-129.551"/>
<polygon fill="midnightblue" stroke="midnightblue" points="120.082,-126.051 110.082,-129.551 120.082,-133.051 120.082,-126.051"/>
</g>
<!-- Node9 -->
<g id="node9" class="node"><title>Node9</title>
<g id="a_node9"><a xlink:href="../../d4/d29/classIG_1_1Num_1_1SampledDataSet.html" target="_top" xlink:title="Sampled data consisting of elements of which each contains vector of input parameters and output valu...">
<polygon fill="white" stroke="black" points="287,-82.0509 287,-101.051 413,-101.051 413,-82.0509 287,-82.0509"/>
<text text-anchor="middle" x="350" y="-89.0509" font-family="Helvetica,sans-Serif" font-size="10.00">IG.Num.SampledDataSet</text>
</a>
</g>
</g>
<!-- Node9&#45;&gt;Node1 -->
<g id="edge12" class="edge"><title>Node9&#45;&gt;Node1</title>
<path fill="none" stroke="#9a32cd" stroke-dasharray="5,2" d="M423.195,-98.8036C455.828,-103.443 494.498,-110.864 528,-122.551 559.471,-133.529 592.933,-153.874 611.323,-165.912"/>
<polygon fill="#9a32cd" stroke="#9a32cd" points="423.654,-95.334 413.273,-97.4516 422.709,-102.27 423.654,-95.334"/>
<text text-anchor="middle" x="479.5" y="-125.551" font-family="Helvetica,sans-Serif" font-size="10.00"> _trainingData</text>
</g>
<!-- Node10 -->
<g id="node10" class="node"><title>Node10</title>
<g id="a_node10"><a xlink:href="../../db/d5e/interfaceIG_1_1Num_1_1IBoundingBox.html" target="_top" xlink:title="Bounding box, defines minimum and maximum co&#45;ordinates of domains, geometric objects and their groups...">
<polygon fill="white" stroke="black" points="293.5,-39.0509 293.5,-58.0509 406.5,-58.0509 406.5,-39.0509 293.5,-39.0509"/>
<text text-anchor="middle" x="350" y="-46.0509" font-family="Helvetica,sans-Serif" font-size="10.00">IG.Num.IBoundingBox</text>
</a>
</g>
</g>
<!-- Node10&#45;&gt;Node1 -->
<g id="edge14" class="edge"><title>Node10&#45;&gt;Node1</title>
<path fill="none" stroke="#9a32cd" stroke-dasharray="5,2" d="M409.434,-37.7758C445.451,-33.98 491.555,-34.4233 528,-52.5509 578.016,-77.4286 610.45,-141.337 621.388,-165.813"/>
<polygon fill="#9a32cd" stroke="#9a32cd" points="408.597,-34.3508 399.082,-39.0109 409.427,-41.3015 408.597,-34.3508"/>
<text text-anchor="middle" x="479.5" y="-88.5509" font-family="Helvetica,sans-Serif" font-size="10.00"> _inputNeuronRange</text>
<text text-anchor="middle" x="479.5" y="-77.5509" font-family="Helvetica,sans-Serif" font-size="10.00">_outputNeuronsRange</text>
<text text-anchor="middle" x="479.5" y="-66.5509" font-family="Helvetica,sans-Serif" font-size="10.00">_inputDataBounds</text>
<text text-anchor="middle" x="479.5" y="-55.5509" font-family="Helvetica,sans-Serif" font-size="10.00">_outputDataBounds</text>
</g>
<!-- Node11 -->
<g id="node11" class="node"><title>Node11</title>
<g id="a_node11"><a xlink:title=" ">
<polygon fill="white" stroke="#bfbfbf" points="335.5,-1.05091 335.5,-20.0509 364.5,-20.0509 364.5,-1.05091 335.5,-1.05091"/>
<text text-anchor="middle" x="350" y="-8.05091" font-family="Helvetica,sans-Serif" font-size="10.00">IG</text>
</a>
</g>
</g>
<!-- Node11&#45;&gt;Node1 -->
<g id="edge15" class="edge"><title>Node11&#45;&gt;Node1</title>
<path fill="none" stroke="#9a32cd" stroke-dasharray="5,2" d="M374.637,-5.64067C410.538,0.492483 479.731,7.00511 528,-21.5509 585.193,-55.3868 614.163,-137.339 622.727,-165.698"/>
<polygon fill="#9a32cd" stroke="#9a32cd" points="373.821,-2.23222 364.624,-7.49264 375.094,-9.11548 373.821,-2.23222"/>
<text text-anchor="middle" x="479.5" y="-24.5509" font-family="Helvetica,sans-Serif" font-size="10.00"> _auxErrors</text>
</g>
</g>
</svg>
        <g id="navigator" transform="translate(0 0)" fill="#404254">
                <rect fill="#f2f5e9" fill-opacity="0.5" stroke="#606060" stroke-width=".5" x="0" y="0" width="60" height="60"/>
                <use id="zoomplus" xlink:href="#zoomPlus" x="17" y="9" onmousedown="handleZoom(evt,'in')"/>
                <use id="zoomminus" xlink:href="#zoomMin" x="42" y="9" onmousedown="handleZoom(evt,'out')"/>
                <use id="reset" xlink:href="#resetDef" x="30" y="36" onmousedown="handleReset()"/>
                <g id="arrowUp" xlink:href="#dirArrow" transform="translate(30 24)" onmousedown="handlePan(0,-1)">
                  <use xlink:href="#rim" fill="#404040">
                        <set attributeName="fill" to="#808080" begin="arrowUp.mouseover" end="arrowUp.mouseout"/>
                  </use>
                  <path fill="none" stroke="white" stroke-width="1.5" d="M0,-3.0v7 M-2.5,-0.5L0,-3.0L2.5,-0.5"/>
                </g>
                <g id="arrowRight" xlink:href="#dirArrow" transform="rotate(90) translate(36 -43)" onmousedown="handlePan(1,0)">
                  <use xlink:href="#rim" fill="#404040">
                        <set attributeName="fill" to="#808080" begin="arrowRight.mouseover" end="arrowRight.mouseout"/>
                  </use>
                  <path fill="none" stroke="white" stroke-width="1.5" d="M0,-3.0v7 M-2.5,-0.5L0,-3.0L2.5,-0.5"/>
                </g>
                <g id="arrowDown" xlink:href="#dirArrow" transform="rotate(180) translate(-30 -48)" onmousedown="handlePan(0,1)">
                  <use xlink:href="#rim" fill="#404040">
                        <set attributeName="fill" to="#808080" begin="arrowDown.mouseover" end="arrowDown.mouseout"/>
                  </use>
                  <path fill="none" stroke="white" stroke-width="1.5" d="M0,-3.0v7 M-2.5,-0.5L0,-3.0L2.5,-0.5"/>
                </g>
                <g id="arrowLeft" xlink:href="#dirArrow" transform="rotate(270) translate(-36 17)" onmousedown="handlePan(-1,0)">
                  <use xlink:href="#rim" fill="#404040">
                        <set attributeName="fill" to="#808080" begin="arrowLeft.mouseover" end="arrowLeft.mouseout"/>
                  </use>
                  <path fill="none" stroke="white" stroke-width="1.5" d="M0,-3.0v7 M-2.5,-0.5L0,-3.0L2.5,-0.5"/>
                </g>
        </g>
        <svg viewBox="0 0 15 15" width="100%" height="30px" preserveAspectRatio="xMaxYMin meet">
         <g id="arrow_out" transform="scale(0.3 0.3)">
          <a xlink:href="classIG_1_1Num_1_1NeuralApproximatorBase__coll__graph_org.svg" target="_base">
           <rect id="button" ry="5" rx="5" y="6" x="6" height="38" width="38"
                fill="#f2f5e9" fill-opacity="0.5" stroke="#606060" stroke-width="1.0"/>
           <path id="arrow"
             d="M 11.500037,31.436501 C 11.940474,20.09759 22.043105,11.32322 32.158766,21.979434 L 37.068811,17.246167 C 37.068811,17.246167 37.088388,32 37.088388,32 L 22.160133,31.978069 C 22.160133,31.978069 26.997745,27.140456 26.997745,27.140456 C 18.528582,18.264221 13.291696,25.230495 11.500037,31.436501 z"
             style="fill:#404040;"/>
          </a>
         </g>
        </svg>
</svg>
