<?xml version="1.0" encoding="UTF-8" standalone="no"?>
<!DOCTYPE svg PUBLIC "-//W3C//DTD SVG 1.1//EN"
 "http://www.w3.org/Graphics/SVG/1.1/DTD/svg11.dtd">
<!-- Generated by graphviz version 2.38.0 (20140413.2041)
 -->
<!-- Title: DotNumerics.LinearAlgebra.CSLapack.DLALSA Pages: 1 -->
<svg width="1520pt" height="582pt"
 viewBox="0.00 0.00 1520.00 582.00" xmlns="http://www.w3.org/2000/svg" xmlns:xlink="http://www.w3.org/1999/xlink">
<g id="graph0" class="graph" transform="scale(1 1) rotate(0) translate(4 578)">
<title>DotNumerics.LinearAlgebra.CSLapack.DLALSA</title>
<polygon fill="white" stroke="none" points="-4,4 -4,-578 1516,-578 1516,4 -4,4"/>
<!-- Node1 -->
<g id="node1" class="node"><title>Node1</title>
<g id="a_node1"><a xlink:title="– LAPACK routine (version 3.1) – Univ. of Tennessee, Univ. of California Berkeley and NAG Ltd....">
<polygon fill="#bfbfbf" stroke="black" points="1374,-169.5 1374,-199.5 1512,-199.5 1512,-169.5 1374,-169.5"/>
<text text-anchor="start" x="1382" y="-187.5" font-family="Helvetica,sans-Serif" font-size="10.00">DotNumerics.LinearAlgebra.</text>
<text text-anchor="middle" x="1443" y="-176.5" font-family="Helvetica,sans-Serif" font-size="10.00">CSLapack.DLALSA</text>
</a>
</g>
</g>
<!-- Node2 -->
<g id="node2" class="node"><title>Node2</title>
<g id="a_node2"><a xlink:href="../../d1/d2a/classDotNumerics_1_1LinearAlgebra_1_1CSLapack_1_1DCOPY.html" target="_top" xlink:title=" ">
<polygon fill="white" stroke="black" points="954,-543.5 954,-573.5 1092,-573.5 1092,-543.5 954,-543.5"/>
<text text-anchor="start" x="962" y="-561.5" font-family="Helvetica,sans-Serif" font-size="10.00">DotNumerics.LinearAlgebra.</text>
<text text-anchor="middle" x="1023" y="-550.5" font-family="Helvetica,sans-Serif" font-size="10.00">CSLapack.DCOPY</text>
</a>
</g>
</g>
<!-- Node2&#45;&gt;Node1 -->
<g id="edge1" class="edge"><title>Node2&#45;&gt;Node1</title>
<path fill="none" stroke="#9a32cd" stroke-dasharray="5,2" d="M1102.11,-557.589C1117.53,-555.231 1133.2,-551.185 1147,-544.5 1306.63,-467.199 1409.4,-257.795 1435.45,-199.654"/>
<polygon fill="#9a32cd" stroke="#9a32cd" points="1101.5,-554.139 1092.04,-558.906 1102.41,-561.08 1101.5,-554.139"/>
<text text-anchor="middle" x="1234" y="-537.5" font-family="Helvetica,sans-Serif" font-size="10.00"> _dcopy</text>
</g>
<!-- Node6 -->
<g id="node6" class="node"><title>Node6</title>
<g id="a_node6"><a xlink:href="../../d2/dc2/classDotNumerics_1_1LinearAlgebra_1_1CSLapack_1_1DLALS0.html" target="_top" xlink:title="– LAPACK routine (version 3.1) – Univ. of Tennessee, Univ. of California Berkeley and NAG Ltd....">
<polygon fill="white" stroke="black" points="1165,-348.5 1165,-378.5 1303,-378.5 1303,-348.5 1165,-348.5"/>
<text text-anchor="start" x="1173" y="-366.5" font-family="Helvetica,sans-Serif" font-size="10.00">DotNumerics.LinearAlgebra.</text>
<text text-anchor="middle" x="1234" y="-355.5" font-family="Helvetica,sans-Serif" font-size="10.00">CSLapack.DLALS0</text>
</a>
</g>
</g>
<!-- Node2&#45;&gt;Node6 -->
<g id="edge8" class="edge"><title>Node2&#45;&gt;Node6</title>
<path fill="none" stroke="#9a32cd" stroke-dasharray="5,2" d="M1092.36,-539.928C1111.66,-532.239 1131.58,-521.7 1147,-507.5 1188.12,-469.621 1215.94,-407.56 1227.27,-378.898"/>
<polygon fill="#9a32cd" stroke="#9a32cd" points="1091.07,-536.672 1082.95,-543.478 1093.54,-543.222 1091.07,-536.672"/>
<text text-anchor="middle" x="1128.5" y="-534.5" font-family="Helvetica,sans-Serif" font-size="10.00"> _dcopy</text>
</g>
<!-- Node3 -->
<g id="node3" class="node"><title>Node3</title>
<g id="a_node3"><a xlink:href="../../d7/d20/classDotNumerics_1_1LinearAlgebra_1_1CSLapack_1_1DGEMM.html" target="_top" xlink:title=" ">
<polygon fill="white" stroke="black" points="954,-71.5 954,-101.5 1092,-101.5 1092,-71.5 954,-71.5"/>
<text text-anchor="start" x="962" y="-89.5" font-family="Helvetica,sans-Serif" font-size="10.00">DotNumerics.LinearAlgebra.</text>
<text text-anchor="middle" x="1023" y="-78.5" font-family="Helvetica,sans-Serif" font-size="10.00">CSLapack.DGEMM</text>
</a>
</g>
</g>
<!-- Node3&#45;&gt;Node1 -->
<g id="edge2" class="edge"><title>Node3&#45;&gt;Node1</title>
<path fill="none" stroke="#9a32cd" stroke-dasharray="5,2" d="M1098.34,-103.929C1177.82,-122.563 1302.55,-151.807 1377.87,-169.466"/>
<polygon fill="#9a32cd" stroke="#9a32cd" points="1098.93,-100.473 1088.4,-101.598 1097.33,-107.288 1098.93,-100.473"/>
<text text-anchor="middle" x="1234" y="-155.5" font-family="Helvetica,sans-Serif" font-size="10.00"> _dgemm</text>
</g>
<!-- Node4 -->
<g id="node4" class="node"><title>Node4</title>
<g id="a_node4"><a xlink:href="../../db/d6a/classDotNumerics_1_1LinearAlgebra_1_1CSLapack_1_1XERBLA.html" target="_top" xlink:title="– LAPACK auxiliary routine (version 3.1) – Univ. of Tennessee, Univ. of California Berkeley and NAG L...">
<polygon fill="white" stroke="black" points="642,-190.5 642,-220.5 780,-220.5 780,-190.5 642,-190.5"/>
<text text-anchor="start" x="650" y="-208.5" font-family="Helvetica,sans-Serif" font-size="10.00">DotNumerics.LinearAlgebra.</text>
<text text-anchor="middle" x="711" y="-197.5" font-family="Helvetica,sans-Serif" font-size="10.00">CSLapack.XERBLA</text>
</a>
</g>
</g>
<!-- Node4&#45;&gt;Node1 -->
<g id="edge5" class="edge"><title>Node4&#45;&gt;Node1</title>
<path fill="none" stroke="#9a32cd" stroke-dasharray="5,2" d="M790.088,-203.254C933.82,-199.119 1237.97,-190.369 1373.89,-186.459"/>
<polygon fill="#9a32cd" stroke="#9a32cd" points="789.916,-199.757 780.021,-203.543 790.118,-206.754 789.916,-199.757"/>
<text text-anchor="middle" x="1128.5" y="-197.5" font-family="Helvetica,sans-Serif" font-size="10.00"> _xerbla</text>
</g>
<!-- Node4&#45;&gt;Node3 -->
<g id="edge3" class="edge"><title>Node4&#45;&gt;Node3</title>
<path fill="none" stroke="#9a32cd" stroke-dasharray="5,2" d="M758.316,-185.156C766.514,-179.782 774.254,-173.261 780,-165.5 800.398,-137.949 771.271,-111.963 798,-90.5 821.239,-71.8398 896.927,-74.0874 953.942,-78.8977"/>
<polygon fill="#9a32cd" stroke="#9a32cd" points="756.443,-182.198 749.67,-190.346 760.045,-188.2 756.443,-182.198"/>
<text text-anchor="middle" x="867" y="-93.5" font-family="Helvetica,sans-Serif" font-size="10.00"> _xerbla</text>
</g>
<!-- Node4&#45;&gt;Node6 -->
<g id="edge9" class="edge"><title>Node4&#45;&gt;Node6</title>
<path fill="none" stroke="#9a32cd" stroke-dasharray="5,2" d="M790.228,-215.672C792.849,-215.96 795.445,-216.237 798,-216.5 863.188,-223.215 1031.63,-213.998 1092,-239.5 1149.36,-263.73 1199.61,-320.829 1221.44,-348.263"/>
<polygon fill="#9a32cd" stroke="#9a32cd" points="790.364,-212.165 780.033,-214.515 789.575,-219.121 790.364,-212.165"/>
<text text-anchor="middle" x="1023" y="-242.5" font-family="Helvetica,sans-Serif" font-size="10.00"> _xerbla</text>
</g>
<!-- Node8 -->
<g id="node8" class="node"><title>Node8</title>
<g id="a_node8"><a xlink:href="../../d5/d57/classDotNumerics_1_1LinearAlgebra_1_1CSLapack_1_1DLASCL.html" target="_top" xlink:title="– LAPACK auxiliary routine (version 3.1) – Univ. of Tennessee, Univ. of California Berkeley and NAG L...">
<polygon fill="white" stroke="black" points="954,-125.5 954,-155.5 1092,-155.5 1092,-125.5 954,-125.5"/>
<text text-anchor="start" x="962" y="-143.5" font-family="Helvetica,sans-Serif" font-size="10.00">DotNumerics.LinearAlgebra.</text>
<text text-anchor="middle" x="1023" y="-132.5" font-family="Helvetica,sans-Serif" font-size="10.00">CSLapack.DLASCL</text>
</a>
</g>
</g>
<!-- Node4&#45;&gt;Node8 -->
<g id="edge21" class="edge"><title>Node4&#45;&gt;Node8</title>
<path fill="none" stroke="#9a32cd" stroke-dasharray="5,2" d="M769.647,-187.731C779.074,-185.118 788.774,-182.602 798,-180.5 858.626,-166.687 874.827,-168.641 936,-157.5 941.84,-156.436 947.896,-155.302 953.967,-154.144"/>
<polygon fill="#9a32cd" stroke="#9a32cd" points="768.62,-184.384 759.953,-190.477 770.528,-191.119 768.62,-184.384"/>
<text text-anchor="middle" x="867" y="-183.5" font-family="Helvetica,sans-Serif" font-size="10.00"> _xerbla</text>
</g>
<!-- Node19 -->
<g id="node19" class="node"><title>Node19</title>
<g id="a_node19"><a xlink:href="../../d7/d97/classDotNumerics_1_1LinearAlgebra_1_1CSLapack_1_1DGEMV.html" target="_top" xlink:title=" ">
<polygon fill="white" stroke="black" points="954,-309.5 954,-339.5 1092,-339.5 1092,-309.5 954,-309.5"/>
<text text-anchor="start" x="962" y="-327.5" font-family="Helvetica,sans-Serif" font-size="10.00">DotNumerics.LinearAlgebra.</text>
<text text-anchor="middle" x="1023" y="-316.5" font-family="Helvetica,sans-Serif" font-size="10.00">CSLapack.DGEMV</text>
</a>
</g>
</g>
<!-- Node4&#45;&gt;Node19 -->
<g id="edge30" class="edge"><title>Node4&#45;&gt;Node19</title>
<path fill="none" stroke="#9a32cd" stroke-dasharray="5,2" d="M752.181,-224.832C766.497,-231.422 782.832,-238.608 798,-244.5 858.135,-267.858 876.865,-263.717 936,-289.5 944.389,-293.158 945.68,-295.687 954,-299.5 961.661,-303.011 969.97,-306.396 978.063,-309.482"/>
<polygon fill="#9a32cd" stroke="#9a32cd" points="753.641,-221.65 743.097,-220.606 750.688,-227.997 753.641,-221.65"/>
<text text-anchor="middle" x="867" y="-292.5" font-family="Helvetica,sans-Serif" font-size="10.00"> _xerbla</text>
</g>
<!-- Node5 -->
<g id="node5" class="node"><title>Node5</title>
<g id="a_node5"><a xlink:href="../../dd/dac/classDotNumerics_1_1LinearAlgebra_1_1CSLapack_1_1LSAME.html" target="_top" xlink:title="– LAPACK auxiliary routine (version 3.1) – Univ. of Tennessee, Univ. of California Berkeley and NAG L...">
<polygon fill="white" stroke="black" points="428,-135.5 428,-165.5 566,-165.5 566,-135.5 428,-135.5"/>
<text text-anchor="start" x="436" y="-153.5" font-family="Helvetica,sans-Serif" font-size="10.00">DotNumerics.LinearAlgebra.</text>
<text text-anchor="middle" x="497" y="-142.5" font-family="Helvetica,sans-Serif" font-size="10.00">CSLapack.LSAME</text>
</a>
</g>
</g>
<!-- Node5&#45;&gt;Node3 -->
<g id="edge4" class="edge"><title>Node5&#45;&gt;Node3</title>
<path fill="none" stroke="#9a32cd" stroke-dasharray="5,2" d="M523.396,-128.906C550.659,-107.266 596.249,-75.3729 642,-62.5 753.517,-31.1231 890.433,-53.9528 965.713,-71.4771"/>
<polygon fill="#9a32cd" stroke="#9a32cd" points="521.116,-126.249 515.544,-135.261 525.519,-131.691 521.116,-126.249"/>
<text text-anchor="middle" x="711" y="-65.5" font-family="Helvetica,sans-Serif" font-size="10.00"> _lsame</text>
</g>
<!-- Node5&#45;&gt;Node8 -->
<g id="edge22" class="edge"><title>Node5&#45;&gt;Node8</title>
<path fill="none" stroke="#9a32cd" stroke-dasharray="5,2" d="M576.522,-149.001C679.009,-147.046 856.708,-143.654 953.817,-141.801"/>
<polygon fill="#9a32cd" stroke="#9a32cd" points="576.166,-145.508 566.235,-149.198 576.3,-152.506 576.166,-145.508"/>
<text text-anchor="middle" x="711" y="-151.5" font-family="Helvetica,sans-Serif" font-size="10.00"> _lsame</text>
</g>
<!-- Node9 -->
<g id="node9" class="node"><title>Node9</title>
<g id="a_node9"><a xlink:href="../../d4/dd0/classDotNumerics_1_1LinearAlgebra_1_1CSLapack_1_1DLAMCH.html" target="_top" xlink:title="– LAPACK auxiliary routine (version 3.1) – Univ. of Tennessee, Univ. of California Berkeley and NAG L...">
<polygon fill="white" stroke="black" points="642,-83.5 642,-113.5 780,-113.5 780,-83.5 642,-83.5"/>
<text text-anchor="start" x="650" y="-101.5" font-family="Helvetica,sans-Serif" font-size="10.00">DotNumerics.LinearAlgebra.</text>
<text text-anchor="middle" x="711" y="-90.5" font-family="Helvetica,sans-Serif" font-size="10.00">CSLapack.DLAMCH</text>
</a>
</g>
</g>
<!-- Node5&#45;&gt;Node9 -->
<g id="edge12" class="edge"><title>Node5&#45;&gt;Node9</title>
<path fill="none" stroke="#9a32cd" stroke-dasharray="5,2" d="M557.057,-132.727C566.054,-130.195 575.253,-127.705 584,-125.5 602.656,-120.796 622.997,-116.206 641.785,-112.183"/>
<polygon fill="#9a32cd" stroke="#9a32cd" points="556.061,-129.372 547.404,-135.48 557.98,-136.103 556.061,-129.372"/>
<text text-anchor="middle" x="604" y="-128.5" font-family="Helvetica,sans-Serif" font-size="10.00"> _lsame</text>
</g>
<!-- Node15 -->
<g id="node15" class="node"><title>Node15</title>
<g id="a_node15"><a xlink:href="../../d1/dda/classDotNumerics_1_1LinearAlgebra_1_1CSLapack_1_1DLACPY.html" target="_top" xlink:title="– LAPACK auxiliary routine (version 3.1) – Univ. of Tennessee, Univ. of California Berkeley and NAG L...">
<polygon fill="white" stroke="black" points="798,-346.5 798,-376.5 936,-376.5 936,-346.5 798,-346.5"/>
<text text-anchor="start" x="806" y="-364.5" font-family="Helvetica,sans-Serif" font-size="10.00">DotNumerics.LinearAlgebra.</text>
<text text-anchor="middle" x="867" y="-353.5" font-family="Helvetica,sans-Serif" font-size="10.00">CSLapack.DLACPY</text>
</a>
</g>
</g>
<!-- Node5&#45;&gt;Node15 -->
<g id="edge24" class="edge"><title>Node5&#45;&gt;Node15</title>
<path fill="none" stroke="#9a32cd" stroke-dasharray="5,2" d="M502.235,-175.461C510.387,-215.09 532.263,-291.673 584,-328.5 646.144,-372.735 736.203,-375.549 797.72,-370.856"/>
<polygon fill="#9a32cd" stroke="#9a32cd" points="505.654,-174.71 500.326,-165.552 498.781,-176.034 505.654,-174.71"/>
<text text-anchor="middle" x="604" y="-352.5" font-family="Helvetica,sans-Serif" font-size="10.00"> _lsame</text>
</g>
<!-- Node5&#45;&gt;Node19 -->
<g id="edge31" class="edge"><title>Node5&#45;&gt;Node19</title>
<path fill="none" stroke="#9a32cd" stroke-dasharray="5,2" d="M532.861,-170.579C561.786,-187.008 604.157,-210.541 642,-229.5 710.107,-263.621 724.521,-280.407 798,-300.5 849.119,-314.478 908.879,-320.383 953.811,-322.845"/>
<polygon fill="#9a32cd" stroke="#9a32cd" points="534.386,-167.42 523.965,-165.51 530.92,-173.502 534.386,-167.42"/>
<text text-anchor="middle" x="711" y="-298.5" font-family="Helvetica,sans-Serif" font-size="10.00"> _lsame</text>
</g>
<!-- Node6&#45;&gt;Node1 -->
<g id="edge6" class="edge"><title>Node6&#45;&gt;Node1</title>
<path fill="none" stroke="#9a32cd" stroke-dasharray="5,2" d="M1260.33,-341.599C1302.89,-304.795 1387.69,-231.46 1424.4,-199.723"/>
<polygon fill="#9a32cd" stroke="#9a32cd" points="1257.92,-339.05 1252.65,-348.239 1262.5,-344.345 1257.92,-339.05"/>
<text text-anchor="middle" x="1338.5" y="-288.5" font-family="Helvetica,sans-Serif" font-size="10.00"> _dlals0</text>
</g>
<!-- Node7 -->
<g id="node7" class="node"><title>Node7</title>
<g id="a_node7"><a xlink:href="../../d1/d76/classDotNumerics_1_1LinearAlgebra_1_1CSLapack_1_1DSCAL.html" target="_top" xlink:title=" ">
<polygon fill="white" stroke="black" points="954,-260.5 954,-290.5 1092,-290.5 1092,-260.5 954,-260.5"/>
<text text-anchor="start" x="962" y="-278.5" font-family="Helvetica,sans-Serif" font-size="10.00">DotNumerics.LinearAlgebra.</text>
<text text-anchor="middle" x="1023" y="-267.5" font-family="Helvetica,sans-Serif" font-size="10.00">CSLapack.DSCAL</text>
</a>
</g>
</g>
<!-- Node7&#45;&gt;Node6 -->
<g id="edge7" class="edge"><title>Node7&#45;&gt;Node6</title>
<path fill="none" stroke="#9a32cd" stroke-dasharray="5,2" d="M1078.13,-294.124C1082.84,-295.89 1087.52,-297.696 1092,-299.5 1130.4,-314.959 1173.63,-334.979 1201.98,-348.479"/>
<polygon fill="#9a32cd" stroke="#9a32cd" points="1079.06,-290.737 1068.47,-290.569 1076.64,-297.307 1079.06,-290.737"/>
<text text-anchor="middle" x="1128.5" y="-326.5" font-family="Helvetica,sans-Serif" font-size="10.00"> _dscal</text>
</g>
<!-- Node8&#45;&gt;Node6 -->
<g id="edge10" class="edge"><title>Node8&#45;&gt;Node6</title>
<path fill="none" stroke="#9a32cd" stroke-dasharray="5,2" d="M1102.17,-134.877C1118.19,-137.033 1134.09,-141.939 1147,-151.5 1212.92,-200.304 1228.45,-308.315 1231.99,-348.261"/>
<polygon fill="#9a32cd" stroke="#9a32cd" points="1102.5,-131.393 1092.2,-133.872 1101.8,-138.357 1102.5,-131.393"/>
<text text-anchor="middle" x="1128.5" y="-154.5" font-family="Helvetica,sans-Serif" font-size="10.00"> _dlascl</text>
</g>
<!-- Node9&#45;&gt;Node8 -->
<g id="edge11" class="edge"><title>Node9&#45;&gt;Node8</title>
<path fill="none" stroke="#9a32cd" stroke-dasharray="5,2" d="M790.539,-104.337C833.641,-108.098 887.943,-113.751 936,-121.5 943.095,-122.644 950.483,-124.009 957.819,-125.474"/>
<polygon fill="#9a32cd" stroke="#9a32cd" points="790.659,-100.834 780.397,-103.468 790.062,-107.809 790.659,-100.834"/>
<text text-anchor="middle" x="867" y="-124.5" font-family="Helvetica,sans-Serif" font-size="10.00"> _dlamch</text>
</g>
<!-- Node10 -->
<g id="node10" class="node"><title>Node10</title>
<g id="a_node10"><a xlink:href="../../dc/ddd/classDotNumerics_1_1LinearAlgebra_1_1CSLapack_1_1DLAMC2.html" target="_top" xlink:title="– LAPACK auxiliary routine (version 3.1) – Univ. of Tennessee, Univ. of California Berkeley and NAG L...">
<polygon fill="white" stroke="black" points="428,-49.5 428,-79.5 566,-79.5 566,-49.5 428,-49.5"/>
<text text-anchor="start" x="436" y="-67.5" font-family="Helvetica,sans-Serif" font-size="10.00">DotNumerics.LinearAlgebra.</text>
<text text-anchor="middle" x="497" y="-56.5" font-family="Helvetica,sans-Serif" font-size="10.00">CSLapack.DLAMC2</text>
</a>
</g>
</g>
<!-- Node10&#45;&gt;Node9 -->
<g id="edge13" class="edge"><title>Node10&#45;&gt;Node9</title>
<path fill="none" stroke="#9a32cd" stroke-dasharray="5,2" d="M576.473,-71.7709C592.258,-73.6402 608.696,-75.8796 624,-78.5 632.159,-79.897 640.702,-81.5945 649.105,-83.4036"/>
<polygon fill="#9a32cd" stroke="#9a32cd" points="576.547,-68.2565 566.213,-70.5956 575.75,-75.211 576.547,-68.2565"/>
<text text-anchor="middle" x="604" y="-81.5" font-family="Helvetica,sans-Serif" font-size="10.00"> _dlamc2</text>
</g>
<!-- Node11 -->
<g id="node11" class="node"><title>Node11</title>
<g id="a_node11"><a xlink:href="../../d5/db1/classDotNumerics_1_1LinearAlgebra_1_1CSLapack_1_1DLAMC1.html" target="_top" xlink:title="– LAPACK auxiliary routine (version 3.1) – Univ. of Tennessee, Univ. of California Berkeley and NAG L...">
<polygon fill="white" stroke="black" points="214,-146.5 214,-176.5 352,-176.5 352,-146.5 214,-146.5"/>
<text text-anchor="start" x="222" y="-164.5" font-family="Helvetica,sans-Serif" font-size="10.00">DotNumerics.LinearAlgebra.</text>
<text text-anchor="middle" x="283" y="-153.5" font-family="Helvetica,sans-Serif" font-size="10.00">CSLapack.DLAMC1</text>
</a>
</g>
</g>
<!-- Node11&#45;&gt;Node10 -->
<g id="edge14" class="edge"><title>Node11&#45;&gt;Node10</title>
<path fill="none" stroke="#9a32cd" stroke-dasharray="5,2" d="M362.191,-147.594C378.431,-143.247 395.119,-137.65 410,-130.5 437.312,-117.377 464.286,-94.6559 480.544,-79.5996"/>
<polygon fill="#9a32cd" stroke="#9a32cd" points="360.988,-144.288 352.157,-150.142 362.711,-151.073 360.988,-144.288"/>
<text text-anchor="middle" x="390" y="-148.5" font-family="Helvetica,sans-Serif" font-size="10.00"> _dlamc1</text>
</g>
<!-- Node12 -->
<g id="node12" class="node"><title>Node12</title>
<g id="a_node12"><a xlink:href="../../db/dbb/classDotNumerics_1_1LinearAlgebra_1_1CSLapack_1_1DLAMC3.html" target="_top" xlink:title="– LAPACK auxiliary routine (version 3.1) – Univ. of Tennessee, Univ. of California Berkeley and NAG L...">
<polygon fill="white" stroke="black" points="0,-101.5 0,-131.5 138,-131.5 138,-101.5 0,-101.5"/>
<text text-anchor="start" x="8" y="-119.5" font-family="Helvetica,sans-Serif" font-size="10.00">DotNumerics.LinearAlgebra.</text>
<text text-anchor="middle" x="69" y="-108.5" font-family="Helvetica,sans-Serif" font-size="10.00">CSLapack.DLAMC3</text>
</a>
</g>
</g>
<!-- Node12&#45;&gt;Node6 -->
<g id="edge27" class="edge"><title>Node12&#45;&gt;Node6</title>
<path fill="none" stroke="#9a32cd" stroke-dasharray="5,2" d="M73.0805,-142.208C84.3099,-222.851 130.672,-465.5 282,-465.5 282,-465.5 282,-465.5 1024,-465.5 1083.01,-465.5 1095.84,-444.903 1147,-415.5 1168.03,-403.416 1191.57,-389.124 1208.71,-378.585"/>
<polygon fill="#9a32cd" stroke="#9a32cd" points="76.5042,-141.4 71.7218,-131.946 69.5647,-142.319 76.5042,-141.4"/>
<text text-anchor="middle" x="604" y="-468.5" font-family="Helvetica,sans-Serif" font-size="10.00"> _dlamc3</text>
</g>
<!-- Node12&#45;&gt;Node10 -->
<g id="edge16" class="edge"><title>Node12&#45;&gt;Node10</title>
<path fill="none" stroke="#9a32cd" stroke-dasharray="5,2" d="M148.178,-109.9C204.852,-104.832 283.283,-97.2363 352,-88.5 377.878,-85.21 384.261,-83.7413 410,-79.5 415.832,-78.539 421.883,-77.5226 427.951,-76.4901"/>
<polygon fill="#9a32cd" stroke="#9a32cd" points="147.863,-106.414 138.212,-110.785 148.482,-113.387 147.863,-106.414"/>
<text text-anchor="middle" x="283" y="-107.5" font-family="Helvetica,sans-Serif" font-size="10.00"> _dlamc3</text>
</g>
<!-- Node12&#45;&gt;Node11 -->
<g id="edge15" class="edge"><title>Node12&#45;&gt;Node11</title>
<path fill="none" stroke="#9a32cd" stroke-dasharray="5,2" d="M148.036,-133.064C169.634,-137.649 192.899,-142.587 213.883,-147.041"/>
<polygon fill="#9a32cd" stroke="#9a32cd" points="148.754,-129.639 138.245,-130.986 147.3,-136.486 148.754,-129.639"/>
<text text-anchor="middle" x="176" y="-146.5" font-family="Helvetica,sans-Serif" font-size="10.00"> _dlamc3</text>
</g>
<!-- Node13 -->
<g id="node13" class="node"><title>Node13</title>
<g id="a_node13"><a xlink:href="../../de/dd1/classDotNumerics_1_1LinearAlgebra_1_1CSLapack_1_1DLAMC4.html" target="_top" xlink:title="– LAPACK auxiliary routine (version 3.1) – Univ. of Tennessee, Univ. of California Berkeley and NAG L...">
<polygon fill="white" stroke="black" points="214,-49.5 214,-79.5 352,-79.5 352,-49.5 214,-49.5"/>
<text text-anchor="start" x="222" y="-67.5" font-family="Helvetica,sans-Serif" font-size="10.00">DotNumerics.LinearAlgebra.</text>
<text text-anchor="middle" x="283" y="-56.5" font-family="Helvetica,sans-Serif" font-size="10.00">CSLapack.DLAMC4</text>
</a>
</g>
</g>
<!-- Node12&#45;&gt;Node13 -->
<g id="edge18" class="edge"><title>Node12&#45;&gt;Node13</title>
<path fill="none" stroke="#9a32cd" stroke-dasharray="5,2" d="M129.057,-98.7273C138.054,-96.1953 147.253,-93.7055 156,-91.5 174.656,-86.7961 194.997,-82.2055 213.785,-78.183"/>
<polygon fill="#9a32cd" stroke="#9a32cd" points="128.061,-95.3717 119.404,-101.48 129.98,-102.103 128.061,-95.3717"/>
<text text-anchor="middle" x="176" y="-94.5" font-family="Helvetica,sans-Serif" font-size="10.00"> _dlamc3</text>
</g>
<!-- Node14 -->
<g id="node14" class="node"><title>Node14</title>
<g id="a_node14"><a xlink:href="../../d7/d30/classDotNumerics_1_1LinearAlgebra_1_1CSLapack_1_1DLAMC5.html" target="_top" xlink:title="– LAPACK auxiliary routine (version 3.1) – Univ. of Tennessee, Univ. of California Berkeley and NAG L...">
<polygon fill="white" stroke="black" points="214,-0.5 214,-30.5 352,-30.5 352,-0.5 214,-0.5"/>
<text text-anchor="start" x="222" y="-18.5" font-family="Helvetica,sans-Serif" font-size="10.00">DotNumerics.LinearAlgebra.</text>
<text text-anchor="middle" x="283" y="-7.5" font-family="Helvetica,sans-Serif" font-size="10.00">CSLapack.DLAMC5</text>
</a>
</g>
</g>
<!-- Node12&#45;&gt;Node14 -->
<g id="edge20" class="edge"><title>Node12&#45;&gt;Node14</title>
<path fill="none" stroke="#9a32cd" stroke-dasharray="5,2" d="M103.608,-96.3047C132.266,-79.6308 174.912,-56.094 214,-39.5 221.26,-36.4179 229.065,-33.3993 236.707,-30.5996"/>
<polygon fill="#9a32cd" stroke="#9a32cd" points="101.673,-93.3819 94.8174,-101.46 105.214,-99.4203 101.673,-93.3819"/>
<text text-anchor="middle" x="176" y="-70.5" font-family="Helvetica,sans-Serif" font-size="10.00"> _dlamc3</text>
</g>
<!-- Node13&#45;&gt;Node10 -->
<g id="edge17" class="edge"><title>Node13&#45;&gt;Node10</title>
<path fill="none" stroke="#9a32cd" stroke-dasharray="5,2" d="M362.328,-64.5C383.843,-64.5 406.993,-64.5 427.883,-64.5"/>
<polygon fill="#9a32cd" stroke="#9a32cd" points="362.245,-61.0001 352.245,-64.5 362.245,-68.0001 362.245,-61.0001"/>
<text text-anchor="middle" x="390" y="-67.5" font-family="Helvetica,sans-Serif" font-size="10.00"> _dlamc4</text>
</g>
<!-- Node14&#45;&gt;Node10 -->
<g id="edge19" class="edge"><title>Node14&#45;&gt;Node10</title>
<path fill="none" stroke="#9a32cd" stroke-dasharray="5,2" d="M358.983,-32.8309C382.52,-38.2712 408.295,-44.2285 431.075,-49.4938"/>
<polygon fill="#9a32cd" stroke="#9a32cd" points="359.579,-29.3765 349.048,-30.5346 358.003,-36.1967 359.579,-29.3765"/>
<text text-anchor="middle" x="390" y="-47.5" font-family="Helvetica,sans-Serif" font-size="10.00"> _dlamc5</text>
</g>
<!-- Node15&#45;&gt;Node6 -->
<g id="edge23" class="edge"><title>Node15&#45;&gt;Node6</title>
<path fill="none" stroke="#9a32cd" stroke-dasharray="5,2" d="M946.419,-361.93C1011.4,-362.286 1102.82,-362.787 1164.8,-363.126"/>
<polygon fill="#9a32cd" stroke="#9a32cd" points="946.245,-358.429 936.226,-361.874 946.206,-365.429 946.245,-358.429"/>
<text text-anchor="middle" x="1023" y="-366.5" font-family="Helvetica,sans-Serif" font-size="10.00"> _dlacpy</text>
</g>
<!-- Node16 -->
<g id="node16" class="node"><title>Node16</title>
<g id="a_node16"><a xlink:href="../../d3/df8/classDotNumerics_1_1LinearAlgebra_1_1CSLapack_1_1DNRM2.html" target="_top" xlink:title=" ">
<polygon fill="white" stroke="black" points="954,-494.5 954,-524.5 1092,-524.5 1092,-494.5 954,-494.5"/>
<text text-anchor="start" x="962" y="-512.5" font-family="Helvetica,sans-Serif" font-size="10.00">DotNumerics.LinearAlgebra.</text>
<text text-anchor="middle" x="1023" y="-501.5" font-family="Helvetica,sans-Serif" font-size="10.00">CSLapack.DNRM2</text>
</a>
</g>
</g>
<!-- Node16&#45;&gt;Node6 -->
<g id="edge25" class="edge"><title>Node16&#45;&gt;Node6</title>
<path fill="none" stroke="#9a32cd" stroke-dasharray="5,2" d="M1101.97,-496.866C1117.71,-492.096 1133.55,-485.531 1147,-476.5 1184.87,-451.08 1212.92,-403.388 1225.56,-378.889"/>
<polygon fill="#9a32cd" stroke="#9a32cd" points="1100.88,-493.537 1092.2,-499.611 1102.77,-500.276 1100.88,-493.537"/>
<text text-anchor="middle" x="1128.5" y="-495.5" font-family="Helvetica,sans-Serif" font-size="10.00"> _dnrm2</text>
</g>
<!-- Node17 -->
<g id="node17" class="node"><title>Node17</title>
<g id="a_node17"><a xlink:href="../../d2/dbc/interfaceDotNumerics_1_1LinearAlgebra_1_1CSLapack_1_1IDNRM2.html" target="_top" xlink:title=" ">
<polygon fill="white" stroke="black" points="684.5,-500 684.5,-519 737.5,-519 737.5,-500 684.5,-500"/>
<text text-anchor="middle" x="711" y="-507" font-family="Helvetica,sans-Serif" font-size="10.00">IDNRM2</text>
</a>
</g>
</g>
<!-- Node17&#45;&gt;Node16 -->
<g id="edge26" class="edge"><title>Node17&#45;&gt;Node16</title>
<path fill="none" stroke="midnightblue" d="M747.673,-509.5C797.849,-509.5 890.234,-509.5 953.83,-509.5"/>
<polygon fill="midnightblue" stroke="midnightblue" points="747.632,-506 737.632,-509.5 747.632,-513 747.632,-506"/>
</g>
<!-- Node18 -->
<g id="node18" class="node"><title>Node18</title>
<g id="a_node18"><a xlink:href="../../de/d74/classDotNumerics_1_1LinearAlgebra_1_1CSLapack_1_1DROT.html" target="_top" xlink:title=" ">
<polygon fill="white" stroke="black" points="954,-406.5 954,-436.5 1092,-436.5 1092,-406.5 954,-406.5"/>
<text text-anchor="start" x="962" y="-424.5" font-family="Helvetica,sans-Serif" font-size="10.00">DotNumerics.LinearAlgebra.</text>
<text text-anchor="middle" x="1023" y="-413.5" font-family="Helvetica,sans-Serif" font-size="10.00">CSLapack.DROT</text>
</a>
</g>
</g>
<!-- Node18&#45;&gt;Node6 -->
<g id="edge28" class="edge"><title>Node18&#45;&gt;Node6</title>
<path fill="none" stroke="#9a32cd" stroke-dasharray="5,2" d="M1096.17,-404.047C1112.91,-399.795 1130.61,-395.133 1147,-390.5 1159.95,-386.838 1173.91,-382.59 1186.73,-378.562"/>
<polygon fill="#9a32cd" stroke="#9a32cd" points="1095.28,-400.66 1086.44,-406.499 1096.99,-407.448 1095.28,-400.66"/>
<text text-anchor="middle" x="1128.5" y="-403.5" font-family="Helvetica,sans-Serif" font-size="10.00"> _drot</text>
</g>
<!-- Node19&#45;&gt;Node6 -->
<g id="edge29" class="edge"><title>Node19&#45;&gt;Node6</title>
<path fill="none" stroke="#9a32cd" stroke-dasharray="5,2" d="M1102.14,-339.082C1122.78,-342.933 1144.89,-347.058 1164.95,-350.801"/>
<polygon fill="#9a32cd" stroke="#9a32cd" points="1102.62,-335.61 1092.15,-337.216 1101.33,-342.491 1102.62,-335.61"/>
<text text-anchor="middle" x="1128.5" y="-349.5" font-family="Helvetica,sans-Serif" font-size="10.00"> _dgemv</text>
</g>
<!-- Node20 -->
<g id="node20" class="node"><title>Node20</title>
<g id="a_node20"><a xlink:href="../../d6/dec/classDotNumerics_1_1LinearAlgebra_1_1CSLapack_1_1DLASDT.html" target="_top" xlink:title="– LAPACK auxiliary routine (version 3.1) – Univ. of Tennessee, Univ. of California Berkeley and NAG L...">
<polygon fill="white" stroke="black" points="1165,-50.5 1165,-80.5 1303,-80.5 1303,-50.5 1165,-50.5"/>
<text text-anchor="start" x="1173" y="-68.5" font-family="Helvetica,sans-Serif" font-size="10.00">DotNumerics.LinearAlgebra.</text>
<text text-anchor="middle" x="1234" y="-57.5" font-family="Helvetica,sans-Serif" font-size="10.00">CSLapack.DLASDT</text>
</a>
</g>
</g>
<!-- Node20&#45;&gt;Node1 -->
<g id="edge32" class="edge"><title>Node20&#45;&gt;Node1</title>
<path fill="none" stroke="#9a32cd" stroke-dasharray="5,2" d="M1313.01,-75.6832C1327.89,-79.5946 1342.89,-85.0081 1356,-92.5 1389.79,-111.814 1418.17,-148.748 1432.32,-169.461"/>
<polygon fill="#9a32cd" stroke="#9a32cd" points="1313.81,-72.2764 1303.26,-73.3229 1312.16,-79.0795 1313.81,-72.2764"/>
<text text-anchor="middle" x="1338.5" y="-95.5" font-family="Helvetica,sans-Serif" font-size="10.00"> _dlasdt</text>
</g>
</g>
</svg>
