<?xml version="1.0" encoding="UTF-8" standalone="no"?>
<!DOCTYPE svg PUBLIC "-//W3C//DTD SVG 1.1//EN"
 "http://www.w3.org/Graphics/SVG/1.1/DTD/svg11.dtd">
<!-- Generated by graphviz version 2.38.0 (20140413.2041)
 -->
<!-- Title: NUnit.Framework.Constraints.EqualityComparerTests Pages: 1 -->
<!--zoomable 154 -->
<svg id="main" version="1.1" xmlns="http://www.w3.org/2000/svg" xmlns:xlink="http://www.w3.org/1999/xlink" xml:space="preserve" onload="init(evt)">
<style type="text/css"><![CDATA[
.edge:hover path { stroke: red; }
.edge:hover polygon { stroke: red; fill: red; }
]]></style>
<script type="text/javascript"><![CDATA[
var edges = document.getElementsByTagName('g');
if (edges && edges.length) {
  for (var i=0;i<edges.length;i++) {
    if (edges[i].id.substr(0,4)=='edge') {
      edges[i].setAttribute('class','edge');
    }
  }
}
]]></script>
        <defs>
                <circle id="rim" cx="0" cy="0" r="7"/>
                <circle id="rim2" cx="0" cy="0" r="3.5"/>
                <g id="zoomPlus">
                        <use xlink:href="#rim" fill="#404040">
                                <set attributeName="fill" to="#808080" begin="zoomplus.mouseover" end="zoomplus.mouseout"/>
                        </use>
                        <path d="M-4,0h8M0,-4v8" fill="none" stroke="white" stroke-width="1.5" pointer-events="none"/>
                </g>
                <g id="zoomMin">
                        <use xlink:href="#rim" fill="#404040">
                                <set attributeName="fill" to="#808080" begin="zoomminus.mouseover" end="zoomminus.mouseout"/>
                        </use>
                        <path d="M-4,0h8" fill="none" stroke="white" stroke-width="1.5" pointer-events="none"/>
                </g>
                <g id="dirArrow">
                        <path fill="none" stroke="white" stroke-width="1.5" d="M0,-3.0v7 M-2.5,-0.5L0,-3.0L2.5,-0.5"/>
                </g>
               <g id="resetDef">
                       <use xlink:href="#rim2" fill="#404040">
                               <set attributeName="fill" to="#808080" begin="reset.mouseover" end="reset.mouseout"/>
                       </use>
               </g>
        </defs>

<script type="text/javascript">
var viewWidth = 685;
var viewHeight = 154;
var sectionId = 'dynsection-0';
</script>
<script xlink:href="../../svgpan.js"/>
<svg id="graph" class="graph">
<g id="viewport">
<title>NUnit.Framework.Constraints.EqualityComparerTests</title>
<polygon fill="white" stroke="none" points="-4,4 -4,-149.5 681,-149.5 681,4 -4,4"/>
<!-- Node1 -->
<g id="node1" class="node"><title>Node1</title>
<g id="a_node1"><a xlink:title=" ">
<polygon fill="#bfbfbf" stroke="black" points="530,-20.5 530,-50.5 677,-50.5 677,-20.5 530,-20.5"/>
<text text-anchor="start" x="538" y="-38.5" font-family="Helvetica,sans-Serif" font-size="10.00">NUnit.Framework.Constraints.</text>
<text text-anchor="middle" x="603.5" y="-27.5" font-family="Helvetica,sans-Serif" font-size="10.00">EqualityComparerTests</text>
</a>
</g>
</g>
<!-- Node2 -->
<g id="node2" class="node"><title>Node2</title>
<g id="a_node2"><a xlink:href="../../d9/d74/classNUnit_1_1Framework_1_1Constraints_1_1NUnitEqualityComparer.html" target="_top" xlink:title="NUnitEqualityComparer encapsulates NUnit&#39;s handling of equality tests between objects.">
<polygon fill="white" stroke="black" points="303,-49.5 303,-79.5 450,-79.5 450,-49.5 303,-49.5"/>
<text text-anchor="start" x="311" y="-67.5" font-family="Helvetica,sans-Serif" font-size="10.00">NUnit.Framework.Constraints.</text>
<text text-anchor="middle" x="376.5" y="-56.5" font-family="Helvetica,sans-Serif" font-size="10.00">NUnitEqualityComparer</text>
</a>
</g>
</g>
<!-- Node2&#45;&gt;Node1 -->
<g id="edge1" class="edge"><title>Node2&#45;&gt;Node1</title>
<path fill="none" stroke="#9a32cd" stroke-dasharray="5,2" d="M460.213,-53.8392C482.966,-50.9066 507.471,-47.7482 529.625,-44.8928"/>
<polygon fill="#9a32cd" stroke="#9a32cd" points="459.711,-50.3749 450.24,-55.1246 460.606,-57.3175 459.711,-50.3749"/>
<text text-anchor="middle" x="490" y="-55.5" font-family="Helvetica,sans-Serif" font-size="10.00"> comparer</text>
</g>
<!-- Node3 -->
<g id="node3" class="node"><title>Node3</title>
<g id="a_node3"><a xlink:href="../../d7/d49/classNUnit_1_1Framework_1_1List.html" target="_top" xlink:title=" ">
<polygon fill="white" stroke="black" points="0,-104 0,-145 182,-145 182,-104 0,-104"/>
<text text-anchor="start" x="8" y="-133" font-family="Helvetica,sans-Serif" font-size="10.00">NUnit.Framework.List</text>
<text text-anchor="start" x="8" y="-122" font-family="Helvetica,sans-Serif" font-size="10.00">&lt; NUnit.Framework.Constraints.</text>
<text text-anchor="middle" x="91" y="-111" font-family="Helvetica,sans-Serif" font-size="10.00">NUnitEqualityComparer.FailurePoint &gt;</text>
</a>
</g>
</g>
<!-- Node3&#45;&gt;Node2 -->
<g id="edge2" class="edge"><title>Node3&#45;&gt;Node2</title>
<path fill="none" stroke="#9a32cd" stroke-dasharray="5,2" d="M191.944,-103.348C229.104,-95.4833 270.474,-86.7278 304.518,-79.5226"/>
<polygon fill="#9a32cd" stroke="#9a32cd" points="191.149,-99.9384 182.091,-105.433 192.599,-106.787 191.149,-99.9384"/>
<text text-anchor="middle" x="242.5" y="-104.5" font-family="Helvetica,sans-Serif" font-size="10.00"> failurePoints</text>
</g>
<!-- Node4 -->
<g id="node4" class="node"><title>Node4</title>
<g id="a_node4"><a xlink:href="../../d7/d49/classNUnit_1_1Framework_1_1List.html" target="_top" xlink:title=" ">
<polygon fill="white" stroke="black" points="13,-44 13,-85 169,-85 169,-44 13,-44"/>
<text text-anchor="start" x="21" y="-73" font-family="Helvetica,sans-Serif" font-size="10.00">NUnit.Framework.List</text>
<text text-anchor="start" x="21" y="-62" font-family="Helvetica,sans-Serif" font-size="10.00">&lt; NUnit.Framework.Constraints.</text>
<text text-anchor="middle" x="91" y="-51" font-family="Helvetica,sans-Serif" font-size="10.00">EqualityAdapter &gt;</text>
</a>
</g>
</g>
<!-- Node4&#45;&gt;Node2 -->
<g id="edge3" class="edge"><title>Node4&#45;&gt;Node2</title>
<path fill="none" stroke="#9a32cd" stroke-dasharray="5,2" d="M179.27,-64.5C218.863,-64.5 265.143,-64.5 302.812,-64.5"/>
<polygon fill="#9a32cd" stroke="#9a32cd" points="179.093,-61.0001 169.093,-64.5 179.093,-68.0001 179.093,-61.0001"/>
<text text-anchor="middle" x="242.5" y="-67.5" font-family="Helvetica,sans-Serif" font-size="10.00"> externalComparers</text>
</g>
<!-- Node5 -->
<g id="node5" class="node"><title>Node5</title>
<g id="a_node5"><a xlink:title=" ">
<polygon fill="white" stroke="#bfbfbf" points="70.5,-6 70.5,-25 111.5,-25 111.5,-6 70.5,-6"/>
<text text-anchor="middle" x="91" y="-13" font-family="Helvetica,sans-Serif" font-size="10.00">static</text>
</a>
</g>
</g>
<!-- Node5&#45;&gt;Node2 -->
<g id="edge4" class="edge"><title>Node5&#45;&gt;Node2</title>
<path fill="none" stroke="#9a32cd" stroke-dasharray="5,2" d="M121.943,-20.6753C164.568,-28.0427 244.072,-41.784 302.733,-51.9229"/>
<polygon fill="#9a32cd" stroke="#9a32cd" points="122.385,-17.1999 111.935,-18.9456 121.193,-24.0977 122.385,-17.1999"/>
<text text-anchor="middle" x="242.5" y="-51.5" font-family="Helvetica,sans-Serif" font-size="10.00"> BUFFER_SIZE</text>
</g>
<!-- Node6 -->
<g id="node6" class="node"><title>Node6</title>
<g id="a_node6"><a xlink:href="../../d3/dec/classNUnit_1_1Framework_1_1Constraints_1_1Tolerance.html" target="_top" xlink:title="The Tolerance class generalizes the notion of a tolerance within which an equality test succeeds....">
<polygon fill="white" stroke="black" points="303,-0.5 303,-30.5 450,-30.5 450,-0.5 303,-0.5"/>
<text text-anchor="start" x="311" y="-18.5" font-family="Helvetica,sans-Serif" font-size="10.00">NUnit.Framework.Constraints.</text>
<text text-anchor="middle" x="376.5" y="-7.5" font-family="Helvetica,sans-Serif" font-size="10.00">Tolerance</text>
</a>
</g>
</g>
<!-- Node6&#45;&gt;Node1 -->
<g id="edge5" class="edge"><title>Node6&#45;&gt;Node1</title>
<path fill="none" stroke="#9a32cd" stroke-dasharray="5,2" d="M460.162,-19.4704C477.315,-20.5598 495.26,-21.8945 512,-23.5 517.837,-24.0599 523.878,-24.7086 529.941,-25.4088"/>
<polygon fill="#9a32cd" stroke="#9a32cd" points="460.365,-15.9764 450.17,-18.8572 459.936,-22.9633 460.365,-15.9764"/>
<text text-anchor="middle" x="490" y="-26.5" font-family="Helvetica,sans-Serif" font-size="10.00"> tolerance</text>
</g>
</g>
</svg>
        <g id="navigator" transform="translate(0 0)" fill="#404254">
                <rect fill="#f2f5e9" fill-opacity="0.5" stroke="#606060" stroke-width=".5" x="0" y="0" width="60" height="60"/>
                <use id="zoomplus" xlink:href="#zoomPlus" x="17" y="9" onmousedown="handleZoom(evt,'in')"/>
                <use id="zoomminus" xlink:href="#zoomMin" x="42" y="9" onmousedown="handleZoom(evt,'out')"/>
                <use id="reset" xlink:href="#resetDef" x="30" y="36" onmousedown="handleReset()"/>
                <g id="arrowUp" xlink:href="#dirArrow" transform="translate(30 24)" onmousedown="handlePan(0,-1)">
                  <use xlink:href="#rim" fill="#404040">
                        <set attributeName="fill" to="#808080" begin="arrowUp.mouseover" end="arrowUp.mouseout"/>
                  </use>
                  <path fill="none" stroke="white" stroke-width="1.5" d="M0,-3.0v7 M-2.5,-0.5L0,-3.0L2.5,-0.5"/>
                </g>
                <g id="arrowRight" xlink:href="#dirArrow" transform="rotate(90) translate(36 -43)" onmousedown="handlePan(1,0)">
                  <use xlink:href="#rim" fill="#404040">
                        <set attributeName="fill" to="#808080" begin="arrowRight.mouseover" end="arrowRight.mouseout"/>
                  </use>
                  <path fill="none" stroke="white" stroke-width="1.5" d="M0,-3.0v7 M-2.5,-0.5L0,-3.0L2.5,-0.5"/>
                </g>
                <g id="arrowDown" xlink:href="#dirArrow" transform="rotate(180) translate(-30 -48)" onmousedown="handlePan(0,1)">
                  <use xlink:href="#rim" fill="#404040">
                        <set attributeName="fill" to="#808080" begin="arrowDown.mouseover" end="arrowDown.mouseout"/>
                  </use>
                  <path fill="none" stroke="white" stroke-width="1.5" d="M0,-3.0v7 M-2.5,-0.5L0,-3.0L2.5,-0.5"/>
                </g>
                <g id="arrowLeft" xlink:href="#dirArrow" transform="rotate(270) translate(-36 17)" onmousedown="handlePan(-1,0)">
                  <use xlink:href="#rim" fill="#404040">
                        <set attributeName="fill" to="#808080" begin="arrowLeft.mouseover" end="arrowLeft.mouseout"/>
                  </use>
                  <path fill="none" stroke="white" stroke-width="1.5" d="M0,-3.0v7 M-2.5,-0.5L0,-3.0L2.5,-0.5"/>
                </g>
        </g>
        <svg viewBox="0 0 15 15" width="100%" height="30px" preserveAspectRatio="xMaxYMin meet">
         <g id="arrow_out" transform="scale(0.3 0.3)">
          <a xlink:href="classNUnit_1_1Framework_1_1Constraints_1_1EqualityComparerTests__coll__graph_org.svg" target="_base">
           <rect id="button" ry="5" rx="5" y="6" x="6" height="38" width="38"
                fill="#f2f5e9" fill-opacity="0.5" stroke="#606060" stroke-width="1.0"/>
           <path id="arrow"
             d="M 11.500037,31.436501 C 11.940474,20.09759 22.043105,11.32322 32.158766,21.979434 L 37.068811,17.246167 C 37.068811,17.246167 37.088388,32 37.088388,32 L 22.160133,31.978069 C 22.160133,31.978069 26.997745,27.140456 26.997745,27.140456 C 18.528582,18.264221 13.291696,25.230495 11.500037,31.436501 z"
             style="fill:#404040;"/>
          </a>
         </g>
        </svg>
</svg>
