<?xml version="1.0" encoding="UTF-8" standalone="no"?>
<!DOCTYPE svg PUBLIC "-//W3C//DTD SVG 1.1//EN"
 "http://www.w3.org/Graphics/SVG/1.1/DTD/svg11.dtd">
<!-- Generated by graphviz version 2.38.0 (20140413.2041)
 -->
<!-- Title: NUnit.Framework.Internal.Filters.PropertyFilterTests Pages: 1 -->
<svg width="359pt" height="442pt"
 viewBox="0.00 0.00 358.50 442.00" xmlns="http://www.w3.org/2000/svg" xmlns:xlink="http://www.w3.org/1999/xlink">
<g id="graph0" class="graph" transform="scale(1 1) rotate(0) translate(4 438)">
<title>NUnit.Framework.Internal.Filters.PropertyFilterTests</title>
<polygon fill="white" stroke="none" points="-4,4 -4,-438 354.5,-438 354.5,4 -4,4"/>
<!-- Node1 -->
<g id="node1" class="node"><title>Node1</title>
<g id="a_node1"><a xlink:title=" ">
<polygon fill="#bfbfbf" stroke="black" points="59,-0.5 59,-30.5 188,-30.5 188,-0.5 59,-0.5"/>
<text text-anchor="start" x="67" y="-18.5" font-family="Helvetica,sans-Serif" font-size="10.00">NUnit.Framework.Internal.</text>
<text text-anchor="middle" x="123.5" y="-7.5" font-family="Helvetica,sans-Serif" font-size="10.00">Filters.PropertyFilterTests</text>
</a>
</g>
</g>
<!-- Node2 -->
<g id="node2" class="node"><title>Node2</title>
<g id="a_node2"><a xlink:href="../../d6/dde/classNUnit_1_1Framework_1_1Internal_1_1Filters_1_1TestFilterTests.html" target="_top" xlink:title=" ">
<polygon fill="white" stroke="black" points="139,-68.5 139,-87.5 220,-87.5 220,-68.5 139,-68.5"/>
<text text-anchor="middle" x="179.5" y="-75.5" font-family="Helvetica,sans-Serif" font-size="10.00">TestFilterTests</text>
</a>
</g>
</g>
<!-- Node2&#45;&gt;Node1 -->
<g id="edge1" class="edge"><title>Node2&#45;&gt;Node1</title>
<path fill="none" stroke="midnightblue" d="M164.526,-60.8232C155.858,-51.4582 145.046,-39.7776 136.698,-30.7587"/>
<polygon fill="midnightblue" stroke="midnightblue" points="162.115,-63.3706 171.477,-68.3318 167.252,-58.6156 162.115,-63.3706"/>
</g>
<!-- Node3 -->
<g id="node3" class="node"><title>Node3</title>
<g id="a_node3"><a xlink:href="../../d4/dec/classNUnit_1_1Framework_1_1Internal_1_1TestSuite.html" target="_top" xlink:title="TestSuite represents a composite test, which contains other tests.">
<polygon fill="white" stroke="black" points="157,-179.5 157,-209.5 286,-209.5 286,-179.5 157,-179.5"/>
<text text-anchor="start" x="165" y="-197.5" font-family="Helvetica,sans-Serif" font-size="10.00">NUnit.Framework.Internal.</text>
<text text-anchor="middle" x="221.5" y="-186.5" font-family="Helvetica,sans-Serif" font-size="10.00">TestSuite</text>
</a>
</g>
</g>
<!-- Node3&#45;&gt;Node2 -->
<g id="edge2" class="edge"><title>Node3&#45;&gt;Node2</title>
<path fill="none" stroke="#9a32cd" stroke-dasharray="5,2" d="M212.794,-169.767C203.413,-144.191 188.978,-104.838 182.653,-87.5944"/>
<polygon fill="#9a32cd" stroke="#9a32cd" points="209.62,-171.277 216.35,-179.46 216.192,-168.866 209.62,-171.277"/>
<text text-anchor="middle" x="266" y="-153" font-family="Helvetica,sans-Serif" font-size="10.00"> _fixtureWithMultipleTests</text>
<text text-anchor="middle" x="266" y="-142" font-family="Helvetica,sans-Serif" font-size="10.00">_yetAnotherFixture</text>
<text text-anchor="middle" x="266" y="-131" font-family="Helvetica,sans-Serif" font-size="10.00">_anotherFixture</text>
<text text-anchor="middle" x="266" y="-120" font-family="Helvetica,sans-Serif" font-size="10.00">_topLevelSuite</text>
<text text-anchor="middle" x="266" y="-109" font-family="Helvetica,sans-Serif" font-size="10.00">_dummyFixture</text>
</g>
<!-- Node4 -->
<g id="node4" class="node"><title>Node4</title>
<g id="a_node4"><a xlink:href="../../d6/d59/classNUnit_1_1Framework_1_1Internal_1_1Test.html" target="_top" xlink:title="The Test abstract class represents a test within the framework.">
<polygon fill="white" stroke="black" points="314,-268.5 314,-287.5 349,-287.5 349,-268.5 314,-268.5"/>
<text text-anchor="middle" x="331.5" y="-275.5" font-family="Helvetica,sans-Serif" font-size="10.00">Test</text>
</a>
</g>
</g>
<!-- Node4&#45;&gt;Node3 -->
<g id="edge3" class="edge"><title>Node4&#45;&gt;Node3</title>
<path fill="none" stroke="midnightblue" d="M311.546,-262.216C291.359,-247.259 260.376,-224.304 240.527,-209.597"/>
<polygon fill="midnightblue" stroke="midnightblue" points="309.61,-265.137 319.728,-268.278 313.777,-259.513 309.61,-265.137"/>
</g>
<!-- Node5 -->
<g id="node5" class="node"><title>Node5</title>
<g id="a_node5"><a xlink:href="../../d6/dd5/interfaceNUnit_1_1Framework_1_1Interfaces_1_1ITest.html" target="_top" xlink:title="Common interface supported by all representations of a test. Only includes informational fields....">
<polygon fill="white" stroke="black" points="312.5,-357.5 312.5,-376.5 350.5,-376.5 350.5,-357.5 312.5,-357.5"/>
<text text-anchor="middle" x="331.5" y="-364.5" font-family="Helvetica,sans-Serif" font-size="10.00">ITest</text>
</a>
</g>
</g>
<!-- Node5&#45;&gt;Node4 -->
<g id="edge4" class="edge"><title>Node5&#45;&gt;Node4</title>
<path fill="none" stroke="midnightblue" d="M331.5,-347.195C331.5,-328.738 331.5,-301.412 331.5,-287.625"/>
<polygon fill="midnightblue" stroke="midnightblue" points="328,-347.34 331.5,-357.34 335,-347.34 328,-347.34"/>
</g>
<!-- Node6 -->
<g id="node6" class="node"><title>Node6</title>
<g id="a_node6"><a xlink:href="../../d9/dc0/interfaceNUnit_1_1Framework_1_1Interfaces_1_1IXmlNodeBuilder.html" target="_top" xlink:title="An object implementing IXmlNodeBuilder is able to build an XML representation of itself and any child...">
<polygon fill="white" stroke="black" points="191,-414.5 191,-433.5 278,-433.5 278,-414.5 191,-414.5"/>
<text text-anchor="middle" x="234.5" y="-421.5" font-family="Helvetica,sans-Serif" font-size="10.00">IXmlNodeBuilder</text>
</a>
</g>
</g>
<!-- Node6&#45;&gt;Node5 -->
<g id="edge5" class="edge"><title>Node6&#45;&gt;Node5</title>
<path fill="none" stroke="midnightblue" d="M258.496,-409.394C276.634,-399.11 300.973,-385.309 316.45,-376.533"/>
<polygon fill="midnightblue" stroke="midnightblue" points="256.629,-406.429 249.656,-414.406 260.082,-412.518 256.629,-406.429"/>
</g>
<!-- Node11 -->
<g id="node11" class="node"><title>Node11</title>
<g id="a_node11"><a xlink:href="../../d2/df0/interfaceNUnit_1_1Framework_1_1Interfaces_1_1ITestFilter.html" target="_top" xlink:title="Interface to be implemented by filters applied to tests. The filter applies when running the test,...">
<polygon fill="white" stroke="black" points="53,-357.5 53,-376.5 112,-376.5 112,-357.5 53,-357.5"/>
<text text-anchor="middle" x="82.5" y="-364.5" font-family="Helvetica,sans-Serif" font-size="10.00">ITestFilter</text>
</a>
</g>
</g>
<!-- Node6&#45;&gt;Node11 -->
<g id="edge11" class="edge"><title>Node6&#45;&gt;Node11</title>
<path fill="none" stroke="midnightblue" d="M201.123,-410.923C172.36,-400.515 131.561,-385.752 106.083,-376.533"/>
<polygon fill="midnightblue" stroke="midnightblue" points="200.156,-414.295 210.75,-414.406 202.538,-407.712 200.156,-414.295"/>
</g>
<!-- Node7 -->
<g id="node7" class="node"><title>Node7</title>
<g id="a_node7"><a xlink:title=" ">
<polygon fill="white" stroke="#bfbfbf" points="223,-357.5 223,-376.5 294,-376.5 294,-357.5 223,-357.5"/>
<text text-anchor="middle" x="258.5" y="-364.5" font-family="Helvetica,sans-Serif" font-size="10.00">IComparable</text>
</a>
</g>
</g>
<!-- Node7&#45;&gt;Node4 -->
<g id="edge6" class="edge"><title>Node7&#45;&gt;Node4</title>
<path fill="none" stroke="midnightblue" d="M272.559,-349.245C288.019,-330.819 312.258,-301.932 324.263,-287.625"/>
<polygon fill="midnightblue" stroke="midnightblue" points="269.513,-347.43 265.766,-357.34 274.875,-351.929 269.513,-347.43"/>
</g>
<!-- Node8 -->
<g id="node8" class="node"><title>Node8</title>
<g id="a_node8"><a xlink:title=" ">
<polygon fill="white" stroke="#bfbfbf" points="153,-357.5 153,-376.5 194,-376.5 194,-357.5 153,-357.5"/>
<text text-anchor="middle" x="173.5" y="-364.5" font-family="Helvetica,sans-Serif" font-size="10.00">static</text>
</a>
</g>
</g>
<!-- Node8&#45;&gt;Node4 -->
<g id="edge7" class="edge"><title>Node8&#45;&gt;Node4</title>
<path fill="none" stroke="#9a32cd" stroke-dasharray="5,2" d="M191.135,-350.659C204.259,-339.924 223.025,-325.955 241.5,-317 267.704,-304.298 278.38,-311.874 304.5,-299 310.57,-296.008 316.682,-291.622 321.553,-287.718"/>
<polygon fill="#9a32cd" stroke="#9a32cd" points="188.796,-348.053 183.385,-357.161 193.295,-353.415 188.796,-348.053"/>
<text text-anchor="middle" x="260" y="-325.5" font-family="Helvetica,sans-Serif" font-size="10.00"> _nextID</text>
</g>
<!-- Node10 -->
<g id="node10" class="node"><title>Node10</title>
<g id="a_node10"><a xlink:href="../../da/dc4/classNUnit_1_1Framework_1_1Internal_1_1TestFilter.html" target="_top" xlink:title="Interface to be implemented by filters applied to tests. The filter applies when running the test,...">
<polygon fill="white" stroke="black" points="0,-263 0,-293 129,-293 129,-263 0,-263"/>
<text text-anchor="start" x="8" y="-281" font-family="Helvetica,sans-Serif" font-size="10.00">NUnit.Framework.Internal.</text>
<text text-anchor="middle" x="64.5" y="-270" font-family="Helvetica,sans-Serif" font-size="10.00">TestFilter</text>
</a>
</g>
</g>
<!-- Node8&#45;&gt;Node10 -->
<g id="edge12" class="edge"><title>Node8&#45;&gt;Node10</title>
<path fill="none" stroke="#9a32cd" stroke-dasharray="5,2" d="M153.439,-351.201C148.215,-347.28 142.617,-343.019 137.5,-339 117.889,-323.599 95.8306,-305.334 81.1449,-293.036"/>
<polygon fill="#9a32cd" stroke="#9a32cd" points="151.616,-354.208 161.727,-357.375 155.798,-348.594 151.616,-354.208"/>
<text text-anchor="middle" x="158" y="-331" font-family="Helvetica,sans-Serif" font-size="10.00"> COMMA</text>
<text text-anchor="middle" x="158" y="-320" font-family="Helvetica,sans-Serif" font-size="10.00">Empty</text>
</g>
<!-- Node9 -->
<g id="node9" class="node"><title>Node9</title>
<g id="a_node9"><a xlink:href="../../d7/d49/classNUnit_1_1Framework_1_1List.html" target="_top" xlink:title=" ">
<polygon fill="white" stroke="black" points="147,-257.5 147,-298.5 296,-298.5 296,-257.5 147,-257.5"/>
<text text-anchor="start" x="155" y="-286.5" font-family="Helvetica,sans-Serif" font-size="10.00">NUnit.Framework.List</text>
<text text-anchor="start" x="155" y="-275.5" font-family="Helvetica,sans-Serif" font-size="10.00">&lt; NUnit.Framework.Interfaces.</text>
<text text-anchor="middle" x="221.5" y="-264.5" font-family="Helvetica,sans-Serif" font-size="10.00">ITest &gt;</text>
</a>
</g>
</g>
<!-- Node9&#45;&gt;Node3 -->
<g id="edge8" class="edge"><title>Node9&#45;&gt;Node3</title>
<path fill="none" stroke="#9a32cd" stroke-dasharray="5,2" d="M221.5,-247.025C221.5,-234.258 221.5,-219.97 221.5,-209.685"/>
<polygon fill="#9a32cd" stroke="#9a32cd" points="218,-247.271 221.5,-257.271 225,-247.271 218,-247.271"/>
<text text-anchor="middle" x="234" y="-231" font-family="Helvetica,sans-Serif" font-size="10.00"> tests</text>
</g>
<!-- Node10&#45;&gt;Node1 -->
<g id="edge9" class="edge"><title>Node10&#45;&gt;Node1</title>
<path fill="none" stroke="#9a32cd" stroke-dasharray="5,2" d="M69.914,-253.096C81.9673,-199.878 110.707,-72.983 120.312,-30.5749"/>
<polygon fill="#9a32cd" stroke="#9a32cd" points="66.4676,-252.468 67.6721,-262.994 73.2946,-254.015 66.4676,-252.468"/>
<text text-anchor="middle" x="117" y="-131" font-family="Helvetica,sans-Serif" font-size="10.00"> _filter</text>
</g>
<!-- Node11&#45;&gt;Node10 -->
<g id="edge10" class="edge"><title>Node11&#45;&gt;Node10</title>
<path fill="none" stroke="midnightblue" d="M78.647,-347.377C75.2782,-331.095 70.46,-307.806 67.4064,-293.048"/>
<polygon fill="midnightblue" stroke="midnightblue" points="75.2547,-348.257 80.7083,-357.34 82.1096,-346.838 75.2547,-348.257"/>
</g>
</g>
</svg>
