<?xml version="1.0" encoding="UTF-8" standalone="no"?>
<!DOCTYPE svg PUBLIC "-//W3C//DTD SVG 1.1//EN"
 "http://www.w3.org/Graphics/SVG/1.1/DTD/svg11.dtd">
<!-- Generated by graphviz version 2.38.0 (20140413.2041)
 -->
<!-- Title: NUnit.Framework.Interfaces.ITestFilter Pages: 1 -->
<!--zoomable 431 -->
<svg id="main" version="1.1" xmlns="http://www.w3.org/2000/svg" xmlns:xlink="http://www.w3.org/1999/xlink" xml:space="preserve" onload="init(evt)">
<style type="text/css"><![CDATA[
.edge:hover path { stroke: red; }
.edge:hover polygon { stroke: red; fill: red; }
]]></style>
<script type="text/javascript"><![CDATA[
var edges = document.getElementsByTagName('g');
if (edges && edges.length) {
  for (var i=0;i<edges.length;i++) {
    if (edges[i].id.substr(0,4)=='edge') {
      edges[i].setAttribute('class','edge');
    }
  }
}
]]></script>
        <defs>
                <circle id="rim" cx="0" cy="0" r="7"/>
                <circle id="rim2" cx="0" cy="0" r="3.5"/>
                <g id="zoomPlus">
                        <use xlink:href="#rim" fill="#404040">
                                <set attributeName="fill" to="#808080" begin="zoomplus.mouseover" end="zoomplus.mouseout"/>
                        </use>
                        <path d="M-4,0h8M0,-4v8" fill="none" stroke="white" stroke-width="1.5" pointer-events="none"/>
                </g>
                <g id="zoomMin">
                        <use xlink:href="#rim" fill="#404040">
                                <set attributeName="fill" to="#808080" begin="zoomminus.mouseover" end="zoomminus.mouseout"/>
                        </use>
                        <path d="M-4,0h8" fill="none" stroke="white" stroke-width="1.5" pointer-events="none"/>
                </g>
                <g id="dirArrow">
                        <path fill="none" stroke="white" stroke-width="1.5" d="M0,-3.0v7 M-2.5,-0.5L0,-3.0L2.5,-0.5"/>
                </g>
               <g id="resetDef">
                       <use xlink:href="#rim2" fill="#404040">
                               <set attributeName="fill" to="#808080" begin="reset.mouseover" end="reset.mouseout"/>
                       </use>
               </g>
        </defs>

<script type="text/javascript">
var viewWidth = 766;
var viewHeight = 431;
var sectionId = 'dynsection-0';
</script>
<script xlink:href="../../svgpan.js"/>
<svg id="graph" class="graph">
<g id="viewport">
<title>NUnit.Framework.Interfaces.ITestFilter</title>
<polygon fill="white" stroke="none" points="-4,4 -4,-427 762,-427 762,4 -4,4"/>
<!-- Node1 -->
<g id="node1" class="node"><title>Node1</title>
<g id="a_node1"><a xlink:title="Interface to be implemented by filters applied to tests. The filter applies when running the test,...">
<polygon fill="#bfbfbf" stroke="black" points="123,-195.5 123,-225.5 263,-225.5 263,-195.5 123,-195.5"/>
<text text-anchor="start" x="131" y="-213.5" font-family="Helvetica,sans-Serif" font-size="10.00">NUnit.Framework.Interfaces.</text>
<text text-anchor="middle" x="193" y="-202.5" font-family="Helvetica,sans-Serif" font-size="10.00">ITestFilter</text>
</a>
</g>
</g>
<!-- Node3 -->
<g id="node3" class="node"><title>Node3</title>
<g id="a_node3"><a xlink:href="../../da/dc4/classNUnit_1_1Framework_1_1Internal_1_1TestFilter.html" target="_top" xlink:title="Interface to be implemented by filters applied to tests. The filter applies when running the test,...">
<polygon fill="white" stroke="black" points="299,-195.5 299,-225.5 428,-225.5 428,-195.5 299,-195.5"/>
<text text-anchor="start" x="307" y="-213.5" font-family="Helvetica,sans-Serif" font-size="10.00">NUnit.Framework.Internal.</text>
<text text-anchor="middle" x="363.5" y="-202.5" font-family="Helvetica,sans-Serif" font-size="10.00">TestFilter</text>
</a>
</g>
</g>
<!-- Node1&#45;&gt;Node3 -->
<g id="edge2" class="edge"><title>Node1&#45;&gt;Node3</title>
<path fill="none" stroke="midnightblue" d="M273.067,-210.5C281.671,-210.5 290.347,-210.5 298.735,-210.5"/>
<polygon fill="midnightblue" stroke="midnightblue" points="273.022,-207 263.022,-210.5 273.022,-214 273.022,-207"/>
</g>
<!-- Node2 -->
<g id="node2" class="node"><title>Node2</title>
<g id="a_node2"><a xlink:href="../../d9/dc0/interfaceNUnit_1_1Framework_1_1Interfaces_1_1IXmlNodeBuilder.html" target="_top" xlink:title="An object implementing IXmlNodeBuilder is able to build an XML representation of itself and any child...">
<polygon fill="white" stroke="black" points="0,-201 0,-220 87,-220 87,-201 0,-201"/>
<text text-anchor="middle" x="43.5" y="-208" font-family="Helvetica,sans-Serif" font-size="10.00">IXmlNodeBuilder</text>
</a>
</g>
</g>
<!-- Node2&#45;&gt;Node1 -->
<g id="edge1" class="edge"><title>Node2&#45;&gt;Node1</title>
<path fill="none" stroke="midnightblue" d="M97.3618,-210.5C105.601,-210.5 114.219,-210.5 122.756,-210.5"/>
<polygon fill="midnightblue" stroke="midnightblue" points="97.1631,-207 87.1631,-210.5 97.1631,-214 97.1631,-207"/>
</g>
<!-- Node4 -->
<g id="node4" class="node"><title>Node4</title>
<g id="a_node4"><a xlink:href="../../d3/dde/classNUnit_1_1Framework_1_1Internal_1_1Filters_1_1CompositeFilter.html" target="_top" xlink:title="A base class for multi&#45;part filters">
<polygon fill="white" stroke="black" points="464,-343.5 464,-373.5 593,-373.5 593,-343.5 464,-343.5"/>
<text text-anchor="start" x="472" y="-361.5" font-family="Helvetica,sans-Serif" font-size="10.00">NUnit.Framework.Internal.</text>
<text text-anchor="middle" x="528.5" y="-350.5" font-family="Helvetica,sans-Serif" font-size="10.00">Filters.CompositeFilter</text>
</a>
</g>
</g>
<!-- Node3&#45;&gt;Node4 -->
<g id="edge3" class="edge"><title>Node3&#45;&gt;Node4</title>
<path fill="none" stroke="midnightblue" d="M388.55,-232.337C422.072,-262.774 481.976,-317.165 510.93,-343.455"/>
<polygon fill="midnightblue" stroke="midnightblue" points="390.783,-229.636 381.026,-225.505 386.077,-234.819 390.783,-229.636"/>
</g>
<!-- Node7 -->
<g id="node7" class="node"><title>Node7</title>
<g id="a_node7"><a xlink:href="../../d5/d17/classNUnit_1_1Framework_1_1Internal_1_1Filters_1_1NotFilter.html" target="_top" xlink:title="NotFilter negates the operation of another filter">
<polygon fill="white" stroke="black" points="464,-220.5 464,-250.5 593,-250.5 593,-220.5 464,-220.5"/>
<text text-anchor="start" x="472" y="-238.5" font-family="Helvetica,sans-Serif" font-size="10.00">NUnit.Framework.Internal.</text>
<text text-anchor="middle" x="528.5" y="-227.5" font-family="Helvetica,sans-Serif" font-size="10.00">Filters.NotFilter</text>
</a>
</g>
</g>
<!-- Node3&#45;&gt;Node7 -->
<g id="edge6" class="edge"><title>Node3&#45;&gt;Node7</title>
<path fill="none" stroke="midnightblue" d="M438.409,-221.836C446.953,-223.146 455.609,-224.474 463.998,-225.76"/>
<polygon fill="midnightblue" stroke="midnightblue" points="438.869,-218.365 428.454,-220.309 437.808,-225.285 438.869,-218.365"/>
</g>
<!-- Node8 -->
<g id="node8" class="node"><title>Node8</title>
<g id="a_node8"><a xlink:href="../../d5/d2b/classNUnit_1_1Framework_1_1Internal_1_1Filters_1_1ValueMatchFilter.html" target="_top" xlink:title="ValueMatchFilter selects tests based on some value, which is expected to be contained in the test.">
<polygon fill="white" stroke="black" points="464,-171.5 464,-201.5 593,-201.5 593,-171.5 464,-171.5"/>
<text text-anchor="start" x="472" y="-189.5" font-family="Helvetica,sans-Serif" font-size="10.00">NUnit.Framework.Internal.</text>
<text text-anchor="middle" x="528.5" y="-178.5" font-family="Helvetica,sans-Serif" font-size="10.00">Filters.ValueMatchFilter</text>
</a>
</g>
</g>
<!-- Node3&#45;&gt;Node8 -->
<g id="edge7" class="edge"><title>Node3&#45;&gt;Node8</title>
<path fill="none" stroke="midnightblue" d="M438.409,-199.618C446.953,-198.36 455.609,-197.085 463.998,-195.85"/>
<polygon fill="midnightblue" stroke="midnightblue" points="437.838,-196.164 428.454,-201.083 438.857,-203.089 437.838,-196.164"/>
</g>
<!-- Node16 -->
<g id="node16" class="node"><title>Node16</title>
<g id="a_node16"><a xlink:href="../../d2/d66/classNUnit_1_1Framework_1_1Internal_1_1TestFilter_1_1EmptyFilter.html" target="_top" xlink:title="Nested class provides an empty filter &#45; one that always returns true when called. It never matches ex...">
<polygon fill="white" stroke="black" points="464,-122.5 464,-152.5 593,-152.5 593,-122.5 464,-122.5"/>
<text text-anchor="start" x="472" y="-140.5" font-family="Helvetica,sans-Serif" font-size="10.00">NUnit.Framework.Internal.</text>
<text text-anchor="middle" x="528.5" y="-129.5" font-family="Helvetica,sans-Serif" font-size="10.00">TestFilter.EmptyFilter</text>
</a>
</g>
</g>
<!-- Node3&#45;&gt;Node16 -->
<g id="edge15" class="edge"><title>Node3&#45;&gt;Node16</title>
<path fill="none" stroke="midnightblue" d="M402.275,-190.83C420.698,-181.513 443.298,-170.485 464,-161.5 471.027,-158.45 478.58,-155.402 485.938,-152.551"/>
<polygon fill="midnightblue" stroke="midnightblue" points="400.648,-187.731 393.325,-195.388 403.824,-193.969 400.648,-187.731"/>
</g>
<!-- Node5 -->
<g id="node5" class="node"><title>Node5</title>
<g id="a_node5"><a xlink:href="../../df/dcc/classNUnit_1_1Framework_1_1Internal_1_1Filters_1_1AndFilter.html" target="_top" xlink:title="Combines multiple filters so that a test must pass all of them in order to pass this filter.">
<polygon fill="white" stroke="black" points="629,-392.5 629,-422.5 758,-422.5 758,-392.5 629,-392.5"/>
<text text-anchor="start" x="637" y="-410.5" font-family="Helvetica,sans-Serif" font-size="10.00">NUnit.Framework.Internal.</text>
<text text-anchor="middle" x="693.5" y="-399.5" font-family="Helvetica,sans-Serif" font-size="10.00">Filters.AndFilter</text>
</a>
</g>
</g>
<!-- Node4&#45;&gt;Node5 -->
<g id="edge4" class="edge"><title>Node4&#45;&gt;Node5</title>
<path fill="none" stroke="midnightblue" d="M589.753,-376.613C607.082,-381.822 625.789,-387.446 642.43,-392.448"/>
<polygon fill="midnightblue" stroke="midnightblue" points="590.32,-373.129 579.735,-373.601 588.304,-379.832 590.32,-373.129"/>
</g>
<!-- Node6 -->
<g id="node6" class="node"><title>Node6</title>
<g id="a_node6"><a xlink:href="../../d1/dc1/classNUnit_1_1Framework_1_1Internal_1_1Filters_1_1OrFilter.html" target="_top" xlink:title="Combines multiple filters so that a test must pass one of them in order to pass this filter.">
<polygon fill="white" stroke="black" points="629,-343.5 629,-373.5 758,-373.5 758,-343.5 629,-343.5"/>
<text text-anchor="start" x="637" y="-361.5" font-family="Helvetica,sans-Serif" font-size="10.00">NUnit.Framework.Internal.</text>
<text text-anchor="middle" x="693.5" y="-350.5" font-family="Helvetica,sans-Serif" font-size="10.00">Filters.OrFilter</text>
</a>
</g>
</g>
<!-- Node4&#45;&gt;Node6 -->
<g id="edge5" class="edge"><title>Node4&#45;&gt;Node6</title>
<path fill="none" stroke="midnightblue" d="M603.688,-358.5C612.141,-358.5 620.701,-358.5 628.998,-358.5"/>
<polygon fill="midnightblue" stroke="midnightblue" points="603.454,-355 593.454,-358.5 603.454,-362 603.454,-355"/>
</g>
<!-- Node9 -->
<g id="node9" class="node"><title>Node9</title>
<g id="a_node9"><a xlink:href="../../de/dda/classNUnit_1_1Framework_1_1Internal_1_1Filters_1_1CategoryFilter.html" target="_top" xlink:title="CategoryFilter is able to select or exclude tests based on their categories.">
<polygon fill="white" stroke="black" points="629,-294.5 629,-324.5 758,-324.5 758,-294.5 629,-294.5"/>
<text text-anchor="start" x="637" y="-312.5" font-family="Helvetica,sans-Serif" font-size="10.00">NUnit.Framework.Internal.</text>
<text text-anchor="middle" x="693.5" y="-301.5" font-family="Helvetica,sans-Serif" font-size="10.00">Filters.CategoryFilter</text>
</a>
</g>
</g>
<!-- Node8&#45;&gt;Node9 -->
<g id="edge8" class="edge"><title>Node8&#45;&gt;Node9</title>
<path fill="none" stroke="midnightblue" d="M587.609,-207.07C589.498,-208.456 591.304,-209.931 593,-211.5 619.847,-236.338 601.983,-260.847 629,-285.5 632.743,-288.916 637.021,-291.861 641.547,-294.398"/>
<polygon fill="midnightblue" stroke="midnightblue" points="589.195,-203.932 578.872,-201.544 585.453,-209.848 589.195,-203.932"/>
</g>
<!-- Node10 -->
<g id="node10" class="node"><title>Node10</title>
<g id="a_node10"><a xlink:href="../../d5/da8/classNUnit_1_1Framework_1_1Internal_1_1Filters_1_1ClassNameFilter.html" target="_top" xlink:title="ClassName filter selects tests based on the class FullName">
<polygon fill="white" stroke="black" points="629,-245.5 629,-275.5 758,-275.5 758,-245.5 629,-245.5"/>
<text text-anchor="start" x="637" y="-263.5" font-family="Helvetica,sans-Serif" font-size="10.00">NUnit.Framework.Internal.</text>
<text text-anchor="middle" x="693.5" y="-252.5" font-family="Helvetica,sans-Serif" font-size="10.00">Filters.ClassNameFilter</text>
</a>
</g>
</g>
<!-- Node8&#45;&gt;Node10 -->
<g id="edge9" class="edge"><title>Node8&#45;&gt;Node10</title>
<path fill="none" stroke="midnightblue" d="M581.252,-205.7C585.28,-207.549 589.239,-209.489 593,-211.5 610.178,-220.685 611.759,-227.433 629,-236.5 635.154,-239.737 641.845,-242.756 648.497,-245.487"/>
<polygon fill="midnightblue" stroke="midnightblue" points="582.359,-202.364 571.794,-201.56 579.552,-208.776 582.359,-202.364"/>
</g>
<!-- Node11 -->
<g id="node11" class="node"><title>Node11</title>
<g id="a_node11"><a xlink:href="../../d1/d93/classNUnit_1_1Framework_1_1Internal_1_1Filters_1_1FullNameFilter.html" target="_top" xlink:title="FullName filter selects tests based on their FullName">
<polygon fill="white" stroke="black" points="629,-196.5 629,-226.5 758,-226.5 758,-196.5 629,-196.5"/>
<text text-anchor="start" x="637" y="-214.5" font-family="Helvetica,sans-Serif" font-size="10.00">NUnit.Framework.Internal.</text>
<text text-anchor="middle" x="693.5" y="-203.5" font-family="Helvetica,sans-Serif" font-size="10.00">Filters.FullNameFilter</text>
</a>
</g>
</g>
<!-- Node8&#45;&gt;Node11 -->
<g id="edge10" class="edge"><title>Node8&#45;&gt;Node11</title>
<path fill="none" stroke="midnightblue" d="M603.409,-197.836C611.953,-199.146 620.609,-200.474 628.998,-201.76"/>
<polygon fill="midnightblue" stroke="midnightblue" points="603.869,-194.365 593.454,-196.309 602.808,-201.285 603.869,-194.365"/>
</g>
<!-- Node12 -->
<g id="node12" class="node"><title>Node12</title>
<g id="a_node12"><a xlink:href="../../db/d7c/classNUnit_1_1Framework_1_1Internal_1_1Filters_1_1IdFilter.html" target="_top" xlink:title="IdFilter selects tests based on their id">
<polygon fill="white" stroke="black" points="629,-147.5 629,-177.5 758,-177.5 758,-147.5 629,-147.5"/>
<text text-anchor="start" x="637" y="-165.5" font-family="Helvetica,sans-Serif" font-size="10.00">NUnit.Framework.Internal.</text>
<text text-anchor="middle" x="693.5" y="-154.5" font-family="Helvetica,sans-Serif" font-size="10.00">Filters.IdFilter</text>
</a>
</g>
</g>
<!-- Node8&#45;&gt;Node12 -->
<g id="edge11" class="edge"><title>Node8&#45;&gt;Node12</title>
<path fill="none" stroke="midnightblue" d="M603.409,-175.618C611.953,-174.36 620.609,-173.085 628.998,-171.85"/>
<polygon fill="midnightblue" stroke="midnightblue" points="602.838,-172.164 593.454,-177.083 603.857,-179.089 602.838,-172.164"/>
</g>
<!-- Node13 -->
<g id="node13" class="node"><title>Node13</title>
<g id="a_node13"><a xlink:href="../../d9/da9/classNUnit_1_1Framework_1_1Internal_1_1Filters_1_1MethodNameFilter.html" target="_top" xlink:title="FullName filter selects tests based on their FullName">
<polygon fill="white" stroke="black" points="629,-98.5 629,-128.5 758,-128.5 758,-98.5 629,-98.5"/>
<text text-anchor="start" x="637" y="-116.5" font-family="Helvetica,sans-Serif" font-size="10.00">NUnit.Framework.Internal.</text>
<text text-anchor="middle" x="693.5" y="-105.5" font-family="Helvetica,sans-Serif" font-size="10.00">Filters.MethodNameFilter</text>
</a>
</g>
</g>
<!-- Node8&#45;&gt;Node13 -->
<g id="edge12" class="edge"><title>Node8&#45;&gt;Node13</title>
<path fill="none" stroke="midnightblue" d="M580.679,-167.461C584.898,-165.557 589.054,-163.562 593,-161.5 610.043,-152.594 611.896,-146.289 629,-137.5 635.185,-134.322 641.891,-131.334 648.551,-128.617"/>
<polygon fill="midnightblue" stroke="midnightblue" points="579.189,-164.292 571.399,-171.473 581.967,-170.717 579.189,-164.292"/>
</g>
<!-- Node14 -->
<g id="node14" class="node"><title>Node14</title>
<g id="a_node14"><a xlink:href="../../d4/d54/classNUnit_1_1Framework_1_1Internal_1_1Filters_1_1PropertyFilter.html" target="_top" xlink:title="PropertyFilter is able to select or exclude tests based on their properties.">
<polygon fill="white" stroke="black" points="629,-49.5 629,-79.5 758,-79.5 758,-49.5 629,-49.5"/>
<text text-anchor="start" x="637" y="-67.5" font-family="Helvetica,sans-Serif" font-size="10.00">NUnit.Framework.Internal.</text>
<text text-anchor="middle" x="693.5" y="-56.5" font-family="Helvetica,sans-Serif" font-size="10.00">Filters.PropertyFilter</text>
</a>
</g>
</g>
<!-- Node8&#45;&gt;Node14 -->
<g id="edge13" class="edge"><title>Node8&#45;&gt;Node14</title>
<path fill="none" stroke="midnightblue" d="M587.598,-165.919C589.49,-164.536 591.3,-163.064 593,-161.5 619.62,-137.005 602.213,-112.812 629,-88.5 632.753,-85.0941 637.036,-82.1553 641.566,-79.6227"/>
<polygon fill="midnightblue" stroke="midnightblue" points="585.444,-163.139 578.852,-171.434 589.177,-169.06 585.444,-163.139"/>
</g>
<!-- Node15 -->
<g id="node15" class="node"><title>Node15</title>
<g id="a_node15"><a xlink:href="../../d6/df5/classNUnit_1_1Framework_1_1Internal_1_1Filters_1_1TestNameFilter.html" target="_top" xlink:title="TestName filter selects tests based on their Name">
<polygon fill="white" stroke="black" points="629,-0.5 629,-30.5 758,-30.5 758,-0.5 629,-0.5"/>
<text text-anchor="start" x="637" y="-18.5" font-family="Helvetica,sans-Serif" font-size="10.00">NUnit.Framework.Internal.</text>
<text text-anchor="middle" x="693.5" y="-7.5" font-family="Helvetica,sans-Serif" font-size="10.00">Filters.TestNameFilter</text>
</a>
</g>
</g>
<!-- Node8&#45;&gt;Node15 -->
<g id="edge14" class="edge"><title>Node8&#45;&gt;Node15</title>
<path fill="none" stroke="midnightblue" d="M589.147,-165.262C590.501,-164.075 591.79,-162.822 593,-161.5 631.176,-119.803 590.539,-80.9347 629,-39.5 632.207,-36.0449 635.962,-33.0835 640.016,-30.546"/>
<polygon fill="midnightblue" stroke="midnightblue" points="586.789,-162.65 580.775,-171.372 590.916,-168.304 586.789,-162.65"/>
</g>
</g>
</svg>
        <g id="navigator" transform="translate(0 0)" fill="#404254">
                <rect fill="#f2f5e9" fill-opacity="0.5" stroke="#606060" stroke-width=".5" x="0" y="0" width="60" height="60"/>
                <use id="zoomplus" xlink:href="#zoomPlus" x="17" y="9" onmousedown="handleZoom(evt,'in')"/>
                <use id="zoomminus" xlink:href="#zoomMin" x="42" y="9" onmousedown="handleZoom(evt,'out')"/>
                <use id="reset" xlink:href="#resetDef" x="30" y="36" onmousedown="handleReset()"/>
                <g id="arrowUp" xlink:href="#dirArrow" transform="translate(30 24)" onmousedown="handlePan(0,-1)">
                  <use xlink:href="#rim" fill="#404040">
                        <set attributeName="fill" to="#808080" begin="arrowUp.mouseover" end="arrowUp.mouseout"/>
                  </use>
                  <path fill="none" stroke="white" stroke-width="1.5" d="M0,-3.0v7 M-2.5,-0.5L0,-3.0L2.5,-0.5"/>
                </g>
                <g id="arrowRight" xlink:href="#dirArrow" transform="rotate(90) translate(36 -43)" onmousedown="handlePan(1,0)">
                  <use xlink:href="#rim" fill="#404040">
                        <set attributeName="fill" to="#808080" begin="arrowRight.mouseover" end="arrowRight.mouseout"/>
                  </use>
                  <path fill="none" stroke="white" stroke-width="1.5" d="M0,-3.0v7 M-2.5,-0.5L0,-3.0L2.5,-0.5"/>
                </g>
                <g id="arrowDown" xlink:href="#dirArrow" transform="rotate(180) translate(-30 -48)" onmousedown="handlePan(0,1)">
                  <use xlink:href="#rim" fill="#404040">
                        <set attributeName="fill" to="#808080" begin="arrowDown.mouseover" end="arrowDown.mouseout"/>
                  </use>
                  <path fill="none" stroke="white" stroke-width="1.5" d="M0,-3.0v7 M-2.5,-0.5L0,-3.0L2.5,-0.5"/>
                </g>
                <g id="arrowLeft" xlink:href="#dirArrow" transform="rotate(270) translate(-36 17)" onmousedown="handlePan(-1,0)">
                  <use xlink:href="#rim" fill="#404040">
                        <set attributeName="fill" to="#808080" begin="arrowLeft.mouseover" end="arrowLeft.mouseout"/>
                  </use>
                  <path fill="none" stroke="white" stroke-width="1.5" d="M0,-3.0v7 M-2.5,-0.5L0,-3.0L2.5,-0.5"/>
                </g>
        </g>
        <svg viewBox="0 0 15 15" width="100%" height="30px" preserveAspectRatio="xMaxYMin meet">
         <g id="arrow_out" transform="scale(0.3 0.3)">
          <a xlink:href="interfaceNUnit_1_1Framework_1_1Interfaces_1_1ITestFilter__inherit__graph_org.svg" target="_base">
           <rect id="button" ry="5" rx="5" y="6" x="6" height="38" width="38"
                fill="#f2f5e9" fill-opacity="0.5" stroke="#606060" stroke-width="1.0"/>
           <path id="arrow"
             d="M 11.500037,31.436501 C 11.940474,20.09759 22.043105,11.32322 32.158766,21.979434 L 37.068811,17.246167 C 37.068811,17.246167 37.088388,32 37.088388,32 L 22.160133,31.978069 C 22.160133,31.978069 26.997745,27.140456 26.997745,27.140456 C 18.528582,18.264221 13.291696,25.230495 11.500037,31.436501 z"
             style="fill:#404040;"/>
          </a>
         </g>
        </svg>
</svg>
