<?xml version="1.0" encoding="UTF-8" standalone="no"?>
<!DOCTYPE svg PUBLIC "-//W3C//DTD SVG 1.1//EN"
 "http://www.w3.org/Graphics/SVG/1.1/DTD/svg11.dtd">
<!-- Generated by graphviz version 2.38.0 (20140413.2041)
 -->
<!-- Title: IG.Forms.XmlTreeViewForm Pages: 1 -->
<svg width="448pt" height="440pt"
 viewBox="0.00 0.00 448.38 440.00" xmlns="http://www.w3.org/2000/svg" xmlns:xlink="http://www.w3.org/1999/xlink">
<g id="graph0" class="graph" transform="scale(1 1) rotate(0) translate(4 436)">
<title>IG.Forms.XmlTreeViewForm</title>
<polygon fill="white" stroke="none" points="-4,4 -4,-436 444.382,-436 444.382,4 -4,4"/>
<!-- Node1 -->
<g id="node1" class="node"><title>Node1</title>
<g id="a_node1"><a xlink:title=" ">
<polygon fill="#bfbfbf" stroke="black" points="158.382,-0.5 158.382,-19.5 296.382,-19.5 296.382,-0.5 158.382,-0.5"/>
<text text-anchor="middle" x="227.382" y="-7.5" font-family="Helvetica,sans-Serif" font-size="10.00">IG.Forms.XmlTreeViewForm</text>
</a>
</g>
</g>
<!-- Node2 -->
<g id="node2" class="node"><title>Node2</title>
<g id="a_node2"><a xlink:title=" ">
<polygon fill="white" stroke="#bfbfbf" points="12.8816,-412.5 12.8816,-431.5 51.8816,-431.5 51.8816,-412.5 12.8816,-412.5"/>
<text text-anchor="middle" x="32.3816" y="-419.5" font-family="Helvetica,sans-Serif" font-size="10.00">Form</text>
</a>
</g>
</g>
<!-- Node2&#45;&gt;Node1 -->
<g id="edge1" class="edge"><title>Node2&#45;&gt;Node1</title>
<path fill="none" stroke="midnightblue" d="M26.0307,-402.651C10.646,-354.768 -23.8002,-223.54 26.3816,-134 62.7838,-69.0469 149.018,-34.2808 195.831,-19.609"/>
<polygon fill="midnightblue" stroke="midnightblue" points="22.7513,-403.881 29.2298,-412.265 29.3931,-401.671 22.7513,-403.881"/>
</g>
<!-- Node6 -->
<g id="node6" class="node"><title>Node6</title>
<g id="a_node6"><a xlink:href="../../d4/dee/classIG_1_1Forms_1_1XMLTestPathForm.html" target="_top" xlink:title=" ">
<polygon fill="white" stroke="black" points="35.3816,-185 35.3816,-204 175.382,-204 175.382,-185 35.3816,-185"/>
<text text-anchor="middle" x="105.382" y="-192" font-family="Helvetica,sans-Serif" font-size="10.00">IG.Forms.XMLTestPathForm</text>
</a>
</g>
</g>
<!-- Node2&#45;&gt;Node6 -->
<g id="edge6" class="edge"><title>Node2&#45;&gt;Node6</title>
<path fill="none" stroke="midnightblue" d="M38.2433,-402.893C53.1159,-356.951 91.8963,-237.157 102.606,-204.073"/>
<polygon fill="midnightblue" stroke="midnightblue" points="34.9042,-401.844 35.1541,-412.435 41.5639,-404 34.9042,-401.844"/>
</g>
<!-- Node3 -->
<g id="node3" class="node"><title>Node3</title>
<g id="a_node3"><a xlink:title=" ">
<polygon fill="white" stroke="#bfbfbf" points="272.382,-412.5 272.382,-431.5 322.382,-431.5 322.382,-412.5 272.382,-412.5"/>
<text text-anchor="middle" x="297.382" y="-419.5" font-family="Helvetica,sans-Serif" font-size="10.00">System</text>
</a>
</g>
</g>
<!-- Node3&#45;&gt;Node1 -->
<g id="edge2" class="edge"><title>Node3&#45;&gt;Node1</title>
<path fill="none" stroke="#9a32cd" stroke-dasharray="5,2" d="M310.652,-404.253C332.345,-375.661 374.477,-314.713 389.382,-255 402.405,-202.823 404.779,-185.526 389.382,-134 374.77,-85.1027 367.674,-67.9898 326.382,-38 314.562,-29.4154 300.156,-23.5601 286.035,-19.5664"/>
<polygon fill="#9a32cd" stroke="#9a32cd" points="307.735,-402.304 304.387,-412.356 313.273,-406.586 307.735,-402.304"/>
<text text-anchor="middle" x="411.882" y="-108" font-family="Helvetica,sans-Serif" font-size="10.00"> components</text>
</g>
<!-- Node4 -->
<g id="node4" class="node"><title>Node4</title>
<g id="a_node4"><a xlink:href="../../dd/da5/classIG_1_1Forms_1_1XmlTreeViewControl.html" target="_top" xlink:title=" ">
<polygon fill="white" stroke="black" points="154.382,-67.5 154.382,-86.5 300.382,-86.5 300.382,-67.5 154.382,-67.5"/>
<text text-anchor="middle" x="227.382" y="-74.5" font-family="Helvetica,sans-Serif" font-size="10.00">IG.Forms.XmlTreeViewControl</text>
</a>
</g>
</g>
<!-- Node3&#45;&gt;Node4 -->
<g id="edge8" class="edge"><title>Node3&#45;&gt;Node4</title>
<path fill="none" stroke="#9a32cd" stroke-dasharray="5,2" d="M299.104,-402.163C302.684,-355.057 307.741,-229.103 270.382,-134 262.852,-114.833 246.686,-96.7054 236.462,-86.5077"/>
<polygon fill="#9a32cd" stroke="#9a32cd" points="295.615,-401.89 298.273,-412.146 302.591,-402.471 295.615,-401.89"/>
<text text-anchor="middle" x="341.382" y="-247" font-family="Helvetica,sans-Serif" font-size="10.00"> listBoxXML</text>
<text text-anchor="middle" x="341.382" y="-236" font-family="Helvetica,sans-Serif" font-size="10.00">AttrNameForeColor</text>
<text text-anchor="middle" x="341.382" y="-225" font-family="Helvetica,sans-Serif" font-size="10.00">ElementForeColor</text>
<text text-anchor="middle" x="341.382" y="-214" font-family="Helvetica,sans-Serif" font-size="10.00">CommentBackColor</text>
<text text-anchor="middle" x="341.382" y="-203" font-family="Helvetica,sans-Serif" font-size="10.00">RootForeColor</text>
<text text-anchor="middle" x="341.382" y="-192" font-family="Helvetica,sans-Serif" font-size="10.00">AttrContBackColor</text>
<text text-anchor="middle" x="341.382" y="-181" font-family="Helvetica,sans-Serif" font-size="10.00">TextBackColor</text>
<text text-anchor="middle" x="341.382" y="-170" font-family="Helvetica,sans-Serif" font-size="10.00">RootBackColor</text>
<text text-anchor="middle" x="341.382" y="-159" font-family="Helvetica,sans-Serif" font-size="10.00">TextForeColor</text>
<text text-anchor="middle" x="341.382" y="-148" font-family="Helvetica,sans-Serif" font-size="10.00">resources</text>
<text text-anchor="middle" x="341.382" y="-137" font-family="Helvetica,sans-Serif" font-size="10.00">...</text>
</g>
<!-- Node3&#45;&gt;Node6 -->
<g id="edge7" class="edge"><title>Node3&#45;&gt;Node6</title>
<path fill="none" stroke="#9a32cd" stroke-dasharray="5,2" d="M262.248,-417.66C243.329,-414.294 220.611,-407.541 204.382,-394 140.217,-340.462 113.698,-235.061 107.107,-204.189"/>
<polygon fill="#9a32cd" stroke="#9a32cd" points="261.888,-421.146 272.303,-419.204 262.95,-414.227 261.888,-421.146"/>
<text text-anchor="middle" x="243.882" y="-386" font-family="Helvetica,sans-Serif" font-size="10.00"> optValueOnly</text>
<text text-anchor="middle" x="243.882" y="-375" font-family="Helvetica,sans-Serif" font-size="10.00">txtTestExpression</text>
<text text-anchor="middle" x="243.882" y="-364" font-family="Helvetica,sans-Serif" font-size="10.00">btnClose</text>
<text text-anchor="middle" x="243.882" y="-353" font-family="Helvetica,sans-Serif" font-size="10.00">rtbResults</text>
<text text-anchor="middle" x="243.882" y="-342" font-family="Helvetica,sans-Serif" font-size="10.00">optOuterXml</text>
<text text-anchor="middle" x="243.882" y="-331" font-family="Helvetica,sans-Serif" font-size="10.00">gbxResults</text>
<text text-anchor="middle" x="243.882" y="-320" font-family="Helvetica,sans-Serif" font-size="10.00">res</text>
<text text-anchor="middle" x="243.882" y="-309" font-family="Helvetica,sans-Serif" font-size="10.00">components</text>
<text text-anchor="middle" x="243.882" y="-298" font-family="Helvetica,sans-Serif" font-size="10.00">optInnerXml</text>
<text text-anchor="middle" x="243.882" y="-287" font-family="Helvetica,sans-Serif" font-size="10.00">btnTest</text>
<text text-anchor="middle" x="243.882" y="-276" font-family="Helvetica,sans-Serif" font-size="10.00">...</text>
</g>
<!-- Node4&#45;&gt;Node1 -->
<g id="edge3" class="edge"><title>Node4&#45;&gt;Node1</title>
<path fill="none" stroke="#9a32cd" stroke-dasharray="5,2" d="M227.382,-57.037C227.382,-44.6703 227.382,-29.1198 227.382,-19.6273"/>
<polygon fill="#9a32cd" stroke="#9a32cd" points="223.882,-57.2338 227.382,-67.2338 230.882,-57.2338 223.882,-57.2338"/>
<text text-anchor="middle" x="274.882" y="-41" font-family="Helvetica,sans-Serif" font-size="10.00"> xmlTreeViewControl1</text>
</g>
<!-- Node5 -->
<g id="node5" class="node"><title>Node5</title>
<g id="a_node5"><a xlink:title=" ">
<polygon fill="white" stroke="#bfbfbf" points="193.382,-185 193.382,-204 261.382,-204 261.382,-185 193.382,-185"/>
<text text-anchor="middle" x="227.382" y="-192" font-family="Helvetica,sans-Serif" font-size="10.00">UserControl</text>
</a>
</g>
</g>
<!-- Node5&#45;&gt;Node4 -->
<g id="edge4" class="edge"><title>Node5&#45;&gt;Node4</title>
<path fill="none" stroke="midnightblue" d="M227.382,-174.664C227.382,-149.365 227.382,-105.435 227.382,-86.782"/>
<polygon fill="midnightblue" stroke="midnightblue" points="223.882,-174.819 227.382,-184.819 230.882,-174.819 223.882,-174.819"/>
</g>
<!-- Node6&#45;&gt;Node4 -->
<g id="edge5" class="edge"><title>Node6&#45;&gt;Node4</title>
<path fill="none" stroke="#9a32cd" stroke-dasharray="5,2" d="M115.08,-176.208C126.651,-156.829 147.579,-125.452 172.382,-105 181.737,-97.2852 193.667,-91.0872 204.023,-86.585"/>
<polygon fill="#9a32cd" stroke="#9a32cd" points="112.033,-174.486 110.043,-184.892 118.088,-177.998 112.033,-174.486"/>
<text text-anchor="middle" x="197.882" y="-108" font-family="Helvetica,sans-Serif" font-size="10.00"> PathTester</text>
</g>
</g>
</svg>
