<?xml version="1.0" encoding="UTF-8" standalone="no"?>
<!DOCTYPE svg PUBLIC "-//W3C//DTD SVG 1.1//EN"
 "http://www.w3.org/Graphics/SVG/1.1/DTD/svg11.dtd">
<!-- Generated by graphviz version 2.38.0 (20140413.2041)
 -->
<!-- Title: IG.Lib.ServiceReferenceWSBase.WSBaseSoapChannel Pages: 1 -->
<svg width="266pt" height="106pt"
 viewBox="0.00 0.00 266.00 106.00" xmlns="http://www.w3.org/2000/svg" xmlns:xlink="http://www.w3.org/1999/xlink">
<g id="graph0" class="graph" transform="scale(1 1) rotate(0) translate(4 102)">
<title>IG.Lib.ServiceReferenceWSBase.WSBaseSoapChannel</title>
<polygon fill="white" stroke="none" points="-4,4 -4,-102 262,-102 262,4 -4,4"/>
<!-- Node1 -->
<g id="node1" class="node"><title>Node1</title>
<g id="a_node1"><a xlink:title=" ">
<polygon fill="#bfbfbf" stroke="black" points="51,-0.5 51,-30.5 213,-30.5 213,-0.5 51,-0.5"/>
<text text-anchor="start" x="59" y="-18.5" font-family="Helvetica,sans-Serif" font-size="10.00">IG.Lib.ServiceReferenceWSBase.</text>
<text text-anchor="middle" x="132" y="-7.5" font-family="Helvetica,sans-Serif" font-size="10.00">WSBaseSoapChannel</text>
</a>
</g>
</g>
<!-- Node2 -->
<g id="node2" class="node"><title>Node2</title>
<g id="a_node2"><a xlink:href="../../df/d49/interfaceIG_1_1Lib_1_1ServiceReferenceWSBase_1_1WSBaseSoap.html" target="_top" xlink:title=" ">
<polygon fill="white" stroke="black" points="0,-67.5 0,-97.5 126,-97.5 126,-67.5 0,-67.5"/>
<text text-anchor="start" x="8" y="-85.5" font-family="Helvetica,sans-Serif" font-size="10.00">IG::Lib::ServiceReference</text>
<text text-anchor="middle" x="63" y="-74.5" font-family="Helvetica,sans-Serif" font-size="10.00">WSBase::WSBaseSoap</text>
</a>
</g>
</g>
<!-- Node2&#45;&gt;Node1 -->
<g id="edge1" class="edge"><title>Node2&#45;&gt;Node1</title>
<path fill="none" stroke="midnightblue" d="M85.4924,-60.3115C95.8427,-50.5612 107.84,-39.259 117.057,-30.5765"/>
<polygon fill="midnightblue" stroke="midnightblue" points="82.851,-57.9914 77.972,-67.396 87.6508,-63.0866 82.851,-57.9914"/>
</g>
<!-- Node3 -->
<g id="node3" class="node"><title>Node3</title>
<g id="a_node3"><a xlink:title=" ">
<polygon fill="white" stroke="#bfbfbf" points="144,-67.5 144,-97.5 258,-97.5 258,-67.5 144,-67.5"/>
<text text-anchor="start" x="152" y="-85.5" font-family="Helvetica,sans-Serif" font-size="10.00">System::ServiceModel</text>
<text text-anchor="middle" x="201" y="-74.5" font-family="Helvetica,sans-Serif" font-size="10.00">::IClientChannel</text>
</a>
</g>
</g>
<!-- Node3&#45;&gt;Node1 -->
<g id="edge2" class="edge"><title>Node3&#45;&gt;Node1</title>
<path fill="none" stroke="midnightblue" d="M178.508,-60.3115C168.157,-50.5612 156.16,-39.259 146.943,-30.5765"/>
<polygon fill="midnightblue" stroke="midnightblue" points="176.349,-63.0866 186.028,-67.396 181.149,-57.9914 176.349,-63.0866"/>
</g>
</g>
</svg>
