<?xml version="1.0" encoding="UTF-8" standalone="no"?>
<!DOCTYPE svg PUBLIC "-//W3C//DTD SVG 1.1//EN"
 "http://www.w3.org/Graphics/SVG/1.1/DTD/svg11.dtd">
<!-- Generated by graphviz version 2.38.0 (20140413.2041)
 -->
<!-- Title: IG.Lib.MsgConstObservationOrder Pages: 1 -->
<svg width="454pt" height="220pt"
 viewBox="0.00 0.00 453.50 220.00" xmlns="http://www.w3.org/2000/svg" xmlns:xlink="http://www.w3.org/1999/xlink">
<g id="graph0" class="graph" transform="scale(1 1) rotate(0) translate(4 216)">
<title>IG.Lib.MsgConstObservationOrder</title>
<polygon fill="white" stroke="none" points="-4,4 -4,-216 449.5,-216 449.5,4 -4,4"/>
<!-- Node1 -->
<g id="node1" class="node"><title>Node1</title>
<g id="a_node1"><a xlink:title="Constants related to the ObservationOrder msg. Remark: class MsgConst was composed of different parts...">
<polygon fill="#bfbfbf" stroke="black" points="29.5,-0.5 29.5,-30.5 169.5,-30.5 169.5,-0.5 29.5,-0.5"/>
<text text-anchor="start" x="37.5" y="-18.5" font-family="Helvetica,sans-Serif" font-size="10.00">IG.Lib.MsgConstObservation</text>
<text text-anchor="middle" x="99.5" y="-7.5" font-family="Helvetica,sans-Serif" font-size="10.00">Order</text>
</a>
</g>
</g>
<!-- Node2 -->
<g id="node2" class="node"><title>Node2</title>
<g id="a_node2"><a xlink:href="../../d5/de1/classIG_1_1Lib_1_1MsgConstCommon.html" target="_top" xlink:title="Common Constants related to messages sent with BIS. Remark: class MsgConst is composed of different p...">
<polygon fill="white" stroke="black" points="14.5,-78.5 14.5,-97.5 114.5,-97.5 114.5,-78.5 14.5,-78.5"/>
<text text-anchor="middle" x="64.5" y="-85.5" font-family="Helvetica,sans-Serif" font-size="10.00">MsgConstCommon</text>
</a>
</g>
</g>
<!-- Node2&#45;&gt;Node1 -->
<g id="edge1" class="edge"><title>Node2&#45;&gt;Node1</title>
<path fill="none" stroke="midnightblue" d="M73.2752,-69.3243C79.2242,-57.3413 86.9809,-41.7171 92.5118,-30.5762"/>
<polygon fill="midnightblue" stroke="midnightblue" points="70.1035,-67.842 68.7917,-78.3553 76.3734,-70.9547 70.1035,-67.842"/>
</g>
<!-- Node3 -->
<g id="node3" class="node"><title>Node3</title>
<g id="a_node3"><a xlink:href="../../db/db1/interfaceIG_1_1Lib_1_1IReporter.html" target="_top" xlink:title="Interface from which majority of reporters inherit. Includes generic reporting functionality plus tra...">
<polygon fill="white" stroke="black" points="132.5,-78.5 132.5,-97.5 216.5,-97.5 216.5,-78.5 132.5,-78.5"/>
<text text-anchor="middle" x="174.5" y="-85.5" font-family="Helvetica,sans-Serif" font-size="10.00">IG.Lib.IReporter</text>
</a>
</g>
</g>
<!-- Node3&#45;&gt;Node1 -->
<g id="edge2" class="edge"><title>Node3&#45;&gt;Node1</title>
<path fill="none" stroke="#9a32cd" stroke-dasharray="5,2" d="M157.947,-71.4402C144.96,-59.2323 127.038,-42.3856 114.475,-30.5762"/>
<polygon fill="#9a32cd" stroke="#9a32cd" points="155.62,-74.0564 165.304,-78.3553 160.414,-68.956 155.62,-74.0564"/>
<text text-anchor="middle" x="151.5" y="-52" font-family="Helvetica,sans-Serif" font-size="10.00"> _R</text>
</g>
<!-- Node4 -->
<g id="node4" class="node"><title>Node4</title>
<g id="a_node4"><a xlink:title=" ">
<polygon fill="white" stroke="#bfbfbf" points="0,-135.5 0,-154.5 67,-154.5 67,-135.5 0,-135.5"/>
<text text-anchor="middle" x="33.5" y="-142.5" font-family="Helvetica,sans-Serif" font-size="10.00">IDisposable</text>
</a>
</g>
</g>
<!-- Node4&#45;&gt;Node3 -->
<g id="edge3" class="edge"><title>Node4&#45;&gt;Node3</title>
<path fill="none" stroke="midnightblue" d="M55.2229,-129.807C63.2547,-124.973 72.5787,-119.828 81.5,-116 99.2679,-108.376 119.84,-102.153 137.111,-97.6114"/>
<polygon fill="midnightblue" stroke="midnightblue" points="53.1296,-126.988 46.4894,-135.243 56.8287,-132.931 53.1296,-126.988"/>
</g>
<!-- Node5 -->
<g id="node5" class="node"><title>Node5</title>
<g id="a_node5"><a xlink:href="../../de/d0d/interfaceIG_1_1Lib_1_1IReporterBase.html" target="_top" xlink:title="Interface from which all reporters inherit.">
<polygon fill="white" stroke="black" points="195.5,-192.5 195.5,-211.5 273.5,-211.5 273.5,-192.5 195.5,-192.5"/>
<text text-anchor="middle" x="234.5" y="-199.5" font-family="Helvetica,sans-Serif" font-size="10.00">IReporterBase</text>
</a>
</g>
</g>
<!-- Node5&#45;&gt;Node3 -->
<g id="edge4" class="edge"><title>Node5&#45;&gt;Node3</title>
<path fill="none" stroke="midnightblue" d="M185.425,-195.181C160.059,-189.404 131.2,-177.902 115.5,-155 100.118,-132.563 134.211,-109.601 156.718,-97.5663"/>
<polygon fill="midnightblue" stroke="midnightblue" points="184.806,-198.626 195.303,-197.191 186.202,-191.767 184.806,-198.626"/>
</g>
<!-- Node6 -->
<g id="node6" class="node"><title>Node6</title>
<g id="a_node6"><a xlink:href="../../d2/d8e/interfaceIG_1_1Lib_1_1IReporterTextWriter.html" target="_top" xlink:title="Reporters that utilize writing messages to files. Messages are typically formatted as multi&#45;line mess...">
<polygon fill="white" stroke="black" points="124,-135.5 124,-154.5 225,-154.5 225,-135.5 124,-135.5"/>
<text text-anchor="middle" x="174.5" y="-142.5" font-family="Helvetica,sans-Serif" font-size="10.00">IReporterTextWriter</text>
</a>
</g>
</g>
<!-- Node5&#45;&gt;Node6 -->
<g id="edge6" class="edge"><title>Node5&#45;&gt;Node6</title>
<path fill="none" stroke="midnightblue" d="M217.499,-185.416C206.648,-175.469 192.983,-162.943 184.007,-154.715"/>
<polygon fill="midnightblue" stroke="midnightblue" points="215.388,-188.229 225.125,-192.406 220.118,-183.069 215.388,-188.229"/>
</g>
<!-- Node7 -->
<g id="node7" class="node"><title>Node7</title>
<g id="a_node7"><a xlink:href="../../d1/ddb/interfaceIG_1_1Lib_1_1IReporterTextLogger.html" target="_top" xlink:title="Reporters that utilize logging messages to files. IReporterTextLogger typically outputs (to a file) m...">
<polygon fill="white" stroke="black" points="243.5,-135.5 243.5,-154.5 347.5,-154.5 347.5,-135.5 243.5,-135.5"/>
<text text-anchor="middle" x="295.5" y="-142.5" font-family="Helvetica,sans-Serif" font-size="10.00">IReporterTextLogger</text>
</a>
</g>
</g>
<!-- Node5&#45;&gt;Node7 -->
<g id="edge8" class="edge"><title>Node5&#45;&gt;Node7</title>
<path fill="none" stroke="midnightblue" d="M251.46,-185.708C262.543,-175.715 276.619,-163.024 285.834,-154.715"/>
<polygon fill="midnightblue" stroke="midnightblue" points="249.114,-183.11 244.031,-192.406 253.802,-188.309 249.114,-183.11"/>
</g>
<!-- Node8 -->
<g id="node8" class="node"><title>Node8</title>
<g id="a_node8"><a xlink:href="../../d0/d0e/interfaceIG_1_1Lib_1_1IReporterTrace.html" target="_top" xlink:title="Reporters that utilize system&#39;s trace utility.">
<polygon fill="white" stroke="black" points="365.5,-135.5 365.5,-154.5 445.5,-154.5 445.5,-135.5 365.5,-135.5"/>
<text text-anchor="middle" x="405.5" y="-142.5" font-family="Helvetica,sans-Serif" font-size="10.00">IReporterTrace</text>
</a>
</g>
</g>
<!-- Node5&#45;&gt;Node8 -->
<g id="edge10" class="edge"><title>Node5&#45;&gt;Node8</title>
<path fill="none" stroke="midnightblue" d="M270.784,-189.33C303.201,-178.903 349.931,-163.873 378.969,-154.533"/>
<polygon fill="midnightblue" stroke="midnightblue" points="269.667,-186.012 261.219,-192.406 271.81,-192.676 269.667,-186.012"/>
</g>
<!-- Node6&#45;&gt;Node3 -->
<g id="edge5" class="edge"><title>Node6&#45;&gt;Node3</title>
<path fill="none" stroke="midnightblue" d="M174.5,-125.117C174.5,-115.817 174.5,-105.056 174.5,-97.7149"/>
<polygon fill="midnightblue" stroke="midnightblue" points="171,-125.406 174.5,-135.406 178,-125.406 171,-125.406"/>
</g>
<!-- Node7&#45;&gt;Node3 -->
<g id="edge7" class="edge"><title>Node7&#45;&gt;Node3</title>
<path fill="none" stroke="midnightblue" d="M267.417,-131.235C244.621,-120.873 213.112,-106.551 193.273,-97.5334"/>
<polygon fill="midnightblue" stroke="midnightblue" points="266.042,-134.454 276.594,-135.406 268.938,-128.082 266.042,-134.454"/>
</g>
<!-- Node8&#45;&gt;Node3 -->
<g id="edge9" class="edge"><title>Node8&#45;&gt;Node3</title>
<path fill="none" stroke="midnightblue" d="M359.829,-133.126C315.991,-122.688 250.668,-107.135 210.424,-97.5534"/>
<polygon fill="midnightblue" stroke="midnightblue" points="359.121,-136.555 369.66,-135.467 360.742,-129.745 359.121,-136.555"/>
</g>
</g>
</svg>
