<?xml version="1.0" encoding="UTF-8" standalone="no"?>
<!DOCTYPE svg PUBLIC "-//W3C//DTD SVG 1.1//EN"
 "http://www.w3.org/Graphics/SVG/1.1/DTD/svg11.dtd">
<!-- Generated by graphviz version 2.38.0 (20140413.2041)
 -->
<!-- Title: IG.Neural.INeuralApproximatorContainer Pages: 1 -->
<svg width="344pt" height="95pt"
 viewBox="0.00 0.00 343.50 95.00" xmlns="http://www.w3.org/2000/svg" xmlns:xlink="http://www.w3.org/1999/xlink">
<g id="graph0" class="graph" transform="scale(1 1) rotate(0) translate(4 91)">
<title>IG.Neural.INeuralApproximatorContainer</title>
<polygon fill="white" stroke="none" points="-4,4 -4,-91 339.5,-91 339.5,4 -4,4"/>
<!-- Node1 -->
<g id="node1" class="node"><title>Node1</title>
<g id="a_node1"><a xlink:title="Classes that contain neural approximator.">
<polygon fill="#bfbfbf" stroke="black" points="94.5,-56.5 94.5,-86.5 242.5,-86.5 242.5,-56.5 94.5,-56.5"/>
<text text-anchor="start" x="102.5" y="-74.5" font-family="Helvetica,sans-Serif" font-size="10.00">IG.Neural.INeuralApproximator</text>
<text text-anchor="middle" x="168.5" y="-63.5" font-family="Helvetica,sans-Serif" font-size="10.00">Container</text>
</a>
</g>
</g>
<!-- Node2 -->
<g id="node2" class="node"><title>Node2</title>
<g id="a_node2"><a xlink:href="../../d8/dc3/classIG_1_1Neural_1_1Forms_1_1NeuralControl2D.html" target="_top" xlink:title="A 2D neural network approximation demo control.">
<polygon fill="white" stroke="black" points="0,-0.5 0,-19.5 161,-19.5 161,-0.5 0,-0.5"/>
<text text-anchor="middle" x="80.5" y="-7.5" font-family="Helvetica,sans-Serif" font-size="10.00">IG.Neural.Forms.NeuralControl2D</text>
</a>
</g>
</g>
<!-- Node1&#45;&gt;Node2 -->
<g id="edge1" class="edge"><title>Node1&#45;&gt;Node2</title>
<path fill="none" stroke="midnightblue" d="M139.329,-50.7764C123.733,-40.2315 105.322,-27.7834 93.3048,-19.6578"/>
<polygon fill="midnightblue" stroke="midnightblue" points="137.401,-53.6975 147.645,-56.3993 141.322,-47.8986 137.401,-53.6975"/>
</g>
<!-- Node3 -->
<g id="node3" class="node"><title>Node3</title>
<g id="a_node3"><a xlink:href="../../d0/d10/classIG_1_1Neural_1_1Forms_1_1NeuralDemo1D.html" target="_top" xlink:title="A 1D neural network approximation demo control.">
<polygon fill="white" stroke="black" points="179.5,-0.5 179.5,-19.5 335.5,-19.5 335.5,-0.5 179.5,-0.5"/>
<text text-anchor="middle" x="257.5" y="-7.5" font-family="Helvetica,sans-Serif" font-size="10.00">IG.Neural.Forms.NeuralDemo1D</text>
</a>
</g>
</g>
<!-- Node1&#45;&gt;Node3 -->
<g id="edge2" class="edge"><title>Node1&#45;&gt;Node3</title>
<path fill="none" stroke="midnightblue" d="M198.003,-50.7764C213.776,-40.2315 232.395,-27.7834 244.55,-19.6578"/>
<polygon fill="midnightblue" stroke="midnightblue" points="195.96,-47.9318 189.592,-56.3993 199.85,-53.7512 195.96,-47.9318"/>
</g>
</g>
</svg>
