<?xml version="1.0" encoding="UTF-8" standalone="no"?>
<!DOCTYPE svg PUBLIC "-//W3C//DTD SVG 1.1//EN"
 "http://www.w3.org/Graphics/SVG/1.1/DTD/svg11.dtd">
<!-- Generated by graphviz version 2.38.0 (20140413.2041)
 -->
<!-- Title: NUnit.Engine.IService Pages: 1 -->
<svg width="684pt" height="529pt"
 viewBox="0.00 0.00 684.00 529.00" xmlns="http://www.w3.org/2000/svg" xmlns:xlink="http://www.w3.org/1999/xlink">
<g id="graph0" class="graph" transform="scale(1 1) rotate(0) translate(4 525)">
<title>NUnit.Engine.IService</title>
<polygon fill="white" stroke="none" points="-4,4 -4,-525 680,-525 680,4 -4,4"/>
<!-- Node1 -->
<g id="node1" class="node"><title>Node1</title>
<g id="a_node1"><a xlink:title="The IService interface is implemented by all Services. Although it is extensible, it does not reside ...">
<polygon fill="#bfbfbf" stroke="black" points="0,-104 0,-123 110,-123 110,-104 0,-104"/>
<text text-anchor="middle" x="55" y="-111" font-family="Helvetica,sans-Serif" font-size="10.00">NUnit.Engine.IService</text>
</a>
</g>
</g>
<!-- Node2 -->
<g id="node2" class="node"><title>Node2</title>
<g id="a_node2"><a xlink:href="../../df/d6e/classNUnit_1_1Engine_1_1Services_1_1Service.html" target="_top" xlink:title="Abstract base class for services that can use it. Some Services already inherit from a different clas...">
<polygon fill="white" stroke="black" points="148,-275 148,-294 296,-294 296,-275 148,-275"/>
<text text-anchor="middle" x="222" y="-282" font-family="Helvetica,sans-Serif" font-size="10.00">NUnit.Engine.Services.Service</text>
</a>
</g>
</g>
<!-- Node1&#45;&gt;Node2 -->
<g id="edge1" class="edge"><title>Node1&#45;&gt;Node2</title>
<path fill="none" stroke="midnightblue" d="M72.3099,-130.403C106.532,-165.87 184.889,-247.076 211.759,-274.923"/>
<polygon fill="midnightblue" stroke="midnightblue" points="74.8063,-127.95 65.3439,-123.184 69.7689,-132.81 74.8063,-127.95"/>
</g>
<!-- Node13 -->
<g id="node13" class="node"><title>Node13</title>
<g id="a_node13"><a xlink:href="../../dc/d00/classNUnit_1_1Engine_1_1Services_1_1SettingsService.html" target="_top" xlink:title="Summary description for UserSettingsService.">
<polygon fill="white" stroke="black" points="146,-147.5 146,-177.5 298,-177.5 298,-147.5 146,-147.5"/>
<text text-anchor="start" x="154" y="-165.5" font-family="Helvetica,sans-Serif" font-size="10.00">NUnit.Engine.Services.Settings</text>
<text text-anchor="middle" x="222" y="-154.5" font-family="Helvetica,sans-Serif" font-size="10.00">Service</text>
</a>
</g>
</g>
<!-- Node1&#45;&gt;Node13 -->
<g id="edge12" class="edge"><title>Node1&#45;&gt;Node13</title>
<path fill="none" stroke="midnightblue" d="M97.9372,-125.954C119.977,-132.499 147.159,-140.571 170.365,-147.463"/>
<polygon fill="midnightblue" stroke="midnightblue" points="98.788,-122.556 88.2054,-123.064 96.7952,-129.266 98.788,-122.556"/>
</g>
<!-- Node14 -->
<g id="node14" class="node"><title>Node14</title>
<g id="a_node14"><a xlink:href="../../db/d77/classNUnit_1_1Engine_1_1Services_1_1TestAgency.html" target="_top" xlink:title="The TestAgency class provides RemoteTestAgents on request and tracks their status....">
<polygon fill="white" stroke="black" points="154.5,-98.5 154.5,-128.5 289.5,-128.5 289.5,-98.5 154.5,-98.5"/>
<text text-anchor="start" x="162.5" y="-116.5" font-family="Helvetica,sans-Serif" font-size="10.00">NUnit.Engine.Services.Test</text>
<text text-anchor="middle" x="222" y="-105.5" font-family="Helvetica,sans-Serif" font-size="10.00">Agency</text>
</a>
</g>
</g>
<!-- Node1&#45;&gt;Node14 -->
<g id="edge13" class="edge"><title>Node1&#45;&gt;Node14</title>
<path fill="none" stroke="midnightblue" d="M120.191,-113.5C131.433,-113.5 143.153,-113.5 154.457,-113.5"/>
<polygon fill="midnightblue" stroke="midnightblue" points="120.027,-110 110.027,-113.5 120.027,-117 120.027,-110"/>
</g>
<!-- Node15 -->
<g id="node15" class="node"><title>Node15</title>
<g id="a_node15"><a xlink:href="../../d5/d01/classNUnit_1_1Engine_1_1Services_1_1Tests_1_1Fakes_1_1FakeService.html" target="_top" xlink:title=" ">
<polygon fill="white" stroke="black" points="150.5,-49.5 150.5,-79.5 293.5,-79.5 293.5,-49.5 150.5,-49.5"/>
<text text-anchor="start" x="158.5" y="-67.5" font-family="Helvetica,sans-Serif" font-size="10.00">NUnit.Engine.Services.Tests.</text>
<text text-anchor="middle" x="222" y="-56.5" font-family="Helvetica,sans-Serif" font-size="10.00">Fakes.FakeService</text>
</a>
</g>
</g>
<!-- Node1&#45;&gt;Node15 -->
<g id="edge14" class="edge"><title>Node1&#45;&gt;Node15</title>
<path fill="none" stroke="midnightblue" d="M97.9372,-101.046C119.977,-94.5008 147.159,-86.4287 170.365,-79.537"/>
<polygon fill="midnightblue" stroke="midnightblue" points="96.7952,-97.7339 88.2054,-103.936 98.788,-104.444 96.7952,-97.7339"/>
</g>
<!-- Node18 -->
<g id="node18" class="node"><title>Node18</title>
<g id="a_node18"><a xlink:href="../../df/deb/classNUnit_1_1Engine_1_1Services_1_1Tests_1_1Fakes_1_1FakeSettingsService.html" target="_top" xlink:title=" ">
<polygon fill="white" stroke="black" points="150.5,-0.5 150.5,-30.5 293.5,-30.5 293.5,-0.5 150.5,-0.5"/>
<text text-anchor="start" x="158.5" y="-18.5" font-family="Helvetica,sans-Serif" font-size="10.00">NUnit.Engine.Services.Tests.</text>
<text text-anchor="middle" x="222" y="-7.5" font-family="Helvetica,sans-Serif" font-size="10.00">Fakes.FakeSettingsService</text>
</a>
</g>
</g>
<!-- Node1&#45;&gt;Node18 -->
<g id="edge17" class="edge"><title>Node1&#45;&gt;Node18</title>
<path fill="none" stroke="midnightblue" d="M72.5368,-96.5706C89.5834,-79.9721 117.608,-54.9712 146,-39.5 152.122,-36.1639 158.782,-33.2045 165.522,-30.6041"/>
<polygon fill="midnightblue" stroke="midnightblue" points="69.722,-94.4335 65.0967,-103.965 74.6567,-99.3983 69.722,-94.4335"/>
</g>
<!-- Node3 -->
<g id="node3" class="node"><title>Node3</title>
<g id="a_node3"><a xlink:href="../../de/d4f/classNUnit_1_1Engine_1_1Services_1_1DomainManager.html" target="_top" xlink:title="The DomainManager class handles the creation and unloading of domains as needed and keeps track of al...">
<polygon fill="white" stroke="black" points="339.5,-490.5 339.5,-520.5 488.5,-520.5 488.5,-490.5 339.5,-490.5"/>
<text text-anchor="start" x="347.5" y="-508.5" font-family="Helvetica,sans-Serif" font-size="10.00">NUnit.Engine.Services.Domain</text>
<text text-anchor="middle" x="414" y="-497.5" font-family="Helvetica,sans-Serif" font-size="10.00">Manager</text>
</a>
</g>
</g>
<!-- Node2&#45;&gt;Node3 -->
<g id="edge2" class="edge"><title>Node2&#45;&gt;Node3</title>
<path fill="none" stroke="midnightblue" d="M228.619,-304.192C240.938,-343.805 274.112,-433.436 334,-481.5 338.248,-484.909 342.976,-487.835 347.947,-490.346"/>
<polygon fill="midnightblue" stroke="midnightblue" points="231.914,-302.997 225.692,-294.422 225.209,-305.005 231.914,-302.997"/>
</g>
<!-- Node4 -->
<g id="node4" class="node"><title>Node4</title>
<g id="a_node4"><a xlink:href="../../de/d00/classNUnit_1_1Engine_1_1Services_1_1DriverService.html" target="_top" xlink:title="The DriverService provides drivers able to load and run tests using various frameworks.">
<polygon fill="white" stroke="black" points="344,-441.5 344,-471.5 484,-471.5 484,-441.5 344,-441.5"/>
<text text-anchor="start" x="352" y="-459.5" font-family="Helvetica,sans-Serif" font-size="10.00">NUnit.Engine.Services.Driver</text>
<text text-anchor="middle" x="414" y="-448.5" font-family="Helvetica,sans-Serif" font-size="10.00">Service</text>
</a>
</g>
</g>
<!-- Node2&#45;&gt;Node4 -->
<g id="edge3" class="edge"><title>Node2&#45;&gt;Node4</title>
<path fill="none" stroke="midnightblue" d="M231.947,-303.103C247.987,-334.488 284.629,-397.912 334,-432.5 338.931,-435.954 344.37,-438.921 350.018,-441.468"/>
<polygon fill="midnightblue" stroke="midnightblue" points="235.063,-301.508 227.473,-294.115 228.796,-304.627 235.063,-301.508"/>
</g>
<!-- Node5 -->
<g id="node5" class="node"><title>Node5</title>
<g id="a_node5"><a xlink:href="../../df/d71/classNUnit_1_1Engine_1_1Services_1_1ExtensionService.html" target="_top" xlink:title="The ExtensionService discovers ExtensionPoints and Extensions and maintains them in a database....">
<polygon fill="white" stroke="black" points="334,-392.5 334,-422.5 494,-422.5 494,-392.5 334,-392.5"/>
<text text-anchor="start" x="342" y="-410.5" font-family="Helvetica,sans-Serif" font-size="10.00">NUnit.Engine.Services.Extension</text>
<text text-anchor="middle" x="414" y="-399.5" font-family="Helvetica,sans-Serif" font-size="10.00">Service</text>
</a>
</g>
</g>
<!-- Node2&#45;&gt;Node5 -->
<g id="edge4" class="edge"><title>Node2&#45;&gt;Node5</title>
<path fill="none" stroke="midnightblue" d="M237.881,-301.771C257.71,-323.76 294.869,-361.528 334,-383.5 339.999,-386.869 346.526,-389.818 353.172,-392.386"/>
<polygon fill="midnightblue" stroke="midnightblue" points="240.411,-299.349 231.162,-294.182 235.17,-303.989 240.411,-299.349"/>
</g>
<!-- Node6 -->
<g id="node6" class="node"><title>Node6</title>
<g id="a_node6"><a xlink:href="../../db/df5/classNUnit_1_1Engine_1_1Services_1_1InProcessTestRunnerFactory.html" target="_top" xlink:title="InProcessTestRunnerFactory handles creation of a suitable test runner for a given package to be loade...">
<polygon fill="white" stroke="black" points="346.5,-343.5 346.5,-373.5 481.5,-373.5 481.5,-343.5 346.5,-343.5"/>
<text text-anchor="start" x="354.5" y="-361.5" font-family="Helvetica,sans-Serif" font-size="10.00">NUnit.Engine.Services.In</text>
<text text-anchor="middle" x="414" y="-350.5" font-family="Helvetica,sans-Serif" font-size="10.00">ProcessTestRunnerFactory</text>
</a>
</g>
</g>
<!-- Node2&#45;&gt;Node6 -->
<g id="edge5" class="edge"><title>Node2&#45;&gt;Node6</title>
<path fill="none" stroke="midnightblue" d="M251.978,-298.334C274.167,-308.672 305.676,-322.803 334,-333.5 343.151,-336.956 353.015,-340.34 362.567,-343.446"/>
<polygon fill="midnightblue" stroke="midnightblue" points="253.32,-295.098 242.78,-294.018 250.346,-301.435 253.32,-295.098"/>
</g>
<!-- Node8 -->
<g id="node8" class="node"><title>Node8</title>
<g id="a_node8"><a xlink:href="../../da/dfb/classNUnit_1_1Engine_1_1Services_1_1ProjectService.html" target="_top" xlink:title="Summary description for ProjectService.">
<polygon fill="white" stroke="black" points="340.5,-294.5 340.5,-324.5 487.5,-324.5 487.5,-294.5 340.5,-294.5"/>
<text text-anchor="start" x="348.5" y="-312.5" font-family="Helvetica,sans-Serif" font-size="10.00">NUnit.Engine.Services.Project</text>
<text text-anchor="middle" x="414" y="-301.5" font-family="Helvetica,sans-Serif" font-size="10.00">Service</text>
</a>
</g>
</g>
<!-- Node2&#45;&gt;Node8 -->
<g id="edge7" class="edge"><title>Node2&#45;&gt;Node8</title>
<path fill="none" stroke="midnightblue" d="M305.452,-295.349C317.016,-296.871 328.832,-298.425 340.199,-299.921"/>
<polygon fill="midnightblue" stroke="midnightblue" points="305.744,-291.857 295.373,-294.023 304.831,-298.797 305.744,-291.857"/>
</g>
<!-- Node9 -->
<g id="node9" class="node"><title>Node9</title>
<g id="a_node9"><a xlink:href="../../d1/df7/classNUnit_1_1Engine_1_1Services_1_1RecentFilesService.html" target="_top" xlink:title="Summary description for RecentFilesService.">
<polygon fill="white" stroke="black" points="340.5,-245.5 340.5,-275.5 487.5,-275.5 487.5,-245.5 340.5,-245.5"/>
<text text-anchor="start" x="348.5" y="-263.5" font-family="Helvetica,sans-Serif" font-size="10.00">NUnit.Engine.Services.Recent</text>
<text text-anchor="middle" x="414" y="-252.5" font-family="Helvetica,sans-Serif" font-size="10.00">FilesService</text>
</a>
</g>
</g>
<!-- Node2&#45;&gt;Node9 -->
<g id="edge8" class="edge"><title>Node2&#45;&gt;Node9</title>
<path fill="none" stroke="midnightblue" d="M306.157,-273.996C317.59,-272.552 329.256,-271.078 340.477,-269.661"/>
<polygon fill="midnightblue" stroke="midnightblue" points="305.67,-270.53 296.187,-275.255 306.547,-277.474 305.67,-270.53"/>
</g>
<!-- Node10 -->
<g id="node10" class="node"><title>Node10</title>
<g id="a_node10"><a xlink:href="../../d5/d85/classNUnit_1_1Engine_1_1Services_1_1ResultService.html" target="_top" xlink:title=" ">
<polygon fill="white" stroke="black" points="342,-196.5 342,-226.5 486,-226.5 486,-196.5 342,-196.5"/>
<text text-anchor="start" x="350" y="-214.5" font-family="Helvetica,sans-Serif" font-size="10.00">NUnit.Engine.Services.Result</text>
<text text-anchor="middle" x="414" y="-203.5" font-family="Helvetica,sans-Serif" font-size="10.00">Service</text>
</a>
</g>
</g>
<!-- Node2&#45;&gt;Node10 -->
<g id="edge9" class="edge"><title>Node2&#45;&gt;Node10</title>
<path fill="none" stroke="midnightblue" d="M251.943,-270.571C274.113,-260.185 305.615,-246.033 334,-235.5 342.332,-232.408 351.262,-229.406 360.012,-226.632"/>
<polygon fill="midnightblue" stroke="midnightblue" points="250.301,-267.476 242.753,-274.911 253.29,-273.805 250.301,-267.476"/>
</g>
<!-- Node11 -->
<g id="node11" class="node"><title>Node11</title>
<g id="a_node11"><a xlink:href="../../da/d5b/classNUnit_1_1Engine_1_1Services_1_1RuntimeFrameworkService.html" target="_top" xlink:title=" ">
<polygon fill="white" stroke="black" points="338,-147.5 338,-177.5 490,-177.5 490,-147.5 338,-147.5"/>
<text text-anchor="start" x="346" y="-165.5" font-family="Helvetica,sans-Serif" font-size="10.00">NUnit.Engine.Services.Runtime</text>
<text text-anchor="middle" x="414" y="-154.5" font-family="Helvetica,sans-Serif" font-size="10.00">FrameworkService</text>
</a>
</g>
</g>
<!-- Node2&#45;&gt;Node11 -->
<g id="edge10" class="edge"><title>Node2&#45;&gt;Node11</title>
<path fill="none" stroke="midnightblue" d="M237.918,-267.411C257.787,-245.653 294.988,-208.276 334,-186.5 340.008,-183.146 346.54,-180.207 353.189,-177.644"/>
<polygon fill="midnightblue" stroke="midnightblue" points="235.254,-265.139 231.184,-274.92 240.466,-269.812 235.254,-265.139"/>
</g>
<!-- Node12 -->
<g id="node12" class="node"><title>Node12</title>
<g id="a_node12"><a xlink:href="../../d8/da5/classNUnit_1_1Engine_1_1Services_1_1TestFilterService.html" target="_top" xlink:title=" ">
<polygon fill="white" stroke="black" points="346.5,-98.5 346.5,-128.5 481.5,-128.5 481.5,-98.5 346.5,-98.5"/>
<text text-anchor="start" x="354.5" y="-116.5" font-family="Helvetica,sans-Serif" font-size="10.00">NUnit.Engine.Services.Test</text>
<text text-anchor="middle" x="414" y="-105.5" font-family="Helvetica,sans-Serif" font-size="10.00">FilterService</text>
</a>
</g>
</g>
<!-- Node2&#45;&gt;Node12 -->
<g id="edge11" class="edge"><title>Node2&#45;&gt;Node12</title>
<path fill="none" stroke="midnightblue" d="M236.718,-266.792C251.837,-247.226 276.822,-214.742 298,-186.5 314.213,-164.88 311.944,-153.115 334,-137.5 338.797,-134.104 344.083,-131.18 349.58,-128.665"/>
<polygon fill="midnightblue" stroke="midnightblue" points="233.865,-264.76 230.515,-274.811 239.402,-269.043 233.865,-264.76"/>
</g>
<!-- Node7 -->
<g id="node7" class="node"><title>Node7</title>
<g id="a_node7"><a xlink:href="../../d1/d7b/classNUnit_1_1Engine_1_1Services_1_1DefaultTestRunnerFactory.html" target="_top" xlink:title="DefaultTestRunnerFactory handles creation of a suitable test runner for a given package to be loaded ...">
<polygon fill="white" stroke="black" points="530,-343.5 530,-373.5 676,-373.5 676,-343.5 530,-343.5"/>
<text text-anchor="start" x="538" y="-361.5" font-family="Helvetica,sans-Serif" font-size="10.00">NUnit.Engine.Services.Default</text>
<text text-anchor="middle" x="603" y="-350.5" font-family="Helvetica,sans-Serif" font-size="10.00">TestRunnerFactory</text>
</a>
</g>
</g>
<!-- Node6&#45;&gt;Node7 -->
<g id="edge6" class="edge"><title>Node6&#45;&gt;Node7</title>
<path fill="none" stroke="midnightblue" d="M491.736,-358.5C504.363,-358.5 517.41,-358.5 529.918,-358.5"/>
<polygon fill="midnightblue" stroke="midnightblue" points="491.719,-355 481.719,-358.5 491.719,-362 491.719,-355"/>
</g>
<!-- Node16 -->
<g id="node16" class="node"><title>Node16</title>
<g id="a_node16"><a xlink:href="../../de/d66/classNUnit_1_1Engine_1_1Services_1_1Tests_1_1Fakes_1_1FakeProjectService.html" target="_top" xlink:title=" ">
<polygon fill="white" stroke="black" points="342.5,-49.5 342.5,-79.5 485.5,-79.5 485.5,-49.5 342.5,-49.5"/>
<text text-anchor="start" x="350.5" y="-67.5" font-family="Helvetica,sans-Serif" font-size="10.00">NUnit.Engine.Services.Tests.</text>
<text text-anchor="middle" x="414" y="-56.5" font-family="Helvetica,sans-Serif" font-size="10.00">Fakes.FakeProjectService</text>
</a>
</g>
</g>
<!-- Node15&#45;&gt;Node16 -->
<g id="edge15" class="edge"><title>Node15&#45;&gt;Node16</title>
<path fill="none" stroke="midnightblue" d="M303.874,-64.5C316.615,-64.5 329.702,-64.5 342.192,-64.5"/>
<polygon fill="midnightblue" stroke="midnightblue" points="303.749,-61.0001 293.749,-64.5 303.749,-68.0001 303.749,-61.0001"/>
</g>
<!-- Node17 -->
<g id="node17" class="node"><title>Node17</title>
<g id="a_node17"><a xlink:href="../../df/df4/classNUnit_1_1Engine_1_1Services_1_1Tests_1_1Fakes_1_1FakeRuntimeService.html" target="_top" xlink:title=" ">
<polygon fill="white" stroke="black" points="342.5,-0.5 342.5,-30.5 485.5,-30.5 485.5,-0.5 342.5,-0.5"/>
<text text-anchor="start" x="350.5" y="-18.5" font-family="Helvetica,sans-Serif" font-size="10.00">NUnit.Engine.Services.Tests.</text>
<text text-anchor="middle" x="414" y="-7.5" font-family="Helvetica,sans-Serif" font-size="10.00">Fakes.FakeRuntimeService</text>
</a>
</g>
</g>
<!-- Node15&#45;&gt;Node17 -->
<g id="edge16" class="edge"><title>Node15&#45;&gt;Node17</title>
<path fill="none" stroke="midnightblue" d="M291.05,-46.9502C311.915,-41.5694 334.67,-35.701 354.813,-30.5062"/>
<polygon fill="midnightblue" stroke="midnightblue" points="290.107,-43.579 281.297,-49.4654 291.855,-50.3572 290.107,-43.579"/>
</g>
</g>
</svg>
