<?xml version="1.0" encoding="UTF-8" standalone="no"?>
<!DOCTYPE svg PUBLIC "-//W3C//DTD SVG 1.1//EN"
 "http://www.w3.org/Graphics/SVG/1.1/DTD/svg11.dtd">
<!-- Generated by graphviz version 2.38.0 (20140413.2041)
 -->
<!-- Title: IG.Script.S_12_03_paper_gk Pages: 1 -->
<svg width="652pt" height="621pt"
 viewBox="0.00 0.00 652.18 621.00" xmlns="http://www.w3.org/2000/svg" xmlns:xlink="http://www.w3.org/1999/xlink">
<g id="graph0" class="graph" transform="scale(1 1) rotate(0) translate(4 617)">
<title>IG.Script.S_12_03_paper_gk</title>
<polygon fill="white" stroke="none" points="-4,4 -4,-617 648.18,-617 648.18,4 -4,4"/>
<!-- Node1 -->
<g id="node1" class="node"><title>Node1</title>
<g id="a_node1"><a xlink:title=" ">
<polygon fill="#bfbfbf" stroke="black" points="0,-0.5 0,-19.5 141,-19.5 141,-0.5 0,-0.5"/>
<text text-anchor="middle" x="70.5" y="-7.5" font-family="Helvetica,sans-Serif" font-size="10.00">IG.Script.S_12_03_paper_gk</text>
</a>
</g>
</g>
<!-- Node2 -->
<g id="node2" class="node"><title>Node2</title>
<g id="a_node2"><a xlink:href="../../d5/d3c/classIG_1_1Script_1_1LoadableScriptShellNeuralIT.html" target="_top" xlink:title="Base class for loadable scripts that are used as custom applications that inclued neural networks app...">
<polygon fill="white" stroke="black" points="50.5,-56.5 50.5,-75.5 188.5,-75.5 188.5,-56.5 50.5,-56.5"/>
<text text-anchor="middle" x="119.5" y="-63.5" font-family="Helvetica,sans-Serif" font-size="10.00">LoadableScriptShellNeuralIT</text>
</a>
</g>
</g>
<!-- Node2&#45;&gt;Node1 -->
<g id="edge1" class="edge"><title>Node2&#45;&gt;Node1</title>
<path fill="none" stroke="midnightblue" d="M104.466,-48.4314C95.8778,-38.9673 85.4565,-27.4827 78.4408,-19.7511"/>
<polygon fill="midnightblue" stroke="midnightblue" points="102.097,-51.0293 111.409,-56.083 107.281,-46.3254 102.097,-51.0293"/>
</g>
<!-- Node3 -->
<g id="node3" class="node"><title>Node3</title>
<g id="a_node3"><a xlink:href="../../d8/dd6/classIG_1_1Script_1_1LoadableScriptShellNeuralITOriginalBase.html" target="_top" xlink:title="Base class for loadable scripts that are used as custom applications that inclued neural networks app...">
<polygon fill="white" stroke="black" points="89,-112.5 89,-142.5 220,-142.5 220,-112.5 89,-112.5"/>
<text text-anchor="start" x="97" y="-130.5" font-family="Helvetica,sans-Serif" font-size="10.00">LoadableScriptShellNeural</text>
<text text-anchor="middle" x="154.5" y="-119.5" font-family="Helvetica,sans-Serif" font-size="10.00">ITOriginalBase</text>
</a>
</g>
</g>
<!-- Node3&#45;&gt;Node2 -->
<g id="edge2" class="edge"><title>Node3&#45;&gt;Node2</title>
<path fill="none" stroke="midnightblue" d="M140.972,-103.502C135.23,-93.7406 128.886,-82.9558 124.593,-75.6578"/>
<polygon fill="midnightblue" stroke="midnightblue" points="138.118,-105.555 146.205,-112.399 144.152,-102.005 138.118,-105.555"/>
</g>
<!-- Node4 -->
<g id="node4" class="node"><title>Node4</title>
<g id="a_node4"><a xlink:href="../../de/d7f/classIG_1_1Script_1_1ScriptShellNeuralWithSimulatorManagers.html" target="_top" xlink:title="Neural script class with added simulatior managers.">
<polygon fill="white" stroke="black" points="165,-179.5 165,-209.5 318,-209.5 318,-179.5 165,-179.5"/>
<text text-anchor="start" x="173" y="-197.5" font-family="Helvetica,sans-Serif" font-size="10.00">ScriptShellNeuralWithSimulator</text>
<text text-anchor="middle" x="241.5" y="-186.5" font-family="Helvetica,sans-Serif" font-size="10.00">Managers</text>
</a>
</g>
</g>
<!-- Node4&#45;&gt;Node3 -->
<g id="edge3" class="edge"><title>Node4&#45;&gt;Node3</title>
<path fill="none" stroke="midnightblue" d="M214.286,-173.168C200.982,-163.228 185.304,-151.514 173.341,-142.577"/>
<polygon fill="midnightblue" stroke="midnightblue" points="212.516,-176.215 222.622,-179.396 216.706,-170.607 212.516,-176.215"/>
</g>
<!-- Node5 -->
<g id="node5" class="node"><title>Node5</title>
<g id="a_node5"><a xlink:href="../../d1/d30/classIG_1_1Script_1_1LoadableScriptShellNeural.html" target="_top" xlink:title="Base class for loadable scripts that are used as custom applications that inclued neural networks app...">
<polygon fill="white" stroke="black" points="214,-246.5 214,-265.5 345,-265.5 345,-246.5 214,-246.5"/>
<text text-anchor="middle" x="279.5" y="-253.5" font-family="Helvetica,sans-Serif" font-size="10.00">LoadableScriptShellNeural</text>
</a>
</g>
</g>
<!-- Node5&#45;&gt;Node4 -->
<g id="edge4" class="edge"><title>Node5&#45;&gt;Node4</title>
<path fill="none" stroke="midnightblue" d="M268.619,-237.963C262.867,-228.956 255.892,-218.034 250.456,-209.523"/>
<polygon fill="midnightblue" stroke="midnightblue" points="265.723,-239.931 274.056,-246.475 271.623,-236.163 265.723,-239.931"/>
</g>
<!-- Node6 -->
<g id="node6" class="node"><title>Node6</title>
<g id="a_node6"><a xlink:href="../../dc/d0c/classIG_1_1Script_1_1LoadableScriptShellNeuralBase.html" target="_top" xlink:title="Base class for loadable scripts that are used as custom applications that inclued neural networks app...">
<polygon fill="white" stroke="black" points="203,-302.5 203,-321.5 356,-321.5 356,-302.5 203,-302.5"/>
<text text-anchor="middle" x="279.5" y="-309.5" font-family="Helvetica,sans-Serif" font-size="10.00">LoadableScriptShellNeuralBase</text>
</a>
</g>
</g>
<!-- Node6&#45;&gt;Node5 -->
<g id="edge5" class="edge"><title>Node6&#45;&gt;Node5</title>
<path fill="none" stroke="midnightblue" d="M279.5,-291.805C279.5,-282.91 279.5,-272.78 279.5,-265.751"/>
<polygon fill="midnightblue" stroke="midnightblue" points="276,-292.083 279.5,-302.083 283,-292.083 276,-292.083"/>
</g>
<!-- Node7 -->
<g id="node7" class="node"><title>Node7</title>
<g id="a_node7"><a xlink:href="../../d6/d59/classIG_1_1Lib_1_1LoadableScriptShellBase.html" target="_top" xlink:title="Loadable script base class for the shell application that includes tols for definition of optiimizati...">
<polygon fill="white" stroke="black" points="421,-358.5 421,-377.5 546,-377.5 546,-358.5 421,-358.5"/>
<text text-anchor="middle" x="483.5" y="-365.5" font-family="Helvetica,sans-Serif" font-size="10.00">LoadableScriptShellBase</text>
</a>
</g>
</g>
<!-- Node7&#45;&gt;Node6 -->
<g id="edge6" class="edge"><title>Node7&#45;&gt;Node6</title>
<path fill="none" stroke="midnightblue" d="M441.299,-355.829C402.782,-345.633 346.678,-330.782 311.673,-321.516"/>
<polygon fill="midnightblue" stroke="midnightblue" points="440.613,-359.268 451.176,-358.444 442.404,-352.501 440.613,-359.268"/>
</g>
<!-- Node8 -->
<g id="node8" class="node"><title>Node8</title>
<g id="a_node8"><a xlink:href="../../d7/d31/classIG_1_1Lib_1_1LoadableScriptOptShellBaseControllable.html" target="_top" xlink:title="Controllable version of LoadableScriptOptBase, implements the ILoadableScriptC interface.">
<polygon fill="white" stroke="black" points="462,-414.5 462,-444.5 603,-444.5 603,-414.5 462,-414.5"/>
<text text-anchor="start" x="470" y="-432.5" font-family="Helvetica,sans-Serif" font-size="10.00">LoadableScriptOptShellBase</text>
<text text-anchor="middle" x="532.5" y="-421.5" font-family="Helvetica,sans-Serif" font-size="10.00">Controllable</text>
</a>
</g>
</g>
<!-- Node8&#45;&gt;Node7 -->
<g id="edge7" class="edge"><title>Node8&#45;&gt;Node7</title>
<path fill="none" stroke="midnightblue" d="M514.304,-406.404C506.074,-396.411 496.826,-385.181 490.63,-377.658"/>
<polygon fill="midnightblue" stroke="midnightblue" points="511.829,-408.905 520.888,-414.399 517.232,-404.455 511.829,-408.905"/>
</g>
<!-- Node9 -->
<g id="node9" class="node"><title>Node9</title>
<g id="a_node9"><a xlink:href="../../d5/d05/classIG_1_1Lib_1_1LoadableScriptOptBase.html" target="_top" xlink:title="Base class for loadable scripts for optimization problems. AGREEMENTS: The first argument to initiali...">
<polygon fill="white" stroke="black" points="479,-481.5 479,-500.5 598,-500.5 598,-481.5 479,-481.5"/>
<text text-anchor="middle" x="538.5" y="-488.5" font-family="Helvetica,sans-Serif" font-size="10.00">LoadableScriptOptBase</text>
</a>
</g>
</g>
<!-- Node9&#45;&gt;Node8 -->
<g id="edge8" class="edge"><title>Node9&#45;&gt;Node8</title>
<path fill="none" stroke="midnightblue" d="M536.608,-471.235C535.736,-462.586 534.718,-452.497 533.914,-444.523"/>
<polygon fill="midnightblue" stroke="midnightblue" points="533.155,-471.877 537.64,-481.475 540.119,-471.174 533.155,-471.877"/>
</g>
<!-- Node10 -->
<g id="node10" class="node"><title>Node10</title>
<g id="a_node10"><a xlink:href="../../d7/d15/classIG_1_1Lib_1_1LoadableScriptBase.html" target="_top" xlink:title="Base class for classes that can be dynamically loadeded from scripts and run, which provides function...">
<polygon fill="white" stroke="black" points="456.5,-537.5 456.5,-556.5 560.5,-556.5 560.5,-537.5 456.5,-537.5"/>
<text text-anchor="middle" x="508.5" y="-544.5" font-family="Helvetica,sans-Serif" font-size="10.00">LoadableScriptBase</text>
</a>
</g>
</g>
<!-- Node10&#45;&gt;Node9 -->
<g id="edge9" class="edge"><title>Node10&#45;&gt;Node9</title>
<path fill="none" stroke="midnightblue" d="M518.347,-528.275C523.475,-519.045 529.516,-508.17 533.638,-500.751"/>
<polygon fill="midnightblue" stroke="midnightblue" points="515.251,-526.642 513.454,-537.083 521.37,-530.041 515.251,-526.642"/>
</g>
<!-- Node11 -->
<g id="node11" class="node"><title>Node11</title>
<g id="a_node11"><a xlink:href="../../d7/d66/interfaceIG_1_1Lib_1_1ILoadableScript.html" target="_top" xlink:title="Interface for classes that can be dynamically loadeded from scripts and run, which provides functiona...">
<polygon fill="white" stroke="black" points="263,-593.5 263,-612.5 346,-612.5 346,-593.5 263,-593.5"/>
<text text-anchor="middle" x="304.5" y="-600.5" font-family="Helvetica,sans-Serif" font-size="10.00">ILoadableScript</text>
</a>
</g>
</g>
<!-- Node11&#45;&gt;Node1 -->
<g id="edge26" class="edge"><title>Node11&#45;&gt;Node1</title>
<path fill="none" stroke="midnightblue" d="M252.425,-602.046C203.001,-599.85 128.33,-590.538 73.5,-557 42.1753,-537.84 22.5,-528.72 22.5,-492 22.5,-492 22.5,-492 22.5,-126.5 22.5,-94.0487 28.3313,-85.6592 41.5,-56 47.5346,-42.4086 57.3541,-28.2283 63.8701,-19.5044"/>
<polygon fill="midnightblue" stroke="midnightblue" points="252.452,-605.549 262.572,-602.413 252.705,-598.554 252.452,-605.549"/>
</g>
<!-- Node11&#45;&gt;Node2 -->
<g id="edge25" class="edge"><title>Node11&#45;&gt;Node2</title>
<path fill="none" stroke="midnightblue" d="M252.637,-600.779C180.999,-596.022 60.5,-575.595 60.5,-492 60.5,-492 60.5,-492 60.5,-193.5 60.5,-156.306 62.3961,-145.027 79.5,-112 86.9987,-97.5201 100.212,-83.9774 109.39,-75.6066"/>
<polygon fill="midnightblue" stroke="midnightblue" points="252.646,-604.285 262.832,-601.373 253.053,-597.297 252.646,-604.285"/>
</g>
<!-- Node11&#45;&gt;Node3 -->
<g id="edge23" class="edge"><title>Node11&#45;&gt;Node3</title>
<path fill="none" stroke="midnightblue" d="M252.567,-596.774C191.542,-587.433 98.5,-561.753 98.5,-492 98.5,-492 98.5,-492 98.5,-255 98.5,-211.048 127.116,-165.292 143.436,-142.771"/>
<polygon fill="midnightblue" stroke="midnightblue" points="252.419,-600.288 262.813,-598.237 253.408,-593.358 252.419,-600.288"/>
</g>
<!-- Node11&#45;&gt;Node4 -->
<g id="edge22" class="edge"><title>Node11&#45;&gt;Node4</title>
<path fill="none" stroke="midnightblue" d="M269.459,-589.75C230.956,-573.787 174.5,-541.877 174.5,-492 174.5,-492 174.5,-492 174.5,-311 174.5,-269.737 206.892,-230.016 226.631,-209.641"/>
<polygon fill="midnightblue" stroke="midnightblue" points="268.23,-593.028 278.816,-593.466 270.814,-586.522 268.23,-593.028"/>
</g>
<!-- Node11&#45;&gt;Node5 -->
<g id="edge21" class="edge"><title>Node11&#45;&gt;Node5</title>
<path fill="none" stroke="midnightblue" d="M311.403,-583.76C332.619,-526.385 393.713,-350.52 364.5,-302 353.39,-283.547 331.893,-272.265 313.299,-265.612"/>
<polygon fill="midnightblue" stroke="midnightblue" points="308.056,-582.719 307.833,-593.311 314.613,-585.17 308.056,-582.719"/>
</g>
<!-- Node11&#45;&gt;Node6 -->
<g id="edge19" class="edge"><title>Node11&#45;&gt;Node6</title>
<path fill="none" stroke="midnightblue" d="M304.5,-583.251C304.5,-561.357 304.5,-524.052 304.5,-492 304.5,-492 304.5,-492 304.5,-428.5 304.5,-387.672 289.393,-340.527 282.666,-321.556"/>
<polygon fill="midnightblue" stroke="midnightblue" points="301,-583.442 304.5,-593.442 308,-583.442 301,-583.442"/>
</g>
<!-- Node11&#45;&gt;Node9 -->
<g id="edge12" class="edge"><title>Node11&#45;&gt;Node9</title>
<path fill="none" stroke="midnightblue" d="M332.109,-589.021C380.504,-566.272 479.381,-519.791 520.224,-500.591"/>
<polygon fill="midnightblue" stroke="midnightblue" points="330.423,-585.947 322.862,-593.368 333.401,-592.282 330.423,-585.947"/>
</g>
<!-- Node11&#45;&gt;Node10 -->
<g id="edge10" class="edge"><title>Node11&#45;&gt;Node10</title>
<path fill="none" stroke="midnightblue" d="M346.701,-590.829C385.218,-580.633 441.322,-565.782 476.327,-556.516"/>
<polygon fill="midnightblue" stroke="midnightblue" points="345.596,-587.501 336.824,-593.444 347.387,-594.268 345.596,-587.501"/>
</g>
<!-- Node13 -->
<g id="node13" class="node"><title>Node13</title>
<g id="a_node13"><a xlink:href="../../d1/dca/interfaceIG_1_1Lib_1_1ILoadableScriptC.html" target="_top" xlink:title="Controllable loadable script, provides more control over loading and execution.">
<polygon fill="white" stroke="black" points="370.5,-481.5 370.5,-500.5 460.5,-500.5 460.5,-481.5 370.5,-481.5"/>
<text text-anchor="middle" x="415.5" y="-488.5" font-family="Helvetica,sans-Serif" font-size="10.00">ILoadableScriptC</text>
</a>
</g>
</g>
<!-- Node11&#45;&gt;Node13 -->
<g id="edge15" class="edge"><title>Node11&#45;&gt;Node13</title>
<path fill="none" stroke="midnightblue" d="M323.027,-586.9C333.175,-578.4 345.823,-567.427 356.5,-557 376.126,-537.833 397.322,-513.485 408.177,-500.717"/>
<polygon fill="midnightblue" stroke="midnightblue" points="320.657,-584.318 315.188,-593.392 325.122,-589.709 320.657,-584.318"/>
</g>
<!-- Node12 -->
<g id="node12" class="node"><title>Node12</title>
<g id="a_node12"><a xlink:href="../../d3/db6/interfaceIG_1_1Lib_1_1ILockable.html" target="_top" xlink:title="Lockable object, has a Lock property that returns object on which lock must be performed in order to ...">
<polygon fill="white" stroke="black" points="578.5,-593.5 578.5,-612.5 636.5,-612.5 636.5,-593.5 578.5,-593.5"/>
<text text-anchor="middle" x="607.5" y="-600.5" font-family="Helvetica,sans-Serif" font-size="10.00">ILockable</text>
</a>
</g>
</g>
<!-- Node12&#45;&gt;Node7 -->
<g id="edge18" class="edge"><title>Node12&#45;&gt;Node7</title>
<path fill="none" stroke="midnightblue" d="M619.257,-584.769C624.063,-576.71 629.061,-566.755 631.5,-557 647.05,-494.8 654.106,-462.78 612.5,-414 595.876,-394.51 570.319,-383.455 546.326,-377.188"/>
<polygon fill="midnightblue" stroke="midnightblue" points="616.287,-582.917 613.867,-593.232 622.191,-586.678 616.287,-582.917"/>
</g>
<!-- Node12&#45;&gt;Node8 -->
<g id="edge16" class="edge"><title>Node12&#45;&gt;Node8</title>
<path fill="none" stroke="midnightblue" d="M612.585,-583.514C618.354,-558.61 624.874,-513.645 607.5,-481 598.871,-464.787 582.464,-452.846 567.19,-444.658"/>
<polygon fill="midnightblue" stroke="midnightblue" points="609.136,-582.876 610.076,-593.429 615.923,-584.593 609.136,-582.876"/>
</g>
<!-- Node12&#45;&gt;Node9 -->
<g id="edge13" class="edge"><title>Node12&#45;&gt;Node9</title>
<path fill="none" stroke="midnightblue" d="M597.754,-584.529C590.274,-571.322 579.557,-552.824 569.5,-537 561.358,-524.189 551.284,-509.814 544.874,-500.834"/>
<polygon fill="midnightblue" stroke="midnightblue" points="594.826,-586.464 602.778,-593.466 600.928,-583.034 594.826,-586.464"/>
</g>
<!-- Node12&#45;&gt;Node10 -->
<g id="edge11" class="edge"><title>Node12&#45;&gt;Node10</title>
<path fill="none" stroke="midnightblue" d="M582.663,-588.453C564.386,-578.483 540.084,-565.228 524.367,-556.655"/>
<polygon fill="midnightblue" stroke="midnightblue" points="581.139,-591.608 591.594,-593.324 584.491,-585.463 581.139,-591.608"/>
</g>
<!-- Node13&#45;&gt;Node7 -->
<g id="edge17" class="edge"><title>Node13&#45;&gt;Node7</title>
<path fill="none" stroke="midnightblue" d="M423.414,-471.83C430.449,-456.18 441.324,-433.156 452.5,-414 460.149,-400.889 470.346,-386.589 476.918,-377.707"/>
<polygon fill="midnightblue" stroke="midnightblue" points="420.048,-470.788 419.201,-481.349 426.449,-473.621 420.048,-470.788"/>
</g>
<!-- Node13&#45;&gt;Node8 -->
<g id="edge14" class="edge"><title>Node13&#45;&gt;Node8</title>
<path fill="none" stroke="midnightblue" d="M441.184,-476.938C460.045,-467.347 485.634,-454.334 504.925,-444.523"/>
<polygon fill="midnightblue" stroke="midnightblue" points="439.59,-473.822 432.263,-481.475 442.763,-480.062 439.59,-473.822"/>
</g>
<!-- Node14 -->
<g id="node14" class="node"><title>Node14</title>
<g id="a_node14"><a xlink:href="../../d0/d98/interfaceIG_1_1Num_1_1INeuralModel.html" target="_top" xlink:title="Interface for artificial neural network &#45;based models that we can operate on.">
<polygon fill="white" stroke="black" points="203,-358.5 203,-377.5 276,-377.5 276,-358.5 203,-358.5"/>
<text text-anchor="middle" x="239.5" y="-365.5" font-family="Helvetica,sans-Serif" font-size="10.00">INeuralModel</text>
</a>
</g>
</g>
<!-- Node14&#45;&gt;Node3 -->
<g id="edge24" class="edge"><title>Node14&#45;&gt;Node3</title>
<path fill="none" stroke="midnightblue" d="M219.91,-351.576C210.828,-343.573 200.516,-333.148 193.5,-322 165.501,-277.513 164.377,-261.81 155.5,-210 151.509,-186.708 152.3,-159.122 153.332,-142.757"/>
<polygon fill="midnightblue" stroke="midnightblue" points="217.871,-354.435 227.776,-358.196 222.379,-349.079 217.871,-354.435"/>
</g>
<!-- Node14&#45;&gt;Node6 -->
<g id="edge20" class="edge"><title>Node14&#45;&gt;Node6</title>
<path fill="none" stroke="midnightblue" d="M252.2,-349.855C259.126,-340.505 267.406,-329.327 273.018,-321.751"/>
<polygon fill="midnightblue" stroke="midnightblue" points="249.245,-347.964 246.105,-358.083 254.87,-352.131 249.245,-347.964"/>
</g>
</g>
</svg>
