<?xml version="1.0" encoding="UTF-8" standalone="no"?>
<!DOCTYPE svg PUBLIC "-//W3C//DTD SVG 1.1//EN"
 "http://www.w3.org/Graphics/SVG/1.1/DTD/svg11.dtd">
<!-- Generated by graphviz version 2.38.0 (20140413.2041)
 -->
<!-- Title: NUnit.Framework.RandomAttribute.RandomDataSource Pages: 1 -->
<svg width="384pt" height="137pt"
 viewBox="0.00 0.00 384.00 137.00" xmlns="http://www.w3.org/2000/svg" xmlns:xlink="http://www.w3.org/1999/xlink">
<g id="graph0" class="graph" transform="scale(1 1) rotate(0) translate(4 133)">
<title>NUnit.Framework.RandomAttribute.RandomDataSource</title>
<polygon fill="white" stroke="none" points="-4,4 -4,-133 380,-133 380,4 -4,4"/>
<!-- Node1 -->
<g id="node1" class="node"><title>Node1</title>
<g id="a_node1"><a xlink:title=" ">
<polygon fill="#bfbfbf" stroke="black" points="0,-49.5 0,-79.5 170,-79.5 170,-49.5 0,-49.5"/>
<text text-anchor="start" x="8" y="-67.5" font-family="Helvetica,sans-Serif" font-size="10.00">NUnit.Framework.RandomAttribute.</text>
<text text-anchor="middle" x="85" y="-56.5" font-family="Helvetica,sans-Serif" font-size="10.00">RandomDataSource</text>
</a>
</g>
</g>
<!-- Node2 -->
<g id="node2" class="node"><title>Node2</title>
<g id="a_node2"><a xlink:href="../../db/d90/classNUnit_1_1Framework_1_1RandomAttribute_1_1EnumDataSource.html" target="_top" xlink:title=" ">
<polygon fill="white" stroke="black" points="206,-98.5 206,-128.5 376,-128.5 376,-98.5 206,-98.5"/>
<text text-anchor="start" x="214" y="-116.5" font-family="Helvetica,sans-Serif" font-size="10.00">NUnit.Framework.RandomAttribute.</text>
<text text-anchor="middle" x="291" y="-105.5" font-family="Helvetica,sans-Serif" font-size="10.00">EnumDataSource</text>
</a>
</g>
</g>
<!-- Node1&#45;&gt;Node2 -->
<g id="edge1" class="edge"><title>Node1&#45;&gt;Node2</title>
<path fill="none" stroke="midnightblue" d="M158.457,-81.9038C181.024,-87.3243 205.702,-93.252 227.525,-98.4938"/>
<polygon fill="midnightblue" stroke="midnightblue" points="159.134,-78.467 148.593,-79.5346 157.499,-85.2734 159.134,-78.467"/>
</g>
<!-- Node3 -->
<g id="node3" class="node"><title>Node3</title>
<g id="a_node3"><a xlink:href="../../db/d1a/classNUnit_1_1Framework_1_1RandomAttribute_1_1RandomDataConverter.html" target="_top" xlink:title=" ">
<polygon fill="white" stroke="black" points="206,-49.5 206,-79.5 376,-79.5 376,-49.5 206,-49.5"/>
<text text-anchor="start" x="214" y="-67.5" font-family="Helvetica,sans-Serif" font-size="10.00">NUnit.Framework.RandomAttribute.</text>
<text text-anchor="middle" x="291" y="-56.5" font-family="Helvetica,sans-Serif" font-size="10.00">RandomDataConverter</text>
</a>
</g>
</g>
<!-- Node1&#45;&gt;Node3 -->
<g id="edge2" class="edge"><title>Node1&#45;&gt;Node3</title>
<path fill="none" stroke="midnightblue" d="M180.402,-64.5C188.847,-64.5 197.361,-64.5 205.712,-64.5"/>
<polygon fill="midnightblue" stroke="midnightblue" points="180.152,-61.0001 170.152,-64.5 180.152,-68.0001 180.152,-61.0001"/>
</g>
<!-- Node4 -->
<g id="node4" class="node"><title>Node4</title>
<g id="a_node4"><a xlink:href="../../d8/d93/classNUnit_1_1Framework_1_1RandomAttribute_1_1RandomDataSource.html" target="_top" xlink:title=" ">
<polygon fill="white" stroke="black" points="206,-0.5 206,-30.5 376,-30.5 376,-0.5 206,-0.5"/>
<text text-anchor="start" x="214" y="-18.5" font-family="Helvetica,sans-Serif" font-size="10.00">NUnit.Framework.RandomAttribute.</text>
<text text-anchor="middle" x="291" y="-7.5" font-family="Helvetica,sans-Serif" font-size="10.00">RandomDataSource&lt; T &gt;</text>
</a>
</g>
</g>
<!-- Node1&#45;&gt;Node4 -->
<g id="edge3" class="edge"><title>Node1&#45;&gt;Node4</title>
<path fill="none" stroke="midnightblue" d="M158.457,-47.0962C181.024,-41.6757 205.702,-35.748 227.525,-30.5062"/>
<polygon fill="midnightblue" stroke="midnightblue" points="157.499,-43.7266 148.593,-49.4654 159.134,-50.533 157.499,-43.7266"/>
</g>
</g>
</svg>
