<?xml version="1.0" encoding="UTF-8" standalone="no"?>
<!DOCTYPE svg PUBLIC "-//W3C//DTD SVG 1.1//EN"
 "http://www.w3.org/Graphics/SVG/1.1/DTD/svg11.dtd">
<!-- Generated by graphviz version 2.38.0 (20140413.2041)
 -->
<!-- Title: LabexBis.BisCommunicationSettings Pages: 1 -->
<svg width="247pt" height="220pt"
 viewBox="0.00 0.00 246.50 220.00" xmlns="http://www.w3.org/2000/svg" xmlns:xlink="http://www.w3.org/1999/xlink">
<g id="graph0" class="graph" transform="scale(1 1) rotate(0) translate(4 216)">
<title>LabexBis.BisCommunicationSettings</title>
<polygon fill="white" stroke="none" points="-4,4 -4,-216 242.5,-216 242.5,4 -4,4"/>
<!-- Node1 -->
<g id="node1" class="node"><title>Node1</title>
<g id="a_node1"><a xlink:title="Holds settings used by the Labex &#45; Bis communication module.">
<polygon fill="#bfbfbf" stroke="black" points="96.5,-0.5 96.5,-30.5 238.5,-30.5 238.5,-0.5 96.5,-0.5"/>
<text text-anchor="start" x="104.5" y="-18.5" font-family="Helvetica,sans-Serif" font-size="10.00">LabexBis.BisCommunication</text>
<text text-anchor="middle" x="167.5" y="-7.5" font-family="Helvetica,sans-Serif" font-size="10.00">Settings</text>
</a>
</g>
</g>
<!-- Node2 -->
<g id="node2" class="node"><title>Node2</title>
<g id="a_node2"><a xlink:href="../../df/d82/classIG_1_1Lib_1_1SettingsReaderAppConfig.html" target="_top" xlink:title="Provides functionality for retrieving settings from various sources such as application settings file...">
<polygon fill="white" stroke="black" points="26.5,-78.5 26.5,-97.5 154.5,-97.5 154.5,-78.5 26.5,-78.5"/>
<text text-anchor="middle" x="90.5" y="-85.5" font-family="Helvetica,sans-Serif" font-size="10.00">SettingsReaderAppConfig</text>
</a>
</g>
</g>
<!-- Node2&#45;&gt;Node1 -->
<g id="edge1" class="edge"><title>Node2&#45;&gt;Node1</title>
<path fill="none" stroke="midnightblue" d="M107.494,-71.4402C120.828,-59.2323 139.228,-42.3856 152.126,-30.5762"/>
<polygon fill="midnightblue" stroke="midnightblue" points="104.954,-69.0209 99.9417,-78.3553 109.681,-74.1838 104.954,-69.0209"/>
</g>
<!-- Node3 -->
<g id="node3" class="node"><title>Node3</title>
<g id="a_node3"><a xlink:href="../../dc/d76/classIG_1_1Lib_1_1SettingsReaderBase.html" target="_top" xlink:title=" ">
<polygon fill="white" stroke="black" points="37.5,-135.5 37.5,-154.5 143.5,-154.5 143.5,-135.5 37.5,-135.5"/>
<text text-anchor="middle" x="90.5" y="-142.5" font-family="Helvetica,sans-Serif" font-size="10.00">SettingsReaderBase</text>
</a>
</g>
</g>
<!-- Node3&#45;&gt;Node2 -->
<g id="edge2" class="edge"><title>Node3&#45;&gt;Node2</title>
<path fill="none" stroke="midnightblue" d="M90.5,-125.117C90.5,-115.817 90.5,-105.056 90.5,-97.7149"/>
<polygon fill="midnightblue" stroke="midnightblue" points="87.0001,-125.406 90.5,-135.406 94.0001,-125.406 87.0001,-125.406"/>
</g>
<!-- Node4 -->
<g id="node4" class="node"><title>Node4</title>
<g id="a_node4"><a xlink:href="../../d9/df4/interfaceIG_1_1Lib_1_1ISettingsRreader.html" target="_top" xlink:title="Interface for settings readers, which read pairs key/vvalue from various files or configuration serve...">
<polygon fill="white" stroke="black" points="0,-192.5 0,-211.5 89,-211.5 89,-192.5 0,-192.5"/>
<text text-anchor="middle" x="44.5" y="-199.5" font-family="Helvetica,sans-Serif" font-size="10.00">ISettingsRreader</text>
</a>
</g>
</g>
<!-- Node4&#45;&gt;Node3 -->
<g id="edge3" class="edge"><title>Node4&#45;&gt;Node3</title>
<path fill="none" stroke="midnightblue" d="M58.2733,-184.532C66.4663,-174.736 76.5318,-162.701 83.2112,-154.715"/>
<polygon fill="midnightblue" stroke="midnightblue" points="55.4183,-182.49 51.6875,-192.406 60.7879,-186.981 55.4183,-182.49"/>
</g>
<!-- Node5 -->
<g id="node5" class="node"><title>Node5</title>
<g id="a_node5"><a xlink:href="../../d3/db6/interfaceIG_1_1Lib_1_1ILockable.html" target="_top" xlink:title="Lockable object, has a Lock property that returns object on which lock must be performed in order to ...">
<polygon fill="white" stroke="black" points="107.5,-192.5 107.5,-211.5 165.5,-211.5 165.5,-192.5 107.5,-192.5"/>
<text text-anchor="middle" x="136.5" y="-199.5" font-family="Helvetica,sans-Serif" font-size="10.00">ILockable</text>
</a>
</g>
</g>
<!-- Node5&#45;&gt;Node3 -->
<g id="edge4" class="edge"><title>Node5&#45;&gt;Node3</title>
<path fill="none" stroke="midnightblue" d="M122.727,-184.532C114.534,-174.736 104.468,-162.701 97.7888,-154.715"/>
<polygon fill="midnightblue" stroke="midnightblue" points="120.212,-186.981 129.313,-192.406 125.582,-182.49 120.212,-186.981"/>
</g>
<!-- Node6 -->
<g id="node6" class="node"><title>Node6</title>
<g id="a_node6"><a xlink:title=" ">
<polygon fill="white" stroke="#bfbfbf" points="173,-78.5 173,-97.5 214,-97.5 214,-78.5 173,-78.5"/>
<text text-anchor="middle" x="193.5" y="-85.5" font-family="Helvetica,sans-Serif" font-size="10.00">static</text>
</a>
</g>
</g>
<!-- Node6&#45;&gt;Node1 -->
<g id="edge5" class="edge"><title>Node6&#45;&gt;Node1</title>
<path fill="none" stroke="#9a32cd" stroke-dasharray="5,2" d="M186.848,-68.9637C182.447,-57.0293 176.759,-41.6057 172.691,-30.5762"/>
<polygon fill="#9a32cd" stroke="#9a32cd" points="183.568,-70.1841 190.312,-78.3553 190.135,-67.7619 183.568,-70.1841"/>
<text text-anchor="middle" x="194.5" y="-52" font-family="Helvetica,sans-Serif" font-size="10.00"> _rep</text>
</g>
</g>
</svg>
