<?xml version="1.0" encoding="UTF-8" standalone="no"?>
<!DOCTYPE svg PUBLIC "-//W3C//DTD SVG 1.1//EN"
 "http://www.w3.org/Graphics/SVG/1.1/DTD/svg11.dtd">
<!-- Generated by graphviz version 2.38.0 (20140413.2041)
 -->
<!-- Title: IG.Script.AppMarkoPetek Pages: 1 -->
<!--zoomable 732 -->
<svg id="main" version="1.1" xmlns="http://www.w3.org/2000/svg" xmlns:xlink="http://www.w3.org/1999/xlink" xml:space="preserve" onload="init(evt)">
<style type="text/css"><![CDATA[
.edge:hover path { stroke: red; }
.edge:hover polygon { stroke: red; fill: red; }
]]></style>
<script type="text/javascript"><![CDATA[
var edges = document.getElementsByTagName('g');
if (edges && edges.length) {
  for (var i=0;i<edges.length;i++) {
    if (edges[i].id.substr(0,4)=='edge') {
      edges[i].setAttribute('class','edge');
    }
  }
}
]]></script>
        <defs>
                <circle id="rim" cx="0" cy="0" r="7"/>
                <circle id="rim2" cx="0" cy="0" r="3.5"/>
                <g id="zoomPlus">
                        <use xlink:href="#rim" fill="#404040">
                                <set attributeName="fill" to="#808080" begin="zoomplus.mouseover" end="zoomplus.mouseout"/>
                        </use>
                        <path d="M-4,0h8M0,-4v8" fill="none" stroke="white" stroke-width="1.5" pointer-events="none"/>
                </g>
                <g id="zoomMin">
                        <use xlink:href="#rim" fill="#404040">
                                <set attributeName="fill" to="#808080" begin="zoomminus.mouseover" end="zoomminus.mouseout"/>
                        </use>
                        <path d="M-4,0h8" fill="none" stroke="white" stroke-width="1.5" pointer-events="none"/>
                </g>
                <g id="dirArrow">
                        <path fill="none" stroke="white" stroke-width="1.5" d="M0,-3.0v7 M-2.5,-0.5L0,-3.0L2.5,-0.5"/>
                </g>
               <g id="resetDef">
                       <use xlink:href="#rim2" fill="#404040">
                               <set attributeName="fill" to="#808080" begin="reset.mouseover" end="reset.mouseout"/>
                       </use>
               </g>
        </defs>

<script type="text/javascript">
var viewWidth = 1306;
var viewHeight = 732;
var sectionId = 'dynsection-1';
</script>
<script xlink:href="../../svgpan.js"/>
<svg id="graph" class="graph">
<g id="viewport">
<title>IG.Script.AppMarkoPetek</title>
<polygon fill="white" stroke="none" points="-4,4 -4,-728 1302,-728 1302,4 -4,4"/>
<!-- Node1 -->
<g id="node1" class="node"><title>Node1</title>
<g id="a_node1"><a xlink:title="Internal script for running embedded applications.">
<polygon fill="#bfbfbf" stroke="black" points="994,-0.5 994,-19.5 1122,-19.5 1122,-0.5 994,-0.5"/>
<text text-anchor="middle" x="1058" y="-7.5" font-family="Helvetica,sans-Serif" font-size="10.00">IG.Script.AppMarkoPetek</text>
</a>
</g>
</g>
<!-- Node2 -->
<g id="node2" class="node"><title>Node2</title>
<g id="a_node2"><a xlink:href="../../d9/d4e/classIG_1_1Script_1_1AppIgorGresovnik.html" target="_top" xlink:title="Internal script for running embedded applications.">
<polygon fill="white" stroke="black" points="1012,-57.5 1012,-76.5 1104,-76.5 1104,-57.5 1012,-57.5"/>
<text text-anchor="middle" x="1058" y="-64.5" font-family="Helvetica,sans-Serif" font-size="10.00">AppIgorGresovnik</text>
</a>
</g>
</g>
<!-- Node2&#45;&gt;Node1 -->
<g id="edge1" class="edge"><title>Node2&#45;&gt;Node1</title>
<path fill="none" stroke="midnightblue" d="M1058,-47.1166C1058,-37.8173 1058,-27.0557 1058,-19.7149"/>
<polygon fill="midnightblue" stroke="midnightblue" points="1054.5,-47.4062 1058,-57.4063 1061.5,-47.4063 1054.5,-47.4062"/>
</g>
<!-- Node3 -->
<g id="node3" class="node"><title>Node3</title>
<g id="a_node3"><a xlink:href="../../d0/dec/classIG_1_1Script_1_1AppExtBase.html" target="_top" xlink:title="Internal script for running embedded applications.">
<polygon fill="white" stroke="black" points="1022.5,-114.5 1022.5,-133.5 1093.5,-133.5 1093.5,-114.5 1022.5,-114.5"/>
<text text-anchor="middle" x="1058" y="-121.5" font-family="Helvetica,sans-Serif" font-size="10.00">AppExtBase</text>
</a>
</g>
</g>
<!-- Node3&#45;&gt;Node2 -->
<g id="edge2" class="edge"><title>Node3&#45;&gt;Node2</title>
<path fill="none" stroke="midnightblue" d="M1058,-104.117C1058,-94.8173 1058,-84.0557 1058,-76.7149"/>
<polygon fill="midnightblue" stroke="midnightblue" points="1054.5,-104.406 1058,-114.406 1061.5,-104.406 1054.5,-104.406"/>
</g>
<!-- Node4 -->
<g id="node4" class="node"><title>Node4</title>
<g id="a_node4"><a xlink:href="../../d5/d63/classIG_1_1Script_1_1AppBase.html" target="_top" xlink:title="Base cls. for application scripts that can also be used on its own.">
<polygon fill="white" stroke="black" points="1174,-181.5 1174,-200.5 1230,-200.5 1230,-181.5 1174,-181.5"/>
<text text-anchor="middle" x="1202" y="-188.5" font-family="Helvetica,sans-Serif" font-size="10.00">AppBase</text>
</a>
</g>
</g>
<!-- Node4&#45;&gt;Node3 -->
<g id="edge3" class="edge"><title>Node4&#45;&gt;Node3</title>
<path fill="none" stroke="midnightblue" d="M1173.45,-177.113C1144.93,-164.239 1101.88,-144.806 1077.2,-133.667"/>
<polygon fill="midnightblue" stroke="midnightblue" points="1172.32,-180.444 1182.88,-181.369 1175.2,-174.064 1172.32,-180.444"/>
</g>
<!-- Node5 -->
<g id="node5" class="node"><title>Node5</title>
<g id="a_node5"><a xlink:href="../../db/da4/classIG_1_1Script_1_1ScriptAppBase.html" target="_top" xlink:title="Partial class definition containing tests of CSV utilities.">
<polygon fill="white" stroke="black" points="1216,-248.5 1216,-267.5 1298,-267.5 1298,-248.5 1216,-248.5"/>
<text text-anchor="middle" x="1257" y="-255.5" font-family="Helvetica,sans-Serif" font-size="10.00">ScriptAppBase</text>
</a>
</g>
</g>
<!-- Node5&#45;&gt;Node4 -->
<g id="edge4" class="edge"><title>Node5&#45;&gt;Node4</title>
<path fill="none" stroke="midnightblue" d="M1242.84,-240.27C1232.12,-227.597 1217.82,-210.701 1209.3,-200.627"/>
<polygon fill="midnightblue" stroke="midnightblue" points="1240.45,-242.861 1249.58,-248.234 1245.79,-238.339 1240.45,-242.861"/>
</g>
<!-- Node6 -->
<g id="node6" class="node"><title>Node6</title>
<g id="a_node6"><a xlink:href="../../d7/d66/interfaceIG_1_1Lib_1_1ILoadableScript.html" target="_top" xlink:title="Interface for classes that can be dynamically loadeded from scripts and run, which provides functiona...">
<polygon fill="white" stroke="black" points="1114.5,-248.5 1114.5,-267.5 1197.5,-267.5 1197.5,-248.5 1114.5,-248.5"/>
<text text-anchor="middle" x="1156" y="-255.5" font-family="Helvetica,sans-Serif" font-size="10.00">ILoadableScript</text>
</a>
</g>
</g>
<!-- Node6&#45;&gt;Node1 -->
<g id="edge35" class="edge"><title>Node6&#45;&gt;Node1</title>
<path fill="none" stroke="midnightblue" d="M1108.26,-246.009C1061.28,-234.585 993.411,-216.274 971,-201 953.219,-188.882 948.057,-183.328 941,-163 918.829,-99.1375 1005.39,-40.9794 1042.18,-19.6356"/>
<polygon fill="midnightblue" stroke="midnightblue" points="1107.7,-249.474 1118.24,-248.409 1109.33,-242.668 1107.7,-249.474"/>
</g>
<!-- Node6&#45;&gt;Node2 -->
<g id="edge34" class="edge"><title>Node6&#45;&gt;Node2</title>
<path fill="none" stroke="midnightblue" d="M1151.61,-238.652C1144.31,-210.352 1127.85,-155.033 1102,-114 1092.69,-99.2258 1078.11,-85.1662 1068.32,-76.5668"/>
<polygon fill="midnightblue" stroke="midnightblue" points="1148.23,-239.539 1154.04,-248.397 1155.02,-237.848 1148.23,-239.539"/>
</g>
<!-- Node6&#45;&gt;Node3 -->
<g id="edge6" class="edge"><title>Node6&#45;&gt;Node3</title>
<path fill="none" stroke="midnightblue" d="M1140.97,-240.69C1137.93,-237.223 1134.81,-233.539 1132,-230 1104.71,-195.571 1075.6,-151.952 1063.63,-133.675"/>
<polygon fill="midnightblue" stroke="midnightblue" points="1138.45,-243.12 1147.74,-248.218 1143.66,-238.441 1138.45,-243.12"/>
</g>
<!-- Node6&#45;&gt;Node4 -->
<g id="edge5" class="edge"><title>Node6&#45;&gt;Node4</title>
<path fill="none" stroke="midnightblue" d="M1168.1,-239.904C1177.04,-227.273 1188.83,-210.604 1195.89,-200.627"/>
<polygon fill="midnightblue" stroke="midnightblue" points="1165.12,-238.049 1162.2,-248.234 1170.84,-242.093 1165.12,-238.049"/>
</g>
<!-- Node7 -->
<g id="node7" class="node"><title>Node7</title>
<g id="a_node7"><a xlink:href="../../d4/d4e/classIG_1_1Forms_1_1HashAllForm.html" target="_top" xlink:title=" ">
<polygon fill="white" stroke="black" points="779,-181.5 779,-200.5 895,-200.5 895,-181.5 779,-181.5"/>
<text text-anchor="middle" x="837" y="-188.5" font-family="Helvetica,sans-Serif" font-size="10.00">IG.Forms.HashAllForm</text>
</a>
</g>
</g>
<!-- Node7&#45;&gt;Node3 -->
<g id="edge7" class="edge"><title>Node7&#45;&gt;Node3</title>
<path fill="none" stroke="#9a32cd" stroke-dasharray="5,2" d="M873.696,-178.482C898.337,-170.815 931.559,-160.607 961,-152 982.812,-145.623 1007.48,-138.76 1026.49,-133.549"/>
<polygon fill="#9a32cd" stroke="#9a32cd" points="872.536,-175.177 864.032,-181.496 874.62,-181.86 872.536,-175.177"/>
<text text-anchor="middle" x="990" y="-155" font-family="Helvetica,sans-Serif" font-size="10.00"> hashAllForm</text>
</g>
<!-- Node8 -->
<g id="node8" class="node"><title>Node8</title>
<g id="a_node8"><a xlink:title=" ">
<polygon fill="white" stroke="#bfbfbf" points="1001.5,-704.5 1001.5,-723.5 1040.5,-723.5 1040.5,-704.5 1001.5,-704.5"/>
<text text-anchor="middle" x="1021" y="-711.5" font-family="Helvetica,sans-Serif" font-size="10.00">Form</text>
</a>
</g>
</g>
<!-- Node8&#45;&gt;Node7 -->
<g id="edge8" class="edge"><title>Node8&#45;&gt;Node7</title>
<path fill="none" stroke="midnightblue" d="M1037.75,-696.842C1040.51,-693.483 1043.09,-689.801 1045,-686 1085.41,-605.487 1086,-577.584 1086,-487.5 1086,-487.5 1086,-487.5 1086,-290.5 1086,-270.613 1086.64,-261.458 1072,-248 1064.77,-241.357 942.39,-214.471 877.179,-200.51"/>
<polygon fill="midnightblue" stroke="midnightblue" points="1034.98,-694.683 1030.78,-704.411 1040.13,-699.424 1034.98,-694.683"/>
</g>
<!-- Node15 -->
<g id="node15" class="node"><title>Node15</title>
<g id="a_node15"><a xlink:href="../../da/df7/classIG_1_1Forms_1_1HashAboutForm.html" target="_top" xlink:title=" ">
<polygon fill="white" stroke="black" points="538.5,-477 538.5,-496 669.5,-496 669.5,-477 538.5,-477"/>
<text text-anchor="middle" x="604" y="-484" font-family="Helvetica,sans-Serif" font-size="10.00">IG.Forms.HashAboutForm</text>
</a>
</g>
</g>
<!-- Node8&#45;&gt;Node15 -->
<g id="edge18" class="edge"><title>Node8&#45;&gt;Node15</title>
<path fill="none" stroke="midnightblue" d="M990.974,-712.066C919.087,-709.583 741.451,-701.896 720,-686 673.384,-651.456 701.268,-614.499 671,-565 654.113,-537.384 627.373,-509.863 613.325,-496.261"/>
<polygon fill="midnightblue" stroke="midnightblue" points="991.062,-715.571 1001.17,-712.408 991.297,-708.575 991.062,-715.571"/>
</g>
<!-- Node17 -->
<g id="node17" class="node"><title>Node17</title>
<g id="a_node17"><a xlink:href="../../df/d8d/classIG_1_1Forms_1_1HashForm.html" target="_top" xlink:title="A window form to calculate various checksums of selected files or inserted text.">
<polygon fill="white" stroke="black" points="857.5,-248.5 857.5,-267.5 962.5,-267.5 962.5,-248.5 857.5,-248.5"/>
<text text-anchor="middle" x="910" y="-255.5" font-family="Helvetica,sans-Serif" font-size="10.00">IG.Forms.HashForm</text>
</a>
</g>
</g>
<!-- Node8&#45;&gt;Node17 -->
<g id="edge27" class="edge"><title>Node8&#45;&gt;Node17</title>
<path fill="none" stroke="midnightblue" d="M1024.45,-694.151C1032.22,-647.463 1048.28,-523.201 1019,-426 998.427,-357.71 940.384,-291.188 918.495,-267.808"/>
<polygon fill="midnightblue" stroke="midnightblue" points="1020.95,-693.833 1022.68,-704.286 1027.84,-695.035 1020.95,-693.833"/>
</g>
<!-- Node18 -->
<g id="node18" class="node"><title>Node18</title>
<g id="a_node18"><a xlink:href="../../de/d7e/classIG_1_1Forms_1_1HashDirForm.html" target="_top" xlink:title=" ">
<polygon fill="white" stroke="black" points="893.5,-477 893.5,-496 1010.5,-496 1010.5,-477 893.5,-477"/>
<text text-anchor="middle" x="952" y="-484" font-family="Helvetica,sans-Serif" font-size="10.00">IG.Forms.HashDirForm</text>
</a>
</g>
</g>
<!-- Node8&#45;&gt;Node18 -->
<g id="edge31" class="edge"><title>Node8&#45;&gt;Node18</title>
<path fill="none" stroke="midnightblue" d="M1016.51,-694.17C1009.64,-665.891 995.747,-610.878 981,-565 972.823,-539.561 961.219,-510.176 955.485,-496.009"/>
<polygon fill="midnightblue" stroke="midnightblue" points="1013.2,-695.339 1018.94,-704.242 1020,-693.7 1013.2,-695.339"/>
</g>
<!-- Node9 -->
<g id="node9" class="node"><title>Node9</title>
<g id="a_node9"><a xlink:href="../../dd/d24/classIG_1_1Forms_1_1HashAllControl.html" target="_top" xlink:title=" ">
<polygon fill="white" stroke="black" points="311.5,-248.5 311.5,-267.5 436.5,-267.5 436.5,-248.5 311.5,-248.5"/>
<text text-anchor="middle" x="374" y="-255.5" font-family="Helvetica,sans-Serif" font-size="10.00">IG.Forms.HashAllControl</text>
</a>
</g>
</g>
<!-- Node9&#45;&gt;Node7 -->
<g id="edge9" class="edge"><title>Node9&#45;&gt;Node7</title>
<path fill="none" stroke="#9a32cd" stroke-dasharray="5,2" d="M445.013,-247.031C536.537,-234.182 693.95,-212.083 778.781,-200.173"/>
<polygon fill="#9a32cd" stroke="#9a32cd" points="444.422,-243.579 435.005,-248.436 445.395,-250.511 444.422,-243.579"/>
<text text-anchor="middle" x="670" y="-222" font-family="Helvetica,sans-Serif" font-size="10.00"> hashAllControl1</text>
</g>
<!-- Node10 -->
<g id="node10" class="node"><title>Node10</title>
<g id="a_node10"><a xlink:title=" ">
<polygon fill="white" stroke="#bfbfbf" points="0,-704.5 0,-723.5 68,-723.5 68,-704.5 0,-704.5"/>
<text text-anchor="middle" x="34" y="-711.5" font-family="Helvetica,sans-Serif" font-size="10.00">UserControl</text>
</a>
</g>
</g>
<!-- Node10&#45;&gt;Node9 -->
<g id="edge10" class="edge"><title>Node10&#45;&gt;Node9</title>
<path fill="none" stroke="midnightblue" d="M27.0004,-694.606C26.1721,-691.762 25.4591,-688.829 25,-686 6.49005,-571.937 -6.51324,-537.176 25,-426 35.394,-389.331 39.8703,-376.342 70,-353 141.293,-297.768 245.283,-274.753 311.277,-265.326"/>
<polygon fill="midnightblue" stroke="midnightblue" points="23.7242,-695.843 30.2598,-704.182 30.3508,-693.588 23.7242,-695.843"/>
</g>
<!-- Node11 -->
<g id="node11" class="node"><title>Node11</title>
<g id="a_node11"><a xlink:href="../../d7/d96/classIG_1_1Forms_1_1HashControl.html" target="_top" xlink:title="A control used to calculate various checksums of selected files or inserted text.">
<polygon fill="white" stroke="black" points="317.5,-315.5 317.5,-334.5 430.5,-334.5 430.5,-315.5 317.5,-315.5"/>
<text text-anchor="middle" x="374" y="-322.5" font-family="Helvetica,sans-Serif" font-size="10.00">IG.Forms.HashControl</text>
</a>
</g>
</g>
<!-- Node10&#45;&gt;Node11 -->
<g id="edge12" class="edge"><title>Node10&#45;&gt;Node11</title>
<path fill="none" stroke="midnightblue" d="M31.176,-694.056C22.8483,-630.018 6.02507,-421.783 127,-353 158.453,-335.117 254.743,-329.077 317.393,-327.038"/>
<polygon fill="midnightblue" stroke="midnightblue" points="27.7522,-694.847 32.597,-704.269 34.6855,-693.882 27.7522,-694.847"/>
</g>
<!-- Node12 -->
<g id="node12" class="node"><title>Node12</title>
<g id="a_node12"><a xlink:href="../../de/d72/classIG_1_1Forms_1_1IndicatorLight.html" target="_top" xlink:title=" ">
<polygon fill="white" stroke="black" points="81,-477 81,-496 199,-496 199,-477 81,-477"/>
<text text-anchor="middle" x="140" y="-484" font-family="Helvetica,sans-Serif" font-size="10.00">IG.Forms.IndicatorLight</text>
</a>
</g>
</g>
<!-- Node10&#45;&gt;Node12 -->
<g id="edge14" class="edge"><title>Node10&#45;&gt;Node12</title>
<path fill="none" stroke="midnightblue" d="M51.5841,-697.12C54.7002,-693.685 57.6842,-689.904 60,-686 88.7585,-637.521 76.0255,-616.908 98,-565 108.978,-539.069 125.872,-510.377 134.507,-496.289"/>
<polygon fill="midnightblue" stroke="midnightblue" points="48.9057,-694.849 44.3255,-704.403 53.8637,-699.791 48.9057,-694.849"/>
</g>
<!-- Node11&#45;&gt;Node9 -->
<g id="edge11" class="edge"><title>Node11&#45;&gt;Node9</title>
<path fill="none" stroke="#9a32cd" stroke-dasharray="5,2" d="M374,-305.037C374,-292.67 374,-277.12 374,-267.627"/>
<polygon fill="#9a32cd" stroke="#9a32cd" points="370.5,-305.234 374,-315.234 377.5,-305.234 370.5,-305.234"/>
<text text-anchor="middle" x="404.5" y="-289" font-family="Helvetica,sans-Serif" font-size="10.00"> hashControl1</text>
</g>
<!-- Node11&#45;&gt;Node17 -->
<g id="edge28" class="edge"><title>Node11&#45;&gt;Node17</title>
<path fill="none" stroke="#9a32cd" stroke-dasharray="5,2" d="M440.712,-315.91C548.577,-302.829 759.081,-277.302 857.244,-265.398"/>
<polygon fill="#9a32cd" stroke="#9a32cd" points="440.107,-312.458 430.601,-317.136 440.95,-319.407 440.107,-312.458"/>
<text text-anchor="middle" x="726.5" y="-289" font-family="Helvetica,sans-Serif" font-size="10.00"> hashGeneratorControl1</text>
</g>
<!-- Node12&#45;&gt;Node11 -->
<g id="edge13" class="edge"><title>Node12&#45;&gt;Node11</title>
<path fill="none" stroke="#9a32cd" stroke-dasharray="5,2" d="M135.255,-467.018C129.131,-438.387 122.473,-383.447 152,-353 174.198,-330.11 259.298,-325.478 317.447,-325.098"/>
<polygon fill="#9a32cd" stroke="#9a32cd" points="131.885,-467.976 137.58,-476.91 138.699,-466.374 131.885,-467.976"/>
<text text-anchor="middle" x="185.5" y="-378" font-family="Helvetica,sans-Serif" font-size="10.00"> indicatorLight1</text>
</g>
<!-- Node13 -->
<g id="node13" class="node"><title>Node13</title>
<g id="a_node13"><a xlink:title=" ">
<polygon fill="white" stroke="#bfbfbf" points="656,-704.5 656,-723.5 706,-723.5 706,-704.5 656,-704.5"/>
<text text-anchor="middle" x="681" y="-711.5" font-family="Helvetica,sans-Serif" font-size="10.00">System</text>
</a>
</g>
</g>
<!-- Node13&#45;&gt;Node7 -->
<g id="edge25" class="edge"><title>Node13&#45;&gt;Node7</title>
<path fill="none" stroke="#9a32cd" stroke-dasharray="5,2" d="M716.484,-710.556C751.227,-707.355 800.685,-700.363 813,-686 829.453,-666.811 835.945,-264.876 836.879,-200.627"/>
<polygon fill="#9a32cd" stroke="#9a32cd" points="715.898,-707.094 706.232,-711.432 716.493,-714.068 715.898,-707.094"/>
<text text-anchor="middle" x="863.5" y="-322.5" font-family="Helvetica,sans-Serif" font-size="10.00"> components</text>
</g>
<!-- Node13&#45;&gt;Node9 -->
<g id="edge23" class="edge"><title>Node13&#45;&gt;Node9</title>
<path fill="none" stroke="#9a32cd" stroke-dasharray="5,2" d="M683.052,-694.158C688.832,-637.909 703.247,-472.241 678,-426 624.255,-327.562 487.802,-283.964 417.435,-267.514"/>
<polygon fill="#9a32cd" stroke="#9a32cd" points="679.538,-694.106 681.967,-704.418 686.499,-694.842 679.538,-694.106"/>
<text text-anchor="middle" x="699.5" y="-400" font-family="Helvetica,sans-Serif" font-size="10.00"> tabPageAbout</text>
<text text-anchor="middle" x="699.5" y="-389" font-family="Helvetica,sans-Serif" font-size="10.00">tabControl1</text>
<text text-anchor="middle" x="699.5" y="-378" font-family="Helvetica,sans-Serif" font-size="10.00">components</text>
<text text-anchor="middle" x="699.5" y="-367" font-family="Helvetica,sans-Serif" font-size="10.00">tabPageDir</text>
<text text-anchor="middle" x="699.5" y="-356" font-family="Helvetica,sans-Serif" font-size="10.00">tabPageHash</text>
</g>
<!-- Node13&#45;&gt;Node11 -->
<g id="edge21" class="edge"><title>Node13&#45;&gt;Node11</title>
<path fill="none" stroke="#9a32cd" stroke-dasharray="5,2" d="M645.603,-709.613C625.412,-706.234 600.519,-699.483 582,-686 530.079,-648.197 555.757,-601.626 503,-565 473.063,-544.216 448.73,-572.81 423,-547 415.197,-539.172 383.259,-374.387 375.638,-334.593"/>
<polygon fill="#9a32cd" stroke="#9a32cd" points="645.272,-713.102 655.674,-711.091 646.288,-706.176 645.272,-713.102"/>
<text text-anchor="middle" x="476" y="-539" font-family="Helvetica,sans-Serif" font-size="10.00"> contextMenuStrip1</text>
<text text-anchor="middle" x="476" y="-528" font-family="Helvetica,sans-Serif" font-size="10.00">aboutToolStripMenuItem</text>
<text text-anchor="middle" x="476" y="-517" font-family="Helvetica,sans-Serif" font-size="10.00">lvlVerifyMain</text>
<text text-anchor="middle" x="476" y="-506" font-family="Helvetica,sans-Serif" font-size="10.00">contextMenuStrip2</text>
<text text-anchor="middle" x="476" y="-495" font-family="Helvetica,sans-Serif" font-size="10.00">btnClearHashes</text>
<text text-anchor="middle" x="476" y="-484" font-family="Helvetica,sans-Serif" font-size="10.00">lblSha512</text>
<text text-anchor="middle" x="476" y="-473" font-family="Helvetica,sans-Serif" font-size="10.00">chkGenerateFile</text>
<text text-anchor="middle" x="476" y="-462" font-family="Helvetica,sans-Serif" font-size="10.00">btnGenerate</text>
<text text-anchor="middle" x="476" y="-451" font-family="Helvetica,sans-Serif" font-size="10.00">txtMd5</text>
<text text-anchor="middle" x="476" y="-440" font-family="Helvetica,sans-Serif" font-size="10.00">lblVerify</text>
<text text-anchor="middle" x="476" y="-429" font-family="Helvetica,sans-Serif" font-size="10.00">...</text>
</g>
<!-- Node13&#45;&gt;Node12 -->
<g id="edge15" class="edge"><title>Node13&#45;&gt;Node12</title>
<path fill="none" stroke="#9a32cd" stroke-dasharray="5,2" d="M645.743,-711.633C578.724,-708.703 438.151,-700.849 422,-686 381.702,-648.951 438.744,-602.642 399,-565 377.186,-544.34 293.8,-555.56 265,-547 222.84,-534.469 177.08,-509.449 154.411,-496.199"/>
<polygon fill="#9a32cd" stroke="#9a32cd" points="645.698,-715.134 655.838,-712.061 645.995,-708.14 645.698,-715.134"/>
<text text-anchor="middle" x="462.5" y="-678" font-family="Helvetica,sans-Serif" font-size="10.00"> _colorLightError</text>
<text text-anchor="middle" x="462.5" y="-667" font-family="Helvetica,sans-Serif" font-size="10.00">_colorLabel</text>
<text text-anchor="middle" x="462.5" y="-656" font-family="Helvetica,sans-Serif" font-size="10.00">timer1</text>
<text text-anchor="middle" x="462.5" y="-645" font-family="Helvetica,sans-Serif" font-size="10.00">flowOuter</text>
<text text-anchor="middle" x="462.5" y="-634" font-family="Helvetica,sans-Serif" font-size="10.00">_colorLightOk</text>
<text text-anchor="middle" x="462.5" y="-623" font-family="Helvetica,sans-Serif" font-size="10.00">_specialBlinkColor</text>
<text text-anchor="middle" x="462.5" y="-612" font-family="Helvetica,sans-Serif" font-size="10.00">_colorLightOff</text>
<text text-anchor="middle" x="462.5" y="-601" font-family="Helvetica,sans-Serif" font-size="10.00">lblText</text>
<text text-anchor="middle" x="462.5" y="-590" font-family="Helvetica,sans-Serif" font-size="10.00">components</text>
<text text-anchor="middle" x="462.5" y="-579" font-family="Helvetica,sans-Serif" font-size="10.00">_colorLightBusy</text>
<text text-anchor="middle" x="462.5" y="-568" font-family="Helvetica,sans-Serif" font-size="10.00">...</text>
</g>
<!-- Node13&#45;&gt;Node15 -->
<g id="edge19" class="edge"><title>Node13&#45;&gt;Node15</title>
<path fill="none" stroke="#9a32cd" stroke-dasharray="5,2" d="M645.67,-708.034C632.286,-704.266 618.29,-697.642 610,-686 566.802,-625.338 592.229,-525.728 601.23,-496.081"/>
<polygon fill="#9a32cd" stroke="#9a32cd" points="645.145,-711.506 655.682,-710.394 646.752,-704.693 645.145,-711.506"/>
<text text-anchor="middle" x="638.5" y="-623" font-family="Helvetica,sans-Serif" font-size="10.00"> components</text>
</g>
<!-- Node13&#45;&gt;Node17 -->
<g id="edge29" class="edge"><title>Node13&#45;&gt;Node17</title>
<path fill="none" stroke="#9a32cd" stroke-dasharray="5,2" d="M716.248,-711.718C757.98,-709.431 823.982,-703.137 841,-686 842.935,-684.052 898.983,-328.902 908.602,-267.875"/>
<polygon fill="#9a32cd" stroke="#9a32cd" points="716.019,-708.225 706.206,-712.218 716.367,-715.216 716.019,-708.225"/>
<text text-anchor="middle" x="923.5" y="-378" font-family="Helvetica,sans-Serif" font-size="10.00"> components</text>
</g>
<!-- Node13&#45;&gt;Node18 -->
<g id="edge32" class="edge"><title>Node13&#45;&gt;Node18</title>
<path fill="none" stroke="#9a32cd" stroke-dasharray="5,2" d="M716.08,-712.543C766.174,-711.184 854.828,-705.942 879,-686 922.799,-649.865 900.043,-618.158 920,-565 929.516,-539.652 942.097,-510.226 948.265,-496.029"/>
<polygon fill="#9a32cd" stroke="#9a32cd" points="715.929,-709.045 706.013,-712.777 716.092,-716.043 715.929,-709.045"/>
<text text-anchor="middle" x="948.5" y="-623" font-family="Helvetica,sans-Serif" font-size="10.00"> components</text>
</g>
<!-- Node14 -->
<g id="node14" class="node"><title>Node14</title>
<g id="a_node14"><a xlink:title=" ">
<polygon fill="white" stroke="#bfbfbf" points="86.5,-704.5 86.5,-723.5 127.5,-723.5 127.5,-704.5 86.5,-704.5"/>
<text text-anchor="middle" x="107" y="-711.5" font-family="Helvetica,sans-Serif" font-size="10.00">static</text>
</a>
</g>
</g>
<!-- Node14&#45;&gt;Node12 -->
<g id="edge16" class="edge"><title>Node14&#45;&gt;Node12</title>
<path fill="none" stroke="#9a32cd" stroke-dasharray="5,2" d="M104.84,-694.099C102.11,-665.73 98.7954,-610.602 108,-565 113.299,-538.745 127.512,-510.195 135.088,-496.212"/>
<polygon fill="#9a32cd" stroke="#9a32cd" points="101.376,-694.626 105.901,-704.206 108.338,-693.895 101.376,-694.626"/>
<text text-anchor="middle" x="178" y="-678" font-family="Helvetica,sans-Serif" font-size="10.00"> _defaultColorLabel</text>
<text text-anchor="middle" x="178" y="-667" font-family="Helvetica,sans-Serif" font-size="10.00">_defaultBorderOut</text>
<text text-anchor="middle" x="178" y="-656" font-family="Helvetica,sans-Serif" font-size="10.00">_defaultBorderLabel</text>
<text text-anchor="middle" x="178" y="-645" font-family="Helvetica,sans-Serif" font-size="10.00">_defaultColorLightOff</text>
<text text-anchor="middle" x="178" y="-634" font-family="Helvetica,sans-Serif" font-size="10.00">_defaultPaddingLabel</text>
<text text-anchor="middle" x="178" y="-623" font-family="Helvetica,sans-Serif" font-size="10.00">_defaultMarginLabel</text>
<text text-anchor="middle" x="178" y="-612" font-family="Helvetica,sans-Serif" font-size="10.00">_defaultColorLightBusy</text>
<text text-anchor="middle" x="178" y="-601" font-family="Helvetica,sans-Serif" font-size="10.00">_defaultBlinkIntervalMilliseconds</text>
<text text-anchor="middle" x="178" y="-590" font-family="Helvetica,sans-Serif" font-size="10.00">_defaultPaddingOut</text>
<text text-anchor="middle" x="178" y="-579" font-family="Helvetica,sans-Serif" font-size="10.00">_defaultColorLightError</text>
<text text-anchor="middle" x="178" y="-568" font-family="Helvetica,sans-Serif" font-size="10.00">...</text>
</g>
<!-- Node15&#45;&gt;Node11 -->
<g id="edge17" class="edge"><title>Node15&#45;&gt;Node11</title>
<path fill="none" stroke="#9a32cd" stroke-dasharray="5,2" d="M585.977,-470.178C554.959,-444.217 488.93,-390.733 428,-353 416.861,-346.102 403.725,-339.503 393.199,-334.555"/>
<polygon fill="#9a32cd" stroke="#9a32cd" points="583.86,-472.971 593.764,-476.734 588.369,-467.616 583.86,-472.971"/>
<text text-anchor="middle" x="535.5" y="-378" font-family="Helvetica,sans-Serif" font-size="10.00"> _aboutForm</text>
</g>
<!-- Node16 -->
<g id="node16" class="node"><title>Node16</title>
<g id="a_node16"><a xlink:title=" ">
<polygon fill="white" stroke="#bfbfbf" points="288.5,-704.5 288.5,-723.5 317.5,-723.5 317.5,-704.5 288.5,-704.5"/>
<text text-anchor="middle" x="303" y="-711.5" font-family="Helvetica,sans-Serif" font-size="10.00">IG</text>
</a>
</g>
</g>
<!-- Node16&#45;&gt;Node9 -->
<g id="edge24" class="edge"><title>Node16&#45;&gt;Node9</title>
<path fill="none" stroke="#9a32cd" stroke-dasharray="5,2" d="M283.877,-697.161C280.806,-693.78 277.989,-690.008 276,-686 259.447,-652.641 220.704,-385.98 238,-353 261.528,-308.136 317.26,-280.453 349.606,-267.586"/>
<polygon fill="#9a32cd" stroke="#9a32cd" points="281.607,-699.835 291.23,-704.269 286.473,-694.803 281.607,-699.835"/>
<text text-anchor="middle" x="277" y="-383.5" font-family="Helvetica,sans-Serif" font-size="10.00"> hashFormAbout1</text>
<text text-anchor="middle" x="277" y="-372.5" font-family="Helvetica,sans-Serif" font-size="10.00">hashDirControl1</text>
</g>
<!-- Node16&#45;&gt;Node11 -->
<g id="edge22" class="edge"><title>Node16&#45;&gt;Node11</title>
<path fill="none" stroke="#9a32cd" stroke-dasharray="5,2" d="M297.918,-694.261C286.101,-646.925 260.718,-519.65 301,-426 305.596,-415.314 312.53,-416.916 320,-408 340.799,-383.175 360.47,-350.03 369.23,-334.59"/>
<polygon fill="#9a32cd" stroke="#9a32cd" points="294.558,-695.246 300.458,-704.046 301.333,-693.487 294.558,-695.246"/>
<text text-anchor="middle" x="346.5" y="-484" font-family="Helvetica,sans-Serif" font-size="10.00"> backgroundWorker1</text>
</g>
<!-- Node16&#45;&gt;Node15 -->
<g id="edge20" class="edge"><title>Node16&#45;&gt;Node15</title>
<path fill="none" stroke="#9a32cd" stroke-dasharray="5,2" d="M302.482,-694.237C301.925,-658.455 302.959,-582.462 321,-565 353.541,-533.503 481.679,-563.122 524,-547 553.763,-535.662 582.07,-509.885 595.638,-496.282"/>
<polygon fill="#9a32cd" stroke="#9a32cd" points="298.984,-694.394 302.699,-704.317 305.982,-694.243 298.984,-694.394"/>
<text text-anchor="middle" x="360" y="-623" font-family="Helvetica,sans-Serif" font-size="10.00"> hashFormAbout1</text>
</g>
<!-- Node16&#45;&gt;Node18 -->
<g id="edge33" class="edge"><title>Node16&#45;&gt;Node18</title>
<path fill="none" stroke="#9a32cd" stroke-dasharray="5,2" d="M328.137,-713.29C400.694,-713.795 609.223,-712.812 671,-686 743.706,-654.444 737.096,-610.49 802,-565 845.086,-534.802 901.497,-508.85 931.364,-496.036"/>
<polygon fill="#9a32cd" stroke="#9a32cd" points="327.733,-709.787 317.703,-713.2 327.673,-716.786 327.733,-709.787"/>
<text text-anchor="middle" x="838.5" y="-623" font-family="Helvetica,sans-Serif" font-size="10.00"> hashDirControl1</text>
</g>
<!-- Node17&#45;&gt;Node3 -->
<g id="edge26" class="edge"><title>Node17&#45;&gt;Node3</title>
<path fill="none" stroke="#9a32cd" stroke-dasharray="5,2" d="M927.241,-241.648C944.692,-226.178 972.52,-201.698 997,-181 1006.65,-172.843 1009.58,-171.416 1019,-163 1029.86,-153.302 1041.77,-141.52 1049.53,-133.672"/>
<polygon fill="#9a32cd" stroke="#9a32cd" points="924.721,-239.205 919.568,-248.463 929.369,-244.439 924.721,-239.205"/>
<text text-anchor="middle" x="1020.5" y="-188.5" font-family="Helvetica,sans-Serif" font-size="10.00"> hashForm</text>
</g>
<!-- Node18&#45;&gt;Node3 -->
<g id="edge30" class="edge"><title>Node18&#45;&gt;Node3</title>
<path fill="none" stroke="#9a32cd" stroke-dasharray="5,2" d="M958.819,-467.264C975.361,-422.482 1018.16,-303.29 1044,-201 1050.11,-176.806 1054.73,-147.649 1056.8,-133.513"/>
<polygon fill="#9a32cd" stroke="#9a32cd" points="955.488,-466.18 955.287,-476.773 962.05,-468.618 955.488,-466.18"/>
<text text-anchor="middle" x="1060.5" y="-255.5" font-family="Helvetica,sans-Serif" font-size="10.00"> hashDirForm</text>
</g>
<!-- Node19 -->
<g id="node19" class="node"><title>Node19</title>
<g id="a_node19"><a xlink:href="../../d3/db6/interfaceIG_1_1Lib_1_1ILockable.html" target="_top" xlink:title="Lockable object, has a Lock property that returns object on which lock must be performed in order to ...">
<polygon fill="white" stroke="black" points="1122,-57.5 1122,-76.5 1180,-76.5 1180,-57.5 1122,-57.5"/>
<text text-anchor="middle" x="1151" y="-64.5" font-family="Helvetica,sans-Serif" font-size="10.00">ILockable</text>
</a>
</g>
</g>
<!-- Node19&#45;&gt;Node1 -->
<g id="edge36" class="edge"><title>Node19&#45;&gt;Node1</title>
<path fill="none" stroke="midnightblue" d="M1127.51,-52.1101C1110.18,-41.857 1087.13,-28.2288 1072.43,-19.5334"/>
<polygon fill="midnightblue" stroke="midnightblue" points="1126.08,-55.3284 1136.47,-57.4063 1129.64,-49.3032 1126.08,-55.3284"/>
</g>
</g>
</svg>
        <g id="navigator" transform="translate(0 0)" fill="#404254">
                <rect fill="#f2f5e9" fill-opacity="0.5" stroke="#606060" stroke-width=".5" x="0" y="0" width="60" height="60"/>
                <use id="zoomplus" xlink:href="#zoomPlus" x="17" y="9" onmousedown="handleZoom(evt,'in')"/>
                <use id="zoomminus" xlink:href="#zoomMin" x="42" y="9" onmousedown="handleZoom(evt,'out')"/>
                <use id="reset" xlink:href="#resetDef" x="30" y="36" onmousedown="handleReset()"/>
                <g id="arrowUp" xlink:href="#dirArrow" transform="translate(30 24)" onmousedown="handlePan(0,-1)">
                  <use xlink:href="#rim" fill="#404040">
                        <set attributeName="fill" to="#808080" begin="arrowUp.mouseover" end="arrowUp.mouseout"/>
                  </use>
                  <path fill="none" stroke="white" stroke-width="1.5" d="M0,-3.0v7 M-2.5,-0.5L0,-3.0L2.5,-0.5"/>
                </g>
                <g id="arrowRight" xlink:href="#dirArrow" transform="rotate(90) translate(36 -43)" onmousedown="handlePan(1,0)">
                  <use xlink:href="#rim" fill="#404040">
                        <set attributeName="fill" to="#808080" begin="arrowRight.mouseover" end="arrowRight.mouseout"/>
                  </use>
                  <path fill="none" stroke="white" stroke-width="1.5" d="M0,-3.0v7 M-2.5,-0.5L0,-3.0L2.5,-0.5"/>
                </g>
                <g id="arrowDown" xlink:href="#dirArrow" transform="rotate(180) translate(-30 -48)" onmousedown="handlePan(0,1)">
                  <use xlink:href="#rim" fill="#404040">
                        <set attributeName="fill" to="#808080" begin="arrowDown.mouseover" end="arrowDown.mouseout"/>
                  </use>
                  <path fill="none" stroke="white" stroke-width="1.5" d="M0,-3.0v7 M-2.5,-0.5L0,-3.0L2.5,-0.5"/>
                </g>
                <g id="arrowLeft" xlink:href="#dirArrow" transform="rotate(270) translate(-36 17)" onmousedown="handlePan(-1,0)">
                  <use xlink:href="#rim" fill="#404040">
                        <set attributeName="fill" to="#808080" begin="arrowLeft.mouseover" end="arrowLeft.mouseout"/>
                  </use>
                  <path fill="none" stroke="white" stroke-width="1.5" d="M0,-3.0v7 M-2.5,-0.5L0,-3.0L2.5,-0.5"/>
                </g>
        </g>
        <svg viewBox="0 0 15 15" width="100%" height="30px" preserveAspectRatio="xMaxYMin meet">
         <g id="arrow_out" transform="scale(0.3 0.3)">
          <a xlink:href="classIG_1_1Script_1_1AppMarkoPetek__coll__graph_org.svg" target="_base">
           <rect id="button" ry="5" rx="5" y="6" x="6" height="38" width="38"
                fill="#f2f5e9" fill-opacity="0.5" stroke="#606060" stroke-width="1.0"/>
           <path id="arrow"
             d="M 11.500037,31.436501 C 11.940474,20.09759 22.043105,11.32322 32.158766,21.979434 L 37.068811,17.246167 C 37.068811,17.246167 37.088388,32 37.088388,32 L 22.160133,31.978069 C 22.160133,31.978069 26.997745,27.140456 26.997745,27.140456 C 18.528582,18.264221 13.291696,25.230495 11.500037,31.436501 z"
             style="fill:#404040;"/>
          </a>
         </g>
        </svg>
</svg>
