<?xml version="1.0" encoding="UTF-8" standalone="no"?>
<!DOCTYPE svg PUBLIC "-//W3C//DTD SVG 1.1//EN"
 "http://www.w3.org/Graphics/SVG/1.1/DTD/svg11.dtd">
<!-- Generated by graphviz version 2.38.0 (20140413.2041)
 -->
<!-- Title: IG.Gr3d.VtkControlWin Pages: 1 -->
<svg width="237pt" height="151pt"
 viewBox="0.00 0.00 237.00 151.00" xmlns="http://www.w3.org/2000/svg" xmlns:xlink="http://www.w3.org/1999/xlink">
<g id="graph0" class="graph" transform="scale(1 1) rotate(0) translate(4 147)">
<title>IG.Gr3d.VtkControlWin</title>
<polygon fill="white" stroke="none" points="-4,4 -4,-147 233,-147 233,4 -4,4"/>
<!-- Node1 -->
<g id="node1" class="node"><title>Node1</title>
<g id="a_node1"><a xlink:title="Control for presenting VTK graphics, intended for use in stand&#45;alone windows.">
<polygon fill="#bfbfbf" stroke="black" points="26,-0.5 26,-19.5 142,-19.5 142,-0.5 26,-0.5"/>
<text text-anchor="middle" x="84" y="-7.5" font-family="Helvetica,sans-Serif" font-size="10.00">IG.Gr3d.VtkControlWin</text>
</a>
</g>
</g>
<!-- Node2 -->
<g id="node2" class="node"><title>Node2</title>
<g id="a_node2"><a xlink:title=" ">
<polygon fill="white" stroke="#bfbfbf" points="0,-56.5 0,-75.5 68,-75.5 68,-56.5 0,-56.5"/>
<text text-anchor="middle" x="34" y="-63.5" font-family="Helvetica,sans-Serif" font-size="10.00">UserControl</text>
</a>
</g>
</g>
<!-- Node2&#45;&gt;Node1 -->
<g id="edge1" class="edge"><title>Node2&#45;&gt;Node1</title>
<path fill="none" stroke="midnightblue" d="M49.0763,-48.7175C57.8891,-39.1997 68.6659,-27.5608 75.8972,-19.7511"/>
<polygon fill="midnightblue" stroke="midnightblue" points="46.4824,-46.3674 42.2565,-56.083 51.6188,-51.1233 46.4824,-46.3674"/>
</g>
<!-- Node3 -->
<g id="node3" class="node"><title>Node3</title>
<g id="a_node3"><a xlink:href="../../dc/d11/interfaceIG_1_1Gr3d_1_1IVtkFormContainer.html" target="_top" xlink:title="This interface is implemented by the forms that contain the VTK control that can render VTK graphics.">
<polygon fill="white" stroke="black" points="86,-56.5 86,-75.5 184,-75.5 184,-56.5 86,-56.5"/>
<text text-anchor="middle" x="135" y="-63.5" font-family="Helvetica,sans-Serif" font-size="10.00">IVtkFormContainer</text>
</a>
</g>
</g>
<!-- Node3&#45;&gt;Node1 -->
<g id="edge2" class="edge"><title>Node3&#45;&gt;Node1</title>
<path fill="none" stroke="midnightblue" d="M119.622,-48.7175C110.633,-39.1997 99.6408,-27.5608 92.2649,-19.7511"/>
<polygon fill="midnightblue" stroke="midnightblue" points="117.168,-51.216 126.578,-56.083 122.257,-46.4096 117.168,-51.216"/>
</g>
<!-- Node4 -->
<g id="node4" class="node"><title>Node4</title>
<g id="a_node4"><a xlink:href="../../d3/d6e/interfaceIG_1_1Gr3d_1_1IVtkFormContainerGen.html" target="_top" xlink:title=" ">
<polygon fill="white" stroke="black" points="41,-112.5 41,-142.5 229,-142.5 229,-112.5 41,-112.5"/>
<text text-anchor="start" x="49" y="-130.5" font-family="Helvetica,sans-Serif" font-size="10.00">IVtkFormContainerGen</text>
<text text-anchor="middle" x="135" y="-119.5" font-family="Helvetica,sans-Serif" font-size="10.00">&lt; Kitware.VTK.RenderWindowControl &gt;</text>
</a>
</g>
</g>
<!-- Node4&#45;&gt;Node3 -->
<g id="edge3" class="edge"><title>Node4&#45;&gt;Node3</title>
<path fill="none" stroke="midnightblue" d="M135,-102.289C135,-92.857 135,-82.6548 135,-75.6578"/>
<polygon fill="midnightblue" stroke="midnightblue" points="131.5,-102.399 135,-112.399 138.5,-102.399 131.5,-102.399"/>
</g>
</g>
</svg>
