<?xml version="1.0" encoding="UTF-8" standalone="no"?>
<!DOCTYPE svg PUBLIC "-//W3C//DTD SVG 1.1//EN"
 "http://www.w3.org/Graphics/SVG/1.1/DTD/svg11.dtd">
<!-- Generated by graphviz version 2.38.0 (20140413.2041)
 -->
<!-- Title: NUnit.Engine.RunTestsCallbackHandler Pages: 1 -->
<svg width="246pt" height="151pt"
 viewBox="0.00 0.00 245.50 151.00" xmlns="http://www.w3.org/2000/svg" xmlns:xlink="http://www.w3.org/1999/xlink">
<g id="graph0" class="graph" transform="scale(1 1) rotate(0) translate(4 147)">
<title>NUnit.Engine.RunTestsCallbackHandler</title>
<polygon fill="white" stroke="none" points="-4,4 -4,-147 241.5,-147 241.5,4 -4,4"/>
<!-- Node1 -->
<g id="node1" class="node"><title>Node1</title>
<g id="a_node1"><a xlink:title=" ">
<polygon fill="#bfbfbf" stroke="black" points="39.5,-0.5 39.5,-30.5 194.5,-30.5 194.5,-0.5 39.5,-0.5"/>
<text text-anchor="start" x="47.5" y="-18.5" font-family="Helvetica,sans-Serif" font-size="10.00">NUnit.Engine.RunTestsCallback</text>
<text text-anchor="middle" x="117" y="-7.5" font-family="Helvetica,sans-Serif" font-size="10.00">Handler</text>
</a>
</g>
</g>
<!-- Node2 -->
<g id="node2" class="node"><title>Node2</title>
<g id="a_node2"><a xlink:href="../../de/df7/classNUnit_1_1Engine_1_1CallbackHandler.html" target="_top" xlink:title=" ">
<polygon fill="white" stroke="black" points="73.5,-67.5 73.5,-86.5 160.5,-86.5 160.5,-67.5 73.5,-67.5"/>
<text text-anchor="middle" x="117" y="-74.5" font-family="Helvetica,sans-Serif" font-size="10.00">CallbackHandler</text>
</a>
</g>
</g>
<!-- Node2&#45;&gt;Node1 -->
<g id="edge1" class="edge"><title>Node2&#45;&gt;Node1</title>
<path fill="none" stroke="midnightblue" d="M117,-57.2349C117,-48.5864 117,-38.4969 117,-30.523"/>
<polygon fill="midnightblue" stroke="midnightblue" points="113.5,-57.4751 117,-67.4751 120.5,-57.4751 113.5,-57.4751"/>
</g>
<!-- Node3 -->
<g id="node3" class="node"><title>Node3</title>
<g id="a_node3"><a xlink:title=" ">
<polygon fill="white" stroke="#bfbfbf" points="0,-123.5 0,-142.5 106,-142.5 106,-123.5 0,-123.5"/>
<text text-anchor="middle" x="53" y="-130.5" font-family="Helvetica,sans-Serif" font-size="10.00">MarshalByRefObject</text>
</a>
</g>
</g>
<!-- Node3&#45;&gt;Node2 -->
<g id="edge2" class="edge"><title>Node3&#45;&gt;Node2</title>
<path fill="none" stroke="midnightblue" d="M70.9915,-116.82C82.4576,-107.145 96.9133,-94.9481 106.53,-86.8339"/>
<polygon fill="midnightblue" stroke="midnightblue" points="68.6686,-114.2 63.2827,-123.324 73.1827,-119.55 68.6686,-114.2"/>
</g>
<!-- Node4 -->
<g id="node4" class="node"><title>Node4</title>
<g id="a_node4"><a xlink:title=" ">
<polygon fill="white" stroke="#bfbfbf" points="124.5,-123.5 124.5,-142.5 237.5,-142.5 237.5,-123.5 124.5,-123.5"/>
<text text-anchor="middle" x="181" y="-130.5" font-family="Helvetica,sans-Serif" font-size="10.00">ICallbackEventHandler</text>
</a>
</g>
</g>
<!-- Node4&#45;&gt;Node2 -->
<g id="edge3" class="edge"><title>Node4&#45;&gt;Node2</title>
<path fill="none" stroke="midnightblue" d="M163.009,-116.82C151.542,-107.145 137.087,-94.9481 127.47,-86.8339"/>
<polygon fill="midnightblue" stroke="midnightblue" points="160.817,-119.55 170.717,-123.324 165.331,-114.2 160.817,-119.55"/>
</g>
</g>
</svg>
