<?xml version="1.0" encoding="UTF-8" standalone="no"?>
<!DOCTYPE svg PUBLIC "-//W3C//DTD SVG 1.1//EN"
 "http://www.w3.org/Graphics/SVG/1.1/DTD/svg11.dtd">
<!-- Generated by graphviz version 2.38.0 (20140413.2041)
 -->
<!-- Title: IG.Num.IComplex Pages: 1 -->
<svg width="284pt" height="140pt"
 viewBox="0.00 0.00 284.00 140.00" xmlns="http://www.w3.org/2000/svg" xmlns:xlink="http://www.w3.org/1999/xlink">
<g id="graph0" class="graph" transform="scale(1 1) rotate(0) translate(4 136)">
<title>IG.Num.IComplex</title>
<polygon fill="white" stroke="none" points="-4,4 -4,-136 280,-136 280,4 -4,4"/>
<!-- Node1 -->
<g id="node1" class="node"><title>Node1</title>
<g id="a_node1"><a xlink:title="Interface that must be implemented by all complex numbers. $A Igor Oct09;">
<polygon fill="#bfbfbf" stroke="black" points="119,-112.5 119,-131.5 212,-131.5 212,-112.5 119,-112.5"/>
<text text-anchor="middle" x="165.5" y="-119.5" font-family="Helvetica,sans-Serif" font-size="10.00">IG.Num.IComplex</text>
</a>
</g>
</g>
<!-- Node2 -->
<g id="node2" class="node"><title>Node2</title>
<g id="a_node2"><a xlink:href="../../d0/d36/structIG_1_1Num_1_1complex.html" target="_top" xlink:title="Complex number.">
<polygon fill="white" stroke="black" points="0,-56.5 0,-75.5 89,-75.5 89,-56.5 0,-56.5"/>
<text text-anchor="middle" x="44.5" y="-63.5" font-family="Helvetica,sans-Serif" font-size="10.00">IG.Num.complex</text>
</a>
</g>
</g>
<!-- Node1&#45;&gt;Node2 -->
<g id="edge1" class="edge"><title>Node1&#45;&gt;Node2</title>
<path fill="none" stroke="midnightblue" d="M137.194,-108.368C114.535,-98.2553 83.3737,-84.3486 63.5831,-75.5164"/>
<polygon fill="midnightblue" stroke="midnightblue" points="135.769,-111.564 146.327,-112.444 138.622,-105.172 135.769,-111.564"/>
</g>
<!-- Node3 -->
<g id="node3" class="node"><title>Node3</title>
<g id="a_node3"><a xlink:href="../../de/dea/classIG_1_1Num_1_1ComplexClass.html" target="_top" xlink:title="Class representing general complex numbers.">
<polygon fill="white" stroke="black" points="107.5,-56.5 107.5,-75.5 223.5,-75.5 223.5,-56.5 107.5,-56.5"/>
<text text-anchor="middle" x="165.5" y="-63.5" font-family="Helvetica,sans-Serif" font-size="10.00">IG.Num.ComplexClass</text>
</a>
</g>
</g>
<!-- Node1&#45;&gt;Node3 -->
<g id="edge2" class="edge"><title>Node1&#45;&gt;Node3</title>
<path fill="none" stroke="midnightblue" d="M165.5,-101.805C165.5,-92.9102 165.5,-82.7798 165.5,-75.7511"/>
<polygon fill="midnightblue" stroke="midnightblue" points="162,-102.083 165.5,-112.083 169,-102.083 162,-102.083"/>
</g>
<!-- Node4 -->
<g id="node4" class="node"><title>Node4</title>
<g id="a_node4"><a xlink:href="../../d6/d4a/classIG_1_1Num_1_1ComplexRealClass.html" target="_top" xlink:title="Complex class that can only represent real numbers (imaginary part is always 0). Attempt to set an im...">
<polygon fill="white" stroke="black" points="141,-0.5 141,-19.5 276,-19.5 276,-0.5 141,-0.5"/>
<text text-anchor="middle" x="208.5" y="-7.5" font-family="Helvetica,sans-Serif" font-size="10.00">IG.Num.ComplexRealClass</text>
</a>
</g>
</g>
<!-- Node1&#45;&gt;Node4 -->
<g id="edge4" class="edge"><title>Node1&#45;&gt;Node4</title>
<path fill="none" stroke="midnightblue" d="M197.342,-107.942C210.739,-100.665 224.95,-90.1661 232.5,-76 242.684,-56.8917 226.682,-32.5194 216.283,-19.7325"/>
<polygon fill="midnightblue" stroke="midnightblue" points="195.666,-104.867 188.288,-112.471 198.798,-111.128 195.666,-104.867"/>
</g>
<!-- Node3&#45;&gt;Node4 -->
<g id="edge3" class="edge"><title>Node3&#45;&gt;Node4</title>
<path fill="none" stroke="midnightblue" d="M178.922,-48.144C186.414,-38.7357 195.437,-27.4046 201.532,-19.7511"/>
<polygon fill="midnightblue" stroke="midnightblue" points="176.092,-46.0799 172.601,-56.083 181.568,-50.4404 176.092,-46.0799"/>
</g>
</g>
</svg>
