<?xml version="1.0" encoding="UTF-8" standalone="no"?>
<!DOCTYPE svg PUBLIC "-//W3C//DTD SVG 1.1//EN"
 "http://www.w3.org/Graphics/SVG/1.1/DTD/svg11.dtd">
<!-- Generated by graphviz version 2.38.0 (20140413.2041)
 -->
<!-- Title: NUnit.Framework.Internal.TestCaseResult Pages: 1 -->
<svg width="315pt" height="231pt"
 viewBox="0.00 0.00 314.50 231.00" xmlns="http://www.w3.org/2000/svg" xmlns:xlink="http://www.w3.org/1999/xlink">
<g id="graph0" class="graph" transform="scale(1 1) rotate(0) translate(4 227)">
<title>NUnit.Framework.Internal.TestCaseResult</title>
<polygon fill="white" stroke="none" points="-4,4 -4,-227 310.5,-227 310.5,4 -4,4"/>
<!-- Node1 -->
<g id="node1" class="node"><title>Node1</title>
<g id="a_node1"><a xlink:title="Represents the result of running a single test case.">
<polygon fill="#bfbfbf" stroke="black" points="55,-0.5 55,-30.5 184,-30.5 184,-0.5 55,-0.5"/>
<text text-anchor="start" x="63" y="-18.5" font-family="Helvetica,sans-Serif" font-size="10.00">NUnit.Framework.Internal.</text>
<text text-anchor="middle" x="119.5" y="-7.5" font-family="Helvetica,sans-Serif" font-size="10.00">TestCaseResult</text>
</a>
</g>
</g>
<!-- Node2 -->
<g id="node2" class="node"><title>Node2</title>
<g id="a_node2"><a xlink:href="../../dd/dfe/classNUnit_1_1Framework_1_1Internal_1_1TestResult.html" target="_top" xlink:title="The TestResult class represents the result of a test.">
<polygon fill="white" stroke="black" points="88,-68.5 88,-87.5 151,-87.5 151,-68.5 88,-68.5"/>
<text text-anchor="middle" x="119.5" y="-75.5" font-family="Helvetica,sans-Serif" font-size="10.00">TestResult</text>
</a>
</g>
</g>
<!-- Node2&#45;&gt;Node1 -->
<g id="edge1" class="edge"><title>Node2&#45;&gt;Node1</title>
<path fill="none" stroke="midnightblue" d="M119.5,-58.2154C119.5,-49.3565 119.5,-38.9577 119.5,-30.7587"/>
<polygon fill="midnightblue" stroke="midnightblue" points="116,-58.3318 119.5,-68.3318 123,-58.3319 116,-58.3318"/>
</g>
<!-- Node3 -->
<g id="node3" class="node"><title>Node3</title>
<g id="a_node3"><a xlink:href="../../d2/df9/interfaceNUnit_1_1Framework_1_1Interfaces_1_1ITestResult.html" target="_top" xlink:title="The ITestResult interface represents the result of a test.">
<polygon fill="white" stroke="black" points="11,-146.5 11,-165.5 76,-165.5 76,-146.5 11,-146.5"/>
<text text-anchor="middle" x="43.5" y="-153.5" font-family="Helvetica,sans-Serif" font-size="10.00">ITestResult</text>
</a>
</g>
</g>
<!-- Node3&#45;&gt;Node2 -->
<g id="edge2" class="edge"><title>Node3&#45;&gt;Node2</title>
<path fill="none" stroke="midnightblue" d="M59.625,-138.875C75.2839,-123.216 98.4578,-100.042 110.884,-87.6165"/>
<polygon fill="midnightblue" stroke="midnightblue" points="56.8144,-136.736 52.2182,-146.282 61.7641,-141.686 56.8144,-136.736"/>
</g>
<!-- Node4 -->
<g id="node4" class="node"><title>Node4</title>
<g id="a_node4"><a xlink:href="../../d9/dc0/interfaceNUnit_1_1Framework_1_1Interfaces_1_1IXmlNodeBuilder.html" target="_top" xlink:title="An object implementing IXmlNodeBuilder is able to build an XML representation of itself and any child...">
<polygon fill="white" stroke="black" points="0,-203.5 0,-222.5 87,-222.5 87,-203.5 0,-203.5"/>
<text text-anchor="middle" x="43.5" y="-210.5" font-family="Helvetica,sans-Serif" font-size="10.00">IXmlNodeBuilder</text>
</a>
</g>
</g>
<!-- Node4&#45;&gt;Node3 -->
<g id="edge3" class="edge"><title>Node4&#45;&gt;Node3</title>
<path fill="none" stroke="midnightblue" d="M43.5,-193.117C43.5,-183.817 43.5,-173.056 43.5,-165.715"/>
<polygon fill="midnightblue" stroke="midnightblue" points="40.0001,-193.406 43.5,-203.406 47.0001,-193.406 40.0001,-193.406"/>
</g>
<!-- Node5 -->
<g id="node5" class="node"><title>Node5</title>
<g id="a_node5"><a xlink:title=" ">
<polygon fill="white" stroke="#bfbfbf" points="94.5,-146.5 94.5,-165.5 144.5,-165.5 144.5,-146.5 94.5,-146.5"/>
<text text-anchor="middle" x="119.5" y="-153.5" font-family="Helvetica,sans-Serif" font-size="10.00">System</text>
</a>
</g>
</g>
<!-- Node5&#45;&gt;Node2 -->
<g id="edge4" class="edge"><title>Node5&#45;&gt;Node2</title>
<path fill="none" stroke="#9a32cd" stroke-dasharray="5,2" d="M119.5,-136.224C119.5,-120.697 119.5,-99.3582 119.5,-87.6165"/>
<polygon fill="#9a32cd" stroke="#9a32cd" points="116,-136.282 119.5,-146.282 123,-136.282 116,-136.282"/>
<text text-anchor="middle" x="141" y="-114.5" font-family="Helvetica,sans-Serif" font-size="10.00"> _children</text>
</g>
<!-- Node6 -->
<g id="node6" class="node"><title>Node6</title>
<g id="a_node6"><a xlink:title=" ">
<polygon fill="white" stroke="#bfbfbf" points="165,-146.5 165,-165.5 206,-165.5 206,-146.5 165,-146.5"/>
<text text-anchor="middle" x="185.5" y="-153.5" font-family="Helvetica,sans-Serif" font-size="10.00">static</text>
</a>
</g>
</g>
<!-- Node6&#45;&gt;Node2 -->
<g id="edge5" class="edge"><title>Node6&#45;&gt;Node2</title>
<path fill="none" stroke="#9a32cd" stroke-dasharray="5,2" d="M180.146,-136.479C176.609,-126.612 171.187,-114.743 163.5,-106 156.754,-98.3268 147.29,-92.1334 138.868,-87.6234"/>
<polygon fill="#9a32cd" stroke="#9a32cd" points="176.866,-137.711 183.264,-146.157 183.529,-135.565 176.866,-137.711"/>
<text text-anchor="middle" x="241.5" y="-120" font-family="Helvetica,sans-Serif" font-size="10.00"> CHILD_IGNORE_MESSAGE</text>
<text text-anchor="middle" x="241.5" y="-109" font-family="Helvetica,sans-Serif" font-size="10.00">CHILD_ERRORS_MESSAGE</text>
</g>
</g>
</svg>
