<?xml version="1.0" encoding="UTF-8" standalone="no"?>
<!DOCTYPE svg PUBLIC "-//W3C//DTD SVG 1.1//EN"
 "http://www.w3.org/Graphics/SVG/1.1/DTD/svg11.dtd">
<!-- Generated by graphviz version 2.38.0 (20140413.2041)
 -->
<!-- Title: HoughTransform.MainForm Pages: 1 -->
<svg width="205pt" height="205pt"
 viewBox="0.00 0.00 205.00 205.00" xmlns="http://www.w3.org/2000/svg" xmlns:xlink="http://www.w3.org/1999/xlink">
<g id="graph0" class="graph" transform="scale(1 1) rotate(0) translate(4 201)">
<title>HoughTransform.MainForm</title>
<polygon fill="white" stroke="none" points="-4,4 -4,-201 201,-201 201,4 -4,4"/>
<!-- Node1 -->
<g id="node1" class="node"><title>Node1</title>
<g id="a_node1"><a xlink:title=" ">
<polygon fill="#bfbfbf" stroke="black" points="0,-0.5 0,-19.5 134,-19.5 134,-0.5 0,-0.5"/>
<text text-anchor="middle" x="67" y="-7.5" font-family="Helvetica,sans-Serif" font-size="10.00">HoughTransform.MainForm</text>
</a>
</g>
</g>
<!-- Node2 -->
<g id="node2" class="node"><title>Node2</title>
<g id="a_node2"><a xlink:title=" ">
<polygon fill="white" stroke="#bfbfbf" points="16.5,-177.5 16.5,-196.5 55.5,-196.5 55.5,-177.5 16.5,-177.5"/>
<text text-anchor="middle" x="36" y="-184.5" font-family="Helvetica,sans-Serif" font-size="10.00">Form</text>
</a>
</g>
</g>
<!-- Node2&#45;&gt;Node1 -->
<g id="edge1" class="edge"><title>Node2&#45;&gt;Node1</title>
<path fill="none" stroke="midnightblue" d="M39.3744,-166.951C46.0445,-129.297 60.6842,-46.6537 65.4601,-19.6932"/>
<polygon fill="midnightblue" stroke="midnightblue" points="35.8779,-166.624 37.5799,-177.081 42.7706,-167.845 35.8779,-166.624"/>
</g>
<!-- Node3 -->
<g id="node3" class="node"><title>Node3</title>
<g id="a_node3"><a xlink:title=" ">
<polygon fill="white" stroke="#bfbfbf" points="74,-177.5 74,-196.5 124,-196.5 124,-177.5 74,-177.5"/>
<text text-anchor="middle" x="99" y="-184.5" font-family="Helvetica,sans-Serif" font-size="10.00">System</text>
</a>
</g>
</g>
<!-- Node3&#45;&gt;Node1 -->
<g id="edge2" class="edge"><title>Node3&#45;&gt;Node1</title>
<path fill="none" stroke="#9a32cd" stroke-dasharray="5,2" d="M95.5168,-166.951C88.6315,-129.297 73.5195,-46.6537 68.5896,-19.6932"/>
<polygon fill="#9a32cd" stroke="#9a32cd" points="92.1274,-167.874 97.3691,-177.081 99.0132,-166.615 92.1274,-167.874"/>
<text text-anchor="middle" x="145.5" y="-151" font-family="Helvetica,sans-Serif" font-size="10.00"> exitToolStripMenuItem</text>
<text text-anchor="middle" x="145.5" y="-140" font-family="Helvetica,sans-Serif" font-size="10.00">toolStripMenuItem1</text>
<text text-anchor="middle" x="145.5" y="-129" font-family="Helvetica,sans-Serif" font-size="10.00">fileToolStripMenuItem</text>
<text text-anchor="middle" x="145.5" y="-118" font-family="Helvetica,sans-Serif" font-size="10.00">houghCirclePictureBox</text>
<text text-anchor="middle" x="145.5" y="-107" font-family="Helvetica,sans-Serif" font-size="10.00">openToolStripMenuItem</text>
<text text-anchor="middle" x="145.5" y="-96" font-family="Helvetica,sans-Serif" font-size="10.00">menuStrip1</text>
<text text-anchor="middle" x="145.5" y="-85" font-family="Helvetica,sans-Serif" font-size="10.00">sourcePictureBox</text>
<text text-anchor="middle" x="145.5" y="-74" font-family="Helvetica,sans-Serif" font-size="10.00">tabPage1</text>
<text text-anchor="middle" x="145.5" y="-63" font-family="Helvetica,sans-Serif" font-size="10.00">tabPage2</text>
<text text-anchor="middle" x="145.5" y="-52" font-family="Helvetica,sans-Serif" font-size="10.00">components</text>
<text text-anchor="middle" x="145.5" y="-41" font-family="Helvetica,sans-Serif" font-size="10.00">...</text>
</g>
</g>
</svg>
