<?xml version="1.0" encoding="UTF-8" standalone="no"?>
<!DOCTYPE svg PUBLIC "-//W3C//DTD SVG 1.1//EN"
 "http://www.w3.org/Graphics/SVG/1.1/DTD/svg11.dtd">
<!-- Generated by graphviz version 2.38.0 (20140413.2041)
 -->
<!-- Title: IG.Sim.SimDomainDto Pages: 1 -->
<svg width="574pt" height="208pt"
 viewBox="0.00 0.00 574.00 208.00" xmlns="http://www.w3.org/2000/svg" xmlns:xlink="http://www.w3.org/1999/xlink">
<g id="graph0" class="graph" transform="scale(1 1) rotate(0) translate(4 204)">
<title>IG.Sim.SimDomainDto</title>
<polygon fill="white" stroke="none" points="-4,4 -4,-204 570,-204 570,4 -4,4"/>
<!-- Node1 -->
<g id="node1" class="node"><title>Node1</title>
<g id="a_node1"><a xlink:title="Base class for simulation domains.">
<polygon fill="#bfbfbf" stroke="black" points="451,-93 451,-112 566,-112 566,-93 451,-93"/>
<text text-anchor="middle" x="508.5" y="-100" font-family="Helvetica,sans-Serif" font-size="10.00">IG.Sim.SimDomainDto</text>
</a>
</g>
</g>
<!-- Node1&#45;&gt;Node1 -->
<g id="edge5" class="edge"><title>Node1&#45;&gt;Node1</title>
<path fill="none" stroke="#9a32cd" stroke-dasharray="5,2" d="M489.242,-121.9C490.528,-126.815 496.947,-130.5 508.5,-130.5 526.984,-130.5 532.328,-121.065 524.529,-112.257"/>
<polygon fill="#9a32cd" stroke="#9a32cd" points="492.614,-122.851 492.471,-112.257 485.976,-120.628 492.614,-122.851"/>
<text text-anchor="middle" x="508.5" y="-133.5" font-family="Helvetica,sans-Serif" font-size="10.00"> Parent</text>
</g>
<!-- Node2 -->
<g id="node2" class="node"><title>Node2</title>
<g id="a_node2"><a xlink:href="../../db/df8/classIG_1_1Sim_1_1SimulationComponentDtoBase.html" target="_top" xlink:title=" ">
<polygon fill="white" stroke="black" points="185,-169.5 185,-199.5 356,-199.5 356,-169.5 185,-169.5"/>
<text text-anchor="start" x="193" y="-187.5" font-family="Helvetica,sans-Serif" font-size="10.00">SimulationComponentDtoBase</text>
<text text-anchor="middle" x="270.5" y="-176.5" font-family="Helvetica,sans-Serif" font-size="10.00">&lt; SimDomainDto, SimDomainDto &gt;</text>
</a>
</g>
</g>
<!-- Node2&#45;&gt;Node1 -->
<g id="edge1" class="edge"><title>Node2&#45;&gt;Node1</title>
<path fill="none" stroke="midnightblue" d="M339.022,-166.722C368.231,-158.445 402.616,-147.909 433,-136.5 452.299,-129.253 473.637,-119.308 488.512,-112.046"/>
<polygon fill="midnightblue" stroke="midnightblue" points="338.011,-163.37 329.328,-169.44 339.901,-170.11 338.011,-163.37"/>
</g>
<!-- Node3 -->
<g id="node3" class="node"><title>Node3</title>
<g id="a_node3"><a xlink:href="../../d9/d17/interfaceIG_1_1Sim_1_1ISimulationComponentDto.html" target="_top" xlink:title="Interface for all components of simulation DTOs.">
<polygon fill="white" stroke="black" points="206,-131 206,-150 335,-150 335,-131 206,-131"/>
<text text-anchor="middle" x="270.5" y="-138" font-family="Helvetica,sans-Serif" font-size="10.00">ISimulationComponentDto</text>
</a>
</g>
</g>
<!-- Node3&#45;&gt;Node1 -->
<g id="edge2" class="edge"><title>Node3&#45;&gt;Node1</title>
<path fill="none" stroke="midnightblue" d="M345.265,-130.9C372.848,-127.072 404.412,-122.41 433,-117.5 442.492,-115.87 452.629,-113.95 462.271,-112.037"/>
<polygon fill="midnightblue" stroke="midnightblue" points="344.726,-127.441 335.296,-132.271 345.68,-134.376 344.726,-127.441"/>
</g>
<!-- Node4 -->
<g id="node4" class="node"><title>Node4</title>
<g id="a_node4"><a xlink:href="../../d2/d71/classIG_1_1Sim_1_1SimScalarFieldDto.html" target="_top" xlink:title="Scalar field.">
<polygon fill="white" stroke="black" points="205,-93 205,-112 336,-112 336,-93 205,-93"/>
<text text-anchor="middle" x="270.5" y="-100" font-family="Helvetica,sans-Serif" font-size="10.00">IG.Sim.SimScalarFieldDto</text>
</a>
</g>
</g>
<!-- Node4&#45;&gt;Node1 -->
<g id="edge3" class="edge"><title>Node4&#45;&gt;Node1</title>
<path fill="none" stroke="#9a32cd" stroke-dasharray="5,2" d="M346.598,-102.5C380.389,-102.5 419.613,-102.5 450.874,-102.5"/>
<polygon fill="#9a32cd" stroke="#9a32cd" points="346.3,-99.0001 336.3,-102.5 346.3,-106 346.3,-99.0001"/>
<text text-anchor="middle" x="403.5" y="-105.5" font-family="Helvetica,sans-Serif" font-size="10.00"> ScalarFields</text>
</g>
<!-- Node5 -->
<g id="node5" class="node"><title>Node5</title>
<g id="a_node5"><a xlink:href="../../d9/da7/classIG_1_1Sim_1_1SimFieldBaseDto.html" target="_top" xlink:title=" ">
<polygon fill="white" stroke="black" points="1,-98.5 1,-128.5 147,-128.5 147,-98.5 1,-98.5"/>
<text text-anchor="start" x="9" y="-116.5" font-family="Helvetica,sans-Serif" font-size="10.00">SimFieldBaseDto&lt; SimScalar</text>
<text text-anchor="middle" x="74" y="-105.5" font-family="Helvetica,sans-Serif" font-size="10.00">FieldDto &gt;</text>
</a>
</g>
</g>
<!-- Node5&#45;&gt;Node4 -->
<g id="edge4" class="edge"><title>Node5&#45;&gt;Node4</title>
<path fill="none" stroke="midnightblue" d="M157.461,-108.836C173.298,-107.941 189.672,-107.015 204.848,-106.156"/>
<polygon fill="midnightblue" stroke="midnightblue" points="156.935,-105.36 147.148,-109.42 157.33,-112.349 156.935,-105.36"/>
</g>
<!-- Node6 -->
<g id="node6" class="node"><title>Node6</title>
<g id="a_node6"><a xlink:href="../../de/df0/classIG_1_1Sim_1_1SimTensorFieldDto.html" target="_top" xlink:title="Tensor field.">
<polygon fill="white" stroke="black" points="204.5,-55 204.5,-74 336.5,-74 336.5,-55 204.5,-55"/>
<text text-anchor="middle" x="270.5" y="-62" font-family="Helvetica,sans-Serif" font-size="10.00">IG.Sim.SimTensorFieldDto</text>
</a>
</g>
</g>
<!-- Node6&#45;&gt;Node1 -->
<g id="edge6" class="edge"><title>Node6&#45;&gt;Node1</title>
<path fill="none" stroke="#9a32cd" stroke-dasharray="5,2" d="M347.067,-74.3507C374.216,-78.1302 405.032,-82.6969 433,-87.5 442.492,-89.1302 452.629,-91.0503 462.271,-92.9626"/>
<polygon fill="#9a32cd" stroke="#9a32cd" points="347.239,-70.8413 336.854,-72.9418 346.282,-77.7757 347.239,-70.8413"/>
<text text-anchor="middle" x="403.5" y="-90.5" font-family="Helvetica,sans-Serif" font-size="10.00"> TensorFields</text>
</g>
<!-- Node7 -->
<g id="node7" class="node"><title>Node7</title>
<g id="a_node7"><a xlink:href="../../d9/da7/classIG_1_1Sim_1_1SimFieldBaseDto.html" target="_top" xlink:title=" ">
<polygon fill="white" stroke="black" points="0,-49.5 0,-79.5 148,-79.5 148,-49.5 0,-49.5"/>
<text text-anchor="start" x="8" y="-67.5" font-family="Helvetica,sans-Serif" font-size="10.00">SimFieldBaseDto&lt; SimTensor</text>
<text text-anchor="middle" x="74" y="-56.5" font-family="Helvetica,sans-Serif" font-size="10.00">FieldDto &gt;</text>
</a>
</g>
</g>
<!-- Node7&#45;&gt;Node6 -->
<g id="edge7" class="edge"><title>Node7&#45;&gt;Node6</title>
<path fill="none" stroke="midnightblue" d="M158.283,-64.5C173.674,-64.5 189.54,-64.5 204.298,-64.5"/>
<polygon fill="midnightblue" stroke="midnightblue" points="158.255,-61.0001 148.255,-64.5 158.255,-68.0001 158.255,-61.0001"/>
</g>
<!-- Node8 -->
<g id="node8" class="node"><title>Node8</title>
<g id="a_node8"><a xlink:href="../../d9/db7/classIG_1_1Sim_1_1SimVectorFieldDto.html" target="_top" xlink:title="Vector field.">
<polygon fill="white" stroke="black" points="205,-12 205,-31 336,-31 336,-12 205,-12"/>
<text text-anchor="middle" x="270.5" y="-19" font-family="Helvetica,sans-Serif" font-size="10.00">IG.Sim.SimVectorFieldDto</text>
</a>
</g>
</g>
<!-- Node8&#45;&gt;Node1 -->
<g id="edge8" class="edge"><title>Node8&#45;&gt;Node1</title>
<path fill="none" stroke="#9a32cd" stroke-dasharray="5,2" d="M329.589,-33.2324C360.785,-40.3694 399.588,-50.6044 433,-63.5 454.111,-71.6479 476.969,-84.2263 491.719,-92.8832"/>
<polygon fill="#9a32cd" stroke="#9a32cd" points="330.268,-29.7978 319.745,-31.0247 328.736,-36.6281 330.268,-29.7978"/>
<text text-anchor="middle" x="403.5" y="-66.5" font-family="Helvetica,sans-Serif" font-size="10.00"> VectorFields</text>
</g>
<!-- Node9 -->
<g id="node9" class="node"><title>Node9</title>
<g id="a_node9"><a xlink:href="../../d9/da7/classIG_1_1Sim_1_1SimFieldBaseDto.html" target="_top" xlink:title=" ">
<polygon fill="white" stroke="black" points="0.5,-0.5 0.5,-30.5 147.5,-30.5 147.5,-0.5 0.5,-0.5"/>
<text text-anchor="start" x="8.5" y="-18.5" font-family="Helvetica,sans-Serif" font-size="10.00">SimFieldBaseDto&lt; SimVector</text>
<text text-anchor="middle" x="74" y="-7.5" font-family="Helvetica,sans-Serif" font-size="10.00">FieldDto &gt;</text>
</a>
</g>
</g>
<!-- Node9&#45;&gt;Node8 -->
<g id="edge9" class="edge"><title>Node9&#45;&gt;Node8</title>
<path fill="none" stroke="midnightblue" d="M157.931,-18.0583C173.636,-18.5428 189.85,-19.0429 204.887,-19.5068"/>
<polygon fill="midnightblue" stroke="midnightblue" points="157.804,-14.5528 147.701,-17.7427 157.589,-21.5495 157.804,-14.5528"/>
</g>
</g>
</svg>
