<?xml version="1.0" encoding="UTF-8" standalone="no"?>
<!DOCTYPE svg PUBLIC "-//W3C//DTD SVG 1.1//EN"
 "http://www.w3.org/Graphics/SVG/1.1/DTD/svg11.dtd">
<!-- Generated by graphviz version 2.38.0 (20140413.2041)
 -->
<!-- Title: NUnit.Framework.Internal.MinimumDurationResultTests Pages: 1 -->
<svg width="586pt" height="387pt"
 viewBox="0.00 0.00 586.00 387.00" xmlns="http://www.w3.org/2000/svg" xmlns:xlink="http://www.w3.org/1999/xlink">
<g id="graph0" class="graph" transform="scale(1 1) rotate(0) translate(4 383)">
<title>NUnit.Framework.Internal.MinimumDurationResultTests</title>
<polygon fill="white" stroke="none" points="-4,4 -4,-383 582,-383 582,4 -4,4"/>
<!-- Node1 -->
<g id="node1" class="node"><title>Node1</title>
<g id="a_node1"><a xlink:title=" ">
<polygon fill="#bfbfbf" stroke="black" points="176,-0.5 176,-30.5 320,-30.5 320,-0.5 176,-0.5"/>
<text text-anchor="start" x="184" y="-18.5" font-family="Helvetica,sans-Serif" font-size="10.00">NUnit.Framework.Internal.</text>
<text text-anchor="middle" x="248" y="-7.5" font-family="Helvetica,sans-Serif" font-size="10.00">MinimumDurationResultTests</text>
</a>
</g>
</g>
<!-- Node2 -->
<g id="node2" class="node"><title>Node2</title>
<g id="a_node2"><a xlink:href="../../db/daa/classNUnit_1_1Framework_1_1Internal_1_1TestResultTests.html" target="_top" xlink:title="Summary description for TestResultTests.">
<polygon fill="white" stroke="black" points="204.5,-68.5 204.5,-87.5 291.5,-87.5 291.5,-68.5 204.5,-68.5"/>
<text text-anchor="middle" x="248" y="-75.5" font-family="Helvetica,sans-Serif" font-size="10.00">TestResultTests</text>
</a>
</g>
</g>
<!-- Node2&#45;&gt;Node1 -->
<g id="edge1" class="edge"><title>Node2&#45;&gt;Node1</title>
<path fill="none" stroke="midnightblue" d="M248,-58.2154C248,-49.3565 248,-38.9577 248,-30.7587"/>
<polygon fill="midnightblue" stroke="midnightblue" points="244.5,-58.3318 248,-68.3318 251.5,-58.3319 244.5,-58.3318"/>
</g>
<!-- Node3 -->
<g id="node3" class="node"><title>Node3</title>
<g id="a_node3"><a xlink:href="../../df/df7/classNUnit_1_1Framework_1_1Internal_1_1TestMethod.html" target="_top" xlink:title="The TestMethod class represents a Test implemented as a method.">
<polygon fill="white" stroke="black" points="116.5,-135.5 116.5,-165.5 245.5,-165.5 245.5,-135.5 116.5,-135.5"/>
<text text-anchor="start" x="124.5" y="-153.5" font-family="Helvetica,sans-Serif" font-size="10.00">NUnit.Framework.Internal.</text>
<text text-anchor="middle" x="181" y="-142.5" font-family="Helvetica,sans-Serif" font-size="10.00">TestMethod</text>
</a>
</g>
</g>
<!-- Node3&#45;&gt;Node2 -->
<g id="edge2" class="edge"><title>Node3&#45;&gt;Node2</title>
<path fill="none" stroke="#9a32cd" stroke-dasharray="5,2" d="M201.659,-127.762C214.411,-114.344 230.087,-97.8487 239.548,-87.8932"/>
<polygon fill="#9a32cd" stroke="#9a32cd" points="198.91,-125.573 194.558,-135.233 203.984,-130.396 198.91,-125.573"/>
<text text-anchor="middle" x="231" y="-109" font-family="Helvetica,sans-Serif" font-size="10.00"> test</text>
</g>
<!-- Node4 -->
<g id="node4" class="node"><title>Node4</title>
<g id="a_node4"><a xlink:href="../../d6/d59/classNUnit_1_1Framework_1_1Internal_1_1Test.html" target="_top" xlink:title="The Test abstract class represents a test within the framework.">
<polygon fill="white" stroke="black" points="90.5,-219 90.5,-238 125.5,-238 125.5,-219 90.5,-219"/>
<text text-anchor="middle" x="108" y="-226" font-family="Helvetica,sans-Serif" font-size="10.00">Test</text>
</a>
</g>
</g>
<!-- Node4&#45;&gt;Node3 -->
<g id="edge3" class="edge"><title>Node4&#45;&gt;Node3</title>
<path fill="none" stroke="midnightblue" d="M123.346,-211.524C136.421,-197.911 155.028,-178.54 167.534,-165.52"/>
<polygon fill="midnightblue" stroke="midnightblue" points="120.777,-209.145 116.374,-218.782 125.826,-213.994 120.777,-209.145"/>
</g>
<!-- Node5 -->
<g id="node5" class="node"><title>Node5</title>
<g id="a_node5"><a xlink:href="../../d6/dd5/interfaceNUnit_1_1Framework_1_1Interfaces_1_1ITest.html" target="_top" xlink:title="Common interface supported by all representations of a test. Only includes informational fields....">
<polygon fill="white" stroke="black" points="0,-302.5 0,-321.5 38,-321.5 38,-302.5 0,-302.5"/>
<text text-anchor="middle" x="19" y="-309.5" font-family="Helvetica,sans-Serif" font-size="10.00">ITest</text>
</a>
</g>
</g>
<!-- Node5&#45;&gt;Node4 -->
<g id="edge4" class="edge"><title>Node5&#45;&gt;Node4</title>
<path fill="none" stroke="midnightblue" d="M36.0001,-295.433C54.5754,-278.423 83.6656,-251.784 98.5439,-238.159"/>
<polygon fill="midnightblue" stroke="midnightblue" points="33.5358,-292.943 28.5246,-302.278 38.2633,-298.106 33.5358,-292.943"/>
</g>
<!-- Node6 -->
<g id="node6" class="node"><title>Node6</title>
<g id="a_node6"><a xlink:href="../../d9/dc0/interfaceNUnit_1_1Framework_1_1Interfaces_1_1IXmlNodeBuilder.html" target="_top" xlink:title="An object implementing IXmlNodeBuilder is able to build an XML representation of itself and any child...">
<polygon fill="white" stroke="black" points="61.5,-359.5 61.5,-378.5 148.5,-378.5 148.5,-359.5 61.5,-359.5"/>
<text text-anchor="middle" x="105" y="-366.5" font-family="Helvetica,sans-Serif" font-size="10.00">IXmlNodeBuilder</text>
</a>
</g>
</g>
<!-- Node6&#45;&gt;Node5 -->
<g id="edge5" class="edge"><title>Node6&#45;&gt;Node5</title>
<path fill="none" stroke="midnightblue" d="M82.8345,-353.824C66.8551,-343.605 45.8137,-330.148 32.3431,-321.533"/>
<polygon fill="midnightblue" stroke="midnightblue" points="81.2523,-356.967 91.5625,-359.406 85.0237,-351.07 81.2523,-356.967"/>
</g>
<!-- Node15 -->
<g id="node15" class="node"><title>Node15</title>
<g id="a_node15"><a xlink:href="../../d2/df9/interfaceNUnit_1_1Framework_1_1Interfaces_1_1ITestResult.html" target="_top" xlink:title="The ITestResult interface represents the result of a test.">
<polygon fill="white" stroke="black" points="204.5,-302.5 204.5,-321.5 269.5,-321.5 269.5,-302.5 204.5,-302.5"/>
<text text-anchor="middle" x="237" y="-309.5" font-family="Helvetica,sans-Serif" font-size="10.00">ITestResult</text>
</a>
</g>
</g>
<!-- Node6&#45;&gt;Node15 -->
<g id="edge17" class="edge"><title>Node6&#45;&gt;Node15</title>
<path fill="none" stroke="midnightblue" d="M134.972,-355.512C159.889,-345.129 194.685,-330.631 216.52,-321.533"/>
<polygon fill="midnightblue" stroke="midnightblue" points="133.51,-352.329 125.625,-359.406 136.202,-358.791 133.51,-352.329"/>
</g>
<!-- Node7 -->
<g id="node7" class="node"><title>Node7</title>
<g id="a_node7"><a xlink:title=" ">
<polygon fill="white" stroke="#bfbfbf" points="56.5,-302.5 56.5,-321.5 127.5,-321.5 127.5,-302.5 56.5,-302.5"/>
<text text-anchor="middle" x="92" y="-309.5" font-family="Helvetica,sans-Serif" font-size="10.00">IComparable</text>
</a>
</g>
</g>
<!-- Node7&#45;&gt;Node4 -->
<g id="edge6" class="edge"><title>Node7&#45;&gt;Node4</title>
<path fill="none" stroke="midnightblue" d="M95.6586,-292.364C98.9966,-275.361 103.781,-250.99 106.3,-238.159"/>
<polygon fill="midnightblue" stroke="midnightblue" points="92.2043,-291.791 93.7123,-302.278 99.0732,-293.14 92.2043,-291.791"/>
</g>
<!-- Node8 -->
<g id="node8" class="node"><title>Node8</title>
<g id="a_node8"><a xlink:title=" ">
<polygon fill="white" stroke="#bfbfbf" points="145.5,-302.5 145.5,-321.5 186.5,-321.5 186.5,-302.5 145.5,-302.5"/>
<text text-anchor="middle" x="166" y="-309.5" font-family="Helvetica,sans-Serif" font-size="10.00">static</text>
</a>
</g>
</g>
<!-- Node8&#45;&gt;Node4 -->
<g id="edge7" class="edge"><title>Node8&#45;&gt;Node4</title>
<path fill="none" stroke="#9a32cd" stroke-dasharray="5,2" d="M139.569,-296.814C134.535,-293.171 129.693,-288.878 126,-284 115.414,-270.018 110.876,-249.501 109.073,-238.044"/>
<polygon fill="#9a32cd" stroke="#9a32cd" points="137.76,-299.813 148.053,-302.323 141.572,-293.942 137.76,-299.813"/>
<text text-anchor="middle" x="144.5" y="-270.5" font-family="Helvetica,sans-Serif" font-size="10.00"> _nextID</text>
</g>
<!-- Node14 -->
<g id="node14" class="node"><title>Node14</title>
<g id="a_node14"><a xlink:href="../../dd/dfe/classNUnit_1_1Framework_1_1Internal_1_1TestResult.html" target="_top" xlink:title="The TestResult class represents the result of a test.">
<polygon fill="white" stroke="black" points="217.5,-213.5 217.5,-243.5 346.5,-243.5 346.5,-213.5 217.5,-213.5"/>
<text text-anchor="start" x="225.5" y="-231.5" font-family="Helvetica,sans-Serif" font-size="10.00">NUnit.Framework.Internal.</text>
<text text-anchor="middle" x="282" y="-220.5" font-family="Helvetica,sans-Serif" font-size="10.00">TestResult</text>
</a>
</g>
</g>
<!-- Node8&#45;&gt;Node14 -->
<g id="edge19" class="edge"><title>Node8&#45;&gt;Node14</title>
<path fill="none" stroke="#9a32cd" stroke-dasharray="5,2" d="M168,-292.165C170.001,-282.022 174.002,-269.987 182,-262 191.688,-252.326 204.282,-245.53 217.249,-240.757"/>
<polygon fill="#9a32cd" stroke="#9a32cd" points="164.525,-291.743 166.52,-302.148 171.449,-292.77 164.525,-291.743"/>
<text text-anchor="middle" x="247" y="-276" font-family="Helvetica,sans-Serif" font-size="10.00"> CHILD_IGNORE_MESSAGE</text>
<text text-anchor="middle" x="247" y="-265" font-family="Helvetica,sans-Serif" font-size="10.00">CHILD_ERRORS_MESSAGE</text>
</g>
<!-- Node9 -->
<g id="node9" class="node"><title>Node9</title>
<g id="a_node9"><a xlink:href="../../d2/d44/classNUnit_1_1Framework_1_1Internal_1_1TestCaseParameters.html" target="_top" xlink:title="The TestCaseParameters class encapsulates method arguments and other selected parameters needed for c...">
<polygon fill="white" stroke="black" points="364.5,-213.5 364.5,-243.5 493.5,-243.5 493.5,-213.5 364.5,-213.5"/>
<text text-anchor="start" x="372.5" y="-231.5" font-family="Helvetica,sans-Serif" font-size="10.00">NUnit.Framework.Internal.</text>
<text text-anchor="middle" x="429" y="-220.5" font-family="Helvetica,sans-Serif" font-size="10.00">TestCaseParameters</text>
</a>
</g>
</g>
<!-- Node9&#45;&gt;Node3 -->
<g id="edge8" class="edge"><title>Node9&#45;&gt;Node3</title>
<path fill="none" stroke="#9a32cd" stroke-dasharray="5,2" d="M373.515,-210.496C329.375,-196.97 268.354,-178.27 226.929,-165.575"/>
<polygon fill="#9a32cd" stroke="#9a32cd" points="372.637,-213.888 383.224,-213.472 374.688,-207.195 372.637,-213.888"/>
<text text-anchor="middle" x="335.5" y="-187" font-family="Helvetica,sans-Serif" font-size="10.00"> parms</text>
</g>
<!-- Node10 -->
<g id="node10" class="node"><title>Node10</title>
<g id="a_node10"><a xlink:href="../../d5/d50/classNUnit_1_1Framework_1_1Internal_1_1TestParameters.html" target="_top" xlink:title="TestParameters is the abstract base class for all classes that know how to provide data for construct...">
<polygon fill="white" stroke="black" points="386,-302.5 386,-321.5 472,-321.5 472,-302.5 386,-302.5"/>
<text text-anchor="middle" x="429" y="-309.5" font-family="Helvetica,sans-Serif" font-size="10.00">TestParameters</text>
</a>
</g>
</g>
<!-- Node10&#45;&gt;Node9 -->
<g id="edge9" class="edge"><title>Node10&#45;&gt;Node9</title>
<path fill="none" stroke="midnightblue" d="M429,-292.229C429,-277.408 429,-257.051 429,-243.597"/>
<polygon fill="midnightblue" stroke="midnightblue" points="425.5,-292.278 429,-302.278 432.5,-292.278 425.5,-292.278"/>
</g>
<!-- Node11 -->
<g id="node11" class="node"><title>Node11</title>
<g id="a_node11"><a xlink:href="../../dc/d63/interfaceNUnit_1_1Framework_1_1Interfaces_1_1ITestData.html" target="_top" xlink:title="The ITestData interface is implemented by a class that represents a single instance of a parameterize...">
<polygon fill="white" stroke="black" points="340,-359.5 340,-378.5 398,-378.5 398,-359.5 340,-359.5"/>
<text text-anchor="middle" x="369" y="-366.5" font-family="Helvetica,sans-Serif" font-size="10.00">ITestData</text>
</a>
</g>
</g>
<!-- Node11&#45;&gt;Node10 -->
<g id="edge10" class="edge"><title>Node11&#45;&gt;Node10</title>
<path fill="none" stroke="midnightblue" d="M386.001,-352.416C396.852,-342.469 410.517,-329.943 419.493,-321.715"/>
<polygon fill="midnightblue" stroke="midnightblue" points="383.382,-350.069 378.375,-359.406 388.112,-355.229 383.382,-350.069"/>
</g>
<!-- Node13 -->
<g id="node13" class="node"><title>Node13</title>
<g id="a_node13"><a xlink:href="../../d8/dd6/interfaceNUnit_1_1Framework_1_1Interfaces_1_1ITestCaseData.html" target="_top" xlink:title="The ITestCaseData interface is implemented by a class that is able to return complete testcases for u...">
<polygon fill="white" stroke="black" points="288,-302.5 288,-321.5 368,-321.5 368,-302.5 288,-302.5"/>
<text text-anchor="middle" x="328" y="-309.5" font-family="Helvetica,sans-Serif" font-size="10.00">ITestCaseData</text>
</a>
</g>
</g>
<!-- Node11&#45;&gt;Node13 -->
<g id="edge13" class="edge"><title>Node11&#45;&gt;Node13</title>
<path fill="none" stroke="midnightblue" d="M356.502,-351.234C349.24,-341.493 340.39,-329.62 334.497,-321.715"/>
<polygon fill="midnightblue" stroke="midnightblue" points="353.811,-353.481 362.594,-359.406 359.423,-349.297 353.811,-353.481"/>
</g>
<!-- Node12 -->
<g id="node12" class="node"><title>Node12</title>
<g id="a_node12"><a xlink:href="../../d8/d57/interfaceNUnit_1_1Framework_1_1Interfaces_1_1IApplyToTest.html" target="_top" xlink:title="The IApplyToTest interface is implemented by self&#45;applying attributes that modify the state of a test...">
<polygon fill="white" stroke="black" points="432.5,-359.5 432.5,-378.5 505.5,-378.5 505.5,-359.5 432.5,-359.5"/>
<text text-anchor="middle" x="469" y="-366.5" font-family="Helvetica,sans-Serif" font-size="10.00">IApplyToTest</text>
</a>
</g>
</g>
<!-- Node12&#45;&gt;Node9 -->
<g id="edge14" class="edge"><title>Node12&#45;&gt;Node9</title>
<path fill="none" stroke="midnightblue" d="M477.028,-349.767C481.815,-336.337 486.063,-317.747 481,-302 473.603,-278.996 455.912,-257.106 443.219,-243.515"/>
<polygon fill="midnightblue" stroke="midnightblue" points="473.688,-348.694 473.242,-359.28 480.192,-351.283 473.688,-348.694"/>
</g>
<!-- Node12&#45;&gt;Node10 -->
<g id="edge11" class="edge"><title>Node12&#45;&gt;Node10</title>
<path fill="none" stroke="midnightblue" d="M456.807,-351.234C449.722,-341.493 441.088,-329.62 435.338,-321.715"/>
<polygon fill="midnightblue" stroke="midnightblue" points="454.038,-353.377 462.75,-359.406 459.699,-349.26 454.038,-353.377"/>
</g>
<!-- Node13&#45;&gt;Node9 -->
<g id="edge12" class="edge"><title>Node13&#45;&gt;Node9</title>
<path fill="none" stroke="midnightblue" d="M346.822,-295.812C365.366,-280.848 393.468,-258.172 411.53,-243.597"/>
<polygon fill="midnightblue" stroke="midnightblue" points="344.393,-293.274 338.809,-302.278 348.789,-298.722 344.393,-293.274"/>
</g>
<!-- Node14&#45;&gt;Node2 -->
<g id="edge15" class="edge"><title>Node14&#45;&gt;Node2</title>
<path fill="none" stroke="#9a32cd" stroke-dasharray="5,2" d="M276.461,-203.308C268.749,-169.623 255.146,-110.211 250.025,-87.8464"/>
<polygon fill="#9a32cd" stroke="#9a32cd" points="273.096,-204.295 278.74,-213.261 279.92,-202.732 273.096,-204.295"/>
<text text-anchor="middle" x="294" y="-153.5" font-family="Helvetica,sans-Serif" font-size="10.00"> suiteResult</text>
<text text-anchor="middle" x="294" y="-142.5" font-family="Helvetica,sans-Serif" font-size="10.00">testResult</text>
</g>
<!-- Node15&#45;&gt;Node14 -->
<g id="edge16" class="edge"><title>Node15&#45;&gt;Node14</title>
<path fill="none" stroke="midnightblue" d="M279.833,-301.12C295.856,-296.485 311.322,-290.542 316,-284 325.47,-270.755 313.08,-254.891 300.683,-243.704"/>
<polygon fill="midnightblue" stroke="midnightblue" points="278.606,-297.827 269.876,-303.831 280.445,-304.581 278.606,-297.827"/>
</g>
<!-- Node16 -->
<g id="node16" class="node"><title>Node16</title>
<g id="a_node16"><a xlink:title=" ">
<polygon fill="white" stroke="#bfbfbf" points="528,-302.5 528,-321.5 578,-321.5 578,-302.5 528,-302.5"/>
<text text-anchor="middle" x="553" y="-309.5" font-family="Helvetica,sans-Serif" font-size="10.00">System</text>
</a>
</g>
</g>
<!-- Node16&#45;&gt;Node14 -->
<g id="edge18" class="edge"><title>Node16&#45;&gt;Node14</title>
<path fill="none" stroke="#9a32cd" stroke-dasharray="5,2" d="M518.324,-300.572C470.114,-286.073 382.695,-259.783 328.76,-243.563"/>
<polygon fill="#9a32cd" stroke="#9a32cd" points="517.406,-303.95 527.991,-303.479 519.422,-297.247 517.406,-303.95"/>
<text text-anchor="middle" x="479.5" y="-270.5" font-family="Helvetica,sans-Serif" font-size="10.00"> _children</text>
</g>
</g>
</svg>
