<?xml version="1.0" encoding="UTF-8" standalone="no"?>
<!DOCTYPE svg PUBLIC "-//W3C//DTD SVG 1.1//EN"
 "http://www.w3.org/Graphics/SVG/1.1/DTD/svg11.dtd">
<!-- Generated by graphviz version 2.38.0 (20140413.2041)
 -->
<!-- Title: NUnit.Framework.Attributes.TestCaseSourceTests Pages: 1 -->
<svg width="148pt" height="183pt"
 viewBox="0.00 0.00 148.00 183.00" xmlns="http://www.w3.org/2000/svg" xmlns:xlink="http://www.w3.org/1999/xlink">
<g id="graph0" class="graph" transform="scale(1 1) rotate(0) translate(4 179)">
<title>NUnit.Framework.Attributes.TestCaseSourceTests</title>
<polygon fill="white" stroke="none" points="-4,4 -4,-179 144,-179 144,4 -4,4"/>
<!-- Node1 -->
<g id="node1" class="node"><title>Node1</title>
<g id="a_node1"><a xlink:title=" ">
<polygon fill="#bfbfbf" stroke="black" points="0,-0.5 0,-30.5 140,-30.5 140,-0.5 0,-0.5"/>
<text text-anchor="start" x="8" y="-18.5" font-family="Helvetica,sans-Serif" font-size="10.00">NUnit.Framework.Attributes.</text>
<text text-anchor="middle" x="70" y="-7.5" font-family="Helvetica,sans-Serif" font-size="10.00">TestCaseSourceTests</text>
</a>
</g>
</g>
<!-- Node2 -->
<g id="node2" class="node"><title>Node2</title>
<g id="a_node2"><a xlink:title=" ">
<polygon fill="white" stroke="#bfbfbf" points="49.5,-155.5 49.5,-174.5 90.5,-174.5 90.5,-155.5 49.5,-155.5"/>
<text text-anchor="middle" x="70" y="-162.5" font-family="Helvetica,sans-Serif" font-size="10.00">static</text>
</a>
</g>
</g>
<!-- Node2&#45;&gt;Node1 -->
<g id="edge1" class="edge"><title>Node2&#45;&gt;Node1</title>
<path fill="none" stroke="#9a32cd" stroke-dasharray="5,2" d="M70,-144.863C70,-114.894 70,-57.5609 70,-30.8526"/>
<polygon fill="#9a32cd" stroke="#9a32cd" points="66.5001,-145.215 70,-155.215 73.5001,-145.215 66.5001,-145.215"/>
<text text-anchor="middle" x="100.5" y="-129" font-family="Helvetica,sans-Serif" font-size="10.00"> testCases</text>
<text text-anchor="middle" x="100.5" y="-118" font-family="Helvetica,sans-Serif" font-size="10.00">MyData</text>
<text text-anchor="middle" x="100.5" y="-107" font-family="Helvetica,sans-Serif" font-size="10.00">FourArgs</text>
<text text-anchor="middle" x="100.5" y="-96" font-family="Helvetica,sans-Serif" font-size="10.00">Params</text>
<text text-anchor="middle" x="100.5" y="-85" font-family="Helvetica,sans-Serif" font-size="10.00">EvenNumbers</text>
<text text-anchor="middle" x="100.5" y="-74" font-family="Helvetica,sans-Serif" font-size="10.00">MoreData</text>
<text text-anchor="middle" x="100.5" y="-63" font-family="Helvetica,sans-Serif" font-size="10.00">MyIntData</text>
<text text-anchor="middle" x="100.5" y="-52" font-family="Helvetica,sans-Serif" font-size="10.00">StaticField</text>
</g>
</g>
</svg>
