<?xml version="1.0" encoding="UTF-8" standalone="no"?>
<!DOCTYPE svg PUBLIC "-//W3C//DTD SVG 1.1//EN"
 "http://www.w3.org/Graphics/SVG/1.1/DTD/svg11.dtd">
<!-- Generated by graphviz version 2.38.0 (20140413.2041)
 -->
<!-- Title: IG.Sim.SimFieldBaseDto&lt; FieldType &gt; Pages: 1 -->
<svg width="825pt" height="269pt"
 viewBox="0.00 0.00 825.00 268.50" xmlns="http://www.w3.org/2000/svg" xmlns:xlink="http://www.w3.org/1999/xlink">
<g id="graph0" class="graph" transform="scale(1 1) rotate(0) translate(4 264.5)">
<title>IG.Sim.SimFieldBaseDto&lt; FieldType &gt;</title>
<polygon fill="white" stroke="none" points="-4,4 -4,-264.5 821,-264.5 821,4 -4,4"/>
<!-- Node1 -->
<g id="node1" class="node"><title>Node1</title>
<g id="a_node1"><a xlink:title="Base class for simulation field DTOs (data transfer objects).">
<polygon fill="#bfbfbf" stroke="black" points="692,-175.5 692,-205.5 817,-205.5 817,-175.5 692,-175.5"/>
<text text-anchor="start" x="700" y="-193.5" font-family="Helvetica,sans-Serif" font-size="10.00">IG.Sim.SimFieldBaseDto</text>
<text text-anchor="middle" x="754.5" y="-182.5" font-family="Helvetica,sans-Serif" font-size="10.00">&lt; FieldType &gt;</text>
</a>
</g>
</g>
<!-- Node2 -->
<g id="node2" class="node"><title>Node2</title>
<g id="a_node2"><a xlink:title=" ">
<polygon fill="white" stroke="#bfbfbf" points="451,-219 451,-260 624,-260 624,-219 451,-219"/>
<text text-anchor="start" x="459" y="-248" font-family="Helvetica,sans-Serif" font-size="10.00">SimulationComponentDtoBase</text>
<text text-anchor="start" x="459" y="-237" font-family="Helvetica,sans-Serif" font-size="10.00">&lt; SimFieldBaseDto&lt; FieldType</text>
<text text-anchor="middle" x="537.5" y="-226" font-family="Helvetica,sans-Serif" font-size="10.00"> &gt;, SimFieldBaseDto&lt; FieldType &gt;&gt;</text>
</a>
</g>
</g>
<!-- Node2&#45;&gt;Node1 -->
<g id="edge1" class="edge"><title>Node2&#45;&gt;Node1</title>
<path fill="none" stroke="midnightblue" d="M633.963,-217.743C653.555,-213.278 673.688,-208.69 691.713,-204.582"/>
<polygon fill="midnightblue" stroke="midnightblue" points="633.064,-214.358 624.091,-219.993 634.619,-221.183 633.064,-214.358"/>
</g>
<!-- Node3 -->
<g id="node3" class="node"><title>Node3</title>
<g id="a_node3"><a xlink:href="../../d9/d17/interfaceIG_1_1Sim_1_1ISimulationComponentDto.html" target="_top" xlink:title="Interface for all components of simulation DTOs.">
<polygon fill="white" stroke="black" points="206,-181 206,-200 335,-200 335,-181 206,-181"/>
<text text-anchor="middle" x="270.5" y="-188" font-family="Helvetica,sans-Serif" font-size="10.00">ISimulationComponentDto</text>
</a>
</g>
</g>
<!-- Node3&#45;&gt;Node1 -->
<g id="edge2" class="edge"><title>Node3&#45;&gt;Node1</title>
<path fill="none" stroke="midnightblue" d="M345.095,-190.5C439.92,-190.5 603.08,-190.5 691.758,-190.5"/>
<polygon fill="midnightblue" stroke="midnightblue" points="345.009,-187 335.009,-190.5 345.009,-194 345.009,-187"/>
</g>
<!-- Node4 -->
<g id="node4" class="node"><title>Node4</title>
<g id="a_node4"><a xlink:href="../../df/d02/classIG_1_1Sim_1_1SimDomainDto.html" target="_top" xlink:title="Base class for simulation domains.">
<polygon fill="white" stroke="black" points="480,-106 480,-125 595,-125 595,-106 480,-106"/>
<text text-anchor="middle" x="537.5" y="-113" font-family="Helvetica,sans-Serif" font-size="10.00">IG.Sim.SimDomainDto</text>
</a>
</g>
</g>
<!-- Node3&#45;&gt;Node4 -->
<g id="edge5" class="edge"><title>Node3&#45;&gt;Node4</title>
<path fill="none" stroke="midnightblue" d="M327.185,-178.641C336.826,-176.399 346.728,-173.977 356,-171.5 410.364,-156.98 472.896,-136.782 508.254,-125.03"/>
<polygon fill="midnightblue" stroke="midnightblue" points="326.24,-175.267 317.271,-180.907 327.799,-182.091 326.24,-175.267"/>
</g>
<!-- Node4&#45;&gt;Node1 -->
<g id="edge3" class="edge"><title>Node4&#45;&gt;Node1</title>
<path fill="none" stroke="#9a32cd" stroke-dasharray="5,2" d="M575.695,-128.475C613.152,-141.541 670.891,-161.683 710.341,-175.445"/>
<polygon fill="#9a32cd" stroke="#9a32cd" points="576.762,-125.14 566.167,-125.151 574.457,-131.75 576.762,-125.14"/>
<text text-anchor="middle" x="658" y="-164.5" font-family="Helvetica,sans-Serif" font-size="10.00"> Parent</text>
</g>
<!-- Node4&#45;&gt;Node4 -->
<g id="edge8" class="edge"><title>Node4&#45;&gt;Node4</title>
<path fill="none" stroke="#9a32cd" stroke-dasharray="5,2" d="M515.179,-134.529C516.396,-139.628 523.837,-143.5 537.5,-143.5 558.828,-143.5 564.993,-134.065 555.995,-125.257"/>
<polygon fill="#9a32cd" stroke="#9a32cd" points="518.426,-135.836 519.005,-125.257 511.955,-133.166 518.426,-135.836"/>
<text text-anchor="middle" x="537.5" y="-146.5" font-family="Helvetica,sans-Serif" font-size="10.00"> Parent</text>
</g>
<!-- Node5 -->
<g id="node5" class="node"><title>Node5</title>
<g id="a_node5"><a xlink:href="../../db/df8/classIG_1_1Sim_1_1SimulationComponentDtoBase.html" target="_top" xlink:title=" ">
<polygon fill="white" stroke="black" points="185,-131.5 185,-161.5 356,-161.5 356,-131.5 185,-131.5"/>
<text text-anchor="start" x="193" y="-149.5" font-family="Helvetica,sans-Serif" font-size="10.00">SimulationComponentDtoBase</text>
<text text-anchor="middle" x="270.5" y="-138.5" font-family="Helvetica,sans-Serif" font-size="10.00">&lt; SimDomainDto, SimDomainDto &gt;</text>
</a>
</g>
</g>
<!-- Node5&#45;&gt;Node4 -->
<g id="edge4" class="edge"><title>Node5&#45;&gt;Node4</title>
<path fill="none" stroke="midnightblue" d="M366.158,-135.427C404.208,-130.976 446.803,-125.993 479.881,-122.123"/>
<polygon fill="midnightblue" stroke="midnightblue" points="365.602,-131.968 356.076,-136.606 366.415,-138.92 365.602,-131.968"/>
</g>
<!-- Node6 -->
<g id="node6" class="node"><title>Node6</title>
<g id="a_node6"><a xlink:href="../../d2/d71/classIG_1_1Sim_1_1SimScalarFieldDto.html" target="_top" xlink:title="Scalar field.">
<polygon fill="white" stroke="black" points="205,-93 205,-112 336,-112 336,-93 205,-93"/>
<text text-anchor="middle" x="270.5" y="-100" font-family="Helvetica,sans-Serif" font-size="10.00">IG.Sim.SimScalarFieldDto</text>
</a>
</g>
</g>
<!-- Node6&#45;&gt;Node4 -->
<g id="edge6" class="edge"><title>Node6&#45;&gt;Node4</title>
<path fill="none" stroke="#9a32cd" stroke-dasharray="5,2" d="M346.331,-106.171C388.763,-108.253 441,-110.815 479.982,-112.727"/>
<polygon fill="#9a32cd" stroke="#9a32cd" points="346.486,-102.674 336.326,-105.68 346.143,-109.666 346.486,-102.674"/>
<text text-anchor="middle" x="403.5" y="-113.5" font-family="Helvetica,sans-Serif" font-size="10.00"> ScalarFields</text>
</g>
<!-- Node7 -->
<g id="node7" class="node"><title>Node7</title>
<g id="a_node7"><a xlink:href="../../d9/da7/classIG_1_1Sim_1_1SimFieldBaseDto.html" target="_top" xlink:title=" ">
<polygon fill="white" stroke="black" points="1,-98.5 1,-128.5 147,-128.5 147,-98.5 1,-98.5"/>
<text text-anchor="start" x="9" y="-116.5" font-family="Helvetica,sans-Serif" font-size="10.00">SimFieldBaseDto&lt; SimScalar</text>
<text text-anchor="middle" x="74" y="-105.5" font-family="Helvetica,sans-Serif" font-size="10.00">FieldDto &gt;</text>
</a>
</g>
</g>
<!-- Node7&#45;&gt;Node6 -->
<g id="edge7" class="edge"><title>Node7&#45;&gt;Node6</title>
<path fill="none" stroke="midnightblue" d="M157.461,-108.836C173.298,-107.941 189.672,-107.015 204.848,-106.156"/>
<polygon fill="midnightblue" stroke="midnightblue" points="156.935,-105.36 147.148,-109.42 157.33,-112.349 156.935,-105.36"/>
</g>
<!-- Node8 -->
<g id="node8" class="node"><title>Node8</title>
<g id="a_node8"><a xlink:href="../../de/df0/classIG_1_1Sim_1_1SimTensorFieldDto.html" target="_top" xlink:title="Tensor field.">
<polygon fill="white" stroke="black" points="204.5,-55 204.5,-74 336.5,-74 336.5,-55 204.5,-55"/>
<text text-anchor="middle" x="270.5" y="-62" font-family="Helvetica,sans-Serif" font-size="10.00">IG.Sim.SimTensorFieldDto</text>
</a>
</g>
</g>
<!-- Node8&#45;&gt;Node4 -->
<g id="edge9" class="edge"><title>Node8&#45;&gt;Node4</title>
<path fill="none" stroke="#9a32cd" stroke-dasharray="5,2" d="M337.386,-75.8428C366.701,-81.0154 401.617,-87.3486 433,-93.5 452.83,-97.3869 474.728,-101.995 493.255,-105.988"/>
<polygon fill="#9a32cd" stroke="#9a32cd" points="337.72,-72.348 327.265,-74.0638 336.508,-79.2423 337.72,-72.348"/>
<text text-anchor="middle" x="403.5" y="-96.5" font-family="Helvetica,sans-Serif" font-size="10.00"> TensorFields</text>
</g>
<!-- Node9 -->
<g id="node9" class="node"><title>Node9</title>
<g id="a_node9"><a xlink:href="../../d9/da7/classIG_1_1Sim_1_1SimFieldBaseDto.html" target="_top" xlink:title=" ">
<polygon fill="white" stroke="black" points="0,-49.5 0,-79.5 148,-79.5 148,-49.5 0,-49.5"/>
<text text-anchor="start" x="8" y="-67.5" font-family="Helvetica,sans-Serif" font-size="10.00">SimFieldBaseDto&lt; SimTensor</text>
<text text-anchor="middle" x="74" y="-56.5" font-family="Helvetica,sans-Serif" font-size="10.00">FieldDto &gt;</text>
</a>
</g>
</g>
<!-- Node9&#45;&gt;Node8 -->
<g id="edge10" class="edge"><title>Node9&#45;&gt;Node8</title>
<path fill="none" stroke="midnightblue" d="M158.283,-64.5C173.674,-64.5 189.54,-64.5 204.298,-64.5"/>
<polygon fill="midnightblue" stroke="midnightblue" points="158.255,-61.0001 148.255,-64.5 158.255,-68.0001 158.255,-61.0001"/>
</g>
<!-- Node10 -->
<g id="node10" class="node"><title>Node10</title>
<g id="a_node10"><a xlink:href="../../d9/db7/classIG_1_1Sim_1_1SimVectorFieldDto.html" target="_top" xlink:title="Vector field.">
<polygon fill="white" stroke="black" points="205,-12 205,-31 336,-31 336,-12 205,-12"/>
<text text-anchor="middle" x="270.5" y="-19" font-family="Helvetica,sans-Serif" font-size="10.00">IG.Sim.SimVectorFieldDto</text>
</a>
</g>
</g>
<!-- Node10&#45;&gt;Node4 -->
<g id="edge11" class="edge"><title>Node10&#45;&gt;Node4</title>
<path fill="none" stroke="#9a32cd" stroke-dasharray="5,2" d="M315.369,-33.8381C328.452,-37.5504 342.816,-41.6588 356,-45.5 390.291,-55.4905 399.551,-55.9761 433,-68.5 463.125,-79.7795 496.848,-95.7496 517.374,-105.864"/>
<polygon fill="#9a32cd" stroke="#9a32cd" points="316.231,-30.4445 305.655,-31.0875 314.323,-37.1797 316.231,-30.4445"/>
<text text-anchor="middle" x="403.5" y="-71.5" font-family="Helvetica,sans-Serif" font-size="10.00"> VectorFields</text>
</g>
<!-- Node11 -->
<g id="node11" class="node"><title>Node11</title>
<g id="a_node11"><a xlink:href="../../d9/da7/classIG_1_1Sim_1_1SimFieldBaseDto.html" target="_top" xlink:title=" ">
<polygon fill="white" stroke="black" points="0.5,-0.5 0.5,-30.5 147.5,-30.5 147.5,-0.5 0.5,-0.5"/>
<text text-anchor="start" x="8.5" y="-18.5" font-family="Helvetica,sans-Serif" font-size="10.00">SimFieldBaseDto&lt; SimVector</text>
<text text-anchor="middle" x="74" y="-7.5" font-family="Helvetica,sans-Serif" font-size="10.00">FieldDto &gt;</text>
</a>
</g>
</g>
<!-- Node11&#45;&gt;Node10 -->
<g id="edge12" class="edge"><title>Node11&#45;&gt;Node10</title>
<path fill="none" stroke="midnightblue" d="M157.931,-18.0583C173.636,-18.5428 189.85,-19.0429 204.887,-19.5068"/>
<polygon fill="midnightblue" stroke="midnightblue" points="157.804,-14.5528 147.701,-17.7427 157.589,-21.5495 157.804,-14.5528"/>
</g>
</g>
</svg>
