<?xml version="1.0" encoding="UTF-8" standalone="no"?>
<!DOCTYPE svg PUBLIC "-//W3C//DTD SVG 1.1//EN"
 "http://www.w3.org/Graphics/SVG/1.1/DTD/svg11.dtd">
<!-- Generated by graphviz version 2.38.0 (20140413.2041)
 -->
<!-- Title: IG.Forms.ResourceViewerControl Pages: 1 -->
<!--zoomable 1154 -->
<svg id="main" version="1.1" xmlns="http://www.w3.org/2000/svg" xmlns:xlink="http://www.w3.org/1999/xlink" xml:space="preserve" onload="init(evt)">
<style type="text/css"><![CDATA[
.edge:hover path { stroke: red; }
.edge:hover polygon { stroke: red; fill: red; }
]]></style>
<script type="text/javascript"><![CDATA[
var edges = document.getElementsByTagName('g');
if (edges && edges.length) {
  for (var i=0;i<edges.length;i++) {
    if (edges[i].id.substr(0,4)=='edge') {
      edges[i].setAttribute('class','edge');
    }
  }
}
]]></script>
        <defs>
                <circle id="rim" cx="0" cy="0" r="7"/>
                <circle id="rim2" cx="0" cy="0" r="3.5"/>
                <g id="zoomPlus">
                        <use xlink:href="#rim" fill="#404040">
                                <set attributeName="fill" to="#808080" begin="zoomplus.mouseover" end="zoomplus.mouseout"/>
                        </use>
                        <path d="M-4,0h8M0,-4v8" fill="none" stroke="white" stroke-width="1.5" pointer-events="none"/>
                </g>
                <g id="zoomMin">
                        <use xlink:href="#rim" fill="#404040">
                                <set attributeName="fill" to="#808080" begin="zoomminus.mouseover" end="zoomminus.mouseout"/>
                        </use>
                        <path d="M-4,0h8" fill="none" stroke="white" stroke-width="1.5" pointer-events="none"/>
                </g>
                <g id="dirArrow">
                        <path fill="none" stroke="white" stroke-width="1.5" d="M0,-3.0v7 M-2.5,-0.5L0,-3.0L2.5,-0.5"/>
                </g>
               <g id="resetDef">
                       <use xlink:href="#rim2" fill="#404040">
                               <set attributeName="fill" to="#808080" begin="reset.mouseover" end="reset.mouseout"/>
                       </use>
               </g>
        </defs>

<script type="text/javascript">
var viewWidth = 1254;
var viewHeight = 1154;
var sectionId = 'dynsection-1';
</script>
<script xlink:href="../../svgpan.js"/>
<svg id="graph" class="graph">
<g id="viewport">
<title>IG.Forms.ResourceViewerControl</title>
<polygon fill="white" stroke="none" points="-4,4 -4,-1150.49 1250,-1150.49 1250,4 -4,4"/>
<!-- Node1 -->
<g id="node1" class="node"><title>Node1</title>
<g id="a_node1"><a xlink:title=" ">
<polygon fill="#bfbfbf" stroke="black" points="1085,-660.5 1085,-679.5 1246,-679.5 1246,-660.5 1085,-660.5"/>
<text text-anchor="middle" x="1165.5" y="-667.5" font-family="Helvetica,sans-Serif" font-size="10.00">IG.Forms.ResourceViewerControl</text>
</a>
</g>
</g>
<!-- Node2 -->
<g id="node2" class="node"><title>Node2</title>
<g id="a_node2"><a xlink:title=" ">
<polygon fill="white" stroke="#bfbfbf" points="0,-590.5 0,-609.5 68,-609.5 68,-590.5 0,-590.5"/>
<text text-anchor="middle" x="34" y="-597.5" font-family="Helvetica,sans-Serif" font-size="10.00">UserControl</text>
</a>
</g>
</g>
<!-- Node2&#45;&gt;Node1 -->
<g id="edge1" class="edge"><title>Node2&#45;&gt;Node1</title>
<path fill="none" stroke="midnightblue" d="M37.1834,-619.885C44.1076,-681.21 66.2813,-864.346 86,-882 119.855,-912.309 244.56,-896 290,-896 290,-896 290,-896 899.5,-896 1034.94,-896 1136.25,-722.969 1159.46,-679.711"/>
<polygon fill="midnightblue" stroke="midnightblue" points="40.6259,-619.173 36.0394,-609.622 33.669,-619.949 40.6259,-619.173"/>
</g>
<!-- Node4 -->
<g id="node4" class="node"><title>Node4</title>
<g id="a_node4"><a xlink:href="../../d1/d6d/classIG_1_1Forms_1_1ImageViewerControl.html" target="_top" xlink:title=" ">
<polygon fill="white" stroke="black" points="218,-1055.5 218,-1074.5 364,-1074.5 364,-1055.5 218,-1055.5"/>
<text text-anchor="middle" x="291" y="-1062.5" font-family="Helvetica,sans-Serif" font-size="10.00">IG.Forms.ImageViewerControl</text>
</a>
</g>
</g>
<!-- Node2&#45;&gt;Node4 -->
<g id="edge4" class="edge"><title>Node2&#45;&gt;Node4</title>
<path fill="none" stroke="midnightblue" d="M37.8528,-619.584C43.9415,-661.803 58.4326,-764.566 68,-851 70.4547,-873.177 70.0564,-1035.39 86,-1051 104.296,-1068.91 166.745,-1071.08 217.779,-1069.57"/>
<polygon fill="midnightblue" stroke="midnightblue" points="41.2979,-618.953 36.4002,-609.558 34.3702,-619.956 41.2979,-618.953"/>
</g>
<!-- Node8 -->
<g id="node8" class="node"><title>Node8</title>
<g id="a_node8"><a xlink:href="../../d3/dc3/classIG_1_1Forms_1_1ResourceSelector.html" target="_top" xlink:title=" ">
<polygon fill="white" stroke="black" points="830,-311.5 830,-330.5 967,-330.5 967,-311.5 830,-311.5"/>
<text text-anchor="middle" x="898.5" y="-318.5" font-family="Helvetica,sans-Serif" font-size="10.00">IG.Forms.ResourceSelector</text>
</a>
</g>
</g>
<!-- Node2&#45;&gt;Node8 -->
<g id="edge9" class="edge"><title>Node2&#45;&gt;Node8</title>
<path fill="none" stroke="midnightblue" d="M78.0377,-591.055C111.512,-583.803 159.002,-572.867 200,-561 467.244,-483.646 783.228,-364.74 872.764,-330.515"/>
<polygon fill="midnightblue" stroke="midnightblue" points="77.1639,-587.663 68.1217,-593.184 78.6337,-594.507 77.1639,-587.663"/>
</g>
<!-- Node10 -->
<g id="node10" class="node"><title>Node10</title>
<g id="a_node10"><a xlink:href="../../d0/d46/classIG_1_1Forms_1_1AssemblySelector.html" target="_top" xlink:title=" ">
<polygon fill="white" stroke="black" points="530,-311.5 530,-330.5 670,-330.5 670,-311.5 530,-311.5"/>
<text text-anchor="middle" x="600" y="-318.5" font-family="Helvetica,sans-Serif" font-size="10.00">IG.Forms.AssemblySelector</text>
</a>
</g>
</g>
<!-- Node2&#45;&gt;Node10 -->
<g id="edge13" class="edge"><title>Node2&#45;&gt;Node10</title>
<path fill="none" stroke="midnightblue" d="M35.0122,-580.131C36.2067,-545.993 44.0006,-476.548 86,-442 134.045,-402.479 302.392,-417.648 364,-409 429.99,-399.737 450.559,-410.796 512,-385 543.466,-371.789 574.164,-345.015 589.282,-330.64"/>
<polygon fill="midnightblue" stroke="midnightblue" points="31.5105,-580.189 34.8202,-590.254 38.5093,-580.322 31.5105,-580.189"/>
</g>
<!-- Node11 -->
<g id="node11" class="node"><title>Node11</title>
<g id="a_node11"><a xlink:href="../../d6/d0b/classIG_1_1Forms_1_1FileSelector.html" target="_top" xlink:title=" ">
<polygon fill="white" stroke="black" points="235,-380.5 235,-399.5 347,-399.5 347,-380.5 235,-380.5"/>
<text text-anchor="middle" x="291" y="-387.5" font-family="Helvetica,sans-Serif" font-size="10.00">IG.Forms.FileSelector</text>
</a>
</g>
</g>
<!-- Node2&#45;&gt;Node11 -->
<g id="edge15" class="edge"><title>Node2&#45;&gt;Node11</title>
<path fill="none" stroke="midnightblue" d="M37.7556,-580.152C44.1166,-537.362 61.202,-438.544 86,-417 107.575,-398.256 181.869,-392.395 234.555,-390.635"/>
<polygon fill="midnightblue" stroke="midnightblue" points="34.2718,-579.79 36.3094,-590.187 41.2002,-580.788 34.2718,-579.79"/>
</g>
<!-- Node12 -->
<g id="node12" class="node"><title>Node12</title>
<g id="a_node12"><a xlink:href="../../d8/d8b/classIG_1_1Forms_1_1FileViewerControl.html" target="_top" xlink:title=" ">
<polygon fill="white" stroke="black" points="223,-757.5 223,-776.5 359,-776.5 359,-757.5 223,-757.5"/>
<text text-anchor="middle" x="291" y="-764.5" font-family="Helvetica,sans-Serif" font-size="10.00">IG.Forms.FileViewerControl</text>
</a>
</g>
</g>
<!-- Node2&#45;&gt;Node12 -->
<g id="edge20" class="edge"><title>Node2&#45;&gt;Node12</title>
<path fill="none" stroke="midnightblue" d="M37.3342,-619.848C42.9812,-664.038 58.9455,-768.278 86,-789 141.853,-831.779 232.945,-795.457 271.66,-776.623"/>
<polygon fill="midnightblue" stroke="midnightblue" points="40.789,-619.265 36.0935,-609.768 33.8414,-620.121 40.789,-619.265"/>
</g>
<!-- Node13 -->
<g id="node13" class="node"><title>Node13</title>
<g id="a_node13"><a xlink:href="../../dc/d40/classIG_1_1Forms_1_1SoundPlayerControlSimple.html" target="_top" xlink:title=" ">
<polygon fill="white" stroke="black" points="218,-613 218,-643 364,-643 364,-613 218,-613"/>
<text text-anchor="start" x="226" y="-631" font-family="Helvetica,sans-Serif" font-size="10.00">IG.Forms.SoundPlayerControl</text>
<text text-anchor="middle" x="291" y="-620" font-family="Helvetica,sans-Serif" font-size="10.00">Simple</text>
</a>
</g>
</g>
<!-- Node2&#45;&gt;Node13 -->
<g id="edge26" class="edge"><title>Node2&#45;&gt;Node13</title>
<path fill="none" stroke="midnightblue" d="M78.5625,-602.865C111.878,-605.257 158.919,-609.068 200,-614 205.809,-614.697 211.819,-615.486 217.85,-616.324"/>
<polygon fill="midnightblue" stroke="midnightblue" points="78.4745,-599.35 68.2532,-602.138 77.9825,-606.332 78.4745,-599.35"/>
</g>
<!-- Node3 -->
<g id="node3" class="node"><title>Node3</title>
<g id="a_node3"><a xlink:href="../../d6/d7a/interfaceIG_1_1Forms_1_1IFileViewer.html" target="_top" xlink:title=" ">
<polygon fill="white" stroke="black" points="845,-924.5 845,-943.5 952,-943.5 952,-924.5 845,-924.5"/>
<text text-anchor="middle" x="898.5" y="-931.5" font-family="Helvetica,sans-Serif" font-size="10.00">IG.Forms.IFileViewer</text>
</a>
</g>
</g>
<!-- Node3&#45;&gt;Node1 -->
<g id="edge2" class="edge"><title>Node3&#45;&gt;Node1</title>
<path fill="none" stroke="#9a32cd" stroke-dasharray="5,2" d="M962.68,-939.357C996.829,-938.967 1037.85,-932.794 1067,-910 1144.77,-849.193 1160.85,-716.219 1163.86,-679.537"/>
<polygon fill="#9a32cd" stroke="#9a32cd" points="962.341,-935.855 952.323,-939.304 962.305,-942.855 962.341,-935.855"/>
<text text-anchor="middle" x="1026" y="-964" font-family="Helvetica,sans-Serif" font-size="10.00"> _fileViewer</text>
<text text-anchor="middle" x="1026" y="-953" font-family="Helvetica,sans-Serif" font-size="10.00">_activeViewer</text>
<text text-anchor="middle" x="1026" y="-942" font-family="Helvetica,sans-Serif" font-size="10.00">_imageViewer</text>
</g>
<!-- Node4&#45;&gt;Node1 -->
<g id="edge3" class="edge"><title>Node4&#45;&gt;Node1</title>
<path fill="none" stroke="#9a32cd" stroke-dasharray="5,2" d="M344.786,-1076.48C481.548,-1102.93 851.692,-1153.1 1067,-976 1163.24,-896.837 1165.75,-722.664 1164.84,-679.716"/>
<polygon fill="#9a32cd" stroke="#9a32cd" points="345.452,-1073.05 334.964,-1074.54 344.097,-1079.91 345.452,-1073.05"/>
<text text-anchor="middle" x="750" y="-1105" font-family="Helvetica,sans-Serif" font-size="10.00"> imageViewerControl1</text>
</g>
<!-- Node5 -->
<g id="node5" class="node"><title>Node5</title>
<g id="a_node5"><a xlink:href="../../d6/d7a/interfaceIG_1_1Forms_1_1IFileViewer.html" target="_top" xlink:title=" ">
<polygon fill="white" stroke="black" points="2,-1126.5 2,-1145.5 66,-1145.5 66,-1126.5 2,-1126.5"/>
<text text-anchor="middle" x="34" y="-1133.5" font-family="Helvetica,sans-Serif" font-size="10.00">IFileViewer</text>
</a>
</g>
</g>
<!-- Node5&#45;&gt;Node4 -->
<g id="edge5" class="edge"><title>Node5&#45;&gt;Node4</title>
<path fill="none" stroke="midnightblue" d="M76.1887,-1142.94C110.339,-1147.02 159.648,-1148.98 200,-1135 235.163,-1122.82 267.218,-1090.78 281.766,-1074.61"/>
<polygon fill="midnightblue" stroke="midnightblue" points="76.4731,-1139.45 66.1037,-1141.62 75.5656,-1146.39 76.4731,-1139.45"/>
</g>
<!-- Node5&#45;&gt;Node12 -->
<g id="edge21" class="edge"><title>Node5&#45;&gt;Node12</title>
<path fill="none" stroke="midnightblue" d="M76.4344,-1134.54C119.27,-1132.17 182.316,-1125.99 200,-1110 203.282,-1107.03 273.314,-832.531 287.505,-776.804"/>
<polygon fill="midnightblue" stroke="midnightblue" points="76.0985,-1131.05 66.2877,-1135.05 76.4515,-1138.04 76.0985,-1131.05"/>
</g>
<!-- Node6 -->
<g id="node6" class="node"><title>Node6</title>
<g id="a_node6"><a xlink:title=" ">
<polygon fill="white" stroke="#bfbfbf" points="9,-257.5 9,-276.5 59,-276.5 59,-257.5 9,-257.5"/>
<text text-anchor="middle" x="34" y="-264.5" font-family="Helvetica,sans-Serif" font-size="10.00">System</text>
</a>
</g>
</g>
<!-- Node6&#45;&gt;Node1 -->
<g id="edge29" class="edge"><title>Node6&#45;&gt;Node1</title>
<path fill="none" stroke="#9a32cd" stroke-dasharray="5,2" d="M46.1996,-248.658C71.1801,-209.847 135.784,-120.558 218,-91 313.01,-56.8427 574.755,-103.504 670,-137 876.875,-209.755 957.173,-240.188 1067,-430 1115.65,-514.083 1151.62,-627.135 1161.67,-660.411"/>
<polygon fill="#9a32cd" stroke="#9a32cd" points="43.0805,-247.042 40.7157,-257.37 49.0047,-250.771 43.0805,-247.042"/>
<text text-anchor="middle" x="600" y="-184" font-family="Helvetica,sans-Serif" font-size="10.00"> btnShowInExternalViewer</text>
<text text-anchor="middle" x="600" y="-173" font-family="Helvetica,sans-Serif" font-size="10.00">components</text>
<text text-anchor="middle" x="600" y="-162" font-family="Helvetica,sans-Serif" font-size="10.00">splitContainer1</text>
<text text-anchor="middle" x="600" y="-151" font-family="Helvetica,sans-Serif" font-size="10.00">grpPreview</text>
<text text-anchor="middle" x="600" y="-140" font-family="Helvetica,sans-Serif" font-size="10.00">txtOutput</text>
</g>
<!-- Node6&#45;&gt;Node4 -->
<g id="edge6" class="edge"><title>Node6&#45;&gt;Node4</title>
<path fill="none" stroke="#9a32cd" stroke-dasharray="5,2" d="M37.3914,-286.735C43.3161,-336.199 58.8554,-469.498 68,-581 70.7748,-614.834 65.5596,-858.896 86,-886 118.33,-928.871 157.807,-892.79 200,-926 246.536,-962.629 276.455,-1030.31 286.367,-1055.36"/>
<polygon fill="#9a32cd" stroke="#9a32cd" points="40.8598,-286.262 36.1895,-276.752 33.91,-287.098 40.8598,-286.262"/>
<text text-anchor="middle" x="143" y="-1039" font-family="Helvetica,sans-Serif" font-size="10.00"> menuOptions</text>
<text text-anchor="middle" x="143" y="-1028" font-family="Helvetica,sans-Serif" font-size="10.00">comboSizeMode</text>
<text text-anchor="middle" x="143" y="-1017" font-family="Helvetica,sans-Serif" font-size="10.00">pictureBox1</text>
<text text-anchor="middle" x="143" y="-1006" font-family="Helvetica,sans-Serif" font-size="10.00">menuShowControls</text>
<text text-anchor="middle" x="143" y="-995" font-family="Helvetica,sans-Serif" font-size="10.00">pnlControls</text>
<text text-anchor="middle" x="143" y="-984" font-family="Helvetica,sans-Serif" font-size="10.00">pnlOuter</text>
<text text-anchor="middle" x="143" y="-973" font-family="Helvetica,sans-Serif" font-size="10.00">pnlOptions</text>
<text text-anchor="middle" x="143" y="-962" font-family="Helvetica,sans-Serif" font-size="10.00">contextMenuMain</text>
<text text-anchor="middle" x="143" y="-951" font-family="Helvetica,sans-Serif" font-size="10.00">menuBrowse</text>
<text text-anchor="middle" x="143" y="-940" font-family="Helvetica,sans-Serif" font-size="10.00">components</text>
<text text-anchor="middle" x="143" y="-929" font-family="Helvetica,sans-Serif" font-size="10.00">...</text>
</g>
<!-- Node6&#45;&gt;Node8 -->
<g id="edge10" class="edge"><title>Node6&#45;&gt;Node8</title>
<path fill="none" stroke="#9a32cd" stroke-dasharray="5,2" d="M58.8285,-252.321C67.1631,-247.752 76.7531,-243.104 86,-240 266.628,-179.373 323.947,-161.371 512,-192 656.538,-215.542 820.035,-285.671 876.797,-311.399"/>
<polygon fill="#9a32cd" stroke="#9a32cd" points="56.973,-249.35 50.037,-257.359 60.4536,-255.423 56.973,-249.35"/>
<text text-anchor="middle" x="447" y="-272" font-family="Helvetica,sans-Serif" font-size="10.00"> chkMultipleAssemblies</text>
<text text-anchor="middle" x="447" y="-261" font-family="Helvetica,sans-Serif" font-size="10.00">comboResources</text>
<text text-anchor="middle" x="447" y="-250" font-family="Helvetica,sans-Serif" font-size="10.00">chkEmbedded</text>
<text text-anchor="middle" x="447" y="-239" font-family="Helvetica,sans-Serif" font-size="10.00">lblSelectedResource</text>
<text text-anchor="middle" x="447" y="-228" font-family="Helvetica,sans-Serif" font-size="10.00">components</text>
<text text-anchor="middle" x="447" y="-217" font-family="Helvetica,sans-Serif" font-size="10.00">chkIncludeResxFiles</text>
<text text-anchor="middle" x="447" y="-206" font-family="Helvetica,sans-Serif" font-size="10.00">chkResx</text>
<text text-anchor="middle" x="447" y="-195" font-family="Helvetica,sans-Serif" font-size="10.00">lblResources</text>
</g>
<!-- Node6&#45;&gt;Node10 -->
<g id="edge17" class="edge"><title>Node6&#45;&gt;Node10</title>
<path fill="none" stroke="#9a32cd" stroke-dasharray="5,2" d="M65.271,-253.716C71.9726,-251.346 79.1276,-249.239 86,-248 135.863,-239.013 149.334,-247.691 200,-248 272.893,-248.444 301.781,-212.021 364,-250 378.594,-258.908 368.148,-273.977 382,-284 424.572,-314.805 484.014,-323.193 529.923,-324.358"/>
<polygon fill="#9a32cd" stroke="#9a32cd" points="63.9566,-250.472 55.8626,-257.308 66.4533,-257.011 63.9566,-250.472"/>
<text text-anchor="middle" x="291" y="-363" font-family="Helvetica,sans-Serif" font-size="10.00"> comboLoadedAssemblies</text>
<text text-anchor="middle" x="291" y="-352" font-family="Helvetica,sans-Serif" font-size="10.00">lblSelectedAssembly</text>
<text text-anchor="middle" x="291" y="-341" font-family="Helvetica,sans-Serif" font-size="10.00">chkReferenced</text>
<text text-anchor="middle" x="291" y="-330" font-family="Helvetica,sans-Serif" font-size="10.00">comboReferencedAssemblies</text>
<text text-anchor="middle" x="291" y="-319" font-family="Helvetica,sans-Serif" font-size="10.00">chkLoaded</text>
<text text-anchor="middle" x="291" y="-308" font-family="Helvetica,sans-Serif" font-size="10.00">components</text>
<text text-anchor="middle" x="291" y="-297" font-family="Helvetica,sans-Serif" font-size="10.00">lblAssemblyFullNameTitle</text>
<text text-anchor="middle" x="291" y="-286" font-family="Helvetica,sans-Serif" font-size="10.00">lblFullName</text>
<text text-anchor="middle" x="291" y="-275" font-family="Helvetica,sans-Serif" font-size="10.00">btnRefresh</text>
<text text-anchor="middle" x="291" y="-264" font-family="Helvetica,sans-Serif" font-size="10.00">chkFiles</text>
<text text-anchor="middle" x="291" y="-253" font-family="Helvetica,sans-Serif" font-size="10.00">...</text>
</g>
<!-- Node6&#45;&gt;Node11 -->
<g id="edge16" class="edge"><title>Node6&#45;&gt;Node11</title>
<path fill="none" stroke="#9a32cd" stroke-dasharray="5,2" d="M69.001,-255.777C105.711,-245.997 163.778,-237.639 200,-268 233.939,-296.447 188.955,-332.571 218,-366 223.531,-372.366 230.796,-377.048 238.583,-380.492"/>
<polygon fill="#9a32cd" stroke="#9a32cd" points="67.9151,-252.447 59.2492,-258.542 69.8248,-259.182 67.9151,-252.447"/>
<text text-anchor="middle" x="143" y="-381" font-family="Helvetica,sans-Serif" font-size="10.00"> menuExpandEnvironment</text>
<text text-anchor="middle" x="143" y="-370" font-family="Helvetica,sans-Serif" font-size="10.00">menuAllowExistent</text>
<text text-anchor="middle" x="143" y="-359" font-family="Helvetica,sans-Serif" font-size="10.00">contextMenuMain</text>
<text text-anchor="middle" x="143" y="-348" font-family="Helvetica,sans-Serif" font-size="10.00">btnFileBrowse</text>
<text text-anchor="middle" x="143" y="-337" font-family="Helvetica,sans-Serif" font-size="10.00">_normalBackground</text>
<text text-anchor="middle" x="143" y="-326" font-family="Helvetica,sans-Serif" font-size="10.00">menuFilter</text>
<text text-anchor="middle" x="143" y="-315" font-family="Helvetica,sans-Serif" font-size="10.00">openFileDialog1</text>
<text text-anchor="middle" x="143" y="-304" font-family="Helvetica,sans-Serif" font-size="10.00">menuAbsolutePaths</text>
<text text-anchor="middle" x="143" y="-293" font-family="Helvetica,sans-Serif" font-size="10.00">_normalforeground</text>
<text text-anchor="middle" x="143" y="-282" font-family="Helvetica,sans-Serif" font-size="10.00">menuFilterValue</text>
<text text-anchor="middle" x="143" y="-271" font-family="Helvetica,sans-Serif" font-size="10.00">...</text>
</g>
<!-- Node6&#45;&gt;Node12 -->
<g id="edge22" class="edge"><title>Node6&#45;&gt;Node12</title>
<path fill="none" stroke="#9a32cd" stroke-dasharray="5,2" d="M37.0197,-286.836C44.8427,-362.845 73.3408,-631.942 86,-645 121.753,-681.88 155.143,-638.974 200,-664 241.268,-687.024 272.761,-736.492 284.739,-757.379"/>
<polygon fill="#9a32cd" stroke="#9a32cd" points="40.4842,-286.309 35.9834,-276.718 33.5206,-287.022 40.4842,-286.309"/>
<text text-anchor="middle" x="143" y="-777" font-family="Helvetica,sans-Serif" font-size="10.00"> menuOptions</text>
<text text-anchor="middle" x="143" y="-766" font-family="Helvetica,sans-Serif" font-size="10.00">menuShowControls</text>
<text text-anchor="middle" x="143" y="-755" font-family="Helvetica,sans-Serif" font-size="10.00">pnlControls</text>
<text text-anchor="middle" x="143" y="-744" font-family="Helvetica,sans-Serif" font-size="10.00">pnlOuter</text>
<text text-anchor="middle" x="143" y="-733" font-family="Helvetica,sans-Serif" font-size="10.00">contextMenuMain</text>
<text text-anchor="middle" x="143" y="-722" font-family="Helvetica,sans-Serif" font-size="10.00">menuBrowse</text>
<text text-anchor="middle" x="143" y="-711" font-family="Helvetica,sans-Serif" font-size="10.00">components</text>
<text text-anchor="middle" x="143" y="-700" font-family="Helvetica,sans-Serif" font-size="10.00">menuDragDrop</text>
<text text-anchor="middle" x="143" y="-689" font-family="Helvetica,sans-Serif" font-size="10.00">menuClearHistory</text>
<text text-anchor="middle" x="143" y="-678" font-family="Helvetica,sans-Serif" font-size="10.00">pnlPicture</text>
<text text-anchor="middle" x="143" y="-667" font-family="Helvetica,sans-Serif" font-size="10.00">...</text>
</g>
<!-- Node6&#45;&gt;Node13 -->
<g id="edge27" class="edge"><title>Node6&#45;&gt;Node13</title>
<path fill="none" stroke="#9a32cd" stroke-dasharray="5,2" d="M39.9884,-286.226C47.2907,-312.065 62.6157,-358.71 86,-393 125.323,-450.662 154.27,-448.275 200,-501 232.757,-538.768 265.171,-588.273 280.631,-612.827"/>
<polygon fill="#9a32cd" stroke="#9a32cd" points="43.3512,-285.253 37.3499,-276.522 36.5965,-287.09 43.3512,-285.253"/>
<text text-anchor="middle" x="143" y="-592" font-family="Helvetica,sans-Serif" font-size="10.00"> panel1</text>
<text text-anchor="middle" x="143" y="-581" font-family="Helvetica,sans-Serif" font-size="10.00">chkRepeat</text>
<text text-anchor="middle" x="143" y="-570" font-family="Helvetica,sans-Serif" font-size="10.00">_soundPlayer</text>
<text text-anchor="middle" x="143" y="-559" font-family="Helvetica,sans-Serif" font-size="10.00">btnPlay</text>
<text text-anchor="middle" x="143" y="-548" font-family="Helvetica,sans-Serif" font-size="10.00">components</text>
<text text-anchor="middle" x="143" y="-537" font-family="Helvetica,sans-Serif" font-size="10.00">lblPause</text>
<text text-anchor="middle" x="143" y="-526" font-family="Helvetica,sans-Serif" font-size="10.00">panelUpper</text>
<text text-anchor="middle" x="143" y="-515" font-family="Helvetica,sans-Serif" font-size="10.00">button1</text>
<text text-anchor="middle" x="143" y="-504" font-family="Helvetica,sans-Serif" font-size="10.00">numericUpDown1</text>
</g>
<!-- Node7 -->
<g id="node7" class="node"><title>Node7</title>
<g id="a_node7"><a xlink:title=" ">
<polygon fill="white" stroke="#bfbfbf" points="19.5,-860.5 19.5,-879.5 48.5,-879.5 48.5,-860.5 19.5,-860.5"/>
<text text-anchor="middle" x="34" y="-867.5" font-family="Helvetica,sans-Serif" font-size="10.00">IG</text>
</a>
</g>
</g>
<!-- Node7&#45;&gt;Node4 -->
<g id="edge7" class="edge"><title>Node7&#45;&gt;Node4</title>
<path fill="none" stroke="#9a32cd" stroke-dasharray="5,2" d="M36.8486,-889.701C41.7019,-936.647 56.5152,-1052.92 86,-1076 139.628,-1117.97 227.564,-1090.8 268.18,-1074.59"/>
<polygon fill="#9a32cd" stroke="#9a32cd" points="40.3162,-889.2 35.8485,-879.594 33.3502,-889.89 40.3162,-889.2"/>
<text text-anchor="middle" x="143" y="-1102" font-family="Helvetica,sans-Serif" font-size="10.00"> fileSelector1</text>
</g>
<!-- Node7&#45;&gt;Node12 -->
<g id="edge24" class="edge"><title>Node7&#45;&gt;Node12</title>
<path fill="none" stroke="#9a32cd" stroke-dasharray="5,2" d="M58.6738,-871.126C91.8468,-871.777 153.328,-869.556 200,-848 236.451,-831.164 268.609,-794.362 282.59,-776.758"/>
<polygon fill="#9a32cd" stroke="#9a32cd" points="58.6732,-867.624 48.5714,-870.819 58.4603,-874.621 58.6732,-867.624"/>
<text text-anchor="middle" x="143" y="-874" font-family="Helvetica,sans-Serif" font-size="10.00"> fileSelector1</text>
</g>
<!-- Node7&#45;&gt;Node13 -->
<g id="edge28" class="edge"><title>Node7&#45;&gt;Node13</title>
<path fill="none" stroke="#9a32cd" stroke-dasharray="5,2" d="M55.0975,-854.546C64.2124,-847.981 75.3229,-840.573 86,-835 134.005,-809.943 161.184,-829.758 200,-792 215.145,-777.268 208.537,-766.891 218,-748 237.586,-708.899 265.225,-665.458 279.909,-643.11"/>
<polygon fill="#9a32cd" stroke="#9a32cd" points="53.0106,-851.736 47.0493,-860.495 57.1714,-857.365 53.0106,-851.736"/>
<text text-anchor="middle" x="143" y="-838" font-family="Helvetica,sans-Serif" font-size="10.00"> fileSelector1</text>
</g>
<!-- Node8&#45;&gt;Node1 -->
<g id="edge8" class="edge"><title>Node8&#45;&gt;Node1</title>
<path fill="none" stroke="#9a32cd" stroke-dasharray="5,2" d="M913.08,-338.885C960.904,-401.868 1120.59,-612.172 1157.05,-660.183"/>
<polygon fill="#9a32cd" stroke="#9a32cd" points="915.699,-336.546 906.864,-330.699 910.124,-340.779 915.699,-336.546"/>
<text text-anchor="middle" x="1026" y="-541" font-family="Helvetica,sans-Serif" font-size="10.00"> resourceSelector1</text>
</g>
<!-- Node9 -->
<g id="node9" class="node"><title>Node9</title>
<g id="a_node9"><a xlink:title=" ">
<polygon fill="white" stroke="#bfbfbf" points="13.5,-71.5 13.5,-90.5 54.5,-90.5 54.5,-71.5 13.5,-71.5"/>
<text text-anchor="middle" x="34" y="-78.5" font-family="Helvetica,sans-Serif" font-size="10.00">static</text>
</a>
</g>
</g>
<!-- Node9&#45;&gt;Node1 -->
<g id="edge30" class="edge"><title>Node9&#45;&gt;Node1</title>
<path fill="none" stroke="#9a32cd" stroke-dasharray="5,2" d="M52.3597,-64.5654C61.6708,-56.6114 73.7324,-47.5957 86,-42 170.22,-3.5839 197.432,-0 290,-0 290,-0 290,-0 899.5,-0 1048.2,-0 1149.26,-577.878 1162.92,-660.27"/>
<polygon fill="#9a32cd" stroke="#9a32cd" points="49.7843,-62.1727 44.655,-71.4431 54.4459,-67.3948 49.7843,-62.1727"/>
<text text-anchor="middle" x="600" y="-3" font-family="Helvetica,sans-Serif" font-size="10.00"> _initialTextOutpput</text>
</g>
<!-- Node9&#45;&gt;Node8 -->
<g id="edge11" class="edge"><title>Node9&#45;&gt;Node8</title>
<path fill="none" stroke="#9a32cd" stroke-dasharray="5,2" d="M64.6508,-68.975C71.5556,-66.614 78.9516,-64.4289 86,-63 213.19,-37.2153 554.935,-2.98083 670,-63 787.015,-124.036 871.542,-271.965 892.467,-311.274"/>
<polygon fill="#9a32cd" stroke="#9a32cd" points="63.1843,-65.7841 54.9837,-72.4923 65.5778,-72.3622 63.1843,-65.7841"/>
<text text-anchor="middle" x="447" y="-46" font-family="Helvetica,sans-Serif" font-size="10.00"> _initialTextComboShortName</text>
<text text-anchor="middle" x="447" y="-35" font-family="Helvetica,sans-Serif" font-size="10.00">_initialTextLabelFullName</text>
</g>
<!-- Node9&#45;&gt;Node10 -->
<g id="edge18" class="edge"><title>Node9&#45;&gt;Node10</title>
<path fill="none" stroke="#9a32cd" stroke-dasharray="5,2" d="M65.3275,-78.7368C146.025,-74.2875 369.557,-72.3908 512,-173 562.637,-208.766 588.423,-284.115 596.312,-311.114"/>
<polygon fill="#9a32cd" stroke="#9a32cd" points="64.6807,-75.2697 54.912,-79.3712 65.1063,-82.2567 64.6807,-75.2697"/>
<text text-anchor="middle" x="291" y="-142" font-family="Helvetica,sans-Serif" font-size="10.00"> _initialTextReferencedList</text>
<text text-anchor="middle" x="291" y="-131" font-family="Helvetica,sans-Serif" font-size="10.00">_initialTextSelectedAssembly</text>
<text text-anchor="middle" x="291" y="-120" font-family="Helvetica,sans-Serif" font-size="10.00">_initialTextLoadedList</text>
<text text-anchor="middle" x="291" y="-109" font-family="Helvetica,sans-Serif" font-size="10.00">_initialTextLblFullName</text>
</g>
<!-- Node9&#45;&gt;Node12 -->
<g id="edge23" class="edge"><title>Node9&#45;&gt;Node12</title>
<path fill="none" stroke="#9a32cd" stroke-dasharray="5,2" d="M39.8465,-100.661C47.2868,-131.732 61.358,-194.187 68,-248 72.8516,-287.308 60.7821,-573.46 86,-604 119.219,-644.23 157.291,-602.034 200,-632 212.221,-640.575 265.922,-727.529 284.021,-757.167"/>
<polygon fill="#9a32cd" stroke="#9a32cd" points="43.1908,-99.601 37.4313,-90.7084 36.3882,-101.252 43.1908,-99.601"/>
<text text-anchor="middle" x="143" y="-635" font-family="Helvetica,sans-Serif" font-size="10.00"> _lastWebStreamLength</text>
</g>
<!-- Node10&#45;&gt;Node8 -->
<g id="edge12" class="edge"><title>Node10&#45;&gt;Node8</title>
<path fill="none" stroke="#9a32cd" stroke-dasharray="5,2" d="M680.213,-321C726.873,-321 785.279,-321 829.784,-321"/>
<polygon fill="#9a32cd" stroke="#9a32cd" points="680.142,-317.5 670.142,-321 680.142,-324.5 680.142,-317.5"/>
<text text-anchor="middle" x="750" y="-324" font-family="Helvetica,sans-Serif" font-size="10.00"> assemblySelector1</text>
</g>
<!-- Node11&#45;&gt;Node10 -->
<g id="edge14" class="edge"><title>Node11&#45;&gt;Node10</title>
<path fill="none" stroke="#9a32cd" stroke-dasharray="5,2" d="M344.374,-378.229C404.275,-364.765 501.193,-342.983 556.577,-330.535"/>
<polygon fill="#9a32cd" stroke="#9a32cd" points="343.354,-374.871 334.365,-380.478 344.889,-381.7 343.354,-374.871"/>
<text text-anchor="middle" x="447" y="-373" font-family="Helvetica,sans-Serif" font-size="10.00"> fileSelector1</text>
</g>
<!-- Node12&#45;&gt;Node1 -->
<g id="edge19" class="edge"><title>Node12&#45;&gt;Node1</title>
<path fill="none" stroke="#9a32cd" stroke-dasharray="5,2" d="M369.058,-758.433C533.621,-740.138 917.955,-697.41 1084.82,-678.858"/>
<polygon fill="#9a32cd" stroke="#9a32cd" points="368.567,-754.966 359.015,-759.55 369.34,-761.923 368.567,-754.966"/>
<text text-anchor="middle" x="750" y="-726" font-family="Helvetica,sans-Serif" font-size="10.00"> fileViewerControl1</text>
</g>
<!-- Node13&#45;&gt;Node1 -->
<g id="edge25" class="edge"><title>Node13&#45;&gt;Node1</title>
<path fill="none" stroke="#9a32cd" stroke-dasharray="5,2" d="M374.374,-631.965C541.74,-640.022 919.639,-658.213 1084.76,-666.162"/>
<polygon fill="#9a32cd" stroke="#9a32cd" points="374.299,-628.458 364.143,-631.473 373.963,-635.45 374.299,-628.458"/>
<text text-anchor="middle" x="750" y="-656" font-family="Helvetica,sans-Serif" font-size="10.00"> soundPlayerControlSimple1</text>
</g>
</g>
</svg>
        <g id="navigator" transform="translate(0 0)" fill="#404254">
                <rect fill="#f2f5e9" fill-opacity="0.5" stroke="#606060" stroke-width=".5" x="0" y="0" width="60" height="60"/>
                <use id="zoomplus" xlink:href="#zoomPlus" x="17" y="9" onmousedown="handleZoom(evt,'in')"/>
                <use id="zoomminus" xlink:href="#zoomMin" x="42" y="9" onmousedown="handleZoom(evt,'out')"/>
                <use id="reset" xlink:href="#resetDef" x="30" y="36" onmousedown="handleReset()"/>
                <g id="arrowUp" xlink:href="#dirArrow" transform="translate(30 24)" onmousedown="handlePan(0,-1)">
                  <use xlink:href="#rim" fill="#404040">
                        <set attributeName="fill" to="#808080" begin="arrowUp.mouseover" end="arrowUp.mouseout"/>
                  </use>
                  <path fill="none" stroke="white" stroke-width="1.5" d="M0,-3.0v7 M-2.5,-0.5L0,-3.0L2.5,-0.5"/>
                </g>
                <g id="arrowRight" xlink:href="#dirArrow" transform="rotate(90) translate(36 -43)" onmousedown="handlePan(1,0)">
                  <use xlink:href="#rim" fill="#404040">
                        <set attributeName="fill" to="#808080" begin="arrowRight.mouseover" end="arrowRight.mouseout"/>
                  </use>
                  <path fill="none" stroke="white" stroke-width="1.5" d="M0,-3.0v7 M-2.5,-0.5L0,-3.0L2.5,-0.5"/>
                </g>
                <g id="arrowDown" xlink:href="#dirArrow" transform="rotate(180) translate(-30 -48)" onmousedown="handlePan(0,1)">
                  <use xlink:href="#rim" fill="#404040">
                        <set attributeName="fill" to="#808080" begin="arrowDown.mouseover" end="arrowDown.mouseout"/>
                  </use>
                  <path fill="none" stroke="white" stroke-width="1.5" d="M0,-3.0v7 M-2.5,-0.5L0,-3.0L2.5,-0.5"/>
                </g>
                <g id="arrowLeft" xlink:href="#dirArrow" transform="rotate(270) translate(-36 17)" onmousedown="handlePan(-1,0)">
                  <use xlink:href="#rim" fill="#404040">
                        <set attributeName="fill" to="#808080" begin="arrowLeft.mouseover" end="arrowLeft.mouseout"/>
                  </use>
                  <path fill="none" stroke="white" stroke-width="1.5" d="M0,-3.0v7 M-2.5,-0.5L0,-3.0L2.5,-0.5"/>
                </g>
        </g>
        <svg viewBox="0 0 15 15" width="100%" height="30px" preserveAspectRatio="xMaxYMin meet">
         <g id="arrow_out" transform="scale(0.3 0.3)">
          <a xlink:href="classIG_1_1Forms_1_1ResourceViewerControl__coll__graph_org.svg" target="_base">
           <rect id="button" ry="5" rx="5" y="6" x="6" height="38" width="38"
                fill="#f2f5e9" fill-opacity="0.5" stroke="#606060" stroke-width="1.0"/>
           <path id="arrow"
             d="M 11.500037,31.436501 C 11.940474,20.09759 22.043105,11.32322 32.158766,21.979434 L 37.068811,17.246167 C 37.068811,17.246167 37.088388,32 37.088388,32 L 22.160133,31.978069 C 22.160133,31.978069 26.997745,27.140456 26.997745,27.140456 C 18.528582,18.264221 13.291696,25.230495 11.500037,31.436501 z"
             style="fill:#404040;"/>
          </a>
         </g>
        </svg>
</svg>
