<?xml version="1.0" encoding="UTF-8" standalone="no"?>
<!DOCTYPE svg PUBLIC "-//W3C//DTD SVG 1.1//EN"
 "http://www.w3.org/Graphics/SVG/1.1/DTD/svg11.dtd">
<!-- Generated by graphviz version 2.38.0 (20140413.2041)
 -->
<!-- Title: IG.Forms.InpuOrOutputtDataDefinitionControl Pages: 1 -->
<svg width="521pt" height="395pt"
 viewBox="0.00 0.00 520.50 395.00" xmlns="http://www.w3.org/2000/svg" xmlns:xlink="http://www.w3.org/1999/xlink">
<g id="graph0" class="graph" transform="scale(1 1) rotate(0) translate(4 391)">
<title>IG.Forms.InpuOrOutputtDataDefinitionControl</title>
<polygon fill="white" stroke="none" points="-4,4 -4,-391 516.5,-391 516.5,4 -4,4"/>
<!-- Node1 -->
<g id="node1" class="node"><title>Node1</title>
<g id="a_node1"><a xlink:title="Control for editing input or output data definitions (only one of these two at a time).">
<polygon fill="#bfbfbf" stroke="black" points="218.5,-0.5 218.5,-30.5 359.5,-30.5 359.5,-0.5 218.5,-0.5"/>
<text text-anchor="start" x="226.5" y="-18.5" font-family="Helvetica,sans-Serif" font-size="10.00">IG.Forms.InpuOrOutputtData</text>
<text text-anchor="middle" x="289" y="-7.5" font-family="Helvetica,sans-Serif" font-size="10.00">DefinitionControl</text>
</a>
</g>
</g>
<!-- Node2 -->
<g id="node2" class="node"><title>Node2</title>
<g id="a_node2"><a xlink:title=" ">
<polygon fill="white" stroke="#bfbfbf" points="0,-367.5 0,-386.5 68,-386.5 68,-367.5 0,-367.5"/>
<text text-anchor="middle" x="34" y="-374.5" font-family="Helvetica,sans-Serif" font-size="10.00">UserControl</text>
</a>
</g>
</g>
<!-- Node2&#45;&gt;Node1 -->
<g id="edge1" class="edge"><title>Node2&#45;&gt;Node1</title>
<path fill="none" stroke="midnightblue" d="M33.6798,-357.26C33.7087,-328.688 35.8112,-272.827 50,-228 72.9922,-155.36 75.7415,-128.266 133,-78 159.253,-54.9527 195.171,-39.9991 225.925,-30.6154"/>
<polygon fill="midnightblue" stroke="midnightblue" points="30.1811,-357.443 33.7598,-367.415 37.1809,-357.388 30.1811,-357.443"/>
</g>
<!-- Node3 -->
<g id="node3" class="node"><title>Node3</title>
<g id="a_node3"><a xlink:href="../../de/d72/classIG_1_1Forms_1_1IndicatorLight.html" target="_top" xlink:title=" ">
<polygon fill="white" stroke="black" points="142,-134.5 142,-153.5 260,-153.5 260,-134.5 142,-134.5"/>
<text text-anchor="middle" x="201" y="-141.5" font-family="Helvetica,sans-Serif" font-size="10.00">IG.Forms.IndicatorLight</text>
</a>
</g>
</g>
<!-- Node2&#45;&gt;Node3 -->
<g id="edge3" class="edge"><title>Node2&#45;&gt;Node3</title>
<path fill="none" stroke="midnightblue" d="M45.0424,-358.566C46.8155,-355.44 48.5437,-352.169 50,-349 73.7131,-297.407 57.7523,-274.029 91,-228 116.075,-193.285 159.864,-166.538 183.937,-153.588"/>
<polygon fill="midnightblue" stroke="midnightblue" points="41.9721,-356.88 39.8155,-367.253 47.9701,-360.489 41.9721,-356.88"/>
</g>
<!-- Node3&#45;&gt;Node1 -->
<g id="edge2" class="edge"><title>Node3&#45;&gt;Node1</title>
<path fill="none" stroke="#9a32cd" stroke-dasharray="5,2" d="M212.966,-125.799C230.455,-100.659 262.685,-54.3278 278.991,-30.888"/>
<polygon fill="#9a32cd" stroke="#9a32cd" points="209.886,-124.097 207.049,-134.305 215.632,-128.095 209.886,-124.097"/>
<text text-anchor="middle" x="299.5" y="-52" font-family="Helvetica,sans-Serif" font-size="10.00"> indicatorLight1</text>
</g>
<!-- Node4 -->
<g id="node4" class="node"><title>Node4</title>
<g id="a_node4"><a xlink:title=" ">
<polygon fill="white" stroke="#bfbfbf" points="291,-367.5 291,-386.5 341,-386.5 341,-367.5 291,-367.5"/>
<text text-anchor="middle" x="316" y="-374.5" font-family="Helvetica,sans-Serif" font-size="10.00">System</text>
</a>
</g>
</g>
<!-- Node4&#45;&gt;Node1 -->
<g id="edge6" class="edge"><title>Node4&#45;&gt;Node1</title>
<path fill="none" stroke="#9a32cd" stroke-dasharray="5,2" d="M340.525,-361.123C344.359,-357.647 347.782,-353.594 350,-349 368.097,-311.52 342.613,-58.7115 337,-49 332.669,-41.5066 325.831,-35.3801 318.659,-30.5477"/>
<polygon fill="#9a32cd" stroke="#9a32cd" points="338.115,-358.561 332.329,-367.436 342.387,-364.106 338.115,-358.561"/>
<text text-anchor="middle" x="404.5" y="-202" font-family="Helvetica,sans-Serif" font-size="10.00"> btnResetDefault</text>
<text text-anchor="middle" x="404.5" y="-191" font-family="Helvetica,sans-Serif" font-size="10.00">btnResetCenter</text>
<text text-anchor="middle" x="404.5" y="-180" font-family="Helvetica,sans-Serif" font-size="10.00">columnMin</text>
<text text-anchor="start" x="354" y="-169" font-family="Helvetica,sans-Serif" font-size="10.00">resetToDefaultToolStrip</text>
<text text-anchor="middle" x="404.5" y="-158" font-family="Helvetica,sans-Serif" font-size="10.00">MenuItem</text>
<text text-anchor="middle" x="404.5" y="-147" font-family="Helvetica,sans-Serif" font-size="10.00">columnNumPoints</text>
<text text-anchor="middle" x="404.5" y="-136" font-family="Helvetica,sans-Serif" font-size="10.00">columnName</text>
<text text-anchor="middle" x="404.5" y="-125" font-family="Helvetica,sans-Serif" font-size="10.00">components</text>
<text text-anchor="middle" x="404.5" y="-114" font-family="Helvetica,sans-Serif" font-size="10.00">columnMax</text>
<text text-anchor="middle" x="404.5" y="-103" font-family="Helvetica,sans-Serif" font-size="10.00">contextMenuControl</text>
<text text-anchor="middle" x="404.5" y="-92" font-family="Helvetica,sans-Serif" font-size="10.00">grpOuter</text>
<text text-anchor="middle" x="404.5" y="-81" font-family="Helvetica,sans-Serif" font-size="10.00">...</text>
</g>
<!-- Node4&#45;&gt;Node3 -->
<g id="edge4" class="edge"><title>Node4&#45;&gt;Node3</title>
<path fill="none" stroke="#9a32cd" stroke-dasharray="5,2" d="M283.565,-362.383C277.999,-358.761 272.796,-354.333 269,-349 237.256,-304.403 264.375,-279.564 246,-228 235.766,-199.281 216.648,-168.479 206.958,-153.782"/>
<polygon fill="#9a32cd" stroke="#9a32cd" points="282.033,-365.538 292.459,-367.424 285.485,-359.448 282.033,-365.538"/>
<text text-anchor="middle" x="309.5" y="-341" font-family="Helvetica,sans-Serif" font-size="10.00"> _colorLightError</text>
<text text-anchor="middle" x="309.5" y="-330" font-family="Helvetica,sans-Serif" font-size="10.00">_colorLabel</text>
<text text-anchor="middle" x="309.5" y="-319" font-family="Helvetica,sans-Serif" font-size="10.00">timer1</text>
<text text-anchor="middle" x="309.5" y="-308" font-family="Helvetica,sans-Serif" font-size="10.00">flowOuter</text>
<text text-anchor="middle" x="309.5" y="-297" font-family="Helvetica,sans-Serif" font-size="10.00">_colorLightOk</text>
<text text-anchor="middle" x="309.5" y="-286" font-family="Helvetica,sans-Serif" font-size="10.00">_specialBlinkColor</text>
<text text-anchor="middle" x="309.5" y="-275" font-family="Helvetica,sans-Serif" font-size="10.00">_colorLightOff</text>
<text text-anchor="middle" x="309.5" y="-264" font-family="Helvetica,sans-Serif" font-size="10.00">lblText</text>
<text text-anchor="middle" x="309.5" y="-253" font-family="Helvetica,sans-Serif" font-size="10.00">components</text>
<text text-anchor="middle" x="309.5" y="-242" font-family="Helvetica,sans-Serif" font-size="10.00">_colorLightBusy</text>
<text text-anchor="middle" x="309.5" y="-231" font-family="Helvetica,sans-Serif" font-size="10.00">...</text>
</g>
<!-- Node5 -->
<g id="node5" class="node"><title>Node5</title>
<g id="a_node5"><a xlink:title=" ">
<polygon fill="white" stroke="#bfbfbf" points="86.5,-367.5 86.5,-386.5 127.5,-386.5 127.5,-367.5 86.5,-367.5"/>
<text text-anchor="middle" x="107" y="-374.5" font-family="Helvetica,sans-Serif" font-size="10.00">static</text>
</a>
</g>
</g>
<!-- Node5&#45;&gt;Node3 -->
<g id="edge5" class="edge"><title>Node5&#45;&gt;Node3</title>
<path fill="none" stroke="#9a32cd" stroke-dasharray="5,2" d="M102.127,-357.502C95.4815,-328.436 86.4874,-270.959 106,-228 122.122,-192.506 161.753,-166.244 184.406,-153.535"/>
<polygon fill="#9a32cd" stroke="#9a32cd" points="98.7918,-358.598 104.577,-367.474 105.59,-356.928 98.7918,-358.598"/>
<text text-anchor="middle" x="176" y="-341" font-family="Helvetica,sans-Serif" font-size="10.00"> _defaultColorLabel</text>
<text text-anchor="middle" x="176" y="-330" font-family="Helvetica,sans-Serif" font-size="10.00">_defaultBorderOut</text>
<text text-anchor="middle" x="176" y="-319" font-family="Helvetica,sans-Serif" font-size="10.00">_defaultBorderLabel</text>
<text text-anchor="middle" x="176" y="-308" font-family="Helvetica,sans-Serif" font-size="10.00">_defaultColorLightOff</text>
<text text-anchor="middle" x="176" y="-297" font-family="Helvetica,sans-Serif" font-size="10.00">_defaultPaddingLabel</text>
<text text-anchor="middle" x="176" y="-286" font-family="Helvetica,sans-Serif" font-size="10.00">_defaultMarginLabel</text>
<text text-anchor="middle" x="176" y="-275" font-family="Helvetica,sans-Serif" font-size="10.00">_defaultColorLightBusy</text>
<text text-anchor="middle" x="176" y="-264" font-family="Helvetica,sans-Serif" font-size="10.00">_defaultBlinkIntervalMilliseconds</text>
<text text-anchor="middle" x="176" y="-253" font-family="Helvetica,sans-Serif" font-size="10.00">_defaultPaddingOut</text>
<text text-anchor="middle" x="176" y="-242" font-family="Helvetica,sans-Serif" font-size="10.00">_defaultColorLightError</text>
<text text-anchor="middle" x="176" y="-231" font-family="Helvetica,sans-Serif" font-size="10.00">...</text>
</g>
<!-- Node6 -->
<g id="node6" class="node"><title>Node6</title>
<g id="a_node6"><a xlink:title=" ">
<polygon fill="white" stroke="#bfbfbf" points="483.5,-134.5 483.5,-153.5 512.5,-153.5 512.5,-134.5 483.5,-134.5"/>
<text text-anchor="middle" x="498" y="-141.5" font-family="Helvetica,sans-Serif" font-size="10.00">IG</text>
</a>
</g>
</g>
<!-- Node6&#45;&gt;Node1 -->
<g id="edge7" class="edge"><title>Node6&#45;&gt;Node1</title>
<path fill="none" stroke="#9a32cd" stroke-dasharray="5,2" d="M493.968,-124.235C489.944,-109.765 482.378,-90.2195 469,-78 438.887,-50.494 395.937,-35.2141 359.544,-26.7654"/>
<polygon fill="#9a32cd" stroke="#9a32cd" points="490.608,-125.229 496.392,-134.106 497.406,-123.56 490.608,-125.229"/>
<text text-anchor="middle" x="463" y="-52" font-family="Helvetica,sans-Serif" font-size="10.00"> _values</text>
</g>
</g>
</svg>
