<?xml version="1.0" encoding="UTF-8" standalone="no"?>
<!DOCTYPE svg PUBLIC "-//W3C//DTD SVG 1.1//EN"
 "http://www.w3.org/Graphics/SVG/1.1/DTD/svg11.dtd">
<!-- Generated by graphviz version 2.38.0 (20140413.2041)
 -->
<!-- Title: IG.Script.AppShellExtExt Pages: 1 -->
<svg width="201pt" height="196pt"
 viewBox="0.00 0.00 200.50 196.00" xmlns="http://www.w3.org/2000/svg" xmlns:xlink="http://www.w3.org/1999/xlink">
<g id="graph0" class="graph" transform="scale(1 1) rotate(0) translate(4 192)">
<title>IG.Script.AppShellExtExt</title>
<polygon fill="white" stroke="none" points="-4,4 -4,-192 196.5,-192 196.5,4 -4,4"/>
<!-- Node1 -->
<g id="node1" class="node"><title>Node1</title>
<g id="a_node1"><a xlink:title="Internal script for running embedded applications.">
<polygon fill="#bfbfbf" stroke="black" points="65.5,-0.5 65.5,-19.5 192.5,-19.5 192.5,-0.5 65.5,-0.5"/>
<text text-anchor="middle" x="129" y="-7.5" font-family="Helvetica,sans-Serif" font-size="10.00">IG.Script.AppShellExtExt</text>
</a>
</g>
</g>
<!-- Node2 -->
<g id="node2" class="node"><title>Node2</title>
<g id="a_node2"><a xlink:href="../../d0/dec/classIG_1_1Script_1_1AppExtBase.html" target="_top" xlink:title="Internal script for running embedded applications.">
<polygon fill="white" stroke="black" points="61.5,-56.5 61.5,-75.5 132.5,-75.5 132.5,-56.5 61.5,-56.5"/>
<text text-anchor="middle" x="97" y="-63.5" font-family="Helvetica,sans-Serif" font-size="10.00">AppExtBase</text>
</a>
</g>
</g>
<!-- Node2&#45;&gt;Node1 -->
<g id="edge1" class="edge"><title>Node2&#45;&gt;Node1</title>
<path fill="none" stroke="midnightblue" d="M107.504,-47.2747C112.973,-38.0454 119.418,-27.1703 123.814,-19.7511"/>
<polygon fill="midnightblue" stroke="midnightblue" points="104.371,-45.6957 102.284,-56.083 110.393,-49.2644 104.371,-45.6957"/>
</g>
<!-- Node3 -->
<g id="node3" class="node"><title>Node3</title>
<g id="a_node3"><a xlink:href="../../d5/d63/classIG_1_1Script_1_1AppBase.html" target="_top" xlink:title="Base cls. for application scripts that can also be used on its own.">
<polygon fill="white" stroke="black" points="39,-112.5 39,-131.5 95,-131.5 95,-112.5 39,-112.5"/>
<text text-anchor="middle" x="67" y="-119.5" font-family="Helvetica,sans-Serif" font-size="10.00">AppBase</text>
</a>
</g>
</g>
<!-- Node3&#45;&gt;Node2 -->
<g id="edge2" class="edge"><title>Node3&#45;&gt;Node2</title>
<path fill="none" stroke="midnightblue" d="M76.8474,-103.275C81.9748,-94.0454 88.0165,-83.1703 92.1383,-75.7511"/>
<polygon fill="midnightblue" stroke="midnightblue" points="73.7508,-101.642 71.9539,-112.083 79.8699,-105.041 73.7508,-101.642"/>
</g>
<!-- Node4 -->
<g id="node4" class="node"><title>Node4</title>
<g id="a_node4"><a xlink:href="../../db/da4/classIG_1_1Script_1_1ScriptAppBase.html" target="_top" xlink:title="Partial class definition containing tests of CSV utilities.">
<polygon fill="white" stroke="black" points="0,-168.5 0,-187.5 82,-187.5 82,-168.5 0,-168.5"/>
<text text-anchor="middle" x="41" y="-175.5" font-family="Helvetica,sans-Serif" font-size="10.00">ScriptAppBase</text>
</a>
</g>
</g>
<!-- Node4&#45;&gt;Node3 -->
<g id="edge3" class="edge"><title>Node4&#45;&gt;Node3</title>
<path fill="none" stroke="midnightblue" d="M49.675,-158.983C54.0882,-149.817 59.2519,-139.092 62.7865,-131.751"/>
<polygon fill="midnightblue" stroke="midnightblue" points="46.4781,-157.555 45.2934,-168.083 52.7851,-160.591 46.4781,-157.555"/>
</g>
<!-- Node5 -->
<g id="node5" class="node"><title>Node5</title>
<g id="a_node5"><a xlink:href="../../d7/d66/interfaceIG_1_1Lib_1_1ILoadableScript.html" target="_top" xlink:title="Interface for classes that can be dynamically loadeded from scripts and run, which provides functiona...">
<polygon fill="white" stroke="black" points="100.5,-168.5 100.5,-187.5 183.5,-187.5 183.5,-168.5 100.5,-168.5"/>
<text text-anchor="middle" x="142" y="-175.5" font-family="Helvetica,sans-Serif" font-size="10.00">ILoadableScript</text>
</a>
</g>
</g>
<!-- Node5&#45;&gt;Node1 -->
<g id="edge6" class="edge"><title>Node5&#45;&gt;Node1</title>
<path fill="none" stroke="midnightblue" d="M143.295,-158.338C144.619,-134.481 145.864,-91.96 141,-56 139.266,-43.1799 135.012,-28.8068 132.065,-19.8298"/>
<polygon fill="midnightblue" stroke="midnightblue" points="139.794,-158.24 142.665,-168.439 146.781,-158.676 139.794,-158.24"/>
</g>
<!-- Node5&#45;&gt;Node2 -->
<g id="edge5" class="edge"><title>Node5&#45;&gt;Node2</title>
<path fill="none" stroke="midnightblue" d="M134.636,-158.998C124.817,-134.997 107.828,-93.4683 100.515,-75.5914"/>
<polygon fill="midnightblue" stroke="midnightblue" points="131.443,-160.438 138.469,-168.368 137.922,-157.788 131.443,-160.438"/>
</g>
<!-- Node5&#45;&gt;Node3 -->
<g id="edge4" class="edge"><title>Node5&#45;&gt;Node3</title>
<path fill="none" stroke="midnightblue" d="M121.695,-162.38C108.139,-152.62 90.7579,-140.106 79.2693,-131.834"/>
<polygon fill="midnightblue" stroke="midnightblue" points="119.79,-165.321 129.95,-168.324 123.88,-159.641 119.79,-165.321"/>
</g>
</g>
</svg>
