<?xml version="1.0" encoding="UTF-8" standalone="no"?>
<!DOCTYPE svg PUBLIC "-//W3C//DTD SVG 1.1//EN"
 "http://www.w3.org/Graphics/SVG/1.1/DTD/svg11.dtd">
<!-- Generated by graphviz version 2.38.0 (20140413.2041)
 -->
<!-- Title: NUnit.Framework.Constraints.EndsWithConstraintTestsIgnoringCase Pages: 1 -->
<svg width="192pt" height="207pt"
 viewBox="0.00 0.00 192.00 207.00" xmlns="http://www.w3.org/2000/svg" xmlns:xlink="http://www.w3.org/1999/xlink">
<g id="graph0" class="graph" transform="scale(1 1) rotate(0) translate(4 203)">
<title>NUnit.Framework.Constraints.EndsWithConstraintTestsIgnoringCase</title>
<polygon fill="white" stroke="none" points="-4,4 -4,-203 188,-203 188,4 -4,4"/>
<!-- Node1 -->
<g id="node1" class="node"><title>Node1</title>
<g id="a_node1"><a xlink:title=" ">
<polygon fill="#bfbfbf" stroke="black" points="0,-0.5 0,-30.5 184,-30.5 184,-0.5 0,-0.5"/>
<text text-anchor="start" x="8" y="-18.5" font-family="Helvetica,sans-Serif" font-size="10.00">NUnit.Framework.Constraints.</text>
<text text-anchor="middle" x="92" y="-7.5" font-family="Helvetica,sans-Serif" font-size="10.00">EndsWithConstraintTestsIgnoringCase</text>
</a>
</g>
</g>
<!-- Node2 -->
<g id="node2" class="node"><title>Node2</title>
<g id="a_node2"><a xlink:href="../../dc/dcc/classNUnit_1_1Framework_1_1Constraints_1_1StringConstraintTests.html" target="_top" xlink:title=" ">
<polygon fill="white" stroke="black" points="37,-67.5 37,-86.5 147,-86.5 147,-67.5 37,-67.5"/>
<text text-anchor="middle" x="92" y="-74.5" font-family="Helvetica,sans-Serif" font-size="10.00">StringConstraintTests</text>
</a>
</g>
</g>
<!-- Node2&#45;&gt;Node1 -->
<g id="edge1" class="edge"><title>Node2&#45;&gt;Node1</title>
<path fill="none" stroke="midnightblue" d="M92,-57.2349C92,-48.5864 92,-38.4969 92,-30.523"/>
<polygon fill="midnightblue" stroke="midnightblue" points="88.5001,-57.4751 92,-67.4751 95.5001,-57.4751 88.5001,-57.4751"/>
</g>
<!-- Node3 -->
<g id="node3" class="node"><title>Node3</title>
<g id="a_node3"><a xlink:href="../../d5/d7a/classNUnit_1_1Framework_1_1Constraints_1_1ConstraintTestBase.html" target="_top" xlink:title=" ">
<polygon fill="white" stroke="black" points="41,-123.5 41,-142.5 143,-142.5 143,-123.5 41,-123.5"/>
<text text-anchor="middle" x="92" y="-130.5" font-family="Helvetica,sans-Serif" font-size="10.00">ConstraintTestBase</text>
</a>
</g>
</g>
<!-- Node3&#45;&gt;Node2 -->
<g id="edge2" class="edge"><title>Node3&#45;&gt;Node2</title>
<path fill="none" stroke="midnightblue" d="M92,-112.805C92,-103.91 92,-93.7798 92,-86.7511"/>
<polygon fill="midnightblue" stroke="midnightblue" points="88.5001,-113.083 92,-123.083 95.5001,-113.083 88.5001,-113.083"/>
</g>
<!-- Node4 -->
<g id="node4" class="node"><title>Node4</title>
<g id="a_node4"><a xlink:href="../../dc/d5c/classNUnit_1_1Framework_1_1Constraints_1_1ConstraintTestBaseNoData.html" target="_top" xlink:title=" ">
<polygon fill="white" stroke="black" points="25,-179.5 25,-198.5 159,-198.5 159,-179.5 25,-179.5"/>
<text text-anchor="middle" x="92" y="-186.5" font-family="Helvetica,sans-Serif" font-size="10.00">ConstraintTestBaseNoData</text>
</a>
</g>
</g>
<!-- Node4&#45;&gt;Node3 -->
<g id="edge3" class="edge"><title>Node4&#45;&gt;Node3</title>
<path fill="none" stroke="midnightblue" d="M92,-168.805C92,-159.91 92,-149.78 92,-142.751"/>
<polygon fill="midnightblue" stroke="midnightblue" points="88.5001,-169.083 92,-179.083 95.5001,-169.083 88.5001,-169.083"/>
</g>
</g>
</svg>
