<?xml version="1.0" encoding="UTF-8" standalone="no"?>
<!DOCTYPE svg PUBLIC "-//W3C//DTD SVG 1.1//EN"
 "http://www.w3.org/Graphics/SVG/1.1/DTD/svg11.dtd">
<!-- Generated by graphviz version 2.38.0 (20140413.2041)
 -->
<!-- Title: IG.Forms.WindowPositionerForm Pages: 1 -->
<svg width="1022pt" height="659pt"
 viewBox="0.00 0.00 1022.00 658.99" xmlns="http://www.w3.org/2000/svg" xmlns:xlink="http://www.w3.org/1999/xlink">
<g id="graph0" class="graph" transform="scale(1 1) rotate(0) translate(4 654.991)">
<title>IG.Forms.WindowPositionerForm</title>
<polygon fill="white" stroke="none" points="-4,4 -4,-654.991 1018,-654.991 1018,4 -4,4"/>
<!-- Node1 -->
<g id="node1" class="node"><title>Node1</title>
<g id="a_node1"><a xlink:title="Windows form for testing window positioning./summary&gt; $A Igor xx Oct09;">
<polygon fill="#bfbfbf" stroke="black" points="853,-448.491 853,-467.491 1014,-467.491 1014,-448.491 853,-448.491"/>
<text text-anchor="middle" x="933.5" y="-455.491" font-family="Helvetica,sans-Serif" font-size="10.00">IG.Forms.WindowPositionerForm</text>
</a>
</g>
</g>
<!-- Node2 -->
<g id="node2" class="node"><title>Node2</title>
<g id="a_node2"><a xlink:title=" ">
<polygon fill="white" stroke="#bfbfbf" points="613.5,-514.491 613.5,-533.491 652.5,-533.491 652.5,-514.491 613.5,-514.491"/>
<text text-anchor="middle" x="633" y="-521.491" font-family="Helvetica,sans-Serif" font-size="10.00">Form</text>
</a>
</g>
</g>
<!-- Node2&#45;&gt;Node1 -->
<g id="edge1" class="edge"><title>Node2&#45;&gt;Node1</title>
<path fill="none" stroke="midnightblue" d="M662.778,-518.865C701.911,-511.757 774.022,-498.174 835,-483.991 856.329,-479.03 880.075,-472.715 898.792,-467.551"/>
<polygon fill="midnightblue" stroke="midnightblue" points="661.871,-515.472 652.652,-520.693 663.115,-522.36 661.871,-515.472"/>
</g>
<!-- Node3 -->
<g id="node3" class="node"><title>Node3</title>
<g id="a_node3"><a xlink:href="../../d3/d68/interfaceIG_1_1Forms_1_1IClosableFromContainedForm.html" target="_top" xlink:title="Marker interface indicating that a form can be closed from the contained control.">
<polygon fill="white" stroke="black" points="569,-464.991 569,-494.991 697,-494.991 697,-464.991 569,-464.991"/>
<text text-anchor="start" x="577" y="-482.991" font-family="Helvetica,sans-Serif" font-size="10.00">IG::Forms::IClosableFrom</text>
<text text-anchor="middle" x="633" y="-471.991" font-family="Helvetica,sans-Serif" font-size="10.00">ContainedForm</text>
</a>
</g>
</g>
<!-- Node3&#45;&gt;Node1 -->
<g id="edge2" class="edge"><title>Node3&#45;&gt;Node1</title>
<path fill="none" stroke="midnightblue" d="M707.377,-474.583C751.465,-471.334 807.586,-467.197 852.765,-463.868"/>
<polygon fill="midnightblue" stroke="midnightblue" points="707.02,-471.1 697.304,-475.325 707.534,-478.081 707.02,-471.1"/>
</g>
<!-- Node4 -->
<g id="node4" class="node"><title>Node4</title>
<g id="a_node4"><a xlink:title=" ">
<polygon fill="white" stroke="#bfbfbf" points="19.5,-286.491 19.5,-305.491 69.5,-305.491 69.5,-286.491 19.5,-286.491"/>
<text text-anchor="middle" x="44.5" y="-293.491" font-family="Helvetica,sans-Serif" font-size="10.00">System</text>
</a>
</g>
</g>
<!-- Node4&#45;&gt;Node1 -->
<g id="edge3" class="edge"><title>Node4&#45;&gt;Node1</title>
<path fill="none" stroke="#9a32cd" stroke-dasharray="5,2" d="M66.8889,-311.454C105.703,-338.544 191.299,-393.899 273,-416.991 286.782,-420.886 680.578,-443.665 852.967,-453.487"/>
<polygon fill="#9a32cd" stroke="#9a32cd" points="68.669,-308.426 58.4821,-305.515 64.6299,-314.143 68.669,-308.426"/>
<text text-anchor="middle" x="500.5" y="-438.991" font-family="Helvetica,sans-Serif" font-size="10.00"> components</text>
</g>
<!-- Node5 -->
<g id="node5" class="node"><title>Node5</title>
<g id="a_node5"><a xlink:href="../../d0/de6/classIG_1_1Forms_1_1WindowPositionerControl.html" target="_top" xlink:title="Control for testing window positioning.">
<polygon fill="white" stroke="black" points="564,-233.991 564,-263.991 702,-263.991 702,-233.991 564,-233.991"/>
<text text-anchor="start" x="572" y="-251.991" font-family="Helvetica,sans-Serif" font-size="10.00">IG.Forms.WindowPositioner</text>
<text text-anchor="middle" x="633" y="-240.991" font-family="Helvetica,sans-Serif" font-size="10.00">Control</text>
</a>
</g>
</g>
<!-- Node4&#45;&gt;Node5 -->
<g id="edge17" class="edge"><title>Node4&#45;&gt;Node5</title>
<path fill="none" stroke="#9a32cd" stroke-dasharray="5,2" d="M79.6411,-301.99C123.189,-307.872 199.497,-312.097 255,-281.991 266.72,-275.634 261.15,-264.103 273,-257.991 321.899,-232.77 474.02,-238.049 563.786,-243.759"/>
<polygon fill="#9a32cd" stroke="#9a32cd" points="79.9681,-298.501 69.5675,-300.52 78.9572,-305.428 79.9681,-298.501"/>
<text text-anchor="middle" x="355" y="-370.991" font-family="Helvetica,sans-Serif" font-size="10.00"> btnRememberPosition</text>
<text text-anchor="middle" x="355" y="-359.991" font-family="Helvetica,sans-Serif" font-size="10.00">txtPause</text>
<text text-anchor="middle" x="355" y="-348.991" font-family="Helvetica,sans-Serif" font-size="10.00">btnPositionWindows</text>
<text text-anchor="middle" x="355" y="-337.991" font-family="Helvetica,sans-Serif" font-size="10.00">lblTitle</text>
<text text-anchor="middle" x="355" y="-326.991" font-family="Helvetica,sans-Serif" font-size="10.00">btnStickToMaster</text>
<text text-anchor="middle" x="355" y="-315.991" font-family="Helvetica,sans-Serif" font-size="10.00">txtMasterWeight</text>
<text text-anchor="middle" x="355" y="-304.991" font-family="Helvetica,sans-Serif" font-size="10.00">btnUpdate</text>
<text text-anchor="middle" x="355" y="-293.991" font-family="Helvetica,sans-Serif" font-size="10.00">lblMasterWeight</text>
<text text-anchor="middle" x="355" y="-282.991" font-family="Helvetica,sans-Serif" font-size="10.00">grpScreen</text>
<text text-anchor="middle" x="355" y="-271.991" font-family="Helvetica,sans-Serif" font-size="10.00">components</text>
<text text-anchor="middle" x="355" y="-260.991" font-family="Helvetica,sans-Serif" font-size="10.00">...</text>
</g>
<!-- Node7 -->
<g id="node7" class="node"><title>Node7</title>
<g id="a_node7"><a xlink:href="../../df/d0e/classIG_1_1Forms_1_1WindowPositioner.html" target="_top" xlink:title="Takes care of windows positioning, relative of absolute to the screen and/or other windows.">
<polygon fill="white" stroke="black" points="286,-504.491 286,-523.491 424,-523.491 424,-504.491 286,-504.491"/>
<text text-anchor="middle" x="355" y="-511.491" font-family="Helvetica,sans-Serif" font-size="10.00">IG.Forms.WindowPositioner</text>
</a>
</g>
</g>
<!-- Node4&#45;&gt;Node7 -->
<g id="edge9" class="edge"><title>Node4&#45;&gt;Node7</title>
<path fill="none" stroke="#9a32cd" stroke-dasharray="5,2" d="M47.9313,-315.828C52.963,-348.155 67.5595,-412.087 107,-446.991 109.02,-448.779 250.187,-486.429 318.172,-504.489"/>
<polygon fill="#9a32cd" stroke="#9a32cd" points="51.3814,-315.227 46.5254,-305.811 44.4493,-316.2 51.3814,-315.227"/>
<text text-anchor="middle" x="181" y="-501.991" font-family="Helvetica,sans-Serif" font-size="10.00"> _window</text>
<text text-anchor="middle" x="181" y="-490.991" font-family="Helvetica,sans-Serif" font-size="10.00">_masterWindow</text>
</g>
<!-- Node11 -->
<g id="node11" class="node"><title>Node11</title>
<g id="a_node11"><a xlink:href="../../d8/dfa/classIG_1_1Forms_1_1WindowShiftControlText.html" target="_top" xlink:title="Control for setting window positions, relative positions, sizes, positions, shifts,...">
<polygon fill="white" stroke="black" points="273,-180.491 273,-199.491 437,-199.491 437,-180.491 273,-180.491"/>
<text text-anchor="middle" x="355" y="-187.491" font-family="Helvetica,sans-Serif" font-size="10.00">IG.Forms.WindowShiftControlText</text>
</a>
</g>
</g>
<!-- Node4&#45;&gt;Node11 -->
<g id="edge13" class="edge"><title>Node4&#45;&gt;Node11</title>
<path fill="none" stroke="#9a32cd" stroke-dasharray="5,2" d="M54.2865,-277.125C64.206,-258.17 82.2483,-229.841 107,-215.991 121.37,-207.951 206.53,-200.249 272.886,-195.344"/>
<polygon fill="#9a32cd" stroke="#9a32cd" points="51.0445,-275.784 49.7336,-286.298 57.3146,-278.896 51.0445,-275.784"/>
<text text-anchor="middle" x="181" y="-273.991" font-family="Helvetica,sans-Serif" font-size="10.00"> pnlOuter</text>
<text text-anchor="middle" x="181" y="-262.991" font-family="Helvetica,sans-Serif" font-size="10.00">lblWindowRelY</text>
<text text-anchor="middle" x="181" y="-251.991" font-family="Helvetica,sans-Serif" font-size="10.00">txtWindowShiftRelX</text>
<text text-anchor="middle" x="181" y="-240.991" font-family="Helvetica,sans-Serif" font-size="10.00">txtWindowShiftRelY</text>
<text text-anchor="middle" x="181" y="-229.991" font-family="Helvetica,sans-Serif" font-size="10.00">components</text>
<text text-anchor="middle" x="181" y="-218.991" font-family="Helvetica,sans-Serif" font-size="10.00">lblWindowShiftRelX</text>
</g>
<!-- Node12 -->
<g id="node12" class="node"><title>Node12</title>
<g id="a_node12"><a xlink:href="../../d2/d08/classIG_1_1Forms_1_1AlignmentControl.html" target="_top" xlink:title="Control for setting horizontal and vertical alignment of items.">
<polygon fill="white" stroke="black" points="288,-61.4911 288,-80.4911 422,-80.4911 422,-61.4911 288,-61.4911"/>
<text text-anchor="middle" x="355" y="-68.4911" font-family="Helvetica,sans-Serif" font-size="10.00">IG.Forms.AlignmentControl</text>
</a>
</g>
</g>
<!-- Node4&#45;&gt;Node12 -->
<g id="edge16" class="edge"><title>Node4&#45;&gt;Node12</title>
<path fill="none" stroke="#9a32cd" stroke-dasharray="5,2" d="M47.8952,-276.216C54.3914,-226.263 74.1004,-97.1809 107,-71.9911 171.862,-22.329 276.966,-46.0243 326.504,-61.4007"/>
<polygon fill="#9a32cd" stroke="#9a32cd" points="44.3944,-276.003 46.6176,-286.362 51.3395,-276.878 44.3944,-276.003"/>
<text text-anchor="middle" x="181" y="-184.991" font-family="Helvetica,sans-Serif" font-size="10.00"> rbVerticalBottom</text>
<text text-anchor="middle" x="181" y="-173.991" font-family="Helvetica,sans-Serif" font-size="10.00">pnlOuter</text>
<text text-anchor="middle" x="181" y="-162.991" font-family="Helvetica,sans-Serif" font-size="10.00">rbVerticalTop</text>
<text text-anchor="middle" x="181" y="-151.991" font-family="Helvetica,sans-Serif" font-size="10.00">rbHorizontalNone</text>
<text text-anchor="middle" x="181" y="-140.991" font-family="Helvetica,sans-Serif" font-size="10.00">rbHorizontalRight</text>
<text text-anchor="middle" x="181" y="-129.991" font-family="Helvetica,sans-Serif" font-size="10.00">rbVerticalMiddle</text>
<text text-anchor="middle" x="181" y="-118.991" font-family="Helvetica,sans-Serif" font-size="10.00">rbHorizontalLeft</text>
<text text-anchor="middle" x="181" y="-107.991" font-family="Helvetica,sans-Serif" font-size="10.00">lblHorizontal</text>
<text text-anchor="middle" x="181" y="-96.9911" font-family="Helvetica,sans-Serif" font-size="10.00">lblVertical</text>
<text text-anchor="middle" x="181" y="-85.9911" font-family="Helvetica,sans-Serif" font-size="10.00">components</text>
<text text-anchor="middle" x="181" y="-74.9911" font-family="Helvetica,sans-Serif" font-size="10.00">...</text>
</g>
<!-- Node5&#45;&gt;Node1 -->
<g id="edge4" class="edge"><title>Node5&#45;&gt;Node1</title>
<path fill="none" stroke="#9a32cd" stroke-dasharray="5,2" d="M663.856,-269.895C727.333,-314.339 873.597,-416.749 918.883,-448.457"/>
<polygon fill="#9a32cd" stroke="#9a32cd" points="665.667,-266.89 655.467,-264.022 661.652,-272.624 665.667,-266.89"/>
<text text-anchor="middle" x="777.5" y="-387.991" font-family="Helvetica,sans-Serif" font-size="10.00"> windowPositionerControl1</text>
</g>
<!-- Node6 -->
<g id="node6" class="node"><title>Node6</title>
<g id="a_node6"><a xlink:title=" ">
<polygon fill="white" stroke="#bfbfbf" points="10.5,-3.49105 10.5,-22.4911 78.5,-22.4911 78.5,-3.49105 10.5,-3.49105"/>
<text text-anchor="middle" x="44.5" y="-10.4911" font-family="Helvetica,sans-Serif" font-size="10.00">UserControl</text>
</a>
</g>
</g>
<!-- Node6&#45;&gt;Node5 -->
<g id="edge5" class="edge"><title>Node6&#45;&gt;Node5</title>
<path fill="none" stroke="midnightblue" d="M88.7739,-6.81827C184.383,4.21752 415.463,16.1912 546,-101.991 588.303,-140.291 615.701,-204.393 626.624,-233.623"/>
<polygon fill="midnightblue" stroke="midnightblue" points="88.1122,-3.37271 78.605,-8.04852 88.953,-10.322 88.1122,-3.37271"/>
</g>
<!-- Node6&#45;&gt;Node11 -->
<g id="edge12" class="edge"><title>Node6&#45;&gt;Node11</title>
<path fill="none" stroke="midnightblue" d="M88.9313,-20.8245C149.812,-31.8403 253.346,-50.7174 255,-51.9911 269.806,-63.3932 263.048,-74.1735 273,-89.9911 295.487,-125.732 328.92,-163.205 344.88,-180.372"/>
<polygon fill="midnightblue" stroke="midnightblue" points="89.2846,-17.3317 78.8214,-18.9965 88.0391,-24.22 89.2846,-17.3317"/>
</g>
<!-- Node6&#45;&gt;Node12 -->
<g id="edge15" class="edge"><title>Node6&#45;&gt;Node12</title>
<path fill="none" stroke="midnightblue" d="M88.7889,-11.503C131.632,-11.047 198.772,-13.0834 255,-26.9911 285.491,-34.5329 318.331,-50.9593 337.479,-61.4692"/>
<polygon fill="midnightblue" stroke="midnightblue" points="88.6504,-8.0046 78.7066,-11.6613 88.7604,-15.0037 88.6504,-8.0046"/>
</g>
<!-- Node7&#45;&gt;Node5 -->
<g id="edge6" class="edge"><title>Node7&#45;&gt;Node5</title>
<path fill="none" stroke="#9a32cd" stroke-dasharray="5,2" d="M434.115,-503.416C471.807,-494.796 515.376,-479.192 546,-450.991 603.198,-398.319 623.847,-301.321 629.876,-264.089"/>
<polygon fill="#9a32cd" stroke="#9a32cd" points="433.201,-500.033 424.164,-505.564 434.678,-506.875 433.201,-500.033"/>
<text text-anchor="middle" x="500.5" y="-500.991" font-family="Helvetica,sans-Serif" font-size="10.00"> _positioner</text>
</g>
<!-- Node8 -->
<g id="node8" class="node"><title>Node8</title>
<g id="a_node8"><a xlink:href="../../d4/da1/structIG_1_1Lib_1_1Alignment.html" target="_top" xlink:title="Defines alignment (vertical and horizontal) of some object.">
<polygon fill="white" stroke="black" points="0,-607.491 0,-626.491 89,-626.491 89,-607.491 0,-607.491"/>
<text text-anchor="middle" x="44.5" y="-614.491" font-family="Helvetica,sans-Serif" font-size="10.00">IG.Lib.Alignment</text>
</a>
</g>
</g>
<!-- Node8&#45;&gt;Node7 -->
<g id="edge7" class="edge"><title>Node8&#45;&gt;Node7</title>
<path fill="none" stroke="#9a32cd" stroke-dasharray="5,2" d="M99.4823,-618.878C143.046,-618.531 205.079,-613.732 255,-592.991 293.785,-576.877 329.804,-540.832 345.595,-523.567"/>
<polygon fill="#9a32cd" stroke="#9a32cd" points="99.3755,-615.378 89.3768,-618.882 99.3781,-622.378 99.3755,-615.378"/>
<text text-anchor="middle" x="181" y="-642.991" font-family="Helvetica,sans-Serif" font-size="10.00"> _screenAlignment</text>
<text text-anchor="middle" x="181" y="-631.991" font-family="Helvetica,sans-Serif" font-size="10.00">_windowAlignment</text>
<text text-anchor="middle" x="181" y="-620.991" font-family="Helvetica,sans-Serif" font-size="10.00">_masterWindowAlignment</text>
</g>
<!-- Node9 -->
<g id="node9" class="node"><title>Node9</title>
<g id="a_node9"><a xlink:href="../../dc/daf/structIG_1_1Num_1_1vec2.html" target="_top" xlink:title="Struct representing a 3D vector.">
<polygon fill="white" stroke="black" points="8.5,-541.491 8.5,-560.491 80.5,-560.491 80.5,-541.491 8.5,-541.491"/>
<text text-anchor="middle" x="44.5" y="-548.491" font-family="Helvetica,sans-Serif" font-size="10.00">IG.Num.vec2</text>
</a>
</g>
</g>
<!-- Node9&#45;&gt;Node7 -->
<g id="edge8" class="edge"><title>Node9&#45;&gt;Node7</title>
<path fill="none" stroke="#9a32cd" stroke-dasharray="5,2" d="M90.7752,-546.432C133.239,-542.058 198.486,-535.087 255,-527.991 265.937,-526.618 277.539,-525.064 288.804,-523.505"/>
<polygon fill="#9a32cd" stroke="#9a32cd" points="90.3446,-542.957 80.7538,-547.459 91.0587,-549.921 90.3446,-542.957"/>
<text text-anchor="middle" x="181" y="-580.991" font-family="Helvetica,sans-Serif" font-size="10.00"> _screenShiftRelative</text>
<text text-anchor="middle" x="181" y="-569.991" font-family="Helvetica,sans-Serif" font-size="10.00">_shiftAbsolute</text>
<text text-anchor="middle" x="181" y="-558.991" font-family="Helvetica,sans-Serif" font-size="10.00">_windowShiftRelative</text>
<text text-anchor="middle" x="181" y="-547.991" font-family="Helvetica,sans-Serif" font-size="10.00">_masterWindowShiftRelative</text>
</g>
<!-- Node10 -->
<g id="node10" class="node"><title>Node10</title>
<g id="a_node10"><a xlink:title=" ">
<polygon fill="white" stroke="#bfbfbf" points="24,-503.491 24,-522.491 65,-522.491 65,-503.491 24,-503.491"/>
<text text-anchor="middle" x="44.5" y="-510.491" font-family="Helvetica,sans-Serif" font-size="10.00">static</text>
</a>
</g>
</g>
<!-- Node10&#45;&gt;Node7 -->
<g id="edge10" class="edge"><title>Node10&#45;&gt;Node7</title>
<path fill="none" stroke="#9a32cd" stroke-dasharray="5,2" d="M75.3628,-513.088C123.65,-513.244 220.087,-513.557 285.833,-513.77"/>
<polygon fill="#9a32cd" stroke="#9a32cd" points="75.2787,-509.588 65.2674,-513.055 75.2559,-516.588 75.2787,-509.588"/>
<text text-anchor="middle" x="181" y="-516.991" font-family="Helvetica,sans-Serif" font-size="10.00"> MinimalMovementPauseSeconds</text>
</g>
<!-- Node11&#45;&gt;Node5 -->
<g id="edge11" class="edge"><title>Node11&#45;&gt;Node5</title>
<path fill="none" stroke="#9a32cd" stroke-dasharray="5,2" d="M440.809,-180.001C474.249,-178.737 512.579,-180.678 546,-190.991 573.361,-199.434 599.91,-219.763 616.1,-233.957"/>
<polygon fill="#9a32cd" stroke="#9a32cd" points="440.42,-176.515 430.599,-180.491 440.755,-183.507 440.42,-176.515"/>
<text text-anchor="middle" x="500.5" y="-226.991" font-family="Helvetica,sans-Serif" font-size="10.00"> shiftMasterRel</text>
<text text-anchor="middle" x="500.5" y="-215.991" font-family="Helvetica,sans-Serif" font-size="10.00">shiftWindowAbsolute</text>
<text text-anchor="middle" x="500.5" y="-204.991" font-family="Helvetica,sans-Serif" font-size="10.00">shiftScreenRel</text>
<text text-anchor="middle" x="500.5" y="-193.991" font-family="Helvetica,sans-Serif" font-size="10.00">shiftWindowRel</text>
</g>
<!-- Node12&#45;&gt;Node5 -->
<g id="edge14" class="edge"><title>Node12&#45;&gt;Node5</title>
<path fill="none" stroke="#9a32cd" stroke-dasharray="5,2" d="M398.288,-83.6938C438.653,-97.0983 499.969,-120.887 546,-153.991 577.788,-176.852 606.516,-213.182 621.367,-233.655"/>
<polygon fill="#9a32cd" stroke="#9a32cd" points="399.343,-80.3566 388.75,-80.5905 397.177,-87.0131 399.343,-80.3566"/>
<text text-anchor="middle" x="500.5" y="-167.991" font-family="Helvetica,sans-Serif" font-size="10.00"> alignScreen</text>
<text text-anchor="middle" x="500.5" y="-156.991" font-family="Helvetica,sans-Serif" font-size="10.00">alignMaster</text>
</g>
<!-- Node13 -->
<g id="node13" class="node"><title>Node13</title>
<g id="a_node13"><a xlink:title=" ">
<polygon fill="white" stroke="#bfbfbf" points="340.5,-388.491 340.5,-407.491 369.5,-407.491 369.5,-388.491 340.5,-388.491"/>
<text text-anchor="middle" x="355" y="-395.491" font-family="Helvetica,sans-Serif" font-size="10.00">IG</text>
</a>
</g>
</g>
<!-- Node13&#45;&gt;Node5 -->
<g id="edge18" class="edge"><title>Node13&#45;&gt;Node5</title>
<path fill="none" stroke="#9a32cd" stroke-dasharray="5,2" d="M379.514,-392.888C396.029,-388.86 418.401,-382.5 437,-373.991 505.748,-342.541 578.687,-289.87 612.585,-264.107"/>
<polygon fill="#9a32cd" stroke="#9a32cd" points="378.55,-389.519 369.605,-395.197 380.139,-396.336 378.55,-389.519"/>
<text text-anchor="middle" x="500.5" y="-366.991" font-family="Helvetica,sans-Serif" font-size="10.00"> alignWindow</text>
</g>
</g>
</svg>
