<?xml version="1.0" encoding="UTF-8" standalone="no"?>
<!DOCTYPE svg PUBLIC "-//W3C//DTD SVG 1.1//EN"
 "http://www.w3.org/Graphics/SVG/1.1/DTD/svg11.dtd">
<!-- Generated by graphviz version 2.38.0 (20140413.2041)
 -->
<!-- Title: IG.Gr3d.Graph3dManipulatorExtended Pages: 1 -->
<svg width="1708pt" height="714pt"
 viewBox="0.00 0.00 1708.00 714.00" xmlns="http://www.w3.org/2000/svg" xmlns:xlink="http://www.w3.org/1999/xlink">
<g id="graph0" class="graph" transform="scale(1 1) rotate(0) translate(4 710)">
<title>IG.Gr3d.Graph3dManipulatorExtended</title>
<polygon fill="white" stroke="none" points="-4,4 -4,-710 1704,-710 1704,4 -4,4"/>
<!-- Node1 -->
<g id="node1" class="node"><title>Node1</title>
<g id="a_node1"><a xlink:title="Extended control for manipulation of 3D VTK graphics. Contains the standard control plus additional b...">
<polygon fill="#bfbfbf" stroke="black" points="1560,-388 1560,-418 1700,-418 1700,-388 1560,-388"/>
<text text-anchor="start" x="1568" y="-406" font-family="Helvetica,sans-Serif" font-size="10.00">IG.Gr3d.Graph3dManipulator</text>
<text text-anchor="middle" x="1630" y="-395" font-family="Helvetica,sans-Serif" font-size="10.00">Extended</text>
</a>
</g>
</g>
<!-- Node2 -->
<g id="node2" class="node"><title>Node2</title>
<g id="a_node2"><a xlink:title=" ">
<polygon fill="white" stroke="#bfbfbf" points="240.5,-244.5 240.5,-263.5 308.5,-263.5 308.5,-244.5 240.5,-244.5"/>
<text text-anchor="middle" x="274.5" y="-251.5" font-family="Helvetica,sans-Serif" font-size="10.00">UserControl</text>
</a>
</g>
</g>
<!-- Node2&#45;&gt;Node1 -->
<g id="edge1" class="edge"><title>Node2&#45;&gt;Node1</title>
<path fill="none" stroke="midnightblue" d="M318.591,-248.896C387.445,-241.024 526.58,-226.278 645,-221 1014.68,-204.525 1450.39,-341.46 1586.33,-387.926"/>
<polygon fill="midnightblue" stroke="midnightblue" points="318.09,-245.431 308.556,-250.052 318.89,-252.385 318.09,-245.431"/>
</g>
<!-- Node5 -->
<g id="node5" class="node"><title>Node5</title>
<g id="a_node5"><a xlink:href="../../d5/daf/classIG_1_1Gr3d_1_1Graph3dManipulatorBasic.html" target="_top" xlink:title="Basic manipulation of VTK&#45;based 3D hraphs.">
<polygon fill="white" stroke="black" points="1266,-356 1266,-386 1406,-386 1406,-356 1266,-356"/>
<text text-anchor="start" x="1274" y="-374" font-family="Helvetica,sans-Serif" font-size="10.00">IG.Gr3d.Graph3dManipulator</text>
<text text-anchor="middle" x="1336" y="-363" font-family="Helvetica,sans-Serif" font-size="10.00">Basic</text>
</a>
</g>
</g>
<!-- Node2&#45;&gt;Node5 -->
<g id="edge5" class="edge"><title>Node2&#45;&gt;Node5</title>
<path fill="none" stroke="midnightblue" d="M318.801,-253.574C436.291,-252.603 759.332,-251.215 865,-264 1020.36,-282.797 1199.53,-331.226 1284.83,-355.967"/>
<polygon fill="midnightblue" stroke="midnightblue" points="318.707,-250.075 308.737,-253.66 318.767,-257.074 318.707,-250.075"/>
</g>
<!-- Node10 -->
<g id="node10" class="node"><title>Node10</title>
<g id="a_node10"><a xlink:href="../../d1/db7/classIG_1_1Gr3d_1_1VtkControlBase.html" target="_top" xlink:title="Basic control encapsulating the VTK&#39;s render control of type Kitware.VTK.RenderWindowControl.">
<polygon fill="white" stroke="black" points="499,-107.5 499,-126.5 621,-126.5 621,-107.5 499,-107.5"/>
<text text-anchor="middle" x="560" y="-114.5" font-family="Helvetica,sans-Serif" font-size="10.00">IG.Gr3d.VtkControlBase</text>
</a>
</g>
</g>
<!-- Node2&#45;&gt;Node10 -->
<g id="edge12" class="edge"><title>Node2&#45;&gt;Node10</title>
<path fill="none" stroke="midnightblue" d="M285.72,-235.602C297.017,-217.057 316.972,-189.084 342,-174 393.737,-142.819 416.781,-162.11 475,-146 495.073,-140.445 517.335,-132.684 533.895,-126.589"/>
<polygon fill="midnightblue" stroke="midnightblue" points="282.648,-233.923 280.621,-244.322 288.69,-237.456 282.648,-233.923"/>
</g>
<!-- Node15 -->
<g id="node15" class="node"><title>Node15</title>
<g id="a_node15"><a xlink:href="../../d8/d45/classIG_1_1Gr3d_1_1Graph3dManipulator.html" target="_top" xlink:title="Basic control for manipulating 3D graphics.">
<polygon fill="white" stroke="black" points="725,-399.5 725,-418.5 865,-418.5 865,-399.5 725,-399.5"/>
<text text-anchor="middle" x="795" y="-406.5" font-family="Helvetica,sans-Serif" font-size="10.00">IG.Gr3d.Graph3dManipulator</text>
</a>
</g>
</g>
<!-- Node2&#45;&gt;Node15 -->
<g id="edge20" class="edge"><title>Node2&#45;&gt;Node15</title>
<path fill="none" stroke="midnightblue" d="M307.845,-267.355C318.629,-271.617 330.759,-276.208 342,-280 493.556,-331.126 677.996,-379.583 756.127,-399.488"/>
<polygon fill="midnightblue" stroke="midnightblue" points="308.969,-264.035 298.385,-263.566 306.366,-270.533 308.969,-264.035"/>
</g>
<!-- Node3 -->
<g id="node3" class="node"><title>Node3</title>
<g id="a_node3"><a xlink:href="../../dc/d11/interfaceIG_1_1Gr3d_1_1IVtkFormContainer.html" target="_top" xlink:title="This interface is implemented by the forms that contain the VTK control that can render VTK graphics.">
<polygon fill="white" stroke="black" points="493,-608.5 493,-627.5 627,-627.5 627,-608.5 493,-608.5"/>
<text text-anchor="middle" x="560" y="-615.5" font-family="Helvetica,sans-Serif" font-size="10.00">IG.Gr3d.IVtkFormContainer</text>
</a>
</g>
</g>
<!-- Node3&#45;&gt;Node1 -->
<g id="edge2" class="edge"><title>Node3&#45;&gt;Node1</title>
<path fill="none" stroke="#9a32cd" stroke-dasharray="5,2" d="M606.845,-629.973C653.575,-641.111 728.323,-656 794,-656 794,-656 794,-656 1337,-656 1483.23,-656 1592.16,-472.535 1621.27,-418.069"/>
<polygon fill="#9a32cd" stroke="#9a32cd" points="607.569,-626.547 597.026,-627.589 605.918,-633.35 607.569,-626.547"/>
<text text-anchor="middle" x="1066" y="-659" font-family="Helvetica,sans-Serif" font-size="10.00"> _vtkContainer</text>
</g>
<!-- Node3&#45;&gt;Node5 -->
<g id="edge24" class="edge"><title>Node3&#45;&gt;Node5</title>
<path fill="none" stroke="#9a32cd" stroke-dasharray="5,2" d="M637.341,-621.261C699.495,-622.13 789.058,-619.291 865,-601 1050.47,-556.328 1247.92,-430.176 1312.89,-386.283"/>
<polygon fill="#9a32cd" stroke="#9a32cd" points="637.282,-617.76 627.222,-621.084 637.159,-624.759 637.282,-617.76"/>
<text text-anchor="middle" x="930.5" y="-598" font-family="Helvetica,sans-Serif" font-size="10.00"> _vtkContainer</text>
</g>
<!-- Node6 -->
<g id="node6" class="node"><title>Node6</title>
<g id="a_node6"><a xlink:href="../../d9/d71/classIG_1_1Gr3d_1_1Graph3dManipulatorWindow.html" target="_top" xlink:title="A form for manipulation of 3D graphics.">
<polygon fill="white" stroke="black" points="996,-349 996,-379 1136,-379 1136,-349 996,-349"/>
<text text-anchor="start" x="1004" y="-367" font-family="Helvetica,sans-Serif" font-size="10.00">IG.Gr3d.Graph3dManipulator</text>
<text text-anchor="middle" x="1066" y="-356" font-family="Helvetica,sans-Serif" font-size="10.00">Window</text>
</a>
</g>
</g>
<!-- Node3&#45;&gt;Node6 -->
<g id="edge9" class="edge"><title>Node3&#45;&gt;Node6</title>
<path fill="none" stroke="#9a32cd" stroke-dasharray="5,2" d="M626.924,-606.648C703.404,-592.778 824.223,-568.501 865,-547 949.095,-502.658 1025,-414.354 1053.28,-379.073"/>
<polygon fill="#9a32cd" stroke="#9a32cd" points="626.124,-603.236 616.902,-608.452 627.364,-610.125 626.124,-603.236"/>
<text text-anchor="middle" x="795" y="-589" font-family="Helvetica,sans-Serif" font-size="10.00"> _vtkContainer</text>
</g>
<!-- Node3&#45;&gt;Node15 -->
<g id="edge21" class="edge"><title>Node3&#45;&gt;Node15</title>
<path fill="none" stroke="#9a32cd" stroke-dasharray="5,2" d="M574.924,-600.101C607.561,-558.528 688.952,-457.143 725,-433 734.168,-426.86 745.074,-422.121 755.477,-418.541"/>
<polygon fill="#9a32cd" stroke="#9a32cd" points="571.969,-598.199 568.565,-608.232 577.483,-602.511 571.969,-598.199"/>
<text text-anchor="middle" x="676" y="-514" font-family="Helvetica,sans-Serif" font-size="10.00"> _vtkContainer</text>
</g>
<!-- Node4 -->
<g id="node4" class="node"><title>Node4</title>
<g id="a_node4"><a xlink:href="../../d3/d6e/interfaceIG_1_1Gr3d_1_1IVtkFormContainerGen.html" target="_top" xlink:title=" ">
<polygon fill="white" stroke="black" points="0,-540 0,-570 188,-570 188,-540 0,-540"/>
<text text-anchor="start" x="8" y="-558" font-family="Helvetica,sans-Serif" font-size="10.00">IVtkFormContainerGen</text>
<text text-anchor="middle" x="94" y="-547" font-family="Helvetica,sans-Serif" font-size="10.00">&lt; Kitware.VTK.RenderWindowControl &gt;</text>
</a>
</g>
</g>
<!-- Node4&#45;&gt;Node3 -->
<g id="edge3" class="edge"><title>Node4&#45;&gt;Node3</title>
<path fill="none" stroke="midnightblue" d="M198.009,-568.986C287.928,-581.195 415.745,-598.549 492.697,-608.998"/>
<polygon fill="midnightblue" stroke="midnightblue" points="198.441,-565.513 188.061,-567.635 197.499,-572.449 198.441,-565.513"/>
</g>
<!-- Node11 -->
<g id="node11" class="node"><title>Node11</title>
<g id="a_node11"><a xlink:href="../../dc/d11/interfaceIG_1_1Gr3d_1_1IVtkFormContainer.html" target="_top" xlink:title="This interface is implemented by the forms that contain the VTK control that can render VTK graphics.">
<polygon fill="white" stroke="black" points="225.5,-76.5 225.5,-95.5 323.5,-95.5 323.5,-76.5 225.5,-76.5"/>
<text text-anchor="middle" x="274.5" y="-83.5" font-family="Helvetica,sans-Serif" font-size="10.00">IVtkFormContainer</text>
</a>
</g>
</g>
<!-- Node4&#45;&gt;Node11 -->
<g id="edge14" class="edge"><title>Node4&#45;&gt;Node11</title>
<path fill="none" stroke="midnightblue" d="M94.9266,-529.592C96.0815,-454.607 109.561,-231.598 225,-105 228.534,-101.124 232.956,-98.0295 237.683,-95.5607"/>
<polygon fill="midnightblue" stroke="midnightblue" points="91.4238,-529.905 94.8341,-539.936 98.4235,-529.968 91.4238,-529.905"/>
</g>
<!-- Node5&#45;&gt;Node1 -->
<g id="edge4" class="edge"><title>Node5&#45;&gt;Node1</title>
<path fill="none" stroke="#9a32cd" stroke-dasharray="5,2" d="M1416.19,-379.678C1461.06,-384.596 1516.67,-390.69 1559.79,-395.415"/>
<polygon fill="#9a32cd" stroke="#9a32cd" points="1416.52,-376.194 1406.2,-378.584 1415.76,-383.152 1416.52,-376.194"/>
<text text-anchor="middle" x="1483" y="-396" font-family="Helvetica,sans-Serif" font-size="10.00"> graph3dManipulatorBasic1</text>
</g>
<!-- Node6&#45;&gt;Node5 -->
<g id="edge6" class="edge"><title>Node6&#45;&gt;Node5</title>
<path fill="none" stroke="#9a32cd" stroke-dasharray="5,2" d="M1146.3,-363.352C1177.94,-363.377 1214.71,-363.761 1248,-365 1253.75,-365.214 1259.71,-365.497 1265.69,-365.823"/>
<polygon fill="#9a32cd" stroke="#9a32cd" points="1146.21,-359.852 1136.21,-363.356 1146.21,-366.852 1146.21,-359.852"/>
<text text-anchor="middle" x="1201" y="-368" font-family="Helvetica,sans-Serif" font-size="10.00"> _graphControls</text>
</g>
<!-- Node7 -->
<g id="node7" class="node"><title>Node7</title>
<g id="a_node7"><a xlink:title=" ">
<polygon fill="white" stroke="#bfbfbf" points="775.5,-323.5 775.5,-342.5 814.5,-342.5 814.5,-323.5 775.5,-323.5"/>
<text text-anchor="middle" x="795" y="-330.5" font-family="Helvetica,sans-Serif" font-size="10.00">Form</text>
</a>
</g>
</g>
<!-- Node7&#45;&gt;Node6 -->
<g id="edge7" class="edge"><title>Node7&#45;&gt;Node6</title>
<path fill="none" stroke="midnightblue" d="M824.887,-335.103C860.838,-337.857 924.078,-343.151 978,-350 983.767,-350.733 989.739,-351.556 995.728,-352.427"/>
<polygon fill="midnightblue" stroke="midnightblue" points="824.882,-331.593 814.647,-334.331 824.356,-338.573 824.882,-331.593"/>
</g>
<!-- Node8 -->
<g id="node8" class="node"><title>Node8</title>
<g id="a_node8"><a xlink:href="../../d3/d68/interfaceIG_1_1Forms_1_1IClosableFromContainedForm.html" target="_top" xlink:title="Marker interface indicating that a form can be closed from the contained control.">
<polygon fill="white" stroke="black" points="731,-274 731,-304 859,-304 859,-274 731,-274"/>
<text text-anchor="start" x="739" y="-292" font-family="Helvetica,sans-Serif" font-size="10.00">IG::Forms::IClosableFrom</text>
<text text-anchor="middle" x="795" y="-281" font-family="Helvetica,sans-Serif" font-size="10.00">ContainedForm</text>
</a>
</g>
</g>
<!-- Node8&#45;&gt;Node6 -->
<g id="edge8" class="edge"><title>Node8&#45;&gt;Node6</title>
<path fill="none" stroke="midnightblue" d="M865.448,-306.567C899.467,-315.363 940.978,-326.378 978,-337 990.921,-340.707 1004.85,-344.929 1017.7,-348.915"/>
<polygon fill="midnightblue" stroke="midnightblue" points="866.161,-303.136 855.604,-304.03 864.414,-309.915 866.161,-303.136"/>
</g>
<!-- Node9 -->
<g id="node9" class="node"><title>Node9</title>
<g id="a_node9"><a xlink:title=" ">
<polygon fill="white" stroke="#bfbfbf" points="249.5,-399.5 249.5,-418.5 299.5,-418.5 299.5,-399.5 249.5,-399.5"/>
<text text-anchor="middle" x="274.5" y="-406.5" font-family="Helvetica,sans-Serif" font-size="10.00">System</text>
</a>
</g>
</g>
<!-- Node9&#45;&gt;Node1 -->
<g id="edge27" class="edge"><title>Node9&#45;&gt;Node1</title>
<path fill="none" stroke="#9a32cd" stroke-dasharray="5,2" d="M283.049,-427.786C310.002,-491.437 408.003,-695 559,-695 559,-695 559,-695 1337,-695 1388.73,-695 1534.04,-607.476 1542,-599 1593.46,-544.165 1617.88,-453.833 1625.89,-418.164"/>
<polygon fill="#9a32cd" stroke="#9a32cd" points="286.271,-426.417 279.212,-418.516 279.803,-429.094 286.271,-426.417"/>
<text text-anchor="middle" x="930.5" y="-698" font-family="Helvetica,sans-Serif" font-size="10.00"> components</text>
</g>
<!-- Node9&#45;&gt;Node5 -->
<g id="edge25" class="edge"><title>Node9&#45;&gt;Node5</title>
<path fill="none" stroke="#9a32cd" stroke-dasharray="5,2" d="M295.066,-425.065C331.36,-453.704 412.75,-512.582 493,-534 550.541,-549.357 567.734,-539.868 627,-534 663.083,-530.427 680.345,-542.582 707,-518 728.407,-498.258 703.005,-474.085 725,-455 735.181,-446.166 1108.17,-399.085 1265.8,-379.528"/>
<polygon fill="#9a32cd" stroke="#9a32cd" points="297.225,-422.31 287.23,-418.795 292.851,-427.775 297.225,-422.31"/>
<text text-anchor="middle" x="795" y="-535" font-family="Helvetica,sans-Serif" font-size="10.00"> btnManipulate</text>
<text text-anchor="middle" x="795" y="-524" font-family="Helvetica,sans-Serif" font-size="10.00">btnResetCamera</text>
<text text-anchor="middle" x="795" y="-513" font-family="Helvetica,sans-Serif" font-size="10.00">pnlControls</text>
<text text-anchor="middle" x="795" y="-502" font-family="Helvetica,sans-Serif" font-size="10.00">btnSurfaceWireframe</text>
<text text-anchor="middle" x="795" y="-491" font-family="Helvetica,sans-Serif" font-size="10.00">btnCameraActor</text>
<text text-anchor="middle" x="795" y="-480" font-family="Helvetica,sans-Serif" font-size="10.00">btnCloseWin</text>
<text text-anchor="middle" x="795" y="-469" font-family="Helvetica,sans-Serif" font-size="10.00">components</text>
<text text-anchor="middle" x="795" y="-458" font-family="Helvetica,sans-Serif" font-size="10.00">btnTrackBallJoystick</text>
</g>
<!-- Node9&#45;&gt;Node6 -->
<g id="edge10" class="edge"><title>Node9&#45;&gt;Node6</title>
<path fill="none" stroke="#9a32cd" stroke-dasharray="5,2" d="M309.67,-402.559C374.67,-390.67 520.733,-365.701 645,-357 672.488,-355.075 679.446,-356.731 707,-357 807.391,-357.981 923.595,-360.51 995.706,-362.244"/>
<polygon fill="#9a32cd" stroke="#9a32cd" points="308.786,-399.163 299.586,-404.418 310.055,-406.047 308.786,-399.163"/>
<text text-anchor="middle" x="676" y="-360" font-family="Helvetica,sans-Serif" font-size="10.00"> components</text>
</g>
<!-- Node9&#45;&gt;Node10 -->
<g id="edge17" class="edge"><title>Node9&#45;&gt;Node10</title>
<path fill="none" stroke="#9a32cd" stroke-dasharray="5,2" d="M282.048,-389.738C291.928,-362.657 312.66,-312.755 342,-278 373.924,-240.183 500.639,-155.332 544.201,-126.67"/>
<polygon fill="#9a32cd" stroke="#9a32cd" points="278.726,-388.633 278.692,-399.228 285.326,-390.967 278.726,-388.633"/>
<text text-anchor="middle" x="408.5" y="-303" font-family="Helvetica,sans-Serif" font-size="10.00"> txtReplacementNotification</text>
<text text-anchor="middle" x="408.5" y="-292" font-family="Helvetica,sans-Serif" font-size="10.00">vtkReplacementPanel</text>
<text text-anchor="middle" x="408.5" y="-281" font-family="Helvetica,sans-Serif" font-size="10.00">components</text>
</g>
<!-- Node9&#45;&gt;Node15 -->
<g id="edge22" class="edge"><title>Node9&#45;&gt;Node15</title>
<path fill="none" stroke="#9a32cd" stroke-dasharray="5,2" d="M309.873,-409C394.153,-409 612.363,-409 724.789,-409"/>
<polygon fill="#9a32cd" stroke="#9a32cd" points="309.813,-405.5 299.813,-409 309.813,-412.5 309.813,-405.5"/>
<text text-anchor="middle" x="560" y="-522" font-family="Helvetica,sans-Serif" font-size="10.00"> btnUp</text>
<text text-anchor="middle" x="560" y="-511" font-family="Helvetica,sans-Serif" font-size="10.00">lblFi</text>
<text text-anchor="middle" x="560" y="-500" font-family="Helvetica,sans-Serif" font-size="10.00">txtViewAngle</text>
<text text-anchor="middle" x="560" y="-489" font-family="Helvetica,sans-Serif" font-size="10.00">txtZoomFactor</text>
<text text-anchor="middle" x="560" y="-478" font-family="Helvetica,sans-Serif" font-size="10.00">lblZoomFactor</text>
<text text-anchor="middle" x="560" y="-467" font-family="Helvetica,sans-Serif" font-size="10.00">lblRotationStep</text>
<text text-anchor="middle" x="560" y="-456" font-family="Helvetica,sans-Serif" font-size="10.00">btnLeft</text>
<text text-anchor="middle" x="560" y="-445" font-family="Helvetica,sans-Serif" font-size="10.00">btnDownLeft</text>
<text text-anchor="middle" x="560" y="-434" font-family="Helvetica,sans-Serif" font-size="10.00">btnRollCounterClockwise</text>
<text text-anchor="middle" x="560" y="-423" font-family="Helvetica,sans-Serif" font-size="10.00">txtR</text>
<text text-anchor="middle" x="560" y="-412" font-family="Helvetica,sans-Serif" font-size="10.00">...</text>
</g>
<!-- Node10&#45;&gt;Node1 -->
<g id="edge28" class="edge"><title>Node10&#45;&gt;Node1</title>
<path fill="none" stroke="#9a32cd" stroke-dasharray="5,2" d="M612.784,-105.406C659.805,-95.8987 731.197,-84 794,-84 794,-84 794,-84 1337,-84 1433.42,-84 1473.68,-86.956 1542,-155 1609.57,-222.297 1624.8,-345.007 1628.11,-387.797"/>
<polygon fill="#9a32cd" stroke="#9a32cd" points="611.928,-102.009 602.84,-107.455 613.34,-108.865 611.928,-102.009"/>
<text text-anchor="middle" x="1066" y="-87" font-family="Helvetica,sans-Serif" font-size="10.00"> _vtkControl</text>
</g>
<!-- Node10&#45;&gt;Node5 -->
<g id="edge26" class="edge"><title>Node10&#45;&gt;Node5</title>
<path fill="none" stroke="#9a32cd" stroke-dasharray="5,2" d="M631.163,-110.674C763.627,-102.342 1054.57,-101.601 1248,-231 1294.14,-261.869 1320.31,-326.351 1330.28,-355.774"/>
<polygon fill="#9a32cd" stroke="#9a32cd" points="630.884,-107.185 621.137,-111.339 631.347,-114.17 630.884,-107.185"/>
<text text-anchor="middle" x="930.5" y="-131" font-family="Helvetica,sans-Serif" font-size="10.00"> _vtkControl</text>
</g>
<!-- Node10&#45;&gt;Node6 -->
<g id="edge11" class="edge"><title>Node10&#45;&gt;Node6</title>
<path fill="none" stroke="#9a32cd" stroke-dasharray="5,2" d="M595.206,-130.405C667.65,-159.279 841.126,-230.999 978,-308 1000.86,-320.859 1025.94,-337.265 1043.28,-348.99"/>
<polygon fill="#9a32cd" stroke="#9a32cd" points="596.254,-127.055 585.669,-126.619 593.672,-133.561 596.254,-127.055"/>
<text text-anchor="middle" x="795" y="-250" font-family="Helvetica,sans-Serif" font-size="10.00"> _vtkControl</text>
</g>
<!-- Node10&#45;&gt;Node15 -->
<g id="edge23" class="edge"><title>Node10&#45;&gt;Node15</title>
<path fill="none" stroke="#9a32cd" stroke-dasharray="5,2" d="M578.198,-133.897C608.197,-164.227 670.381,-231.011 707,-298 719.134,-320.198 710.694,-331.135 725,-352 738.971,-372.376 762.205,-389.429 777.806,-399.427"/>
<polygon fill="#9a32cd" stroke="#9a32cd" points="580.513,-131.263 570.968,-126.665 575.563,-136.212 580.513,-131.263"/>
<text text-anchor="middle" x="676" y="-301" font-family="Helvetica,sans-Serif" font-size="10.00"> _vtkControl</text>
</g>
<!-- Node11&#45;&gt;Node10 -->
<g id="edge13" class="edge"><title>Node11&#45;&gt;Node10</title>
<path fill="none" stroke="midnightblue" d="M333.951,-91.9412C373.73,-96.0364 427.561,-101.68 475,-107 482.735,-107.868 490.868,-108.804 498.902,-109.745"/>
<polygon fill="midnightblue" stroke="midnightblue" points="334.201,-88.4485 323.896,-90.9081 333.486,-95.4119 334.201,-88.4485"/>
</g>
<!-- Node12 -->
<g id="node12" class="node"><title>Node12</title>
<g id="a_node12"><a xlink:href="../../d5/def/interfaceIG_1_1Gr3d_1_1I3dGraphicsControl.html" target="_top" xlink:title="Interface for 3D graphics controls that can be manipulated via a standard set of commands for rotatio...">
<polygon fill="white" stroke="black" points="225,-38.5 225,-57.5 324,-57.5 324,-38.5 225,-38.5"/>
<text text-anchor="middle" x="274.5" y="-45.5" font-family="Helvetica,sans-Serif" font-size="10.00">I3dGraphicsControl</text>
</a>
</g>
</g>
<!-- Node12&#45;&gt;Node10 -->
<g id="edge15" class="edge"><title>Node12&#45;&gt;Node10</title>
<path fill="none" stroke="midnightblue" d="M334.104,-58.1432C374.086,-65.5264 428.091,-76.4096 475,-89 494.746,-94.2999 516.647,-101.65 533.135,-107.49"/>
<polygon fill="midnightblue" stroke="midnightblue" points="334.721,-54.698 324.254,-56.3426 333.462,-61.5839 334.721,-54.698"/>
</g>
<!-- Node13 -->
<g id="node13" class="node"><title>Node13</title>
<g id="a_node13"><a xlink:title=" ">
<polygon fill="white" stroke="#bfbfbf" points="257,-0.5 257,-19.5 292,-19.5 292,-0.5 257,-0.5"/>
<text text-anchor="middle" x="274.5" y="-7.5" font-family="Helvetica,sans-Serif" font-size="10.00">VTK</text>
</a>
</g>
</g>
<!-- Node13&#45;&gt;Node10 -->
<g id="edge16" class="edge"><title>Node13&#45;&gt;Node10</title>
<path fill="none" stroke="#9a32cd" stroke-dasharray="5,2" d="M302.327,-10.2649C341.945,-11.613 417.596,-17.8948 475,-45 507.479,-60.3361 537.329,-91.6852 551.061,-107.47"/>
<polygon fill="#9a32cd" stroke="#9a32cd" points="302.241,-6.76157 292.154,-10.0023 302.06,-13.7592 302.241,-6.76157"/>
<text text-anchor="middle" x="408.5" y="-48" font-family="Helvetica,sans-Serif" font-size="10.00"> _renderWindowControl1</text>
</g>
<!-- Node14 -->
<g id="node14" class="node"><title>Node14</title>
<g id="a_node14"><a xlink:title=" ">
<polygon fill="white" stroke="#bfbfbf" points="254,-114.5 254,-133.5 295,-133.5 295,-114.5 254,-114.5"/>
<text text-anchor="middle" x="274.5" y="-121.5" font-family="Helvetica,sans-Serif" font-size="10.00">static</text>
</a>
</g>
</g>
<!-- Node14&#45;&gt;Node10 -->
<g id="edge18" class="edge"><title>Node14&#45;&gt;Node10</title>
<path fill="none" stroke="#9a32cd" stroke-dasharray="5,2" d="M305.123,-118.032C316.59,-116.003 329.856,-113.998 342,-113 394.763,-108.666 454.973,-110.294 498.564,-112.645"/>
<polygon fill="#9a32cd" stroke="#9a32cd" points="304.377,-114.611 295.181,-119.874 305.652,-121.494 304.377,-114.611"/>
<text text-anchor="middle" x="408.5" y="-138" font-family="Helvetica,sans-Serif" font-size="10.00"> DefaultVtkTestText</text>
<text text-anchor="middle" x="408.5" y="-127" font-family="Helvetica,sans-Serif" font-size="10.00">DefaultVtkAddTestActors</text>
<text text-anchor="middle" x="408.5" y="-116" font-family="Helvetica,sans-Serif" font-size="10.00">DefaultVtkAddTestActorsIGLib</text>
</g>
<!-- Node15&#45;&gt;Node1 -->
<g id="edge29" class="edge"><title>Node15&#45;&gt;Node1</title>
<path fill="none" stroke="#9a32cd" stroke-dasharray="5,2" d="M875.304,-409.031C907.214,-409.035 944.356,-409.03 978,-409 1228.67,-408.778 1291.44,-415.416 1542,-408 1547.75,-407.83 1553.7,-407.6 1559.68,-407.332"/>
<polygon fill="#9a32cd" stroke="#9a32cd" points="875.139,-405.531 865.139,-409.029 875.138,-412.531 875.139,-405.531"/>
<text text-anchor="middle" x="1201" y="-415" font-family="Helvetica,sans-Serif" font-size="10.00"> graph3dManipulator1</text>
</g>
<!-- Node15&#45;&gt;Node6 -->
<g id="edge19" class="edge"><title>Node15&#45;&gt;Node6</title>
<path fill="none" stroke="#9a32cd" stroke-dasharray="5,2" d="M863.069,-397.78C903.467,-391.022 954.811,-382.433 995.617,-375.607"/>
<polygon fill="#9a32cd" stroke="#9a32cd" points="862.333,-394.355 853.048,-399.457 863.488,-401.259 862.333,-394.355"/>
<text text-anchor="middle" x="930.5" y="-398" font-family="Helvetica,sans-Serif" font-size="10.00"> graph3DManipulator1</text>
</g>
</g>
</svg>
