<?xml version="1.0" encoding="UTF-8" standalone="no"?>
<!DOCTYPE svg PUBLIC "-//W3C//DTD SVG 1.1//EN"
 "http://www.w3.org/Graphics/SVG/1.1/DTD/svg11.dtd">
<!-- Generated by graphviz version 2.38.0 (20140413.2041)
 -->
<!-- Title: NUnit.Framework.PlatformAttribute Pages: 1 -->
<svg width="218pt" height="207pt"
 viewBox="0.00 0.00 218.00 207.00" xmlns="http://www.w3.org/2000/svg" xmlns:xlink="http://www.w3.org/1999/xlink">
<g id="graph0" class="graph" transform="scale(1 1) rotate(0) translate(4 203)">
<title>NUnit.Framework.PlatformAttribute</title>
<polygon fill="white" stroke="none" points="-4,4 -4,-203 214,-203 214,4 -4,4"/>
<!-- Node1 -->
<g id="node1" class="node"><title>Node1</title>
<g id="a_node1"><a xlink:title="PlatformAttribute is used to mark a test fixture or an individual method as applying to a particular ...">
<polygon fill="#bfbfbf" stroke="black" points="51,-0.5 51,-30.5 182,-30.5 182,-0.5 51,-0.5"/>
<text text-anchor="start" x="59" y="-18.5" font-family="Helvetica,sans-Serif" font-size="10.00">NUnit.Framework.Platform</text>
<text text-anchor="middle" x="116.5" y="-7.5" font-family="Helvetica,sans-Serif" font-size="10.00">Attribute</text>
</a>
</g>
</g>
<!-- Node2 -->
<g id="node2" class="node"><title>Node2</title>
<g id="a_node2"><a xlink:href="../../df/d2f/classNUnit_1_1Framework_1_1IncludeExcludeAttribute.html" target="_top" xlink:title="Abstract base for Attributes that are used to include tests in the test run based on environmental se...">
<polygon fill="white" stroke="black" points="0,-67.5 0,-86.5 119,-86.5 119,-67.5 0,-67.5"/>
<text text-anchor="middle" x="59.5" y="-74.5" font-family="Helvetica,sans-Serif" font-size="10.00">IncludeExcludeAttribute</text>
</a>
</g>
</g>
<!-- Node2&#45;&gt;Node1 -->
<g id="edge1" class="edge"><title>Node2&#45;&gt;Node1</title>
<path fill="none" stroke="midnightblue" d="M74.741,-60.0906C83.5642,-50.8804 94.5691,-39.3928 103.066,-30.523"/>
<polygon fill="midnightblue" stroke="midnightblue" points="72.0571,-57.8327 67.6667,-67.4751 77.1119,-62.6751 72.0571,-57.8327"/>
</g>
<!-- Node3 -->
<g id="node3" class="node"><title>Node3</title>
<g id="a_node3"><a xlink:href="../../d3/dee/classNUnit_1_1Framework_1_1NUnitAttribute.html" target="_top" xlink:title="The abstract base class for all custom attributes defined by NUnit.">
<polygon fill="white" stroke="black" points="21,-123.5 21,-142.5 98,-142.5 98,-123.5 21,-123.5"/>
<text text-anchor="middle" x="59.5" y="-130.5" font-family="Helvetica,sans-Serif" font-size="10.00">NUnitAttribute</text>
</a>
</g>
</g>
<!-- Node3&#45;&gt;Node2 -->
<g id="edge2" class="edge"><title>Node3&#45;&gt;Node2</title>
<path fill="none" stroke="midnightblue" d="M59.5,-112.805C59.5,-103.91 59.5,-93.7798 59.5,-86.7511"/>
<polygon fill="midnightblue" stroke="midnightblue" points="56.0001,-113.083 59.5,-123.083 63.0001,-113.083 56.0001,-113.083"/>
</g>
<!-- Node4 -->
<g id="node4" class="node"><title>Node4</title>
<g id="a_node4"><a xlink:title=" ">
<polygon fill="white" stroke="#bfbfbf" points="33,-179.5 33,-198.5 86,-198.5 86,-179.5 33,-179.5"/>
<text text-anchor="middle" x="59.5" y="-186.5" font-family="Helvetica,sans-Serif" font-size="10.00">Attribute</text>
</a>
</g>
</g>
<!-- Node4&#45;&gt;Node3 -->
<g id="edge3" class="edge"><title>Node4&#45;&gt;Node3</title>
<path fill="none" stroke="midnightblue" d="M59.5,-168.805C59.5,-159.91 59.5,-149.78 59.5,-142.751"/>
<polygon fill="midnightblue" stroke="midnightblue" points="56.0001,-169.083 59.5,-179.083 63.0001,-169.083 56.0001,-169.083"/>
</g>
<!-- Node5 -->
<g id="node5" class="node"><title>Node5</title>
<g id="a_node5"><a xlink:href="../../d8/d57/interfaceNUnit_1_1Framework_1_1Interfaces_1_1IApplyToTest.html" target="_top" xlink:title="The IApplyToTest interface is implemented by self&#45;applying attributes that modify the state of a test...">
<polygon fill="white" stroke="black" points="137,-67.5 137,-86.5 210,-86.5 210,-67.5 137,-67.5"/>
<text text-anchor="middle" x="173.5" y="-74.5" font-family="Helvetica,sans-Serif" font-size="10.00">IApplyToTest</text>
</a>
</g>
</g>
<!-- Node5&#45;&gt;Node1 -->
<g id="edge4" class="edge"><title>Node5&#45;&gt;Node1</title>
<path fill="none" stroke="midnightblue" d="M158.259,-60.0906C149.436,-50.8804 138.431,-39.3928 129.934,-30.523"/>
<polygon fill="midnightblue" stroke="midnightblue" points="155.888,-62.6751 165.333,-67.4751 160.943,-57.8327 155.888,-62.6751"/>
</g>
</g>
</svg>
