<?xml version="1.0" encoding="UTF-8" standalone="no"?>
<!DOCTYPE svg PUBLIC "-//W3C//DTD SVG 1.1//EN"
 "http://www.w3.org/Graphics/SVG/1.1/DTD/svg11.dtd">
<!-- Generated by graphviz version 2.38.0 (20140413.2041)
 -->
<!-- Title: IGTest.TestWebReference.TempConvert Pages: 1 -->
<svg width="302pt" height="161pt"
 viewBox="0.00 0.00 301.50 161.00" xmlns="http://www.w3.org/2000/svg" xmlns:xlink="http://www.w3.org/1999/xlink">
<g id="graph0" class="graph" transform="scale(1 1) rotate(0) translate(4 157)">
<title>IGTest.TestWebReference.TempConvert</title>
<polygon fill="white" stroke="none" points="-4,4 -4,-157 297.5,-157 297.5,4 -4,4"/>
<!-- Node1 -->
<g id="node1" class="node"><title>Node1</title>
<g id="a_node1"><a xlink:title=" ">
<polygon fill="#bfbfbf" stroke="black" points="55.5,-0.5 55.5,-30.5 189.5,-30.5 189.5,-0.5 55.5,-0.5"/>
<text text-anchor="start" x="63.5" y="-18.5" font-family="Helvetica,sans-Serif" font-size="10.00">IGTest.TestWebReference.</text>
<text text-anchor="middle" x="122.5" y="-7.5" font-family="Helvetica,sans-Serif" font-size="10.00">TempConvert</text>
</a>
</g>
</g>
<!-- Node2 -->
<g id="node2" class="node"><title>Node2</title>
<g id="a_node2"><a xlink:title=" ">
<polygon fill="white" stroke="#bfbfbf" points="0,-111.5 0,-152.5 135,-152.5 135,-111.5 0,-111.5"/>
<text text-anchor="start" x="8" y="-140.5" font-family="Helvetica,sans-Serif" font-size="10.00">System::Web::Services</text>
<text text-anchor="start" x="8" y="-129.5" font-family="Helvetica,sans-Serif" font-size="10.00">::Protocols::SoapHttpClient</text>
<text text-anchor="middle" x="67.5" y="-118.5" font-family="Helvetica,sans-Serif" font-size="10.00">Protocol</text>
</a>
</g>
</g>
<!-- Node2&#45;&gt;Node1 -->
<g id="edge1" class="edge"><title>Node2&#45;&gt;Node1</title>
<path fill="none" stroke="midnightblue" d="M81.398,-102.067C92.3883,-79.1871 107.253,-48.2422 115.765,-30.522"/>
<polygon fill="midnightblue" stroke="midnightblue" points="78.1299,-100.787 76.9548,-111.317 84.4397,-103.818 78.1299,-100.787"/>
</g>
<!-- Node3 -->
<g id="node3" class="node"><title>Node3</title>
<g id="a_node3"><a xlink:title=" ">
<polygon fill="white" stroke="#bfbfbf" points="153.5,-122.5 153.5,-141.5 203.5,-141.5 203.5,-122.5 153.5,-122.5"/>
<text text-anchor="middle" x="178.5" y="-129.5" font-family="Helvetica,sans-Serif" font-size="10.00">System</text>
</a>
</g>
</g>
<!-- Node3&#45;&gt;Node1 -->
<g id="edge2" class="edge"><title>Node3&#45;&gt;Node1</title>
<path fill="none" stroke="#9a32cd" stroke-dasharray="5,2" d="M169.805,-113.223C158.704,-90.5247 139.714,-51.6965 129.497,-30.8061"/>
<polygon fill="#9a32cd" stroke="#9a32cd" points="166.753,-114.948 174.291,-122.394 173.041,-111.873 166.753,-114.948"/>
<text text-anchor="start" x="159.5" y="-85" font-family="Helvetica,sans-Serif" font-size="10.00"> CelsiusToFahrenheitOperation</text>
<text text-anchor="middle" x="226.5" y="-74" font-family="Helvetica,sans-Serif" font-size="10.00">Completed</text>
<text text-anchor="start" x="159.5" y="-63" font-family="Helvetica,sans-Serif" font-size="10.00">FahrenheitToCelsiusOperation</text>
<text text-anchor="middle" x="226.5" y="-52" font-family="Helvetica,sans-Serif" font-size="10.00">Completed</text>
</g>
</g>
</svg>
