<?xml version="1.0" encoding="UTF-8" standalone="no"?>
<!DOCTYPE svg PUBLIC "-//W3C//DTD SVG 1.1//EN"
 "http://www.w3.org/Graphics/SVG/1.1/DTD/svg11.dtd">
<!-- Generated by graphviz version 2.38.0 (20140413.2041)
 -->
<!-- Title: NUnit.Framework.Constraints.ConstraintBuilder Pages: 1 -->
<svg width="619pt" height="78pt"
 viewBox="0.00 0.00 619.00 77.50" xmlns="http://www.w3.org/2000/svg" xmlns:xlink="http://www.w3.org/1999/xlink">
<g id="graph0" class="graph" transform="scale(1 1) rotate(0) translate(4 73.5)">
<title>NUnit.Framework.Constraints.ConstraintBuilder</title>
<polygon fill="white" stroke="none" points="-4,4 -4,-73.5 615,-73.5 615,4 -4,4"/>
<!-- Node1 -->
<g id="node1" class="node"><title>Node1</title>
<g id="a_node1"><a xlink:title="ConstraintBuilder maintains the stacks that are used in processing a ConstraintExpression....">
<polygon fill="#bfbfbf" stroke="black" points="212,-22.5 212,-52.5 359,-52.5 359,-22.5 212,-22.5"/>
<text text-anchor="start" x="220" y="-40.5" font-family="Helvetica,sans-Serif" font-size="10.00">NUnit.Framework.Constraints.</text>
<text text-anchor="middle" x="285.5" y="-29.5" font-family="Helvetica,sans-Serif" font-size="10.00">ConstraintBuilder</text>
</a>
</g>
</g>
<!-- Node4 -->
<g id="node4" class="node"><title>Node4</title>
<g id="a_node4"><a xlink:href="../../d9/d60/classNUnit_1_1Framework_1_1Constraints_1_1ConstraintBuilder_1_1ConstraintStack.html" target="_top" xlink:title="ConstraintStack is a type&#45;safe stack for holding Constraints">
<polygon fill="white" stroke="black" points="447,-22.5 447,-52.5 611,-52.5 611,-22.5 447,-22.5"/>
<text text-anchor="start" x="455" y="-40.5" font-family="Helvetica,sans-Serif" font-size="10.00">NUnit.Framework.Constraints.</text>
<text text-anchor="middle" x="529" y="-29.5" font-family="Helvetica,sans-Serif" font-size="10.00">ConstraintBuilder.ConstraintStack</text>
</a>
</g>
</g>
<!-- Node1&#45;&gt;Node4 -->
<g id="edge4" class="edge"><title>Node1&#45;&gt;Node4</title>
<path fill="none" stroke="#9a32cd" stroke-dasharray="5,2" d="M369.489,-37.5C394.538,-37.5 421.998,-37.5 446.921,-37.5"/>
<polygon fill="#9a32cd" stroke="#9a32cd" points="369.285,-34.0001 359.285,-37.5 369.285,-41.0001 369.285,-34.0001"/>
<text text-anchor="middle" x="403" y="-40.5" font-family="Helvetica,sans-Serif" font-size="10.00"> builder</text>
</g>
<!-- Node2 -->
<g id="node2" class="node"><title>Node2</title>
<g id="a_node2"><a xlink:href="../../d7/d29/interfaceNUnit_1_1Framework_1_1Constraints_1_1IResolveConstraint.html" target="_top" xlink:title="The IResolveConstraint interface is implemented by all complete and resolvable constraints and expres...">
<polygon fill="white" stroke="black" points="30,-50 30,-69 127,-69 127,-50 30,-50"/>
<text text-anchor="middle" x="78.5" y="-57" font-family="Helvetica,sans-Serif" font-size="10.00">IResolveConstraint</text>
</a>
</g>
</g>
<!-- Node2&#45;&gt;Node1 -->
<g id="edge1" class="edge"><title>Node2&#45;&gt;Node1</title>
<path fill="none" stroke="midnightblue" d="M137.082,-53.3205C160.301,-50.8286 187.354,-47.9254 211.9,-45.2912"/>
<polygon fill="midnightblue" stroke="midnightblue" points="136.616,-49.8503 127.046,-54.3975 137.363,-56.8103 136.616,-49.8503"/>
</g>
<!-- Node3 -->
<g id="node3" class="node"><title>Node3</title>
<g id="a_node3"><a xlink:href="../../d1/d3e/classNUnit_1_1Framework_1_1Constraints_1_1ConstraintBuilder_1_1OperatorStack.html" target="_top" xlink:title="OperatorStack is a type&#45;safe stack for holding ConstraintOperators">
<polygon fill="white" stroke="black" points="0,-0.5 0,-30.5 157,-30.5 157,-0.5 0,-0.5"/>
<text text-anchor="start" x="8" y="-18.5" font-family="Helvetica,sans-Serif" font-size="10.00">NUnit.Framework.Constraints.</text>
<text text-anchor="middle" x="78.5" y="-7.5" font-family="Helvetica,sans-Serif" font-size="10.00">ConstraintBuilder.OperatorStack</text>
</a>
</g>
</g>
<!-- Node3&#45;&gt;Node1 -->
<g id="edge2" class="edge"><title>Node3&#45;&gt;Node1</title>
<path fill="none" stroke="#9a32cd" stroke-dasharray="5,2" d="M167.242,-24.9163C182.156,-26.5167 197.495,-28.1629 211.961,-29.7153"/>
<polygon fill="#9a32cd" stroke="#9a32cd" points="167.318,-21.4044 157.002,-23.8173 166.571,-28.3644 167.318,-21.4044"/>
<text text-anchor="middle" x="184.5" y="-30.5" font-family="Helvetica,sans-Serif" font-size="10.00"> ops</text>
</g>
<!-- Node4&#45;&gt;Node1 -->
<g id="edge3" class="edge"><title>Node4&#45;&gt;Node1</title>
<path fill="none" stroke="#9a32cd" stroke-dasharray="5,2" d="M436.718,-22.1958C434.12,-21.9375 431.544,-21.7042 429,-21.5 405.963,-19.6504 400.023,-19.4805 377,-21.5 371.278,-22.0019 365.376,-22.6791 359.457,-23.4723"/>
<polygon fill="#9a32cd" stroke="#9a32cd" points="436.494,-25.6923 446.818,-23.3081 437.261,-18.7343 436.494,-25.6923"/>
<text text-anchor="middle" x="403" y="-24.5" font-family="Helvetica,sans-Serif" font-size="10.00"> constraints</text>
</g>
</g>
</svg>
