<?xml version="1.0" encoding="UTF-8" standalone="no"?>
<!DOCTYPE svg PUBLIC "-//W3C//DTD SVG 1.1//EN"
 "http://www.w3.org/Graphics/SVG/1.1/DTD/svg11.dtd">
<!-- Generated by graphviz version 2.38.0 (20140413.2041)
 -->
<!-- Title: NUnit.Engine.Services.DefaultTestRunnerFactory Pages: 1 -->
<svg width="651pt" height="147pt"
 viewBox="0.00 0.00 651.00 146.50" xmlns="http://www.w3.org/2000/svg" xmlns:xlink="http://www.w3.org/1999/xlink">
<g id="graph0" class="graph" transform="scale(1 1) rotate(0) translate(4 142.5)">
<title>NUnit.Engine.Services.DefaultTestRunnerFactory</title>
<polygon fill="white" stroke="none" points="-4,4 -4,-142.5 647,-142.5 647,4 -4,4"/>
<!-- Node1 -->
<g id="node1" class="node"><title>Node1</title>
<g id="a_node1"><a xlink:title="DefaultTestRunnerFactory handles creation of a suitable test runner for a given package to be loaded ...">
<polygon fill="#bfbfbf" stroke="black" points="497,-44.5 497,-74.5 643,-74.5 643,-44.5 497,-44.5"/>
<text text-anchor="start" x="505" y="-62.5" font-family="Helvetica,sans-Serif" font-size="10.00">NUnit.Engine.Services.Default</text>
<text text-anchor="middle" x="570" y="-51.5" font-family="Helvetica,sans-Serif" font-size="10.00">TestRunnerFactory</text>
</a>
</g>
</g>
<!-- Node2 -->
<g id="node2" class="node"><title>Node2</title>
<g id="a_node2"><a xlink:href="../../db/df5/classNUnit_1_1Engine_1_1Services_1_1InProcessTestRunnerFactory.html" target="_top" xlink:title="InProcessTestRunnerFactory handles creation of a suitable test runner for a given package to be loade...">
<polygon fill="white" stroke="black" points="245,-88 245,-107 388,-107 388,-88 245,-88"/>
<text text-anchor="middle" x="316.5" y="-95" font-family="Helvetica,sans-Serif" font-size="10.00">InProcessTestRunnerFactory</text>
</a>
</g>
</g>
<!-- Node2&#45;&gt;Node1 -->
<g id="edge1" class="edge"><title>Node2&#45;&gt;Node1</title>
<path fill="none" stroke="midnightblue" d="M392.583,-86.4504C419.807,-82.4153 450.796,-77.7892 479,-73.5 484.784,-72.6203 490.777,-71.7025 496.796,-70.7759"/>
<polygon fill="midnightblue" stroke="midnightblue" points="391.726,-83.039 382.346,-87.9661 392.751,-89.9635 391.726,-83.039"/>
</g>
<!-- Node3 -->
<g id="node3" class="node"><title>Node3</title>
<g id="a_node3"><a xlink:href="../../df/d6e/classNUnit_1_1Engine_1_1Services_1_1Service.html" target="_top" xlink:title="Abstract base class for services that can use it. Some Services already inherit from a different clas...">
<polygon fill="white" stroke="black" points="130.5,-100 130.5,-119 178.5,-119 178.5,-100 130.5,-100"/>
<text text-anchor="middle" x="154.5" y="-107" font-family="Helvetica,sans-Serif" font-size="10.00">Service</text>
</a>
</g>
</g>
<!-- Node3&#45;&gt;Node2 -->
<g id="edge2" class="edge"><title>Node3&#45;&gt;Node2</title>
<path fill="none" stroke="midnightblue" d="M188.823,-107.001C205.069,-105.782 225.264,-104.268 244.722,-102.808"/>
<polygon fill="midnightblue" stroke="midnightblue" points="188.476,-103.517 178.765,-107.755 188.999,-110.497 188.476,-103.517"/>
</g>
<!-- Node4 -->
<g id="node4" class="node"><title>Node4</title>
<g id="a_node4"><a xlink:href="../../df/da1/interfaceNUnit_1_1Engine_1_1IService.html" target="_top" xlink:title="The IService interface is implemented by all Services. Although it is extensible, it does not reside ...">
<polygon fill="white" stroke="black" points="8.5,-119 8.5,-138 58.5,-138 58.5,-119 8.5,-119"/>
<text text-anchor="middle" x="33.5" y="-126" font-family="Helvetica,sans-Serif" font-size="10.00">IService</text>
</a>
</g>
</g>
<!-- Node4&#45;&gt;Node3 -->
<g id="edge3" class="edge"><title>Node4&#45;&gt;Node3</title>
<path fill="none" stroke="midnightblue" d="M68.7149,-123.037C88.4512,-119.886 112.747,-116.007 130.264,-113.21"/>
<polygon fill="midnightblue" stroke="midnightblue" points="67.9045,-119.622 58.5814,-124.655 69.0082,-126.535 67.9045,-119.622"/>
</g>
<!-- Node5 -->
<g id="node5" class="node"><title>Node5</title>
<g id="a_node5"><a xlink:title=" ">
<polygon fill="white" stroke="#bfbfbf" points="0,-81 0,-100 67,-100 67,-81 0,-81"/>
<text text-anchor="middle" x="33.5" y="-88" font-family="Helvetica,sans-Serif" font-size="10.00">IDisposable</text>
</a>
</g>
</g>
<!-- Node5&#45;&gt;Node3 -->
<g id="edge4" class="edge"><title>Node5&#45;&gt;Node3</title>
<path fill="none" stroke="midnightblue" d="M77.0215,-97.2891C95.03,-100.164 115.303,-103.401 130.45,-105.82"/>
<polygon fill="midnightblue" stroke="midnightblue" points="77.4441,-93.8124 67.0173,-95.6918 76.3403,-100.725 77.4441,-93.8124"/>
</g>
<!-- Node6 -->
<g id="node6" class="node"><title>Node6</title>
<g id="a_node6"><a xlink:href="../../d5/d16/interfaceNUnit_1_1Engine_1_1ITestRunnerFactory.html" target="_top" xlink:title="A Test Runner factory can supply a suitable test runner for a given package">
<polygon fill="white" stroke="black" points="104,-56 104,-75 205,-75 205,-56 104,-56"/>
<text text-anchor="middle" x="154.5" y="-63" font-family="Helvetica,sans-Serif" font-size="10.00">ITestRunnerFactory</text>
</a>
</g>
</g>
<!-- Node6&#45;&gt;Node1 -->
<g id="edge6" class="edge"><title>Node6&#45;&gt;Node1</title>
<path fill="none" stroke="midnightblue" d="M215.531,-64.6289C290.024,-63.548 416.946,-61.7064 496.711,-60.5489"/>
<polygon fill="midnightblue" stroke="midnightblue" points="215.326,-61.1314 205.378,-64.7763 215.428,-68.1307 215.326,-61.1314"/>
</g>
<!-- Node6&#45;&gt;Node2 -->
<g id="edge5" class="edge"><title>Node6&#45;&gt;Node2</title>
<path fill="none" stroke="midnightblue" d="M212.881,-76.9763C230.893,-80.5786 250.572,-84.5143 267.835,-87.967"/>
<polygon fill="midnightblue" stroke="midnightblue" points="213.564,-73.5436 203.072,-75.0144 212.191,-80.4077 213.564,-73.5436"/>
</g>
<!-- Node7 -->
<g id="node7" class="node"><title>Node7</title>
<g id="a_node7"><a xlink:href="../../dc/d14/interfaceNUnit_1_1Engine_1_1Services_1_1IProjectService.html" target="_top" xlink:title="The IProjectService interface is implemented by ProjectService. It knows how to load projects in a sp...">
<polygon fill="white" stroke="black" points="242,-0.5 242,-30.5 391,-30.5 391,-0.5 242,-0.5"/>
<text text-anchor="start" x="250" y="-18.5" font-family="Helvetica,sans-Serif" font-size="10.00">NUnit.Engine.Services.IProject</text>
<text text-anchor="middle" x="316.5" y="-7.5" font-family="Helvetica,sans-Serif" font-size="10.00">Service</text>
</a>
</g>
</g>
<!-- Node7&#45;&gt;Node1 -->
<g id="edge7" class="edge"><title>Node7&#45;&gt;Node1</title>
<path fill="none" stroke="#9a32cd" stroke-dasharray="5,2" d="M401.264,-22.8761C426.385,-25.7537 453.922,-29.5722 479,-34.5 492.525,-37.1578 506.991,-40.8067 520.282,-44.4956"/>
<polygon fill="#9a32cd" stroke="#9a32cd" points="401.356,-19.3649 391.031,-21.7398 400.584,-26.3221 401.356,-19.3649"/>
<text text-anchor="middle" x="444" y="-37.5" font-family="Helvetica,sans-Serif" font-size="10.00"> _projectService</text>
</g>
</g>
</svg>
