<?xml version="1.0" encoding="UTF-8" standalone="no"?>
<!DOCTYPE svg PUBLIC "-//W3C//DTD SVG 1.1//EN"
 "http://www.w3.org/Graphics/SVG/1.1/DTD/svg11.dtd">
<!-- Generated by graphviz version 2.38.0 (20140413.2041)
 -->
<!-- Title: IG.Num.OptUnconstrained.ExampleRosenbrockGeneralizedExhaustive Pages: 1 -->
<svg width="1056pt" height="367pt"
 viewBox="0.00 0.00 1056.00 366.50" xmlns="http://www.w3.org/2000/svg" xmlns:xlink="http://www.w3.org/1999/xlink">
<g id="graph0" class="graph" transform="scale(1 1) rotate(0) translate(4 362.5)">
<title>IG.Num.OptUnconstrained.ExampleRosenbrockGeneralizedExhaustive</title>
<polygon fill="white" stroke="none" points="-4,4 -4,-362.5 1052,-362.5 1052,4 -4,4"/>
<!-- Node1 -->
<g id="node1" class="node"><title>Node1</title>
<g id="a_node1"><a xlink:title="The generalized Rosenbrock&#39;s unconstrained optimization problem in arbitrary dimensions Dim &gt;= 2.">
<polygon fill="#bfbfbf" stroke="black" points="890,-290 890,-331 1048,-331 1048,-290 890,-290"/>
<text text-anchor="start" x="898" y="-319" font-family="Helvetica,sans-Serif" font-size="10.00">IG.Num.OptUnconstrained.</text>
<text text-anchor="start" x="898" y="-308" font-family="Helvetica,sans-Serif" font-size="10.00">ExampleRosenbrockGeneralized</text>
<text text-anchor="middle" x="969" y="-297" font-family="Helvetica,sans-Serif" font-size="10.00">Exhaustive</text>
</a>
</g>
</g>
<!-- Node2 -->
<g id="node2" class="node"><title>Node2</title>
<g id="a_node2"><a xlink:href="../../d4/d0a/classIG_1_1Num_1_1OptUnconstrained_1_1ExampleRosenbrockGeneralizedAdjacent.html" target="_top" xlink:title="The generalized Rosenbrock&#39;s unconstrained optimization problem in arbitrary dimensions Dim &gt;= 2.">
<polygon fill="white" stroke="black" points="695,-219.5 695,-249.5 853,-249.5 853,-219.5 695,-219.5"/>
<text text-anchor="start" x="703" y="-237.5" font-family="Helvetica,sans-Serif" font-size="10.00">ExampleRosenbrockGeneralized</text>
<text text-anchor="middle" x="774" y="-226.5" font-family="Helvetica,sans-Serif" font-size="10.00">Adjacent</text>
</a>
</g>
</g>
<!-- Node2&#45;&gt;Node1 -->
<g id="edge1" class="edge"><title>Node2&#45;&gt;Node1</title>
<path fill="none" stroke="midnightblue" d="M822.772,-253.312C850.986,-264.422 886.733,-278.499 915.702,-289.906"/>
<polygon fill="midnightblue" stroke="midnightblue" points="823.718,-249.923 813.131,-249.515 821.153,-256.436 823.718,-249.923"/>
</g>
<!-- Node3 -->
<g id="node3" class="node"><title>Node3</title>
<g id="a_node3"><a xlink:href="../../dd/d1e/classIG_1_1Num_1_1AnalysisBase.html" target="_top" xlink:title="Base class for direct analysis classes that define optimization problems. Represent the complete defi...">
<polygon fill="white" stroke="black" points="466.5,-263 466.5,-282 543.5,-282 543.5,-263 466.5,-263"/>
<text text-anchor="middle" x="505" y="-270" font-family="Helvetica,sans-Serif" font-size="10.00">AnalysisBase</text>
</a>
</g>
</g>
<!-- Node3&#45;&gt;Node2 -->
<g id="edge2" class="edge"><title>Node3&#45;&gt;Node2</title>
<path fill="none" stroke="midnightblue" d="M553.759,-265.703C592.92,-260.129 649.146,-252.127 694.853,-245.622"/>
<polygon fill="midnightblue" stroke="midnightblue" points="553.095,-262.262 543.688,-267.136 554.082,-269.192 553.095,-262.262"/>
</g>
<!-- Node4 -->
<g id="node4" class="node"><title>Node4</title>
<g id="a_node4"><a xlink:href="../../d5/d59/interfaceIG_1_1Num_1_1IAnalysis.html" target="_top" xlink:title="Interface for direct analysis classes used in optimization problems.">
<polygon fill="white" stroke="black" points="239.5,-339 239.5,-358 295.5,-358 295.5,-339 239.5,-339"/>
<text text-anchor="middle" x="267.5" y="-346" font-family="Helvetica,sans-Serif" font-size="10.00">IAnalysis</text>
</a>
</g>
</g>
<!-- Node4&#45;&gt;Node1 -->
<g id="edge17" class="edge"><title>Node4&#45;&gt;Node1</title>
<path fill="none" stroke="midnightblue" d="M305.638,-347.333C335.679,-346.369 379.068,-344.931 417,-343.5 619.255,-335.872 670.481,-343.351 872,-324.5 877.786,-323.959 883.755,-323.309 889.754,-322.59"/>
<polygon fill="midnightblue" stroke="midnightblue" points="305.483,-343.836 295.6,-347.653 305.707,-350.832 305.483,-343.836"/>
</g>
<!-- Node4&#45;&gt;Node2 -->
<g id="edge5" class="edge"><title>Node4&#45;&gt;Node2</title>
<path fill="none" stroke="midnightblue" d="M305.651,-343.457C378.041,-333.142 542.661,-307.287 677,-268.5 695.856,-263.056 716.408,-255.941 733.641,-249.627"/>
<polygon fill="midnightblue" stroke="midnightblue" points="305.068,-340.004 295.654,-344.866 306.044,-346.936 305.068,-340.004"/>
</g>
<!-- Node4&#45;&gt;Node3 -->
<g id="edge3" class="edge"><title>Node4&#45;&gt;Node3</title>
<path fill="none" stroke="midnightblue" d="M305.219,-336.65C351.844,-321.603 431.381,-295.936 474.353,-282.068"/>
<polygon fill="midnightblue" stroke="midnightblue" points="303.957,-333.38 295.515,-339.782 306.107,-340.041 303.957,-333.38"/>
</g>
<!-- Node5 -->
<g id="node5" class="node"><title>Node5</title>
<g id="a_node5"><a xlink:href="../../d3/db6/interfaceIG_1_1Lib_1_1ILockable.html" target="_top" xlink:title="Lockable object, has a Lock property that returns object on which lock must be performed in order to ...">
<polygon fill="white" stroke="black" points="238.5,-263 238.5,-282 296.5,-282 296.5,-263 238.5,-263"/>
<text text-anchor="middle" x="267.5" y="-270" font-family="Helvetica,sans-Serif" font-size="10.00">ILockable</text>
</a>
</g>
</g>
<!-- Node5&#45;&gt;Node1 -->
<g id="edge18" class="edge"><title>Node5&#45;&gt;Node1</title>
<path fill="none" stroke="midnightblue" d="M307.04,-277.85C340.73,-282.298 391.006,-288.387 435,-291.5 596.403,-302.922 785.813,-307.604 889.786,-309.425"/>
<polygon fill="midnightblue" stroke="midnightblue" points="307.089,-274.325 296.713,-276.469 306.161,-281.263 307.089,-274.325"/>
</g>
<!-- Node5&#45;&gt;Node2 -->
<g id="edge6" class="edge"><title>Node5&#45;&gt;Node2</title>
<path fill="none" stroke="midnightblue" d="M307.064,-267.463C340.77,-263.213 391.054,-257.239 435,-253.5 523.867,-245.938 626.145,-240.665 694.708,-237.624"/>
<polygon fill="midnightblue" stroke="midnightblue" points="306.211,-264.043 296.732,-268.777 307.094,-270.987 306.211,-264.043"/>
</g>
<!-- Node5&#45;&gt;Node3 -->
<g id="edge4" class="edge"><title>Node5&#45;&gt;Node3</title>
<path fill="none" stroke="midnightblue" d="M306.92,-272.5C350.886,-272.5 422.434,-272.5 466.157,-272.5"/>
<polygon fill="midnightblue" stroke="midnightblue" points="306.907,-269 296.907,-272.5 306.907,-276 306.907,-269"/>
</g>
<!-- Node6 -->
<g id="node6" class="node"><title>Node6</title>
<g id="a_node6"><a xlink:href="../../d8/d86/interfaceIG_1_1Num_1_1IMatrix.html" target="_top" xlink:title="Generic Matrix interface.">
<polygon fill="white" stroke="black" points="197.5,-0.5 197.5,-30.5 337.5,-30.5 337.5,-0.5 197.5,-0.5"/>
<text text-anchor="start" x="205.5" y="-18.5" font-family="Helvetica,sans-Serif" font-size="10.00">IG.Num.IMatrix&lt; Component</text>
<text text-anchor="middle" x="267.5" y="-7.5" font-family="Helvetica,sans-Serif" font-size="10.00">Type &gt;</text>
</a>
</g>
</g>
<!-- Node6&#45;&gt;Node2 -->
<g id="edge7" class="edge"><title>Node6&#45;&gt;Node2</title>
<path fill="none" stroke="#9a32cd" stroke-dasharray="5,2" d="M347.967,-22.3366C435.932,-33.3644 578.303,-61.8217 677,-134.5 711.495,-159.901 744.432,-198.325 761.301,-219.381"/>
<polygon fill="#9a32cd" stroke="#9a32cd" points="348.128,-18.8307 337.78,-21.107 347.289,-25.7802 348.128,-18.8307"/>
<text text-anchor="middle" x="505" y="-80.5" font-family="Helvetica,sans-Serif" font-size="10.00"> _hess</text>
</g>
<!-- Node8 -->
<g id="node8" class="node"><title>Node8</title>
<g id="a_node8"><a xlink:href="../../d2/d85/classIG_1_1Num_1_1ScalarFunctionBase.html" target="_top" xlink:title="Base class for scalar functions with affine transformation of co&#45;ordinates. The reference function is...">
<polygon fill="white" stroke="black" points="435,-104 435,-123 575,-123 575,-104 435,-104"/>
<text text-anchor="middle" x="505" y="-111" font-family="Helvetica,sans-Serif" font-size="10.00">IG.Num.ScalarFunctionBase</text>
</a>
</g>
</g>
<!-- Node6&#45;&gt;Node8 -->
<g id="edge14" class="edge"><title>Node6&#45;&gt;Node8</title>
<path fill="none" stroke="#9a32cd" stroke-dasharray="5,2" d="M320.885,-33.9609C349.527,-44.3776 385.49,-57.9849 417,-71.5 440.892,-81.7477 467.746,-94.983 485.216,-103.831"/>
<polygon fill="#9a32cd" stroke="#9a32cd" points="322.063,-30.6652 311.469,-30.5553 319.682,-37.2479 322.063,-30.6652"/>
<text text-anchor="middle" x="393" y="-74.5" font-family="Helvetica,sans-Serif" font-size="10.00"> _refHess</text>
</g>
<!-- Node7 -->
<g id="node7" class="node"><title>Node7</title>
<g id="a_node7"><a xlink:href="../../d3/d24/interfaceIG_1_1Num_1_1IVector.html" target="_top" xlink:title="Generic Vector interface">
<polygon fill="white" stroke="black" points="214,-177 214,-196 321,-196 321,-177 214,-177"/>
<text text-anchor="middle" x="267.5" y="-184" font-family="Helvetica,sans-Serif" font-size="10.00">IG.Num.IVector&lt; T &gt;</text>
</a>
</g>
</g>
<!-- Node7&#45;&gt;Node2 -->
<g id="edge8" class="edge"><title>Node7&#45;&gt;Node2</title>
<path fill="none" stroke="#9a32cd" stroke-dasharray="5,2" d="M331.057,-192.452C422.981,-201.198 594.464,-217.513 694.649,-227.045"/>
<polygon fill="#9a32cd" stroke="#9a32cd" points="331.349,-188.964 321.063,-191.501 330.686,-195.933 331.349,-188.964"/>
<text text-anchor="middle" x="505" y="-218.5" font-family="Helvetica,sans-Serif" font-size="10.00"> _grad</text>
</g>
<!-- Node7&#45;&gt;Node8 -->
<g id="edge15" class="edge"><title>Node7&#45;&gt;Node8</title>
<path fill="none" stroke="#9a32cd" stroke-dasharray="5,2" d="M312.077,-174.06C324.658,-170.404 338.393,-166.352 351,-162.5 394.346,-149.257 444.311,-133.083 475.026,-123.035"/>
<polygon fill="#9a32cd" stroke="#9a32cd" points="310.911,-170.754 302.278,-176.895 312.857,-177.478 310.911,-170.754"/>
<text text-anchor="middle" x="393" y="-170.5" font-family="Helvetica,sans-Serif" font-size="10.00"> _refParam</text>
<text text-anchor="middle" x="393" y="-159.5" font-family="Helvetica,sans-Serif" font-size="10.00">_refGrad</text>
</g>
<!-- Node8&#45;&gt;Node2 -->
<g id="edge9" class="edge"><title>Node8&#45;&gt;Node2</title>
<path fill="none" stroke="#9a32cd" stroke-dasharray="5,2" d="M554.13,-125.826C589.155,-135.677 637.214,-151.041 677,-170.5 705.251,-184.317 734.957,-205.258 753.708,-219.388"/>
<polygon fill="#9a32cd" stroke="#9a32cd" points="554.73,-122.361 544.159,-123.072 552.866,-129.108 554.73,-122.361"/>
<text text-anchor="middle" x="635" y="-173.5" font-family="Helvetica,sans-Serif" font-size="10.00"> _objectiveFunction</text>
</g>
<!-- Node9 -->
<g id="node9" class="node"><title>Node9</title>
<g id="a_node9"><a xlink:href="../../d2/d9e/classIG_1_1Num_1_1ScalarFunctionUntransformedBase.html" target="_top" xlink:title="Base class for defining scalar functions without possibility of affine transformation of parameters.">
<polygon fill="white" stroke="black" points="184,-134 184,-153 351,-153 351,-134 184,-134"/>
<text text-anchor="middle" x="267.5" y="-141" font-family="Helvetica,sans-Serif" font-size="10.00">ScalarFunctionUntransformedBase</text>
</a>
</g>
</g>
<!-- Node9&#45;&gt;Node8 -->
<g id="edge10" class="edge"><title>Node9&#45;&gt;Node8</title>
<path fill="none" stroke="midnightblue" d="M353.461,-132.677C380.224,-129.268 409.443,-125.546 434.957,-122.295"/>
<polygon fill="midnightblue" stroke="midnightblue" points="352.815,-129.231 343.337,-133.967 353.699,-136.175 352.815,-129.231"/>
</g>
<!-- Node10 -->
<g id="node10" class="node"><title>Node10</title>
<g id="a_node10"><a xlink:href="../../d8/d56/interfaceIG_1_1Num_1_1IScalarFunctionUntransformed.html" target="_top" xlink:title="Scalar functions of vector arguments.">
<polygon fill="white" stroke="black" points="0,-116 0,-135 147,-135 147,-116 0,-116"/>
<text text-anchor="middle" x="73.5" y="-123" font-family="Helvetica,sans-Serif" font-size="10.00">IScalarFunctionUntransformed</text>
</a>
</g>
</g>
<!-- Node10&#45;&gt;Node9 -->
<g id="edge11" class="edge"><title>Node10&#45;&gt;Node9</title>
<path fill="none" stroke="midnightblue" d="M157.317,-133.264C166.106,-134.088 175.045,-134.926 183.832,-135.75"/>
<polygon fill="midnightblue" stroke="midnightblue" points="157.37,-129.754 147.087,-132.305 156.717,-136.723 157.37,-129.754"/>
</g>
<!-- Node11 -->
<g id="node11" class="node"><title>Node11</title>
<g id="a_node11"><a xlink:href="../../dd/d1e/interfaceIG_1_1Num_1_1IScalarFunction.html" target="_top" xlink:title="Scalar functions of vector arguments, with eventual affine transformation of parameters....">
<polygon fill="white" stroke="black" points="225.5,-96 225.5,-115 309.5,-115 309.5,-96 225.5,-96"/>
<text text-anchor="middle" x="267.5" y="-103" font-family="Helvetica,sans-Serif" font-size="10.00">IScalarFunction</text>
</a>
</g>
</g>
<!-- Node10&#45;&gt;Node11 -->
<g id="edge13" class="edge"><title>Node10&#45;&gt;Node11</title>
<path fill="none" stroke="midnightblue" d="M157.104,-116.895C180.674,-114.44 205.343,-111.871 225.276,-109.794"/>
<polygon fill="midnightblue" stroke="midnightblue" points="156.67,-113.422 147.087,-117.939 157.396,-120.384 156.67,-113.422"/>
</g>
<!-- Node11&#45;&gt;Node8 -->
<g id="edge12" class="edge"><title>Node11&#45;&gt;Node8</title>
<path fill="none" stroke="midnightblue" d="M319.622,-107.237C353.362,-108.383 397.981,-109.898 434.874,-111.152"/>
<polygon fill="midnightblue" stroke="midnightblue" points="319.634,-103.735 309.521,-106.893 319.396,-110.731 319.634,-103.735"/>
</g>
<!-- Node12 -->
<g id="node12" class="node"><title>Node12</title>
<g id="a_node12"><a xlink:href="../../d5/d50/interfaceIG_1_1Num_1_1IAffineTransformation.html" target="_top" xlink:title="Affine Transformation.">
<polygon fill="white" stroke="black" points="196,-58 196,-77 339,-77 339,-58 196,-58"/>
<text text-anchor="middle" x="267.5" y="-65" font-family="Helvetica,sans-Serif" font-size="10.00">IG.Num.IAffineTransformation</text>
</a>
</g>
</g>
<!-- Node12&#45;&gt;Node8 -->
<g id="edge16" class="edge"><title>Node12&#45;&gt;Node8</title>
<path fill="none" stroke="#9a32cd" stroke-dasharray="5,2" d="M333.697,-78.8427C359.658,-83.4926 389.78,-89.0548 417,-94.5 431.553,-97.4113 447.426,-100.811 461.582,-103.923"/>
<polygon fill="#9a32cd" stroke="#9a32cd" points="334.055,-75.3513 323.595,-77.0417 332.826,-82.2427 334.055,-75.3513"/>
<text text-anchor="middle" x="393" y="-97.5" font-family="Helvetica,sans-Serif" font-size="10.00"> _transf</text>
</g>
</g>
</svg>
