<?xml version="1.0" encoding="UTF-8" standalone="no"?>
<!DOCTYPE svg PUBLIC "-//W3C//DTD SVG 1.1//EN"
 "http://www.w3.org/Graphics/SVG/1.1/DTD/svg11.dtd">
<!-- Generated by graphviz version 2.38.0 (20140413.2041)
 -->
<!-- Title: IG.Gr3d.VtkPlotter Pages: 1 -->
<!--zoomable 548 -->
<svg id="main" version="1.1" xmlns="http://www.w3.org/2000/svg" xmlns:xlink="http://www.w3.org/1999/xlink" xml:space="preserve" onload="init(evt)">
<style type="text/css"><![CDATA[
.edge:hover path { stroke: red; }
.edge:hover polygon { stroke: red; fill: red; }
]]></style>
<script type="text/javascript"><![CDATA[
var edges = document.getElementsByTagName('g');
if (edges && edges.length) {
  for (var i=0;i<edges.length;i++) {
    if (edges[i].id.substr(0,4)=='edge') {
      edges[i].setAttribute('class','edge');
    }
  }
}
]]></script>
        <defs>
                <circle id="rim" cx="0" cy="0" r="7"/>
                <circle id="rim2" cx="0" cy="0" r="3.5"/>
                <g id="zoomPlus">
                        <use xlink:href="#rim" fill="#404040">
                                <set attributeName="fill" to="#808080" begin="zoomplus.mouseover" end="zoomplus.mouseout"/>
                        </use>
                        <path d="M-4,0h8M0,-4v8" fill="none" stroke="white" stroke-width="1.5" pointer-events="none"/>
                </g>
                <g id="zoomMin">
                        <use xlink:href="#rim" fill="#404040">
                                <set attributeName="fill" to="#808080" begin="zoomminus.mouseover" end="zoomminus.mouseout"/>
                        </use>
                        <path d="M-4,0h8" fill="none" stroke="white" stroke-width="1.5" pointer-events="none"/>
                </g>
                <g id="dirArrow">
                        <path fill="none" stroke="white" stroke-width="1.5" d="M0,-3.0v7 M-2.5,-0.5L0,-3.0L2.5,-0.5"/>
                </g>
               <g id="resetDef">
                       <use xlink:href="#rim2" fill="#404040">
                               <set attributeName="fill" to="#808080" begin="reset.mouseover" end="reset.mouseout"/>
                       </use>
               </g>
        </defs>

<script type="text/javascript">
var viewWidth = 1233;
var viewHeight = 548;
var sectionId = 'dynsection-1';
</script>
<script xlink:href="../../svgpan.js"/>
<svg id="graph" class="graph">
<g id="viewport">
<title>IG.Gr3d.VtkPlotter</title>
<polygon fill="white" stroke="none" points="-4,4 -4,-544 1229,-544 1229,4 -4,4"/>
<!-- Node1 -->
<g id="node1" class="node"><title>Node1</title>
<g id="a_node1"><a xlink:title="Plotter class that uses a vtkRenderWindow object for plotting 3D graphics.">
<polygon fill="#bfbfbf" stroke="black" points="827,-279.5 827,-298.5 924,-298.5 924,-279.5 827,-279.5"/>
<text text-anchor="middle" x="875.5" y="-286.5" font-family="Helvetica,sans-Serif" font-size="10.00">IG.Gr3d.VtkPlotter</text>
</a>
</g>
</g>
<!-- Node7 -->
<g id="node7" class="node"><title>Node7</title>
<g id="a_node7"><a xlink:href="../../d1/d9a/classIG_1_1Gr3d_1_1VtkDecorationHandler.html" target="_top" xlink:title="Manipulates axes, labels, grids, and other decorations of graphhics plotted in VTK windows.">
<polygon fill="white" stroke="black" points="1077,-245.5 1077,-264.5 1225,-264.5 1225,-245.5 1077,-245.5"/>
<text text-anchor="middle" x="1151" y="-252.5" font-family="Helvetica,sans-Serif" font-size="10.00">IG.Gr3d.VtkDecorationHandler</text>
</a>
</g>
</g>
<!-- Node1&#45;&gt;Node7 -->
<g id="edge13" class="edge"><title>Node1&#45;&gt;Node7</title>
<path fill="none" stroke="#9a32cd" stroke-dasharray="5,2" d="M934.451,-282.181C970.336,-277.917 1017.36,-272.255 1059,-267 1065.32,-266.202 1071.89,-265.36 1078.48,-264.508"/>
<polygon fill="#9a32cd" stroke="#9a32cd" points="933.684,-278.748 924.166,-283.401 934.509,-285.699 933.684,-278.748"/>
<text text-anchor="middle" x="1004.5" y="-295" font-family="Helvetica,sans-Serif" font-size="10.00"> _plotter</text>
<text text-anchor="middle" x="1004.5" y="-284" font-family="Helvetica,sans-Serif" font-size="10.00">_plotterAccessor</text>
</g>
<!-- Node2 -->
<g id="node2" class="node"><title>Node2</title>
<g id="a_node2"><a xlink:href="../../d3/db6/interfaceIG_1_1Lib_1_1ILockable.html" target="_top" xlink:title="Lockable object, has a Lock property that returns object on which lock must be performed in order to ...">
<polygon fill="white" stroke="black" points="598,-462.5 598,-481.5 656,-481.5 656,-462.5 598,-462.5"/>
<text text-anchor="middle" x="627" y="-469.5" font-family="Helvetica,sans-Serif" font-size="10.00">ILockable</text>
</a>
</g>
</g>
<!-- Node2&#45;&gt;Node1 -->
<g id="edge1" class="edge"><title>Node2&#45;&gt;Node1</title>
<path fill="none" stroke="midnightblue" d="M666.188,-469.185C710.545,-465.235 780.293,-456.704 801,-441 849.813,-403.981 867.913,-326.096 872.913,-298.746"/>
<polygon fill="midnightblue" stroke="midnightblue" points="665.715,-465.713 656.048,-470.048 666.309,-472.687 665.715,-465.713"/>
</g>
<!-- Node2&#45;&gt;Node7 -->
<g id="edge7" class="edge"><title>Node2&#45;&gt;Node7</title>
<path fill="none" stroke="midnightblue" d="M666.25,-476.108C701.906,-478.678 756.17,-479.34 801,-466 948.94,-421.978 1098,-299.922 1138.99,-264.657"/>
<polygon fill="midnightblue" stroke="midnightblue" points="666.51,-472.617 656.261,-475.302 665.948,-479.595 666.51,-472.617"/>
</g>
<!-- Node3 -->
<g id="node3" class="node"><title>Node3</title>
<g id="a_node3"><a xlink:title=" ">
<polygon fill="white" stroke="#bfbfbf" points="593.5,-348.5 593.5,-367.5 660.5,-367.5 660.5,-348.5 593.5,-348.5"/>
<text text-anchor="middle" x="627" y="-355.5" font-family="Helvetica,sans-Serif" font-size="10.00">IDisposable</text>
</a>
</g>
</g>
<!-- Node3&#45;&gt;Node1 -->
<g id="edge2" class="edge"><title>Node3&#45;&gt;Node1</title>
<path fill="none" stroke="midnightblue" d="M670.751,-351.758C706.178,-345.957 757.574,-336.082 801,-322 820.426,-315.7 841.601,-305.853 856.211,-298.553"/>
<polygon fill="midnightblue" stroke="midnightblue" points="670.072,-348.322 660.749,-353.356 671.177,-355.234 670.072,-348.322"/>
</g>
<!-- Node4 -->
<g id="node4" class="node"><title>Node4</title>
<g id="a_node4"><a xlink:href="../../dc/d11/interfaceIG_1_1Gr3d_1_1IVtkFormContainer.html" target="_top" xlink:title="This interface is implemented by the forms that contain the VTK control that can render VTK graphics.">
<polygon fill="white" stroke="black" points="560,-146.5 560,-165.5 694,-165.5 694,-146.5 560,-146.5"/>
<text text-anchor="middle" x="627" y="-153.5" font-family="Helvetica,sans-Serif" font-size="10.00">IG.Gr3d.IVtkFormContainer</text>
</a>
</g>
</g>
<!-- Node4&#45;&gt;Node1 -->
<g id="edge3" class="edge"><title>Node4&#45;&gt;Node1</title>
<path fill="none" stroke="#9a32cd" stroke-dasharray="5,2" d="M698.086,-167.351C738.154,-174.774 783.774,-185.089 801,-196 834.902,-217.473 859.802,-260.193 869.744,-279.333"/>
<polygon fill="#9a32cd" stroke="#9a32cd" points="698.503,-163.87 688.039,-165.528 697.253,-170.758 698.503,-163.87"/>
<text text-anchor="middle" x="756.5" y="-199" font-family="Helvetica,sans-Serif" font-size="10.00"> _formContainer</text>
</g>
<!-- Node5 -->
<g id="node5" class="node"><title>Node5</title>
<g id="a_node5"><a xlink:href="../../d3/d6e/interfaceIG_1_1Gr3d_1_1IVtkFormContainerGen.html" target="_top" xlink:title=" ">
<polygon fill="white" stroke="black" points="202,-90 202,-120 390,-120 390,-90 202,-90"/>
<text text-anchor="start" x="210" y="-108" font-family="Helvetica,sans-Serif" font-size="10.00">IVtkFormContainerGen</text>
<text text-anchor="middle" x="296" y="-97" font-family="Helvetica,sans-Serif" font-size="10.00">&lt; Kitware.VTK.RenderWindowControl &gt;</text>
</a>
</g>
</g>
<!-- Node5&#45;&gt;Node4 -->
<g id="edge4" class="edge"><title>Node5&#45;&gt;Node4</title>
<path fill="none" stroke="midnightblue" d="M400.349,-121.021C454.313,-129.386 518.514,-139.338 564.612,-146.484"/>
<polygon fill="midnightblue" stroke="midnightblue" points="400.816,-117.551 390.398,-119.478 399.744,-124.469 400.816,-117.551"/>
</g>
<!-- Node6 -->
<g id="node6" class="node"><title>Node6</title>
<g id="a_node6"><a xlink:href="../../df/d16/structIG_1_1Num_1_1vec3.html" target="_top" xlink:title="3D vector, struct implementation.">
<polygon fill="white" stroke="black" points="260,-329.5 260,-348.5 332,-348.5 332,-329.5 260,-329.5"/>
<text text-anchor="middle" x="296" y="-336.5" font-family="Helvetica,sans-Serif" font-size="10.00">IG.Num.vec3</text>
</a>
</g>
</g>
<!-- Node6&#45;&gt;Node1 -->
<g id="edge5" class="edge"><title>Node6&#45;&gt;Node1</title>
<path fill="none" stroke="#9a32cd" stroke-dasharray="5,2" d="M342.199,-338.584C391.61,-337.499 472.953,-333.86 542,-322 550.183,-320.594 551.831,-318.485 560,-317 585.517,-312.36 745.181,-299.278 826.709,-292.772"/>
<polygon fill="#9a32cd" stroke="#9a32cd" points="342.087,-335.086 332.156,-338.779 342.222,-342.084 342.087,-335.086"/>
<text text-anchor="middle" x="627" y="-331" font-family="Helvetica,sans-Serif" font-size="10.00"> ScalingFactors</text>
<text text-anchor="middle" x="627" y="-320" font-family="Helvetica,sans-Serif" font-size="10.00">ScalingTranslations</text>
</g>
<!-- Node14 -->
<g id="node14" class="node"><title>Node14</title>
<g id="a_node14"><a xlink:href="../../da/d5b/classIG_1_1Num_1_1Vector3d.html" target="_top" xlink:title="Vector or point in a 3 dimensional space.">
<polygon fill="white" stroke="black" points="581,-252.5 581,-271.5 673,-271.5 673,-252.5 581,-252.5"/>
<text text-anchor="middle" x="627" y="-259.5" font-family="Helvetica,sans-Serif" font-size="10.00">IG.Num.Vector3d</text>
</a>
</g>
</g>
<!-- Node6&#45;&gt;Node14 -->
<g id="edge24" class="edge"><title>Node6&#45;&gt;Node14</title>
<path fill="none" stroke="#9a32cd" stroke-dasharray="5,2" d="M341.898,-332.286C357.375,-329.329 374.667,-325.296 390,-320 398.454,-317.08 399.501,-313.787 408,-311 465.419,-292.175 483.235,-302.074 542,-288 561.003,-283.449 582.003,-276.949 598.252,-271.587"/>
<polygon fill="#9a32cd" stroke="#9a32cd" points="341.242,-328.848 332.028,-334.077 342.492,-335.736 341.242,-328.848"/>
<text text-anchor="middle" x="475" y="-314" font-family="Helvetica,sans-Serif" font-size="10.00"> _v</text>
</g>
<!-- Node7&#45;&gt;Node1 -->
<g id="edge6" class="edge"><title>Node7&#45;&gt;Node1</title>
<path fill="none" stroke="#9a32cd" stroke-dasharray="5,2" d="M1066.51,-247.741C1030.32,-246.56 987.687,-247.829 950,-256 929.085,-260.535 906.916,-271.436 892.463,-279.475"/>
<polygon fill="#9a32cd" stroke="#9a32cd" points="1066.4,-251.24 1076.53,-248.136 1066.68,-244.245 1066.4,-251.24"/>
<text text-anchor="middle" x="1004.5" y="-259" font-family="Helvetica,sans-Serif" font-size="10.00"> _decorationHandler</text>
</g>
<!-- Node8 -->
<g id="node8" class="node"><title>Node8</title>
<g id="a_node8"><a xlink:href="../../d5/d87/classIG_1_1Lib_1_1ColorScale.html" target="_top" xlink:title=" ">
<polygon fill="white" stroke="black" points="829.5,-35.5 829.5,-54.5 921.5,-54.5 921.5,-35.5 829.5,-35.5"/>
<text text-anchor="middle" x="875.5" y="-42.5" font-family="Helvetica,sans-Serif" font-size="10.00">IG.Lib.ColorScale</text>
</a>
</g>
</g>
<!-- Node8&#45;&gt;Node7 -->
<g id="edge8" class="edge"><title>Node8&#45;&gt;Node7</title>
<path fill="none" stroke="#9a32cd" stroke-dasharray="5,2" d="M931.733,-36.6089C970.699,-33.7024 1022.29,-36.2567 1059,-62 1124.21,-107.727 1144.07,-212.777 1148.76,-245.253"/>
<polygon fill="#9a32cd" stroke="#9a32cd" points="931.26,-33.1369 921.609,-37.5062 931.879,-40.1096 931.26,-33.1369"/>
<text text-anchor="middle" x="1004.5" y="-65" font-family="Helvetica,sans-Serif" font-size="10.00"> _lookUpTableColorScale</text>
</g>
<!-- Node9 -->
<g id="node9" class="node"><title>Node9</title>
<g id="a_node9"><a xlink:href="../../d1/d6b/classIG_1_1Lib_1_1ColorScaleBase.html" target="_top" xlink:title=" ">
<polygon fill="white" stroke="black" points="584,-0.5 584,-19.5 670,-19.5 670,-0.5 584,-0.5"/>
<text text-anchor="middle" x="627" y="-7.5" font-family="Helvetica,sans-Serif" font-size="10.00">ColorScaleBase</text>
</a>
</g>
</g>
<!-- Node9&#45;&gt;Node8 -->
<g id="edge9" class="edge"><title>Node9&#45;&gt;Node8</title>
<path fill="none" stroke="midnightblue" d="M680.579,-17.1453C714.877,-21.843 760.61,-28.1762 801,-34 810.195,-35.3258 820.031,-36.7759 829.422,-38.1756"/>
<polygon fill="midnightblue" stroke="midnightblue" points="680.703,-13.6298 670.321,-15.7423 679.754,-20.5652 680.703,-13.6298"/>
</g>
<!-- Node10 -->
<g id="node10" class="node"><title>Node10</title>
<g id="a_node10"><a xlink:href="../../d0/d9a/interfaceIG_1_1Lib_1_1IColorScale.html" target="_top" xlink:title=" ">
<polygon fill="white" stroke="black" points="263,-19.5 263,-38.5 329,-38.5 329,-19.5 263,-19.5"/>
<text text-anchor="middle" x="296" y="-26.5" font-family="Helvetica,sans-Serif" font-size="10.00">IColorScale</text>
</a>
</g>
</g>
<!-- Node10&#45;&gt;Node8 -->
<g id="edge11" class="edge"><title>Node10&#45;&gt;Node8</title>
<path fill="none" stroke="midnightblue" d="M339.135,-30.6206C359.873,-31.3921 385.246,-32.2974 408,-33 562.668,-37.776 746.222,-42.1052 829.462,-43.9957"/>
<polygon fill="midnightblue" stroke="midnightblue" points="339.18,-27.1199 329.056,-30.2426 338.918,-34.115 339.18,-27.1199"/>
</g>
<!-- Node10&#45;&gt;Node9 -->
<g id="edge10" class="edge"><title>Node10&#45;&gt;Node9</title>
<path fill="none" stroke="midnightblue" d="M339.162,-26.5651C402.339,-22.9166 520.869,-16.0714 583.969,-12.4273"/>
<polygon fill="midnightblue" stroke="midnightblue" points="338.926,-23.0728 329.145,-27.1436 339.33,-30.0611 338.926,-23.0728"/>
</g>
<!-- Node11 -->
<g id="node11" class="node"><title>Node11</title>
<g id="a_node11"><a xlink:href="../../dd/d52/structIG_1_1Lib_1_1color.html" target="_top" xlink:title="Extended color representation. Stores RGB components and opacity as double numbers ranging fom 0 to 1...">
<polygon fill="white" stroke="black" points="594,-108.5 594,-127.5 660,-127.5 660,-108.5 594,-108.5"/>
<text text-anchor="middle" x="627" y="-115.5" font-family="Helvetica,sans-Serif" font-size="10.00">IG.Lib.color</text>
</a>
</g>
</g>
<!-- Node11&#45;&gt;Node1 -->
<g id="edge17" class="edge"><title>Node11&#45;&gt;Node1</title>
<path fill="none" stroke="#9a32cd" stroke-dasharray="5,2" d="M670.266,-127.086C720.619,-137.974 798.34,-155.01 801,-157 844.058,-189.208 865.288,-254.478 872.038,-279.206"/>
<polygon fill="#9a32cd" stroke="#9a32cd" points="670.795,-123.619 660.282,-124.93 669.318,-130.462 670.795,-123.619"/>
<text text-anchor="middle" x="756.5" y="-160" font-family="Helvetica,sans-Serif" font-size="10.00"> _backGround</text>
</g>
<!-- Node11&#45;&gt;Node7 -->
<g id="edge14" class="edge"><title>Node11&#45;&gt;Node7</title>
<path fill="none" stroke="#9a32cd" stroke-dasharray="5,2" d="M670.618,-120.786C705.884,-123.659 757.125,-129.15 801,-139 926.844,-167.253 1071.38,-223.143 1126.76,-245.465"/>
<polygon fill="#9a32cd" stroke="#9a32cd" points="670.454,-117.262 660.212,-119.976 669.911,-124.241 670.454,-117.262"/>
<text text-anchor="middle" x="875.5" y="-178" font-family="Helvetica,sans-Serif" font-size="10.00"> _cubeAxesColor</text>
</g>
<!-- Node11&#45;&gt;Node8 -->
<g id="edge12" class="edge"><title>Node11&#45;&gt;Node8</title>
<path fill="none" stroke="#9a32cd" stroke-dasharray="5,2" d="M669.841,-105.609C718.586,-91.1734 798.066,-67.6357 842.267,-54.5458"/>
<polygon fill="#9a32cd" stroke="#9a32cd" points="668.82,-102.261 660.226,-108.457 670.808,-108.973 668.82,-102.261"/>
<text text-anchor="middle" x="756.5" y="-96" font-family="Helvetica,sans-Serif" font-size="10.00"> _definitionColors</text>
</g>
<!-- Node12 -->
<g id="node12" class="node"><title>Node12</title>
<g id="a_node12"><a xlink:href="../../db/d5e/interfaceIG_1_1Num_1_1IBoundingBox.html" target="_top" xlink:title="Bounding box, defines minimum and maximum co&#45;ordinates of domains, geometric objects and their groups...">
<polygon fill="white" stroke="black" points="819,-73.5 819,-92.5 932,-92.5 932,-73.5 819,-73.5"/>
<text text-anchor="middle" x="875.5" y="-80.5" font-family="Helvetica,sans-Serif" font-size="10.00">IG.Num.IBoundingBox</text>
</a>
</g>
</g>
<!-- Node12&#45;&gt;Node7 -->
<g id="edge15" class="edge"><title>Node12&#45;&gt;Node7</title>
<path fill="none" stroke="#9a32cd" stroke-dasharray="5,2" d="M942.422,-76.9364C979.387,-76.7094 1024.79,-82.0033 1059,-104 1113.06,-138.767 1139.66,-218.104 1147.48,-245.493"/>
<polygon fill="#9a32cd" stroke="#9a32cd" points="942.165,-73.4407 932.237,-77.1376 942.304,-80.4394 942.165,-73.4407"/>
<text text-anchor="middle" x="1004.5" y="-107" font-family="Helvetica,sans-Serif" font-size="10.00"> _bounds</text>
</g>
<!-- Node13 -->
<g id="node13" class="node"><title>Node13</title>
<g id="a_node13"><a xlink:title=" ">
<polygon fill="white" stroke="#bfbfbf" points="33,-386.5 33,-405.5 74,-405.5 74,-386.5 33,-386.5"/>
<text text-anchor="middle" x="53.5" y="-393.5" font-family="Helvetica,sans-Serif" font-size="10.00">static</text>
</a>
</g>
</g>
<!-- Node13&#45;&gt;Node1 -->
<g id="edge31" class="edge"><title>Node13&#45;&gt;Node1</title>
<path fill="none" stroke="#9a32cd" stroke-dasharray="5,2" d="M84.1842,-397.577C175.672,-401.911 461.195,-411.515 694,-377 742.738,-369.774 757.083,-370.338 801,-348 826.669,-334.944 851.784,-311.953 864.973,-298.859"/>
<polygon fill="#9a32cd" stroke="#9a32cd" points="84.165,-394.071 74.0055,-397.077 83.822,-401.063 84.165,-394.071"/>
<text text-anchor="middle" x="475" y="-448" font-family="Helvetica,sans-Serif" font-size="10.00"> DefaultIsAllowedVtkFormPlain</text>
<text text-anchor="middle" x="475" y="-437" font-family="Helvetica,sans-Serif" font-size="10.00">DefaultIsAllowedVtkForm</text>
<text text-anchor="middle" x="475" y="-426" font-family="Helvetica,sans-Serif" font-size="10.00">DefaultBackground</text>
<text text-anchor="middle" x="475" y="-415" font-family="Helvetica,sans-Serif" font-size="10.00">_defaultOutputLevel</text>
<text text-anchor="middle" x="475" y="-404" font-family="Helvetica,sans-Serif" font-size="10.00">DefaultFormContainerParallel</text>
</g>
<!-- Node13&#45;&gt;Node7 -->
<g id="edge16" class="edge"><title>Node13&#45;&gt;Node7</title>
<path fill="none" stroke="#9a32cd" stroke-dasharray="5,2" d="M72.1839,-412.406C109.98,-445.685 202.724,-518 295,-518 295,-518 295,-518 876.5,-518 1025.71,-518 1124.99,-312.121 1145.89,-264.672"/>
<polygon fill="#9a32cd" stroke="#9a32cd" points="74.3541,-409.651 64.5753,-405.573 69.677,-414.859 74.3541,-409.651"/>
<text text-anchor="middle" x="627" y="-532" font-family="Helvetica,sans-Serif" font-size="10.00"> min</text>
<text text-anchor="middle" x="627" y="-521" font-family="Helvetica,sans-Serif" font-size="10.00">max</text>
</g>
<!-- Node15 -->
<g id="node15" class="node"><title>Node15</title>
<g id="a_node15"><a xlink:href="../../d0/d5a/classIG_1_1Num_1_1VectorBase.html" target="_top" xlink:title="Base class for real vectors.">
<polygon fill="white" stroke="black" points="262,-253.5 262,-272.5 330,-272.5 330,-253.5 262,-253.5"/>
<text text-anchor="middle" x="296" y="-260.5" font-family="Helvetica,sans-Serif" font-size="10.00">VectorBase</text>
</a>
</g>
</g>
<!-- Node13&#45;&gt;Node15 -->
<g id="edge21" class="edge"><title>Node13&#45;&gt;Node15</title>
<path fill="none" stroke="#9a32cd" stroke-dasharray="5,2" d="M71.1921,-378.82C96.8509,-353.481 148.638,-306.457 202,-282 220.726,-273.417 243.338,-268.686 261.576,-266.092"/>
<polygon fill="#9a32cd" stroke="#9a32cd" points="68.3892,-376.674 63.8105,-386.228 73.348,-381.615 68.3892,-376.674"/>
<text text-anchor="middle" x="154.5" y="-334" font-family="Helvetica,sans-Serif" font-size="10.00"> _matrixStore</text>
</g>
<!-- Node14&#45;&gt;Node1 -->
<g id="edge18" class="edge"><title>Node14&#45;&gt;Node1</title>
<path fill="none" stroke="#9a32cd" stroke-dasharray="5,2" d="M683.24,-262.81C717.326,-263.899 761.867,-266.385 801,-272 813.446,-273.786 826.893,-276.623 838.841,-279.472"/>
<polygon fill="#9a32cd" stroke="#9a32cd" points="683.111,-259.305 673.014,-262.515 682.909,-266.302 683.111,-259.305"/>
<text text-anchor="middle" x="756.5" y="-286" font-family="Helvetica,sans-Serif" font-size="10.00"> vecOriginal</text>
<text text-anchor="middle" x="756.5" y="-275" font-family="Helvetica,sans-Serif" font-size="10.00">vecScaled</text>
</g>
<!-- Node15&#45;&gt;Node14 -->
<g id="edge19" class="edge"><title>Node15&#45;&gt;Node14</title>
<path fill="none" stroke="midnightblue" d="M340.349,-262.868C402.817,-262.678 517.591,-262.33 580.979,-262.137"/>
<polygon fill="midnightblue" stroke="midnightblue" points="340.041,-259.369 330.052,-262.9 340.063,-266.369 340.041,-259.369"/>
</g>
<!-- Node16 -->
<g id="node16" class="node"><title>Node16</title>
<g id="a_node16"><a xlink:href="../../d3/d24/interfaceIG_1_1Num_1_1IVector.html" target="_top" xlink:title="Generic Vector interface">
<polygon fill="white" stroke="black" points="30,-221.5 30,-240.5 77,-240.5 77,-221.5 30,-221.5"/>
<text text-anchor="middle" x="53.5" y="-228.5" font-family="Helvetica,sans-Serif" font-size="10.00">IVector</text>
</a>
</g>
</g>
<!-- Node16&#45;&gt;Node14 -->
<g id="edge22" class="edge"><title>Node16&#45;&gt;Node14</title>
<path fill="none" stroke="midnightblue" d="M87.3231,-231.864C147.408,-233.537 279.106,-237.625 390,-244 456.458,-247.821 533.312,-254.014 580.791,-258.047"/>
<polygon fill="midnightblue" stroke="midnightblue" points="87.3871,-228.365 77.2948,-231.589 87.195,-235.362 87.3871,-228.365"/>
</g>
<!-- Node16&#45;&gt;Node15 -->
<g id="edge20" class="edge"><title>Node16&#45;&gt;Node15</title>
<path fill="none" stroke="midnightblue" d="M87.1249,-235.341C132.959,-241.439 215.946,-252.481 261.988,-258.608"/>
<polygon fill="midnightblue" stroke="midnightblue" points="87.5,-231.86 77.1257,-234.01 86.5766,-238.799 87.5,-231.86"/>
</g>
<!-- Node17 -->
<g id="node17" class="node"><title>Node17</title>
<g id="a_node17"><a xlink:title=" ">
<polygon fill="white" stroke="#bfbfbf" points="265,-291.5 265,-310.5 327,-310.5 327,-291.5 265,-291.5"/>
<text text-anchor="middle" x="296" y="-298.5" font-family="Helvetica,sans-Serif" font-size="10.00">ICloneable</text>
</a>
</g>
</g>
<!-- Node17&#45;&gt;Node14 -->
<g id="edge23" class="edge"><title>Node17&#45;&gt;Node14</title>
<path fill="none" stroke="midnightblue" d="M337.184,-296.237C398.819,-288.93 516.317,-275.002 580.824,-267.355"/>
<polygon fill="midnightblue" stroke="midnightblue" points="336.587,-292.783 327.069,-297.436 337.411,-299.734 336.587,-292.783"/>
</g>
<!-- Node18 -->
<g id="node18" class="node"><title>Node18</title>
<g id="a_node18"><a xlink:title=" ">
<polygon fill="white" stroke="#bfbfbf" points="609.5,-424.5 609.5,-443.5 644.5,-443.5 644.5,-424.5 609.5,-424.5"/>
<text text-anchor="middle" x="627" y="-431.5" font-family="Helvetica,sans-Serif" font-size="10.00">VTK</text>
</a>
</g>
</g>
<!-- Node18&#45;&gt;Node1 -->
<g id="edge25" class="edge"><title>Node18&#45;&gt;Node1</title>
<path fill="none" stroke="#9a32cd" stroke-dasharray="5,2" d="M654.877,-432.517C697.329,-429.732 777.5,-422.54 801,-407 841.867,-379.975 864.138,-321.612 871.608,-298.604"/>
<polygon fill="#9a32cd" stroke="#9a32cd" points="654.475,-429.035 644.71,-433.147 654.908,-436.022 654.475,-429.035"/>
<text text-anchor="middle" x="756.5" y="-430" font-family="Helvetica,sans-Serif" font-size="10.00"> _renderControl</text>
</g>
<!-- Node19 -->
<g id="node19" class="node"><title>Node19</title>
<g id="a_node19"><a xlink:href="../../d5/da6/classIG_1_1Num_1_1BoundingBox3d.html" target="_top" xlink:title="A 3D bounding box.">
<polygon fill="white" stroke="black" points="566.5,-184.5 566.5,-203.5 687.5,-203.5 687.5,-184.5 566.5,-184.5"/>
<text text-anchor="middle" x="627" y="-191.5" font-family="Helvetica,sans-Serif" font-size="10.00">IG.Num.BoundingBox3d</text>
</a>
</g>
</g>
<!-- Node19&#45;&gt;Node1 -->
<g id="edge26" class="edge"><title>Node19&#45;&gt;Node1</title>
<path fill="none" stroke="#9a32cd" stroke-dasharray="5,2" d="M694.195,-205.647C727.205,-212.832 767.192,-223.662 801,-239 824.611,-249.712 848.887,-267.898 862.786,-279.135"/>
<polygon fill="#9a32cd" stroke="#9a32cd" points="694.697,-202.176 684.189,-203.533 693.25,-209.024 694.697,-202.176"/>
<text text-anchor="middle" x="756.5" y="-253" font-family="Helvetica,sans-Serif" font-size="10.00"> _boundsScaled</text>
<text text-anchor="middle" x="756.5" y="-242" font-family="Helvetica,sans-Serif" font-size="10.00">_boundsCoordinates</text>
</g>
<!-- Node20 -->
<g id="node20" class="node"><title>Node20</title>
<g id="a_node20"><a xlink:href="../../df/d61/classIG_1_1Num_1_1BoundingBoxBase.html" target="_top" xlink:title="Base class for bounding boxes that define minimal and maximal co&#45;ordinates of objects,...">
<polygon fill="white" stroke="black" points="247.5,-139.5 247.5,-158.5 344.5,-158.5 344.5,-139.5 247.5,-139.5"/>
<text text-anchor="middle" x="296" y="-146.5" font-family="Helvetica,sans-Serif" font-size="10.00">BoundingBoxBase</text>
</a>
</g>
</g>
<!-- Node20&#45;&gt;Node19 -->
<g id="edge27" class="edge"><title>Node20&#45;&gt;Node19</title>
<path fill="none" stroke="midnightblue" d="M354.967,-152.263C404.816,-155.644 478.504,-162.015 542,-173 558.886,-175.921 577.39,-180.405 592.723,-184.481"/>
<polygon fill="midnightblue" stroke="midnightblue" points="354.913,-148.752 344.704,-151.586 354.452,-155.737 354.913,-148.752"/>
</g>
<!-- Node21 -->
<g id="node21" class="node"><title>Node21</title>
<g id="a_node21"><a xlink:href="../../db/d5e/interfaceIG_1_1Num_1_1IBoundingBox.html" target="_top" xlink:title="Bounding box, defines minimum and maximum co&#45;ordinates of domains, geometric objects and their groups...">
<polygon fill="white" stroke="black" points="15,-171.5 15,-190.5 92,-190.5 92,-171.5 15,-171.5"/>
<text text-anchor="middle" x="53.5" y="-178.5" font-family="Helvetica,sans-Serif" font-size="10.00">IBoundingBox</text>
</a>
</g>
</g>
<!-- Node21&#45;&gt;Node19 -->
<g id="edge30" class="edge"><title>Node21&#45;&gt;Node19</title>
<path fill="none" stroke="midnightblue" d="M102.648,-182.095C206.691,-184.462 452.265,-190.048 566.115,-192.638"/>
<polygon fill="midnightblue" stroke="midnightblue" points="102.517,-178.591 92.4403,-181.863 102.358,-185.59 102.517,-178.591"/>
</g>
<!-- Node21&#45;&gt;Node20 -->
<g id="edge28" class="edge"><title>Node21&#45;&gt;Node20</title>
<path fill="none" stroke="midnightblue" d="M102.078,-174.669C144.158,-169.07 205.237,-160.944 247.341,-155.341"/>
<polygon fill="midnightblue" stroke="midnightblue" points="101.529,-171.212 92.0781,-176 102.452,-178.15 101.529,-171.212"/>
</g>
<!-- Node22 -->
<g id="node22" class="node"><title>Node22</title>
<g id="a_node22"><a xlink:href="../../d3/d24/interfaceIG_1_1Num_1_1IVector.html" target="_top" xlink:title="Generic Vector interface">
<polygon fill="white" stroke="black" points="0,-115.5 0,-134.5 107,-134.5 107,-115.5 0,-115.5"/>
<text text-anchor="middle" x="53.5" y="-122.5" font-family="Helvetica,sans-Serif" font-size="10.00">IG.Num.IVector&lt; T &gt;</text>
</a>
</g>
</g>
<!-- Node22&#45;&gt;Node20 -->
<g id="edge29" class="edge"><title>Node22&#45;&gt;Node20</title>
<path fill="none" stroke="#9a32cd" stroke-dasharray="5,2" d="M117.426,-123.007C138.627,-122.994 162.385,-123.7 184,-126 190.825,-126.726 223.172,-133.491 251.2,-139.497"/>
<polygon fill="#9a32cd" stroke="#9a32cd" points="117.224,-119.508 107.245,-123.067 117.265,-126.508 117.224,-119.508"/>
<text text-anchor="middle" x="154.5" y="-140" font-family="Helvetica,sans-Serif" font-size="10.00"> _maxAux</text>
<text text-anchor="middle" x="154.5" y="-129" font-family="Helvetica,sans-Serif" font-size="10.00">_minAux</text>
</g>
</g>
</svg>
        <g id="navigator" transform="translate(0 0)" fill="#404254">
                <rect fill="#f2f5e9" fill-opacity="0.5" stroke="#606060" stroke-width=".5" x="0" y="0" width="60" height="60"/>
                <use id="zoomplus" xlink:href="#zoomPlus" x="17" y="9" onmousedown="handleZoom(evt,'in')"/>
                <use id="zoomminus" xlink:href="#zoomMin" x="42" y="9" onmousedown="handleZoom(evt,'out')"/>
                <use id="reset" xlink:href="#resetDef" x="30" y="36" onmousedown="handleReset()"/>
                <g id="arrowUp" xlink:href="#dirArrow" transform="translate(30 24)" onmousedown="handlePan(0,-1)">
                  <use xlink:href="#rim" fill="#404040">
                        <set attributeName="fill" to="#808080" begin="arrowUp.mouseover" end="arrowUp.mouseout"/>
                  </use>
                  <path fill="none" stroke="white" stroke-width="1.5" d="M0,-3.0v7 M-2.5,-0.5L0,-3.0L2.5,-0.5"/>
                </g>
                <g id="arrowRight" xlink:href="#dirArrow" transform="rotate(90) translate(36 -43)" onmousedown="handlePan(1,0)">
                  <use xlink:href="#rim" fill="#404040">
                        <set attributeName="fill" to="#808080" begin="arrowRight.mouseover" end="arrowRight.mouseout"/>
                  </use>
                  <path fill="none" stroke="white" stroke-width="1.5" d="M0,-3.0v7 M-2.5,-0.5L0,-3.0L2.5,-0.5"/>
                </g>
                <g id="arrowDown" xlink:href="#dirArrow" transform="rotate(180) translate(-30 -48)" onmousedown="handlePan(0,1)">
                  <use xlink:href="#rim" fill="#404040">
                        <set attributeName="fill" to="#808080" begin="arrowDown.mouseover" end="arrowDown.mouseout"/>
                  </use>
                  <path fill="none" stroke="white" stroke-width="1.5" d="M0,-3.0v7 M-2.5,-0.5L0,-3.0L2.5,-0.5"/>
                </g>
                <g id="arrowLeft" xlink:href="#dirArrow" transform="rotate(270) translate(-36 17)" onmousedown="handlePan(-1,0)">
                  <use xlink:href="#rim" fill="#404040">
                        <set attributeName="fill" to="#808080" begin="arrowLeft.mouseover" end="arrowLeft.mouseout"/>
                  </use>
                  <path fill="none" stroke="white" stroke-width="1.5" d="M0,-3.0v7 M-2.5,-0.5L0,-3.0L2.5,-0.5"/>
                </g>
        </g>
        <svg viewBox="0 0 15 15" width="100%" height="30px" preserveAspectRatio="xMaxYMin meet">
         <g id="arrow_out" transform="scale(0.3 0.3)">
          <a xlink:href="classIG_1_1Gr3d_1_1VtkPlotter__coll__graph_org.svg" target="_base">
           <rect id="button" ry="5" rx="5" y="6" x="6" height="38" width="38"
                fill="#f2f5e9" fill-opacity="0.5" stroke="#606060" stroke-width="1.0"/>
           <path id="arrow"
             d="M 11.500037,31.436501 C 11.940474,20.09759 22.043105,11.32322 32.158766,21.979434 L 37.068811,17.246167 C 37.068811,17.246167 37.088388,32 37.088388,32 L 22.160133,31.978069 C 22.160133,31.978069 26.997745,27.140456 26.997745,27.140456 C 18.528582,18.264221 13.291696,25.230495 11.500037,31.436501 z"
             style="fill:#404040;"/>
          </a>
         </g>
        </svg>
</svg>
