<?xml version="1.0" encoding="UTF-8" standalone="no"?>
<!DOCTYPE svg PUBLIC "-//W3C//DTD SVG 1.1//EN"
 "http://www.w3.org/Graphics/SVG/1.1/DTD/svg11.dtd">
<!-- Generated by graphviz version 2.38.0 (20140413.2041)
 -->
<!-- Title: IG.Lib.MsgConstFinancialTransaction Pages: 1 -->
<svg width="144pt" height="319pt"
 viewBox="0.00 0.00 144.00 319.00" xmlns="http://www.w3.org/2000/svg" xmlns:xlink="http://www.w3.org/1999/xlink">
<g id="graph0" class="graph" transform="scale(1 1) rotate(0) translate(4 315)">
<title>IG.Lib.MsgConstFinancialTransaction</title>
<polygon fill="white" stroke="none" points="-4,4 -4,-315 140,-315 140,4 -4,4"/>
<!-- Node1 -->
<g id="node1" class="node"><title>Node1</title>
<g id="a_node1"><a xlink:title="Constants related to the ObservationEvent msg. Remark: class MsgConst was composed of different parts...">
<polygon fill="#bfbfbf" stroke="black" points="4,-112.5 4,-142.5 132,-142.5 132,-112.5 4,-112.5"/>
<text text-anchor="start" x="12" y="-130.5" font-family="Helvetica,sans-Serif" font-size="10.00">IG.Lib.MsgConstFinancial</text>
<text text-anchor="middle" x="68" y="-119.5" font-family="Helvetica,sans-Serif" font-size="10.00">Transaction</text>
</a>
</g>
</g>
<!-- Node5 -->
<g id="node5" class="node"><title>Node5</title>
<g id="a_node5"><a xlink:href="../../df/dd1/classIG_1_1Lib_1_1MsgConst.html" target="_top" xlink:title="Constants related to msg for communication with BIS, conversion utilities from and to formats used in...">
<polygon fill="white" stroke="black" points="23.5,-56.5 23.5,-75.5 112.5,-75.5 112.5,-56.5 23.5,-56.5"/>
<text text-anchor="middle" x="68" y="-63.5" font-family="Helvetica,sans-Serif" font-size="10.00">IG.Lib.MsgConst</text>
</a>
</g>
</g>
<!-- Node1&#45;&gt;Node5 -->
<g id="edge4" class="edge"><title>Node1&#45;&gt;Node5</title>
<path fill="none" stroke="midnightblue" d="M68,-102.289C68,-92.857 68,-82.6548 68,-75.6578"/>
<polygon fill="midnightblue" stroke="midnightblue" points="64.5001,-102.399 68,-112.399 71.5001,-102.399 64.5001,-102.399"/>
</g>
<!-- Node2 -->
<g id="node2" class="node"><title>Node2</title>
<g id="a_node2"><a xlink:href="../../da/da0/classIG_1_1Lib_1_1MsgConstObservationEvent.html" target="_top" xlink:title="Constants related to the ObservationEvent msg. Remark: class MsgConst was composed of different parts...">
<polygon fill="white" stroke="black" points="0,-179.5 0,-198.5 136,-198.5 136,-179.5 0,-179.5"/>
<text text-anchor="middle" x="68" y="-186.5" font-family="Helvetica,sans-Serif" font-size="10.00">MsgConstObservationEvent</text>
</a>
</g>
</g>
<!-- Node2&#45;&gt;Node1 -->
<g id="edge1" class="edge"><title>Node2&#45;&gt;Node1</title>
<path fill="none" stroke="midnightblue" d="M68,-169.235C68,-160.586 68,-150.497 68,-142.523"/>
<polygon fill="midnightblue" stroke="midnightblue" points="64.5001,-169.475 68,-179.475 71.5001,-169.475 64.5001,-169.475"/>
</g>
<!-- Node3 -->
<g id="node3" class="node"><title>Node3</title>
<g id="a_node3"><a xlink:href="../../db/db8/classIG_1_1Lib_1_1MsgConstObservationOrder.html" target="_top" xlink:title="Constants related to the ObservationOrder msg. Remark: class MsgConst was composed of different parts...">
<polygon fill="white" stroke="black" points="0,-235.5 0,-254.5 136,-254.5 136,-235.5 0,-235.5"/>
<text text-anchor="middle" x="68" y="-242.5" font-family="Helvetica,sans-Serif" font-size="10.00">MsgConstObservationOrder</text>
</a>
</g>
</g>
<!-- Node3&#45;&gt;Node2 -->
<g id="edge2" class="edge"><title>Node3&#45;&gt;Node2</title>
<path fill="none" stroke="midnightblue" d="M68,-224.805C68,-215.91 68,-205.78 68,-198.751"/>
<polygon fill="midnightblue" stroke="midnightblue" points="64.5001,-225.083 68,-235.083 71.5001,-225.083 64.5001,-225.083"/>
</g>
<!-- Node4 -->
<g id="node4" class="node"><title>Node4</title>
<g id="a_node4"><a xlink:href="../../d5/de1/classIG_1_1Lib_1_1MsgConstCommon.html" target="_top" xlink:title="Common Constants related to messages sent with BIS. Remark: class MsgConst is composed of different p...">
<polygon fill="white" stroke="black" points="18,-291.5 18,-310.5 118,-310.5 118,-291.5 18,-291.5"/>
<text text-anchor="middle" x="68" y="-298.5" font-family="Helvetica,sans-Serif" font-size="10.00">MsgConstCommon</text>
</a>
</g>
</g>
<!-- Node4&#45;&gt;Node3 -->
<g id="edge3" class="edge"><title>Node4&#45;&gt;Node3</title>
<path fill="none" stroke="midnightblue" d="M68,-280.805C68,-271.91 68,-261.78 68,-254.751"/>
<polygon fill="midnightblue" stroke="midnightblue" points="64.5001,-281.083 68,-291.083 71.5001,-281.083 64.5001,-281.083"/>
</g>
<!-- Node6 -->
<g id="node6" class="node"><title>Node6</title>
<g id="a_node6"><a xlink:href="../../de/dda/classIG_1_1Lib_1_1MsgConstGolnik.html" target="_top" xlink:title="Here one can handle specifics with respect to different versions of the program for different custome...">
<polygon fill="white" stroke="black" points="9.5,-0.5 9.5,-19.5 126.5,-19.5 126.5,-0.5 9.5,-0.5"/>
<text text-anchor="middle" x="68" y="-7.5" font-family="Helvetica,sans-Serif" font-size="10.00">IG.Lib.MsgConstGolnik</text>
</a>
</g>
</g>
<!-- Node5&#45;&gt;Node6 -->
<g id="edge5" class="edge"><title>Node5&#45;&gt;Node6</title>
<path fill="none" stroke="midnightblue" d="M68,-45.8045C68,-36.9102 68,-26.7798 68,-19.7511"/>
<polygon fill="midnightblue" stroke="midnightblue" points="64.5001,-46.083 68,-56.083 71.5001,-46.083 64.5001,-46.083"/>
</g>
</g>
</svg>
