<?xml version="1.0" encoding="UTF-8" standalone="no"?>
<!DOCTYPE svg PUBLIC "-//W3C//DTD SVG 1.1//EN"
 "http://www.w3.org/Graphics/SVG/1.1/DTD/svg11.dtd">
<!-- Generated by graphviz version 2.38.0 (20140413.2041)
 -->
<!-- Title: NUnit.Framework.Attributes.CategoryAttributeTests Pages: 1 -->
<svg width="309pt" height="330pt"
 viewBox="0.00 0.00 309.00 330.00" xmlns="http://www.w3.org/2000/svg" xmlns:xlink="http://www.w3.org/1999/xlink">
<g id="graph0" class="graph" transform="scale(1 1) rotate(0) translate(4 326)">
<title>NUnit.Framework.Attributes.CategoryAttributeTests</title>
<polygon fill="white" stroke="none" points="-4,4 -4,-326 305,-326 305,4 -4,4"/>
<!-- Node1 -->
<g id="node1" class="node"><title>Node1</title>
<g id="a_node1"><a xlink:title="Summary description for CategoryAttributeTests.">
<polygon fill="#bfbfbf" stroke="black" points="128.5,-0.5 128.5,-30.5 268.5,-30.5 268.5,-0.5 128.5,-0.5"/>
<text text-anchor="start" x="136.5" y="-18.5" font-family="Helvetica,sans-Serif" font-size="10.00">NUnit.Framework.Attributes.</text>
<text text-anchor="middle" x="198.5" y="-7.5" font-family="Helvetica,sans-Serif" font-size="10.00">CategoryAttributeTests</text>
</a>
</g>
</g>
<!-- Node2 -->
<g id="node2" class="node"><title>Node2</title>
<g id="a_node2"><a xlink:href="../../d4/dec/classNUnit_1_1Framework_1_1Internal_1_1TestSuite.html" target="_top" xlink:title="TestSuite represents a composite test, which contains other tests.">
<polygon fill="white" stroke="black" points="134,-78.5 134,-108.5 263,-108.5 263,-78.5 134,-78.5"/>
<text text-anchor="start" x="142" y="-96.5" font-family="Helvetica,sans-Serif" font-size="10.00">NUnit.Framework.Internal.</text>
<text text-anchor="middle" x="198.5" y="-85.5" font-family="Helvetica,sans-Serif" font-size="10.00">TestSuite</text>
</a>
</g>
</g>
<!-- Node2&#45;&gt;Node1 -->
<g id="edge1" class="edge"><title>Node2&#45;&gt;Node1</title>
<path fill="none" stroke="#9a32cd" stroke-dasharray="5,2" d="M198.5,-68.0898C198.5,-55.7565 198.5,-41.2237 198.5,-30.7309"/>
<polygon fill="#9a32cd" stroke="#9a32cd" points="195,-68.2049 198.5,-78.205 202,-68.205 195,-68.2049"/>
<text text-anchor="middle" x="213.5" y="-52" font-family="Helvetica,sans-Serif" font-size="10.00"> fixture</text>
</g>
<!-- Node3 -->
<g id="node3" class="node"><title>Node3</title>
<g id="a_node3"><a xlink:href="../../d6/d59/classNUnit_1_1Framework_1_1Internal_1_1Test.html" target="_top" xlink:title="The Test abstract class represents a test within the framework.">
<polygon fill="white" stroke="black" points="99,-167.5 99,-186.5 134,-186.5 134,-167.5 99,-167.5"/>
<text text-anchor="middle" x="116.5" y="-174.5" font-family="Helvetica,sans-Serif" font-size="10.00">Test</text>
</a>
</g>
</g>
<!-- Node3&#45;&gt;Node2 -->
<g id="edge2" class="edge"><title>Node3&#45;&gt;Node2</title>
<path fill="none" stroke="midnightblue" d="M132.399,-160.198C147.455,-145.234 169.852,-122.974 184.316,-108.597"/>
<polygon fill="midnightblue" stroke="midnightblue" points="129.901,-157.746 125.275,-167.278 134.835,-162.711 129.901,-157.746"/>
</g>
<!-- Node4 -->
<g id="node4" class="node"><title>Node4</title>
<g id="a_node4"><a xlink:href="../../d6/dd5/interfaceNUnit_1_1Framework_1_1Interfaces_1_1ITest.html" target="_top" xlink:title="Common interface supported by all representations of a test. Only includes informational fields....">
<polygon fill="white" stroke="black" points="24.5,-245.5 24.5,-264.5 62.5,-264.5 62.5,-245.5 24.5,-245.5"/>
<text text-anchor="middle" x="43.5" y="-252.5" font-family="Helvetica,sans-Serif" font-size="10.00">ITest</text>
</a>
</g>
</g>
<!-- Node4&#45;&gt;Node3 -->
<g id="edge3" class="edge"><title>Node4&#45;&gt;Node3</title>
<path fill="none" stroke="midnightblue" d="M58.9885,-237.875C74.0293,-222.216 96.2885,-199.042 108.224,-186.616"/>
<polygon fill="midnightblue" stroke="midnightblue" points="56.2772,-235.645 51.874,-245.282 61.3256,-240.494 56.2772,-235.645"/>
</g>
<!-- Node5 -->
<g id="node5" class="node"><title>Node5</title>
<g id="a_node5"><a xlink:href="../../d9/dc0/interfaceNUnit_1_1Framework_1_1Interfaces_1_1IXmlNodeBuilder.html" target="_top" xlink:title="An object implementing IXmlNodeBuilder is able to build an XML representation of itself and any child...">
<polygon fill="white" stroke="black" points="0,-302.5 0,-321.5 87,-321.5 87,-302.5 0,-302.5"/>
<text text-anchor="middle" x="43.5" y="-309.5" font-family="Helvetica,sans-Serif" font-size="10.00">IXmlNodeBuilder</text>
</a>
</g>
</g>
<!-- Node5&#45;&gt;Node4 -->
<g id="edge4" class="edge"><title>Node5&#45;&gt;Node4</title>
<path fill="none" stroke="midnightblue" d="M43.5,-292.117C43.5,-282.817 43.5,-272.056 43.5,-264.715"/>
<polygon fill="midnightblue" stroke="midnightblue" points="40.0001,-292.406 43.5,-302.406 47.0001,-292.406 40.0001,-292.406"/>
</g>
<!-- Node6 -->
<g id="node6" class="node"><title>Node6</title>
<g id="a_node6"><a xlink:title=" ">
<polygon fill="white" stroke="#bfbfbf" points="81,-245.5 81,-264.5 152,-264.5 152,-245.5 81,-245.5"/>
<text text-anchor="middle" x="116.5" y="-252.5" font-family="Helvetica,sans-Serif" font-size="10.00">IComparable</text>
</a>
</g>
</g>
<!-- Node6&#45;&gt;Node3 -->
<g id="edge5" class="edge"><title>Node6&#45;&gt;Node3</title>
<path fill="none" stroke="midnightblue" d="M116.5,-235.224C116.5,-219.697 116.5,-198.358 116.5,-186.616"/>
<polygon fill="midnightblue" stroke="midnightblue" points="113,-235.282 116.5,-245.282 120,-235.282 113,-235.282"/>
</g>
<!-- Node7 -->
<g id="node7" class="node"><title>Node7</title>
<g id="a_node7"><a xlink:title=" ">
<polygon fill="white" stroke="#bfbfbf" points="170,-245.5 170,-264.5 211,-264.5 211,-245.5 170,-245.5"/>
<text text-anchor="middle" x="190.5" y="-252.5" font-family="Helvetica,sans-Serif" font-size="10.00">static</text>
</a>
</g>
</g>
<!-- Node7&#45;&gt;Node3 -->
<g id="edge6" class="edge"><title>Node7&#45;&gt;Node3</title>
<path fill="none" stroke="#9a32cd" stroke-dasharray="5,2" d="M174.799,-237.875C159.553,-222.216 136.988,-199.042 124.89,-186.616"/>
<polygon fill="#9a32cd" stroke="#9a32cd" points="172.527,-240.559 182.011,-245.282 177.543,-235.675 172.527,-240.559"/>
<text text-anchor="middle" x="181" y="-219" font-family="Helvetica,sans-Serif" font-size="10.00"> _nextID</text>
</g>
<!-- Node8 -->
<g id="node8" class="node"><title>Node8</title>
<g id="a_node8"><a xlink:href="../../d7/d49/classNUnit_1_1Framework_1_1List.html" target="_top" xlink:title=" ">
<polygon fill="white" stroke="black" points="152,-156.5 152,-197.5 301,-197.5 301,-156.5 152,-156.5"/>
<text text-anchor="start" x="160" y="-185.5" font-family="Helvetica,sans-Serif" font-size="10.00">NUnit.Framework.List</text>
<text text-anchor="start" x="160" y="-174.5" font-family="Helvetica,sans-Serif" font-size="10.00">&lt; NUnit.Framework.Interfaces.</text>
<text text-anchor="middle" x="226.5" y="-163.5" font-family="Helvetica,sans-Serif" font-size="10.00">ITest &gt;</text>
</a>
</g>
</g>
<!-- Node8&#45;&gt;Node2 -->
<g id="edge7" class="edge"><title>Node8&#45;&gt;Node2</title>
<path fill="none" stroke="#9a32cd" stroke-dasharray="5,2" d="M216.465,-146.79C212.013,-133.831 206.978,-119.176 203.373,-108.685"/>
<polygon fill="#9a32cd" stroke="#9a32cd" points="213.163,-147.951 219.722,-156.271 219.783,-145.676 213.163,-147.951"/>
<text text-anchor="middle" x="226" y="-130" font-family="Helvetica,sans-Serif" font-size="10.00"> tests</text>
</g>
</g>
</svg>
