<?xml version="1.0" encoding="UTF-8" standalone="no"?>
<!DOCTYPE svg PUBLIC "-//W3C//DTD SVG 1.1//EN"
 "http://www.w3.org/Graphics/SVG/1.1/DTD/svg11.dtd">
<!-- Generated by graphviz version 2.38.0 (20140413.2041)
 -->
<!-- Title: AForge.Imaging.Filters.ThresholdedEuclideanDifference Pages: 1 -->
<svg width="308pt" height="231pt"
 viewBox="0.00 0.00 307.50 231.00" xmlns="http://www.w3.org/2000/svg" xmlns:xlink="http://www.w3.org/1999/xlink">
<g id="graph0" class="graph" transform="scale(1 1) rotate(0) translate(4 227)">
<title>AForge.Imaging.Filters.ThresholdedEuclideanDifference</title>
<polygon fill="white" stroke="none" points="-4,4 -4,-227 303.5,-227 303.5,4 -4,4"/>
<!-- Node1 -->
<g id="node1" class="node"><title>Node1</title>
<g id="a_node1"><a xlink:title="Calculate Euclidean difference between two images and threshold it.">
<polygon fill="#bfbfbf" stroke="black" points="76.5,-0.5 76.5,-30.5 246.5,-30.5 246.5,-0.5 76.5,-0.5"/>
<text text-anchor="start" x="84.5" y="-18.5" font-family="Helvetica,sans-Serif" font-size="10.00">AForge.Imaging.Filters.Thresholded</text>
<text text-anchor="middle" x="161.5" y="-7.5" font-family="Helvetica,sans-Serif" font-size="10.00">EuclideanDifference</text>
</a>
</g>
</g>
<!-- Node2 -->
<g id="node2" class="node"><title>Node2</title>
<g id="a_node2"><a xlink:href="../../dd/d10/classAForge_1_1Imaging_1_1Filters_1_1BaseFilter2.html" target="_top" xlink:title="Base class for filters, which operate with two images of the same size and format and produce new ima...">
<polygon fill="white" stroke="black" points="128.5,-68.5 128.5,-87.5 194.5,-87.5 194.5,-68.5 128.5,-68.5"/>
<text text-anchor="middle" x="161.5" y="-75.5" font-family="Helvetica,sans-Serif" font-size="10.00">BaseFilter2</text>
</a>
</g>
</g>
<!-- Node2&#45;&gt;Node1 -->
<g id="edge1" class="edge"><title>Node2&#45;&gt;Node1</title>
<path fill="none" stroke="midnightblue" d="M161.5,-58.2154C161.5,-49.3565 161.5,-38.9577 161.5,-30.7587"/>
<polygon fill="midnightblue" stroke="midnightblue" points="158,-58.3318 161.5,-68.3318 165,-58.3319 158,-58.3318"/>
</g>
<!-- Node3 -->
<g id="node3" class="node"><title>Node3</title>
<g id="a_node3"><a xlink:href="../../d0/d25/classAForge_1_1Imaging_1_1Filters_1_1BaseFilter.html" target="_top" xlink:title="Base class for filters, which produce new image of the same size as a result of image processing.">
<polygon fill="white" stroke="black" points="61,-141 61,-160 122,-160 122,-141 61,-141"/>
<text text-anchor="middle" x="91.5" y="-148" font-family="Helvetica,sans-Serif" font-size="10.00">BaseFilter</text>
</a>
</g>
</g>
<!-- Node3&#45;&gt;Node2 -->
<g id="edge2" class="edge"><title>Node3&#45;&gt;Node2</title>
<path fill="none" stroke="midnightblue" d="M107.196,-133.692C121.294,-119.493 141.474,-99.1687 152.846,-87.7154"/>
<polygon fill="midnightblue" stroke="midnightblue" points="104.646,-131.293 100.083,-140.855 109.613,-136.225 104.646,-131.293"/>
</g>
<!-- Node4 -->
<g id="node4" class="node"><title>Node4</title>
<g id="a_node4"><a xlink:href="../../dd/d51/interfaceAForge_1_1Imaging_1_1Filters_1_1IFilter.html" target="_top" xlink:title="Image processing filter interface.">
<polygon fill="white" stroke="black" points="0,-203.5 0,-222.5 41,-222.5 41,-203.5 0,-203.5"/>
<text text-anchor="middle" x="20.5" y="-210.5" font-family="Helvetica,sans-Serif" font-size="10.00">IFilter</text>
</a>
</g>
</g>
<!-- Node4&#45;&gt;Node3 -->
<g id="edge3" class="edge"><title>Node4&#45;&gt;Node3</title>
<path fill="none" stroke="midnightblue" d="M38.4317,-196.72C52.0114,-185.149 70.1769,-169.67 81.3463,-160.152"/>
<polygon fill="midnightblue" stroke="midnightblue" points="36.014,-194.182 30.6726,-203.332 40.5541,-199.51 36.014,-194.182"/>
</g>
<!-- Node5 -->
<g id="node5" class="node"><title>Node5</title>
<g id="a_node5"><a xlink:href="../../d7/dec/interfaceAForge_1_1Imaging_1_1Filters_1_1IFilterInformation.html" target="_top" xlink:title="Interface which provides information about image processing filter.">
<polygon fill="white" stroke="black" points="59.5,-203.5 59.5,-222.5 147.5,-222.5 147.5,-203.5 59.5,-203.5"/>
<text text-anchor="middle" x="103.5" y="-210.5" font-family="Helvetica,sans-Serif" font-size="10.00">IFilterInformation</text>
</a>
</g>
</g>
<!-- Node5&#45;&gt;Node3 -->
<g id="edge4" class="edge"><title>Node5&#45;&gt;Node3</title>
<path fill="none" stroke="midnightblue" d="M99.8007,-193.349C97.6054,-182.281 94.9258,-168.772 93.2161,-160.152"/>
<polygon fill="midnightblue" stroke="midnightblue" points="96.4019,-194.204 101.781,-203.332 103.268,-192.842 96.4019,-194.204"/>
</g>
<!-- Node6 -->
<g id="node6" class="node"><title>Node6</title>
<g id="a_node6"><a xlink:href="../../d0/d77/classAForge_1_1Imaging_1_1UnmanagedImage.html" target="_top" xlink:title="Image in unmanaged memory.">
<polygon fill="white" stroke="black" points="140.5,-135.5 140.5,-165.5 280.5,-165.5 280.5,-135.5 140.5,-135.5"/>
<text text-anchor="start" x="148.5" y="-153.5" font-family="Helvetica,sans-Serif" font-size="10.00">AForge.Imaging.Unmanaged</text>
<text text-anchor="middle" x="210.5" y="-142.5" font-family="Helvetica,sans-Serif" font-size="10.00">Image</text>
</a>
</g>
</g>
<!-- Node6&#45;&gt;Node2 -->
<g id="edge5" class="edge"><title>Node6&#45;&gt;Node2</title>
<path fill="none" stroke="#9a32cd" stroke-dasharray="5,2" d="M194.866,-127.006C185.638,-113.73 174.471,-97.6626 167.681,-87.8932"/>
<polygon fill="#9a32cd" stroke="#9a32cd" points="192.003,-129.019 200.584,-135.233 197.751,-125.024 192.003,-129.019"/>
<text text-anchor="middle" x="243.5" y="-109" font-family="Helvetica,sans-Serif" font-size="10.00"> unmanagedOverlayImage</text>
</g>
<!-- Node7 -->
<g id="node7" class="node"><title>Node7</title>
<g id="a_node7"><a xlink:title=" ">
<polygon fill="white" stroke="#bfbfbf" points="177,-203.5 177,-222.5 244,-222.5 244,-203.5 177,-203.5"/>
<text text-anchor="middle" x="210.5" y="-210.5" font-family="Helvetica,sans-Serif" font-size="10.00">IDisposable</text>
</a>
</g>
</g>
<!-- Node7&#45;&gt;Node6 -->
<g id="edge6" class="edge"><title>Node7&#45;&gt;Node6</title>
<path fill="none" stroke="midnightblue" d="M210.5,-193.215C210.5,-184.356 210.5,-173.958 210.5,-165.759"/>
<polygon fill="midnightblue" stroke="midnightblue" points="207,-193.332 210.5,-203.332 214,-193.332 207,-193.332"/>
</g>
</g>
</svg>
