<?xml version="1.0" encoding="UTF-8" standalone="no"?>
<!DOCTYPE svg PUBLIC "-//W3C//DTD SVG 1.1//EN"
 "http://www.w3.org/Graphics/SVG/1.1/DTD/svg11.dtd">
<!-- Generated by graphviz version 2.38.0 (20140413.2041)
 -->
<!-- Title: IG.Forms.ScalarFunctionEvaluatorControl Pages: 1 -->
<svg width="225pt" height="227pt"
 viewBox="0.00 0.00 224.50 227.00" xmlns="http://www.w3.org/2000/svg" xmlns:xlink="http://www.w3.org/1999/xlink">
<g id="graph0" class="graph" transform="scale(1 1) rotate(0) translate(4 223)">
<title>IG.Forms.ScalarFunctionEvaluatorControl</title>
<polygon fill="white" stroke="none" points="-4,4 -4,-223 220.5,-223 220.5,4 -4,4"/>
<!-- Node1 -->
<g id="node1" class="node"><title>Node1</title>
<g id="a_node1"><a xlink:title="Control for test evaluation of scalar functions.">
<polygon fill="#bfbfbf" stroke="black" points="0,-0.5 0,-30.5 165,-30.5 165,-0.5 0,-0.5"/>
<text text-anchor="start" x="8" y="-18.5" font-family="Helvetica,sans-Serif" font-size="10.00">IG.Forms.ScalarFunctionEvaluator</text>
<text text-anchor="middle" x="82.5" y="-7.5" font-family="Helvetica,sans-Serif" font-size="10.00">Control</text>
</a>
</g>
</g>
<!-- Node2 -->
<g id="node2" class="node"><title>Node2</title>
<g id="a_node2"><a xlink:title=" ">
<polygon fill="white" stroke="#bfbfbf" points="10.5,-199.5 10.5,-218.5 78.5,-218.5 78.5,-199.5 10.5,-199.5"/>
<text text-anchor="middle" x="44.5" y="-206.5" font-family="Helvetica,sans-Serif" font-size="10.00">UserControl</text>
</a>
</g>
</g>
<!-- Node2&#45;&gt;Node1 -->
<g id="edge1" class="edge"><title>Node2&#45;&gt;Node1</title>
<path fill="none" stroke="midnightblue" d="M48.2692,-189.005C55.8827,-150.637 72.9431,-64.662 79.6831,-30.6957"/>
<polygon fill="midnightblue" stroke="midnightblue" points="44.7449,-188.784 46.2315,-199.274 51.611,-190.147 44.7449,-188.784"/>
</g>
<!-- Node3 -->
<g id="node3" class="node"><title>Node3</title>
<g id="a_node3"><a xlink:title=" ">
<polygon fill="white" stroke="#bfbfbf" points="96.5,-199.5 96.5,-218.5 146.5,-218.5 146.5,-199.5 96.5,-199.5"/>
<text text-anchor="middle" x="121.5" y="-206.5" font-family="Helvetica,sans-Serif" font-size="10.00">System</text>
</a>
</g>
</g>
<!-- Node3&#45;&gt;Node1 -->
<g id="edge2" class="edge"><title>Node3&#45;&gt;Node1</title>
<path fill="none" stroke="#9a32cd" stroke-dasharray="5,2" d="M117.632,-189.005C109.818,-150.637 92.3084,-64.662 85.391,-30.6957"/>
<polygon fill="#9a32cd" stroke="#9a32cd" points="114.298,-190.174 119.723,-199.274 121.157,-188.777 114.298,-190.174"/>
<text text-anchor="middle" x="166" y="-173" font-family="Helvetica,sans-Serif" font-size="10.00"> columnValue</text>
<text text-anchor="middle" x="166" y="-162" font-family="Helvetica,sans-Serif" font-size="10.00">label1</text>
<text text-anchor="middle" x="166" y="-151" font-family="Helvetica,sans-Serif" font-size="10.00">btnResetDefault</text>
<text text-anchor="middle" x="166" y="-140" font-family="Helvetica,sans-Serif" font-size="10.00">txtValue</text>
<text text-anchor="start" x="115.5" y="-129" font-family="Helvetica,sans-Serif" font-size="10.00">resetToDefaultToolStrip</text>
<text text-anchor="middle" x="166" y="-118" font-family="Helvetica,sans-Serif" font-size="10.00">MenuItem</text>
<text text-anchor="middle" x="166" y="-107" font-family="Helvetica,sans-Serif" font-size="10.00">columnName</text>
<text text-anchor="middle" x="166" y="-96" font-family="Helvetica,sans-Serif" font-size="10.00">btnCalculate</text>
<text text-anchor="middle" x="166" y="-85" font-family="Helvetica,sans-Serif" font-size="10.00">groupBox1</text>
<text text-anchor="middle" x="166" y="-74" font-family="Helvetica,sans-Serif" font-size="10.00">btnShowDefinition</text>
<text text-anchor="middle" x="166" y="-63" font-family="Helvetica,sans-Serif" font-size="10.00">components</text>
<text text-anchor="middle" x="166" y="-52" font-family="Helvetica,sans-Serif" font-size="10.00">...</text>
</g>
</g>
</svg>
