<?xml version="1.0" encoding="UTF-8" standalone="no"?>
<!DOCTYPE svg PUBLIC "-//W3C//DTD SVG 1.1//EN"
 "http://www.w3.org/Graphics/SVG/1.1/DTD/svg11.dtd">
<!-- Generated by graphviz version 2.38.0 (20140413.2041)
 -->
<!-- Title: IG.Lib.opt.opttest.ParticlePotentialProblem.ConstraintFunctionParticleConstraint Pages: 1 -->
<svg width="284pt" height="218pt"
 viewBox="0.00 0.00 283.50 218.00" xmlns="http://www.w3.org/2000/svg" xmlns:xlink="http://www.w3.org/1999/xlink">
<g id="graph0" class="graph" transform="scale(1 1) rotate(0) translate(4 214)">
<title>IG.Lib.opt.opttest.ParticlePotentialProblem.ConstraintFunctionParticleConstraint</title>
<polygon fill="white" stroke="none" points="-4,4 -4,-214 279.5,-214 279.5,4 -4,4"/>
<!-- Node1 -->
<g id="node1" class="node"><title>Node1</title>
<g id="a_node1"><a xlink:title="Class that returns the objective function (total potential energy) of the specified particle potentia...">
<polygon fill="#bfbfbf" stroke="black" points="99.5,-0.5 99.5,-41.5 275.5,-41.5 275.5,-0.5 99.5,-0.5"/>
<text text-anchor="start" x="107.5" y="-29.5" font-family="Helvetica,sans-Serif" font-size="10.00">IG.Lib.opt.opttest.Particle</text>
<text text-anchor="start" x="107.5" y="-18.5" font-family="Helvetica,sans-Serif" font-size="10.00">PotentialProblem.ConstraintFunction</text>
<text text-anchor="middle" x="187.5" y="-7.5" font-family="Helvetica,sans-Serif" font-size="10.00">ParticleConstraint</text>
</a>
</g>
</g>
<!-- Node2 -->
<g id="node2" class="node"><title>Node2</title>
<g id="a_node2"><a xlink:href="../../d2/d85/classIG_1_1Num_1_1ScalarFunctionBase.html" target="_top" xlink:title="Base class for scalar functions with affine transformation of co&#45;ordinates. The reference function is...">
<polygon fill="white" stroke="black" points="95.5,-78.5 95.5,-97.5 199.5,-97.5 199.5,-78.5 95.5,-78.5"/>
<text text-anchor="middle" x="147.5" y="-85.5" font-family="Helvetica,sans-Serif" font-size="10.00">ScalarFunctionBase</text>
</a>
</g>
</g>
<!-- Node2&#45;&gt;Node1 -->
<g id="edge1" class="edge"><title>Node2&#45;&gt;Node1</title>
<path fill="none" stroke="midnightblue" d="M158.305,-69.4421C163.609,-60.8234 170.015,-50.4127 175.474,-41.5421"/>
<polygon fill="midnightblue" stroke="midnightblue" points="155.155,-67.8829 152.895,-78.2338 161.116,-71.5516 155.155,-67.8829"/>
</g>
<!-- Node3 -->
<g id="node3" class="node"><title>Node3</title>
<g id="a_node3"><a xlink:href="../../d2/d9e/classIG_1_1Num_1_1ScalarFunctionUntransformedBase.html" target="_top" xlink:title="Base class for defining scalar functions without possibility of affine transformation of parameters.">
<polygon fill="white" stroke="black" points="0,-134.5 0,-153.5 167,-153.5 167,-134.5 0,-134.5"/>
<text text-anchor="middle" x="83.5" y="-141.5" font-family="Helvetica,sans-Serif" font-size="10.00">ScalarFunctionUntransformedBase</text>
</a>
</g>
</g>
<!-- Node3&#45;&gt;Node2 -->
<g id="edge2" class="edge"><title>Node3&#45;&gt;Node2</title>
<path fill="none" stroke="midnightblue" d="M101.491,-127.82C112.958,-118.145 127.413,-105.948 137.03,-97.8339"/>
<polygon fill="midnightblue" stroke="midnightblue" points="99.1686,-125.2 93.7827,-134.324 103.683,-130.55 99.1686,-125.2"/>
</g>
<!-- Node4 -->
<g id="node4" class="node"><title>Node4</title>
<g id="a_node4"><a xlink:href="../../d8/d56/interfaceIG_1_1Num_1_1IScalarFunctionUntransformed.html" target="_top" xlink:title="Scalar functions of vector arguments.">
<polygon fill="white" stroke="black" points="82,-190.5 82,-209.5 229,-209.5 229,-190.5 82,-190.5"/>
<text text-anchor="middle" x="155.5" y="-197.5" font-family="Helvetica,sans-Serif" font-size="10.00">IScalarFunctionUntransformed</text>
</a>
</g>
</g>
<!-- Node4&#45;&gt;Node3 -->
<g id="edge3" class="edge"><title>Node4&#45;&gt;Node3</title>
<path fill="none" stroke="midnightblue" d="M135.634,-184.101C122.677,-174.382 106.203,-162.027 95.2785,-153.834"/>
<polygon fill="midnightblue" stroke="midnightblue" points="133.832,-187.124 143.932,-190.324 138.032,-181.524 133.832,-187.124"/>
</g>
<!-- Node5 -->
<g id="node5" class="node"><title>Node5</title>
<g id="a_node5"><a xlink:href="../../dd/d1e/interfaceIG_1_1Num_1_1IScalarFunction.html" target="_top" xlink:title="Scalar functions of vector arguments, with eventual affine transformation of parameters....">
<polygon fill="white" stroke="black" points="185.5,-134.5 185.5,-153.5 269.5,-153.5 269.5,-134.5 185.5,-134.5"/>
<text text-anchor="middle" x="227.5" y="-141.5" font-family="Helvetica,sans-Serif" font-size="10.00">IScalarFunction</text>
</a>
</g>
</g>
<!-- Node4&#45;&gt;Node5 -->
<g id="edge5" class="edge"><title>Node4&#45;&gt;Node5</title>
<path fill="none" stroke="midnightblue" d="M175.366,-184.101C188.323,-174.382 204.797,-162.027 215.721,-153.834"/>
<polygon fill="midnightblue" stroke="midnightblue" points="172.968,-181.524 167.068,-190.324 177.168,-187.124 172.968,-181.524"/>
</g>
<!-- Node5&#45;&gt;Node1 -->
<g id="edge6" class="edge"><title>Node5&#45;&gt;Node1</title>
<path fill="none" stroke="midnightblue" d="M222.463,-124.412C218.827,-111.351 213.667,-93.5114 208.5,-78 204.431,-65.7847 199.376,-52.2643 195.246,-41.569"/>
<polygon fill="midnightblue" stroke="midnightblue" points="219.102,-125.388 225.125,-134.104 225.851,-123.534 219.102,-125.388"/>
</g>
<!-- Node5&#45;&gt;Node2 -->
<g id="edge4" class="edge"><title>Node5&#45;&gt;Node2</title>
<path fill="none" stroke="midnightblue" d="M206.199,-128.622C191.585,-118.757 172.673,-105.992 160.321,-97.6545"/>
<polygon fill="midnightblue" stroke="midnightblue" points="204.4,-131.63 214.647,-134.324 208.316,-125.828 204.4,-131.63"/>
</g>
</g>
</svg>
