<?xml version="1.0" encoding="UTF-8" standalone="no"?>
<!DOCTYPE svg PUBLIC "-//W3C//DTD SVG 1.1//EN"
 "http://www.w3.org/Graphics/SVG/1.1/DTD/svg11.dtd">
<!-- Generated by graphviz version 2.38.0 (20140413.2041)
 -->
<!-- Title: NUnitLite.TextUI Pages: 1 -->
<!--zoomable 163 -->
<svg id="main" version="1.1" xmlns="http://www.w3.org/2000/svg" xmlns:xlink="http://www.w3.org/1999/xlink" xml:space="preserve" onload="init(evt)">
<style type="text/css"><![CDATA[
.edge:hover path { stroke: red; }
.edge:hover polygon { stroke: red; fill: red; }
]]></style>
<script type="text/javascript"><![CDATA[
var edges = document.getElementsByTagName('g');
if (edges && edges.length) {
  for (var i=0;i<edges.length;i++) {
    if (edges[i].id.substr(0,4)=='edge') {
      edges[i].setAttribute('class','edge');
    }
  }
}
]]></script>
        <defs>
                <circle id="rim" cx="0" cy="0" r="7"/>
                <circle id="rim2" cx="0" cy="0" r="3.5"/>
                <g id="zoomPlus">
                        <use xlink:href="#rim" fill="#404040">
                                <set attributeName="fill" to="#808080" begin="zoomplus.mouseover" end="zoomplus.mouseout"/>
                        </use>
                        <path d="M-4,0h8M0,-4v8" fill="none" stroke="white" stroke-width="1.5" pointer-events="none"/>
                </g>
                <g id="zoomMin">
                        <use xlink:href="#rim" fill="#404040">
                                <set attributeName="fill" to="#808080" begin="zoomminus.mouseover" end="zoomminus.mouseout"/>
                        </use>
                        <path d="M-4,0h8" fill="none" stroke="white" stroke-width="1.5" pointer-events="none"/>
                </g>
                <g id="dirArrow">
                        <path fill="none" stroke="white" stroke-width="1.5" d="M0,-3.0v7 M-2.5,-0.5L0,-3.0L2.5,-0.5"/>
                </g>
               <g id="resetDef">
                       <use xlink:href="#rim2" fill="#404040">
                               <set attributeName="fill" to="#808080" begin="reset.mouseover" end="reset.mouseout"/>
                       </use>
               </g>
        </defs>

<script type="text/javascript">
var viewWidth = 736;
var viewHeight = 163;
var sectionId = 'dynsection-0';
</script>
<script xlink:href="../../svgpan.js"/>
<svg id="graph" class="graph">
<g id="viewport">
<title>NUnitLite.TextUI</title>
<polygon fill="white" stroke="none" points="-4,4 -4,-158.5 732,-158.5 732,4 -4,4"/>
<!-- Node1 -->
<g id="node1" class="node"><title>Node1</title>
<g id="a_node1"><a xlink:title=" ">
<polygon fill="#bfbfbf" stroke="black" points="641,-64.5 641,-83.5 728,-83.5 728,-64.5 641,-64.5"/>
<text text-anchor="middle" x="684.5" y="-71.5" font-family="Helvetica,sans-Serif" font-size="10.00">NUnitLite.TextUI</text>
</a>
</g>
</g>
<!-- Node2 -->
<g id="node2" class="node"><title>Node2</title>
<g id="a_node2"><a xlink:href="../../d0/d56/classNUnit_1_1Common_1_1ExtendedTextWriter.html" target="_top" xlink:title="ExtendedTextWriter extends the TextWriter abstract class to support displaying text in color....">
<polygon fill="white" stroke="black" points="394,-124 394,-154 540,-154 540,-124 394,-124"/>
<text text-anchor="start" x="402" y="-142" font-family="Helvetica,sans-Serif" font-size="10.00">NUnit.Common.ExtendedText</text>
<text text-anchor="middle" x="467" y="-131" font-family="Helvetica,sans-Serif" font-size="10.00">Writer</text>
</a>
</g>
</g>
<!-- Node2&#45;&gt;Node1 -->
<g id="edge1" class="edge"><title>Node2&#45;&gt;Node1</title>
<path fill="none" stroke="#9a32cd" stroke-dasharray="5,2" d="M550.193,-121.752C573.94,-115.991 599.721,-108.976 623,-101 637.254,-96.1162 652.762,-89.1605 664.509,-83.5323"/>
<polygon fill="#9a32cd" stroke="#9a32cd" points="549.07,-118.422 540.154,-124.144 550.692,-125.231 549.07,-118.422"/>
<text text-anchor="middle" x="590.5" y="-122" font-family="Helvetica,sans-Serif" font-size="10.00"> _outWriter</text>
</g>
<!-- Node3 -->
<g id="node3" class="node"><title>Node3</title>
<g id="a_node3"><a xlink:title=" ">
<polygon fill="white" stroke="#bfbfbf" points="122.5,-129.5 122.5,-148.5 184.5,-148.5 184.5,-129.5 122.5,-129.5"/>
<text text-anchor="middle" x="153.5" y="-136.5" font-family="Helvetica,sans-Serif" font-size="10.00">TextWriter</text>
</a>
</g>
</g>
<!-- Node3&#45;&gt;Node2 -->
<g id="edge2" class="edge"><title>Node3&#45;&gt;Node2</title>
<path fill="none" stroke="midnightblue" d="M194.802,-139C245.079,-139 331.952,-139 393.825,-139"/>
<polygon fill="midnightblue" stroke="midnightblue" points="194.651,-135.5 184.651,-139 194.651,-142.5 194.651,-135.5"/>
</g>
<!-- Node4 -->
<g id="node4" class="node"><title>Node4</title>
<g id="a_node4"><a xlink:href="../../d1/d00/classNUnitLite_1_1NUnitLiteOptions.html" target="_top" xlink:title="NUnitLiteOptions encapsulates the option settings for NUnitLite. Currently, there are no additional o...">
<polygon fill="white" stroke="black" points="400.5,-85.5 400.5,-104.5 533.5,-104.5 533.5,-85.5 400.5,-85.5"/>
<text text-anchor="middle" x="467" y="-92.5" font-family="Helvetica,sans-Serif" font-size="10.00">NUnitLite.NUnitLiteOptions</text>
</a>
</g>
</g>
<!-- Node4&#45;&gt;Node1 -->
<g id="edge3" class="edge"><title>Node4&#45;&gt;Node1</title>
<path fill="none" stroke="#9a32cd" stroke-dasharray="5,2" d="M543.49,-87.6436C576.066,-84.4692 612.974,-80.8726 640.715,-78.1693"/>
<polygon fill="#9a32cd" stroke="#9a32cd" points="543.148,-84.1603 533.535,-88.6138 543.827,-91.1273 543.148,-84.1603"/>
<text text-anchor="middle" x="590.5" y="-89" font-family="Helvetica,sans-Serif" font-size="10.00"> _options</text>
</g>
<!-- Node5 -->
<g id="node5" class="node"><title>Node5</title>
<g id="a_node5"><a xlink:href="../../da/d32/classNUnit_1_1Common_1_1CommandLineOptions.html" target="_top" xlink:title="CommandLineOptions is the base class the specific option classes used for nunit3&#45;console and nunitlit...">
<polygon fill="white" stroke="black" points="97,-85.5 97,-104.5 210,-104.5 210,-85.5 97,-85.5"/>
<text text-anchor="middle" x="153.5" y="-92.5" font-family="Helvetica,sans-Serif" font-size="10.00">CommandLineOptions</text>
</a>
</g>
</g>
<!-- Node5&#45;&gt;Node4 -->
<g id="edge4" class="edge"><title>Node5&#45;&gt;Node4</title>
<path fill="none" stroke="midnightblue" d="M220.486,-95C273.431,-95 347.386,-95 400.265,-95"/>
<polygon fill="midnightblue" stroke="midnightblue" points="220.19,-91.5001 210.19,-95 220.19,-98.5001 220.19,-91.5001"/>
</g>
<!-- Node6 -->
<g id="node6" class="node"><title>Node6</title>
<g id="a_node6"><a xlink:title=" ">
<polygon fill="white" stroke="#bfbfbf" points="0,-62.5 0,-81.5 60,-81.5 60,-62.5 0,-62.5"/>
<text text-anchor="middle" x="30" y="-69.5" font-family="Helvetica,sans-Serif" font-size="10.00">OptionSet</text>
</a>
</g>
</g>
<!-- Node6&#45;&gt;Node5 -->
<g id="edge5" class="edge"><title>Node6&#45;&gt;Node5</title>
<path fill="none" stroke="midnightblue" d="M70.0029,-79.3833C80.2743,-81.3276 91.5012,-83.4529 102.273,-85.492"/>
<polygon fill="midnightblue" stroke="midnightblue" points="70.5788,-75.9302 60.1023,-77.5091 69.2768,-82.8081 70.5788,-75.9302"/>
</g>
<!-- Node7 -->
<g id="node7" class="node"><title>Node7</title>
<g id="a_node7"><a xlink:href="../../da/d32/classNUnit_1_1Common_1_1CommandLineOptions.html" target="_top" xlink:title="CommandLineOptions is the base class the specific option classes used for nunit3&#45;console and nunitlit...">
<polygon fill="white" stroke="black" points="228,-42 228,-72 376,-72 376,-42 228,-42"/>
<text text-anchor="start" x="236" y="-60" font-family="Helvetica,sans-Serif" font-size="10.00">NUnit.Common.CommandLine</text>
<text text-anchor="middle" x="302" y="-49" font-family="Helvetica,sans-Serif" font-size="10.00">Options</text>
</a>
</g>
</g>
<!-- Node6&#45;&gt;Node7 -->
<g id="edge7" class="edge"><title>Node6&#45;&gt;Node7</title>
<path fill="none" stroke="midnightblue" d="M70.3241,-69.8153C111.505,-67.5275 177.124,-63.882 227.865,-61.0631"/>
<polygon fill="midnightblue" stroke="midnightblue" points="69.9417,-66.3311 60.1513,-70.3805 70.33,-73.3203 69.9417,-66.3311"/>
</g>
<!-- Node7&#45;&gt;Node1 -->
<g id="edge6" class="edge"><title>Node7&#45;&gt;Node1</title>
<path fill="none" stroke="#9a32cd" stroke-dasharray="5,2" d="M386.258,-59.2223C431.707,-60.5835 488.963,-62.5387 540,-65 573.909,-66.6353 612.289,-69.0731 640.82,-70.9993"/>
<polygon fill="#9a32cd" stroke="#9a32cd" points="386.255,-55.7208 376.156,-58.9237 386.049,-62.7178 386.255,-55.7208"/>
<text text-anchor="middle" x="467" y="-68" font-family="Helvetica,sans-Serif" font-size="10.00"> _options</text>
</g>
<!-- Node8 -->
<g id="node8" class="node"><title>Node8</title>
<g id="a_node8"><a xlink:title=" ">
<polygon fill="white" stroke="#bfbfbf" points="446.5,-0.5 446.5,-19.5 487.5,-19.5 487.5,-0.5 446.5,-0.5"/>
<text text-anchor="middle" x="467" y="-7.5" font-family="Helvetica,sans-Serif" font-size="10.00">static</text>
</a>
</g>
</g>
<!-- Node8&#45;&gt;Node1 -->
<g id="edge8" class="edge"><title>Node8&#45;&gt;Node1</title>
<path fill="none" stroke="#9a32cd" stroke-dasharray="5,2" d="M497.903,-9.85336C529.925,-10.643 581.703,-14.6832 623,-31 642.655,-38.7658 661.956,-54.2289 673.29,-64.34"/>
<polygon fill="#9a32cd" stroke="#9a32cd" points="497.898,-6.35295 487.844,-9.69715 497.789,-13.3521 497.898,-6.35295"/>
<text text-anchor="middle" x="590.5" y="-34" font-family="Helvetica,sans-Serif" font-size="10.00"> TRIM_CHARS</text>
</g>
</g>
</svg>
        <g id="navigator" transform="translate(0 0)" fill="#404254">
                <rect fill="#f2f5e9" fill-opacity="0.5" stroke="#606060" stroke-width=".5" x="0" y="0" width="60" height="60"/>
                <use id="zoomplus" xlink:href="#zoomPlus" x="17" y="9" onmousedown="handleZoom(evt,'in')"/>
                <use id="zoomminus" xlink:href="#zoomMin" x="42" y="9" onmousedown="handleZoom(evt,'out')"/>
                <use id="reset" xlink:href="#resetDef" x="30" y="36" onmousedown="handleReset()"/>
                <g id="arrowUp" xlink:href="#dirArrow" transform="translate(30 24)" onmousedown="handlePan(0,-1)">
                  <use xlink:href="#rim" fill="#404040">
                        <set attributeName="fill" to="#808080" begin="arrowUp.mouseover" end="arrowUp.mouseout"/>
                  </use>
                  <path fill="none" stroke="white" stroke-width="1.5" d="M0,-3.0v7 M-2.5,-0.5L0,-3.0L2.5,-0.5"/>
                </g>
                <g id="arrowRight" xlink:href="#dirArrow" transform="rotate(90) translate(36 -43)" onmousedown="handlePan(1,0)">
                  <use xlink:href="#rim" fill="#404040">
                        <set attributeName="fill" to="#808080" begin="arrowRight.mouseover" end="arrowRight.mouseout"/>
                  </use>
                  <path fill="none" stroke="white" stroke-width="1.5" d="M0,-3.0v7 M-2.5,-0.5L0,-3.0L2.5,-0.5"/>
                </g>
                <g id="arrowDown" xlink:href="#dirArrow" transform="rotate(180) translate(-30 -48)" onmousedown="handlePan(0,1)">
                  <use xlink:href="#rim" fill="#404040">
                        <set attributeName="fill" to="#808080" begin="arrowDown.mouseover" end="arrowDown.mouseout"/>
                  </use>
                  <path fill="none" stroke="white" stroke-width="1.5" d="M0,-3.0v7 M-2.5,-0.5L0,-3.0L2.5,-0.5"/>
                </g>
                <g id="arrowLeft" xlink:href="#dirArrow" transform="rotate(270) translate(-36 17)" onmousedown="handlePan(-1,0)">
                  <use xlink:href="#rim" fill="#404040">
                        <set attributeName="fill" to="#808080" begin="arrowLeft.mouseover" end="arrowLeft.mouseout"/>
                  </use>
                  <path fill="none" stroke="white" stroke-width="1.5" d="M0,-3.0v7 M-2.5,-0.5L0,-3.0L2.5,-0.5"/>
                </g>
        </g>
        <svg viewBox="0 0 15 15" width="100%" height="30px" preserveAspectRatio="xMaxYMin meet">
         <g id="arrow_out" transform="scale(0.3 0.3)">
          <a xlink:href="classNUnitLite_1_1TextUI__coll__graph_org.svg" target="_base">
           <rect id="button" ry="5" rx="5" y="6" x="6" height="38" width="38"
                fill="#f2f5e9" fill-opacity="0.5" stroke="#606060" stroke-width="1.0"/>
           <path id="arrow"
             d="M 11.500037,31.436501 C 11.940474,20.09759 22.043105,11.32322 32.158766,21.979434 L 37.068811,17.246167 C 37.068811,17.246167 37.088388,32 37.088388,32 L 22.160133,31.978069 C 22.160133,31.978069 26.997745,27.140456 26.997745,27.140456 C 18.528582,18.264221 13.291696,25.230495 11.500037,31.436501 z"
             style="fill:#404040;"/>
          </a>
         </g>
        </svg>
</svg>
