<?xml version="1.0" encoding="UTF-8" standalone="no"?>
<!DOCTYPE svg PUBLIC "-//W3C//DTD SVG 1.1//EN"
 "http://www.w3.org/Graphics/SVG/1.1/DTD/svg11.dtd">
<!-- Generated by graphviz version 2.38.0 (20140413.2041)
 -->
<!-- Title: IG.Web.IWSBase Pages: 1 -->
<!--zoomable 314 -->
<svg id="main" version="1.1" xmlns="http://www.w3.org/2000/svg" xmlns:xlink="http://www.w3.org/1999/xlink" xml:space="preserve" onload="init(evt)">
<style type="text/css"><![CDATA[
.edge:hover path { stroke: red; }
.edge:hover polygon { stroke: red; fill: red; }
]]></style>
<script type="text/javascript"><![CDATA[
var edges = document.getElementsByTagName('g');
if (edges && edges.length) {
  for (var i=0;i<edges.length;i++) {
    if (edges[i].id.substr(0,4)=='edge') {
      edges[i].setAttribute('class','edge');
    }
  }
}
]]></script>
        <defs>
                <circle id="rim" cx="0" cy="0" r="7"/>
                <circle id="rim2" cx="0" cy="0" r="3.5"/>
                <g id="zoomPlus">
                        <use xlink:href="#rim" fill="#404040">
                                <set attributeName="fill" to="#808080" begin="zoomplus.mouseover" end="zoomplus.mouseout"/>
                        </use>
                        <path d="M-4,0h8M0,-4v8" fill="none" stroke="white" stroke-width="1.5" pointer-events="none"/>
                </g>
                <g id="zoomMin">
                        <use xlink:href="#rim" fill="#404040">
                                <set attributeName="fill" to="#808080" begin="zoomminus.mouseover" end="zoomminus.mouseout"/>
                        </use>
                        <path d="M-4,0h8" fill="none" stroke="white" stroke-width="1.5" pointer-events="none"/>
                </g>
                <g id="dirArrow">
                        <path fill="none" stroke="white" stroke-width="1.5" d="M0,-3.0v7 M-2.5,-0.5L0,-3.0L2.5,-0.5"/>
                </g>
               <g id="resetDef">
                       <use xlink:href="#rim2" fill="#404040">
                               <set attributeName="fill" to="#808080" begin="reset.mouseover" end="reset.mouseout"/>
                       </use>
               </g>
        </defs>

<script type="text/javascript">
var viewWidth = 599;
var viewHeight = 314;
var sectionId = 'dynsection-0';
</script>
<script xlink:href="../../svgpan.js"/>
<svg id="graph" class="graph">
<g id="viewport">
<title>IG.Web.IWSBase</title>
<polygon fill="white" stroke="none" points="-4,4 -4,-309.965 595,-309.965 595,4 -4,4"/>
<!-- Node1 -->
<g id="node1" class="node"><title>Node1</title>
<g id="a_node1"><a xlink:title="Interface for basic web service.">
<polygon fill="#bfbfbf" stroke="black" points="0,-145.566 0,-164.566 94,-164.566 94,-145.566 0,-145.566"/>
<text text-anchor="middle" x="47" y="-152.566" font-family="Helvetica,sans-Serif" font-size="10.00">IG.Web.IWSBase</text>
</a>
</g>
</g>
<!-- Node2 -->
<g id="node2" class="node"><title>Node2</title>
<g id="a_node2"><a xlink:href="../../d3/d6b/interfaceIG_1_1Web_1_1IWsDevelop.html" target="_top" xlink:title="Interface for development web services.">
<polygon fill="white" stroke="black" points="142,-183.566 142,-202.566 246,-202.566 246,-183.566 142,-183.566"/>
<text text-anchor="middle" x="194" y="-190.566" font-family="Helvetica,sans-Serif" font-size="10.00">IG.Web.IWsDevelop</text>
</a>
</g>
</g>
<!-- Node1&#45;&gt;Node2 -->
<g id="edge1" class="edge"><title>Node1&#45;&gt;Node2</title>
<path fill="none" stroke="midnightblue" d="M94.4928,-167.251C114.624,-172.526 137.838,-178.61 156.673,-183.546"/>
<polygon fill="midnightblue" stroke="midnightblue" points="95.1503,-163.805 84.5896,-164.655 93.3757,-170.576 95.1503,-163.805"/>
</g>
<!-- Node3 -->
<g id="node3" class="node"><title>Node3</title>
<g id="a_node3"><a xlink:href="../../d3/d6d/interfaceIG_1_1Web_1_1IWsDevelop1.html" target="_top" xlink:title="Interface for higher level development web services.">
<polygon fill="white" stroke="black" points="303.5,-221.566 303.5,-240.566 412.5,-240.566 412.5,-221.566 303.5,-221.566"/>
<text text-anchor="middle" x="358" y="-228.566" font-family="Helvetica,sans-Serif" font-size="10.00">IG.Web.IWsDevelop1</text>
</a>
</g>
</g>
<!-- Node1&#45;&gt;Node3 -->
<g id="edge11" class="edge"><title>Node1&#45;&gt;Node3</title>
<path fill="none" stroke="midnightblue" d="M65.8893,-171.711C81.5235,-185.158 105.5,-203.248 130,-212.066 186.56,-232.423 255.982,-235.304 303.052,-234.286"/>
<polygon fill="midnightblue" stroke="midnightblue" points="67.9133,-168.827 58.1114,-164.806 63.266,-174.062 67.9133,-168.827"/>
</g>
<!-- Node4 -->
<g id="node4" class="node"><title>Node4</title>
<g id="a_node4"><a xlink:href="../../da/dbe/classIG_1_1Web_1_1WSDevelop1.html" target="_top" xlink:title="Web service class.">
<polygon fill="white" stroke="black" points="470.5,-259.566 470.5,-278.566 578.5,-278.566 578.5,-259.566 470.5,-259.566"/>
<text text-anchor="middle" x="524.5" y="-266.566" font-family="Helvetica,sans-Serif" font-size="10.00">IG.Web.WSDevelop1</text>
</a>
</g>
</g>
<!-- Node1&#45;&gt;Node4 -->
<g id="edge18" class="edge"><title>Node1&#45;&gt;Node4</title>
<path fill="none" stroke="midnightblue" d="M56.3141,-174.034C68.5097,-199.39 93.7953,-243.62 130,-265.066 247.562,-334.704 421.607,-297.974 492.126,-278.572"/>
<polygon fill="midnightblue" stroke="midnightblue" points="59.3922,-172.351 52.0244,-164.738 53.0362,-175.284 59.3922,-172.351"/>
</g>
<!-- Node5 -->
<g id="node5" class="node"><title>Node5</title>
<g id="a_node5"><a xlink:href="../../d4/d76/classIG_1_1Web_1_1WSDevelop1Class.html" target="_top" xlink:title="Web service class.">
<polygon fill="white" stroke="black" points="458,-145.566 458,-164.566 591,-164.566 591,-145.566 458,-145.566"/>
<text text-anchor="middle" x="524.5" y="-152.566" font-family="Helvetica,sans-Serif" font-size="10.00">IG.Web.WSDevelop1Class</text>
</a>
</g>
</g>
<!-- Node1&#45;&gt;Node5 -->
<g id="edge19" class="edge"><title>Node1&#45;&gt;Node5</title>
<path fill="none" stroke="midnightblue" d="M65.1914,-138.356C80.6996,-124.534 104.874,-105.941 130,-98.0662 267.338,-55.0218 441.987,-119.903 502.07,-145.462"/>
<polygon fill="midnightblue" stroke="midnightblue" points="62.4871,-136.089 57.5163,-145.446 67.2369,-141.231 62.4871,-136.089"/>
</g>
<!-- Node7 -->
<g id="node7" class="node"><title>Node7</title>
<g id="a_node7"><a xlink:href="../../d6/d56/classIG_1_1Web_1_1WSDevelop.html" target="_top" xlink:title="Web service class.">
<polygon fill="white" stroke="black" points="306.5,-259.566 306.5,-278.566 409.5,-278.566 409.5,-259.566 306.5,-259.566"/>
<text text-anchor="middle" x="358" y="-266.566" font-family="Helvetica,sans-Serif" font-size="10.00">IG.Web.WSDevelop</text>
</a>
</g>
</g>
<!-- Node1&#45;&gt;Node7 -->
<g id="edge17" class="edge"><title>Node1&#45;&gt;Node7</title>
<path fill="none" stroke="midnightblue" d="M60.5426,-172.957C74.9562,-191.998 100.462,-221.365 130,-236.066 185.796,-263.836 258.207,-269.986 306.067,-270.571"/>
<polygon fill="midnightblue" stroke="midnightblue" points="63.2902,-170.785 54.5571,-164.787 57.6433,-174.922 63.2902,-170.785"/>
</g>
<!-- Node8 -->
<g id="node8" class="node"><title>Node8</title>
<g id="a_node8"><a xlink:href="../../d0/ddd/classIG_1_1Web_1_1WSDevelopClass.html" target="_top" xlink:title="Web service class.">
<polygon fill="white" stroke="black" points="294,-145.566 294,-164.566 422,-164.566 422,-145.566 294,-145.566"/>
<text text-anchor="middle" x="358" y="-152.566" font-family="Helvetica,sans-Serif" font-size="10.00">IG.Web.WSDevelopClass</text>
</a>
</g>
</g>
<!-- Node1&#45;&gt;Node8 -->
<g id="edge20" class="edge"><title>Node1&#45;&gt;Node8</title>
<path fill="none" stroke="midnightblue" d="M104.59,-155.066C158.088,-155.066 238.226,-155.066 293.795,-155.066"/>
<polygon fill="midnightblue" stroke="midnightblue" points="104.26,-151.566 94.2604,-155.066 104.26,-158.566 104.26,-151.566"/>
</g>
<!-- Node10 -->
<g id="node10" class="node"><title>Node10</title>
<g id="a_node10"><a xlink:href="../../d8/dbb/classIG_1_1Web_1_1WSBaseClass.html" target="_top" xlink:title="Base class for IGLib webservices.">
<polygon fill="white" stroke="black" points="136,-107.566 136,-126.566 252,-126.566 252,-107.566 136,-107.566"/>
<text text-anchor="middle" x="194" y="-114.566" font-family="Helvetica,sans-Serif" font-size="10.00">IG.Web.WSBaseClass</text>
</a>
</g>
</g>
<!-- Node1&#45;&gt;Node10 -->
<g id="edge12" class="edge"><title>Node1&#45;&gt;Node10</title>
<path fill="none" stroke="midnightblue" d="M94.4928,-142.882C114.624,-137.606 137.838,-131.522 156.673,-126.586"/>
<polygon fill="midnightblue" stroke="midnightblue" points="93.3757,-139.556 84.5896,-145.477 95.1503,-146.328 93.3757,-139.556"/>
</g>
<!-- Node11 -->
<g id="node11" class="node"><title>Node11</title>
<g id="a_node11"><a xlink:href="../../d9/db0/classIG_1_1Web_1_1WSBaseRef.html" target="_top" xlink:title="Class for referencing a web service based on the WSBaseClass.">
<polygon fill="white" stroke="black" points="305,-12.5662 305,-31.5662 411,-31.5662 411,-12.5662 305,-12.5662"/>
<text text-anchor="middle" x="358" y="-19.5662" font-family="Helvetica,sans-Serif" font-size="10.00">IG.Web.WSBaseRef</text>
</a>
</g>
</g>
<!-- Node1&#45;&gt;Node11 -->
<g id="edge14" class="edge"><title>Node1&#45;&gt;Node11</title>
<path fill="none" stroke="midnightblue" d="M53.412,-135.376C63.0333,-104.686 86.3337,-46.4427 130,-22.0662 191.251,12.1271 277.07,-1.22963 323.68,-12.5432"/>
<polygon fill="midnightblue" stroke="midnightblue" points="49.9503,-134.74 50.4738,-145.322 56.6635,-136.723 49.9503,-134.74"/>
</g>
<!-- Node12 -->
<g id="node12" class="node"><title>Node12</title>
<g id="a_node12"><a xlink:href="../../d8/d5a/classIG_1_1Web_1_1WSBaseRefBase.html" target="_top" xlink:title="Intermediate proxy class to a web service based on the WSBaseClass.">
<polygon fill="white" stroke="black" points="130,-31.5662 130,-50.5662 258,-50.5662 258,-31.5662 130,-31.5662"/>
<text text-anchor="middle" x="194" y="-38.5662" font-family="Helvetica,sans-Serif" font-size="10.00">IG.Web.WSBaseRefBase</text>
</a>
</g>
</g>
<!-- Node1&#45;&gt;Node12 -->
<g id="edge15" class="edge"><title>Node1&#45;&gt;Node12</title>
<path fill="none" stroke="midnightblue" d="M60.3937,-137.021C74.9742,-116.99 100.912,-84.8782 130,-65.0662 138.803,-59.0705 149.308,-54.3047 159.193,-50.6522"/>
<polygon fill="midnightblue" stroke="midnightblue" points="57.4599,-135.108 54.5231,-145.287 63.167,-139.161 57.4599,-135.108"/>
</g>
<!-- Node2&#45;&gt;Node3 -->
<g id="edge2" class="edge"><title>Node2&#45;&gt;Node3</title>
<path fill="none" stroke="midnightblue" d="M245.715,-204.962C268.486,-210.304 294.987,-216.52 316.415,-221.546"/>
<polygon fill="midnightblue" stroke="midnightblue" points="246.415,-201.531 235.879,-202.655 244.816,-208.346 246.415,-201.531"/>
</g>
<!-- Node2&#45;&gt;Node7 -->
<g id="edge6" class="edge"><title>Node2&#45;&gt;Node7</title>
<path fill="none" stroke="midnightblue" d="M217.734,-208.172C237.312,-220.68 266.65,-238.255 294,-250.066 302.285,-253.644 311.457,-256.823 320.178,-259.509"/>
<polygon fill="midnightblue" stroke="midnightblue" points="219.51,-205.152 209.214,-202.653 215.704,-211.027 219.51,-205.152"/>
</g>
<!-- Node2&#45;&gt;Node8 -->
<g id="edge8" class="edge"><title>Node2&#45;&gt;Node8</title>
<path fill="none" stroke="midnightblue" d="M245.715,-181.17C268.486,-175.829 294.987,-169.613 316.415,-164.586"/>
<polygon fill="midnightblue" stroke="midnightblue" points="244.816,-177.786 235.879,-183.477 246.415,-184.601 244.816,-177.786"/>
</g>
<!-- Node9 -->
<g id="node9" class="node"><title>Node9</title>
<g id="a_node9"><a xlink:href="../../da/d67/classIG_1_1Web_1_1WSDevelopRef.html" target="_top" xlink:title="Class for referencing a web service based on the WSDevelopClass.">
<polygon fill="white" stroke="black" points="299.5,-183.566 299.5,-202.566 416.5,-202.566 416.5,-183.566 299.5,-183.566"/>
<text text-anchor="middle" x="358" y="-190.566" font-family="Helvetica,sans-Serif" font-size="10.00">IG.Web.WSDevelopRef</text>
</a>
</g>
</g>
<!-- Node2&#45;&gt;Node9 -->
<g id="edge10" class="edge"><title>Node2&#45;&gt;Node9</title>
<path fill="none" stroke="midnightblue" d="M256.345,-193.066C270.44,-193.066 285.381,-193.066 299.315,-193.066"/>
<polygon fill="midnightblue" stroke="midnightblue" points="256.258,-189.566 246.258,-193.066 256.258,-196.566 256.258,-189.566"/>
</g>
<!-- Node3&#45;&gt;Node4 -->
<g id="edge3" class="edge"><title>Node3&#45;&gt;Node4</title>
<path fill="none" stroke="midnightblue" d="M410.497,-242.962C433.62,-248.304 460.53,-254.52 482.288,-259.546"/>
<polygon fill="midnightblue" stroke="midnightblue" points="411.042,-239.496 400.51,-240.655 409.466,-246.316 411.042,-239.496"/>
</g>
<!-- Node3&#45;&gt;Node5 -->
<g id="edge4" class="edge"><title>Node3&#45;&gt;Node5</title>
<path fill="none" stroke="midnightblue" d="M405.097,-218.445C410.857,-216.495 416.613,-214.359 422,-212.066 454.358,-198.298 489.62,-176.913 508.889,-164.626"/>
<polygon fill="midnightblue" stroke="midnightblue" points="403.91,-215.15 395.464,-221.547 406.055,-221.814 403.91,-215.15"/>
</g>
<!-- Node6 -->
<g id="node6" class="node"><title>Node6</title>
<g id="a_node6"><a xlink:href="../../d6/d6f/classIG_1_1Web_1_1WSDevelop1Ref.html" target="_top" xlink:title="Class for referencing a web service based on the WSDevelopClass.">
<polygon fill="white" stroke="black" points="463.5,-221.566 463.5,-240.566 585.5,-240.566 585.5,-221.566 463.5,-221.566"/>
<text text-anchor="middle" x="524.5" y="-228.566" font-family="Helvetica,sans-Serif" font-size="10.00">IG.Web.WSDevelop1Ref</text>
</a>
</g>
</g>
<!-- Node3&#45;&gt;Node6 -->
<g id="edge5" class="edge"><title>Node3&#45;&gt;Node6</title>
<path fill="none" stroke="midnightblue" d="M422.865,-231.066C436.148,-231.066 450.106,-231.066 463.253,-231.066"/>
<polygon fill="midnightblue" stroke="midnightblue" points="422.863,-227.566 412.863,-231.066 422.863,-234.566 422.863,-227.566"/>
</g>
<!-- Node7&#45;&gt;Node4 -->
<g id="edge7" class="edge"><title>Node7&#45;&gt;Node4</title>
<path fill="none" stroke="midnightblue" d="M419.842,-269.066C436.437,-269.066 454.281,-269.066 470.407,-269.066"/>
<polygon fill="midnightblue" stroke="midnightblue" points="419.698,-265.566 409.698,-269.066 419.698,-272.566 419.698,-265.566"/>
</g>
<!-- Node8&#45;&gt;Node5 -->
<g id="edge9" class="edge"><title>Node8&#45;&gt;Node5</title>
<path fill="none" stroke="midnightblue" d="M432.377,-155.066C440.851,-155.066 449.451,-155.066 457.813,-155.066"/>
<polygon fill="midnightblue" stroke="midnightblue" points="432.13,-151.566 422.13,-155.066 432.13,-158.566 432.13,-151.566"/>
</g>
<!-- Node10&#45;&gt;Node8 -->
<g id="edge13" class="edge"><title>Node10&#45;&gt;Node8</title>
<path fill="none" stroke="midnightblue" d="M245.715,-128.962C268.486,-134.304 294.987,-140.52 316.415,-145.546"/>
<polygon fill="midnightblue" stroke="midnightblue" points="246.415,-125.531 235.879,-126.655 244.816,-132.346 246.415,-125.531"/>
</g>
<!-- Node12&#45;&gt;Node11 -->
<g id="edge16" class="edge"><title>Node12&#45;&gt;Node11</title>
<path fill="none" stroke="midnightblue" d="M268.348,-32.4636C280.648,-31.021 293.185,-29.5506 304.812,-28.187"/>
<polygon fill="midnightblue" stroke="midnightblue" points="267.621,-29.0248 258.097,-33.6659 268.437,-35.9771 267.621,-29.0248"/>
</g>
</g>
</svg>
        <g id="navigator" transform="translate(0 0)" fill="#404254">
                <rect fill="#f2f5e9" fill-opacity="0.5" stroke="#606060" stroke-width=".5" x="0" y="0" width="60" height="60"/>
                <use id="zoomplus" xlink:href="#zoomPlus" x="17" y="9" onmousedown="handleZoom(evt,'in')"/>
                <use id="zoomminus" xlink:href="#zoomMin" x="42" y="9" onmousedown="handleZoom(evt,'out')"/>
                <use id="reset" xlink:href="#resetDef" x="30" y="36" onmousedown="handleReset()"/>
                <g id="arrowUp" xlink:href="#dirArrow" transform="translate(30 24)" onmousedown="handlePan(0,-1)">
                  <use xlink:href="#rim" fill="#404040">
                        <set attributeName="fill" to="#808080" begin="arrowUp.mouseover" end="arrowUp.mouseout"/>
                  </use>
                  <path fill="none" stroke="white" stroke-width="1.5" d="M0,-3.0v7 M-2.5,-0.5L0,-3.0L2.5,-0.5"/>
                </g>
                <g id="arrowRight" xlink:href="#dirArrow" transform="rotate(90) translate(36 -43)" onmousedown="handlePan(1,0)">
                  <use xlink:href="#rim" fill="#404040">
                        <set attributeName="fill" to="#808080" begin="arrowRight.mouseover" end="arrowRight.mouseout"/>
                  </use>
                  <path fill="none" stroke="white" stroke-width="1.5" d="M0,-3.0v7 M-2.5,-0.5L0,-3.0L2.5,-0.5"/>
                </g>
                <g id="arrowDown" xlink:href="#dirArrow" transform="rotate(180) translate(-30 -48)" onmousedown="handlePan(0,1)">
                  <use xlink:href="#rim" fill="#404040">
                        <set attributeName="fill" to="#808080" begin="arrowDown.mouseover" end="arrowDown.mouseout"/>
                  </use>
                  <path fill="none" stroke="white" stroke-width="1.5" d="M0,-3.0v7 M-2.5,-0.5L0,-3.0L2.5,-0.5"/>
                </g>
                <g id="arrowLeft" xlink:href="#dirArrow" transform="rotate(270) translate(-36 17)" onmousedown="handlePan(-1,0)">
                  <use xlink:href="#rim" fill="#404040">
                        <set attributeName="fill" to="#808080" begin="arrowLeft.mouseover" end="arrowLeft.mouseout"/>
                  </use>
                  <path fill="none" stroke="white" stroke-width="1.5" d="M0,-3.0v7 M-2.5,-0.5L0,-3.0L2.5,-0.5"/>
                </g>
        </g>
        <svg viewBox="0 0 15 15" width="100%" height="30px" preserveAspectRatio="xMaxYMin meet">
         <g id="arrow_out" transform="scale(0.3 0.3)">
          <a xlink:href="interfaceIG_1_1Web_1_1IWSBase__inherit__graph_org.svg" target="_base">
           <rect id="button" ry="5" rx="5" y="6" x="6" height="38" width="38"
                fill="#f2f5e9" fill-opacity="0.5" stroke="#606060" stroke-width="1.0"/>
           <path id="arrow"
             d="M 11.500037,31.436501 C 11.940474,20.09759 22.043105,11.32322 32.158766,21.979434 L 37.068811,17.246167 C 37.068811,17.246167 37.088388,32 37.088388,32 L 22.160133,31.978069 C 22.160133,31.978069 26.997745,27.140456 26.997745,27.140456 C 18.528582,18.264221 13.291696,25.230495 11.500037,31.436501 z"
             style="fill:#404040;"/>
          </a>
         </g>
        </svg>
</svg>
