<?xml version="1.0" encoding="UTF-8" standalone="no"?>
<!DOCTYPE svg PUBLIC "-//W3C//DTD SVG 1.1//EN"
 "http://www.w3.org/Graphics/SVG/1.1/DTD/svg11.dtd">
<!-- Generated by graphviz version 2.38.0 (20140413.2041)
 -->
<!-- Title: IG.Lib.MsgConstFinancialTransaction Pages: 1 -->
<svg width="454pt" height="334pt"
 viewBox="0.00 0.00 453.50 334.00" xmlns="http://www.w3.org/2000/svg" xmlns:xlink="http://www.w3.org/1999/xlink">
<g id="graph0" class="graph" transform="scale(1 1) rotate(0) translate(4 330)">
<title>IG.Lib.MsgConstFinancialTransaction</title>
<polygon fill="white" stroke="none" points="-4,4 -4,-330 449.5,-330 449.5,4 -4,4"/>
<!-- Node1 -->
<g id="node1" class="node"><title>Node1</title>
<g id="a_node1"><a xlink:title="Constants related to the ObservationEvent msg. Remark: class MsgConst was composed of different parts...">
<polygon fill="#bfbfbf" stroke="black" points="35.5,-0.5 35.5,-30.5 163.5,-30.5 163.5,-0.5 35.5,-0.5"/>
<text text-anchor="start" x="43.5" y="-18.5" font-family="Helvetica,sans-Serif" font-size="10.00">IG.Lib.MsgConstFinancial</text>
<text text-anchor="middle" x="99.5" y="-7.5" font-family="Helvetica,sans-Serif" font-size="10.00">Transaction</text>
</a>
</g>
</g>
<!-- Node2 -->
<g id="node2" class="node"><title>Node2</title>
<g id="a_node2"><a xlink:href="../../da/da0/classIG_1_1Lib_1_1MsgConstObservationEvent.html" target="_top" xlink:title="Constants related to the ObservationEvent msg. Remark: class MsgConst was composed of different parts...">
<polygon fill="white" stroke="black" points="31.5,-68.5 31.5,-87.5 167.5,-87.5 167.5,-68.5 31.5,-68.5"/>
<text text-anchor="middle" x="99.5" y="-75.5" font-family="Helvetica,sans-Serif" font-size="10.00">MsgConstObservationEvent</text>
</a>
</g>
</g>
<!-- Node2&#45;&gt;Node1 -->
<g id="edge1" class="edge"><title>Node2&#45;&gt;Node1</title>
<path fill="none" stroke="midnightblue" d="M99.5,-58.2154C99.5,-49.3565 99.5,-38.9577 99.5,-30.7587"/>
<polygon fill="midnightblue" stroke="midnightblue" points="96.0001,-58.3318 99.5,-68.3318 103,-58.3319 96.0001,-58.3318"/>
</g>
<!-- Node3 -->
<g id="node3" class="node"><title>Node3</title>
<g id="a_node3"><a xlink:href="../../db/db8/classIG_1_1Lib_1_1MsgConstObservationOrder.html" target="_top" xlink:title="Constants related to the ObservationOrder msg. Remark: class MsgConst was composed of different parts...">
<polygon fill="white" stroke="black" points="31.5,-125.5 31.5,-144.5 167.5,-144.5 167.5,-125.5 31.5,-125.5"/>
<text text-anchor="middle" x="99.5" y="-132.5" font-family="Helvetica,sans-Serif" font-size="10.00">MsgConstObservationOrder</text>
</a>
</g>
</g>
<!-- Node3&#45;&gt;Node2 -->
<g id="edge2" class="edge"><title>Node3&#45;&gt;Node2</title>
<path fill="none" stroke="midnightblue" d="M99.5,-115.117C99.5,-105.817 99.5,-95.0557 99.5,-87.7149"/>
<polygon fill="midnightblue" stroke="midnightblue" points="96.0001,-115.406 99.5,-125.406 103,-115.406 96.0001,-115.406"/>
</g>
<!-- Node4 -->
<g id="node4" class="node"><title>Node4</title>
<g id="a_node4"><a xlink:href="../../d5/de1/classIG_1_1Lib_1_1MsgConstCommon.html" target="_top" xlink:title="Common Constants related to messages sent with BIS. Remark: class MsgConst is composed of different p...">
<polygon fill="white" stroke="black" points="14.5,-192.5 14.5,-211.5 114.5,-211.5 114.5,-192.5 14.5,-192.5"/>
<text text-anchor="middle" x="64.5" y="-199.5" font-family="Helvetica,sans-Serif" font-size="10.00">MsgConstCommon</text>
</a>
</g>
</g>
<!-- Node4&#45;&gt;Node3 -->
<g id="edge3" class="edge"><title>Node4&#45;&gt;Node3</title>
<path fill="none" stroke="midnightblue" d="M74.1043,-183.163C80.8541,-170.628 89.5867,-154.41 94.8545,-144.627"/>
<polygon fill="midnightblue" stroke="midnightblue" points="70.8797,-181.77 69.2203,-192.234 77.043,-185.088 70.8797,-181.77"/>
</g>
<!-- Node5 -->
<g id="node5" class="node"><title>Node5</title>
<g id="a_node5"><a xlink:href="../../db/db1/interfaceIG_1_1Lib_1_1IReporter.html" target="_top" xlink:title="Interface from which majority of reporters inherit. Includes generic reporting functionality plus tra...">
<polygon fill="white" stroke="black" points="132.5,-192.5 132.5,-211.5 216.5,-211.5 216.5,-192.5 132.5,-192.5"/>
<text text-anchor="middle" x="174.5" y="-199.5" font-family="Helvetica,sans-Serif" font-size="10.00">IG.Lib.IReporter</text>
</a>
</g>
</g>
<!-- Node5&#45;&gt;Node3 -->
<g id="edge4" class="edge"><title>Node5&#45;&gt;Node3</title>
<path fill="none" stroke="#9a32cd" stroke-dasharray="5,2" d="M156.45,-185.356C141.705,-172.578 121.413,-154.992 109.455,-144.627"/>
<polygon fill="#9a32cd" stroke="#9a32cd" points="154.536,-188.329 164.385,-192.234 159.121,-183.04 154.536,-188.329"/>
<text text-anchor="middle" x="148.5" y="-166" font-family="Helvetica,sans-Serif" font-size="10.00"> _R</text>
</g>
<!-- Node6 -->
<g id="node6" class="node"><title>Node6</title>
<g id="a_node6"><a xlink:title=" ">
<polygon fill="white" stroke="#bfbfbf" points="0,-249.5 0,-268.5 67,-268.5 67,-249.5 0,-249.5"/>
<text text-anchor="middle" x="33.5" y="-256.5" font-family="Helvetica,sans-Serif" font-size="10.00">IDisposable</text>
</a>
</g>
</g>
<!-- Node6&#45;&gt;Node5 -->
<g id="edge5" class="edge"><title>Node6&#45;&gt;Node5</title>
<path fill="none" stroke="midnightblue" d="M55.2229,-243.807C63.2547,-238.973 72.5787,-233.828 81.5,-230 99.2679,-222.376 119.84,-216.153 137.111,-211.611"/>
<polygon fill="midnightblue" stroke="midnightblue" points="53.1296,-240.988 46.4894,-249.243 56.8287,-246.931 53.1296,-240.988"/>
</g>
<!-- Node7 -->
<g id="node7" class="node"><title>Node7</title>
<g id="a_node7"><a xlink:href="../../de/d0d/interfaceIG_1_1Lib_1_1IReporterBase.html" target="_top" xlink:title="Interface from which all reporters inherit.">
<polygon fill="white" stroke="black" points="195.5,-306.5 195.5,-325.5 273.5,-325.5 273.5,-306.5 195.5,-306.5"/>
<text text-anchor="middle" x="234.5" y="-313.5" font-family="Helvetica,sans-Serif" font-size="10.00">IReporterBase</text>
</a>
</g>
</g>
<!-- Node7&#45;&gt;Node5 -->
<g id="edge6" class="edge"><title>Node7&#45;&gt;Node5</title>
<path fill="none" stroke="midnightblue" d="M185.425,-309.181C160.059,-303.404 131.2,-291.902 115.5,-269 100.118,-246.563 134.211,-223.601 156.718,-211.566"/>
<polygon fill="midnightblue" stroke="midnightblue" points="184.806,-312.626 195.303,-311.191 186.202,-305.767 184.806,-312.626"/>
</g>
<!-- Node8 -->
<g id="node8" class="node"><title>Node8</title>
<g id="a_node8"><a xlink:href="../../d2/d8e/interfaceIG_1_1Lib_1_1IReporterTextWriter.html" target="_top" xlink:title="Reporters that utilize writing messages to files. Messages are typically formatted as multi&#45;line mess...">
<polygon fill="white" stroke="black" points="124,-249.5 124,-268.5 225,-268.5 225,-249.5 124,-249.5"/>
<text text-anchor="middle" x="174.5" y="-256.5" font-family="Helvetica,sans-Serif" font-size="10.00">IReporterTextWriter</text>
</a>
</g>
</g>
<!-- Node7&#45;&gt;Node8 -->
<g id="edge8" class="edge"><title>Node7&#45;&gt;Node8</title>
<path fill="none" stroke="midnightblue" d="M217.499,-299.416C206.648,-289.469 192.983,-276.943 184.007,-268.715"/>
<polygon fill="midnightblue" stroke="midnightblue" points="215.388,-302.229 225.125,-306.406 220.118,-297.069 215.388,-302.229"/>
</g>
<!-- Node9 -->
<g id="node9" class="node"><title>Node9</title>
<g id="a_node9"><a xlink:href="../../d1/ddb/interfaceIG_1_1Lib_1_1IReporterTextLogger.html" target="_top" xlink:title="Reporters that utilize logging messages to files. IReporterTextLogger typically outputs (to a file) m...">
<polygon fill="white" stroke="black" points="243.5,-249.5 243.5,-268.5 347.5,-268.5 347.5,-249.5 243.5,-249.5"/>
<text text-anchor="middle" x="295.5" y="-256.5" font-family="Helvetica,sans-Serif" font-size="10.00">IReporterTextLogger</text>
</a>
</g>
</g>
<!-- Node7&#45;&gt;Node9 -->
<g id="edge10" class="edge"><title>Node7&#45;&gt;Node9</title>
<path fill="none" stroke="midnightblue" d="M251.46,-299.708C262.543,-289.715 276.619,-277.024 285.834,-268.715"/>
<polygon fill="midnightblue" stroke="midnightblue" points="249.114,-297.11 244.031,-306.406 253.802,-302.309 249.114,-297.11"/>
</g>
<!-- Node10 -->
<g id="node10" class="node"><title>Node10</title>
<g id="a_node10"><a xlink:href="../../d0/d0e/interfaceIG_1_1Lib_1_1IReporterTrace.html" target="_top" xlink:title="Reporters that utilize system&#39;s trace utility.">
<polygon fill="white" stroke="black" points="365.5,-249.5 365.5,-268.5 445.5,-268.5 445.5,-249.5 365.5,-249.5"/>
<text text-anchor="middle" x="405.5" y="-256.5" font-family="Helvetica,sans-Serif" font-size="10.00">IReporterTrace</text>
</a>
</g>
</g>
<!-- Node7&#45;&gt;Node10 -->
<g id="edge12" class="edge"><title>Node7&#45;&gt;Node10</title>
<path fill="none" stroke="midnightblue" d="M270.784,-303.33C303.201,-292.903 349.931,-277.873 378.969,-268.533"/>
<polygon fill="midnightblue" stroke="midnightblue" points="269.667,-300.012 261.219,-306.406 271.81,-306.676 269.667,-300.012"/>
</g>
<!-- Node8&#45;&gt;Node5 -->
<g id="edge7" class="edge"><title>Node8&#45;&gt;Node5</title>
<path fill="none" stroke="midnightblue" d="M174.5,-239.117C174.5,-229.817 174.5,-219.056 174.5,-211.715"/>
<polygon fill="midnightblue" stroke="midnightblue" points="171,-239.406 174.5,-249.406 178,-239.406 171,-239.406"/>
</g>
<!-- Node9&#45;&gt;Node5 -->
<g id="edge9" class="edge"><title>Node9&#45;&gt;Node5</title>
<path fill="none" stroke="midnightblue" d="M267.417,-245.235C244.621,-234.873 213.112,-220.551 193.273,-211.533"/>
<polygon fill="midnightblue" stroke="midnightblue" points="266.042,-248.454 276.594,-249.406 268.938,-242.082 266.042,-248.454"/>
</g>
<!-- Node10&#45;&gt;Node5 -->
<g id="edge11" class="edge"><title>Node10&#45;&gt;Node5</title>
<path fill="none" stroke="midnightblue" d="M359.829,-247.126C315.991,-236.688 250.668,-221.135 210.424,-211.553"/>
<polygon fill="midnightblue" stroke="midnightblue" points="359.121,-250.555 369.66,-249.467 360.742,-243.745 359.121,-250.555"/>
</g>
</g>
</svg>
