<?xml version="1.0" encoding="UTF-8" standalone="no"?>
<!DOCTYPE svg PUBLIC "-//W3C//DTD SVG 1.1//EN"
 "http://www.w3.org/Graphics/SVG/1.1/DTD/svg11.dtd">
<!-- Generated by graphviz version 2.38.0 (20140413.2041)
 -->
<!-- Title: CShell.Modules.Sink.ViewModels.XhtmlSinkViewModel Pages: 1 -->
<svg width="190pt" height="263pt"
 viewBox="0.00 0.00 189.50 263.00" xmlns="http://www.w3.org/2000/svg" xmlns:xlink="http://www.w3.org/1999/xlink">
<g id="graph0" class="graph" transform="scale(1 1) rotate(0) translate(4 259)">
<title>CShell.Modules.Sink.ViewModels.XhtmlSinkViewModel</title>
<polygon fill="white" stroke="none" points="-4,4 -4,-259 185.5,-259 185.5,4 -4,4"/>
<!-- Node1 -->
<g id="node1" class="node"><title>Node1</title>
<g id="a_node1"><a xlink:title=" ">
<polygon fill="#bfbfbf" stroke="black" points="32.5,-0.5 32.5,-30.5 174.5,-30.5 174.5,-0.5 32.5,-0.5"/>
<text text-anchor="start" x="40.5" y="-18.5" font-family="Helvetica,sans-Serif" font-size="10.00">CShell.Modules.Sink.View</text>
<text text-anchor="middle" x="103.5" y="-7.5" font-family="Helvetica,sans-Serif" font-size="10.00">Models.XhtmlSinkViewModel</text>
</a>
</g>
</g>
<!-- Node2 -->
<g id="node2" class="node"><title>Node2</title>
<g id="a_node2"><a xlink:href="../../d4/dba/classCShell_1_1Framework_1_1Sink.html" target="_top" xlink:title=" ">
<polygon fill="white" stroke="black" points="11.5,-67.5 11.5,-86.5 101.5,-86.5 101.5,-67.5 11.5,-67.5"/>
<text text-anchor="middle" x="56.5" y="-74.5" font-family="Helvetica,sans-Serif" font-size="10.00">Framework::Sink</text>
</a>
</g>
</g>
<!-- Node2&#45;&gt;Node1 -->
<g id="edge1" class="edge"><title>Node2&#45;&gt;Node1</title>
<path fill="none" stroke="midnightblue" d="M69.5102,-59.5296C76.7082,-50.4173 85.5581,-39.2136 92.423,-30.523"/>
<polygon fill="midnightblue" stroke="midnightblue" points="66.6861,-57.4584 63.234,-67.4751 72.1791,-61.7975 66.6861,-57.4584"/>
</g>
<!-- Node3 -->
<g id="node3" class="node"><title>Node3</title>
<g id="a_node3"><a xlink:href="../../d1/d9b/classCShell_1_1Framework_1_1Document.html" target="_top" xlink:title=" ">
<polygon fill="white" stroke="black" points="26,-123.5 26,-142.5 87,-142.5 87,-123.5 26,-123.5"/>
<text text-anchor="middle" x="56.5" y="-130.5" font-family="Helvetica,sans-Serif" font-size="10.00">Document</text>
</a>
</g>
</g>
<!-- Node3&#45;&gt;Node2 -->
<g id="edge2" class="edge"><title>Node3&#45;&gt;Node2</title>
<path fill="none" stroke="midnightblue" d="M56.5,-112.805C56.5,-103.91 56.5,-93.7798 56.5,-86.7511"/>
<polygon fill="midnightblue" stroke="midnightblue" points="53.0001,-113.083 56.5,-123.083 60.0001,-113.083 53.0001,-113.083"/>
</g>
<!-- Node4 -->
<g id="node4" class="node"><title>Node4</title>
<g id="a_node4"><a xlink:href="../../d5/d57/classCShell_1_1Framework_1_1LayoutItemBase.html" target="_top" xlink:title=" ">
<polygon fill="white" stroke="black" points="0,-179.5 0,-198.5 87,-198.5 87,-179.5 0,-179.5"/>
<text text-anchor="middle" x="43.5" y="-186.5" font-family="Helvetica,sans-Serif" font-size="10.00">LayoutItemBase</text>
</a>
</g>
</g>
<!-- Node4&#45;&gt;Node3 -->
<g id="edge3" class="edge"><title>Node4&#45;&gt;Node3</title>
<path fill="none" stroke="midnightblue" d="M48.0499,-169.101C50.2081,-160.136 52.6824,-149.858 54.3933,-142.751"/>
<polygon fill="midnightblue" stroke="midnightblue" points="44.5845,-168.542 45.6467,-179.083 51.3901,-170.18 44.5845,-168.542"/>
</g>
<!-- Node5 -->
<g id="node5" class="node"><title>Node5</title>
<g id="a_node5"><a xlink:title=" ">
<polygon fill="white" stroke="#bfbfbf" points="20,-235.5 20,-254.5 67,-254.5 67,-235.5 20,-235.5"/>
<text text-anchor="middle" x="43.5" y="-242.5" font-family="Helvetica,sans-Serif" font-size="10.00">Screen</text>
</a>
</g>
</g>
<!-- Node5&#45;&gt;Node4 -->
<g id="edge4" class="edge"><title>Node5&#45;&gt;Node4</title>
<path fill="none" stroke="midnightblue" d="M43.5,-224.805C43.5,-215.91 43.5,-205.78 43.5,-198.751"/>
<polygon fill="midnightblue" stroke="midnightblue" points="40.0001,-225.083 43.5,-235.083 47.0001,-225.083 40.0001,-225.083"/>
</g>
<!-- Node6 -->
<g id="node6" class="node"><title>Node6</title>
<g id="a_node6"><a xlink:href="../../dd/d21/interfaceCShell_1_1Framework_1_1IDocument.html" target="_top" xlink:title=" ">
<polygon fill="white" stroke="black" points="105,-179.5 105,-198.5 168,-198.5 168,-179.5 105,-179.5"/>
<text text-anchor="middle" x="136.5" y="-186.5" font-family="Helvetica,sans-Serif" font-size="10.00">IDocument</text>
</a>
</g>
</g>
<!-- Node6&#45;&gt;Node3 -->
<g id="edge5" class="edge"><title>Node6&#45;&gt;Node3</title>
<path fill="none" stroke="midnightblue" d="M115.199,-173.622C100.585,-163.757 81.6732,-150.992 69.3215,-142.655"/>
<polygon fill="midnightblue" stroke="midnightblue" points="113.4,-176.63 123.647,-179.324 117.316,-170.828 113.4,-176.63"/>
</g>
<!-- Node8 -->
<g id="node8" class="node"><title>Node8</title>
<g id="a_node8"><a xlink:href="../../d5/df7/interfaceCShell_1_1Framework_1_1ISink.html" target="_top" xlink:title=" ">
<polygon fill="white" stroke="black" points="117.5,-123.5 117.5,-142.5 155.5,-142.5 155.5,-123.5 117.5,-123.5"/>
<text text-anchor="middle" x="136.5" y="-130.5" font-family="Helvetica,sans-Serif" font-size="10.00">ISink</text>
</a>
</g>
</g>
<!-- Node6&#45;&gt;Node8 -->
<g id="edge8" class="edge"><title>Node6&#45;&gt;Node8</title>
<path fill="none" stroke="midnightblue" d="M136.5,-168.805C136.5,-159.91 136.5,-149.78 136.5,-142.751"/>
<polygon fill="midnightblue" stroke="midnightblue" points="133,-169.083 136.5,-179.083 140,-169.083 133,-169.083"/>
</g>
<!-- Node7 -->
<g id="node7" class="node"><title>Node7</title>
<g id="a_node7"><a xlink:title=" ">
<polygon fill="white" stroke="#bfbfbf" points="111.5,-235.5 111.5,-254.5 161.5,-254.5 161.5,-235.5 111.5,-235.5"/>
<text text-anchor="middle" x="136.5" y="-242.5" font-family="Helvetica,sans-Serif" font-size="10.00">IScreen</text>
</a>
</g>
</g>
<!-- Node7&#45;&gt;Node6 -->
<g id="edge6" class="edge"><title>Node7&#45;&gt;Node6</title>
<path fill="none" stroke="midnightblue" d="M136.5,-224.805C136.5,-215.91 136.5,-205.78 136.5,-198.751"/>
<polygon fill="midnightblue" stroke="midnightblue" points="133,-225.083 136.5,-235.083 140,-225.083 133,-225.083"/>
</g>
<!-- Node8&#45;&gt;Node2 -->
<g id="edge7" class="edge"><title>Node8&#45;&gt;Node2</title>
<path fill="none" stroke="midnightblue" d="M115.199,-117.622C100.585,-107.757 81.6732,-94.9919 69.3215,-86.6545"/>
<polygon fill="midnightblue" stroke="midnightblue" points="113.4,-120.63 123.647,-123.324 117.316,-114.828 113.4,-120.63"/>
</g>
<!-- Node9 -->
<g id="node9" class="node"><title>Node9</title>
<g id="a_node9"><a xlink:href="../../d3/df9/interfaceCShell_1_1Sinks_1_1IXhtmlSink.html" target="_top" xlink:title=" ">
<polygon fill="white" stroke="black" points="119.5,-67.5 119.5,-86.5 181.5,-86.5 181.5,-67.5 119.5,-67.5"/>
<text text-anchor="middle" x="150.5" y="-74.5" font-family="Helvetica,sans-Serif" font-size="10.00">IXhtmlSink</text>
</a>
</g>
</g>
<!-- Node8&#45;&gt;Node9 -->
<g id="edge10" class="edge"><title>Node8&#45;&gt;Node9</title>
<path fill="none" stroke="midnightblue" d="M141.323,-113.396C143.665,-104.362 146.368,-93.936 148.231,-86.7511"/>
<polygon fill="midnightblue" stroke="midnightblue" points="137.934,-112.525 138.812,-123.083 144.71,-114.281 137.934,-112.525"/>
</g>
<!-- Node9&#45;&gt;Node1 -->
<g id="edge9" class="edge"><title>Node9&#45;&gt;Node1</title>
<path fill="none" stroke="midnightblue" d="M137.49,-59.5296C130.292,-50.4173 121.442,-39.2136 114.577,-30.523"/>
<polygon fill="midnightblue" stroke="midnightblue" points="134.821,-61.7975 143.766,-67.4751 140.314,-57.4584 134.821,-61.7975"/>
</g>
</g>
</svg>
