<?xml version="1.0" encoding="UTF-8" standalone="no"?>
<!DOCTYPE svg PUBLIC "-//W3C//DTD SVG 1.1//EN"
 "http://www.w3.org/Graphics/SVG/1.1/DTD/svg11.dtd">
<!-- Generated by graphviz version 2.38.0 (20140413.2041)
 -->
<!-- Title: IG.Neural.Func2dFromApproximator Pages: 1 -->
<!--zoomable 209 -->
<svg id="main" version="1.1" xmlns="http://www.w3.org/2000/svg" xmlns:xlink="http://www.w3.org/1999/xlink" xml:space="preserve" onload="init(evt)">
<style type="text/css"><![CDATA[
.edge:hover path { stroke: red; }
.edge:hover polygon { stroke: red; fill: red; }
]]></style>
<script type="text/javascript"><![CDATA[
var edges = document.getElementsByTagName('g');
if (edges && edges.length) {
  for (var i=0;i<edges.length;i++) {
    if (edges[i].id.substr(0,4)=='edge') {
      edges[i].setAttribute('class','edge');
    }
  }
}
]]></script>
        <defs>
                <circle id="rim" cx="0" cy="0" r="7"/>
                <circle id="rim2" cx="0" cy="0" r="3.5"/>
                <g id="zoomPlus">
                        <use xlink:href="#rim" fill="#404040">
                                <set attributeName="fill" to="#808080" begin="zoomplus.mouseover" end="zoomplus.mouseout"/>
                        </use>
                        <path d="M-4,0h8M0,-4v8" fill="none" stroke="white" stroke-width="1.5" pointer-events="none"/>
                </g>
                <g id="zoomMin">
                        <use xlink:href="#rim" fill="#404040">
                                <set attributeName="fill" to="#808080" begin="zoomminus.mouseover" end="zoomminus.mouseout"/>
                        </use>
                        <path d="M-4,0h8" fill="none" stroke="white" stroke-width="1.5" pointer-events="none"/>
                </g>
                <g id="dirArrow">
                        <path fill="none" stroke="white" stroke-width="1.5" d="M0,-3.0v7 M-2.5,-0.5L0,-3.0L2.5,-0.5"/>
                </g>
               <g id="resetDef">
                       <use xlink:href="#rim2" fill="#404040">
                               <set attributeName="fill" to="#808080" begin="reset.mouseover" end="reset.mouseout"/>
                       </use>
               </g>
        </defs>

<script type="text/javascript">
var viewWidth = 546;
var viewHeight = 209;
var sectionId = 'dynsection-1';
</script>
<script xlink:href="../../svgpan.js"/>
<svg id="graph" class="graph">
<g id="viewport">
<title>IG.Neural.Func2dFromApproximator</title>
<polygon fill="white" stroke="none" points="-4,4 -4,-205 541.5,-205 541.5,4 -4,4"/>
<!-- Node1 -->
<g id="node1" class="node"><title>Node1</title>
<g id="a_node1"><a xlink:title="Approximator function of 2 variables that is based on a general approximator function of vector argum...">
<polygon fill="#bfbfbf" stroke="black" points="184,-0.5 184,-19.5 357,-19.5 357,-0.5 184,-0.5"/>
<text text-anchor="middle" x="270.5" y="-7.5" font-family="Helvetica,sans-Serif" font-size="10.00">IG.Neural.Func2dFromApproximator</text>
</a>
</g>
</g>
<!-- Node2 -->
<g id="node2" class="node"><title>Node2</title>
<g id="a_node2"><a xlink:href="../../da/d29/classIG_1_1Num_1_1Func2dBase.html" target="_top" xlink:title="Base class for scalar functions of 2 variables (base for implementation of IFunc2d interface).">
<polygon fill="white" stroke="black" points="177,-67.5 177,-86.5 248,-86.5 248,-67.5 177,-67.5"/>
<text text-anchor="middle" x="212.5" y="-74.5" font-family="Helvetica,sans-Serif" font-size="10.00">Func2dBase</text>
</a>
</g>
</g>
<!-- Node2&#45;&gt;Node1 -->
<g id="edge1" class="edge"><title>Node2&#45;&gt;Node1</title>
<path fill="none" stroke="midnightblue" d="M227.103,-59.6348C238.446,-46.9228 253.727,-29.7978 262.802,-19.6273"/>
<polygon fill="midnightblue" stroke="midnightblue" points="224.369,-57.4421 220.322,-67.2338 229.592,-62.1026 224.369,-57.4421"/>
</g>
<!-- Node3 -->
<g id="node3" class="node"><title>Node3</title>
<g id="a_node3"><a xlink:href="../../d2/d9e/classIG_1_1Num_1_1ScalarFunctionUntransformedBase.html" target="_top" xlink:title="Base class for defining scalar functions without possibility of affine transformation of parameters.">
<polygon fill="white" stroke="black" points="102,-124.5 102,-143.5 269,-143.5 269,-124.5 102,-124.5"/>
<text text-anchor="middle" x="185.5" y="-131.5" font-family="Helvetica,sans-Serif" font-size="10.00">ScalarFunctionUntransformedBase</text>
</a>
</g>
</g>
<!-- Node3&#45;&gt;Node2 -->
<g id="edge2" class="edge"><title>Node3&#45;&gt;Node2</title>
<path fill="none" stroke="midnightblue" d="M194.172,-115.334C198.867,-105.77 204.46,-94.3784 208.222,-86.7149"/>
<polygon fill="midnightblue" stroke="midnightblue" points="190.984,-113.887 189.719,-124.406 197.267,-116.972 190.984,-113.887"/>
</g>
<!-- Node4 -->
<g id="node4" class="node"><title>Node4</title>
<g id="a_node4"><a xlink:href="../../d8/d56/interfaceIG_1_1Num_1_1IScalarFunctionUntransformed.html" target="_top" xlink:title="Scalar functions of vector arguments.">
<polygon fill="white" stroke="black" points="0,-181.5 0,-200.5 147,-200.5 147,-181.5 0,-181.5"/>
<text text-anchor="middle" x="73.5" y="-188.5" font-family="Helvetica,sans-Serif" font-size="10.00">IScalarFunctionUntransformed</text>
</a>
</g>
</g>
<!-- Node4&#45;&gt;Node1 -->
<g id="edge7" class="edge"><title>Node4&#45;&gt;Node1</title>
<path fill="none" stroke="midnightblue" d="M70.0557,-171.501C68.4452,-157.388 68.5268,-138.045 77.5,-124 115.023,-65.2679 194.813,-33.3429 239.149,-19.5073"/>
<polygon fill="midnightblue" stroke="midnightblue" points="66.612,-172.137 71.5726,-181.498 73.5327,-171.086 66.612,-172.137"/>
</g>
<!-- Node4&#45;&gt;Node2 -->
<g id="edge5" class="edge"><title>Node4&#45;&gt;Node2</title>
<path fill="none" stroke="midnightblue" d="M74.5185,-170.776C76.2552,-156.271 80.7948,-136.755 92.5,-124 114.45,-100.082 150.213,-88.4926 176.997,-82.9439"/>
<polygon fill="midnightblue" stroke="midnightblue" points="70.9997,-170.851 73.6431,-181.11 77.9747,-171.442 70.9997,-170.851"/>
</g>
<!-- Node4&#45;&gt;Node3 -->
<g id="edge3" class="edge"><title>Node4&#45;&gt;Node3</title>
<path fill="none" stroke="midnightblue" d="M100.061,-176.957C121.114,-166.618 149.924,-152.47 168.123,-143.533"/>
<polygon fill="midnightblue" stroke="midnightblue" points="98.4333,-173.857 91,-181.406 101.519,-180.14 98.4333,-173.857"/>
</g>
<!-- Node5 -->
<g id="node5" class="node"><title>Node5</title>
<g id="a_node5"><a xlink:href="../../d8/d15/interfaceIG_1_1Num_1_1IFunc2d.html" target="_top" xlink:title="Represents scalar functions of 2 variables.">
<polygon fill="white" stroke="black" points="287,-124.5 287,-143.5 338,-143.5 338,-124.5 287,-124.5"/>
<text text-anchor="middle" x="312.5" y="-131.5" font-family="Helvetica,sans-Serif" font-size="10.00">IFunc2d</text>
</a>
</g>
</g>
<!-- Node5&#45;&gt;Node1 -->
<g id="edge6" class="edge"><title>Node5&#45;&gt;Node1</title>
<path fill="none" stroke="midnightblue" d="M306.148,-114.549C296.949,-87.8271 280.278,-39.4016 273.493,-19.6944"/>
<polygon fill="midnightblue" stroke="midnightblue" points="302.915,-115.91 309.479,-124.226 309.534,-113.631 302.915,-115.91"/>
</g>
<!-- Node5&#45;&gt;Node2 -->
<g id="edge4" class="edge"><title>Node5&#45;&gt;Node2</title>
<path fill="none" stroke="midnightblue" d="M288.019,-119.535C269.294,-109.236 244.045,-95.3496 228.015,-86.5334"/>
<polygon fill="midnightblue" stroke="midnightblue" points="286.426,-122.654 296.875,-124.406 289.8,-116.52 286.426,-122.654"/>
</g>
<!-- Node6 -->
<g id="node6" class="node"><title>Node6</title>
<g id="a_node6"><a xlink:href="../../d7/db4/interfaceIG_1_1Num_1_1INeuralApproximator.html" target="_top" xlink:title="Approximator of response by using neural networks. $A Igor Mar11;">
<polygon fill="white" stroke="black" points="338.5,-67.5 338.5,-86.5 478.5,-86.5 478.5,-67.5 338.5,-67.5"/>
<text text-anchor="middle" x="408.5" y="-74.5" font-family="Helvetica,sans-Serif" font-size="10.00">IG.Num.INeuralApproximator</text>
</a>
</g>
</g>
<!-- Node6&#45;&gt;Node1 -->
<g id="edge8" class="edge"><title>Node6&#45;&gt;Node1</title>
<path fill="none" stroke="#9a32cd" stroke-dasharray="5,2" d="M380.78,-62.9436C353.447,-50.0691 312.446,-30.7573 288.901,-19.6672"/>
<polygon fill="#9a32cd" stroke="#9a32cd" points="379.637,-66.2737 390.175,-67.3685 382.619,-59.941 379.637,-66.2737"/>
<text text-anchor="middle" x="387" y="-41" font-family="Helvetica,sans-Serif" font-size="10.00"> _originalFunction</text>
</g>
<!-- Node7 -->
<g id="node7" class="node"><title>Node7</title>
<g id="a_node7"><a xlink:href="../../dc/d13/interfaceIG_1_1Num_1_1IVectorApproximator.html" target="_top" xlink:title="Interface for vector function approximators.">
<polygon fill="white" stroke="black" points="356,-124.5 356,-143.5 461,-143.5 461,-124.5 356,-124.5"/>
<text text-anchor="middle" x="408.5" y="-131.5" font-family="Helvetica,sans-Serif" font-size="10.00">IVectorApproximator</text>
</a>
</g>
</g>
<!-- Node7&#45;&gt;Node6 -->
<g id="edge9" class="edge"><title>Node7&#45;&gt;Node6</title>
<path fill="none" stroke="midnightblue" d="M408.5,-114.117C408.5,-104.817 408.5,-94.0557 408.5,-86.7149"/>
<polygon fill="midnightblue" stroke="midnightblue" points="405,-114.406 408.5,-124.406 412,-114.406 405,-114.406"/>
</g>
<!-- Node8 -->
<g id="node8" class="node"><title>Node8</title>
<g id="a_node8"><a xlink:href="../../d3/db6/interfaceIG_1_1Lib_1_1ILockable.html" target="_top" xlink:title="Lockable object, has a Lock property that returns object on which lock must be performed in order to ...">
<polygon fill="white" stroke="black" points="479.5,-124.5 479.5,-143.5 537.5,-143.5 537.5,-124.5 479.5,-124.5"/>
<text text-anchor="middle" x="508.5" y="-131.5" font-family="Helvetica,sans-Serif" font-size="10.00">ILockable</text>
</a>
</g>
</g>
<!-- Node8&#45;&gt;Node6 -->
<g id="edge10" class="edge"><title>Node8&#45;&gt;Node6</title>
<path fill="none" stroke="midnightblue" d="M484.019,-119.535C465.294,-109.236 440.045,-95.3496 424.015,-86.5334"/>
<polygon fill="midnightblue" stroke="midnightblue" points="482.426,-122.654 492.875,-124.406 485.8,-116.52 482.426,-122.654"/>
</g>
</g>
</svg>
        <g id="navigator" transform="translate(0 0)" fill="#404254">
                <rect fill="#f2f5e9" fill-opacity="0.5" stroke="#606060" stroke-width=".5" x="0" y="0" width="60" height="60"/>
                <use id="zoomplus" xlink:href="#zoomPlus" x="17" y="9" onmousedown="handleZoom(evt,'in')"/>
                <use id="zoomminus" xlink:href="#zoomMin" x="42" y="9" onmousedown="handleZoom(evt,'out')"/>
                <use id="reset" xlink:href="#resetDef" x="30" y="36" onmousedown="handleReset()"/>
                <g id="arrowUp" xlink:href="#dirArrow" transform="translate(30 24)" onmousedown="handlePan(0,-1)">
                  <use xlink:href="#rim" fill="#404040">
                        <set attributeName="fill" to="#808080" begin="arrowUp.mouseover" end="arrowUp.mouseout"/>
                  </use>
                  <path fill="none" stroke="white" stroke-width="1.5" d="M0,-3.0v7 M-2.5,-0.5L0,-3.0L2.5,-0.5"/>
                </g>
                <g id="arrowRight" xlink:href="#dirArrow" transform="rotate(90) translate(36 -43)" onmousedown="handlePan(1,0)">
                  <use xlink:href="#rim" fill="#404040">
                        <set attributeName="fill" to="#808080" begin="arrowRight.mouseover" end="arrowRight.mouseout"/>
                  </use>
                  <path fill="none" stroke="white" stroke-width="1.5" d="M0,-3.0v7 M-2.5,-0.5L0,-3.0L2.5,-0.5"/>
                </g>
                <g id="arrowDown" xlink:href="#dirArrow" transform="rotate(180) translate(-30 -48)" onmousedown="handlePan(0,1)">
                  <use xlink:href="#rim" fill="#404040">
                        <set attributeName="fill" to="#808080" begin="arrowDown.mouseover" end="arrowDown.mouseout"/>
                  </use>
                  <path fill="none" stroke="white" stroke-width="1.5" d="M0,-3.0v7 M-2.5,-0.5L0,-3.0L2.5,-0.5"/>
                </g>
                <g id="arrowLeft" xlink:href="#dirArrow" transform="rotate(270) translate(-36 17)" onmousedown="handlePan(-1,0)">
                  <use xlink:href="#rim" fill="#404040">
                        <set attributeName="fill" to="#808080" begin="arrowLeft.mouseover" end="arrowLeft.mouseout"/>
                  </use>
                  <path fill="none" stroke="white" stroke-width="1.5" d="M0,-3.0v7 M-2.5,-0.5L0,-3.0L2.5,-0.5"/>
                </g>
        </g>
        <svg viewBox="0 0 15 15" width="100%" height="30px" preserveAspectRatio="xMaxYMin meet">
         <g id="arrow_out" transform="scale(0.3 0.3)">
          <a xlink:href="classIG_1_1Neural_1_1Func2dFromApproximator__coll__graph_org.svg" target="_base">
           <rect id="button" ry="5" rx="5" y="6" x="6" height="38" width="38"
                fill="#f2f5e9" fill-opacity="0.5" stroke="#606060" stroke-width="1.0"/>
           <path id="arrow"
             d="M 11.500037,31.436501 C 11.940474,20.09759 22.043105,11.32322 32.158766,21.979434 L 37.068811,17.246167 C 37.068811,17.246167 37.088388,32 37.088388,32 L 22.160133,31.978069 C 22.160133,31.978069 26.997745,27.140456 26.997745,27.140456 C 18.528582,18.264221 13.291696,25.230495 11.500037,31.436501 z"
             style="fill:#404040;"/>
          </a>
         </g>
        </svg>
</svg>
