<?xml version="1.0" encoding="UTF-8" standalone="no"?>
<!DOCTYPE svg PUBLIC "-//W3C//DTD SVG 1.1//EN"
 "http://www.w3.org/Graphics/SVG/1.1/DTD/svg11.dtd">
<!-- Generated by graphviz version 2.38.0 (20140413.2041)
 -->
<!-- Title: IG.Script.AppExtBase Pages: 1 -->
<svg width="1095pt" height="161pt"
 viewBox="0.00 0.00 1095.00 161.00" xmlns="http://www.w3.org/2000/svg" xmlns:xlink="http://www.w3.org/1999/xlink">
<g id="graph0" class="graph" transform="scale(1 1) rotate(0) translate(4 157)">
<title>IG.Script.AppExtBase</title>
<polygon fill="white" stroke="none" points="-4,4 -4,-157 1091,-157 1091,4 -4,4"/>
<!-- Node1 -->
<g id="node1" class="node"><title>Node1</title>
<g id="a_node1"><a xlink:title="Internal script for running embedded applications.">
<polygon fill="#bfbfbf" stroke="black" points="211,-57.5 211,-76.5 324,-76.5 324,-57.5 211,-57.5"/>
<text text-anchor="middle" x="267.5" y="-64.5" font-family="Helvetica,sans-Serif" font-size="10.00">IG.Script.AppExtBase</text>
</a>
</g>
</g>
<!-- Node5 -->
<g id="node5" class="node"><title>Node5</title>
<g id="a_node5"><a xlink:href="../../d9/d4e/classIG_1_1Script_1_1AppIgorGresovnik.html" target="_top" xlink:title="Internal script for running embedded applications.">
<polygon fill="white" stroke="black" points="360,-114.5 360,-133.5 494,-133.5 494,-114.5 360,-114.5"/>
<text text-anchor="middle" x="427" y="-121.5" font-family="Helvetica,sans-Serif" font-size="10.00">IG.Script.AppIgorGresovnik</text>
</a>
</g>
</g>
<!-- Node1&#45;&gt;Node5 -->
<g id="edge5" class="edge"><title>Node1&#45;&gt;Node5</title>
<path fill="none" stroke="midnightblue" d="M298.912,-80.6475C316.558,-88.3087 339.317,-97.7544 360,-105 369.678,-108.39 380.302,-111.647 390.144,-114.477"/>
<polygon fill="midnightblue" stroke="midnightblue" points="300.244,-77.41 289.681,-76.6001 297.434,-83.8209 300.244,-77.41"/>
</g>
<!-- Node11 -->
<g id="node11" class="node"><title>Node11</title>
<g id="a_node11"><a xlink:href="../../da/d0b/classIG_1_1Script_1_1AppShellExt.html" target="_top" xlink:title="Internal script for running embedded applications.">
<polygon fill="white" stroke="black" points="371,-76.5 371,-95.5 483,-95.5 483,-76.5 371,-76.5"/>
<text text-anchor="middle" x="427" y="-83.5" font-family="Helvetica,sans-Serif" font-size="10.00">IG.Script.AppShellExt</text>
</a>
</g>
</g>
<!-- Node1&#45;&gt;Node11 -->
<g id="edge11" class="edge"><title>Node1&#45;&gt;Node11</title>
<path fill="none" stroke="midnightblue" d="M334.181,-74.9234C346.421,-76.4 359.094,-77.9288 370.973,-79.3618"/>
<polygon fill="midnightblue" stroke="midnightblue" points="334.376,-71.4216 324.029,-73.6987 333.537,-78.3712 334.376,-71.4216"/>
</g>
<!-- Node12 -->
<g id="node12" class="node"><title>Node12</title>
<g id="a_node12"><a xlink:href="../../df/d21/classIG_1_1Script_1_1AppShellExtExt.html" target="_top" xlink:title="Internal script for running embedded applications.">
<polygon fill="white" stroke="black" points="363.5,-38.5 363.5,-57.5 490.5,-57.5 490.5,-38.5 363.5,-38.5"/>
<text text-anchor="middle" x="427" y="-45.5" font-family="Helvetica,sans-Serif" font-size="10.00">IG.Script.AppShellExtExt</text>
</a>
</g>
</g>
<!-- Node1&#45;&gt;Node12 -->
<g id="edge12" class="edge"><title>Node1&#45;&gt;Node12</title>
<path fill="none" stroke="midnightblue" d="M334.045,-59.093C343.777,-57.919 353.786,-56.7115 363.455,-55.5451"/>
<polygon fill="midnightblue" stroke="midnightblue" points="333.537,-55.6288 324.029,-60.3013 334.376,-62.5784 333.537,-55.6288"/>
</g>
<!-- Node13 -->
<g id="node13" class="node"><title>Node13</title>
<g id="a_node13"><a xlink:href="../../d2/df3/classIG_1_1Script_1_1AppTestShell.html" target="_top" xlink:title="Internal script for running embedded applications.">
<polygon fill="white" stroke="black" points="369,-0.5 369,-19.5 485,-19.5 485,-0.5 369,-0.5"/>
<text text-anchor="middle" x="427" y="-7.5" font-family="Helvetica,sans-Serif" font-size="10.00">IG.Script.AppTestShell</text>
</a>
</g>
</g>
<!-- Node1&#45;&gt;Node13 -->
<g id="edge13" class="edge"><title>Node1&#45;&gt;Node13</title>
<path fill="none" stroke="midnightblue" d="M298.912,-53.3525C316.558,-45.6913 339.317,-36.2456 360,-29 369.678,-25.6097 380.302,-22.353 390.144,-19.5228"/>
<polygon fill="midnightblue" stroke="midnightblue" points="297.434,-50.1791 289.681,-57.3999 300.244,-56.59 297.434,-50.1791"/>
</g>
<!-- Node2 -->
<g id="node2" class="node"><title>Node2</title>
<g id="a_node2"><a xlink:href="../../d5/d63/classIG_1_1Script_1_1AppBase.html" target="_top" xlink:title="Base cls. for application scripts that can also be used on its own.">
<polygon fill="white" stroke="black" points="119,-76.5 119,-95.5 175,-95.5 175,-76.5 119,-76.5"/>
<text text-anchor="middle" x="147" y="-83.5" font-family="Helvetica,sans-Serif" font-size="10.00">AppBase</text>
</a>
</g>
</g>
<!-- Node2&#45;&gt;Node1 -->
<g id="edge1" class="edge"><title>Node2&#45;&gt;Node1</title>
<path fill="none" stroke="midnightblue" d="M185.146,-80.044C193.332,-78.7315 202.176,-77.3136 210.912,-75.9128"/>
<polygon fill="midnightblue" stroke="midnightblue" points="184.506,-76.6019 175.186,-81.641 185.614,-83.5136 184.506,-76.6019"/>
</g>
<!-- Node3 -->
<g id="node3" class="node"><title>Node3</title>
<g id="a_node3"><a xlink:href="../../db/da4/classIG_1_1Script_1_1ScriptAppBase.html" target="_top" xlink:title="Partial class definition containing tests of CSV utilities.">
<polygon fill="white" stroke="black" points="0.5,-76.5 0.5,-95.5 82.5,-95.5 82.5,-76.5 0.5,-76.5"/>
<text text-anchor="middle" x="41.5" y="-83.5" font-family="Helvetica,sans-Serif" font-size="10.00">ScriptAppBase</text>
</a>
</g>
</g>
<!-- Node3&#45;&gt;Node2 -->
<g id="edge2" class="edge"><title>Node3&#45;&gt;Node2</title>
<path fill="none" stroke="midnightblue" d="M92.6477,-86C101.699,-86 110.815,-86 118.888,-86"/>
<polygon fill="midnightblue" stroke="midnightblue" points="92.5158,-82.5001 82.5158,-86 92.5158,-89.5001 92.5158,-82.5001"/>
</g>
<!-- Node4 -->
<g id="node4" class="node"><title>Node4</title>
<g id="a_node4"><a xlink:href="../../d7/d66/interfaceIG_1_1Lib_1_1ILoadableScript.html" target="_top" xlink:title="Interface for classes that can be dynamically loadeded from scripts and run, which provides functiona...">
<polygon fill="white" stroke="black" points="0,-38.5 0,-57.5 83,-57.5 83,-38.5 0,-38.5"/>
<text text-anchor="middle" x="41.5" y="-45.5" font-family="Helvetica,sans-Serif" font-size="10.00">ILoadableScript</text>
</a>
</g>
</g>
<!-- Node4&#45;&gt;Node1 -->
<g id="edge4" class="edge"><title>Node4&#45;&gt;Node1</title>
<path fill="none" stroke="midnightblue" d="M93.0622,-52.2888C128.036,-55.2553 174.584,-59.2035 210.651,-62.2628"/>
<polygon fill="midnightblue" stroke="midnightblue" points="93.3248,-48.7986 83.0647,-51.4408 92.7331,-55.7735 93.3248,-48.7986"/>
</g>
<!-- Node4&#45;&gt;Node2 -->
<g id="edge3" class="edge"><title>Node4&#45;&gt;Node2</title>
<path fill="none" stroke="midnightblue" d="M78.2293,-61.118C91.9184,-66.1439 107.267,-71.7791 119.891,-76.4141"/>
<polygon fill="midnightblue" stroke="midnightblue" points="79.211,-57.7501 68.6174,-57.589 76.7984,-64.3212 79.211,-57.7501"/>
</g>
<!-- Node6 -->
<g id="node6" class="node"><title>Node6</title>
<g id="a_node6"><a xlink:href="../../dc/de4/classIG_1_1Script_1_1AppMarkoEmbeddedTest.html" target="_top" xlink:title="Test embedded script class, used to demonstrate how nested embedded scripts can be run by the main sc...">
<polygon fill="white" stroke="black" points="530,-133.5 530,-152.5 697,-152.5 697,-133.5 530,-133.5"/>
<text text-anchor="middle" x="613.5" y="-140.5" font-family="Helvetica,sans-Serif" font-size="10.00">IG.Script.AppMarkoEmbeddedTest</text>
</a>
</g>
</g>
<!-- Node5&#45;&gt;Node6 -->
<g id="edge6" class="edge"><title>Node5&#45;&gt;Node6</title>
<path fill="none" stroke="midnightblue" d="M504.261,-131.853C512.692,-132.722 521.307,-133.609 529.812,-134.485"/>
<polygon fill="midnightblue" stroke="midnightblue" points="504.394,-128.349 494.088,-130.806 503.676,-135.312 504.394,-128.349"/>
</g>
<!-- Node7 -->
<g id="node7" class="node"><title>Node7</title>
<g id="a_node7"><a xlink:href="../../dd/d51/classIG_1_1Script_1_1AppMarkoPetek.html" target="_top" xlink:title="Internal script for running embedded applications.">
<polygon fill="white" stroke="black" points="549.5,-95.5 549.5,-114.5 677.5,-114.5 677.5,-95.5 549.5,-95.5"/>
<text text-anchor="middle" x="613.5" y="-102.5" font-family="Helvetica,sans-Serif" font-size="10.00">IG.Script.AppMarkoPetek</text>
</a>
</g>
</g>
<!-- Node5&#45;&gt;Node7 -->
<g id="edge7" class="edge"><title>Node5&#45;&gt;Node7</title>
<path fill="none" stroke="midnightblue" d="M504.34,-116.138C519.312,-114.597 534.86,-112.995 549.342,-111.504"/>
<polygon fill="midnightblue" stroke="midnightblue" points="503.676,-112.688 494.088,-117.194 504.394,-119.651 503.676,-112.688"/>
</g>
<!-- Node8 -->
<g id="node8" class="node"><title>Node8</title>
<g id="a_node8"><a xlink:href="../../dd/d84/classIG_1_1Script_1_1AppMarkoPetekDerivedScript.html" target="_top" xlink:title="Tells to the interpreter, which custom classes are available.">
<polygon fill="white" stroke="black" points="733,-112 733,-142 892,-142 892,-112 733,-112"/>
<text text-anchor="start" x="741" y="-130" font-family="Helvetica,sans-Serif" font-size="10.00">IG.Script.AppMarkoPetekDerived</text>
<text text-anchor="middle" x="812.5" y="-119" font-family="Helvetica,sans-Serif" font-size="10.00">Script</text>
</a>
</g>
</g>
<!-- Node7&#45;&gt;Node8 -->
<g id="edge8" class="edge"><title>Node7&#45;&gt;Node8</title>
<path fill="none" stroke="midnightblue" d="M687.685,-113.173C702.4,-114.816 717.923,-116.55 732.815,-118.213"/>
<polygon fill="midnightblue" stroke="midnightblue" points="687.972,-109.683 677.645,-112.052 687.195,-116.64 687.972,-109.683"/>
</g>
<!-- Node9 -->
<g id="node9" class="node"><title>Node9</title>
<g id="a_node9"><a xlink:href="../../d0/d8c/classIG_1_1Script_1_1AppMarkoPetekExt.html" target="_top" xlink:title="Internal script for running EXTENDED embedded applications.">
<polygon fill="white" stroke="black" points="741,-73.5 741,-92.5 884,-92.5 884,-73.5 741,-73.5"/>
<text text-anchor="middle" x="812.5" y="-80.5" font-family="Helvetica,sans-Serif" font-size="10.00">IG.Script.AppMarkoPetekExt</text>
</a>
</g>
</g>
<!-- Node7&#45;&gt;Node9 -->
<g id="edge9" class="edge"><title>Node7&#45;&gt;Node9</title>
<path fill="none" stroke="midnightblue" d="M687.726,-96.8225C705.099,-94.8824 723.596,-92.8166 740.852,-90.8896"/>
<polygon fill="midnightblue" stroke="midnightblue" points="687.195,-93.36 677.645,-97.9483 687.972,-100.317 687.195,-93.36"/>
</g>
<!-- Node10 -->
<g id="node10" class="node"><title>Node10</title>
<g id="a_node10"><a xlink:href="../../db/d4d/classIG_1_1Script_1_1AppMarkoPetekDerivedScriptExt.html" target="_top" xlink:title="Tells to the interpreter, which custom classes are available.">
<polygon fill="white" stroke="black" points="928,-68 928,-98 1087,-98 1087,-68 928,-68"/>
<text text-anchor="start" x="936" y="-86" font-family="Helvetica,sans-Serif" font-size="10.00">IG.Script.AppMarkoPetekDerived</text>
<text text-anchor="middle" x="1007.5" y="-75" font-family="Helvetica,sans-Serif" font-size="10.00">ScriptExt</text>
</a>
</g>
</g>
<!-- Node9&#45;&gt;Node10 -->
<g id="edge10" class="edge"><title>Node9&#45;&gt;Node10</title>
<path fill="none" stroke="midnightblue" d="M894.37,-83C905.473,-83 916.86,-83 927.921,-83"/>
<polygon fill="midnightblue" stroke="midnightblue" points="894.27,-79.5001 884.27,-83 894.27,-86.5001 894.27,-79.5001"/>
</g>
<!-- Node14 -->
<g id="node14" class="node"><title>Node14</title>
<g id="a_node14"><a xlink:href="../../d4/dfe/classIG_1_1Script_1_1AppTestShellExt.html" target="_top" xlink:title="Internal script for running embedded applications.">
<polygon fill="white" stroke="black" points="548,-0.5 548,-19.5 679,-19.5 679,-0.5 548,-0.5"/>
<text text-anchor="middle" x="613.5" y="-7.5" font-family="Helvetica,sans-Serif" font-size="10.00">IG.Script.AppTestShellExt</text>
</a>
</g>
</g>
<!-- Node13&#45;&gt;Node14 -->
<g id="edge14" class="edge"><title>Node13&#45;&gt;Node14</title>
<path fill="none" stroke="midnightblue" d="M495.577,-10C512.671,-10 530.986,-10 547.928,-10"/>
<polygon fill="midnightblue" stroke="midnightblue" points="495.113,-6.5001 485.113,-10 495.113,-13.5001 495.113,-6.5001"/>
</g>
</g>
</svg>
