<?xml version="1.0" encoding="UTF-8" standalone="no"?>
<!DOCTYPE svg PUBLIC "-//W3C//DTD SVG 1.1//EN"
 "http://www.w3.org/Graphics/SVG/1.1/DTD/svg11.dtd">
<!-- Generated by graphviz version 2.38.0 (20140413.2041)
 -->
<!-- Title: DotNumerics.LinearAlgebra.CSLapack.DGERQF Pages: 1 -->
<!--zoomable 790 -->
<svg id="main" version="1.1" xmlns="http://www.w3.org/2000/svg" xmlns:xlink="http://www.w3.org/1999/xlink" xml:space="preserve" onload="init(evt)">
<style type="text/css"><![CDATA[
.edge:hover path { stroke: red; }
.edge:hover polygon { stroke: red; fill: red; }
]]></style>
<script type="text/javascript"><![CDATA[
var edges = document.getElementsByTagName('g');
if (edges && edges.length) {
  for (var i=0;i<edges.length;i++) {
    if (edges[i].id.substr(0,4)=='edge') {
      edges[i].setAttribute('class','edge');
    }
  }
}
]]></script>
        <defs>
                <circle id="rim" cx="0" cy="0" r="7"/>
                <circle id="rim2" cx="0" cy="0" r="3.5"/>
                <g id="zoomPlus">
                        <use xlink:href="#rim" fill="#404040">
                                <set attributeName="fill" to="#808080" begin="zoomplus.mouseover" end="zoomplus.mouseout"/>
                        </use>
                        <path d="M-4,0h8M0,-4v8" fill="none" stroke="white" stroke-width="1.5" pointer-events="none"/>
                </g>
                <g id="zoomMin">
                        <use xlink:href="#rim" fill="#404040">
                                <set attributeName="fill" to="#808080" begin="zoomminus.mouseover" end="zoomminus.mouseout"/>
                        </use>
                        <path d="M-4,0h8" fill="none" stroke="white" stroke-width="1.5" pointer-events="none"/>
                </g>
                <g id="dirArrow">
                        <path fill="none" stroke="white" stroke-width="1.5" d="M0,-3.0v7 M-2.5,-0.5L0,-3.0L2.5,-0.5"/>
                </g>
               <g id="resetDef">
                       <use xlink:href="#rim2" fill="#404040">
                               <set attributeName="fill" to="#808080" begin="reset.mouseover" end="reset.mouseout"/>
                       </use>
               </g>
        </defs>

<script type="text/javascript">
var viewWidth = 1427;
var viewHeight = 790;
var sectionId = 'dynsection-0';
</script>
<script xlink:href="../../svgpan.js"/>
<svg id="graph" class="graph">
<g id="viewport">
<title>DotNumerics.LinearAlgebra.CSLapack.DGERQF</title>
<polygon fill="white" stroke="none" points="-4,4 -4,-786 1423,-786 1423,4 -4,4"/>
<!-- Node1 -->
<g id="node1" class="node"><title>Node1</title>
<g id="a_node1"><a xlink:title="– LAPACK routine (version 3.1) – Univ. of Tennessee, Univ. of California Berkeley and NAG Ltd....">
<polygon fill="#bfbfbf" stroke="black" points="1281,-471.5 1281,-501.5 1419,-501.5 1419,-471.5 1281,-471.5"/>
<text text-anchor="start" x="1289" y="-489.5" font-family="Helvetica,sans-Serif" font-size="10.00">DotNumerics.LinearAlgebra.</text>
<text text-anchor="middle" x="1350" y="-478.5" font-family="Helvetica,sans-Serif" font-size="10.00">CSLapack.DGERQF</text>
</a>
</g>
</g>
<!-- Node2 -->
<g id="node2" class="node"><title>Node2</title>
<g id="a_node2"><a xlink:href="../../db/d6a/classDotNumerics_1_1LinearAlgebra_1_1CSLapack_1_1XERBLA.html" target="_top" xlink:title="– LAPACK auxiliary routine (version 3.1) – Univ. of Tennessee, Univ. of California Berkeley and NAG L...">
<polygon fill="white" stroke="black" points="428,-392.5 428,-422.5 566,-422.5 566,-392.5 428,-392.5"/>
<text text-anchor="start" x="436" y="-410.5" font-family="Helvetica,sans-Serif" font-size="10.00">DotNumerics.LinearAlgebra.</text>
<text text-anchor="middle" x="497" y="-399.5" font-family="Helvetica,sans-Serif" font-size="10.00">CSLapack.XERBLA</text>
</a>
</g>
</g>
<!-- Node2&#45;&gt;Node1 -->
<g id="edge1" class="edge"><title>Node2&#45;&gt;Node1</title>
<path fill="none" stroke="#9a32cd" stroke-dasharray="5,2" d="M515.1,-430.87C529.551,-451.129 550.337,-481.512 566,-509.5 601.149,-572.308 585.767,-607.577 642,-652.5 666.613,-672.163 678.498,-672.5 710,-672.5 710,-672.5 710,-672.5 1139,-672.5 1241.76,-672.5 1317.79,-546.143 1341.34,-501.721"/>
<polygon fill="#9a32cd" stroke="#9a32cd" points="517.819,-428.656 509.139,-422.581 512.137,-432.743 517.819,-428.656"/>
<text text-anchor="middle" x="926" y="-675.5" font-family="Helvetica,sans-Serif" font-size="10.00"> _xerbla</text>
</g>
<!-- Node8 -->
<g id="node8" class="node"><title>Node8</title>
<g id="a_node8"><a xlink:href="../../d7/d20/classDotNumerics_1_1LinearAlgebra_1_1CSLapack_1_1DGEMM.html" target="_top" xlink:title=" ">
<polygon fill="white" stroke="black" points="642,-97.5 642,-127.5 780,-127.5 780,-97.5 642,-97.5"/>
<text text-anchor="start" x="650" y="-115.5" font-family="Helvetica,sans-Serif" font-size="10.00">DotNumerics.LinearAlgebra.</text>
<text text-anchor="middle" x="711" y="-104.5" font-family="Helvetica,sans-Serif" font-size="10.00">CSLapack.DGEMM</text>
</a>
</g>
</g>
<!-- Node2&#45;&gt;Node8 -->
<g id="edge8" class="edge"><title>Node2&#45;&gt;Node8</title>
<path fill="none" stroke="#9a32cd" stroke-dasharray="5,2" d="M508.536,-382.599C523.805,-347.196 553.595,-280.605 584,-226.5 599.883,-198.237 606.561,-192.83 624,-165.5 632.16,-152.712 630.179,-146.007 642,-136.5 646.293,-133.048 651.118,-130.073 656.167,-127.514"/>
<polygon fill="#9a32cd" stroke="#9a32cd" points="505.174,-381.559 504.453,-392.129 511.608,-384.316 505.174,-381.559"/>
<text text-anchor="middle" x="604" y="-229.5" font-family="Helvetica,sans-Serif" font-size="10.00"> _xerbla</text>
</g>
<!-- Node10 -->
<g id="node10" class="node"><title>Node10</title>
<g id="a_node10"><a xlink:href="../../d7/dbf/classDotNumerics_1_1LinearAlgebra_1_1CSLapack_1_1DTRMM.html" target="_top" xlink:title=" ">
<polygon fill="white" stroke="black" points="642,-146.5 642,-176.5 780,-176.5 780,-146.5 642,-146.5"/>
<text text-anchor="start" x="650" y="-164.5" font-family="Helvetica,sans-Serif" font-size="10.00">DotNumerics.LinearAlgebra.</text>
<text text-anchor="middle" x="711" y="-153.5" font-family="Helvetica,sans-Serif" font-size="10.00">CSLapack.DTRMM</text>
</a>
</g>
</g>
<!-- Node2&#45;&gt;Node10 -->
<g id="edge12" class="edge"><title>Node2&#45;&gt;Node10</title>
<path fill="none" stroke="#9a32cd" stroke-dasharray="5,2" d="M516.328,-384.432C533.515,-362.967 560.079,-330.216 584,-302.5 601.268,-282.493 611.326,-281.692 624,-258.5 638.786,-231.443 621.928,-214.906 642,-191.5 647.208,-185.427 653.882,-180.536 661.006,-176.611"/>
<polygon fill="#9a32cd" stroke="#9a32cd" points="513.514,-382.347 510.008,-392.345 518.984,-386.716 513.514,-382.347"/>
<text text-anchor="middle" x="604" y="-305.5" font-family="Helvetica,sans-Serif" font-size="10.00"> _xerbla</text>
</g>
<!-- Node12 -->
<g id="node12" class="node"><title>Node12</title>
<g id="a_node12"><a xlink:href="../../d1/dae/classDotNumerics_1_1LinearAlgebra_1_1CSLapack_1_1DTRMV.html" target="_top" xlink:title=" ">
<polygon fill="white" stroke="black" points="642,-243.5 642,-273.5 780,-273.5 780,-243.5 642,-243.5"/>
<text text-anchor="start" x="650" y="-261.5" font-family="Helvetica,sans-Serif" font-size="10.00">DotNumerics.LinearAlgebra.</text>
<text text-anchor="middle" x="711" y="-250.5" font-family="Helvetica,sans-Serif" font-size="10.00">CSLapack.DTRMV</text>
</a>
</g>
</g>
<!-- Node2&#45;&gt;Node12 -->
<g id="edge16" class="edge"><title>Node2&#45;&gt;Node12</title>
<path fill="none" stroke="#9a32cd" stroke-dasharray="5,2" d="M545.824,-388.531C579.045,-374.971 618.337,-358.016 624,-351.5 643.101,-329.52 622.869,-310.454 642,-288.5 647.256,-282.469 653.954,-277.599 661.089,-273.682"/>
<polygon fill="#9a32cd" stroke="#9a32cd" points="544.152,-385.432 536.201,-392.434 546.783,-391.919 544.152,-385.432"/>
<text text-anchor="middle" x="604" y="-375.5" font-family="Helvetica,sans-Serif" font-size="10.00"> _xerbla</text>
</g>
<!-- Node13 -->
<g id="node13" class="node"><title>Node13</title>
<g id="a_node13"><a xlink:href="../../d7/d97/classDotNumerics_1_1LinearAlgebra_1_1CSLapack_1_1DGEMV.html" target="_top" xlink:title=" ">
<polygon fill="white" stroke="black" points="642,-359.5 642,-389.5 780,-389.5 780,-359.5 642,-359.5"/>
<text text-anchor="start" x="650" y="-377.5" font-family="Helvetica,sans-Serif" font-size="10.00">DotNumerics.LinearAlgebra.</text>
<text text-anchor="middle" x="711" y="-366.5" font-family="Helvetica,sans-Serif" font-size="10.00">CSLapack.DGEMV</text>
</a>
</g>
</g>
<!-- Node2&#45;&gt;Node13 -->
<g id="edge20" class="edge"><title>Node2&#45;&gt;Node13</title>
<path fill="none" stroke="#9a32cd" stroke-dasharray="5,2" d="M576.328,-395.307C597.843,-391.958 620.993,-388.355 641.883,-385.103"/>
<polygon fill="#9a32cd" stroke="#9a32cd" points="575.588,-391.88 566.245,-396.877 576.664,-398.797 575.588,-391.88"/>
<text text-anchor="middle" x="604" y="-397.5" font-family="Helvetica,sans-Serif" font-size="10.00"> _xerbla</text>
</g>
<!-- Node14 -->
<g id="node14" class="node"><title>Node14</title>
<g id="a_node14"><a xlink:href="../../db/d0a/classDotNumerics_1_1LinearAlgebra_1_1CSLapack_1_1DGERQ2.html" target="_top" xlink:title="– LAPACK routine (version 3.1) – Univ. of Tennessee, Univ. of California Berkeley and NAG Ltd....">
<polygon fill="white" stroke="black" points="1069,-471.5 1069,-501.5 1207,-501.5 1207,-471.5 1069,-471.5"/>
<text text-anchor="start" x="1077" y="-489.5" font-family="Helvetica,sans-Serif" font-size="10.00">DotNumerics.LinearAlgebra.</text>
<text text-anchor="middle" x="1138" y="-478.5" font-family="Helvetica,sans-Serif" font-size="10.00">CSLapack.DGERQ2</text>
</a>
</g>
</g>
<!-- Node2&#45;&gt;Node14 -->
<g id="edge23" class="edge"><title>Node2&#45;&gt;Node14</title>
<path fill="none" stroke="#9a32cd" stroke-dasharray="5,2" d="M514.631,-430.598C530.1,-449.93 555.071,-476.125 584,-487.5 627.948,-504.781 930.987,-494.908 1068.91,-489.413"/>
<polygon fill="#9a32cd" stroke="#9a32cd" points="517.289,-428.312 508.406,-422.537 511.748,-432.591 517.289,-428.312"/>
<text text-anchor="middle" x="818.5" y="-500.5" font-family="Helvetica,sans-Serif" font-size="10.00"> _xerbla</text>
</g>
<!-- Node16 -->
<g id="node16" class="node"><title>Node16</title>
<g id="a_node16"><a xlink:href="../../df/dc3/classDotNumerics_1_1LinearAlgebra_1_1CSLapack_1_1DGER.html" target="_top" xlink:title=" ">
<polygon fill="white" stroke="black" points="642,-424.5 642,-454.5 780,-454.5 780,-424.5 642,-424.5"/>
<text text-anchor="start" x="650" y="-442.5" font-family="Helvetica,sans-Serif" font-size="10.00">DotNumerics.LinearAlgebra.</text>
<text text-anchor="middle" x="711" y="-431.5" font-family="Helvetica,sans-Serif" font-size="10.00">CSLapack.DGER</text>
</a>
</g>
</g>
<!-- Node2&#45;&gt;Node16 -->
<g id="edge26" class="edge"><title>Node2&#45;&gt;Node16</title>
<path fill="none" stroke="#9a32cd" stroke-dasharray="5,2" d="M576.328,-419.323C597.843,-422.571 620.993,-426.065 641.883,-429.218"/>
<polygon fill="#9a32cd" stroke="#9a32cd" points="576.655,-415.833 566.245,-417.801 575.611,-422.755 576.655,-415.833"/>
<text text-anchor="middle" x="604" y="-429.5" font-family="Helvetica,sans-Serif" font-size="10.00"> _xerbla</text>
</g>
<!-- Node3 -->
<g id="node3" class="node"><title>Node3</title>
<g id="a_node3"><a xlink:href="../../dd/dd0/classDotNumerics_1_1LinearAlgebra_1_1CSLapack_1_1ILAENV.html" target="_top" xlink:title="– LAPACK auxiliary routine (version 3.1.1) – Univ. of Tennessee, Univ. of California Berkeley and NAG...">
<polygon fill="white" stroke="black" points="1069,-702.5 1069,-732.5 1207,-732.5 1207,-702.5 1069,-702.5"/>
<text text-anchor="start" x="1077" y="-720.5" font-family="Helvetica,sans-Serif" font-size="10.00">DotNumerics.LinearAlgebra.</text>
<text text-anchor="middle" x="1138" y="-709.5" font-family="Helvetica,sans-Serif" font-size="10.00">CSLapack.ILAENV</text>
</a>
</g>
</g>
<!-- Node3&#45;&gt;Node1 -->
<g id="edge2" class="edge"><title>Node3&#45;&gt;Node1</title>
<path fill="none" stroke="#9a32cd" stroke-dasharray="5,2" d="M1217.06,-709.447C1233.62,-704.768 1250,-697.557 1263,-686.5 1321.73,-636.543 1341.47,-539.203 1347.07,-501.72"/>
<polygon fill="#9a32cd" stroke="#9a32cd" points="1216.15,-706.067 1207.32,-711.919 1217.87,-712.852 1216.15,-706.067"/>
<text text-anchor="middle" x="1244" y="-709.5" font-family="Helvetica,sans-Serif" font-size="10.00"> _ilaenv</text>
</g>
<!-- Node4 -->
<g id="node4" class="node"><title>Node4</title>
<g id="a_node4"><a xlink:href="../../d6/dee/classDotNumerics_1_1LinearAlgebra_1_1CSLapack_1_1IEEECK.html" target="_top" xlink:title="– LAPACK auxiliary routine (version 3.1) – Univ. of Tennessee, Univ. of California Berkeley and NAG L...">
<polygon fill="white" stroke="black" points="857,-751.5 857,-781.5 995,-781.5 995,-751.5 857,-751.5"/>
<text text-anchor="start" x="865" y="-769.5" font-family="Helvetica,sans-Serif" font-size="10.00">DotNumerics.LinearAlgebra.</text>
<text text-anchor="middle" x="926" y="-758.5" font-family="Helvetica,sans-Serif" font-size="10.00">CSLapack.IEEECK</text>
</a>
</g>
</g>
<!-- Node4&#45;&gt;Node3 -->
<g id="edge3" class="edge"><title>Node4&#45;&gt;Node3</title>
<path fill="none" stroke="#9a32cd" stroke-dasharray="5,2" d="M1001.28,-749.169C1024.59,-743.729 1050.12,-737.771 1072.69,-732.506"/>
<polygon fill="#9a32cd" stroke="#9a32cd" points="1000.38,-745.785 991.434,-751.465 1001.97,-752.601 1000.38,-745.785"/>
<text text-anchor="middle" x="1032" y="-749.5" font-family="Helvetica,sans-Serif" font-size="10.00"> _ieeeck</text>
</g>
<!-- Node5 -->
<g id="node5" class="node"><title>Node5</title>
<g id="a_node5"><a xlink:href="../../da/dc9/classDotNumerics_1_1LinearAlgebra_1_1CSLapack_1_1IPARMQ.html" target="_top" xlink:title="– LAPACK auxiliary routine (version 3.1) – Univ. of Tennessee, Univ. of California Berkeley and NAG L...">
<polygon fill="white" stroke="black" points="857,-702.5 857,-732.5 995,-732.5 995,-702.5 857,-702.5"/>
<text text-anchor="start" x="865" y="-720.5" font-family="Helvetica,sans-Serif" font-size="10.00">DotNumerics.LinearAlgebra.</text>
<text text-anchor="middle" x="926" y="-709.5" font-family="Helvetica,sans-Serif" font-size="10.00">CSLapack.IPARMQ</text>
</a>
</g>
</g>
<!-- Node5&#45;&gt;Node3 -->
<g id="edge4" class="edge"><title>Node5&#45;&gt;Node3</title>
<path fill="none" stroke="#9a32cd" stroke-dasharray="5,2" d="M1005.29,-717.5C1026.15,-717.5 1048.53,-717.5 1068.8,-717.5"/>
<polygon fill="#9a32cd" stroke="#9a32cd" points="1005.18,-714 995.181,-717.5 1005.18,-721 1005.18,-714"/>
<text text-anchor="middle" x="1032" y="-720.5" font-family="Helvetica,sans-Serif" font-size="10.00"> _iparmq</text>
</g>
<!-- Node6 -->
<g id="node6" class="node"><title>Node6</title>
<g id="a_node6"><a xlink:href="../../dc/d33/classDotNumerics_1_1LinearAlgebra_1_1CSLapack_1_1DLARFB.html" target="_top" xlink:title="– LAPACK auxiliary routine (version 3.1) – Univ. of Tennessee, Univ. of California Berkeley and NAG L...">
<polygon fill="white" stroke="black" points="857,-97.5 857,-127.5 995,-127.5 995,-97.5 857,-97.5"/>
<text text-anchor="start" x="865" y="-115.5" font-family="Helvetica,sans-Serif" font-size="10.00">DotNumerics.LinearAlgebra.</text>
<text text-anchor="middle" x="926" y="-104.5" font-family="Helvetica,sans-Serif" font-size="10.00">CSLapack.DLARFB</text>
</a>
</g>
</g>
<!-- Node6&#45;&gt;Node1 -->
<g id="edge5" class="edge"><title>Node6&#45;&gt;Node1</title>
<path fill="none" stroke="#9a32cd" stroke-dasharray="5,2" d="M954.007,-133.844C1004.68,-174.16 1117.03,-264.809 1207,-346.5 1255.18,-390.252 1309.18,-445.246 1334.46,-471.375"/>
<polygon fill="#9a32cd" stroke="#9a32cd" points="956.139,-131.067 946.131,-127.589 951.785,-136.549 956.139,-131.067"/>
<text text-anchor="middle" x="1138" y="-349.5" font-family="Helvetica,sans-Serif" font-size="10.00"> _dlarfb</text>
</g>
<!-- Node7 -->
<g id="node7" class="node"><title>Node7</title>
<g id="a_node7"><a xlink:href="../../d1/d2a/classDotNumerics_1_1LinearAlgebra_1_1CSLapack_1_1DCOPY.html" target="_top" xlink:title=" ">
<polygon fill="white" stroke="black" points="642,-0.5 642,-30.5 780,-30.5 780,-0.5 642,-0.5"/>
<text text-anchor="start" x="650" y="-18.5" font-family="Helvetica,sans-Serif" font-size="10.00">DotNumerics.LinearAlgebra.</text>
<text text-anchor="middle" x="711" y="-7.5" font-family="Helvetica,sans-Serif" font-size="10.00">CSLapack.DCOPY</text>
</a>
</g>
</g>
<!-- Node7&#45;&gt;Node6 -->
<g id="edge6" class="edge"><title>Node7&#45;&gt;Node6</title>
<path fill="none" stroke="#9a32cd" stroke-dasharray="5,2" d="M790.406,-26.0997C806.94,-29.9891 823.93,-35.2882 839,-42.5 867.653,-56.2116 895.097,-81.3275 910.987,-97.4508"/>
<polygon fill="#9a32cd" stroke="#9a32cd" points="790.71,-22.583 780.192,-23.8557 789.208,-29.42 790.71,-22.583"/>
<text text-anchor="middle" x="818.5" y="-45.5" font-family="Helvetica,sans-Serif" font-size="10.00"> _dcopy</text>
</g>
<!-- Node8&#45;&gt;Node6 -->
<g id="edge7" class="edge"><title>Node8&#45;&gt;Node6</title>
<path fill="none" stroke="#9a32cd" stroke-dasharray="5,2" d="M790.463,-112.5C812.21,-112.5 835.635,-112.5 856.748,-112.5"/>
<polygon fill="#9a32cd" stroke="#9a32cd" points="790.273,-109 780.273,-112.5 790.273,-116 790.273,-109"/>
<text text-anchor="middle" x="818.5" y="-115.5" font-family="Helvetica,sans-Serif" font-size="10.00"> _dgemm</text>
</g>
<!-- Node9 -->
<g id="node9" class="node"><title>Node9</title>
<g id="a_node9"><a xlink:href="../../dd/dac/classDotNumerics_1_1LinearAlgebra_1_1CSLapack_1_1LSAME.html" target="_top" xlink:title="– LAPACK auxiliary routine (version 3.1) – Univ. of Tennessee, Univ. of California Berkeley and NAG L...">
<polygon fill="white" stroke="black" points="428,-214.5 428,-244.5 566,-244.5 566,-214.5 428,-214.5"/>
<text text-anchor="start" x="436" y="-232.5" font-family="Helvetica,sans-Serif" font-size="10.00">DotNumerics.LinearAlgebra.</text>
<text text-anchor="middle" x="497" y="-221.5" font-family="Helvetica,sans-Serif" font-size="10.00">CSLapack.LSAME</text>
</a>
</g>
</g>
<!-- Node9&#45;&gt;Node6 -->
<g id="edge10" class="edge"><title>Node9&#45;&gt;Node6</title>
<path fill="none" stroke="#9a32cd" stroke-dasharray="5,2" d="M510.064,-205.358C530.781,-167.334 577.232,-95.8278 642,-76.5 726.478,-51.2904 830.298,-78.5425 885.721,-97.4895"/>
<polygon fill="#9a32cd" stroke="#9a32cd" points="506.941,-203.776 505.355,-214.251 513.128,-207.051 506.941,-203.776"/>
<text text-anchor="middle" x="711" y="-79.5" font-family="Helvetica,sans-Serif" font-size="10.00"> _lsame</text>
</g>
<!-- Node9&#45;&gt;Node8 -->
<g id="edge9" class="edge"><title>Node9&#45;&gt;Node8</title>
<path fill="none" stroke="#9a32cd" stroke-dasharray="5,2" d="M512.146,-205.718C527.019,-182.988 552.605,-149.71 584,-132.5 601.48,-122.918 622.243,-117.602 641.819,-114.736"/>
<polygon fill="#9a32cd" stroke="#9a32cd" points="509.014,-204.122 506.621,-214.443 514.928,-207.867 509.014,-204.122"/>
<text text-anchor="middle" x="604" y="-135.5" font-family="Helvetica,sans-Serif" font-size="10.00"> _lsame</text>
</g>
<!-- Node9&#45;&gt;Node10 -->
<g id="edge13" class="edge"><title>Node9&#45;&gt;Node10</title>
<path fill="none" stroke="#9a32cd" stroke-dasharray="5,2" d="M515.977,-206.632C531.709,-188.617 556.331,-164.87 584,-154.5 602.053,-147.734 622.584,-146.446 641.755,-147.671"/>
<polygon fill="#9a32cd" stroke="#9a32cd" points="513.166,-204.536 509.396,-214.437 518.518,-209.048 513.166,-204.536"/>
<text text-anchor="middle" x="604" y="-157.5" font-family="Helvetica,sans-Serif" font-size="10.00"> _lsame</text>
</g>
<!-- Node11 -->
<g id="node11" class="node"><title>Node11</title>
<g id="a_node11"><a xlink:href="../../d8/d84/classDotNumerics_1_1LinearAlgebra_1_1CSLapack_1_1DLARFT.html" target="_top" xlink:title="– LAPACK auxiliary routine (version 3.1) – Univ. of Tennessee, Univ. of California Berkeley and NAG L...">
<polygon fill="white" stroke="black" points="857,-277.5 857,-307.5 995,-307.5 995,-277.5 857,-277.5"/>
<text text-anchor="start" x="865" y="-295.5" font-family="Helvetica,sans-Serif" font-size="10.00">DotNumerics.LinearAlgebra.</text>
<text text-anchor="middle" x="926" y="-284.5" font-family="Helvetica,sans-Serif" font-size="10.00">CSLapack.DLARFT</text>
</a>
</g>
</g>
<!-- Node9&#45;&gt;Node11 -->
<g id="edge18" class="edge"><title>Node9&#45;&gt;Node11</title>
<path fill="none" stroke="#9a32cd" stroke-dasharray="5,2" d="M576.23,-217.278C633.412,-210.816 712.446,-207.047 780,-222.5 826.052,-233.034 874.493,-260.166 902.099,-277.391"/>
<polygon fill="#9a32cd" stroke="#9a32cd" points="575.694,-213.817 566.174,-218.468 576.516,-220.769 575.694,-213.817"/>
<text text-anchor="middle" x="711" y="-225.5" font-family="Helvetica,sans-Serif" font-size="10.00"> _lsame</text>
</g>
<!-- Node9&#45;&gt;Node12 -->
<g id="edge17" class="edge"><title>Node9&#45;&gt;Node12</title>
<path fill="none" stroke="#9a32cd" stroke-dasharray="5,2" d="M576.328,-240.215C597.843,-243.158 620.993,-246.325 641.883,-249.182"/>
<polygon fill="#9a32cd" stroke="#9a32cd" points="576.627,-236.723 566.245,-238.835 575.678,-243.659 576.627,-236.723"/>
<text text-anchor="middle" x="604" y="-250.5" font-family="Helvetica,sans-Serif" font-size="10.00"> _lsame</text>
</g>
<!-- Node9&#45;&gt;Node13 -->
<g id="edge21" class="edge"><title>Node9&#45;&gt;Node13</title>
<path fill="none" stroke="#9a32cd" stroke-dasharray="5,2" d="M516.079,-252.287C532.279,-271.571 557.511,-298.953 584,-317.5 599.095,-328.069 641.388,-346.457 672.837,-359.487"/>
<polygon fill="#9a32cd" stroke="#9a32cd" points="518.775,-250.055 509.712,-244.568 513.375,-254.51 518.775,-250.055"/>
<text text-anchor="middle" x="604" y="-341.5" font-family="Helvetica,sans-Serif" font-size="10.00"> _lsame</text>
</g>
<!-- Node15 -->
<g id="node15" class="node"><title>Node15</title>
<g id="a_node15"><a xlink:href="../../d9/dd6/classDotNumerics_1_1LinearAlgebra_1_1CSLapack_1_1DLARF.html" target="_top" xlink:title="– LAPACK auxiliary routine (version 3.1) – Univ. of Tennessee, Univ. of California Berkeley and NAG L...">
<polygon fill="white" stroke="black" points="857,-397.5 857,-427.5 995,-427.5 995,-397.5 857,-397.5"/>
<text text-anchor="start" x="865" y="-415.5" font-family="Helvetica,sans-Serif" font-size="10.00">DotNumerics.LinearAlgebra.</text>
<text text-anchor="middle" x="926" y="-404.5" font-family="Helvetica,sans-Serif" font-size="10.00">CSLapack.DLARF</text>
</a>
</g>
</g>
<!-- Node9&#45;&gt;Node15 -->
<g id="edge27" class="edge"><title>Node9&#45;&gt;Node15</title>
<path fill="none" stroke="#9a32cd" stroke-dasharray="5,2" d="M521.163,-251.577C537.432,-265.72 560.422,-283.122 584,-292.5 690.136,-334.713 736.695,-273.703 839,-324.5 872.866,-341.315 901.013,-376.946 915.16,-397.335"/>
<polygon fill="#9a32cd" stroke="#9a32cd" points="523.086,-248.601 513.301,-244.539 518.417,-253.816 523.086,-248.601"/>
<text text-anchor="middle" x="711" y="-311.5" font-family="Helvetica,sans-Serif" font-size="10.00"> _lsame</text>
</g>
<!-- Node19 -->
<g id="node19" class="node"><title>Node19</title>
<g id="a_node19"><a xlink:href="../../d4/dd0/classDotNumerics_1_1LinearAlgebra_1_1CSLapack_1_1DLAMCH.html" target="_top" xlink:title="– LAPACK auxiliary routine (version 3.1) – Univ. of Tennessee, Univ. of California Berkeley and NAG L...">
<polygon fill="white" stroke="black" points="642,-515.5 642,-545.5 780,-545.5 780,-515.5 642,-515.5"/>
<text text-anchor="start" x="650" y="-533.5" font-family="Helvetica,sans-Serif" font-size="10.00">DotNumerics.LinearAlgebra.</text>
<text text-anchor="middle" x="711" y="-522.5" font-family="Helvetica,sans-Serif" font-size="10.00">CSLapack.DLAMCH</text>
</a>
</g>
</g>
<!-- Node9&#45;&gt;Node19 -->
<g id="edge32" class="edge"><title>Node9&#45;&gt;Node19</title>
<path fill="none" stroke="#9a32cd" stroke-dasharray="5,2" d="M510.067,-254.128C524.461,-284.045 548.743,-336.257 566,-382.5 575.585,-408.185 567.938,-419.283 584,-441.5 608.243,-475.032 649.117,-500.507 677.718,-515.436"/>
<polygon fill="#9a32cd" stroke="#9a32cd" points="513.096,-252.353 505.588,-244.878 506.796,-255.403 513.096,-252.353"/>
<text text-anchor="middle" x="604" y="-483.5" font-family="Helvetica,sans-Serif" font-size="10.00"> _lsame</text>
</g>
<!-- Node10&#45;&gt;Node6 -->
<g id="edge11" class="edge"><title>Node10&#45;&gt;Node6</title>
<path fill="none" stroke="#9a32cd" stroke-dasharray="5,2" d="M787.337,-144.169C810.985,-138.729 836.881,-132.771 859.769,-127.506"/>
<polygon fill="#9a32cd" stroke="#9a32cd" points="786.315,-140.812 777.355,-146.465 787.885,-147.634 786.315,-140.812"/>
<text text-anchor="middle" x="818.5" y="-144.5" font-family="Helvetica,sans-Serif" font-size="10.00"> _dtrmm</text>
</g>
<!-- Node11&#45;&gt;Node1 -->
<g id="edge14" class="edge"><title>Node11&#45;&gt;Node1</title>
<path fill="none" stroke="#9a32cd" stroke-dasharray="5,2" d="M969.011,-311.813C1053.09,-350.467 1240.48,-436.612 1316.26,-471.448"/>
<polygon fill="#9a32cd" stroke="#9a32cd" points="970.31,-308.558 959.762,-307.561 967.386,-314.918 970.31,-308.558"/>
<text text-anchor="middle" x="1138" y="-421.5" font-family="Helvetica,sans-Serif" font-size="10.00"> _dlarft</text>
</g>
<!-- Node12&#45;&gt;Node11 -->
<g id="edge15" class="edge"><title>Node12&#45;&gt;Node11</title>
<path fill="none" stroke="#9a32cd" stroke-dasharray="5,2" d="M790.168,-270.978C811.997,-274.462 835.539,-278.22 856.748,-281.605"/>
<polygon fill="#9a32cd" stroke="#9a32cd" points="790.7,-267.518 780.273,-269.398 789.597,-274.431 790.7,-267.518"/>
<text text-anchor="middle" x="818.5" y="-282.5" font-family="Helvetica,sans-Serif" font-size="10.00"> _dtrmv</text>
</g>
<!-- Node13&#45;&gt;Node11 -->
<g id="edge19" class="edge"><title>Node13&#45;&gt;Node11</title>
<path fill="none" stroke="#9a32cd" stroke-dasharray="5,2" d="M760.873,-355.685C798.777,-341.093 850.615,-321.136 885.82,-307.583"/>
<polygon fill="#9a32cd" stroke="#9a32cd" points="759.142,-352.601 751.067,-359.46 761.657,-359.133 759.142,-352.601"/>
<text text-anchor="middle" x="818.5" y="-344.5" font-family="Helvetica,sans-Serif" font-size="10.00"> _dgemv</text>
</g>
<!-- Node13&#45;&gt;Node15 -->
<g id="edge28" class="edge"><title>Node13&#45;&gt;Node15</title>
<path fill="none" stroke="#9a32cd" stroke-dasharray="5,2" d="M790.168,-388.445C811.997,-392.34 835.539,-396.54 856.748,-400.324"/>
<polygon fill="#9a32cd" stroke="#9a32cd" points="790.733,-384.991 780.273,-386.68 789.503,-391.882 790.733,-384.991"/>
<text text-anchor="middle" x="818.5" y="-400.5" font-family="Helvetica,sans-Serif" font-size="10.00"> _dgemv</text>
</g>
<!-- Node14&#45;&gt;Node1 -->
<g id="edge22" class="edge"><title>Node14&#45;&gt;Node1</title>
<path fill="none" stroke="#9a32cd" stroke-dasharray="5,2" d="M1217.29,-486.5C1238.15,-486.5 1260.53,-486.5 1280.8,-486.5"/>
<polygon fill="#9a32cd" stroke="#9a32cd" points="1217.18,-483 1207.18,-486.5 1217.18,-490 1217.18,-483"/>
<text text-anchor="middle" x="1244" y="-489.5" font-family="Helvetica,sans-Serif" font-size="10.00"> _dgerq2</text>
</g>
<!-- Node15&#45;&gt;Node14 -->
<g id="edge24" class="edge"><title>Node15&#45;&gt;Node14</title>
<path fill="none" stroke="#9a32cd" stroke-dasharray="5,2" d="M979.443,-430.98C1014.89,-443.472 1061.11,-459.758 1094.31,-471.457"/>
<polygon fill="#9a32cd" stroke="#9a32cd" points="980.345,-427.587 969.75,-427.564 978.018,-434.189 980.345,-427.587"/>
<text text-anchor="middle" x="1032" y="-459.5" font-family="Helvetica,sans-Serif" font-size="10.00"> _dlarf</text>
</g>
<!-- Node16&#45;&gt;Node15 -->
<g id="edge25" class="edge"><title>Node16&#45;&gt;Node15</title>
<path fill="none" stroke="#9a32cd" stroke-dasharray="5,2" d="M790.463,-429.554C812.21,-426.797 835.635,-423.828 856.748,-421.152"/>
<polygon fill="#9a32cd" stroke="#9a32cd" points="789.754,-426.116 780.273,-430.846 790.634,-433.06 789.754,-426.116"/>
<text text-anchor="middle" x="818.5" y="-431.5" font-family="Helvetica,sans-Serif" font-size="10.00"> _dger</text>
</g>
<!-- Node17 -->
<g id="node17" class="node"><title>Node17</title>
<g id="a_node17"><a xlink:href="../../d8/dbd/classDotNumerics_1_1LinearAlgebra_1_1CSLapack_1_1DLARFG.html" target="_top" xlink:title="– LAPACK auxiliary routine (version 3.1) – Univ. of Tennessee, Univ. of California Berkeley and NAG L...">
<polygon fill="white" stroke="black" points="857,-564.5 857,-594.5 995,-594.5 995,-564.5 857,-564.5"/>
<text text-anchor="start" x="865" y="-582.5" font-family="Helvetica,sans-Serif" font-size="10.00">DotNumerics.LinearAlgebra.</text>
<text text-anchor="middle" x="926" y="-571.5" font-family="Helvetica,sans-Serif" font-size="10.00">CSLapack.DLARFG</text>
</a>
</g>
</g>
<!-- Node17&#45;&gt;Node14 -->
<g id="edge29" class="edge"><title>Node17&#45;&gt;Node14</title>
<path fill="none" stroke="#9a32cd" stroke-dasharray="5,2" d="M970.784,-560.11C1010.03,-542.729 1066.81,-517.583 1102.81,-501.643"/>
<polygon fill="#9a32cd" stroke="#9a32cd" points="968.934,-557.101 961.208,-564.351 971.768,-563.502 968.934,-557.101"/>
<text text-anchor="middle" x="1032" y="-544.5" font-family="Helvetica,sans-Serif" font-size="10.00"> _dlarfg</text>
</g>
<!-- Node18 -->
<g id="node18" class="node"><title>Node18</title>
<g id="a_node18"><a xlink:href="../../d1/d76/classDotNumerics_1_1LinearAlgebra_1_1CSLapack_1_1DSCAL.html" target="_top" xlink:title=" ">
<polygon fill="white" stroke="black" points="642,-613.5 642,-643.5 780,-643.5 780,-613.5 642,-613.5"/>
<text text-anchor="start" x="650" y="-631.5" font-family="Helvetica,sans-Serif" font-size="10.00">DotNumerics.LinearAlgebra.</text>
<text text-anchor="middle" x="711" y="-620.5" font-family="Helvetica,sans-Serif" font-size="10.00">CSLapack.DSCAL</text>
</a>
</g>
</g>
<!-- Node18&#45;&gt;Node17 -->
<g id="edge30" class="edge"><title>Node18&#45;&gt;Node17</title>
<path fill="none" stroke="#9a32cd" stroke-dasharray="5,2" d="M787.337,-611.169C810.985,-605.729 836.881,-599.771 859.769,-594.506"/>
<polygon fill="#9a32cd" stroke="#9a32cd" points="786.315,-607.812 777.355,-613.465 787.885,-614.634 786.315,-607.812"/>
<text text-anchor="middle" x="818.5" y="-611.5" font-family="Helvetica,sans-Serif" font-size="10.00"> _dscal</text>
</g>
<!-- Node19&#45;&gt;Node17 -->
<g id="edge31" class="edge"><title>Node19&#45;&gt;Node17</title>
<path fill="none" stroke="#9a32cd" stroke-dasharray="5,2" d="M787.337,-547.831C810.985,-553.271 836.881,-559.229 859.769,-564.494"/>
<polygon fill="#9a32cd" stroke="#9a32cd" points="787.885,-544.366 777.355,-545.535 786.315,-551.188 787.885,-544.366"/>
<text text-anchor="middle" x="818.5" y="-562.5" font-family="Helvetica,sans-Serif" font-size="10.00"> _dlamch</text>
</g>
<!-- Node20 -->
<g id="node20" class="node"><title>Node20</title>
<g id="a_node20"><a xlink:href="../../dc/ddd/classDotNumerics_1_1LinearAlgebra_1_1CSLapack_1_1DLAMC2.html" target="_top" xlink:title="– LAPACK auxiliary routine (version 3.1) – Univ. of Tennessee, Univ. of California Berkeley and NAG L...">
<polygon fill="white" stroke="black" points="428,-519.5 428,-549.5 566,-549.5 566,-519.5 428,-519.5"/>
<text text-anchor="start" x="436" y="-537.5" font-family="Helvetica,sans-Serif" font-size="10.00">DotNumerics.LinearAlgebra.</text>
<text text-anchor="middle" x="497" y="-526.5" font-family="Helvetica,sans-Serif" font-size="10.00">CSLapack.DLAMC2</text>
</a>
</g>
</g>
<!-- Node20&#45;&gt;Node19 -->
<g id="edge33" class="edge"><title>Node20&#45;&gt;Node19</title>
<path fill="none" stroke="#9a32cd" stroke-dasharray="5,2" d="M576.328,-533.022C597.843,-532.616 620.993,-532.179 641.883,-531.785"/>
<polygon fill="#9a32cd" stroke="#9a32cd" points="576.177,-529.524 566.245,-533.212 576.309,-536.523 576.177,-529.524"/>
<text text-anchor="middle" x="604" y="-536.5" font-family="Helvetica,sans-Serif" font-size="10.00"> _dlamc2</text>
</g>
<!-- Node21 -->
<g id="node21" class="node"><title>Node21</title>
<g id="a_node21"><a xlink:href="../../d5/db1/classDotNumerics_1_1LinearAlgebra_1_1CSLapack_1_1DLAMC1.html" target="_top" xlink:title="– LAPACK auxiliary routine (version 3.1) – Univ. of Tennessee, Univ. of California Berkeley and NAG L...">
<polygon fill="white" stroke="black" points="214,-577.5 214,-607.5 352,-607.5 352,-577.5 214,-577.5"/>
<text text-anchor="start" x="222" y="-595.5" font-family="Helvetica,sans-Serif" font-size="10.00">DotNumerics.LinearAlgebra.</text>
<text text-anchor="middle" x="283" y="-584.5" font-family="Helvetica,sans-Serif" font-size="10.00">CSLapack.DLAMC1</text>
</a>
</g>
</g>
<!-- Node21&#45;&gt;Node20 -->
<g id="edge34" class="edge"><title>Node21&#45;&gt;Node20</title>
<path fill="none" stroke="#9a32cd" stroke-dasharray="5,2" d="M358.499,-574.995C375.48,-570.776 393.406,-566.141 410,-561.5 422.961,-557.875 436.919,-553.638 449.742,-549.61"/>
<polygon fill="#9a32cd" stroke="#9a32cd" points="357.5,-571.636 348.627,-577.427 359.174,-578.433 357.5,-571.636"/>
<text text-anchor="middle" x="390" y="-575.5" font-family="Helvetica,sans-Serif" font-size="10.00"> _dlamc1</text>
</g>
<!-- Node22 -->
<g id="node22" class="node"><title>Node22</title>
<g id="a_node22"><a xlink:href="../../db/dbb/classDotNumerics_1_1LinearAlgebra_1_1CSLapack_1_1DLAMC3.html" target="_top" xlink:title="– LAPACK auxiliary routine (version 3.1) – Univ. of Tennessee, Univ. of California Berkeley and NAG L...">
<polygon fill="white" stroke="black" points="0,-512.5 0,-542.5 138,-542.5 138,-512.5 0,-512.5"/>
<text text-anchor="start" x="8" y="-530.5" font-family="Helvetica,sans-Serif" font-size="10.00">DotNumerics.LinearAlgebra.</text>
<text text-anchor="middle" x="69" y="-519.5" font-family="Helvetica,sans-Serif" font-size="10.00">CSLapack.DLAMC3</text>
</a>
</g>
</g>
<!-- Node22&#45;&gt;Node20 -->
<g id="edge36" class="edge"><title>Node22&#45;&gt;Node20</title>
<path fill="none" stroke="#9a32cd" stroke-dasharray="5,2" d="M148.247,-529.335C150.862,-529.391 153.452,-529.447 156,-529.5 251.107,-531.495 274.881,-532.234 370,-533.5 388.811,-533.75 409.204,-533.945 427.991,-534.094"/>
<polygon fill="#9a32cd" stroke="#9a32cd" points="148.142,-525.832 138.068,-529.112 147.989,-532.83 148.142,-525.832"/>
<text text-anchor="middle" x="283" y="-536.5" font-family="Helvetica,sans-Serif" font-size="10.00"> _dlamc3</text>
</g>
<!-- Node22&#45;&gt;Node21 -->
<g id="edge35" class="edge"><title>Node22&#45;&gt;Node21</title>
<path fill="none" stroke="#9a32cd" stroke-dasharray="5,2" d="M114.523,-546.427C127.74,-551.685 142.338,-557.141 156,-561.5 174.564,-567.423 194.968,-572.883 213.85,-577.516"/>
<polygon fill="#9a32cd" stroke="#9a32cd" points="115.759,-543.152 105.176,-542.653 113.138,-549.643 115.759,-543.152"/>
<text text-anchor="middle" x="176" y="-575.5" font-family="Helvetica,sans-Serif" font-size="10.00"> _dlamc3</text>
</g>
<!-- Node23 -->
<g id="node23" class="node"><title>Node23</title>
<g id="a_node23"><a xlink:href="../../de/dd1/classDotNumerics_1_1LinearAlgebra_1_1CSLapack_1_1DLAMC4.html" target="_top" xlink:title="– LAPACK auxiliary routine (version 3.1) – Univ. of Tennessee, Univ. of California Berkeley and NAG L...">
<polygon fill="white" stroke="black" points="214,-480.5 214,-510.5 352,-510.5 352,-480.5 214,-480.5"/>
<text text-anchor="start" x="222" y="-498.5" font-family="Helvetica,sans-Serif" font-size="10.00">DotNumerics.LinearAlgebra.</text>
<text text-anchor="middle" x="283" y="-487.5" font-family="Helvetica,sans-Serif" font-size="10.00">CSLapack.DLAMC4</text>
</a>
</g>
</g>
<!-- Node22&#45;&gt;Node23 -->
<g id="edge38" class="edge"><title>Node22&#45;&gt;Node23</title>
<path fill="none" stroke="#9a32cd" stroke-dasharray="5,2" d="M148.328,-515.677C169.843,-512.429 192.993,-508.935 213.883,-505.782"/>
<polygon fill="#9a32cd" stroke="#9a32cd" points="147.611,-512.245 138.245,-517.199 148.655,-519.167 147.611,-512.245"/>
<text text-anchor="middle" x="176" y="-517.5" font-family="Helvetica,sans-Serif" font-size="10.00"> _dlamc3</text>
</g>
<!-- Node24 -->
<g id="node24" class="node"><title>Node24</title>
<g id="a_node24"><a xlink:href="../../d7/d30/classDotNumerics_1_1LinearAlgebra_1_1CSLapack_1_1DLAMC5.html" target="_top" xlink:title="– LAPACK auxiliary routine (version 3.1) – Univ. of Tennessee, Univ. of California Berkeley and NAG L...">
<polygon fill="white" stroke="black" points="214,-431.5 214,-461.5 352,-461.5 352,-431.5 214,-431.5"/>
<text text-anchor="start" x="222" y="-449.5" font-family="Helvetica,sans-Serif" font-size="10.00">DotNumerics.LinearAlgebra.</text>
<text text-anchor="middle" x="283" y="-438.5" font-family="Helvetica,sans-Serif" font-size="10.00">CSLapack.DLAMC5</text>
</a>
</g>
</g>
<!-- Node22&#45;&gt;Node24 -->
<g id="edge40" class="edge"><title>Node22&#45;&gt;Node24</title>
<path fill="none" stroke="#9a32cd" stroke-dasharray="5,2" d="M116.422,-508.612C144.555,-497.293 181.225,-482.766 214,-470.5 221.856,-467.56 230.257,-464.515 238.381,-461.621"/>
<polygon fill="#9a32cd" stroke="#9a32cd" points="114.813,-505.487 106.847,-512.472 117.43,-511.979 114.813,-505.487"/>
<text text-anchor="middle" x="176" y="-495.5" font-family="Helvetica,sans-Serif" font-size="10.00"> _dlamc3</text>
</g>
<!-- Node23&#45;&gt;Node20 -->
<g id="edge37" class="edge"><title>Node23&#45;&gt;Node20</title>
<path fill="none" stroke="#9a32cd" stroke-dasharray="5,2" d="M362.328,-509.909C383.843,-513.867 406.993,-518.126 427.883,-521.969"/>
<polygon fill="#9a32cd" stroke="#9a32cd" points="362.713,-506.422 352.245,-508.055 361.447,-513.306 362.713,-506.422"/>
<text text-anchor="middle" x="390" y="-521.5" font-family="Helvetica,sans-Serif" font-size="10.00"> _dlamc4</text>
</g>
<!-- Node24&#45;&gt;Node20 -->
<g id="edge39" class="edge"><title>Node24&#45;&gt;Node20</title>
<path fill="none" stroke="#9a32cd" stroke-dasharray="5,2" d="M338.117,-465.163C342.83,-466.92 347.511,-468.713 352,-470.5 391.018,-486.028 435.017,-505.945 463.996,-519.404"/>
<polygon fill="#9a32cd" stroke="#9a32cd" points="339.042,-461.774 328.448,-461.619 336.633,-468.347 339.042,-461.774"/>
<text text-anchor="middle" x="390" y="-497.5" font-family="Helvetica,sans-Serif" font-size="10.00"> _dlamc5</text>
</g>
<!-- Node25 -->
<g id="node25" class="node"><title>Node25</title>
<g id="a_node25"><a xlink:href="../../d1/dbf/classDotNumerics_1_1LinearAlgebra_1_1CSLapack_1_1DLAPY2.html" target="_top" xlink:title="– LAPACK auxiliary routine (version 3.1) – Univ. of Tennessee, Univ. of California Berkeley and NAG L...">
<polygon fill="white" stroke="black" points="642,-564.5 642,-594.5 780,-594.5 780,-564.5 642,-564.5"/>
<text text-anchor="start" x="650" y="-582.5" font-family="Helvetica,sans-Serif" font-size="10.00">DotNumerics.LinearAlgebra.</text>
<text text-anchor="middle" x="711" y="-571.5" font-family="Helvetica,sans-Serif" font-size="10.00">CSLapack.DLAPY2</text>
</a>
</g>
</g>
<!-- Node25&#45;&gt;Node17 -->
<g id="edge41" class="edge"><title>Node25&#45;&gt;Node17</title>
<path fill="none" stroke="#9a32cd" stroke-dasharray="5,2" d="M790.463,-579.5C812.21,-579.5 835.635,-579.5 856.748,-579.5"/>
<polygon fill="#9a32cd" stroke="#9a32cd" points="790.273,-576 780.273,-579.5 790.273,-583 790.273,-576"/>
<text text-anchor="middle" x="818.5" y="-582.5" font-family="Helvetica,sans-Serif" font-size="10.00"> _dlapy2</text>
</g>
<!-- Node26 -->
<g id="node26" class="node"><title>Node26</title>
<g id="a_node26"><a xlink:href="../../d3/df8/classDotNumerics_1_1LinearAlgebra_1_1CSLapack_1_1DNRM2.html" target="_top" xlink:title=" ">
<polygon fill="white" stroke="black" points="642,-701.5 642,-731.5 780,-731.5 780,-701.5 642,-701.5"/>
<text text-anchor="start" x="650" y="-719.5" font-family="Helvetica,sans-Serif" font-size="10.00">DotNumerics.LinearAlgebra.</text>
<text text-anchor="middle" x="711" y="-708.5" font-family="Helvetica,sans-Serif" font-size="10.00">CSLapack.DNRM2</text>
</a>
</g>
</g>
<!-- Node26&#45;&gt;Node17 -->
<g id="edge42" class="edge"><title>Node26&#45;&gt;Node17</title>
<path fill="none" stroke="#9a32cd" stroke-dasharray="5,2" d="M744.059,-695.88C787.315,-668.058 863.348,-619.154 901.61,-594.544"/>
<polygon fill="#9a32cd" stroke="#9a32cd" points="742.126,-692.962 735.609,-701.315 745.912,-698.849 742.126,-692.962"/>
<text text-anchor="middle" x="818.5" y="-663.5" font-family="Helvetica,sans-Serif" font-size="10.00"> _dnrm2</text>
</g>
<!-- Node27 -->
<g id="node27" class="node"><title>Node27</title>
<g id="a_node27"><a xlink:href="../../d2/dbc/interfaceDotNumerics_1_1LinearAlgebra_1_1CSLapack_1_1IDNRM2.html" target="_top" xlink:title=" ">
<polygon fill="white" stroke="black" points="470.5,-707 470.5,-726 523.5,-726 523.5,-707 470.5,-707"/>
<text text-anchor="middle" x="497" y="-714" font-family="Helvetica,sans-Serif" font-size="10.00">IDNRM2</text>
</a>
</g>
</g>
<!-- Node27&#45;&gt;Node26 -->
<g id="edge43" class="edge"><title>Node27&#45;&gt;Node26</title>
<path fill="none" stroke="midnightblue" d="M533.778,-716.5C563.19,-716.5 605.712,-716.5 641.618,-716.5"/>
<polygon fill="midnightblue" stroke="midnightblue" points="533.572,-713 523.572,-716.5 533.572,-720 533.572,-713"/>
</g>
</g>
</svg>
        <g id="navigator" transform="translate(0 0)" fill="#404254">
                <rect fill="#f2f5e9" fill-opacity="0.5" stroke="#606060" stroke-width=".5" x="0" y="0" width="60" height="60"/>
                <use id="zoomplus" xlink:href="#zoomPlus" x="17" y="9" onmousedown="handleZoom(evt,'in')"/>
                <use id="zoomminus" xlink:href="#zoomMin" x="42" y="9" onmousedown="handleZoom(evt,'out')"/>
                <use id="reset" xlink:href="#resetDef" x="30" y="36" onmousedown="handleReset()"/>
                <g id="arrowUp" xlink:href="#dirArrow" transform="translate(30 24)" onmousedown="handlePan(0,-1)">
                  <use xlink:href="#rim" fill="#404040">
                        <set attributeName="fill" to="#808080" begin="arrowUp.mouseover" end="arrowUp.mouseout"/>
                  </use>
                  <path fill="none" stroke="white" stroke-width="1.5" d="M0,-3.0v7 M-2.5,-0.5L0,-3.0L2.5,-0.5"/>
                </g>
                <g id="arrowRight" xlink:href="#dirArrow" transform="rotate(90) translate(36 -43)" onmousedown="handlePan(1,0)">
                  <use xlink:href="#rim" fill="#404040">
                        <set attributeName="fill" to="#808080" begin="arrowRight.mouseover" end="arrowRight.mouseout"/>
                  </use>
                  <path fill="none" stroke="white" stroke-width="1.5" d="M0,-3.0v7 M-2.5,-0.5L0,-3.0L2.5,-0.5"/>
                </g>
                <g id="arrowDown" xlink:href="#dirArrow" transform="rotate(180) translate(-30 -48)" onmousedown="handlePan(0,1)">
                  <use xlink:href="#rim" fill="#404040">
                        <set attributeName="fill" to="#808080" begin="arrowDown.mouseover" end="arrowDown.mouseout"/>
                  </use>
                  <path fill="none" stroke="white" stroke-width="1.5" d="M0,-3.0v7 M-2.5,-0.5L0,-3.0L2.5,-0.5"/>
                </g>
                <g id="arrowLeft" xlink:href="#dirArrow" transform="rotate(270) translate(-36 17)" onmousedown="handlePan(-1,0)">
                  <use xlink:href="#rim" fill="#404040">
                        <set attributeName="fill" to="#808080" begin="arrowLeft.mouseover" end="arrowLeft.mouseout"/>
                  </use>
                  <path fill="none" stroke="white" stroke-width="1.5" d="M0,-3.0v7 M-2.5,-0.5L0,-3.0L2.5,-0.5"/>
                </g>
        </g>
        <svg viewBox="0 0 15 15" width="100%" height="30px" preserveAspectRatio="xMaxYMin meet">
         <g id="arrow_out" transform="scale(0.3 0.3)">
          <a xlink:href="classDotNumerics_1_1LinearAlgebra_1_1CSLapack_1_1DGERQF__coll__graph_org.svg" target="_base">
           <rect id="button" ry="5" rx="5" y="6" x="6" height="38" width="38"
                fill="#f2f5e9" fill-opacity="0.5" stroke="#606060" stroke-width="1.0"/>
           <path id="arrow"
             d="M 11.500037,31.436501 C 11.940474,20.09759 22.043105,11.32322 32.158766,21.979434 L 37.068811,17.246167 C 37.068811,17.246167 37.088388,32 37.088388,32 L 22.160133,31.978069 C 22.160133,31.978069 26.997745,27.140456 26.997745,27.140456 C 18.528582,18.264221 13.291696,25.230495 11.500037,31.436501 z"
             style="fill:#404040;"/>
          </a>
         </g>
        </svg>
</svg>
