<?xml version="1.0" encoding="UTF-8" standalone="no"?>
<!DOCTYPE svg PUBLIC "-//W3C//DTD SVG 1.1//EN"
 "http://www.w3.org/Graphics/SVG/1.1/DTD/svg11.dtd">
<!-- Generated by graphviz version 2.38.0 (20140413.2041)
 -->
<!-- Title: IG.Num.ResponseEvaluatorWithStorageVector Pages: 1 -->
<svg width="501pt" height="126pt"
 viewBox="0.00 0.00 501.00 126.00" xmlns="http://www.w3.org/2000/svg" xmlns:xlink="http://www.w3.org/1999/xlink">
<g id="graph0" class="graph" transform="scale(1 1) rotate(0) translate(4 122)">
<title>IG.Num.ResponseEvaluatorWithStorageVector</title>
<polygon fill="white" stroke="none" points="-4,4 -4,-122 497,-122 497,4 -4,4"/>
<!-- Node1 -->
<g id="node1" class="node"><title>Node1</title>
<g id="a_node1"><a xlink:title="Base class for response evaluators where response is evaluated by objects of type IAnalysis .">
<polygon fill="#bfbfbf" stroke="black" points="357,-33 357,-63 493,-63 493,-33 357,-33"/>
<text text-anchor="start" x="365" y="-51" font-family="Helvetica,sans-Serif" font-size="10.00">IG.Num.ResponseEvaluator</text>
<text text-anchor="middle" x="425" y="-40" font-family="Helvetica,sans-Serif" font-size="10.00">WithStorageVector</text>
</a>
</g>
</g>
<!-- Node2 -->
<g id="node2" class="node"><title>Node2</title>
<g id="a_node2"><a xlink:href="../../df/d15/classIG_1_1Num_1_1ResponseEvaluatorWithStorageBase.html" target="_top" xlink:title=" ">
<polygon fill="white" stroke="black" points="95,-76.5 95,-117.5 249,-117.5 249,-76.5 95,-76.5"/>
<text text-anchor="start" x="103" y="-105.5" font-family="Helvetica,sans-Serif" font-size="10.00">ResponseEvaluatorWithStorage</text>
<text text-anchor="start" x="103" y="-94.5" font-family="Helvetica,sans-Serif" font-size="10.00">Base&lt; VectorFunctionResults,</text>
<text text-anchor="middle" x="172" y="-83.5" font-family="Helvetica,sans-Serif" font-size="10.00"> IVectorFunction &gt;</text>
</a>
</g>
</g>
<!-- Node2&#45;&gt;Node1 -->
<g id="edge1" class="edge"><title>Node2&#45;&gt;Node1</title>
<path fill="none" stroke="midnightblue" d="M259.542,-80.1053C291.433,-73.8795 327.051,-66.9264 356.962,-61.0871"/>
<polygon fill="midnightblue" stroke="midnightblue" points="258.475,-76.7476 249.331,-82.0988 259.816,-83.6179 258.475,-76.7476"/>
</g>
<!-- Node3 -->
<g id="node3" class="node"><title>Node3</title>
<g id="a_node3"><a xlink:href="../../d3/db6/interfaceIG_1_1Lib_1_1ILockable.html" target="_top" xlink:title="Lockable object, has a Lock property that returns object on which lock must be performed in order to ...">
<polygon fill="white" stroke="black" points="0,-22.5 0,-41.5 58,-41.5 58,-22.5 0,-22.5"/>
<text text-anchor="middle" x="29" y="-29.5" font-family="Helvetica,sans-Serif" font-size="10.00">ILockable</text>
</a>
</g>
</g>
<!-- Node3&#45;&gt;Node1 -->
<g id="edge2" class="edge"><title>Node3&#45;&gt;Node1</title>
<path fill="none" stroke="midnightblue" d="M68.2777,-33.6737C70.8911,-33.785 73.4842,-33.8947 76,-34 173.717,-38.0899 286.88,-42.6005 356.959,-45.3675"/>
<polygon fill="midnightblue" stroke="midnightblue" points="68.3598,-30.1741 58.2187,-33.2414 68.0592,-37.1676 68.3598,-30.1741"/>
</g>
<!-- Node4 -->
<g id="node4" class="node"><title>Node4</title>
<g id="a_node4"><a xlink:href="../../da/d06/interfaceIG_1_1Num_1_1IVectorFunction.html" target="_top" xlink:title="Vector function of a vector argument.">
<polygon fill="white" stroke="black" points="111.5,-0.5 111.5,-19.5 232.5,-19.5 232.5,-0.5 111.5,-0.5"/>
<text text-anchor="middle" x="172" y="-7.5" font-family="Helvetica,sans-Serif" font-size="10.00">IG.Num.IVectorFunction</text>
</a>
</g>
</g>
<!-- Node3&#45;&gt;Node4 -->
<g id="edge4" class="edge"><title>Node3&#45;&gt;Node4</title>
<path fill="none" stroke="midnightblue" d="M68.3692,-26.0133C81.6331,-23.9438 96.8274,-21.573 111.387,-19.3013"/>
<polygon fill="midnightblue" stroke="midnightblue" points="67.5354,-22.601 58.1946,-27.6008 68.6146,-29.5173 67.5354,-22.601"/>
</g>
<!-- Node4&#45;&gt;Node1 -->
<g id="edge3" class="edge"><title>Node4&#45;&gt;Node1</title>
<path fill="none" stroke="#9a32cd" stroke-dasharray="5,2" d="M242.855,-12.2416C272.663,-14.0298 307.72,-17.2399 339,-23 352.312,-25.4514 366.516,-29.1715 379.426,-32.9985"/>
<polygon fill="#9a32cd" stroke="#9a32cd" points="242.725,-8.72901 232.545,-11.6666 242.335,-15.7181 242.725,-8.72901"/>
<text text-anchor="middle" x="303" y="-26" font-family="Helvetica,sans-Serif" font-size="10.00"> _vectorFunction</text>
</g>
</g>
</svg>
