<?xml version="1.0" encoding="UTF-8" standalone="no"?>
<!DOCTYPE svg PUBLIC "-//W3C//DTD SVG 1.1//EN"
 "http://www.w3.org/Graphics/SVG/1.1/DTD/svg11.dtd">
<!-- Generated by graphviz version 2.38.0 (20140413.2041)
 -->
<!-- Title: IG.Gr3d.TestVtkGraphic Pages: 1 -->
<svg width="129pt" height="262pt"
 viewBox="0.00 0.00 129.00 262.00" xmlns="http://www.w3.org/2000/svg" xmlns:xlink="http://www.w3.org/1999/xlink">
<g id="graph0" class="graph" transform="scale(1 1) rotate(0) translate(4 258)">
<title>IG.Gr3d.TestVtkGraphic</title>
<polygon fill="white" stroke="none" points="-4,4 -4,-258 125,-258 125,4 -4,4"/>
<!-- Node1 -->
<g id="node1" class="node"><title>Node1</title>
<g id="a_node1"><a xlink:title="Tests of 3D graphics enabled by ActiViz (VTK wrapper library).">
<polygon fill="#bfbfbf" stroke="black" points="0,-0.5 0,-19.5 121,-19.5 121,-0.5 0,-0.5"/>
<text text-anchor="middle" x="60.5" y="-7.5" font-family="Helvetica,sans-Serif" font-size="10.00">IG.Gr3d.TestVtkGraphic</text>
</a>
</g>
</g>
<!-- Node2 -->
<g id="node2" class="node"><title>Node2</title>
<g id="a_node2"><a xlink:href="../../dd/dff/classIG_1_1Gr3d_1_1TestVtkGraphicBase.html" target="_top" xlink:title="Tests of 3D graphics enabled by ActiViz (VTK wrapper library).">
<polygon fill="white" stroke="black" points="7,-57.5 7,-76.5 114,-76.5 114,-57.5 7,-57.5"/>
<text text-anchor="middle" x="60.5" y="-64.5" font-family="Helvetica,sans-Serif" font-size="10.00">TestVtkGraphicBase</text>
</a>
</g>
</g>
<!-- Node2&#45;&gt;Node1 -->
<g id="edge1" class="edge"><title>Node2&#45;&gt;Node1</title>
<path fill="none" stroke="midnightblue" d="M60.5,-47.1166C60.5,-37.8173 60.5,-27.0557 60.5,-19.7149"/>
<polygon fill="midnightblue" stroke="midnightblue" points="57.0001,-47.4062 60.5,-57.4063 64.0001,-47.4063 57.0001,-47.4062"/>
</g>
<!-- Node3 -->
<g id="node3" class="node"><title>Node3</title>
<g id="a_node3"><a xlink:title=" ">
<polygon fill="white" stroke="#bfbfbf" points="40,-234.5 40,-253.5 81,-253.5 81,-234.5 40,-234.5"/>
<text text-anchor="middle" x="60.5" y="-241.5" font-family="Helvetica,sans-Serif" font-size="10.00">static</text>
</a>
</g>
</g>
<!-- Node3&#45;&gt;Node2 -->
<g id="edge2" class="edge"><title>Node3&#45;&gt;Node2</title>
<path fill="none" stroke="#9a32cd" stroke-dasharray="5,2" d="M60.5,-223.951C60.5,-186.297 60.5,-103.654 60.5,-76.6932"/>
<polygon fill="#9a32cd" stroke="#9a32cd" points="57.0001,-224.081 60.5,-234.081 64.0001,-224.081 57.0001,-224.081"/>
<text text-anchor="middle" x="84" y="-208" font-family="Helvetica,sans-Serif" font-size="10.00"> maxValue</text>
<text text-anchor="middle" x="84" y="-197" font-family="Helvetica,sans-Serif" font-size="10.00">numi</text>
<text text-anchor="middle" x="84" y="-186" font-family="Helvetica,sans-Serif" font-size="10.00">numj</text>
<text text-anchor="middle" x="84" y="-175" font-family="Helvetica,sans-Serif" font-size="10.00">numk</text>
<text text-anchor="middle" x="84" y="-164" font-family="Helvetica,sans-Serif" font-size="10.00">maxX</text>
<text text-anchor="middle" x="84" y="-153" font-family="Helvetica,sans-Serif" font-size="10.00">maxY</text>
<text text-anchor="middle" x="84" y="-142" font-family="Helvetica,sans-Serif" font-size="10.00">minX</text>
<text text-anchor="middle" x="84" y="-131" font-family="Helvetica,sans-Serif" font-size="10.00">maxZ</text>
<text text-anchor="middle" x="84" y="-120" font-family="Helvetica,sans-Serif" font-size="10.00">minY</text>
<text text-anchor="middle" x="84" y="-109" font-family="Helvetica,sans-Serif" font-size="10.00">minZ</text>
<text text-anchor="middle" x="84" y="-98" font-family="Helvetica,sans-Serif" font-size="10.00">...</text>
</g>
</g>
</svg>
