<?xml version="1.0" encoding="UTF-8" standalone="no"?>
<!DOCTYPE svg PUBLIC "-//W3C//DTD SVG 1.1//EN"
 "http://www.w3.org/Graphics/SVG/1.1/DTD/svg11.dtd">
<!-- Generated by graphviz version 2.38.0 (20140413.2041)
 -->
<!-- Title: IG.MPetekLib.Application.Scripts.CompPhys._01AnnealingCatenary Pages: 1 -->
<svg width="207pt" height="128pt"
 viewBox="0.00 0.00 207.00 128.00" xmlns="http://www.w3.org/2000/svg" xmlns:xlink="http://www.w3.org/1999/xlink">
<g id="graph0" class="graph" transform="scale(1 1) rotate(0) translate(4 124)">
<title>IG.MPetekLib.Application.Scripts.CompPhys._01AnnealingCatenary</title>
<polygon fill="white" stroke="none" points="-4,4 -4,-124 203,-124 203,4 -4,4"/>
<!-- Node1 -->
<g id="node1" class="node"><title>Node1</title>
<g id="a_node1"><a xlink:title=" ">
<polygon fill="#bfbfbf" stroke="black" points="0,-0.5 0,-30.5 199,-30.5 199,-0.5 0,-0.5"/>
<text text-anchor="start" x="8" y="-18.5" font-family="Helvetica,sans-Serif" font-size="10.00">IG.MPetekLib.Application.</text>
<text text-anchor="middle" x="99.5" y="-7.5" font-family="Helvetica,sans-Serif" font-size="10.00">Scripts.CompPhys._01AnnealingCatenary</text>
</a>
</g>
</g>
<!-- Node2 -->
<g id="node2" class="node"><title>Node2</title>
<g id="a_node2"><a xlink:title=" ">
<polygon fill="white" stroke="#bfbfbf" points="79,-100.5 79,-119.5 120,-119.5 120,-100.5 79,-100.5"/>
<text text-anchor="middle" x="99.5" y="-107.5" font-family="Helvetica,sans-Serif" font-size="10.00">static</text>
</a>
</g>
</g>
<!-- Node2&#45;&gt;Node1 -->
<g id="edge1" class="edge"><title>Node2&#45;&gt;Node1</title>
<path fill="none" stroke="#9a32cd" stroke-dasharray="5,2" d="M99.5,-90.2869C99.5,-72.6698 99.5,-46.6699 99.5,-30.6999"/>
<polygon fill="#9a32cd" stroke="#9a32cd" points="96.0001,-90.4636 99.5,-100.464 103,-90.4637 96.0001,-90.4636"/>
<text text-anchor="middle" x="118.5" y="-74" font-family="Helvetica,sans-Serif" font-size="10.00"> curve1</text>
<text text-anchor="middle" x="118.5" y="-63" font-family="Helvetica,sans-Serif" font-size="10.00">catenary</text>
<text text-anchor="middle" x="118.5" y="-52" font-family="Helvetica,sans-Serif" font-size="10.00">plothq1</text>
</g>
</g>
</svg>
