<?xml version="1.0" encoding="UTF-8" standalone="no"?>
<!DOCTYPE svg PUBLIC "-//W3C//DTD SVG 1.1//EN"
 "http://www.w3.org/Graphics/SVG/1.1/DTD/svg11.dtd">
<!-- Generated by graphviz version 2.38.0 (20140413.2041)
 -->
<!-- Title: NUnit.Framework.Constraints.SamePathConstraint Pages: 1 -->
<svg width="240pt" height="334pt"
 viewBox="0.00 0.00 239.50 334.00" xmlns="http://www.w3.org/2000/svg" xmlns:xlink="http://www.w3.org/1999/xlink">
<g id="graph0" class="graph" transform="scale(1 1) rotate(0) translate(4 330)">
<title>NUnit.Framework.Constraints.SamePathConstraint</title>
<polygon fill="white" stroke="none" points="-4,4 -4,-330 235.5,-330 235.5,4 -4,4"/>
<!-- Node1 -->
<g id="node1" class="node"><title>Node1</title>
<g id="a_node1"><a xlink:title="Summary description for SamePathConstraint.">
<polygon fill="#bfbfbf" stroke="black" points="36,-0.5 36,-30.5 183,-30.5 183,-0.5 36,-0.5"/>
<text text-anchor="start" x="44" y="-18.5" font-family="Helvetica,sans-Serif" font-size="10.00">NUnit.Framework.Constraints.</text>
<text text-anchor="middle" x="109.5" y="-7.5" font-family="Helvetica,sans-Serif" font-size="10.00">SamePathConstraint</text>
</a>
</g>
</g>
<!-- Node2 -->
<g id="node2" class="node"><title>Node2</title>
<g id="a_node2"><a xlink:href="../../dc/d67/classNUnit_1_1Framework_1_1Constraints_1_1PathConstraint.html" target="_top" xlink:title="PathConstraint serves as the abstract base of constraints that operate on paths and provides several ...">
<polygon fill="white" stroke="black" points="69,-68.5 69,-87.5 150,-87.5 150,-68.5 69,-68.5"/>
<text text-anchor="middle" x="109.5" y="-75.5" font-family="Helvetica,sans-Serif" font-size="10.00">PathConstraint</text>
</a>
</g>
</g>
<!-- Node2&#45;&gt;Node1 -->
<g id="edge1" class="edge"><title>Node2&#45;&gt;Node1</title>
<path fill="none" stroke="midnightblue" d="M109.5,-58.2154C109.5,-49.3565 109.5,-38.9577 109.5,-30.7587"/>
<polygon fill="midnightblue" stroke="midnightblue" points="106,-58.3318 109.5,-68.3318 113,-58.3319 106,-58.3318"/>
</g>
<!-- Node3 -->
<g id="node3" class="node"><title>Node3</title>
<g id="a_node3"><a xlink:href="../../d6/de7/classNUnit_1_1Framework_1_1Constraints_1_1StringConstraint.html" target="_top" xlink:title="StringConstraint is the abstract base for constraints that operate on strings. It supports the Ignore...">
<polygon fill="white" stroke="black" points="5.5,-135.5 5.5,-154.5 91.5,-154.5 91.5,-135.5 5.5,-135.5"/>
<text text-anchor="middle" x="48.5" y="-142.5" font-family="Helvetica,sans-Serif" font-size="10.00">StringConstraint</text>
</a>
</g>
</g>
<!-- Node3&#45;&gt;Node2 -->
<g id="edge2" class="edge"><title>Node3&#45;&gt;Node2</title>
<path fill="none" stroke="midnightblue" d="M63.8581,-127.635C75.7879,-114.923 91.859,-97.7978 101.404,-87.6273"/>
<polygon fill="midnightblue" stroke="midnightblue" points="61.0177,-125.547 56.7267,-135.234 66.1221,-130.337 61.0177,-125.547"/>
</g>
<!-- Node4 -->
<g id="node4" class="node"><title>Node4</title>
<g id="a_node4"><a xlink:href="../../d9/da9/classNUnit_1_1Framework_1_1Constraints_1_1Constraint.html" target="_top" xlink:title="The Constraint class is the base of all built&#45;in constraints within NUnit. It provides the operator o...">
<polygon fill="white" stroke="black" points="18,-192.5 18,-211.5 79,-211.5 79,-192.5 18,-192.5"/>
<text text-anchor="middle" x="48.5" y="-199.5" font-family="Helvetica,sans-Serif" font-size="10.00">Constraint</text>
</a>
</g>
</g>
<!-- Node4&#45;&gt;Node3 -->
<g id="edge3" class="edge"><title>Node4&#45;&gt;Node3</title>
<path fill="none" stroke="midnightblue" d="M48.5,-182.117C48.5,-172.817 48.5,-162.056 48.5,-154.715"/>
<polygon fill="midnightblue" stroke="midnightblue" points="45.0001,-182.406 48.5,-192.406 52.0001,-182.406 45.0001,-182.406"/>
</g>
<!-- Node5 -->
<g id="node5" class="node"><title>Node5</title>
<g id="a_node5"><a xlink:href="../../d1/d94/interfaceNUnit_1_1Framework_1_1Constraints_1_1IConstraint.html" target="_top" xlink:title="Interface for all constraints">
<polygon fill="white" stroke="black" points="17,-249.5 17,-268.5 80,-268.5 80,-249.5 17,-249.5"/>
<text text-anchor="middle" x="48.5" y="-256.5" font-family="Helvetica,sans-Serif" font-size="10.00">IConstraint</text>
</a>
</g>
</g>
<!-- Node5&#45;&gt;Node4 -->
<g id="edge4" class="edge"><title>Node5&#45;&gt;Node4</title>
<path fill="none" stroke="midnightblue" d="M48.5,-239.117C48.5,-229.817 48.5,-219.056 48.5,-211.715"/>
<polygon fill="midnightblue" stroke="midnightblue" points="45.0001,-239.406 48.5,-249.406 52.0001,-239.406 45.0001,-239.406"/>
</g>
<!-- Node6 -->
<g id="node6" class="node"><title>Node6</title>
<g id="a_node6"><a xlink:href="../../d7/d29/interfaceNUnit_1_1Framework_1_1Constraints_1_1IResolveConstraint.html" target="_top" xlink:title="The IResolveConstraint interface is implemented by all complete and resolvable constraints and expres...">
<polygon fill="white" stroke="black" points="0,-306.5 0,-325.5 97,-325.5 97,-306.5 0,-306.5"/>
<text text-anchor="middle" x="48.5" y="-313.5" font-family="Helvetica,sans-Serif" font-size="10.00">IResolveConstraint</text>
</a>
</g>
</g>
<!-- Node6&#45;&gt;Node5 -->
<g id="edge5" class="edge"><title>Node6&#45;&gt;Node5</title>
<path fill="none" stroke="midnightblue" d="M48.5,-296.117C48.5,-286.817 48.5,-276.056 48.5,-268.715"/>
<polygon fill="midnightblue" stroke="midnightblue" points="45.0001,-296.406 48.5,-306.406 52.0001,-296.406 45.0001,-296.406"/>
</g>
<!-- Node7 -->
<g id="node7" class="node"><title>Node7</title>
<g id="a_node7"><a xlink:title=" ">
<polygon fill="white" stroke="#bfbfbf" points="110,-135.5 110,-154.5 151,-154.5 151,-135.5 110,-135.5"/>
<text text-anchor="middle" x="130.5" y="-142.5" font-family="Helvetica,sans-Serif" font-size="10.00">static</text>
</a>
</g>
</g>
<!-- Node7&#45;&gt;Node2 -->
<g id="edge6" class="edge"><title>Node7&#45;&gt;Node2</title>
<path fill="none" stroke="#9a32cd" stroke-dasharray="5,2" d="M124.495,-125.415C120.481,-112.988 115.385,-97.2166 112.287,-87.6273"/>
<polygon fill="#9a32cd" stroke="#9a32cd" points="121.263,-126.794 127.668,-135.234 127.924,-124.642 121.263,-126.794"/>
<text text-anchor="middle" x="176.5" y="-109" font-family="Helvetica,sans-Serif" font-size="10.00"> DirectorySeparatorChars</text>
</g>
</g>
</svg>
