<?xml version="1.0" encoding="UTF-8" standalone="no"?>
<!DOCTYPE svg PUBLIC "-//W3C//DTD SVG 1.1//EN"
 "http://www.w3.org/Graphics/SVG/1.1/DTD/svg11.dtd">
<!-- Generated by graphviz version 2.38.0 (20140413.2041)
 -->
<!-- Title: AForge.Imaging.Filters.BaseInPlaceFilter2 Pages: 1 -->
<!--zoomable 367 -->
<svg id="main" version="1.1" xmlns="http://www.w3.org/2000/svg" xmlns:xlink="http://www.w3.org/1999/xlink" xml:space="preserve" onload="init(evt)">
<style type="text/css"><![CDATA[
.edge:hover path { stroke: red; }
.edge:hover polygon { stroke: red; fill: red; }
]]></style>
<script type="text/javascript"><![CDATA[
var edges = document.getElementsByTagName('g');
if (edges && edges.length) {
  for (var i=0;i<edges.length;i++) {
    if (edges[i].id.substr(0,4)=='edge') {
      edges[i].setAttribute('class','edge');
    }
  }
}
]]></script>
        <defs>
                <circle id="rim" cx="0" cy="0" r="7"/>
                <circle id="rim2" cx="0" cy="0" r="3.5"/>
                <g id="zoomPlus">
                        <use xlink:href="#rim" fill="#404040">
                                <set attributeName="fill" to="#808080" begin="zoomplus.mouseover" end="zoomplus.mouseout"/>
                        </use>
                        <path d="M-4,0h8M0,-4v8" fill="none" stroke="white" stroke-width="1.5" pointer-events="none"/>
                </g>
                <g id="zoomMin">
                        <use xlink:href="#rim" fill="#404040">
                                <set attributeName="fill" to="#808080" begin="zoomminus.mouseover" end="zoomminus.mouseout"/>
                        </use>
                        <path d="M-4,0h8" fill="none" stroke="white" stroke-width="1.5" pointer-events="none"/>
                </g>
                <g id="dirArrow">
                        <path fill="none" stroke="white" stroke-width="1.5" d="M0,-3.0v7 M-2.5,-0.5L0,-3.0L2.5,-0.5"/>
                </g>
               <g id="resetDef">
                       <use xlink:href="#rim2" fill="#404040">
                               <set attributeName="fill" to="#808080" begin="reset.mouseover" end="reset.mouseout"/>
                       </use>
               </g>
        </defs>

<script type="text/javascript">
var viewWidth = 598;
var viewHeight = 367;
var sectionId = 'dynsection-0';
</script>
<script xlink:href="../../svgpan.js"/>
<svg id="graph" class="graph">
<g id="viewport">
<title>AForge.Imaging.Filters.BaseInPlaceFilter2</title>
<polygon fill="white" stroke="none" points="-4,4 -4,-362.5 594,-362.5 594,4 -4,4"/>
<!-- Node1 -->
<g id="node1" class="node"><title>Node1</title>
<g id="a_node1"><a xlink:title="Base class for filters, which operate with two images of the same size and format and may be applied ...">
<polygon fill="#bfbfbf" stroke="black" points="253,-181.5 253,-211.5 393,-211.5 393,-181.5 253,-181.5"/>
<text text-anchor="start" x="261" y="-199.5" font-family="Helvetica,sans-Serif" font-size="10.00">AForge.Imaging.Filters.Base</text>
<text text-anchor="middle" x="323" y="-188.5" font-family="Helvetica,sans-Serif" font-size="10.00">InPlaceFilter2</text>
</a>
</g>
</g>
<!-- Node6 -->
<g id="node6" class="node"><title>Node6</title>
<g id="a_node6"><a xlink:href="../../d1/d63/classAForge_1_1Imaging_1_1Filters_1_1Add.html" target="_top" xlink:title="Add fillter &#45; add pixel values of two images.">
<polygon fill="white" stroke="black" points="442,-339 442,-358 577,-358 577,-339 442,-339"/>
<text text-anchor="middle" x="509.5" y="-346" font-family="Helvetica,sans-Serif" font-size="10.00">AForge.Imaging.Filters.Add</text>
</a>
</g>
</g>
<!-- Node1&#45;&gt;Node6 -->
<g id="edge5" class="edge"><title>Node1&#45;&gt;Node6</title>
<path fill="none" stroke="midnightblue" d="M336.357,-220.604C353.143,-250.845 386.05,-302.058 429,-329.5 435.099,-333.397 441.923,-336.495 448.941,-338.958"/>
<polygon fill="midnightblue" stroke="midnightblue" points="339.314,-218.713 331.482,-211.579 333.156,-222.041 339.314,-218.713"/>
</g>
<!-- Node7 -->
<g id="node7" class="node"><title>Node7</title>
<g id="a_node7"><a xlink:href="../../da/d44/classAForge_1_1Imaging_1_1Filters_1_1Difference.html" target="_top" xlink:title="Difference filter &#45; get the difference between overlay and source images.">
<polygon fill="white" stroke="black" points="429,-301 429,-320 590,-320 590,-301 429,-301"/>
<text text-anchor="middle" x="509.5" y="-308" font-family="Helvetica,sans-Serif" font-size="10.00">AForge.Imaging.Filters.Difference</text>
</a>
</g>
</g>
<!-- Node1&#45;&gt;Node7 -->
<g id="edge6" class="edge"><title>Node1&#45;&gt;Node7</title>
<path fill="none" stroke="midnightblue" d="M343.009,-219.347C362.403,-241.156 394.481,-273.309 429,-291.5 436.407,-295.403 444.622,-298.517 452.88,-300.997"/>
<polygon fill="midnightblue" stroke="midnightblue" points="345.424,-216.79 336.218,-211.546 340.144,-221.386 345.424,-216.79"/>
</g>
<!-- Node8 -->
<g id="node8" class="node"><title>Node8</title>
<g id="a_node8"><a xlink:href="../../d2/d21/classAForge_1_1Imaging_1_1Filters_1_1Intersect.html" target="_top" xlink:title="Intersect filter &#45; get MIN of pixels in two images.">
<polygon fill="white" stroke="black" points="432,-263 432,-282 587,-282 587,-263 432,-263"/>
<text text-anchor="middle" x="509.5" y="-270" font-family="Helvetica,sans-Serif" font-size="10.00">AForge.Imaging.Filters.Intersect</text>
</a>
</g>
</g>
<!-- Node1&#45;&gt;Node8 -->
<g id="edge7" class="edge"><title>Node1&#45;&gt;Node8</title>
<path fill="none" stroke="midnightblue" d="M356.532,-217.058C376.75,-229.091 403.638,-243.78 429,-253.5 438.673,-257.207 449.294,-260.345 459.536,-262.937"/>
<polygon fill="midnightblue" stroke="midnightblue" points="358.11,-213.923 347.742,-211.744 354.489,-219.913 358.11,-213.923"/>
</g>
<!-- Node9 -->
<g id="node9" class="node"><title>Node9</title>
<g id="a_node9"><a xlink:href="../../dd/dd7/classAForge_1_1Imaging_1_1Filters_1_1Merge.html" target="_top" xlink:title="Merge filter &#45; get MAX of pixels in two images.">
<polygon fill="white" stroke="black" points="437,-225 437,-244 582,-244 582,-225 437,-225"/>
<text text-anchor="middle" x="509.5" y="-232" font-family="Helvetica,sans-Serif" font-size="10.00">AForge.Imaging.Filters.Merge</text>
</a>
</g>
</g>
<!-- Node1&#45;&gt;Node9 -->
<g id="edge8" class="edge"><title>Node1&#45;&gt;Node9</title>
<path fill="none" stroke="midnightblue" d="M403.036,-212.778C423.194,-216.93 444.212,-221.259 462.132,-224.95"/>
<polygon fill="midnightblue" stroke="midnightblue" points="403.726,-209.347 393.226,-210.758 402.314,-216.203 403.726,-209.347"/>
</g>
<!-- Node10 -->
<g id="node10" class="node"><title>Node10</title>
<g id="a_node10"><a xlink:href="../../dc/d62/classAForge_1_1Imaging_1_1Filters_1_1Morph.html" target="_top" xlink:title="Morph filter.">
<polygon fill="white" stroke="black" points="437,-187 437,-206 582,-206 582,-187 437,-187"/>
<text text-anchor="middle" x="509.5" y="-194" font-family="Helvetica,sans-Serif" font-size="10.00">AForge.Imaging.Filters.Morph</text>
</a>
</g>
</g>
<!-- Node1&#45;&gt;Node10 -->
<g id="edge9" class="edge"><title>Node1&#45;&gt;Node10</title>
<path fill="none" stroke="midnightblue" d="M403.329,-196.5C414.428,-196.5 425.782,-196.5 436.731,-196.5"/>
<polygon fill="midnightblue" stroke="midnightblue" points="403.226,-193 393.226,-196.5 403.226,-200 403.226,-193"/>
</g>
<!-- Node11 -->
<g id="node11" class="node"><title>Node11</title>
<g id="a_node11"><a xlink:href="../../da/d33/classAForge_1_1Imaging_1_1Filters_1_1MoveTowards.html" target="_top" xlink:title="Move towards filter.">
<polygon fill="white" stroke="black" points="439.5,-137.5 439.5,-167.5 579.5,-167.5 579.5,-137.5 439.5,-137.5"/>
<text text-anchor="start" x="447.5" y="-155.5" font-family="Helvetica,sans-Serif" font-size="10.00">AForge.Imaging.Filters.Move</text>
<text text-anchor="middle" x="509.5" y="-144.5" font-family="Helvetica,sans-Serif" font-size="10.00">Towards</text>
</a>
</g>
</g>
<!-- Node1&#45;&gt;Node11 -->
<g id="edge10" class="edge"><title>Node1&#45;&gt;Node11</title>
<path fill="none" stroke="midnightblue" d="M396.864,-179.123C412.943,-175.289 429.844,-171.258 445.492,-167.526"/>
<polygon fill="midnightblue" stroke="midnightblue" points="395.894,-175.756 386.978,-181.481 397.518,-182.565 395.894,-175.756"/>
</g>
<!-- Node12 -->
<g id="node12" class="node"><title>Node12</title>
<g id="a_node12"><a xlink:href="../../d1/d8d/classAForge_1_1Imaging_1_1Filters_1_1StereoAnaglyph.html" target="_top" xlink:title="Stereo anaglyph filter.">
<polygon fill="white" stroke="black" points="436.5,-88.5 436.5,-118.5 582.5,-118.5 582.5,-88.5 436.5,-88.5"/>
<text text-anchor="start" x="444.5" y="-106.5" font-family="Helvetica,sans-Serif" font-size="10.00">AForge.Imaging.Filters.Stereo</text>
<text text-anchor="middle" x="509.5" y="-95.5" font-family="Helvetica,sans-Serif" font-size="10.00">Anaglyph</text>
</a>
</g>
</g>
<!-- Node1&#45;&gt;Node12 -->
<g id="edge11" class="edge"><title>Node1&#45;&gt;Node12</title>
<path fill="none" stroke="midnightblue" d="M351.336,-175.362C371.806,-160.342 400.99,-140.594 429,-127.5 436.053,-124.203 443.667,-121.229 451.293,-118.589"/>
<polygon fill="midnightblue" stroke="midnightblue" points="349.056,-172.696 343.126,-181.476 353.237,-178.31 349.056,-172.696"/>
</g>
<!-- Node13 -->
<g id="node13" class="node"><title>Node13</title>
<g id="a_node13"><a xlink:href="../../de/df6/classAForge_1_1Imaging_1_1Filters_1_1Subtract.html" target="_top" xlink:title="Subtract filter &#45; subtract pixel values of two images.">
<polygon fill="white" stroke="black" points="432,-50 432,-69 587,-69 587,-50 432,-50"/>
<text text-anchor="middle" x="509.5" y="-57" font-family="Helvetica,sans-Serif" font-size="10.00">AForge.Imaging.Filters.Subtract</text>
</a>
</g>
</g>
<!-- Node1&#45;&gt;Node13 -->
<g id="edge12" class="edge"><title>Node1&#45;&gt;Node13</title>
<path fill="none" stroke="midnightblue" d="M338.674,-172.644C356.597,-145.582 389.463,-102.152 429,-78.5 435.454,-74.6389 442.644,-71.5621 449.987,-69.1104"/>
<polygon fill="midnightblue" stroke="midnightblue" points="335.671,-170.843 333.181,-181.141 341.549,-174.643 335.671,-170.843"/>
</g>
<!-- Node14 -->
<g id="node14" class="node"><title>Node14</title>
<g id="a_node14"><a xlink:href="../../d5/de6/classAForge_1_1Imaging_1_1Filters_1_1TexturedMerge.html" target="_top" xlink:title="Merge two images using factors from texture.">
<polygon fill="white" stroke="black" points="432,-0.5 432,-30.5 587,-30.5 587,-0.5 432,-0.5"/>
<text text-anchor="start" x="440" y="-18.5" font-family="Helvetica,sans-Serif" font-size="10.00">AForge.Imaging.Filters.Textured</text>
<text text-anchor="middle" x="509.5" y="-7.5" font-family="Helvetica,sans-Serif" font-size="10.00">Merge</text>
</a>
</g>
</g>
<!-- Node1&#45;&gt;Node14 -->
<g id="edge13" class="edge"><title>Node1&#45;&gt;Node14</title>
<path fill="none" stroke="midnightblue" d="M334.234,-171.79C349.723,-137.382 382.34,-75.3509 429,-40.5 434.216,-36.6038 440.055,-33.3049 446.137,-30.5137"/>
<polygon fill="midnightblue" stroke="midnightblue" points="330.954,-170.555 330.151,-181.119 337.367,-173.361 330.954,-170.555"/>
</g>
<!-- Node2 -->
<g id="node2" class="node"><title>Node2</title>
<g id="a_node2"><a xlink:href="../../d6/d11/classAForge_1_1Imaging_1_1Filters_1_1BaseInPlaceFilter.html" target="_top" xlink:title="Base class for filters, which may be applied directly to the source image.">
<polygon fill="white" stroke="black" points="124,-187 124,-206 217,-206 217,-187 124,-187"/>
<text text-anchor="middle" x="170.5" y="-194" font-family="Helvetica,sans-Serif" font-size="10.00">BaseInPlaceFilter</text>
</a>
</g>
</g>
<!-- Node2&#45;&gt;Node1 -->
<g id="edge1" class="edge"><title>Node2&#45;&gt;Node1</title>
<path fill="none" stroke="midnightblue" d="M227.129,-196.5C235.549,-196.5 244.322,-196.5 252.985,-196.5"/>
<polygon fill="midnightblue" stroke="midnightblue" points="227.063,-193 217.063,-196.5 227.063,-200 227.063,-193"/>
</g>
<!-- Node3 -->
<g id="node3" class="node"><title>Node3</title>
<g id="a_node3"><a xlink:href="../../dd/d51/interfaceAForge_1_1Imaging_1_1Filters_1_1IFilter.html" target="_top" xlink:title="Image processing filter interface.">
<polygon fill="white" stroke="black" points="23.5,-225 23.5,-244 64.5,-244 64.5,-225 23.5,-225"/>
<text text-anchor="middle" x="44" y="-232" font-family="Helvetica,sans-Serif" font-size="10.00">IFilter</text>
</a>
</g>
</g>
<!-- Node3&#45;&gt;Node2 -->
<g id="edge2" class="edge"><title>Node3&#45;&gt;Node2</title>
<path fill="none" stroke="midnightblue" d="M74.4482,-225.512C93.6461,-219.652 118.671,-212.014 138.224,-206.046"/>
<polygon fill="midnightblue" stroke="midnightblue" points="73.27,-222.212 64.7274,-228.479 75.3136,-228.907 73.27,-222.212"/>
</g>
<!-- Node4 -->
<g id="node4" class="node"><title>Node4</title>
<g id="a_node4"><a xlink:href="../../de/d9b/interfaceAForge_1_1Imaging_1_1Filters_1_1IInPlaceFilter.html" target="_top" xlink:title="In&#45;place filter interface.">
<polygon fill="white" stroke="black" points="7.5,-187 7.5,-206 80.5,-206 80.5,-187 7.5,-187"/>
<text text-anchor="middle" x="44" y="-194" font-family="Helvetica,sans-Serif" font-size="10.00">IInPlaceFilter</text>
</a>
</g>
</g>
<!-- Node4&#45;&gt;Node2 -->
<g id="edge3" class="edge"><title>Node4&#45;&gt;Node2</title>
<path fill="none" stroke="midnightblue" d="M90.6954,-196.5C101.419,-196.5 112.849,-196.5 123.581,-196.5"/>
<polygon fill="midnightblue" stroke="midnightblue" points="90.6767,-193 80.6767,-196.5 90.6767,-200 90.6767,-193"/>
</g>
<!-- Node5 -->
<g id="node5" class="node"><title>Node5</title>
<g id="a_node5"><a xlink:href="../../d7/dec/interfaceAForge_1_1Imaging_1_1Filters_1_1IFilterInformation.html" target="_top" xlink:title="Interface which provides information about image processing filter.">
<polygon fill="white" stroke="black" points="0,-149 0,-168 88,-168 88,-149 0,-149"/>
<text text-anchor="middle" x="44" y="-156" font-family="Helvetica,sans-Serif" font-size="10.00">IFilterInformation</text>
</a>
</g>
</g>
<!-- Node5&#45;&gt;Node2 -->
<g id="edge4" class="edge"><title>Node5&#45;&gt;Node2</title>
<path fill="none" stroke="midnightblue" d="M86.0696,-171.035C103.006,-176.205 122.318,-182.099 138.093,-186.914"/>
<polygon fill="midnightblue" stroke="midnightblue" points="87.0028,-167.661 76.4166,-168.089 84.9593,-174.356 87.0028,-167.661"/>
</g>
</g>
</svg>
        <g id="navigator" transform="translate(0 0)" fill="#404254">
                <rect fill="#f2f5e9" fill-opacity="0.5" stroke="#606060" stroke-width=".5" x="0" y="0" width="60" height="60"/>
                <use id="zoomplus" xlink:href="#zoomPlus" x="17" y="9" onmousedown="handleZoom(evt,'in')"/>
                <use id="zoomminus" xlink:href="#zoomMin" x="42" y="9" onmousedown="handleZoom(evt,'out')"/>
                <use id="reset" xlink:href="#resetDef" x="30" y="36" onmousedown="handleReset()"/>
                <g id="arrowUp" xlink:href="#dirArrow" transform="translate(30 24)" onmousedown="handlePan(0,-1)">
                  <use xlink:href="#rim" fill="#404040">
                        <set attributeName="fill" to="#808080" begin="arrowUp.mouseover" end="arrowUp.mouseout"/>
                  </use>
                  <path fill="none" stroke="white" stroke-width="1.5" d="M0,-3.0v7 M-2.5,-0.5L0,-3.0L2.5,-0.5"/>
                </g>
                <g id="arrowRight" xlink:href="#dirArrow" transform="rotate(90) translate(36 -43)" onmousedown="handlePan(1,0)">
                  <use xlink:href="#rim" fill="#404040">
                        <set attributeName="fill" to="#808080" begin="arrowRight.mouseover" end="arrowRight.mouseout"/>
                  </use>
                  <path fill="none" stroke="white" stroke-width="1.5" d="M0,-3.0v7 M-2.5,-0.5L0,-3.0L2.5,-0.5"/>
                </g>
                <g id="arrowDown" xlink:href="#dirArrow" transform="rotate(180) translate(-30 -48)" onmousedown="handlePan(0,1)">
                  <use xlink:href="#rim" fill="#404040">
                        <set attributeName="fill" to="#808080" begin="arrowDown.mouseover" end="arrowDown.mouseout"/>
                  </use>
                  <path fill="none" stroke="white" stroke-width="1.5" d="M0,-3.0v7 M-2.5,-0.5L0,-3.0L2.5,-0.5"/>
                </g>
                <g id="arrowLeft" xlink:href="#dirArrow" transform="rotate(270) translate(-36 17)" onmousedown="handlePan(-1,0)">
                  <use xlink:href="#rim" fill="#404040">
                        <set attributeName="fill" to="#808080" begin="arrowLeft.mouseover" end="arrowLeft.mouseout"/>
                  </use>
                  <path fill="none" stroke="white" stroke-width="1.5" d="M0,-3.0v7 M-2.5,-0.5L0,-3.0L2.5,-0.5"/>
                </g>
        </g>
        <svg viewBox="0 0 15 15" width="100%" height="30px" preserveAspectRatio="xMaxYMin meet">
         <g id="arrow_out" transform="scale(0.3 0.3)">
          <a xlink:href="classAForge_1_1Imaging_1_1Filters_1_1BaseInPlaceFilter2__inherit__graph_org.svg" target="_base">
           <rect id="button" ry="5" rx="5" y="6" x="6" height="38" width="38"
                fill="#f2f5e9" fill-opacity="0.5" stroke="#606060" stroke-width="1.0"/>
           <path id="arrow"
             d="M 11.500037,31.436501 C 11.940474,20.09759 22.043105,11.32322 32.158766,21.979434 L 37.068811,17.246167 C 37.068811,17.246167 37.088388,32 37.088388,32 L 22.160133,31.978069 C 22.160133,31.978069 26.997745,27.140456 26.997745,27.140456 C 18.528582,18.264221 13.291696,25.230495 11.500037,31.436501 z"
             style="fill:#404040;"/>
          </a>
         </g>
        </svg>
</svg>
