<?xml version="1.0" encoding="UTF-8" standalone="no"?>
<!DOCTYPE svg PUBLIC "-//W3C//DTD SVG 1.1//EN"
 "http://www.w3.org/Graphics/SVG/1.1/DTD/svg11.dtd">
<!-- Generated by graphviz version 2.38.0 (20140413.2041)
 -->
<!-- Title: IG.Num.ComplexRealClass Pages: 1 -->
<svg width="261pt" height="231pt"
 viewBox="0.00 0.00 261.00 231.00" xmlns="http://www.w3.org/2000/svg" xmlns:xlink="http://www.w3.org/1999/xlink">
<g id="graph0" class="graph" transform="scale(1 1) rotate(0) translate(4 227)">
<title>IG.Num.ComplexRealClass</title>
<polygon fill="white" stroke="none" points="-4,4 -4,-227 257,-227 257,4 -4,4"/>
<!-- Node1 -->
<g id="node1" class="node"><title>Node1</title>
<g id="a_node1"><a xlink:title="Complex class that can only represent real numbers (imaginary part is always 0). Attempt to set an im...">
<polygon fill="#bfbfbf" stroke="black" points="0,-0.5 0,-19.5 135,-19.5 135,-0.5 0,-0.5"/>
<text text-anchor="middle" x="67.5" y="-7.5" font-family="Helvetica,sans-Serif" font-size="10.00">IG.Num.ComplexRealClass</text>
</a>
</g>
</g>
<!-- Node2 -->
<g id="node2" class="node"><title>Node2</title>
<g id="a_node2"><a xlink:href="../../de/dea/classIG_1_1Num_1_1ComplexClass.html" target="_top" xlink:title="Class representing general complex numbers.">
<polygon fill="white" stroke="black" points="78.5,-57.5 78.5,-76.5 158.5,-76.5 158.5,-57.5 78.5,-57.5"/>
<text text-anchor="middle" x="118.5" y="-64.5" font-family="Helvetica,sans-Serif" font-size="10.00">ComplexClass</text>
</a>
</g>
</g>
<!-- Node2&#45;&gt;Node1 -->
<g id="edge1" class="edge"><title>Node2&#45;&gt;Node1</title>
<path fill="none" stroke="midnightblue" d="M103.504,-49.8281C94.3718,-39.9794 83.0612,-27.7817 75.5811,-19.7149"/>
<polygon fill="midnightblue" stroke="midnightblue" points="101.165,-52.4533 110.531,-57.4063 106.298,-47.6937 101.165,-52.4533"/>
</g>
<!-- Node3 -->
<g id="node3" class="node"><title>Node3</title>
<g id="a_node3"><a xlink:href="../../dd/d3e/interfaceIG_1_1Num_1_1IComplex.html" target="_top" xlink:title="Interface that must be implemented by all complex numbers. $A Igor Oct09;">
<polygon fill="white" stroke="black" points="48,-203.5 48,-222.5 105,-222.5 105,-203.5 48,-203.5"/>
<text text-anchor="middle" x="76.5" y="-210.5" font-family="Helvetica,sans-Serif" font-size="10.00">IComplex</text>
</a>
</g>
</g>
<!-- Node3&#45;&gt;Node1 -->
<g id="edge6" class="edge"><title>Node3&#45;&gt;Node1</title>
<path fill="none" stroke="midnightblue" d="M75.3962,-193.183C73.8956,-167.101 71.2038,-118.483 69.5,-77 68.6532,-56.3829 68.0084,-32.1292 67.7003,-19.5457"/>
<polygon fill="midnightblue" stroke="midnightblue" points="71.9199,-193.694 75.9941,-203.474 78.9081,-193.288 71.9199,-193.694"/>
</g>
<!-- Node3&#45;&gt;Node2 -->
<g id="edge2" class="edge"><title>Node3&#45;&gt;Node2</title>
<path fill="none" stroke="midnightblue" d="M81.7408,-193.676C85.5388,-180.426 90.8094,-162.098 95.5,-146 102.846,-120.789 111.659,-91.0369 115.929,-76.6514"/>
<polygon fill="midnightblue" stroke="midnightblue" points="78.3298,-192.874 78.9419,-203.451 85.0594,-194.801 78.3298,-192.874"/>
</g>
<!-- Node4 -->
<g id="node4" class="node"><title>Node4</title>
<g id="a_node4"><a xlink:href="../../d0/d36/structIG_1_1Num_1_1complex.html" target="_top" xlink:title="Complex number.">
<polygon fill="white" stroke="black" points="105,-146.5 105,-165.5 194,-165.5 194,-146.5 105,-146.5"/>
<text text-anchor="middle" x="149.5" y="-153.5" font-family="Helvetica,sans-Serif" font-size="10.00">IG.Num.complex</text>
</a>
</g>
</g>
<!-- Node3&#45;&gt;Node4 -->
<g id="edge4" class="edge"><title>Node3&#45;&gt;Node4</title>
<path fill="none" stroke="midnightblue" d="M96.0282,-197.287C109.404,-187.21 126.691,-174.185 137.933,-165.715"/>
<polygon fill="midnightblue" stroke="midnightblue" points="93.787,-194.593 87.9063,-203.406 97.9993,-200.184 93.787,-194.593"/>
</g>
<!-- Node4&#45;&gt;Node2 -->
<g id="edge3" class="edge"><title>Node4&#45;&gt;Node2</title>
<path fill="none" stroke="#9a32cd" stroke-dasharray="5,2" d="M142.985,-136.715C136.407,-118.255 126.532,-90.542 121.573,-76.6249"/>
<polygon fill="#9a32cd" stroke="#9a32cd" points="139.761,-138.095 146.414,-146.34 146.355,-135.745 139.761,-138.095"/>
<text text-anchor="middle" x="154.5" y="-109" font-family="Helvetica,sans-Serif" font-size="10.00"> _base</text>
</g>
<!-- Node5 -->
<g id="node5" class="node"><title>Node5</title>
<g id="a_node5"><a xlink:title=" ">
<polygon fill="white" stroke="#bfbfbf" points="212,-146.5 212,-165.5 253,-165.5 253,-146.5 212,-146.5"/>
<text text-anchor="middle" x="232.5" y="-153.5" font-family="Helvetica,sans-Serif" font-size="10.00">static</text>
</a>
</g>
</g>
<!-- Node5&#45;&gt;Node2 -->
<g id="edge5" class="edge"><title>Node5&#45;&gt;Node2</title>
<path fill="none" stroke="#9a32cd" stroke-dasharray="5,2" d="M219.141,-138.639C207.934,-125.645 190.993,-107.623 173.5,-95 163.235,-87.593 150.629,-81.238 140.076,-76.5575"/>
<polygon fill="#9a32cd" stroke="#9a32cd" points="216.509,-140.947 225.626,-146.344 221.865,-136.439 216.509,-140.947"/>
<text text-anchor="middle" x="223.5" y="-120" font-family="Helvetica,sans-Serif" font-size="10.00"> _zero</text>
<text text-anchor="middle" x="223.5" y="-109" font-family="Helvetica,sans-Serif" font-size="10.00">_one</text>
<text text-anchor="middle" x="223.5" y="-98" font-family="Helvetica,sans-Serif" font-size="10.00">_i</text>
</g>
</g>
</svg>
