<?xml version="1.0" encoding="UTF-8" standalone="no"?>
<!DOCTYPE svg PUBLIC "-//W3C//DTD SVG 1.1//EN"
 "http://www.w3.org/Graphics/SVG/1.1/DTD/svg11.dtd">
<!-- Generated by graphviz version 2.38.0 (20140413.2041)
 -->
<!-- Title: DotNumerics.LinearAlgebra.CSLapack.DTREXC Pages: 1 -->
<svg width="1522pt" height="779pt"
 viewBox="0.00 0.00 1522.00 779.00" xmlns="http://www.w3.org/2000/svg" xmlns:xlink="http://www.w3.org/1999/xlink">
<g id="graph0" class="graph" transform="scale(1 1) rotate(0) translate(4 775)">
<title>DotNumerics.LinearAlgebra.CSLapack.DTREXC</title>
<polygon fill="white" stroke="none" points="-4,4 -4,-775 1518,-775 1518,4 -4,4"/>
<!-- Node1 -->
<g id="node1" class="node"><title>Node1</title>
<g id="a_node1"><a xlink:title="– LAPACK routine (version 3.1) – Univ. of Tennessee, Univ. of California Berkeley and NAG Ltd....">
<polygon fill="#bfbfbf" stroke="black" points="1376,-660.5 1376,-690.5 1514,-690.5 1514,-660.5 1376,-660.5"/>
<text text-anchor="start" x="1384" y="-678.5" font-family="Helvetica,sans-Serif" font-size="10.00">DotNumerics.LinearAlgebra.</text>
<text text-anchor="middle" x="1445" y="-667.5" font-family="Helvetica,sans-Serif" font-size="10.00">CSLapack.DTREXC</text>
</a>
</g>
</g>
<!-- Node2 -->
<g id="node2" class="node"><title>Node2</title>
<g id="a_node2"><a xlink:href="../../db/d6a/classDotNumerics_1_1LinearAlgebra_1_1CSLapack_1_1XERBLA.html" target="_top" xlink:title="– LAPACK auxiliary routine (version 3.1) – Univ. of Tennessee, Univ. of California Berkeley and NAG L...">
<polygon fill="white" stroke="black" points="428,-461.5 428,-491.5 566,-491.5 566,-461.5 428,-461.5"/>
<text text-anchor="start" x="436" y="-479.5" font-family="Helvetica,sans-Serif" font-size="10.00">DotNumerics.LinearAlgebra.</text>
<text text-anchor="middle" x="497" y="-468.5" font-family="Helvetica,sans-Serif" font-size="10.00">CSLapack.XERBLA</text>
</a>
</g>
</g>
<!-- Node2&#45;&gt;Node1 -->
<g id="edge1" class="edge"><title>Node2&#45;&gt;Node1</title>
<path fill="none" stroke="#9a32cd" stroke-dasharray="5,2" d="M500.874,-501.8C507.328,-546.512 527.161,-639.487 584,-689.5 627.46,-727.741 652.111,-722.5 710,-722.5 710,-722.5 710,-722.5 1235,-722.5 1294.32,-722.5 1360.85,-704.255 1402.58,-690.5"/>
<polygon fill="#9a32cd" stroke="#9a32cd" points="504.328,-501.225 499.537,-491.776 497.39,-502.151 504.328,-501.225"/>
<text text-anchor="middle" x="1023" y="-725.5" font-family="Helvetica,sans-Serif" font-size="10.00"> _xerbla</text>
</g>
<!-- Node5 -->
<g id="node5" class="node"><title>Node5</title>
<g id="a_node5"><a xlink:href="../../df/dc3/classDotNumerics_1_1LinearAlgebra_1_1CSLapack_1_1DGER.html" target="_top" xlink:title=" ">
<polygon fill="white" stroke="black" points="642,-420.5 642,-450.5 780,-450.5 780,-420.5 642,-420.5"/>
<text text-anchor="start" x="650" y="-438.5" font-family="Helvetica,sans-Serif" font-size="10.00">DotNumerics.LinearAlgebra.</text>
<text text-anchor="middle" x="711" y="-427.5" font-family="Helvetica,sans-Serif" font-size="10.00">CSLapack.DGER</text>
</a>
</g>
</g>
<!-- Node2&#45;&gt;Node5 -->
<g id="edge5" class="edge"><title>Node2&#45;&gt;Node5</title>
<path fill="none" stroke="#9a32cd" stroke-dasharray="5,2" d="M576.373,-463.374C592.165,-460.572 608.632,-457.538 624,-454.5 630.3,-453.255 636.848,-451.907 643.392,-450.523"/>
<polygon fill="#9a32cd" stroke="#9a32cd" points="575.353,-459.999 566.11,-465.179 576.565,-466.894 575.353,-459.999"/>
<text text-anchor="middle" x="604" y="-465.5" font-family="Helvetica,sans-Serif" font-size="10.00"> _xerbla</text>
</g>
<!-- Node7 -->
<g id="node7" class="node"><title>Node7</title>
<g id="a_node7"><a xlink:href="../../d7/d97/classDotNumerics_1_1LinearAlgebra_1_1CSLapack_1_1DGEMV.html" target="_top" xlink:title=" ">
<polygon fill="white" stroke="black" points="642,-371.5 642,-401.5 780,-401.5 780,-371.5 642,-371.5"/>
<text text-anchor="start" x="650" y="-389.5" font-family="Helvetica,sans-Serif" font-size="10.00">DotNumerics.LinearAlgebra.</text>
<text text-anchor="middle" x="711" y="-378.5" font-family="Helvetica,sans-Serif" font-size="10.00">CSLapack.DGEMV</text>
</a>
</g>
</g>
<!-- Node2&#45;&gt;Node7 -->
<g id="edge8" class="edge"><title>Node2&#45;&gt;Node7</title>
<path fill="none" stroke="#9a32cd" stroke-dasharray="5,2" d="M520.049,-454.395C536.339,-439.377 559.805,-420.34 584,-409.5 601.959,-401.454 622.56,-396.222 641.829,-392.821"/>
<polygon fill="#9a32cd" stroke="#9a32cd" points="517.513,-451.976 512.656,-461.392 522.325,-457.06 517.513,-451.976"/>
<text text-anchor="middle" x="604" y="-412.5" font-family="Helvetica,sans-Serif" font-size="10.00"> _xerbla</text>
</g>
<!-- Node3 -->
<g id="node3" class="node"><title>Node3</title>
<g id="a_node3"><a xlink:href="../../d0/da2/classDotNumerics_1_1LinearAlgebra_1_1CSLapack_1_1DLAEXC.html" target="_top" xlink:title="– LAPACK auxiliary routine (version 3.1) – Univ. of Tennessee, Univ. of California Berkeley and NAG L...">
<polygon fill="white" stroke="black" points="1165,-290.5 1165,-320.5 1303,-320.5 1303,-290.5 1165,-290.5"/>
<text text-anchor="start" x="1173" y="-308.5" font-family="Helvetica,sans-Serif" font-size="10.00">DotNumerics.LinearAlgebra.</text>
<text text-anchor="middle" x="1234" y="-297.5" font-family="Helvetica,sans-Serif" font-size="10.00">CSLapack.DLAEXC</text>
</a>
</g>
</g>
<!-- Node3&#45;&gt;Node1 -->
<g id="edge2" class="edge"><title>Node3&#45;&gt;Node1</title>
<path fill="none" stroke="#9a32cd" stroke-dasharray="5,2" d="M1248.83,-329.99C1288.74,-400.637 1403.27,-603.39 1435.48,-660.415"/>
<polygon fill="#9a32cd" stroke="#9a32cd" points="1251.68,-327.913 1243.71,-320.927 1245.59,-331.356 1251.68,-327.913"/>
<text text-anchor="middle" x="1339.5" y="-516.5" font-family="Helvetica,sans-Serif" font-size="10.00"> _dlaexc</text>
</g>
<!-- Node4 -->
<g id="node4" class="node"><title>Node4</title>
<g id="a_node4"><a xlink:href="../../d4/da6/classDotNumerics_1_1LinearAlgebra_1_1CSLapack_1_1DLARFX.html" target="_top" xlink:title="– LAPACK auxiliary routine (version 3.1) – Univ. of Tennessee, Univ. of California Berkeley and NAG L...">
<polygon fill="white" stroke="black" points="954,-359.5 954,-389.5 1092,-389.5 1092,-359.5 954,-359.5"/>
<text text-anchor="start" x="962" y="-377.5" font-family="Helvetica,sans-Serif" font-size="10.00">DotNumerics.LinearAlgebra.</text>
<text text-anchor="middle" x="1023" y="-366.5" font-family="Helvetica,sans-Serif" font-size="10.00">CSLapack.DLARFX</text>
</a>
</g>
</g>
<!-- Node4&#45;&gt;Node3 -->
<g id="edge3" class="edge"><title>Node4&#45;&gt;Node3</title>
<path fill="none" stroke="#9a32cd" stroke-dasharray="5,2" d="M1102.07,-356.942C1117.12,-352.964 1132.65,-348.438 1147,-343.5 1165.83,-337.019 1186.24,-328.085 1202.46,-320.508"/>
<polygon fill="#9a32cd" stroke="#9a32cd" points="1101.08,-353.583 1092.27,-359.475 1102.83,-360.36 1101.08,-353.583"/>
<text text-anchor="middle" x="1128.5" y="-358.5" font-family="Helvetica,sans-Serif" font-size="10.00"> _dlarfx</text>
</g>
<!-- Node5&#45;&gt;Node4 -->
<g id="edge4" class="edge"><title>Node5&#45;&gt;Node4</title>
<path fill="none" stroke="#9a32cd" stroke-dasharray="5,2" d="M790.681,-438.282C834.274,-437.836 888.998,-433.965 936,-420.5 959.277,-413.832 983.383,-400.26 1000.13,-389.578"/>
<polygon fill="#9a32cd" stroke="#9a32cd" points="790.406,-434.783 780.421,-438.326 790.437,-441.783 790.406,-434.783"/>
<text text-anchor="middle" x="867" y="-441.5" font-family="Helvetica,sans-Serif" font-size="10.00"> _dger</text>
</g>
<!-- Node6 -->
<g id="node6" class="node"><title>Node6</title>
<g id="a_node6"><a xlink:href="../../dd/dac/classDotNumerics_1_1LinearAlgebra_1_1CSLapack_1_1LSAME.html" target="_top" xlink:title="– LAPACK auxiliary routine (version 3.1) – Univ. of Tennessee, Univ. of California Berkeley and NAG L...">
<polygon fill="white" stroke="black" points="428,-342.5 428,-372.5 566,-372.5 566,-342.5 428,-342.5"/>
<text text-anchor="start" x="436" y="-360.5" font-family="Helvetica,sans-Serif" font-size="10.00">DotNumerics.LinearAlgebra.</text>
<text text-anchor="middle" x="497" y="-349.5" font-family="Helvetica,sans-Serif" font-size="10.00">CSLapack.LSAME</text>
</a>
</g>
</g>
<!-- Node6&#45;&gt;Node1 -->
<g id="edge42" class="edge"><title>Node6&#45;&gt;Node1</title>
<path fill="none" stroke="#9a32cd" stroke-dasharray="5,2" d="M517.284,-380.408C532.043,-398.76 552.153,-425.629 566,-451.5 611.658,-536.804 571.214,-589.541 642,-655.5 665.047,-676.976 678.498,-675.5 710,-675.5 710,-675.5 710,-675.5 1235,-675.5 1281.99,-675.5 1334.92,-675.5 1375.76,-675.5"/>
<polygon fill="#9a32cd" stroke="#9a32cd" points="519.955,-378.145 510.921,-372.61 514.531,-382.571 519.955,-378.145"/>
<text text-anchor="middle" x="1023" y="-678.5" font-family="Helvetica,sans-Serif" font-size="10.00"> _lsame</text>
</g>
<!-- Node6&#45;&gt;Node4 -->
<g id="edge6" class="edge"><title>Node6&#45;&gt;Node4</title>
<path fill="none" stroke="#9a32cd" stroke-dasharray="5,2" d="M576.098,-353.011C597.459,-351.972 620.615,-351.019 642,-350.5 703.315,-349.011 718.742,-347.47 780,-350.5 838.825,-353.41 905.399,-360.275 953.81,-365.921"/>
<polygon fill="#9a32cd" stroke="#9a32cd" points="575.912,-349.516 566.099,-353.51 576.261,-356.507 575.912,-349.516"/>
<text text-anchor="middle" x="711" y="-353.5" font-family="Helvetica,sans-Serif" font-size="10.00"> _lsame</text>
</g>
<!-- Node6&#45;&gt;Node7 -->
<g id="edge9" class="edge"><title>Node6&#45;&gt;Node7</title>
<path fill="none" stroke="#9a32cd" stroke-dasharray="5,2" d="M576.328,-368.215C597.843,-371.158 620.993,-374.325 641.883,-377.182"/>
<polygon fill="#9a32cd" stroke="#9a32cd" points="576.627,-364.723 566.245,-366.835 575.678,-371.659 576.627,-364.723"/>
<text text-anchor="middle" x="604" y="-378.5" font-family="Helvetica,sans-Serif" font-size="10.00"> _lsame</text>
</g>
<!-- Node8 -->
<g id="node8" class="node"><title>Node8</title>
<g id="a_node8"><a xlink:href="../../d4/dd0/classDotNumerics_1_1LinearAlgebra_1_1CSLapack_1_1DLAMCH.html" target="_top" xlink:title="– LAPACK auxiliary routine (version 3.1) – Univ. of Tennessee, Univ. of California Berkeley and NAG L...">
<polygon fill="white" stroke="black" points="642,-219.5 642,-249.5 780,-249.5 780,-219.5 642,-219.5"/>
<text text-anchor="start" x="650" y="-237.5" font-family="Helvetica,sans-Serif" font-size="10.00">DotNumerics.LinearAlgebra.</text>
<text text-anchor="middle" x="711" y="-226.5" font-family="Helvetica,sans-Serif" font-size="10.00">CSLapack.DLAMCH</text>
</a>
</g>
</g>
<!-- Node6&#45;&gt;Node8 -->
<g id="edge11" class="edge"><title>Node6&#45;&gt;Node8</title>
<path fill="none" stroke="#9a32cd" stroke-dasharray="5,2" d="M512.997,-333.882C528.198,-311.946 553.746,-280.099 584,-262.5 601.433,-252.359 622.181,-245.888 641.759,-241.759"/>
<polygon fill="#9a32cd" stroke="#9a32cd" points="509.997,-332.071 507.318,-342.321 515.805,-335.979 509.997,-332.071"/>
<text text-anchor="middle" x="604" y="-265.5" font-family="Helvetica,sans-Serif" font-size="10.00"> _lsame</text>
</g>
<!-- Node16 -->
<g id="node16" class="node"><title>Node16</title>
<g id="a_node16"><a xlink:href="../../db/d4e/classDotNumerics_1_1LinearAlgebra_1_1CSLapack_1_1DLANGE.html" target="_top" xlink:title="– LAPACK auxiliary routine (version 3.1) – Univ. of Tennessee, Univ. of California Berkeley and NAG L...">
<polygon fill="white" stroke="black" points="642,-616.5 642,-646.5 780,-646.5 780,-616.5 642,-616.5"/>
<text text-anchor="start" x="650" y="-634.5" font-family="Helvetica,sans-Serif" font-size="10.00">DotNumerics.LinearAlgebra.</text>
<text text-anchor="middle" x="711" y="-623.5" font-family="Helvetica,sans-Serif" font-size="10.00">CSLapack.DLANGE</text>
</a>
</g>
</g>
<!-- Node6&#45;&gt;Node16 -->
<g id="edge24" class="edge"><title>Node6&#45;&gt;Node16</title>
<path fill="none" stroke="#9a32cd" stroke-dasharray="5,2" d="M525.047,-378.921C541.632,-391.645 563.542,-407.735 584,-420.5 601.035,-431.129 612.696,-424.906 624,-441.5 665.531,-502.467 596.563,-548.386 642,-606.5 645.021,-610.365 648.701,-613.632 652.767,-616.394"/>
<polygon fill="#9a32cd" stroke="#9a32cd" points="526.945,-375.964 516.895,-372.609 522.659,-381.499 526.945,-375.964"/>
<text text-anchor="middle" x="604" y="-444.5" font-family="Helvetica,sans-Serif" font-size="10.00"> _lsame</text>
</g>
<!-- Node18 -->
<g id="node18" class="node"><title>Node18</title>
<g id="a_node18"><a xlink:href="../../d1/dda/classDotNumerics_1_1LinearAlgebra_1_1CSLapack_1_1DLACPY.html" target="_top" xlink:title="– LAPACK auxiliary routine (version 3.1) – Univ. of Tennessee, Univ. of California Berkeley and NAG L...">
<polygon fill="white" stroke="black" points="798,-295.5 798,-325.5 936,-325.5 936,-295.5 798,-295.5"/>
<text text-anchor="start" x="806" y="-313.5" font-family="Helvetica,sans-Serif" font-size="10.00">DotNumerics.LinearAlgebra.</text>
<text text-anchor="middle" x="867" y="-302.5" font-family="Helvetica,sans-Serif" font-size="10.00">CSLapack.DLACPY</text>
</a>
</g>
</g>
<!-- Node6&#45;&gt;Node18 -->
<g id="edge27" class="edge"><title>Node6&#45;&gt;Node18</title>
<path fill="none" stroke="#9a32cd" stroke-dasharray="5,2" d="M531.655,-337.373C547.053,-329.255 565.875,-320.803 584,-316.5 655.468,-299.534 740.001,-300.39 797.753,-304.008"/>
<polygon fill="#9a32cd" stroke="#9a32cd" points="529.647,-334.481 522.547,-342.344 533.001,-340.625 529.647,-334.481"/>
<text text-anchor="middle" x="604" y="-319.5" font-family="Helvetica,sans-Serif" font-size="10.00"> _lsame</text>
</g>
<!-- Node7&#45;&gt;Node4 -->
<g id="edge7" class="edge"><title>Node7&#45;&gt;Node4</title>
<path fill="none" stroke="#9a32cd" stroke-dasharray="5,2" d="M790.683,-376.043C793.149,-375.841 795.592,-375.659 798,-375.5 850.193,-372.059 909.374,-371.957 953.794,-372.636"/>
<polygon fill="#9a32cd" stroke="#9a32cd" points="790.103,-372.581 780.461,-376.974 790.738,-379.552 790.103,-372.581"/>
<text text-anchor="middle" x="867" y="-378.5" font-family="Helvetica,sans-Serif" font-size="10.00"> _dgemv</text>
</g>
<!-- Node8&#45;&gt;Node3 -->
<g id="edge10" class="edge"><title>Node8&#45;&gt;Node3</title>
<path fill="none" stroke="#9a32cd" stroke-dasharray="5,2" d="M789.95,-247.299C792.666,-247.71 795.355,-248.112 798,-248.5 927.427,-267.51 1078.98,-286.668 1164.72,-297.22"/>
<polygon fill="#9a32cd" stroke="#9a32cd" points="790.454,-243.835 780.038,-245.776 789.391,-250.754 790.454,-243.835"/>
<text text-anchor="middle" x="1023" y="-291.5" font-family="Helvetica,sans-Serif" font-size="10.00"> _dlamch</text>
</g>
<!-- Node14 -->
<g id="node14" class="node"><title>Node14</title>
<g id="a_node14"><a xlink:href="../../d5/dfc/classDotNumerics_1_1LinearAlgebra_1_1CSLapack_1_1DLANV2.html" target="_top" xlink:title="– LAPACK driver routine (version 3.1) – Univ. of Tennessee, Univ. of California Berkeley and NAG Ltd....">
<polygon fill="white" stroke="black" points="954,-117.5 954,-147.5 1092,-147.5 1092,-117.5 954,-117.5"/>
<text text-anchor="start" x="962" y="-135.5" font-family="Helvetica,sans-Serif" font-size="10.00">DotNumerics.LinearAlgebra.</text>
<text text-anchor="middle" x="1023" y="-124.5" font-family="Helvetica,sans-Serif" font-size="10.00">CSLapack.DLANV2</text>
</a>
</g>
</g>
<!-- Node8&#45;&gt;Node14 -->
<g id="edge21" class="edge"><title>Node8&#45;&gt;Node14</title>
<path fill="none" stroke="#9a32cd" stroke-dasharray="5,2" d="M789.843,-217.571C849.383,-204.2 923.372,-186.506 936,-178.5 946.67,-171.736 943.661,-163.76 954,-156.5 958.815,-153.119 964.155,-150.17 969.663,-147.609"/>
<polygon fill="#9a32cd" stroke="#9a32cd" points="789.041,-214.164 780.046,-219.762 790.569,-220.995 789.041,-214.164"/>
<text text-anchor="middle" x="867" y="-218.5" font-family="Helvetica,sans-Serif" font-size="10.00"> _dlamch</text>
</g>
<!-- Node19 -->
<g id="node19" class="node"><title>Node19</title>
<g id="a_node19"><a xlink:href="../../dd/d13/classDotNumerics_1_1LinearAlgebra_1_1CSLapack_1_1DLASY2.html" target="_top" xlink:title="– LAPACK auxiliary routine (version 3.1) – Univ. of Tennessee, Univ. of California Berkeley and NAG L...">
<polygon fill="white" stroke="black" points="954,-469.5 954,-499.5 1092,-499.5 1092,-469.5 954,-469.5"/>
<text text-anchor="start" x="962" y="-487.5" font-family="Helvetica,sans-Serif" font-size="10.00">DotNumerics.LinearAlgebra.</text>
<text text-anchor="middle" x="1023" y="-476.5" font-family="Helvetica,sans-Serif" font-size="10.00">CSLapack.DLASY2</text>
</a>
</g>
</g>
<!-- Node8&#45;&gt;Node19 -->
<g id="edge30" class="edge"><title>Node8&#45;&gt;Node19</title>
<path fill="none" stroke="#9a32cd" stroke-dasharray="5,2" d="M734.4,-257.073C749.284,-273.231 768.191,-296.171 780,-319.5 793.926,-347.01 775.017,-365.945 798,-386.5 844.244,-427.857 879.886,-381.04 936,-407.5 966.815,-422.031 994.628,-451.218 1009.84,-469.189"/>
<polygon fill="#9a32cd" stroke="#9a32cd" points="736.871,-254.591 727.466,-249.714 731.776,-259.392 736.871,-254.591"/>
<text text-anchor="middle" x="867" y="-410.5" font-family="Helvetica,sans-Serif" font-size="10.00"> _dlamch</text>
</g>
<!-- Node24 -->
<g id="node24" class="node"><title>Node24</title>
<g id="a_node24"><a xlink:href="../../d8/d10/classDotNumerics_1_1LinearAlgebra_1_1CSLapack_1_1DLARTG.html" target="_top" xlink:title="– LAPACK auxiliary routine (version 3.1) – Univ. of Tennessee, Univ. of California Berkeley and NAG L...">
<polygon fill="white" stroke="black" points="954,-215.5 954,-245.5 1092,-245.5 1092,-215.5 954,-215.5"/>
<text text-anchor="start" x="962" y="-233.5" font-family="Helvetica,sans-Serif" font-size="10.00">DotNumerics.LinearAlgebra.</text>
<text text-anchor="middle" x="1023" y="-222.5" font-family="Helvetica,sans-Serif" font-size="10.00">CSLapack.DLARTG</text>
</a>
</g>
</g>
<!-- Node8&#45;&gt;Node24 -->
<g id="edge35" class="edge"><title>Node8&#45;&gt;Node24</title>
<path fill="none" stroke="#9a32cd" stroke-dasharray="5,2" d="M790.234,-233.491C840.651,-232.84 905.564,-232.002 953.861,-231.379"/>
<polygon fill="#9a32cd" stroke="#9a32cd" points="789.985,-229.993 780.031,-233.622 790.075,-236.993 789.985,-229.993"/>
<text text-anchor="middle" x="867" y="-236.5" font-family="Helvetica,sans-Serif" font-size="10.00"> _dlamch</text>
</g>
<!-- Node25 -->
<g id="node25" class="node"><title>Node25</title>
<g id="a_node25"><a xlink:href="../../d8/dbd/classDotNumerics_1_1LinearAlgebra_1_1CSLapack_1_1DLARFG.html" target="_top" xlink:title="– LAPACK auxiliary routine (version 3.1) – Univ. of Tennessee, Univ. of California Berkeley and NAG L...">
<polygon fill="white" stroke="black" points="954,-68.5 954,-98.5 1092,-98.5 1092,-68.5 954,-68.5"/>
<text text-anchor="start" x="962" y="-86.5" font-family="Helvetica,sans-Serif" font-size="10.00">DotNumerics.LinearAlgebra.</text>
<text text-anchor="middle" x="1023" y="-75.5" font-family="Helvetica,sans-Serif" font-size="10.00">CSLapack.DLARFG</text>
</a>
</g>
</g>
<!-- Node8&#45;&gt;Node25 -->
<g id="edge38" class="edge"><title>Node8&#45;&gt;Node25</title>
<path fill="none" stroke="#9a32cd" stroke-dasharray="5,2" d="M733.236,-212.069C749.44,-196.402 773.146,-176.409 798,-165.5 854.809,-140.567 886.036,-181.276 936,-144.5 950.728,-133.66 940.356,-119.677 954,-107.5 957.83,-104.082 962.177,-101.144 966.777,-98.6182"/>
<polygon fill="#9a32cd" stroke="#9a32cd" points="730.533,-209.821 725.911,-219.354 735.47,-214.784 730.533,-209.821"/>
<text text-anchor="middle" x="867" y="-168.5" font-family="Helvetica,sans-Serif" font-size="10.00"> _dlamch</text>
</g>
<!-- Node9 -->
<g id="node9" class="node"><title>Node9</title>
<g id="a_node9"><a xlink:href="../../dc/ddd/classDotNumerics_1_1LinearAlgebra_1_1CSLapack_1_1DLAMC2.html" target="_top" xlink:title="– LAPACK auxiliary routine (version 3.1) – Univ. of Tennessee, Univ. of California Berkeley and NAG L...">
<polygon fill="white" stroke="black" points="428,-212.5 428,-242.5 566,-242.5 566,-212.5 428,-212.5"/>
<text text-anchor="start" x="436" y="-230.5" font-family="Helvetica,sans-Serif" font-size="10.00">DotNumerics.LinearAlgebra.</text>
<text text-anchor="middle" x="497" y="-219.5" font-family="Helvetica,sans-Serif" font-size="10.00">CSLapack.DLAMC2</text>
</a>
</g>
</g>
<!-- Node9&#45;&gt;Node8 -->
<g id="edge12" class="edge"><title>Node9&#45;&gt;Node8</title>
<path fill="none" stroke="#9a32cd" stroke-dasharray="5,2" d="M576.29,-227.372C592.089,-227.557 608.579,-227.901 624,-228.5 629.833,-228.726 635.884,-229.023 641.952,-229.363"/>
<polygon fill="#9a32cd" stroke="#9a32cd" points="576.059,-223.869 566.025,-227.272 575.991,-230.869 576.059,-223.869"/>
<text text-anchor="middle" x="604" y="-231.5" font-family="Helvetica,sans-Serif" font-size="10.00"> _dlamc2</text>
</g>
<!-- Node10 -->
<g id="node10" class="node"><title>Node10</title>
<g id="a_node10"><a xlink:href="../../d5/db1/classDotNumerics_1_1LinearAlgebra_1_1CSLapack_1_1DLAMC1.html" target="_top" xlink:title="– LAPACK auxiliary routine (version 3.1) – Univ. of Tennessee, Univ. of California Berkeley and NAG L...">
<polygon fill="white" stroke="black" points="214,-233.5 214,-263.5 352,-263.5 352,-233.5 214,-233.5"/>
<text text-anchor="start" x="222" y="-251.5" font-family="Helvetica,sans-Serif" font-size="10.00">DotNumerics.LinearAlgebra.</text>
<text text-anchor="middle" x="283" y="-240.5" font-family="Helvetica,sans-Serif" font-size="10.00">CSLapack.DLAMC1</text>
</a>
</g>
</g>
<!-- Node10&#45;&gt;Node9 -->
<g id="edge13" class="edge"><title>Node10&#45;&gt;Node9</title>
<path fill="none" stroke="#9a32cd" stroke-dasharray="5,2" d="M362.328,-240.741C383.843,-238.61 406.993,-236.317 427.883,-234.247"/>
<polygon fill="#9a32cd" stroke="#9a32cd" points="361.851,-237.271 352.245,-241.74 362.541,-244.237 361.851,-237.271"/>
<text text-anchor="middle" x="390" y="-243.5" font-family="Helvetica,sans-Serif" font-size="10.00"> _dlamc1</text>
</g>
<!-- Node11 -->
<g id="node11" class="node"><title>Node11</title>
<g id="a_node11"><a xlink:href="../../db/dbb/classDotNumerics_1_1LinearAlgebra_1_1CSLapack_1_1DLAMC3.html" target="_top" xlink:title="– LAPACK auxiliary routine (version 3.1) – Univ. of Tennessee, Univ. of California Berkeley and NAG L...">
<polygon fill="white" stroke="black" points="0,-208.5 0,-238.5 138,-238.5 138,-208.5 0,-208.5"/>
<text text-anchor="start" x="8" y="-226.5" font-family="Helvetica,sans-Serif" font-size="10.00">DotNumerics.LinearAlgebra.</text>
<text text-anchor="middle" x="69" y="-215.5" font-family="Helvetica,sans-Serif" font-size="10.00">CSLapack.DLAMC3</text>
</a>
</g>
</g>
<!-- Node11&#45;&gt;Node9 -->
<g id="edge15" class="edge"><title>Node11&#45;&gt;Node9</title>
<path fill="none" stroke="#9a32cd" stroke-dasharray="5,2" d="M113.02,-242.433C141.138,-253.723 179.009,-266.915 214,-272.5 274.567,-282.168 291.289,-281.214 352,-272.5 378.59,-268.684 384.337,-263.437 410,-255.5 423.201,-251.417 437.488,-246.833 450.555,-242.574"/>
<polygon fill="#9a32cd" stroke="#9a32cd" points="114.082,-239.086 103.501,-238.534 111.428,-245.563 114.082,-239.086"/>
<text text-anchor="middle" x="283" y="-282.5" font-family="Helvetica,sans-Serif" font-size="10.00"> _dlamc3</text>
</g>
<!-- Node11&#45;&gt;Node10 -->
<g id="edge14" class="edge"><title>Node11&#45;&gt;Node10</title>
<path fill="none" stroke="#9a32cd" stroke-dasharray="5,2" d="M148.328,-232.737C169.843,-235.274 192.993,-238.004 213.883,-240.467"/>
<polygon fill="#9a32cd" stroke="#9a32cd" points="148.586,-229.243 138.245,-231.548 147.766,-236.195 148.586,-229.243"/>
<text text-anchor="middle" x="176" y="-241.5" font-family="Helvetica,sans-Serif" font-size="10.00"> _dlamc3</text>
</g>
<!-- Node12 -->
<g id="node12" class="node"><title>Node12</title>
<g id="a_node12"><a xlink:href="../../de/dd1/classDotNumerics_1_1LinearAlgebra_1_1CSLapack_1_1DLAMC4.html" target="_top" xlink:title="– LAPACK auxiliary routine (version 3.1) – Univ. of Tennessee, Univ. of California Berkeley and NAG L...">
<polygon fill="white" stroke="black" points="214,-184.5 214,-214.5 352,-214.5 352,-184.5 214,-184.5"/>
<text text-anchor="start" x="222" y="-202.5" font-family="Helvetica,sans-Serif" font-size="10.00">DotNumerics.LinearAlgebra.</text>
<text text-anchor="middle" x="283" y="-191.5" font-family="Helvetica,sans-Serif" font-size="10.00">CSLapack.DLAMC4</text>
</a>
</g>
</g>
<!-- Node11&#45;&gt;Node12 -->
<g id="edge17" class="edge"><title>Node11&#45;&gt;Node12</title>
<path fill="none" stroke="#9a32cd" stroke-dasharray="5,2" d="M148.228,-212.436C150.849,-212.113 153.445,-211.8 156,-211.5 174.769,-209.298 195.147,-207.221 213.935,-205.434"/>
<polygon fill="#9a32cd" stroke="#9a32cd" points="147.514,-208.999 138.033,-213.727 148.394,-215.943 147.514,-208.999"/>
<text text-anchor="middle" x="176" y="-214.5" font-family="Helvetica,sans-Serif" font-size="10.00"> _dlamc3</text>
</g>
<!-- Node13 -->
<g id="node13" class="node"><title>Node13</title>
<g id="a_node13"><a xlink:href="../../d7/d30/classDotNumerics_1_1LinearAlgebra_1_1CSLapack_1_1DLAMC5.html" target="_top" xlink:title="– LAPACK auxiliary routine (version 3.1) – Univ. of Tennessee, Univ. of California Berkeley and NAG L...">
<polygon fill="white" stroke="black" points="214,-135.5 214,-165.5 352,-165.5 352,-135.5 214,-135.5"/>
<text text-anchor="start" x="222" y="-153.5" font-family="Helvetica,sans-Serif" font-size="10.00">DotNumerics.LinearAlgebra.</text>
<text text-anchor="middle" x="283" y="-142.5" font-family="Helvetica,sans-Serif" font-size="10.00">CSLapack.DLAMC5</text>
</a>
</g>
</g>
<!-- Node11&#45;&gt;Node13 -->
<g id="edge19" class="edge"><title>Node11&#45;&gt;Node13</title>
<path fill="none" stroke="#9a32cd" stroke-dasharray="5,2" d="M120.604,-205.029C132.214,-200.855 144.52,-196.482 156,-192.5 182.36,-183.357 211.95,-173.474 235.829,-165.593"/>
<polygon fill="#9a32cd" stroke="#9a32cd" points="119.267,-201.79 111.048,-208.475 121.642,-208.375 119.267,-201.79"/>
<text text-anchor="middle" x="176" y="-195.5" font-family="Helvetica,sans-Serif" font-size="10.00"> _dlamc3</text>
</g>
<!-- Node12&#45;&gt;Node9 -->
<g id="edge16" class="edge"><title>Node12&#45;&gt;Node9</title>
<path fill="none" stroke="#9a32cd" stroke-dasharray="5,2" d="M362.328,-209.845C383.843,-212.687 406.993,-215.744 427.883,-218.503"/>
<polygon fill="#9a32cd" stroke="#9a32cd" points="362.617,-206.353 352.245,-208.514 361.701,-213.293 362.617,-206.353"/>
<text text-anchor="middle" x="390" y="-219.5" font-family="Helvetica,sans-Serif" font-size="10.00"> _dlamc4</text>
</g>
<!-- Node13&#45;&gt;Node9 -->
<g id="edge18" class="edge"><title>Node13&#45;&gt;Node9</title>
<path fill="none" stroke="#9a32cd" stroke-dasharray="5,2" d="M336.325,-168.888C341.623,-170.774 346.921,-172.669 352,-174.5 386.96,-187.102 426.578,-201.708 455.397,-212.391"/>
<polygon fill="#9a32cd" stroke="#9a32cd" points="337.429,-165.566 326.835,-165.52 335.088,-172.163 337.429,-165.566"/>
<text text-anchor="middle" x="390" y="-198.5" font-family="Helvetica,sans-Serif" font-size="10.00"> _dlamc5</text>
</g>
<!-- Node14&#45;&gt;Node3 -->
<g id="edge20" class="edge"><title>Node14&#45;&gt;Node3</title>
<path fill="none" stroke="#9a32cd" stroke-dasharray="5,2" d="M1081.97,-151.537C1085.41,-153.105 1088.78,-154.76 1092,-156.5 1153.4,-189.704 1203.43,-259.406 1223.51,-290.254"/>
<polygon fill="#9a32cd" stroke="#9a32cd" points="1083.3,-148.3 1072.73,-147.595 1080.56,-154.739 1083.3,-148.3"/>
<text text-anchor="middle" x="1128.5" y="-199.5" font-family="Helvetica,sans-Serif" font-size="10.00"> _dlanv2</text>
</g>
<!-- Node15 -->
<g id="node15" class="node"><title>Node15</title>
<g id="a_node15"><a xlink:href="../../d1/dbf/classDotNumerics_1_1LinearAlgebra_1_1CSLapack_1_1DLAPY2.html" target="_top" xlink:title="– LAPACK auxiliary routine (version 3.1) – Univ. of Tennessee, Univ. of California Berkeley and NAG L...">
<polygon fill="white" stroke="black" points="642,-108.5 642,-138.5 780,-138.5 780,-108.5 642,-108.5"/>
<text text-anchor="start" x="650" y="-126.5" font-family="Helvetica,sans-Serif" font-size="10.00">DotNumerics.LinearAlgebra.</text>
<text text-anchor="middle" x="711" y="-115.5" font-family="Helvetica,sans-Serif" font-size="10.00">CSLapack.DLAPY2</text>
</a>
</g>
</g>
<!-- Node15&#45;&gt;Node14 -->
<g id="edge22" class="edge"><title>Node15&#45;&gt;Node14</title>
<path fill="none" stroke="#9a32cd" stroke-dasharray="5,2" d="M790.234,-125.771C840.651,-127.235 905.564,-129.12 953.861,-130.522"/>
<polygon fill="#9a32cd" stroke="#9a32cd" points="790.128,-122.267 780.031,-125.475 789.925,-129.264 790.128,-122.267"/>
<text text-anchor="middle" x="867" y="-133.5" font-family="Helvetica,sans-Serif" font-size="10.00"> _dlapy2</text>
</g>
<!-- Node15&#45;&gt;Node25 -->
<g id="edge39" class="edge"><title>Node15&#45;&gt;Node25</title>
<path fill="none" stroke="#9a32cd" stroke-dasharray="5,2" d="M790.241,-112.534C792.858,-112.183 795.45,-111.837 798,-111.5 850.258,-104.588 909.436,-97.2104 953.838,-91.7639"/>
<polygon fill="#9a32cd" stroke="#9a32cd" points="789.497,-109.103 780.056,-113.912 790.436,-116.04 789.497,-109.103"/>
<text text-anchor="middle" x="867" y="-114.5" font-family="Helvetica,sans-Serif" font-size="10.00"> _dlapy2</text>
</g>
<!-- Node16&#45;&gt;Node3 -->
<g id="edge23" class="edge"><title>Node16&#45;&gt;Node3</title>
<path fill="none" stroke="#9a32cd" stroke-dasharray="5,2" d="M790.159,-624.173C873.743,-612.601 1005.86,-583.09 1092,-508.5 1157.85,-451.477 1207.93,-357.243 1225.84,-320.668"/>
<polygon fill="#9a32cd" stroke="#9a32cd" points="789.664,-620.708 780.213,-625.497 790.588,-627.646 789.664,-620.708"/>
<text text-anchor="middle" x="1023" y="-587.5" font-family="Helvetica,sans-Serif" font-size="10.00"> _dlange</text>
</g>
<!-- Node17 -->
<g id="node17" class="node"><title>Node17</title>
<g id="a_node17"><a xlink:href="../../de/d0f/classDotNumerics_1_1LinearAlgebra_1_1CSLapack_1_1DLASSQ.html" target="_top" xlink:title="– LAPACK auxiliary routine (version 3.1) – Univ. of Tennessee, Univ. of California Berkeley and NAG L...">
<polygon fill="white" stroke="black" points="428,-740.5 428,-770.5 566,-770.5 566,-740.5 428,-740.5"/>
<text text-anchor="start" x="436" y="-758.5" font-family="Helvetica,sans-Serif" font-size="10.00">DotNumerics.LinearAlgebra.</text>
<text text-anchor="middle" x="497" y="-747.5" font-family="Helvetica,sans-Serif" font-size="10.00">CSLapack.DLASSQ</text>
</a>
</g>
</g>
<!-- Node17&#45;&gt;Node16 -->
<g id="edge25" class="edge"><title>Node17&#45;&gt;Node16</title>
<path fill="none" stroke="#9a32cd" stroke-dasharray="5,2" d="M532.868,-735.105C575.364,-710.249 646.183,-668.827 684.124,-646.635"/>
<polygon fill="#9a32cd" stroke="#9a32cd" points="530.86,-732.225 523.995,-740.295 534.394,-738.267 530.86,-732.225"/>
<text text-anchor="middle" x="604" y="-707.5" font-family="Helvetica,sans-Serif" font-size="10.00"> _dlassq</text>
</g>
<!-- Node18&#45;&gt;Node3 -->
<g id="edge26" class="edge"><title>Node18&#45;&gt;Node3</title>
<path fill="none" stroke="#9a32cd" stroke-dasharray="5,2" d="M946.419,-309.426C1011.4,-308.536 1102.82,-307.283 1164.8,-306.434"/>
<polygon fill="#9a32cd" stroke="#9a32cd" points="946.177,-305.929 936.226,-309.565 946.273,-312.928 946.177,-305.929"/>
<text text-anchor="middle" x="1023" y="-312.5" font-family="Helvetica,sans-Serif" font-size="10.00"> _dlacpy</text>
</g>
<!-- Node19&#45;&gt;Node3 -->
<g id="edge28" class="edge"><title>Node19&#45;&gt;Node3</title>
<path fill="none" stroke="#9a32cd" stroke-dasharray="5,2" d="M1049.57,-462.599C1092.54,-425.795 1178.17,-352.46 1215.23,-320.723"/>
<polygon fill="#9a32cd" stroke="#9a32cd" points="1047.14,-460.075 1041.82,-469.239 1051.69,-465.392 1047.14,-460.075"/>
<text text-anchor="middle" x="1128.5" y="-409.5" font-family="Helvetica,sans-Serif" font-size="10.00"> _dlasy2</text>
</g>
<!-- Node20 -->
<g id="node20" class="node"><title>Node20</title>
<g id="a_node20"><a xlink:href="../../d1/d2a/classDotNumerics_1_1LinearAlgebra_1_1CSLapack_1_1DCOPY.html" target="_top" xlink:title=" ">
<polygon fill="white" stroke="black" points="642,-469.5 642,-499.5 780,-499.5 780,-469.5 642,-469.5"/>
<text text-anchor="start" x="650" y="-487.5" font-family="Helvetica,sans-Serif" font-size="10.00">DotNumerics.LinearAlgebra.</text>
<text text-anchor="middle" x="711" y="-476.5" font-family="Helvetica,sans-Serif" font-size="10.00">CSLapack.DCOPY</text>
</a>
</g>
</g>
<!-- Node20&#45;&gt;Node19 -->
<g id="edge29" class="edge"><title>Node20&#45;&gt;Node19</title>
<path fill="none" stroke="#9a32cd" stroke-dasharray="5,2" d="M790.234,-484.5C840.651,-484.5 905.564,-484.5 953.861,-484.5"/>
<polygon fill="#9a32cd" stroke="#9a32cd" points="790.031,-481 780.031,-484.5 790.031,-488 790.031,-481"/>
<text text-anchor="middle" x="867" y="-487.5" font-family="Helvetica,sans-Serif" font-size="10.00"> _dcopy</text>
</g>
<!-- Node21 -->
<g id="node21" class="node"><title>Node21</title>
<g id="a_node21"><a xlink:href="../../dc/d96/classDotNumerics_1_1LinearAlgebra_1_1CSLapack_1_1IDAMAX.html" target="_top" xlink:title=" ">
<polygon fill="white" stroke="black" points="642,-567.5 642,-597.5 780,-597.5 780,-567.5 642,-567.5"/>
<text text-anchor="start" x="650" y="-585.5" font-family="Helvetica,sans-Serif" font-size="10.00">DotNumerics.LinearAlgebra.</text>
<text text-anchor="middle" x="711" y="-574.5" font-family="Helvetica,sans-Serif" font-size="10.00">CSLapack.IDAMAX</text>
</a>
</g>
</g>
<!-- Node21&#45;&gt;Node19 -->
<g id="edge31" class="edge"><title>Node21&#45;&gt;Node19</title>
<path fill="none" stroke="#9a32cd" stroke-dasharray="5,2" d="M790.349,-572.523C834.197,-565.355 889.277,-553.679 936,-535.5 959.619,-526.311 984.269,-511.015 1001.09,-499.567"/>
<polygon fill="#9a32cd" stroke="#9a32cd" points="789.642,-569.091 780.315,-574.117 790.741,-576.004 789.642,-569.091"/>
<text text-anchor="middle" x="867" y="-574.5" font-family="Helvetica,sans-Serif" font-size="10.00"> _idamax</text>
</g>
<!-- Node22 -->
<g id="node22" class="node"><title>Node22</title>
<g id="a_node22"><a xlink:href="../../d3/dd5/classDotNumerics_1_1LinearAlgebra_1_1CSLapack_1_1DSWAP.html" target="_top" xlink:title=" ">
<polygon fill="white" stroke="black" points="642,-518.5 642,-548.5 780,-548.5 780,-518.5 642,-518.5"/>
<text text-anchor="start" x="650" y="-536.5" font-family="Helvetica,sans-Serif" font-size="10.00">DotNumerics.LinearAlgebra.</text>
<text text-anchor="middle" x="711" y="-525.5" font-family="Helvetica,sans-Serif" font-size="10.00">CSLapack.DSWAP</text>
</a>
</g>
</g>
<!-- Node22&#45;&gt;Node19 -->
<g id="edge32" class="edge"><title>Node22&#45;&gt;Node19</title>
<path fill="none" stroke="#9a32cd" stroke-dasharray="5,2" d="M790.315,-522.045C833.351,-515.642 887.66,-507.383 936,-499.5 941.834,-498.549 947.886,-497.539 953.955,-496.511"/>
<polygon fill="#9a32cd" stroke="#9a32cd" points="789.569,-518.617 780.191,-523.548 790.597,-525.541 789.569,-518.617"/>
<text text-anchor="middle" x="867" y="-523.5" font-family="Helvetica,sans-Serif" font-size="10.00"> _dswap</text>
</g>
<!-- Node23 -->
<g id="node23" class="node"><title>Node23</title>
<g id="a_node23"><a xlink:href="../../de/d74/classDotNumerics_1_1LinearAlgebra_1_1CSLapack_1_1DROT.html" target="_top" xlink:title=" ">
<polygon fill="white" stroke="black" points="954,-166.5 954,-196.5 1092,-196.5 1092,-166.5 954,-166.5"/>
<text text-anchor="start" x="962" y="-184.5" font-family="Helvetica,sans-Serif" font-size="10.00">DotNumerics.LinearAlgebra.</text>
<text text-anchor="middle" x="1023" y="-173.5" font-family="Helvetica,sans-Serif" font-size="10.00">CSLapack.DROT</text>
</a>
</g>
</g>
<!-- Node23&#45;&gt;Node3 -->
<g id="edge33" class="edge"><title>Node23&#45;&gt;Node3</title>
<path fill="none" stroke="#9a32cd" stroke-dasharray="5,2" d="M1078.38,-200.132C1083.01,-201.887 1087.6,-203.689 1092,-205.5 1117,-215.791 1124.33,-216.772 1147,-231.5 1173.92,-248.989 1201.43,-274.207 1217.86,-290.222"/>
<polygon fill="#9a32cd" stroke="#9a32cd" points="1079.46,-196.801 1068.87,-196.604 1077.03,-203.364 1079.46,-196.801"/>
<text text-anchor="middle" x="1128.5" y="-234.5" font-family="Helvetica,sans-Serif" font-size="10.00"> _drot</text>
</g>
<!-- Node24&#45;&gt;Node3 -->
<g id="edge34" class="edge"><title>Node24&#45;&gt;Node3</title>
<path fill="none" stroke="#9a32cd" stroke-dasharray="5,2" d="M1101.96,-243.994C1117.13,-247.629 1132.75,-252.093 1147,-257.5 1169.54,-266.051 1193.34,-279.744 1210.17,-290.321"/>
<polygon fill="#9a32cd" stroke="#9a32cd" points="1102.6,-240.55 1092.07,-241.724 1101.03,-247.373 1102.6,-240.55"/>
<text text-anchor="middle" x="1128.5" y="-260.5" font-family="Helvetica,sans-Serif" font-size="10.00"> _dlartg</text>
</g>
<!-- Node25&#45;&gt;Node3 -->
<g id="edge36" class="edge"><title>Node25&#45;&gt;Node3</title>
<path fill="none" stroke="#9a32cd" stroke-dasharray="5,2" d="M1083.01,-102.822C1086.1,-104.298 1089.12,-105.858 1092,-107.5 1119.69,-123.276 1126.6,-129.016 1147,-153.5 1184.26,-198.227 1214.01,-261.364 1226.55,-290.136"/>
<polygon fill="#9a32cd" stroke="#9a32cd" points="1084.15,-99.4957 1073.59,-98.6433 1081.31,-105.895 1084.15,-99.4957"/>
<text text-anchor="middle" x="1128.5" y="-156.5" font-family="Helvetica,sans-Serif" font-size="10.00"> _dlarfg</text>
</g>
<!-- Node26 -->
<g id="node26" class="node"><title>Node26</title>
<g id="a_node26"><a xlink:href="../../d1/d76/classDotNumerics_1_1LinearAlgebra_1_1CSLapack_1_1DSCAL.html" target="_top" xlink:title=" ">
<polygon fill="white" stroke="black" points="642,-49.5 642,-79.5 780,-79.5 780,-49.5 642,-49.5"/>
<text text-anchor="start" x="650" y="-67.5" font-family="Helvetica,sans-Serif" font-size="10.00">DotNumerics.LinearAlgebra.</text>
<text text-anchor="middle" x="711" y="-56.5" font-family="Helvetica,sans-Serif" font-size="10.00">CSLapack.DSCAL</text>
</a>
</g>
</g>
<!-- Node26&#45;&gt;Node25 -->
<g id="edge37" class="edge"><title>Node26&#45;&gt;Node25</title>
<path fill="none" stroke="#9a32cd" stroke-dasharray="5,2" d="M790.461,-60.9891C833.54,-60.0307 887.845,-60.4058 936,-65.5 942.826,-66.2221 949.91,-67.2466 956.95,-68.4447"/>
<polygon fill="#9a32cd" stroke="#9a32cd" points="790.235,-57.4935 780.326,-61.2435 790.41,-64.4913 790.235,-57.4935"/>
<text text-anchor="middle" x="867" y="-68.5" font-family="Helvetica,sans-Serif" font-size="10.00"> _dscal</text>
</g>
<!-- Node27 -->
<g id="node27" class="node"><title>Node27</title>
<g id="a_node27"><a xlink:href="../../d3/df8/classDotNumerics_1_1LinearAlgebra_1_1CSLapack_1_1DNRM2.html" target="_top" xlink:title=" ">
<polygon fill="white" stroke="black" points="642,-0.5 642,-30.5 780,-30.5 780,-0.5 642,-0.5"/>
<text text-anchor="start" x="650" y="-18.5" font-family="Helvetica,sans-Serif" font-size="10.00">DotNumerics.LinearAlgebra.</text>
<text text-anchor="middle" x="711" y="-7.5" font-family="Helvetica,sans-Serif" font-size="10.00">CSLapack.DNRM2</text>
</a>
</g>
</g>
<!-- Node27&#45;&gt;Node25 -->
<g id="edge40" class="edge"><title>Node27&#45;&gt;Node25</title>
<path fill="none" stroke="#9a32cd" stroke-dasharray="5,2" d="M790.065,-21.1162C833.597,-25.5332 888.461,-33.2455 936,-46.5 955.414,-51.9129 976.198,-60.763 992.47,-68.4505"/>
<polygon fill="#9a32cd" stroke="#9a32cd" points="790.401,-17.6324 780.108,-20.1429 789.72,-24.5992 790.401,-17.6324"/>
<text text-anchor="middle" x="867" y="-49.5" font-family="Helvetica,sans-Serif" font-size="10.00"> _dnrm2</text>
</g>
<!-- Node28 -->
<g id="node28" class="node"><title>Node28</title>
<g id="a_node28"><a xlink:href="../../d2/dbc/interfaceDotNumerics_1_1LinearAlgebra_1_1CSLapack_1_1IDNRM2.html" target="_top" xlink:title=" ">
<polygon fill="white" stroke="black" points="470.5,-6 470.5,-25 523.5,-25 523.5,-6 470.5,-6"/>
<text text-anchor="middle" x="497" y="-13" font-family="Helvetica,sans-Serif" font-size="10.00">IDNRM2</text>
</a>
</g>
</g>
<!-- Node28&#45;&gt;Node27 -->
<g id="edge41" class="edge"><title>Node28&#45;&gt;Node27</title>
<path fill="none" stroke="midnightblue" d="M533.778,-15.5C563.19,-15.5 605.712,-15.5 641.618,-15.5"/>
<polygon fill="midnightblue" stroke="midnightblue" points="533.572,-12.0001 523.572,-15.5 533.572,-19.0001 533.572,-12.0001"/>
</g>
</g>
</svg>
