<?xml version="1.0" encoding="UTF-8" standalone="no"?>
<!DOCTYPE svg PUBLIC "-//W3C//DTD SVG 1.1//EN"
 "http://www.w3.org/Graphics/SVG/1.1/DTD/svg11.dtd">
<!-- Generated by graphviz version 2.38.0 (20140413.2041)
 -->
<!-- Title: NUnit.Engine.Drivers.NUnit2FrameworkDriver Pages: 1 -->
<svg width="232pt" height="106pt"
 viewBox="0.00 0.00 231.50 106.00" xmlns="http://www.w3.org/2000/svg" xmlns:xlink="http://www.w3.org/1999/xlink">
<g id="graph0" class="graph" transform="scale(1 1) rotate(0) translate(4 102)">
<title>NUnit.Engine.Drivers.NUnit2FrameworkDriver</title>
<polygon fill="white" stroke="none" points="-4,4 -4,-102 227.5,-102 227.5,4 -4,4"/>
<!-- Node1 -->
<g id="node1" class="node"><title>Node1</title>
<g id="a_node1"><a xlink:title=" ">
<polygon fill="#bfbfbf" stroke="black" points="58.5,-0.5 58.5,-30.5 196.5,-30.5 196.5,-0.5 58.5,-0.5"/>
<text text-anchor="start" x="66.5" y="-18.5" font-family="Helvetica,sans-Serif" font-size="10.00">NUnit.Engine.Drivers.NUnit2</text>
<text text-anchor="middle" x="127.5" y="-7.5" font-family="Helvetica,sans-Serif" font-size="10.00">FrameworkDriver</text>
</a>
</g>
</g>
<!-- Node2 -->
<g id="node2" class="node"><title>Node2</title>
<g id="a_node2"><a xlink:href="../../d9/d04/interfaceNUnit_1_1Engine_1_1Extensibility_1_1IFrameworkDriver.html" target="_top" xlink:title="The IFrameworkDriver interface is implemented by a class that is able to use an external framework to...">
<polygon fill="white" stroke="black" points="0,-78.5 0,-97.5 91,-97.5 91,-78.5 0,-78.5"/>
<text text-anchor="middle" x="45.5" y="-85.5" font-family="Helvetica,sans-Serif" font-size="10.00">IFrameworkDriver</text>
</a>
</g>
</g>
<!-- Node2&#45;&gt;Node1 -->
<g id="edge1" class="edge"><title>Node2&#45;&gt;Node1</title>
<path fill="none" stroke="midnightblue" d="M63.1975,-71.7844C77.4269,-59.5506 97.2623,-42.497 111.128,-30.5762"/>
<polygon fill="midnightblue" stroke="midnightblue" points="60.8558,-69.182 55.5548,-78.3553 65.4194,-74.4899 60.8558,-69.182"/>
</g>
<!-- Node3 -->
<g id="node3" class="node"><title>Node3</title>
<g id="a_node3"><a xlink:title=" ">
<polygon fill="white" stroke="#bfbfbf" points="109,-78.5 109,-97.5 146,-97.5 146,-78.5 109,-78.5"/>
<text text-anchor="middle" x="127.5" y="-85.5" font-family="Helvetica,sans-Serif" font-size="10.00">Core</text>
</a>
</g>
</g>
<!-- Node3&#45;&gt;Node1 -->
<g id="edge2" class="edge"><title>Node3&#45;&gt;Node1</title>
<path fill="none" stroke="#9a32cd" stroke-dasharray="5,2" d="M127.5,-68.2362C127.5,-56.4079 127.5,-41.3829 127.5,-30.5762"/>
<polygon fill="#9a32cd" stroke="#9a32cd" points="124,-68.3553 127.5,-78.3553 131,-68.3554 124,-68.3553"/>
<text text-anchor="middle" x="150.5" y="-52" font-family="Helvetica,sans-Serif" font-size="10.00"> _package</text>
</g>
<!-- Node4 -->
<g id="node4" class="node"><title>Node4</title>
<g id="a_node4"><a xlink:title=" ">
<polygon fill="white" stroke="#bfbfbf" points="176,-78.5 176,-97.5 217,-97.5 217,-78.5 176,-78.5"/>
<text text-anchor="middle" x="196.5" y="-85.5" font-family="Helvetica,sans-Serif" font-size="10.00">static</text>
</a>
</g>
</g>
<!-- Node4&#45;&gt;Node1 -->
<g id="edge3" class="edge"><title>Node4&#45;&gt;Node1</title>
<path fill="none" stroke="#9a32cd" stroke-dasharray="5,2" d="M188.352,-69.296C184.708,-62.4961 179.988,-54.947 174.5,-49 168.041,-42.0012 159.817,-35.6811 152.06,-30.515"/>
<polygon fill="#9a32cd" stroke="#9a32cd" points="185.312,-71.0423 192.888,-78.4487 191.584,-67.9344 185.312,-71.0423"/>
<text text-anchor="middle" x="203" y="-52" font-family="Helvetica,sans-Serif" font-size="10.00"> COMMA</text>
</g>
</g>
</svg>
