<?xml version="1.0" encoding="UTF-8" standalone="no"?>
<!DOCTYPE svg PUBLIC "-//W3C//DTD SVG 1.1//EN"
 "http://www.w3.org/Graphics/SVG/1.1/DTD/svg11.dtd">
<!-- Generated by graphviz version 2.38.0 (20140413.2041)
 -->
<!-- Title: IG.Script.NeuralTestScriptShellExt Pages: 1 -->
<svg width="403pt" height="442pt"
 viewBox="0.00 0.00 403.41 442.00" xmlns="http://www.w3.org/2000/svg" xmlns:xlink="http://www.w3.org/1999/xlink">
<g id="graph0" class="graph" transform="scale(1 1) rotate(0) translate(4 438)">
<title>IG.Script.NeuralTestScriptShellExt</title>
<polygon fill="white" stroke="none" points="-4,4 -4,-438 399.41,-438 399.41,4 -4,4"/>
<!-- Node1 -->
<g id="node1" class="node"><title>Node1</title>
<g id="a_node1"><a xlink:title=" ">
<polygon fill="#bfbfbf" stroke="black" points="0,-0.5 0,-30.5 130,-30.5 130,-0.5 0,-0.5"/>
<text text-anchor="start" x="8" y="-18.5" font-family="Helvetica,sans-Serif" font-size="10.00">IG.Script.NeuralTestScript</text>
<text text-anchor="middle" x="65" y="-7.5" font-family="Helvetica,sans-Serif" font-size="10.00">ShellExt</text>
</a>
</g>
</g>
<!-- Node2 -->
<g id="node2" class="node"><title>Node2</title>
<g id="a_node2"><a xlink:href="../../d1/d30/classIG_1_1Script_1_1LoadableScriptShellNeural.html" target="_top" xlink:title="Base class for loadable scripts that are used as custom applications that inclued neural networks app...">
<polygon fill="white" stroke="black" points="46.5,-67.5 46.5,-86.5 177.5,-86.5 177.5,-67.5 46.5,-67.5"/>
<text text-anchor="middle" x="112" y="-74.5" font-family="Helvetica,sans-Serif" font-size="10.00">LoadableScriptShellNeural</text>
</a>
</g>
</g>
<!-- Node2&#45;&gt;Node1 -->
<g id="edge1" class="edge"><title>Node2&#45;&gt;Node1</title>
<path fill="none" stroke="midnightblue" d="M98.9898,-59.5296C91.7918,-50.4173 82.9419,-39.2136 76.077,-30.523"/>
<polygon fill="midnightblue" stroke="midnightblue" points="96.3209,-61.7975 105.266,-67.4751 101.814,-57.4584 96.3209,-61.7975"/>
</g>
<!-- Node3 -->
<g id="node3" class="node"><title>Node3</title>
<g id="a_node3"><a xlink:href="../../dc/d0c/classIG_1_1Script_1_1LoadableScriptShellNeuralBase.html" target="_top" xlink:title="Base class for loadable scripts that are used as custom applications that inclued neural networks app...">
<polygon fill="white" stroke="black" points="96.5,-123.5 96.5,-142.5 249.5,-142.5 249.5,-123.5 96.5,-123.5"/>
<text text-anchor="middle" x="173" y="-130.5" font-family="Helvetica,sans-Serif" font-size="10.00">LoadableScriptShellNeuralBase</text>
</a>
</g>
</g>
<!-- Node3&#45;&gt;Node2 -->
<g id="edge2" class="edge"><title>Node3&#45;&gt;Node2</title>
<path fill="none" stroke="midnightblue" d="M155.533,-116.537C144.656,-106.909 131.056,-94.8694 121.979,-86.8339"/>
<polygon fill="midnightblue" stroke="midnightblue" points="153.392,-119.316 163.199,-123.324 158.032,-114.075 153.392,-119.316"/>
</g>
<!-- Node4 -->
<g id="node4" class="node"><title>Node4</title>
<g id="a_node4"><a xlink:href="../../d6/d59/classIG_1_1Lib_1_1LoadableScriptShellBase.html" target="_top" xlink:title="Loadable script base class for the shell application that includes tols for definition of optiimizati...">
<polygon fill="white" stroke="black" points="122.5,-179.5 122.5,-198.5 247.5,-198.5 247.5,-179.5 122.5,-179.5"/>
<text text-anchor="middle" x="185" y="-186.5" font-family="Helvetica,sans-Serif" font-size="10.00">LoadableScriptShellBase</text>
</a>
</g>
</g>
<!-- Node4&#45;&gt;Node3 -->
<g id="edge3" class="edge"><title>Node4&#45;&gt;Node3</title>
<path fill="none" stroke="midnightblue" d="M180.8,-169.101C178.808,-160.136 176.524,-149.858 174.945,-142.751"/>
<polygon fill="midnightblue" stroke="midnightblue" points="177.432,-170.08 183.018,-179.083 184.266,-168.562 177.432,-170.08"/>
</g>
<!-- Node5 -->
<g id="node5" class="node"><title>Node5</title>
<g id="a_node5"><a xlink:href="../../d7/d31/classIG_1_1Lib_1_1LoadableScriptOptShellBaseControllable.html" target="_top" xlink:title="Controllable version of LoadableScriptOptBase, implements the ILoadableScriptC interface.">
<polygon fill="white" stroke="black" points="207.5,-235.5 207.5,-265.5 348.5,-265.5 348.5,-235.5 207.5,-235.5"/>
<text text-anchor="start" x="215.5" y="-253.5" font-family="Helvetica,sans-Serif" font-size="10.00">LoadableScriptOptShellBase</text>
<text text-anchor="middle" x="278" y="-242.5" font-family="Helvetica,sans-Serif" font-size="10.00">Controllable</text>
</a>
</g>
</g>
<!-- Node5&#45;&gt;Node4 -->
<g id="edge4" class="edge"><title>Node5&#45;&gt;Node4</title>
<path fill="none" stroke="midnightblue" d="M247.171,-229.776C230.69,-219.231 211.233,-206.783 198.532,-198.658"/>
<polygon fill="midnightblue" stroke="midnightblue" points="245.65,-232.958 255.96,-235.399 249.423,-227.062 245.65,-232.958"/>
</g>
<!-- Node6 -->
<g id="node6" class="node"><title>Node6</title>
<g id="a_node6"><a xlink:href="../../d5/d05/classIG_1_1Lib_1_1LoadableScriptOptBase.html" target="_top" xlink:title="Base class for loadable scripts for optimization problems. AGREEMENTS: The first argument to initiali...">
<polygon fill="white" stroke="black" points="230.5,-302.5 230.5,-321.5 349.5,-321.5 349.5,-302.5 230.5,-302.5"/>
<text text-anchor="middle" x="290" y="-309.5" font-family="Helvetica,sans-Serif" font-size="10.00">LoadableScriptOptBase</text>
</a>
</g>
</g>
<!-- Node6&#45;&gt;Node5 -->
<g id="edge5" class="edge"><title>Node6&#45;&gt;Node5</title>
<path fill="none" stroke="midnightblue" d="M286.274,-292.526C284.517,-283.813 282.454,-273.586 280.828,-265.523"/>
<polygon fill="midnightblue" stroke="midnightblue" points="282.873,-293.364 288.281,-302.475 289.735,-291.98 282.873,-293.364"/>
</g>
<!-- Node7 -->
<g id="node7" class="node"><title>Node7</title>
<g id="a_node7"><a xlink:href="../../d7/d15/classIG_1_1Lib_1_1LoadableScriptBase.html" target="_top" xlink:title="Base class for classes that can be dynamically loadeded from scripts and run, which provides function...">
<polygon fill="white" stroke="black" points="208,-358.5 208,-377.5 312,-377.5 312,-358.5 208,-358.5"/>
<text text-anchor="middle" x="260" y="-365.5" font-family="Helvetica,sans-Serif" font-size="10.00">LoadableScriptBase</text>
</a>
</g>
</g>
<!-- Node7&#45;&gt;Node6 -->
<g id="edge6" class="edge"><title>Node7&#45;&gt;Node6</title>
<path fill="none" stroke="midnightblue" d="M269.847,-349.275C274.975,-340.045 281.016,-329.17 285.138,-321.751"/>
<polygon fill="midnightblue" stroke="midnightblue" points="266.751,-347.642 264.954,-358.083 272.87,-351.041 266.751,-347.642"/>
</g>
<!-- Node8 -->
<g id="node8" class="node"><title>Node8</title>
<g id="a_node8"><a xlink:href="../../d7/d66/interfaceIG_1_1Lib_1_1ILoadableScript.html" target="_top" xlink:title="Interface for classes that can be dynamically loadeded from scripts and run, which provides functiona...">
<polygon fill="white" stroke="black" points="72.5,-414.5 72.5,-433.5 155.5,-433.5 155.5,-414.5 72.5,-414.5"/>
<text text-anchor="middle" x="114" y="-421.5" font-family="Helvetica,sans-Serif" font-size="10.00">ILoadableScript</text>
</a>
</g>
</g>
<!-- Node8&#45;&gt;Node1 -->
<g id="edge19" class="edge"><title>Node8&#45;&gt;Node1</title>
<path fill="none" stroke="midnightblue" d="M89.4995,-409.149C61.0569,-391.043 18,-356.457 18,-313 18,-313 18,-313 18,-132 18,-93.0323 41.2361,-51.7615 55.0325,-30.6914"/>
<polygon fill="midnightblue" stroke="midnightblue" points="87.7906,-412.206 98.1476,-414.439 91.4433,-406.235 87.7906,-412.206"/>
</g>
<!-- Node8&#45;&gt;Node2 -->
<g id="edge18" class="edge"><title>Node8&#45;&gt;Node2</title>
<path fill="none" stroke="midnightblue" d="M98.9504,-406.749C81.7652,-386.435 56,-349.837 56,-313 56,-313 56,-313 56,-188 56,-146.212 88.4921,-104.262 103.977,-86.6425"/>
<polygon fill="midnightblue" stroke="midnightblue" points="96.4573,-409.214 105.69,-414.411 101.713,-404.59 96.4573,-409.214"/>
</g>
<!-- Node8&#45;&gt;Node3 -->
<g id="edge16" class="edge"><title>Node8&#45;&gt;Node3</title>
<path fill="none" stroke="midnightblue" d="M108.509,-404.408C102.588,-382.685 94,-345.562 94,-313 94,-313 94,-313 94,-249.5 94,-217.049 94.8035,-205.87 113,-179 123.879,-162.936 142.42,-150.327 156.018,-142.594"/>
<polygon fill="midnightblue" stroke="midnightblue" points="105.207,-405.592 111.303,-414.258 111.942,-403.683 105.207,-405.592"/>
</g>
<!-- Node8&#45;&gt;Node6 -->
<g id="edge9" class="edge"><title>Node8&#45;&gt;Node6</title>
<path fill="none" stroke="midnightblue" d="M131.837,-407.724C148.547,-393.817 174.546,-373.197 199,-358 222.353,-343.488 251.036,-329.952 269.881,-321.592"/>
<polygon fill="midnightblue" stroke="midnightblue" points="129.398,-405.202 124.003,-414.32 133.906,-410.557 129.398,-405.202"/>
</g>
<!-- Node8&#45;&gt;Node7 -->
<g id="edge7" class="edge"><title>Node8&#45;&gt;Node7</title>
<path fill="none" stroke="midnightblue" d="M146.699,-410.906C174.148,-400.754 212.668,-386.506 236.974,-377.516"/>
<polygon fill="midnightblue" stroke="midnightblue" points="145.299,-407.692 137.134,-414.444 147.727,-414.257 145.299,-407.692"/>
</g>
<!-- Node10 -->
<g id="node10" class="node"><title>Node10</title>
<g id="a_node10"><a xlink:href="../../d1/dca/interfaceIG_1_1Lib_1_1ILoadableScriptC.html" target="_top" xlink:title="Controllable loadable script, provides more control over loading and execution.">
<polygon fill="white" stroke="black" points="122,-302.5 122,-321.5 212,-321.5 212,-302.5 122,-302.5"/>
<text text-anchor="middle" x="167" y="-309.5" font-family="Helvetica,sans-Serif" font-size="10.00">ILoadableScriptC</text>
</a>
</g>
</g>
<!-- Node8&#45;&gt;Node10 -->
<g id="edge12" class="edge"><title>Node8&#45;&gt;Node10</title>
<path fill="none" stroke="midnightblue" d="M122.519,-405.32C134.058,-381.37 154.208,-339.548 162.86,-321.591"/>
<polygon fill="midnightblue" stroke="midnightblue" points="119.346,-403.84 118.159,-414.368 125.653,-406.879 119.346,-403.84"/>
</g>
<!-- Node9 -->
<g id="node9" class="node"><title>Node9</title>
<g id="a_node9"><a xlink:href="../../d3/db6/interfaceIG_1_1Lib_1_1ILockable.html" target="_top" xlink:title="Lockable object, has a Lock property that returns object on which lock must be performed in order to ...">
<polygon fill="white" stroke="black" points="330,-414.5 330,-433.5 388,-433.5 388,-414.5 330,-414.5"/>
<text text-anchor="middle" x="359" y="-421.5" font-family="Helvetica,sans-Serif" font-size="10.00">ILockable</text>
</a>
</g>
</g>
<!-- Node9&#45;&gt;Node4 -->
<g id="edge15" class="edge"><title>Node9&#45;&gt;Node4</title>
<path fill="none" stroke="midnightblue" d="M371.241,-405.834C376.247,-397.788 381.454,-387.825 384,-378 400.224,-315.389 403.2,-280.265 357,-235 340.519,-218.853 284.629,-206.218 240.979,-198.501"/>
<polygon fill="midnightblue" stroke="midnightblue" points="368.251,-404.01 365.629,-414.275 374.08,-407.886 368.251,-404.01"/>
</g>
<!-- Node9&#45;&gt;Node5 -->
<g id="edge13" class="edge"><title>Node9&#45;&gt;Node5</title>
<path fill="none" stroke="midnightblue" d="M364.033,-404.417C369.71,-379.402 375.989,-334.312 358,-302 348.812,-285.497 331.735,-273.63 315.711,-265.564"/>
<polygon fill="midnightblue" stroke="midnightblue" points="360.573,-403.831 361.557,-414.38 367.366,-405.52 360.573,-403.831"/>
</g>
<!-- Node9&#45;&gt;Node6 -->
<g id="edge10" class="edge"><title>Node9&#45;&gt;Node6</title>
<path fill="none" stroke="midnightblue" d="M349.254,-405.529C341.774,-392.322 331.057,-373.824 321,-358 312.858,-345.189 302.784,-330.814 296.374,-321.834"/>
<polygon fill="midnightblue" stroke="midnightblue" points="346.326,-407.464 354.278,-414.466 352.428,-404.034 346.326,-407.464"/>
</g>
<!-- Node9&#45;&gt;Node7 -->
<g id="edge8" class="edge"><title>Node9&#45;&gt;Node7</title>
<path fill="none" stroke="midnightblue" d="M334.163,-409.453C315.886,-399.483 291.584,-386.228 275.867,-377.655"/>
<polygon fill="midnightblue" stroke="midnightblue" points="332.639,-412.608 343.094,-414.324 335.991,-406.463 332.639,-412.608"/>
</g>
<!-- Node10&#45;&gt;Node4 -->
<g id="edge14" class="edge"><title>Node10&#45;&gt;Node4</title>
<path fill="none" stroke="midnightblue" d="M169.775,-292.345C173.728,-265.771 180.823,-218.082 183.717,-198.623"/>
<polygon fill="midnightblue" stroke="midnightblue" points="166.304,-291.892 168.295,-302.298 173.228,-292.922 166.304,-291.892"/>
</g>
<!-- Node10&#45;&gt;Node5 -->
<g id="edge11" class="edge"><title>Node10&#45;&gt;Node5</title>
<path fill="none" stroke="midnightblue" d="M192.106,-297.542C209.925,-287.991 233.788,-275.199 251.839,-265.523"/>
<polygon fill="midnightblue" stroke="midnightblue" points="190.064,-294.666 182.904,-302.475 193.371,-300.835 190.064,-294.666"/>
</g>
<!-- Node11 -->
<g id="node11" class="node"><title>Node11</title>
<g id="a_node11"><a xlink:href="../../d0/d98/interfaceIG_1_1Num_1_1INeuralModel.html" target="_top" xlink:title="Interface for artificial neural network &#45;based models that we can operate on.">
<polygon fill="white" stroke="black" points="265.5,-179.5 265.5,-198.5 338.5,-198.5 338.5,-179.5 265.5,-179.5"/>
<text text-anchor="middle" x="302" y="-186.5" font-family="Helvetica,sans-Serif" font-size="10.00">INeuralModel</text>
</a>
</g>
</g>
<!-- Node11&#45;&gt;Node3 -->
<g id="edge17" class="edge"><title>Node11&#45;&gt;Node3</title>
<path fill="none" stroke="midnightblue" d="M272.146,-175.503C247.962,-165.38 214.538,-151.388 193.345,-142.516"/>
<polygon fill="midnightblue" stroke="midnightblue" points="270.984,-178.811 281.56,-179.444 273.687,-172.354 270.984,-178.811"/>
</g>
</g>
</svg>
