<?xml version="1.0" encoding="UTF-8" standalone="no"?>
<!DOCTYPE svg PUBLIC "-//W3C//DTD SVG 1.1//EN"
 "http://www.w3.org/Graphics/SVG/1.1/DTD/svg11.dtd">
<!-- Generated by graphviz version 2.38.0 (20140413.2041)
 -->
<!-- Title: AForge.Imaging.Filters.Opening Pages: 1 -->
<!--zoomable 214 -->
<svg id="main" version="1.1" xmlns="http://www.w3.org/2000/svg" xmlns:xlink="http://www.w3.org/1999/xlink" xml:space="preserve" onload="init(evt)">
<style type="text/css"><![CDATA[
.edge:hover path { stroke: red; }
.edge:hover polygon { stroke: red; fill: red; }
]]></style>
<script type="text/javascript"><![CDATA[
var edges = document.getElementsByTagName('g');
if (edges && edges.length) {
  for (var i=0;i<edges.length;i++) {
    if (edges[i].id.substr(0,4)=='edge') {
      edges[i].setAttribute('class','edge');
    }
  }
}
]]></script>
        <defs>
                <circle id="rim" cx="0" cy="0" r="7"/>
                <circle id="rim2" cx="0" cy="0" r="3.5"/>
                <g id="zoomPlus">
                        <use xlink:href="#rim" fill="#404040">
                                <set attributeName="fill" to="#808080" begin="zoomplus.mouseover" end="zoomplus.mouseout"/>
                        </use>
                        <path d="M-4,0h8M0,-4v8" fill="none" stroke="white" stroke-width="1.5" pointer-events="none"/>
                </g>
                <g id="zoomMin">
                        <use xlink:href="#rim" fill="#404040">
                                <set attributeName="fill" to="#808080" begin="zoomminus.mouseover" end="zoomminus.mouseout"/>
                        </use>
                        <path d="M-4,0h8" fill="none" stroke="white" stroke-width="1.5" pointer-events="none"/>
                </g>
                <g id="dirArrow">
                        <path fill="none" stroke="white" stroke-width="1.5" d="M0,-3.0v7 M-2.5,-0.5L0,-3.0L2.5,-0.5"/>
                </g>
               <g id="resetDef">
                       <use xlink:href="#rim2" fill="#404040">
                               <set attributeName="fill" to="#808080" begin="reset.mouseover" end="reset.mouseout"/>
                       </use>
               </g>
        </defs>

<script type="text/javascript">
var viewWidth = 710;
var viewHeight = 214;
var sectionId = 'dynsection-1';
</script>
<script xlink:href="../../svgpan.js"/>
<svg id="graph" class="graph">
<g id="viewport">
<title>AForge.Imaging.Filters.Opening</title>
<polygon fill="white" stroke="none" points="-4,4 -4,-210 706,-210 706,4 -4,4"/>
<!-- Node1 -->
<g id="node1" class="node"><title>Node1</title>
<g id="a_node1"><a xlink:title="Opening operator from Mathematical Morphology.">
<polygon fill="#bfbfbf" stroke="black" points="548,-93.5 548,-112.5 702,-112.5 702,-93.5 548,-93.5"/>
<text text-anchor="middle" x="625" y="-100.5" font-family="Helvetica,sans-Serif" font-size="10.00">AForge.Imaging.Filters.Opening</text>
</a>
</g>
</g>
<!-- Node2 -->
<g id="node2" class="node"><title>Node2</title>
<g id="a_node2"><a xlink:href="../../dd/d51/interfaceAForge_1_1Imaging_1_1Filters_1_1IFilter.html" target="_top" xlink:title="Image processing filter interface.">
<polygon fill="white" stroke="black" points="30,-133.5 30,-152.5 71,-152.5 71,-133.5 30,-133.5"/>
<text text-anchor="middle" x="50.5" y="-140.5" font-family="Helvetica,sans-Serif" font-size="10.00">IFilter</text>
</a>
</g>
</g>
<!-- Node2&#45;&gt;Node1 -->
<g id="edge1" class="edge"><title>Node2&#45;&gt;Node1</title>
<path fill="none" stroke="midnightblue" d="M81.2068,-144.699C149.76,-148.203 324.228,-154.733 469,-140 513.451,-135.476 563.505,-121.935 594.401,-112.554"/>
<polygon fill="midnightblue" stroke="midnightblue" points="81.3055,-141.2 71.1346,-144.167 80.9357,-148.19 81.3055,-141.2"/>
</g>
<!-- Node7 -->
<g id="node7" class="node"><title>Node7</title>
<g id="a_node7"><a xlink:href="../../d8/ddf/classAForge_1_1Imaging_1_1Filters_1_1BaseUsingCopyPartialFilter.html" target="_top" xlink:title="Base class for filters, which require source image backup to make them applicable to source image (or...">
<polygon fill="white" stroke="black" points="138,-102.5 138,-121.5 274,-121.5 274,-102.5 138,-102.5"/>
<text text-anchor="middle" x="206" y="-109.5" font-family="Helvetica,sans-Serif" font-size="10.00">BaseUsingCopyPartialFilter</text>
</a>
</g>
</g>
<!-- Node2&#45;&gt;Node7 -->
<g id="edge7" class="edge"><title>Node2&#45;&gt;Node7</title>
<path fill="none" stroke="midnightblue" d="M81.217,-136.999C102.974,-132.605 132.938,-126.553 157.935,-121.505"/>
<polygon fill="midnightblue" stroke="midnightblue" points="80.3624,-133.6 71.2532,-139.011 81.7482,-140.462 80.3624,-133.6"/>
</g>
<!-- Node3 -->
<g id="node3" class="node"><title>Node3</title>
<g id="a_node3"><a xlink:href="../../de/d9b/interfaceAForge_1_1Imaging_1_1Filters_1_1IInPlaceFilter.html" target="_top" xlink:title="In&#45;place filter interface.">
<polygon fill="white" stroke="black" points="14,-186.5 14,-205.5 87,-205.5 87,-186.5 14,-186.5"/>
<text text-anchor="middle" x="50.5" y="-193.5" font-family="Helvetica,sans-Serif" font-size="10.00">IInPlaceFilter</text>
</a>
</g>
</g>
<!-- Node3&#45;&gt;Node1 -->
<g id="edge2" class="edge"><title>Node3&#45;&gt;Node1</title>
<path fill="none" stroke="midnightblue" d="M97.0398,-197.451C183.593,-198.887 376.875,-195.73 530,-147 557.988,-138.093 588.443,-122.691 606.878,-112.675"/>
<polygon fill="midnightblue" stroke="midnightblue" points="97.0899,-193.951 87.0236,-197.255 96.9535,-200.95 97.0899,-193.951"/>
</g>
<!-- Node3&#45;&gt;Node7 -->
<g id="edge8" class="edge"><title>Node3&#45;&gt;Node7</title>
<path fill="none" stroke="midnightblue" d="M78.1726,-181.404C109.594,-164.209 160.889,-136.139 187.597,-121.523"/>
<polygon fill="midnightblue" stroke="midnightblue" points="76.2006,-178.493 69.1084,-186.364 79.561,-184.634 76.2006,-178.493"/>
</g>
<!-- Node4 -->
<g id="node4" class="node"><title>Node4</title>
<g id="a_node4"><a xlink:href="../../d2/d66/interfaceAForge_1_1Imaging_1_1Filters_1_1IInPlacePartialFilter.html" target="_top" xlink:title="In&#45;place partial filter interface.">
<polygon fill="white" stroke="black" points="0,-0.5 0,-19.5 101,-19.5 101,-0.5 0,-0.5"/>
<text text-anchor="middle" x="50.5" y="-7.5" font-family="Helvetica,sans-Serif" font-size="10.00">IInPlacePartialFilter</text>
</a>
</g>
</g>
<!-- Node4&#45;&gt;Node1 -->
<g id="edge3" class="edge"><title>Node4&#45;&gt;Node1</title>
<path fill="none" stroke="midnightblue" d="M111.226,-8.31494C203.565,-7.50203 385.42,-13.0901 530,-62 556.479,-70.9575 585.834,-84.3487 604.579,-93.3664"/>
<polygon fill="midnightblue" stroke="midnightblue" points="111.184,-4.8151 101.225,-8.4314 111.265,-11.8146 111.184,-4.8151"/>
</g>
<!-- Node4&#45;&gt;Node7 -->
<g id="edge9" class="edge"><title>Node4&#45;&gt;Node7</title>
<path fill="none" stroke="midnightblue" d="M81.812,-24.2841C88.258,-27.604 94.9433,-31.2657 101,-35 136.187,-56.6943 174.519,-86.9814 193.298,-102.302"/>
<polygon fill="midnightblue" stroke="midnightblue" points="83.1494,-21.0396 72.6401,-19.696 80.0177,-27.3 83.1494,-21.0396"/>
</g>
<!-- Node5 -->
<g id="node5" class="node"><title>Node5</title>
<g id="a_node5"><a xlink:href="../../d7/dec/interfaceAForge_1_1Imaging_1_1Filters_1_1IFilterInformation.html" target="_top" xlink:title="Interface which provides information about image processing filter.">
<polygon fill="white" stroke="black" points="6.5,-44.5 6.5,-63.5 94.5,-63.5 94.5,-44.5 6.5,-44.5"/>
<text text-anchor="middle" x="50.5" y="-51.5" font-family="Helvetica,sans-Serif" font-size="10.00">IFilterInformation</text>
</a>
</g>
</g>
<!-- Node5&#45;&gt;Node1 -->
<g id="edge4" class="edge"><title>Node5&#45;&gt;Node1</title>
<path fill="none" stroke="midnightblue" d="M105,-51.4994C184.72,-48.6259 339.226,-46.3439 469,-64 513.405,-70.0413 563.471,-83.9816 594.383,-93.4502"/>
<polygon fill="midnightblue" stroke="midnightblue" points="104.584,-48.0126 94.7234,-51.8883 104.849,-55.0076 104.584,-48.0126"/>
</g>
<!-- Node5&#45;&gt;Node7 -->
<g id="edge10" class="edge"><title>Node5&#45;&gt;Node7</title>
<path fill="none" stroke="midnightblue" d="M86.3871,-67.1821C114.77,-77.9068 154.16,-92.79 179.615,-102.408"/>
<polygon fill="midnightblue" stroke="midnightblue" points="87.439,-63.8381 76.8474,-63.5775 84.9648,-70.3863 87.439,-63.8381"/>
</g>
<!-- Node6 -->
<g id="node6" class="node"><title>Node6</title>
<g id="a_node6"><a xlink:href="../../da/dce/classAForge_1_1Imaging_1_1Filters_1_1Erosion.html" target="_top" xlink:title="Erosion operator from Mathematical Morphology.">
<polygon fill="white" stroke="black" points="314.5,-111.5 314.5,-130.5 465.5,-130.5 465.5,-111.5 314.5,-111.5"/>
<text text-anchor="middle" x="390" y="-118.5" font-family="Helvetica,sans-Serif" font-size="10.00">AForge.Imaging.Filters.Erosion</text>
</a>
</g>
</g>
<!-- Node6&#45;&gt;Node1 -->
<g id="edge5" class="edge"><title>Node6&#45;&gt;Node1</title>
<path fill="none" stroke="#9a32cd" stroke-dasharray="5,2" d="M475.658,-114.46C499.228,-112.639 524.681,-110.673 547.738,-108.891"/>
<polygon fill="#9a32cd" stroke="#9a32cd" points="475.385,-110.97 465.684,-115.23 475.924,-117.95 475.385,-110.97"/>
<text text-anchor="middle" x="508.5" y="-116" font-family="Helvetica,sans-Serif" font-size="10.00"> errosion</text>
</g>
<!-- Node7&#45;&gt;Node6 -->
<g id="edge6" class="edge"><title>Node7&#45;&gt;Node6</title>
<path fill="none" stroke="midnightblue" d="M284.476,-115.831C294.381,-116.321 304.505,-116.822 314.363,-117.309"/>
<polygon fill="midnightblue" stroke="midnightblue" points="284.414,-112.324 274.253,-115.326 284.068,-119.315 284.414,-112.324"/>
</g>
<!-- Node8 -->
<g id="node8" class="node"><title>Node8</title>
<g id="a_node8"><a xlink:href="../../db/de4/classAForge_1_1Imaging_1_1Filters_1_1Dilatation.html" target="_top" xlink:title="Dilatation operator from Mathematical Morphology.">
<polygon fill="white" stroke="black" points="311,-73.5 311,-92.5 469,-92.5 469,-73.5 311,-73.5"/>
<text text-anchor="middle" x="390" y="-80.5" font-family="Helvetica,sans-Serif" font-size="10.00">AForge.Imaging.Filters.Dilatation</text>
</a>
</g>
</g>
<!-- Node7&#45;&gt;Node8 -->
<g id="edge12" class="edge"><title>Node7&#45;&gt;Node8</title>
<path fill="none" stroke="midnightblue" d="M276.852,-100.87C294.09,-98.123 312.401,-95.2054 329.118,-92.5416"/>
<polygon fill="midnightblue" stroke="midnightblue" points="276.17,-97.4341 266.846,-102.464 277.272,-104.347 276.17,-97.4341"/>
</g>
<!-- Node8&#45;&gt;Node1 -->
<g id="edge11" class="edge"><title>Node8&#45;&gt;Node1</title>
<path fill="none" stroke="#9a32cd" stroke-dasharray="5,2" d="M479.479,-90.5947C502.033,-92.5307 526.077,-94.5946 547.949,-96.472"/>
<polygon fill="#9a32cd" stroke="#9a32cd" points="479.497,-87.0835 469.234,-89.7153 478.898,-94.0578 479.497,-87.0835"/>
<text text-anchor="middle" x="508.5" y="-97" font-family="Helvetica,sans-Serif" font-size="10.00"> dilatation</text>
</g>
</g>
</svg>
        <g id="navigator" transform="translate(0 0)" fill="#404254">
                <rect fill="#f2f5e9" fill-opacity="0.5" stroke="#606060" stroke-width=".5" x="0" y="0" width="60" height="60"/>
                <use id="zoomplus" xlink:href="#zoomPlus" x="17" y="9" onmousedown="handleZoom(evt,'in')"/>
                <use id="zoomminus" xlink:href="#zoomMin" x="42" y="9" onmousedown="handleZoom(evt,'out')"/>
                <use id="reset" xlink:href="#resetDef" x="30" y="36" onmousedown="handleReset()"/>
                <g id="arrowUp" xlink:href="#dirArrow" transform="translate(30 24)" onmousedown="handlePan(0,-1)">
                  <use xlink:href="#rim" fill="#404040">
                        <set attributeName="fill" to="#808080" begin="arrowUp.mouseover" end="arrowUp.mouseout"/>
                  </use>
                  <path fill="none" stroke="white" stroke-width="1.5" d="M0,-3.0v7 M-2.5,-0.5L0,-3.0L2.5,-0.5"/>
                </g>
                <g id="arrowRight" xlink:href="#dirArrow" transform="rotate(90) translate(36 -43)" onmousedown="handlePan(1,0)">
                  <use xlink:href="#rim" fill="#404040">
                        <set attributeName="fill" to="#808080" begin="arrowRight.mouseover" end="arrowRight.mouseout"/>
                  </use>
                  <path fill="none" stroke="white" stroke-width="1.5" d="M0,-3.0v7 M-2.5,-0.5L0,-3.0L2.5,-0.5"/>
                </g>
                <g id="arrowDown" xlink:href="#dirArrow" transform="rotate(180) translate(-30 -48)" onmousedown="handlePan(0,1)">
                  <use xlink:href="#rim" fill="#404040">
                        <set attributeName="fill" to="#808080" begin="arrowDown.mouseover" end="arrowDown.mouseout"/>
                  </use>
                  <path fill="none" stroke="white" stroke-width="1.5" d="M0,-3.0v7 M-2.5,-0.5L0,-3.0L2.5,-0.5"/>
                </g>
                <g id="arrowLeft" xlink:href="#dirArrow" transform="rotate(270) translate(-36 17)" onmousedown="handlePan(-1,0)">
                  <use xlink:href="#rim" fill="#404040">
                        <set attributeName="fill" to="#808080" begin="arrowLeft.mouseover" end="arrowLeft.mouseout"/>
                  </use>
                  <path fill="none" stroke="white" stroke-width="1.5" d="M0,-3.0v7 M-2.5,-0.5L0,-3.0L2.5,-0.5"/>
                </g>
        </g>
        <svg viewBox="0 0 15 15" width="100%" height="30px" preserveAspectRatio="xMaxYMin meet">
         <g id="arrow_out" transform="scale(0.3 0.3)">
          <a xlink:href="classAForge_1_1Imaging_1_1Filters_1_1Opening__coll__graph_org.svg" target="_base">
           <rect id="button" ry="5" rx="5" y="6" x="6" height="38" width="38"
                fill="#f2f5e9" fill-opacity="0.5" stroke="#606060" stroke-width="1.0"/>
           <path id="arrow"
             d="M 11.500037,31.436501 C 11.940474,20.09759 22.043105,11.32322 32.158766,21.979434 L 37.068811,17.246167 C 37.068811,17.246167 37.088388,32 37.088388,32 L 22.160133,31.978069 C 22.160133,31.978069 26.997745,27.140456 26.997745,27.140456 C 18.528582,18.264221 13.291696,25.230495 11.500037,31.436501 z"
             style="fill:#404040;"/>
          </a>
         </g>
        </svg>
</svg>
