<?xml version="1.0" encoding="UTF-8" standalone="no"?>
<!DOCTYPE svg PUBLIC "-//W3C//DTD SVG 1.1//EN"
 "http://www.w3.org/Graphics/SVG/1.1/DTD/svg11.dtd">
<!-- Generated by graphviz version 2.38.0 (20140413.2041)
 -->
<!-- Title: AForge.Imaging.Filters.Sepia Pages: 1 -->
<svg width="366pt" height="140pt"
 viewBox="0.00 0.00 365.50 140.00" xmlns="http://www.w3.org/2000/svg" xmlns:xlink="http://www.w3.org/1999/xlink">
<g id="graph0" class="graph" transform="scale(1 1) rotate(0) translate(4 136)">
<title>AForge.Imaging.Filters.Sepia</title>
<polygon fill="white" stroke="none" points="-4,4 -4,-136 361.5,-136 361.5,4 -4,4"/>
<!-- Node1 -->
<g id="node1" class="node"><title>Node1</title>
<g id="a_node1"><a xlink:title="Sepia filter &#45; old brown photo.">
<polygon fill="#bfbfbf" stroke="black" points="76,-0.5 76,-19.5 219,-19.5 219,-0.5 76,-0.5"/>
<text text-anchor="middle" x="147.5" y="-7.5" font-family="Helvetica,sans-Serif" font-size="10.00">AForge.Imaging.Filters.Sepia</text>
</a>
</g>
</g>
<!-- Node2 -->
<g id="node2" class="node"><title>Node2</title>
<g id="a_node2"><a xlink:href="../../db/dc9/classAForge_1_1Imaging_1_1Filters_1_1BaseInPlacePartialFilter.html" target="_top" xlink:title="Base class for filters, which may be applied directly to the source image or its part.">
<polygon fill="white" stroke="black" points="87,-56.5 87,-75.5 208,-75.5 208,-56.5 87,-56.5"/>
<text text-anchor="middle" x="147.5" y="-63.5" font-family="Helvetica,sans-Serif" font-size="10.00">BaseInPlacePartialFilter</text>
</a>
</g>
</g>
<!-- Node2&#45;&gt;Node1 -->
<g id="edge1" class="edge"><title>Node2&#45;&gt;Node1</title>
<path fill="none" stroke="midnightblue" d="M147.5,-45.8045C147.5,-36.9102 147.5,-26.7798 147.5,-19.7511"/>
<polygon fill="midnightblue" stroke="midnightblue" points="144,-46.083 147.5,-56.083 151,-46.083 144,-46.083"/>
</g>
<!-- Node3 -->
<g id="node3" class="node"><title>Node3</title>
<g id="a_node3"><a xlink:href="../../dd/d51/interfaceAForge_1_1Imaging_1_1Filters_1_1IFilter.html" target="_top" xlink:title="Image processing filter interface.">
<polygon fill="white" stroke="black" points="0,-112.5 0,-131.5 41,-131.5 41,-112.5 0,-112.5"/>
<text text-anchor="middle" x="20.5" y="-119.5" font-family="Helvetica,sans-Serif" font-size="10.00">IFilter</text>
</a>
</g>
</g>
<!-- Node3&#45;&gt;Node2 -->
<g id="edge2" class="edge"><title>Node3&#45;&gt;Node2</title>
<path fill="none" stroke="midnightblue" d="M49.8912,-108.503C73.7,-98.3795 106.606,-84.388 127.471,-75.5164"/>
<polygon fill="midnightblue" stroke="midnightblue" points="48.4566,-105.31 40.6235,-112.444 51.1957,-111.751 48.4566,-105.31"/>
</g>
<!-- Node4 -->
<g id="node4" class="node"><title>Node4</title>
<g id="a_node4"><a xlink:href="../../de/d9b/interfaceAForge_1_1Imaging_1_1Filters_1_1IInPlaceFilter.html" target="_top" xlink:title="In&#45;place filter interface.">
<polygon fill="white" stroke="black" points="59,-112.5 59,-131.5 132,-131.5 132,-112.5 59,-112.5"/>
<text text-anchor="middle" x="95.5" y="-119.5" font-family="Helvetica,sans-Serif" font-size="10.00">IInPlaceFilter</text>
</a>
</g>
</g>
<!-- Node4&#45;&gt;Node2 -->
<g id="edge3" class="edge"><title>Node4&#45;&gt;Node2</title>
<path fill="none" stroke="midnightblue" d="M111.179,-104.718C120.345,-95.1997 131.553,-83.5608 139.073,-75.7511"/>
<polygon fill="midnightblue" stroke="midnightblue" points="108.502,-102.452 104.087,-112.083 113.544,-107.308 108.502,-102.452"/>
</g>
<!-- Node5 -->
<g id="node5" class="node"><title>Node5</title>
<g id="a_node5"><a xlink:href="../../d2/d66/interfaceAForge_1_1Imaging_1_1Filters_1_1IInPlacePartialFilter.html" target="_top" xlink:title="In&#45;place partial filter interface.">
<polygon fill="white" stroke="black" points="150,-112.5 150,-131.5 251,-131.5 251,-112.5 150,-112.5"/>
<text text-anchor="middle" x="200.5" y="-119.5" font-family="Helvetica,sans-Serif" font-size="10.00">IInPlacePartialFilter</text>
</a>
</g>
</g>
<!-- Node5&#45;&gt;Node2 -->
<g id="edge4" class="edge"><title>Node5&#45;&gt;Node2</title>
<path fill="none" stroke="midnightblue" d="M184.519,-104.718C175.178,-95.1997 163.754,-83.5608 156.089,-75.7511"/>
<polygon fill="midnightblue" stroke="midnightblue" points="182.246,-107.398 191.748,-112.083 187.241,-102.494 182.246,-107.398"/>
</g>
<!-- Node6 -->
<g id="node6" class="node"><title>Node6</title>
<g id="a_node6"><a xlink:href="../../d7/dec/interfaceAForge_1_1Imaging_1_1Filters_1_1IFilterInformation.html" target="_top" xlink:title="Interface which provides information about image processing filter.">
<polygon fill="white" stroke="black" points="269.5,-112.5 269.5,-131.5 357.5,-131.5 357.5,-112.5 269.5,-112.5"/>
<text text-anchor="middle" x="313.5" y="-119.5" font-family="Helvetica,sans-Serif" font-size="10.00">IFilterInformation</text>
</a>
</g>
</g>
<!-- Node6&#45;&gt;Node2 -->
<g id="edge5" class="edge"><title>Node6&#45;&gt;Node2</title>
<path fill="none" stroke="midnightblue" d="M277.547,-109.304C246.268,-99.1294 201.679,-84.6246 173.68,-75.5164"/>
<polygon fill="midnightblue" stroke="midnightblue" points="276.605,-112.678 287.197,-112.444 278.77,-106.022 276.605,-112.678"/>
</g>
</g>
</svg>
