<?xml version="1.0" encoding="UTF-8" standalone="no"?>
<!DOCTYPE svg PUBLIC "-//W3C//DTD SVG 1.1//EN"
 "http://www.w3.org/Graphics/SVG/1.1/DTD/svg11.dtd">
<!-- Generated by graphviz version 2.38.0 (20140413.2041)
 -->
<!-- Title: DotNumerics.LinearAlgebra.CSLapack.DORM2R Pages: 1 -->
<svg width="767pt" height="151pt"
 viewBox="0.00 0.00 767.00 150.50" xmlns="http://www.w3.org/2000/svg" xmlns:xlink="http://www.w3.org/1999/xlink">
<g id="graph0" class="graph" transform="scale(1 1) rotate(0) translate(4 146.5)">
<title>DotNumerics.LinearAlgebra.CSLapack.DORM2R</title>
<polygon fill="white" stroke="none" points="-4,4 -4,-146.5 763,-146.5 763,4 -4,4"/>
<!-- Node1 -->
<g id="node1" class="node"><title>Node1</title>
<g id="a_node1"><a xlink:title="– LAPACK routine (version 3.1) – Univ. of Tennessee, Univ. of California Berkeley and NAG Ltd....">
<polygon fill="#bfbfbf" stroke="black" points="621,-45.5 621,-75.5 759,-75.5 759,-45.5 621,-45.5"/>
<text text-anchor="start" x="629" y="-63.5" font-family="Helvetica,sans-Serif" font-size="10.00">DotNumerics.LinearAlgebra.</text>
<text text-anchor="middle" x="690" y="-52.5" font-family="Helvetica,sans-Serif" font-size="10.00">CSLapack.DORM2R</text>
</a>
</g>
</g>
<!-- Node2 -->
<g id="node2" class="node"><title>Node2</title>
<g id="a_node2"><a xlink:href="../../db/d6a/classDotNumerics_1_1LinearAlgebra_1_1CSLapack_1_1XERBLA.html" target="_top" xlink:title="– LAPACK auxiliary routine (version 3.1) – Univ. of Tennessee, Univ. of California Berkeley and NAG L...">
<polygon fill="white" stroke="black" points="0,-101.5 0,-131.5 138,-131.5 138,-101.5 0,-101.5"/>
<text text-anchor="start" x="8" y="-119.5" font-family="Helvetica,sans-Serif" font-size="10.00">DotNumerics.LinearAlgebra.</text>
<text text-anchor="middle" x="69" y="-108.5" font-family="Helvetica,sans-Serif" font-size="10.00">CSLapack.XERBLA</text>
</a>
</g>
</g>
<!-- Node2&#45;&gt;Node1 -->
<g id="edge1" class="edge"><title>Node2&#45;&gt;Node1</title>
<path fill="none" stroke="#9a32cd" stroke-dasharray="5,2" d="M147.963,-128.613C167.816,-131.142 189.152,-133.38 209,-134.5 270.236,-137.955 286.014,-141.022 347,-134.5 451.047,-123.372 569.911,-93.7172 636.548,-75.5049"/>
<polygon fill="#9a32cd" stroke="#9a32cd" points="148.412,-125.142 138.041,-127.31 147.501,-132.082 148.412,-125.142"/>
<text text-anchor="middle" x="383.5" y="-134.5" font-family="Helvetica,sans-Serif" font-size="10.00"> _xerbla</text>
</g>
<!-- Node4 -->
<g id="node4" class="node"><title>Node4</title>
<g id="a_node4"><a xlink:href="../../df/dc3/classDotNumerics_1_1LinearAlgebra_1_1CSLapack_1_1DGER.html" target="_top" xlink:title=" ">
<polygon fill="white" stroke="black" points="209,-94.5 209,-124.5 347,-124.5 347,-94.5 209,-94.5"/>
<text text-anchor="start" x="217" y="-112.5" font-family="Helvetica,sans-Serif" font-size="10.00">DotNumerics.LinearAlgebra.</text>
<text text-anchor="middle" x="278" y="-101.5" font-family="Helvetica,sans-Serif" font-size="10.00">CSLapack.DGER</text>
</a>
</g>
</g>
<!-- Node2&#45;&gt;Node4 -->
<g id="edge4" class="edge"><title>Node2&#45;&gt;Node4</title>
<path fill="none" stroke="#9a32cd" stroke-dasharray="5,2" d="M148.074,-113.86C168.079,-113.183 189.435,-112.461 208.893,-111.803"/>
<polygon fill="#9a32cd" stroke="#9a32cd" points="147.942,-110.362 138.066,-114.198 148.179,-117.358 147.942,-110.362"/>
<text text-anchor="middle" x="173.5" y="-116.5" font-family="Helvetica,sans-Serif" font-size="10.00"> _xerbla</text>
</g>
<!-- Node6 -->
<g id="node6" class="node"><title>Node6</title>
<g id="a_node6"><a xlink:href="../../d7/d97/classDotNumerics_1_1LinearAlgebra_1_1CSLapack_1_1DGEMV.html" target="_top" xlink:title=" ">
<polygon fill="white" stroke="black" points="209,-45.5 209,-75.5 347,-75.5 347,-45.5 209,-45.5"/>
<text text-anchor="start" x="217" y="-63.5" font-family="Helvetica,sans-Serif" font-size="10.00">DotNumerics.LinearAlgebra.</text>
<text text-anchor="middle" x="278" y="-52.5" font-family="Helvetica,sans-Serif" font-size="10.00">CSLapack.DGEMV</text>
</a>
</g>
</g>
<!-- Node2&#45;&gt;Node6 -->
<g id="edge7" class="edge"><title>Node2&#45;&gt;Node6</title>
<path fill="none" stroke="#9a32cd" stroke-dasharray="5,2" d="M135.443,-98.7956C163.071,-91.3213 194.903,-82.71 221.375,-75.5484"/>
<polygon fill="#9a32cd" stroke="#9a32cd" points="134.211,-95.503 125.472,-101.493 136.039,-102.26 134.211,-95.503"/>
<text text-anchor="middle" x="173.5" y="-95.5" font-family="Helvetica,sans-Serif" font-size="10.00"> _xerbla</text>
</g>
<!-- Node3 -->
<g id="node3" class="node"><title>Node3</title>
<g id="a_node3"><a xlink:href="../../d9/dd6/classDotNumerics_1_1LinearAlgebra_1_1CSLapack_1_1DLARF.html" target="_top" xlink:title="– LAPACK auxiliary routine (version 3.1) – Univ. of Tennessee, Univ. of California Berkeley and NAG L...">
<polygon fill="white" stroke="black" points="420,-45.5 420,-75.5 558,-75.5 558,-45.5 420,-45.5"/>
<text text-anchor="start" x="428" y="-63.5" font-family="Helvetica,sans-Serif" font-size="10.00">DotNumerics.LinearAlgebra.</text>
<text text-anchor="middle" x="489" y="-52.5" font-family="Helvetica,sans-Serif" font-size="10.00">CSLapack.DLARF</text>
</a>
</g>
</g>
<!-- Node3&#45;&gt;Node1 -->
<g id="edge2" class="edge"><title>Node3&#45;&gt;Node1</title>
<path fill="none" stroke="#9a32cd" stroke-dasharray="5,2" d="M568.312,-60.5C585.684,-60.5 603.958,-60.5 620.883,-60.5"/>
<polygon fill="#9a32cd" stroke="#9a32cd" points="568.206,-57.0001 558.206,-60.5 568.206,-64.0001 568.206,-57.0001"/>
<text text-anchor="middle" x="589.5" y="-63.5" font-family="Helvetica,sans-Serif" font-size="10.00"> _dlarf</text>
</g>
<!-- Node4&#45;&gt;Node3 -->
<g id="edge3" class="edge"><title>Node4&#45;&gt;Node3</title>
<path fill="none" stroke="#9a32cd" stroke-dasharray="5,2" d="M352.922,-92.1691C376.126,-86.7288 401.536,-80.7715 423.994,-75.5062"/>
<polygon fill="#9a32cd" stroke="#9a32cd" points="352.064,-88.7751 343.127,-94.4654 353.662,-95.5903 352.064,-88.7751"/>
<text text-anchor="middle" x="383.5" y="-91.5" font-family="Helvetica,sans-Serif" font-size="10.00"> _dger</text>
</g>
<!-- Node5 -->
<g id="node5" class="node"><title>Node5</title>
<g id="a_node5"><a xlink:href="../../dd/dac/classDotNumerics_1_1LinearAlgebra_1_1CSLapack_1_1LSAME.html" target="_top" xlink:title="– LAPACK auxiliary routine (version 3.1) – Univ. of Tennessee, Univ. of California Berkeley and NAG L...">
<polygon fill="white" stroke="black" points="0,-0.5 0,-30.5 138,-30.5 138,-0.5 0,-0.5"/>
<text text-anchor="start" x="8" y="-18.5" font-family="Helvetica,sans-Serif" font-size="10.00">DotNumerics.LinearAlgebra.</text>
<text text-anchor="middle" x="69" y="-7.5" font-family="Helvetica,sans-Serif" font-size="10.00">CSLapack.LSAME</text>
</a>
</g>
</g>
<!-- Node5&#45;&gt;Node1 -->
<g id="edge9" class="edge"><title>Node5&#45;&gt;Node1</title>
<path fill="none" stroke="#9a32cd" stroke-dasharray="5,2" d="M148.235,-9.8088C150.854,-9.69264 153.448,-9.58892 156,-9.5 171.546,-8.95835 175.445,-9.45014 191,-9.5 284.794,-9.80062 308.649,-4.38849 402,-13.5 471.688,-20.3019 488.924,-24.0449 558,-35.5 578.443,-38.8901 600.604,-42.9655 620.782,-46.8326"/>
<polygon fill="#9a32cd" stroke="#9a32cd" points="147.86,-6.32296 138.046,-10.3134 148.207,-13.3144 147.86,-6.32296"/>
<text text-anchor="middle" x="383.5" y="-16.5" font-family="Helvetica,sans-Serif" font-size="10.00"> _lsame</text>
</g>
<!-- Node5&#45;&gt;Node3 -->
<g id="edge5" class="edge"><title>Node5&#45;&gt;Node3</title>
<path fill="none" stroke="#9a32cd" stroke-dasharray="5,2" d="M148.241,-13.5272C203.938,-13.2206 280.405,-15.0318 347,-24.5 378.391,-28.9631 412.891,-37.7021 439.907,-45.4521"/>
<polygon fill="#9a32cd" stroke="#9a32cd" points="148.062,-10.0284 138.09,-13.6077 148.118,-17.0282 148.062,-10.0284"/>
<text text-anchor="middle" x="278" y="-27.5" font-family="Helvetica,sans-Serif" font-size="10.00"> _lsame</text>
</g>
<!-- Node5&#45;&gt;Node6 -->
<g id="edge8" class="edge"><title>Node5&#45;&gt;Node6</title>
<path fill="none" stroke="#9a32cd" stroke-dasharray="5,2" d="M148.074,-32.4727C168.079,-36.8215 189.435,-41.4641 208.893,-45.6941"/>
<polygon fill="#9a32cd" stroke="#9a32cd" points="148.582,-29.0013 138.066,-30.297 147.094,-35.8415 148.582,-29.0013"/>
<text text-anchor="middle" x="173.5" y="-44.5" font-family="Helvetica,sans-Serif" font-size="10.00"> _lsame</text>
</g>
<!-- Node6&#45;&gt;Node3 -->
<g id="edge6" class="edge"><title>Node6&#45;&gt;Node3</title>
<path fill="none" stroke="#9a32cd" stroke-dasharray="5,2" d="M357.425,-60.5C377.984,-60.5 399.98,-60.5 419.947,-60.5"/>
<polygon fill="#9a32cd" stroke="#9a32cd" points="357.145,-57.0001 347.145,-60.5 357.145,-64.0001 357.145,-57.0001"/>
<text text-anchor="middle" x="383.5" y="-63.5" font-family="Helvetica,sans-Serif" font-size="10.00"> _dgemv</text>
</g>
</g>
</svg>
