<?xml version="1.0" encoding="UTF-8" standalone="no"?>
<!DOCTYPE svg PUBLIC "-//W3C//DTD SVG 1.1//EN"
 "http://www.w3.org/Graphics/SVG/1.1/DTD/svg11.dtd">
<!-- Generated by graphviz version 2.38.0 (20140413.2041)
 -->
<!-- Title: IG.Neural.Applications.NeuralDemo Pages: 1 -->
<svg width="387pt" height="318pt"
 viewBox="0.00 0.00 386.50 318.00" xmlns="http://www.w3.org/2000/svg" xmlns:xlink="http://www.w3.org/1999/xlink">
<g id="graph0" class="graph" transform="scale(1 1) rotate(0) translate(4 314)">
<title>IG.Neural.Applications.NeuralDemo</title>
<polygon fill="white" stroke="none" points="-4,4 -4,-314 382.5,-314 382.5,4 -4,4"/>
<!-- Node1 -->
<g id="node1" class="node"><title>Node1</title>
<g id="a_node1"><a xlink:title=" ">
<polygon fill="#bfbfbf" stroke="black" points="47.5,-0.5 47.5,-19.5 217.5,-19.5 217.5,-0.5 47.5,-0.5"/>
<text text-anchor="middle" x="132.5" y="-7.5" font-family="Helvetica,sans-Serif" font-size="10.00">IG.Neural.Applications.NeuralDemo</text>
</a>
</g>
</g>
<!-- Node2 -->
<g id="node2" class="node"><title>Node2</title>
<g id="a_node2"><a xlink:title=" ">
<polygon fill="white" stroke="#bfbfbf" points="0,-96 0,-115 39,-115 39,-96 0,-96"/>
<text text-anchor="middle" x="19.5" y="-103" font-family="Helvetica,sans-Serif" font-size="10.00">Form</text>
</a>
</g>
</g>
<!-- Node2&#45;&gt;Node1 -->
<g id="edge1" class="edge"><title>Node2&#45;&gt;Node1</title>
<path fill="none" stroke="midnightblue" d="M30.6445,-87.0771C40.6913,-72.4642 56.6038,-51.8242 74.5,-38 84.5205,-30.2595 97.1181,-24.0587 108.01,-19.5612"/>
<polygon fill="midnightblue" stroke="midnightblue" points="27.5487,-85.4118 24.9274,-95.6773 33.3782,-89.287 27.5487,-85.4118"/>
</g>
<!-- Node3 -->
<g id="node3" class="node"><title>Node3</title>
<g id="a_node3"><a xlink:title=" ">
<polygon fill="white" stroke="#bfbfbf" points="57.5,-96 57.5,-115 101.5,-115 101.5,-96 57.5,-96"/>
<text text-anchor="middle" x="79.5" y="-103" font-family="Helvetica,sans-Serif" font-size="10.00">Forms</text>
</a>
</g>
</g>
<!-- Node3&#45;&gt;Node1 -->
<g id="edge2" class="edge"><title>Node3&#45;&gt;Node1</title>
<path fill="none" stroke="#9a32cd" stroke-dasharray="5,2" d="M77.1672,-85.8706C76.3444,-71.6547 77.3699,-52.1677 86.5,-38 91.7168,-29.9048 100.287,-23.9309 108.624,-19.6907"/>
<polygon fill="#9a32cd" stroke="#9a32cd" points="73.6925,-86.3062 78.1039,-95.939 80.6624,-85.6577 73.6925,-86.3062"/>
<text text-anchor="middle" x="125.5" y="-52" font-family="Helvetica,sans-Serif" font-size="10.00"> neuralControl2D1</text>
<text text-anchor="middle" x="125.5" y="-41" font-family="Helvetica,sans-Serif" font-size="10.00">neuralDemo1D1</text>
</g>
<!-- Node4 -->
<g id="node4" class="node"><title>Node4</title>
<g id="a_node4"><a xlink:href="../../d1/d36/classIG_1_1Neural_1_1Applications_1_1NeuralDemoAbout.html" target="_top" xlink:title=" ">
<polygon fill="white" stroke="black" points="119.5,-90.5 119.5,-120.5 263.5,-120.5 263.5,-90.5 119.5,-90.5"/>
<text text-anchor="start" x="127.5" y="-108.5" font-family="Helvetica,sans-Serif" font-size="10.00">IG.Neural.Applications.Neural</text>
<text text-anchor="middle" x="191.5" y="-97.5" font-family="Helvetica,sans-Serif" font-size="10.00">DemoAbout</text>
</a>
</g>
</g>
<!-- Node4&#45;&gt;Node1 -->
<g id="edge3" class="edge"><title>Node4&#45;&gt;Node1</title>
<path fill="none" stroke="#9a32cd" stroke-dasharray="5,2" d="M184.844,-80.3797C180.433,-67.0792 173.74,-50.7316 164.5,-38 159.291,-30.823 151.779,-24.3545 145.343,-19.5493"/>
<polygon fill="#9a32cd" stroke="#9a32cd" points="181.602,-81.7441 187.897,-90.266 188.291,-79.6784 181.602,-81.7441"/>
<text text-anchor="middle" x="219.5" y="-46.5" font-family="Helvetica,sans-Serif" font-size="10.00"> neuralDemoAbout1</text>
</g>
<!-- Node5 -->
<g id="node5" class="node"><title>Node5</title>
<g id="a_node5"><a xlink:title=" ">
<polygon fill="white" stroke="#bfbfbf" points="129.5,-290.5 129.5,-309.5 197.5,-309.5 197.5,-290.5 129.5,-290.5"/>
<text text-anchor="middle" x="163.5" y="-297.5" font-family="Helvetica,sans-Serif" font-size="10.00">UserControl</text>
</a>
</g>
</g>
<!-- Node5&#45;&gt;Node4 -->
<g id="edge4" class="edge"><title>Node5&#45;&gt;Node4</title>
<path fill="none" stroke="midnightblue" d="M164.015,-280.15C165.073,-251.846 168.237,-196.801 177.5,-151 179.587,-140.68 183.165,-129.366 186.181,-120.729"/>
<polygon fill="midnightblue" stroke="midnightblue" points="160.514,-280.123 163.687,-290.232 167.511,-280.351 160.514,-280.123"/>
</g>
<!-- Node6 -->
<g id="node6" class="node"><title>Node6</title>
<g id="a_node6"><a xlink:title=" ">
<polygon fill="white" stroke="#bfbfbf" points="244.5,-290.5 244.5,-309.5 294.5,-309.5 294.5,-290.5 244.5,-290.5"/>
<text text-anchor="middle" x="269.5" y="-297.5" font-family="Helvetica,sans-Serif" font-size="10.00">System</text>
</a>
</g>
</g>
<!-- Node6&#45;&gt;Node1 -->
<g id="edge6" class="edge"><title>Node6&#45;&gt;Node1</title>
<path fill="none" stroke="#9a32cd" stroke-dasharray="5,2" d="M281.751,-281.308C283.295,-278.318 284.635,-275.156 285.5,-272 313.078,-171.368 339.082,-112.961 266.5,-38 258.37,-29.6034 236.658,-23.671 213.02,-19.5496"/>
<polygon fill="#9a32cd" stroke="#9a32cd" points="278.635,-279.697 276.451,-290.065 284.623,-283.322 278.635,-279.697"/>
<text text-anchor="middle" x="346" y="-125" font-family="Helvetica,sans-Serif" font-size="10.00"> tabPageAbout</text>
<text text-anchor="middle" x="346" y="-114" font-family="Helvetica,sans-Serif" font-size="10.00">tabPage1D</text>
<text text-anchor="middle" x="346" y="-103" font-family="Helvetica,sans-Serif" font-size="10.00">tabPage2D</text>
<text text-anchor="middle" x="346" y="-92" font-family="Helvetica,sans-Serif" font-size="10.00">tabControl1</text>
<text text-anchor="middle" x="346" y="-81" font-family="Helvetica,sans-Serif" font-size="10.00">components</text>
</g>
<!-- Node6&#45;&gt;Node4 -->
<g id="edge5" class="edge"><title>Node6&#45;&gt;Node4</title>
<path fill="none" stroke="#9a32cd" stroke-dasharray="5,2" d="M234.421,-294.323C220.646,-290.607 206.101,-283.943 197.5,-272 164.064,-225.571 178.985,-151.319 187.287,-120.555"/>
<polygon fill="#9a32cd" stroke="#9a32cd" points="233.693,-297.747 244.219,-296.542 235.239,-290.92 233.693,-297.747"/>
<text text-anchor="middle" x="241.5" y="-264" font-family="Helvetica,sans-Serif" font-size="10.00"> lblHelpBrowse</text>
<text text-anchor="middle" x="241.5" y="-253" font-family="Helvetica,sans-Serif" font-size="10.00">lblAboutAuthorGui</text>
<text text-anchor="middle" x="241.5" y="-242" font-family="Helvetica,sans-Serif" font-size="10.00">lblPoweredIGLib</text>
<text text-anchor="middle" x="241.5" y="-231" font-family="Helvetica,sans-Serif" font-size="10.00">lblAbourContactIntro</text>
<text text-anchor="middle" x="241.5" y="-220" font-family="Helvetica,sans-Serif" font-size="10.00">lblAboutAuthors</text>
<text text-anchor="middle" x="241.5" y="-209" font-family="Helvetica,sans-Serif" font-size="10.00">lblTitle</text>
<text text-anchor="middle" x="241.5" y="-198" font-family="Helvetica,sans-Serif" font-size="10.00">pnlIGLib</text>
<text text-anchor="middle" x="241.5" y="-187" font-family="Helvetica,sans-Serif" font-size="10.00">btnHelpPdf</text>
<text text-anchor="middle" x="241.5" y="-176" font-family="Helvetica,sans-Serif" font-size="10.00">lblAboutAuthorsIntro</text>
<text text-anchor="middle" x="241.5" y="-165" font-family="Helvetica,sans-Serif" font-size="10.00">lblAboutTitle</text>
<text text-anchor="middle" x="241.5" y="-154" font-family="Helvetica,sans-Serif" font-size="10.00">...</text>
</g>
</g>
</svg>
