<?xml version="1.0" encoding="UTF-8" standalone="no"?>
<!DOCTYPE svg PUBLIC "-//W3C//DTD SVG 1.1//EN"
 "http://www.w3.org/Graphics/SVG/1.1/DTD/svg11.dtd">
<!-- Generated by graphviz version 2.38.0 (20140413.2041)
 -->
<!-- Title: Mono.Options.OptionSet Pages: 1 -->
<svg width="242pt" height="106pt"
 viewBox="0.00 0.00 242.00 106.00" xmlns="http://www.w3.org/2000/svg" xmlns:xlink="http://www.w3.org/1999/xlink">
<g id="graph0" class="graph" transform="scale(1 1) rotate(0) translate(4 102)">
<title>Mono.Options.OptionSet</title>
<polygon fill="white" stroke="none" points="-4,4 -4,-102 238,-102 238,4 -4,4"/>
<!-- Node1 -->
<g id="node1" class="node"><title>Node1</title>
<g id="a_node1"><a xlink:title=" ">
<polygon fill="#bfbfbf" stroke="black" points="62.5,-0.5 62.5,-19.5 186.5,-19.5 186.5,-0.5 62.5,-0.5"/>
<text text-anchor="middle" x="124.5" y="-7.5" font-family="Helvetica,sans-Serif" font-size="10.00">Mono.Options.OptionSet</text>
</a>
</g>
</g>
<!-- Node2 -->
<g id="node2" class="node"><title>Node2</title>
<g id="a_node2"><a xlink:title=" ">
<polygon fill="white" stroke="#bfbfbf" points="0,-67.5 0,-97.5 123,-97.5 123,-67.5 0,-67.5"/>
<text text-anchor="start" x="8" y="-85.5" font-family="Helvetica,sans-Serif" font-size="10.00">KeyedCollection&lt; string,</text>
<text text-anchor="middle" x="61.5" y="-74.5" font-family="Helvetica,sans-Serif" font-size="10.00"> Option &gt;</text>
</a>
</g>
</g>
<!-- Node2&#45;&gt;Node1 -->
<g id="edge1" class="edge"><title>Node2&#45;&gt;Node1</title>
<path fill="none" stroke="midnightblue" d="M80.9259,-59.7615C92.9161,-46.3439 107.656,-29.8487 116.553,-19.8932"/>
<polygon fill="midnightblue" stroke="midnightblue" points="78.3025,-57.4445 74.249,-67.2333 83.5221,-62.1089 78.3025,-57.4445"/>
</g>
<!-- Node3 -->
<g id="node3" class="node"><title>Node3</title>
<g id="a_node3"><a xlink:title=" ">
<polygon fill="white" stroke="#bfbfbf" points="141,-67.5 141,-97.5 234,-97.5 234,-67.5 141,-67.5"/>
<text text-anchor="start" x="149" y="-85.5" font-family="Helvetica,sans-Serif" font-size="10.00">Converter&lt; string,</text>
<text text-anchor="middle" x="187.5" y="-74.5" font-family="Helvetica,sans-Serif" font-size="10.00"> string &gt;</text>
</a>
</g>
</g>
<!-- Node3&#45;&gt;Node1 -->
<g id="edge2" class="edge"><title>Node3&#45;&gt;Node1</title>
<path fill="none" stroke="#9a32cd" stroke-dasharray="5,2" d="M168.074,-59.7615C156.084,-46.3439 141.344,-29.8487 132.447,-19.8932"/>
<polygon fill="#9a32cd" stroke="#9a32cd" points="165.478,-62.1089 174.751,-67.2333 170.697,-57.4445 165.478,-62.1089"/>
<text text-anchor="middle" x="177.5" y="-41" font-family="Helvetica,sans-Serif" font-size="10.00"> localizer</text>
</g>
</g>
</svg>
