<?xml version="1.0" encoding="UTF-8" standalone="no"?>
<!DOCTYPE svg PUBLIC "-//W3C//DTD SVG 1.1//EN"
 "http://www.w3.org/Graphics/SVG/1.1/DTD/svg11.dtd">
<!-- Generated by graphviz version 2.38.0 (20140413.2041)
 -->
<!-- Title: NUnit.Engine.ISettings Pages: 1 -->
<svg width="677pt" height="88pt"
 viewBox="0.00 0.00 677.00 88.00" xmlns="http://www.w3.org/2000/svg" xmlns:xlink="http://www.w3.org/1999/xlink">
<g id="graph0" class="graph" transform="scale(1 1) rotate(0) translate(4 84)">
<title>NUnit.Engine.ISettings</title>
<polygon fill="white" stroke="none" points="-4,4 -4,-84 673,-84 673,4 -4,4"/>
<!-- Node1 -->
<g id="node1" class="node"><title>Node1</title>
<g id="a_node1"><a xlink:title="The ISettings interface is used to access all user settings and options.">
<polygon fill="#bfbfbf" stroke="black" points="0,-30 0,-49 115,-49 115,-30 0,-30"/>
<text text-anchor="middle" x="57.5" y="-37" font-family="Helvetica,sans-Serif" font-size="10.00">NUnit.Engine.ISettings</text>
</a>
</g>
</g>
<!-- Node2 -->
<g id="node2" class="node"><title>Node2</title>
<g id="a_node2"><a xlink:href="../../db/d74/classNUnit_1_1Engine_1_1Internal_1_1SettingsGroup.html" target="_top" xlink:title="SettingsGroup is the base class representing a group of user or system settings.">
<polygon fill="white" stroke="black" points="151,-24.5 151,-54.5 298,-54.5 298,-24.5 151,-24.5"/>
<text text-anchor="start" x="159" y="-42.5" font-family="Helvetica,sans-Serif" font-size="10.00">NUnit.Engine.Internal.Settings</text>
<text text-anchor="middle" x="224.5" y="-31.5" font-family="Helvetica,sans-Serif" font-size="10.00">Group</text>
</a>
</g>
</g>
<!-- Node1&#45;&gt;Node2 -->
<g id="edge1" class="edge"><title>Node1&#45;&gt;Node2</title>
<path fill="none" stroke="midnightblue" d="M125.387,-39.5C133.781,-39.5 142.399,-39.5 150.875,-39.5"/>
<polygon fill="midnightblue" stroke="midnightblue" points="125.284,-36.0001 115.284,-39.5 125.284,-43.0001 125.284,-36.0001"/>
</g>
<!-- Node3 -->
<g id="node3" class="node"><title>Node3</title>
<g id="a_node3"><a xlink:href="../../d3/d9c/classNUnit_1_1Engine_1_1Internal_1_1SettingsStore.html" target="_top" xlink:title="SettingsStore extends SettingsGroup to provide for loading and saving the settings from an XML file.">
<polygon fill="white" stroke="black" points="334,-24.5 334,-54.5 481,-54.5 481,-24.5 334,-24.5"/>
<text text-anchor="start" x="342" y="-42.5" font-family="Helvetica,sans-Serif" font-size="10.00">NUnit.Engine.Internal.Settings</text>
<text text-anchor="middle" x="407.5" y="-31.5" font-family="Helvetica,sans-Serif" font-size="10.00">Store</text>
</a>
</g>
</g>
<!-- Node2&#45;&gt;Node3 -->
<g id="edge2" class="edge"><title>Node2&#45;&gt;Node3</title>
<path fill="none" stroke="midnightblue" d="M308.116,-39.5C316.722,-39.5 325.424,-39.5 333.907,-39.5"/>
<polygon fill="midnightblue" stroke="midnightblue" points="308.077,-36.0001 298.077,-39.5 308.077,-43.0001 308.077,-36.0001"/>
</g>
<!-- Node4 -->
<g id="node4" class="node"><title>Node4</title>
<g id="a_node4"><a xlink:href="../../dc/d00/classNUnit_1_1Engine_1_1Services_1_1SettingsService.html" target="_top" xlink:title="Summary description for UserSettingsService.">
<polygon fill="white" stroke="black" points="517,-49.5 517,-79.5 669,-79.5 669,-49.5 517,-49.5"/>
<text text-anchor="start" x="525" y="-67.5" font-family="Helvetica,sans-Serif" font-size="10.00">NUnit.Engine.Services.Settings</text>
<text text-anchor="middle" x="593" y="-56.5" font-family="Helvetica,sans-Serif" font-size="10.00">Service</text>
</a>
</g>
</g>
<!-- Node3&#45;&gt;Node4 -->
<g id="edge3" class="edge"><title>Node3&#45;&gt;Node4</title>
<path fill="none" stroke="midnightblue" d="M491.085,-50.7514C499.715,-51.9271 508.453,-53.1176 516.991,-54.2808"/>
<polygon fill="midnightblue" stroke="midnightblue" points="491.405,-47.2627 481.024,-49.3807 490.46,-54.1986 491.405,-47.2627"/>
</g>
<!-- Node5 -->
<g id="node5" class="node"><title>Node5</title>
<g id="a_node5"><a xlink:href="../../df/deb/classNUnit_1_1Engine_1_1Services_1_1Tests_1_1Fakes_1_1FakeSettingsService.html" target="_top" xlink:title=" ">
<polygon fill="white" stroke="black" points="521.5,-0.5 521.5,-30.5 664.5,-30.5 664.5,-0.5 521.5,-0.5"/>
<text text-anchor="start" x="529.5" y="-18.5" font-family="Helvetica,sans-Serif" font-size="10.00">NUnit.Engine.Services.Tests.</text>
<text text-anchor="middle" x="593" y="-7.5" font-family="Helvetica,sans-Serif" font-size="10.00">Fakes.FakeSettingsService</text>
</a>
</g>
</g>
<!-- Node3&#45;&gt;Node5 -->
<g id="edge4" class="edge"><title>Node3&#45;&gt;Node5</title>
<path fill="none" stroke="midnightblue" d="M491.028,-28.7061C501.1,-27.3888 511.322,-26.0519 521.202,-24.7597"/>
<polygon fill="midnightblue" stroke="midnightblue" points="490.486,-25.2472 481.024,-30.0146 491.394,-32.1881 490.486,-25.2472"/>
</g>
</g>
</svg>
