<?xml version="1.0" encoding="UTF-8" standalone="no"?>
<!DOCTYPE svg PUBLIC "-//W3C//DTD SVG 1.1//EN"
 "http://www.w3.org/Graphics/SVG/1.1/DTD/svg11.dtd">
<!-- Generated by graphviz version 2.38.0 (20140413.2041)
 -->
<!-- Title: IG.Forms.TimerControlWorking Pages: 1 -->
<svg width="433pt" height="296pt"
 viewBox="0.00 0.00 433.00 296.00" xmlns="http://www.w3.org/2000/svg" xmlns:xlink="http://www.w3.org/1999/xlink">
<g id="graph0" class="graph" transform="scale(1 1) rotate(0) translate(4 292)">
<title>IG.Forms.TimerControlWorking</title>
<polygon fill="white" stroke="none" points="-4,4 -4,-292 429,-292 429,4 -4,4"/>
<!-- Node1 -->
<g id="node1" class="node"><title>Node1</title>
<g id="a_node1"><a xlink:title=" ">
<polygon fill="#bfbfbf" stroke="black" points="99.5,-0.5 99.5,-19.5 250.5,-19.5 250.5,-0.5 99.5,-0.5"/>
<text text-anchor="middle" x="175" y="-7.5" font-family="Helvetica,sans-Serif" font-size="10.00">IG.Forms.TimerControlWorking</text>
</a>
</g>
</g>
<!-- Node2 -->
<g id="node2" class="node"><title>Node2</title>
<g id="a_node2"><a xlink:title=" ">
<polygon fill="white" stroke="#bfbfbf" points="0,-268.5 0,-287.5 68,-287.5 68,-268.5 0,-268.5"/>
<text text-anchor="middle" x="34" y="-275.5" font-family="Helvetica,sans-Serif" font-size="10.00">UserControl</text>
</a>
</g>
</g>
<!-- Node2&#45;&gt;Node1 -->
<g id="edge1" class="edge"><title>Node2&#45;&gt;Node1</title>
<path fill="none" stroke="midnightblue" d="M26.7574,-258.526C13.359,-221.045 -10.7457,-134.813 26,-78 47.334,-45.0153 89.1959,-28.1103 123.13,-19.5408"/>
<polygon fill="midnightblue" stroke="midnightblue" points="23.5652,-259.982 30.3434,-268.125 30.1225,-257.533 23.5652,-259.982"/>
</g>
<!-- Node3 -->
<g id="node3" class="node"><title>Node3</title>
<g id="a_node3"><a xlink:href="../../d1/d43/classIG_1_1Forms_1_1FontSelectorSimple.html" target="_top" xlink:title="Simple control that allows font selection.">
<polygon fill="white" stroke="black" points="35,-129 35,-148 181,-148 181,-129 35,-129"/>
<text text-anchor="middle" x="108" y="-136" font-family="Helvetica,sans-Serif" font-size="10.00">IG.Forms.FontSelectorSimple</text>
</a>
</g>
</g>
<!-- Node2&#45;&gt;Node3 -->
<g id="edge3" class="edge"><title>Node2&#45;&gt;Node3</title>
<path fill="none" stroke="midnightblue" d="M43.3959,-259.541C59.4145,-229.777 91.435,-170.28 103.373,-148.098"/>
<polygon fill="midnightblue" stroke="midnightblue" points="40.2862,-257.934 38.629,-268.399 46.4502,-261.252 40.2862,-257.934"/>
</g>
<!-- Node3&#45;&gt;Node1 -->
<g id="edge2" class="edge"><title>Node3&#45;&gt;Node1</title>
<path fill="none" stroke="#9a32cd" stroke-dasharray="5,2" d="M109.451,-118.948C111.915,-97.6541 118.505,-62.5167 136,-38 141.453,-30.3581 149.783,-24.1681 157.347,-19.6523"/>
<polygon fill="#9a32cd" stroke="#9a32cd" points="105.963,-118.655 108.482,-128.946 112.93,-119.33 105.963,-118.655"/>
<text text-anchor="middle" x="169.5" y="-52" font-family="Helvetica,sans-Serif" font-size="10.00"> fontSelectorCd</text>
<text text-anchor="middle" x="169.5" y="-41" font-family="Helvetica,sans-Serif" font-size="10.00">fontSelectorSw</text>
</g>
<!-- Node4 -->
<g id="node4" class="node"><title>Node4</title>
<g id="a_node4"><a xlink:title=" ">
<polygon fill="white" stroke="#bfbfbf" points="112,-268.5 112,-287.5 162,-287.5 162,-268.5 112,-268.5"/>
<text text-anchor="middle" x="137" y="-275.5" font-family="Helvetica,sans-Serif" font-size="10.00">System</text>
</a>
</g>
</g>
<!-- Node4&#45;&gt;Node1 -->
<g id="edge5" class="edge"><title>Node4&#45;&gt;Node1</title>
<path fill="none" stroke="#9a32cd" stroke-dasharray="5,2" d="M171.885,-270.954C183.791,-267.041 195.884,-260.6 203,-250 229.259,-210.886 221.424,-81.3593 203,-38 199.884,-30.666 193.691,-24.3566 187.921,-19.6853"/>
<polygon fill="#9a32cd" stroke="#9a32cd" points="170.744,-267.638 162.042,-273.682 172.614,-274.384 170.744,-267.638"/>
<text text-anchor="middle" x="259.5" y="-191" font-family="Helvetica,sans-Serif" font-size="10.00"> flowLayoutPanel4</text>
<text text-anchor="middle" x="259.5" y="-180" font-family="Helvetica,sans-Serif" font-size="10.00">flowOuter</text>
<text text-anchor="middle" x="259.5" y="-169" font-family="Helvetica,sans-Serif" font-size="10.00">numCdFontSize</text>
<text text-anchor="middle" x="259.5" y="-158" font-family="Helvetica,sans-Serif" font-size="10.00">btnCdReset</text>
<text text-anchor="middle" x="259.5" y="-147" font-family="Helvetica,sans-Serif" font-size="10.00">flowLayoutPanel5</text>
<text text-anchor="middle" x="259.5" y="-136" font-family="Helvetica,sans-Serif" font-size="10.00">timer1</text>
<text text-anchor="middle" x="259.5" y="-125" font-family="Helvetica,sans-Serif" font-size="10.00">flowSwDisplay</text>
<text text-anchor="middle" x="259.5" y="-114" font-family="Helvetica,sans-Serif" font-size="10.00">btnCdControls</text>
<text text-anchor="middle" x="259.5" y="-103" font-family="Helvetica,sans-Serif" font-size="10.00">lblCdTitle</text>
<text text-anchor="middle" x="259.5" y="-92" font-family="Helvetica,sans-Serif" font-size="10.00">dispSwMilliSec</text>
<text text-anchor="middle" x="259.5" y="-81" font-family="Helvetica,sans-Serif" font-size="10.00">...</text>
</g>
<!-- Node4&#45;&gt;Node3 -->
<g id="edge4" class="edge"><title>Node4&#45;&gt;Node3</title>
<path fill="none" stroke="#9a32cd" stroke-dasharray="5,2" d="M127.541,-259.299C126.19,-256.259 124.942,-253.085 124,-250 112.738,-213.106 109.317,-166.8 108.352,-148.008"/>
<polygon fill="#9a32cd" stroke="#9a32cd" points="124.403,-260.849 131.958,-268.277 130.684,-257.759 124.403,-260.849"/>
<text text-anchor="middle" x="163.5" y="-242" font-family="Helvetica,sans-Serif" font-size="10.00"> btnOpenDialog</text>
<text text-anchor="middle" x="163.5" y="-231" font-family="Helvetica,sans-Serif" font-size="10.00">fontDialog1</text>
<text text-anchor="middle" x="163.5" y="-220" font-family="Helvetica,sans-Serif" font-size="10.00">lblFontDescription</text>
</g>
<!-- Node5 -->
<g id="node5" class="node"><title>Node5</title>
<g id="a_node5"><a xlink:title=" ">
<polygon fill="white" stroke="#bfbfbf" points="314.5,-129 314.5,-148 355.5,-148 355.5,-129 314.5,-129"/>
<text text-anchor="middle" x="335" y="-136" font-family="Helvetica,sans-Serif" font-size="10.00">static</text>
</a>
</g>
</g>
<!-- Node5&#45;&gt;Node1 -->
<g id="edge6" class="edge"><title>Node5&#45;&gt;Node1</title>
<path fill="none" stroke="#9a32cd" stroke-dasharray="5,2" d="M327.545,-119.756C321.524,-106.998 312.074,-89.9979 300,-78 271.181,-49.3641 227.584,-29.8085 200.231,-19.524"/>
<polygon fill="#9a32cd" stroke="#9a32cd" points="324.354,-121.194 331.623,-128.902 330.747,-118.343 324.354,-121.194"/>
<text text-anchor="middle" x="351" y="-52" font-family="Helvetica,sans-Serif" font-size="10.00"> _defaultOutputLevel</text>
<text text-anchor="middle" x="351" y="-41" font-family="Helvetica,sans-Serif" font-size="10.00">DefaultMaxNumTimerErrorReports</text>
</g>
</g>
</svg>
