<?xml version="1.0" encoding="UTF-8" standalone="no"?>
<!DOCTYPE svg PUBLIC "-//W3C//DTD SVG 1.1//EN"
 "http://www.w3.org/Graphics/SVG/1.1/DTD/svg11.dtd">
<!-- Generated by graphviz version 2.38.0 (20140413.2041)
 -->
<!-- Title: NUnit.Framework.Constraints.ThrowsExceptionConstraint.ThrowsExceptionConstraintResult Pages: 1 -->
<svg width="177pt" height="106pt"
 viewBox="0.00 0.00 177.00 106.00" xmlns="http://www.w3.org/2000/svg" xmlns:xlink="http://www.w3.org/1999/xlink">
<g id="graph0" class="graph" transform="scale(1 1) rotate(0) translate(4 102)">
<title>NUnit.Framework.Constraints.ThrowsExceptionConstraint.ThrowsExceptionConstraintResult</title>
<polygon fill="white" stroke="none" points="-4,4 -4,-102 173,-102 173,4 -4,4"/>
<!-- Node1 -->
<g id="node1" class="node"><title>Node1</title>
<g id="a_node1"><a xlink:title=" ">
<polygon fill="#bfbfbf" stroke="black" points="0,-0.5 0,-41.5 169,-41.5 169,-0.5 0,-0.5"/>
<text text-anchor="start" x="8" y="-29.5" font-family="Helvetica,sans-Serif" font-size="10.00">NUnit.Framework.Constraints.</text>
<text text-anchor="start" x="8" y="-18.5" font-family="Helvetica,sans-Serif" font-size="10.00">ThrowsExceptionConstraint.Throws</text>
<text text-anchor="middle" x="84.5" y="-7.5" font-family="Helvetica,sans-Serif" font-size="10.00">ExceptionConstraintResult</text>
</a>
</g>
</g>
<!-- Node2 -->
<g id="node2" class="node"><title>Node2</title>
<g id="a_node2"><a xlink:href="../../d7/d91/classNUnit_1_1Framework_1_1Constraints_1_1ConstraintResult.html" target="_top" xlink:title="Contain the result of matching a Constraint against an actual value.">
<polygon fill="white" stroke="black" points="40,-78.5 40,-97.5 129,-97.5 129,-78.5 40,-78.5"/>
<text text-anchor="middle" x="84.5" y="-85.5" font-family="Helvetica,sans-Serif" font-size="10.00">ConstraintResult</text>
</a>
</g>
</g>
<!-- Node2&#45;&gt;Node1 -->
<g id="edge1" class="edge"><title>Node2&#45;&gt;Node1</title>
<path fill="none" stroke="midnightblue" d="M84.5,-68.037C84.5,-59.7084 84.5,-49.9358 84.5,-41.5421"/>
<polygon fill="midnightblue" stroke="midnightblue" points="81.0001,-68.2338 84.5,-78.2338 88.0001,-68.2338 81.0001,-68.2338"/>
</g>
</g>
</svg>
