<?xml version="1.0" encoding="UTF-8" standalone="no"?>
<!DOCTYPE svg PUBLIC "-//W3C//DTD SVG 1.1//EN"
 "http://www.w3.org/Graphics/SVG/1.1/DTD/svg11.dtd">
<!-- Generated by graphviz version 2.38.0 (20140413.2041)
 -->
<!-- Title: Meta.Numerics.Statistics.Distributions.DiscreteDistribution Pages: 1 -->
<svg width="537pt" height="493pt"
 viewBox="0.00 0.00 537.00 492.50" xmlns="http://www.w3.org/2000/svg" xmlns:xlink="http://www.w3.org/1999/xlink">
<g id="graph0" class="graph" transform="scale(1 1) rotate(0) translate(4 488.5)">
<title>Meta.Numerics.Statistics.Distributions.DiscreteDistribution</title>
<polygon fill="white" stroke="none" points="-4,4 -4,-488.5 533,-488.5 533,4 -4,4"/>
<!-- Node1 -->
<g id="node1" class="node"><title>Node1</title>
<g id="a_node1"><a xlink:title="Represents all discrete, univariate probability distrubtions.">
<polygon fill="#bfbfbf" stroke="black" points="143,-230 143,-260 301,-260 301,-230 143,-230"/>
<text text-anchor="start" x="151" y="-248" font-family="Helvetica,sans-Serif" font-size="10.00">Meta.Numerics.Statistics.</text>
<text text-anchor="middle" x="222" y="-237" font-family="Helvetica,sans-Serif" font-size="10.00">Distributions.DiscreteDistribution</text>
</a>
</g>
</g>
<!-- Node3 -->
<g id="node3" class="node"><title>Node3</title>
<g id="a_node3"><a xlink:href="../../de/d24/classMeta_1_1Numerics_1_1Statistics_1_1Distributions_1_1BernoulliDistribution.html" target="_top" xlink:title="Represents a Bernoulli distribution.">
<polygon fill="white" stroke="black" points="353,-454 353,-484 513,-484 513,-454 353,-454"/>
<text text-anchor="start" x="361" y="-472" font-family="Helvetica,sans-Serif" font-size="10.00">Meta.Numerics.Statistics.</text>
<text text-anchor="middle" x="433" y="-461" font-family="Helvetica,sans-Serif" font-size="10.00">Distributions.BernoulliDistribution</text>
</a>
</g>
</g>
<!-- Node1&#45;&gt;Node3 -->
<g id="edge2" class="edge"><title>Node1&#45;&gt;Node3</title>
<path fill="none" stroke="midnightblue" d="M230.084,-269.855C243.558,-312.496 277.022,-399.396 337,-445 341.875,-448.707 347.257,-451.845 352.908,-454.503"/>
<polygon fill="midnightblue" stroke="midnightblue" points="233.35,-268.564 227.085,-260.019 226.654,-270.605 233.35,-268.564"/>
</g>
<!-- Node4 -->
<g id="node4" class="node"><title>Node4</title>
<g id="a_node4"><a xlink:href="../../d5/dd8/classMeta_1_1Numerics_1_1Statistics_1_1Distributions_1_1BinomialDistribution.html" target="_top" xlink:title="Represents a discrete binomial distribution.">
<polygon fill="white" stroke="black" points="353,-405 353,-435 513,-435 513,-405 353,-405"/>
<text text-anchor="start" x="361" y="-423" font-family="Helvetica,sans-Serif" font-size="10.00">Meta.Numerics.Statistics.</text>
<text text-anchor="middle" x="433" y="-412" font-family="Helvetica,sans-Serif" font-size="10.00">Distributions.BinomialDistribution</text>
</a>
</g>
</g>
<!-- Node1&#45;&gt;Node4 -->
<g id="edge3" class="edge"><title>Node1&#45;&gt;Node4</title>
<path fill="none" stroke="midnightblue" d="M234.617,-269.287C252.038,-303.035 288.173,-363.604 337,-396 342.245,-399.48 347.958,-402.455 353.895,-404.999"/>
<polygon fill="midnightblue" stroke="midnightblue" points="237.631,-267.491 230.01,-260.13 231.378,-270.637 237.631,-267.491"/>
</g>
<!-- Node5 -->
<g id="node5" class="node"><title>Node5</title>
<g id="a_node5"><a xlink:href="../../dd/dd6/classMeta_1_1Numerics_1_1Statistics_1_1Distributions_1_1DiscreteUniformDistribution.html" target="_top" xlink:title="Describes a discrete uniform distribution.">
<polygon fill="white" stroke="black" points="337.5,-356 337.5,-386 528.5,-386 528.5,-356 337.5,-356"/>
<text text-anchor="start" x="345.5" y="-374" font-family="Helvetica,sans-Serif" font-size="10.00">Meta.Numerics.Statistics.</text>
<text text-anchor="middle" x="433" y="-363" font-family="Helvetica,sans-Serif" font-size="10.00">Distributions.DiscreteUniformDistribution</text>
</a>
</g>
</g>
<!-- Node1&#45;&gt;Node5 -->
<g id="edge4" class="edge"><title>Node1&#45;&gt;Node5</title>
<path fill="none" stroke="midnightblue" d="M242.493,-268.027C263.491,-291.361 299.034,-326.814 337,-347 343.459,-350.434 350.428,-353.392 357.554,-355.936"/>
<polygon fill="midnightblue" stroke="midnightblue" points="244.934,-265.504 235.692,-260.324 239.687,-270.137 244.934,-265.504"/>
</g>
<!-- Node6 -->
<g id="node6" class="node"><title>Node6</title>
<g id="a_node6"><a xlink:href="../../d1/dde/classMeta_1_1Numerics_1_1Statistics_1_1Distributions_1_1GeometricDistribution.html" target="_top" xlink:title="Represents a geometric distribution.">
<polygon fill="white" stroke="black" points="349.5,-307 349.5,-337 516.5,-337 516.5,-307 349.5,-307"/>
<text text-anchor="start" x="357.5" y="-325" font-family="Helvetica,sans-Serif" font-size="10.00">Meta.Numerics.Statistics.</text>
<text text-anchor="middle" x="433" y="-314" font-family="Helvetica,sans-Serif" font-size="10.00">Distributions.GeometricDistribution</text>
</a>
</g>
</g>
<!-- Node1&#45;&gt;Node6 -->
<g id="edge5" class="edge"><title>Node1&#45;&gt;Node6</title>
<path fill="none" stroke="midnightblue" d="M260.384,-264.55C282.286,-275.45 310.726,-288.667 337,-298 346.217,-301.274 356.087,-304.288 365.85,-306.994"/>
<polygon fill="midnightblue" stroke="midnightblue" points="261.929,-261.41 251.424,-260.039 258.781,-267.662 261.929,-261.41"/>
</g>
<!-- Node7 -->
<g id="node7" class="node"><title>Node7</title>
<g id="a_node7"><a xlink:title=" ">
<polygon fill="white" stroke="#bfbfbf" points="343,-258 343,-288 523,-288 523,-258 343,-258"/>
<text text-anchor="start" x="351" y="-276" font-family="Helvetica,sans-Serif" font-size="10.00">Meta.Numerics.Statistics.</text>
<text text-anchor="middle" x="433" y="-265" font-family="Helvetica,sans-Serif" font-size="10.00">Distributions.KendallExactDistribution</text>
</a>
</g>
</g>
<!-- Node1&#45;&gt;Node7 -->
<g id="edge6" class="edge"><title>Node1&#45;&gt;Node7</title>
<path fill="none" stroke="midnightblue" d="M311.075,-256.799C321.543,-258.202 332.238,-259.635 342.723,-261.039"/>
<polygon fill="midnightblue" stroke="midnightblue" points="311.497,-253.325 301.121,-255.466 310.568,-260.263 311.497,-253.325"/>
</g>
<!-- Node8 -->
<g id="node8" class="node"><title>Node8</title>
<g id="a_node8"><a xlink:href="../../d3/d20/classMeta_1_1Numerics_1_1Statistics_1_1Distributions_1_1KolmogorovTwoSampleExactDistribution.html" target="_top" xlink:title=" ">
<polygon fill="white" stroke="black" points="346,-197.5 346,-238.5 520,-238.5 520,-197.5 346,-197.5"/>
<text text-anchor="start" x="354" y="-226.5" font-family="Helvetica,sans-Serif" font-size="10.00">Meta.Numerics.Statistics.</text>
<text text-anchor="start" x="354" y="-215.5" font-family="Helvetica,sans-Serif" font-size="10.00">Distributions.KolmogorovTwoSample</text>
<text text-anchor="middle" x="433" y="-204.5" font-family="Helvetica,sans-Serif" font-size="10.00">ExactDistribution</text>
</a>
</g>
</g>
<!-- Node1&#45;&gt;Node8 -->
<g id="edge7" class="edge"><title>Node1&#45;&gt;Node8</title>
<path fill="none" stroke="midnightblue" d="M311.149,-233.612C322.657,-232.126 334.436,-230.604 345.909,-229.122"/>
<polygon fill="midnightblue" stroke="midnightblue" points="310.59,-230.155 301.121,-234.908 311.487,-237.098 310.59,-230.155"/>
</g>
<!-- Node9 -->
<g id="node9" class="node"><title>Node9</title>
<g id="a_node9"><a xlink:title="Represents the distribution of the Mann&#45;Whitney test statistic.">
<polygon fill="white" stroke="#bfbfbf" points="353.5,-137.5 353.5,-178.5 512.5,-178.5 512.5,-137.5 353.5,-137.5"/>
<text text-anchor="start" x="361.5" y="-166.5" font-family="Helvetica,sans-Serif" font-size="10.00">Meta.Numerics.Statistics.</text>
<text text-anchor="start" x="361.5" y="-155.5" font-family="Helvetica,sans-Serif" font-size="10.00">Distributions.MannWhitneyExact</text>
<text text-anchor="middle" x="433" y="-144.5" font-family="Helvetica,sans-Serif" font-size="10.00">Distribution</text>
</a>
</g>
</g>
<!-- Node1&#45;&gt;Node9 -->
<g id="edge8" class="edge"><title>Node1&#45;&gt;Node9</title>
<path fill="none" stroke="midnightblue" d="M259.096,-225.116C281.189,-213.411 310.26,-198.828 337,-188 345.176,-184.689 353.865,-181.507 362.537,-178.533"/>
<polygon fill="midnightblue" stroke="midnightblue" points="257.25,-222.134 250.082,-229.936 260.551,-228.307 257.25,-222.134"/>
</g>
<!-- Node10 -->
<g id="node10" class="node"><title>Node10</title>
<g id="a_node10"><a xlink:href="../../d4/d92/classMeta_1_1Numerics_1_1Statistics_1_1Distributions_1_1PoissonDistribution.html" target="_top" xlink:title="Represented a Poisson distribution.">
<polygon fill="white" stroke="black" points="354,-88 354,-118 512,-118 512,-88 354,-88"/>
<text text-anchor="start" x="362" y="-106" font-family="Helvetica,sans-Serif" font-size="10.00">Meta.Numerics.Statistics.</text>
<text text-anchor="middle" x="433" y="-95" font-family="Helvetica,sans-Serif" font-size="10.00">Distributions.PoissonDistribution</text>
</a>
</g>
</g>
<!-- Node1&#45;&gt;Node10 -->
<g id="edge9" class="edge"><title>Node1&#45;&gt;Node10</title>
<path fill="none" stroke="midnightblue" d="M239.557,-221.54C259.603,-194.89 295.838,-151.999 337,-128 343.63,-124.134 350.865,-120.855 358.286,-118.076"/>
<polygon fill="midnightblue" stroke="midnightblue" points="236.509,-219.777 233.396,-229.904 242.145,-223.929 236.509,-219.777"/>
</g>
<!-- Node11 -->
<g id="node11" class="node"><title>Node11</title>
<g id="a_node11"><a xlink:title=" ">
<polygon fill="white" stroke="#bfbfbf" points="337,-39 337,-69 529,-69 529,-39 337,-39"/>
<text text-anchor="start" x="345" y="-57" font-family="Helvetica,sans-Serif" font-size="10.00">Meta.Numerics.Statistics.</text>
<text text-anchor="middle" x="433" y="-46" font-family="Helvetica,sans-Serif" font-size="10.00">Distributions.SpearmanExactDistribution</text>
</a>
</g>
</g>
<!-- Node1&#45;&gt;Node11 -->
<g id="edge10" class="edge"><title>Node1&#45;&gt;Node11</title>
<path fill="none" stroke="midnightblue" d="M232.966,-220.313C249.138,-183.479 284.649,-114.561 337,-78 341.881,-74.591 347.204,-71.6655 352.755,-69.155"/>
<polygon fill="midnightblue" stroke="midnightblue" points="229.625,-219.227 228.92,-229.798 236.063,-221.974 229.625,-219.227"/>
</g>
<!-- Node12 -->
<g id="node12" class="node"><title>Node12</title>
<g id="a_node12"><a xlink:href="../../d3/dd6/classTest_1_1DiscreteTestDistribution.html" target="_top" xlink:title=" ">
<polygon fill="white" stroke="black" points="362,-0.5 362,-19.5 504,-19.5 504,-0.5 362,-0.5"/>
<text text-anchor="middle" x="433" y="-7.5" font-family="Helvetica,sans-Serif" font-size="10.00">Test.DiscreteTestDistribution</text>
</a>
</g>
</g>
<!-- Node1&#45;&gt;Node12 -->
<g id="edge11" class="edge"><title>Node1&#45;&gt;Node12</title>
<path fill="none" stroke="midnightblue" d="M228.732,-219.791C240.528,-174.016 272.043,-77.4935 337,-29 344.413,-23.4659 353.026,-19.4328 361.98,-16.511"/>
<polygon fill="midnightblue" stroke="midnightblue" points="225.267,-219.224 226.268,-229.771 232.063,-220.901 225.267,-219.224"/>
</g>
<!-- Node2 -->
<g id="node2" class="node"><title>Node2</title>
<g id="a_node2"><a xlink:href="../../da/d1a/classMeta_1_1Numerics_1_1Statistics_1_1Distributions_1_1UnivariateDistribution.html" target="_top" xlink:title="Represents a probability distribution over a single variable.">
<polygon fill="white" stroke="black" points="0,-235.5 0,-254.5 107,-254.5 107,-235.5 0,-235.5"/>
<text text-anchor="middle" x="53.5" y="-242.5" font-family="Helvetica,sans-Serif" font-size="10.00">UnivariateDistribution</text>
</a>
</g>
</g>
<!-- Node2&#45;&gt;Node1 -->
<g id="edge1" class="edge"><title>Node2&#45;&gt;Node1</title>
<path fill="none" stroke="midnightblue" d="M117.209,-245C125.569,-245 134.225,-245 142.808,-245"/>
<polygon fill="midnightblue" stroke="midnightblue" points="117.182,-241.5 107.182,-245 117.182,-248.5 117.182,-241.5"/>
</g>
</g>
</svg>
