<?xml version="1.0" encoding="UTF-8" standalone="no"?>
<!DOCTYPE svg PUBLIC "-//W3C//DTD SVG 1.1//EN"
 "http://www.w3.org/Graphics/SVG/1.1/DTD/svg11.dtd">
<!-- Generated by graphviz version 2.38.0 (20140413.2041)
 -->
<!-- Title: IG.Neural.Forms.NeuralSamplingInputControl Pages: 1 -->
<svg width="300pt" height="95pt"
 viewBox="0.00 0.00 299.50 95.00" xmlns="http://www.w3.org/2000/svg" xmlns:xlink="http://www.w3.org/1999/xlink">
<g id="graph0" class="graph" transform="scale(1 1) rotate(0) translate(4 91)">
<title>IG.Neural.Forms.NeuralSamplingInputControl</title>
<polygon fill="white" stroke="none" points="-4,4 -4,-91 295.5,-91 295.5,4 -4,4"/>
<!-- Node1 -->
<g id="node1" class="node"><title>Node1</title>
<g id="a_node1"><a xlink:title="Control for editing input parameter data necessary for sampling scalar functions.">
<polygon fill="#bfbfbf" stroke="black" points="63.5,-0.5 63.5,-30.5 222.5,-30.5 222.5,-0.5 63.5,-0.5"/>
<text text-anchor="start" x="71.5" y="-18.5" font-family="Helvetica,sans-Serif" font-size="10.00">IG.Neural.Forms.NeuralSampling</text>
<text text-anchor="middle" x="143" y="-7.5" font-family="Helvetica,sans-Serif" font-size="10.00">InputControl</text>
</a>
</g>
</g>
<!-- Node2 -->
<g id="node2" class="node"><title>Node2</title>
<g id="a_node2"><a xlink:title=" ">
<polygon fill="white" stroke="#bfbfbf" points="0,-67.5 0,-86.5 68,-86.5 68,-67.5 0,-67.5"/>
<text text-anchor="middle" x="34" y="-74.5" font-family="Helvetica,sans-Serif" font-size="10.00">UserControl</text>
</a>
</g>
</g>
<!-- Node2&#45;&gt;Node1 -->
<g id="edge1" class="edge"><title>Node2&#45;&gt;Node1</title>
<path fill="none" stroke="midnightblue" d="M58.6536,-62.5423C76.1516,-52.9907 99.5847,-40.1992 117.311,-30.523"/>
<polygon fill="midnightblue" stroke="midnightblue" points="56.7175,-59.6116 49.617,-67.4751 60.0715,-65.7558 56.7175,-59.6116"/>
</g>
<!-- Node3 -->
<g id="node3" class="node"><title>Node3</title>
<g id="a_node3"><a xlink:href="../../d1/d98/interfaceIG_1_1Neural_1_1INeuralModelContainer.html" target="_top" xlink:title="Interface for classes that contain the NeuralModel property that implements the INeuralModel interfac...">
<polygon fill="white" stroke="black" points="86,-67.5 86,-86.5 200,-86.5 200,-67.5 86,-67.5"/>
<text text-anchor="middle" x="143" y="-74.5" font-family="Helvetica,sans-Serif" font-size="10.00">INeuralModelContainer</text>
</a>
</g>
</g>
<!-- Node3&#45;&gt;Node1 -->
<g id="edge2" class="edge"><title>Node3&#45;&gt;Node1</title>
<path fill="none" stroke="midnightblue" d="M143,-57.2349C143,-48.5864 143,-38.4969 143,-30.523"/>
<polygon fill="midnightblue" stroke="midnightblue" points="139.5,-57.4751 143,-67.4751 146.5,-57.4751 139.5,-57.4751"/>
</g>
<!-- Node4 -->
<g id="node4" class="node"><title>Node4</title>
<g id="a_node4"><a xlink:title=" ">
<polygon fill="white" stroke="#bfbfbf" points="218.5,-67.5 218.5,-86.5 291.5,-86.5 291.5,-67.5 218.5,-67.5"/>
<text text-anchor="middle" x="255" y="-74.5" font-family="Helvetica,sans-Serif" font-size="10.00">INeuralModel</text>
</a>
</g>
</g>
<!-- Node4&#45;&gt;Node1 -->
<g id="edge3" class="edge"><title>Node4&#45;&gt;Node1</title>
<path fill="none" stroke="midnightblue" d="M229.668,-62.5423C211.688,-52.9907 187.61,-40.1992 169.396,-30.523"/>
<polygon fill="midnightblue" stroke="midnightblue" points="228.48,-65.8744 238.953,-67.4751 231.764,-59.6926 228.48,-65.8744"/>
</g>
</g>
</svg>
