<?xml version="1.0" encoding="UTF-8" standalone="no"?>
<!DOCTYPE svg PUBLIC "-//W3C//DTD SVG 1.1//EN"
 "http://www.w3.org/Graphics/SVG/1.1/DTD/svg11.dtd">
<!-- Generated by graphviz version 2.38.0 (20140413.2041)
 -->
<!-- Title: TestGui.localhost.Service Pages: 1 -->
<svg width="385pt" height="183pt"
 viewBox="0.00 0.00 384.50 183.00" xmlns="http://www.w3.org/2000/svg" xmlns:xlink="http://www.w3.org/1999/xlink">
<g id="graph0" class="graph" transform="scale(1 1) rotate(0) translate(4 179)">
<title>TestGui.localhost.Service</title>
<polygon fill="white" stroke="none" points="-4,4 -4,-179 380.5,-179 380.5,4 -4,4"/>
<!-- Node1 -->
<g id="node1" class="node"><title>Node1</title>
<g id="a_node1"><a xlink:title=" ">
<polygon fill="#bfbfbf" stroke="black" points="59,-0.5 59,-19.5 186,-19.5 186,-0.5 59,-0.5"/>
<text text-anchor="middle" x="122.5" y="-7.5" font-family="Helvetica,sans-Serif" font-size="10.00">TestGui.localhost.Service</text>
</a>
</g>
</g>
<!-- Node2 -->
<g id="node2" class="node"><title>Node2</title>
<g id="a_node2"><a xlink:title=" ">
<polygon fill="white" stroke="#bfbfbf" points="0,-133.5 0,-174.5 135,-174.5 135,-133.5 0,-133.5"/>
<text text-anchor="start" x="8" y="-162.5" font-family="Helvetica,sans-Serif" font-size="10.00">System::Web::Services</text>
<text text-anchor="start" x="8" y="-151.5" font-family="Helvetica,sans-Serif" font-size="10.00">::Protocols::SoapHttpClient</text>
<text text-anchor="middle" x="67.5" y="-140.5" font-family="Helvetica,sans-Serif" font-size="10.00">Protocol</text>
</a>
</g>
</g>
<!-- Node2&#45;&gt;Node1 -->
<g id="edge1" class="edge"><title>Node2&#45;&gt;Node1</title>
<path fill="none" stroke="midnightblue" d="M78.839,-123.725C91.5394,-90.9348 111.368,-39.7418 119.178,-19.5762"/>
<polygon fill="midnightblue" stroke="midnightblue" points="75.4956,-122.666 75.1475,-133.256 82.0231,-125.195 75.4956,-122.666"/>
</g>
<!-- Node3 -->
<g id="node3" class="node"><title>Node3</title>
<g id="a_node3"><a xlink:title=" ">
<polygon fill="white" stroke="#bfbfbf" points="153.5,-144.5 153.5,-163.5 203.5,-163.5 203.5,-144.5 153.5,-144.5"/>
<text text-anchor="middle" x="178.5" y="-151.5" font-family="Helvetica,sans-Serif" font-size="10.00">System</text>
</a>
</g>
</g>
<!-- Node3&#45;&gt;Node1 -->
<g id="edge2" class="edge"><title>Node3&#45;&gt;Node1</title>
<path fill="none" stroke="#9a32cd" stroke-dasharray="5,2" d="M171.21,-134.515C158.965,-103.465 134.735,-42.0243 125.859,-19.5184"/>
<polygon fill="#9a32cd" stroke="#9a32cd" points="168.072,-136.099 174.997,-144.117 174.584,-133.53 168.072,-136.099"/>
<text text-anchor="start" x="163.5" y="-107" font-family="Helvetica,sans-Serif" font-size="10.00"> PaketTipZalogaVrednostiOperation</text>
<text text-anchor="middle" x="270" y="-96" font-family="Helvetica,sans-Serif" font-size="10.00">Completed</text>
<text text-anchor="middle" x="270" y="-85" font-family="Helvetica,sans-Serif" font-size="10.00">PaketStatusShemaOperationCompleted</text>
<text text-anchor="middle" x="270" y="-74" font-family="Helvetica,sans-Serif" font-size="10.00">PaketStatusOperationCompleted</text>
<text text-anchor="middle" x="270" y="-63" font-family="Helvetica,sans-Serif" font-size="10.00">PaketShemaOperationCompleted</text>
<text text-anchor="middle" x="270" y="-52" font-family="Helvetica,sans-Serif" font-size="10.00">PaketStatusZalogaVrednostiOperationCompleted</text>
<text text-anchor="middle" x="270" y="-41" font-family="Helvetica,sans-Serif" font-size="10.00">PosljiPaketOperationCompleted</text>
</g>
</g>
</svg>
