<?xml version="1.0" encoding="UTF-8" standalone="no"?>
<!DOCTYPE svg PUBLIC "-//W3C//DTD SVG 1.1//EN"
 "http://www.w3.org/Graphics/SVG/1.1/DTD/svg11.dtd">
<!-- Generated by graphviz version 2.38.0 (20140413.2041)
 -->
<!-- Title: IG.Forms.HashControl Pages: 1 -->
<!--zoomable 373 -->
<svg id="main" version="1.1" xmlns="http://www.w3.org/2000/svg" xmlns:xlink="http://www.w3.org/1999/xlink" xml:space="preserve" onload="init(evt)">
<style type="text/css"><![CDATA[
.edge:hover path { stroke: red; }
.edge:hover polygon { stroke: red; fill: red; }
]]></style>
<script type="text/javascript"><![CDATA[
var edges = document.getElementsByTagName('g');
if (edges && edges.length) {
  for (var i=0;i<edges.length;i++) {
    if (edges[i].id.substr(0,4)=='edge') {
      edges[i].setAttribute('class','edge');
    }
  }
}
]]></script>
        <defs>
                <circle id="rim" cx="0" cy="0" r="7"/>
                <circle id="rim2" cx="0" cy="0" r="3.5"/>
                <g id="zoomPlus">
                        <use xlink:href="#rim" fill="#404040">
                                <set attributeName="fill" to="#808080" begin="zoomplus.mouseover" end="zoomplus.mouseout"/>
                        </use>
                        <path d="M-4,0h8M0,-4v8" fill="none" stroke="white" stroke-width="1.5" pointer-events="none"/>
                </g>
                <g id="zoomMin">
                        <use xlink:href="#rim" fill="#404040">
                                <set attributeName="fill" to="#808080" begin="zoomminus.mouseover" end="zoomminus.mouseout"/>
                        </use>
                        <path d="M-4,0h8" fill="none" stroke="white" stroke-width="1.5" pointer-events="none"/>
                </g>
                <g id="dirArrow">
                        <path fill="none" stroke="white" stroke-width="1.5" d="M0,-3.0v7 M-2.5,-0.5L0,-3.0L2.5,-0.5"/>
                </g>
               <g id="resetDef">
                       <use xlink:href="#rim2" fill="#404040">
                               <set attributeName="fill" to="#808080" begin="reset.mouseover" end="reset.mouseout"/>
                       </use>
               </g>
        </defs>

<script type="text/javascript">
var viewWidth = 778;
var viewHeight = 373;
var sectionId = 'dynsection-1';
</script>
<script xlink:href="../../svgpan.js"/>
<svg id="graph" class="graph">
<g id="viewport">
<title>IG.Forms.HashControl</title>
<polygon fill="white" stroke="none" points="-4,4 -4,-369 774,-369 774,4 -4,4"/>
<!-- Node1 -->
<g id="node1" class="node"><title>Node1</title>
<g id="a_node1"><a xlink:title="A control used to calculate various checksums of selected files or inserted text.">
<polygon fill="#bfbfbf" stroke="black" points="307.5,-0.5 307.5,-19.5 420.5,-19.5 420.5,-0.5 307.5,-0.5"/>
<text text-anchor="middle" x="364" y="-7.5" font-family="Helvetica,sans-Serif" font-size="10.00">IG.Forms.HashControl</text>
</a>
</g>
</g>
<!-- Node2 -->
<g id="node2" class="node"><title>Node2</title>
<g id="a_node2"><a xlink:title=" ">
<polygon fill="white" stroke="#bfbfbf" points="0,-345.5 0,-364.5 68,-364.5 68,-345.5 0,-345.5"/>
<text text-anchor="middle" x="34" y="-352.5" font-family="Helvetica,sans-Serif" font-size="10.00">UserControl</text>
</a>
</g>
</g>
<!-- Node2&#45;&gt;Node1 -->
<g id="edge1" class="edge"><title>Node2&#45;&gt;Node1</title>
<path fill="none" stroke="midnightblue" d="M33.4951,-335.2C33.2831,-306.55 35.0757,-250.588 50,-206 72.8386,-137.767 75.0795,-109.691 133,-67 183.989,-29.4179 256.883,-16.7712 307.081,-12.6689"/>
<polygon fill="midnightblue" stroke="midnightblue" points="29.9987,-335.446 33.6678,-345.385 36.9977,-335.327 29.9987,-335.446"/>
</g>
<!-- Node3 -->
<g id="node3" class="node"><title>Node3</title>
<g id="a_node3"><a xlink:href="../../de/d72/classIG_1_1Forms_1_1IndicatorLight.html" target="_top" xlink:title=" ">
<polygon fill="white" stroke="black" points="142,-118 142,-137 260,-137 260,-118 142,-118"/>
<text text-anchor="middle" x="201" y="-125" font-family="Helvetica,sans-Serif" font-size="10.00">IG.Forms.IndicatorLight</text>
</a>
</g>
</g>
<!-- Node2&#45;&gt;Node3 -->
<g id="edge3" class="edge"><title>Node2&#45;&gt;Node3</title>
<path fill="none" stroke="midnightblue" d="M45.0623,-336.575C46.8332,-333.448 48.5555,-330.174 50,-327 73.4628,-275.448 56.1623,-251.421 90,-206 114.432,-173.205 156.931,-149.187 181.65,-137.166"/>
<polygon fill="midnightblue" stroke="midnightblue" points="41.9923,-334.888 39.8332,-345.261 47.9894,-338.499 41.9923,-334.888"/>
</g>
<!-- Node3&#45;&gt;Node1 -->
<g id="edge2" class="edge"><title>Node3&#45;&gt;Node1</title>
<path fill="none" stroke="#9a32cd" stroke-dasharray="5,2" d="M212.614,-109.501C226.979,-89.6836 253.212,-57.2036 283,-38 295.832,-29.7272 311.451,-23.7407 325.537,-19.5399"/>
<polygon fill="#9a32cd" stroke="#9a32cd" points="209.621,-107.672 206.715,-117.86 215.341,-111.708 209.621,-107.672"/>
<text text-anchor="middle" x="316.5" y="-41" font-family="Helvetica,sans-Serif" font-size="10.00"> indicatorLight1</text>
</g>
<!-- Node4 -->
<g id="node4" class="node"><title>Node4</title>
<g id="a_node4"><a xlink:title=" ">
<polygon fill="white" stroke="#bfbfbf" points="339,-345.5 339,-364.5 389,-364.5 389,-345.5 339,-345.5"/>
<text text-anchor="middle" x="364" y="-352.5" font-family="Helvetica,sans-Serif" font-size="10.00">System</text>
</a>
</g>
</g>
<!-- Node4&#45;&gt;Node1 -->
<g id="edge10" class="edge"><title>Node4&#45;&gt;Node1</title>
<path fill="none" stroke="#9a32cd" stroke-dasharray="5,2" d="M364,-334.939C364,-270.88 364,-64.8375 364,-19.765"/>
<polygon fill="#9a32cd" stroke="#9a32cd" points="360.5,-335.177 364,-345.177 367.5,-335.177 360.5,-335.177"/>
<text text-anchor="middle" x="417" y="-180" font-family="Helvetica,sans-Serif" font-size="10.00"> contextMenuStrip1</text>
<text text-anchor="middle" x="417" y="-169" font-family="Helvetica,sans-Serif" font-size="10.00">aboutToolStripMenuItem</text>
<text text-anchor="middle" x="417" y="-158" font-family="Helvetica,sans-Serif" font-size="10.00">lvlVerifyMain</text>
<text text-anchor="middle" x="417" y="-147" font-family="Helvetica,sans-Serif" font-size="10.00">contextMenuStrip2</text>
<text text-anchor="middle" x="417" y="-136" font-family="Helvetica,sans-Serif" font-size="10.00">btnClearHashes</text>
<text text-anchor="middle" x="417" y="-125" font-family="Helvetica,sans-Serif" font-size="10.00">lblSha512</text>
<text text-anchor="middle" x="417" y="-114" font-family="Helvetica,sans-Serif" font-size="10.00">chkGenerateFile</text>
<text text-anchor="middle" x="417" y="-103" font-family="Helvetica,sans-Serif" font-size="10.00">btnGenerate</text>
<text text-anchor="middle" x="417" y="-92" font-family="Helvetica,sans-Serif" font-size="10.00">txtMd5</text>
<text text-anchor="middle" x="417" y="-81" font-family="Helvetica,sans-Serif" font-size="10.00">lblVerify</text>
<text text-anchor="middle" x="417" y="-70" font-family="Helvetica,sans-Serif" font-size="10.00">...</text>
</g>
<!-- Node4&#45;&gt;Node3 -->
<g id="edge4" class="edge"><title>Node4&#45;&gt;Node3</title>
<path fill="none" stroke="#9a32cd" stroke-dasharray="5,2" d="M328.681,-352.787C308.415,-350.183 284.078,-343.484 269,-327 232.054,-286.608 265.128,-257.29 246,-206 235.997,-179.177 217.126,-150.875 207.303,-137.078"/>
<polygon fill="#9a32cd" stroke="#9a32cd" points="328.538,-356.29 338.838,-353.806 329.237,-349.325 328.538,-356.29"/>
<text text-anchor="middle" x="309.5" y="-319" font-family="Helvetica,sans-Serif" font-size="10.00"> _colorLightError</text>
<text text-anchor="middle" x="309.5" y="-308" font-family="Helvetica,sans-Serif" font-size="10.00">_colorLabel</text>
<text text-anchor="middle" x="309.5" y="-297" font-family="Helvetica,sans-Serif" font-size="10.00">timer1</text>
<text text-anchor="middle" x="309.5" y="-286" font-family="Helvetica,sans-Serif" font-size="10.00">flowOuter</text>
<text text-anchor="middle" x="309.5" y="-275" font-family="Helvetica,sans-Serif" font-size="10.00">_colorLightOk</text>
<text text-anchor="middle" x="309.5" y="-264" font-family="Helvetica,sans-Serif" font-size="10.00">_specialBlinkColor</text>
<text text-anchor="middle" x="309.5" y="-253" font-family="Helvetica,sans-Serif" font-size="10.00">_colorLightOff</text>
<text text-anchor="middle" x="309.5" y="-242" font-family="Helvetica,sans-Serif" font-size="10.00">lblText</text>
<text text-anchor="middle" x="309.5" y="-231" font-family="Helvetica,sans-Serif" font-size="10.00">components</text>
<text text-anchor="middle" x="309.5" y="-220" font-family="Helvetica,sans-Serif" font-size="10.00">_colorLightBusy</text>
<text text-anchor="middle" x="309.5" y="-209" font-family="Helvetica,sans-Serif" font-size="10.00">...</text>
</g>
<!-- Node6 -->
<g id="node6" class="node"><title>Node6</title>
<g id="a_node6"><a xlink:href="../../da/df7/classIG_1_1Forms_1_1HashAboutForm.html" target="_top" xlink:title=" ">
<polygon fill="white" stroke="black" points="488.5,-118 488.5,-137 619.5,-137 619.5,-118 488.5,-118"/>
<text text-anchor="middle" x="554" y="-125" font-family="Helvetica,sans-Serif" font-size="10.00">IG.Forms.HashAboutForm</text>
</a>
</g>
</g>
<!-- Node4&#45;&gt;Node6 -->
<g id="edge8" class="edge"><title>Node4&#45;&gt;Node6</title>
<path fill="none" stroke="#9a32cd" stroke-dasharray="5,2" d="M374.882,-336.764C393.191,-308.3 431.994,-250.221 471,-206 494.866,-178.943 527.024,-150.967 543.424,-137.211"/>
<polygon fill="#9a32cd" stroke="#9a32cd" points="371.916,-334.906 369.488,-345.219 377.817,-338.671 371.916,-334.906"/>
<text text-anchor="middle" x="499.5" y="-264" font-family="Helvetica,sans-Serif" font-size="10.00"> components</text>
</g>
<!-- Node5 -->
<g id="node5" class="node"><title>Node5</title>
<g id="a_node5"><a xlink:title=" ">
<polygon fill="white" stroke="#bfbfbf" points="86.5,-345.5 86.5,-364.5 127.5,-364.5 127.5,-345.5 86.5,-345.5"/>
<text text-anchor="middle" x="107" y="-352.5" font-family="Helvetica,sans-Serif" font-size="10.00">static</text>
</a>
</g>
</g>
<!-- Node5&#45;&gt;Node3 -->
<g id="edge5" class="edge"><title>Node5&#45;&gt;Node3</title>
<path fill="none" stroke="#9a32cd" stroke-dasharray="5,2" d="M101.953,-335.421C95.0727,-306.246 85.7644,-248.623 106,-206 121.793,-172.735 159.625,-149.037 182.497,-137.167"/>
<polygon fill="#9a32cd" stroke="#9a32cd" points="98.6413,-336.6 104.49,-345.434 105.427,-334.881 98.6413,-336.6"/>
<text text-anchor="middle" x="176" y="-319" font-family="Helvetica,sans-Serif" font-size="10.00"> _defaultColorLabel</text>
<text text-anchor="middle" x="176" y="-308" font-family="Helvetica,sans-Serif" font-size="10.00">_defaultBorderOut</text>
<text text-anchor="middle" x="176" y="-297" font-family="Helvetica,sans-Serif" font-size="10.00">_defaultBorderLabel</text>
<text text-anchor="middle" x="176" y="-286" font-family="Helvetica,sans-Serif" font-size="10.00">_defaultColorLightOff</text>
<text text-anchor="middle" x="176" y="-275" font-family="Helvetica,sans-Serif" font-size="10.00">_defaultPaddingLabel</text>
<text text-anchor="middle" x="176" y="-264" font-family="Helvetica,sans-Serif" font-size="10.00">_defaultMarginLabel</text>
<text text-anchor="middle" x="176" y="-253" font-family="Helvetica,sans-Serif" font-size="10.00">_defaultColorLightBusy</text>
<text text-anchor="middle" x="176" y="-242" font-family="Helvetica,sans-Serif" font-size="10.00">_defaultBlinkIntervalMilliseconds</text>
<text text-anchor="middle" x="176" y="-231" font-family="Helvetica,sans-Serif" font-size="10.00">_defaultPaddingOut</text>
<text text-anchor="middle" x="176" y="-220" font-family="Helvetica,sans-Serif" font-size="10.00">_defaultColorLightError</text>
<text text-anchor="middle" x="176" y="-209" font-family="Helvetica,sans-Serif" font-size="10.00">...</text>
</g>
<!-- Node6&#45;&gt;Node1 -->
<g id="edge6" class="edge"><title>Node6&#45;&gt;Node1</title>
<path fill="none" stroke="#9a32cd" stroke-dasharray="5,2" d="M535.619,-111.431C519.797,-98.8063 496.092,-80.7028 474,-67 443.406,-48.0233 405.593,-29.8363 383.213,-19.5752"/>
<polygon fill="#9a32cd" stroke="#9a32cd" points="533.556,-114.264 543.537,-117.818 537.951,-108.815 533.556,-114.264"/>
<text text-anchor="middle" x="469.5" y="-41" font-family="Helvetica,sans-Serif" font-size="10.00"> _aboutForm</text>
</g>
<!-- Node7 -->
<g id="node7" class="node"><title>Node7</title>
<g id="a_node7"><a xlink:title=" ">
<polygon fill="white" stroke="#bfbfbf" points="510.5,-345.5 510.5,-364.5 549.5,-364.5 549.5,-345.5 510.5,-345.5"/>
<text text-anchor="middle" x="530" y="-352.5" font-family="Helvetica,sans-Serif" font-size="10.00">Form</text>
</a>
</g>
</g>
<!-- Node7&#45;&gt;Node6 -->
<g id="edge7" class="edge"><title>Node7&#45;&gt;Node6</title>
<path fill="none" stroke="midnightblue" d="M531.562,-335.314C533.958,-307.22 538.809,-252.439 544,-206 546.803,-180.923 550.812,-151.374 552.795,-137.09"/>
<polygon fill="midnightblue" stroke="midnightblue" points="528.072,-335.056 530.718,-345.315 535.047,-335.645 528.072,-335.056"/>
</g>
<!-- Node8 -->
<g id="node8" class="node"><title>Node8</title>
<g id="a_node8"><a xlink:title=" ">
<polygon fill="white" stroke="#bfbfbf" points="604.5,-345.5 604.5,-364.5 633.5,-364.5 633.5,-345.5 604.5,-345.5"/>
<text text-anchor="middle" x="619" y="-352.5" font-family="Helvetica,sans-Serif" font-size="10.00">IG</text>
</a>
</g>
</g>
<!-- Node8&#45;&gt;Node1 -->
<g id="edge11" class="edge"><title>Node8&#45;&gt;Node1</title>
<path fill="none" stroke="#9a32cd" stroke-dasharray="5,2" d="M636.137,-337.422C638.537,-334.207 640.644,-330.684 642,-327 681.976,-218.426 705.345,-153.936 629,-67 602.122,-36.393 490.253,-21.565 420.741,-15.1769"/>
<polygon fill="#9a32cd" stroke="#9a32cd" points="633.364,-335.276 629.415,-345.107 638.633,-339.884 633.364,-335.276"/>
<text text-anchor="middle" x="724.5" y="-125" font-family="Helvetica,sans-Serif" font-size="10.00"> backgroundWorker1</text>
</g>
<!-- Node8&#45;&gt;Node6 -->
<g id="edge9" class="edge"><title>Node8&#45;&gt;Node6</title>
<path fill="none" stroke="#9a32cd" stroke-dasharray="5,2" d="M594.493,-348.128C583.268,-344.113 570.943,-337.542 564,-327 543.123,-295.301 550.743,-171.487 553.299,-137.292"/>
<polygon fill="#9a32cd" stroke="#9a32cd" points="593.72,-351.552 604.307,-351.138 595.773,-344.86 593.72,-351.552"/>
<text text-anchor="middle" x="603" y="-264" font-family="Helvetica,sans-Serif" font-size="10.00"> hashFormAbout1</text>
</g>
</g>
</svg>
        <g id="navigator" transform="translate(0 0)" fill="#404254">
                <rect fill="#f2f5e9" fill-opacity="0.5" stroke="#606060" stroke-width=".5" x="0" y="0" width="60" height="60"/>
                <use id="zoomplus" xlink:href="#zoomPlus" x="17" y="9" onmousedown="handleZoom(evt,'in')"/>
                <use id="zoomminus" xlink:href="#zoomMin" x="42" y="9" onmousedown="handleZoom(evt,'out')"/>
                <use id="reset" xlink:href="#resetDef" x="30" y="36" onmousedown="handleReset()"/>
                <g id="arrowUp" xlink:href="#dirArrow" transform="translate(30 24)" onmousedown="handlePan(0,-1)">
                  <use xlink:href="#rim" fill="#404040">
                        <set attributeName="fill" to="#808080" begin="arrowUp.mouseover" end="arrowUp.mouseout"/>
                  </use>
                  <path fill="none" stroke="white" stroke-width="1.5" d="M0,-3.0v7 M-2.5,-0.5L0,-3.0L2.5,-0.5"/>
                </g>
                <g id="arrowRight" xlink:href="#dirArrow" transform="rotate(90) translate(36 -43)" onmousedown="handlePan(1,0)">
                  <use xlink:href="#rim" fill="#404040">
                        <set attributeName="fill" to="#808080" begin="arrowRight.mouseover" end="arrowRight.mouseout"/>
                  </use>
                  <path fill="none" stroke="white" stroke-width="1.5" d="M0,-3.0v7 M-2.5,-0.5L0,-3.0L2.5,-0.5"/>
                </g>
                <g id="arrowDown" xlink:href="#dirArrow" transform="rotate(180) translate(-30 -48)" onmousedown="handlePan(0,1)">
                  <use xlink:href="#rim" fill="#404040">
                        <set attributeName="fill" to="#808080" begin="arrowDown.mouseover" end="arrowDown.mouseout"/>
                  </use>
                  <path fill="none" stroke="white" stroke-width="1.5" d="M0,-3.0v7 M-2.5,-0.5L0,-3.0L2.5,-0.5"/>
                </g>
                <g id="arrowLeft" xlink:href="#dirArrow" transform="rotate(270) translate(-36 17)" onmousedown="handlePan(-1,0)">
                  <use xlink:href="#rim" fill="#404040">
                        <set attributeName="fill" to="#808080" begin="arrowLeft.mouseover" end="arrowLeft.mouseout"/>
                  </use>
                  <path fill="none" stroke="white" stroke-width="1.5" d="M0,-3.0v7 M-2.5,-0.5L0,-3.0L2.5,-0.5"/>
                </g>
        </g>
        <svg viewBox="0 0 15 15" width="100%" height="30px" preserveAspectRatio="xMaxYMin meet">
         <g id="arrow_out" transform="scale(0.3 0.3)">
          <a xlink:href="classIG_1_1Forms_1_1HashControl__coll__graph_org.svg" target="_base">
           <rect id="button" ry="5" rx="5" y="6" x="6" height="38" width="38"
                fill="#f2f5e9" fill-opacity="0.5" stroke="#606060" stroke-width="1.0"/>
           <path id="arrow"
             d="M 11.500037,31.436501 C 11.940474,20.09759 22.043105,11.32322 32.158766,21.979434 L 37.068811,17.246167 C 37.068811,17.246167 37.088388,32 37.088388,32 L 22.160133,31.978069 C 22.160133,31.978069 26.997745,27.140456 26.997745,27.140456 C 18.528582,18.264221 13.291696,25.230495 11.500037,31.436501 z"
             style="fill:#404040;"/>
          </a>
         </g>
        </svg>
</svg>
