<?xml version="1.0" encoding="UTF-8" standalone="no"?>
<!DOCTYPE svg PUBLIC "-//W3C//DTD SVG 1.1//EN"
 "http://www.w3.org/Graphics/SVG/1.1/DTD/svg11.dtd">
<!-- Generated by graphviz version 2.38.0 (20140413.2041)
 -->
<!-- Title: IG.Script.LoadableScriptShellNeuralITOriginalBase Pages: 1 -->
<svg width="1976pt" height="352pt"
 viewBox="0.00 0.00 1976.00 351.52" xmlns="http://www.w3.org/2000/svg" xmlns:xlink="http://www.w3.org/1999/xlink">
<g id="graph0" class="graph" transform="scale(1 1) rotate(0) translate(4 347.52)">
<title>IG.Script.LoadableScriptShellNeuralITOriginalBase</title>
<polygon fill="white" stroke="none" points="-4,4 -4,-347.52 1972,-347.52 1972,4 -4,4"/>
<!-- Node1 -->
<g id="node1" class="node"><title>Node1</title>
<g id="a_node1"><a xlink:title="Base class for loadable scripts that are used as custom applications that inclued neural networks app...">
<polygon fill="#bfbfbf" stroke="black" points="1297,-93 1297,-123 1426,-123 1426,-93 1297,-93"/>
<text text-anchor="start" x="1305" y="-111" font-family="Helvetica,sans-Serif" font-size="10.00">IG.Script.LoadableScript</text>
<text text-anchor="middle" x="1361.5" y="-100" font-family="Helvetica,sans-Serif" font-size="10.00">ShellNeuralITOriginalBase</text>
</a>
</g>
</g>
<!-- Node13 -->
<g id="node13" class="node"><title>Node13</title>
<g id="a_node13"><a xlink:href="../../d5/d3c/classIG_1_1Script_1_1LoadableScriptShellNeuralIT.html" target="_top" xlink:title="Base class for loadable scripts that are used as custom applications that inclued neural networks app...">
<polygon fill="white" stroke="black" points="1462,-93 1462,-123 1584,-123 1584,-93 1462,-93"/>
<text text-anchor="start" x="1470" y="-111" font-family="Helvetica,sans-Serif" font-size="10.00">IG.Script.LoadableScript</text>
<text text-anchor="middle" x="1523" y="-100" font-family="Helvetica,sans-Serif" font-size="10.00">ShellNeuralIT</text>
</a>
</g>
</g>
<!-- Node1&#45;&gt;Node13 -->
<g id="edge23" class="edge"><title>Node1&#45;&gt;Node13</title>
<path fill="none" stroke="midnightblue" d="M1436.69,-108C1445.14,-108 1453.68,-108 1461.91,-108"/>
<polygon fill="midnightblue" stroke="midnightblue" points="1436.46,-104.5 1426.46,-108 1436.46,-111.5 1436.46,-104.5"/>
</g>
<!-- Node2 -->
<g id="node2" class="node"><title>Node2</title>
<g id="a_node2"><a xlink:href="../../de/d7f/classIG_1_1Script_1_1ScriptShellNeuralWithSimulatorManagers.html" target="_top" xlink:title="Neural script class with added simulatior managers.">
<polygon fill="white" stroke="black" points="1108,-93 1108,-123 1261,-123 1261,-93 1108,-93"/>
<text text-anchor="start" x="1116" y="-111" font-family="Helvetica,sans-Serif" font-size="10.00">ScriptShellNeuralWithSimulator</text>
<text text-anchor="middle" x="1184.5" y="-100" font-family="Helvetica,sans-Serif" font-size="10.00">Managers</text>
</a>
</g>
</g>
<!-- Node2&#45;&gt;Node1 -->
<g id="edge1" class="edge"><title>Node2&#45;&gt;Node1</title>
<path fill="none" stroke="midnightblue" d="M1271.34,-108C1279.98,-108 1288.63,-108 1296.97,-108"/>
<polygon fill="midnightblue" stroke="midnightblue" points="1271.24,-104.5 1261.24,-108 1271.24,-111.5 1271.24,-104.5"/>
</g>
<!-- Node3 -->
<g id="node3" class="node"><title>Node3</title>
<g id="a_node3"><a xlink:href="../../d1/d30/classIG_1_1Script_1_1LoadableScriptShellNeural.html" target="_top" xlink:title="Base class for loadable scripts that are used as custom applications that inclued neural networks app...">
<polygon fill="white" stroke="black" points="941,-114.5 941,-133.5 1072,-133.5 1072,-114.5 941,-114.5"/>
<text text-anchor="middle" x="1006.5" y="-121.5" font-family="Helvetica,sans-Serif" font-size="10.00">LoadableScriptShellNeural</text>
</a>
</g>
</g>
<!-- Node3&#45;&gt;Node2 -->
<g id="edge2" class="edge"><title>Node3&#45;&gt;Node2</title>
<path fill="none" stroke="midnightblue" d="M1082.01,-117.227C1090.59,-116.447 1099.34,-115.651 1107.94,-114.869"/>
<polygon fill="midnightblue" stroke="midnightblue" points="1081.68,-113.742 1072.04,-118.133 1082.31,-120.713 1081.68,-113.742"/>
</g>
<!-- Node4 -->
<g id="node4" class="node"><title>Node4</title>
<g id="a_node4"><a xlink:href="../../dc/d0c/classIG_1_1Script_1_1LoadableScriptShellNeuralBase.html" target="_top" xlink:title="Base class for loadable scripts that are used as custom applications that inclued neural networks app...">
<polygon fill="white" stroke="black" points="752,-161.5 752,-180.5 905,-180.5 905,-161.5 752,-161.5"/>
<text text-anchor="middle" x="828.5" y="-168.5" font-family="Helvetica,sans-Serif" font-size="10.00">LoadableScriptShellNeuralBase</text>
</a>
</g>
</g>
<!-- Node4&#45;&gt;Node3 -->
<g id="edge3" class="edge"><title>Node4&#45;&gt;Node3</title>
<path fill="none" stroke="midnightblue" d="M875.154,-158.808C904.598,-150.945 942.346,-140.865 969.635,-133.578"/>
<polygon fill="midnightblue" stroke="midnightblue" points="873.875,-155.527 865.116,-161.489 875.681,-162.29 873.875,-155.527"/>
</g>
<!-- Node5 -->
<g id="node5" class="node"><title>Node5</title>
<g id="a_node5"><a xlink:href="../../d6/d59/classIG_1_1Lib_1_1LoadableScriptShellBase.html" target="_top" xlink:title="Loadable script base class for the shell application that includes tols for definition of optiimizati...">
<polygon fill="white" stroke="black" points="591,-190.5 591,-209.5 716,-209.5 716,-190.5 591,-190.5"/>
<text text-anchor="middle" x="653.5" y="-197.5" font-family="Helvetica,sans-Serif" font-size="10.00">LoadableScriptShellBase</text>
</a>
</g>
</g>
<!-- Node5&#45;&gt;Node4 -->
<g id="edge4" class="edge"><title>Node5&#45;&gt;Node4</title>
<path fill="none" stroke="midnightblue" d="M721.589,-188.754C737.824,-186.032 755.021,-183.15 770.729,-180.517"/>
<polygon fill="midnightblue" stroke="midnightblue" points="720.91,-185.319 711.626,-190.424 722.067,-192.222 720.91,-185.319"/>
</g>
<!-- Node6 -->
<g id="node6" class="node"><title>Node6</title>
<g id="a_node6"><a xlink:href="../../d7/d31/classIG_1_1Lib_1_1LoadableScriptOptShellBaseControllable.html" target="_top" xlink:title="Controllable version of LoadableScriptOptBase, implements the ILoadableScriptC interface.">
<polygon fill="white" stroke="black" points="414,-237 414,-267 555,-267 555,-237 414,-237"/>
<text text-anchor="start" x="422" y="-255" font-family="Helvetica,sans-Serif" font-size="10.00">LoadableScriptOptShellBase</text>
<text text-anchor="middle" x="484.5" y="-244" font-family="Helvetica,sans-Serif" font-size="10.00">Controllable</text>
</a>
</g>
</g>
<!-- Node6&#45;&gt;Node5 -->
<g id="edge5" class="edge"><title>Node6&#45;&gt;Node5</title>
<path fill="none" stroke="midnightblue" d="M543.486,-233.822C558.923,-228.994 575.591,-223.79 591,-219 600.924,-215.915 611.754,-212.564 621.522,-209.547"/>
<polygon fill="midnightblue" stroke="midnightblue" points="542.043,-230.606 533.544,-236.933 544.133,-237.287 542.043,-230.606"/>
</g>
<!-- Node7 -->
<g id="node7" class="node"><title>Node7</title>
<g id="a_node7"><a xlink:href="../../d5/d05/classIG_1_1Lib_1_1LoadableScriptOptBase.html" target="_top" xlink:title="Base class for loadable scripts for optimization problems. AGREEMENTS: The first argument to initiali...">
<polygon fill="white" stroke="black" points="259,-250.5 259,-269.5 378,-269.5 378,-250.5 259,-250.5"/>
<text text-anchor="middle" x="318.5" y="-257.5" font-family="Helvetica,sans-Serif" font-size="10.00">LoadableScriptOptBase</text>
</a>
</g>
</g>
<!-- Node7&#45;&gt;Node6 -->
<g id="edge6" class="edge"><title>Node7&#45;&gt;Node6</title>
<path fill="none" stroke="midnightblue" d="M388.431,-256.637C396.88,-256.225 405.519,-255.804 413.977,-255.391"/>
<polygon fill="midnightblue" stroke="midnightblue" points="388.062,-253.151 378.245,-257.134 388.403,-260.143 388.062,-253.151"/>
</g>
<!-- Node8 -->
<g id="node8" class="node"><title>Node8</title>
<g id="a_node8"><a xlink:href="../../d7/d15/classIG_1_1Lib_1_1LoadableScriptBase.html" target="_top" xlink:title="Base class for classes that can be dynamically loadeded from scripts and run, which provides function...">
<polygon fill="white" stroke="black" points="119,-266.5 119,-285.5 223,-285.5 223,-266.5 119,-266.5"/>
<text text-anchor="middle" x="171" y="-273.5" font-family="Helvetica,sans-Serif" font-size="10.00">LoadableScriptBase</text>
</a>
</g>
</g>
<!-- Node8&#45;&gt;Node7 -->
<g id="edge7" class="edge"><title>Node8&#45;&gt;Node7</title>
<path fill="none" stroke="midnightblue" d="M233.468,-269.241C241.917,-268.312 250.574,-267.36 258.967,-266.437"/>
<polygon fill="midnightblue" stroke="midnightblue" points="232.855,-265.787 223.298,-270.359 233.621,-272.745 232.855,-265.787"/>
</g>
<!-- Node9 -->
<g id="node9" class="node"><title>Node9</title>
<g id="a_node9"><a xlink:href="../../d7/d66/interfaceIG_1_1Lib_1_1ILoadableScript.html" target="_top" xlink:title="Interface for classes that can be dynamically loadeded from scripts and run, which provides functiona...">
<polygon fill="white" stroke="black" points="0,-152.5 0,-171.5 83,-171.5 83,-152.5 0,-152.5"/>
<text text-anchor="middle" x="41.5" y="-159.5" font-family="Helvetica,sans-Serif" font-size="10.00">ILoadableScript</text>
</a>
</g>
</g>
<!-- Node9&#45;&gt;Node1 -->
<g id="edge21" class="edge"><title>Node9&#45;&gt;Node1</title>
<path fill="none" stroke="midnightblue" d="M56.8078,-144.446C70.9254,-128.322 93.975,-105.015 119,-92 199.169,-50.3043 227.136,-48 317.5,-48 317.5,-48 317.5,-48 1007.5,-48 1114.58,-48 1237.37,-75.1638 1306.26,-92.9369"/>
<polygon fill="midnightblue" stroke="midnightblue" points="54.0857,-142.244 50.2763,-152.13 59.4194,-146.777 54.0857,-142.244"/>
</g>
<!-- Node9&#45;&gt;Node2 -->
<g id="edge20" class="edge"><title>Node9&#45;&gt;Node2</title>
<path fill="none" stroke="midnightblue" d="M69.5626,-147.806C83.9354,-140.736 102.083,-132.538 119,-127 204.613,-98.9717 227.416,-86 317.5,-86 317.5,-86 317.5,-86 829.5,-86 925.714,-86 1036.35,-94.1956 1107.97,-100.582"/>
<polygon fill="midnightblue" stroke="midnightblue" points="67.6397,-144.855 60.2769,-152.473 70.7835,-151.109 67.6397,-144.855"/>
</g>
<!-- Node9&#45;&gt;Node3 -->
<g id="edge19" class="edge"><title>Node9&#45;&gt;Node3</title>
<path fill="none" stroke="midnightblue" d="M93.093,-150.764C148.044,-139.558 238.552,-124 317.5,-124 317.5,-124 317.5,-124 654.5,-124 754.438,-124 870.381,-124 940.808,-124"/>
<polygon fill="midnightblue" stroke="midnightblue" points="92.3394,-147.346 83.257,-152.801 93.759,-154.2 92.3394,-147.346"/>
</g>
<!-- Node9&#45;&gt;Node4 -->
<g id="edge17" class="edge"><title>Node9&#45;&gt;Node4</title>
<path fill="none" stroke="midnightblue" d="M93.2509,-162C148.435,-162 239.233,-162 317.5,-162 317.5,-162 317.5,-162 485.5,-162 577.118,-162 682.493,-165.267 751.785,-167.865"/>
<polygon fill="midnightblue" stroke="midnightblue" points="93.0378,-158.5 83.0378,-162 93.0377,-165.5 93.0378,-158.5"/>
</g>
<!-- Node9&#45;&gt;Node7 -->
<g id="edge10" class="edge"><title>Node9&#45;&gt;Node7</title>
<path fill="none" stroke="midnightblue" d="M70.9807,-176.032C85.2258,-182.792 102.836,-190.764 119,-197 175.502,-218.798 243.044,-239.042 282.991,-250.434"/>
<polygon fill="midnightblue" stroke="midnightblue" points="72.2449,-172.756 61.7154,-171.582 69.2142,-179.066 72.2449,-172.756"/>
</g>
<!-- Node9&#45;&gt;Node8 -->
<g id="edge8" class="edge"><title>Node9&#45;&gt;Node8</title>
<path fill="none" stroke="midnightblue" d="M54.2541,-179.969C67.8967,-199.709 92.0043,-231.347 119,-252 126.539,-257.768 135.687,-262.61 144.142,-266.401"/>
<polygon fill="midnightblue" stroke="midnightblue" points="57.0852,-177.908 48.5898,-171.577 51.283,-181.824 57.0852,-177.908"/>
</g>
<!-- Node11 -->
<g id="node11" class="node"><title>Node11</title>
<g id="a_node11"><a xlink:href="../../d1/dca/interfaceIG_1_1Lib_1_1ILoadableScriptC.html" target="_top" xlink:title="Controllable loadable script, provides more control over loading and execution.">
<polygon fill="white" stroke="black" points="273.5,-190.5 273.5,-209.5 363.5,-209.5 363.5,-190.5 273.5,-190.5"/>
<text text-anchor="middle" x="318.5" y="-197.5" font-family="Helvetica,sans-Serif" font-size="10.00">ILoadableScriptC</text>
</a>
</g>
</g>
<!-- Node9&#45;&gt;Node11 -->
<g id="edge13" class="edge"><title>Node9&#45;&gt;Node11</title>
<path fill="none" stroke="midnightblue" d="M93.2346,-171.731C101.819,-173.249 110.653,-174.733 119,-176 171.852,-184.024 232.949,-191.079 273.246,-195.427"/>
<polygon fill="midnightblue" stroke="midnightblue" points="93.778,-168.273 83.3157,-169.943 92.5363,-175.162 93.778,-168.273"/>
</g>
<!-- Node10 -->
<g id="node10" class="node"><title>Node10</title>
<g id="a_node10"><a xlink:href="../../d3/db6/interfaceIG_1_1Lib_1_1ILockable.html" target="_top" xlink:title="Lockable object, has a Lock property that returns object on which lock must be performed in order to ...">
<polygon fill="white" stroke="black" points="12.5,-323.5 12.5,-342.5 70.5,-342.5 70.5,-323.5 12.5,-323.5"/>
<text text-anchor="middle" x="41.5" y="-330.5" font-family="Helvetica,sans-Serif" font-size="10.00">ILockable</text>
</a>
</g>
</g>
<!-- Node10&#45;&gt;Node5 -->
<g id="edge16" class="edge"><title>Node10&#45;&gt;Node5</title>
<path fill="none" stroke="midnightblue" d="M81.0372,-337.821C93.1652,-339.126 106.623,-340.355 119,-341 165.16,-343.407 176.937,-344.837 223,-341 372.838,-328.52 431.948,-362.403 555,-276 579.522,-258.782 567.212,-237.218 591,-219 596.057,-215.127 601.911,-212.037 607.956,-209.573"/>
<polygon fill="midnightblue" stroke="midnightblue" points="81.1106,-334.307 70.7821,-336.668 80.3284,-341.264 81.1106,-334.307"/>
</g>
<!-- Node10&#45;&gt;Node6 -->
<g id="edge14" class="edge"><title>Node10&#45;&gt;Node6</title>
<path fill="none" stroke="midnightblue" d="M80.7768,-332.897C117.484,-332.275 174.352,-329.935 223,-322 299.955,-309.448 387.002,-283.613 438.461,-267.082"/>
<polygon fill="midnightblue" stroke="midnightblue" points="80.4748,-329.401 70.5229,-333.035 80.5691,-336.4 80.4748,-329.401"/>
</g>
<!-- Node10&#45;&gt;Node7 -->
<g id="edge11" class="edge"><title>Node10&#45;&gt;Node7</title>
<path fill="none" stroke="midnightblue" d="M80.9308,-326.604C117.75,-320.08 174.696,-308.948 223,-295 247.877,-287.817 275.574,-277.241 294.517,-269.597"/>
<polygon fill="midnightblue" stroke="midnightblue" points="79.8925,-323.233 70.6432,-328.4 81.0961,-330.128 79.8925,-323.233"/>
</g>
<!-- Node10&#45;&gt;Node8 -->
<g id="edge9" class="edge"><title>Node10&#45;&gt;Node8</title>
<path fill="none" stroke="midnightblue" d="M73.2731,-319.243C96.5688,-308.828 127.972,-294.789 148.59,-285.572"/>
<polygon fill="midnightblue" stroke="midnightblue" points="71.5414,-316.183 63.8406,-323.459 74.3984,-322.573 71.5414,-316.183"/>
</g>
<!-- Node11&#45;&gt;Node5 -->
<g id="edge15" class="edge"><title>Node11&#45;&gt;Node5</title>
<path fill="none" stroke="midnightblue" d="M374.04,-200C433.549,-200 528.614,-200 590.805,-200"/>
<polygon fill="midnightblue" stroke="midnightblue" points="373.72,-196.5 363.72,-200 373.72,-203.5 373.72,-196.5"/>
</g>
<!-- Node11&#45;&gt;Node6 -->
<g id="edge12" class="edge"><title>Node11&#45;&gt;Node6</title>
<path fill="none" stroke="midnightblue" d="M359.386,-212.647C382.458,-219.962 411.635,-229.214 435.903,-236.908"/>
<polygon fill="midnightblue" stroke="midnightblue" points="360.17,-209.224 349.58,-209.538 358.055,-215.896 360.17,-209.224"/>
</g>
<!-- Node12 -->
<g id="node12" class="node"><title>Node12</title>
<g id="a_node12"><a xlink:href="../../d0/d98/interfaceIG_1_1Num_1_1INeuralModel.html" target="_top" xlink:title="Interface for artificial neural network &#45;based models that we can operate on.">
<polygon fill="white" stroke="black" points="617,-228.5 617,-247.5 690,-247.5 690,-228.5 617,-228.5"/>
<text text-anchor="middle" x="653.5" y="-235.5" font-family="Helvetica,sans-Serif" font-size="10.00">INeuralModel</text>
</a>
</g>
</g>
<!-- Node12&#45;&gt;Node1 -->
<g id="edge22" class="edge"><title>Node12&#45;&gt;Node1</title>
<path fill="none" stroke="midnightblue" d="M700.094,-231.048C801.367,-215.386 1052.57,-175.306 1261,-132 1273.96,-129.307 1287.81,-126.149 1300.92,-123.024"/>
<polygon fill="midnightblue" stroke="midnightblue" points="699.548,-227.591 690.198,-232.575 700.615,-234.509 699.548,-227.591"/>
</g>
<!-- Node12&#45;&gt;Node4 -->
<g id="edge18" class="edge"><title>Node12&#45;&gt;Node4</title>
<path fill="none" stroke="midnightblue" d="M697.345,-225.409C703.638,-223.373 710.013,-221.206 716,-219 748.431,-207.048 785.07,-190.711 807.215,-180.511"/>
<polygon fill="midnightblue" stroke="midnightblue" points="696.075,-222.14 687.592,-228.487 698.182,-228.815 696.075,-222.14"/>
</g>
<!-- Node14 -->
<g id="node14" class="node"><title>Node14</title>
<g id="a_node14"><a xlink:href="../../de/d66/classIG_1_1Script_1_1S__12__01__Paper__NeuralOptCasting__00.html" target="_top" xlink:title=" ">
<polygon fill="white" stroke="black" points="1630.5,-213 1630.5,-243 1757.5,-243 1757.5,-213 1630.5,-213"/>
<text text-anchor="start" x="1638.5" y="-231" font-family="Helvetica,sans-Serif" font-size="10.00">IG.Script.S_12_01_Paper</text>
<text text-anchor="middle" x="1694" y="-220" font-family="Helvetica,sans-Serif" font-size="10.00">_NeuralOptCasting_00</text>
</a>
</g>
</g>
<!-- Node13&#45;&gt;Node14 -->
<g id="edge24" class="edge"><title>Node13&#45;&gt;Node14</title>
<path fill="none" stroke="midnightblue" d="M1542.18,-131.233C1559.97,-152.56 1588.86,-183.692 1620,-203 1626.15,-206.812 1632.95,-210.129 1639.86,-212.989"/>
<polygon fill="midnightblue" stroke="midnightblue" points="1544.74,-128.837 1535.71,-123.309 1539.32,-133.267 1544.74,-128.837"/>
</g>
<!-- Node15 -->
<g id="node15" class="node"><title>Node15</title>
<g id="a_node15"><a xlink:href="../../d5/d86/classIG_1_1Script_1_1S__12__01__Paper__NeuralOptCasting__IJS__00.html" target="_top" xlink:title=" ">
<polygon fill="white" stroke="black" points="1627.5,-164 1627.5,-194 1760.5,-194 1760.5,-164 1627.5,-164"/>
<text text-anchor="start" x="1635.5" y="-182" font-family="Helvetica,sans-Serif" font-size="10.00">IG.Script.S_12_01_Paper</text>
<text text-anchor="middle" x="1694" y="-171" font-family="Helvetica,sans-Serif" font-size="10.00">_NeuralOptCasting_IJS_00</text>
</a>
</g>
</g>
<!-- Node13&#45;&gt;Node15 -->
<g id="edge25" class="edge"><title>Node13&#45;&gt;Node15</title>
<path fill="none" stroke="midnightblue" d="M1562.67,-127.799C1579.99,-136.338 1600.81,-146.146 1620,-154 1628.43,-157.45 1637.53,-160.831 1646.36,-163.936"/>
<polygon fill="midnightblue" stroke="midnightblue" points="1563.95,-124.526 1553.43,-123.206 1560.83,-130.794 1563.95,-124.526"/>
</g>
<!-- Node16 -->
<g id="node16" class="node"><title>Node16</title>
<g id="a_node16"><a xlink:href="../../d0/d5a/classIG_1_1Script_1_1S__12__02__paper__neural__process__chain__model.html" target="_top" xlink:title=" ">
<polygon fill="white" stroke="black" points="1620,-115 1620,-145 1768,-145 1768,-115 1620,-115"/>
<text text-anchor="start" x="1628" y="-133" font-family="Helvetica,sans-Serif" font-size="10.00">IG.Script.S_12_02_paper</text>
<text text-anchor="middle" x="1694" y="-122" font-family="Helvetica,sans-Serif" font-size="10.00">_neural_process_chain_model</text>
</a>
</g>
</g>
<!-- Node13&#45;&gt;Node16 -->
<g id="edge26" class="edge"><title>Node13&#45;&gt;Node16</title>
<path fill="none" stroke="midnightblue" d="M1594.24,-117.144C1602.69,-118.243 1611.33,-119.368 1619.81,-120.473"/>
<polygon fill="midnightblue" stroke="midnightblue" points="1594.43,-113.639 1584.06,-115.818 1593.52,-120.58 1594.43,-113.639"/>
</g>
<!-- Node17 -->
<g id="node17" class="node"><title>Node17</title>
<g id="a_node17"><a xlink:href="../../dd/d62/classIG_1_1Script_1_1S__12__03__paper__gk.html" target="_top" xlink:title=" ">
<polygon fill="white" stroke="black" points="1623.5,-76.5 1623.5,-95.5 1764.5,-95.5 1764.5,-76.5 1623.5,-76.5"/>
<text text-anchor="middle" x="1694" y="-83.5" font-family="Helvetica,sans-Serif" font-size="10.00">IG.Script.S_12_03_paper_gk</text>
</a>
</g>
</g>
<!-- Node13&#45;&gt;Node17 -->
<g id="edge27" class="edge"><title>Node13&#45;&gt;Node17</title>
<path fill="none" stroke="midnightblue" d="M1594.03,-98.8836C1603.71,-97.6234 1613.65,-96.3292 1623.33,-95.0698"/>
<polygon fill="midnightblue" stroke="midnightblue" points="1593.52,-95.42 1584.06,-100.182 1594.43,-102.361 1593.52,-95.42"/>
</g>
<!-- Node18 -->
<g id="node18" class="node"><title>Node18</title>
<g id="a_node18"><a xlink:href="../../dd/dc3/classIG_1_1Script_1_1S__12__09__jmatpro.html" target="_top" xlink:title="Script class for running JMatPro calculations and manipulating results.">
<polygon fill="white" stroke="black" points="1627,-38.5 1627,-57.5 1761,-57.5 1761,-38.5 1627,-38.5"/>
<text text-anchor="middle" x="1694" y="-45.5" font-family="Helvetica,sans-Serif" font-size="10.00">IG.Script.S_12_09_jmatpro</text>
</a>
</g>
</g>
<!-- Node13&#45;&gt;Node18 -->
<g id="edge28" class="edge"><title>Node13&#45;&gt;Node18</title>
<path fill="none" stroke="midnightblue" d="M1565.45,-88.6963C1582.18,-81.3308 1601.79,-73.2188 1620,-67 1630.16,-63.5291 1641.3,-60.3323 1651.76,-57.5902"/>
<polygon fill="midnightblue" stroke="midnightblue" points="1563.68,-85.6556 1555.97,-92.9268 1566.53,-92.0481 1563.68,-85.6556"/>
</g>
<!-- Node19 -->
<g id="node19" class="node"><title>Node19</title>
<g id="a_node19"><a xlink:href="../../d4/d91/classIG_1_1Script_1_1S__13__5__Convection.html" target="_top" xlink:title=" ">
<polygon fill="white" stroke="black" points="1622.5,-0.5 1622.5,-19.5 1765.5,-19.5 1765.5,-0.5 1622.5,-0.5"/>
<text text-anchor="middle" x="1694" y="-7.5" font-family="Helvetica,sans-Serif" font-size="10.00">IG.Script.S_13_5_Convection</text>
</a>
</g>
</g>
<!-- Node13&#45;&gt;Node19 -->
<g id="edge29" class="edge"><title>Node13&#45;&gt;Node19</title>
<path fill="none" stroke="midnightblue" d="M1545.37,-85.7012C1563.62,-67.894 1591.4,-43.5863 1620,-29 1627.47,-25.1923 1635.76,-22.101 1644.01,-19.6058"/>
<polygon fill="midnightblue" stroke="midnightblue" points="1542.77,-83.3504 1538.16,-92.8875 1547.71,-88.3097 1542.77,-83.3504"/>
</g>
<!-- Node20 -->
<g id="node20" class="node"><title>Node20</title>
<g id="a_node20"><a xlink:href="../../d1/dd3/classIG_1_1Script_1_1S__13__7__ConvectionRev1.html" target="_top" xlink:title=" ">
<polygon fill="white" stroke="black" points="1804,-0.5 1804,-19.5 1968,-19.5 1968,-0.5 1804,-0.5"/>
<text text-anchor="middle" x="1886" y="-7.5" font-family="Helvetica,sans-Serif" font-size="10.00">IG.Script.S_13_7_ConvectionRev1</text>
</a>
</g>
</g>
<!-- Node19&#45;&gt;Node20 -->
<g id="edge30" class="edge"><title>Node19&#45;&gt;Node20</title>
<path fill="none" stroke="midnightblue" d="M1775.78,-10C1785.11,-10 1794.62,-10 1803.95,-10"/>
<polygon fill="midnightblue" stroke="midnightblue" points="1775.75,-6.5001 1765.75,-10 1775.75,-13.5001 1775.75,-6.5001"/>
</g>
</g>
</svg>
