<?xml version="1.0" encoding="UTF-8" standalone="no"?>
<!DOCTYPE svg PUBLIC "-//W3C//DTD SVG 1.1//EN"
 "http://www.w3.org/Graphics/SVG/1.1/DTD/svg11.dtd">
<!-- Generated by graphviz version 2.38.0 (20140413.2041)
 -->
<!-- Title: NUnit.Framework.Internal.TestFilter Pages: 1 -->
<svg width="167pt" height="174pt"
 viewBox="0.00 0.00 167.00 174.00" xmlns="http://www.w3.org/2000/svg" xmlns:xlink="http://www.w3.org/1999/xlink">
<g id="graph0" class="graph" transform="scale(1 1) rotate(0) translate(4 170)">
<title>NUnit.Framework.Internal.TestFilter</title>
<polygon fill="white" stroke="none" points="-4,4 -4,-170 163,-170 163,4 -4,4"/>
<!-- Node1 -->
<g id="node1" class="node"><title>Node1</title>
<g id="a_node1"><a xlink:title="Interface to be implemented by filters applied to tests. The filter applies when running the test,...">
<polygon fill="#bfbfbf" stroke="black" points="30,-0.5 30,-30.5 159,-30.5 159,-0.5 30,-0.5"/>
<text text-anchor="start" x="38" y="-18.5" font-family="Helvetica,sans-Serif" font-size="10.00">NUnit.Framework.Internal.</text>
<text text-anchor="middle" x="94.5" y="-7.5" font-family="Helvetica,sans-Serif" font-size="10.00">TestFilter</text>
</a>
</g>
</g>
<!-- Node2 -->
<g id="node2" class="node"><title>Node2</title>
<g id="a_node2"><a xlink:href="../../d2/df0/interfaceNUnit_1_1Framework_1_1Interfaces_1_1ITestFilter.html" target="_top" xlink:title="Interface to be implemented by filters applied to tests. The filter applies when running the test,...">
<polygon fill="white" stroke="black" points="14,-89.5 14,-108.5 73,-108.5 73,-89.5 14,-89.5"/>
<text text-anchor="middle" x="43.5" y="-96.5" font-family="Helvetica,sans-Serif" font-size="10.00">ITestFilter</text>
</a>
</g>
</g>
<!-- Node2&#45;&gt;Node1 -->
<g id="edge1" class="edge"><title>Node2&#45;&gt;Node1</title>
<path fill="none" stroke="midnightblue" d="M54.4371,-80.5221C63.768,-65.611 77.0122,-44.4462 85.6783,-30.5974"/>
<polygon fill="midnightblue" stroke="midnightblue" points="51.2956,-78.9443 48.9579,-89.2781 57.2296,-82.6576 51.2956,-78.9443"/>
</g>
<!-- Node3 -->
<g id="node3" class="node"><title>Node3</title>
<g id="a_node3"><a xlink:href="../../d9/dc0/interfaceNUnit_1_1Framework_1_1Interfaces_1_1IXmlNodeBuilder.html" target="_top" xlink:title="An object implementing IXmlNodeBuilder is able to build an XML representation of itself and any child...">
<polygon fill="white" stroke="black" points="0,-146.5 0,-165.5 87,-165.5 87,-146.5 0,-146.5"/>
<text text-anchor="middle" x="43.5" y="-153.5" font-family="Helvetica,sans-Serif" font-size="10.00">IXmlNodeBuilder</text>
</a>
</g>
</g>
<!-- Node3&#45;&gt;Node2 -->
<g id="edge2" class="edge"><title>Node3&#45;&gt;Node2</title>
<path fill="none" stroke="midnightblue" d="M43.5,-136.117C43.5,-126.817 43.5,-116.056 43.5,-108.715"/>
<polygon fill="midnightblue" stroke="midnightblue" points="40.0001,-136.406 43.5,-146.406 47.0001,-136.406 40.0001,-136.406"/>
</g>
<!-- Node4 -->
<g id="node4" class="node"><title>Node4</title>
<g id="a_node4"><a xlink:title=" ">
<polygon fill="white" stroke="#bfbfbf" points="91,-89.5 91,-108.5 132,-108.5 132,-89.5 91,-89.5"/>
<text text-anchor="middle" x="111.5" y="-96.5" font-family="Helvetica,sans-Serif" font-size="10.00">static</text>
</a>
</g>
</g>
<!-- Node4&#45;&gt;Node1 -->
<g id="edge3" class="edge"><title>Node4&#45;&gt;Node1</title>
<path fill="none" stroke="#9a32cd" stroke-dasharray="5,2" d="M107.585,-79.229C104.493,-64.4075 100.247,-44.0505 97.4406,-30.5974"/>
<polygon fill="#9a32cd" stroke="#9a32cd" points="104.212,-80.2035 109.681,-89.2781 111.065,-78.7741 104.212,-80.2035"/>
<text text-anchor="middle" x="126" y="-63" font-family="Helvetica,sans-Serif" font-size="10.00"> COMMA</text>
<text text-anchor="middle" x="126" y="-52" font-family="Helvetica,sans-Serif" font-size="10.00">Empty</text>
</g>
</g>
</svg>
