<?xml version="1.0" encoding="UTF-8" standalone="no"?>
<!DOCTYPE svg PUBLIC "-//W3C//DTD SVG 1.1//EN"
 "http://www.w3.org/Graphics/SVG/1.1/DTD/svg11.dtd">
<!-- Generated by graphviz version 2.38.0 (20140413.2041)
 -->
<!-- Title: TwoCamerasTest.MainForm Pages: 1 -->
<svg width="285pt" height="205pt"
 viewBox="0.00 0.00 284.50 205.00" xmlns="http://www.w3.org/2000/svg" xmlns:xlink="http://www.w3.org/1999/xlink">
<g id="graph0" class="graph" transform="scale(1 1) rotate(0) translate(4 201)">
<title>TwoCamerasTest.MainForm</title>
<polygon fill="white" stroke="none" points="-4,4 -4,-201 280.5,-201 280.5,4 -4,4"/>
<!-- Node1 -->
<g id="node1" class="node"><title>Node1</title>
<g id="a_node1"><a xlink:title=" ">
<polygon fill="#bfbfbf" stroke="black" points="12.5,-0.5 12.5,-19.5 150.5,-19.5 150.5,-0.5 12.5,-0.5"/>
<text text-anchor="middle" x="81.5" y="-7.5" font-family="Helvetica,sans-Serif" font-size="10.00">TwoCamerasTest.MainForm</text>
</a>
</g>
</g>
<!-- Node2 -->
<g id="node2" class="node"><title>Node2</title>
<g id="a_node2"><a xlink:title=" ">
<polygon fill="white" stroke="#bfbfbf" points="0,-177.5 0,-196.5 39,-196.5 39,-177.5 0,-177.5"/>
<text text-anchor="middle" x="19.5" y="-184.5" font-family="Helvetica,sans-Serif" font-size="10.00">Form</text>
</a>
</g>
</g>
<!-- Node2&#45;&gt;Node1 -->
<g id="edge1" class="edge"><title>Node2&#45;&gt;Node1</title>
<path fill="none" stroke="midnightblue" d="M26.0771,-167.436C39.3362,-130.011 68.8272,-46.7699 78.4201,-19.6932"/>
<polygon fill="midnightblue" stroke="midnightblue" points="22.7003,-166.486 22.6598,-177.081 29.2984,-168.824 22.7003,-166.486"/>
</g>
<!-- Node3 -->
<g id="node3" class="node"><title>Node3</title>
<g id="a_node3"><a xlink:title=" ">
<polygon fill="white" stroke="#bfbfbf" points="57.5,-177.5 57.5,-196.5 105.5,-196.5 105.5,-177.5 57.5,-177.5"/>
<text text-anchor="middle" x="81.5" y="-184.5" font-family="Helvetica,sans-Serif" font-size="10.00">AForge</text>
</a>
</g>
</g>
<!-- Node3&#45;&gt;Node1 -->
<g id="edge2" class="edge"><title>Node3&#45;&gt;Node1</title>
<path fill="none" stroke="#9a32cd" stroke-dasharray="5,2" d="M81.5,-166.951C81.5,-129.297 81.5,-46.6537 81.5,-19.6932"/>
<polygon fill="#9a32cd" stroke="#9a32cd" points="78.0001,-167.081 81.5,-177.081 85.0001,-167.081 78.0001,-167.081"/>
<text text-anchor="middle" x="126" y="-101.5" font-family="Helvetica,sans-Serif" font-size="10.00"> videoSourcePlayer2</text>
<text text-anchor="middle" x="126" y="-90.5" font-family="Helvetica,sans-Serif" font-size="10.00">videoSourcePlayer1</text>
</g>
<!-- Node4 -->
<g id="node4" class="node"><title>Node4</title>
<g id="a_node4"><a xlink:title=" ">
<polygon fill="white" stroke="#bfbfbf" points="168.5,-177.5 168.5,-196.5 218.5,-196.5 218.5,-177.5 168.5,-177.5"/>
<text text-anchor="middle" x="193.5" y="-184.5" font-family="Helvetica,sans-Serif" font-size="10.00">System</text>
</a>
</g>
</g>
<!-- Node4&#45;&gt;Node1 -->
<g id="edge3" class="edge"><title>Node4&#45;&gt;Node1</title>
<path fill="none" stroke="#9a32cd" stroke-dasharray="5,2" d="M196.544,-167.154C200.4,-136.247 203.157,-74.5741 171.5,-38 164.134,-29.4893 154.2,-23.6049 143.618,-19.5494"/>
<polygon fill="#9a32cd" stroke="#9a32cd" points="193.034,-166.982 195.082,-177.377 199.963,-167.973 193.034,-166.982"/>
<text text-anchor="middle" x="237.5" y="-151" font-family="Helvetica,sans-Serif" font-size="10.00"> stopButton</text>
<text text-anchor="middle" x="237.5" y="-140" font-family="Helvetica,sans-Serif" font-size="10.00">camera2FpsLabel</text>
<text text-anchor="middle" x="237.5" y="-129" font-family="Helvetica,sans-Serif" font-size="10.00">startButton</text>
<text text-anchor="middle" x="237.5" y="-118" font-family="Helvetica,sans-Serif" font-size="10.00">groupBox1</text>
<text text-anchor="middle" x="237.5" y="-107" font-family="Helvetica,sans-Serif" font-size="10.00">groupBox2</text>
<text text-anchor="middle" x="237.5" y="-96" font-family="Helvetica,sans-Serif" font-size="10.00">components</text>
<text text-anchor="middle" x="237.5" y="-85" font-family="Helvetica,sans-Serif" font-size="10.00">camera2Combo</text>
<text text-anchor="middle" x="237.5" y="-74" font-family="Helvetica,sans-Serif" font-size="10.00">timer</text>
<text text-anchor="middle" x="237.5" y="-63" font-family="Helvetica,sans-Serif" font-size="10.00">camera1Combo</text>
<text text-anchor="middle" x="237.5" y="-52" font-family="Helvetica,sans-Serif" font-size="10.00">camera1FpsLabel</text>
<text text-anchor="middle" x="237.5" y="-41" font-family="Helvetica,sans-Serif" font-size="10.00">...</text>
</g>
</g>
</svg>
