<?xml version="1.0" encoding="UTF-8" standalone="no"?>
<!DOCTYPE svg PUBLIC "-//W3C//DTD SVG 1.1//EN"
 "http://www.w3.org/Graphics/SVG/1.1/DTD/svg11.dtd">
<!-- Generated by graphviz version 2.38.0 (20140413.2041)
 -->
<!-- Title: IG.Gr.ZedGraphWindow Pages: 1 -->
<svg width="235pt" height="139pt"
 viewBox="0.00 0.00 234.50 139.00" xmlns="http://www.w3.org/2000/svg" xmlns:xlink="http://www.w3.org/1999/xlink">
<g id="graph0" class="graph" transform="scale(1 1) rotate(0) translate(4 135)">
<title>IG.Gr.ZedGraphWindow</title>
<polygon fill="white" stroke="none" points="-4,4 -4,-135 230.5,-135 230.5,4 -4,4"/>
<!-- Node1 -->
<g id="node1" class="node"><title>Node1</title>
<g id="a_node1"><a xlink:title="Window form containing a Zedgraph control for plotting graphs.">
<polygon fill="#bfbfbf" stroke="black" points="27,-0.5 27,-19.5 146,-19.5 146,-0.5 27,-0.5"/>
<text text-anchor="middle" x="86.5" y="-7.5" font-family="Helvetica,sans-Serif" font-size="10.00">IG.Gr.ZedGraphWindow</text>
</a>
</g>
</g>
<!-- Node2 -->
<g id="node2" class="node"><title>Node2</title>
<g id="a_node2"><a xlink:title=" ">
<polygon fill="white" stroke="#bfbfbf" points="0,-111.5 0,-130.5 39,-130.5 39,-111.5 0,-111.5"/>
<text text-anchor="middle" x="19.5" y="-118.5" font-family="Helvetica,sans-Serif" font-size="10.00">Form</text>
</a>
</g>
</g>
<!-- Node2&#45;&gt;Node1 -->
<g id="edge1" class="edge"><title>Node2&#45;&gt;Node1</title>
<path fill="none" stroke="midnightblue" d="M30.0741,-102.797C44.6289,-79.1186 70.2808,-37.3865 81.267,-19.5133"/>
<polygon fill="midnightblue" stroke="midnightblue" points="27.0123,-101.095 24.7574,-111.447 32.9758,-104.761 27.0123,-101.095"/>
</g>
<!-- Node3 -->
<g id="node3" class="node"><title>Node3</title>
<g id="a_node3"><a xlink:title=" ">
<polygon fill="white" stroke="#bfbfbf" points="57,-111.5 57,-130.5 116,-130.5 116,-111.5 57,-111.5"/>
<text text-anchor="middle" x="86.5" y="-118.5" font-family="Helvetica,sans-Serif" font-size="10.00">ZedGraph</text>
</a>
</g>
</g>
<!-- Node3&#45;&gt;Node1 -->
<g id="edge2" class="edge"><title>Node3&#45;&gt;Node1</title>
<path fill="none" stroke="#9a32cd" stroke-dasharray="5,2" d="M86.5,-101.193C86.5,-77.2756 86.5,-36.9893 86.5,-19.5133"/>
<polygon fill="#9a32cd" stroke="#9a32cd" points="83.0001,-101.447 86.5,-111.447 90.0001,-101.447 83.0001,-101.447"/>
<text text-anchor="middle" x="118.5" y="-63" font-family="Helvetica,sans-Serif" font-size="10.00"> _graphControl</text>
</g>
<!-- Node4 -->
<g id="node4" class="node"><title>Node4</title>
<g id="a_node4"><a xlink:title=" ">
<polygon fill="white" stroke="#bfbfbf" points="148.5,-111.5 148.5,-130.5 198.5,-130.5 198.5,-111.5 148.5,-111.5"/>
<text text-anchor="middle" x="173.5" y="-118.5" font-family="Helvetica,sans-Serif" font-size="10.00">System</text>
</a>
</g>
</g>
<!-- Node4&#45;&gt;Node1 -->
<g id="edge3" class="edge"><title>Node4&#45;&gt;Node1</title>
<path fill="none" stroke="#9a32cd" stroke-dasharray="5,2" d="M173.051,-100.936C171.647,-82.7309 166.874,-55.5422 151.5,-38 144.01,-29.4534 133.384,-23.5532 122.888,-19.5045"/>
<polygon fill="#9a32cd" stroke="#9a32cd" points="169.568,-101.364 173.56,-111.178 176.559,-101.017 169.568,-101.364"/>
<text text-anchor="middle" x="199.5" y="-85" font-family="Helvetica,sans-Serif" font-size="10.00"> panel1</text>
<text text-anchor="middle" x="199.5" y="-74" font-family="Helvetica,sans-Serif" font-size="10.00">grbox1</text>
<text text-anchor="middle" x="199.5" y="-63" font-family="Helvetica,sans-Serif" font-size="10.00">chkBlackBg</text>
<text text-anchor="middle" x="199.5" y="-52" font-family="Helvetica,sans-Serif" font-size="10.00">components</text>
<text text-anchor="middle" x="199.5" y="-41" font-family="Helvetica,sans-Serif" font-size="10.00">btnCancel</text>
</g>
</g>
</svg>
