<?xml version="1.0" encoding="UTF-8" standalone="no"?>
<!DOCTYPE svg PUBLIC "-//W3C//DTD SVG 1.1//EN"
 "http://www.w3.org/Graphics/SVG/1.1/DTD/svg11.dtd">
<!-- Generated by graphviz version 2.38.0 (20140413.2041)
 -->
<!-- Title: IG.Lib.FindingConstGolnik Pages: 1 -->
<svg width="198pt" height="152pt"
 viewBox="0.00 0.00 198.00 152.00" xmlns="http://www.w3.org/2000/svg" xmlns:xlink="http://www.w3.org/1999/xlink">
<g id="graph0" class="graph" transform="scale(1 1) rotate(0) translate(4 148)">
<title>IG.Lib.FindingConstGolnik</title>
<polygon fill="white" stroke="none" points="-4,4 -4,-148 194,-148 194,4 -4,4"/>
<!-- Node1 -->
<g id="node1" class="node"><title>Node1</title>
<g id="a_node1"><a xlink:title="Here one can handle specifics with respect to different variants of the program for different custome...">
<polygon fill="#bfbfbf" stroke="black" points="32,-0.5 32,-19.5 162,-19.5 162,-0.5 32,-0.5"/>
<text text-anchor="middle" x="97" y="-7.5" font-family="Helvetica,sans-Serif" font-size="10.00">IG.Lib.FindingConstGolnik</text>
</a>
</g>
</g>
<!-- Node2 -->
<g id="node2" class="node"><title>Node2</title>
<g id="a_node2"><a xlink:href="../../d0/dd1/classIG_1_1Lib_1_1FindingsConst.html" target="_top" xlink:title=" ">
<polygon fill="white" stroke="black" points="57.5,-57.5 57.5,-76.5 136.5,-76.5 136.5,-57.5 57.5,-57.5"/>
<text text-anchor="middle" x="97" y="-64.5" font-family="Helvetica,sans-Serif" font-size="10.00">FindingsConst</text>
</a>
</g>
</g>
<!-- Node2&#45;&gt;Node1 -->
<g id="edge1" class="edge"><title>Node2&#45;&gt;Node1</title>
<path fill="none" stroke="midnightblue" d="M97,-47.1166C97,-37.8173 97,-27.0557 97,-19.7149"/>
<polygon fill="midnightblue" stroke="midnightblue" points="93.5001,-47.4062 97,-57.4063 100.5,-47.4063 93.5001,-47.4062"/>
</g>
<!-- Node3 -->
<g id="node3" class="node"><title>Node3</title>
<g id="a_node3"><a xlink:href="../../d5/d08/classIG_1_1Lib_1_1FindingsConsttBase.html" target="_top" xlink:title="Contains various names and other constants used in findings.">
<polygon fill="white" stroke="black" points="0,-124.5 0,-143.5 104,-143.5 104,-124.5 0,-124.5"/>
<text text-anchor="middle" x="52" y="-131.5" font-family="Helvetica,sans-Serif" font-size="10.00">FindingsConsttBase</text>
</a>
</g>
</g>
<!-- Node3&#45;&gt;Node2 -->
<g id="edge2" class="edge"><title>Node3&#45;&gt;Node2</title>
<path fill="none" stroke="midnightblue" d="M63.8359,-115.904C72.5803,-103.273 84.1202,-86.6041 91.0273,-76.6273"/>
<polygon fill="midnightblue" stroke="midnightblue" points="60.8834,-114.02 58.0689,-124.234 66.6387,-118.004 60.8834,-114.02"/>
</g>
<!-- Node4 -->
<g id="node4" class="node"><title>Node4</title>
<g id="a_node4"><a xlink:title=" ">
<polygon fill="white" stroke="#bfbfbf" points="122.5,-124.5 122.5,-143.5 163.5,-143.5 163.5,-124.5 122.5,-124.5"/>
<text text-anchor="middle" x="143" y="-131.5" font-family="Helvetica,sans-Serif" font-size="10.00">static</text>
</a>
</g>
</g>
<!-- Node4&#45;&gt;Node2 -->
<g id="edge3" class="edge"><title>Node4&#45;&gt;Node2</title>
<path fill="none" stroke="#9a32cd" stroke-dasharray="5,2" d="M130.901,-115.904C121.962,-103.273 110.166,-86.6041 103.105,-76.6273"/>
<polygon fill="#9a32cd" stroke="#9a32cd" points="128.163,-118.093 136.796,-124.234 133.876,-114.049 128.163,-118.093"/>
<text text-anchor="middle" x="156.5" y="-98" font-family="Helvetica,sans-Serif" font-size="10.00"> _findingsConst</text>
</g>
</g>
</svg>
