<?xml version="1.0" encoding="UTF-8" standalone="no"?>
<!DOCTYPE svg PUBLIC "-//W3C//DTD SVG 1.1//EN"
 "http://www.w3.org/Graphics/SVG/1.1/DTD/svg11.dtd">
<!-- Generated by graphviz version 2.38.0 (20140413.2041)
 -->
<!-- Title: NUnit.Framework.Constraints.EqualityAdapter.ComparisonAdapter&lt; T &gt; Pages: 1 -->
<svg width="205pt" height="151pt"
 viewBox="0.00 0.00 205.00 151.00" xmlns="http://www.w3.org/2000/svg" xmlns:xlink="http://www.w3.org/1999/xlink">
<g id="graph0" class="graph" transform="scale(1 1) rotate(0) translate(4 147)">
<title>NUnit.Framework.Constraints.EqualityAdapter.ComparisonAdapter&lt; T &gt;</title>
<polygon fill="white" stroke="none" points="-4,4 -4,-147 201,-147 201,4 -4,4"/>
<!-- Node1 -->
<g id="node1" class="node"><title>Node1</title>
<g id="a_node1"><a xlink:title=" ">
<polygon fill="#bfbfbf" stroke="black" points="0,-0.5 0,-30.5 197,-30.5 197,-0.5 0,-0.5"/>
<text text-anchor="start" x="8" y="-18.5" font-family="Helvetica,sans-Serif" font-size="10.00">NUnit.Framework.Constraints.</text>
<text text-anchor="middle" x="98.5" y="-7.5" font-family="Helvetica,sans-Serif" font-size="10.00">EqualityAdapter.ComparisonAdapter&lt; T &gt;</text>
</a>
</g>
</g>
<!-- Node2 -->
<g id="node2" class="node"><title>Node2</title>
<g id="a_node2"><a xlink:href="../../d1/d7f/classNUnit_1_1Framework_1_1Constraints_1_1EqualityAdapter_1_1GenericEqualityAdapter.html" target="_top" xlink:title=" ">
<polygon fill="white" stroke="black" points="27,-67.5 27,-86.5 170,-86.5 170,-67.5 27,-67.5"/>
<text text-anchor="middle" x="98.5" y="-74.5" font-family="Helvetica,sans-Serif" font-size="10.00">GenericEqualityAdapter&lt; T &gt;</text>
</a>
</g>
</g>
<!-- Node2&#45;&gt;Node1 -->
<g id="edge1" class="edge"><title>Node2&#45;&gt;Node1</title>
<path fill="none" stroke="midnightblue" d="M98.5,-57.2349C98.5,-48.5864 98.5,-38.4969 98.5,-30.523"/>
<polygon fill="midnightblue" stroke="midnightblue" points="95.0001,-57.4751 98.5,-67.4751 102,-57.4751 95.0001,-57.4751"/>
</g>
<!-- Node3 -->
<g id="node3" class="node"><title>Node3</title>
<g id="a_node3"><a xlink:href="../../da/d28/classNUnit_1_1Framework_1_1Constraints_1_1EqualityAdapter.html" target="_top" xlink:title="EqualityAdapter class handles all equality comparisons that use an IEqualityComparer,...">
<polygon fill="white" stroke="black" points="55.5,-123.5 55.5,-142.5 141.5,-142.5 141.5,-123.5 55.5,-123.5"/>
<text text-anchor="middle" x="98.5" y="-130.5" font-family="Helvetica,sans-Serif" font-size="10.00">EqualityAdapter</text>
</a>
</g>
</g>
<!-- Node3&#45;&gt;Node2 -->
<g id="edge2" class="edge"><title>Node3&#45;&gt;Node2</title>
<path fill="none" stroke="midnightblue" d="M98.5,-112.805C98.5,-103.91 98.5,-93.7798 98.5,-86.7511"/>
<polygon fill="midnightblue" stroke="midnightblue" points="95.0001,-113.083 98.5,-123.083 102,-113.083 95.0001,-113.083"/>
</g>
</g>
</svg>
