<?xml version="1.0" encoding="UTF-8" standalone="no"?>
<!DOCTYPE svg PUBLIC "-//W3C//DTD SVG 1.1//EN"
 "http://www.w3.org/Graphics/SVG/1.1/DTD/svg11.dtd">
<!-- Generated by graphviz version 2.38.0 (20140413.2041)
 -->
<!-- Title: AForge.Neuro.Layer Pages: 1 -->
<svg width="118pt" height="173pt"
 viewBox="0.00 0.00 118.00 173.00" xmlns="http://www.w3.org/2000/svg" xmlns:xlink="http://www.w3.org/1999/xlink">
<g id="graph0" class="graph" transform="scale(1 1) rotate(0) translate(4 169)">
<title>AForge.Neuro.Layer</title>
<polygon fill="white" stroke="none" points="-4,4 -4,-169 114,-169 114,4 -4,4"/>
<!-- Node1 -->
<g id="node1" class="node"><title>Node1</title>
<g id="a_node1"><a xlink:title="Base neural layer class">
<polygon fill="#bfbfbf" stroke="black" points="3,-0.5 3,-19.5 107,-19.5 107,-0.5 3,-0.5"/>
<text text-anchor="middle" x="55" y="-7.5" font-family="Helvetica,sans-Serif" font-size="10.00">AForge.Neuro.Layer</text>
</a>
</g>
</g>
<!-- Node2 -->
<g id="node2" class="node"><title>Node2</title>
<g id="a_node2"><a xlink:href="../../d9/d64/classAForge_1_1Neuro_1_1Neuron.html" target="_top" xlink:title="Base neuron class">
<polygon fill="white" stroke="black" points="0,-67.5 0,-86.5 110,-86.5 110,-67.5 0,-67.5"/>
<text text-anchor="middle" x="55" y="-74.5" font-family="Helvetica,sans-Serif" font-size="10.00">AForge.Neuro.Neuron</text>
</a>
</g>
</g>
<!-- Node2&#45;&gt;Node1 -->
<g id="edge1" class="edge"><title>Node2&#45;&gt;Node1</title>
<path fill="none" stroke="#9a32cd" stroke-dasharray="5,2" d="M55,-57.037C55,-44.6703 55,-29.1198 55,-19.6273"/>
<polygon fill="#9a32cd" stroke="#9a32cd" points="51.5001,-57.2338 55,-67.2338 58.5001,-57.2338 51.5001,-57.2338"/>
<text text-anchor="middle" x="74" y="-41" font-family="Helvetica,sans-Serif" font-size="10.00"> neurons</text>
</g>
<!-- Node3 -->
<g id="node3" class="node"><title>Node3</title>
<g id="a_node3"><a xlink:title=" ">
<polygon fill="white" stroke="#bfbfbf" points="34.5,-145.5 34.5,-164.5 75.5,-164.5 75.5,-145.5 34.5,-145.5"/>
<text text-anchor="middle" x="55" y="-152.5" font-family="Helvetica,sans-Serif" font-size="10.00">static</text>
</a>
</g>
</g>
<!-- Node3&#45;&gt;Node2 -->
<g id="edge2" class="edge"><title>Node3&#45;&gt;Node2</title>
<path fill="none" stroke="#9a32cd" stroke-dasharray="5,2" d="M55,-135.224C55,-119.697 55,-98.3582 55,-86.6165"/>
<polygon fill="#9a32cd" stroke="#9a32cd" points="51.5001,-135.282 55,-145.282 58.5001,-135.282 51.5001,-135.282"/>
<text text-anchor="middle" x="78.5" y="-119" font-family="Helvetica,sans-Serif" font-size="10.00"> rand</text>
<text text-anchor="middle" x="78.5" y="-108" font-family="Helvetica,sans-Serif" font-size="10.00">randRange</text>
</g>
</g>
</svg>
