<?xml version="1.0" encoding="UTF-8" standalone="no"?>
<!DOCTYPE svg PUBLIC "-//W3C//DTD SVG 1.1//EN"
 "http://www.w3.org/Graphics/SVG/1.1/DTD/svg11.dtd">
<!-- Generated by graphviz version 2.38.0 (20140413.2041)
 -->
<!-- Title: IG.Forms.NeuralInputControl Pages: 1 -->
<svg width="285pt" height="216pt"
 viewBox="0.00 0.00 285.00 216.00" xmlns="http://www.w3.org/2000/svg" xmlns:xlink="http://www.w3.org/1999/xlink">
<g id="graph0" class="graph" transform="scale(1 1) rotate(0) translate(4 212)">
<title>IG.Forms.NeuralInputControl</title>
<polygon fill="white" stroke="none" points="-4,4 -4,-212 281,-212 281,4 -4,4"/>
<!-- Node1 -->
<g id="node1" class="node"><title>Node1</title>
<g id="a_node1"><a xlink:title="Control for editing input parameter values.">
<polygon fill="#bfbfbf" stroke="black" points="41,-0.5 41,-19.5 181,-19.5 181,-0.5 41,-0.5"/>
<text text-anchor="middle" x="111" y="-7.5" font-family="Helvetica,sans-Serif" font-size="10.00">IG.Forms.NeuralInputControl</text>
</a>
</g>
</g>
<!-- Node2 -->
<g id="node2" class="node"><title>Node2</title>
<g id="a_node2"><a xlink:title=" ">
<polygon fill="white" stroke="#bfbfbf" points="0,-188.5 0,-207.5 68,-207.5 68,-188.5 0,-188.5"/>
<text text-anchor="middle" x="34" y="-195.5" font-family="Helvetica,sans-Serif" font-size="10.00">UserControl</text>
</a>
</g>
</g>
<!-- Node2&#45;&gt;Node1 -->
<g id="edge1" class="edge"><title>Node2&#45;&gt;Node1</title>
<path fill="none" stroke="midnightblue" d="M41.6091,-178.62C57.8579,-139.369 95.434,-48.6009 107.323,-19.8812"/>
<polygon fill="midnightblue" stroke="midnightblue" points="38.3051,-177.45 37.7139,-188.029 44.7728,-180.128 38.3051,-177.45"/>
</g>
<!-- Node3 -->
<g id="node3" class="node"><title>Node3</title>
<g id="a_node3"><a xlink:title=" ">
<polygon fill="white" stroke="#bfbfbf" points="86,-188.5 86,-207.5 136,-207.5 136,-188.5 86,-188.5"/>
<text text-anchor="middle" x="111" y="-195.5" font-family="Helvetica,sans-Serif" font-size="10.00">System</text>
</a>
</g>
</g>
<!-- Node3&#45;&gt;Node1 -->
<g id="edge2" class="edge"><title>Node3&#45;&gt;Node1</title>
<path fill="none" stroke="#9a32cd" stroke-dasharray="5,2" d="M111,-177.86C111,-138.211 111,-48.4172 111,-19.8812"/>
<polygon fill="#9a32cd" stroke="#9a32cd" points="107.5,-178.029 111,-188.029 114.5,-178.029 107.5,-178.029"/>
<text text-anchor="middle" x="161.5" y="-162" font-family="Helvetica,sans-Serif" font-size="10.00"> columnValue</text>
<text text-anchor="middle" x="161.5" y="-151" font-family="Helvetica,sans-Serif" font-size="10.00">btnResetDefault</text>
<text text-anchor="middle" x="161.5" y="-140" font-family="Helvetica,sans-Serif" font-size="10.00">btnResetCenter</text>
<text text-anchor="start" x="111" y="-129" font-family="Helvetica,sans-Serif" font-size="10.00">resetToDefaultToolStrip</text>
<text text-anchor="middle" x="161.5" y="-118" font-family="Helvetica,sans-Serif" font-size="10.00">MenuItem</text>
<text text-anchor="middle" x="161.5" y="-107" font-family="Helvetica,sans-Serif" font-size="10.00">columnName</text>
<text text-anchor="middle" x="161.5" y="-96" font-family="Helvetica,sans-Serif" font-size="10.00">groupBox1</text>
<text text-anchor="middle" x="161.5" y="-85" font-family="Helvetica,sans-Serif" font-size="10.00">components</text>
<text text-anchor="middle" x="161.5" y="-74" font-family="Helvetica,sans-Serif" font-size="10.00">contextMenuControl</text>
<text text-anchor="middle" x="161.5" y="-63" font-family="Helvetica,sans-Serif" font-size="10.00">columnID</text>
<text text-anchor="middle" x="161.5" y="-52" font-family="Helvetica,sans-Serif" font-size="10.00">dGridInputParam</text>
<text text-anchor="middle" x="161.5" y="-41" font-family="Helvetica,sans-Serif" font-size="10.00">...</text>
</g>
<!-- Node4 -->
<g id="node4" class="node"><title>Node4</title>
<g id="a_node4"><a xlink:title=" ">
<polygon fill="white" stroke="#bfbfbf" points="220.5,-188.5 220.5,-207.5 249.5,-207.5 249.5,-188.5 220.5,-188.5"/>
<text text-anchor="middle" x="235" y="-195.5" font-family="Helvetica,sans-Serif" font-size="10.00">IG</text>
</a>
</g>
</g>
<!-- Node4&#45;&gt;Node1 -->
<g id="edge3" class="edge"><title>Node4&#45;&gt;Node1</title>
<path fill="none" stroke="#9a32cd" stroke-dasharray="5,2" d="M238.394,-178.463C243.236,-145.765 248.035,-77.5647 213,-38 204.56,-28.4687 193.185,-22.1226 181.09,-17.9347"/>
<polygon fill="#9a32cd" stroke="#9a32cd" points="234.922,-178.006 236.745,-188.443 241.828,-179.148 234.922,-178.006"/>
<text text-anchor="middle" x="259" y="-101.5" font-family="Helvetica,sans-Serif" font-size="10.00"> _values</text>
</g>
</g>
</svg>
