<?xml version="1.0" encoding="UTF-8" standalone="no"?>
<!DOCTYPE svg PUBLIC "-//W3C//DTD SVG 1.1//EN"
 "http://www.w3.org/Graphics/SVG/1.1/DTD/svg11.dtd">
<!-- Generated by graphviz version 2.38.0 (20140413.2041)
 -->
<!-- Title: IG.Forms.ServerForm Pages: 1 -->
<svg width="138pt" height="95pt"
 viewBox="0.00 0.00 138.00 95.00" xmlns="http://www.w3.org/2000/svg" xmlns:xlink="http://www.w3.org/1999/xlink">
<g id="graph0" class="graph" transform="scale(1 1) rotate(0) translate(4 91)">
<title>IG.Forms.ServerForm</title>
<polygon fill="white" stroke="none" points="-4,4 -4,-91 134,-91 134,4 -4,4"/>
<!-- Node1 -->
<g id="node1" class="node"><title>Node1</title>
<g id="a_node1"><a xlink:title=" ">
<polygon fill="#bfbfbf" stroke="black" points="0,-0.5 0,-19.5 110,-19.5 110,-0.5 0,-0.5"/>
<text text-anchor="middle" x="55" y="-7.5" font-family="Helvetica,sans-Serif" font-size="10.00">IG.Forms.ServerForm</text>
</a>
</g>
</g>
<!-- Node2 -->
<g id="node2" class="node"><title>Node2</title>
<g id="a_node2"><a xlink:title=" ">
<polygon fill="white" stroke="#bfbfbf" points="4.5,-67.5 4.5,-86.5 43.5,-86.5 43.5,-67.5 4.5,-67.5"/>
<text text-anchor="middle" x="24" y="-74.5" font-family="Helvetica,sans-Serif" font-size="10.00">Form</text>
</a>
</g>
</g>
<!-- Node2&#45;&gt;Node1 -->
<g id="edge1" class="edge"><title>Node2&#45;&gt;Node1</title>
<path fill="none" stroke="midnightblue" d="M32.5067,-58.1635C38.4851,-45.6281 46.2197,-29.4104 50.8854,-19.6273"/>
<polygon fill="midnightblue" stroke="midnightblue" points="29.3265,-56.7011 28.1808,-67.2338 35.6447,-59.7144 29.3265,-56.7011"/>
</g>
<!-- Node3 -->
<g id="node3" class="node"><title>Node3</title>
<g id="a_node3"><a xlink:title=" ">
<polygon fill="white" stroke="#bfbfbf" points="62,-67.5 62,-86.5 112,-86.5 112,-67.5 62,-67.5"/>
<text text-anchor="middle" x="87" y="-74.5" font-family="Helvetica,sans-Serif" font-size="10.00">System</text>
</a>
</g>
</g>
<!-- Node3&#45;&gt;Node1 -->
<g id="edge2" class="edge"><title>Node3&#45;&gt;Node1</title>
<path fill="none" stroke="#9a32cd" stroke-dasharray="5,2" d="M78.2189,-58.1635C72.0477,-45.6281 64.0636,-29.4104 59.2473,-19.6273"/>
<polygon fill="#9a32cd" stroke="#9a32cd" points="75.1273,-59.808 82.6843,-67.2338 81.4075,-56.7162 75.1273,-59.808"/>
<text text-anchor="middle" x="101.5" y="-41" font-family="Helvetica,sans-Serif" font-size="10.00"> components</text>
</g>
</g>
</svg>
