<?xml version="1.0" encoding="UTF-8" standalone="no"?>
<!DOCTYPE svg PUBLIC "-//W3C//DTD SVG 1.1//EN"
 "http://www.w3.org/Graphics/SVG/1.1/DTD/svg11.dtd">
<!-- Generated by graphviz version 2.38.0 (20140413.2041)
 -->
<!-- Title: DotNumerics.LinearAlgebra.CSLapack.DLARZ Pages: 1 -->
<!--zoomable 237 -->
<svg id="main" version="1.1" xmlns="http://www.w3.org/2000/svg" xmlns:xlink="http://www.w3.org/1999/xlink" xml:space="preserve" onload="init(evt)">
<style type="text/css"><![CDATA[
.edge:hover path { stroke: red; }
.edge:hover polygon { stroke: red; fill: red; }
]]></style>
<script type="text/javascript"><![CDATA[
var edges = document.getElementsByTagName('g');
if (edges && edges.length) {
  for (var i=0;i<edges.length;i++) {
    if (edges[i].id.substr(0,4)=='edge') {
      edges[i].setAttribute('class','edge');
    }
  }
}
]]></script>
        <defs>
                <circle id="rim" cx="0" cy="0" r="7"/>
                <circle id="rim2" cx="0" cy="0" r="3.5"/>
                <g id="zoomPlus">
                        <use xlink:href="#rim" fill="#404040">
                                <set attributeName="fill" to="#808080" begin="zoomplus.mouseover" end="zoomplus.mouseout"/>
                        </use>
                        <path d="M-4,0h8M0,-4v8" fill="none" stroke="white" stroke-width="1.5" pointer-events="none"/>
                </g>
                <g id="zoomMin">
                        <use xlink:href="#rim" fill="#404040">
                                <set attributeName="fill" to="#808080" begin="zoomminus.mouseover" end="zoomminus.mouseout"/>
                        </use>
                        <path d="M-4,0h8" fill="none" stroke="white" stroke-width="1.5" pointer-events="none"/>
                </g>
                <g id="dirArrow">
                        <path fill="none" stroke="white" stroke-width="1.5" d="M0,-3.0v7 M-2.5,-0.5L0,-3.0L2.5,-0.5"/>
                </g>
               <g id="resetDef">
                       <use xlink:href="#rim2" fill="#404040">
                               <set attributeName="fill" to="#808080" begin="reset.mouseover" end="reset.mouseout"/>
                       </use>
               </g>
        </defs>

<script type="text/javascript">
var viewWidth = 566;
var viewHeight = 237;
var sectionId = 'dynsection-0';
</script>
<script xlink:href="../../svgpan.js"/>
<svg id="graph" class="graph">
<g id="viewport">
<title>DotNumerics.LinearAlgebra.CSLapack.DLARZ</title>
<polygon fill="white" stroke="none" points="-4,4 -4,-233 562,-233 562,4 -4,4"/>
<!-- Node1 -->
<g id="node1" class="node"><title>Node1</title>
<g id="a_node1"><a xlink:title="– LAPACK routine (version 3.1) – Univ. of Tennessee, Univ. of California Berkeley and NAG Ltd....">
<polygon fill="#bfbfbf" stroke="black" points="420,-101.5 420,-131.5 558,-131.5 558,-101.5 420,-101.5"/>
<text text-anchor="start" x="428" y="-119.5" font-family="Helvetica,sans-Serif" font-size="10.00">DotNumerics.LinearAlgebra.</text>
<text text-anchor="middle" x="489" y="-108.5" font-family="Helvetica,sans-Serif" font-size="10.00">CSLapack.DLARZ</text>
</a>
</g>
</g>
<!-- Node2 -->
<g id="node2" class="node"><title>Node2</title>
<g id="a_node2"><a xlink:href="../../df/dc3/classDotNumerics_1_1LinearAlgebra_1_1CSLapack_1_1DGER.html" target="_top" xlink:title=" ">
<polygon fill="white" stroke="black" points="209,-198.5 209,-228.5 347,-228.5 347,-198.5 209,-198.5"/>
<text text-anchor="start" x="217" y="-216.5" font-family="Helvetica,sans-Serif" font-size="10.00">DotNumerics.LinearAlgebra.</text>
<text text-anchor="middle" x="278" y="-205.5" font-family="Helvetica,sans-Serif" font-size="10.00">CSLapack.DGER</text>
</a>
</g>
</g>
<!-- Node2&#45;&gt;Node1 -->
<g id="edge1" class="edge"><title>Node2&#45;&gt;Node1</title>
<path fill="none" stroke="#9a32cd" stroke-dasharray="5,2" d="M326.335,-194.469C333.296,-191.538 340.356,-188.49 347,-185.5 386.019,-167.942 430.211,-145.968 458.555,-131.598"/>
<polygon fill="#9a32cd" stroke="#9a32cd" points="324.836,-191.302 316.952,-198.379 327.529,-197.764 324.836,-191.302"/>
<text text-anchor="middle" x="383.5" y="-180.5" font-family="Helvetica,sans-Serif" font-size="10.00"> _dger</text>
</g>
<!-- Node3 -->
<g id="node3" class="node"><title>Node3</title>
<g id="a_node3"><a xlink:href="../../db/d6a/classDotNumerics_1_1LinearAlgebra_1_1CSLapack_1_1XERBLA.html" target="_top" xlink:title="– LAPACK auxiliary routine (version 3.1) – Univ. of Tennessee, Univ. of California Berkeley and NAG L...">
<polygon fill="white" stroke="black" points="0,-180.5 0,-210.5 138,-210.5 138,-180.5 0,-180.5"/>
<text text-anchor="start" x="8" y="-198.5" font-family="Helvetica,sans-Serif" font-size="10.00">DotNumerics.LinearAlgebra.</text>
<text text-anchor="middle" x="69" y="-187.5" font-family="Helvetica,sans-Serif" font-size="10.00">CSLapack.XERBLA</text>
</a>
</g>
</g>
<!-- Node3&#45;&gt;Node2 -->
<g id="edge2" class="edge"><title>Node3&#45;&gt;Node2</title>
<path fill="none" stroke="#9a32cd" stroke-dasharray="5,2" d="M148.074,-202.289C168.079,-204.029 189.435,-205.886 208.893,-207.578"/>
<polygon fill="#9a32cd" stroke="#9a32cd" points="148.332,-198.798 138.066,-201.419 147.725,-205.772 148.332,-198.798"/>
<text text-anchor="middle" x="173.5" y="-209.5" font-family="Helvetica,sans-Serif" font-size="10.00"> _xerbla</text>
</g>
<!-- Node7 -->
<g id="node7" class="node"><title>Node7</title>
<g id="a_node7"><a xlink:href="../../d7/d97/classDotNumerics_1_1LinearAlgebra_1_1CSLapack_1_1DGEMV.html" target="_top" xlink:title=" ">
<polygon fill="white" stroke="black" points="209,-146.5 209,-176.5 347,-176.5 347,-146.5 209,-146.5"/>
<text text-anchor="start" x="217" y="-164.5" font-family="Helvetica,sans-Serif" font-size="10.00">DotNumerics.LinearAlgebra.</text>
<text text-anchor="middle" x="278" y="-153.5" font-family="Helvetica,sans-Serif" font-size="10.00">CSLapack.DGEMV</text>
</a>
</g>
</g>
<!-- Node3&#45;&gt;Node7 -->
<g id="edge7" class="edge"><title>Node3&#45;&gt;Node7</title>
<path fill="none" stroke="#9a32cd" stroke-dasharray="5,2" d="M148.074,-182.676C168.079,-179.39 189.435,-175.883 208.893,-172.687"/>
<polygon fill="#9a32cd" stroke="#9a32cd" points="147.367,-179.245 138.066,-184.32 148.501,-186.153 147.367,-179.245"/>
<text text-anchor="middle" x="173.5" y="-184.5" font-family="Helvetica,sans-Serif" font-size="10.00"> _xerbla</text>
</g>
<!-- Node4 -->
<g id="node4" class="node"><title>Node4</title>
<g id="a_node4"><a xlink:href="../../d1/d2a/classDotNumerics_1_1LinearAlgebra_1_1CSLapack_1_1DCOPY.html" target="_top" xlink:title=" ">
<polygon fill="white" stroke="black" points="209,-49.5 209,-79.5 347,-79.5 347,-49.5 209,-49.5"/>
<text text-anchor="start" x="217" y="-67.5" font-family="Helvetica,sans-Serif" font-size="10.00">DotNumerics.LinearAlgebra.</text>
<text text-anchor="middle" x="278" y="-56.5" font-family="Helvetica,sans-Serif" font-size="10.00">CSLapack.DCOPY</text>
</a>
</g>
</g>
<!-- Node4&#45;&gt;Node1 -->
<g id="edge3" class="edge"><title>Node4&#45;&gt;Node1</title>
<path fill="none" stroke="#9a32cd" stroke-dasharray="5,2" d="M357.37,-80.8811C372.233,-84.2202 387.627,-87.8377 402,-91.5 413.752,-94.4945 426.327,-97.9851 438.132,-101.392"/>
<polygon fill="#9a32cd" stroke="#9a32cd" points="357.704,-77.3701 347.183,-78.6167 356.185,-84.2033 357.704,-77.3701"/>
<text text-anchor="middle" x="383.5" y="-94.5" font-family="Helvetica,sans-Serif" font-size="10.00"> _dcopy</text>
</g>
<!-- Node5 -->
<g id="node5" class="node"><title>Node5</title>
<g id="a_node5"><a xlink:href="../../dd/dac/classDotNumerics_1_1LinearAlgebra_1_1CSLapack_1_1LSAME.html" target="_top" xlink:title="– LAPACK auxiliary routine (version 3.1) – Univ. of Tennessee, Univ. of California Berkeley and NAG L...">
<polygon fill="white" stroke="black" points="0,-122.5 0,-152.5 138,-152.5 138,-122.5 0,-122.5"/>
<text text-anchor="start" x="8" y="-140.5" font-family="Helvetica,sans-Serif" font-size="10.00">DotNumerics.LinearAlgebra.</text>
<text text-anchor="middle" x="69" y="-129.5" font-family="Helvetica,sans-Serif" font-size="10.00">CSLapack.LSAME</text>
</a>
</g>
</g>
<!-- Node5&#45;&gt;Node1 -->
<g id="edge4" class="edge"><title>Node5&#45;&gt;Node1</title>
<path fill="none" stroke="#9a32cd" stroke-dasharray="5,2" d="M148.366,-129.991C168.139,-128.301 189.336,-126.665 209,-125.5 280.841,-121.243 363.216,-118.897 419.73,-117.676"/>
<polygon fill="#9a32cd" stroke="#9a32cd" points="147.831,-126.524 138.171,-130.877 148.437,-133.498 147.831,-126.524"/>
<text text-anchor="middle" x="278" y="-128.5" font-family="Helvetica,sans-Serif" font-size="10.00"> _lsame</text>
</g>
<!-- Node5&#45;&gt;Node7 -->
<g id="edge8" class="edge"><title>Node5&#45;&gt;Node7</title>
<path fill="none" stroke="#9a32cd" stroke-dasharray="5,2" d="M148.405,-145.69C162.587,-147.238 177.239,-148.881 191,-150.5 196.83,-151.186 202.88,-151.918 208.947,-152.667"/>
<polygon fill="#9a32cd" stroke="#9a32cd" points="148.499,-142.18 138.18,-144.581 147.744,-149.139 148.499,-142.18"/>
<text text-anchor="middle" x="173.5" y="-153.5" font-family="Helvetica,sans-Serif" font-size="10.00"> _lsame</text>
</g>
<!-- Node6 -->
<g id="node6" class="node"><title>Node6</title>
<g id="a_node6"><a xlink:href="../../d4/d70/classDotNumerics_1_1LinearAlgebra_1_1CSLapack_1_1DAXPY.html" target="_top" xlink:title=" ">
<polygon fill="white" stroke="black" points="209,-0.5 209,-30.5 347,-30.5 347,-0.5 209,-0.5"/>
<text text-anchor="start" x="217" y="-18.5" font-family="Helvetica,sans-Serif" font-size="10.00">DotNumerics.LinearAlgebra.</text>
<text text-anchor="middle" x="278" y="-7.5" font-family="Helvetica,sans-Serif" font-size="10.00">CSLapack.DAXPY</text>
</a>
</g>
</g>
<!-- Node6&#45;&gt;Node1 -->
<g id="edge5" class="edge"><title>Node6&#45;&gt;Node1</title>
<path fill="none" stroke="#9a32cd" stroke-dasharray="5,2" d="M334.252,-34.231C338.595,-35.937 342.889,-37.702 347,-39.5 389.293,-57.9956 435.832,-84.7585 463.452,-101.369"/>
<polygon fill="#9a32cd" stroke="#9a32cd" points="335.305,-30.8869 324.714,-30.6006 332.815,-37.429 335.305,-30.8869"/>
<text text-anchor="middle" x="383.5" y="-68.5" font-family="Helvetica,sans-Serif" font-size="10.00"> _daxpy</text>
</g>
<!-- Node7&#45;&gt;Node1 -->
<g id="edge6" class="edge"><title>Node7&#45;&gt;Node1</title>
<path fill="none" stroke="#9a32cd" stroke-dasharray="5,2" d="M357.144,-144.675C377.783,-140.231 399.889,-135.471 419.947,-131.152"/>
<polygon fill="#9a32cd" stroke="#9a32cd" points="356.184,-141.301 347.145,-146.828 357.658,-148.144 356.184,-141.301"/>
<text text-anchor="middle" x="383.5" y="-145.5" font-family="Helvetica,sans-Serif" font-size="10.00"> _dgemv</text>
</g>
</g>
</svg>
        <g id="navigator" transform="translate(0 0)" fill="#404254">
                <rect fill="#f2f5e9" fill-opacity="0.5" stroke="#606060" stroke-width=".5" x="0" y="0" width="60" height="60"/>
                <use id="zoomplus" xlink:href="#zoomPlus" x="17" y="9" onmousedown="handleZoom(evt,'in')"/>
                <use id="zoomminus" xlink:href="#zoomMin" x="42" y="9" onmousedown="handleZoom(evt,'out')"/>
                <use id="reset" xlink:href="#resetDef" x="30" y="36" onmousedown="handleReset()"/>
                <g id="arrowUp" xlink:href="#dirArrow" transform="translate(30 24)" onmousedown="handlePan(0,-1)">
                  <use xlink:href="#rim" fill="#404040">
                        <set attributeName="fill" to="#808080" begin="arrowUp.mouseover" end="arrowUp.mouseout"/>
                  </use>
                  <path fill="none" stroke="white" stroke-width="1.5" d="M0,-3.0v7 M-2.5,-0.5L0,-3.0L2.5,-0.5"/>
                </g>
                <g id="arrowRight" xlink:href="#dirArrow" transform="rotate(90) translate(36 -43)" onmousedown="handlePan(1,0)">
                  <use xlink:href="#rim" fill="#404040">
                        <set attributeName="fill" to="#808080" begin="arrowRight.mouseover" end="arrowRight.mouseout"/>
                  </use>
                  <path fill="none" stroke="white" stroke-width="1.5" d="M0,-3.0v7 M-2.5,-0.5L0,-3.0L2.5,-0.5"/>
                </g>
                <g id="arrowDown" xlink:href="#dirArrow" transform="rotate(180) translate(-30 -48)" onmousedown="handlePan(0,1)">
                  <use xlink:href="#rim" fill="#404040">
                        <set attributeName="fill" to="#808080" begin="arrowDown.mouseover" end="arrowDown.mouseout"/>
                  </use>
                  <path fill="none" stroke="white" stroke-width="1.5" d="M0,-3.0v7 M-2.5,-0.5L0,-3.0L2.5,-0.5"/>
                </g>
                <g id="arrowLeft" xlink:href="#dirArrow" transform="rotate(270) translate(-36 17)" onmousedown="handlePan(-1,0)">
                  <use xlink:href="#rim" fill="#404040">
                        <set attributeName="fill" to="#808080" begin="arrowLeft.mouseover" end="arrowLeft.mouseout"/>
                  </use>
                  <path fill="none" stroke="white" stroke-width="1.5" d="M0,-3.0v7 M-2.5,-0.5L0,-3.0L2.5,-0.5"/>
                </g>
        </g>
        <svg viewBox="0 0 15 15" width="100%" height="30px" preserveAspectRatio="xMaxYMin meet">
         <g id="arrow_out" transform="scale(0.3 0.3)">
          <a xlink:href="classDotNumerics_1_1LinearAlgebra_1_1CSLapack_1_1DLARZ__coll__graph_org.svg" target="_base">
           <rect id="button" ry="5" rx="5" y="6" x="6" height="38" width="38"
                fill="#f2f5e9" fill-opacity="0.5" stroke="#606060" stroke-width="1.0"/>
           <path id="arrow"
             d="M 11.500037,31.436501 C 11.940474,20.09759 22.043105,11.32322 32.158766,21.979434 L 37.068811,17.246167 C 37.068811,17.246167 37.088388,32 37.088388,32 L 22.160133,31.978069 C 22.160133,31.978069 26.997745,27.140456 26.997745,27.140456 C 18.528582,18.264221 13.291696,25.230495 11.500037,31.436501 z"
             style="fill:#404040;"/>
          </a>
         </g>
        </svg>
</svg>
