<?xml version="1.0" encoding="UTF-8" standalone="no"?>
<!DOCTYPE svg PUBLIC "-//W3C//DTD SVG 1.1//EN"
 "http://www.w3.org/Graphics/SVG/1.1/DTD/svg11.dtd">
<!-- Generated by graphviz version 2.38.0 (20140413.2041)
 -->
<!-- Title: Meta.Numerics.Analysis.EvaluationResult Pages: 1 -->
<svg width="344pt" height="106pt"
 viewBox="0.00 0.00 344.00 106.00" xmlns="http://www.w3.org/2000/svg" xmlns:xlink="http://www.w3.org/1999/xlink">
<g id="graph0" class="graph" transform="scale(1 1) rotate(0) translate(4 102)">
<title>Meta.Numerics.Analysis.EvaluationResult</title>
<polygon fill="white" stroke="none" points="-4,4 -4,-102 340,-102 340,4 -4,4"/>
<!-- Node1 -->
<g id="node1" class="node"><title>Node1</title>
<g id="a_node1"><a xlink:title="Represents the result of a function analysis.">
<polygon fill="#bfbfbf" stroke="black" points="88.5,-67.5 88.5,-97.5 258.5,-97.5 258.5,-67.5 88.5,-67.5"/>
<text text-anchor="start" x="96.5" y="-85.5" font-family="Helvetica,sans-Serif" font-size="10.00">Meta.Numerics.Analysis.Evaluation</text>
<text text-anchor="middle" x="173.5" y="-74.5" font-family="Helvetica,sans-Serif" font-size="10.00">Result</text>
</a>
</g>
</g>
<!-- Node2 -->
<g id="node2" class="node"><title>Node2</title>
<g id="a_node2"><a xlink:href="../../d6/d51/classMeta_1_1Numerics_1_1Analysis_1_1IntegrationResult.html" target="_top" xlink:title="Represents the result of a numerical integration.">
<polygon fill="white" stroke="black" points="0,-0.5 0,-30.5 171,-30.5 171,-0.5 0,-0.5"/>
<text text-anchor="start" x="8" y="-18.5" font-family="Helvetica,sans-Serif" font-size="10.00">Meta.Numerics.Analysis.Integration</text>
<text text-anchor="middle" x="85.5" y="-7.5" font-family="Helvetica,sans-Serif" font-size="10.00">Result</text>
</a>
</g>
</g>
<!-- Node1&#45;&gt;Node2 -->
<g id="edge1" class="edge"><title>Node1&#45;&gt;Node2</title>
<path fill="none" stroke="midnightblue" d="M146.357,-61.4511C132.819,-51.4517 116.773,-39.5995 104.557,-30.5765"/>
<polygon fill="midnightblue" stroke="midnightblue" points="144.282,-64.2699 154.405,-67.396 148.441,-58.6393 144.282,-64.2699"/>
</g>
<!-- Node3 -->
<g id="node3" class="node"><title>Node3</title>
<g id="a_node3"><a xlink:href="../../d3/d75/classMeta_1_1Numerics_1_1Analysis_1_1MultiExtremum.html" target="_top" xlink:title="Represents a minimum or maximum of a multidimensional function.">
<polygon fill="white" stroke="black" points="189,-0.5 189,-30.5 336,-30.5 336,-0.5 189,-0.5"/>
<text text-anchor="start" x="197" y="-18.5" font-family="Helvetica,sans-Serif" font-size="10.00">Meta.Numerics.Analysis.Multi</text>
<text text-anchor="middle" x="262.5" y="-7.5" font-family="Helvetica,sans-Serif" font-size="10.00">Extremum</text>
</a>
</g>
</g>
<!-- Node1&#45;&gt;Node3 -->
<g id="edge2" class="edge"><title>Node1&#45;&gt;Node3</title>
<path fill="none" stroke="midnightblue" d="M200.952,-61.4511C214.643,-51.4517 230.871,-39.5995 243.226,-30.5765"/>
<polygon fill="midnightblue" stroke="midnightblue" points="198.823,-58.6716 192.812,-67.396 202.952,-64.3245 198.823,-58.6716"/>
</g>
</g>
</svg>
