<?xml version="1.0" encoding="UTF-8" standalone="no"?>
<!DOCTYPE svg PUBLIC "-//W3C//DTD SVG 1.1//EN"
 "http://www.w3.org/Graphics/SVG/1.1/DTD/svg11.dtd">
<!-- Generated by graphviz version 2.38.0 (20140413.2041)
 -->
<!-- Title: AForge.Video.AsyncVideoSource Pages: 1 -->
<svg width="238pt" height="95pt"
 viewBox="0.00 0.00 237.50 95.00" xmlns="http://www.w3.org/2000/svg" xmlns:xlink="http://www.w3.org/1999/xlink">
<g id="graph0" class="graph" transform="scale(1 1) rotate(0) translate(4 91)">
<title>AForge.Video.AsyncVideoSource</title>
<polygon fill="white" stroke="none" points="-4,4 -4,-91 233.5,-91 233.5,4 -4,4"/>
<!-- Node1 -->
<g id="node1" class="node"><title>Node1</title>
<g id="a_node1"><a xlink:title="Proxy video source for asynchronous processing of another nested video source.">
<polygon fill="#bfbfbf" stroke="black" points="18,-0.5 18,-19.5 180,-19.5 180,-0.5 18,-0.5"/>
<text text-anchor="middle" x="99" y="-7.5" font-family="Helvetica,sans-Serif" font-size="10.00">AForge.Video.AsyncVideoSource</text>
</a>
</g>
</g>
<!-- Node2 -->
<g id="node2" class="node"><title>Node2</title>
<g id="a_node2"><a xlink:href="../../d3/d61/interfaceAForge_1_1Video_1_1IVideoSource.html" target="_top" xlink:title="Video source interface.">
<polygon fill="white" stroke="black" points="0,-67.5 0,-86.5 74,-86.5 74,-67.5 0,-67.5"/>
<text text-anchor="middle" x="37" y="-74.5" font-family="Helvetica,sans-Serif" font-size="10.00">IVideoSource</text>
</a>
</g>
</g>
<!-- Node2&#45;&gt;Node1 -->
<g id="edge1" class="edge"><title>Node2&#45;&gt;Node1</title>
<path fill="none" stroke="midnightblue" d="M52.2646,-59.9968C64.4235,-47.2496 80.9774,-29.8947 90.7709,-19.6273"/>
<polygon fill="midnightblue" stroke="midnightblue" points="49.7311,-57.582 45.3616,-67.2338 54.7964,-62.4134 49.7311,-57.582"/>
</g>
<!-- Node3 -->
<g id="node3" class="node"><title>Node3</title>
<g id="a_node3"><a xlink:href="../../d3/d61/interfaceAForge_1_1Video_1_1IVideoSource.html" target="_top" xlink:title="Video source interface.">
<polygon fill="white" stroke="black" points="92.5,-67.5 92.5,-86.5 229.5,-86.5 229.5,-67.5 92.5,-67.5"/>
<text text-anchor="middle" x="161" y="-74.5" font-family="Helvetica,sans-Serif" font-size="10.00">AForge.Video.IVideoSource</text>
</a>
</g>
</g>
<!-- Node3&#45;&gt;Node1 -->
<g id="edge2" class="edge"><title>Node3&#45;&gt;Node1</title>
<path fill="none" stroke="#9a32cd" stroke-dasharray="5,2" d="M145.735,-59.9968C133.577,-47.2496 117.023,-29.8947 107.229,-19.6273"/>
<polygon fill="#9a32cd" stroke="#9a32cd" points="143.204,-62.4134 152.638,-67.2338 148.269,-57.582 143.204,-62.4134"/>
<text text-anchor="middle" x="178" y="-41" font-family="Helvetica,sans-Serif" font-size="10.00"> nestedVideoSource</text>
</g>
</g>
</svg>
