<?xml version="1.0" encoding="UTF-8" standalone="no"?>
<!DOCTYPE svg PUBLIC "-//W3C//DTD SVG 1.1//EN"
 "http://www.w3.org/Graphics/SVG/1.1/DTD/svg11.dtd">
<!-- Generated by graphviz version 2.38.0 (20140413.2041)
 -->
<!-- Title: IG.Lib.MsgConstObservationEvent Pages: 1 -->
<svg width="454pt" height="277pt"
 viewBox="0.00 0.00 453.50 277.00" xmlns="http://www.w3.org/2000/svg" xmlns:xlink="http://www.w3.org/1999/xlink">
<g id="graph0" class="graph" transform="scale(1 1) rotate(0) translate(4 273)">
<title>IG.Lib.MsgConstObservationEvent</title>
<polygon fill="white" stroke="none" points="-4,4 -4,-273 449.5,-273 449.5,4 -4,4"/>
<!-- Node1 -->
<g id="node1" class="node"><title>Node1</title>
<g id="a_node1"><a xlink:title="Constants related to the ObservationEvent msg. Remark: class MsgConst was composed of different parts...">
<polygon fill="#bfbfbf" stroke="black" points="29.5,-0.5 29.5,-30.5 169.5,-30.5 169.5,-0.5 29.5,-0.5"/>
<text text-anchor="start" x="37.5" y="-18.5" font-family="Helvetica,sans-Serif" font-size="10.00">IG.Lib.MsgConstObservation</text>
<text text-anchor="middle" x="99.5" y="-7.5" font-family="Helvetica,sans-Serif" font-size="10.00">Event</text>
</a>
</g>
</g>
<!-- Node2 -->
<g id="node2" class="node"><title>Node2</title>
<g id="a_node2"><a xlink:href="../../db/db8/classIG_1_1Lib_1_1MsgConstObservationOrder.html" target="_top" xlink:title="Constants related to the ObservationOrder msg. Remark: class MsgConst was composed of different parts...">
<polygon fill="white" stroke="black" points="31.5,-68.5 31.5,-87.5 167.5,-87.5 167.5,-68.5 31.5,-68.5"/>
<text text-anchor="middle" x="99.5" y="-75.5" font-family="Helvetica,sans-Serif" font-size="10.00">MsgConstObservationOrder</text>
</a>
</g>
</g>
<!-- Node2&#45;&gt;Node1 -->
<g id="edge1" class="edge"><title>Node2&#45;&gt;Node1</title>
<path fill="none" stroke="midnightblue" d="M99.5,-58.2154C99.5,-49.3565 99.5,-38.9577 99.5,-30.7587"/>
<polygon fill="midnightblue" stroke="midnightblue" points="96.0001,-58.3318 99.5,-68.3318 103,-58.3319 96.0001,-58.3318"/>
</g>
<!-- Node3 -->
<g id="node3" class="node"><title>Node3</title>
<g id="a_node3"><a xlink:href="../../d5/de1/classIG_1_1Lib_1_1MsgConstCommon.html" target="_top" xlink:title="Common Constants related to messages sent with BIS. Remark: class MsgConst is composed of different p...">
<polygon fill="white" stroke="black" points="14.5,-135.5 14.5,-154.5 114.5,-154.5 114.5,-135.5 14.5,-135.5"/>
<text text-anchor="middle" x="64.5" y="-142.5" font-family="Helvetica,sans-Serif" font-size="10.00">MsgConstCommon</text>
</a>
</g>
</g>
<!-- Node3&#45;&gt;Node2 -->
<g id="edge2" class="edge"><title>Node3&#45;&gt;Node2</title>
<path fill="none" stroke="midnightblue" d="M74.1043,-126.163C80.8541,-113.628 89.5867,-97.4104 94.8545,-87.6273"/>
<polygon fill="midnightblue" stroke="midnightblue" points="70.8797,-124.77 69.2203,-135.234 77.043,-128.088 70.8797,-124.77"/>
</g>
<!-- Node4 -->
<g id="node4" class="node"><title>Node4</title>
<g id="a_node4"><a xlink:href="../../db/db1/interfaceIG_1_1Lib_1_1IReporter.html" target="_top" xlink:title="Interface from which majority of reporters inherit. Includes generic reporting functionality plus tra...">
<polygon fill="white" stroke="black" points="132.5,-135.5 132.5,-154.5 216.5,-154.5 216.5,-135.5 132.5,-135.5"/>
<text text-anchor="middle" x="174.5" y="-142.5" font-family="Helvetica,sans-Serif" font-size="10.00">IG.Lib.IReporter</text>
</a>
</g>
</g>
<!-- Node4&#45;&gt;Node2 -->
<g id="edge3" class="edge"><title>Node4&#45;&gt;Node2</title>
<path fill="none" stroke="#9a32cd" stroke-dasharray="5,2" d="M156.45,-128.356C141.705,-115.578 121.413,-97.9915 109.455,-87.6273"/>
<polygon fill="#9a32cd" stroke="#9a32cd" points="154.536,-131.329 164.385,-135.234 159.121,-126.04 154.536,-131.329"/>
<text text-anchor="middle" x="148.5" y="-109" font-family="Helvetica,sans-Serif" font-size="10.00"> _R</text>
</g>
<!-- Node5 -->
<g id="node5" class="node"><title>Node5</title>
<g id="a_node5"><a xlink:title=" ">
<polygon fill="white" stroke="#bfbfbf" points="0,-192.5 0,-211.5 67,-211.5 67,-192.5 0,-192.5"/>
<text text-anchor="middle" x="33.5" y="-199.5" font-family="Helvetica,sans-Serif" font-size="10.00">IDisposable</text>
</a>
</g>
</g>
<!-- Node5&#45;&gt;Node4 -->
<g id="edge4" class="edge"><title>Node5&#45;&gt;Node4</title>
<path fill="none" stroke="midnightblue" d="M55.2229,-186.807C63.2547,-181.973 72.5787,-176.828 81.5,-173 99.2679,-165.376 119.84,-159.153 137.111,-154.611"/>
<polygon fill="midnightblue" stroke="midnightblue" points="53.1296,-183.988 46.4894,-192.243 56.8287,-189.931 53.1296,-183.988"/>
</g>
<!-- Node6 -->
<g id="node6" class="node"><title>Node6</title>
<g id="a_node6"><a xlink:href="../../de/d0d/interfaceIG_1_1Lib_1_1IReporterBase.html" target="_top" xlink:title="Interface from which all reporters inherit.">
<polygon fill="white" stroke="black" points="195.5,-249.5 195.5,-268.5 273.5,-268.5 273.5,-249.5 195.5,-249.5"/>
<text text-anchor="middle" x="234.5" y="-256.5" font-family="Helvetica,sans-Serif" font-size="10.00">IReporterBase</text>
</a>
</g>
</g>
<!-- Node6&#45;&gt;Node4 -->
<g id="edge5" class="edge"><title>Node6&#45;&gt;Node4</title>
<path fill="none" stroke="midnightblue" d="M185.425,-252.181C160.059,-246.404 131.2,-234.902 115.5,-212 100.118,-189.563 134.211,-166.601 156.718,-154.566"/>
<polygon fill="midnightblue" stroke="midnightblue" points="184.806,-255.626 195.303,-254.191 186.202,-248.767 184.806,-255.626"/>
</g>
<!-- Node7 -->
<g id="node7" class="node"><title>Node7</title>
<g id="a_node7"><a xlink:href="../../d2/d8e/interfaceIG_1_1Lib_1_1IReporterTextWriter.html" target="_top" xlink:title="Reporters that utilize writing messages to files. Messages are typically formatted as multi&#45;line mess...">
<polygon fill="white" stroke="black" points="124,-192.5 124,-211.5 225,-211.5 225,-192.5 124,-192.5"/>
<text text-anchor="middle" x="174.5" y="-199.5" font-family="Helvetica,sans-Serif" font-size="10.00">IReporterTextWriter</text>
</a>
</g>
</g>
<!-- Node6&#45;&gt;Node7 -->
<g id="edge7" class="edge"><title>Node6&#45;&gt;Node7</title>
<path fill="none" stroke="midnightblue" d="M217.499,-242.416C206.648,-232.469 192.983,-219.943 184.007,-211.715"/>
<polygon fill="midnightblue" stroke="midnightblue" points="215.388,-245.229 225.125,-249.406 220.118,-240.069 215.388,-245.229"/>
</g>
<!-- Node8 -->
<g id="node8" class="node"><title>Node8</title>
<g id="a_node8"><a xlink:href="../../d1/ddb/interfaceIG_1_1Lib_1_1IReporterTextLogger.html" target="_top" xlink:title="Reporters that utilize logging messages to files. IReporterTextLogger typically outputs (to a file) m...">
<polygon fill="white" stroke="black" points="243.5,-192.5 243.5,-211.5 347.5,-211.5 347.5,-192.5 243.5,-192.5"/>
<text text-anchor="middle" x="295.5" y="-199.5" font-family="Helvetica,sans-Serif" font-size="10.00">IReporterTextLogger</text>
</a>
</g>
</g>
<!-- Node6&#45;&gt;Node8 -->
<g id="edge9" class="edge"><title>Node6&#45;&gt;Node8</title>
<path fill="none" stroke="midnightblue" d="M251.46,-242.708C262.543,-232.715 276.619,-220.024 285.834,-211.715"/>
<polygon fill="midnightblue" stroke="midnightblue" points="249.114,-240.11 244.031,-249.406 253.802,-245.309 249.114,-240.11"/>
</g>
<!-- Node9 -->
<g id="node9" class="node"><title>Node9</title>
<g id="a_node9"><a xlink:href="../../d0/d0e/interfaceIG_1_1Lib_1_1IReporterTrace.html" target="_top" xlink:title="Reporters that utilize system&#39;s trace utility.">
<polygon fill="white" stroke="black" points="365.5,-192.5 365.5,-211.5 445.5,-211.5 445.5,-192.5 365.5,-192.5"/>
<text text-anchor="middle" x="405.5" y="-199.5" font-family="Helvetica,sans-Serif" font-size="10.00">IReporterTrace</text>
</a>
</g>
</g>
<!-- Node6&#45;&gt;Node9 -->
<g id="edge11" class="edge"><title>Node6&#45;&gt;Node9</title>
<path fill="none" stroke="midnightblue" d="M270.784,-246.33C303.201,-235.903 349.931,-220.873 378.969,-211.533"/>
<polygon fill="midnightblue" stroke="midnightblue" points="269.667,-243.012 261.219,-249.406 271.81,-249.676 269.667,-243.012"/>
</g>
<!-- Node7&#45;&gt;Node4 -->
<g id="edge6" class="edge"><title>Node7&#45;&gt;Node4</title>
<path fill="none" stroke="midnightblue" d="M174.5,-182.117C174.5,-172.817 174.5,-162.056 174.5,-154.715"/>
<polygon fill="midnightblue" stroke="midnightblue" points="171,-182.406 174.5,-192.406 178,-182.406 171,-182.406"/>
</g>
<!-- Node8&#45;&gt;Node4 -->
<g id="edge8" class="edge"><title>Node8&#45;&gt;Node4</title>
<path fill="none" stroke="midnightblue" d="M267.417,-188.235C244.621,-177.873 213.112,-163.551 193.273,-154.533"/>
<polygon fill="midnightblue" stroke="midnightblue" points="266.042,-191.454 276.594,-192.406 268.938,-185.082 266.042,-191.454"/>
</g>
<!-- Node9&#45;&gt;Node4 -->
<g id="edge10" class="edge"><title>Node9&#45;&gt;Node4</title>
<path fill="none" stroke="midnightblue" d="M359.829,-190.126C315.991,-179.688 250.668,-164.135 210.424,-154.553"/>
<polygon fill="midnightblue" stroke="midnightblue" points="359.121,-193.555 369.66,-192.467 360.742,-186.745 359.121,-193.555"/>
</g>
</g>
</svg>
