<?xml version="1.0" encoding="UTF-8" standalone="no"?>
<!DOCTYPE svg PUBLIC "-//W3C//DTD SVG 1.1//EN"
 "http://www.w3.org/Graphics/SVG/1.1/DTD/svg11.dtd">
<!-- Generated by graphviz version 2.38.0 (20140413.2041)
 -->
<!-- Title: NUnit.Framework.Constraints.SelfResolvingOperator Pages: 1 -->
<svg width="472pt" height="137pt"
 viewBox="0.00 0.00 472.00 137.00" xmlns="http://www.w3.org/2000/svg" xmlns:xlink="http://www.w3.org/1999/xlink">
<g id="graph0" class="graph" transform="scale(1 1) rotate(0) translate(4 133)">
<title>NUnit.Framework.Constraints.SelfResolvingOperator</title>
<polygon fill="white" stroke="none" points="-4,4 -4,-133 468,-133 468,4 -4,4"/>
<!-- Node1 -->
<g id="node1" class="node"><title>Node1</title>
<g id="a_node1"><a xlink:title="Abstract base class for operators that are able to reduce to a constraint whether or not another synt...">
<polygon fill="#bfbfbf" stroke="black" points="134,-49.5 134,-79.5 281,-79.5 281,-49.5 134,-49.5"/>
<text text-anchor="start" x="142" y="-67.5" font-family="Helvetica,sans-Serif" font-size="10.00">NUnit.Framework.Constraints.</text>
<text text-anchor="middle" x="207.5" y="-56.5" font-family="Helvetica,sans-Serif" font-size="10.00">SelfResolvingOperator</text>
</a>
</g>
</g>
<!-- Node3 -->
<g id="node3" class="node"><title>Node3</title>
<g id="a_node3"><a xlink:href="../../dc/dfc/classNUnit_1_1Framework_1_1Constraints_1_1AttributeOperator.html" target="_top" xlink:title="Operator that tests for the presence of a particular attribute on a type and optionally applies furth...">
<polygon fill="white" stroke="black" points="317,-98.5 317,-128.5 464,-128.5 464,-98.5 317,-98.5"/>
<text text-anchor="start" x="325" y="-116.5" font-family="Helvetica,sans-Serif" font-size="10.00">NUnit.Framework.Constraints.</text>
<text text-anchor="middle" x="390.5" y="-105.5" font-family="Helvetica,sans-Serif" font-size="10.00">AttributeOperator</text>
</a>
</g>
</g>
<!-- Node1&#45;&gt;Node3 -->
<g id="edge2" class="edge"><title>Node1&#45;&gt;Node3</title>
<path fill="none" stroke="midnightblue" d="M274.061,-82.2485C293.677,-87.5591 314.99,-93.3288 333.901,-98.4484"/>
<polygon fill="midnightblue" stroke="midnightblue" points="274.85,-78.8362 264.283,-79.6014 273.021,-85.593 274.85,-78.8362"/>
</g>
<!-- Node4 -->
<g id="node4" class="node"><title>Node4</title>
<g id="a_node4"><a xlink:href="../../d6/d77/classNUnit_1_1Framework_1_1Constraints_1_1PropOperator.html" target="_top" xlink:title="Operator used to test for the presence of a named Property on an object and optionally apply further ...">
<polygon fill="white" stroke="black" points="317,-49.5 317,-79.5 464,-79.5 464,-49.5 317,-49.5"/>
<text text-anchor="start" x="325" y="-67.5" font-family="Helvetica,sans-Serif" font-size="10.00">NUnit.Framework.Constraints.</text>
<text text-anchor="middle" x="390.5" y="-56.5" font-family="Helvetica,sans-Serif" font-size="10.00">PropOperator</text>
</a>
</g>
</g>
<!-- Node1&#45;&gt;Node4 -->
<g id="edge3" class="edge"><title>Node1&#45;&gt;Node4</title>
<path fill="none" stroke="midnightblue" d="M291.116,-64.5C299.722,-64.5 308.424,-64.5 316.907,-64.5"/>
<polygon fill="midnightblue" stroke="midnightblue" points="291.077,-61.0001 281.077,-64.5 291.077,-68.0001 291.077,-61.0001"/>
</g>
<!-- Node5 -->
<g id="node5" class="node"><title>Node5</title>
<g id="a_node5"><a xlink:href="../../d1/de1/classNUnit_1_1Framework_1_1Constraints_1_1ThrowsOperator.html" target="_top" xlink:title="Operator that tests that an exception is thrown and optionally applies further tests to the exception...">
<polygon fill="white" stroke="black" points="317,-0.5 317,-30.5 464,-30.5 464,-0.5 317,-0.5"/>
<text text-anchor="start" x="325" y="-18.5" font-family="Helvetica,sans-Serif" font-size="10.00">NUnit.Framework.Constraints.</text>
<text text-anchor="middle" x="390.5" y="-7.5" font-family="Helvetica,sans-Serif" font-size="10.00">ThrowsOperator</text>
</a>
</g>
</g>
<!-- Node1&#45;&gt;Node5 -->
<g id="edge4" class="edge"><title>Node1&#45;&gt;Node5</title>
<path fill="none" stroke="midnightblue" d="M274.061,-46.7515C293.677,-41.4409 314.99,-35.6712 333.901,-30.5516"/>
<polygon fill="midnightblue" stroke="midnightblue" points="273.021,-43.407 264.283,-49.3986 274.85,-50.1638 273.021,-43.407"/>
</g>
<!-- Node2 -->
<g id="node2" class="node"><title>Node2</title>
<g id="a_node2"><a xlink:href="../../df/d41/classNUnit_1_1Framework_1_1Constraints_1_1ConstraintOperator.html" target="_top" xlink:title="The ConstraintOperator class is used internally by a ConstraintBuilder to represent an operator that ...">
<polygon fill="white" stroke="black" points="0,-55 0,-74 98,-74 98,-55 0,-55"/>
<text text-anchor="middle" x="49" y="-62" font-family="Helvetica,sans-Serif" font-size="10.00">ConstraintOperator</text>
</a>
</g>
</g>
<!-- Node2&#45;&gt;Node1 -->
<g id="edge1" class="edge"><title>Node2&#45;&gt;Node1</title>
<path fill="none" stroke="midnightblue" d="M108.265,-64.5C116.646,-64.5 125.355,-64.5 133.971,-64.5"/>
<polygon fill="midnightblue" stroke="midnightblue" points="108.232,-61.0001 98.2322,-64.5 108.232,-68.0001 108.232,-61.0001"/>
</g>
</g>
</svg>
