<?xml version="1.0" encoding="UTF-8" standalone="no"?>
<!DOCTYPE svg PUBLIC "-//W3C//DTD SVG 1.1//EN"
 "http://www.w3.org/Graphics/SVG/1.1/DTD/svg11.dtd">
<!-- Generated by graphviz version 2.38.0 (20140413.2041)
 -->
<!-- Title: IG.Num.Func3dBaseNoHessian Pages: 1 -->
<svg width="873pt" height="104pt"
 viewBox="0.00 0.00 873.00 104.00" xmlns="http://www.w3.org/2000/svg" xmlns:xlink="http://www.w3.org/1999/xlink">
<g id="graph0" class="graph" transform="scale(1 1) rotate(0) translate(4 100)">
<title>IG.Num.Func3dBaseNoHessian</title>
<polygon fill="white" stroke="none" points="-4,4 -4,-100 869,-100 869,4 -4,4"/>
<!-- Node1 -->
<g id="node1" class="node"><title>Node1</title>
<g id="a_node1"><a xlink:title="Base class for scalar functions of 3 variables (implementations of the IFunc3d interface)....">
<polygon fill="#bfbfbf" stroke="black" points="493,-38.5 493,-57.5 648,-57.5 648,-38.5 493,-38.5"/>
<text text-anchor="middle" x="570.5" y="-45.5" font-family="Helvetica,sans-Serif" font-size="10.00">IG.Num.Func3dBaseNoHessian</text>
</a>
</g>
</g>
<!-- Node6 -->
<g id="node6" class="node"><title>Node6</title>
<g id="a_node6"><a xlink:href="../../d1/d3b/classIG_1_1Gr3d_1_1VtkPlotBase_1_1Func3dZ.html" target="_top" xlink:title="3D function that returns the third component of its 3D vector argument. Used e.g. for coloring graphs...">
<polygon fill="white" stroke="black" points="700,-76.5 700,-95.5 849,-95.5 849,-76.5 700,-76.5"/>
<text text-anchor="middle" x="774.5" y="-83.5" font-family="Helvetica,sans-Serif" font-size="10.00">IG.Gr3d.VtkPlotBase.Func3dZ</text>
</a>
</g>
</g>
<!-- Node1&#45;&gt;Node6 -->
<g id="edge8" class="edge"><title>Node1&#45;&gt;Node6</title>
<path fill="none" stroke="midnightblue" d="M632.196,-59.4181C661.099,-64.8552 695.269,-71.2832 722.767,-76.4561"/>
<polygon fill="midnightblue" stroke="midnightblue" points="632.687,-55.9491 622.212,-57.54 631.393,-62.8285 632.687,-55.9491"/>
</g>
<!-- Node7 -->
<g id="node7" class="node"><title>Node7</title>
<g id="a_node7"><a xlink:href="../../d0/d4d/classIG_1_1Gr3d_1_1VtkPlotBase_1_1Func3dZero.html" target="_top" xlink:title="3D function that returns 0. Used e.g. for coloring graphs by heights.">
<polygon fill="white" stroke="black" points="693.5,-38.5 693.5,-57.5 855.5,-57.5 855.5,-38.5 693.5,-38.5"/>
<text text-anchor="middle" x="774.5" y="-45.5" font-family="Helvetica,sans-Serif" font-size="10.00">IG.Gr3d.VtkPlotBase.Func3dZero</text>
</a>
</g>
</g>
<!-- Node1&#45;&gt;Node7 -->
<g id="edge9" class="edge"><title>Node1&#45;&gt;Node7</title>
<path fill="none" stroke="midnightblue" d="M658.266,-48C669.865,-48 681.719,-48 693.2,-48"/>
<polygon fill="midnightblue" stroke="midnightblue" points="658.156,-44.5001 648.156,-48 658.156,-51.5001 658.156,-44.5001"/>
</g>
<!-- Node8 -->
<g id="node8" class="node"><title>Node8</title>
<g id="a_node8"><a xlink:href="../../db/dd6/classIG_1_1Num_1_1Func3dExamples_1_1Func3dXYZ.html" target="_top" xlink:title="Function f(x, y, z) = x * y * z.">
<polygon fill="white" stroke="black" points="684,-0.5 684,-19.5 865,-19.5 865,-0.5 684,-0.5"/>
<text text-anchor="middle" x="774.5" y="-7.5" font-family="Helvetica,sans-Serif" font-size="10.00">IG.Num.Func3dExamples.Func3dXYZ</text>
</a>
</g>
</g>
<!-- Node1&#45;&gt;Node8 -->
<g id="edge10" class="edge"><title>Node1&#45;&gt;Node8</title>
<path fill="none" stroke="midnightblue" d="M632.196,-36.5819C661.099,-31.1448 695.269,-24.7168 722.767,-19.5439"/>
<polygon fill="midnightblue" stroke="midnightblue" points="631.393,-33.1715 622.212,-38.46 632.687,-40.0509 631.393,-33.1715"/>
</g>
<!-- Node2 -->
<g id="node2" class="node"><title>Node2</title>
<g id="a_node2"><a xlink:href="../../d4/d29/classIG_1_1Num_1_1Func3dBase.html" target="_top" xlink:title="Base class for scalar functions of 3 variables (base for implementation of IFunc3d interface).">
<polygon fill="white" stroke="black" points="386,-38.5 386,-57.5 457,-57.5 457,-38.5 386,-38.5"/>
<text text-anchor="middle" x="421.5" y="-45.5" font-family="Helvetica,sans-Serif" font-size="10.00">Func3dBase</text>
</a>
</g>
</g>
<!-- Node2&#45;&gt;Node1 -->
<g id="edge1" class="edge"><title>Node2&#45;&gt;Node1</title>
<path fill="none" stroke="midnightblue" d="M467.585,-48C475.647,-48 484.248,-48 492.907,-48"/>
<polygon fill="midnightblue" stroke="midnightblue" points="467.337,-44.5001 457.337,-48 467.337,-51.5001 467.337,-44.5001"/>
</g>
<!-- Node3 -->
<g id="node3" class="node"><title>Node3</title>
<g id="a_node3"><a xlink:href="../../d2/d9e/classIG_1_1Num_1_1ScalarFunctionUntransformedBase.html" target="_top" xlink:title="Base class for defining scalar functions without possibility of affine transformation of parameters.">
<polygon fill="white" stroke="black" points="183,-38.5 183,-57.5 350,-57.5 350,-38.5 183,-38.5"/>
<text text-anchor="middle" x="266.5" y="-45.5" font-family="Helvetica,sans-Serif" font-size="10.00">ScalarFunctionUntransformedBase</text>
</a>
</g>
</g>
<!-- Node3&#45;&gt;Node2 -->
<g id="edge2" class="edge"><title>Node3&#45;&gt;Node2</title>
<path fill="none" stroke="midnightblue" d="M360.472,-48C369.414,-48 378.041,-48 385.833,-48"/>
<polygon fill="midnightblue" stroke="midnightblue" points="360.269,-44.5001 350.269,-48 360.269,-51.5001 360.269,-44.5001"/>
</g>
<!-- Node4 -->
<g id="node4" class="node"><title>Node4</title>
<g id="a_node4"><a xlink:href="../../d8/d56/interfaceIG_1_1Num_1_1IScalarFunctionUntransformed.html" target="_top" xlink:title="Scalar functions of vector arguments.">
<polygon fill="white" stroke="black" points="0,-76.5 0,-95.5 147,-95.5 147,-76.5 0,-76.5"/>
<text text-anchor="middle" x="73.5" y="-83.5" font-family="Helvetica,sans-Serif" font-size="10.00">IScalarFunctionUntransformed</text>
</a>
</g>
</g>
<!-- Node4&#45;&gt;Node1 -->
<g id="edge7" class="edge"><title>Node4&#45;&gt;Node1</title>
<path fill="none" stroke="midnightblue" d="M157.31,-88.5262C165.984,-88.7201 174.671,-88.8849 183,-89 257.215,-90.0258 276.094,-95.8432 350,-89 413.886,-83.0846 486.907,-67.682 530.552,-57.5312"/>
<polygon fill="midnightblue" stroke="midnightblue" points="157.236,-85.0235 147.156,-88.2864 157.07,-92.0216 157.236,-85.0235"/>
</g>
<!-- Node4&#45;&gt;Node2 -->
<g id="edge5" class="edge"><title>Node4&#45;&gt;Node2</title>
<path fill="none" stroke="midnightblue" d="M157.209,-84.4847C212.179,-82.4522 285.789,-77.7615 350,-67 363.377,-64.7581 377.888,-61.071 390.248,-57.5385"/>
<polygon fill="midnightblue" stroke="midnightblue" points="157.04,-80.9883 147.168,-84.8341 157.284,-87.9841 157.04,-80.9883"/>
</g>
<!-- Node4&#45;&gt;Node3 -->
<g id="edge3" class="edge"><title>Node4&#45;&gt;Node3</title>
<path fill="none" stroke="midnightblue" d="M132.853,-74.3905C160.018,-68.986 191.932,-62.6365 217.649,-57.5201"/>
<polygon fill="midnightblue" stroke="midnightblue" points="131.822,-71.0269 122.697,-76.411 133.188,-77.8924 131.822,-71.0269"/>
</g>
<!-- Node5 -->
<g id="node5" class="node"><title>Node5</title>
<g id="a_node5"><a xlink:href="../../d5/d03/interfaceIG_1_1Num_1_1IFunc3d.html" target="_top" xlink:title="Represents scalar functions of 2 variables.">
<polygon fill="white" stroke="black" points="241,-0.5 241,-19.5 292,-19.5 292,-0.5 241,-0.5"/>
<text text-anchor="middle" x="266.5" y="-7.5" font-family="Helvetica,sans-Serif" font-size="10.00">IFunc3d</text>
</a>
</g>
</g>
<!-- Node5&#45;&gt;Node1 -->
<g id="edge6" class="edge"><title>Node5&#45;&gt;Node1</title>
<path fill="none" stroke="midnightblue" d="M302.139,-12.7678C340.196,-15.9728 403.084,-21.7525 457,-29 476.828,-31.6652 498.521,-35.1849 517.522,-38.4699"/>
<polygon fill="midnightblue" stroke="midnightblue" points="302.348,-9.27309 292.092,-11.933 301.768,-16.2491 302.348,-9.27309"/>
</g>
<!-- Node5&#45;&gt;Node2 -->
<g id="edge4" class="edge"><title>Node5&#45;&gt;Node2</title>
<path fill="none" stroke="midnightblue" d="M301.887,-17.6215C316.718,-20.9856 334.243,-25.0637 350,-29 361.806,-31.9494 374.672,-35.3586 386.142,-38.468"/>
<polygon fill="midnightblue" stroke="midnightblue" points="302.629,-14.2011 292.104,-15.417 301.09,-21.0298 302.629,-14.2011"/>
</g>
</g>
</svg>
