<?xml version="1.0" encoding="UTF-8" standalone="no"?>
<!DOCTYPE svg PUBLIC "-//W3C//DTD SVG 1.1//EN"
 "http://www.w3.org/Graphics/SVG/1.1/DTD/svg11.dtd">
<!-- Generated by graphviz version 2.38.0 (20140413.2041)
 -->
<!-- Title: CShell.Modules.Repl.Module Pages: 1 -->
<svg width="244pt" height="220pt"
 viewBox="0.00 0.00 244.00 220.00" xmlns="http://www.w3.org/2000/svg" xmlns:xlink="http://www.w3.org/1999/xlink">
<g id="graph0" class="graph" transform="scale(1 1) rotate(0) translate(4 216)">
<title>CShell.Modules.Repl.Module</title>
<polygon fill="white" stroke="none" points="-4,4 -4,-216 240,-216 240,4 -4,4"/>
<!-- Node1 -->
<g id="node1" class="node"><title>Node1</title>
<g id="a_node1"><a xlink:title=" ">
<polygon fill="#bfbfbf" stroke="black" points="48.5,-0.5 48.5,-19.5 190.5,-19.5 190.5,-0.5 48.5,-0.5"/>
<text text-anchor="middle" x="119.5" y="-7.5" font-family="Helvetica,sans-Serif" font-size="10.00">CShell.Modules.Repl.Module</text>
</a>
</g>
</g>
<!-- Node2 -->
<g id="node2" class="node"><title>Node2</title>
<g id="a_node2"><a xlink:href="../../d2/df0/classCShell_1_1Framework_1_1ModuleBase.html" target="_top" xlink:title=" ">
<polygon fill="white" stroke="black" points="84,-57.5 84,-76.5 155,-76.5 155,-57.5 84,-57.5"/>
<text text-anchor="middle" x="119.5" y="-64.5" font-family="Helvetica,sans-Serif" font-size="10.00">ModuleBase</text>
</a>
</g>
</g>
<!-- Node2&#45;&gt;Node1 -->
<g id="edge1" class="edge"><title>Node2&#45;&gt;Node1</title>
<path fill="none" stroke="midnightblue" d="M119.5,-47.1166C119.5,-37.8173 119.5,-27.0557 119.5,-19.7149"/>
<polygon fill="midnightblue" stroke="midnightblue" points="116,-47.4062 119.5,-57.4063 123,-47.4063 116,-47.4062"/>
</g>
<!-- Node3 -->
<g id="node3" class="node"><title>Node3</title>
<g id="a_node3"><a xlink:href="../../d5/d7d/interfaceCShell_1_1Framework_1_1IModule.html" target="_top" xlink:title=" ">
<polygon fill="white" stroke="black" points="28.5,-130 28.5,-149 78.5,-149 78.5,-130 28.5,-130"/>
<text text-anchor="middle" x="53.5" y="-137" font-family="Helvetica,sans-Serif" font-size="10.00">IModule</text>
</a>
</g>
</g>
<!-- Node3&#45;&gt;Node2 -->
<g id="edge2" class="edge"><title>Node3&#45;&gt;Node2</title>
<path fill="none" stroke="midnightblue" d="M68.6696,-122.296C81.9435,-108.117 100.718,-88.0626 111.341,-76.7154"/>
<polygon fill="midnightblue" stroke="midnightblue" points="65.8721,-120.163 61.5929,-129.855 70.9823,-124.947 65.8721,-120.163"/>
</g>
<!-- Node4 -->
<g id="node4" class="node"><title>Node4</title>
<g id="a_node4"><a xlink:title=" ">
<polygon fill="white" stroke="#bfbfbf" points="0,-192.5 0,-211.5 107,-211.5 107,-192.5 0,-192.5"/>
<text text-anchor="middle" x="53.5" y="-199.5" font-family="Helvetica,sans-Serif" font-size="10.00">System::IDisposable</text>
</a>
</g>
</g>
<!-- Node4&#45;&gt;Node3 -->
<g id="edge3" class="edge"><title>Node4&#45;&gt;Node3</title>
<path fill="none" stroke="midnightblue" d="M53.5,-182.003C53.5,-171 53.5,-157.682 53.5,-149.152"/>
<polygon fill="midnightblue" stroke="midnightblue" points="50.0001,-182.332 53.5,-192.332 57.0001,-182.332 50.0001,-182.332"/>
</g>
<!-- Node5 -->
<g id="node5" class="node"><title>Node5</title>
<g id="a_node5"><a xlink:href="../../d9/da1/interfaceCShell_1_1Framework_1_1Services_1_1IShell.html" target="_top" xlink:title=" ">
<polygon fill="white" stroke="black" points="97,-124.5 97,-154.5 236,-154.5 236,-124.5 97,-124.5"/>
<text text-anchor="start" x="105" y="-142.5" font-family="Helvetica,sans-Serif" font-size="10.00">CShell.Framework.Services.</text>
<text text-anchor="middle" x="166.5" y="-131.5" font-family="Helvetica,sans-Serif" font-size="10.00">IShell</text>
</a>
</g>
</g>
<!-- Node5&#45;&gt;Node2 -->
<g id="edge4" class="edge"><title>Node5&#45;&gt;Node2</title>
<path fill="none" stroke="#9a32cd" stroke-dasharray="5,2" d="M151.251,-115.626C142.449,-102.424 131.88,-86.5696 125.429,-76.8932"/>
<polygon fill="#9a32cd" stroke="#9a32cd" points="148.53,-117.854 156.989,-124.233 154.354,-113.971 148.53,-117.854"/>
<text text-anchor="middle" x="159" y="-98" font-family="Helvetica,sans-Serif" font-size="10.00"> _shell</text>
</g>
<!-- Node6 -->
<g id="node6" class="node"><title>Node6</title>
<g id="a_node6"><a xlink:title=" ">
<polygon fill="white" stroke="#bfbfbf" points="135,-192.5 135,-211.5 198,-211.5 198,-192.5 135,-192.5"/>
<text text-anchor="middle" x="166.5" y="-199.5" font-family="Helvetica,sans-Serif" font-size="10.00">IConductor</text>
</a>
</g>
</g>
<!-- Node6&#45;&gt;Node5 -->
<g id="edge5" class="edge"><title>Node6&#45;&gt;Node5</title>
<path fill="none" stroke="midnightblue" d="M166.5,-182.215C166.5,-173.356 166.5,-162.958 166.5,-154.759"/>
<polygon fill="midnightblue" stroke="midnightblue" points="163,-182.332 166.5,-192.332 170,-182.332 163,-182.332"/>
</g>
</g>
</svg>
