<?xml version="1.0" encoding="UTF-8" standalone="no"?>
<!DOCTYPE svg PUBLIC "-//W3C//DTD SVG 1.1//EN"
 "http://www.w3.org/Graphics/SVG/1.1/DTD/svg11.dtd">
<!-- Generated by graphviz version 2.38.0 (20140413.2041)
 -->
<!-- Title: NUnit.Framework.TestActionAttribute Pages: 1 -->
<svg width="150pt" height="95pt"
 viewBox="0.00 0.00 150.00 95.00" xmlns="http://www.w3.org/2000/svg" xmlns:xlink="http://www.w3.org/1999/xlink">
<g id="graph0" class="graph" transform="scale(1 1) rotate(0) translate(4 91)">
<title>NUnit.Framework.TestActionAttribute</title>
<polygon fill="white" stroke="none" points="-4,4 -4,-91 146,-91 146,4 -4,4"/>
<!-- Node1 -->
<g id="node1" class="node"><title>Node1</title>
<g id="a_node1"><a xlink:title="Provide actions to execute before and after tests.">
<polygon fill="#bfbfbf" stroke="black" points="0,-0.5 0,-30.5 141,-30.5 141,-0.5 0,-0.5"/>
<text text-anchor="start" x="8" y="-18.5" font-family="Helvetica,sans-Serif" font-size="10.00">NUnit.Framework.TestAction</text>
<text text-anchor="middle" x="70.5" y="-7.5" font-family="Helvetica,sans-Serif" font-size="10.00">Attribute</text>
</a>
</g>
</g>
<!-- Node2 -->
<g id="node2" class="node"><title>Node2</title>
<g id="a_node2"><a xlink:title=" ">
<polygon fill="white" stroke="#bfbfbf" points="6,-67.5 6,-86.5 59,-86.5 59,-67.5 6,-67.5"/>
<text text-anchor="middle" x="32.5" y="-74.5" font-family="Helvetica,sans-Serif" font-size="10.00">Attribute</text>
</a>
</g>
</g>
<!-- Node2&#45;&gt;Node1 -->
<g id="edge1" class="edge"><title>Node2&#45;&gt;Node1</title>
<path fill="none" stroke="midnightblue" d="M43.3805,-58.9634C49.1329,-49.9564 56.1083,-39.0344 61.5442,-30.523"/>
<polygon fill="midnightblue" stroke="midnightblue" points="40.3773,-57.1633 37.9445,-67.4751 46.2768,-60.9311 40.3773,-57.1633"/>
</g>
<!-- Node3 -->
<g id="node3" class="node"><title>Node3</title>
<g id="a_node3"><a xlink:href="../../d9/d1f/interfaceNUnit_1_1Framework_1_1ITestAction.html" target="_top" xlink:title="When implemented by an attribute, this interface implemented to provide actions to execute before and...">
<polygon fill="white" stroke="black" points="77,-67.5 77,-86.5 142,-86.5 142,-67.5 77,-67.5"/>
<text text-anchor="middle" x="109.5" y="-74.5" font-family="Helvetica,sans-Serif" font-size="10.00">ITestAction</text>
</a>
</g>
</g>
<!-- Node3&#45;&gt;Node1 -->
<g id="edge2" class="edge"><title>Node3&#45;&gt;Node1</title>
<path fill="none" stroke="midnightblue" d="M98.3331,-58.9634C92.4294,-49.9564 85.2705,-39.0344 79.6915,-30.523"/>
<polygon fill="midnightblue" stroke="midnightblue" points="95.503,-61.0303 103.912,-67.4751 101.357,-57.1929 95.503,-61.0303"/>
</g>
</g>
</svg>
