<?xml version="1.0" encoding="UTF-8" standalone="no"?>
<!DOCTYPE svg PUBLIC "-//W3C//DTD SVG 1.1//EN"
 "http://www.w3.org/Graphics/SVG/1.1/DTD/svg11.dtd">
<!-- Generated by graphviz version 2.38.0 (20140413.2041)
 -->
<!-- Title: AForge.Fuzzy.TrapezoidalFunction Pages: 1 -->
<svg width="210pt" height="163pt"
 viewBox="0.00 0.00 210.00 163.00" xmlns="http://www.w3.org/2000/svg" xmlns:xlink="http://www.w3.org/1999/xlink">
<g id="graph0" class="graph" transform="scale(1 1) rotate(0) translate(4 159)">
<title>AForge.Fuzzy.TrapezoidalFunction</title>
<polygon fill="white" stroke="none" points="-4,4 -4,-159 206,-159 206,4 -4,4"/>
<!-- Node1 -->
<g id="node1" class="node"><title>Node1</title>
<g id="a_node1"><a xlink:title="Membership function in the shape of a trapezoid. Can be a half trapzoid if the left or the right side...">
<polygon fill="#bfbfbf" stroke="black" points="44.5,-0.5 44.5,-30.5 175.5,-30.5 175.5,-0.5 44.5,-0.5"/>
<text text-anchor="start" x="52.5" y="-18.5" font-family="Helvetica,sans-Serif" font-size="10.00">AForge.Fuzzy.Trapezoidal</text>
<text text-anchor="middle" x="110" y="-7.5" font-family="Helvetica,sans-Serif" font-size="10.00">Function</text>
</a>
</g>
</g>
<!-- Node2 -->
<g id="node2" class="node"><title>Node2</title>
<g id="a_node2"><a xlink:href="../../d8/d8e/classAForge_1_1Fuzzy_1_1PiecewiseLinearFunction.html" target="_top" xlink:title="Membership function composed by several connected linear functions.">
<polygon fill="white" stroke="black" points="47.5,-68.5 47.5,-87.5 172.5,-87.5 172.5,-68.5 47.5,-68.5"/>
<text text-anchor="middle" x="110" y="-75.5" font-family="Helvetica,sans-Serif" font-size="10.00">PiecewiseLinearFunction</text>
</a>
</g>
</g>
<!-- Node2&#45;&gt;Node1 -->
<g id="edge1" class="edge"><title>Node2&#45;&gt;Node1</title>
<path fill="none" stroke="midnightblue" d="M110,-58.2154C110,-49.3565 110,-38.9577 110,-30.7587"/>
<polygon fill="midnightblue" stroke="midnightblue" points="106.5,-58.3318 110,-68.3318 113.5,-58.3319 106.5,-58.3318"/>
</g>
<!-- Node3 -->
<g id="node3" class="node"><title>Node3</title>
<g id="a_node3"><a xlink:href="../../d0/d72/interfaceAForge_1_1Fuzzy_1_1IMembershipFunction.html" target="_top" xlink:title="Interface which specifies set of methods required to be implemented by all membership functions.">
<polygon fill="white" stroke="black" points="0,-135.5 0,-154.5 110,-154.5 110,-135.5 0,-135.5"/>
<text text-anchor="middle" x="55" y="-142.5" font-family="Helvetica,sans-Serif" font-size="10.00">IMembershipFunction</text>
</a>
</g>
</g>
<!-- Node3&#45;&gt;Node2 -->
<g id="edge2" class="edge"><title>Node3&#45;&gt;Node2</title>
<path fill="none" stroke="midnightblue" d="M69.1558,-127.27C79.8793,-114.597 94.1761,-97.701 102.7,-87.6273"/>
<polygon fill="midnightblue" stroke="midnightblue" points="66.2051,-125.339 62.4175,-135.234 71.5489,-129.861 66.2051,-125.339"/>
</g>
<!-- Node4 -->
<g id="node4" class="node"><title>Node4</title>
<g id="a_node4"><a xlink:href="../../d2/d04/structAForge_1_1Point.html" target="_top" xlink:title="Structure for representing a pair of coordinates of float type.">
<polygon fill="white" stroke="black" points="128,-135.5 128,-154.5 202,-154.5 202,-135.5 128,-135.5"/>
<text text-anchor="middle" x="165" y="-142.5" font-family="Helvetica,sans-Serif" font-size="10.00">AForge.Point</text>
</a>
</g>
</g>
<!-- Node4&#45;&gt;Node2 -->
<g id="edge3" class="edge"><title>Node4&#45;&gt;Node2</title>
<path fill="none" stroke="#9a32cd" stroke-dasharray="5,2" d="M150.844,-127.27C140.121,-114.597 125.824,-97.701 117.3,-87.6273"/>
<polygon fill="#9a32cd" stroke="#9a32cd" points="148.451,-129.861 157.582,-135.234 153.795,-125.339 148.451,-129.861"/>
<text text-anchor="middle" x="155" y="-109" font-family="Helvetica,sans-Serif" font-size="10.00"> points</text>
</g>
</g>
</svg>
