<?xml version="1.0" encoding="UTF-8" standalone="no"?>
<!DOCTYPE svg PUBLIC "-//W3C//DTD SVG 1.1//EN"
 "http://www.w3.org/Graphics/SVG/1.1/DTD/svg11.dtd">
<!-- Generated by graphviz version 2.38.0 (20140413.2041)
 -->
<!-- Title: IG.Web.Forms.WSClientFormsAboutWindow Pages: 1 -->
<svg width="326pt" height="294pt"
 viewBox="0.00 0.00 325.50 294.00" xmlns="http://www.w3.org/2000/svg" xmlns:xlink="http://www.w3.org/1999/xlink">
<g id="graph0" class="graph" transform="scale(1 1) rotate(0) translate(4 290)">
<title>IG.Web.Forms.WSClientFormsAboutWindow</title>
<polygon fill="white" stroke="none" points="-4,4 -4,-290 321.5,-290 321.5,4 -4,4"/>
<!-- Node1 -->
<g id="node1" class="node"><title>Node1</title>
<g id="a_node1"><a xlink:title="Window that displays information about Demo application for performing parametric studies on ANN mode...">
<polygon fill="#bfbfbf" stroke="black" points="56.5,-0.5 56.5,-30.5 208.5,-30.5 208.5,-0.5 56.5,-0.5"/>
<text text-anchor="start" x="64.5" y="-18.5" font-family="Helvetica,sans-Serif" font-size="10.00">IG.Web.Forms.WSClientForms</text>
<text text-anchor="middle" x="132.5" y="-7.5" font-family="Helvetica,sans-Serif" font-size="10.00">AboutWindow</text>
</a>
</g>
</g>
<!-- Node2 -->
<g id="node2" class="node"><title>Node2</title>
<g id="a_node2"><a xlink:title=" ">
<polygon fill="white" stroke="#bfbfbf" points="0,-84 0,-103 39,-103 39,-84 0,-84"/>
<text text-anchor="middle" x="19.5" y="-91" font-family="Helvetica,sans-Serif" font-size="10.00">Form</text>
</a>
</g>
</g>
<!-- Node2&#45;&gt;Node1 -->
<g id="edge1" class="edge"><title>Node2&#45;&gt;Node1</title>
<path fill="none" stroke="midnightblue" d="M41.021,-78.0257C61.3276,-64.3682 91.5724,-44.0265 111.655,-30.5198"/>
<polygon fill="midnightblue" stroke="midnightblue" points="38.8071,-75.2967 32.4625,-83.7818 42.7137,-81.1052 38.8071,-75.2967"/>
</g>
<!-- Node3 -->
<g id="node3" class="node"><title>Node3</title>
<g id="a_node3"><a xlink:href="../../d6/dc5/classIG_1_1Web_1_1Forms_1_1WSClientFormsAboutForm.html" target="_top" xlink:title="Form containing information about Web service test clients software.">
<polygon fill="white" stroke="black" points="57.5,-78.5 57.5,-108.5 209.5,-108.5 209.5,-78.5 57.5,-78.5"/>
<text text-anchor="start" x="65.5" y="-96.5" font-family="Helvetica,sans-Serif" font-size="10.00">IG.Web.Forms.WSClientForms</text>
<text text-anchor="middle" x="133.5" y="-85.5" font-family="Helvetica,sans-Serif" font-size="10.00">AboutForm</text>
</a>
</g>
</g>
<!-- Node3&#45;&gt;Node1 -->
<g id="edge2" class="edge"><title>Node3&#45;&gt;Node1</title>
<path fill="none" stroke="#9a32cd" stroke-dasharray="5,2" d="M133.179,-68.0898C133.017,-55.7565 132.825,-41.2237 132.687,-30.7309"/>
<polygon fill="#9a32cd" stroke="#9a32cd" points="129.681,-68.2519 133.312,-78.205 136.68,-68.1598 129.681,-68.2519"/>
<text text-anchor="middle" x="183" y="-52" font-family="Helvetica,sans-Serif" font-size="10.00"> wsClientFormsAbout1</text>
</g>
<!-- Node4 -->
<g id="node4" class="node"><title>Node4</title>
<g id="a_node4"><a xlink:title=" ">
<polygon fill="white" stroke="#bfbfbf" points="76.5,-266.5 76.5,-285.5 144.5,-285.5 144.5,-266.5 76.5,-266.5"/>
<text text-anchor="middle" x="110.5" y="-273.5" font-family="Helvetica,sans-Serif" font-size="10.00">UserControl</text>
</a>
</g>
</g>
<!-- Node4&#45;&gt;Node3 -->
<g id="edge3" class="edge"><title>Node4&#45;&gt;Node3</title>
<path fill="none" stroke="midnightblue" d="M111.22,-256.189C112.539,-227.936 116.032,-172.955 124.5,-127 125.625,-120.897 127.361,-114.276 129.01,-108.612"/>
<polygon fill="midnightblue" stroke="midnightblue" points="107.72,-256.112 110.791,-266.252 114.714,-256.41 107.72,-256.112"/>
</g>
<!-- Node5 -->
<g id="node5" class="node"><title>Node5</title>
<g id="a_node5"><a xlink:title=" ">
<polygon fill="white" stroke="#bfbfbf" points="191.5,-266.5 191.5,-285.5 241.5,-285.5 241.5,-266.5 191.5,-266.5"/>
<text text-anchor="middle" x="216.5" y="-273.5" font-family="Helvetica,sans-Serif" font-size="10.00">System</text>
</a>
</g>
</g>
<!-- Node5&#45;&gt;Node1 -->
<g id="edge5" class="edge"><title>Node5&#45;&gt;Node1</title>
<path fill="none" stroke="#9a32cd" stroke-dasharray="5,2" d="M228.751,-257.308C230.295,-254.318 231.635,-251.156 232.5,-248 255.876,-162.701 284.484,-120.555 232.5,-49 226.384,-40.5817 218.034,-34.3009 208.748,-29.6232"/>
<polygon fill="#9a32cd" stroke="#9a32cd" points="225.635,-255.697 223.451,-266.065 231.623,-259.322 225.635,-255.697"/>
<text text-anchor="middle" x="289" y="-91" font-family="Helvetica,sans-Serif" font-size="10.00"> components</text>
</g>
<!-- Node5&#45;&gt;Node3 -->
<g id="edge4" class="edge"><title>Node5&#45;&gt;Node3</title>
<path fill="none" stroke="#9a32cd" stroke-dasharray="5,2" d="M181.625,-270.174C167.884,-266.432 153.31,-259.789 144.5,-248 113.152,-206.053 123.358,-138.358 129.864,-108.931"/>
<polygon fill="#9a32cd" stroke="#9a32cd" points="180.858,-273.589 191.388,-272.418 182.426,-266.767 180.858,-273.589"/>
<text text-anchor="middle" x="188.5" y="-240" font-family="Helvetica,sans-Serif" font-size="10.00"> lblPoweredIGLib</text>
<text text-anchor="middle" x="188.5" y="-229" font-family="Helvetica,sans-Serif" font-size="10.00">lblAbourContactIntro</text>
<text text-anchor="middle" x="188.5" y="-218" font-family="Helvetica,sans-Serif" font-size="10.00">lblAboutAuthors</text>
<text text-anchor="middle" x="188.5" y="-207" font-family="Helvetica,sans-Serif" font-size="10.00">lblTitle</text>
<text text-anchor="middle" x="188.5" y="-196" font-family="Helvetica,sans-Serif" font-size="10.00">pnlIGLib</text>
<text text-anchor="middle" x="188.5" y="-185" font-family="Helvetica,sans-Serif" font-size="10.00">lblAboutAuthorsIntro</text>
<text text-anchor="middle" x="188.5" y="-174" font-family="Helvetica,sans-Serif" font-size="10.00">lblAboutTitle</text>
<text text-anchor="middle" x="188.5" y="-163" font-family="Helvetica,sans-Serif" font-size="10.00">lblAboutWeb</text>
<text text-anchor="middle" x="188.5" y="-152" font-family="Helvetica,sans-Serif" font-size="10.00">btnWeb</text>
<text text-anchor="middle" x="188.5" y="-141" font-family="Helvetica,sans-Serif" font-size="10.00">components</text>
<text text-anchor="middle" x="188.5" y="-130" font-family="Helvetica,sans-Serif" font-size="10.00">...</text>
</g>
</g>
</svg>
