<?xml version="1.0" encoding="UTF-8" standalone="no"?>
<!DOCTYPE svg PUBLIC "-//W3C//DTD SVG 1.1//EN"
 "http://www.w3.org/Graphics/SVG/1.1/DTD/svg11.dtd">
<!-- Generated by graphviz version 2.38.0 (20140413.2041)
 -->
<!-- Title: DotNumerics.LinearAlgebra.CSLapack.DSYTRD Pages: 1 -->
<svg width="1426pt" height="712pt"
 viewBox="0.00 0.00 1426.00 711.50" xmlns="http://www.w3.org/2000/svg" xmlns:xlink="http://www.w3.org/1999/xlink">
<g id="graph0" class="graph" transform="scale(1 1) rotate(0) translate(4 707.5)">
<title>DotNumerics.LinearAlgebra.CSLapack.DSYTRD</title>
<polygon fill="white" stroke="none" points="-4,4 -4,-707.5 1422,-707.5 1422,4 -4,4"/>
<!-- Node1 -->
<g id="node1" class="node"><title>Node1</title>
<g id="a_node1"><a xlink:title="– LAPACK routine (version 3.1) – Univ. of Tennessee, Univ. of California Berkeley and NAG Ltd....">
<polygon fill="#bfbfbf" stroke="black" points="1280,-516.5 1280,-546.5 1418,-546.5 1418,-516.5 1280,-516.5"/>
<text text-anchor="start" x="1288" y="-534.5" font-family="Helvetica,sans-Serif" font-size="10.00">DotNumerics.LinearAlgebra.</text>
<text text-anchor="middle" x="1349" y="-523.5" font-family="Helvetica,sans-Serif" font-size="10.00">CSLapack.DSYTRD</text>
</a>
</g>
</g>
<!-- Node2 -->
<g id="node2" class="node"><title>Node2</title>
<g id="a_node2"><a xlink:href="../../db/d6a/classDotNumerics_1_1LinearAlgebra_1_1CSLapack_1_1XERBLA.html" target="_top" xlink:title="– LAPACK auxiliary routine (version 3.1) – Univ. of Tennessee, Univ. of California Berkeley and NAG L...">
<polygon fill="white" stroke="black" points="642,-488.5 642,-518.5 780,-518.5 780,-488.5 642,-488.5"/>
<text text-anchor="start" x="650" y="-506.5" font-family="Helvetica,sans-Serif" font-size="10.00">DotNumerics.LinearAlgebra.</text>
<text text-anchor="middle" x="711" y="-495.5" font-family="Helvetica,sans-Serif" font-size="10.00">CSLapack.XERBLA</text>
</a>
</g>
</g>
<!-- Node2&#45;&gt;Node1 -->
<g id="edge1" class="edge"><title>Node2&#45;&gt;Node1</title>
<path fill="none" stroke="#9a32cd" stroke-dasharray="5,2" d="M790.371,-518.626C792.941,-518.948 795.489,-519.241 798,-519.5 970.669,-537.327 1175.39,-535.89 1279.61,-533.556"/>
<polygon fill="#9a32cd" stroke="#9a32cd" points="790.772,-515.149 780.39,-517.258 789.822,-522.084 790.772,-515.149"/>
<text text-anchor="middle" x="1031" y="-537.5" font-family="Helvetica,sans-Serif" font-size="10.00"> _xerbla</text>
</g>
<!-- Node8 -->
<g id="node8" class="node"><title>Node8</title>
<g id="a_node8"><a xlink:href="../../d4/db4/classDotNumerics_1_1LinearAlgebra_1_1CSLapack_1_1DSYMV.html" target="_top" xlink:title=" ">
<polygon fill="white" stroke="black" points="856,-403.5 856,-433.5 994,-433.5 994,-403.5 856,-403.5"/>
<text text-anchor="start" x="864" y="-421.5" font-family="Helvetica,sans-Serif" font-size="10.00">DotNumerics.LinearAlgebra.</text>
<text text-anchor="middle" x="925" y="-410.5" font-family="Helvetica,sans-Serif" font-size="10.00">CSLapack.DSYMV</text>
</a>
</g>
</g>
<!-- Node2&#45;&gt;Node8 -->
<g id="edge8" class="edge"><title>Node2&#45;&gt;Node8</title>
<path fill="none" stroke="#9a32cd" stroke-dasharray="5,2" d="M755.061,-484.442C783.529,-472.045 821.773,-455.775 856,-442.5 863.704,-439.512 871.955,-436.47 879.959,-433.599"/>
<polygon fill="#9a32cd" stroke="#9a32cd" points="753.563,-481.276 745.801,-488.488 756.366,-487.691 753.563,-481.276"/>
<text text-anchor="middle" x="818" y="-468.5" font-family="Helvetica,sans-Serif" font-size="10.00"> _xerbla</text>
</g>
<!-- Node9 -->
<g id="node9" class="node"><title>Node9</title>
<g id="a_node9"><a xlink:href="../../d7/d97/classDotNumerics_1_1LinearAlgebra_1_1CSLapack_1_1DGEMV.html" target="_top" xlink:title=" ">
<polygon fill="white" stroke="black" points="856,-256.5 856,-286.5 994,-286.5 994,-256.5 856,-256.5"/>
<text text-anchor="start" x="864" y="-274.5" font-family="Helvetica,sans-Serif" font-size="10.00">DotNumerics.LinearAlgebra.</text>
<text text-anchor="middle" x="925" y="-263.5" font-family="Helvetica,sans-Serif" font-size="10.00">CSLapack.DGEMV</text>
</a>
</g>
</g>
<!-- Node2&#45;&gt;Node9 -->
<g id="edge11" class="edge"><title>Node2&#45;&gt;Node9</title>
<path fill="none" stroke="#9a32cd" stroke-dasharray="5,2" d="M763.052,-483.343C769.179,-479.635 775.018,-475.368 780,-470.5 792.511,-458.275 789.884,-450.995 798,-435.5 815.528,-402.035 823.986,-395.582 838,-360.5 849.12,-332.663 835.549,-317.416 856,-295.5 859.246,-292.022 863.026,-289.047 867.111,-286.504"/>
<polygon fill="#9a32cd" stroke="#9a32cd" points="760.997,-480.479 753.936,-488.378 764.382,-486.607 760.997,-480.479"/>
<text text-anchor="middle" x="818" y="-438.5" font-family="Helvetica,sans-Serif" font-size="10.00"> _xerbla</text>
</g>
<!-- Node20 -->
<g id="node20" class="node"><title>Node20</title>
<g id="a_node20"><a xlink:href="../../d8/d8c/classDotNumerics_1_1LinearAlgebra_1_1CSLapack_1_1DSYTD2.html" target="_top" xlink:title="– LAPACK routine (version 3.1) – Univ. of Tennessee, Univ. of California Berkeley and NAG Ltd....">
<polygon fill="white" stroke="black" points="1068,-461.5 1068,-491.5 1206,-491.5 1206,-461.5 1068,-461.5"/>
<text text-anchor="start" x="1076" y="-479.5" font-family="Helvetica,sans-Serif" font-size="10.00">DotNumerics.LinearAlgebra.</text>
<text text-anchor="middle" x="1137" y="-468.5" font-family="Helvetica,sans-Serif" font-size="10.00">CSLapack.DSYTD2</text>
</a>
</g>
</g>
<!-- Node2&#45;&gt;Node20 -->
<g id="edge32" class="edge"><title>Node2&#45;&gt;Node20</title>
<path fill="none" stroke="#9a32cd" stroke-dasharray="5,2" d="M790.247,-504.449C792.862,-504.468 795.452,-504.485 798,-504.5 815.777,-504.603 820.235,-505.169 838,-504.5 932.423,-500.942 956.05,-498.59 1050,-488.5 1055.85,-487.872 1061.91,-487.157 1067.98,-486.396"/>
<polygon fill="#9a32cd" stroke="#9a32cd" points="790.097,-500.947 780.068,-504.364 790.039,-507.947 790.097,-500.947"/>
<text text-anchor="middle" x="925" y="-507.5" font-family="Helvetica,sans-Serif" font-size="10.00"> _xerbla</text>
</g>
<!-- Node21 -->
<g id="node21" class="node"><title>Node21</title>
<g id="a_node21"><a xlink:href="../../db/d26/classDotNumerics_1_1LinearAlgebra_1_1CSLapack_1_1DSYR2.html" target="_top" xlink:title=" ">
<polygon fill="white" stroke="black" points="856,-452.5 856,-482.5 994,-482.5 994,-452.5 856,-452.5"/>
<text text-anchor="start" x="864" y="-470.5" font-family="Helvetica,sans-Serif" font-size="10.00">DotNumerics.LinearAlgebra.</text>
<text text-anchor="middle" x="925" y="-459.5" font-family="Helvetica,sans-Serif" font-size="10.00">CSLapack.DSYR2</text>
</a>
</g>
</g>
<!-- Node2&#45;&gt;Node21 -->
<g id="edge30" class="edge"><title>Node2&#45;&gt;Node21</title>
<path fill="none" stroke="#9a32cd" stroke-dasharray="5,2" d="M790.328,-490.199C811.843,-486.546 834.993,-482.614 855.883,-479.067"/>
<polygon fill="#9a32cd" stroke="#9a32cd" points="789.518,-486.786 780.245,-491.911 790.69,-493.688 789.518,-486.786"/>
<text text-anchor="middle" x="818" y="-492.5" font-family="Helvetica,sans-Serif" font-size="10.00"> _xerbla</text>
</g>
<!-- Node25 -->
<g id="node25" class="node"><title>Node25</title>
<g id="a_node25"><a xlink:href="../../db/da7/classDotNumerics_1_1LinearAlgebra_1_1CSLapack_1_1DSYR2K.html" target="_top" xlink:title=" ">
<polygon fill="white" stroke="black" points="856,-625.5 856,-655.5 994,-655.5 994,-625.5 856,-625.5"/>
<text text-anchor="start" x="864" y="-643.5" font-family="Helvetica,sans-Serif" font-size="10.00">DotNumerics.LinearAlgebra.</text>
<text text-anchor="middle" x="925" y="-632.5" font-family="Helvetica,sans-Serif" font-size="10.00">CSLapack.DSYR2K</text>
</a>
</g>
</g>
<!-- Node2&#45;&gt;Node25 -->
<g id="edge43" class="edge"><title>Node2&#45;&gt;Node25</title>
<path fill="none" stroke="#9a32cd" stroke-dasharray="5,2" d="M726.113,-527.42C741.083,-550.734 766.853,-585.508 798,-605.5 815.291,-616.598 836.104,-624.224 855.787,-629.445"/>
<polygon fill="#9a32cd" stroke="#9a32cd" points="728.998,-525.434 720.734,-518.803 723.06,-529.14 728.998,-525.434"/>
<text text-anchor="middle" x="818" y="-626.5" font-family="Helvetica,sans-Serif" font-size="10.00"> _xerbla</text>
</g>
<!-- Node3 -->
<g id="node3" class="node"><title>Node3</title>
<g id="a_node3"><a xlink:href="../../de/d7b/classDotNumerics_1_1LinearAlgebra_1_1CSLapack_1_1DLATRD.html" target="_top" xlink:title="– LAPACK auxiliary routine (version 3.1) – Univ. of Tennessee, Univ. of California Berkeley and NAG L...">
<polygon fill="white" stroke="black" points="1068,-240.5 1068,-270.5 1206,-270.5 1206,-240.5 1068,-240.5"/>
<text text-anchor="start" x="1076" y="-258.5" font-family="Helvetica,sans-Serif" font-size="10.00">DotNumerics.LinearAlgebra.</text>
<text text-anchor="middle" x="1137" y="-247.5" font-family="Helvetica,sans-Serif" font-size="10.00">CSLapack.DLATRD</text>
</a>
</g>
</g>
<!-- Node3&#45;&gt;Node1 -->
<g id="edge2" class="edge"><title>Node3&#45;&gt;Node1</title>
<path fill="none" stroke="#9a32cd" stroke-dasharray="5,2" d="M1155.76,-278.837C1197.63,-333.873 1301.64,-470.573 1336.45,-516.315"/>
<polygon fill="#9a32cd" stroke="#9a32cd" points="1158.43,-276.571 1149.59,-270.732 1152.86,-280.81 1158.43,-276.571"/>
<text text-anchor="middle" x="1243" y="-421.5" font-family="Helvetica,sans-Serif" font-size="10.00"> _dlatrd</text>
</g>
<!-- Node4 -->
<g id="node4" class="node"><title>Node4</title>
<g id="a_node4"><a xlink:href="../../d1/d76/classDotNumerics_1_1LinearAlgebra_1_1CSLapack_1_1DSCAL.html" target="_top" xlink:title=" ">
<polygon fill="white" stroke="black" points="642,-140.5 642,-170.5 780,-170.5 780,-140.5 642,-140.5"/>
<text text-anchor="start" x="650" y="-158.5" font-family="Helvetica,sans-Serif" font-size="10.00">DotNumerics.LinearAlgebra.</text>
<text text-anchor="middle" x="711" y="-147.5" font-family="Helvetica,sans-Serif" font-size="10.00">CSLapack.DSCAL</text>
</a>
</g>
</g>
<!-- Node4&#45;&gt;Node3 -->
<g id="edge3" class="edge"><title>Node4&#45;&gt;Node3</title>
<path fill="none" stroke="#9a32cd" stroke-dasharray="5,2" d="M790.211,-152.744C860.684,-152.958 965.838,-160.087 1050,-194.5 1076.77,-205.446 1103.26,-226.117 1119.61,-240.339"/>
<polygon fill="#9a32cd" stroke="#9a32cd" points="790.066,-149.244 780.072,-152.76 790.078,-156.244 790.066,-149.244"/>
<text text-anchor="middle" x="925" y="-178.5" font-family="Helvetica,sans-Serif" font-size="10.00"> _dscal</text>
</g>
<!-- Node10 -->
<g id="node10" class="node"><title>Node10</title>
<g id="a_node10"><a xlink:href="../../d8/dbd/classDotNumerics_1_1LinearAlgebra_1_1CSLapack_1_1DLARFG.html" target="_top" xlink:title="– LAPACK auxiliary routine (version 3.1) – Univ. of Tennessee, Univ. of California Berkeley and NAG L...">
<polygon fill="white" stroke="black" points="856,-206.5 856,-236.5 994,-236.5 994,-206.5 856,-206.5"/>
<text text-anchor="start" x="864" y="-224.5" font-family="Helvetica,sans-Serif" font-size="10.00">DotNumerics.LinearAlgebra.</text>
<text text-anchor="middle" x="925" y="-213.5" font-family="Helvetica,sans-Serif" font-size="10.00">CSLapack.DLARFG</text>
</a>
</g>
</g>
<!-- Node4&#45;&gt;Node10 -->
<g id="edge14" class="edge"><title>Node4&#45;&gt;Node10</title>
<path fill="none" stroke="#9a32cd" stroke-dasharray="5,2" d="M769.926,-173.534C803.03,-183.84 844.071,-196.617 875.47,-206.392"/>
<polygon fill="#9a32cd" stroke="#9a32cd" points="770.96,-170.19 760.371,-170.559 768.879,-176.873 770.96,-170.19"/>
<text text-anchor="middle" x="818" y="-197.5" font-family="Helvetica,sans-Serif" font-size="10.00"> _dscal</text>
</g>
<!-- Node5 -->
<g id="node5" class="node"><title>Node5</title>
<g id="a_node5"><a xlink:href="../../dd/dac/classDotNumerics_1_1LinearAlgebra_1_1CSLapack_1_1LSAME.html" target="_top" xlink:title="– LAPACK auxiliary routine (version 3.1) – Univ. of Tennessee, Univ. of California Berkeley and NAG L...">
<polygon fill="white" stroke="black" points="428,-416.5 428,-446.5 566,-446.5 566,-416.5 428,-416.5"/>
<text text-anchor="start" x="436" y="-434.5" font-family="Helvetica,sans-Serif" font-size="10.00">DotNumerics.LinearAlgebra.</text>
<text text-anchor="middle" x="497" y="-423.5" font-family="Helvetica,sans-Serif" font-size="10.00">CSLapack.LSAME</text>
</a>
</g>
</g>
<!-- Node5&#45;&gt;Node1 -->
<g id="edge38" class="edge"><title>Node5&#45;&gt;Node1</title>
<path fill="none" stroke="#9a32cd" stroke-dasharray="5,2" d="M503.843,-456.483C514.309,-497.01 539.435,-578.025 584,-632.5 623.274,-680.507 647.975,-692.5 710,-692.5 710,-692.5 710,-692.5 1138,-692.5 1233.33,-692.5 1312.09,-586.725 1338.51,-546.646"/>
<polygon fill="#9a32cd" stroke="#9a32cd" points="507.203,-455.491 501.385,-446.636 500.411,-457.186 507.203,-455.491"/>
<text text-anchor="middle" x="925" y="-695.5" font-family="Helvetica,sans-Serif" font-size="10.00"> _lsame</text>
</g>
<!-- Node5&#45;&gt;Node3 -->
<g id="edge4" class="edge"><title>Node5&#45;&gt;Node3</title>
<path fill="none" stroke="#9a32cd" stroke-dasharray="5,2" d="M513.874,-407.923C528.463,-385.69 550.163,-351.146 566,-319.5 606.517,-238.535 566.983,-181.189 642,-130.5 681.615,-103.732 966.486,-143.78 994,-151.5 1049.02,-166.937 1099.43,-215.314 1122.6,-240.271"/>
<polygon fill="#9a32cd" stroke="#9a32cd" points="510.883,-406.101 508.282,-416.372 516.72,-409.964 510.883,-406.101"/>
<text text-anchor="middle" x="818" y="-133.5" font-family="Helvetica,sans-Serif" font-size="10.00"> _lsame</text>
</g>
<!-- Node5&#45;&gt;Node8 -->
<g id="edge9" class="edge"><title>Node5&#45;&gt;Node8</title>
<path fill="none" stroke="#9a32cd" stroke-dasharray="5,2" d="M576.089,-425.931C597.45,-424.595 620.608,-423.32 642,-422.5 715.024,-419.702 798.752,-418.807 855.883,-418.547"/>
<polygon fill="#9a32cd" stroke="#9a32cd" points="575.847,-422.439 566.09,-426.568 576.292,-429.425 575.847,-422.439"/>
<text text-anchor="middle" x="711" y="-425.5" font-family="Helvetica,sans-Serif" font-size="10.00"> _lsame</text>
</g>
<!-- Node5&#45;&gt;Node9 -->
<g id="edge12" class="edge"><title>Node5&#45;&gt;Node9</title>
<path fill="none" stroke="#9a32cd" stroke-dasharray="5,2" d="M550.23,-413.036C607.04,-392.768 700.392,-358.92 780,-327.5 814.091,-314.045 821.816,-308.716 856,-295.5 863.707,-292.52 871.96,-289.482 879.965,-286.613"/>
<polygon fill="#9a32cd" stroke="#9a32cd" points="548.993,-409.762 540.747,-416.415 551.342,-416.356 548.993,-409.762"/>
<text text-anchor="middle" x="711" y="-382.5" font-family="Helvetica,sans-Serif" font-size="10.00"> _lsame</text>
</g>
<!-- Node11 -->
<g id="node11" class="node"><title>Node11</title>
<g id="a_node11"><a xlink:href="../../d4/dd0/classDotNumerics_1_1LinearAlgebra_1_1CSLapack_1_1DLAMCH.html" target="_top" xlink:title="– LAPACK auxiliary routine (version 3.1) – Univ. of Tennessee, Univ. of California Berkeley and NAG L...">
<polygon fill="white" stroke="black" points="642,-288.5 642,-318.5 780,-318.5 780,-288.5 642,-288.5"/>
<text text-anchor="start" x="650" y="-306.5" font-family="Helvetica,sans-Serif" font-size="10.00">DotNumerics.LinearAlgebra.</text>
<text text-anchor="middle" x="711" y="-295.5" font-family="Helvetica,sans-Serif" font-size="10.00">CSLapack.DLAMCH</text>
</a>
</g>
</g>
<!-- Node5&#45;&gt;Node11 -->
<g id="edge16" class="edge"><title>Node5&#45;&gt;Node11</title>
<path fill="none" stroke="#9a32cd" stroke-dasharray="5,2" d="M511.678,-407.806C526.462,-384.413 552.229,-349.47 584,-330.5 601.383,-320.121 622.223,-313.706 641.902,-309.749"/>
<polygon fill="#9a32cd" stroke="#9a32cd" points="508.623,-406.092 506.382,-416.447 514.592,-409.75 508.623,-406.092"/>
<text text-anchor="middle" x="604" y="-333.5" font-family="Helvetica,sans-Serif" font-size="10.00"> _lsame</text>
</g>
<!-- Node5&#45;&gt;Node20 -->
<g id="edge33" class="edge"><title>Node5&#45;&gt;Node20</title>
<path fill="none" stroke="#9a32cd" stroke-dasharray="5,2" d="M521.864,-453.316C548.799,-476.436 595.016,-511.737 642,-527.5 814.166,-585.261 879.532,-612.095 1050,-549.5 1081.25,-538.024 1108.92,-509.598 1123.99,-491.795"/>
<polygon fill="#9a32cd" stroke="#9a32cd" points="523.977,-450.514 514.145,-446.567 519.37,-455.784 523.977,-450.514"/>
<text text-anchor="middle" x="818" y="-585.5" font-family="Helvetica,sans-Serif" font-size="10.00"> _lsame</text>
</g>
<!-- Node5&#45;&gt;Node21 -->
<g id="edge31" class="edge"><title>Node5&#45;&gt;Node21</title>
<path fill="none" stroke="#9a32cd" stroke-dasharray="5,2" d="M576.239,-437.982C578.857,-438.163 581.449,-438.336 584,-438.5 696.782,-445.752 725.814,-436.838 838,-450.5 843.741,-451.199 849.673,-452.065 855.612,-453.033"/>
<polygon fill="#9a32cd" stroke="#9a32cd" points="576.277,-434.476 566.053,-437.254 575.778,-441.458 576.277,-434.476"/>
<text text-anchor="middle" x="711" y="-448.5" font-family="Helvetica,sans-Serif" font-size="10.00"> _lsame</text>
</g>
<!-- Node5&#45;&gt;Node25 -->
<g id="edge44" class="edge"><title>Node5&#45;&gt;Node25</title>
<path fill="none" stroke="#9a32cd" stroke-dasharray="5,2" d="M502.558,-456.568C511.088,-495.69 533.39,-570.594 584,-607.5 663.184,-665.243 781.812,-662.189 855.966,-652.768"/>
<polygon fill="#9a32cd" stroke="#9a32cd" points="505.94,-455.639 500.505,-446.544 499.083,-457.043 505.94,-455.639"/>
<text text-anchor="middle" x="711" y="-660.5" font-family="Helvetica,sans-Serif" font-size="10.00"> _lsame</text>
</g>
<!-- Node6 -->
<g id="node6" class="node"><title>Node6</title>
<g id="a_node6"><a xlink:href="../../d4/d70/classDotNumerics_1_1LinearAlgebra_1_1CSLapack_1_1DAXPY.html" target="_top" xlink:title=" ">
<polygon fill="white" stroke="black" points="856,-305.5 856,-335.5 994,-335.5 994,-305.5 856,-305.5"/>
<text text-anchor="start" x="864" y="-323.5" font-family="Helvetica,sans-Serif" font-size="10.00">DotNumerics.LinearAlgebra.</text>
<text text-anchor="middle" x="925" y="-312.5" font-family="Helvetica,sans-Serif" font-size="10.00">CSLapack.DAXPY</text>
</a>
</g>
</g>
<!-- Node6&#45;&gt;Node3 -->
<g id="edge5" class="edge"><title>Node6&#45;&gt;Node3</title>
<path fill="none" stroke="#9a32cd" stroke-dasharray="5,2" d="M976.862,-302.187C988.373,-298.201 1000.57,-294.103 1012,-290.5 1034.08,-283.539 1058.58,-276.486 1079.92,-270.553"/>
<polygon fill="#9a32cd" stroke="#9a32cd" points="975.674,-298.894 967.386,-305.494 977.981,-305.503 975.674,-298.894"/>
<text text-anchor="middle" x="1031" y="-293.5" font-family="Helvetica,sans-Serif" font-size="10.00"> _daxpy</text>
</g>
<!-- Node6&#45;&gt;Node20 -->
<g id="edge34" class="edge"><title>Node6&#45;&gt;Node20</title>
<path fill="none" stroke="#9a32cd" stroke-dasharray="5,2" d="M1004.26,-336.122C1020.3,-341.552 1036.41,-348.815 1050,-358.5 1088.6,-386.012 1116.7,-436.293 1129.04,-461.4"/>
<polygon fill="#9a32cd" stroke="#9a32cd" points="1004.89,-332.652 994.304,-332.972 1002.78,-339.326 1004.89,-332.652"/>
<text text-anchor="middle" x="1031" y="-361.5" font-family="Helvetica,sans-Serif" font-size="10.00"> _daxpy</text>
</g>
<!-- Node7 -->
<g id="node7" class="node"><title>Node7</title>
<g id="a_node7"><a xlink:href="../../de/d1b/classDotNumerics_1_1LinearAlgebra_1_1CSLapack_1_1DDOT.html" target="_top" xlink:title=" ">
<polygon fill="white" stroke="black" points="856,-354.5 856,-384.5 994,-384.5 994,-354.5 856,-354.5"/>
<text text-anchor="start" x="864" y="-372.5" font-family="Helvetica,sans-Serif" font-size="10.00">DotNumerics.LinearAlgebra.</text>
<text text-anchor="middle" x="925" y="-361.5" font-family="Helvetica,sans-Serif" font-size="10.00">CSLapack.DDOT</text>
</a>
</g>
</g>
<!-- Node7&#45;&gt;Node3 -->
<g id="edge6" class="edge"><title>Node7&#45;&gt;Node3</title>
<path fill="none" stroke="#9a32cd" stroke-dasharray="5,2" d="M984.851,-350.002C988.026,-348.296 991.1,-346.463 994,-344.5 1003.9,-337.796 1002.65,-331.953 1012,-324.5 1020.31,-317.878 1073.72,-288.851 1107.68,-270.62"/>
<polygon fill="#9a32cd" stroke="#9a32cd" points="983.139,-346.943 975.694,-354.48 986.215,-353.231 983.139,-346.943"/>
<text text-anchor="middle" x="1031" y="-327.5" font-family="Helvetica,sans-Serif" font-size="10.00"> _ddot</text>
</g>
<!-- Node7&#45;&gt;Node20 -->
<g id="edge35" class="edge"><title>Node7&#45;&gt;Node20</title>
<path fill="none" stroke="#9a32cd" stroke-dasharray="5,2" d="M982.098,-388.34C986.162,-389.997 990.167,-391.723 994,-393.5 999.975,-396.27 1071.09,-438.159 1110.35,-461.341"/>
<polygon fill="#9a32cd" stroke="#9a32cd" points="983.149,-384.993 972.561,-384.607 980.597,-391.511 983.149,-384.993"/>
<text text-anchor="middle" x="1031" y="-427.5" font-family="Helvetica,sans-Serif" font-size="10.00"> _ddot</text>
</g>
<!-- Node8&#45;&gt;Node3 -->
<g id="edge7" class="edge"><title>Node8&#45;&gt;Node3</title>
<path fill="none" stroke="#9a32cd" stroke-dasharray="5,2" d="M981.375,-400.099C1008.88,-390.275 1038.63,-378.408 1050,-369.5 1085.91,-341.363 1114.62,-294.78 1127.94,-270.803"/>
<polygon fill="#9a32cd" stroke="#9a32cd" points="980.041,-396.857 971.772,-403.48 982.366,-403.46 980.041,-396.857"/>
<text text-anchor="middle" x="1031" y="-391.5" font-family="Helvetica,sans-Serif" font-size="10.00"> _dsymv</text>
</g>
<!-- Node8&#45;&gt;Node20 -->
<g id="edge36" class="edge"><title>Node8&#45;&gt;Node20</title>
<path fill="none" stroke="#9a32cd" stroke-dasharray="5,2" d="M990.058,-436.192C1019.29,-444.265 1053.54,-453.725 1081.51,-461.45"/>
<polygon fill="#9a32cd" stroke="#9a32cd" points="990.924,-432.8 980.353,-433.512 989.061,-439.548 990.924,-432.8"/>
<text text-anchor="middle" x="1031" y="-456.5" font-family="Helvetica,sans-Serif" font-size="10.00"> _dsymv</text>
</g>
<!-- Node9&#45;&gt;Node3 -->
<g id="edge10" class="edge"><title>Node9&#45;&gt;Node3</title>
<path fill="none" stroke="#9a32cd" stroke-dasharray="5,2" d="M984.37,-251.705C987.735,-249.799 990.975,-247.733 994,-245.5 1004.44,-237.79 1000.33,-228.185 1012,-222.5 1045.44,-206.205 1088.02,-225.213 1113.59,-240.399"/>
<polygon fill="#9a32cd" stroke="#9a32cd" points="982.539,-248.711 975.236,-256.386 985.731,-254.94 982.539,-248.711"/>
<text text-anchor="middle" x="1031" y="-225.5" font-family="Helvetica,sans-Serif" font-size="10.00"> _dgemv</text>
</g>
<!-- Node10&#45;&gt;Node3 -->
<g id="edge13" class="edge"><title>Node10&#45;&gt;Node3</title>
<path fill="none" stroke="#9a32cd" stroke-dasharray="5,2" d="M975.231,-203.731C998.231,-197.917 1025.81,-194.536 1050,-201.5 1076.26,-209.061 1102.25,-227.262 1118.67,-240.447"/>
<polygon fill="#9a32cd" stroke="#9a32cd" points="974.062,-200.422 965.347,-206.446 975.916,-207.172 974.062,-200.422"/>
<text text-anchor="middle" x="1031" y="-204.5" font-family="Helvetica,sans-Serif" font-size="10.00"> _dlarfg</text>
</g>
<!-- Node10&#45;&gt;Node20 -->
<g id="edge37" class="edge"><title>Node10&#45;&gt;Node20</title>
<path fill="none" stroke="#9a32cd" stroke-dasharray="5,2" d="M1003.96,-237.268C1020.68,-243.546 1037.16,-252.302 1050,-264.5 1109.04,-320.571 1128.67,-422.786 1134.15,-461.287"/>
<polygon fill="#9a32cd" stroke="#9a32cd" points="1004.7,-233.823 994.108,-233.851 1002.41,-240.436 1004.7,-233.823"/>
<text text-anchor="middle" x="1031" y="-267.5" font-family="Helvetica,sans-Serif" font-size="10.00"> _dlarfg</text>
</g>
<!-- Node11&#45;&gt;Node10 -->
<g id="edge15" class="edge"><title>Node11&#45;&gt;Node10</title>
<path fill="none" stroke="#9a32cd" stroke-dasharray="5,2" d="M762.742,-284.91C768.565,-282.757 774.414,-280.586 780,-278.5 805.827,-268.854 812.996,-268.114 838,-256.5 846.3,-252.645 847.68,-250.313 856,-246.5 863.661,-242.989 871.97,-239.604 880.063,-236.518"/>
<polygon fill="#9a32cd" stroke="#9a32cd" points="761.188,-281.752 753.018,-288.497 763.611,-288.32 761.188,-281.752"/>
<text text-anchor="middle" x="818" y="-275.5" font-family="Helvetica,sans-Serif" font-size="10.00"> _dlamch</text>
</g>
<!-- Node12 -->
<g id="node12" class="node"><title>Node12</title>
<g id="a_node12"><a xlink:href="../../dc/ddd/classDotNumerics_1_1LinearAlgebra_1_1CSLapack_1_1DLAMC2.html" target="_top" xlink:title="– LAPACK auxiliary routine (version 3.1) – Univ. of Tennessee, Univ. of California Berkeley and NAG L...">
<polygon fill="white" stroke="black" points="428,-280.5 428,-310.5 566,-310.5 566,-280.5 428,-280.5"/>
<text text-anchor="start" x="436" y="-298.5" font-family="Helvetica,sans-Serif" font-size="10.00">DotNumerics.LinearAlgebra.</text>
<text text-anchor="middle" x="497" y="-287.5" font-family="Helvetica,sans-Serif" font-size="10.00">CSLapack.DLAMC2</text>
</a>
</g>
</g>
<!-- Node12&#45;&gt;Node11 -->
<g id="edge17" class="edge"><title>Node12&#45;&gt;Node11</title>
<path fill="none" stroke="#9a32cd" stroke-dasharray="5,2" d="M576.295,-295.231C592.094,-295.428 608.583,-295.812 624,-296.5 629.836,-296.76 635.89,-297.104 641.96,-297.499"/>
<polygon fill="#9a32cd" stroke="#9a32cd" points="576.066,-291.729 566.031,-295.128 575.995,-298.729 576.066,-291.729"/>
<text text-anchor="middle" x="604" y="-299.5" font-family="Helvetica,sans-Serif" font-size="10.00"> _dlamc2</text>
</g>
<!-- Node13 -->
<g id="node13" class="node"><title>Node13</title>
<g id="a_node13"><a xlink:href="../../d5/db1/classDotNumerics_1_1LinearAlgebra_1_1CSLapack_1_1DLAMC1.html" target="_top" xlink:title="– LAPACK auxiliary routine (version 3.1) – Univ. of Tennessee, Univ. of California Berkeley and NAG L...">
<polygon fill="white" stroke="black" points="214,-338.5 214,-368.5 352,-368.5 352,-338.5 214,-338.5"/>
<text text-anchor="start" x="222" y="-356.5" font-family="Helvetica,sans-Serif" font-size="10.00">DotNumerics.LinearAlgebra.</text>
<text text-anchor="middle" x="283" y="-345.5" font-family="Helvetica,sans-Serif" font-size="10.00">CSLapack.DLAMC1</text>
</a>
</g>
</g>
<!-- Node13&#45;&gt;Node12 -->
<g id="edge18" class="edge"><title>Node13&#45;&gt;Node12</title>
<path fill="none" stroke="#9a32cd" stroke-dasharray="5,2" d="M358.499,-335.995C375.48,-331.776 393.406,-327.141 410,-322.5 422.961,-318.875 436.919,-314.638 449.742,-310.61"/>
<polygon fill="#9a32cd" stroke="#9a32cd" points="357.5,-332.636 348.627,-338.427 359.174,-339.433 357.5,-332.636"/>
<text text-anchor="middle" x="390" y="-336.5" font-family="Helvetica,sans-Serif" font-size="10.00"> _dlamc1</text>
</g>
<!-- Node14 -->
<g id="node14" class="node"><title>Node14</title>
<g id="a_node14"><a xlink:href="../../db/dbb/classDotNumerics_1_1LinearAlgebra_1_1CSLapack_1_1DLAMC3.html" target="_top" xlink:title="– LAPACK auxiliary routine (version 3.1) – Univ. of Tennessee, Univ. of California Berkeley and NAG L...">
<polygon fill="white" stroke="black" points="0,-273.5 0,-303.5 138,-303.5 138,-273.5 0,-273.5"/>
<text text-anchor="start" x="8" y="-291.5" font-family="Helvetica,sans-Serif" font-size="10.00">DotNumerics.LinearAlgebra.</text>
<text text-anchor="middle" x="69" y="-280.5" font-family="Helvetica,sans-Serif" font-size="10.00">CSLapack.DLAMC3</text>
</a>
</g>
</g>
<!-- Node14&#45;&gt;Node12 -->
<g id="edge20" class="edge"><title>Node14&#45;&gt;Node12</title>
<path fill="none" stroke="#9a32cd" stroke-dasharray="5,2" d="M148.247,-290.335C150.862,-290.391 153.452,-290.447 156,-290.5 251.107,-292.495 274.881,-293.234 370,-294.5 388.811,-294.75 409.204,-294.945 427.991,-295.094"/>
<polygon fill="#9a32cd" stroke="#9a32cd" points="148.142,-286.832 138.068,-290.112 147.989,-293.83 148.142,-286.832"/>
<text text-anchor="middle" x="283" y="-297.5" font-family="Helvetica,sans-Serif" font-size="10.00"> _dlamc3</text>
</g>
<!-- Node14&#45;&gt;Node13 -->
<g id="edge19" class="edge"><title>Node14&#45;&gt;Node13</title>
<path fill="none" stroke="#9a32cd" stroke-dasharray="5,2" d="M114.523,-307.427C127.74,-312.685 142.338,-318.141 156,-322.5 174.564,-328.423 194.968,-333.883 213.85,-338.516"/>
<polygon fill="#9a32cd" stroke="#9a32cd" points="115.759,-304.152 105.176,-303.653 113.138,-310.643 115.759,-304.152"/>
<text text-anchor="middle" x="176" y="-336.5" font-family="Helvetica,sans-Serif" font-size="10.00"> _dlamc3</text>
</g>
<!-- Node15 -->
<g id="node15" class="node"><title>Node15</title>
<g id="a_node15"><a xlink:href="../../de/dd1/classDotNumerics_1_1LinearAlgebra_1_1CSLapack_1_1DLAMC4.html" target="_top" xlink:title="– LAPACK auxiliary routine (version 3.1) – Univ. of Tennessee, Univ. of California Berkeley and NAG L...">
<polygon fill="white" stroke="black" points="214,-241.5 214,-271.5 352,-271.5 352,-241.5 214,-241.5"/>
<text text-anchor="start" x="222" y="-259.5" font-family="Helvetica,sans-Serif" font-size="10.00">DotNumerics.LinearAlgebra.</text>
<text text-anchor="middle" x="283" y="-248.5" font-family="Helvetica,sans-Serif" font-size="10.00">CSLapack.DLAMC4</text>
</a>
</g>
</g>
<!-- Node14&#45;&gt;Node15 -->
<g id="edge22" class="edge"><title>Node14&#45;&gt;Node15</title>
<path fill="none" stroke="#9a32cd" stroke-dasharray="5,2" d="M148.328,-276.677C169.843,-273.429 192.993,-269.935 213.883,-266.782"/>
<polygon fill="#9a32cd" stroke="#9a32cd" points="147.611,-273.245 138.245,-278.199 148.655,-280.167 147.611,-273.245"/>
<text text-anchor="middle" x="176" y="-278.5" font-family="Helvetica,sans-Serif" font-size="10.00"> _dlamc3</text>
</g>
<!-- Node16 -->
<g id="node16" class="node"><title>Node16</title>
<g id="a_node16"><a xlink:href="../../d7/d30/classDotNumerics_1_1LinearAlgebra_1_1CSLapack_1_1DLAMC5.html" target="_top" xlink:title="– LAPACK auxiliary routine (version 3.1) – Univ. of Tennessee, Univ. of California Berkeley and NAG L...">
<polygon fill="white" stroke="black" points="214,-192.5 214,-222.5 352,-222.5 352,-192.5 214,-192.5"/>
<text text-anchor="start" x="222" y="-210.5" font-family="Helvetica,sans-Serif" font-size="10.00">DotNumerics.LinearAlgebra.</text>
<text text-anchor="middle" x="283" y="-199.5" font-family="Helvetica,sans-Serif" font-size="10.00">CSLapack.DLAMC5</text>
</a>
</g>
</g>
<!-- Node14&#45;&gt;Node16 -->
<g id="edge24" class="edge"><title>Node14&#45;&gt;Node16</title>
<path fill="none" stroke="#9a32cd" stroke-dasharray="5,2" d="M116.422,-269.612C144.555,-258.293 181.225,-243.766 214,-231.5 221.856,-228.56 230.257,-225.515 238.381,-222.621"/>
<polygon fill="#9a32cd" stroke="#9a32cd" points="114.813,-266.487 106.847,-273.472 117.43,-272.979 114.813,-266.487"/>
<text text-anchor="middle" x="176" y="-256.5" font-family="Helvetica,sans-Serif" font-size="10.00"> _dlamc3</text>
</g>
<!-- Node15&#45;&gt;Node12 -->
<g id="edge21" class="edge"><title>Node15&#45;&gt;Node12</title>
<path fill="none" stroke="#9a32cd" stroke-dasharray="5,2" d="M362.328,-270.909C383.843,-274.867 406.993,-279.126 427.883,-282.969"/>
<polygon fill="#9a32cd" stroke="#9a32cd" points="362.713,-267.422 352.245,-269.055 361.447,-274.306 362.713,-267.422"/>
<text text-anchor="middle" x="390" y="-282.5" font-family="Helvetica,sans-Serif" font-size="10.00"> _dlamc4</text>
</g>
<!-- Node16&#45;&gt;Node12 -->
<g id="edge23" class="edge"><title>Node16&#45;&gt;Node12</title>
<path fill="none" stroke="#9a32cd" stroke-dasharray="5,2" d="M338.117,-226.163C342.83,-227.92 347.511,-229.713 352,-231.5 391.018,-247.028 435.017,-266.945 463.996,-280.404"/>
<polygon fill="#9a32cd" stroke="#9a32cd" points="339.042,-222.774 328.448,-222.619 336.633,-229.347 339.042,-222.774"/>
<text text-anchor="middle" x="390" y="-258.5" font-family="Helvetica,sans-Serif" font-size="10.00"> _dlamc5</text>
</g>
<!-- Node17 -->
<g id="node17" class="node"><title>Node17</title>
<g id="a_node17"><a xlink:href="../../d1/dbf/classDotNumerics_1_1LinearAlgebra_1_1CSLapack_1_1DLAPY2.html" target="_top" xlink:title="– LAPACK auxiliary routine (version 3.1) – Univ. of Tennessee, Univ. of California Berkeley and NAG L...">
<polygon fill="white" stroke="black" points="642,-239.5 642,-269.5 780,-269.5 780,-239.5 642,-239.5"/>
<text text-anchor="start" x="650" y="-257.5" font-family="Helvetica,sans-Serif" font-size="10.00">DotNumerics.LinearAlgebra.</text>
<text text-anchor="middle" x="711" y="-246.5" font-family="Helvetica,sans-Serif" font-size="10.00">CSLapack.DLAPY2</text>
</a>
</g>
</g>
<!-- Node17&#45;&gt;Node10 -->
<g id="edge25" class="edge"><title>Node17&#45;&gt;Node10</title>
<path fill="none" stroke="#9a32cd" stroke-dasharray="5,2" d="M790.328,-242.307C811.843,-238.958 834.993,-235.355 855.883,-232.103"/>
<polygon fill="#9a32cd" stroke="#9a32cd" points="789.588,-238.88 780.245,-243.877 790.664,-245.797 789.588,-238.88"/>
<text text-anchor="middle" x="818" y="-244.5" font-family="Helvetica,sans-Serif" font-size="10.00"> _dlapy2</text>
</g>
<!-- Node18 -->
<g id="node18" class="node"><title>Node18</title>
<g id="a_node18"><a xlink:href="../../d3/df8/classDotNumerics_1_1LinearAlgebra_1_1CSLapack_1_1DNRM2.html" target="_top" xlink:title=" ">
<polygon fill="white" stroke="black" points="642,-190.5 642,-220.5 780,-220.5 780,-190.5 642,-190.5"/>
<text text-anchor="start" x="650" y="-208.5" font-family="Helvetica,sans-Serif" font-size="10.00">DotNumerics.LinearAlgebra.</text>
<text text-anchor="middle" x="711" y="-197.5" font-family="Helvetica,sans-Serif" font-size="10.00">CSLapack.DNRM2</text>
</a>
</g>
</g>
<!-- Node18&#45;&gt;Node10 -->
<g id="edge26" class="edge"><title>Node18&#45;&gt;Node10</title>
<path fill="none" stroke="#9a32cd" stroke-dasharray="5,2" d="M790.328,-211.412C811.843,-213.035 834.993,-214.782 855.883,-216.359"/>
<polygon fill="#9a32cd" stroke="#9a32cd" points="790.48,-207.913 780.245,-210.651 789.953,-214.893 790.48,-207.913"/>
<text text-anchor="middle" x="818" y="-218.5" font-family="Helvetica,sans-Serif" font-size="10.00"> _dnrm2</text>
</g>
<!-- Node19 -->
<g id="node19" class="node"><title>Node19</title>
<g id="a_node19"><a xlink:href="../../d2/dbc/interfaceDotNumerics_1_1LinearAlgebra_1_1CSLapack_1_1IDNRM2.html" target="_top" xlink:title=" ">
<polygon fill="white" stroke="black" points="470.5,-196 470.5,-215 523.5,-215 523.5,-196 470.5,-196"/>
<text text-anchor="middle" x="497" y="-203" font-family="Helvetica,sans-Serif" font-size="10.00">IDNRM2</text>
</a>
</g>
</g>
<!-- Node19&#45;&gt;Node18 -->
<g id="edge27" class="edge"><title>Node19&#45;&gt;Node18</title>
<path fill="none" stroke="midnightblue" d="M533.778,-205.5C563.19,-205.5 605.712,-205.5 641.618,-205.5"/>
<polygon fill="midnightblue" stroke="midnightblue" points="533.572,-202 523.572,-205.5 533.572,-209 533.572,-202"/>
</g>
<!-- Node20&#45;&gt;Node1 -->
<g id="edge28" class="edge"><title>Node20&#45;&gt;Node1</title>
<path fill="none" stroke="#9a32cd" stroke-dasharray="5,2" d="M1205.32,-494.131C1232.82,-501.335 1264.3,-509.58 1290.69,-516.489"/>
<polygon fill="#9a32cd" stroke="#9a32cd" points="1205.94,-490.677 1195.38,-491.529 1204.17,-497.448 1205.94,-490.677"/>
<text text-anchor="middle" x="1243" y="-512.5" font-family="Helvetica,sans-Serif" font-size="10.00"> _dsytd2</text>
</g>
<!-- Node21&#45;&gt;Node20 -->
<g id="edge29" class="edge"><title>Node21&#45;&gt;Node20</title>
<path fill="none" stroke="#9a32cd" stroke-dasharray="5,2" d="M1004.25,-471.16C1006.86,-471.276 1009.45,-471.389 1012,-471.5 1030.08,-472.285 1049.65,-473.093 1067.78,-473.825"/>
<polygon fill="#9a32cd" stroke="#9a32cd" points="1004.21,-467.655 994.067,-470.705 1003.9,-474.648 1004.21,-467.655"/>
<text text-anchor="middle" x="1031" y="-476.5" font-family="Helvetica,sans-Serif" font-size="10.00"> _dsyr2</text>
</g>
<!-- Node22 -->
<g id="node22" class="node"><title>Node22</title>
<g id="a_node22"><a xlink:href="../../dd/dd0/classDotNumerics_1_1LinearAlgebra_1_1CSLapack_1_1ILAENV.html" target="_top" xlink:title="– LAPACK auxiliary routine (version 3.1.1) – Univ. of Tennessee, Univ. of California Berkeley and NAG...">
<polygon fill="white" stroke="black" points="1068,-49.5 1068,-79.5 1206,-79.5 1206,-49.5 1068,-49.5"/>
<text text-anchor="start" x="1076" y="-67.5" font-family="Helvetica,sans-Serif" font-size="10.00">DotNumerics.LinearAlgebra.</text>
<text text-anchor="middle" x="1137" y="-56.5" font-family="Helvetica,sans-Serif" font-size="10.00">CSLapack.ILAENV</text>
</a>
</g>
</g>
<!-- Node22&#45;&gt;Node1 -->
<g id="edge39" class="edge"><title>Node22&#45;&gt;Node1</title>
<path fill="none" stroke="#9a32cd" stroke-dasharray="5,2" d="M1148.9,-88.7481C1186.58,-172.538 1310.65,-448.435 1341.17,-516.312"/>
<polygon fill="#9a32cd" stroke="#9a32cd" points="1152.04,-87.1939 1144.75,-79.509 1145.66,-90.0648 1152.04,-87.1939"/>
<text text-anchor="middle" x="1243" y="-343.5" font-family="Helvetica,sans-Serif" font-size="10.00"> _ilaenv</text>
</g>
<!-- Node23 -->
<g id="node23" class="node"><title>Node23</title>
<g id="a_node23"><a xlink:href="../../d6/dee/classDotNumerics_1_1LinearAlgebra_1_1CSLapack_1_1IEEECK.html" target="_top" xlink:title="– LAPACK auxiliary routine (version 3.1) – Univ. of Tennessee, Univ. of California Berkeley and NAG L...">
<polygon fill="white" stroke="black" points="856,-49.5 856,-79.5 994,-79.5 994,-49.5 856,-49.5"/>
<text text-anchor="start" x="864" y="-67.5" font-family="Helvetica,sans-Serif" font-size="10.00">DotNumerics.LinearAlgebra.</text>
<text text-anchor="middle" x="925" y="-56.5" font-family="Helvetica,sans-Serif" font-size="10.00">CSLapack.IEEECK</text>
</a>
</g>
</g>
<!-- Node23&#45;&gt;Node22 -->
<g id="edge40" class="edge"><title>Node23&#45;&gt;Node22</title>
<path fill="none" stroke="#9a32cd" stroke-dasharray="5,2" d="M1004.29,-64.5C1025.15,-64.5 1047.53,-64.5 1067.8,-64.5"/>
<polygon fill="#9a32cd" stroke="#9a32cd" points="1004.18,-61.0001 994.181,-64.5 1004.18,-68.0001 1004.18,-61.0001"/>
<text text-anchor="middle" x="1031" y="-67.5" font-family="Helvetica,sans-Serif" font-size="10.00"> _ieeeck</text>
</g>
<!-- Node24 -->
<g id="node24" class="node"><title>Node24</title>
<g id="a_node24"><a xlink:href="../../da/dc9/classDotNumerics_1_1LinearAlgebra_1_1CSLapack_1_1IPARMQ.html" target="_top" xlink:title="– LAPACK auxiliary routine (version 3.1) – Univ. of Tennessee, Univ. of California Berkeley and NAG L...">
<polygon fill="white" stroke="black" points="856,-0.5 856,-30.5 994,-30.5 994,-0.5 856,-0.5"/>
<text text-anchor="start" x="864" y="-18.5" font-family="Helvetica,sans-Serif" font-size="10.00">DotNumerics.LinearAlgebra.</text>
<text text-anchor="middle" x="925" y="-7.5" font-family="Helvetica,sans-Serif" font-size="10.00">CSLapack.IPARMQ</text>
</a>
</g>
</g>
<!-- Node24&#45;&gt;Node22 -->
<g id="edge41" class="edge"><title>Node24&#45;&gt;Node22</title>
<path fill="none" stroke="#9a32cd" stroke-dasharray="5,2" d="M1000.28,-32.8309C1023.59,-38.2712 1049.12,-44.2285 1071.69,-49.4938"/>
<polygon fill="#9a32cd" stroke="#9a32cd" points="1000.97,-29.3985 990.434,-30.5346 999.377,-36.2154 1000.97,-29.3985"/>
<text text-anchor="middle" x="1031" y="-47.5" font-family="Helvetica,sans-Serif" font-size="10.00"> _iparmq</text>
</g>
<!-- Node25&#45;&gt;Node1 -->
<g id="edge42" class="edge"><title>Node25&#45;&gt;Node1</title>
<path fill="none" stroke="#9a32cd" stroke-dasharray="5,2" d="M1004.14,-630.239C1073.16,-619.875 1175.91,-601.247 1262,-572.5 1282.4,-565.69 1304.25,-555.223 1320.83,-546.57"/>
<polygon fill="#9a32cd" stroke="#9a32cd" points="1003.59,-626.782 994.207,-631.708 1004.61,-633.707 1003.59,-626.782"/>
<text text-anchor="middle" x="1137" y="-621.5" font-family="Helvetica,sans-Serif" font-size="10.00"> _dsyr2k</text>
</g>
</g>
</svg>
