<?xml version="1.0" encoding="UTF-8" standalone="no"?>
<!DOCTYPE svg PUBLIC "-//W3C//DTD SVG 1.1//EN"
 "http://www.w3.org/Graphics/SVG/1.1/DTD/svg11.dtd">
<!-- Generated by graphviz version 2.38.0 (20140413.2041)
 -->
<!-- Title: NUnit.Engine.ITestEngineRunner Pages: 1 -->
<svg width="815pt" height="235pt"
 viewBox="0.00 0.00 815.00 235.00" xmlns="http://www.w3.org/2000/svg" xmlns:xlink="http://www.w3.org/1999/xlink">
<g id="graph0" class="graph" transform="scale(1 1) rotate(0) translate(4 231)">
<title>NUnit.Engine.ITestEngineRunner</title>
<polygon fill="white" stroke="none" points="-4,4 -4,-231 811,-231 811,4 -4,4"/>
<!-- Node1 -->
<g id="node1" class="node"><title>Node1</title>
<g id="a_node1"><a xlink:title="Interface implemented by all internal test runners in the engine, allowing them to pass back TestEngi...">
<polygon fill="#bfbfbf" stroke="black" points="103,-97.5 103,-127.5 231,-127.5 231,-97.5 103,-97.5"/>
<text text-anchor="start" x="111" y="-115.5" font-family="Helvetica,sans-Serif" font-size="10.00">NUnit.Engine.ITestEngine</text>
<text text-anchor="middle" x="167" y="-104.5" font-family="Helvetica,sans-Serif" font-size="10.00">Runner</text>
</a>
</g>
</g>
<!-- Node3 -->
<g id="node3" class="node"><title>Node3</title>
<g id="a_node3"><a xlink:href="../../dc/daa/classNUnit_1_1Engine_1_1Agents_1_1RemoteTestAgent.html" target="_top" xlink:title="RemoteTestAgent represents a remote agent executing in another process and communicating with NUnit b...">
<polygon fill="white" stroke="black" points="271,-122.5 271,-152.5 415,-152.5 415,-122.5 271,-122.5"/>
<text text-anchor="start" x="279" y="-140.5" font-family="Helvetica,sans-Serif" font-size="10.00">NUnit.Engine.Agents.Remote</text>
<text text-anchor="middle" x="343" y="-129.5" font-family="Helvetica,sans-Serif" font-size="10.00">TestAgent</text>
</a>
</g>
</g>
<!-- Node1&#45;&gt;Node3 -->
<g id="edge2" class="edge"><title>Node1&#45;&gt;Node3</title>
<path fill="none" stroke="midnightblue" d="M241.358,-123.04C251.101,-124.44 261.078,-125.873 270.784,-127.268"/>
<polygon fill="midnightblue" stroke="midnightblue" points="241.706,-119.554 231.31,-121.596 240.711,-126.483 241.706,-119.554"/>
</g>
<!-- Node4 -->
<g id="node4" class="node"><title>Node4</title>
<g id="a_node4"><a xlink:href="../../d6/dfe/classNUnit_1_1Engine_1_1Runners_1_1AbstractTestRunner.html" target="_top" xlink:title="AbstractTestRunner is the base class for all runners within the NUnit Engine. It implements the ITest...">
<polygon fill="white" stroke="black" points="267,-73.5 267,-103.5 419,-103.5 419,-73.5 267,-73.5"/>
<text text-anchor="start" x="275" y="-91.5" font-family="Helvetica,sans-Serif" font-size="10.00">NUnit.Engine.Runners.Abstract</text>
<text text-anchor="middle" x="343" y="-80.5" font-family="Helvetica,sans-Serif" font-size="10.00">TestRunner</text>
</a>
</g>
</g>
<!-- Node1&#45;&gt;Node4 -->
<g id="edge3" class="edge"><title>Node1&#45;&gt;Node4</title>
<path fill="none" stroke="midnightblue" d="M241.467,-102.367C249.883,-101.206 258.471,-100.021 266.907,-98.8576"/>
<polygon fill="midnightblue" stroke="midnightblue" points="240.738,-98.9339 231.31,-103.768 241.695,-105.868 240.738,-98.9339"/>
</g>
<!-- Node2 -->
<g id="node2" class="node"><title>Node2</title>
<g id="a_node2"><a xlink:title=" ">
<polygon fill="white" stroke="#bfbfbf" points="0,-103 0,-122 67,-122 67,-103 0,-103"/>
<text text-anchor="middle" x="33.5" y="-110" font-family="Helvetica,sans-Serif" font-size="10.00">IDisposable</text>
</a>
</g>
</g>
<!-- Node2&#45;&gt;Node1 -->
<g id="edge1" class="edge"><title>Node2&#45;&gt;Node1</title>
<path fill="none" stroke="midnightblue" d="M77.0813,-112.5C85.3065,-112.5 94.0864,-112.5 102.806,-112.5"/>
<polygon fill="midnightblue" stroke="midnightblue" points="77.0057,-109 67.0056,-112.5 77.0056,-116 77.0057,-109"/>
</g>
<!-- Node5 -->
<g id="node5" class="node"><title>Node5</title>
<g id="a_node5"><a xlink:href="../../d5/dff/classNUnit_1_1Engine_1_1Runners_1_1AggregatingTestRunner.html" target="_top" xlink:title="AggregatingTestRunner runs tests using multiple subordinate runners and combines the results.">
<polygon fill="white" stroke="black" points="455,-147.5 455,-177.5 622,-177.5 622,-147.5 455,-147.5"/>
<text text-anchor="start" x="463" y="-165.5" font-family="Helvetica,sans-Serif" font-size="10.00">NUnit.Engine.Runners.Aggregating</text>
<text text-anchor="middle" x="538.5" y="-154.5" font-family="Helvetica,sans-Serif" font-size="10.00">TestRunner</text>
</a>
</g>
</g>
<!-- Node4&#45;&gt;Node5 -->
<g id="edge4" class="edge"><title>Node4&#45;&gt;Node5</title>
<path fill="none" stroke="midnightblue" d="M404.957,-107.162C409.778,-109.137 414.513,-111.253 419,-113.5 436.417,-122.224 437.418,-130.114 455,-138.5 462.001,-141.839 469.562,-144.812 477.166,-147.43"/>
<polygon fill="midnightblue" stroke="midnightblue" points="406.212,-103.895 395.623,-103.538 403.679,-110.42 406.212,-103.895"/>
</g>
<!-- Node8 -->
<g id="node8" class="node"><title>Node8</title>
<g id="a_node8"><a xlink:href="../../d0/d25/classNUnit_1_1Engine_1_1Runners_1_1DirectTestRunner.html" target="_top" xlink:title="DirectTestRunner is the abstract base for runners that deal directly with a framework driver.">
<polygon fill="white" stroke="black" points="468,-98.5 468,-128.5 609,-128.5 609,-98.5 468,-98.5"/>
<text text-anchor="start" x="476" y="-116.5" font-family="Helvetica,sans-Serif" font-size="10.00">NUnit.Engine.Runners.Direct</text>
<text text-anchor="middle" x="538.5" y="-105.5" font-family="Helvetica,sans-Serif" font-size="10.00">TestRunner</text>
</a>
</g>
</g>
<!-- Node4&#45;&gt;Node8 -->
<g id="edge7" class="edge"><title>Node4&#45;&gt;Node8</title>
<path fill="none" stroke="midnightblue" d="M429.334,-99.5251C442.204,-101.188 455.347,-102.886 467.836,-104.499"/>
<polygon fill="midnightblue" stroke="midnightblue" points="429.455,-96.0117 419.089,-98.2014 428.558,-102.954 429.455,-96.0117"/>
</g>
<!-- Node11 -->
<g id="node11" class="node"><title>Node11</title>
<g id="a_node11"><a xlink:href="../../d7/d86/classNUnit_1_1Engine_1_1Runners_1_1MasterTestRunner.html" target="_top" xlink:title=" ">
<polygon fill="white" stroke="black" points="465.5,-49.5 465.5,-79.5 611.5,-79.5 611.5,-49.5 465.5,-49.5"/>
<text text-anchor="start" x="473.5" y="-67.5" font-family="Helvetica,sans-Serif" font-size="10.00">NUnit.Engine.Runners.Master</text>
<text text-anchor="middle" x="538.5" y="-56.5" font-family="Helvetica,sans-Serif" font-size="10.00">TestRunner</text>
</a>
</g>
</g>
<!-- Node4&#45;&gt;Node11 -->
<g id="edge10" class="edge"><title>Node4&#45;&gt;Node11</title>
<path fill="none" stroke="midnightblue" d="M429.149,-77.9388C441.214,-76.4424 453.524,-74.9157 465.312,-73.4536"/>
<polygon fill="midnightblue" stroke="midnightblue" points="428.582,-74.4823 419.089,-79.1866 429.444,-81.429 428.582,-74.4823"/>
</g>
<!-- Node12 -->
<g id="node12" class="node"><title>Node12</title>
<g id="a_node12"><a xlink:href="../../da/d5d/classNUnit_1_1Engine_1_1Runners_1_1ProcessRunner.html" target="_top" xlink:title="Summary description for ProcessRunner.">
<polygon fill="white" stroke="black" points="462.5,-0.5 462.5,-30.5 614.5,-30.5 614.5,-0.5 462.5,-0.5"/>
<text text-anchor="start" x="470.5" y="-18.5" font-family="Helvetica,sans-Serif" font-size="10.00">NUnit.Engine.Runners.Process</text>
<text text-anchor="middle" x="538.5" y="-7.5" font-family="Helvetica,sans-Serif" font-size="10.00">Runner</text>
</a>
</g>
</g>
<!-- Node4&#45;&gt;Node12 -->
<g id="edge11" class="edge"><title>Node4&#45;&gt;Node12</title>
<path fill="none" stroke="midnightblue" d="M384.307,-69.1619C405.143,-59.5627 431.143,-48.1925 455,-39.5 463.69,-36.3339 473.009,-33.2937 482.144,-30.5041"/>
<polygon fill="midnightblue" stroke="midnightblue" points="382.716,-66.0418 375.124,-73.4317 385.667,-72.3893 382.716,-66.0418"/>
</g>
<!-- Node6 -->
<g id="node6" class="node"><title>Node6</title>
<g id="a_node6"><a xlink:href="../../d7/d9e/classNUnit_1_1Engine_1_1Runners_1_1MultipleTestDomainRunner.html" target="_top" xlink:title="MultipleTestDomainRunner runs tests using separate AppDomains for each assembly.">
<polygon fill="white" stroke="black" points="658,-196.5 658,-226.5 807,-226.5 807,-196.5 658,-196.5"/>
<text text-anchor="start" x="666" y="-214.5" font-family="Helvetica,sans-Serif" font-size="10.00">NUnit.Engine.Runners.Multiple</text>
<text text-anchor="middle" x="732.5" y="-203.5" font-family="Helvetica,sans-Serif" font-size="10.00">TestDomainRunner</text>
</a>
</g>
</g>
<!-- Node5&#45;&gt;Node6 -->
<g id="edge5" class="edge"><title>Node5&#45;&gt;Node6</title>
<path fill="none" stroke="midnightblue" d="M608.267,-180.05C629.351,-185.431 652.345,-191.299 672.7,-196.494"/>
<polygon fill="midnightblue" stroke="midnightblue" points="608.966,-176.616 598.411,-177.535 607.235,-183.399 608.966,-176.616"/>
</g>
<!-- Node7 -->
<g id="node7" class="node"><title>Node7</title>
<g id="a_node7"><a xlink:href="../../d7/d23/classNUnit_1_1Engine_1_1Runners_1_1MultipleTestProcessRunner.html" target="_top" xlink:title="MultipleTestProcessRunner runs tests using separate Processes for each assembly.">
<polygon fill="white" stroke="black" points="658,-147.5 658,-177.5 807,-177.5 807,-147.5 658,-147.5"/>
<text text-anchor="start" x="666" y="-165.5" font-family="Helvetica,sans-Serif" font-size="10.00">NUnit.Engine.Runners.Multiple</text>
<text text-anchor="middle" x="732.5" y="-154.5" font-family="Helvetica,sans-Serif" font-size="10.00">TestProcessRunner</text>
</a>
</g>
</g>
<!-- Node5&#45;&gt;Node7 -->
<g id="edge6" class="edge"><title>Node5&#45;&gt;Node7</title>
<path fill="none" stroke="midnightblue" d="M632.123,-162.5C640.741,-162.5 649.396,-162.5 657.808,-162.5"/>
<polygon fill="midnightblue" stroke="midnightblue" points="632.04,-159 622.04,-162.5 632.04,-166 632.04,-159"/>
</g>
<!-- Node9 -->
<g id="node9" class="node"><title>Node9</title>
<g id="a_node9"><a xlink:href="../../d1/d77/classNUnit_1_1Engine_1_1Runners_1_1LocalTestRunner.html" target="_top" xlink:title="LocalTestRunner runs tests in the current AppDomain.">
<polygon fill="white" stroke="black" points="663,-98.5 663,-128.5 802,-128.5 802,-98.5 663,-98.5"/>
<text text-anchor="start" x="671" y="-116.5" font-family="Helvetica,sans-Serif" font-size="10.00">NUnit.Engine.Runners.Local</text>
<text text-anchor="middle" x="732.5" y="-105.5" font-family="Helvetica,sans-Serif" font-size="10.00">TestRunner</text>
</a>
</g>
</g>
<!-- Node8&#45;&gt;Node9 -->
<g id="edge8" class="edge"><title>Node8&#45;&gt;Node9</title>
<path fill="none" stroke="midnightblue" d="M619.464,-113.5C633.86,-113.5 648.751,-113.5 662.792,-113.5"/>
<polygon fill="midnightblue" stroke="midnightblue" points="619.088,-110 609.088,-113.5 619.088,-117 619.088,-110"/>
</g>
<!-- Node10 -->
<g id="node10" class="node"><title>Node10</title>
<g id="a_node10"><a xlink:href="../../d2/d8d/classNUnit_1_1Engine_1_1Runners_1_1TestDomainRunner.html" target="_top" xlink:title="TestDomainRunner loads and runs tests in a separate domain whose lifetime it controls.">
<polygon fill="white" stroke="black" points="665.5,-49.5 665.5,-79.5 799.5,-79.5 799.5,-49.5 665.5,-49.5"/>
<text text-anchor="start" x="673.5" y="-67.5" font-family="Helvetica,sans-Serif" font-size="10.00">NUnit.Engine.Runners.Test</text>
<text text-anchor="middle" x="732.5" y="-56.5" font-family="Helvetica,sans-Serif" font-size="10.00">DomainRunner</text>
</a>
</g>
</g>
<!-- Node8&#45;&gt;Node10 -->
<g id="edge9" class="edge"><title>Node8&#45;&gt;Node10</title>
<path fill="none" stroke="midnightblue" d="M608.267,-95.9502C629.351,-90.5694 652.345,-84.701 672.7,-79.5062"/>
<polygon fill="midnightblue" stroke="midnightblue" points="607.235,-92.6012 598.411,-98.4654 608.966,-99.3838 607.235,-92.6012"/>
</g>
</g>
</svg>
