<?xml version="1.0" encoding="UTF-8" standalone="no"?>
<!DOCTYPE svg PUBLIC "-//W3C//DTD SVG 1.1//EN"
 "http://www.w3.org/Graphics/SVG/1.1/DTD/svg11.dtd">
<!-- Generated by graphviz version 2.38.0 (20140413.2041)
 -->
<!-- Title: NUnit.Framework.Compatibility.LongLivedMarshalByRefObject Pages: 1 -->
<!--zoomable 284 -->
<svg id="main" version="1.1" xmlns="http://www.w3.org/2000/svg" xmlns:xlink="http://www.w3.org/1999/xlink" xml:space="preserve" onload="init(evt)">
<style type="text/css"><![CDATA[
.edge:hover path { stroke: red; }
.edge:hover polygon { stroke: red; fill: red; }
]]></style>
<script type="text/javascript"><![CDATA[
var edges = document.getElementsByTagName('g');
if (edges && edges.length) {
  for (var i=0;i<edges.length;i++) {
    if (edges[i].id.substr(0,4)=='edge') {
      edges[i].setAttribute('class','edge');
    }
  }
}
]]></script>
        <defs>
                <circle id="rim" cx="0" cy="0" r="7"/>
                <circle id="rim2" cx="0" cy="0" r="3.5"/>
                <g id="zoomPlus">
                        <use xlink:href="#rim" fill="#404040">
                                <set attributeName="fill" to="#808080" begin="zoomplus.mouseover" end="zoomplus.mouseout"/>
                        </use>
                        <path d="M-4,0h8M0,-4v8" fill="none" stroke="white" stroke-width="1.5" pointer-events="none"/>
                </g>
                <g id="zoomMin">
                        <use xlink:href="#rim" fill="#404040">
                                <set attributeName="fill" to="#808080" begin="zoomminus.mouseover" end="zoomminus.mouseout"/>
                        </use>
                        <path d="M-4,0h8" fill="none" stroke="white" stroke-width="1.5" pointer-events="none"/>
                </g>
                <g id="dirArrow">
                        <path fill="none" stroke="white" stroke-width="1.5" d="M0,-3.0v7 M-2.5,-0.5L0,-3.0L2.5,-0.5"/>
                </g>
               <g id="resetDef">
                       <use xlink:href="#rim2" fill="#404040">
                               <set attributeName="fill" to="#808080" begin="reset.mouseover" end="reset.mouseout"/>
                       </use>
               </g>
        </defs>

<script type="text/javascript">
var viewWidth = 714;
var viewHeight = 284;
var sectionId = 'dynsection-0';
</script>
<script xlink:href="../../svgpan.js"/>
<svg id="graph" class="graph">
<g id="viewport">
<title>NUnit.Framework.Compatibility.LongLivedMarshalByRefObject</title>
<polygon fill="white" stroke="none" points="-4,4 -4,-280 710,-280 710,4 -4,4"/>
<!-- Node1 -->
<g id="node1" class="node"><title>Node1</title>
<g id="a_node1"><a xlink:title="A MarshalByRefObject that lives forever">
<polygon fill="#bfbfbf" stroke="black" points="142,-122.5 142,-152.5 296,-152.5 296,-122.5 142,-122.5"/>
<text text-anchor="start" x="150" y="-140.5" font-family="Helvetica,sans-Serif" font-size="10.00">NUnit.Framework.Compatibility.</text>
<text text-anchor="middle" x="219" y="-129.5" font-family="Helvetica,sans-Serif" font-size="10.00">LongLivedMarshalByRefObject</text>
</a>
</g>
</g>
<!-- Node3 -->
<g id="node3" class="node"><title>Node3</title>
<g id="a_node3"><a xlink:href="../../dc/d92/classNUnit_1_1Framework_1_1Api_1_1FrameworkController.html" target="_top" xlink:title="FrameworkController provides a facade for use in loading, browsing and running tests without requirin...">
<polygon fill="white" stroke="black" points="341,-171.5 341,-201.5 501,-201.5 501,-171.5 341,-171.5"/>
<text text-anchor="start" x="349" y="-189.5" font-family="Helvetica,sans-Serif" font-size="10.00">NUnit.Framework.Api.Framework</text>
<text text-anchor="middle" x="421" y="-178.5" font-family="Helvetica,sans-Serif" font-size="10.00">Controller</text>
</a>
</g>
</g>
<!-- Node1&#45;&gt;Node3 -->
<g id="edge2" class="edge"><title>Node1&#45;&gt;Node3</title>
<path fill="none" stroke="midnightblue" d="M291.334,-154.977C313.378,-160.377 337.451,-166.276 358.75,-171.494"/>
<polygon fill="midnightblue" stroke="midnightblue" points="291.911,-151.515 281.366,-152.535 290.246,-158.314 291.911,-151.515"/>
</g>
<!-- Node4 -->
<g id="node4" class="node"><title>Node4</title>
<g id="a_node4"><a xlink:href="../../dd/dc0/classNUnit_1_1Framework_1_1Api_1_1FrameworkController_1_1FrameworkControllerAction.html" target="_top" xlink:title="FrameworkControllerAction is the base class for all actions performed against a FrameworkController.">
<polygon fill="white" stroke="black" points="332,-122.5 332,-152.5 510,-152.5 510,-122.5 332,-122.5"/>
<text text-anchor="start" x="340" y="-140.5" font-family="Helvetica,sans-Serif" font-size="10.00">NUnit.Framework.Api.Framework</text>
<text text-anchor="middle" x="421" y="-129.5" font-family="Helvetica,sans-Serif" font-size="10.00">Controller.FrameworkControllerAction</text>
</a>
</g>
</g>
<!-- Node1&#45;&gt;Node4 -->
<g id="edge3" class="edge"><title>Node1&#45;&gt;Node4</title>
<path fill="none" stroke="midnightblue" d="M306.428,-137.5C314.896,-137.5 323.496,-137.5 331.979,-137.5"/>
<polygon fill="midnightblue" stroke="midnightblue" points="306.182,-134 296.182,-137.5 306.182,-141 306.182,-134"/>
</g>
<!-- Node11 -->
<g id="node11" class="node"><title>Node11</title>
<g id="a_node11"><a xlink:href="../../dc/d67/classNUnit_1_1Framework_1_1Internal_1_1TestExecutionContext.html" target="_top" xlink:title="Helper class used to save and restore certain static or singleton settings in the environment that af...">
<polygon fill="white" stroke="black" points="356.5,-73.5 356.5,-103.5 485.5,-103.5 485.5,-73.5 356.5,-73.5"/>
<text text-anchor="start" x="364.5" y="-91.5" font-family="Helvetica,sans-Serif" font-size="10.00">NUnit.Framework.Internal.</text>
<text text-anchor="middle" x="421" y="-80.5" font-family="Helvetica,sans-Serif" font-size="10.00">TestExecutionContext</text>
</a>
</g>
</g>
<!-- Node1&#45;&gt;Node11 -->
<g id="edge10" class="edge"><title>Node1&#45;&gt;Node11</title>
<path fill="none" stroke="midnightblue" d="M291.334,-120.023C313.378,-114.623 337.451,-108.724 358.75,-103.506"/>
<polygon fill="midnightblue" stroke="midnightblue" points="290.246,-116.686 281.366,-122.465 291.911,-123.485 290.246,-116.686"/>
</g>
<!-- Node2 -->
<g id="node2" class="node"><title>Node2</title>
<g id="a_node2"><a xlink:title=" ">
<polygon fill="white" stroke="#bfbfbf" points="0,-128 0,-147 106,-147 106,-128 0,-128"/>
<text text-anchor="middle" x="53" y="-135" font-family="Helvetica,sans-Serif" font-size="10.00">MarshalByRefObject</text>
</a>
</g>
</g>
<!-- Node2&#45;&gt;Node1 -->
<g id="edge1" class="edge"><title>Node2&#45;&gt;Node1</title>
<path fill="none" stroke="midnightblue" d="M116.372,-137.5C124.733,-137.5 133.384,-137.5 141.948,-137.5"/>
<polygon fill="midnightblue" stroke="midnightblue" points="116.342,-134 106.342,-137.5 116.341,-141 116.342,-134"/>
</g>
<!-- Node5 -->
<g id="node5" class="node"><title>Node5</title>
<g id="a_node5"><a xlink:href="../../df/d69/classNUnit_1_1Framework_1_1Api_1_1FrameworkController_1_1CountTestsAction.html" target="_top" xlink:title="CountTestsAction counts the number of test cases in the loaded TestSuite held by the FrameworkControl...">
<polygon fill="white" stroke="black" points="546,-245.5 546,-275.5 706,-275.5 706,-245.5 546,-245.5"/>
<text text-anchor="start" x="554" y="-263.5" font-family="Helvetica,sans-Serif" font-size="10.00">NUnit.Framework.Api.Framework</text>
<text text-anchor="middle" x="626" y="-252.5" font-family="Helvetica,sans-Serif" font-size="10.00">Controller.CountTestsAction</text>
</a>
</g>
</g>
<!-- Node4&#45;&gt;Node5 -->
<g id="edge4" class="edge"><title>Node4&#45;&gt;Node5</title>
<path fill="none" stroke="midnightblue" d="M503.626,-157.749C505.844,-159.223 507.976,-160.804 510,-162.5 538.035,-185.989 518.18,-212.757 546,-236.5 550.034,-239.943 554.553,-242.892 559.331,-245.418"/>
<polygon fill="midnightblue" stroke="midnightblue" points="505.103,-154.56 494.695,-152.579 501.595,-160.618 505.103,-154.56"/>
</g>
<!-- Node6 -->
<g id="node6" class="node"><title>Node6</title>
<g id="a_node6"><a xlink:href="../../d8/da1/classNUnit_1_1Framework_1_1Api_1_1FrameworkController_1_1ExploreTestsAction.html" target="_top" xlink:title="ExploreTestsAction returns info about the tests in an assembly">
<polygon fill="white" stroke="black" points="546,-196.5 546,-226.5 706,-226.5 706,-196.5 546,-196.5"/>
<text text-anchor="start" x="554" y="-214.5" font-family="Helvetica,sans-Serif" font-size="10.00">NUnit.Framework.Api.Framework</text>
<text text-anchor="middle" x="626" y="-203.5" font-family="Helvetica,sans-Serif" font-size="10.00">Controller.ExploreTestsAction</text>
</a>
</g>
</g>
<!-- Node4&#45;&gt;Node6 -->
<g id="edge5" class="edge"><title>Node4&#45;&gt;Node6</title>
<path fill="none" stroke="midnightblue" d="M494.57,-156.019C499.868,-158.007 505.065,-160.165 510,-162.5 527.609,-170.83 528.468,-179.01 546,-187.5 552.838,-190.811 560.23,-193.78 567.655,-196.406"/>
<polygon fill="midnightblue" stroke="midnightblue" points="495.551,-152.654 484.956,-152.625 493.221,-159.255 495.551,-152.654"/>
</g>
<!-- Node7 -->
<g id="node7" class="node"><title>Node7</title>
<g id="a_node7"><a xlink:href="../../d3/d02/classNUnit_1_1Framework_1_1Api_1_1FrameworkController_1_1LoadTestsAction.html" target="_top" xlink:title="LoadTestsAction loads a test into the FrameworkController">
<polygon fill="white" stroke="black" points="546,-147.5 546,-177.5 706,-177.5 706,-147.5 546,-147.5"/>
<text text-anchor="start" x="554" y="-165.5" font-family="Helvetica,sans-Serif" font-size="10.00">NUnit.Framework.Api.Framework</text>
<text text-anchor="middle" x="626" y="-154.5" font-family="Helvetica,sans-Serif" font-size="10.00">Controller.LoadTestsAction</text>
</a>
</g>
</g>
<!-- Node4&#45;&gt;Node7 -->
<g id="edge6" class="edge"><title>Node4&#45;&gt;Node7</title>
<path fill="none" stroke="midnightblue" d="M520.218,-149.596C528.817,-150.655 537.448,-151.718 545.863,-152.754"/>
<polygon fill="midnightblue" stroke="midnightblue" points="520.506,-146.105 510.153,-148.356 519.65,-153.052 520.506,-146.105"/>
</g>
<!-- Node8 -->
<g id="node8" class="node"><title>Node8</title>
<g id="a_node8"><a xlink:href="../../d0/d0f/classNUnit_1_1Framework_1_1Api_1_1FrameworkController_1_1RunAsyncAction.html" target="_top" xlink:title="RunAsyncAction initiates an asynchronous test run, returning immediately">
<polygon fill="white" stroke="black" points="546,-98.5 546,-128.5 706,-128.5 706,-98.5 546,-98.5"/>
<text text-anchor="start" x="554" y="-116.5" font-family="Helvetica,sans-Serif" font-size="10.00">NUnit.Framework.Api.Framework</text>
<text text-anchor="middle" x="626" y="-105.5" font-family="Helvetica,sans-Serif" font-size="10.00">Controller.RunAsyncAction</text>
</a>
</g>
</g>
<!-- Node4&#45;&gt;Node8 -->
<g id="edge7" class="edge"><title>Node4&#45;&gt;Node8</title>
<path fill="none" stroke="midnightblue" d="M520.218,-125.888C528.817,-124.871 537.448,-123.851 545.863,-122.856"/>
<polygon fill="midnightblue" stroke="midnightblue" points="519.673,-122.428 510.153,-127.078 520.495,-129.38 519.673,-122.428"/>
</g>
<!-- Node9 -->
<g id="node9" class="node"><title>Node9</title>
<g id="a_node9"><a xlink:href="../../d0/dfd/classNUnit_1_1Framework_1_1Api_1_1FrameworkController_1_1RunTestsAction.html" target="_top" xlink:title="RunTestsAction runs the loaded TestSuite held by the FrameworkController.">
<polygon fill="white" stroke="black" points="546,-49.5 546,-79.5 706,-79.5 706,-49.5 546,-49.5"/>
<text text-anchor="start" x="554" y="-67.5" font-family="Helvetica,sans-Serif" font-size="10.00">NUnit.Framework.Api.Framework</text>
<text text-anchor="middle" x="626" y="-56.5" font-family="Helvetica,sans-Serif" font-size="10.00">Controller.RunTestsAction</text>
</a>
</g>
</g>
<!-- Node4&#45;&gt;Node9 -->
<g id="edge8" class="edge"><title>Node4&#45;&gt;Node9</title>
<path fill="none" stroke="midnightblue" d="M494.231,-118.982C499.641,-116.989 504.953,-114.829 510,-112.5 527.46,-104.442 528.614,-96.7162 546,-88.5 552.998,-85.1927 560.559,-82.2128 568.134,-79.5694"/>
<polygon fill="midnightblue" stroke="midnightblue" points="492.72,-115.802 484.423,-122.39 495.018,-122.414 492.72,-115.802"/>
</g>
<!-- Node10 -->
<g id="node10" class="node"><title>Node10</title>
<g id="a_node10"><a xlink:href="../../d2/d73/classNUnit_1_1Framework_1_1Api_1_1FrameworkController_1_1StopRunAction.html" target="_top" xlink:title="StopRunAction stops an ongoing run.">
<polygon fill="white" stroke="black" points="546,-0.5 546,-30.5 706,-30.5 706,-0.5 546,-0.5"/>
<text text-anchor="start" x="554" y="-18.5" font-family="Helvetica,sans-Serif" font-size="10.00">NUnit.Framework.Api.Framework</text>
<text text-anchor="middle" x="626" y="-7.5" font-family="Helvetica,sans-Serif" font-size="10.00">Controller.StopRunAction</text>
</a>
</g>
</g>
<!-- Node4&#45;&gt;Node10 -->
<g id="edge9" class="edge"><title>Node4&#45;&gt;Node10</title>
<path fill="none" stroke="midnightblue" d="M503.614,-117.236C505.835,-115.767 507.972,-114.19 510,-112.5 537.791,-89.3417 518.42,-62.9094 546,-39.5 550.043,-36.0679 554.568,-33.1266 559.351,-30.6059"/>
<polygon fill="midnightblue" stroke="midnightblue" points="501.586,-114.366 494.672,-122.394 505.083,-120.429 501.586,-114.366"/>
</g>
</g>
</svg>
        <g id="navigator" transform="translate(0 0)" fill="#404254">
                <rect fill="#f2f5e9" fill-opacity="0.5" stroke="#606060" stroke-width=".5" x="0" y="0" width="60" height="60"/>
                <use id="zoomplus" xlink:href="#zoomPlus" x="17" y="9" onmousedown="handleZoom(evt,'in')"/>
                <use id="zoomminus" xlink:href="#zoomMin" x="42" y="9" onmousedown="handleZoom(evt,'out')"/>
                <use id="reset" xlink:href="#resetDef" x="30" y="36" onmousedown="handleReset()"/>
                <g id="arrowUp" xlink:href="#dirArrow" transform="translate(30 24)" onmousedown="handlePan(0,-1)">
                  <use xlink:href="#rim" fill="#404040">
                        <set attributeName="fill" to="#808080" begin="arrowUp.mouseover" end="arrowUp.mouseout"/>
                  </use>
                  <path fill="none" stroke="white" stroke-width="1.5" d="M0,-3.0v7 M-2.5,-0.5L0,-3.0L2.5,-0.5"/>
                </g>
                <g id="arrowRight" xlink:href="#dirArrow" transform="rotate(90) translate(36 -43)" onmousedown="handlePan(1,0)">
                  <use xlink:href="#rim" fill="#404040">
                        <set attributeName="fill" to="#808080" begin="arrowRight.mouseover" end="arrowRight.mouseout"/>
                  </use>
                  <path fill="none" stroke="white" stroke-width="1.5" d="M0,-3.0v7 M-2.5,-0.5L0,-3.0L2.5,-0.5"/>
                </g>
                <g id="arrowDown" xlink:href="#dirArrow" transform="rotate(180) translate(-30 -48)" onmousedown="handlePan(0,1)">
                  <use xlink:href="#rim" fill="#404040">
                        <set attributeName="fill" to="#808080" begin="arrowDown.mouseover" end="arrowDown.mouseout"/>
                  </use>
                  <path fill="none" stroke="white" stroke-width="1.5" d="M0,-3.0v7 M-2.5,-0.5L0,-3.0L2.5,-0.5"/>
                </g>
                <g id="arrowLeft" xlink:href="#dirArrow" transform="rotate(270) translate(-36 17)" onmousedown="handlePan(-1,0)">
                  <use xlink:href="#rim" fill="#404040">
                        <set attributeName="fill" to="#808080" begin="arrowLeft.mouseover" end="arrowLeft.mouseout"/>
                  </use>
                  <path fill="none" stroke="white" stroke-width="1.5" d="M0,-3.0v7 M-2.5,-0.5L0,-3.0L2.5,-0.5"/>
                </g>
        </g>
        <svg viewBox="0 0 15 15" width="100%" height="30px" preserveAspectRatio="xMaxYMin meet">
         <g id="arrow_out" transform="scale(0.3 0.3)">
          <a xlink:href="classNUnit_1_1Framework_1_1Compatibility_1_1LongLivedMarshalByRefObject__inherit__graph_org.svg" target="_base">
           <rect id="button" ry="5" rx="5" y="6" x="6" height="38" width="38"
                fill="#f2f5e9" fill-opacity="0.5" stroke="#606060" stroke-width="1.0"/>
           <path id="arrow"
             d="M 11.500037,31.436501 C 11.940474,20.09759 22.043105,11.32322 32.158766,21.979434 L 37.068811,17.246167 C 37.068811,17.246167 37.088388,32 37.088388,32 L 22.160133,31.978069 C 22.160133,31.978069 26.997745,27.140456 26.997745,27.140456 C 18.528582,18.264221 13.291696,25.230495 11.500037,31.436501 z"
             style="fill:#404040;"/>
          </a>
         </g>
        </svg>
</svg>
