<?xml version="1.0" encoding="UTF-8" standalone="no"?>
<!DOCTYPE svg PUBLIC "-//W3C//DTD SVG 1.1//EN"
 "http://www.w3.org/Graphics/SVG/1.1/DTD/svg11.dtd">
<!-- Generated by graphviz version 2.38.0 (20140413.2041)
 -->
<!-- Title: NeuronDotNet.Core.Connector&lt; TSourceLayer, TTargetLayer, TSynapse &gt; Pages: 1 -->
<svg width="159pt" height="162pt"
 viewBox="0.00 0.00 159.00 162.00" xmlns="http://www.w3.org/2000/svg" xmlns:xlink="http://www.w3.org/1999/xlink">
<g id="graph0" class="graph" transform="scale(1 1) rotate(0) translate(4 158)">
<title>NeuronDotNet.Core.Connector&lt; TSourceLayer, TTargetLayer, TSynapse &gt;</title>
<polygon fill="white" stroke="none" points="-4,4 -4,-158 155,-158 155,4 -4,4"/>
<!-- Node1 -->
<g id="node1" class="node"><title>Node1</title>
<g id="a_node1"><a xlink:title="A connector represents a collection of synapses connecting two layers in a network.">
<polygon fill="#bfbfbf" stroke="black" points="0,-0.5 0,-41.5 151,-41.5 151,-0.5 0,-0.5"/>
<text text-anchor="start" x="8" y="-29.5" font-family="Helvetica,sans-Serif" font-size="10.00">NeuronDotNet.Core.Connector</text>
<text text-anchor="start" x="8" y="-18.5" font-family="Helvetica,sans-Serif" font-size="10.00">&lt; TSourceLayer, TTargetLayer,</text>
<text text-anchor="middle" x="75.5" y="-7.5" font-family="Helvetica,sans-Serif" font-size="10.00"> TSynapse &gt;</text>
</a>
</g>
</g>
<!-- Node2 -->
<g id="node2" class="node"><title>Node2</title>
<g id="a_node2"><a xlink:href="../../d5/d01/interfaceNeuronDotNet_1_1Core_1_1IConnector.html" target="_top" xlink:title="This interface represents a connector. A connector is a collection of synapses connecting two layers ...">
<polygon fill="white" stroke="black" points="44,-78.5 44,-97.5 107,-97.5 107,-78.5 44,-78.5"/>
<text text-anchor="middle" x="75.5" y="-85.5" font-family="Helvetica,sans-Serif" font-size="10.00">IConnector</text>
</a>
</g>
</g>
<!-- Node2&#45;&gt;Node1 -->
<g id="edge1" class="edge"><title>Node2&#45;&gt;Node1</title>
<path fill="none" stroke="midnightblue" d="M75.5,-68.037C75.5,-59.7084 75.5,-49.9358 75.5,-41.5421"/>
<polygon fill="midnightblue" stroke="midnightblue" points="72.0001,-68.2338 75.5,-78.2338 79.0001,-68.2338 72.0001,-68.2338"/>
</g>
<!-- Node3 -->
<g id="node3" class="node"><title>Node3</title>
<g id="a_node3"><a xlink:title=" ">
<polygon fill="white" stroke="#bfbfbf" points="41,-134.5 41,-153.5 110,-153.5 110,-134.5 41,-134.5"/>
<text text-anchor="middle" x="75.5" y="-141.5" font-family="Helvetica,sans-Serif" font-size="10.00">ISerializable</text>
</a>
</g>
</g>
<!-- Node3&#45;&gt;Node2 -->
<g id="edge2" class="edge"><title>Node3&#45;&gt;Node2</title>
<path fill="none" stroke="midnightblue" d="M75.5,-123.805C75.5,-114.91 75.5,-104.78 75.5,-97.7511"/>
<polygon fill="midnightblue" stroke="midnightblue" points="72.0001,-124.083 75.5,-134.083 79.0001,-124.083 72.0001,-124.083"/>
</g>
</g>
</svg>
