<?xml version="1.0" encoding="UTF-8" standalone="no"?>
<!DOCTYPE svg PUBLIC "-//W3C//DTD SVG 1.1//EN"
 "http://www.w3.org/Graphics/SVG/1.1/DTD/svg11.dtd">
<!-- Generated by graphviz version 2.38.0 (20140413.2041)
 -->
<!-- Title: Animat.CellWorld Pages: 1 -->
<svg width="142pt" height="95pt"
 viewBox="0.00 0.00 141.50 95.00" xmlns="http://www.w3.org/2000/svg" xmlns:xlink="http://www.w3.org/1999/xlink">
<g id="graph0" class="graph" transform="scale(1 1) rotate(0) translate(4 91)">
<title>Animat.CellWorld</title>
<polygon fill="white" stroke="none" points="-4,4 -4,-91 137.5,-91 137.5,4 -4,4"/>
<!-- Node1 -->
<g id="node1" class="node"><title>Node1</title>
<g id="a_node1"><a xlink:title=" ">
<polygon fill="#bfbfbf" stroke="black" points="10.5,-0.5 10.5,-19.5 102.5,-19.5 102.5,-0.5 10.5,-0.5"/>
<text text-anchor="middle" x="56.5" y="-7.5" font-family="Helvetica,sans-Serif" font-size="10.00">Animat.CellWorld</text>
</a>
</g>
</g>
<!-- Node2 -->
<g id="node2" class="node"><title>Node2</title>
<g id="a_node2"><a xlink:title=" ">
<polygon fill="white" stroke="#bfbfbf" points="0,-67.5 0,-86.5 47,-86.5 47,-67.5 0,-67.5"/>
<text text-anchor="middle" x="23.5" y="-74.5" font-family="Helvetica,sans-Serif" font-size="10.00">Control</text>
</a>
</g>
</g>
<!-- Node2&#45;&gt;Node1 -->
<g id="edge1" class="edge"><title>Node2&#45;&gt;Node1</title>
<path fill="none" stroke="midnightblue" d="M32.5555,-58.1635C38.9196,-45.6281 47.1532,-29.4104 52.12,-19.6273"/>
<polygon fill="midnightblue" stroke="midnightblue" points="29.3567,-56.7327 27.9505,-67.2338 35.5983,-59.9016 29.3567,-56.7327"/>
</g>
<!-- Node3 -->
<g id="node3" class="node"><title>Node3</title>
<g id="a_node3"><a xlink:title=" ">
<polygon fill="white" stroke="#bfbfbf" points="65.5,-67.5 65.5,-86.5 115.5,-86.5 115.5,-67.5 65.5,-67.5"/>
<text text-anchor="middle" x="90.5" y="-74.5" font-family="Helvetica,sans-Serif" font-size="10.00">System</text>
</a>
</g>
</g>
<!-- Node3&#45;&gt;Node1 -->
<g id="edge2" class="edge"><title>Node3&#45;&gt;Node1</title>
<path fill="none" stroke="#9a32cd" stroke-dasharray="5,2" d="M81.1701,-58.1635C74.6132,-45.6281 66.13,-29.4104 61.0127,-19.6273"/>
<polygon fill="#9a32cd" stroke="#9a32cd" points="78.1782,-59.9951 85.9146,-67.2338 84.3809,-56.7506 78.1782,-59.9951"/>
<text text-anchor="middle" x="105" y="-41" font-family="Helvetica,sans-Serif" font-size="10.00"> components</text>
</g>
</g>
</svg>
