<?xml version="1.0" encoding="UTF-8" standalone="no"?>
<!DOCTYPE svg PUBLIC "-//W3C//DTD SVG 1.1//EN"
 "http://www.w3.org/Graphics/SVG/1.1/DTD/svg11.dtd">
<!-- Generated by graphviz version 2.38.0 (20140413.2041)
 -->
<!-- Title: CShell.Modules.Workspace.ViewModels.TreeViewModel Pages: 1 -->
<svg width="749pt" height="186pt"
 viewBox="0.00 0.00 749.00 186.00" xmlns="http://www.w3.org/2000/svg" xmlns:xlink="http://www.w3.org/1999/xlink">
<g id="graph0" class="graph" transform="scale(1 1) rotate(0) translate(4 182)">
<title>CShell.Modules.Workspace.ViewModels.TreeViewModel</title>
<polygon fill="white" stroke="none" points="-4,4 -4,-182 745,-182 745,4 -4,4"/>
<!-- Node1 -->
<g id="node1" class="node"><title>Node1</title>
<g id="a_node1"><a xlink:title=" ">
<polygon fill="#bfbfbf" stroke="black" points="150,-73.5 150,-103.5 290,-103.5 290,-73.5 150,-73.5"/>
<text text-anchor="start" x="158" y="-91.5" font-family="Helvetica,sans-Serif" font-size="10.00">CShell.Modules.Workspace.</text>
<text text-anchor="middle" x="220" y="-80.5" font-family="Helvetica,sans-Serif" font-size="10.00">ViewModels.TreeViewModel</text>
</a>
</g>
</g>
<!-- Node5 -->
<g id="node5" class="node"><title>Node5</title>
<g id="a_node5"><a xlink:href="../../d4/d81/classCShell_1_1Modules_1_1Workspace_1_1ViewModels_1_1AssemblyReferencesViewModel.html" target="_top" xlink:title=" ">
<polygon fill="white" stroke="black" points="326,-147.5 326,-177.5 538,-177.5 538,-147.5 326,-147.5"/>
<text text-anchor="start" x="334" y="-165.5" font-family="Helvetica,sans-Serif" font-size="10.00">CShell.Modules.Workspace.</text>
<text text-anchor="middle" x="432" y="-154.5" font-family="Helvetica,sans-Serif" font-size="10.00">ViewModels.AssemblyReferencesViewModel</text>
</a>
</g>
</g>
<!-- Node1&#45;&gt;Node5 -->
<g id="edge4" class="edge"><title>Node1&#45;&gt;Node5</title>
<path fill="none" stroke="midnightblue" d="M257.364,-108.25C277.203,-118.398 302.457,-130.316 326,-138.5 335.538,-141.816 345.724,-144.8 355.86,-147.446"/>
<polygon fill="midnightblue" stroke="midnightblue" points="258.861,-105.084 248.373,-103.584 255.637,-111.297 258.861,-105.084"/>
</g>
<!-- Node6 -->
<g id="node6" class="node"><title>Node6</title>
<g id="a_node6"><a xlink:href="../../d3/d5f/classCShell_1_1Modules_1_1Workspace_1_1ViewModels_1_1AssemblyReferenceViewModel.html" target="_top" xlink:title=" ">
<polygon fill="white" stroke="black" points="329,-98.5 329,-128.5 535,-128.5 535,-98.5 329,-98.5"/>
<text text-anchor="start" x="337" y="-116.5" font-family="Helvetica,sans-Serif" font-size="10.00">CShell.Modules.Workspace.</text>
<text text-anchor="middle" x="432" y="-105.5" font-family="Helvetica,sans-Serif" font-size="10.00">ViewModels.AssemblyReferenceViewModel</text>
</a>
</g>
</g>
<!-- Node1&#45;&gt;Node6 -->
<g id="edge5" class="edge"><title>Node1&#45;&gt;Node6</title>
<path fill="none" stroke="midnightblue" d="M300.106,-97.9174C309.492,-99.0348 319.173,-100.187 328.821,-101.336"/>
<polygon fill="midnightblue" stroke="midnightblue" points="300.396,-94.4273 290.053,-96.7206 299.569,-101.378 300.396,-94.4273"/>
</g>
<!-- Node7 -->
<g id="node7" class="node"><title>Node7</title>
<g id="a_node7"><a xlink:href="../../d1/d35/classCShell_1_1Modules_1_1Workspace_1_1ViewModels_1_1FileViewModel.html" target="_top" xlink:title=" ">
<polygon fill="white" stroke="black" points="362,-49.5 362,-79.5 502,-79.5 502,-49.5 362,-49.5"/>
<text text-anchor="start" x="370" y="-67.5" font-family="Helvetica,sans-Serif" font-size="10.00">CShell.Modules.Workspace.</text>
<text text-anchor="middle" x="432" y="-56.5" font-family="Helvetica,sans-Serif" font-size="10.00">ViewModels.FileViewModel</text>
</a>
</g>
</g>
<!-- Node1&#45;&gt;Node7 -->
<g id="edge6" class="edge"><title>Node1&#45;&gt;Node7</title>
<path fill="none" stroke="midnightblue" d="M300.206,-79.4479C320.5,-77.1285 342.166,-74.6525 361.906,-72.3965"/>
<polygon fill="midnightblue" stroke="midnightblue" points="299.591,-75.9953 290.053,-80.6083 300.385,-82.9501 299.591,-75.9953"/>
</g>
<!-- Node9 -->
<g id="node9" class="node"><title>Node9</title>
<g id="a_node9"><a xlink:href="../../dd/d91/classCShell_1_1Modules_1_1Workspace_1_1ViewModels_1_1FolderViewModel.html" target="_top" xlink:title=" ">
<polygon fill="white" stroke="black" points="359,-0.5 359,-30.5 505,-30.5 505,-0.5 359,-0.5"/>
<text text-anchor="start" x="367" y="-18.5" font-family="Helvetica,sans-Serif" font-size="10.00">CShell.Modules.Workspace.</text>
<text text-anchor="middle" x="432" y="-7.5" font-family="Helvetica,sans-Serif" font-size="10.00">ViewModels.FolderViewModel</text>
</a>
</g>
</g>
<!-- Node1&#45;&gt;Node9 -->
<g id="edge8" class="edge"><title>Node1&#45;&gt;Node9</title>
<path fill="none" stroke="midnightblue" d="M258.244,-68.7609C277.966,-58.9179 302.84,-47.4501 326,-39.5 336.523,-35.8876 347.827,-32.658 358.98,-29.8283"/>
<polygon fill="midnightblue" stroke="midnightblue" points="256.629,-65.6552 249.288,-73.2947 259.791,-71.9005 256.629,-65.6552"/>
</g>
<!-- Node2 -->
<g id="node2" class="node"><title>Node2</title>
<g id="a_node2"><a xlink:title=" ">
<polygon fill="white" stroke="#bfbfbf" points="0,-117 0,-136 114,-136 114,-117 0,-117"/>
<text text-anchor="middle" x="57" y="-124" font-family="Helvetica,sans-Serif" font-size="10.00">PropertyChangedBase</text>
</a>
</g>
</g>
<!-- Node2&#45;&gt;Node1 -->
<g id="edge1" class="edge"><title>Node2&#45;&gt;Node1</title>
<path fill="none" stroke="midnightblue" d="M108.579,-114.562C123.359,-111.074 139.708,-107.215 155.195,-103.56"/>
<polygon fill="midnightblue" stroke="midnightblue" points="107.556,-111.207 98.6271,-116.911 109.164,-118.02 107.556,-111.207"/>
</g>
<!-- Node3 -->
<g id="node3" class="node"><title>Node3</title>
<g id="a_node3"><a xlink:title=" ">
<polygon fill="white" stroke="#bfbfbf" points="8,-79 8,-98 106,-98 106,-79 8,-79"/>
<text text-anchor="middle" x="57" y="-86" font-family="Helvetica,sans-Serif" font-size="10.00">IHaveDisplayName</text>
</a>
</g>
</g>
<!-- Node3&#45;&gt;Node1 -->
<g id="edge2" class="edge"><title>Node3&#45;&gt;Node1</title>
<path fill="none" stroke="midnightblue" d="M116.499,-88.5C127.346,-88.5 138.769,-88.5 149.897,-88.5"/>
<polygon fill="midnightblue" stroke="midnightblue" points="116.305,-85.0001 106.305,-88.5 116.305,-92.0001 116.305,-85.0001"/>
</g>
<!-- Node4 -->
<g id="node4" class="node"><title>Node4</title>
<g id="a_node4"><a xlink:title=" ">
<polygon fill="white" stroke="#bfbfbf" points="23.5,-41 23.5,-60 90.5,-60 90.5,-41 23.5,-41"/>
<text text-anchor="middle" x="57" y="-48" font-family="Helvetica,sans-Serif" font-size="10.00">IDisposable</text>
</a>
</g>
</g>
<!-- Node4&#45;&gt;Node1 -->
<g id="edge3" class="edge"><title>Node4&#45;&gt;Node1</title>
<path fill="none" stroke="midnightblue" d="M100.589,-60.552C117.306,-64.4978 136.851,-69.1109 155.188,-73.4388"/>
<polygon fill="midnightblue" stroke="midnightblue" points="101.117,-57.0807 90.5808,-58.1899 99.5093,-63.8935 101.117,-57.0807"/>
</g>
<!-- Node8 -->
<g id="node8" class="node"><title>Node8</title>
<g id="a_node8"><a xlink:href="../../d1/daa/classCShell_1_1Modules_1_1Workspace_1_1ViewModels_1_1CShellFileViewModel.html" target="_top" xlink:title=" ">
<polygon fill="white" stroke="black" points="575.5,-49.5 575.5,-79.5 739.5,-79.5 739.5,-49.5 575.5,-49.5"/>
<text text-anchor="start" x="583.5" y="-67.5" font-family="Helvetica,sans-Serif" font-size="10.00">CShell.Modules.Workspace.</text>
<text text-anchor="middle" x="657.5" y="-56.5" font-family="Helvetica,sans-Serif" font-size="10.00">ViewModels.CShellFileViewModel</text>
</a>
</g>
</g>
<!-- Node7&#45;&gt;Node8 -->
<g id="edge7" class="edge"><title>Node7&#45;&gt;Node8</title>
<path fill="none" stroke="midnightblue" d="M512.356,-64.5C532.714,-64.5 554.643,-64.5 575.103,-64.5"/>
<polygon fill="midnightblue" stroke="midnightblue" points="512.186,-61.0001 502.186,-64.5 512.186,-68.0001 512.186,-61.0001"/>
</g>
<!-- Node10 -->
<g id="node10" class="node"><title>Node10</title>
<g id="a_node10"><a xlink:href="../../d1/d67/classCShell_1_1Modules_1_1Workspace_1_1ViewModels_1_1RootFolderViewModel.html" target="_top" xlink:title=" ">
<polygon fill="white" stroke="black" points="574,-0.5 574,-30.5 741,-30.5 741,-0.5 574,-0.5"/>
<text text-anchor="start" x="582" y="-18.5" font-family="Helvetica,sans-Serif" font-size="10.00">CShell.Modules.Workspace.</text>
<text text-anchor="middle" x="657.5" y="-7.5" font-family="Helvetica,sans-Serif" font-size="10.00">ViewModels.RootFolderViewModel</text>
</a>
</g>
</g>
<!-- Node9&#45;&gt;Node10 -->
<g id="edge9" class="edge"><title>Node9&#45;&gt;Node10</title>
<path fill="none" stroke="midnightblue" d="M515.369,-15.5C534.372,-15.5 554.595,-15.5 573.62,-15.5"/>
<polygon fill="midnightblue" stroke="midnightblue" points="515.255,-12.0001 505.255,-15.5 515.255,-19.0001 515.255,-12.0001"/>
</g>
</g>
</svg>
