<?xml version="1.0" encoding="UTF-8" standalone="no"?>
<!DOCTYPE svg PUBLIC "-//W3C//DTD SVG 1.1//EN"
 "http://www.w3.org/Graphics/SVG/1.1/DTD/svg11.dtd">
<!-- Generated by graphviz version 2.38.0 (20140413.2041)
 -->
<!-- Title: NUnit.Framework.Constraints.StringConstraintTests Pages: 1 -->
<svg width="687pt" height="529pt"
 viewBox="0.00 0.00 687.00 529.00" xmlns="http://www.w3.org/2000/svg" xmlns:xlink="http://www.w3.org/1999/xlink">
<g id="graph0" class="graph" transform="scale(1 1) rotate(0) translate(4 525)">
<title>NUnit.Framework.Constraints.StringConstraintTests</title>
<polygon fill="white" stroke="none" points="-4,4 -4,-525 683,-525 683,4 -4,4"/>
<!-- Node1 -->
<g id="node1" class="node"><title>Node1</title>
<g id="a_node1"><a xlink:title=" ">
<polygon fill="#bfbfbf" stroke="black" points="308,-245.5 308,-275.5 455,-275.5 455,-245.5 308,-245.5"/>
<text text-anchor="start" x="316" y="-263.5" font-family="Helvetica,sans-Serif" font-size="10.00">NUnit.Framework.Constraints.</text>
<text text-anchor="middle" x="381.5" y="-252.5" font-family="Helvetica,sans-Serif" font-size="10.00">StringConstraintTests</text>
</a>
</g>
</g>
<!-- Node4 -->
<g id="node4" class="node"><title>Node4</title>
<g id="a_node4"><a xlink:href="../../db/ddd/classNUnit_1_1Framework_1_1Constraints_1_1EmptyStringConstraintTest.html" target="_top" xlink:title=" ">
<polygon fill="white" stroke="black" points="511.5,-490.5 511.5,-520.5 658.5,-520.5 658.5,-490.5 511.5,-490.5"/>
<text text-anchor="start" x="519.5" y="-508.5" font-family="Helvetica,sans-Serif" font-size="10.00">NUnit.Framework.Constraints.</text>
<text text-anchor="middle" x="585" y="-497.5" font-family="Helvetica,sans-Serif" font-size="10.00">EmptyStringConstraintTest</text>
</a>
</g>
</g>
<!-- Node1&#45;&gt;Node4 -->
<g id="edge3" class="edge"><title>Node1&#45;&gt;Node4</title>
<path fill="none" stroke="midnightblue" d="M387.583,-285.576C398.263,-331.647 427.488,-429.774 491,-481.5 497.077,-486.449 504.057,-490.39 511.404,-493.526"/>
<polygon fill="midnightblue" stroke="midnightblue" points="390.942,-284.557 385.363,-275.549 384.107,-286.07 390.942,-284.557"/>
</g>
<!-- Node5 -->
<g id="node5" class="node"><title>Node5</title>
<g id="a_node5"><a xlink:href="../../dc/df4/classNUnit_1_1Framework_1_1Constraints_1_1EndsWithConstraintTests.html" target="_top" xlink:title=" ">
<polygon fill="white" stroke="black" points="511.5,-441.5 511.5,-471.5 658.5,-471.5 658.5,-441.5 511.5,-441.5"/>
<text text-anchor="start" x="519.5" y="-459.5" font-family="Helvetica,sans-Serif" font-size="10.00">NUnit.Framework.Constraints.</text>
<text text-anchor="middle" x="585" y="-448.5" font-family="Helvetica,sans-Serif" font-size="10.00">EndsWithConstraintTests</text>
</a>
</g>
</g>
<!-- Node1&#45;&gt;Node5 -->
<g id="edge4" class="edge"><title>Node1&#45;&gt;Node5</title>
<path fill="none" stroke="midnightblue" d="M391.248,-285.308C405.856,-323.037 438.858,-394.459 491,-432.5 497.197,-437.021 504.169,-440.692 511.438,-443.673"/>
<polygon fill="midnightblue" stroke="midnightblue" points="394.403,-283.751 387.615,-275.616 387.848,-286.209 394.403,-283.751"/>
</g>
<!-- Node6 -->
<g id="node6" class="node"><title>Node6</title>
<g id="a_node6"><a xlink:href="../../dc/d9b/classNUnit_1_1Framework_1_1Constraints_1_1EndsWithConstraintTestsIgnoringCase.html" target="_top" xlink:title=" ">
<polygon fill="white" stroke="black" points="493,-392.5 493,-422.5 677,-422.5 677,-392.5 493,-392.5"/>
<text text-anchor="start" x="501" y="-410.5" font-family="Helvetica,sans-Serif" font-size="10.00">NUnit.Framework.Constraints.</text>
<text text-anchor="middle" x="585" y="-399.5" font-family="Helvetica,sans-Serif" font-size="10.00">EndsWithConstraintTestsIgnoringCase</text>
</a>
</g>
</g>
<!-- Node1&#45;&gt;Node6 -->
<g id="edge5" class="edge"><title>Node1&#45;&gt;Node6</title>
<path fill="none" stroke="midnightblue" d="M397.101,-284.344C415.51,-312.358 449.785,-358.217 491,-383.5 496.543,-386.901 502.556,-389.822 508.766,-392.331"/>
<polygon fill="midnightblue" stroke="midnightblue" points="399.825,-282.109 391.479,-275.582 393.934,-285.889 399.825,-282.109"/>
</g>
<!-- Node7 -->
<g id="node7" class="node"><title>Node7</title>
<g id="a_node7"><a xlink:href="../../dd/dd5/classNUnit_1_1Framework_1_1Constraints_1_1SamePathOrUnderTest__Linux.html" target="_top" xlink:title=" ">
<polygon fill="white" stroke="black" points="511.5,-343.5 511.5,-373.5 658.5,-373.5 658.5,-343.5 511.5,-343.5"/>
<text text-anchor="start" x="519.5" y="-361.5" font-family="Helvetica,sans-Serif" font-size="10.00">NUnit.Framework.Constraints.</text>
<text text-anchor="middle" x="585" y="-350.5" font-family="Helvetica,sans-Serif" font-size="10.00">SamePathOrUnderTest_Linux</text>
</a>
</g>
</g>
<!-- Node1&#45;&gt;Node7 -->
<g id="edge6" class="edge"><title>Node1&#45;&gt;Node7</title>
<path fill="none" stroke="midnightblue" d="M408.352,-281.95C429.421,-298.455 460.566,-320.706 491,-334.5 498.442,-337.873 506.442,-340.834 514.514,-343.417"/>
<polygon fill="midnightblue" stroke="midnightblue" points="410.523,-279.204 400.519,-275.714 406.162,-284.681 410.523,-279.204"/>
</g>
<!-- Node8 -->
<g id="node8" class="node"><title>Node8</title>
<g id="a_node8"><a xlink:href="../../df/d95/classNUnit_1_1Framework_1_1Constraints_1_1SamePathOrUnderTest__Windows.html" target="_top" xlink:title=" ">
<polygon fill="white" stroke="black" points="504,-294.5 504,-324.5 666,-324.5 666,-294.5 504,-294.5"/>
<text text-anchor="start" x="512" y="-312.5" font-family="Helvetica,sans-Serif" font-size="10.00">NUnit.Framework.Constraints.</text>
<text text-anchor="middle" x="585" y="-301.5" font-family="Helvetica,sans-Serif" font-size="10.00">SamePathOrUnderTest_Windows</text>
</a>
</g>
</g>
<!-- Node1&#45;&gt;Node8 -->
<g id="edge7" class="edge"><title>Node1&#45;&gt;Node8</title>
<path fill="none" stroke="midnightblue" d="M454.069,-277.904C476.359,-283.324 500.735,-289.252 522.291,-294.494"/>
<polygon fill="midnightblue" stroke="midnightblue" points="454.87,-274.497 444.326,-275.535 453.216,-281.298 454.87,-274.497"/>
</g>
<!-- Node9 -->
<g id="node9" class="node"><title>Node9</title>
<g id="a_node9"><a xlink:href="../../d2/d85/classNUnit_1_1Framework_1_1Constraints_1_1SamePathTest__Linux.html" target="_top" xlink:title=" ">
<polygon fill="white" stroke="black" points="511.5,-245.5 511.5,-275.5 658.5,-275.5 658.5,-245.5 511.5,-245.5"/>
<text text-anchor="start" x="519.5" y="-263.5" font-family="Helvetica,sans-Serif" font-size="10.00">NUnit.Framework.Constraints.</text>
<text text-anchor="middle" x="585" y="-252.5" font-family="Helvetica,sans-Serif" font-size="10.00">SamePathTest_Linux</text>
</a>
</g>
</g>
<!-- Node1&#45;&gt;Node9 -->
<g id="edge8" class="edge"><title>Node1&#45;&gt;Node9</title>
<path fill="none" stroke="midnightblue" d="M465.642,-260.5C480.809,-260.5 496.527,-260.5 511.361,-260.5"/>
<polygon fill="midnightblue" stroke="midnightblue" points="465.246,-257 455.246,-260.5 465.246,-264 465.246,-257"/>
</g>
<!-- Node10 -->
<g id="node10" class="node"><title>Node10</title>
<g id="a_node10"><a xlink:href="../../db/df9/classNUnit_1_1Framework_1_1Constraints_1_1SamePathTest__Windows.html" target="_top" xlink:title="Summary description for PathConstraintTests.">
<polygon fill="white" stroke="black" points="511.5,-196.5 511.5,-226.5 658.5,-226.5 658.5,-196.5 511.5,-196.5"/>
<text text-anchor="start" x="519.5" y="-214.5" font-family="Helvetica,sans-Serif" font-size="10.00">NUnit.Framework.Constraints.</text>
<text text-anchor="middle" x="585" y="-203.5" font-family="Helvetica,sans-Serif" font-size="10.00">SamePathTest_Windows</text>
</a>
</g>
</g>
<!-- Node1&#45;&gt;Node10 -->
<g id="edge9" class="edge"><title>Node1&#45;&gt;Node10</title>
<path fill="none" stroke="midnightblue" d="M454.069,-243.096C476.359,-237.676 500.735,-231.748 522.291,-226.506"/>
<polygon fill="midnightblue" stroke="midnightblue" points="453.216,-239.702 444.326,-245.465 454.87,-246.503 453.216,-239.702"/>
</g>
<!-- Node11 -->
<g id="node11" class="node"><title>Node11</title>
<g id="a_node11"><a xlink:href="../../db/d94/classNUnit_1_1Framework_1_1Constraints_1_1StartsWithConstraintTests.html" target="_top" xlink:title=" ">
<polygon fill="white" stroke="black" points="511.5,-147.5 511.5,-177.5 658.5,-177.5 658.5,-147.5 511.5,-147.5"/>
<text text-anchor="start" x="519.5" y="-165.5" font-family="Helvetica,sans-Serif" font-size="10.00">NUnit.Framework.Constraints.</text>
<text text-anchor="middle" x="585" y="-154.5" font-family="Helvetica,sans-Serif" font-size="10.00">StartsWithConstraintTests</text>
</a>
</g>
</g>
<!-- Node1&#45;&gt;Node11 -->
<g id="edge10" class="edge"><title>Node1&#45;&gt;Node11</title>
<path fill="none" stroke="midnightblue" d="M408.352,-239.05C429.421,-222.545 460.566,-200.294 491,-186.5 498.442,-183.127 506.442,-180.166 514.514,-177.583"/>
<polygon fill="midnightblue" stroke="midnightblue" points="406.162,-236.319 400.519,-245.286 410.523,-241.796 406.162,-236.319"/>
</g>
<!-- Node12 -->
<g id="node12" class="node"><title>Node12</title>
<g id="a_node12"><a xlink:href="../../d7/db3/classNUnit_1_1Framework_1_1Constraints_1_1StartsWithConstraintTestsIgnoringCase.html" target="_top" xlink:title=" ">
<polygon fill="white" stroke="black" points="491,-98.5 491,-128.5 679,-128.5 679,-98.5 491,-98.5"/>
<text text-anchor="start" x="499" y="-116.5" font-family="Helvetica,sans-Serif" font-size="10.00">NUnit.Framework.Constraints.</text>
<text text-anchor="middle" x="585" y="-105.5" font-family="Helvetica,sans-Serif" font-size="10.00">StartsWithConstraintTestsIgnoringCase</text>
</a>
</g>
</g>
<!-- Node1&#45;&gt;Node12 -->
<g id="edge11" class="edge"><title>Node1&#45;&gt;Node12</title>
<path fill="none" stroke="midnightblue" d="M397.101,-236.656C415.51,-208.642 449.785,-162.783 491,-137.5 496.543,-134.099 502.556,-131.178 508.766,-128.669"/>
<polygon fill="midnightblue" stroke="midnightblue" points="393.934,-235.111 391.479,-245.418 399.825,-238.891 393.934,-235.111"/>
</g>
<!-- Node13 -->
<g id="node13" class="node"><title>Node13</title>
<g id="a_node13"><a xlink:href="../../de/d55/classNUnit_1_1Framework_1_1Constraints_1_1SubstringConstraintTests.html" target="_top" xlink:title=" ">
<polygon fill="white" stroke="black" points="511.5,-49.5 511.5,-79.5 658.5,-79.5 658.5,-49.5 511.5,-49.5"/>
<text text-anchor="start" x="519.5" y="-67.5" font-family="Helvetica,sans-Serif" font-size="10.00">NUnit.Framework.Constraints.</text>
<text text-anchor="middle" x="585" y="-56.5" font-family="Helvetica,sans-Serif" font-size="10.00">SubstringConstraintTests</text>
</a>
</g>
</g>
<!-- Node1&#45;&gt;Node13 -->
<g id="edge12" class="edge"><title>Node1&#45;&gt;Node13</title>
<path fill="none" stroke="midnightblue" d="M391.248,-235.692C405.856,-197.963 438.858,-126.541 491,-88.5 497.197,-83.9792 504.169,-80.3082 511.438,-77.3275"/>
<polygon fill="midnightblue" stroke="midnightblue" points="387.848,-234.791 387.615,-245.384 394.403,-237.249 387.848,-234.791"/>
</g>
<!-- Node14 -->
<g id="node14" class="node"><title>Node14</title>
<g id="a_node14"><a xlink:href="../../dc/de0/classNUnit_1_1Framework_1_1Constraints_1_1SubstringConstraintTestsIgnoringCase.html" target="_top" xlink:title=" ">
<polygon fill="white" stroke="black" points="494,-0.5 494,-30.5 676,-30.5 676,-0.5 494,-0.5"/>
<text text-anchor="start" x="502" y="-18.5" font-family="Helvetica,sans-Serif" font-size="10.00">NUnit.Framework.Constraints.</text>
<text text-anchor="middle" x="585" y="-7.5" font-family="Helvetica,sans-Serif" font-size="10.00">SubstringConstraintTestsIgnoringCase</text>
</a>
</g>
</g>
<!-- Node1&#45;&gt;Node14 -->
<g id="edge13" class="edge"><title>Node1&#45;&gt;Node14</title>
<path fill="none" stroke="midnightblue" d="M387.583,-235.424C398.263,-189.353 427.488,-91.2264 491,-39.5 495.137,-36.1304 499.694,-33.2281 504.499,-30.7291"/>
<polygon fill="midnightblue" stroke="midnightblue" points="384.107,-234.93 385.363,-245.451 390.942,-236.443 384.107,-234.93"/>
</g>
<!-- Node2 -->
<g id="node2" class="node"><title>Node2</title>
<g id="a_node2"><a xlink:href="../../d5/d7a/classNUnit_1_1Framework_1_1Constraints_1_1ConstraintTestBase.html" target="_top" xlink:title=" ">
<polygon fill="white" stroke="black" points="170,-251 170,-270 272,-270 272,-251 170,-251"/>
<text text-anchor="middle" x="221" y="-258" font-family="Helvetica,sans-Serif" font-size="10.00">ConstraintTestBase</text>
</a>
</g>
</g>
<!-- Node2&#45;&gt;Node1 -->
<g id="edge1" class="edge"><title>Node2&#45;&gt;Node1</title>
<path fill="none" stroke="midnightblue" d="M282.186,-260.5C290.558,-260.5 299.231,-260.5 307.802,-260.5"/>
<polygon fill="midnightblue" stroke="midnightblue" points="282.15,-257 272.15,-260.5 282.15,-264 282.15,-257"/>
</g>
<!-- Node3 -->
<g id="node3" class="node"><title>Node3</title>
<g id="a_node3"><a xlink:href="../../dc/d5c/classNUnit_1_1Framework_1_1Constraints_1_1ConstraintTestBaseNoData.html" target="_top" xlink:title=" ">
<polygon fill="white" stroke="black" points="0,-251 0,-270 134,-270 134,-251 0,-251"/>
<text text-anchor="middle" x="67" y="-258" font-family="Helvetica,sans-Serif" font-size="10.00">ConstraintTestBaseNoData</text>
</a>
</g>
</g>
<!-- Node3&#45;&gt;Node2 -->
<g id="edge2" class="edge"><title>Node3&#45;&gt;Node2</title>
<path fill="none" stroke="midnightblue" d="M144.404,-260.5C153.093,-260.5 161.775,-260.5 169.996,-260.5"/>
<polygon fill="midnightblue" stroke="midnightblue" points="144.227,-257 134.227,-260.5 144.227,-264 144.227,-257"/>
</g>
</g>
</svg>
