<?xml version="1.0" encoding="UTF-8" standalone="no"?>
<!DOCTYPE svg PUBLIC "-//W3C//DTD SVG 1.1//EN"
 "http://www.w3.org/Graphics/SVG/1.1/DTD/svg11.dtd">
<!-- Generated by graphviz version 2.38.0 (20140413.2041)
 -->
<!-- Title: IG.Num.DifferentialFirstOrderSolverEuler Pages: 1 -->
<svg width="273pt" height="207pt"
 viewBox="0.00 0.00 272.50 207.00" xmlns="http://www.w3.org/2000/svg" xmlns:xlink="http://www.w3.org/1999/xlink">
<g id="graph0" class="graph" transform="scale(1 1) rotate(0) translate(4 203)">
<title>IG.Num.DifferentialFirstOrderSolverEuler</title>
<polygon fill="white" stroke="none" points="-4,4 -4,-203 268.5,-203 268.5,4 -4,4"/>
<!-- Node1 -->
<g id="node1" class="node"><title>Node1</title>
<g id="a_node1"><a xlink:title="Base class for definition of a system of first order ordinary differential equations (initial problem...">
<polygon fill="#bfbfbf" stroke="black" points="48,-0.5 48,-30.5 165,-30.5 165,-0.5 48,-0.5"/>
<text text-anchor="start" x="56" y="-18.5" font-family="Helvetica,sans-Serif" font-size="10.00">IG.Num.DifferentialFirst</text>
<text text-anchor="middle" x="106.5" y="-7.5" font-family="Helvetica,sans-Serif" font-size="10.00">OrderSolverEuler</text>
</a>
</g>
</g>
<!-- Node2 -->
<g id="node2" class="node"><title>Node2</title>
<g id="a_node2"><a xlink:href="../../da/ddc/classIG_1_1Num_1_1DifferentialFirstOrderSolverBase.html" target="_top" xlink:title="Base class for definition of a system of first order ordinary differential equations (initial problem...">
<polygon fill="white" stroke="black" points="29.5,-68.5 29.5,-87.5 183.5,-87.5 183.5,-68.5 29.5,-68.5"/>
<text text-anchor="middle" x="106.5" y="-75.5" font-family="Helvetica,sans-Serif" font-size="10.00">DifferentialFirstOrderSolverBase</text>
</a>
</g>
</g>
<!-- Node2&#45;&gt;Node1 -->
<g id="edge1" class="edge"><title>Node2&#45;&gt;Node1</title>
<path fill="none" stroke="midnightblue" d="M106.5,-58.2154C106.5,-49.3565 106.5,-38.9577 106.5,-30.7587"/>
<polygon fill="midnightblue" stroke="midnightblue" points="103,-58.3318 106.5,-68.3318 110,-58.3319 103,-58.3318"/>
</g>
<!-- Node3 -->
<g id="node3" class="node"><title>Node3</title>
<g id="a_node3"><a xlink:href="../../da/d2f/classIG_1_1Num_1_1DifferentialFirstOrderSystemBase.html" target="_top" xlink:title="Base class for definition of a system of first order ordinary differential equations (initial problem...">
<polygon fill="white" stroke="black" points="0,-168.5 0,-198.5 117,-198.5 117,-168.5 0,-168.5"/>
<text text-anchor="start" x="8" y="-186.5" font-family="Helvetica,sans-Serif" font-size="10.00">IG.Num.DifferentialFirst</text>
<text text-anchor="middle" x="58.5" y="-175.5" font-family="Helvetica,sans-Serif" font-size="10.00">OrderSystemBase</text>
</a>
</g>
</g>
<!-- Node3&#45;&gt;Node2 -->
<g id="edge2" class="edge"><title>Node3&#45;&gt;Node2</title>
<path fill="none" stroke="#9a32cd" stroke-dasharray="5,2" d="M67.4668,-158.704C73.4702,-143.409 81.8356,-123.246 90.5,-106 93.631,-99.7679 97.631,-93.0179 100.848,-87.8259"/>
<polygon fill="#9a32cd" stroke="#9a32cd" points="64.0523,-157.83 63.7133,-168.419 70.582,-160.352 64.0523,-157.83"/>
<text text-anchor="middle" x="112" y="-125.5" font-family="Helvetica,sans-Serif" font-size="10.00"> _problem</text>
</g>
<!-- Node4 -->
<g id="node4" class="node"><title>Node4</title>
<g id="a_node4"><a xlink:title=" ">
<polygon fill="white" stroke="#bfbfbf" points="135,-174 135,-193 176,-193 176,-174 135,-174"/>
<text text-anchor="middle" x="155.5" y="-181" font-family="Helvetica,sans-Serif" font-size="10.00">static</text>
</a>
</g>
</g>
<!-- Node4&#45;&gt;Node2 -->
<g id="edge3" class="edge"><title>Node4&#45;&gt;Node2</title>
<path fill="none" stroke="#9a32cd" stroke-dasharray="5,2" d="M152.798,-163.611C149.869,-147.449 144.118,-124.009 133.5,-106 129.393,-99.0331 123.068,-92.5745 117.572,-87.722"/>
<polygon fill="#9a32cd" stroke="#9a32cd" points="149.412,-164.598 154.461,-173.912 156.322,-163.482 149.412,-164.598"/>
<text text-anchor="middle" x="206.5" y="-142" font-family="Helvetica,sans-Serif" font-size="10.00"> DefaultFileSaveFrequency</text>
<text text-anchor="middle" x="206.5" y="-131" font-family="Helvetica,sans-Serif" font-size="10.00">DefaultOutputFrequency</text>
<text text-anchor="middle" x="206.5" y="-120" font-family="Helvetica,sans-Serif" font-size="10.00">DefaultStoringFrequency</text>
<text text-anchor="middle" x="206.5" y="-109" font-family="Helvetica,sans-Serif" font-size="10.00">DefaultOutputLevel</text>
</g>
</g>
</svg>
