<?xml version="1.0" encoding="UTF-8" standalone="no"?>
<!DOCTYPE svg PUBLIC "-//W3C//DTD SVG 1.1//EN"
 "http://www.w3.org/Graphics/SVG/1.1/DTD/svg11.dtd">
<!-- Generated by graphviz version 2.38.0 (20140413.2041)
 -->
<!-- Title: NUnit.Framework.Constraints.ComparisonConstraint Pages: 1 -->
<svg width="669pt" height="186pt"
 viewBox="0.00 0.00 669.00 186.00" xmlns="http://www.w3.org/2000/svg" xmlns:xlink="http://www.w3.org/1999/xlink">
<g id="graph0" class="graph" transform="scale(1 1) rotate(0) translate(4 182)">
<title>NUnit.Framework.Constraints.ComparisonConstraint</title>
<polygon fill="white" stroke="none" points="-4,4 -4,-182 665,-182 665,4 -4,4"/>
<!-- Node1 -->
<g id="node1" class="node"><title>Node1</title>
<g id="a_node1"><a xlink:title="Abstract base class for constraints that compare _values to determine if one is greater than,...">
<polygon fill="#bfbfbf" stroke="black" points="329,-73.5 329,-103.5 476,-103.5 476,-73.5 329,-73.5"/>
<text text-anchor="start" x="337" y="-91.5" font-family="Helvetica,sans-Serif" font-size="10.00">NUnit.Framework.Constraints.</text>
<text text-anchor="middle" x="402.5" y="-80.5" font-family="Helvetica,sans-Serif" font-size="10.00">ComparisonConstraint</text>
</a>
</g>
</g>
<!-- Node5 -->
<g id="node5" class="node"><title>Node5</title>
<g id="a_node5"><a xlink:href="../../d1/dd0/classNUnit_1_1Framework_1_1Constraints_1_1GreaterThanConstraint.html" target="_top" xlink:title="Tests whether a value is greater than the value supplied to its constructor">
<polygon fill="white" stroke="black" points="513,-147.5 513,-177.5 660,-177.5 660,-147.5 513,-147.5"/>
<text text-anchor="start" x="521" y="-165.5" font-family="Helvetica,sans-Serif" font-size="10.00">NUnit.Framework.Constraints.</text>
<text text-anchor="middle" x="586.5" y="-154.5" font-family="Helvetica,sans-Serif" font-size="10.00">GreaterThanConstraint</text>
</a>
</g>
</g>
<!-- Node1&#45;&gt;Node5 -->
<g id="edge4" class="edge"><title>Node1&#45;&gt;Node5</title>
<path fill="none" stroke="midnightblue" d="M443.213,-108.148C463.542,-117.86 488.83,-129.414 512,-138.5 519.873,-141.587 528.322,-144.609 536.588,-147.409"/>
<polygon fill="midnightblue" stroke="midnightblue" points="444.484,-104.876 433.955,-103.69 441.446,-111.182 444.484,-104.876"/>
</g>
<!-- Node6 -->
<g id="node6" class="node"><title>Node6</title>
<g id="a_node6"><a xlink:href="../../d3/d81/classNUnit_1_1Framework_1_1Constraints_1_1GreaterThanOrEqualConstraint.html" target="_top" xlink:title="Tests whether a value is greater than or equal to the value supplied to its constructor">
<polygon fill="white" stroke="black" points="512,-98.5 512,-128.5 661,-128.5 661,-98.5 512,-98.5"/>
<text text-anchor="start" x="520" y="-116.5" font-family="Helvetica,sans-Serif" font-size="10.00">NUnit.Framework.Constraints.</text>
<text text-anchor="middle" x="586.5" y="-105.5" font-family="Helvetica,sans-Serif" font-size="10.00">GreaterThanOrEqualConstraint</text>
</a>
</g>
</g>
<!-- Node1&#45;&gt;Node6 -->
<g id="edge5" class="edge"><title>Node1&#45;&gt;Node6</title>
<path fill="none" stroke="midnightblue" d="M486.155,-99.8537C494.676,-101.024 503.295,-102.208 511.71,-103.364"/>
<polygon fill="midnightblue" stroke="midnightblue" points="486.599,-96.3819 476.216,-98.4884 485.647,-103.317 486.599,-96.3819"/>
</g>
<!-- Node7 -->
<g id="node7" class="node"><title>Node7</title>
<g id="a_node7"><a xlink:href="../../df/d48/classNUnit_1_1Framework_1_1Constraints_1_1LessThanConstraint.html" target="_top" xlink:title="Tests whether a value is less than the value supplied to its constructor">
<polygon fill="white" stroke="black" points="513,-49.5 513,-79.5 660,-79.5 660,-49.5 513,-49.5"/>
<text text-anchor="start" x="521" y="-67.5" font-family="Helvetica,sans-Serif" font-size="10.00">NUnit.Framework.Constraints.</text>
<text text-anchor="middle" x="586.5" y="-56.5" font-family="Helvetica,sans-Serif" font-size="10.00">LessThanConstraint</text>
</a>
</g>
</g>
<!-- Node1&#45;&gt;Node7 -->
<g id="edge6" class="edge"><title>Node1&#45;&gt;Node7</title>
<path fill="none" stroke="midnightblue" d="M486.207,-77.5936C495.113,-76.4192 504.125,-75.2307 512.9,-74.0737"/>
<polygon fill="midnightblue" stroke="midnightblue" points="485.672,-74.1337 476.216,-78.9111 486.588,-81.0736 485.672,-74.1337"/>
</g>
<!-- Node8 -->
<g id="node8" class="node"><title>Node8</title>
<g id="a_node8"><a xlink:href="../../d2/d5a/classNUnit_1_1Framework_1_1Constraints_1_1LessThanOrEqualConstraint.html" target="_top" xlink:title="Tests whether a value is less than or equal to the value supplied to its constructor">
<polygon fill="white" stroke="black" points="513,-0.5 513,-30.5 660,-30.5 660,-0.5 513,-0.5"/>
<text text-anchor="start" x="521" y="-18.5" font-family="Helvetica,sans-Serif" font-size="10.00">NUnit.Framework.Constraints.</text>
<text text-anchor="middle" x="586.5" y="-7.5" font-family="Helvetica,sans-Serif" font-size="10.00">LessThanOrEqualConstraint</text>
</a>
</g>
</g>
<!-- Node1&#45;&gt;Node8 -->
<g id="edge7" class="edge"><title>Node1&#45;&gt;Node8</title>
<path fill="none" stroke="midnightblue" d="M443.692,-69.0917C463.955,-59.6302 489.042,-48.4019 512,-39.5 520.01,-36.3941 528.609,-33.3412 537.001,-30.5088"/>
<polygon fill="midnightblue" stroke="midnightblue" points="442.013,-66.0133 434.455,-73.4379 444.994,-72.3472 442.013,-66.0133"/>
</g>
<!-- Node2 -->
<g id="node2" class="node"><title>Node2</title>
<g id="a_node2"><a xlink:href="../../d9/da9/classNUnit_1_1Framework_1_1Constraints_1_1Constraint.html" target="_top" xlink:title="The Constraint class is the base of all built&#45;in constraints within NUnit. It provides the operator o...">
<polygon fill="white" stroke="black" points="232,-79 232,-98 293,-98 293,-79 232,-79"/>
<text text-anchor="middle" x="262.5" y="-86" font-family="Helvetica,sans-Serif" font-size="10.00">Constraint</text>
</a>
</g>
</g>
<!-- Node2&#45;&gt;Node1 -->
<g id="edge1" class="edge"><title>Node2&#45;&gt;Node1</title>
<path fill="none" stroke="midnightblue" d="M303.277,-88.5C311.338,-88.5 320.052,-88.5 328.845,-88.5"/>
<polygon fill="midnightblue" stroke="midnightblue" points="303.104,-85.0001 293.104,-88.5 303.104,-92.0001 303.104,-85.0001"/>
</g>
<!-- Node3 -->
<g id="node3" class="node"><title>Node3</title>
<g id="a_node3"><a xlink:href="../../d1/d94/interfaceNUnit_1_1Framework_1_1Constraints_1_1IConstraint.html" target="_top" xlink:title="Interface for all constraints">
<polygon fill="white" stroke="black" points="133,-79 133,-98 196,-98 196,-79 133,-79"/>
<text text-anchor="middle" x="164.5" y="-86" font-family="Helvetica,sans-Serif" font-size="10.00">IConstraint</text>
</a>
</g>
</g>
<!-- Node3&#45;&gt;Node2 -->
<g id="edge2" class="edge"><title>Node3&#45;&gt;Node2</title>
<path fill="none" stroke="midnightblue" d="M206.341,-88.5C214.892,-88.5 223.754,-88.5 231.807,-88.5"/>
<polygon fill="midnightblue" stroke="midnightblue" points="206.139,-85.0001 196.139,-88.5 206.139,-92.0001 206.139,-85.0001"/>
</g>
<!-- Node4 -->
<g id="node4" class="node"><title>Node4</title>
<g id="a_node4"><a xlink:href="../../d7/d29/interfaceNUnit_1_1Framework_1_1Constraints_1_1IResolveConstraint.html" target="_top" xlink:title="The IResolveConstraint interface is implemented by all complete and resolvable constraints and expres...">
<polygon fill="white" stroke="black" points="0,-79 0,-98 97,-98 97,-79 0,-79"/>
<text text-anchor="middle" x="48.5" y="-86" font-family="Helvetica,sans-Serif" font-size="10.00">IResolveConstraint</text>
</a>
</g>
</g>
<!-- Node4&#45;&gt;Node3 -->
<g id="edge3" class="edge"><title>Node4&#45;&gt;Node3</title>
<path fill="none" stroke="midnightblue" d="M107.465,-88.5C116.252,-88.5 125.008,-88.5 132.899,-88.5"/>
<polygon fill="midnightblue" stroke="midnightblue" points="107.186,-85.0001 97.1857,-88.5 107.186,-92.0001 107.186,-85.0001"/>
</g>
</g>
</svg>
