<?xml version="1.0" encoding="UTF-8" standalone="no"?>
<!DOCTYPE svg PUBLIC "-//W3C//DTD SVG 1.1//EN"
 "http://www.w3.org/Graphics/SVG/1.1/DTD/svg11.dtd">
<!-- Generated by graphviz version 2.38.0 (20140413.2041)
 -->
<!-- Title: DotNumerics.LinearAlgebra.CSLapack.DLAED8 Pages: 1 -->
<!--zoomable 431 -->
<svg id="main" version="1.1" xmlns="http://www.w3.org/2000/svg" xmlns:xlink="http://www.w3.org/1999/xlink" xml:space="preserve" onload="init(evt)">
<style type="text/css"><![CDATA[
.edge:hover path { stroke: red; }
.edge:hover polygon { stroke: red; fill: red; }
]]></style>
<script type="text/javascript"><![CDATA[
var edges = document.getElementsByTagName('g');
if (edges && edges.length) {
  for (var i=0;i<edges.length;i++) {
    if (edges[i].id.substr(0,4)=='edge') {
      edges[i].setAttribute('class','edge');
    }
  }
}
]]></script>
        <defs>
                <circle id="rim" cx="0" cy="0" r="7"/>
                <circle id="rim2" cx="0" cy="0" r="3.5"/>
                <g id="zoomPlus">
                        <use xlink:href="#rim" fill="#404040">
                                <set attributeName="fill" to="#808080" begin="zoomplus.mouseover" end="zoomplus.mouseout"/>
                        </use>
                        <path d="M-4,0h8M0,-4v8" fill="none" stroke="white" stroke-width="1.5" pointer-events="none"/>
                </g>
                <g id="zoomMin">
                        <use xlink:href="#rim" fill="#404040">
                                <set attributeName="fill" to="#808080" begin="zoomminus.mouseover" end="zoomminus.mouseout"/>
                        </use>
                        <path d="M-4,0h8" fill="none" stroke="white" stroke-width="1.5" pointer-events="none"/>
                </g>
                <g id="dirArrow">
                        <path fill="none" stroke="white" stroke-width="1.5" d="M0,-3.0v7 M-2.5,-0.5L0,-3.0L2.5,-0.5"/>
                </g>
               <g id="resetDef">
                       <use xlink:href="#rim2" fill="#404040">
                               <set attributeName="fill" to="#808080" begin="reset.mouseover" end="reset.mouseout"/>
                       </use>
               </g>
        </defs>

<script type="text/javascript">
var viewWidth = 1002;
var viewHeight = 431;
var sectionId = 'dynsection-0';
</script>
<script xlink:href="../../svgpan.js"/>
<svg id="graph" class="graph">
<g id="viewport">
<title>DotNumerics.LinearAlgebra.CSLapack.DLAED8</title>
<polygon fill="white" stroke="none" points="-4,4 -4,-427 998,-427 998,4 -4,4"/>
<!-- Node1 -->
<g id="node1" class="node"><title>Node1</title>
<g id="a_node1"><a xlink:title="– LAPACK routine (version 3.1) – Univ. of Tennessee, Univ. of California Berkeley and NAG Ltd....">
<polygon fill="#bfbfbf" stroke="black" points="856,-196.5 856,-226.5 994,-226.5 994,-196.5 856,-196.5"/>
<text text-anchor="start" x="864" y="-214.5" font-family="Helvetica,sans-Serif" font-size="10.00">DotNumerics.LinearAlgebra.</text>
<text text-anchor="middle" x="925" y="-203.5" font-family="Helvetica,sans-Serif" font-size="10.00">CSLapack.DLAED8</text>
</a>
</g>
</g>
<!-- Node2 -->
<g id="node2" class="node"><title>Node2</title>
<g id="a_node2"><a xlink:href="../../d1/d76/classDotNumerics_1_1LinearAlgebra_1_1CSLapack_1_1DSCAL.html" target="_top" xlink:title=" ">
<polygon fill="white" stroke="black" points="642,-392.5 642,-422.5 780,-422.5 780,-392.5 642,-392.5"/>
<text text-anchor="start" x="650" y="-410.5" font-family="Helvetica,sans-Serif" font-size="10.00">DotNumerics.LinearAlgebra.</text>
<text text-anchor="middle" x="711" y="-399.5" font-family="Helvetica,sans-Serif" font-size="10.00">CSLapack.DSCAL</text>
</a>
</g>
</g>
<!-- Node2&#45;&gt;Node1 -->
<g id="edge1" class="edge"><title>Node2&#45;&gt;Node1</title>
<path fill="none" stroke="#9a32cd" stroke-dasharray="5,2" d="M770.534,-388.383C773.789,-386.846 776.967,-385.218 780,-383.5 848.113,-344.924 898.039,-260.891 916.348,-226.564"/>
<polygon fill="#9a32cd" stroke="#9a32cd" points="768.961,-385.251 761.212,-392.476 771.775,-391.661 768.961,-385.251"/>
<text text-anchor="middle" x="818" y="-372.5" font-family="Helvetica,sans-Serif" font-size="10.00"> _dscal</text>
</g>
<!-- Node3 -->
<g id="node3" class="node"><title>Node3</title>
<g id="a_node3"><a xlink:href="../../d1/d2a/classDotNumerics_1_1LinearAlgebra_1_1CSLapack_1_1DCOPY.html" target="_top" xlink:title=" ">
<polygon fill="white" stroke="black" points="642,-343.5 642,-373.5 780,-373.5 780,-343.5 642,-343.5"/>
<text text-anchor="start" x="650" y="-361.5" font-family="Helvetica,sans-Serif" font-size="10.00">DotNumerics.LinearAlgebra.</text>
<text text-anchor="middle" x="711" y="-350.5" font-family="Helvetica,sans-Serif" font-size="10.00">CSLapack.DCOPY</text>
</a>
</g>
</g>
<!-- Node3&#45;&gt;Node1 -->
<g id="edge2" class="edge"><title>Node3&#45;&gt;Node1</title>
<path fill="none" stroke="#9a32cd" stroke-dasharray="5,2" d="M767.753,-339.445C771.959,-337.571 776.085,-335.586 780,-333.5 834.366,-304.535 886.542,-252.317 910.425,-226.62"/>
<polygon fill="#9a32cd" stroke="#9a32cd" points="766.323,-336.249 758.47,-343.362 769.044,-342.698 766.323,-336.249"/>
<text text-anchor="middle" x="818" y="-323.5" font-family="Helvetica,sans-Serif" font-size="10.00"> _dcopy</text>
</g>
<!-- Node4 -->
<g id="node4" class="node"><title>Node4</title>
<g id="a_node4"><a xlink:href="../../d4/dd0/classDotNumerics_1_1LinearAlgebra_1_1CSLapack_1_1DLAMCH.html" target="_top" xlink:title="– LAPACK auxiliary routine (version 3.1) – Univ. of Tennessee, Univ. of California Berkeley and NAG L...">
<polygon fill="white" stroke="black" points="642,-245.5 642,-275.5 780,-275.5 780,-245.5 642,-245.5"/>
<text text-anchor="start" x="650" y="-263.5" font-family="Helvetica,sans-Serif" font-size="10.00">DotNumerics.LinearAlgebra.</text>
<text text-anchor="middle" x="711" y="-252.5" font-family="Helvetica,sans-Serif" font-size="10.00">CSLapack.DLAMCH</text>
</a>
</g>
</g>
<!-- Node4&#45;&gt;Node1 -->
<g id="edge3" class="edge"><title>Node4&#45;&gt;Node1</title>
<path fill="none" stroke="#9a32cd" stroke-dasharray="5,2" d="M786.983,-243.169C810.52,-237.729 836.295,-231.771 859.075,-226.506"/>
<polygon fill="#9a32cd" stroke="#9a32cd" points="786.003,-239.803 777.048,-245.465 787.579,-246.623 786.003,-239.803"/>
<text text-anchor="middle" x="818" y="-243.5" font-family="Helvetica,sans-Serif" font-size="10.00"> _dlamch</text>
</g>
<!-- Node5 -->
<g id="node5" class="node"><title>Node5</title>
<g id="a_node5"><a xlink:href="../../dd/dac/classDotNumerics_1_1LinearAlgebra_1_1CSLapack_1_1LSAME.html" target="_top" xlink:title="– LAPACK auxiliary routine (version 3.1) – Univ. of Tennessee, Univ. of California Berkeley and NAG L...">
<polygon fill="white" stroke="black" points="428,-284.5 428,-314.5 566,-314.5 566,-284.5 428,-284.5"/>
<text text-anchor="start" x="436" y="-302.5" font-family="Helvetica,sans-Serif" font-size="10.00">DotNumerics.LinearAlgebra.</text>
<text text-anchor="middle" x="497" y="-291.5" font-family="Helvetica,sans-Serif" font-size="10.00">CSLapack.LSAME</text>
</a>
</g>
</g>
<!-- Node5&#45;&gt;Node4 -->
<g id="edge4" class="edge"><title>Node5&#45;&gt;Node4</title>
<path fill="none" stroke="#9a32cd" stroke-dasharray="5,2" d="M576.328,-285.091C597.843,-281.133 620.993,-276.874 641.883,-273.031"/>
<polygon fill="#9a32cd" stroke="#9a32cd" points="575.447,-281.694 566.245,-286.945 576.713,-288.578 575.447,-281.694"/>
<text text-anchor="middle" x="604" y="-286.5" font-family="Helvetica,sans-Serif" font-size="10.00"> _lsame</text>
</g>
<!-- Node14 -->
<g id="node14" class="node"><title>Node14</title>
<g id="a_node14"><a xlink:href="../../d1/dda/classDotNumerics_1_1LinearAlgebra_1_1CSLapack_1_1DLACPY.html" target="_top" xlink:title="– LAPACK auxiliary routine (version 3.1) – Univ. of Tennessee, Univ. of California Berkeley and NAG L...">
<polygon fill="white" stroke="black" points="642,-294.5 642,-324.5 780,-324.5 780,-294.5 642,-294.5"/>
<text text-anchor="start" x="650" y="-312.5" font-family="Helvetica,sans-Serif" font-size="10.00">DotNumerics.LinearAlgebra.</text>
<text text-anchor="middle" x="711" y="-301.5" font-family="Helvetica,sans-Serif" font-size="10.00">CSLapack.DLACPY</text>
</a>
</g>
</g>
<!-- Node5&#45;&gt;Node14 -->
<g id="edge17" class="edge"><title>Node5&#45;&gt;Node14</title>
<path fill="none" stroke="#9a32cd" stroke-dasharray="5,2" d="M576.328,-303.195C597.843,-304.21 620.993,-305.302 641.883,-306.287"/>
<polygon fill="#9a32cd" stroke="#9a32cd" points="576.399,-299.694 566.245,-302.719 576.069,-306.686 576.399,-299.694"/>
<text text-anchor="middle" x="604" y="-308.5" font-family="Helvetica,sans-Serif" font-size="10.00"> _lsame</text>
</g>
<!-- Node6 -->
<g id="node6" class="node"><title>Node6</title>
<g id="a_node6"><a xlink:href="../../dc/ddd/classDotNumerics_1_1LinearAlgebra_1_1CSLapack_1_1DLAMC2.html" target="_top" xlink:title="– LAPACK auxiliary routine (version 3.1) – Univ. of Tennessee, Univ. of California Berkeley and NAG L...">
<polygon fill="white" stroke="black" points="428,-226.5 428,-256.5 566,-256.5 566,-226.5 428,-226.5"/>
<text text-anchor="start" x="436" y="-244.5" font-family="Helvetica,sans-Serif" font-size="10.00">DotNumerics.LinearAlgebra.</text>
<text text-anchor="middle" x="497" y="-233.5" font-family="Helvetica,sans-Serif" font-size="10.00">CSLapack.DLAMC2</text>
</a>
</g>
</g>
<!-- Node6&#45;&gt;Node4 -->
<g id="edge5" class="edge"><title>Node6&#45;&gt;Node4</title>
<path fill="none" stroke="#9a32cd" stroke-dasharray="5,2" d="M576.411,-239.716C592.2,-240.033 608.656,-240.85 624,-242.5 630.825,-243.234 637.908,-244.266 644.947,-245.469"/>
<polygon fill="#9a32cd" stroke="#9a32cd" points="576.196,-236.213 566.149,-239.576 576.1,-243.212 576.196,-236.213"/>
<text text-anchor="middle" x="604" y="-245.5" font-family="Helvetica,sans-Serif" font-size="10.00"> _dlamc2</text>
</g>
<!-- Node7 -->
<g id="node7" class="node"><title>Node7</title>
<g id="a_node7"><a xlink:href="../../d5/db1/classDotNumerics_1_1LinearAlgebra_1_1CSLapack_1_1DLAMC1.html" target="_top" xlink:title="– LAPACK auxiliary routine (version 3.1) – Univ. of Tennessee, Univ. of California Berkeley and NAG L...">
<polygon fill="white" stroke="black" points="214,-247.5 214,-277.5 352,-277.5 352,-247.5 214,-247.5"/>
<text text-anchor="start" x="222" y="-265.5" font-family="Helvetica,sans-Serif" font-size="10.00">DotNumerics.LinearAlgebra.</text>
<text text-anchor="middle" x="283" y="-254.5" font-family="Helvetica,sans-Serif" font-size="10.00">CSLapack.DLAMC1</text>
</a>
</g>
</g>
<!-- Node7&#45;&gt;Node6 -->
<g id="edge6" class="edge"><title>Node7&#45;&gt;Node6</title>
<path fill="none" stroke="#9a32cd" stroke-dasharray="5,2" d="M362.328,-254.741C383.843,-252.61 406.993,-250.317 427.883,-248.247"/>
<polygon fill="#9a32cd" stroke="#9a32cd" points="361.851,-251.271 352.245,-255.74 362.541,-258.237 361.851,-251.271"/>
<text text-anchor="middle" x="390" y="-257.5" font-family="Helvetica,sans-Serif" font-size="10.00"> _dlamc1</text>
</g>
<!-- Node8 -->
<g id="node8" class="node"><title>Node8</title>
<g id="a_node8"><a xlink:href="../../db/dbb/classDotNumerics_1_1LinearAlgebra_1_1CSLapack_1_1DLAMC3.html" target="_top" xlink:title="– LAPACK auxiliary routine (version 3.1) – Univ. of Tennessee, Univ. of California Berkeley and NAG L...">
<polygon fill="white" stroke="black" points="0,-221.5 0,-251.5 138,-251.5 138,-221.5 0,-221.5"/>
<text text-anchor="start" x="8" y="-239.5" font-family="Helvetica,sans-Serif" font-size="10.00">DotNumerics.LinearAlgebra.</text>
<text text-anchor="middle" x="69" y="-228.5" font-family="Helvetica,sans-Serif" font-size="10.00">CSLapack.DLAMC3</text>
</a>
</g>
</g>
<!-- Node8&#45;&gt;Node6 -->
<g id="edge8" class="edge"><title>Node8&#45;&gt;Node6</title>
<path fill="none" stroke="#9a32cd" stroke-dasharray="5,2" d="M112.129,-255.543C140.31,-267.167 178.584,-280.847 214,-286.5 274.567,-296.168 291.289,-295.214 352,-286.5 378.59,-282.684 384.337,-277.437 410,-269.5 423.201,-265.417 437.488,-260.833 450.555,-256.574"/>
<polygon fill="#9a32cd" stroke="#9a32cd" points="113.178,-252.187 102.603,-251.533 110.462,-258.639 113.178,-252.187"/>
<text text-anchor="middle" x="283" y="-296.5" font-family="Helvetica,sans-Serif" font-size="10.00"> _dlamc3</text>
</g>
<!-- Node8&#45;&gt;Node7 -->
<g id="edge7" class="edge"><title>Node8&#45;&gt;Node7</title>
<path fill="none" stroke="#9a32cd" stroke-dasharray="5,2" d="M148.328,-246.106C169.843,-248.745 192.993,-251.584 213.883,-254.146"/>
<polygon fill="#9a32cd" stroke="#9a32cd" points="148.597,-242.613 138.245,-244.87 147.745,-249.561 148.597,-242.613"/>
<text text-anchor="middle" x="176" y="-255.5" font-family="Helvetica,sans-Serif" font-size="10.00"> _dlamc3</text>
</g>
<!-- Node9 -->
<g id="node9" class="node"><title>Node9</title>
<g id="a_node9"><a xlink:href="../../de/dd1/classDotNumerics_1_1LinearAlgebra_1_1CSLapack_1_1DLAMC4.html" target="_top" xlink:title="– LAPACK auxiliary routine (version 3.1) – Univ. of Tennessee, Univ. of California Berkeley and NAG L...">
<polygon fill="white" stroke="black" points="214,-198.5 214,-228.5 352,-228.5 352,-198.5 214,-198.5"/>
<text text-anchor="start" x="222" y="-216.5" font-family="Helvetica,sans-Serif" font-size="10.00">DotNumerics.LinearAlgebra.</text>
<text text-anchor="middle" x="283" y="-205.5" font-family="Helvetica,sans-Serif" font-size="10.00">CSLapack.DLAMC4</text>
</a>
</g>
</g>
<!-- Node8&#45;&gt;Node9 -->
<g id="edge10" class="edge"><title>Node8&#45;&gt;Node9</title>
<path fill="none" stroke="#9a32cd" stroke-dasharray="5,2" d="M148.407,-223.435C150.966,-223.105 153.502,-222.792 156,-222.5 174.733,-220.311 195.099,-218.577 213.888,-217.239"/>
<polygon fill="#9a32cd" stroke="#9a32cd" points="147.896,-219.972 138.457,-224.785 148.837,-226.909 147.896,-219.972"/>
<text text-anchor="middle" x="176" y="-225.5" font-family="Helvetica,sans-Serif" font-size="10.00"> _dlamc3</text>
</g>
<!-- Node10 -->
<g id="node10" class="node"><title>Node10</title>
<g id="a_node10"><a xlink:href="../../d7/d30/classDotNumerics_1_1LinearAlgebra_1_1CSLapack_1_1DLAMC5.html" target="_top" xlink:title="– LAPACK auxiliary routine (version 3.1) – Univ. of Tennessee, Univ. of California Berkeley and NAG L...">
<polygon fill="white" stroke="black" points="214,-149.5 214,-179.5 352,-179.5 352,-149.5 214,-149.5"/>
<text text-anchor="start" x="222" y="-167.5" font-family="Helvetica,sans-Serif" font-size="10.00">DotNumerics.LinearAlgebra.</text>
<text text-anchor="middle" x="283" y="-156.5" font-family="Helvetica,sans-Serif" font-size="10.00">CSLapack.DLAMC5</text>
</a>
</g>
</g>
<!-- Node8&#45;&gt;Node10 -->
<g id="edge12" class="edge"><title>Node8&#45;&gt;Node10</title>
<path fill="none" stroke="#9a32cd" stroke-dasharray="5,2" d="M118.749,-217.89C130.877,-213.39 143.878,-208.677 156,-204.5 181.171,-195.827 209.401,-186.802 232.75,-179.523"/>
<polygon fill="#9a32cd" stroke="#9a32cd" points="117.387,-214.662 109.243,-221.439 119.835,-221.22 117.387,-214.662"/>
<text text-anchor="middle" x="176" y="-207.5" font-family="Helvetica,sans-Serif" font-size="10.00"> _dlamc3</text>
</g>
<!-- Node9&#45;&gt;Node6 -->
<g id="edge9" class="edge"><title>Node9&#45;&gt;Node6</title>
<path fill="none" stroke="#9a32cd" stroke-dasharray="5,2" d="M362.328,-223.845C383.843,-226.687 406.993,-229.744 427.883,-232.503"/>
<polygon fill="#9a32cd" stroke="#9a32cd" points="362.617,-220.353 352.245,-222.514 361.701,-227.293 362.617,-220.353"/>
<text text-anchor="middle" x="390" y="-233.5" font-family="Helvetica,sans-Serif" font-size="10.00"> _dlamc4</text>
</g>
<!-- Node10&#45;&gt;Node6 -->
<g id="edge11" class="edge"><title>Node10&#45;&gt;Node6</title>
<path fill="none" stroke="#9a32cd" stroke-dasharray="5,2" d="M336.325,-182.888C341.623,-184.774 346.921,-186.669 352,-188.5 386.96,-201.102 426.578,-215.708 455.397,-226.391"/>
<polygon fill="#9a32cd" stroke="#9a32cd" points="337.429,-179.566 326.835,-179.52 335.088,-186.163 337.429,-179.566"/>
<text text-anchor="middle" x="390" y="-212.5" font-family="Helvetica,sans-Serif" font-size="10.00"> _dlamc5</text>
</g>
<!-- Node11 -->
<g id="node11" class="node"><title>Node11</title>
<g id="a_node11"><a xlink:href="../../db/d6a/classDotNumerics_1_1LinearAlgebra_1_1CSLapack_1_1XERBLA.html" target="_top" xlink:title="– LAPACK auxiliary routine (version 3.1) – Univ. of Tennessee, Univ. of California Berkeley and NAG L...">
<polygon fill="white" stroke="black" points="642,-196.5 642,-226.5 780,-226.5 780,-196.5 642,-196.5"/>
<text text-anchor="start" x="650" y="-214.5" font-family="Helvetica,sans-Serif" font-size="10.00">DotNumerics.LinearAlgebra.</text>
<text text-anchor="middle" x="711" y="-203.5" font-family="Helvetica,sans-Serif" font-size="10.00">CSLapack.XERBLA</text>
</a>
</g>
</g>
<!-- Node11&#45;&gt;Node1 -->
<g id="edge13" class="edge"><title>Node11&#45;&gt;Node1</title>
<path fill="none" stroke="#9a32cd" stroke-dasharray="5,2" d="M790.328,-211.5C811.843,-211.5 834.993,-211.5 855.883,-211.5"/>
<polygon fill="#9a32cd" stroke="#9a32cd" points="790.245,-208 780.245,-211.5 790.245,-215 790.245,-208"/>
<text text-anchor="middle" x="818" y="-214.5" font-family="Helvetica,sans-Serif" font-size="10.00"> _xerbla</text>
</g>
<!-- Node12 -->
<g id="node12" class="node"><title>Node12</title>
<g id="a_node12"><a xlink:href="../../d1/dbf/classDotNumerics_1_1LinearAlgebra_1_1CSLapack_1_1DLAPY2.html" target="_top" xlink:title="– LAPACK auxiliary routine (version 3.1) – Univ. of Tennessee, Univ. of California Berkeley and NAG L...">
<polygon fill="white" stroke="black" points="642,-147.5 642,-177.5 780,-177.5 780,-147.5 642,-147.5"/>
<text text-anchor="start" x="650" y="-165.5" font-family="Helvetica,sans-Serif" font-size="10.00">DotNumerics.LinearAlgebra.</text>
<text text-anchor="middle" x="711" y="-154.5" font-family="Helvetica,sans-Serif" font-size="10.00">CSLapack.DLAPY2</text>
</a>
</g>
</g>
<!-- Node12&#45;&gt;Node1 -->
<g id="edge14" class="edge"><title>Node12&#45;&gt;Node1</title>
<path fill="none" stroke="#9a32cd" stroke-dasharray="5,2" d="M786.983,-179.831C810.52,-185.271 836.295,-191.229 859.075,-196.494"/>
<polygon fill="#9a32cd" stroke="#9a32cd" points="787.579,-176.377 777.048,-177.535 786.003,-183.197 787.579,-176.377"/>
<text text-anchor="middle" x="818" y="-194.5" font-family="Helvetica,sans-Serif" font-size="10.00"> _dlapy2</text>
</g>
<!-- Node13 -->
<g id="node13" class="node"><title>Node13</title>
<g id="a_node13"><a xlink:href="../../dc/d96/classDotNumerics_1_1LinearAlgebra_1_1CSLapack_1_1IDAMAX.html" target="_top" xlink:title=" ">
<polygon fill="white" stroke="black" points="642,-98.5 642,-128.5 780,-128.5 780,-98.5 642,-98.5"/>
<text text-anchor="start" x="650" y="-116.5" font-family="Helvetica,sans-Serif" font-size="10.00">DotNumerics.LinearAlgebra.</text>
<text text-anchor="middle" x="711" y="-105.5" font-family="Helvetica,sans-Serif" font-size="10.00">CSLapack.IDAMAX</text>
</a>
</g>
</g>
<!-- Node13&#45;&gt;Node1 -->
<g id="edge15" class="edge"><title>Node13&#45;&gt;Node1</title>
<path fill="none" stroke="#9a32cd" stroke-dasharray="5,2" d="M767.021,-132.197C771.44,-133.918 775.813,-135.695 780,-137.5 822.073,-155.636 868.948,-180.678 897.453,-196.478"/>
<polygon fill="#9a32cd" stroke="#9a32cd" points="767.914,-128.793 757.322,-128.531 765.439,-135.341 767.914,-128.793"/>
<text text-anchor="middle" x="818" y="-167.5" font-family="Helvetica,sans-Serif" font-size="10.00"> _idamax</text>
</g>
<!-- Node14&#45;&gt;Node1 -->
<g id="edge16" class="edge"><title>Node14&#45;&gt;Node1</title>
<path fill="none" stroke="#9a32cd" stroke-dasharray="5,2" d="M764.532,-290.854C769.79,-288.789 775.021,-286.652 780,-284.5 821.68,-266.485 868.274,-242.037 896.872,-226.512"/>
<polygon fill="#9a32cd" stroke="#9a32cd" points="763.17,-287.628 755.09,-294.482 765.68,-294.162 763.17,-287.628"/>
<text text-anchor="middle" x="818" y="-279.5" font-family="Helvetica,sans-Serif" font-size="10.00"> _dlacpy</text>
</g>
<!-- Node15 -->
<g id="node15" class="node"><title>Node15</title>
<g id="a_node15"><a xlink:href="../../de/d74/classDotNumerics_1_1LinearAlgebra_1_1CSLapack_1_1DROT.html" target="_top" xlink:title=" ">
<polygon fill="white" stroke="black" points="642,-49.5 642,-79.5 780,-79.5 780,-49.5 642,-49.5"/>
<text text-anchor="start" x="650" y="-67.5" font-family="Helvetica,sans-Serif" font-size="10.00">DotNumerics.LinearAlgebra.</text>
<text text-anchor="middle" x="711" y="-56.5" font-family="Helvetica,sans-Serif" font-size="10.00">CSLapack.DROT</text>
</a>
</g>
</g>
<!-- Node15&#45;&gt;Node1 -->
<g id="edge18" class="edge"><title>Node15&#45;&gt;Node1</title>
<path fill="none" stroke="#9a32cd" stroke-dasharray="5,2" d="M769.752,-83.5062C773.269,-85.0856 776.711,-86.7517 780,-88.5 834.578,-117.515 886.655,-170.249 910.47,-196.217"/>
<polygon fill="#9a32cd" stroke="#9a32cd" points="770.901,-80.1922 760.327,-79.5312 768.181,-86.6421 770.901,-80.1922"/>
<text text-anchor="middle" x="818" y="-129.5" font-family="Helvetica,sans-Serif" font-size="10.00"> _drot</text>
</g>
<!-- Node16 -->
<g id="node16" class="node"><title>Node16</title>
<g id="a_node16"><a xlink:href="../../d0/d5e/classDotNumerics_1_1LinearAlgebra_1_1CSLapack_1_1DLAMRG.html" target="_top" xlink:title="– LAPACK routine (version 3.1) – Univ. of Tennessee, Univ. of California Berkeley and NAG Ltd....">
<polygon fill="white" stroke="black" points="642,-0.5 642,-30.5 780,-30.5 780,-0.5 642,-0.5"/>
<text text-anchor="start" x="650" y="-18.5" font-family="Helvetica,sans-Serif" font-size="10.00">DotNumerics.LinearAlgebra.</text>
<text text-anchor="middle" x="711" y="-7.5" font-family="Helvetica,sans-Serif" font-size="10.00">CSLapack.DLAMRG</text>
</a>
</g>
</g>
<!-- Node16&#45;&gt;Node1 -->
<g id="edge19" class="edge"><title>Node16&#45;&gt;Node1</title>
<path fill="none" stroke="#9a32cd" stroke-dasharray="5,2" d="M770.534,-34.6165C773.789,-36.1541 776.967,-37.7821 780,-39.5 848.113,-78.0765 898.039,-162.109 916.348,-196.436"/>
<polygon fill="#9a32cd" stroke="#9a32cd" points="771.775,-31.3391 761.212,-30.524 768.961,-37.7486 771.775,-31.3391"/>
<text text-anchor="middle" x="818" y="-88.5" font-family="Helvetica,sans-Serif" font-size="10.00"> _dlamrg</text>
</g>
</g>
</svg>
        <g id="navigator" transform="translate(0 0)" fill="#404254">
                <rect fill="#f2f5e9" fill-opacity="0.5" stroke="#606060" stroke-width=".5" x="0" y="0" width="60" height="60"/>
                <use id="zoomplus" xlink:href="#zoomPlus" x="17" y="9" onmousedown="handleZoom(evt,'in')"/>
                <use id="zoomminus" xlink:href="#zoomMin" x="42" y="9" onmousedown="handleZoom(evt,'out')"/>
                <use id="reset" xlink:href="#resetDef" x="30" y="36" onmousedown="handleReset()"/>
                <g id="arrowUp" xlink:href="#dirArrow" transform="translate(30 24)" onmousedown="handlePan(0,-1)">
                  <use xlink:href="#rim" fill="#404040">
                        <set attributeName="fill" to="#808080" begin="arrowUp.mouseover" end="arrowUp.mouseout"/>
                  </use>
                  <path fill="none" stroke="white" stroke-width="1.5" d="M0,-3.0v7 M-2.5,-0.5L0,-3.0L2.5,-0.5"/>
                </g>
                <g id="arrowRight" xlink:href="#dirArrow" transform="rotate(90) translate(36 -43)" onmousedown="handlePan(1,0)">
                  <use xlink:href="#rim" fill="#404040">
                        <set attributeName="fill" to="#808080" begin="arrowRight.mouseover" end="arrowRight.mouseout"/>
                  </use>
                  <path fill="none" stroke="white" stroke-width="1.5" d="M0,-3.0v7 M-2.5,-0.5L0,-3.0L2.5,-0.5"/>
                </g>
                <g id="arrowDown" xlink:href="#dirArrow" transform="rotate(180) translate(-30 -48)" onmousedown="handlePan(0,1)">
                  <use xlink:href="#rim" fill="#404040">
                        <set attributeName="fill" to="#808080" begin="arrowDown.mouseover" end="arrowDown.mouseout"/>
                  </use>
                  <path fill="none" stroke="white" stroke-width="1.5" d="M0,-3.0v7 M-2.5,-0.5L0,-3.0L2.5,-0.5"/>
                </g>
                <g id="arrowLeft" xlink:href="#dirArrow" transform="rotate(270) translate(-36 17)" onmousedown="handlePan(-1,0)">
                  <use xlink:href="#rim" fill="#404040">
                        <set attributeName="fill" to="#808080" begin="arrowLeft.mouseover" end="arrowLeft.mouseout"/>
                  </use>
                  <path fill="none" stroke="white" stroke-width="1.5" d="M0,-3.0v7 M-2.5,-0.5L0,-3.0L2.5,-0.5"/>
                </g>
        </g>
        <svg viewBox="0 0 15 15" width="100%" height="30px" preserveAspectRatio="xMaxYMin meet">
         <g id="arrow_out" transform="scale(0.3 0.3)">
          <a xlink:href="classDotNumerics_1_1LinearAlgebra_1_1CSLapack_1_1DLAED8__coll__graph_org.svg" target="_base">
           <rect id="button" ry="5" rx="5" y="6" x="6" height="38" width="38"
                fill="#f2f5e9" fill-opacity="0.5" stroke="#606060" stroke-width="1.0"/>
           <path id="arrow"
             d="M 11.500037,31.436501 C 11.940474,20.09759 22.043105,11.32322 32.158766,21.979434 L 37.068811,17.246167 C 37.068811,17.246167 37.088388,32 37.088388,32 L 22.160133,31.978069 C 22.160133,31.978069 26.997745,27.140456 26.997745,27.140456 C 18.528582,18.264221 13.291696,25.230495 11.500037,31.436501 z"
             style="fill:#404040;"/>
          </a>
         </g>
        </svg>
</svg>
