<?xml version="1.0" encoding="UTF-8" standalone="no"?>
<!DOCTYPE svg PUBLIC "-//W3C//DTD SVG 1.1//EN"
 "http://www.w3.org/Graphics/SVG/1.1/DTD/svg11.dtd">
<!-- Generated by graphviz version 2.38.0 (20140413.2041)
 -->
<!-- Title: NUnit.Framework.Constraints.ThrowsConstraintTest_ExactType Pages: 1 -->
<svg width="241pt" height="366pt"
 viewBox="0.00 0.00 240.50 366.00" xmlns="http://www.w3.org/2000/svg" xmlns:xlink="http://www.w3.org/1999/xlink">
<g id="graph0" class="graph" transform="scale(1 1) rotate(0) translate(4 362)">
<title>NUnit.Framework.Constraints.ThrowsConstraintTest_ExactType</title>
<polygon fill="white" stroke="none" points="-4,4 -4,-362 236.5,-362 236.5,4 -4,4"/>
<!-- Node1 -->
<g id="node1" class="node"><title>Node1</title>
<g id="a_node1"><a xlink:title=" ">
<polygon fill="#bfbfbf" stroke="black" points="70.5,-0.5 70.5,-30.5 232.5,-30.5 232.5,-0.5 70.5,-0.5"/>
<text text-anchor="start" x="78.5" y="-18.5" font-family="Helvetica,sans-Serif" font-size="10.00">NUnit.Framework.Constraints.</text>
<text text-anchor="middle" x="151.5" y="-7.5" font-family="Helvetica,sans-Serif" font-size="10.00">ThrowsConstraintTest_ExactType</text>
</a>
</g>
</g>
<!-- Node2 -->
<g id="node2" class="node"><title>Node2</title>
<g id="a_node2"><a xlink:href="../../d2/d5e/classNUnit_1_1Framework_1_1Constraints_1_1ThrowsConstraintTestBase.html" target="_top" xlink:title=" ">
<polygon fill="white" stroke="black" points="7,-89.5 7,-108.5 140,-108.5 140,-89.5 7,-89.5"/>
<text text-anchor="middle" x="73.5" y="-96.5" font-family="Helvetica,sans-Serif" font-size="10.00">ThrowsConstraintTestBase</text>
</a>
</g>
</g>
<!-- Node2&#45;&gt;Node1 -->
<g id="edge1" class="edge"><title>Node2&#45;&gt;Node1</title>
<path fill="none" stroke="midnightblue" d="M89.019,-81.7846C103.335,-66.8264 124.375,-44.8419 138.008,-30.5974"/>
<polygon fill="midnightblue" stroke="midnightblue" points="86.2331,-79.6336 81.8474,-89.2781 91.2902,-84.4735 86.2331,-79.6336"/>
</g>
<!-- Node3 -->
<g id="node3" class="node"><title>Node3</title>
<g id="a_node3"><a xlink:href="../../dc/d5c/classNUnit_1_1Framework_1_1Constraints_1_1ConstraintTestBaseNoData.html" target="_top" xlink:title=" ">
<polygon fill="white" stroke="black" points="6.5,-146.5 6.5,-165.5 140.5,-165.5 140.5,-146.5 6.5,-146.5"/>
<text text-anchor="middle" x="73.5" y="-153.5" font-family="Helvetica,sans-Serif" font-size="10.00">ConstraintTestBaseNoData</text>
</a>
</g>
</g>
<!-- Node3&#45;&gt;Node2 -->
<g id="edge2" class="edge"><title>Node3&#45;&gt;Node2</title>
<path fill="none" stroke="midnightblue" d="M73.5,-136.117C73.5,-126.817 73.5,-116.056 73.5,-108.715"/>
<polygon fill="midnightblue" stroke="midnightblue" points="70.0001,-136.406 73.5,-146.406 77.0001,-136.406 70.0001,-136.406"/>
</g>
<!-- Node4 -->
<g id="node4" class="node"><title>Node4</title>
<g id="a_node4"><a xlink:href="../../d9/da9/classNUnit_1_1Framework_1_1Constraints_1_1Constraint.html" target="_top" xlink:title="The Constraint class is the base of all built&#45;in constraints within NUnit. It provides the operator o...">
<polygon fill="white" stroke="black" points="0,-213.5 0,-243.5 147,-243.5 147,-213.5 0,-213.5"/>
<text text-anchor="start" x="8" y="-231.5" font-family="Helvetica,sans-Serif" font-size="10.00">NUnit.Framework.Constraints.</text>
<text text-anchor="middle" x="73.5" y="-220.5" font-family="Helvetica,sans-Serif" font-size="10.00">Constraint</text>
</a>
</g>
</g>
<!-- Node4&#45;&gt;Node3 -->
<g id="edge3" class="edge"><title>Node4&#45;&gt;Node3</title>
<path fill="none" stroke="#9a32cd" stroke-dasharray="5,2" d="M73.5,-203.091C73.5,-190.214 73.5,-175.197 73.5,-165.893"/>
<polygon fill="#9a32cd" stroke="#9a32cd" points="70.0001,-203.233 73.5,-213.233 77.0001,-203.233 70.0001,-203.233"/>
<text text-anchor="middle" x="104" y="-187" font-family="Helvetica,sans-Serif" font-size="10.00"> theConstraint</text>
</g>
<!-- Node5 -->
<g id="node5" class="node"><title>Node5</title>
<g id="a_node5"><a xlink:href="../../d1/d94/interfaceNUnit_1_1Framework_1_1Constraints_1_1IConstraint.html" target="_top" xlink:title="Interface for all constraints">
<polygon fill="white" stroke="black" points="42,-281.5 42,-300.5 105,-300.5 105,-281.5 42,-281.5"/>
<text text-anchor="middle" x="73.5" y="-288.5" font-family="Helvetica,sans-Serif" font-size="10.00">IConstraint</text>
</a>
</g>
</g>
<!-- Node5&#45;&gt;Node4 -->
<g id="edge4" class="edge"><title>Node5&#45;&gt;Node4</title>
<path fill="none" stroke="midnightblue" d="M73.5,-271.215C73.5,-262.356 73.5,-251.958 73.5,-243.759"/>
<polygon fill="midnightblue" stroke="midnightblue" points="70.0001,-271.332 73.5,-281.332 77.0001,-271.332 70.0001,-271.332"/>
</g>
<!-- Node6 -->
<g id="node6" class="node"><title>Node6</title>
<g id="a_node6"><a xlink:href="../../d7/d29/interfaceNUnit_1_1Framework_1_1Constraints_1_1IResolveConstraint.html" target="_top" xlink:title="The IResolveConstraint interface is implemented by all complete and resolvable constraints and expres...">
<polygon fill="white" stroke="black" points="25,-338.5 25,-357.5 122,-357.5 122,-338.5 25,-338.5"/>
<text text-anchor="middle" x="73.5" y="-345.5" font-family="Helvetica,sans-Serif" font-size="10.00">IResolveConstraint</text>
</a>
</g>
</g>
<!-- Node6&#45;&gt;Node5 -->
<g id="edge5" class="edge"><title>Node6&#45;&gt;Node5</title>
<path fill="none" stroke="midnightblue" d="M73.5,-328.117C73.5,-318.817 73.5,-308.056 73.5,-300.715"/>
<polygon fill="midnightblue" stroke="midnightblue" points="70.0001,-328.406 73.5,-338.406 77.0001,-328.406 70.0001,-328.406"/>
</g>
<!-- Node7 -->
<g id="node7" class="node"><title>Node7</title>
<g id="a_node7"><a xlink:title=" ">
<polygon fill="white" stroke="#bfbfbf" points="158,-89.5 158,-108.5 199,-108.5 199,-89.5 158,-89.5"/>
<text text-anchor="middle" x="178.5" y="-96.5" font-family="Helvetica,sans-Serif" font-size="10.00">static</text>
</a>
</g>
</g>
<!-- Node7&#45;&gt;Node1 -->
<g id="edge6" class="edge"><title>Node7&#45;&gt;Node1</title>
<path fill="none" stroke="#9a32cd" stroke-dasharray="5,2" d="M172.425,-79.6633C167.504,-64.8073 160.671,-44.1824 156.17,-30.5974"/>
<polygon fill="#9a32cd" stroke="#9a32cd" points="169.143,-80.8861 175.611,-89.2781 175.788,-78.6847 169.143,-80.8861"/>
<text text-anchor="middle" x="198" y="-63" font-family="Helvetica,sans-Serif" font-size="10.00"> FailureData</text>
<text text-anchor="middle" x="198" y="-52" font-family="Helvetica,sans-Serif" font-size="10.00">SuccessData</text>
</g>
</g>
</svg>
