<?xml version="1.0" encoding="UTF-8" standalone="no"?>
<!DOCTYPE svg PUBLIC "-//W3C//DTD SVG 1.1//EN"
 "http://www.w3.org/Graphics/SVG/1.1/DTD/svg11.dtd">
<!-- Generated by graphviz version 2.38.0 (20140413.2041)
 -->
<!-- Title: NUnit.Framework.Constraints.CollectionConstraint Pages: 1 -->
<svg width="1059pt" height="259pt"
 viewBox="0.00 0.00 1059.00 259.00" xmlns="http://www.w3.org/2000/svg" xmlns:xlink="http://www.w3.org/1999/xlink">
<g id="graph0" class="graph" transform="scale(1 1) rotate(0) translate(4 255)">
<title>NUnit.Framework.Constraints.CollectionConstraint</title>
<polygon fill="white" stroke="none" points="-4,4 -4,-255 1055,-255 1055,4 -4,4"/>
<!-- Node1 -->
<g id="node1" class="node"><title>Node1</title>
<g id="a_node1"><a xlink:title="CollectionConstraint is the abstract base class for constraints that operate on collections.">
<polygon fill="#bfbfbf" stroke="black" points="329,-49.5 329,-79.5 476,-79.5 476,-49.5 329,-49.5"/>
<text text-anchor="start" x="337" y="-67.5" font-family="Helvetica,sans-Serif" font-size="10.00">NUnit.Framework.Constraints.</text>
<text text-anchor="middle" x="402.5" y="-56.5" font-family="Helvetica,sans-Serif" font-size="10.00">CollectionConstraint</text>
</a>
</g>
</g>
<!-- Node5 -->
<g id="node5" class="node"><title>Node5</title>
<g id="a_node5"><a xlink:href="../../da/d8e/classNUnit_1_1Framework_1_1Constraints_1_1CollectionItemsEqualConstraint.html" target="_top" xlink:title="CollectionItemsEqualConstraint is the abstract base class for all collection constraints that apply s...">
<polygon fill="white" stroke="black" points="512,-98.5 512,-128.5 664,-128.5 664,-98.5 512,-98.5"/>
<text text-anchor="start" x="520" y="-116.5" font-family="Helvetica,sans-Serif" font-size="10.00">NUnit.Framework.Constraints.</text>
<text text-anchor="middle" x="588" y="-105.5" font-family="Helvetica,sans-Serif" font-size="10.00">CollectionItemsEqualConstraint</text>
</a>
</g>
</g>
<!-- Node1&#45;&gt;Node5 -->
<g id="edge4" class="edge"><title>Node1&#45;&gt;Node5</title>
<path fill="none" stroke="midnightblue" d="M469.496,-82.1229C489.572,-87.4837 511.437,-93.3225 530.803,-98.4938"/>
<polygon fill="midnightblue" stroke="midnightblue" points="470.368,-78.7331 459.803,-79.5346 468.562,-85.4961 470.368,-78.7331"/>
</g>
<!-- Node13 -->
<g id="node13" class="node"><title>Node13</title>
<g id="a_node13"><a xlink:href="../../dd/d34/classNUnit_1_1Framework_1_1Constraints_1_1CollectionOrderedConstraint.html" target="_top" xlink:title="CollectionOrderedConstraint is used to test whether a collection is ordered.">
<polygon fill="white" stroke="black" points="514.5,-49.5 514.5,-79.5 661.5,-79.5 661.5,-49.5 514.5,-49.5"/>
<text text-anchor="start" x="522.5" y="-67.5" font-family="Helvetica,sans-Serif" font-size="10.00">NUnit.Framework.Constraints.</text>
<text text-anchor="middle" x="588" y="-56.5" font-family="Helvetica,sans-Serif" font-size="10.00">CollectionOrderedConstraint</text>
</a>
</g>
</g>
<!-- Node1&#45;&gt;Node13 -->
<g id="edge12" class="edge"><title>Node1&#45;&gt;Node13</title>
<path fill="none" stroke="midnightblue" d="M486.171,-64.5C495.587,-64.5 505.131,-64.5 514.402,-64.5"/>
<polygon fill="midnightblue" stroke="midnightblue" points="486.024,-61.0001 476.024,-64.5 486.024,-68.0001 486.024,-61.0001"/>
</g>
<!-- Node14 -->
<g id="node14" class="node"><title>Node14</title>
<g id="a_node14"><a xlink:href="../../d2/da0/classNUnit_1_1Framework_1_1Constraints_1_1EmptyCollectionConstraint.html" target="_top" xlink:title="EmptyCollectionConstraint tests whether a collection is empty.">
<polygon fill="white" stroke="black" points="514.5,-0.5 514.5,-30.5 661.5,-30.5 661.5,-0.5 514.5,-0.5"/>
<text text-anchor="start" x="522.5" y="-18.5" font-family="Helvetica,sans-Serif" font-size="10.00">NUnit.Framework.Constraints.</text>
<text text-anchor="middle" x="588" y="-7.5" font-family="Helvetica,sans-Serif" font-size="10.00">EmptyCollectionConstraint</text>
</a>
</g>
</g>
<!-- Node1&#45;&gt;Node14 -->
<g id="edge13" class="edge"><title>Node1&#45;&gt;Node14</title>
<path fill="none" stroke="midnightblue" d="M469.496,-46.8771C489.572,-41.5163 511.437,-35.6775 530.803,-30.5062"/>
<polygon fill="midnightblue" stroke="midnightblue" points="468.562,-43.5039 459.803,-49.4654 470.368,-50.2669 468.562,-43.5039"/>
</g>
<!-- Node2 -->
<g id="node2" class="node"><title>Node2</title>
<g id="a_node2"><a xlink:href="../../d9/da9/classNUnit_1_1Framework_1_1Constraints_1_1Constraint.html" target="_top" xlink:title="The Constraint class is the base of all built&#45;in constraints within NUnit. It provides the operator o...">
<polygon fill="white" stroke="black" points="232,-55 232,-74 293,-74 293,-55 232,-55"/>
<text text-anchor="middle" x="262.5" y="-62" font-family="Helvetica,sans-Serif" font-size="10.00">Constraint</text>
</a>
</g>
</g>
<!-- Node2&#45;&gt;Node1 -->
<g id="edge1" class="edge"><title>Node2&#45;&gt;Node1</title>
<path fill="none" stroke="midnightblue" d="M303.277,-64.5C311.338,-64.5 320.052,-64.5 328.845,-64.5"/>
<polygon fill="midnightblue" stroke="midnightblue" points="303.104,-61.0001 293.104,-64.5 303.104,-68.0001 303.104,-61.0001"/>
</g>
<!-- Node3 -->
<g id="node3" class="node"><title>Node3</title>
<g id="a_node3"><a xlink:href="../../d1/d94/interfaceNUnit_1_1Framework_1_1Constraints_1_1IConstraint.html" target="_top" xlink:title="Interface for all constraints">
<polygon fill="white" stroke="black" points="133,-55 133,-74 196,-74 196,-55 133,-55"/>
<text text-anchor="middle" x="164.5" y="-62" font-family="Helvetica,sans-Serif" font-size="10.00">IConstraint</text>
</a>
</g>
</g>
<!-- Node3&#45;&gt;Node2 -->
<g id="edge2" class="edge"><title>Node3&#45;&gt;Node2</title>
<path fill="none" stroke="midnightblue" d="M206.341,-64.5C214.892,-64.5 223.754,-64.5 231.807,-64.5"/>
<polygon fill="midnightblue" stroke="midnightblue" points="206.139,-61.0001 196.139,-64.5 206.139,-68.0001 206.139,-61.0001"/>
</g>
<!-- Node4 -->
<g id="node4" class="node"><title>Node4</title>
<g id="a_node4"><a xlink:href="../../d7/d29/interfaceNUnit_1_1Framework_1_1Constraints_1_1IResolveConstraint.html" target="_top" xlink:title="The IResolveConstraint interface is implemented by all complete and resolvable constraints and expres...">
<polygon fill="white" stroke="black" points="0,-55 0,-74 97,-74 97,-55 0,-55"/>
<text text-anchor="middle" x="48.5" y="-62" font-family="Helvetica,sans-Serif" font-size="10.00">IResolveConstraint</text>
</a>
</g>
</g>
<!-- Node4&#45;&gt;Node3 -->
<g id="edge3" class="edge"><title>Node4&#45;&gt;Node3</title>
<path fill="none" stroke="midnightblue" d="M107.465,-64.5C116.252,-64.5 125.008,-64.5 132.899,-64.5"/>
<polygon fill="midnightblue" stroke="midnightblue" points="107.186,-61.0001 97.1857,-64.5 107.186,-68.0001 107.186,-61.0001"/>
</g>
<!-- Node6 -->
<g id="node6" class="node"><title>Node6</title>
<g id="a_node6"><a xlink:href="../../da/d82/classNUnit_1_1Framework_1_1Constraints_1_1CollectionContainsConstraint.html" target="_top" xlink:title="CollectionContainsConstraint is used to test whether a collection contains an expected object as a me...">
<polygon fill="white" stroke="black" points="700.5,-196.5 700.5,-226.5 847.5,-226.5 847.5,-196.5 700.5,-196.5"/>
<text text-anchor="start" x="708.5" y="-214.5" font-family="Helvetica,sans-Serif" font-size="10.00">NUnit.Framework.Constraints.</text>
<text text-anchor="middle" x="774" y="-203.5" font-family="Helvetica,sans-Serif" font-size="10.00">CollectionContainsConstraint</text>
</a>
</g>
</g>
<!-- Node5&#45;&gt;Node6 -->
<g id="edge5" class="edge"><title>Node5&#45;&gt;Node6</title>
<path fill="none" stroke="midnightblue" d="M616.67,-134.539C638.444,-150.378 670.016,-171.8 700,-186.5 707.458,-190.156 715.585,-193.508 723.62,-196.488"/>
<polygon fill="midnightblue" stroke="midnightblue" points="618.672,-131.667 608.544,-128.556 614.521,-137.303 618.672,-131.667"/>
</g>
<!-- Node9 -->
<g id="node9" class="node"><title>Node9</title>
<g id="a_node9"><a xlink:href="../../df/d10/classNUnit_1_1Framework_1_1Constraints_1_1CollectionEquivalentConstraint.html" target="_top" xlink:title="CollectionEquivalentConstraint is used to determine whether two collections are equivalent.">
<polygon fill="white" stroke="black" points="700,-147.5 700,-177.5 848,-177.5 848,-147.5 700,-147.5"/>
<text text-anchor="start" x="708" y="-165.5" font-family="Helvetica,sans-Serif" font-size="10.00">NUnit.Framework.Constraints.</text>
<text text-anchor="middle" x="774" y="-154.5" font-family="Helvetica,sans-Serif" font-size="10.00">CollectionEquivalentConstraint</text>
</a>
</g>
</g>
<!-- Node5&#45;&gt;Node9 -->
<g id="edge8" class="edge"><title>Node5&#45;&gt;Node9</title>
<path fill="none" stroke="midnightblue" d="M655.176,-131.123C675.306,-136.484 697.232,-142.323 716.65,-147.494"/>
<polygon fill="midnightblue" stroke="midnightblue" points="656.02,-127.726 645.457,-128.535 654.219,-134.49 656.02,-127.726"/>
</g>
<!-- Node10 -->
<g id="node10" class="node"><title>Node10</title>
<g id="a_node10"><a xlink:href="../../dc/d21/classNUnit_1_1Framework_1_1Constraints_1_1CollectionSubsetConstraint.html" target="_top" xlink:title="CollectionSubsetConstraint is used to determine whether one collection is a subset of another">
<polygon fill="white" stroke="black" points="700.5,-98.5 700.5,-128.5 847.5,-128.5 847.5,-98.5 700.5,-98.5"/>
<text text-anchor="start" x="708.5" y="-116.5" font-family="Helvetica,sans-Serif" font-size="10.00">NUnit.Framework.Constraints.</text>
<text text-anchor="middle" x="774" y="-105.5" font-family="Helvetica,sans-Serif" font-size="10.00">CollectionSubsetConstraint</text>
</a>
</g>
</g>
<!-- Node5&#45;&gt;Node10 -->
<g id="edge9" class="edge"><title>Node5&#45;&gt;Node10</title>
<path fill="none" stroke="midnightblue" d="M674.241,-113.5C682.923,-113.5 691.685,-113.5 700.216,-113.5"/>
<polygon fill="midnightblue" stroke="midnightblue" points="674.105,-110 664.105,-113.5 674.105,-117 674.105,-110"/>
</g>
<!-- Node11 -->
<g id="node11" class="node"><title>Node11</title>
<g id="a_node11"><a xlink:href="../../de/da8/classNUnit_1_1Framework_1_1Constraints_1_1CollectionSupersetConstraint.html" target="_top" xlink:title="CollectionSupersetConstraint is used to determine whether one collection is a superset of another">
<polygon fill="white" stroke="black" points="700.5,-49.5 700.5,-79.5 847.5,-79.5 847.5,-49.5 700.5,-49.5"/>
<text text-anchor="start" x="708.5" y="-67.5" font-family="Helvetica,sans-Serif" font-size="10.00">NUnit.Framework.Constraints.</text>
<text text-anchor="middle" x="774" y="-56.5" font-family="Helvetica,sans-Serif" font-size="10.00">CollectionSupersetConstraint</text>
</a>
</g>
</g>
<!-- Node5&#45;&gt;Node11 -->
<g id="edge10" class="edge"><title>Node5&#45;&gt;Node11</title>
<path fill="none" stroke="midnightblue" d="M655.176,-95.8771C675.306,-90.5163 697.232,-84.6775 716.65,-79.5062"/>
<polygon fill="midnightblue" stroke="midnightblue" points="654.219,-92.5098 645.457,-98.4654 656.02,-99.2741 654.219,-92.5098"/>
</g>
<!-- Node12 -->
<g id="node12" class="node"><title>Node12</title>
<g id="a_node12"><a xlink:href="../../d3/d1e/classNUnit_1_1Framework_1_1Constraints_1_1UniqueItemsConstraint.html" target="_top" xlink:title="UniqueItemsConstraint tests whether all the items in a collection are unique.">
<polygon fill="white" stroke="black" points="700.5,-0.5 700.5,-30.5 847.5,-30.5 847.5,-0.5 700.5,-0.5"/>
<text text-anchor="start" x="708.5" y="-18.5" font-family="Helvetica,sans-Serif" font-size="10.00">NUnit.Framework.Constraints.</text>
<text text-anchor="middle" x="774" y="-7.5" font-family="Helvetica,sans-Serif" font-size="10.00">UniqueItemsConstraint</text>
</a>
</g>
</g>
<!-- Node5&#45;&gt;Node12 -->
<g id="edge11" class="edge"><title>Node5&#45;&gt;Node12</title>
<path fill="none" stroke="midnightblue" d="M655.585,-93.896C658.515,-92.2346 661.337,-90.4392 664,-88.5 685.844,-72.5911 678.123,-55.3639 700,-39.5 704.752,-36.0541 710.027,-33.0837 715.505,-30.5272"/>
<polygon fill="midnightblue" stroke="midnightblue" points="653.867,-90.8432 646.532,-98.4883 657.033,-97.086 653.867,-90.8432"/>
</g>
<!-- Node7 -->
<g id="node7" class="node"><title>Node7</title>
<g id="a_node7"><a xlink:href="../../d9/d77/classNUnit_1_1Framework_1_1Constraints_1_1DictionaryContainsKeyConstraint.html" target="_top" xlink:title="DictionaryContainsKeyConstraint is used to test whether a dictionary contains an expected object as a...">
<polygon fill="white" stroke="black" points="887.5,-220.5 887.5,-250.5 1047.5,-250.5 1047.5,-220.5 887.5,-220.5"/>
<text text-anchor="start" x="895.5" y="-238.5" font-family="Helvetica,sans-Serif" font-size="10.00">NUnit.Framework.Constraints.</text>
<text text-anchor="middle" x="967.5" y="-227.5" font-family="Helvetica,sans-Serif" font-size="10.00">DictionaryContainsKeyConstraint</text>
</a>
</g>
</g>
<!-- Node6&#45;&gt;Node7 -->
<g id="edge6" class="edge"><title>Node6&#45;&gt;Node7</title>
<path fill="none" stroke="midnightblue" d="M857.84,-221.882C867.679,-223.115 877.703,-224.371 887.487,-225.598"/>
<polygon fill="midnightblue" stroke="midnightblue" points="858.029,-218.378 847.671,-220.608 857.158,-225.324 858.029,-218.378"/>
</g>
<!-- Node8 -->
<g id="node8" class="node"><title>Node8</title>
<g id="a_node8"><a xlink:href="../../d4/d8e/classNUnit_1_1Framework_1_1Constraints_1_1DictionaryContainsValueConstraint.html" target="_top" xlink:title="DictionaryContainsValueConstraint is used to test whether a dictionary contains an expected object as...">
<polygon fill="white" stroke="black" points="884,-171.5 884,-201.5 1051,-201.5 1051,-171.5 884,-171.5"/>
<text text-anchor="start" x="892" y="-189.5" font-family="Helvetica,sans-Serif" font-size="10.00">NUnit.Framework.Constraints.</text>
<text text-anchor="middle" x="967.5" y="-178.5" font-family="Helvetica,sans-Serif" font-size="10.00">DictionaryContainsValueConstraint</text>
</a>
</g>
</g>
<!-- Node6&#45;&gt;Node8 -->
<g id="edge7" class="edge"><title>Node6&#45;&gt;Node8</title>
<path fill="none" stroke="midnightblue" d="M857.771,-200.694C866.447,-199.562 875.268,-198.41 883.941,-197.278"/>
<polygon fill="midnightblue" stroke="midnightblue" points="857.134,-197.248 847.671,-202.013 858.04,-204.189 857.134,-197.248"/>
</g>
</g>
</svg>
