<?xml version="1.0" encoding="UTF-8" standalone="no"?>
<!DOCTYPE svg PUBLIC "-//W3C//DTD SVG 1.1//EN"
 "http://www.w3.org/Graphics/SVG/1.1/DTD/svg11.dtd">
<!-- Generated by graphviz version 2.38.0 (20140413.2041)
 -->
<!-- Title: DotNumerics.LinearAlgebra.CSLapack.DGETRS Pages: 1 -->
<svg width="568pt" height="173pt"
 viewBox="0.00 0.00 568.00 173.00" xmlns="http://www.w3.org/2000/svg" xmlns:xlink="http://www.w3.org/1999/xlink">
<g id="graph0" class="graph" transform="scale(1 1) rotate(0) translate(4 169)">
<title>DotNumerics.LinearAlgebra.CSLapack.DGETRS</title>
<polygon fill="white" stroke="none" points="-4,4 -4,-169 564,-169 564,4 -4,4"/>
<!-- Node1 -->
<g id="node1" class="node"><title>Node1</title>
<g id="a_node1"><a xlink:title="– LAPACK routine (version 3.1) – Univ. of Tennessee, Univ. of California Berkeley and NAG Ltd....">
<polygon fill="#bfbfbf" stroke="black" points="422,-71.5 422,-101.5 560,-101.5 560,-71.5 422,-71.5"/>
<text text-anchor="start" x="430" y="-89.5" font-family="Helvetica,sans-Serif" font-size="10.00">DotNumerics.LinearAlgebra.</text>
<text text-anchor="middle" x="491" y="-78.5" font-family="Helvetica,sans-Serif" font-size="10.00">CSLapack.DGETRS</text>
</a>
</g>
</g>
<!-- Node2 -->
<g id="node2" class="node"><title>Node2</title>
<g id="a_node2"><a xlink:href="../../db/d6a/classDotNumerics_1_1LinearAlgebra_1_1CSLapack_1_1XERBLA.html" target="_top" xlink:title="– LAPACK auxiliary routine (version 3.1) – Univ. of Tennessee, Univ. of California Berkeley and NAG L...">
<polygon fill="white" stroke="black" points="0,-134.5 0,-164.5 138,-164.5 138,-134.5 0,-134.5"/>
<text text-anchor="start" x="8" y="-152.5" font-family="Helvetica,sans-Serif" font-size="10.00">DotNumerics.LinearAlgebra.</text>
<text text-anchor="middle" x="69" y="-141.5" font-family="Helvetica,sans-Serif" font-size="10.00">CSLapack.XERBLA</text>
</a>
</g>
</g>
<!-- Node2&#45;&gt;Node1 -->
<g id="edge1" class="edge"><title>Node2&#45;&gt;Node1</title>
<path fill="none" stroke="#9a32cd" stroke-dasharray="5,2" d="M148.399,-149.635C162.582,-149.437 177.235,-149.086 191,-148.5 260.475,-145.544 278.838,-150.265 347,-136.5 373.175,-131.214 378.771,-126.251 404,-117.5 418.695,-112.403 434.742,-106.666 448.952,-101.525"/>
<polygon fill="#9a32cd" stroke="#9a32cd" points="148.132,-146.138 138.174,-149.754 148.214,-153.138 148.132,-146.138"/>
<text text-anchor="middle" x="278" y="-151.5" font-family="Helvetica,sans-Serif" font-size="10.00"> _xerbla</text>
</g>
<!-- Node3 -->
<g id="node3" class="node"><title>Node3</title>
<g id="a_node3"><a xlink:href="../../db/dc9/classDotNumerics_1_1LinearAlgebra_1_1CSLapack_1_1DTRSM.html" target="_top" xlink:title=" ">
<polygon fill="white" stroke="black" points="209,-97.5 209,-127.5 347,-127.5 347,-97.5 209,-97.5"/>
<text text-anchor="start" x="217" y="-115.5" font-family="Helvetica,sans-Serif" font-size="10.00">DotNumerics.LinearAlgebra.</text>
<text text-anchor="middle" x="278" y="-104.5" font-family="Helvetica,sans-Serif" font-size="10.00">CSLapack.DTRSM</text>
</a>
</g>
</g>
<!-- Node2&#45;&gt;Node3 -->
<g id="edge3" class="edge"><title>Node2&#45;&gt;Node3</title>
<path fill="none" stroke="#9a32cd" stroke-dasharray="5,2" d="M148.074,-135.545C168.079,-131.969 189.435,-128.152 208.893,-124.674"/>
<polygon fill="#9a32cd" stroke="#9a32cd" points="147.294,-132.129 138.066,-137.334 148.526,-139.019 147.294,-132.129"/>
<text text-anchor="middle" x="173.5" y="-136.5" font-family="Helvetica,sans-Serif" font-size="10.00"> _xerbla</text>
</g>
<!-- Node3&#45;&gt;Node1 -->
<g id="edge2" class="edge"><title>Node3&#45;&gt;Node1</title>
<path fill="none" stroke="#9a32cd" stroke-dasharray="5,2" d="M357.141,-102.871C378.316,-100.262 401.07,-97.4582 421.659,-94.9211"/>
<polygon fill="#9a32cd" stroke="#9a32cd" points="356.711,-99.3977 347.214,-104.094 357.567,-106.345 356.711,-99.3977"/>
<text text-anchor="middle" x="384.5" y="-105.5" font-family="Helvetica,sans-Serif" font-size="10.00"> _dtrsm</text>
</g>
<!-- Node4 -->
<g id="node4" class="node"><title>Node4</title>
<g id="a_node4"><a xlink:href="../../dd/dac/classDotNumerics_1_1LinearAlgebra_1_1CSLapack_1_1LSAME.html" target="_top" xlink:title="– LAPACK auxiliary routine (version 3.1) – Univ. of Tennessee, Univ. of California Berkeley and NAG L...">
<polygon fill="white" stroke="black" points="0,-75.5 0,-105.5 138,-105.5 138,-75.5 0,-75.5"/>
<text text-anchor="start" x="8" y="-93.5" font-family="Helvetica,sans-Serif" font-size="10.00">DotNumerics.LinearAlgebra.</text>
<text text-anchor="middle" x="69" y="-82.5" font-family="Helvetica,sans-Serif" font-size="10.00">CSLapack.LSAME</text>
</a>
</g>
</g>
<!-- Node4&#45;&gt;Node1 -->
<g id="edge6" class="edge"><title>Node4&#45;&gt;Node1</title>
<path fill="none" stroke="#9a32cd" stroke-dasharray="5,2" d="M148.316,-81.223C168.09,-79.2632 189.3,-77.4896 209,-76.5 270.256,-73.4229 285.704,-74.3594 347,-76.5 371.374,-77.3512 398.043,-79.0162 421.678,-80.7471"/>
<polygon fill="#9a32cd" stroke="#9a32cd" points="147.715,-77.7659 138.122,-82.2616 148.425,-84.7299 147.715,-77.7659"/>
<text text-anchor="middle" x="278" y="-79.5" font-family="Helvetica,sans-Serif" font-size="10.00"> _lsame</text>
</g>
<!-- Node4&#45;&gt;Node3 -->
<g id="edge4" class="edge"><title>Node4&#45;&gt;Node3</title>
<path fill="none" stroke="#9a32cd" stroke-dasharray="5,2" d="M148.074,-98.7977C168.079,-100.924 189.435,-103.194 208.893,-105.262"/>
<polygon fill="#9a32cd" stroke="#9a32cd" points="148.38,-95.3106 138.066,-97.7341 147.64,-102.271 148.38,-95.3106"/>
<text text-anchor="middle" x="173.5" y="-106.5" font-family="Helvetica,sans-Serif" font-size="10.00"> _lsame</text>
</g>
<!-- Node5 -->
<g id="node5" class="node"><title>Node5</title>
<g id="a_node5"><a xlink:href="../../da/da0/classDotNumerics_1_1LinearAlgebra_1_1CSLapack_1_1DLASWP.html" target="_top" xlink:title="– LAPACK auxiliary routine (version 3.1) – Univ. of Tennessee, Univ. of California Berkeley and NAG L...">
<polygon fill="white" stroke="black" points="209,-0.5 209,-30.5 347,-30.5 347,-0.5 209,-0.5"/>
<text text-anchor="start" x="217" y="-18.5" font-family="Helvetica,sans-Serif" font-size="10.00">DotNumerics.LinearAlgebra.</text>
<text text-anchor="middle" x="278" y="-7.5" font-family="Helvetica,sans-Serif" font-size="10.00">CSLapack.DLASWP</text>
</a>
</g>
</g>
<!-- Node5&#45;&gt;Node1 -->
<g id="edge5" class="edge"><title>Node5&#45;&gt;Node1</title>
<path fill="none" stroke="#9a32cd" stroke-dasharray="5,2" d="M356.81,-29.0227C372.638,-32.6858 389.022,-37.154 404,-42.5 425.324,-50.1107 448.073,-61.9305 464.815,-71.4037"/>
<polygon fill="#9a32cd" stroke="#9a32cd" points="357.565,-25.6053 347.043,-26.8453 356.042,-32.4375 357.565,-25.6053"/>
<text text-anchor="middle" x="384.5" y="-45.5" font-family="Helvetica,sans-Serif" font-size="10.00"> _dlaswp</text>
</g>
</g>
</svg>
