<?xml version="1.0" encoding="UTF-8" standalone="no"?>
<!DOCTYPE svg PUBLIC "-//W3C//DTD SVG 1.1//EN"
 "http://www.w3.org/Graphics/SVG/1.1/DTD/svg11.dtd">
<!-- Generated by graphviz version 2.38.0 (20140413.2041)
 -->
<!-- Title: AForge.Controls.VideoSourcePlayer Pages: 1 -->
<svg width="161pt" height="117pt"
 viewBox="0.00 0.00 161.00 117.00" xmlns="http://www.w3.org/2000/svg" xmlns:xlink="http://www.w3.org/1999/xlink">
<g id="graph0" class="graph" transform="scale(1 1) rotate(0) translate(4 113)">
<title>AForge.Controls.VideoSourcePlayer</title>
<polygon fill="white" stroke="none" points="-4,4 -4,-113 157,-113 157,4 -4,4"/>
<!-- Node1 -->
<g id="node1" class="node"><title>Node1</title>
<g id="a_node1"><a xlink:title="Video source player control.">
<polygon fill="#bfbfbf" stroke="black" points="0,-0.5 0,-30.5 146,-30.5 146,-0.5 0,-0.5"/>
<text text-anchor="start" x="8" y="-18.5" font-family="Helvetica,sans-Serif" font-size="10.00">AForge.Controls.VideoSource</text>
<text text-anchor="middle" x="73" y="-7.5" font-family="Helvetica,sans-Serif" font-size="10.00">Player</text>
</a>
</g>
</g>
<!-- Node2 -->
<g id="node2" class="node"><title>Node2</title>
<g id="a_node2"><a xlink:title=" ">
<polygon fill="white" stroke="#bfbfbf" points="16.5,-89.5 16.5,-108.5 63.5,-108.5 63.5,-89.5 16.5,-89.5"/>
<text text-anchor="middle" x="40" y="-96.5" font-family="Helvetica,sans-Serif" font-size="10.00">Control</text>
</a>
</g>
</g>
<!-- Node2&#45;&gt;Node1 -->
<g id="edge1" class="edge"><title>Node2&#45;&gt;Node1</title>
<path fill="none" stroke="midnightblue" d="M47.4247,-79.6633C53.44,-64.8073 61.7912,-44.1824 67.2919,-30.5974"/>
<polygon fill="midnightblue" stroke="midnightblue" points="44.0406,-78.6955 43.5316,-89.2781 50.5289,-81.3227 44.0406,-78.6955"/>
</g>
<!-- Node3 -->
<g id="node3" class="node"><title>Node3</title>
<g id="a_node3"><a xlink:title=" ">
<polygon fill="white" stroke="#bfbfbf" points="82,-89.5 82,-108.5 132,-108.5 132,-89.5 82,-89.5"/>
<text text-anchor="middle" x="107" y="-96.5" font-family="Helvetica,sans-Serif" font-size="10.00">System</text>
</a>
</g>
</g>
<!-- Node3&#45;&gt;Node1 -->
<g id="edge2" class="edge"><title>Node3&#45;&gt;Node1</title>
<path fill="none" stroke="#9a32cd" stroke-dasharray="5,2" d="M99.3503,-79.6633C93.1528,-64.8073 84.5485,-44.1824 78.8811,-30.5974"/>
<polygon fill="#9a32cd" stroke="#9a32cd" points="96.281,-81.3966 103.361,-89.2781 102.741,-78.7014 96.281,-81.3966"/>
<text text-anchor="middle" x="124.5" y="-63" font-family="Helvetica,sans-Serif" font-size="10.00"> components</text>
<text text-anchor="middle" x="124.5" y="-52" font-family="Helvetica,sans-Serif" font-size="10.00">borderColor</text>
</g>
</g>
</svg>
