<?xml version="1.0" encoding="UTF-8" standalone="no"?>
<!DOCTYPE svg PUBLIC "-//W3C//DTD SVG 1.1//EN"
 "http://www.w3.org/Graphics/SVG/1.1/DTD/svg11.dtd">
<!-- Generated by graphviz version 2.38.0 (20140413.2041)
 -->
<!-- Title: IG.Neural.Forms.NeuralOutputValueSelector Pages: 1 -->
<svg width="373pt" height="183pt"
 viewBox="0.00 0.00 373.00 183.00" xmlns="http://www.w3.org/2000/svg" xmlns:xlink="http://www.w3.org/1999/xlink">
<g id="graph0" class="graph" transform="scale(1 1) rotate(0) translate(4 179)">
<title>IG.Neural.Forms.NeuralOutputValueSelector</title>
<polygon fill="white" stroke="none" points="-4,4 -4,-179 369,-179 369,4 -4,4"/>
<!-- Node1 -->
<g id="node1" class="node"><title>Node1</title>
<g id="a_node1"><a xlink:title="Selection of the output value of interest in an ANN model.">
<polygon fill="#bfbfbf" stroke="black" points="37,-0.5 37,-30.5 185,-30.5 185,-0.5 37,-0.5"/>
<text text-anchor="start" x="45" y="-18.5" font-family="Helvetica,sans-Serif" font-size="10.00">IG.Neural.Forms.NeuralOutput</text>
<text text-anchor="middle" x="111" y="-7.5" font-family="Helvetica,sans-Serif" font-size="10.00">ValueSelector</text>
</a>
</g>
</g>
<!-- Node2 -->
<g id="node2" class="node"><title>Node2</title>
<g id="a_node2"><a xlink:title=" ">
<polygon fill="white" stroke="#bfbfbf" points="0,-155.5 0,-174.5 68,-174.5 68,-155.5 0,-155.5"/>
<text text-anchor="middle" x="34" y="-162.5" font-family="Helvetica,sans-Serif" font-size="10.00">UserControl</text>
</a>
</g>
</g>
<!-- Node2&#45;&gt;Node1 -->
<g id="edge1" class="edge"><title>Node2&#45;&gt;Node1</title>
<path fill="none" stroke="midnightblue" d="M43.3749,-146.042C58.8374,-116.422 89.3797,-57.9154 103.507,-30.8526"/>
<polygon fill="midnightblue" stroke="midnightblue" points="40.1112,-144.73 38.5861,-155.215 46.3165,-147.97 40.1112,-144.73"/>
</g>
<!-- Node3 -->
<g id="node3" class="node"><title>Node3</title>
<g id="a_node3"><a xlink:title=" ">
<polygon fill="white" stroke="#bfbfbf" points="86,-155.5 86,-174.5 136,-174.5 136,-155.5 86,-155.5"/>
<text text-anchor="middle" x="111" y="-162.5" font-family="Helvetica,sans-Serif" font-size="10.00">System</text>
</a>
</g>
</g>
<!-- Node3&#45;&gt;Node1 -->
<g id="edge2" class="edge"><title>Node3&#45;&gt;Node1</title>
<path fill="none" stroke="#9a32cd" stroke-dasharray="5,2" d="M111,-144.863C111,-114.894 111,-57.5609 111,-30.8526"/>
<polygon fill="#9a32cd" stroke="#9a32cd" points="107.5,-145.215 111,-155.215 114.5,-145.215 107.5,-145.215"/>
<text text-anchor="middle" x="155" y="-129" font-family="Helvetica,sans-Serif" font-size="10.00"> btnIncrease</text>
<text text-anchor="middle" x="155" y="-118" font-family="Helvetica,sans-Serif" font-size="10.00">components</text>
<text text-anchor="middle" x="155" y="-107" font-family="Helvetica,sans-Serif" font-size="10.00">lblSelectParameter</text>
<text text-anchor="middle" x="155" y="-96" font-family="Helvetica,sans-Serif" font-size="10.00">lblParamNum</text>
<text text-anchor="middle" x="155" y="-85" font-family="Helvetica,sans-Serif" font-size="10.00">btnDecrease</text>
<text text-anchor="middle" x="155" y="-74" font-family="Helvetica,sans-Serif" font-size="10.00">pnlMain</text>
<text text-anchor="middle" x="155" y="-63" font-family="Helvetica,sans-Serif" font-size="10.00">txtValueNum</text>
<text text-anchor="middle" x="155" y="-52" font-family="Helvetica,sans-Serif" font-size="10.00">comboBoxSelection</text>
</g>
<!-- Node4 -->
<g id="node4" class="node"><title>Node4</title>
<g id="a_node4"><a xlink:href="../../d1/d98/interfaceIG_1_1Neural_1_1INeuralModelContainer.html" target="_top" xlink:title="Interface for classes that contain the NeuralModel property that implements the INeuralModel interfac...">
<polygon fill="white" stroke="black" points="154,-155.5 154,-174.5 312,-174.5 312,-155.5 154,-155.5"/>
<text text-anchor="middle" x="233" y="-162.5" font-family="Helvetica,sans-Serif" font-size="10.00">IG.Neural.INeuralModelContainer</text>
</a>
</g>
</g>
<!-- Node4&#45;&gt;Node1 -->
<g id="edge3" class="edge"><title>Node4&#45;&gt;Node1</title>
<path fill="none" stroke="#9a32cd" stroke-dasharray="5,2" d="M233.241,-145.178C232.54,-120.087 227.578,-75.7448 203,-49 195.779,-41.1422 186.54,-35.1836 176.714,-30.6654"/>
<polygon fill="#9a32cd" stroke="#9a32cd" points="229.742,-145.247 233.319,-155.219 236.742,-145.192 229.742,-145.247"/>
<text text-anchor="middle" x="298.5" y="-90.5" font-family="Helvetica,sans-Serif" font-size="10.00"> _neuralModelContainerControl</text>
</g>
</g>
</svg>
