<?xml version="1.0" encoding="UTF-8" standalone="no"?>
<!DOCTYPE svg PUBLIC "-//W3C//DTD SVG 1.1//EN"
 "http://www.w3.org/Graphics/SVG/1.1/DTD/svg11.dtd">
<!-- Generated by graphviz version 2.38.0 (20140413.2041)
 -->
<!-- Title: IGTest.FindingsRtfTest Pages: 1 -->
<svg width="169pt" height="205pt"
 viewBox="0.00 0.00 169.00 205.00" xmlns="http://www.w3.org/2000/svg" xmlns:xlink="http://www.w3.org/1999/xlink">
<g id="graph0" class="graph" transform="scale(1 1) rotate(0) translate(4 201)">
<title>IGTest.FindingsRtfTest</title>
<polygon fill="white" stroke="none" points="-4,4 -4,-201 165,-201 165,4 -4,4"/>
<!-- Node1 -->
<g id="node1" class="node"><title>Node1</title>
<g id="a_node1"><a xlink:title=" ">
<polygon fill="#bfbfbf" stroke="black" points="0,-0.5 0,-19.5 116,-19.5 116,-0.5 0,-0.5"/>
<text text-anchor="middle" x="58" y="-7.5" font-family="Helvetica,sans-Serif" font-size="10.00">IGTest.FindingsRtfTest</text>
</a>
</g>
</g>
<!-- Node2 -->
<g id="node2" class="node"><title>Node2</title>
<g id="a_node2"><a xlink:title=" ">
<polygon fill="white" stroke="#bfbfbf" points="7.5,-177.5 7.5,-196.5 46.5,-196.5 46.5,-177.5 7.5,-177.5"/>
<text text-anchor="middle" x="27" y="-184.5" font-family="Helvetica,sans-Serif" font-size="10.00">Form</text>
</a>
</g>
</g>
<!-- Node2&#45;&gt;Node1 -->
<g id="edge1" class="edge"><title>Node2&#45;&gt;Node1</title>
<path fill="none" stroke="midnightblue" d="M30.3744,-166.951C37.0445,-129.297 51.6842,-46.6537 56.4601,-19.6932"/>
<polygon fill="midnightblue" stroke="midnightblue" points="26.8779,-166.624 28.5799,-177.081 33.7706,-167.845 26.8779,-166.624"/>
</g>
<!-- Node3 -->
<g id="node3" class="node"><title>Node3</title>
<g id="a_node3"><a xlink:title=" ">
<polygon fill="white" stroke="#bfbfbf" points="65,-177.5 65,-196.5 115,-196.5 115,-177.5 65,-177.5"/>
<text text-anchor="middle" x="90" y="-184.5" font-family="Helvetica,sans-Serif" font-size="10.00">System</text>
</a>
</g>
</g>
<!-- Node3&#45;&gt;Node1 -->
<g id="edge2" class="edge"><title>Node3&#45;&gt;Node1</title>
<path fill="none" stroke="#9a32cd" stroke-dasharray="5,2" d="M86.5168,-166.951C79.6315,-129.297 64.5195,-46.6537 59.5896,-19.6932"/>
<polygon fill="#9a32cd" stroke="#9a32cd" points="83.1274,-167.874 88.3691,-177.081 90.0132,-166.615 83.1274,-167.874"/>
<text text-anchor="middle" x="123" y="-151" font-family="Helvetica,sans-Serif" font-size="10.00"> btnImportOutput</text>
<text text-anchor="middle" x="123" y="-140" font-family="Helvetica,sans-Serif" font-size="10.00">btnClose</text>
<text text-anchor="middle" x="123" y="-129" font-family="Helvetica,sans-Serif" font-size="10.00">btnImportInputRtf</text>
<text text-anchor="middle" x="123" y="-118" font-family="Helvetica,sans-Serif" font-size="10.00">lblInputFile</text>
<text text-anchor="middle" x="123" y="-107" font-family="Helvetica,sans-Serif" font-size="10.00">lblMacro</text>
<text text-anchor="middle" x="123" y="-96" font-family="Helvetica,sans-Serif" font-size="10.00">rtMacro</text>
<text text-anchor="middle" x="123" y="-85" font-family="Helvetica,sans-Serif" font-size="10.00">btnSaveOutputRtf</text>
<text text-anchor="middle" x="123" y="-74" font-family="Helvetica,sans-Serif" font-size="10.00">txtInputFile</text>
<text text-anchor="middle" x="123" y="-63" font-family="Helvetica,sans-Serif" font-size="10.00">components</text>
<text text-anchor="middle" x="123" y="-52" font-family="Helvetica,sans-Serif" font-size="10.00">lblOutputFile</text>
<text text-anchor="middle" x="123" y="-41" font-family="Helvetica,sans-Serif" font-size="10.00">...</text>
</g>
</g>
</svg>
