<?xml version="1.0" encoding="UTF-8" standalone="no"?>
<!DOCTYPE svg PUBLIC "-//W3C//DTD SVG 1.1//EN"
 "http://www.w3.org/Graphics/SVG/1.1/DTD/svg11.dtd">
<!-- Generated by graphviz version 2.38.0 (20140413.2041)
 -->
<!-- Title: CShellCore.CodeCompletion.DataItems.CompletionData Pages: 1 -->
<!--zoomable 113 -->
<svg id="main" version="1.1" xmlns="http://www.w3.org/2000/svg" xmlns:xlink="http://www.w3.org/1999/xlink" xml:space="preserve" onload="init(evt)">
<style type="text/css"><![CDATA[
.edge:hover path { stroke: red; }
.edge:hover polygon { stroke: red; fill: red; }
]]></style>
<script type="text/javascript"><![CDATA[
var edges = document.getElementsByTagName('g');
if (edges && edges.length) {
  for (var i=0;i<edges.length;i++) {
    if (edges[i].id.substr(0,4)=='edge') {
      edges[i].setAttribute('class','edge');
    }
  }
}
]]></script>
        <defs>
                <circle id="rim" cx="0" cy="0" r="7"/>
                <circle id="rim2" cx="0" cy="0" r="3.5"/>
                <g id="zoomPlus">
                        <use xlink:href="#rim" fill="#404040">
                                <set attributeName="fill" to="#808080" begin="zoomplus.mouseover" end="zoomplus.mouseout"/>
                        </use>
                        <path d="M-4,0h8M0,-4v8" fill="none" stroke="white" stroke-width="1.5" pointer-events="none"/>
                </g>
                <g id="zoomMin">
                        <use xlink:href="#rim" fill="#404040">
                                <set attributeName="fill" to="#808080" begin="zoomminus.mouseover" end="zoomminus.mouseout"/>
                        </use>
                        <path d="M-4,0h8" fill="none" stroke="white" stroke-width="1.5" pointer-events="none"/>
                </g>
                <g id="dirArrow">
                        <path fill="none" stroke="white" stroke-width="1.5" d="M0,-3.0v7 M-2.5,-0.5L0,-3.0L2.5,-0.5"/>
                </g>
               <g id="resetDef">
                       <use xlink:href="#rim2" fill="#404040">
                               <set attributeName="fill" to="#808080" begin="reset.mouseover" end="reset.mouseout"/>
                       </use>
               </g>
        </defs>

<script type="text/javascript">
var viewWidth = 766;
var viewHeight = 113;
var sectionId = 'dynsection-0';
</script>
<script xlink:href="../../svgpan.js"/>
<svg id="graph" class="graph">
<g id="viewport">
<title>CShellCore.CodeCompletion.DataItems.CompletionData</title>
<polygon fill="white" stroke="none" points="-4,4 -4,-109 762,-109 762,4 -4,4"/>
<!-- Node1 -->
<g id="node1" class="node"><title>Node1</title>
<g id="a_node1"><a xlink:title=" ">
<polygon fill="#bfbfbf" stroke="black" points="207,-24.5 207,-54.5 350,-54.5 350,-24.5 207,-24.5"/>
<text text-anchor="start" x="215" y="-42.5" font-family="Helvetica,sans-Serif" font-size="10.00">CShellCore.CodeCompletion.</text>
<text text-anchor="middle" x="278.5" y="-31.5" font-family="Helvetica,sans-Serif" font-size="10.00">DataItems.CompletionData</text>
</a>
</g>
</g>
<!-- Node4 -->
<g id="node4" class="node"><title>Node4</title>
<g id="a_node4"><a xlink:href="../../db/d44/classCShellCore_1_1CodeCompletion_1_1DataItems_1_1EntityCompletionData.html" target="_top" xlink:title=" ">
<polygon fill="white" stroke="black" points="391,-49.5 391,-79.5 549,-79.5 549,-49.5 391,-49.5"/>
<text text-anchor="start" x="399" y="-67.5" font-family="Helvetica,sans-Serif" font-size="10.00">CShellCore.CodeCompletion.</text>
<text text-anchor="middle" x="470" y="-56.5" font-family="Helvetica,sans-Serif" font-size="10.00">DataItems.EntityCompletionData</text>
</a>
</g>
</g>
<!-- Node1&#45;&gt;Node4 -->
<g id="edge3" class="edge"><title>Node1&#45;&gt;Node4</title>
<path fill="none" stroke="midnightblue" d="M360.116,-50.1354C370.261,-51.4738 380.627,-52.8413 390.735,-54.1748"/>
<polygon fill="midnightblue" stroke="midnightblue" points="360.435,-46.6472 350.063,-48.8091 359.519,-53.587 360.435,-46.6472"/>
</g>
<!-- Node7 -->
<g id="node7" class="node"><title>Node7</title>
<g id="a_node7"><a xlink:title=" ">
<polygon fill="white" stroke="#bfbfbf" points="386,-0.5 386,-30.5 554,-30.5 554,-0.5 386,-0.5"/>
<text text-anchor="start" x="394" y="-18.5" font-family="Helvetica,sans-Serif" font-size="10.00">CShellCore.CodeCompletion.</text>
<text text-anchor="middle" x="470" y="-7.5" font-family="Helvetica,sans-Serif" font-size="10.00">DataItems.VariableCompletionData</text>
</a>
</g>
</g>
<!-- Node1&#45;&gt;Node7 -->
<g id="edge6" class="edge"><title>Node1&#45;&gt;Node7</title>
<path fill="none" stroke="midnightblue" d="M360.026,-29.3015C368.589,-28.2169 377.312,-27.1123 385.904,-26.024"/>
<polygon fill="midnightblue" stroke="midnightblue" points="359.544,-25.8345 350.063,-30.5633 360.423,-32.779 359.544,-25.8345"/>
</g>
<!-- Node2 -->
<g id="node2" class="node"><title>Node2</title>
<g id="a_node2"><a xlink:title=" ">
<polygon fill="white" stroke="#bfbfbf" points="41.5,-52 41.5,-71 129.5,-71 129.5,-52 41.5,-52"/>
<text text-anchor="middle" x="85.5" y="-59" font-family="Helvetica,sans-Serif" font-size="10.00">ICompletionData</text>
</a>
</g>
</g>
<!-- Node2&#45;&gt;Node1 -->
<g id="edge1" class="edge"><title>Node2&#45;&gt;Node1</title>
<path fill="none" stroke="midnightblue" d="M140.052,-55.3317C160.807,-52.9411 184.859,-50.1707 206.987,-47.6219"/>
<polygon fill="midnightblue" stroke="midnightblue" points="139.375,-51.8865 129.841,-56.5079 140.176,-58.8405 139.375,-51.8865"/>
</g>
<!-- Node3 -->
<g id="node3" class="node"><title>Node3</title>
<g id="a_node3"><a xlink:title=" ">
<polygon fill="white" stroke="#bfbfbf" points="0,-2.5 0,-32.5 171,-32.5 171,-2.5 0,-2.5"/>
<text text-anchor="start" x="8" y="-20.5" font-family="Helvetica,sans-Serif" font-size="10.00">ICSharpCode::AvalonEdit</text>
<text text-anchor="middle" x="85.5" y="-9.5" font-family="Helvetica,sans-Serif" font-size="10.00">::CodeCompletion::ICompletionData</text>
</a>
</g>
</g>
<!-- Node3&#45;&gt;Node1 -->
<g id="edge2" class="edge"><title>Node3&#45;&gt;Node1</title>
<path fill="none" stroke="midnightblue" d="M181.25,-28.4137C189.907,-29.4107 198.571,-30.4087 206.959,-31.3749"/>
<polygon fill="midnightblue" stroke="midnightblue" points="181.444,-24.9129 171.109,-27.2456 180.643,-31.867 181.444,-24.9129"/>
</g>
<!-- Node5 -->
<g id="node5" class="node"><title>Node5</title>
<g id="a_node5"><a xlink:href="../../db/d4e/classCShellCore_1_1CodeCompletion_1_1DataItems_1_1ImportCompletionData.html" target="_top" xlink:title="Completion item that introduces a using declaration.">
<polygon fill="white" stroke="black" points="594,-74.5 594,-104.5 754,-104.5 754,-74.5 594,-74.5"/>
<text text-anchor="start" x="602" y="-92.5" font-family="Helvetica,sans-Serif" font-size="10.00">CShellCore.CodeCompletion.</text>
<text text-anchor="middle" x="674" y="-81.5" font-family="Helvetica,sans-Serif" font-size="10.00">DataItems.ImportCompletionData</text>
</a>
</g>
</g>
<!-- Node4&#45;&gt;Node5 -->
<g id="edge4" class="edge"><title>Node4&#45;&gt;Node5</title>
<path fill="none" stroke="midnightblue" d="M559.148,-75.4094C570.668,-76.8352 582.415,-78.289 593.776,-79.695"/>
<polygon fill="midnightblue" stroke="midnightblue" points="559.453,-71.9205 549.098,-74.1657 558.593,-78.8675 559.453,-71.9205"/>
</g>
<!-- Node6 -->
<g id="node6" class="node"><title>Node6</title>
<g id="a_node6"><a xlink:title="Item for &#39;override&#39; completion.">
<polygon fill="white" stroke="#bfbfbf" points="590,-25.5 590,-55.5 758,-55.5 758,-25.5 590,-25.5"/>
<text text-anchor="start" x="598" y="-43.5" font-family="Helvetica,sans-Serif" font-size="10.00">CShellCore.CodeCompletion.</text>
<text text-anchor="middle" x="674" y="-32.5" font-family="Helvetica,sans-Serif" font-size="10.00">DataItems.OverrideCompletionData</text>
</a>
</g>
</g>
<!-- Node4&#45;&gt;Node6 -->
<g id="edge5" class="edge"><title>Node4&#45;&gt;Node6</title>
<path fill="none" stroke="midnightblue" d="M559.18,-54.0232C569.336,-52.8165 579.667,-51.589 589.755,-50.3905"/>
<polygon fill="midnightblue" stroke="midnightblue" points="558.616,-50.5655 549.098,-55.221 559.442,-57.5166 558.616,-50.5655"/>
</g>
</g>
</svg>
        <g id="navigator" transform="translate(0 0)" fill="#404254">
                <rect fill="#f2f5e9" fill-opacity="0.5" stroke="#606060" stroke-width=".5" x="0" y="0" width="60" height="60"/>
                <use id="zoomplus" xlink:href="#zoomPlus" x="17" y="9" onmousedown="handleZoom(evt,'in')"/>
                <use id="zoomminus" xlink:href="#zoomMin" x="42" y="9" onmousedown="handleZoom(evt,'out')"/>
                <use id="reset" xlink:href="#resetDef" x="30" y="36" onmousedown="handleReset()"/>
                <g id="arrowUp" xlink:href="#dirArrow" transform="translate(30 24)" onmousedown="handlePan(0,-1)">
                  <use xlink:href="#rim" fill="#404040">
                        <set attributeName="fill" to="#808080" begin="arrowUp.mouseover" end="arrowUp.mouseout"/>
                  </use>
                  <path fill="none" stroke="white" stroke-width="1.5" d="M0,-3.0v7 M-2.5,-0.5L0,-3.0L2.5,-0.5"/>
                </g>
                <g id="arrowRight" xlink:href="#dirArrow" transform="rotate(90) translate(36 -43)" onmousedown="handlePan(1,0)">
                  <use xlink:href="#rim" fill="#404040">
                        <set attributeName="fill" to="#808080" begin="arrowRight.mouseover" end="arrowRight.mouseout"/>
                  </use>
                  <path fill="none" stroke="white" stroke-width="1.5" d="M0,-3.0v7 M-2.5,-0.5L0,-3.0L2.5,-0.5"/>
                </g>
                <g id="arrowDown" xlink:href="#dirArrow" transform="rotate(180) translate(-30 -48)" onmousedown="handlePan(0,1)">
                  <use xlink:href="#rim" fill="#404040">
                        <set attributeName="fill" to="#808080" begin="arrowDown.mouseover" end="arrowDown.mouseout"/>
                  </use>
                  <path fill="none" stroke="white" stroke-width="1.5" d="M0,-3.0v7 M-2.5,-0.5L0,-3.0L2.5,-0.5"/>
                </g>
                <g id="arrowLeft" xlink:href="#dirArrow" transform="rotate(270) translate(-36 17)" onmousedown="handlePan(-1,0)">
                  <use xlink:href="#rim" fill="#404040">
                        <set attributeName="fill" to="#808080" begin="arrowLeft.mouseover" end="arrowLeft.mouseout"/>
                  </use>
                  <path fill="none" stroke="white" stroke-width="1.5" d="M0,-3.0v7 M-2.5,-0.5L0,-3.0L2.5,-0.5"/>
                </g>
        </g>
        <svg viewBox="0 0 15 15" width="100%" height="30px" preserveAspectRatio="xMaxYMin meet">
         <g id="arrow_out" transform="scale(0.3 0.3)">
          <a xlink:href="classCShellCore_1_1CodeCompletion_1_1DataItems_1_1CompletionData__inherit__graph_org.svg" target="_base">
           <rect id="button" ry="5" rx="5" y="6" x="6" height="38" width="38"
                fill="#f2f5e9" fill-opacity="0.5" stroke="#606060" stroke-width="1.0"/>
           <path id="arrow"
             d="M 11.500037,31.436501 C 11.940474,20.09759 22.043105,11.32322 32.158766,21.979434 L 37.068811,17.246167 C 37.068811,17.246167 37.088388,32 37.088388,32 L 22.160133,31.978069 C 22.160133,31.978069 26.997745,27.140456 26.997745,27.140456 C 18.528582,18.264221 13.291696,25.230495 11.500037,31.436501 z"
             style="fill:#404040;"/>
          </a>
         </g>
        </svg>
</svg>
