<?xml version="1.0" encoding="UTF-8" standalone="no"?>
<!DOCTYPE svg PUBLIC "-//W3C//DTD SVG 1.1//EN"
 "http://www.w3.org/Graphics/SVG/1.1/DTD/svg11.dtd">
<!-- Generated by graphviz version 2.38.0 (20140413.2041)
 -->
<!-- Title: CShell.Modules.Workspace.ViewModels.WorkspaceViewModel Pages: 1 -->
<svg width="427pt" height="218pt"
 viewBox="0.00 0.00 426.50 218.00" xmlns="http://www.w3.org/2000/svg" xmlns:xlink="http://www.w3.org/1999/xlink">
<g id="graph0" class="graph" transform="scale(1 1) rotate(0) translate(4 214)">
<title>CShell.Modules.Workspace.ViewModels.WorkspaceViewModel</title>
<polygon fill="white" stroke="none" points="-4,4 -4,-214 422.5,-214 422.5,4 -4,4"/>
<!-- Node1 -->
<g id="node1" class="node"><title>Node1</title>
<g id="a_node1"><a xlink:title=" ">
<polygon fill="#bfbfbf" stroke="black" points="105,-0.5 105,-30.5 274,-30.5 274,-0.5 105,-0.5"/>
<text text-anchor="start" x="113" y="-18.5" font-family="Helvetica,sans-Serif" font-size="10.00">CShell.Modules.Workspace.</text>
<text text-anchor="middle" x="189.5" y="-7.5" font-family="Helvetica,sans-Serif" font-size="10.00">ViewModels.WorkspaceViewModel</text>
</a>
</g>
</g>
<!-- Node2 -->
<g id="node2" class="node"><title>Node2</title>
<g id="a_node2"><a xlink:href="../../da/d37/classCShell_1_1Framework_1_1Tool.html" target="_top" xlink:title=" ">
<polygon fill="white" stroke="black" points="66,-73 66,-92 101,-92 101,-73 66,-73"/>
<text text-anchor="middle" x="83.5" y="-80" font-family="Helvetica,sans-Serif" font-size="10.00">Tool</text>
</a>
</g>
</g>
<!-- Node2&#45;&gt;Node1 -->
<g id="edge1" class="edge"><title>Node2&#45;&gt;Node1</title>
<path fill="none" stroke="midnightblue" d="M106.406,-67.4538C124.187,-56.5506 148.726,-41.503 166.524,-30.589"/>
<polygon fill="midnightblue" stroke="midnightblue" points="104.491,-64.5226 97.7956,-72.7338 108.15,-70.49 104.491,-64.5226"/>
</g>
<!-- Node3 -->
<g id="node3" class="node"><title>Node3</title>
<g id="a_node3"><a xlink:href="../../d5/d57/classCShell_1_1Framework_1_1LayoutItemBase.html" target="_top" xlink:title=" ">
<polygon fill="white" stroke="black" points="0,-134.5 0,-153.5 87,-153.5 87,-134.5 0,-134.5"/>
<text text-anchor="middle" x="43.5" y="-141.5" font-family="Helvetica,sans-Serif" font-size="10.00">LayoutItemBase</text>
</a>
</g>
</g>
<!-- Node3&#45;&gt;Node2 -->
<g id="edge2" class="edge"><title>Node3&#45;&gt;Node2</title>
<path fill="none" stroke="midnightblue" d="M54.9252,-126.005C62.3989,-114.888 71.8432,-100.84 77.7796,-92.0091"/>
<polygon fill="midnightblue" stroke="midnightblue" points="51.9056,-124.223 49.231,-134.475 57.7149,-128.129 51.9056,-124.223"/>
</g>
<!-- Node4 -->
<g id="node4" class="node"><title>Node4</title>
<g id="a_node4"><a xlink:title=" ">
<polygon fill="white" stroke="#bfbfbf" points="20,-190.5 20,-209.5 67,-209.5 67,-190.5 20,-190.5"/>
<text text-anchor="middle" x="43.5" y="-197.5" font-family="Helvetica,sans-Serif" font-size="10.00">Screen</text>
</a>
</g>
</g>
<!-- Node4&#45;&gt;Node3 -->
<g id="edge3" class="edge"><title>Node4&#45;&gt;Node3</title>
<path fill="none" stroke="midnightblue" d="M43.5,-179.805C43.5,-170.91 43.5,-160.78 43.5,-153.751"/>
<polygon fill="midnightblue" stroke="midnightblue" points="40.0001,-180.083 43.5,-190.083 47.0001,-180.083 40.0001,-180.083"/>
</g>
<!-- Node5 -->
<g id="node5" class="node"><title>Node5</title>
<g id="a_node5"><a xlink:href="../../d0/df2/interfaceCShell_1_1Framework_1_1ITool.html" target="_top" xlink:title=" ">
<polygon fill="white" stroke="black" points="105,-134.5 105,-153.5 142,-153.5 142,-134.5 105,-134.5"/>
<text text-anchor="middle" x="123.5" y="-141.5" font-family="Helvetica,sans-Serif" font-size="10.00">ITool</text>
</a>
</g>
</g>
<!-- Node5&#45;&gt;Node2 -->
<g id="edge4" class="edge"><title>Node5&#45;&gt;Node2</title>
<path fill="none" stroke="midnightblue" d="M112.075,-126.005C104.601,-114.888 95.1568,-100.84 89.2204,-92.0091"/>
<polygon fill="midnightblue" stroke="midnightblue" points="109.285,-128.129 117.769,-134.475 115.094,-124.223 109.285,-128.129"/>
</g>
<!-- Node6 -->
<g id="node6" class="node"><title>Node6</title>
<g id="a_node6"><a xlink:title=" ">
<polygon fill="white" stroke="#bfbfbf" points="98.5,-190.5 98.5,-209.5 148.5,-209.5 148.5,-190.5 98.5,-190.5"/>
<text text-anchor="middle" x="123.5" y="-197.5" font-family="Helvetica,sans-Serif" font-size="10.00">IScreen</text>
</a>
</g>
</g>
<!-- Node6&#45;&gt;Node5 -->
<g id="edge5" class="edge"><title>Node6&#45;&gt;Node5</title>
<path fill="none" stroke="midnightblue" d="M123.5,-179.805C123.5,-170.91 123.5,-160.78 123.5,-153.751"/>
<polygon fill="midnightblue" stroke="midnightblue" points="120,-180.083 123.5,-190.083 127,-180.083 120,-180.083"/>
</g>
<!-- Node7 -->
<g id="node7" class="node"><title>Node7</title>
<g id="a_node7"><a xlink:title=" ">
<polygon fill="white" stroke="#bfbfbf" points="119,-67.5 119,-97.5 260,-97.5 260,-67.5 119,-67.5"/>
<text text-anchor="start" x="127" y="-85.5" font-family="Helvetica,sans-Serif" font-size="10.00">IHandle&lt; WorkspaceOpened</text>
<text text-anchor="middle" x="189.5" y="-74.5" font-family="Helvetica,sans-Serif" font-size="10.00">EventArgs &gt;</text>
</a>
</g>
</g>
<!-- Node7&#45;&gt;Node1 -->
<g id="edge6" class="edge"><title>Node7&#45;&gt;Node1</title>
<path fill="none" stroke="midnightblue" d="M189.5,-57.1081C189.5,-48.1539 189.5,-38.3227 189.5,-30.5765"/>
<polygon fill="midnightblue" stroke="midnightblue" points="186,-57.3959 189.5,-67.396 193,-57.396 186,-57.3959"/>
</g>
<!-- Node8 -->
<g id="node8" class="node"><title>Node8</title>
<g id="a_node8"><a xlink:title=" ">
<polygon fill="white" stroke="#bfbfbf" points="278.5,-67.5 278.5,-97.5 418.5,-97.5 418.5,-67.5 278.5,-67.5"/>
<text text-anchor="start" x="286.5" y="-85.5" font-family="Helvetica,sans-Serif" font-size="10.00">IHandle&lt; WorkspaceClosing</text>
<text text-anchor="middle" x="348.5" y="-74.5" font-family="Helvetica,sans-Serif" font-size="10.00">EventArgs &gt;</text>
</a>
</g>
</g>
<!-- Node8&#45;&gt;Node1 -->
<g id="edge7" class="edge"><title>Node8&#45;&gt;Node1</title>
<path fill="none" stroke="midnightblue" d="M304.577,-63.5442C279.134,-53.143 247.567,-40.238 223.933,-30.5765"/>
<polygon fill="midnightblue" stroke="midnightblue" points="303.419,-66.8516 313.999,-67.396 306.067,-60.3721 303.419,-66.8516"/>
</g>
</g>
</svg>
