<?xml version="1.0" encoding="UTF-8" standalone="no"?>
<!DOCTYPE svg PUBLIC "-//W3C//DTD SVG 1.1//EN"
 "http://www.w3.org/Graphics/SVG/1.1/DTD/svg11.dtd">
<!-- Generated by graphviz version 2.38.0 (20140413.2041)
 -->
<!-- Title: IG.Script.AppTestShellExt Pages: 1 -->
<!--zoomable 732 -->
<svg id="main" version="1.1" xmlns="http://www.w3.org/2000/svg" xmlns:xlink="http://www.w3.org/1999/xlink" xml:space="preserve" onload="init(evt)">
<style type="text/css"><![CDATA[
.edge:hover path { stroke: red; }
.edge:hover polygon { stroke: red; fill: red; }
]]></style>
<script type="text/javascript"><![CDATA[
var edges = document.getElementsByTagName('g');
if (edges && edges.length) {
  for (var i=0;i<edges.length;i++) {
    if (edges[i].id.substr(0,4)=='edge') {
      edges[i].setAttribute('class','edge');
    }
  }
}
]]></script>
        <defs>
                <circle id="rim" cx="0" cy="0" r="7"/>
                <circle id="rim2" cx="0" cy="0" r="3.5"/>
                <g id="zoomPlus">
                        <use xlink:href="#rim" fill="#404040">
                                <set attributeName="fill" to="#808080" begin="zoomplus.mouseover" end="zoomplus.mouseout"/>
                        </use>
                        <path d="M-4,0h8M0,-4v8" fill="none" stroke="white" stroke-width="1.5" pointer-events="none"/>
                </g>
                <g id="zoomMin">
                        <use xlink:href="#rim" fill="#404040">
                                <set attributeName="fill" to="#808080" begin="zoomminus.mouseover" end="zoomminus.mouseout"/>
                        </use>
                        <path d="M-4,0h8" fill="none" stroke="white" stroke-width="1.5" pointer-events="none"/>
                </g>
                <g id="dirArrow">
                        <path fill="none" stroke="white" stroke-width="1.5" d="M0,-3.0v7 M-2.5,-0.5L0,-3.0L2.5,-0.5"/>
                </g>
               <g id="resetDef">
                       <use xlink:href="#rim2" fill="#404040">
                               <set attributeName="fill" to="#808080" begin="reset.mouseover" end="reset.mouseout"/>
                       </use>
               </g>
        </defs>

<script type="text/javascript">
var viewWidth = 1317;
var viewHeight = 732;
var sectionId = 'dynsection-1';
</script>
<script xlink:href="../../svgpan.js"/>
<svg id="graph" class="graph">
<g id="viewport">
<title>IG.Script.AppTestShellExt</title>
<polygon fill="white" stroke="none" points="-4,4 -4,-728 1313,-728 1313,4 -4,4"/>
<!-- Node1 -->
<g id="node1" class="node"><title>Node1</title>
<g id="a_node1"><a xlink:title="Internal script for running embedded applications.">
<polygon fill="#bfbfbf" stroke="black" points="1064.5,-0.5 1064.5,-19.5 1195.5,-19.5 1195.5,-0.5 1064.5,-0.5"/>
<text text-anchor="middle" x="1130" y="-7.5" font-family="Helvetica,sans-Serif" font-size="10.00">IG.Script.AppTestShellExt</text>
</a>
</g>
</g>
<!-- Node2 -->
<g id="node2" class="node"><title>Node2</title>
<g id="a_node2"><a xlink:href="../../d2/df3/classIG_1_1Script_1_1AppTestShell.html" target="_top" xlink:title="Internal script for running embedded applications.">
<polygon fill="white" stroke="black" points="1033,-57.5 1033,-76.5 1107,-76.5 1107,-57.5 1033,-57.5"/>
<text text-anchor="middle" x="1070" y="-64.5" font-family="Helvetica,sans-Serif" font-size="10.00">AppTestShell</text>
</a>
</g>
</g>
<!-- Node2&#45;&gt;Node1 -->
<g id="edge1" class="edge"><title>Node2&#45;&gt;Node1</title>
<path fill="none" stroke="midnightblue" d="M1087,-50.4162C1097.85,-40.469 1111.52,-27.9431 1120.49,-19.7149"/>
<polygon fill="midnightblue" stroke="midnightblue" points="1084.38,-48.0689 1079.38,-57.4063 1089.11,-53.229 1084.38,-48.0689"/>
</g>
<!-- Node3 -->
<g id="node3" class="node"><title>Node3</title>
<g id="a_node3"><a xlink:href="../../d0/dec/classIG_1_1Script_1_1AppExtBase.html" target="_top" xlink:title="Internal script for running embedded applications.">
<polygon fill="white" stroke="black" points="1034.5,-114.5 1034.5,-133.5 1105.5,-133.5 1105.5,-114.5 1034.5,-114.5"/>
<text text-anchor="middle" x="1070" y="-121.5" font-family="Helvetica,sans-Serif" font-size="10.00">AppExtBase</text>
</a>
</g>
</g>
<!-- Node3&#45;&gt;Node2 -->
<g id="edge2" class="edge"><title>Node3&#45;&gt;Node2</title>
<path fill="none" stroke="midnightblue" d="M1070,-104.117C1070,-94.8173 1070,-84.0557 1070,-76.7149"/>
<polygon fill="midnightblue" stroke="midnightblue" points="1066.5,-104.406 1070,-114.406 1073.5,-104.406 1066.5,-104.406"/>
</g>
<!-- Node4 -->
<g id="node4" class="node"><title>Node4</title>
<g id="a_node4"><a xlink:href="../../d5/d63/classIG_1_1Script_1_1AppBase.html" target="_top" xlink:title="Base cls. for application scripts that can also be used on its own.">
<polygon fill="white" stroke="black" points="1186,-181.5 1186,-200.5 1242,-200.5 1242,-181.5 1186,-181.5"/>
<text text-anchor="middle" x="1214" y="-188.5" font-family="Helvetica,sans-Serif" font-size="10.00">AppBase</text>
</a>
</g>
</g>
<!-- Node4&#45;&gt;Node3 -->
<g id="edge3" class="edge"><title>Node4&#45;&gt;Node3</title>
<path fill="none" stroke="midnightblue" d="M1185.45,-177.113C1156.93,-164.239 1113.88,-144.806 1089.2,-133.667"/>
<polygon fill="midnightblue" stroke="midnightblue" points="1184.32,-180.444 1194.88,-181.369 1187.2,-174.064 1184.32,-180.444"/>
</g>
<!-- Node5 -->
<g id="node5" class="node"><title>Node5</title>
<g id="a_node5"><a xlink:href="../../db/da4/classIG_1_1Script_1_1ScriptAppBase.html" target="_top" xlink:title="Partial class definition containing tests of CSV utilities.">
<polygon fill="white" stroke="black" points="1227,-248.5 1227,-267.5 1309,-267.5 1309,-248.5 1227,-248.5"/>
<text text-anchor="middle" x="1268" y="-255.5" font-family="Helvetica,sans-Serif" font-size="10.00">ScriptAppBase</text>
</a>
</g>
</g>
<!-- Node5&#45;&gt;Node4 -->
<g id="edge4" class="edge"><title>Node5&#45;&gt;Node4</title>
<path fill="none" stroke="midnightblue" d="M1254.1,-240.27C1243.57,-227.597 1229.54,-210.701 1221.17,-200.627"/>
<polygon fill="midnightblue" stroke="midnightblue" points="1251.63,-242.778 1260.72,-248.234 1257.02,-238.305 1251.63,-242.778"/>
</g>
<!-- Node6 -->
<g id="node6" class="node"><title>Node6</title>
<g id="a_node6"><a xlink:href="../../d7/d66/interfaceIG_1_1Lib_1_1ILoadableScript.html" target="_top" xlink:title="Interface for classes that can be dynamically loadeded from scripts and run, which provides functiona...">
<polygon fill="white" stroke="black" points="1125.5,-248.5 1125.5,-267.5 1208.5,-267.5 1208.5,-248.5 1125.5,-248.5"/>
<text text-anchor="middle" x="1167" y="-255.5" font-family="Helvetica,sans-Serif" font-size="10.00">ILoadableScript</text>
</a>
</g>
</g>
<!-- Node6&#45;&gt;Node1 -->
<g id="edge35" class="edge"><title>Node6&#45;&gt;Node1</title>
<path fill="none" stroke="midnightblue" d="M1163.01,-238.229C1160.6,-225.298 1158,-207.684 1158,-192 1158,-192 1158,-192 1158,-66 1158,-47.9992 1145.94,-29.9379 1137.65,-19.6478"/>
<polygon fill="midnightblue" stroke="midnightblue" points="1159.61,-239.1 1165,-248.222 1166.48,-237.73 1159.61,-239.1"/>
</g>
<!-- Node6&#45;&gt;Node2 -->
<g id="edge34" class="edge"><title>Node6&#45;&gt;Node2</title>
<path fill="none" stroke="midnightblue" d="M1119.21,-246.084C1072.18,-234.721 1004.28,-216.457 982,-201 964.543,-188.892 959.803,-183.127 953,-163 938.003,-118.63 1001.18,-89.8626 1040.54,-76.5712"/>
<polygon fill="midnightblue" stroke="midnightblue" points="1118.66,-249.551 1129.2,-248.47 1120.28,-242.742 1118.66,-249.551"/>
</g>
<!-- Node6&#45;&gt;Node3 -->
<g id="edge6" class="edge"><title>Node6&#45;&gt;Node3</title>
<path fill="none" stroke="midnightblue" d="M1152.4,-240.346C1149.56,-236.968 1146.64,-233.406 1144,-230 1117.07,-195.286 1087.77,-151.82 1075.69,-133.629"/>
<polygon fill="midnightblue" stroke="midnightblue" points="1149.95,-242.865 1159.12,-248.171 1155.26,-238.304 1149.95,-242.865"/>
</g>
<!-- Node6&#45;&gt;Node4 -->
<g id="edge5" class="edge"><title>Node6&#45;&gt;Node4</title>
<path fill="none" stroke="midnightblue" d="M1179.36,-239.904C1188.49,-227.273 1200.55,-210.604 1207.76,-200.627"/>
<polygon fill="midnightblue" stroke="midnightblue" points="1176.36,-238.079 1173.34,-248.234 1182.03,-242.181 1176.36,-238.079"/>
</g>
<!-- Node7 -->
<g id="node7" class="node"><title>Node7</title>
<g id="a_node7"><a xlink:href="../../d4/d4e/classIG_1_1Forms_1_1HashAllForm.html" target="_top" xlink:title=" ">
<polygon fill="white" stroke="black" points="790,-181.5 790,-200.5 906,-200.5 906,-181.5 790,-181.5"/>
<text text-anchor="middle" x="848" y="-188.5" font-family="Helvetica,sans-Serif" font-size="10.00">IG.Forms.HashAllForm</text>
</a>
</g>
</g>
<!-- Node7&#45;&gt;Node3 -->
<g id="edge7" class="edge"><title>Node7&#45;&gt;Node3</title>
<path fill="none" stroke="#9a32cd" stroke-dasharray="5,2" d="M885.48,-178.353C910.274,-170.711 943.523,-160.582 973,-152 994.819,-145.648 1019.49,-138.785 1038.49,-133.567"/>
<polygon fill="#9a32cd" stroke="#9a32cd" points="884.268,-175.064 875.746,-181.36 886.334,-181.753 884.268,-175.064"/>
<text text-anchor="middle" x="1002" y="-155" font-family="Helvetica,sans-Serif" font-size="10.00"> hashAllForm</text>
</g>
<!-- Node8 -->
<g id="node8" class="node"><title>Node8</title>
<g id="a_node8"><a xlink:title=" ">
<polygon fill="white" stroke="#bfbfbf" points="1021.5,-704.5 1021.5,-723.5 1060.5,-723.5 1060.5,-704.5 1021.5,-704.5"/>
<text text-anchor="middle" x="1041" y="-711.5" font-family="Helvetica,sans-Serif" font-size="10.00">Form</text>
</a>
</g>
</g>
<!-- Node8&#45;&gt;Node7 -->
<g id="edge8" class="edge"><title>Node8&#45;&gt;Node7</title>
<path fill="none" stroke="midnightblue" d="M1055.92,-696.36C1058.25,-693.099 1060.41,-689.575 1062,-686 1098.35,-604.122 1097,-577.083 1097,-487.5 1097,-487.5 1097,-487.5 1097,-290.5 1097,-270.613 1097.64,-261.458 1083,-248 1079.33,-244.625 951.325,-215.338 885.816,-200.517"/>
<polygon fill="midnightblue" stroke="midnightblue" points="1053.13,-694.243 1049.61,-704.236 1058.59,-698.619 1053.13,-694.243"/>
</g>
<!-- Node15 -->
<g id="node15" class="node"><title>Node15</title>
<g id="a_node15"><a xlink:href="../../da/df7/classIG_1_1Forms_1_1HashAboutForm.html" target="_top" xlink:title=" ">
<polygon fill="white" stroke="black" points="538.5,-477 538.5,-496 669.5,-496 669.5,-477 538.5,-477"/>
<text text-anchor="middle" x="604" y="-484" font-family="Helvetica,sans-Serif" font-size="10.00">IG.Forms.HashAboutForm</text>
</a>
</g>
</g>
<!-- Node8&#45;&gt;Node15 -->
<g id="edge18" class="edge"><title>Node8&#45;&gt;Node15</title>
<path fill="none" stroke="midnightblue" d="M1011.11,-712.155C937.759,-709.834 753.212,-702.416 731,-686 684.34,-651.516 714.12,-613.318 682,-565 662.872,-536.226 631.8,-509.398 615.236,-496.149"/>
<polygon fill="midnightblue" stroke="midnightblue" points="1011.39,-715.665 1021.49,-712.472 1011.6,-708.668 1011.39,-715.665"/>
</g>
<!-- Node17 -->
<g id="node17" class="node"><title>Node17</title>
<g id="a_node17"><a xlink:href="../../df/d8d/classIG_1_1Forms_1_1HashForm.html" target="_top" xlink:title="A window form to calculate various checksums of selected files or inserted text.">
<polygon fill="white" stroke="black" points="868.5,-248.5 868.5,-267.5 973.5,-267.5 973.5,-248.5 868.5,-248.5"/>
<text text-anchor="middle" x="921" y="-255.5" font-family="Helvetica,sans-Serif" font-size="10.00">IG.Forms.HashForm</text>
</a>
</g>
</g>
<!-- Node8&#45;&gt;Node17 -->
<g id="edge27" class="edge"><title>Node8&#45;&gt;Node17</title>
<path fill="none" stroke="midnightblue" d="M1043.78,-694.098C1049.93,-647.289 1061.85,-522.775 1031,-426 1009.28,-357.861 951.286,-291.247 929.463,-267.825"/>
<polygon fill="midnightblue" stroke="midnightblue" points="1040.28,-693.873 1042.37,-704.26 1047.21,-694.836 1040.28,-693.873"/>
</g>
<!-- Node18 -->
<g id="node18" class="node"><title>Node18</title>
<g id="a_node18"><a xlink:href="../../de/d7e/classIG_1_1Forms_1_1HashDirForm.html" target="_top" xlink:title=" ">
<polygon fill="white" stroke="black" points="904.5,-477 904.5,-496 1021.5,-496 1021.5,-477 904.5,-477"/>
<text text-anchor="middle" x="963" y="-484" font-family="Helvetica,sans-Serif" font-size="10.00">IG.Forms.HashDirForm</text>
</a>
</g>
</g>
<!-- Node8&#45;&gt;Node18 -->
<g id="edge31" class="edge"><title>Node8&#45;&gt;Node18</title>
<path fill="none" stroke="midnightblue" d="M1034.74,-694.893C1018.85,-648.951 977.409,-529.157 965.965,-496.073"/>
<polygon fill="midnightblue" stroke="midnightblue" points="1031.46,-696.129 1038.04,-704.435 1038.08,-693.841 1031.46,-696.129"/>
</g>
<!-- Node9 -->
<g id="node9" class="node"><title>Node9</title>
<g id="a_node9"><a xlink:href="../../dd/d24/classIG_1_1Forms_1_1HashAllControl.html" target="_top" xlink:title=" ">
<polygon fill="white" stroke="black" points="311.5,-248.5 311.5,-267.5 436.5,-267.5 436.5,-248.5 311.5,-248.5"/>
<text text-anchor="middle" x="374" y="-255.5" font-family="Helvetica,sans-Serif" font-size="10.00">IG.Forms.HashAllControl</text>
</a>
</g>
</g>
<!-- Node9&#45;&gt;Node7 -->
<g id="edge9" class="edge"><title>Node9&#45;&gt;Node7</title>
<path fill="none" stroke="#9a32cd" stroke-dasharray="5,2" d="M446.472,-247.062C540.669,-234.145 703.316,-211.841 789.872,-199.971"/>
<polygon fill="#9a32cd" stroke="#9a32cd" points="445.886,-243.609 436.455,-248.436 446.837,-250.544 445.886,-243.609"/>
<text text-anchor="middle" x="676" y="-222" font-family="Helvetica,sans-Serif" font-size="10.00"> hashAllControl1</text>
</g>
<!-- Node10 -->
<g id="node10" class="node"><title>Node10</title>
<g id="a_node10"><a xlink:title=" ">
<polygon fill="white" stroke="#bfbfbf" points="0,-704.5 0,-723.5 68,-723.5 68,-704.5 0,-704.5"/>
<text text-anchor="middle" x="34" y="-711.5" font-family="Helvetica,sans-Serif" font-size="10.00">UserControl</text>
</a>
</g>
</g>
<!-- Node10&#45;&gt;Node9 -->
<g id="edge10" class="edge"><title>Node10&#45;&gt;Node9</title>
<path fill="none" stroke="midnightblue" d="M27.0004,-694.606C26.1721,-691.762 25.4591,-688.829 25,-686 6.49005,-571.937 -6.51324,-537.176 25,-426 35.394,-389.331 39.8703,-376.342 70,-353 141.293,-297.768 245.283,-274.753 311.277,-265.326"/>
<polygon fill="midnightblue" stroke="midnightblue" points="23.7242,-695.843 30.2598,-704.182 30.3508,-693.588 23.7242,-695.843"/>
</g>
<!-- Node11 -->
<g id="node11" class="node"><title>Node11</title>
<g id="a_node11"><a xlink:href="../../d7/d96/classIG_1_1Forms_1_1HashControl.html" target="_top" xlink:title="A control used to calculate various checksums of selected files or inserted text.">
<polygon fill="white" stroke="black" points="317.5,-315.5 317.5,-334.5 430.5,-334.5 430.5,-315.5 317.5,-315.5"/>
<text text-anchor="middle" x="374" y="-322.5" font-family="Helvetica,sans-Serif" font-size="10.00">IG.Forms.HashControl</text>
</a>
</g>
</g>
<!-- Node10&#45;&gt;Node11 -->
<g id="edge12" class="edge"><title>Node10&#45;&gt;Node11</title>
<path fill="none" stroke="midnightblue" d="M31.176,-694.056C22.8483,-630.018 6.02507,-421.783 127,-353 158.453,-335.117 254.743,-329.077 317.393,-327.038"/>
<polygon fill="midnightblue" stroke="midnightblue" points="27.7522,-694.847 32.597,-704.269 34.6855,-693.882 27.7522,-694.847"/>
</g>
<!-- Node12 -->
<g id="node12" class="node"><title>Node12</title>
<g id="a_node12"><a xlink:href="../../de/d72/classIG_1_1Forms_1_1IndicatorLight.html" target="_top" xlink:title=" ">
<polygon fill="white" stroke="black" points="81,-477 81,-496 199,-496 199,-477 81,-477"/>
<text text-anchor="middle" x="140" y="-484" font-family="Helvetica,sans-Serif" font-size="10.00">IG.Forms.IndicatorLight</text>
</a>
</g>
</g>
<!-- Node10&#45;&gt;Node12 -->
<g id="edge14" class="edge"><title>Node10&#45;&gt;Node12</title>
<path fill="none" stroke="midnightblue" d="M51.5841,-697.12C54.7002,-693.685 57.6842,-689.904 60,-686 88.7585,-637.521 76.0255,-616.908 98,-565 108.978,-539.069 125.872,-510.377 134.507,-496.289"/>
<polygon fill="midnightblue" stroke="midnightblue" points="48.9057,-694.849 44.3255,-704.403 53.8637,-699.791 48.9057,-694.849"/>
</g>
<!-- Node11&#45;&gt;Node9 -->
<g id="edge11" class="edge"><title>Node11&#45;&gt;Node9</title>
<path fill="none" stroke="#9a32cd" stroke-dasharray="5,2" d="M374,-305.037C374,-292.67 374,-277.12 374,-267.627"/>
<polygon fill="#9a32cd" stroke="#9a32cd" points="370.5,-305.234 374,-315.234 377.5,-305.234 370.5,-305.234"/>
<text text-anchor="middle" x="404.5" y="-289" font-family="Helvetica,sans-Serif" font-size="10.00"> hashControl1</text>
</g>
<!-- Node11&#45;&gt;Node17 -->
<g id="edge28" class="edge"><title>Node11&#45;&gt;Node17</title>
<path fill="none" stroke="#9a32cd" stroke-dasharray="5,2" d="M440.717,-316.072C550.724,-303 767.945,-277.188 868.118,-265.284"/>
<polygon fill="#9a32cd" stroke="#9a32cd" points="440.251,-312.603 430.734,-317.258 441.077,-319.554 440.251,-312.603"/>
<text text-anchor="middle" x="732.5" y="-289" font-family="Helvetica,sans-Serif" font-size="10.00"> hashGeneratorControl1</text>
</g>
<!-- Node12&#45;&gt;Node11 -->
<g id="edge13" class="edge"><title>Node12&#45;&gt;Node11</title>
<path fill="none" stroke="#9a32cd" stroke-dasharray="5,2" d="M135.255,-467.018C129.131,-438.387 122.473,-383.447 152,-353 174.198,-330.11 259.298,-325.478 317.447,-325.098"/>
<polygon fill="#9a32cd" stroke="#9a32cd" points="131.885,-467.976 137.58,-476.91 138.699,-466.374 131.885,-467.976"/>
<text text-anchor="middle" x="185.5" y="-378" font-family="Helvetica,sans-Serif" font-size="10.00"> indicatorLight1</text>
</g>
<!-- Node13 -->
<g id="node13" class="node"><title>Node13</title>
<g id="a_node13"><a xlink:title=" ">
<polygon fill="white" stroke="#bfbfbf" points="667,-704.5 667,-723.5 717,-723.5 717,-704.5 667,-704.5"/>
<text text-anchor="middle" x="692" y="-711.5" font-family="Helvetica,sans-Serif" font-size="10.00">System</text>
</a>
</g>
</g>
<!-- Node13&#45;&gt;Node7 -->
<g id="edge25" class="edge"><title>Node13&#45;&gt;Node7</title>
<path fill="none" stroke="#9a32cd" stroke-dasharray="5,2" d="M727.484,-710.556C762.227,-707.355 811.685,-700.363 824,-686 840.453,-666.811 846.945,-264.876 847.879,-200.627"/>
<polygon fill="#9a32cd" stroke="#9a32cd" points="726.898,-707.094 717.232,-711.432 727.493,-714.068 726.898,-707.094"/>
<text text-anchor="middle" x="874.5" y="-322.5" font-family="Helvetica,sans-Serif" font-size="10.00"> components</text>
</g>
<!-- Node13&#45;&gt;Node9 -->
<g id="edge23" class="edge"><title>Node13&#45;&gt;Node9</title>
<path fill="none" stroke="#9a32cd" stroke-dasharray="5,2" d="M693.252,-694.119C696.654,-637.756 704.157,-471.801 678,-426 622.156,-328.217 485.687,-284.18 416.178,-267.545"/>
<polygon fill="#9a32cd" stroke="#9a32cd" points="689.74,-694.198 692.601,-704.399 696.726,-694.64 689.74,-694.198"/>
<text text-anchor="middle" x="697.5" y="-400" font-family="Helvetica,sans-Serif" font-size="10.00"> tabPageAbout</text>
<text text-anchor="middle" x="697.5" y="-389" font-family="Helvetica,sans-Serif" font-size="10.00">tabControl1</text>
<text text-anchor="middle" x="697.5" y="-378" font-family="Helvetica,sans-Serif" font-size="10.00">components</text>
<text text-anchor="middle" x="697.5" y="-367" font-family="Helvetica,sans-Serif" font-size="10.00">tabPageDir</text>
<text text-anchor="middle" x="697.5" y="-356" font-family="Helvetica,sans-Serif" font-size="10.00">tabPageHash</text>
</g>
<!-- Node13&#45;&gt;Node11 -->
<g id="edge21" class="edge"><title>Node13&#45;&gt;Node11</title>
<path fill="none" stroke="#9a32cd" stroke-dasharray="5,2" d="M656.847,-710.032C635.395,-706.804 608.289,-700.066 588,-686 533.99,-648.555 557.615,-601.557 503,-565 472.714,-544.728 448.73,-572.81 423,-547 415.197,-539.172 383.259,-374.387 375.638,-334.593"/>
<polygon fill="#9a32cd" stroke="#9a32cd" points="656.498,-713.517 666.87,-711.352 657.412,-706.577 656.498,-713.517"/>
<text text-anchor="middle" x="476" y="-539" font-family="Helvetica,sans-Serif" font-size="10.00"> contextMenuStrip1</text>
<text text-anchor="middle" x="476" y="-528" font-family="Helvetica,sans-Serif" font-size="10.00">aboutToolStripMenuItem</text>
<text text-anchor="middle" x="476" y="-517" font-family="Helvetica,sans-Serif" font-size="10.00">lvlVerifyMain</text>
<text text-anchor="middle" x="476" y="-506" font-family="Helvetica,sans-Serif" font-size="10.00">contextMenuStrip2</text>
<text text-anchor="middle" x="476" y="-495" font-family="Helvetica,sans-Serif" font-size="10.00">btnClearHashes</text>
<text text-anchor="middle" x="476" y="-484" font-family="Helvetica,sans-Serif" font-size="10.00">lblSha512</text>
<text text-anchor="middle" x="476" y="-473" font-family="Helvetica,sans-Serif" font-size="10.00">chkGenerateFile</text>
<text text-anchor="middle" x="476" y="-462" font-family="Helvetica,sans-Serif" font-size="10.00">btnGenerate</text>
<text text-anchor="middle" x="476" y="-451" font-family="Helvetica,sans-Serif" font-size="10.00">txtMd5</text>
<text text-anchor="middle" x="476" y="-440" font-family="Helvetica,sans-Serif" font-size="10.00">lblVerify</text>
<text text-anchor="middle" x="476" y="-429" font-family="Helvetica,sans-Serif" font-size="10.00">...</text>
</g>
<!-- Node13&#45;&gt;Node12 -->
<g id="edge15" class="edge"><title>Node13&#45;&gt;Node12</title>
<path fill="none" stroke="#9a32cd" stroke-dasharray="5,2" d="M656.697,-711.792C587.438,-709.092 438.979,-701.545 422,-686 381.624,-649.036 438.744,-602.642 399,-565 377.186,-544.34 293.8,-555.56 265,-547 222.84,-534.469 177.08,-509.449 154.411,-496.199"/>
<polygon fill="#9a32cd" stroke="#9a32cd" points="656.584,-715.291 666.709,-712.17 656.848,-708.296 656.584,-715.291"/>
<text text-anchor="middle" x="462.5" y="-678" font-family="Helvetica,sans-Serif" font-size="10.00"> _colorLightError</text>
<text text-anchor="middle" x="462.5" y="-667" font-family="Helvetica,sans-Serif" font-size="10.00">_colorLabel</text>
<text text-anchor="middle" x="462.5" y="-656" font-family="Helvetica,sans-Serif" font-size="10.00">timer1</text>
<text text-anchor="middle" x="462.5" y="-645" font-family="Helvetica,sans-Serif" font-size="10.00">flowOuter</text>
<text text-anchor="middle" x="462.5" y="-634" font-family="Helvetica,sans-Serif" font-size="10.00">_colorLightOk</text>
<text text-anchor="middle" x="462.5" y="-623" font-family="Helvetica,sans-Serif" font-size="10.00">_specialBlinkColor</text>
<text text-anchor="middle" x="462.5" y="-612" font-family="Helvetica,sans-Serif" font-size="10.00">_colorLightOff</text>
<text text-anchor="middle" x="462.5" y="-601" font-family="Helvetica,sans-Serif" font-size="10.00">lblText</text>
<text text-anchor="middle" x="462.5" y="-590" font-family="Helvetica,sans-Serif" font-size="10.00">components</text>
<text text-anchor="middle" x="462.5" y="-579" font-family="Helvetica,sans-Serif" font-size="10.00">_colorLightBusy</text>
<text text-anchor="middle" x="462.5" y="-568" font-family="Helvetica,sans-Serif" font-size="10.00">...</text>
</g>
<!-- Node13&#45;&gt;Node15 -->
<g id="edge19" class="edge"><title>Node13&#45;&gt;Node15</title>
<path fill="none" stroke="#9a32cd" stroke-dasharray="5,2" d="M656.988,-707.801C643.653,-703.997 629.609,-697.409 621,-686 576,-626.363 594.835,-526.049 601.82,-496.156"/>
<polygon fill="#9a32cd" stroke="#9a32cd" points="656.403,-711.26 666.945,-710.201 658.044,-704.455 656.403,-711.26"/>
<text text-anchor="middle" x="649.5" y="-623" font-family="Helvetica,sans-Serif" font-size="10.00"> components</text>
</g>
<!-- Node13&#45;&gt;Node17 -->
<g id="edge29" class="edge"><title>Node13&#45;&gt;Node17</title>
<path fill="none" stroke="#9a32cd" stroke-dasharray="5,2" d="M727.248,-711.718C768.98,-709.431 834.982,-703.137 852,-686 853.935,-684.052 909.983,-328.902 919.602,-267.875"/>
<polygon fill="#9a32cd" stroke="#9a32cd" points="727.019,-708.225 717.206,-712.218 727.367,-715.216 727.019,-708.225"/>
<text text-anchor="middle" x="934.5" y="-378" font-family="Helvetica,sans-Serif" font-size="10.00"> components</text>
</g>
<!-- Node13&#45;&gt;Node18 -->
<g id="edge32" class="edge"><title>Node13&#45;&gt;Node18</title>
<path fill="none" stroke="#9a32cd" stroke-dasharray="5,2" d="M727.119,-712.589C777.262,-711.29 865.977,-706.122 890,-686 933.315,-649.719 908.958,-617.828 929,-565 938.59,-539.723 951.959,-510.745 958.72,-496.445"/>
<polygon fill="#9a32cd" stroke="#9a32cd" points="726.962,-709.092 717.041,-712.812 727.116,-716.09 726.962,-709.092"/>
<text text-anchor="middle" x="957.5" y="-623" font-family="Helvetica,sans-Serif" font-size="10.00"> components</text>
</g>
<!-- Node14 -->
<g id="node14" class="node"><title>Node14</title>
<g id="a_node14"><a xlink:title=" ">
<polygon fill="white" stroke="#bfbfbf" points="86.5,-704.5 86.5,-723.5 127.5,-723.5 127.5,-704.5 86.5,-704.5"/>
<text text-anchor="middle" x="107" y="-711.5" font-family="Helvetica,sans-Serif" font-size="10.00">static</text>
</a>
</g>
</g>
<!-- Node14&#45;&gt;Node12 -->
<g id="edge16" class="edge"><title>Node14&#45;&gt;Node12</title>
<path fill="none" stroke="#9a32cd" stroke-dasharray="5,2" d="M104.84,-694.099C102.11,-665.73 98.7954,-610.602 108,-565 113.299,-538.745 127.512,-510.195 135.088,-496.212"/>
<polygon fill="#9a32cd" stroke="#9a32cd" points="101.376,-694.626 105.901,-704.206 108.338,-693.895 101.376,-694.626"/>
<text text-anchor="middle" x="178" y="-678" font-family="Helvetica,sans-Serif" font-size="10.00"> _defaultColorLabel</text>
<text text-anchor="middle" x="178" y="-667" font-family="Helvetica,sans-Serif" font-size="10.00">_defaultBorderOut</text>
<text text-anchor="middle" x="178" y="-656" font-family="Helvetica,sans-Serif" font-size="10.00">_defaultBorderLabel</text>
<text text-anchor="middle" x="178" y="-645" font-family="Helvetica,sans-Serif" font-size="10.00">_defaultColorLightOff</text>
<text text-anchor="middle" x="178" y="-634" font-family="Helvetica,sans-Serif" font-size="10.00">_defaultPaddingLabel</text>
<text text-anchor="middle" x="178" y="-623" font-family="Helvetica,sans-Serif" font-size="10.00">_defaultMarginLabel</text>
<text text-anchor="middle" x="178" y="-612" font-family="Helvetica,sans-Serif" font-size="10.00">_defaultColorLightBusy</text>
<text text-anchor="middle" x="178" y="-601" font-family="Helvetica,sans-Serif" font-size="10.00">_defaultBlinkIntervalMilliseconds</text>
<text text-anchor="middle" x="178" y="-590" font-family="Helvetica,sans-Serif" font-size="10.00">_defaultPaddingOut</text>
<text text-anchor="middle" x="178" y="-579" font-family="Helvetica,sans-Serif" font-size="10.00">_defaultColorLightError</text>
<text text-anchor="middle" x="178" y="-568" font-family="Helvetica,sans-Serif" font-size="10.00">...</text>
</g>
<!-- Node15&#45;&gt;Node11 -->
<g id="edge17" class="edge"><title>Node15&#45;&gt;Node11</title>
<path fill="none" stroke="#9a32cd" stroke-dasharray="5,2" d="M585.977,-470.178C554.959,-444.217 488.93,-390.733 428,-353 416.861,-346.102 403.725,-339.503 393.199,-334.555"/>
<polygon fill="#9a32cd" stroke="#9a32cd" points="583.86,-472.971 593.764,-476.734 588.369,-467.616 583.86,-472.971"/>
<text text-anchor="middle" x="535.5" y="-378" font-family="Helvetica,sans-Serif" font-size="10.00"> _aboutForm</text>
</g>
<!-- Node16 -->
<g id="node16" class="node"><title>Node16</title>
<g id="a_node16"><a xlink:title=" ">
<polygon fill="white" stroke="#bfbfbf" points="288.5,-704.5 288.5,-723.5 317.5,-723.5 317.5,-704.5 288.5,-704.5"/>
<text text-anchor="middle" x="303" y="-711.5" font-family="Helvetica,sans-Serif" font-size="10.00">IG</text>
</a>
</g>
</g>
<!-- Node16&#45;&gt;Node9 -->
<g id="edge24" class="edge"><title>Node16&#45;&gt;Node9</title>
<path fill="none" stroke="#9a32cd" stroke-dasharray="5,2" d="M283.877,-697.161C280.806,-693.78 277.989,-690.008 276,-686 259.447,-652.641 220.704,-385.98 238,-353 261.528,-308.136 317.26,-280.453 349.606,-267.586"/>
<polygon fill="#9a32cd" stroke="#9a32cd" points="281.607,-699.835 291.23,-704.269 286.473,-694.803 281.607,-699.835"/>
<text text-anchor="middle" x="277" y="-383.5" font-family="Helvetica,sans-Serif" font-size="10.00"> hashFormAbout1</text>
<text text-anchor="middle" x="277" y="-372.5" font-family="Helvetica,sans-Serif" font-size="10.00">hashDirControl1</text>
</g>
<!-- Node16&#45;&gt;Node11 -->
<g id="edge22" class="edge"><title>Node16&#45;&gt;Node11</title>
<path fill="none" stroke="#9a32cd" stroke-dasharray="5,2" d="M297.918,-694.261C286.101,-646.925 260.718,-519.65 301,-426 305.596,-415.314 312.53,-416.916 320,-408 340.799,-383.175 360.47,-350.03 369.23,-334.59"/>
<polygon fill="#9a32cd" stroke="#9a32cd" points="294.558,-695.246 300.458,-704.046 301.333,-693.487 294.558,-695.246"/>
<text text-anchor="middle" x="346.5" y="-484" font-family="Helvetica,sans-Serif" font-size="10.00"> backgroundWorker1</text>
</g>
<!-- Node16&#45;&gt;Node15 -->
<g id="edge20" class="edge"><title>Node16&#45;&gt;Node15</title>
<path fill="none" stroke="#9a32cd" stroke-dasharray="5,2" d="M302.482,-694.237C301.925,-658.455 302.959,-582.462 321,-565 353.541,-533.503 481.679,-563.122 524,-547 553.763,-535.662 582.07,-509.885 595.638,-496.282"/>
<polygon fill="#9a32cd" stroke="#9a32cd" points="298.984,-694.394 302.699,-704.317 305.982,-694.243 298.984,-694.394"/>
<text text-anchor="middle" x="360" y="-623" font-family="Helvetica,sans-Serif" font-size="10.00"> hashFormAbout1</text>
</g>
<!-- Node16&#45;&gt;Node18 -->
<g id="edge33" class="edge"><title>Node16&#45;&gt;Node18</title>
<path fill="none" stroke="#9a32cd" stroke-dasharray="5,2" d="M327.926,-713.351C401.749,-714.06 618.082,-713.661 682,-686 754.739,-654.521 748.096,-610.49 813,-565 856.086,-534.802 912.497,-508.85 942.364,-496.036"/>
<polygon fill="#9a32cd" stroke="#9a32cd" points="327.763,-709.849 317.724,-713.237 327.684,-716.849 327.763,-709.849"/>
<text text-anchor="middle" x="849.5" y="-623" font-family="Helvetica,sans-Serif" font-size="10.00"> hashDirControl1</text>
</g>
<!-- Node17&#45;&gt;Node3 -->
<g id="edge26" class="edge"><title>Node17&#45;&gt;Node3</title>
<path fill="none" stroke="#9a32cd" stroke-dasharray="5,2" d="M938.465,-241.676C956.138,-226.228 984.301,-201.763 1009,-181 1018.67,-172.871 1021.58,-171.416 1031,-163 1041.86,-153.302 1053.77,-141.52 1061.53,-133.672"/>
<polygon fill="#9a32cd" stroke="#9a32cd" points="935.912,-239.259 930.694,-248.48 940.523,-244.526 935.912,-239.259"/>
<text text-anchor="middle" x="1032.5" y="-188.5" font-family="Helvetica,sans-Serif" font-size="10.00"> hashForm</text>
</g>
<!-- Node18&#45;&gt;Node3 -->
<g id="edge30" class="edge"><title>Node18&#45;&gt;Node3</title>
<path fill="none" stroke="#9a32cd" stroke-dasharray="5,2" d="M969.905,-467.273C986.652,-422.508 1029.97,-303.355 1056,-201 1062.15,-176.815 1066.75,-147.654 1068.81,-133.515"/>
<polygon fill="#9a32cd" stroke="#9a32cd" points="966.574,-466.185 966.328,-476.777 973.126,-468.65 966.574,-466.185"/>
<text text-anchor="middle" x="1071.5" y="-255.5" font-family="Helvetica,sans-Serif" font-size="10.00"> hashDirForm</text>
</g>
</g>
</svg>
        <g id="navigator" transform="translate(0 0)" fill="#404254">
                <rect fill="#f2f5e9" fill-opacity="0.5" stroke="#606060" stroke-width=".5" x="0" y="0" width="60" height="60"/>
                <use id="zoomplus" xlink:href="#zoomPlus" x="17" y="9" onmousedown="handleZoom(evt,'in')"/>
                <use id="zoomminus" xlink:href="#zoomMin" x="42" y="9" onmousedown="handleZoom(evt,'out')"/>
                <use id="reset" xlink:href="#resetDef" x="30" y="36" onmousedown="handleReset()"/>
                <g id="arrowUp" xlink:href="#dirArrow" transform="translate(30 24)" onmousedown="handlePan(0,-1)">
                  <use xlink:href="#rim" fill="#404040">
                        <set attributeName="fill" to="#808080" begin="arrowUp.mouseover" end="arrowUp.mouseout"/>
                  </use>
                  <path fill="none" stroke="white" stroke-width="1.5" d="M0,-3.0v7 M-2.5,-0.5L0,-3.0L2.5,-0.5"/>
                </g>
                <g id="arrowRight" xlink:href="#dirArrow" transform="rotate(90) translate(36 -43)" onmousedown="handlePan(1,0)">
                  <use xlink:href="#rim" fill="#404040">
                        <set attributeName="fill" to="#808080" begin="arrowRight.mouseover" end="arrowRight.mouseout"/>
                  </use>
                  <path fill="none" stroke="white" stroke-width="1.5" d="M0,-3.0v7 M-2.5,-0.5L0,-3.0L2.5,-0.5"/>
                </g>
                <g id="arrowDown" xlink:href="#dirArrow" transform="rotate(180) translate(-30 -48)" onmousedown="handlePan(0,1)">
                  <use xlink:href="#rim" fill="#404040">
                        <set attributeName="fill" to="#808080" begin="arrowDown.mouseover" end="arrowDown.mouseout"/>
                  </use>
                  <path fill="none" stroke="white" stroke-width="1.5" d="M0,-3.0v7 M-2.5,-0.5L0,-3.0L2.5,-0.5"/>
                </g>
                <g id="arrowLeft" xlink:href="#dirArrow" transform="rotate(270) translate(-36 17)" onmousedown="handlePan(-1,0)">
                  <use xlink:href="#rim" fill="#404040">
                        <set attributeName="fill" to="#808080" begin="arrowLeft.mouseover" end="arrowLeft.mouseout"/>
                  </use>
                  <path fill="none" stroke="white" stroke-width="1.5" d="M0,-3.0v7 M-2.5,-0.5L0,-3.0L2.5,-0.5"/>
                </g>
        </g>
        <svg viewBox="0 0 15 15" width="100%" height="30px" preserveAspectRatio="xMaxYMin meet">
         <g id="arrow_out" transform="scale(0.3 0.3)">
          <a xlink:href="classIG_1_1Script_1_1AppTestShellExt__coll__graph_org.svg" target="_base">
           <rect id="button" ry="5" rx="5" y="6" x="6" height="38" width="38"
                fill="#f2f5e9" fill-opacity="0.5" stroke="#606060" stroke-width="1.0"/>
           <path id="arrow"
             d="M 11.500037,31.436501 C 11.940474,20.09759 22.043105,11.32322 32.158766,21.979434 L 37.068811,17.246167 C 37.068811,17.246167 37.088388,32 37.088388,32 L 22.160133,31.978069 C 22.160133,31.978069 26.997745,27.140456 26.997745,27.140456 C 18.528582,18.264221 13.291696,25.230495 11.500037,31.436501 z"
             style="fill:#404040;"/>
          </a>
         </g>
        </svg>
</svg>
