<?xml version="1.0" encoding="UTF-8" standalone="no"?>
<!DOCTYPE svg PUBLIC "-//W3C//DTD SVG 1.1//EN"
 "http://www.w3.org/Graphics/SVG/1.1/DTD/svg11.dtd">
<!-- Generated by graphviz version 2.38.0 (20140413.2041)
 -->
<!-- Title: NUnit.Framework.Internal.TestResult Pages: 1 -->
<svg width="315pt" height="174pt"
 viewBox="0.00 0.00 314.50 174.00" xmlns="http://www.w3.org/2000/svg" xmlns:xlink="http://www.w3.org/1999/xlink">
<g id="graph0" class="graph" transform="scale(1 1) rotate(0) translate(4 170)">
<title>NUnit.Framework.Internal.TestResult</title>
<polygon fill="white" stroke="none" points="-4,4 -4,-170 310.5,-170 310.5,4 -4,4"/>
<!-- Node1 -->
<g id="node1" class="node"><title>Node1</title>
<g id="a_node1"><a xlink:title="The TestResult class represents the result of a test.">
<polygon fill="#bfbfbf" stroke="black" points="55,-0.5 55,-30.5 184,-30.5 184,-0.5 55,-0.5"/>
<text text-anchor="start" x="63" y="-18.5" font-family="Helvetica,sans-Serif" font-size="10.00">NUnit.Framework.Internal.</text>
<text text-anchor="middle" x="119.5" y="-7.5" font-family="Helvetica,sans-Serif" font-size="10.00">TestResult</text>
</a>
</g>
</g>
<!-- Node2 -->
<g id="node2" class="node"><title>Node2</title>
<g id="a_node2"><a xlink:href="../../d2/df9/interfaceNUnit_1_1Framework_1_1Interfaces_1_1ITestResult.html" target="_top" xlink:title="The ITestResult interface represents the result of a test.">
<polygon fill="white" stroke="black" points="11,-89.5 11,-108.5 76,-108.5 76,-89.5 11,-89.5"/>
<text text-anchor="middle" x="43.5" y="-96.5" font-family="Helvetica,sans-Serif" font-size="10.00">ITestResult</text>
</a>
</g>
</g>
<!-- Node2&#45;&gt;Node1 -->
<g id="edge1" class="edge"><title>Node2&#45;&gt;Node1</title>
<path fill="none" stroke="midnightblue" d="M58.6211,-81.7846C72.5699,-66.8264 93.0708,-44.8419 106.354,-30.5974"/>
<polygon fill="midnightblue" stroke="midnightblue" points="55.8936,-79.5775 51.6333,-89.2781 61.0131,-84.3515 55.8936,-79.5775"/>
</g>
<!-- Node3 -->
<g id="node3" class="node"><title>Node3</title>
<g id="a_node3"><a xlink:href="../../d9/dc0/interfaceNUnit_1_1Framework_1_1Interfaces_1_1IXmlNodeBuilder.html" target="_top" xlink:title="An object implementing IXmlNodeBuilder is able to build an XML representation of itself and any child...">
<polygon fill="white" stroke="black" points="0,-146.5 0,-165.5 87,-165.5 87,-146.5 0,-146.5"/>
<text text-anchor="middle" x="43.5" y="-153.5" font-family="Helvetica,sans-Serif" font-size="10.00">IXmlNodeBuilder</text>
</a>
</g>
</g>
<!-- Node3&#45;&gt;Node2 -->
<g id="edge2" class="edge"><title>Node3&#45;&gt;Node2</title>
<path fill="none" stroke="midnightblue" d="M43.5,-136.117C43.5,-126.817 43.5,-116.056 43.5,-108.715"/>
<polygon fill="midnightblue" stroke="midnightblue" points="40.0001,-136.406 43.5,-146.406 47.0001,-136.406 40.0001,-136.406"/>
</g>
<!-- Node4 -->
<g id="node4" class="node"><title>Node4</title>
<g id="a_node4"><a xlink:title=" ">
<polygon fill="white" stroke="#bfbfbf" points="94.5,-89.5 94.5,-108.5 144.5,-108.5 144.5,-89.5 94.5,-89.5"/>
<text text-anchor="middle" x="119.5" y="-96.5" font-family="Helvetica,sans-Serif" font-size="10.00">System</text>
</a>
</g>
</g>
<!-- Node4&#45;&gt;Node1 -->
<g id="edge3" class="edge"><title>Node4&#45;&gt;Node1</title>
<path fill="none" stroke="#9a32cd" stroke-dasharray="5,2" d="M119.5,-79.229C119.5,-64.4075 119.5,-44.0505 119.5,-30.5974"/>
<polygon fill="#9a32cd" stroke="#9a32cd" points="116,-79.278 119.5,-89.2781 123,-79.2781 116,-79.278"/>
<text text-anchor="middle" x="141" y="-57.5" font-family="Helvetica,sans-Serif" font-size="10.00"> _children</text>
</g>
<!-- Node5 -->
<g id="node5" class="node"><title>Node5</title>
<g id="a_node5"><a xlink:title=" ">
<polygon fill="white" stroke="#bfbfbf" points="165,-89.5 165,-108.5 206,-108.5 206,-89.5 165,-89.5"/>
<text text-anchor="middle" x="185.5" y="-96.5" font-family="Helvetica,sans-Serif" font-size="10.00">static</text>
</a>
</g>
</g>
<!-- Node5&#45;&gt;Node1 -->
<g id="edge4" class="edge"><title>Node5&#45;&gt;Node1</title>
<path fill="none" stroke="#9a32cd" stroke-dasharray="5,2" d="M179.845,-79.7319C176.217,-69.9415 170.805,-58.0647 163.5,-49 157.899,-42.0491 150.478,-35.8209 143.33,-30.7219"/>
<polygon fill="#9a32cd" stroke="#9a32cd" points="176.565,-80.956 183.087,-89.3048 183.195,-78.7105 176.565,-80.956"/>
<text text-anchor="middle" x="241.5" y="-63" font-family="Helvetica,sans-Serif" font-size="10.00"> CHILD_IGNORE_MESSAGE</text>
<text text-anchor="middle" x="241.5" y="-52" font-family="Helvetica,sans-Serif" font-size="10.00">CHILD_ERRORS_MESSAGE</text>
</g>
</g>
</svg>
