<?xml version="1.0" encoding="UTF-8" standalone="no"?>
<!DOCTYPE svg PUBLIC "-//W3C//DTD SVG 1.1//EN"
 "http://www.w3.org/Graphics/SVG/1.1/DTD/svg11.dtd">
<!-- Generated by graphviz version 2.38.0 (20140413.2041)
 -->
<!-- Title: NUnit.Engine.Drivers.NUnit2DriverFactory Pages: 1 -->
<svg width="236pt" height="117pt"
 viewBox="0.00 0.00 235.50 117.00" xmlns="http://www.w3.org/2000/svg" xmlns:xlink="http://www.w3.org/1999/xlink">
<g id="graph0" class="graph" transform="scale(1 1) rotate(0) translate(4 113)">
<title>NUnit.Engine.Drivers.NUnit2DriverFactory</title>
<polygon fill="white" stroke="none" points="-4,4 -4,-113 231.5,-113 231.5,4 -4,4"/>
<!-- Node1 -->
<g id="node1" class="node"><title>Node1</title>
<g id="a_node1"><a xlink:title=" ">
<polygon fill="#bfbfbf" stroke="black" points="30,-0.5 30,-30.5 168,-30.5 168,-0.5 30,-0.5"/>
<text text-anchor="start" x="38" y="-18.5" font-family="Helvetica,sans-Serif" font-size="10.00">NUnit.Engine.Drivers.NUnit2</text>
<text text-anchor="middle" x="99" y="-7.5" font-family="Helvetica,sans-Serif" font-size="10.00">DriverFactory</text>
</a>
</g>
</g>
<!-- Node2 -->
<g id="node2" class="node"><title>Node2</title>
<g id="a_node2"><a xlink:href="../../d7/dff/interfaceNUnit_1_1Engine_1_1Extensibility_1_1IDriverFactory.html" target="_top" xlink:title="Interface implemented by a Type that knows how to create a driver for a test assembly.">
<polygon fill="white" stroke="black" points="0,-84 0,-103 76,-103 76,-84 0,-84"/>
<text text-anchor="middle" x="38" y="-91" font-family="Helvetica,sans-Serif" font-size="10.00">IDriverFactory</text>
</a>
</g>
</g>
<!-- Node2&#45;&gt;Node1 -->
<g id="edge1" class="edge"><title>Node2&#45;&gt;Node1</title>
<path fill="none" stroke="midnightblue" d="M51.4405,-75.7545C62.3285,-62.189 77.4923,-43.2964 87.7472,-30.5198"/>
<polygon fill="midnightblue" stroke="midnightblue" points="48.5274,-73.7923 44.9975,-83.7818 53.9865,-78.174 48.5274,-73.7923"/>
</g>
<!-- Node3 -->
<g id="node3" class="node"><title>Node3</title>
<g id="a_node3"><a xlink:href="../../d7/df9/classNUnit_1_1Engine_1_1Extensibility_1_1ExtensionNode.html" target="_top" xlink:title="The ExtensionNode class represents a single extension being installed on a particular extension point...">
<polygon fill="white" stroke="black" points="94.5,-78.5 94.5,-108.5 227.5,-108.5 227.5,-78.5 94.5,-78.5"/>
<text text-anchor="start" x="102.5" y="-96.5" font-family="Helvetica,sans-Serif" font-size="10.00">NUnit.Engine.Extensibility.</text>
<text text-anchor="middle" x="161" y="-85.5" font-family="Helvetica,sans-Serif" font-size="10.00">ExtensionNode</text>
</a>
</g>
</g>
<!-- Node3&#45;&gt;Node1 -->
<g id="edge2" class="edge"><title>Node3&#45;&gt;Node1</title>
<path fill="none" stroke="#9a32cd" stroke-dasharray="5,2" d="M142.895,-70.3065C132.474,-57.5329 119.688,-41.8596 110.609,-30.7309"/>
<polygon fill="#9a32cd" stroke="#9a32cd" points="140.305,-72.6688 149.338,-78.205 145.729,-68.2439 140.305,-72.6688"/>
<text text-anchor="middle" x="161" y="-52" font-family="Helvetica,sans-Serif" font-size="10.00"> _driverNode</text>
</g>
</g>
</svg>
