<?xml version="1.0" encoding="UTF-8" standalone="no"?>
<!DOCTYPE svg PUBLIC "-//W3C//DTD SVG 1.1//EN"
 "http://www.w3.org/Graphics/SVG/1.1/DTD/svg11.dtd">
<!-- Generated by graphviz version 2.38.0 (20140413.2041)
 -->
<!-- Title: DotNumerics.LinearAlgebra.CSLapack.DLATRD Pages: 1 -->
<!--zoomable 414 -->
<svg id="main" version="1.1" xmlns="http://www.w3.org/2000/svg" xmlns:xlink="http://www.w3.org/1999/xlink" xml:space="preserve" onload="init(evt)">
<style type="text/css"><![CDATA[
.edge:hover path { stroke: red; }
.edge:hover polygon { stroke: red; fill: red; }
]]></style>
<script type="text/javascript"><![CDATA[
var edges = document.getElementsByTagName('g');
if (edges && edges.length) {
  for (var i=0;i<edges.length;i++) {
    if (edges[i].id.substr(0,4)=='edge') {
      edges[i].setAttribute('class','edge');
    }
  }
}
]]></script>
        <defs>
                <circle id="rim" cx="0" cy="0" r="7"/>
                <circle id="rim2" cx="0" cy="0" r="3.5"/>
                <g id="zoomPlus">
                        <use xlink:href="#rim" fill="#404040">
                                <set attributeName="fill" to="#808080" begin="zoomplus.mouseover" end="zoomplus.mouseout"/>
                        </use>
                        <path d="M-4,0h8M0,-4v8" fill="none" stroke="white" stroke-width="1.5" pointer-events="none"/>
                </g>
                <g id="zoomMin">
                        <use xlink:href="#rim" fill="#404040">
                                <set attributeName="fill" to="#808080" begin="zoomminus.mouseover" end="zoomminus.mouseout"/>
                        </use>
                        <path d="M-4,0h8" fill="none" stroke="white" stroke-width="1.5" pointer-events="none"/>
                </g>
                <g id="dirArrow">
                        <path fill="none" stroke="white" stroke-width="1.5" d="M0,-3.0v7 M-2.5,-0.5L0,-3.0L2.5,-0.5"/>
                </g>
               <g id="resetDef">
                       <use xlink:href="#rim2" fill="#404040">
                               <set attributeName="fill" to="#808080" begin="reset.mouseover" end="reset.mouseout"/>
                       </use>
               </g>
        </defs>

<script type="text/javascript">
var viewWidth = 1211;
var viewHeight = 414;
var sectionId = 'dynsection-0';
</script>
<script xlink:href="../../svgpan.js"/>
<svg id="graph" class="graph">
<g id="viewport">
<title>DotNumerics.LinearAlgebra.CSLapack.DLATRD</title>
<polygon fill="white" stroke="none" points="-4,4 -4,-409.5 1207,-409.5 1207,4 -4,4"/>
<!-- Node1 -->
<g id="node1" class="node"><title>Node1</title>
<g id="a_node1"><a xlink:title="– LAPACK auxiliary routine (version 3.1) – Univ. of Tennessee, Univ. of California Berkeley and NAG L...">
<polygon fill="#bfbfbf" stroke="black" points="1065,-238.5 1065,-268.5 1203,-268.5 1203,-238.5 1065,-238.5"/>
<text text-anchor="start" x="1073" y="-256.5" font-family="Helvetica,sans-Serif" font-size="10.00">DotNumerics.LinearAlgebra.</text>
<text text-anchor="middle" x="1134" y="-245.5" font-family="Helvetica,sans-Serif" font-size="10.00">CSLapack.DLATRD</text>
</a>
</g>
</g>
<!-- Node2 -->
<g id="node2" class="node"><title>Node2</title>
<g id="a_node2"><a xlink:href="../../d1/d76/classDotNumerics_1_1LinearAlgebra_1_1CSLapack_1_1DSCAL.html" target="_top" xlink:title=" ">
<polygon fill="white" stroke="black" points="642,-147.5 642,-177.5 780,-177.5 780,-147.5 642,-147.5"/>
<text text-anchor="start" x="650" y="-165.5" font-family="Helvetica,sans-Serif" font-size="10.00">DotNumerics.LinearAlgebra.</text>
<text text-anchor="middle" x="711" y="-154.5" font-family="Helvetica,sans-Serif" font-size="10.00">CSLapack.DSCAL</text>
</a>
</g>
</g>
<!-- Node2&#45;&gt;Node1 -->
<g id="edge1" class="edge"><title>Node2&#45;&gt;Node1</title>
<path fill="none" stroke="#9a32cd" stroke-dasharray="5,2" d="M790.306,-165.334C847.525,-168.858 926.571,-176.764 994,-194.5 1033.68,-204.937 1076.79,-224.662 1104.31,-238.42"/>
<polygon fill="#9a32cd" stroke="#9a32cd" points="790.43,-161.836 780.242,-164.746 790.021,-168.824 790.43,-161.836"/>
<text text-anchor="middle" x="925" y="-197.5" font-family="Helvetica,sans-Serif" font-size="10.00"> _dscal</text>
</g>
<!-- Node9 -->
<g id="node9" class="node"><title>Node9</title>
<g id="a_node9"><a xlink:href="../../d8/dbd/classDotNumerics_1_1LinearAlgebra_1_1CSLapack_1_1DLARFG.html" target="_top" xlink:title="– LAPACK auxiliary routine (version 3.1) – Univ. of Tennessee, Univ. of California Berkeley and NAG L...">
<polygon fill="white" stroke="black" points="856,-86.5 856,-116.5 994,-116.5 994,-86.5 856,-86.5"/>
<text text-anchor="start" x="864" y="-104.5" font-family="Helvetica,sans-Serif" font-size="10.00">DotNumerics.LinearAlgebra.</text>
<text text-anchor="middle" x="925" y="-93.5" font-family="Helvetica,sans-Serif" font-size="10.00">CSLapack.DLARFG</text>
</a>
</g>
</g>
<!-- Node2&#45;&gt;Node9 -->
<g id="edge12" class="edge"><title>Node2&#45;&gt;Node9</title>
<path fill="none" stroke="#9a32cd" stroke-dasharray="5,2" d="M770.816,-144.526C779.908,-141.803 789.199,-139.052 798,-136.5 821.113,-129.797 846.688,-122.644 868.724,-116.563"/>
<polygon fill="#9a32cd" stroke="#9a32cd" points="769.629,-141.228 761.06,-147.459 771.644,-147.931 769.629,-141.228"/>
<text text-anchor="middle" x="818" y="-139.5" font-family="Helvetica,sans-Serif" font-size="10.00"> _dscal</text>
</g>
<!-- Node3 -->
<g id="node3" class="node"><title>Node3</title>
<g id="a_node3"><a xlink:href="../../dd/dac/classDotNumerics_1_1LinearAlgebra_1_1CSLapack_1_1LSAME.html" target="_top" xlink:title="– LAPACK auxiliary routine (version 3.1) – Univ. of Tennessee, Univ. of California Berkeley and NAG L...">
<polygon fill="white" stroke="black" points="428,-316.5 428,-346.5 566,-346.5 566,-316.5 428,-316.5"/>
<text text-anchor="start" x="436" y="-334.5" font-family="Helvetica,sans-Serif" font-size="10.00">DotNumerics.LinearAlgebra.</text>
<text text-anchor="middle" x="497" y="-323.5" font-family="Helvetica,sans-Serif" font-size="10.00">CSLapack.LSAME</text>
</a>
</g>
</g>
<!-- Node3&#45;&gt;Node1 -->
<g id="edge2" class="edge"><title>Node3&#45;&gt;Node1</title>
<path fill="none" stroke="#9a32cd" stroke-dasharray="5,2" d="M548.005,-349.76C575.355,-358.718 610.078,-368.439 642,-372.5 797.244,-392.25 845.417,-412.631 994,-363.5 1048.93,-345.336 1098.15,-294.527 1120.42,-268.816"/>
<polygon fill="#9a32cd" stroke="#9a32cd" points="548.876,-346.361 538.282,-346.507 546.654,-352.999 548.876,-346.361"/>
<text text-anchor="middle" x="818" y="-397.5" font-family="Helvetica,sans-Serif" font-size="10.00"> _lsame</text>
</g>
<!-- Node6 -->
<g id="node6" class="node"><title>Node6</title>
<g id="a_node6"><a xlink:href="../../d4/db4/classDotNumerics_1_1LinearAlgebra_1_1CSLapack_1_1DSYMV.html" target="_top" xlink:title=" ">
<polygon fill="white" stroke="black" points="642,-197.5 642,-227.5 780,-227.5 780,-197.5 642,-197.5"/>
<text text-anchor="start" x="650" y="-215.5" font-family="Helvetica,sans-Serif" font-size="10.00">DotNumerics.LinearAlgebra.</text>
<text text-anchor="middle" x="711" y="-204.5" font-family="Helvetica,sans-Serif" font-size="10.00">CSLapack.DSYMV</text>
</a>
</g>
</g>
<!-- Node3&#45;&gt;Node6 -->
<g id="edge7" class="edge"><title>Node3&#45;&gt;Node6</title>
<path fill="none" stroke="#9a32cd" stroke-dasharray="5,2" d="M575.724,-313.444C592.25,-307.98 609.173,-301.083 624,-292.5 654.002,-275.133 682.082,-245.553 697.562,-227.639"/>
<polygon fill="#9a32cd" stroke="#9a32cd" points="574.539,-310.147 566.058,-316.497 576.647,-316.822 574.539,-310.147"/>
<text text-anchor="middle" x="604" y="-313.5" font-family="Helvetica,sans-Serif" font-size="10.00"> _lsame</text>
</g>
<!-- Node8 -->
<g id="node8" class="node"><title>Node8</title>
<g id="a_node8"><a xlink:href="../../d7/d97/classDotNumerics_1_1LinearAlgebra_1_1CSLapack_1_1DGEMV.html" target="_top" xlink:title=" ">
<polygon fill="white" stroke="black" points="642,-333.5 642,-363.5 780,-363.5 780,-333.5 642,-333.5"/>
<text text-anchor="start" x="650" y="-351.5" font-family="Helvetica,sans-Serif" font-size="10.00">DotNumerics.LinearAlgebra.</text>
<text text-anchor="middle" x="711" y="-340.5" font-family="Helvetica,sans-Serif" font-size="10.00">CSLapack.DGEMV</text>
</a>
</g>
</g>
<!-- Node3&#45;&gt;Node8 -->
<g id="edge10" class="edge"><title>Node3&#45;&gt;Node8</title>
<path fill="none" stroke="#9a32cd" stroke-dasharray="5,2" d="M576.328,-337.781C597.843,-339.506 620.993,-341.363 641.883,-343.038"/>
<polygon fill="#9a32cd" stroke="#9a32cd" points="576.493,-334.283 566.245,-336.972 575.933,-341.261 576.493,-334.283"/>
<text text-anchor="middle" x="604" y="-345.5" font-family="Helvetica,sans-Serif" font-size="10.00"> _lsame</text>
</g>
<!-- Node10 -->
<g id="node10" class="node"><title>Node10</title>
<g id="a_node10"><a xlink:href="../../d4/dd0/classDotNumerics_1_1LinearAlgebra_1_1CSLapack_1_1DLAMCH.html" target="_top" xlink:title="– LAPACK auxiliary routine (version 3.1) – Univ. of Tennessee, Univ. of California Berkeley and NAG L...">
<polygon fill="white" stroke="black" points="642,-98.5 642,-128.5 780,-128.5 780,-98.5 642,-98.5"/>
<text text-anchor="start" x="650" y="-116.5" font-family="Helvetica,sans-Serif" font-size="10.00">DotNumerics.LinearAlgebra.</text>
<text text-anchor="middle" x="711" y="-105.5" font-family="Helvetica,sans-Serif" font-size="10.00">CSLapack.DLAMCH</text>
</a>
</g>
</g>
<!-- Node3&#45;&gt;Node10 -->
<g id="edge14" class="edge"><title>Node3&#45;&gt;Node10</title>
<path fill="none" stroke="#9a32cd" stroke-dasharray="5,2" d="M530.641,-310.457C542.507,-301.954 555.555,-291.542 566,-280.5 575.911,-270.023 574.004,-263.896 584,-253.5 599.219,-237.671 612.081,-242.942 624,-224.5 645.432,-191.337 616.03,-167.244 642,-137.5 644.964,-134.105 648.439,-131.19 652.223,-128.688"/>
<polygon fill="#9a32cd" stroke="#9a32cd" points="528.47,-307.704 522.264,-316.291 532.471,-313.448 528.47,-307.704"/>
<text text-anchor="middle" x="604" y="-256.5" font-family="Helvetica,sans-Serif" font-size="10.00"> _lsame</text>
</g>
<!-- Node4 -->
<g id="node4" class="node"><title>Node4</title>
<g id="a_node4"><a xlink:href="../../d4/d70/classDotNumerics_1_1LinearAlgebra_1_1CSLapack_1_1DAXPY.html" target="_top" xlink:title=" ">
<polygon fill="white" stroke="black" points="856,-287.5 856,-317.5 994,-317.5 994,-287.5 856,-287.5"/>
<text text-anchor="start" x="864" y="-305.5" font-family="Helvetica,sans-Serif" font-size="10.00">DotNumerics.LinearAlgebra.</text>
<text text-anchor="middle" x="925" y="-294.5" font-family="Helvetica,sans-Serif" font-size="10.00">CSLapack.DAXPY</text>
</a>
</g>
</g>
<!-- Node4&#45;&gt;Node1 -->
<g id="edge3" class="edge"><title>Node4&#45;&gt;Node1</title>
<path fill="none" stroke="#9a32cd" stroke-dasharray="5,2" d="M999.522,-285.096C1022.42,-279.676 1047.46,-273.748 1069.61,-268.506"/>
<polygon fill="#9a32cd" stroke="#9a32cd" points="998.438,-281.756 989.514,-287.465 1000.05,-288.568 998.438,-281.756"/>
<text text-anchor="middle" x="1029.5" y="-284.5" font-family="Helvetica,sans-Serif" font-size="10.00"> _daxpy</text>
</g>
<!-- Node5 -->
<g id="node5" class="node"><title>Node5</title>
<g id="a_node5"><a xlink:href="../../de/d1b/classDotNumerics_1_1LinearAlgebra_1_1CSLapack_1_1DDOT.html" target="_top" xlink:title=" ">
<polygon fill="white" stroke="black" points="856,-238.5 856,-268.5 994,-268.5 994,-238.5 856,-238.5"/>
<text text-anchor="start" x="864" y="-256.5" font-family="Helvetica,sans-Serif" font-size="10.00">DotNumerics.LinearAlgebra.</text>
<text text-anchor="middle" x="925" y="-245.5" font-family="Helvetica,sans-Serif" font-size="10.00">CSLapack.DDOT</text>
</a>
</g>
</g>
<!-- Node5&#45;&gt;Node1 -->
<g id="edge4" class="edge"><title>Node5&#45;&gt;Node1</title>
<path fill="none" stroke="#9a32cd" stroke-dasharray="5,2" d="M1004.07,-253.5C1024.08,-253.5 1045.43,-253.5 1064.89,-253.5"/>
<polygon fill="#9a32cd" stroke="#9a32cd" points="1004.07,-250 994.066,-253.5 1004.07,-257 1004.07,-250"/>
<text text-anchor="middle" x="1029.5" y="-256.5" font-family="Helvetica,sans-Serif" font-size="10.00"> _ddot</text>
</g>
<!-- Node6&#45;&gt;Node1 -->
<g id="edge5" class="edge"><title>Node6&#45;&gt;Node1</title>
<path fill="none" stroke="#9a32cd" stroke-dasharray="5,2" d="M790.494,-208.963C847.281,-207.601 925.717,-208.185 994,-217.5 1025.24,-221.762 1059.55,-230.602 1086.26,-238.456"/>
<polygon fill="#9a32cd" stroke="#9a32cd" points="790.053,-205.474 780.149,-209.239 790.239,-212.471 790.053,-205.474"/>
<text text-anchor="middle" x="925" y="-220.5" font-family="Helvetica,sans-Serif" font-size="10.00"> _dsymv</text>
</g>
<!-- Node7 -->
<g id="node7" class="node"><title>Node7</title>
<g id="a_node7"><a xlink:href="../../db/d6a/classDotNumerics_1_1LinearAlgebra_1_1CSLapack_1_1XERBLA.html" target="_top" xlink:title="– LAPACK auxiliary routine (version 3.1) – Univ. of Tennessee, Univ. of California Berkeley and NAG L...">
<polygon fill="white" stroke="black" points="428,-241.5 428,-271.5 566,-271.5 566,-241.5 428,-241.5"/>
<text text-anchor="start" x="436" y="-259.5" font-family="Helvetica,sans-Serif" font-size="10.00">DotNumerics.LinearAlgebra.</text>
<text text-anchor="middle" x="497" y="-248.5" font-family="Helvetica,sans-Serif" font-size="10.00">CSLapack.XERBLA</text>
</a>
</g>
</g>
<!-- Node7&#45;&gt;Node6 -->
<g id="edge6" class="edge"><title>Node7&#45;&gt;Node6</title>
<path fill="none" stroke="#9a32cd" stroke-dasharray="5,2" d="M529.721,-236.278C545.404,-227.441 565.005,-218.064 584,-213.5 602.505,-209.054 622.985,-207.514 641.96,-207.419"/>
<polygon fill="#9a32cd" stroke="#9a32cd" points="527.85,-233.317 520.974,-241.377 531.376,-239.364 527.85,-233.317"/>
<text text-anchor="middle" x="604" y="-216.5" font-family="Helvetica,sans-Serif" font-size="10.00"> _xerbla</text>
</g>
<!-- Node7&#45;&gt;Node8 -->
<g id="edge9" class="edge"><title>Node7&#45;&gt;Node8</title>
<path fill="none" stroke="#9a32cd" stroke-dasharray="5,2" d="M576.217,-266.14C592.455,-269.749 609.136,-274.703 624,-281.5 652.057,-294.329 679.25,-317.983 695.305,-333.477"/>
<polygon fill="#9a32cd" stroke="#9a32cd" points="576.686,-262.663 566.184,-264.062 575.266,-269.517 576.686,-262.663"/>
<text text-anchor="middle" x="604" y="-284.5" font-family="Helvetica,sans-Serif" font-size="10.00"> _xerbla</text>
</g>
<!-- Node8&#45;&gt;Node1 -->
<g id="edge8" class="edge"><title>Node8&#45;&gt;Node1</title>
<path fill="none" stroke="#9a32cd" stroke-dasharray="5,2" d="M790.129,-350.791C847.588,-350.474 927.009,-345.816 994,-326.5 1038.26,-313.738 1084.66,-286.012 1111.09,-268.641"/>
<polygon fill="#9a32cd" stroke="#9a32cd" points="790.019,-347.291 780.024,-350.803 790.028,-354.291 790.019,-347.291"/>
<text text-anchor="middle" x="925" y="-351.5" font-family="Helvetica,sans-Serif" font-size="10.00"> _dgemv</text>
</g>
<!-- Node9&#45;&gt;Node1 -->
<g id="edge11" class="edge"><title>Node9&#45;&gt;Node1</title>
<path fill="none" stroke="#9a32cd" stroke-dasharray="5,2" d="M1004.06,-115.92C1019.13,-120.897 1034.2,-127.569 1047,-136.5 1085.66,-163.477 1113.73,-213.472 1126.05,-238.462"/>
<polygon fill="#9a32cd" stroke="#9a32cd" points="1004.76,-112.474 994.176,-112.886 1002.71,-119.166 1004.76,-112.474"/>
<text text-anchor="middle" x="1029.5" y="-139.5" font-family="Helvetica,sans-Serif" font-size="10.00"> _dlarfg</text>
</g>
<!-- Node10&#45;&gt;Node9 -->
<g id="edge13" class="edge"><title>Node10&#45;&gt;Node9</title>
<path fill="none" stroke="#9a32cd" stroke-dasharray="5,2" d="M790.684,-103.054C793.149,-102.849 795.592,-102.663 798,-102.5 816.77,-101.23 837.149,-100.7 855.937,-100.557"/>
<polygon fill="#9a32cd" stroke="#9a32cd" points="790.1,-99.5925 780.463,-103.995 790.742,-106.563 790.1,-99.5925"/>
<text text-anchor="middle" x="818" y="-105.5" font-family="Helvetica,sans-Serif" font-size="10.00"> _dlamch</text>
</g>
<!-- Node11 -->
<g id="node11" class="node"><title>Node11</title>
<g id="a_node11"><a xlink:href="../../dc/ddd/classDotNumerics_1_1LinearAlgebra_1_1CSLapack_1_1DLAMC2.html" target="_top" xlink:title="– LAPACK auxiliary routine (version 3.1) – Univ. of Tennessee, Univ. of California Berkeley and NAG L...">
<polygon fill="white" stroke="black" points="428,-98.5 428,-128.5 566,-128.5 566,-98.5 428,-98.5"/>
<text text-anchor="start" x="436" y="-116.5" font-family="Helvetica,sans-Serif" font-size="10.00">DotNumerics.LinearAlgebra.</text>
<text text-anchor="middle" x="497" y="-105.5" font-family="Helvetica,sans-Serif" font-size="10.00">CSLapack.DLAMC2</text>
</a>
</g>
</g>
<!-- Node11&#45;&gt;Node10 -->
<g id="edge15" class="edge"><title>Node11&#45;&gt;Node10</title>
<path fill="none" stroke="#9a32cd" stroke-dasharray="5,2" d="M576.328,-113.5C597.843,-113.5 620.993,-113.5 641.883,-113.5"/>
<polygon fill="#9a32cd" stroke="#9a32cd" points="576.245,-110 566.245,-113.5 576.245,-117 576.245,-110"/>
<text text-anchor="middle" x="604" y="-116.5" font-family="Helvetica,sans-Serif" font-size="10.00"> _dlamc2</text>
</g>
<!-- Node12 -->
<g id="node12" class="node"><title>Node12</title>
<g id="a_node12"><a xlink:href="../../d5/db1/classDotNumerics_1_1LinearAlgebra_1_1CSLapack_1_1DLAMC1.html" target="_top" xlink:title="– LAPACK auxiliary routine (version 3.1) – Univ. of Tennessee, Univ. of California Berkeley and NAG L...">
<polygon fill="white" stroke="black" points="214,-156.5 214,-186.5 352,-186.5 352,-156.5 214,-156.5"/>
<text text-anchor="start" x="222" y="-174.5" font-family="Helvetica,sans-Serif" font-size="10.00">DotNumerics.LinearAlgebra.</text>
<text text-anchor="middle" x="283" y="-163.5" font-family="Helvetica,sans-Serif" font-size="10.00">CSLapack.DLAMC1</text>
</a>
</g>
</g>
<!-- Node12&#45;&gt;Node11 -->
<g id="edge16" class="edge"><title>Node12&#45;&gt;Node11</title>
<path fill="none" stroke="#9a32cd" stroke-dasharray="5,2" d="M358.499,-153.995C375.48,-149.776 393.406,-145.141 410,-140.5 422.961,-136.875 436.919,-132.638 449.742,-128.61"/>
<polygon fill="#9a32cd" stroke="#9a32cd" points="357.5,-150.636 348.627,-156.427 359.174,-157.433 357.5,-150.636"/>
<text text-anchor="middle" x="390" y="-154.5" font-family="Helvetica,sans-Serif" font-size="10.00"> _dlamc1</text>
</g>
<!-- Node13 -->
<g id="node13" class="node"><title>Node13</title>
<g id="a_node13"><a xlink:href="../../db/dbb/classDotNumerics_1_1LinearAlgebra_1_1CSLapack_1_1DLAMC3.html" target="_top" xlink:title="– LAPACK auxiliary routine (version 3.1) – Univ. of Tennessee, Univ. of California Berkeley and NAG L...">
<polygon fill="white" stroke="black" points="0,-91.5 0,-121.5 138,-121.5 138,-91.5 0,-91.5"/>
<text text-anchor="start" x="8" y="-109.5" font-family="Helvetica,sans-Serif" font-size="10.00">DotNumerics.LinearAlgebra.</text>
<text text-anchor="middle" x="69" y="-98.5" font-family="Helvetica,sans-Serif" font-size="10.00">CSLapack.DLAMC3</text>
</a>
</g>
</g>
<!-- Node13&#45;&gt;Node11 -->
<g id="edge18" class="edge"><title>Node13&#45;&gt;Node11</title>
<path fill="none" stroke="#9a32cd" stroke-dasharray="5,2" d="M148.247,-108.335C150.862,-108.391 153.452,-108.447 156,-108.5 251.107,-110.495 274.881,-111.234 370,-112.5 388.811,-112.75 409.204,-112.945 427.991,-113.094"/>
<polygon fill="#9a32cd" stroke="#9a32cd" points="148.142,-104.832 138.068,-108.112 147.989,-111.83 148.142,-104.832"/>
<text text-anchor="middle" x="283" y="-115.5" font-family="Helvetica,sans-Serif" font-size="10.00"> _dlamc3</text>
</g>
<!-- Node13&#45;&gt;Node12 -->
<g id="edge17" class="edge"><title>Node13&#45;&gt;Node12</title>
<path fill="none" stroke="#9a32cd" stroke-dasharray="5,2" d="M114.523,-125.427C127.74,-130.685 142.338,-136.141 156,-140.5 174.564,-146.423 194.968,-151.883 213.85,-156.516"/>
<polygon fill="#9a32cd" stroke="#9a32cd" points="115.759,-122.152 105.176,-121.653 113.138,-128.643 115.759,-122.152"/>
<text text-anchor="middle" x="176" y="-154.5" font-family="Helvetica,sans-Serif" font-size="10.00"> _dlamc3</text>
</g>
<!-- Node14 -->
<g id="node14" class="node"><title>Node14</title>
<g id="a_node14"><a xlink:href="../../de/dd1/classDotNumerics_1_1LinearAlgebra_1_1CSLapack_1_1DLAMC4.html" target="_top" xlink:title="– LAPACK auxiliary routine (version 3.1) – Univ. of Tennessee, Univ. of California Berkeley and NAG L...">
<polygon fill="white" stroke="black" points="214,-59.5 214,-89.5 352,-89.5 352,-59.5 214,-59.5"/>
<text text-anchor="start" x="222" y="-77.5" font-family="Helvetica,sans-Serif" font-size="10.00">DotNumerics.LinearAlgebra.</text>
<text text-anchor="middle" x="283" y="-66.5" font-family="Helvetica,sans-Serif" font-size="10.00">CSLapack.DLAMC4</text>
</a>
</g>
</g>
<!-- Node13&#45;&gt;Node14 -->
<g id="edge20" class="edge"><title>Node13&#45;&gt;Node14</title>
<path fill="none" stroke="#9a32cd" stroke-dasharray="5,2" d="M148.328,-94.6768C169.843,-91.4293 192.993,-87.935 213.883,-84.7818"/>
<polygon fill="#9a32cd" stroke="#9a32cd" points="147.611,-91.2454 138.245,-96.1989 148.655,-98.167 147.611,-91.2454"/>
<text text-anchor="middle" x="176" y="-96.5" font-family="Helvetica,sans-Serif" font-size="10.00"> _dlamc3</text>
</g>
<!-- Node15 -->
<g id="node15" class="node"><title>Node15</title>
<g id="a_node15"><a xlink:href="../../d7/d30/classDotNumerics_1_1LinearAlgebra_1_1CSLapack_1_1DLAMC5.html" target="_top" xlink:title="– LAPACK auxiliary routine (version 3.1) – Univ. of Tennessee, Univ. of California Berkeley and NAG L...">
<polygon fill="white" stroke="black" points="214,-10.5 214,-40.5 352,-40.5 352,-10.5 214,-10.5"/>
<text text-anchor="start" x="222" y="-28.5" font-family="Helvetica,sans-Serif" font-size="10.00">DotNumerics.LinearAlgebra.</text>
<text text-anchor="middle" x="283" y="-17.5" font-family="Helvetica,sans-Serif" font-size="10.00">CSLapack.DLAMC5</text>
</a>
</g>
</g>
<!-- Node13&#45;&gt;Node15 -->
<g id="edge22" class="edge"><title>Node13&#45;&gt;Node15</title>
<path fill="none" stroke="#9a32cd" stroke-dasharray="5,2" d="M116.422,-87.6116C144.555,-76.2929 181.225,-61.7656 214,-49.5 221.856,-46.5601 230.257,-43.5151 238.381,-40.6214"/>
<polygon fill="#9a32cd" stroke="#9a32cd" points="114.813,-84.4865 106.847,-91.4724 117.43,-90.9786 114.813,-84.4865"/>
<text text-anchor="middle" x="176" y="-74.5" font-family="Helvetica,sans-Serif" font-size="10.00"> _dlamc3</text>
</g>
<!-- Node14&#45;&gt;Node11 -->
<g id="edge19" class="edge"><title>Node14&#45;&gt;Node11</title>
<path fill="none" stroke="#9a32cd" stroke-dasharray="5,2" d="M362.328,-88.9095C383.843,-92.8674 406.993,-97.1261 427.883,-100.969"/>
<polygon fill="#9a32cd" stroke="#9a32cd" points="362.713,-85.4216 352.245,-87.0545 361.447,-92.3061 362.713,-85.4216"/>
<text text-anchor="middle" x="390" y="-100.5" font-family="Helvetica,sans-Serif" font-size="10.00"> _dlamc4</text>
</g>
<!-- Node15&#45;&gt;Node11 -->
<g id="edge21" class="edge"><title>Node15&#45;&gt;Node11</title>
<path fill="none" stroke="#9a32cd" stroke-dasharray="5,2" d="M338.121,-44.1507C342.833,-45.9107 347.513,-47.7079 352,-49.5 386.364,-63.2247 394.183,-68.4763 428,-83.5 438.967,-88.3721 450.939,-93.6635 461.74,-98.4266"/>
<polygon fill="#9a32cd" stroke="#9a32cd" points="339.048,-40.7627 328.455,-40.6037 336.637,-47.3343 339.048,-40.7627"/>
<text text-anchor="middle" x="390" y="-78.5" font-family="Helvetica,sans-Serif" font-size="10.00"> _dlamc5</text>
</g>
<!-- Node16 -->
<g id="node16" class="node"><title>Node16</title>
<g id="a_node16"><a xlink:href="../../d1/dbf/classDotNumerics_1_1LinearAlgebra_1_1CSLapack_1_1DLAPY2.html" target="_top" xlink:title="– LAPACK auxiliary routine (version 3.1) – Univ. of Tennessee, Univ. of California Berkeley and NAG L...">
<polygon fill="white" stroke="black" points="642,-0.5 642,-30.5 780,-30.5 780,-0.5 642,-0.5"/>
<text text-anchor="start" x="650" y="-18.5" font-family="Helvetica,sans-Serif" font-size="10.00">DotNumerics.LinearAlgebra.</text>
<text text-anchor="middle" x="711" y="-7.5" font-family="Helvetica,sans-Serif" font-size="10.00">CSLapack.DLAPY2</text>
</a>
</g>
</g>
<!-- Node16&#45;&gt;Node9 -->
<g id="edge23" class="edge"><title>Node16&#45;&gt;Node9</title>
<path fill="none" stroke="#9a32cd" stroke-dasharray="5,2" d="M765.498,-33.9989C770.417,-35.815 775.311,-37.6655 780,-39.5 818.402,-54.5243 861.784,-73.4798 890.802,-86.4517"/>
<polygon fill="#9a32cd" stroke="#9a32cd" points="766.649,-30.6934 756.055,-30.562 764.255,-37.2712 766.649,-30.6934"/>
<text text-anchor="middle" x="818" y="-65.5" font-family="Helvetica,sans-Serif" font-size="10.00"> _dlapy2</text>
</g>
<!-- Node17 -->
<g id="node17" class="node"><title>Node17</title>
<g id="a_node17"><a xlink:href="../../d3/df8/classDotNumerics_1_1LinearAlgebra_1_1CSLapack_1_1DNRM2.html" target="_top" xlink:title=" ">
<polygon fill="white" stroke="black" points="642,-49.5 642,-79.5 780,-79.5 780,-49.5 642,-49.5"/>
<text text-anchor="start" x="650" y="-67.5" font-family="Helvetica,sans-Serif" font-size="10.00">DotNumerics.LinearAlgebra.</text>
<text text-anchor="middle" x="711" y="-56.5" font-family="Helvetica,sans-Serif" font-size="10.00">CSLapack.DNRM2</text>
</a>
</g>
</g>
<!-- Node17&#45;&gt;Node9 -->
<g id="edge24" class="edge"><title>Node17&#45;&gt;Node9</title>
<path fill="none" stroke="#9a32cd" stroke-dasharray="5,2" d="M790.328,-78.1705C811.843,-81.9254 834.993,-85.9658 855.883,-89.6116"/>
<polygon fill="#9a32cd" stroke="#9a32cd" points="790.698,-74.6822 780.245,-76.4107 789.494,-81.578 790.698,-74.6822"/>
<text text-anchor="middle" x="818" y="-89.5" font-family="Helvetica,sans-Serif" font-size="10.00"> _dnrm2</text>
</g>
<!-- Node18 -->
<g id="node18" class="node"><title>Node18</title>
<g id="a_node18"><a xlink:href="../../d2/dbc/interfaceDotNumerics_1_1LinearAlgebra_1_1CSLapack_1_1IDNRM2.html" target="_top" xlink:title=" ">
<polygon fill="white" stroke="black" points="470.5,-55 470.5,-74 523.5,-74 523.5,-55 470.5,-55"/>
<text text-anchor="middle" x="497" y="-62" font-family="Helvetica,sans-Serif" font-size="10.00">IDNRM2</text>
</a>
</g>
</g>
<!-- Node18&#45;&gt;Node17 -->
<g id="edge25" class="edge"><title>Node18&#45;&gt;Node17</title>
<path fill="none" stroke="midnightblue" d="M533.778,-64.5C563.19,-64.5 605.712,-64.5 641.618,-64.5"/>
<polygon fill="midnightblue" stroke="midnightblue" points="533.572,-61.0001 523.572,-64.5 533.572,-68.0001 533.572,-61.0001"/>
</g>
</g>
</svg>
        <g id="navigator" transform="translate(0 0)" fill="#404254">
                <rect fill="#f2f5e9" fill-opacity="0.5" stroke="#606060" stroke-width=".5" x="0" y="0" width="60" height="60"/>
                <use id="zoomplus" xlink:href="#zoomPlus" x="17" y="9" onmousedown="handleZoom(evt,'in')"/>
                <use id="zoomminus" xlink:href="#zoomMin" x="42" y="9" onmousedown="handleZoom(evt,'out')"/>
                <use id="reset" xlink:href="#resetDef" x="30" y="36" onmousedown="handleReset()"/>
                <g id="arrowUp" xlink:href="#dirArrow" transform="translate(30 24)" onmousedown="handlePan(0,-1)">
                  <use xlink:href="#rim" fill="#404040">
                        <set attributeName="fill" to="#808080" begin="arrowUp.mouseover" end="arrowUp.mouseout"/>
                  </use>
                  <path fill="none" stroke="white" stroke-width="1.5" d="M0,-3.0v7 M-2.5,-0.5L0,-3.0L2.5,-0.5"/>
                </g>
                <g id="arrowRight" xlink:href="#dirArrow" transform="rotate(90) translate(36 -43)" onmousedown="handlePan(1,0)">
                  <use xlink:href="#rim" fill="#404040">
                        <set attributeName="fill" to="#808080" begin="arrowRight.mouseover" end="arrowRight.mouseout"/>
                  </use>
                  <path fill="none" stroke="white" stroke-width="1.5" d="M0,-3.0v7 M-2.5,-0.5L0,-3.0L2.5,-0.5"/>
                </g>
                <g id="arrowDown" xlink:href="#dirArrow" transform="rotate(180) translate(-30 -48)" onmousedown="handlePan(0,1)">
                  <use xlink:href="#rim" fill="#404040">
                        <set attributeName="fill" to="#808080" begin="arrowDown.mouseover" end="arrowDown.mouseout"/>
                  </use>
                  <path fill="none" stroke="white" stroke-width="1.5" d="M0,-3.0v7 M-2.5,-0.5L0,-3.0L2.5,-0.5"/>
                </g>
                <g id="arrowLeft" xlink:href="#dirArrow" transform="rotate(270) translate(-36 17)" onmousedown="handlePan(-1,0)">
                  <use xlink:href="#rim" fill="#404040">
                        <set attributeName="fill" to="#808080" begin="arrowLeft.mouseover" end="arrowLeft.mouseout"/>
                  </use>
                  <path fill="none" stroke="white" stroke-width="1.5" d="M0,-3.0v7 M-2.5,-0.5L0,-3.0L2.5,-0.5"/>
                </g>
        </g>
        <svg viewBox="0 0 15 15" width="100%" height="30px" preserveAspectRatio="xMaxYMin meet">
         <g id="arrow_out" transform="scale(0.3 0.3)">
          <a xlink:href="classDotNumerics_1_1LinearAlgebra_1_1CSLapack_1_1DLATRD__coll__graph_org.svg" target="_base">
           <rect id="button" ry="5" rx="5" y="6" x="6" height="38" width="38"
                fill="#f2f5e9" fill-opacity="0.5" stroke="#606060" stroke-width="1.0"/>
           <path id="arrow"
             d="M 11.500037,31.436501 C 11.940474,20.09759 22.043105,11.32322 32.158766,21.979434 L 37.068811,17.246167 C 37.068811,17.246167 37.088388,32 37.088388,32 L 22.160133,31.978069 C 22.160133,31.978069 26.997745,27.140456 26.997745,27.140456 C 18.528582,18.264221 13.291696,25.230495 11.500037,31.436501 z"
             style="fill:#404040;"/>
          </a>
         </g>
        </svg>
</svg>
