<?xml version="1.0" encoding="UTF-8" standalone="no"?>
<!DOCTYPE svg PUBLIC "-//W3C//DTD SVG 1.1//EN"
 "http://www.w3.org/Graphics/SVG/1.1/DTD/svg11.dtd">
<!-- Generated by graphviz version 2.38.0 (20140413.2041)
 -->
<!-- Title: NUnit.Framework.Internal.TestMethod Pages: 1 -->
<svg width="455pt" height="241pt"
 viewBox="0.00 0.00 455.00 241.00" xmlns="http://www.w3.org/2000/svg" xmlns:xlink="http://www.w3.org/1999/xlink">
<g id="graph0" class="graph" transform="scale(1 1) rotate(0) translate(4 237)">
<title>NUnit.Framework.Internal.TestMethod</title>
<polygon fill="white" stroke="none" points="-4,4 -4,-237 451,-237 451,4 -4,4"/>
<!-- Node1 -->
<g id="node1" class="node"><title>Node1</title>
<g id="a_node1"><a xlink:title="The TestMethod class represents a Test implemented as a method.">
<polygon fill="#bfbfbf" stroke="black" points="167,-0.5 167,-30.5 296,-30.5 296,-0.5 167,-0.5"/>
<text text-anchor="start" x="175" y="-18.5" font-family="Helvetica,sans-Serif" font-size="10.00">NUnit.Framework.Internal.</text>
<text text-anchor="middle" x="231.5" y="-7.5" font-family="Helvetica,sans-Serif" font-size="10.00">TestMethod</text>
</a>
</g>
</g>
<!-- Node2 -->
<g id="node2" class="node"><title>Node2</title>
<g id="a_node2"><a xlink:href="../../d6/d59/classNUnit_1_1Framework_1_1Internal_1_1Test.html" target="_top" xlink:title="The Test abstract class represents a test within the framework.">
<polygon fill="white" stroke="black" points="123,-84 123,-103 158,-103 158,-84 123,-84"/>
<text text-anchor="middle" x="140.5" y="-91" font-family="Helvetica,sans-Serif" font-size="10.00">Test</text>
</a>
</g>
</g>
<!-- Node2&#45;&gt;Node1 -->
<g id="edge1" class="edge"><title>Node2&#45;&gt;Node1</title>
<path fill="none" stroke="midnightblue" d="M158.723,-77.281C175.059,-63.6374 198.832,-43.7832 214.713,-30.5198"/>
<polygon fill="midnightblue" stroke="midnightblue" points="156.371,-74.6853 150.939,-83.7818 160.858,-80.058 156.371,-74.6853"/>
</g>
<!-- Node3 -->
<g id="node3" class="node"><title>Node3</title>
<g id="a_node3"><a xlink:href="../../d6/dd5/interfaceNUnit_1_1Framework_1_1Interfaces_1_1ITest.html" target="_top" xlink:title="Common interface supported by all representations of a test. Only includes informational fields....">
<polygon fill="white" stroke="black" points="24.5,-156.5 24.5,-175.5 62.5,-175.5 62.5,-156.5 24.5,-156.5"/>
<text text-anchor="middle" x="43.5" y="-163.5" font-family="Helvetica,sans-Serif" font-size="10.00">ITest</text>
</a>
</g>
</g>
<!-- Node3&#45;&gt;Node2 -->
<g id="edge2" class="edge"><title>Node3&#45;&gt;Node2</title>
<path fill="none" stroke="midnightblue" d="M63.6417,-150.361C83.2235,-136.129 112.312,-114.987 128.509,-103.215"/>
<polygon fill="midnightblue" stroke="midnightblue" points="61.4255,-147.645 55.3941,-156.355 65.541,-153.307 61.4255,-147.645"/>
</g>
<!-- Node4 -->
<g id="node4" class="node"><title>Node4</title>
<g id="a_node4"><a xlink:href="../../d9/dc0/interfaceNUnit_1_1Framework_1_1Interfaces_1_1IXmlNodeBuilder.html" target="_top" xlink:title="An object implementing IXmlNodeBuilder is able to build an XML representation of itself and any child...">
<polygon fill="white" stroke="black" points="0,-213.5 0,-232.5 87,-232.5 87,-213.5 0,-213.5"/>
<text text-anchor="middle" x="43.5" y="-220.5" font-family="Helvetica,sans-Serif" font-size="10.00">IXmlNodeBuilder</text>
</a>
</g>
</g>
<!-- Node4&#45;&gt;Node3 -->
<g id="edge3" class="edge"><title>Node4&#45;&gt;Node3</title>
<path fill="none" stroke="midnightblue" d="M43.5,-203.117C43.5,-193.817 43.5,-183.056 43.5,-175.715"/>
<polygon fill="midnightblue" stroke="midnightblue" points="40.0001,-203.406 43.5,-213.406 47.0001,-203.406 40.0001,-203.406"/>
</g>
<!-- Node5 -->
<g id="node5" class="node"><title>Node5</title>
<g id="a_node5"><a xlink:title=" ">
<polygon fill="white" stroke="#bfbfbf" points="81,-156.5 81,-175.5 152,-175.5 152,-156.5 81,-156.5"/>
<text text-anchor="middle" x="116.5" y="-163.5" font-family="Helvetica,sans-Serif" font-size="10.00">IComparable</text>
</a>
</g>
</g>
<!-- Node5&#45;&gt;Node2 -->
<g id="edge4" class="edge"><title>Node5&#45;&gt;Node2</title>
<path fill="none" stroke="midnightblue" d="M122.705,-146.771C127.475,-132.762 133.851,-114.032 137.533,-103.215"/>
<polygon fill="midnightblue" stroke="midnightblue" points="119.352,-145.761 119.443,-156.355 125.979,-148.017 119.352,-145.761"/>
</g>
<!-- Node6 -->
<g id="node6" class="node"><title>Node6</title>
<g id="a_node6"><a xlink:title=" ">
<polygon fill="white" stroke="#bfbfbf" points="170,-156.5 170,-175.5 211,-175.5 211,-156.5 170,-156.5"/>
<text text-anchor="middle" x="190.5" y="-163.5" font-family="Helvetica,sans-Serif" font-size="10.00">static</text>
</a>
</g>
</g>
<!-- Node6&#45;&gt;Node2 -->
<g id="edge5" class="edge"><title>Node6&#45;&gt;Node2</title>
<path fill="none" stroke="#9a32cd" stroke-dasharray="5,2" d="M178.44,-147.995C168.422,-133.871 154.578,-114.351 146.681,-103.215"/>
<polygon fill="#9a32cd" stroke="#9a32cd" points="175.729,-150.223 184.369,-156.355 181.439,-146.174 175.729,-150.223"/>
<text text-anchor="middle" x="189" y="-130" font-family="Helvetica,sans-Serif" font-size="10.00"> _nextID</text>
</g>
<!-- Node7 -->
<g id="node7" class="node"><title>Node7</title>
<g id="a_node7"><a xlink:href="../../d2/d44/classNUnit_1_1Framework_1_1Internal_1_1TestCaseParameters.html" target="_top" xlink:title="The TestCaseParameters class encapsulates method arguments and other selected parameters needed for c...">
<polygon fill="white" stroke="black" points="246,-78.5 246,-108.5 375,-108.5 375,-78.5 246,-78.5"/>
<text text-anchor="start" x="254" y="-96.5" font-family="Helvetica,sans-Serif" font-size="10.00">NUnit.Framework.Internal.</text>
<text text-anchor="middle" x="310.5" y="-85.5" font-family="Helvetica,sans-Serif" font-size="10.00">TestCaseParameters</text>
</a>
</g>
</g>
<!-- Node7&#45;&gt;Node1 -->
<g id="edge6" class="edge"><title>Node7&#45;&gt;Node1</title>
<path fill="none" stroke="#9a32cd" stroke-dasharray="5,2" d="M288.186,-71.0332C274.775,-58.1316 258.081,-42.0716 246.293,-30.7309"/>
<polygon fill="#9a32cd" stroke="#9a32cd" points="286.008,-73.7944 295.641,-78.205 290.861,-68.7497 286.008,-73.7944"/>
<text text-anchor="middle" x="292" y="-52" font-family="Helvetica,sans-Serif" font-size="10.00"> parms</text>
</g>
<!-- Node8 -->
<g id="node8" class="node"><title>Node8</title>
<g id="a_node8"><a xlink:href="../../d5/d50/classNUnit_1_1Framework_1_1Internal_1_1TestParameters.html" target="_top" xlink:title="TestParameters is the abstract base class for all classes that know how to provide data for construct...">
<polygon fill="white" stroke="black" points="327.5,-156.5 327.5,-175.5 413.5,-175.5 413.5,-156.5 327.5,-156.5"/>
<text text-anchor="middle" x="370.5" y="-163.5" font-family="Helvetica,sans-Serif" font-size="10.00">TestParameters</text>
</a>
</g>
</g>
<!-- Node8&#45;&gt;Node7 -->
<g id="edge7" class="edge"><title>Node8&#45;&gt;Node7</title>
<path fill="none" stroke="midnightblue" d="M356.366,-148.393C346.06,-136.283 332.246,-120.051 322.48,-108.576"/>
<polygon fill="midnightblue" stroke="midnightblue" points="353.996,-151.008 363.143,-156.355 359.327,-146.471 353.996,-151.008"/>
</g>
<!-- Node9 -->
<g id="node9" class="node"><title>Node9</title>
<g id="a_node9"><a xlink:href="../../dc/d63/interfaceNUnit_1_1Framework_1_1Interfaces_1_1ITestData.html" target="_top" xlink:title="The ITestData interface is implemented by a class that represents a single instance of a parameterize...">
<polygon fill="white" stroke="black" points="281.5,-213.5 281.5,-232.5 339.5,-232.5 339.5,-213.5 281.5,-213.5"/>
<text text-anchor="middle" x="310.5" y="-220.5" font-family="Helvetica,sans-Serif" font-size="10.00">ITestData</text>
</a>
</g>
</g>
<!-- Node9&#45;&gt;Node8 -->
<g id="edge8" class="edge"><title>Node9&#45;&gt;Node8</title>
<path fill="none" stroke="midnightblue" d="M327.501,-206.416C338.352,-196.469 352.017,-183.943 360.993,-175.715"/>
<polygon fill="midnightblue" stroke="midnightblue" points="324.882,-204.069 319.875,-213.406 329.612,-209.229 324.882,-204.069"/>
</g>
<!-- Node11 -->
<g id="node11" class="node"><title>Node11</title>
<g id="a_node11"><a xlink:href="../../d8/dd6/interfaceNUnit_1_1Framework_1_1Interfaces_1_1ITestCaseData.html" target="_top" xlink:title="The ITestCaseData interface is implemented by a class that is able to return complete testcases for u...">
<polygon fill="white" stroke="black" points="229.5,-156.5 229.5,-175.5 309.5,-175.5 309.5,-156.5 229.5,-156.5"/>
<text text-anchor="middle" x="269.5" y="-163.5" font-family="Helvetica,sans-Serif" font-size="10.00">ITestCaseData</text>
</a>
</g>
</g>
<!-- Node9&#45;&gt;Node11 -->
<g id="edge11" class="edge"><title>Node9&#45;&gt;Node11</title>
<path fill="none" stroke="midnightblue" d="M298.002,-205.234C290.74,-195.493 281.89,-183.62 275.997,-175.715"/>
<polygon fill="midnightblue" stroke="midnightblue" points="295.311,-207.481 304.094,-213.406 300.923,-203.297 295.311,-207.481"/>
</g>
<!-- Node10 -->
<g id="node10" class="node"><title>Node10</title>
<g id="a_node10"><a xlink:href="../../d8/d57/interfaceNUnit_1_1Framework_1_1Interfaces_1_1IApplyToTest.html" target="_top" xlink:title="The IApplyToTest interface is implemented by self&#45;applying attributes that modify the state of a test...">
<polygon fill="white" stroke="black" points="374,-213.5 374,-232.5 447,-232.5 447,-213.5 374,-213.5"/>
<text text-anchor="middle" x="410.5" y="-220.5" font-family="Helvetica,sans-Serif" font-size="10.00">IApplyToTest</text>
</a>
</g>
</g>
<!-- Node10&#45;&gt;Node7 -->
<g id="edge12" class="edge"><title>Node10&#45;&gt;Node7</title>
<path fill="none" stroke="midnightblue" d="M419.983,-204.15C426.006,-190.163 431.186,-170.679 422.5,-156 408.887,-132.995 383.275,-118.021 359.975,-108.615"/>
<polygon fill="midnightblue" stroke="midnightblue" points="416.803,-202.686 415.634,-213.217 423.115,-205.714 416.803,-202.686"/>
</g>
<!-- Node10&#45;&gt;Node8 -->
<g id="edge9" class="edge"><title>Node10&#45;&gt;Node8</title>
<path fill="none" stroke="midnightblue" d="M398.307,-205.234C391.222,-195.493 382.588,-183.62 376.838,-175.715"/>
<polygon fill="midnightblue" stroke="midnightblue" points="395.538,-207.377 404.25,-213.406 401.199,-203.26 395.538,-207.377"/>
</g>
<!-- Node11&#45;&gt;Node7 -->
<g id="edge10" class="edge"><title>Node11&#45;&gt;Node7</title>
<path fill="none" stroke="midnightblue" d="M279.571,-147.683C286.566,-135.654 295.77,-119.829 302.314,-108.576"/>
<polygon fill="midnightblue" stroke="midnightblue" points="276.529,-145.951 274.527,-156.355 282.58,-149.47 276.529,-145.951"/>
</g>
</g>
</svg>
