<?xml version="1.0" encoding="UTF-8" standalone="no"?>
<!DOCTYPE svg PUBLIC "-//W3C//DTD SVG 1.1//EN"
 "http://www.w3.org/Graphics/SVG/1.1/DTD/svg11.dtd">
<!-- Generated by graphviz version 2.38.0 (20140413.2041)
 -->
<!-- Title: IG.Num.IScalarFunction Pages: 1 -->
<svg width="1120pt" height="900pt"
 viewBox="0.00 0.00 1120.00 900.26" xmlns="http://www.w3.org/2000/svg" xmlns:xlink="http://www.w3.org/1999/xlink">
<g id="graph0" class="graph" transform="scale(1 1) rotate(0) translate(4 896.264)">
<title>IG.Num.IScalarFunction</title>
<polygon fill="white" stroke="none" points="-4,4 -4,-896.264 1116,-896.264 1116,4 -4,4"/>
<!-- Node1 -->
<g id="node1" class="node"><title>Node1</title>
<g id="a_node1"><a xlink:title="Scalar functions of vector arguments, with eventual affine transformation of parameters....">
<polygon fill="#bfbfbf" stroke="black" points="183,-381.989 183,-400.989 303,-400.989 303,-381.989 183,-381.989"/>
<text text-anchor="middle" x="243" y="-388.989" font-family="Helvetica,sans-Serif" font-size="10.00">IG.Num.IScalarFunction</text>
</a>
</g>
</g>
<!-- Node3 -->
<g id="node3" class="node"><title>Node3</title>
<g id="a_node3"><a xlink:href="../../d6/ddd/classIG_1_1Lib_1_1opt_1_1opttest_1_1ParticlePotentialProblem_1_1ConstraintFunctionParticleConstraint.html" target="_top" xlink:title="Class that returns the objective function (total potential energy) of the specified particle potentia...">
<polygon fill="white" stroke="black" points="548,-476.989 548,-517.989 724,-517.989 724,-476.989 548,-476.989"/>
<text text-anchor="start" x="556" y="-505.989" font-family="Helvetica,sans-Serif" font-size="10.00">IG.Lib.opt.opttest.Particle</text>
<text text-anchor="start" x="556" y="-494.989" font-family="Helvetica,sans-Serif" font-size="10.00">PotentialProblem.ConstraintFunction</text>
<text text-anchor="middle" x="636" y="-483.989" font-family="Helvetica,sans-Serif" font-size="10.00">ParticleConstraint</text>
</a>
</g>
</g>
<!-- Node1&#45;&gt;Node3 -->
<g id="edge2" class="edge"><title>Node1&#45;&gt;Node3</title>
<path fill="none" stroke="midnightblue" d="M275.27,-404.964C293.609,-412.539 317.358,-421.789 339,-428.489 408.309,-449.944 488.557,-468.257 547.998,-480.614"/>
<polygon fill="midnightblue" stroke="midnightblue" points="276.526,-401.696 265.95,-401.067 273.825,-408.154 276.526,-401.696"/>
</g>
<!-- Node4 -->
<g id="node4" class="node"><title>Node4</title>
<g id="a_node4"><a xlink:href="../../d4/d25/classIG_1_1Lib_1_1opt_1_1opttest_1_1ParticlePotentialProblem_1_1ObjectiveFunctionPotentialEnergy.html" target="_top" xlink:title="Class that returns the objective function (total potential energy) of the specified particle potentia...">
<polygon fill="white" stroke="black" points="550.5,-416.989 550.5,-457.989 721.5,-457.989 721.5,-416.989 550.5,-416.989"/>
<text text-anchor="start" x="558.5" y="-445.989" font-family="Helvetica,sans-Serif" font-size="10.00">IG.Lib.opt.opttest.Particle</text>
<text text-anchor="start" x="558.5" y="-434.989" font-family="Helvetica,sans-Serif" font-size="10.00">PotentialProblem.ObjectiveFunction</text>
<text text-anchor="middle" x="636" y="-423.989" font-family="Helvetica,sans-Serif" font-size="10.00">PotentialEnergy</text>
</a>
</g>
</g>
<!-- Node1&#45;&gt;Node4 -->
<g id="edge3" class="edge"><title>Node1&#45;&gt;Node4</title>
<path fill="none" stroke="midnightblue" d="M313.152,-401.157C321.85,-402.312 330.629,-403.449 339,-404.489 410.197,-413.327 491.169,-422.279 550.406,-428.625"/>
<polygon fill="midnightblue" stroke="midnightblue" points="313.385,-397.657 303.008,-399.796 312.455,-404.594 313.385,-397.657"/>
</g>
<!-- Node5 -->
<g id="node5" class="node"><title>Node5</title>
<g id="a_node5"><a xlink:href="../../d4/d4e/interfaceIG_1_1Num_1_1IScalarFunctionParametric.html" target="_top" xlink:title="Parameterized scalar functions with affine transformation of coordinates.">
<polygon fill="white" stroke="black" points="339,-688.989 339,-707.989 506,-707.989 506,-688.989 339,-688.989"/>
<text text-anchor="middle" x="422.5" y="-695.989" font-family="Helvetica,sans-Serif" font-size="10.00">IG.Num.IScalarFunctionParametric</text>
</a>
</g>
</g>
<!-- Node1&#45;&gt;Node5 -->
<g id="edge4" class="edge"><title>Node1&#45;&gt;Node5</title>
<path fill="none" stroke="midnightblue" d="M247.794,-411.338C257.021,-455.538 284.023,-563.886 339,-636.489 356.522,-659.628 384.905,-678.31 403.386,-688.909"/>
<polygon fill="midnightblue" stroke="midnightblue" points="251.182,-410.434 245.782,-401.319 244.319,-411.813 251.182,-410.434"/>
</g>
<!-- Node7 -->
<g id="node7" class="node"><title>Node7</title>
<g id="a_node7"><a xlink:href="../../d1/dd8/classIG_1_1Num_1_1ScalarFunctionRadialOneParametric.html" target="_top" xlink:title="Base class for one parametric families of radial scalar functions with affine transformation of co&#45;or...">
<polygon fill="white" stroke="black" points="967,-781.489 967,-811.489 1112,-811.489 1112,-781.489 967,-781.489"/>
<text text-anchor="start" x="975" y="-799.489" font-family="Helvetica,sans-Serif" font-size="10.00">IG.Num.ScalarFunctionRadial</text>
<text text-anchor="middle" x="1039.5" y="-788.489" font-family="Helvetica,sans-Serif" font-size="10.00">OneParametric</text>
</a>
</g>
</g>
<!-- Node1&#45;&gt;Node7 -->
<g id="edge40" class="edge"><title>Node1&#45;&gt;Node7</title>
<path fill="none" stroke="midnightblue" d="M246.261,-411.45C254.614,-481.569 286.02,-715.029 339,-764.489 532.991,-945.588 671.02,-895.775 931,-842.489 959.836,-836.578 990.494,-822.606 1011.66,-811.6"/>
<polygon fill="midnightblue" stroke="midnightblue" points="249.715,-410.846 245.081,-401.318 242.762,-411.656 249.715,-410.846"/>
</g>
<!-- Node8 -->
<g id="node8" class="node"><title>Node8</title>
<g id="a_node8"><a xlink:href="../../d5/dd5/classIG_1_1Num_1_1ScalarFunctionOneParametric.html" target="_top" xlink:title="Base class for one parametric families of scalar functions with affine transformation of co&#45;ordinates...">
<polygon fill="white" stroke="black" points="780.5,-607.489 780.5,-637.489 916.5,-637.489 916.5,-607.489 780.5,-607.489"/>
<text text-anchor="start" x="788.5" y="-625.489" font-family="Helvetica,sans-Serif" font-size="10.00">IG.Num.ScalarFunctionOne</text>
<text text-anchor="middle" x="848.5" y="-614.489" font-family="Helvetica,sans-Serif" font-size="10.00">Parametric</text>
</a>
</g>
</g>
<!-- Node1&#45;&gt;Node8 -->
<g id="edge36" class="edge"><title>Node1&#45;&gt;Node8</title>
<path fill="none" stroke="midnightblue" d="M253.922,-409.808C268.88,-435.643 299.688,-482.419 339,-507.489 376.155,-531.183 651.063,-585.38 780.484,-609.958"/>
<polygon fill="midnightblue" stroke="midnightblue" points="256.932,-408.022 248.98,-401.021 250.831,-411.453 256.932,-408.022"/>
</g>
<!-- Node9 -->
<g id="node9" class="node"><title>Node9</title>
<g id="a_node9"><a xlink:href="../../d8/d5b/classIG_1_1Num_1_1ScalarFunctionParametric.html" target="_top" xlink:title="Base class for parameterized scalar functions with affine transformation of co&#45;ordinates....">
<polygon fill="white" stroke="black" points="766,-726.989 766,-745.989 931,-745.989 931,-726.989 766,-726.989"/>
<text text-anchor="middle" x="848.5" y="-733.989" font-family="Helvetica,sans-Serif" font-size="10.00">IG.Num.ScalarFunctionParametric</text>
</a>
</g>
</g>
<!-- Node1&#45;&gt;Node9 -->
<g id="edge37" class="edge"><title>Node1&#45;&gt;Node9</title>
<path fill="none" stroke="midnightblue" d="M246.806,-411.154C256.399,-475.426 290.027,-677.447 339,-717.489 482.966,-835.198 733.983,-772.177 818.664,-746.056"/>
<polygon fill="midnightblue" stroke="midnightblue" points="250.251,-410.52 245.34,-401.132 243.324,-411.533 250.251,-410.52"/>
</g>
<!-- Node10 -->
<g id="node10" class="node"><title>Node10</title>
<g id="a_node10"><a xlink:href="../../d3/dbb/classIG_1_1Num_1_1ScalarFunctionParametricBase.html" target="_top" xlink:title="Base class for parameterized scalar functions with affine transformation of co&#45;ordinates....">
<polygon fill="white" stroke="black" points="542,-612.989 542,-631.989 730,-631.989 730,-612.989 542,-612.989"/>
<text text-anchor="middle" x="636" y="-619.989" font-family="Helvetica,sans-Serif" font-size="10.00">IG.Num.ScalarFunctionParametricBase</text>
</a>
</g>
</g>
<!-- Node1&#45;&gt;Node10 -->
<g id="edge38" class="edge"><title>Node1&#45;&gt;Node10</title>
<path fill="none" stroke="midnightblue" d="M246.466,-411.138C252.937,-453.538 274.609,-553.416 339,-598.489 370.784,-620.737 467.499,-625.121 541.815,-624.956"/>
<polygon fill="midnightblue" stroke="midnightblue" points="249.901,-410.429 245.048,-401.011 242.969,-411.4 249.901,-410.429"/>
</g>
<!-- Node11 -->
<g id="node11" class="node"><title>Node11</title>
<g id="a_node11"><a xlink:href="../../d4/d52/classIG_1_1Num_1_1ScalarFunctionRadialParametric.html" target="_top" xlink:title="Parametric scalar function.">
<polygon fill="white" stroke="black" points="776,-545.489 776,-575.489 921,-575.489 921,-545.489 776,-545.489"/>
<text text-anchor="start" x="784" y="-563.489" font-family="Helvetica,sans-Serif" font-size="10.00">IG.Num.ScalarFunctionRadial</text>
<text text-anchor="middle" x="848.5" y="-552.489" font-family="Helvetica,sans-Serif" font-size="10.00">Parametric</text>
</a>
</g>
</g>
<!-- Node1&#45;&gt;Node11 -->
<g id="edge41" class="edge"><title>Node1&#45;&gt;Node11</title>
<path fill="none" stroke="midnightblue" d="M261.798,-407.989C279.991,-424.096 309.664,-448.329 339,-463.489 481.918,-537.344 673.583,-555.341 775.952,-559.486"/>
<polygon fill="midnightblue" stroke="midnightblue" points="264.061,-405.317 254.289,-401.222 259.375,-410.517 264.061,-405.317"/>
</g>
<!-- Node12 -->
<g id="node12" class="node"><title>Node12</title>
<g id="a_node12"><a xlink:href="../../d2/d85/classIG_1_1Num_1_1ScalarFunctionBase.html" target="_top" xlink:title="Base class for scalar functions with affine transformation of co&#45;ordinates. The reference function is...">
<polygon fill="white" stroke="black" points="352.5,-267.989 352.5,-286.989 492.5,-286.989 492.5,-267.989 352.5,-267.989"/>
<text text-anchor="middle" x="422.5" y="-274.989" font-family="Helvetica,sans-Serif" font-size="10.00">IG.Num.ScalarFunctionBase</text>
</a>
</g>
</g>
<!-- Node1&#45;&gt;Node12 -->
<g id="edge15" class="edge"><title>Node1&#45;&gt;Node12</title>
<path fill="none" stroke="midnightblue" d="M257.956,-373.944C275.006,-353.646 305.718,-320.577 339,-301.489 349.869,-295.255 362.488,-290.528 374.538,-286.99"/>
<polygon fill="midnightblue" stroke="midnightblue" points="255.16,-371.834 251.518,-381.783 260.569,-376.277 255.16,-371.834"/>
</g>
<!-- Node15 -->
<g id="node15" class="node"><title>Node15</title>
<g id="a_node15"><a xlink:href="../../da/d3e/classIG_1_1Num_1_1ScalarFunctionExamples_1_1ParaboloidSymmetric2D.html" target="_top" xlink:title="Symmetric paraboloid centered at coordinate origin. f(x,y) = x^2 + y^2 &#45; R2. If R2 is positive then 0...">
<polygon fill="white" stroke="black" points="554,-329.489 554,-359.489 718,-359.489 718,-329.489 554,-329.489"/>
<text text-anchor="start" x="562" y="-347.489" font-family="Helvetica,sans-Serif" font-size="10.00">IG.Num.ScalarFunctionExamples.</text>
<text text-anchor="middle" x="636" y="-336.489" font-family="Helvetica,sans-Serif" font-size="10.00">ParaboloidSymmetric2D</text>
</a>
</g>
</g>
<!-- Node1&#45;&gt;Node15 -->
<g id="edge30" class="edge"><title>Node1&#45;&gt;Node15</title>
<path fill="none" stroke="midnightblue" d="M313.472,-383.138C380.819,-375.042 482.941,-362.767 553.959,-354.23"/>
<polygon fill="midnightblue" stroke="midnightblue" points="312.895,-379.682 303.384,-384.35 313.731,-386.632 312.895,-379.682"/>
</g>
<!-- Node16 -->
<g id="node16" class="node"><title>Node16</title>
<g id="a_node16"><a xlink:href="../../d6/d0c/classIG_1_1Num_1_1ScalarFunctionExamples_1_1Quadratic2d.html" target="_top" xlink:title="Example quadratic polynomial in 2D. f(x,y) = 2*x^2 + y^2 + x*y + x + y + 10.">
<polygon fill="white" stroke="black" points="554,-280.489 554,-310.489 718,-310.489 718,-280.489 554,-280.489"/>
<text text-anchor="start" x="562" y="-298.489" font-family="Helvetica,sans-Serif" font-size="10.00">IG.Num.ScalarFunctionExamples.</text>
<text text-anchor="middle" x="636" y="-287.489" font-family="Helvetica,sans-Serif" font-size="10.00">Quadratic2d</text>
</a>
</g>
</g>
<!-- Node1&#45;&gt;Node16 -->
<g id="edge31" class="edge"><title>Node1&#45;&gt;Node16</title>
<path fill="none" stroke="midnightblue" d="M277.408,-378.263C295.453,-371.443 318.232,-363.35 339,-357.489 410.753,-337.237 493.978,-320.376 553.871,-309.375"/>
<polygon fill="midnightblue" stroke="midnightblue" points="276,-375.054 267.913,-381.899 278.503,-381.592 276,-375.054"/>
</g>
<!-- Node17 -->
<g id="node17" class="node"><title>Node17</title>
<g id="a_node17"><a xlink:href="../../d2/dcc/classIG_1_1Num_1_1ScalarFunctionExamples_1_1Quadratic3d.html" target="_top" xlink:title="Example quadratic polynomial in 3D. f(x,y,z) = x*x + 2*y*y + 4*z*z + x*y + 2*y*z + 4*z*x + x + y + z ...">
<polygon fill="white" stroke="black" points="554,-192.489 554,-222.489 718,-222.489 718,-192.489 554,-192.489"/>
<text text-anchor="start" x="562" y="-210.489" font-family="Helvetica,sans-Serif" font-size="10.00">IG.Num.ScalarFunctionExamples.</text>
<text text-anchor="middle" x="636" y="-199.489" font-family="Helvetica,sans-Serif" font-size="10.00">Quadratic3d</text>
</a>
</g>
</g>
<!-- Node1&#45;&gt;Node17 -->
<g id="edge32" class="edge"><title>Node1&#45;&gt;Node17</title>
<path fill="none" stroke="midnightblue" d="M251.764,-372.564C264.961,-342.98 294.714,-286.29 339,-258.489 373.945,-236.551 478.796,-222.247 553.773,-214.522"/>
<polygon fill="midnightblue" stroke="midnightblue" points="248.525,-371.237 247.791,-381.806 254.956,-374.002 248.525,-371.237"/>
</g>
<!-- Node18 -->
<g id="node18" class="node"><title>Node18</title>
<g id="a_node18"><a xlink:href="../../dd/dd0/classIG_1_1Num_1_1ScalarFunctionExamples_1_1Rosenbrock.html" target="_top" xlink:title="RosenBrock function. f(x,y) = (1&#45;x)^2 + 100 * (y&#45;x^2)^2">
<polygon fill="white" stroke="black" points="554,-143.489 554,-173.489 718,-173.489 718,-143.489 554,-143.489"/>
<text text-anchor="start" x="562" y="-161.489" font-family="Helvetica,sans-Serif" font-size="10.00">IG.Num.ScalarFunctionExamples.</text>
<text text-anchor="middle" x="636" y="-150.489" font-family="Helvetica,sans-Serif" font-size="10.00">Rosenbrock</text>
</a>
</g>
</g>
<!-- Node1&#45;&gt;Node18 -->
<g id="edge33" class="edge"><title>Node1&#45;&gt;Node18</title>
<path fill="none" stroke="midnightblue" d="M248.841,-371.711C258.906,-335.035 285.722,-256.653 339,-217.489 372.512,-192.854 478.287,-176.084 553.815,-166.897"/>
<polygon fill="midnightblue" stroke="midnightblue" points="245.382,-371.105 246.244,-381.665 252.155,-372.872 245.382,-371.105"/>
</g>
<!-- Node19 -->
<g id="node19" class="node"><title>Node19</title>
<g id="a_node19"><a xlink:href="../../dd/d66/classIG_1_1Num_1_1ScalarFunctionExamples_1_1RosenbrockGeneralizedAdjacent.html" target="_top" xlink:title="Generalzed multivariate RosenBrock function for Dim &gt;= 2.">
<polygon fill="white" stroke="black" points="554,-94.4885 554,-124.489 718,-124.489 718,-94.4885 554,-94.4885"/>
<text text-anchor="start" x="562" y="-112.489" font-family="Helvetica,sans-Serif" font-size="10.00">IG.Num.ScalarFunctionExamples.</text>
<text text-anchor="middle" x="636" y="-101.489" font-family="Helvetica,sans-Serif" font-size="10.00">RosenbrockGeneralizedAdjacent</text>
</a>
</g>
</g>
<!-- Node1&#45;&gt;Node19 -->
<g id="edge34" class="edge"><title>Node1&#45;&gt;Node19</title>
<path fill="none" stroke="midnightblue" d="M246.392,-371.72C252.776,-328.072 274.387,-223.17 339,-170.489 399.286,-121.335 489.015,-108.654 553.868,-106.688"/>
<polygon fill="midnightblue" stroke="midnightblue" points="242.92,-371.273 245.052,-381.651 249.858,-372.209 242.92,-371.273"/>
</g>
<!-- Node20 -->
<g id="node20" class="node"><title>Node20</title>
<g id="a_node20"><a xlink:href="../../d5/dad/classIG_1_1Num_1_1ScalarFunctionExamples_1_1RosenbrockGeneralizedExhaustive.html" target="_top" xlink:title="Generalzed multivariate RosenBrock function for Dim &gt;= 2.">
<polygon fill="white" stroke="black" points="552.5,-45.4885 552.5,-75.4885 719.5,-75.4885 719.5,-45.4885 552.5,-45.4885"/>
<text text-anchor="start" x="560.5" y="-63.4885" font-family="Helvetica,sans-Serif" font-size="10.00">IG.Num.ScalarFunctionExamples.</text>
<text text-anchor="middle" x="636" y="-52.4885" font-family="Helvetica,sans-Serif" font-size="10.00">RosenbrockGeneralizedExhaustive</text>
</a>
</g>
</g>
<!-- Node1&#45;&gt;Node20 -->
<g id="edge35" class="edge"><title>Node1&#45;&gt;Node20</title>
<path fill="none" stroke="midnightblue" d="M244.133,-371.523C245.647,-319.262 257.454,-177.711 339,-108.489 397.64,-58.7102 487.19,-50.402 552.437,-52.2763"/>
<polygon fill="midnightblue" stroke="midnightblue" points="240.629,-371.715 243.941,-381.779 247.628,-371.846 240.629,-371.715"/>
</g>
<!-- Node21 -->
<g id="node21" class="node"><title>Node21</title>
<g id="a_node21"><a xlink:href="../../df/dd1/classIG_1_1Num_1_1ScalarFunctionRadial.html" target="_top" xlink:title="Radial scalar functions.">
<polygon fill="white" stroke="black" points="563.5,-378.989 563.5,-397.989 708.5,-397.989 708.5,-378.989 563.5,-378.989"/>
<text text-anchor="middle" x="636" y="-385.989" font-family="Helvetica,sans-Serif" font-size="10.00">IG.Num.ScalarFunctionRadial</text>
</a>
</g>
</g>
<!-- Node1&#45;&gt;Node21 -->
<g id="edge39" class="edge"><title>Node1&#45;&gt;Node21</title>
<path fill="none" stroke="midnightblue" d="M313.487,-390.955C383.888,-390.415 492.279,-389.584 563.421,-389.038"/>
<polygon fill="midnightblue" stroke="midnightblue" points="313.357,-387.456 303.384,-391.033 313.411,-394.456 313.357,-387.456"/>
</g>
<!-- Node22 -->
<g id="node22" class="node"><title>Node22</title>
<g id="a_node22"><a xlink:href="../../de/d0d/classIG_1_1Num_1_1ScalarFunctionTransformed.html" target="_top" xlink:title="Scalar function that is defined as some reference function evaluated at inverse affine&#45;trasformed par...">
<polygon fill="white" stroke="black" points="550.5,-6.98852 550.5,-25.9885 721.5,-25.9885 721.5,-6.98852 550.5,-6.98852"/>
<text text-anchor="middle" x="636" y="-13.9885" font-family="Helvetica,sans-Serif" font-size="10.00">IG.Num.ScalarFunctionTransformed</text>
</a>
</g>
</g>
<!-- Node1&#45;&gt;Node22 -->
<g id="edge42" class="edge"><title>Node1&#45;&gt;Node22</title>
<path fill="none" stroke="midnightblue" d="M246.581,-371.779C255.677,-305.521 288.441,-92.5457 339,-49.4885 408.58,9.7675 523.181,2.93017 587.467,-6.98184"/>
<polygon fill="midnightblue" stroke="midnightblue" points="243.105,-371.367 245.241,-381.744 250.043,-372.3 243.105,-371.367"/>
</g>
<!-- Node2 -->
<g id="node2" class="node"><title>Node2</title>
<g id="a_node2"><a xlink:href="../../d8/d56/interfaceIG_1_1Num_1_1IScalarFunctionUntransformed.html" target="_top" xlink:title="Scalar functions of vector arguments.">
<polygon fill="white" stroke="black" points="0,-381.989 0,-400.989 147,-400.989 147,-381.989 0,-381.989"/>
<text text-anchor="middle" x="73.5" y="-388.989" font-family="Helvetica,sans-Serif" font-size="10.00">IScalarFunctionUntransformed</text>
</a>
</g>
</g>
<!-- Node2&#45;&gt;Node1 -->
<g id="edge1" class="edge"><title>Node2&#45;&gt;Node1</title>
<path fill="none" stroke="midnightblue" d="M157.496,-391.489C166.05,-391.489 174.614,-391.489 182.832,-391.489"/>
<polygon fill="midnightblue" stroke="midnightblue" points="157.481,-387.989 147.481,-391.489 157.481,-394.989 157.481,-387.989"/>
</g>
<!-- Node6 -->
<g id="node6" class="node"><title>Node6</title>
<g id="a_node6"><a xlink:href="../../d1/d49/interfaceIG_1_1Num_1_1IScalarFunctionOneParametric.html" target="_top" xlink:title=" ">
<polygon fill="white" stroke="black" points="779.5,-803.489 779.5,-833.489 917.5,-833.489 917.5,-803.489 779.5,-803.489"/>
<text text-anchor="start" x="787.5" y="-821.489" font-family="Helvetica,sans-Serif" font-size="10.00">IG.Num.IScalarFunctionOne</text>
<text text-anchor="middle" x="848.5" y="-810.489" font-family="Helvetica,sans-Serif" font-size="10.00">Parametric</text>
</a>
</g>
</g>
<!-- Node5&#45;&gt;Node6 -->
<g id="edge5" class="edge"><title>Node5&#45;&gt;Node6</title>
<path fill="none" stroke="midnightblue" d="M439.704,-715.623C460.944,-736.844 500.414,-772.181 542,-788.489 619.275,-818.792 715.603,-823.326 779.196,-822.231"/>
<polygon fill="midnightblue" stroke="midnightblue" points="441.985,-712.95 432.49,-708.251 436.982,-717.846 441.985,-712.95"/>
</g>
<!-- Node5&#45;&gt;Node7 -->
<g id="edge12" class="edge"><title>Node5&#45;&gt;Node7</title>
<path fill="none" stroke="midnightblue" d="M460.22,-711.418C483.413,-719.139 514.154,-728.565 542,-734.489 691.329,-766.252 869.63,-783.624 966.742,-791.394"/>
<polygon fill="midnightblue" stroke="midnightblue" points="461.048,-708.003 450.454,-708.119 458.808,-714.635 461.048,-708.003"/>
</g>
<!-- Node5&#45;&gt;Node8 -->
<g id="edge7" class="edge"><title>Node5&#45;&gt;Node8</title>
<path fill="none" stroke="midnightblue" d="M516.1,-699.327C577.598,-697.921 659.655,-692.255 730,-674.489 762.443,-666.295 797.207,-649.85 820.434,-637.637"/>
<polygon fill="midnightblue" stroke="midnightblue" points="515.956,-695.829 506.026,-699.524 516.093,-702.828 515.956,-695.829"/>
</g>
<!-- Node5&#45;&gt;Node9 -->
<g id="edge8" class="edge"><title>Node5&#45;&gt;Node9</title>
<path fill="none" stroke="midnightblue" d="M510.413,-709.152C521.047,-710.34 531.767,-711.482 542,-712.489 617.713,-719.932 704.165,-726.548 765.733,-730.939"/>
<polygon fill="midnightblue" stroke="midnightblue" points="510.595,-705.651 500.264,-708.003 509.806,-712.606 510.595,-705.651"/>
</g>
<!-- Node5&#45;&gt;Node10 -->
<g id="edge9" class="edge"><title>Node5&#45;&gt;Node10</title>
<path fill="none" stroke="midnightblue" d="M451.942,-684.459C475.629,-673.153 510.463,-657.398 542,-646.489 558.074,-640.928 576.103,-635.989 591.977,-632.058"/>
<polygon fill="midnightblue" stroke="midnightblue" points="450.312,-681.359 442.823,-688.854 453.351,-687.665 450.312,-681.359"/>
</g>
<!-- Node5&#45;&gt;Node11 -->
<g id="edge13" class="edge"><title>Node5&#45;&gt;Node11</title>
<path fill="none" stroke="midnightblue" d="M478.851,-686.967C498.74,-682.91 521.356,-678.39 542,-674.489 625.357,-658.734 656.78,-684.332 730,-641.489 751.808,-628.728 745.972,-612.892 766,-597.489 777.455,-588.678 791.343,-581.386 804.385,-575.672"/>
<polygon fill="midnightblue" stroke="midnightblue" points="478.12,-683.544 469.026,-688.979 479.525,-690.402 478.12,-683.544"/>
</g>
<!-- Node6&#45;&gt;Node7 -->
<g id="edge6" class="edge"><title>Node6&#45;&gt;Node7</title>
<path fill="none" stroke="midnightblue" d="M927.963,-809.355C940.852,-807.855 954.15,-806.307 966.862,-804.827"/>
<polygon fill="midnightblue" stroke="midnightblue" points="927.262,-805.913 917.733,-810.546 928.071,-812.866 927.262,-805.913"/>
</g>
<!-- Node10&#45;&gt;Node8 -->
<g id="edge10" class="edge"><title>Node10&#45;&gt;Node8</title>
<path fill="none" stroke="midnightblue" d="M740.537,-622.489C754.022,-622.489 767.544,-622.489 780.218,-622.489"/>
<polygon fill="midnightblue" stroke="midnightblue" points="740.248,-618.989 730.248,-622.489 740.248,-625.989 740.248,-618.989"/>
</g>
<!-- Node10&#45;&gt;Node9 -->
<g id="edge11" class="edge"><title>Node10&#45;&gt;Node9</title>
<path fill="none" stroke="midnightblue" d="M663.464,-636.82C707.056,-660.429 792.816,-706.873 829.817,-726.912"/>
<polygon fill="midnightblue" stroke="midnightblue" points="665.045,-633.697 654.585,-632.012 661.712,-639.852 665.045,-633.697"/>
</g>
<!-- Node11&#45;&gt;Node7 -->
<g id="edge14" class="edge"><title>Node11&#45;&gt;Node7</title>
<path fill="none" stroke="midnightblue" d="M905.468,-579.981C914.658,-584.776 923.587,-590.571 931,-597.489 989.279,-651.872 1022.73,-745.138 1034.08,-781.425"/>
<polygon fill="midnightblue" stroke="midnightblue" points="906.763,-576.719 896.237,-575.514 903.714,-583.021 906.763,-576.719"/>
</g>
<!-- Node12&#45;&gt;Node3 -->
<g id="edge18" class="edge"><title>Node12&#45;&gt;Node3</title>
<path fill="none" stroke="midnightblue" d="M430.348,-296.901C444.849,-335.223 482.303,-420.909 542,-467.489 546.548,-471.037 551.528,-474.172 556.745,-476.941"/>
<polygon fill="midnightblue" stroke="midnightblue" points="433.454,-295.204 426.726,-287.02 426.882,-297.614 433.454,-295.204"/>
</g>
<!-- Node12&#45;&gt;Node4 -->
<g id="edge19" class="edge"><title>Node12&#45;&gt;Node4</title>
<path fill="none" stroke="midnightblue" d="M435.359,-295.665C454.52,-323.645 494.933,-377.197 542,-407.489 547.421,-410.977 553.282,-414.091 559.333,-416.865"/>
<polygon fill="midnightblue" stroke="midnightblue" points="438.176,-293.581 429.697,-287.228 432.363,-297.481 438.176,-293.581"/>
</g>
<!-- Node12&#45;&gt;Node10 -->
<g id="edge26" class="edge"><title>Node12&#45;&gt;Node10</title>
<path fill="none" stroke="midnightblue" d="M430.134,-296.799C445.623,-340.371 487.058,-448.66 542,-527.489 566.547,-562.708 604.518,-596.899 623.448,-612.964"/>
<polygon fill="midnightblue" stroke="midnightblue" points="433.372,-295.455 426.763,-287.174 426.765,-297.768 433.372,-295.455"/>
</g>
<!-- Node13 -->
<g id="node13" class="node"><title>Node13</title>
<g id="a_node13"><a xlink:href="../../d5/d06/classIG_1_1Lib_1_1LoadableScalarFunctionBase.html" target="_top" xlink:title="A ScalarFunction class used as base class for dynamically loaded scalar functions....">
<polygon fill="white" stroke="black" points="550,-241.989 550,-260.989 722,-260.989 722,-241.989 550,-241.989"/>
<text text-anchor="middle" x="636" y="-248.989" font-family="Helvetica,sans-Serif" font-size="10.00">IG.Lib.LoadableScalarFunctionBase</text>
</a>
</g>
</g>
<!-- Node12&#45;&gt;Node13 -->
<g id="edge16" class="edge"><title>Node12&#45;&gt;Node13</title>
<path fill="none" stroke="midnightblue" d="M503.107,-267.702C520.929,-265.511 539.807,-263.191 557.54,-261.011"/>
<polygon fill="midnightblue" stroke="midnightblue" points="502.251,-264.281 492.753,-268.975 503.105,-271.229 502.251,-264.281"/>
</g>
<!-- Node12&#45;&gt;Node15 -->
<g id="edge20" class="edge"><title>Node12&#45;&gt;Node15</title>
<path fill="none" stroke="midnightblue" d="M458.26,-290.614C481.75,-299.285 513.551,-310.638 542,-319.489 553.015,-322.915 564.849,-326.311 576.259,-329.444"/>
<polygon fill="midnightblue" stroke="midnightblue" points="459.328,-287.278 448.735,-287.078 456.892,-293.84 459.328,-287.278"/>
</g>
<!-- Node12&#45;&gt;Node16 -->
<g id="edge21" class="edge"><title>Node12&#45;&gt;Node16</title>
<path fill="none" stroke="midnightblue" d="M502.968,-284.252C519.591,-285.666 537.14,-287.16 553.824,-288.58"/>
<polygon fill="midnightblue" stroke="midnightblue" points="503.014,-280.743 492.753,-283.382 502.42,-287.718 503.014,-280.743"/>
</g>
<!-- Node12&#45;&gt;Node17 -->
<g id="edge22" class="edge"><title>Node12&#45;&gt;Node17</title>
<path fill="none" stroke="midnightblue" d="M468.215,-265.009C480.616,-261.115 493.971,-256.51 506,-251.489 522.695,-244.519 525.16,-239.1 542,-232.489 551.338,-228.823 561.407,-225.502 571.352,-222.566"/>
<polygon fill="midnightblue" stroke="midnightblue" points="467.059,-261.703 458.519,-267.974 469.105,-268.397 467.059,-261.703"/>
</g>
<!-- Node12&#45;&gt;Node18 -->
<g id="edge23" class="edge"><title>Node12&#45;&gt;Node18</title>
<path fill="none" stroke="midnightblue" d="M443.347,-261.218C475.627,-234.807 536.481,-185.252 542,-182.489 548.859,-179.055 556.256,-176.08 563.775,-173.51"/>
<polygon fill="midnightblue" stroke="midnightblue" points="440.957,-258.651 435.437,-267.694 445.392,-264.067 440.957,-258.651"/>
</g>
<!-- Node12&#45;&gt;Node19 -->
<g id="edge24" class="edge"><title>Node12&#45;&gt;Node19</title>
<path fill="none" stroke="midnightblue" d="M436.092,-259.538C460.778,-224.826 515.433,-150.42 542,-133.489 547.344,-130.083 553.15,-127.16 559.164,-124.651"/>
<polygon fill="midnightblue" stroke="midnightblue" points="433.149,-257.638 430.234,-267.824 438.865,-261.679 433.149,-257.638"/>
</g>
<!-- Node12&#45;&gt;Node20 -->
<g id="edge25" class="edge"><title>Node12&#45;&gt;Node20</title>
<path fill="none" stroke="midnightblue" d="M429.845,-257.965C443.63,-218.735 480.143,-130.194 542,-84.4885 546.694,-81.0203 551.843,-78.0518 557.234,-75.5112"/>
<polygon fill="midnightblue" stroke="midnightblue" points="426.459,-257.052 426.558,-267.646 433.087,-259.303 426.459,-257.052"/>
</g>
<!-- Node12&#45;&gt;Node21 -->
<g id="edge27" class="edge"><title>Node12&#45;&gt;Node21</title>
<path fill="none" stroke="midnightblue" d="M440.315,-294.392C461.924,-315.106 501.503,-349.751 542,-368.489 551.443,-372.858 561.87,-376.287 572.226,-378.976"/>
<polygon fill="midnightblue" stroke="midnightblue" points="442.548,-291.681 432.949,-287.198 437.657,-296.689 442.548,-291.681"/>
</g>
<!-- Node12&#45;&gt;Node22 -->
<g id="edge29" class="edge"><title>Node12&#45;&gt;Node22</title>
<path fill="none" stroke="midnightblue" d="M427.007,-257.987C436.454,-211.464 466.972,-93.5363 542,-35.4885 546.953,-31.6566 552.484,-28.5436 558.314,-26.0206"/>
<polygon fill="midnightblue" stroke="midnightblue" points="423.54,-257.484 425.087,-267.965 430.414,-258.806 423.54,-257.484"/>
</g>
<!-- Node14 -->
<g id="node14" class="node"><title>Node14</title>
<g id="a_node14"><a xlink:href="../../db/d3b/classIG_1_1Script_1_1ScritpScalarFunctionExample_1_1Container_1_1Function.html" target="_top" xlink:title=" ">
<polygon fill="white" stroke="black" points="774,-236.489 774,-266.489 923,-266.489 923,-236.489 774,-236.489"/>
<text text-anchor="start" x="782" y="-254.489" font-family="Helvetica,sans-Serif" font-size="10.00">IG.Script.ScritpScalarFunction</text>
<text text-anchor="middle" x="848.5" y="-243.489" font-family="Helvetica,sans-Serif" font-size="10.00">Example.Container.Function</text>
</a>
</g>
</g>
<!-- Node13&#45;&gt;Node14 -->
<g id="edge17" class="edge"><title>Node13&#45;&gt;Node14</title>
<path fill="none" stroke="midnightblue" d="M732.111,-251.489C746.059,-251.489 760.246,-251.489 773.681,-251.489"/>
<polygon fill="midnightblue" stroke="midnightblue" points="732.012,-247.989 722.012,-251.489 732.012,-254.989 732.012,-247.989"/>
</g>
<!-- Node21&#45;&gt;Node11 -->
<g id="edge28" class="edge"><title>Node21&#45;&gt;Node11</title>
<path fill="none" stroke="midnightblue" d="M717.978,-401.202C722.165,-403.031 726.203,-405.115 730,-407.489 785.946,-442.463 825.369,-514.213 840.568,-545.427"/>
<polygon fill="midnightblue" stroke="midnightblue" points="719.204,-397.924 708.615,-397.593 716.686,-404.455 719.204,-397.924"/>
</g>
</g>
</svg>
