<?xml version="1.0" encoding="UTF-8" standalone="no"?>
<!DOCTYPE svg PUBLIC "-//W3C//DTD SVG 1.1//EN"
 "http://www.w3.org/Graphics/SVG/1.1/DTD/svg11.dtd">
<!-- Generated by graphviz version 2.38.0 (20140413.2041)
 -->
<!-- Title: Meta.Numerics.Analysis.SpaceExtremum Pages: 1 -->
<svg width="274pt" height="299pt"
 viewBox="0.00 0.00 273.50 299.00" xmlns="http://www.w3.org/2000/svg" xmlns:xlink="http://www.w3.org/1999/xlink">
<g id="graph0" class="graph" transform="scale(1 1) rotate(0) translate(4 295)">
<title>Meta.Numerics.Analysis.SpaceExtremum</title>
<polygon fill="white" stroke="none" points="-4,4 -4,-295 269.5,-295 269.5,4 -4,4"/>
<!-- Node1 -->
<g id="node1" class="node"><title>Node1</title>
<g id="a_node1"><a xlink:title="Represents a maximum or minimum of a function on a multi&#45;dimensional space.">
<polygon fill="#bfbfbf" stroke="black" points="47.5,-0.5 47.5,-30.5 201.5,-30.5 201.5,-0.5 47.5,-0.5"/>
<text text-anchor="start" x="55.5" y="-18.5" font-family="Helvetica,sans-Serif" font-size="10.00">Meta.Numerics.Analysis.Space</text>
<text text-anchor="middle" x="124.5" y="-7.5" font-family="Helvetica,sans-Serif" font-size="10.00">Extremum</text>
</a>
</g>
</g>
<!-- Node2 -->
<g id="node2" class="node"><title>Node2</title>
<g id="a_node2"><a xlink:href="../../d3/d15/classMeta_1_1Numerics_1_1Matrices_1_1SymmetricMatrix.html" target="_top" xlink:title="Represents a symmetric matrix.">
<polygon fill="white" stroke="black" points="38,-78.5 38,-108.5 211,-108.5 211,-78.5 38,-78.5"/>
<text text-anchor="start" x="46" y="-96.5" font-family="Helvetica,sans-Serif" font-size="10.00">Meta.Numerics.Matrices.Symmetric</text>
<text text-anchor="middle" x="124.5" y="-85.5" font-family="Helvetica,sans-Serif" font-size="10.00">Matrix</text>
</a>
</g>
</g>
<!-- Node2&#45;&gt;Node1 -->
<g id="edge1" class="edge"><title>Node2&#45;&gt;Node1</title>
<path fill="none" stroke="#9a32cd" stroke-dasharray="5,2" d="M124.5,-68.0898C124.5,-55.7565 124.5,-41.2237 124.5,-30.7309"/>
<polygon fill="#9a32cd" stroke="#9a32cd" points="121,-68.2049 124.5,-78.205 128,-68.205 121,-68.2049"/>
<text text-anchor="middle" x="130" y="-52" font-family="Helvetica,sans-Serif" font-size="10.00"> f2</text>
</g>
<!-- Node3 -->
<g id="node3" class="node"><title>Node3</title>
<g id="a_node3"><a xlink:href="../../d1/da7/classMeta_1_1Numerics_1_1Matrices_1_1AnySquareMatrix.html" target="_top" xlink:title="Describes the form of all real, square matrices.">
<polygon fill="white" stroke="black" points="78.5,-146.5 78.5,-165.5 170.5,-165.5 170.5,-146.5 78.5,-146.5"/>
<text text-anchor="middle" x="124.5" y="-153.5" font-family="Helvetica,sans-Serif" font-size="10.00">AnySquareMatrix</text>
</a>
</g>
</g>
<!-- Node3&#45;&gt;Node2 -->
<g id="edge2" class="edge"><title>Node3&#45;&gt;Node2</title>
<path fill="none" stroke="midnightblue" d="M124.5,-136.215C124.5,-127.356 124.5,-116.958 124.5,-108.759"/>
<polygon fill="midnightblue" stroke="midnightblue" points="121,-136.332 124.5,-146.332 128,-136.332 121,-136.332"/>
</g>
<!-- Node4 -->
<g id="node4" class="node"><title>Node4</title>
<g id="a_node4"><a xlink:href="../../d9/d5b/classMeta_1_1Numerics_1_1Matrices_1_1AnyRectangularMatrix.html" target="_top" xlink:title="Describes the form of all real matrices.">
<polygon fill="white" stroke="black" points="68,-203.5 68,-222.5 181,-222.5 181,-203.5 68,-203.5"/>
<text text-anchor="middle" x="124.5" y="-210.5" font-family="Helvetica,sans-Serif" font-size="10.00">AnyRectangularMatrix</text>
</a>
</g>
</g>
<!-- Node4&#45;&gt;Node3 -->
<g id="edge3" class="edge"><title>Node4&#45;&gt;Node3</title>
<path fill="none" stroke="midnightblue" d="M124.5,-193.117C124.5,-183.817 124.5,-173.056 124.5,-165.715"/>
<polygon fill="midnightblue" stroke="midnightblue" points="121,-193.406 124.5,-203.406 128,-193.406 121,-193.406"/>
</g>
<!-- Node5 -->
<g id="node5" class="node"><title>Node5</title>
<g id="a_node5"><a xlink:href="../../df/de5/classMeta_1_1Numerics_1_1Matrices_1_1AnyMatrix.html" target="_top" xlink:title=" ">
<polygon fill="white" stroke="black" points="0,-266 0,-285 107,-285 107,-266 0,-266"/>
<text text-anchor="middle" x="53.5" y="-273" font-family="Helvetica,sans-Serif" font-size="10.00">AnyMatrix&lt; double &gt;</text>
</a>
</g>
</g>
<!-- Node5&#45;&gt;Node4 -->
<g id="edge4" class="edge"><title>Node5&#45;&gt;Node4</title>
<path fill="none" stroke="midnightblue" d="M71.4317,-259.22C85.0114,-247.649 103.177,-232.17 114.346,-222.652"/>
<polygon fill="midnightblue" stroke="midnightblue" points="69.014,-256.682 63.6726,-265.832 73.5541,-262.01 69.014,-256.682"/>
</g>
<!-- Node6 -->
<g id="node6" class="node"><title>Node6</title>
<g id="a_node6"><a xlink:title=" ">
<polygon fill="white" stroke="#bfbfbf" points="125.5,-260.5 125.5,-290.5 265.5,-290.5 265.5,-260.5 125.5,-260.5"/>
<text text-anchor="start" x="133.5" y="-278.5" font-family="Helvetica,sans-Serif" font-size="10.00">IEquatable&lt; AnyRectangular</text>
<text text-anchor="middle" x="195.5" y="-267.5" font-family="Helvetica,sans-Serif" font-size="10.00">Matrix &gt;</text>
</a>
</g>
</g>
<!-- Node6&#45;&gt;Node4 -->
<g id="edge5" class="edge"><title>Node6&#45;&gt;Node4</title>
<path fill="none" stroke="midnightblue" d="M171.164,-253.763C158.62,-243.074 144.007,-230.622 134.522,-222.54"/>
<polygon fill="midnightblue" stroke="midnightblue" points="169.151,-256.646 179.033,-260.468 173.691,-251.318 169.151,-256.646"/>
</g>
</g>
</svg>
