<?xml version="1.0" encoding="UTF-8" standalone="no"?>
<!DOCTYPE svg PUBLIC "-//W3C//DTD SVG 1.1//EN"
 "http://www.w3.org/Graphics/SVG/1.1/DTD/svg11.dtd">
<!-- Generated by graphviz version 2.38.0 (20140413.2041)
 -->
<!-- Title: NUnit.Framework.Constraints.ConstraintExpression Pages: 1 -->
<svg width="619pt" height="97pt"
 viewBox="0.00 0.00 619.00 97.00" xmlns="http://www.w3.org/2000/svg" xmlns:xlink="http://www.w3.org/1999/xlink">
<g id="graph0" class="graph" transform="scale(1 1) rotate(0) translate(4 93)">
<title>NUnit.Framework.Constraints.ConstraintExpression</title>
<polygon fill="white" stroke="none" points="-4,4 -4,-93 615,-93 615,4 -4,4"/>
<!-- Node1 -->
<g id="node1" class="node"><title>Node1</title>
<g id="a_node1"><a xlink:title="ConstraintExpression represents a compound constraint in the process of being constructed from a seri...">
<polygon fill="#bfbfbf" stroke="black" points="455.5,-58.5 455.5,-88.5 602.5,-88.5 602.5,-58.5 455.5,-58.5"/>
<text text-anchor="start" x="463.5" y="-76.5" font-family="Helvetica,sans-Serif" font-size="10.00">NUnit.Framework.Constraints.</text>
<text text-anchor="middle" x="529" y="-65.5" font-family="Helvetica,sans-Serif" font-size="10.00">ConstraintExpression</text>
</a>
</g>
</g>
<!-- Node2 -->
<g id="node2" class="node"><title>Node2</title>
<g id="a_node2"><a xlink:href="../../da/d2f/classNUnit_1_1Framework_1_1Constraints_1_1ConstraintBuilder.html" target="_top" xlink:title="ConstraintBuilder maintains the stacks that are used in processing a ConstraintExpression....">
<polygon fill="white" stroke="black" points="212,-24.5 212,-54.5 359,-54.5 359,-24.5 212,-24.5"/>
<text text-anchor="start" x="220" y="-42.5" font-family="Helvetica,sans-Serif" font-size="10.00">NUnit.Framework.Constraints.</text>
<text text-anchor="middle" x="285.5" y="-31.5" font-family="Helvetica,sans-Serif" font-size="10.00">ConstraintBuilder</text>
</a>
</g>
</g>
<!-- Node2&#45;&gt;Node1 -->
<g id="edge1" class="edge"><title>Node2&#45;&gt;Node1</title>
<path fill="none" stroke="#9a32cd" stroke-dasharray="5,2" d="M369.427,-51.175C397.356,-55.1071 428.289,-59.462 455.364,-63.2738"/>
<polygon fill="#9a32cd" stroke="#9a32cd" points="369.676,-47.6756 359.285,-49.7472 368.7,-54.6073 369.676,-47.6756"/>
<text text-anchor="middle" x="403" y="-63.5" font-family="Helvetica,sans-Serif" font-size="10.00"> builder</text>
</g>
<!-- Node5 -->
<g id="node5" class="node"><title>Node5</title>
<g id="a_node5"><a xlink:href="../../d9/d60/classNUnit_1_1Framework_1_1Constraints_1_1ConstraintBuilder_1_1ConstraintStack.html" target="_top" xlink:title="ConstraintStack is a type&#45;safe stack for holding Constraints">
<polygon fill="white" stroke="black" points="447,-0.5 447,-30.5 611,-30.5 611,-0.5 447,-0.5"/>
<text text-anchor="start" x="455" y="-18.5" font-family="Helvetica,sans-Serif" font-size="10.00">NUnit.Framework.Constraints.</text>
<text text-anchor="middle" x="529" y="-7.5" font-family="Helvetica,sans-Serif" font-size="10.00">ConstraintBuilder.ConstraintStack</text>
</a>
</g>
</g>
<!-- Node2&#45;&gt;Node5 -->
<g id="edge5" class="edge"><title>Node2&#45;&gt;Node5</title>
<path fill="none" stroke="#9a32cd" stroke-dasharray="5,2" d="M369.489,-31.2527C394.538,-28.7633 421.998,-26.0344 446.921,-23.5576"/>
<polygon fill="#9a32cd" stroke="#9a32cd" points="368.89,-27.7948 359.285,-32.2667 369.583,-34.7605 368.89,-27.7948"/>
<text text-anchor="middle" x="403" y="-33.5" font-family="Helvetica,sans-Serif" font-size="10.00"> builder</text>
</g>
<!-- Node3 -->
<g id="node3" class="node"><title>Node3</title>
<g id="a_node3"><a xlink:href="../../d7/d29/interfaceNUnit_1_1Framework_1_1Constraints_1_1IResolveConstraint.html" target="_top" xlink:title="The IResolveConstraint interface is implemented by all complete and resolvable constraints and expres...">
<polygon fill="white" stroke="black" points="30,-52 30,-71 127,-71 127,-52 30,-52"/>
<text text-anchor="middle" x="78.5" y="-59" font-family="Helvetica,sans-Serif" font-size="10.00">IResolveConstraint</text>
</a>
</g>
</g>
<!-- Node3&#45;&gt;Node2 -->
<g id="edge2" class="edge"><title>Node3&#45;&gt;Node2</title>
<path fill="none" stroke="midnightblue" d="M137.082,-55.3205C160.301,-52.8286 187.354,-49.9254 211.9,-47.2912"/>
<polygon fill="midnightblue" stroke="midnightblue" points="136.616,-51.8503 127.046,-56.3975 137.363,-58.8103 136.616,-51.8503"/>
</g>
<!-- Node4 -->
<g id="node4" class="node"><title>Node4</title>
<g id="a_node4"><a xlink:href="../../d1/d3e/classNUnit_1_1Framework_1_1Constraints_1_1ConstraintBuilder_1_1OperatorStack.html" target="_top" xlink:title="OperatorStack is a type&#45;safe stack for holding ConstraintOperators">
<polygon fill="white" stroke="black" points="0,-2.5 0,-32.5 157,-32.5 157,-2.5 0,-2.5"/>
<text text-anchor="start" x="8" y="-20.5" font-family="Helvetica,sans-Serif" font-size="10.00">NUnit.Framework.Constraints.</text>
<text text-anchor="middle" x="78.5" y="-9.5" font-family="Helvetica,sans-Serif" font-size="10.00">ConstraintBuilder.OperatorStack</text>
</a>
</g>
</g>
<!-- Node4&#45;&gt;Node2 -->
<g id="edge3" class="edge"><title>Node4&#45;&gt;Node2</title>
<path fill="none" stroke="#9a32cd" stroke-dasharray="5,2" d="M167.242,-26.9163C182.156,-28.5167 197.495,-30.1629 211.961,-31.7153"/>
<polygon fill="#9a32cd" stroke="#9a32cd" points="167.318,-23.4044 157.002,-25.8173 166.571,-30.3644 167.318,-23.4044"/>
<text text-anchor="middle" x="184.5" y="-32.5" font-family="Helvetica,sans-Serif" font-size="10.00"> ops</text>
</g>
<!-- Node5&#45;&gt;Node2 -->
<g id="edge4" class="edge"><title>Node5&#45;&gt;Node2</title>
<path fill="none" stroke="#9a32cd" stroke-dasharray="5,2" d="M436.644,-3.19837C416.876,-2.44409 396.16,-3.11578 377,-6.5 357.237,-9.99071 336.117,-17.4599 319.254,-24.4107"/>
<polygon fill="#9a32cd" stroke="#9a32cd" points="436.717,-6.70646 446.881,-3.71598 437.071,0.284606 436.717,-6.70646"/>
<text text-anchor="middle" x="403" y="-9.5" font-family="Helvetica,sans-Serif" font-size="10.00"> constraints</text>
</g>
</g>
</svg>
