<?xml version="1.0" encoding="UTF-8" standalone="no"?>
<!DOCTYPE svg PUBLIC "-//W3C//DTD SVG 1.1//EN"
 "http://www.w3.org/Graphics/SVG/1.1/DTD/svg11.dtd">
<!-- Generated by graphviz version 2.38.0 (20140413.2041)
 -->
<!-- Title: IG.Web.WSDevelop Pages: 1 -->
<svg width="529pt" height="195pt"
 viewBox="0.00 0.00 528.50 195.00" xmlns="http://www.w3.org/2000/svg" xmlns:xlink="http://www.w3.org/1999/xlink">
<g id="graph0" class="graph" transform="scale(1 1) rotate(0) translate(4 191)">
<title>IG.Web.WSDevelop</title>
<polygon fill="white" stroke="none" points="-4,4 -4,-191 524.5,-191 524.5,4 -4,4"/>
<!-- Node1 -->
<g id="node1" class="node"><title>Node1</title>
<g id="a_node1"><a xlink:title="Web service class.">
<polygon fill="#bfbfbf" stroke="black" points="326,-0.5 326,-19.5 429,-19.5 429,-0.5 326,-0.5"/>
<text text-anchor="middle" x="377.5" y="-7.5" font-family="Helvetica,sans-Serif" font-size="10.00">IG.Web.WSDevelop</text>
</a>
</g>
</g>
<!-- Node2 -->
<g id="node2" class="node"><title>Node2</title>
<g id="a_node2"><a xlink:href="../../df/d3a/classIG_1_1Web_1_1WSBase.html" target="_top" xlink:title="Base class for IGLib webservices.">
<polygon fill="white" stroke="black" points="221.5,-67.5 221.5,-86.5 277.5,-86.5 277.5,-67.5 221.5,-67.5"/>
<text text-anchor="middle" x="249.5" y="-74.5" font-family="Helvetica,sans-Serif" font-size="10.00">WSBase</text>
</a>
</g>
</g>
<!-- Node2&#45;&gt;Node1 -->
<g id="edge1" class="edge"><title>Node2&#45;&gt;Node1</title>
<path fill="none" stroke="midnightblue" d="M275.545,-62.7739C300.897,-49.8999 338.689,-30.7086 360.432,-19.6672"/>
<polygon fill="midnightblue" stroke="midnightblue" points="273.829,-59.72 266.497,-67.3685 276.998,-65.9614 273.829,-59.72"/>
</g>
<!-- Node3 -->
<g id="node3" class="node"><title>Node3</title>
<g id="a_node3"><a xlink:title=" ">
<polygon fill="white" stroke="#bfbfbf" points="0,-156.5 0,-186.5 119,-186.5 119,-156.5 0,-156.5"/>
<text text-anchor="start" x="8" y="-174.5" font-family="Helvetica,sans-Serif" font-size="10.00">System::Web::Services</text>
<text text-anchor="middle" x="59.5" y="-163.5" font-family="Helvetica,sans-Serif" font-size="10.00">::WebService</text>
</a>
</g>
</g>
<!-- Node3&#45;&gt;Node2 -->
<g id="edge2" class="edge"><title>Node3&#45;&gt;Node2</title>
<path fill="none" stroke="midnightblue" d="M97.4566,-152.021C138.243,-132.165 201.307,-101.462 231.796,-86.6191"/>
<polygon fill="midnightblue" stroke="midnightblue" points="95.816,-148.927 88.3569,-156.451 98.8801,-155.221 95.816,-148.927"/>
</g>
<!-- Node4 -->
<g id="node4" class="node"><title>Node4</title>
<g id="a_node4"><a xlink:href="../../dc/d79/interfaceIG_1_1Lib_1_1IIdentifiable.html" target="_top" xlink:title="Classes whose instances have unique integer IDs.">
<polygon fill="white" stroke="black" points="137,-162 137,-181 202,-181 202,-162 137,-162"/>
<text text-anchor="middle" x="169.5" y="-169" font-family="Helvetica,sans-Serif" font-size="10.00">IIdentifiable</text>
</a>
</g>
</g>
<!-- Node4&#45;&gt;Node2 -->
<g id="edge3" class="edge"><title>Node4&#45;&gt;Node2</title>
<path fill="none" stroke="midnightblue" d="M183.438,-154.384C200.514,-134.64 228.813,-101.919 242.135,-86.5157"/>
<polygon fill="midnightblue" stroke="midnightblue" points="180.777,-152.11 176.883,-161.964 186.072,-156.69 180.777,-152.11"/>
</g>
<!-- Node5 -->
<g id="node5" class="node"><title>Node5</title>
<g id="a_node5"><a xlink:href="../../d3/db6/interfaceIG_1_1Lib_1_1ILockable.html" target="_top" xlink:title="Lockable object, has a Lock property that returns object on which lock must be performed in order to ...">
<polygon fill="white" stroke="black" points="220.5,-162 220.5,-181 278.5,-181 278.5,-162 220.5,-162"/>
<text text-anchor="middle" x="249.5" y="-169" font-family="Helvetica,sans-Serif" font-size="10.00">ILockable</text>
</a>
</g>
</g>
<!-- Node5&#45;&gt;Node2 -->
<g id="edge4" class="edge"><title>Node5&#45;&gt;Node2</title>
<path fill="none" stroke="midnightblue" d="M249.5,-151.944C249.5,-132.038 249.5,-101.3 249.5,-86.5157"/>
<polygon fill="midnightblue" stroke="midnightblue" points="246,-151.964 249.5,-161.964 253,-151.964 246,-151.964"/>
</g>
<!-- Node6 -->
<g id="node6" class="node"><title>Node6</title>
<g id="a_node6"><a xlink:title=" ">
<polygon fill="white" stroke="#bfbfbf" points="297,-162 297,-181 338,-181 338,-162 297,-162"/>
<text text-anchor="middle" x="317.5" y="-169" font-family="Helvetica,sans-Serif" font-size="10.00">static</text>
</a>
</g>
</g>
<!-- Node6&#45;&gt;Node2 -->
<g id="edge5" class="edge"><title>Node6&#45;&gt;Node2</title>
<path fill="none" stroke="#9a32cd" stroke-dasharray="5,2" d="M301.009,-154.547C296.104,-149.459 290.876,-143.672 286.5,-138 273.193,-120.753 260.503,-98.4828 254.005,-86.5127"/>
<polygon fill="#9a32cd" stroke="#9a32cd" points="298.745,-157.234 308.281,-161.852 303.706,-152.296 298.745,-157.234"/>
<text text-anchor="middle" x="314.5" y="-130" font-family="Helvetica,sans-Serif" font-size="10.00"> _nextId</text>
<text text-anchor="middle" x="314.5" y="-119" font-family="Helvetica,sans-Serif" font-size="10.00">_namespace</text>
<text text-anchor="middle" x="314.5" y="-108" font-family="Helvetica,sans-Serif" font-size="10.00">_testCount</text>
</g>
<!-- Node7 -->
<g id="node7" class="node"><title>Node7</title>
<g id="a_node7"><a xlink:href="../../d3/d6b/interfaceIG_1_1Web_1_1IWsDevelop.html" target="_top" xlink:title="Interface for development web services.">
<polygon fill="white" stroke="black" points="384.5,-67.5 384.5,-86.5 452.5,-86.5 452.5,-67.5 384.5,-67.5"/>
<text text-anchor="middle" x="418.5" y="-74.5" font-family="Helvetica,sans-Serif" font-size="10.00">IWsDevelop</text>
</a>
</g>
</g>
<!-- Node7&#45;&gt;Node1 -->
<g id="edge6" class="edge"><title>Node7&#45;&gt;Node1</title>
<path fill="none" stroke="midnightblue" d="M407.483,-58.5347C399.545,-45.9499 389.174,-29.5072 382.942,-19.6273"/>
<polygon fill="midnightblue" stroke="midnightblue" points="404.675,-60.6431 412.971,-67.2338 410.596,-56.9085 404.675,-60.6431"/>
</g>
<!-- Node8 -->
<g id="node8" class="node"><title>Node8</title>
<g id="a_node8"><a xlink:href="../../d3/d45/interfaceIG_1_1Web_1_1IWSBase.html" target="_top" xlink:title="Interface for basic web service.">
<polygon fill="white" stroke="black" points="364.5,-162 364.5,-181 422.5,-181 422.5,-162 364.5,-162"/>
<text text-anchor="middle" x="393.5" y="-169" font-family="Helvetica,sans-Serif" font-size="10.00">IWSBase</text>
</a>
</g>
</g>
<!-- Node8&#45;&gt;Node1 -->
<g id="edge8" class="edge"><title>Node8&#45;&gt;Node1</title>
<path fill="none" stroke="midnightblue" d="M388.249,-151.7C383.845,-134.897 377.9,-109.525 375.5,-87 374.558,-78.1612 375.341,-75.8875 375.5,-67 375.799,-50.2698 376.599,-30.7415 377.092,-19.7273"/>
<polygon fill="midnightblue" stroke="midnightblue" points="384.998,-153.086 390.99,-161.823 391.755,-151.256 384.998,-153.086"/>
</g>
<!-- Node8&#45;&gt;Node7 -->
<g id="edge7" class="edge"><title>Node8&#45;&gt;Node7</title>
<path fill="none" stroke="midnightblue" d="M398.44,-152.221C403.818,-132.325 412.184,-101.369 416.198,-86.5157"/>
<polygon fill="midnightblue" stroke="midnightblue" points="395.038,-151.397 395.807,-161.964 401.795,-153.223 395.038,-151.397"/>
</g>
<!-- Node9 -->
<g id="node9" class="node"><title>Node9</title>
<g id="a_node9"><a xlink:title=" ">
<polygon fill="white" stroke="#bfbfbf" points="470.5,-67.5 470.5,-86.5 520.5,-86.5 520.5,-67.5 470.5,-67.5"/>
<text text-anchor="middle" x="495.5" y="-74.5" font-family="Helvetica,sans-Serif" font-size="10.00">System</text>
</a>
</g>
</g>
<!-- Node9&#45;&gt;Node1 -->
<g id="edge9" class="edge"><title>Node9&#45;&gt;Node1</title>
<path fill="none" stroke="#9a32cd" stroke-dasharray="5,2" d="M470.606,-62.2872C447.219,-49.4047 412.944,-30.5243 393.162,-19.6273"/>
<polygon fill="#9a32cd" stroke="#9a32cd" points="469.138,-65.4745 479.586,-67.2338 472.516,-59.3432 469.138,-65.4745"/>
<text text-anchor="middle" x="462.5" y="-41" font-family="Helvetica,sans-Serif" font-size="10.00"> button1</text>
</g>
</g>
</svg>
