<?xml version="1.0" encoding="UTF-8" standalone="no"?>
<!DOCTYPE svg PUBLIC "-//W3C//DTD SVG 1.1//EN"
 "http://www.w3.org/Graphics/SVG/1.1/DTD/svg11.dtd">
<!-- Generated by graphviz version 2.38.0 (20140413.2041)
 -->
<!-- Title: NUnit.Framework.Internal.Randomizer Pages: 1 -->
<svg width="167pt" height="117pt"
 viewBox="0.00 0.00 166.50 117.00" xmlns="http://www.w3.org/2000/svg" xmlns:xlink="http://www.w3.org/1999/xlink">
<g id="graph0" class="graph" transform="scale(1 1) rotate(0) translate(4 113)">
<title>NUnit.Framework.Internal.Randomizer</title>
<polygon fill="white" stroke="none" points="-4,4 -4,-113 162.5,-113 162.5,4 -4,4"/>
<!-- Node1 -->
<g id="node1" class="node"><title>Node1</title>
<g id="a_node1"><a xlink:title="Randomizer returns a set of random _values in a repeatable way, to allow re&#45;running of tests if neces...">
<polygon fill="#bfbfbf" stroke="black" points="0,-0.5 0,-30.5 129,-30.5 129,-0.5 0,-0.5"/>
<text text-anchor="start" x="8" y="-18.5" font-family="Helvetica,sans-Serif" font-size="10.00">NUnit.Framework.Internal.</text>
<text text-anchor="middle" x="64.5" y="-7.5" font-family="Helvetica,sans-Serif" font-size="10.00">Randomizer</text>
</a>
</g>
</g>
<!-- Node2 -->
<g id="node2" class="node"><title>Node2</title>
<g id="a_node2"><a xlink:title=" ">
<polygon fill="white" stroke="#bfbfbf" points="6,-89.5 6,-108.5 59,-108.5 59,-89.5 6,-89.5"/>
<text text-anchor="middle" x="32.5" y="-96.5" font-family="Helvetica,sans-Serif" font-size="10.00">Random</text>
</a>
</g>
</g>
<!-- Node2&#45;&gt;Node1 -->
<g id="edge1" class="edge"><title>Node2&#45;&gt;Node1</title>
<path fill="none" stroke="midnightblue" d="M39.6997,-79.6633C45.5327,-64.8073 53.6308,-44.1824 58.9648,-30.5974"/>
<polygon fill="midnightblue" stroke="midnightblue" points="36.3215,-78.6907 35.9246,-89.2781 42.8373,-81.249 36.3215,-78.6907"/>
</g>
<!-- Node3 -->
<g id="node3" class="node"><title>Node3</title>
<g id="a_node3"><a xlink:title=" ">
<polygon fill="white" stroke="#bfbfbf" points="77,-89.5 77,-108.5 118,-108.5 118,-89.5 77,-89.5"/>
<text text-anchor="middle" x="97.5" y="-96.5" font-family="Helvetica,sans-Serif" font-size="10.00">static</text>
</a>
</g>
</g>
<!-- Node3&#45;&gt;Node1 -->
<g id="edge2" class="edge"><title>Node3&#45;&gt;Node1</title>
<path fill="none" stroke="#9a32cd" stroke-dasharray="5,2" d="M90.0753,-79.6633C84.06,-64.8073 75.7088,-44.1824 70.2081,-30.5974"/>
<polygon fill="#9a32cd" stroke="#9a32cd" points="86.9711,-81.3227 93.9684,-89.2781 93.4594,-78.6955 86.9711,-81.3227"/>
<text text-anchor="middle" x="122" y="-63" font-family="Helvetica,sans-Serif" font-size="10.00"> _seedGenerator</text>
<text text-anchor="middle" x="122" y="-52" font-family="Helvetica,sans-Serif" font-size="10.00">Randomizers</text>
</g>
</g>
</svg>
