<?xml version="1.0" encoding="UTF-8" standalone="no"?>
<!DOCTYPE svg PUBLIC "-//W3C//DTD SVG 1.1//EN"
 "http://www.w3.org/Graphics/SVG/1.1/DTD/svg11.dtd">
<!-- Generated by graphviz version 2.38.0 (20140413.2041)
 -->
<!-- Title: AForge.Imaging.Filters.IInPlaceFilter Pages: 1 -->
<svg width="534pt" height="1974pt"
 viewBox="0.00 0.00 534.00 1973.50" xmlns="http://www.w3.org/2000/svg" xmlns:xlink="http://www.w3.org/1999/xlink">
<g id="graph0" class="graph" transform="scale(1 1) rotate(0) translate(4 1969.5)">
<title>AForge.Imaging.Filters.IInPlaceFilter</title>
<polygon fill="white" stroke="none" points="-4,4 -4,-1969.5 530,-1969.5 530,4 -4,4"/>
<!-- Node1 -->
<g id="node1" class="node"><title>Node1</title>
<g id="a_node1"><a xlink:title="In&#45;place filter interface.">
<polygon fill="#bfbfbf" stroke="black" points="0,-668 0,-698 128,-698 128,-668 0,-668"/>
<text text-anchor="start" x="8" y="-686" font-family="Helvetica,sans-Serif" font-size="10.00">AForge.Imaging.Filters.IIn</text>
<text text-anchor="middle" x="64" y="-675" font-family="Helvetica,sans-Serif" font-size="10.00">PlaceFilter</text>
</a>
</g>
</g>
<!-- Node2 -->
<g id="node2" class="node"><title>Node2</title>
<g id="a_node2"><a xlink:href="../../d6/d11/classAForge_1_1Imaging_1_1Filters_1_1BaseInPlaceFilter.html" target="_top" xlink:title="Base class for filters, which may be applied directly to the source image.">
<polygon fill="white" stroke="black" points="171,-1667 171,-1697 311,-1697 311,-1667 171,-1667"/>
<text text-anchor="start" x="179" y="-1685" font-family="Helvetica,sans-Serif" font-size="10.00">AForge.Imaging.Filters.Base</text>
<text text-anchor="middle" x="241" y="-1674" font-family="Helvetica,sans-Serif" font-size="10.00">InPlaceFilter</text>
</a>
</g>
</g>
<!-- Node1&#45;&gt;Node2 -->
<g id="edge1" class="edge"><title>Node1&#45;&gt;Node2</title>
<path fill="none" stroke="midnightblue" d="M69.4301,-708.289C94.4386,-851.052 217.539,-1553.78 237.317,-1666.68"/>
<polygon fill="midnightblue" stroke="midnightblue" points="72.8519,-707.538 67.6788,-698.292 65.9569,-708.746 72.8519,-707.538"/>
</g>
<!-- Node24 -->
<g id="node15" class="node"><title>Node24</title>
<g id="a_node15"><a xlink:href="../../db/dc9/classAForge_1_1Imaging_1_1Filters_1_1BaseInPlacePartialFilter.html" target="_top" xlink:title="Base class for filters, which may be applied directly to the source image or its part.">
<polygon fill="white" stroke="red" points="171,-717 171,-747 311,-747 311,-717 171,-717"/>
<text text-anchor="start" x="179" y="-735" font-family="Helvetica,sans-Serif" font-size="10.00">AForge.Imaging.Filters.Base</text>
<text text-anchor="middle" x="241" y="-724" font-family="Helvetica,sans-Serif" font-size="10.00">InPlacePartialFilter</text>
</a>
</g>
</g>
<!-- Node1&#45;&gt;Node24 -->
<g id="edge14" class="edge"><title>Node1&#45;&gt;Node24</title>
<path fill="none" stroke="midnightblue" d="M128.647,-700.821C147.542,-706.112 168.043,-711.852 186.244,-716.948"/>
<polygon fill="midnightblue" stroke="midnightblue" points="129.507,-697.427 118.934,-698.101 127.62,-704.168 129.507,-697.427"/>
</g>
<!-- Node73 -->
<g id="node47" class="node"><title>Node73</title>
<g id="a_node47"><a xlink:href="../../d8/ddf/classAForge_1_1Imaging_1_1Filters_1_1BaseUsingCopyPartialFilter.html" target="_top" xlink:title="Base class for filters, which require source image backup to make them applicable to source image (or...">
<polygon fill="white" stroke="red" points="171,-668 171,-698 311,-698 311,-668 171,-668"/>
<text text-anchor="start" x="179" y="-686" font-family="Helvetica,sans-Serif" font-size="10.00">AForge.Imaging.Filters.Base</text>
<text text-anchor="middle" x="241" y="-675" font-family="Helvetica,sans-Serif" font-size="10.00">UsingCopyPartialFilter</text>
</a>
</g>
</g>
<!-- Node1&#45;&gt;Node73 -->
<g id="edge46" class="edge"><title>Node1&#45;&gt;Node73</title>
<path fill="none" stroke="midnightblue" d="M138.414,-683C149.207,-683 160.293,-683 170.992,-683"/>
<polygon fill="midnightblue" stroke="midnightblue" points="138.179,-679.5 128.179,-683 138.179,-686.5 138.179,-679.5"/>
</g>
<!-- Node99 -->
<g id="node48" class="node"><title>Node99</title>
<g id="a_node48"><a xlink:href="../../d4/dcd/classAForge_1_1Imaging_1_1Filters_1_1Closing.html" target="_top" xlink:title="Closing operator from Mathematical Morphology.">
<polygon fill="white" stroke="black" points="166,-629.5 166,-648.5 316,-648.5 316,-629.5 166,-629.5"/>
<text text-anchor="middle" x="241" y="-636.5" font-family="Helvetica,sans-Serif" font-size="10.00">AForge.Imaging.Filters.Closing</text>
</a>
</g>
</g>
<!-- Node1&#45;&gt;Node99 -->
<g id="edge47" class="edge"><title>Node1&#45;&gt;Node99</title>
<path fill="none" stroke="midnightblue" d="M134.298,-665.478C144.264,-662.965 154.394,-660.414 164,-658 176.267,-654.918 189.651,-651.567 201.722,-648.551"/>
<polygon fill="midnightblue" stroke="midnightblue" points="133.252,-662.132 124.412,-667.973 134.964,-668.92 133.252,-662.132"/>
</g>
<!-- Node100 -->
<g id="node49" class="node"><title>Node100</title>
<g id="a_node49"><a xlink:href="../../d2/d79/classAForge_1_1Imaging_1_1Filters_1_1Opening.html" target="_top" xlink:title="Opening operator from Mathematical Morphology.">
<polygon fill="white" stroke="black" points="164,-591.5 164,-610.5 318,-610.5 318,-591.5 164,-591.5"/>
<text text-anchor="middle" x="241" y="-598.5" font-family="Helvetica,sans-Serif" font-size="10.00">AForge.Imaging.Filters.Opening</text>
</a>
</g>
</g>
<!-- Node1&#45;&gt;Node100 -->
<g id="edge48" class="edge"><title>Node1&#45;&gt;Node100</title>
<path fill="none" stroke="midnightblue" d="M92.6585,-661.964C111.801,-648.291 138.354,-631.02 164,-620 172.747,-616.241 182.393,-613.118 191.792,-610.563"/>
<polygon fill="midnightblue" stroke="midnightblue" points="90.4445,-659.247 84.4146,-667.958 94.561,-664.909 90.4445,-659.247"/>
</g>
<!-- Node3 -->
<g id="node3" class="node"><title>Node3</title>
<g id="a_node3"><a xlink:href="../../dc/d44/classAForge_1_1Imaging_1_1Filters_1_1BackwardQuadrilateralTransformation.html" target="_top" xlink:title="Performs backward quadrilateral transformation into an area in destination image.">
<polygon fill="white" stroke="black" points="359.5,-1935 359.5,-1965 520.5,-1965 520.5,-1935 359.5,-1935"/>
<text text-anchor="start" x="367.5" y="-1953" font-family="Helvetica,sans-Serif" font-size="10.00">AForge.Imaging.Filters.Backward</text>
<text text-anchor="middle" x="440" y="-1942" font-family="Helvetica,sans-Serif" font-size="10.00">QuadrilateralTransformation</text>
</a>
</g>
</g>
<!-- Node2&#45;&gt;Node3 -->
<g id="edge2" class="edge"><title>Node2&#45;&gt;Node3</title>
<path fill="none" stroke="midnightblue" d="M246.328,-1707.11C256.191,-1756.59 285.045,-1866.99 354,-1926 357.961,-1929.39 362.369,-1932.3 367.036,-1934.81"/>
<polygon fill="midnightblue" stroke="midnightblue" points="249.759,-1706.42 244.455,-1697.25 242.882,-1707.73 249.759,-1706.42"/>
</g>
<!-- Node4 -->
<g id="node4" class="node"><title>Node4</title>
<g id="a_node4"><a xlink:href="../../dc/df2/classAForge_1_1Imaging_1_1Filters_1_1BaseInPlaceFilter2.html" target="_top" xlink:title="Base class for filters, which operate with two images of the same size and format and may be applied ...">
<polygon fill="white" stroke="red" points="370,-1886 370,-1916 510,-1916 510,-1886 370,-1886"/>
<text text-anchor="start" x="378" y="-1904" font-family="Helvetica,sans-Serif" font-size="10.00">AForge.Imaging.Filters.Base</text>
<text text-anchor="middle" x="440" y="-1893" font-family="Helvetica,sans-Serif" font-size="10.00">InPlaceFilter2</text>
</a>
</g>
</g>
<!-- Node2&#45;&gt;Node4 -->
<g id="edge3" class="edge"><title>Node2&#45;&gt;Node4</title>
<path fill="none" stroke="midnightblue" d="M249.344,-1706.68C262.991,-1748.21 296.244,-1831.96 354,-1877 358.837,-1880.77 364.237,-1883.95 369.907,-1886.63"/>
<polygon fill="midnightblue" stroke="midnightblue" points="252.658,-1705.55 246.294,-1697.08 245.986,-1707.67 252.658,-1705.55"/>
</g>
<!-- Node14 -->
<g id="node5" class="node"><title>Node14</title>
<g id="a_node5"><a xlink:href="../../d0/d8c/classAForge_1_1Imaging_1_1Filters_1_1BlobsFiltering.html" target="_top" xlink:title="Blobs filtering by size.">
<polygon fill="white" stroke="black" points="368.5,-1837 368.5,-1867 511.5,-1867 511.5,-1837 368.5,-1837"/>
<text text-anchor="start" x="376.5" y="-1855" font-family="Helvetica,sans-Serif" font-size="10.00">AForge.Imaging.Filters.Blobs</text>
<text text-anchor="middle" x="440" y="-1844" font-family="Helvetica,sans-Serif" font-size="10.00">Filtering</text>
</a>
</g>
</g>
<!-- Node2&#45;&gt;Node14 -->
<g id="edge4" class="edge"><title>Node2&#45;&gt;Node14</title>
<path fill="none" stroke="midnightblue" d="M254.493,-1706.48C272.252,-1738.84 307.831,-1795.44 354,-1827 359.588,-1830.82 365.765,-1834.06 372.165,-1836.82"/>
<polygon fill="midnightblue" stroke="midnightblue" points="257.367,-1704.43 249.561,-1697.27 251.196,-1707.74 257.367,-1704.43"/>
</g>
<!-- Node15 -->
<g id="node6" class="node"><title>Node15</title>
<g id="a_node6"><a xlink:href="../../da/dce/classAForge_1_1Imaging_1_1Filters_1_1BottomHat.html" target="_top" xlink:title="Bottop&#45;hat operator from Mathematical Morphology.">
<polygon fill="white" stroke="black" points="358,-1798.5 358,-1817.5 522,-1817.5 522,-1798.5 358,-1798.5"/>
<text text-anchor="middle" x="440" y="-1805.5" font-family="Helvetica,sans-Serif" font-size="10.00">AForge.Imaging.Filters.BottomHat</text>
</a>
</g>
</g>
<!-- Node2&#45;&gt;Node15 -->
<g id="edge5" class="edge"><title>Node2&#45;&gt;Node15</title>
<path fill="none" stroke="midnightblue" d="M259.713,-1705.2C279.831,-1729.86 314.972,-1768.12 354,-1789 361.2,-1792.85 369.144,-1795.92 377.199,-1798.37"/>
<polygon fill="midnightblue" stroke="midnightblue" points="262.216,-1702.72 253.241,-1697.09 256.746,-1707.09 262.216,-1702.72"/>
</g>
<!-- Node16 -->
<g id="node7" class="node"><title>Node16</title>
<g id="a_node7"><a xlink:href="../../d2/d7b/classAForge_1_1Imaging_1_1Filters_1_1BradleyLocalThresholding.html" target="_top" xlink:title="Adaptive thresholding using the internal image.">
<polygon fill="white" stroke="black" points="364.5,-1749 364.5,-1779 515.5,-1779 515.5,-1749 364.5,-1749"/>
<text text-anchor="start" x="372.5" y="-1767" font-family="Helvetica,sans-Serif" font-size="10.00">AForge.Imaging.Filters.Bradley</text>
<text text-anchor="middle" x="440" y="-1756" font-family="Helvetica,sans-Serif" font-size="10.00">LocalThresholding</text>
</a>
</g>
</g>
<!-- Node2&#45;&gt;Node16 -->
<g id="edge6" class="edge"><title>Node2&#45;&gt;Node16</title>
<path fill="none" stroke="midnightblue" d="M276.911,-1701.88C298.626,-1713.71 327.39,-1728.42 354,-1739 363.005,-1742.58 372.726,-1745.91 382.264,-1748.9"/>
<polygon fill="midnightblue" stroke="midnightblue" points="278.511,-1698.76 268.063,-1697.01 275.134,-1704.9 278.511,-1698.76"/>
</g>
<!-- Node17 -->
<g id="node8" class="node"><title>Node17</title>
<g id="a_node8"><a xlink:href="../../d0/d9b/classAForge_1_1Imaging_1_1Filters_1_1CanvasCrop.html" target="_top" xlink:title="Fill areas outiside of specified region.">
<polygon fill="white" stroke="black" points="355,-1710.5 355,-1729.5 525,-1729.5 525,-1710.5 355,-1710.5"/>
<text text-anchor="middle" x="440" y="-1717.5" font-family="Helvetica,sans-Serif" font-size="10.00">AForge.Imaging.Filters.CanvasCrop</text>
</a>
</g>
</g>
<!-- Node2&#45;&gt;Node17 -->
<g id="edge7" class="edge"><title>Node2&#45;&gt;Node17</title>
<path fill="none" stroke="midnightblue" d="M321.298,-1697.3C344.348,-1701.74 368.858,-1706.47 389.511,-1710.45"/>
<polygon fill="midnightblue" stroke="midnightblue" points="321.66,-1693.8 311.178,-1695.34 320.334,-1700.67 321.66,-1693.8"/>
</g>
<!-- Node18 -->
<g id="node9" class="node"><title>Node18</title>
<g id="a_node9"><a xlink:href="../../d2/d4f/classAForge_1_1Imaging_1_1Filters_1_1CanvasFill.html" target="_top" xlink:title="Fill areas iniside of the specified region.">
<polygon fill="white" stroke="black" points="359,-1672.5 359,-1691.5 521,-1691.5 521,-1672.5 359,-1672.5"/>
<text text-anchor="middle" x="440" y="-1679.5" font-family="Helvetica,sans-Serif" font-size="10.00">AForge.Imaging.Filters.CanvasFill</text>
</a>
</g>
</g>
<!-- Node2&#45;&gt;Node18 -->
<g id="edge8" class="edge"><title>Node2&#45;&gt;Node18</title>
<path fill="none" stroke="midnightblue" d="M321.424,-1682C333.76,-1682 346.511,-1682 358.862,-1682"/>
<polygon fill="midnightblue" stroke="midnightblue" points="321.178,-1678.5 311.178,-1682 321.178,-1685.5 321.178,-1678.5"/>
</g>
<!-- Node19 -->
<g id="node10" class="node"><title>Node19</title>
<g id="a_node10"><a xlink:href="../../d8/d11/classAForge_1_1Imaging_1_1Filters_1_1CanvasMove.html" target="_top" xlink:title="Move canvas to the specified point.">
<polygon fill="white" stroke="black" points="354,-1634.5 354,-1653.5 526,-1653.5 526,-1634.5 354,-1634.5"/>
<text text-anchor="middle" x="440" y="-1641.5" font-family="Helvetica,sans-Serif" font-size="10.00">AForge.Imaging.Filters.CanvasMove</text>
</a>
</g>
</g>
<!-- Node2&#45;&gt;Node19 -->
<g id="edge9" class="edge"><title>Node2&#45;&gt;Node19</title>
<path fill="none" stroke="midnightblue" d="M321.298,-1666.7C344.348,-1662.26 368.858,-1657.53 389.511,-1653.55"/>
<polygon fill="midnightblue" stroke="midnightblue" points="320.334,-1663.33 311.178,-1668.66 321.66,-1670.2 320.334,-1663.33"/>
</g>
<!-- Node20 -->
<g id="node11" class="node"><title>Node20</title>
<g id="a_node11"><a xlink:href="../../dc/dce/classAForge_1_1Imaging_1_1Filters_1_1CornersMarker.html" target="_top" xlink:title="Filter to mark (highlight) corners of objects.">
<polygon fill="white" stroke="black" points="364,-1585 364,-1615 516,-1615 516,-1585 364,-1585"/>
<text text-anchor="start" x="372" y="-1603" font-family="Helvetica,sans-Serif" font-size="10.00">AForge.Imaging.Filters.Corners</text>
<text text-anchor="middle" x="440" y="-1592" font-family="Helvetica,sans-Serif" font-size="10.00">Marker</text>
</a>
</g>
</g>
<!-- Node2&#45;&gt;Node20 -->
<g id="edge10" class="edge"><title>Node2&#45;&gt;Node20</title>
<path fill="none" stroke="midnightblue" d="M276.911,-1662.12C298.626,-1650.29 327.39,-1635.58 354,-1625 363.005,-1621.42 372.726,-1618.09 382.264,-1615.1"/>
<polygon fill="midnightblue" stroke="midnightblue" points="275.134,-1659.1 268.063,-1666.99 278.511,-1665.24 275.134,-1659.1"/>
</g>
<!-- Node21 -->
<g id="node12" class="node"><title>Node21</title>
<g id="a_node12"><a xlink:href="../../d5/d05/classAForge_1_1Imaging_1_1Filters_1_1FillHoles.html" target="_top" xlink:title="Fill holes in objects in binary image.">
<polygon fill="white" stroke="black" points="374.5,-1536 374.5,-1566 505.5,-1566 505.5,-1536 374.5,-1536"/>
<text text-anchor="start" x="382.5" y="-1554" font-family="Helvetica,sans-Serif" font-size="10.00">AForge.Imaging.Filters.Fill</text>
<text text-anchor="middle" x="440" y="-1543" font-family="Helvetica,sans-Serif" font-size="10.00">Holes</text>
</a>
</g>
</g>
<!-- Node2&#45;&gt;Node21 -->
<g id="edge11" class="edge"><title>Node2&#45;&gt;Node21</title>
<path fill="none" stroke="midnightblue" d="M260.272,-1658.82C280.638,-1634.49 315.773,-1596.83 354,-1575 360.258,-1571.43 367.084,-1568.36 374.057,-1565.72"/>
<polygon fill="midnightblue" stroke="midnightblue" points="257.345,-1656.86 253.703,-1666.81 262.754,-1661.31 257.345,-1656.86"/>
</g>
<!-- Node22 -->
<g id="node13" class="node"><title>Node22</title>
<g id="a_node13"><a xlink:href="../../de/db9/classAForge_1_1Imaging_1_1Filters_1_1FlatFieldCorrection.html" target="_top" xlink:title="Flat field correction filter.">
<polygon fill="white" stroke="black" points="373,-1487 373,-1517 507,-1517 507,-1487 373,-1487"/>
<text text-anchor="start" x="381" y="-1505" font-family="Helvetica,sans-Serif" font-size="10.00">AForge.Imaging.Filters.Flat</text>
<text text-anchor="middle" x="440" y="-1494" font-family="Helvetica,sans-Serif" font-size="10.00">FieldCorrection</text>
</a>
</g>
</g>
<!-- Node2&#45;&gt;Node22 -->
<g id="edge12" class="edge"><title>Node2&#45;&gt;Node22</title>
<path fill="none" stroke="midnightblue" d="M252.957,-1657.63C269.732,-1623.1 305.058,-1560.33 354,-1526 359.775,-1521.95 366.219,-1518.58 372.905,-1515.78"/>
<polygon fill="midnightblue" stroke="midnightblue" points="249.648,-1656.43 248.536,-1666.97 255.976,-1659.43 249.648,-1656.43"/>
</g>
<!-- Node23 -->
<g id="node14" class="node"><title>Node23</title>
<g id="a_node14"><a xlink:href="../../dc/d0f/classAForge_1_1Imaging_1_1Filters_1_1TopHat.html" target="_top" xlink:title="Top&#45;hat operator from Mathematical Morphology.">
<polygon fill="white" stroke="black" points="365.5,-1448.5 365.5,-1467.5 514.5,-1467.5 514.5,-1448.5 365.5,-1448.5"/>
<text text-anchor="middle" x="440" y="-1455.5" font-family="Helvetica,sans-Serif" font-size="10.00">AForge.Imaging.Filters.TopHat</text>
</a>
</g>
</g>
<!-- Node2&#45;&gt;Node23 -->
<g id="edge13" class="edge"><title>Node2&#45;&gt;Node23</title>
<path fill="none" stroke="midnightblue" d="M248.34,-1656.97C260.771,-1613.23 292.64,-1523.2 354,-1477 359.074,-1473.18 364.77,-1470.1 370.749,-1467.63"/>
<polygon fill="midnightblue" stroke="midnightblue" points="244.916,-1656.22 245.656,-1666.79 251.668,-1658.06 244.916,-1656.22"/>
</g>
<!-- Node25 -->
<g id="node16" class="node"><title>Node25</title>
<g id="a_node16"><a xlink:href="../../d0/dd7/classAForge_1_1Imaging_1_1Filters_1_1AdditiveNoise.html" target="_top" xlink:title="Additive noise filter.">
<polygon fill="white" stroke="black" points="364,-1399 364,-1429 516,-1429 516,-1399 364,-1399"/>
<text text-anchor="start" x="372" y="-1417" font-family="Helvetica,sans-Serif" font-size="10.00">AForge.Imaging.Filters.Additive</text>
<text text-anchor="middle" x="440" y="-1406" font-family="Helvetica,sans-Serif" font-size="10.00">Noise</text>
</a>
</g>
</g>
<!-- Node24&#45;&gt;Node25 -->
<g id="edge15" class="edge"><title>Node24&#45;&gt;Node25</title>
<path fill="none" stroke="midnightblue" d="M242.825,-757.002C246.895,-865.271 268.239,-1292.55 354,-1389 357.373,-1392.79 361.289,-1396.02 365.551,-1398.77"/>
<polygon fill="midnightblue" stroke="midnightblue" points="246.323,-756.87 242.465,-747.002 239.327,-757.122 246.323,-756.87"/>
</g>
<!-- Node26 -->
<g id="node17" class="node"><title>Node26</title>
<g id="a_node17"><a xlink:href="../../dd/d82/classAForge_1_1Imaging_1_1Filters_1_1ApplyMask.html" target="_top" xlink:title="Apply mask to the specified image.">
<polygon fill="white" stroke="black" points="356.5,-1360.5 356.5,-1379.5 523.5,-1379.5 523.5,-1360.5 356.5,-1360.5"/>
<text text-anchor="middle" x="440" y="-1367.5" font-family="Helvetica,sans-Serif" font-size="10.00">AForge.Imaging.Filters.ApplyMask</text>
</a>
</g>
</g>
<!-- Node24&#45;&gt;Node26 -->
<g id="edge16" class="edge"><title>Node24&#45;&gt;Node26</title>
<path fill="none" stroke="midnightblue" d="M242.997,-757.285C247.655,-862.251 270.694,-1262.26 354,-1350 358.071,-1354.29 362.874,-1357.73 368.092,-1360.49"/>
<polygon fill="midnightblue" stroke="midnightblue" points="246.482,-756.857 242.559,-747.015 239.489,-757.155 246.482,-756.857"/>
</g>
<!-- Node27 -->
<g id="node18" class="node"><title>Node27</title>
<g id="a_node18"><a xlink:href="../../de/de3/classAForge_1_1Imaging_1_1Filters_1_1BrightnessCorrection.html" target="_top" xlink:title="Brightness adjusting in RGB color space.">
<polygon fill="white" stroke="black" points="358,-1311 358,-1341 522,-1341 522,-1311 358,-1311"/>
<text text-anchor="start" x="366" y="-1329" font-family="Helvetica,sans-Serif" font-size="10.00">AForge.Imaging.Filters.Brightness</text>
<text text-anchor="middle" x="440" y="-1318" font-family="Helvetica,sans-Serif" font-size="10.00">Correction</text>
</a>
</g>
</g>
<!-- Node24&#45;&gt;Node27 -->
<g id="edge17" class="edge"><title>Node24&#45;&gt;Node27</title>
<path fill="none" stroke="midnightblue" d="M243.55,-757.081C250.165,-856.174 279.196,-1219 354,-1301 357.525,-1304.86 361.612,-1308.14 366.052,-1310.92"/>
<polygon fill="midnightblue" stroke="midnightblue" points="247.041,-756.829 242.899,-747.077 240.055,-757.283 247.041,-756.829"/>
</g>
<!-- Node28 -->
<g id="node19" class="node"><title>Node28</title>
<g id="a_node19"><a xlink:href="../../d2/d53/classAForge_1_1Imaging_1_1Filters_1_1ChannelFiltering.html" target="_top" xlink:title="Channels filters.">
<polygon fill="white" stroke="black" points="363.5,-1262 363.5,-1292 516.5,-1292 516.5,-1262 363.5,-1262"/>
<text text-anchor="start" x="371.5" y="-1280" font-family="Helvetica,sans-Serif" font-size="10.00">AForge.Imaging.Filters.Channel</text>
<text text-anchor="middle" x="440" y="-1269" font-family="Helvetica,sans-Serif" font-size="10.00">Filtering</text>
</a>
</g>
</g>
<!-- Node24&#45;&gt;Node28 -->
<g id="edge18" class="edge"><title>Node24&#45;&gt;Node28</title>
<path fill="none" stroke="midnightblue" d="M244.048,-757.014C252.194,-850.524 285.239,-1177.96 354,-1252 357.559,-1255.83 361.672,-1259.09 366.129,-1261.85"/>
<polygon fill="midnightblue" stroke="midnightblue" points="247.535,-756.704 243.197,-747.038 240.56,-757.299 247.535,-756.704"/>
</g>
<!-- Node29 -->
<g id="node20" class="node"><title>Node29</title>
<g id="a_node20"><a xlink:href="../../da/d2b/classAForge_1_1Imaging_1_1Filters_1_1ColorFiltering.html" target="_top" xlink:title="Color filtering.">
<polygon fill="white" stroke="black" points="370,-1213 370,-1243 510,-1243 510,-1213 370,-1213"/>
<text text-anchor="start" x="378" y="-1231" font-family="Helvetica,sans-Serif" font-size="10.00">AForge.Imaging.Filters.Color</text>
<text text-anchor="middle" x="440" y="-1220" font-family="Helvetica,sans-Serif" font-size="10.00">Filtering</text>
</a>
</g>
</g>
<!-- Node24&#45;&gt;Node29 -->
<g id="edge19" class="edge"><title>Node24&#45;&gt;Node29</title>
<path fill="none" stroke="midnightblue" d="M244.672,-757.184C254.493,-845.145 291.311,-1136.92 354,-1203 358.552,-1207.8 363.974,-1211.69 369.843,-1214.84"/>
<polygon fill="midnightblue" stroke="midnightblue" points="248.13,-756.609 243.561,-747.05 241.172,-757.372 248.13,-756.609"/>
</g>
<!-- Node30 -->
<g id="node21" class="node"><title>Node30</title>
<g id="a_node21"><a xlink:href="../../d9/d13/classAForge_1_1Imaging_1_1Filters_1_1ColorRemapping.html" target="_top" xlink:title="Color remapping.">
<polygon fill="white" stroke="black" points="370,-1164 370,-1194 510,-1194 510,-1164 370,-1164"/>
<text text-anchor="start" x="378" y="-1182" font-family="Helvetica,sans-Serif" font-size="10.00">AForge.Imaging.Filters.Color</text>
<text text-anchor="middle" x="440" y="-1171" font-family="Helvetica,sans-Serif" font-size="10.00">Remapping</text>
</a>
</g>
</g>
<!-- Node24&#45;&gt;Node30 -->
<g id="edge20" class="edge"><title>Node24&#45;&gt;Node30</title>
<path fill="none" stroke="midnightblue" d="M245.425,-757.225C257.028,-839.146 297.319,-1095.79 354,-1154 358.614,-1158.74 364.077,-1162.59 369.972,-1165.72"/>
<polygon fill="midnightblue" stroke="midnightblue" points="248.886,-756.702 244.036,-747.282 241.953,-757.67 248.886,-756.702"/>
</g>
<!-- Node31 -->
<g id="node22" class="node"><title>Node31</title>
<g id="a_node22"><a xlink:href="../../de/db8/classAForge_1_1Imaging_1_1Filters_1_1ContrastCorrection.html" target="_top" xlink:title="Contrast adjusting in RGB color space.">
<polygon fill="white" stroke="black" points="362.5,-1115 362.5,-1145 517.5,-1145 517.5,-1115 362.5,-1115"/>
<text text-anchor="start" x="370.5" y="-1133" font-family="Helvetica,sans-Serif" font-size="10.00">AForge.Imaging.Filters.Contrast</text>
<text text-anchor="middle" x="440" y="-1122" font-family="Helvetica,sans-Serif" font-size="10.00">Correction</text>
</a>
</g>
</g>
<!-- Node24&#45;&gt;Node31 -->
<g id="edge21" class="edge"><title>Node24&#45;&gt;Node31</title>
<path fill="none" stroke="midnightblue" d="M241.838,-757.398C242.837,-824.222 254.992,-1006.55 354,-1105 357.927,-1108.9 362.43,-1112.21 367.27,-1114.99"/>
<polygon fill="midnightblue" stroke="midnightblue" points="245.338,-757.319 241.762,-747.346 238.338,-757.372 245.338,-757.319"/>
</g>
<!-- Node32 -->
<g id="node23" class="node"><title>Node32</title>
<g id="a_node23"><a xlink:href="../../d9/def/classAForge_1_1Imaging_1_1Filters_1_1ContrastStretch.html" target="_top" xlink:title="Contrast stretching filter.">
<polygon fill="white" stroke="black" points="362.5,-1066 362.5,-1096 517.5,-1096 517.5,-1066 362.5,-1066"/>
<text text-anchor="start" x="370.5" y="-1084" font-family="Helvetica,sans-Serif" font-size="10.00">AForge.Imaging.Filters.Contrast</text>
<text text-anchor="middle" x="440" y="-1073" font-family="Helvetica,sans-Serif" font-size="10.00">Stretch</text>
</a>
</g>
</g>
<!-- Node24&#45;&gt;Node32 -->
<g id="edge22" class="edge"><title>Node24&#45;&gt;Node32</title>
<path fill="none" stroke="midnightblue" d="M243.183,-757.3C247.407,-817.926 266.65,-972.642 354,-1056 358.006,-1059.82 362.566,-1063.07 367.446,-1065.81"/>
<polygon fill="midnightblue" stroke="midnightblue" points="246.664,-756.879 242.556,-747.113 239.677,-757.309 246.664,-756.879"/>
</g>
<!-- Node33 -->
<g id="node24" class="node"><title>Node33</title>
<g id="a_node24"><a xlink:href="../../d2/db9/classAForge_1_1Imaging_1_1Filters_1_1ErrorDiffusionDithering.html" target="_top" xlink:title="Base class for error diffusion dithering.">
<polygon fill="white" stroke="red" points="370.5,-1017 370.5,-1047 509.5,-1047 509.5,-1017 370.5,-1017"/>
<text text-anchor="start" x="378.5" y="-1035" font-family="Helvetica,sans-Serif" font-size="10.00">AForge.Imaging.Filters.Error</text>
<text text-anchor="middle" x="440" y="-1024" font-family="Helvetica,sans-Serif" font-size="10.00">DiffusionDithering</text>
</a>
</g>
</g>
<!-- Node24&#45;&gt;Node33 -->
<g id="edge23" class="edge"><title>Node24&#45;&gt;Node33</title>
<path fill="none" stroke="midnightblue" d="M244.943,-757.136C252.605,-811.045 278.155,-938.433 354,-1007 358.792,-1011.33 364.3,-1014.92 370.16,-1017.88"/>
<polygon fill="midnightblue" stroke="midnightblue" points="248.394,-756.534 243.604,-747.084 241.455,-757.458 248.394,-756.534"/>
</g>
<!-- Node40 -->
<g id="node25" class="node"><title>Node40</title>
<g id="a_node25"><a xlink:href="../../d0/de5/classAForge_1_1Imaging_1_1Filters_1_1EuclideanColorFiltering.html" target="_top" xlink:title="Euclidean color filtering.">
<polygon fill="white" stroke="black" points="359.5,-968 359.5,-998 520.5,-998 520.5,-968 359.5,-968"/>
<text text-anchor="start" x="367.5" y="-986" font-family="Helvetica,sans-Serif" font-size="10.00">AForge.Imaging.Filters.Euclidean</text>
<text text-anchor="middle" x="440" y="-975" font-family="Helvetica,sans-Serif" font-size="10.00">ColorFiltering</text>
</a>
</g>
</g>
<!-- Node24&#45;&gt;Node40 -->
<g id="edge24" class="edge"><title>Node24&#45;&gt;Node40</title>
<path fill="none" stroke="midnightblue" d="M247.419,-757.147C258.79,-803.803 289.593,-903.929 354,-958 358.595,-961.857 363.762,-965.119 369.221,-967.878"/>
<polygon fill="midnightblue" stroke="midnightblue" points="250.793,-756.205 245.109,-747.264 243.977,-757.798 250.793,-756.205"/>
</g>
<!-- Node41 -->
<g id="node26" class="node"><title>Node41</title>
<g id="a_node26"><a xlink:href="../../df/d34/classAForge_1_1Imaging_1_1Filters_1_1GammaCorrection.html" target="_top" xlink:title="Gamma correction filter.">
<polygon fill="white" stroke="black" points="364,-919 364,-949 516,-949 516,-919 364,-919"/>
<text text-anchor="start" x="372" y="-937" font-family="Helvetica,sans-Serif" font-size="10.00">AForge.Imaging.Filters.Gamma</text>
<text text-anchor="middle" x="440" y="-926" font-family="Helvetica,sans-Serif" font-size="10.00">Correction</text>
</a>
</g>
</g>
<!-- Node24&#45;&gt;Node41 -->
<g id="edge25" class="edge"><title>Node24&#45;&gt;Node41</title>
<path fill="none" stroke="midnightblue" d="M250.906,-756.532C266.075,-794.852 300.571,-868.69 354,-909 359.157,-912.891 364.91,-916.178 370.925,-918.955"/>
<polygon fill="midnightblue" stroke="midnightblue" points="254.158,-755.237 247.303,-747.159 247.624,-757.749 254.158,-755.237"/>
</g>
<!-- Node42 -->
<g id="node27" class="node"><title>Node42</title>
<g id="a_node27"><a xlink:href="../../df/ded/classAForge_1_1Imaging_1_1Filters_1_1HistogramEqualization.html" target="_top" xlink:title="Histogram equalization filter.">
<polygon fill="white" stroke="black" points="359,-870 359,-900 521,-900 521,-870 359,-870"/>
<text text-anchor="start" x="367" y="-888" font-family="Helvetica,sans-Serif" font-size="10.00">AForge.Imaging.Filters.Histogram</text>
<text text-anchor="middle" x="440" y="-877" font-family="Helvetica,sans-Serif" font-size="10.00">Equalization</text>
</a>
</g>
</g>
<!-- Node24&#45;&gt;Node42 -->
<g id="edge26" class="edge"><title>Node24&#45;&gt;Node42</title>
<path fill="none" stroke="midnightblue" d="M256.626,-755.74C275.594,-784.572 311.352,-832.724 354,-860 359.961,-863.812 366.524,-867.062 373.28,-869.828"/>
<polygon fill="midnightblue" stroke="midnightblue" points="259.426,-753.623 251.07,-747.109 253.54,-757.412 259.426,-753.623"/>
</g>
<!-- Node43 -->
<g id="node28" class="node"><title>Node43</title>
<g id="a_node28"><a xlink:href="../../d5/d0c/classAForge_1_1Imaging_1_1Filters_1_1HorizontalRunLengthSmoothing.html" target="_top" xlink:title="Horizontal run length smoothing algorithm.">
<polygon fill="white" stroke="black" points="359.5,-821 359.5,-851 520.5,-851 520.5,-821 359.5,-821"/>
<text text-anchor="start" x="367.5" y="-839" font-family="Helvetica,sans-Serif" font-size="10.00">AForge.Imaging.Filters.Horizontal</text>
<text text-anchor="middle" x="440" y="-828" font-family="Helvetica,sans-Serif" font-size="10.00">RunLengthSmoothing</text>
</a>
</g>
</g>
<!-- Node24&#45;&gt;Node43 -->
<g id="edge27" class="edge"><title>Node24&#45;&gt;Node43</title>
<path fill="none" stroke="midnightblue" d="M267.239,-753.479C288.999,-771.063 321.895,-795.484 354,-811 361.756,-814.748 370.186,-818.053 378.624,-820.929"/>
<polygon fill="midnightblue" stroke="midnightblue" points="269.421,-750.743 259.469,-747.108 264.982,-756.155 269.421,-750.743"/>
</g>
<!-- Node44 -->
<g id="node29" class="node"><title>Node44</title>
<g id="a_node29"><a xlink:href="../../d6/d57/classAForge_1_1Imaging_1_1Filters_1_1HSLFiltering.html" target="_top" xlink:title="Color filtering in HSL color space.">
<polygon fill="white" stroke="black" points="354.5,-782.5 354.5,-801.5 525.5,-801.5 525.5,-782.5 354.5,-782.5"/>
<text text-anchor="middle" x="440" y="-789.5" font-family="Helvetica,sans-Serif" font-size="10.00">AForge.Imaging.Filters.HSLFiltering</text>
</a>
</g>
</g>
<!-- Node24&#45;&gt;Node44 -->
<g id="edge28" class="edge"><title>Node24&#45;&gt;Node44</title>
<path fill="none" stroke="midnightblue" d="M288.643,-750.627C308.578,-758.181 332.23,-766.612 354,-773 365.898,-776.491 378.894,-779.695 391.065,-782.438"/>
<polygon fill="midnightblue" stroke="midnightblue" points="289.77,-747.311 279.18,-747.002 287.266,-753.847 289.77,-747.311"/>
</g>
<!-- Node45 -->
<g id="node30" class="node"><title>Node45</title>
<g id="a_node30"><a xlink:href="../../de/d0e/classAForge_1_1Imaging_1_1Filters_1_1HSLLinear.html" target="_top" xlink:title="Luminance and saturation linear correction.">
<polygon fill="white" stroke="black" points="358.5,-744.5 358.5,-763.5 521.5,-763.5 521.5,-744.5 358.5,-744.5"/>
<text text-anchor="middle" x="440" y="-751.5" font-family="Helvetica,sans-Serif" font-size="10.00">AForge.Imaging.Filters.HSLLinear</text>
</a>
</g>
</g>
<!-- Node24&#45;&gt;Node45 -->
<g id="edge29" class="edge"><title>Node24&#45;&gt;Node45</title>
<path fill="none" stroke="midnightblue" d="M321.275,-740.853C333.43,-742.21 345.991,-743.613 358.179,-744.974"/>
<polygon fill="midnightblue" stroke="midnightblue" points="321.505,-737.357 311.178,-739.725 320.728,-744.314 321.505,-737.357"/>
</g>
<!-- Node46 -->
<g id="node31" class="node"><title>Node46</title>
<g id="a_node31"><a xlink:href="../../d5/dbc/classAForge_1_1Imaging_1_1Filters_1_1HueModifier.html" target="_top" xlink:title="Hue modifier.">
<polygon fill="white" stroke="black" points="372.5,-695 372.5,-725 507.5,-725 507.5,-695 372.5,-695"/>
<text text-anchor="start" x="380.5" y="-713" font-family="Helvetica,sans-Serif" font-size="10.00">AForge.Imaging.Filters.Hue</text>
<text text-anchor="middle" x="440" y="-702" font-family="Helvetica,sans-Serif" font-size="10.00">Modifier</text>
</a>
</g>
</g>
<!-- Node24&#45;&gt;Node46 -->
<g id="edge30" class="edge"><title>Node24&#45;&gt;Node46</title>
<path fill="none" stroke="midnightblue" d="M321.547,-723.117C338.389,-721.236 356,-719.269 372.307,-717.448"/>
<polygon fill="midnightblue" stroke="midnightblue" points="320.728,-719.686 311.178,-724.275 321.505,-726.643 320.728,-719.686"/>
</g>
<!-- Node47 -->
<g id="node32" class="node"><title>Node47</title>
<g id="a_node32"><a xlink:href="../../df/d32/classAForge_1_1Imaging_1_1Filters_1_1Invert.html" target="_top" xlink:title="Invert image.">
<polygon fill="white" stroke="black" points="370,-656.5 370,-675.5 510,-675.5 510,-656.5 370,-656.5"/>
<text text-anchor="middle" x="440" y="-663.5" font-family="Helvetica,sans-Serif" font-size="10.00">AForge.Imaging.Filters.Invert</text>
</a>
</g>
</g>
<!-- Node24&#45;&gt;Node47 -->
<g id="edge31" class="edge"><title>Node24&#45;&gt;Node47</title>
<path fill="none" stroke="midnightblue" d="M302.748,-713.426C307.967,-711.407 313.115,-709.259 318,-707 335.019,-699.129 336.616,-692.029 354,-685 363.392,-681.202 373.691,-678.091 383.777,-675.567"/>
<polygon fill="midnightblue" stroke="midnightblue" points="301.483,-710.163 293.32,-716.917 303.913,-716.727 301.483,-710.163"/>
</g>
<!-- Node48 -->
<g id="node33" class="node"><title>Node48</title>
<g id="a_node33"><a xlink:href="../../da/d12/classAForge_1_1Imaging_1_1Filters_1_1LevelsLinear.html" target="_top" xlink:title="Linear correction of RGB channels.">
<polygon fill="white" stroke="black" points="367.5,-607 367.5,-637 512.5,-637 512.5,-607 367.5,-607"/>
<text text-anchor="start" x="375.5" y="-625" font-family="Helvetica,sans-Serif" font-size="10.00">AForge.Imaging.Filters.Levels</text>
<text text-anchor="middle" x="440" y="-614" font-family="Helvetica,sans-Serif" font-size="10.00">Linear</text>
</a>
</g>
</g>
<!-- Node24&#45;&gt;Node48 -->
<g id="edge32" class="edge"><title>Node24&#45;&gt;Node48</title>
<path fill="none" stroke="midnightblue" d="M310.755,-712.101C313.283,-710.526 315.711,-708.829 318,-707 342.296,-687.589 329.398,-666.023 354,-647 358.989,-643.142 364.56,-639.879 370.399,-637.119"/>
<polygon fill="midnightblue" stroke="midnightblue" points="308.913,-709.119 301.828,-716.997 312.279,-715.257 308.913,-709.119"/>
</g>
<!-- Node49 -->
<g id="node34" class="node"><title>Node49</title>
<g id="a_node34"><a xlink:href="../../d6/dfe/classAForge_1_1Imaging_1_1Filters_1_1LevelsLinear16bpp.html" target="_top" xlink:title="Linear correction of RGB channels for images, which have 16 bpp planes (16 bit gray images or 48/64 b...">
<polygon fill="white" stroke="black" points="367.5,-558 367.5,-588 512.5,-588 512.5,-558 367.5,-558"/>
<text text-anchor="start" x="375.5" y="-576" font-family="Helvetica,sans-Serif" font-size="10.00">AForge.Imaging.Filters.Levels</text>
<text text-anchor="middle" x="440" y="-565" font-family="Helvetica,sans-Serif" font-size="10.00">Linear16bpp</text>
</a>
</g>
</g>
<!-- Node24&#45;&gt;Node49 -->
<g id="edge33" class="edge"><title>Node24&#45;&gt;Node49</title>
<path fill="none" stroke="midnightblue" d="M313.456,-711.069C315.045,-709.792 316.565,-708.438 318,-707 354.346,-670.599 316.886,-632.619 354,-597 357.983,-593.178 362.526,-589.956 367.394,-587.241"/>
<polygon fill="midnightblue" stroke="midnightblue" points="311.294,-708.307 304.995,-716.827 315.232,-714.095 311.294,-708.307"/>
</g>
<!-- Node50 -->
<g id="node35" class="node"><title>Node50</title>
<g id="a_node35"><a xlink:href="../../d7/d5c/classAForge_1_1Imaging_1_1Filters_1_1MaskedFilter.html" target="_top" xlink:title="Apply filter according to the specified mask.">
<polygon fill="white" stroke="black" points="364,-509 364,-539 516,-539 516,-509 364,-509"/>
<text text-anchor="start" x="372" y="-527" font-family="Helvetica,sans-Serif" font-size="10.00">AForge.Imaging.Filters.Masked</text>
<text text-anchor="middle" x="440" y="-516" font-family="Helvetica,sans-Serif" font-size="10.00">Filter</text>
</a>
</g>
</g>
<!-- Node24&#45;&gt;Node50 -->
<g id="edge34" class="edge"><title>Node24&#45;&gt;Node50</title>
<path fill="none" stroke="midnightblue" d="M314.129,-710.816C315.486,-709.613 316.779,-708.343 318,-707 366.74,-653.388 304.129,-600.561 354,-548 357.272,-544.552 360.998,-541.587 365.02,-539.038"/>
<polygon fill="midnightblue" stroke="midnightblue" points="311.727,-708.238 305.749,-716.985 315.877,-713.875 311.727,-708.238"/>
</g>
<!-- Node51 -->
<g id="node36" class="node"><title>Node51</title>
<g id="a_node36"><a xlink:href="../../df/d3c/classAForge_1_1Imaging_1_1Filters_1_1Mirror.html" target="_top" xlink:title="Mirroring filter.">
<polygon fill="white" stroke="black" points="368.5,-470.5 368.5,-489.5 511.5,-489.5 511.5,-470.5 368.5,-470.5"/>
<text text-anchor="middle" x="440" y="-477.5" font-family="Helvetica,sans-Serif" font-size="10.00">AForge.Imaging.Filters.Mirror</text>
</a>
</g>
</g>
<!-- Node24&#45;&gt;Node51 -->
<g id="edge35" class="edge"><title>Node24&#45;&gt;Node51</title>
<path fill="none" stroke="midnightblue" d="M314.328,-710.802C315.618,-709.603 316.846,-708.337 318,-707 379.31,-635.985 289.289,-566.93 354,-499 358.172,-494.621 363.115,-491.146 368.487,-488.4"/>
<polygon fill="midnightblue" stroke="midnightblue" points="312.117,-708.087 306.323,-716.956 316.384,-713.636 312.117,-708.087"/>
</g>
<!-- Node52 -->
<g id="node37" class="node"><title>Node52</title>
<g id="a_node37"><a xlink:href="../../d2/d46/classAForge_1_1Imaging_1_1Filters_1_1OrderedDithering.html" target="_top" xlink:title="Binarization with thresholds matrix.">
<polygon fill="white" stroke="red" points="364,-421 364,-451 516,-451 516,-421 364,-421"/>
<text text-anchor="start" x="372" y="-439" font-family="Helvetica,sans-Serif" font-size="10.00">AForge.Imaging.Filters.Ordered</text>
<text text-anchor="middle" x="440" y="-428" font-family="Helvetica,sans-Serif" font-size="10.00">Dithering</text>
</a>
</g>
</g>
<!-- Node24&#45;&gt;Node52 -->
<g id="edge36" class="edge"><title>Node24&#45;&gt;Node52</title>
<path fill="none" stroke="midnightblue" d="M314.815,-710.42C315.93,-709.335 316.994,-708.196 318,-707 389.113,-622.426 281.553,-544.434 354,-461 357.328,-457.167 361.211,-453.907 365.449,-451.136"/>
<polygon fill="midnightblue" stroke="midnightblue" points="312.421,-707.853 306.784,-716.824 316.785,-713.326 312.421,-707.853"/>
</g>
<!-- Node54 -->
<g id="node38" class="node"><title>Node54</title>
<g id="a_node38"><a xlink:href="../../d0/ded/classAForge_1_1Imaging_1_1Filters_1_1OtsuThreshold.html" target="_top" xlink:title="Otsu thresholding.">
<polygon fill="white" stroke="black" points="370.5,-372 370.5,-402 509.5,-402 509.5,-372 370.5,-372"/>
<text text-anchor="start" x="378.5" y="-390" font-family="Helvetica,sans-Serif" font-size="10.00">AForge.Imaging.Filters.Otsu</text>
<text text-anchor="middle" x="440" y="-379" font-family="Helvetica,sans-Serif" font-size="10.00">Threshold</text>
</a>
</g>
</g>
<!-- Node24&#45;&gt;Node54 -->
<g id="edge37" class="edge"><title>Node24&#45;&gt;Node54</title>
<path fill="none" stroke="midnightblue" d="M314.855,-710.453C315.958,-709.358 317.009,-708.208 318,-707 402.051,-604.539 267.785,-511.647 354,-411 358.489,-405.76 364.026,-401.62 370.105,-398.356"/>
<polygon fill="midnightblue" stroke="midnightblue" points="312.453,-707.895 306.887,-716.91 316.86,-713.333 312.453,-707.895"/>
</g>
<!-- Node55 -->
<g id="node39" class="node"><title>Node55</title>
<g id="a_node39"><a xlink:href="../../dc/d76/classAForge_1_1Imaging_1_1Filters_1_1Pixellate.html" target="_top" xlink:title="Pixellate filter.">
<polygon fill="white" stroke="black" points="362.5,-333.5 362.5,-352.5 517.5,-352.5 517.5,-333.5 362.5,-333.5"/>
<text text-anchor="middle" x="440" y="-340.5" font-family="Helvetica,sans-Serif" font-size="10.00">AForge.Imaging.Filters.Pixellate</text>
</a>
</g>
</g>
<!-- Node24&#45;&gt;Node55 -->
<g id="edge38" class="edge"><title>Node24&#45;&gt;Node55</title>
<path fill="none" stroke="midnightblue" d="M314.883,-710.476C315.978,-709.374 317.019,-708.217 318,-707 414.757,-586.978 251.487,-477.145 354,-362 357.318,-358.273 361.193,-355.191 365.426,-352.65"/>
<polygon fill="midnightblue" stroke="midnightblue" points="312.477,-707.924 306.961,-716.969 316.914,-713.338 312.477,-707.924"/>
</g>
<!-- Node56 -->
<g id="node40" class="node"><title>Node56</title>
<g id="a_node40"><a xlink:href="../../dd/d84/classAForge_1_1Imaging_1_1Filters_1_1PointedColorFloodFill.html" target="_top" xlink:title="Flood filling with specified color starting from specified point.">
<polygon fill="white" stroke="black" points="364.5,-284 364.5,-314 515.5,-314 515.5,-284 364.5,-284"/>
<text text-anchor="start" x="372.5" y="-302" font-family="Helvetica,sans-Serif" font-size="10.00">AForge.Imaging.Filters.Pointed</text>
<text text-anchor="middle" x="440" y="-291" font-family="Helvetica,sans-Serif" font-size="10.00">ColorFloodFill</text>
</a>
</g>
</g>
<!-- Node24&#45;&gt;Node56 -->
<g id="edge39" class="edge"><title>Node24&#45;&gt;Node56</title>
<path fill="none" stroke="midnightblue" d="M315.306,-710.073C316.248,-709.092 317.147,-708.069 318,-707 371.311,-640.173 299.635,-389.973 354,-324 357.13,-320.201 360.806,-316.962 364.842,-314.201"/>
<polygon fill="midnightblue" stroke="midnightblue" points="312.745,-707.654 307.348,-716.771 317.253,-713.009 312.745,-707.654"/>
</g>
<!-- Node57 -->
<g id="node41" class="node"><title>Node57</title>
<g id="a_node41"><a xlink:href="../../d7/de4/classAForge_1_1Imaging_1_1Filters_1_1PointedMeanFloodFill.html" target="_top" xlink:title="Flood filling with mean color starting from specified point.">
<polygon fill="white" stroke="black" points="364.5,-235 364.5,-265 515.5,-265 515.5,-235 364.5,-235"/>
<text text-anchor="start" x="372.5" y="-253" font-family="Helvetica,sans-Serif" font-size="10.00">AForge.Imaging.Filters.Pointed</text>
<text text-anchor="middle" x="440" y="-242" font-family="Helvetica,sans-Serif" font-size="10.00">MeanFloodFill</text>
</a>
</g>
</g>
<!-- Node24&#45;&gt;Node57 -->
<g id="edge40" class="edge"><title>Node24&#45;&gt;Node57</title>
<path fill="none" stroke="midnightblue" d="M315.322,-710.085C316.259,-709.101 317.153,-708.073 318,-707 377.805,-631.197 292.593,-348.511 354,-274 357.023,-270.332 360.561,-267.2 364.443,-264.528"/>
<polygon fill="midnightblue" stroke="midnightblue" points="312.758,-707.671 307.394,-716.807 317.285,-713.01 312.758,-707.671"/>
</g>
<!-- Node58 -->
<g id="node42" class="node"><title>Node58</title>
<g id="a_node42"><a xlink:href="../../de/d0a/classAForge_1_1Imaging_1_1Filters_1_1ReplaceChannel.html" target="_top" xlink:title="Replace RGB channel of color imgae.">
<polygon fill="white" stroke="black" points="363.5,-186 363.5,-216 516.5,-216 516.5,-186 363.5,-186"/>
<text text-anchor="start" x="371.5" y="-204" font-family="Helvetica,sans-Serif" font-size="10.00">AForge.Imaging.Filters.Replace</text>
<text text-anchor="middle" x="440" y="-193" font-family="Helvetica,sans-Serif" font-size="10.00">Channel</text>
</a>
</g>
</g>
<!-- Node24&#45;&gt;Node58 -->
<g id="edge41" class="edge"><title>Node24&#45;&gt;Node58</title>
<path fill="none" stroke="midnightblue" d="M315.335,-710.095C316.268,-709.108 317.158,-708.077 318,-707 384.174,-622.397 286.038,-308.175 354,-225 356.814,-221.557 360.081,-218.585 363.662,-216.023"/>
<polygon fill="midnightblue" stroke="midnightblue" points="312.769,-707.684 307.43,-716.835 317.311,-713.01 312.769,-707.684"/>
</g>
<!-- Node59 -->
<g id="node43" class="node"><title>Node59</title>
<g id="a_node43"><a xlink:href="../../d2/df7/classAForge_1_1Imaging_1_1Filters_1_1RotateChannels.html" target="_top" xlink:title="Rotate RGB channels.">
<polygon fill="white" stroke="black" points="367,-137 367,-167 513,-167 513,-137 367,-137"/>
<text text-anchor="start" x="375" y="-155" font-family="Helvetica,sans-Serif" font-size="10.00">AForge.Imaging.Filters.Rotate</text>
<text text-anchor="middle" x="440" y="-144" font-family="Helvetica,sans-Serif" font-size="10.00">Channels</text>
</a>
</g>
</g>
<!-- Node24&#45;&gt;Node59 -->
<g id="edge42" class="edge"><title>Node24&#45;&gt;Node59</title>
<path fill="none" stroke="midnightblue" d="M315.345,-710.103C316.275,-709.114 317.161,-708.08 318,-707 390.546,-613.592 279.48,-267.841 354,-176 357.575,-171.594 361.892,-167.961 366.662,-164.968"/>
<polygon fill="midnightblue" stroke="midnightblue" points="312.777,-707.695 307.46,-716.858 317.331,-713.011 312.777,-707.695"/>
</g>
<!-- Node60 -->
<g id="node44" class="node"><title>Node60</title>
<g id="a_node44"><a xlink:href="../../dc/d1b/classAForge_1_1Imaging_1_1Filters_1_1SaltAndPepperNoise.html" target="_top" xlink:title="Salt and pepper noise.">
<polygon fill="white" stroke="black" points="372.5,-88 372.5,-118 507.5,-118 507.5,-88 372.5,-88"/>
<text text-anchor="start" x="380.5" y="-106" font-family="Helvetica,sans-Serif" font-size="10.00">AForge.Imaging.Filters.Salt</text>
<text text-anchor="middle" x="440" y="-95" font-family="Helvetica,sans-Serif" font-size="10.00">AndPepperNoise</text>
</a>
</g>
</g>
<!-- Node24&#45;&gt;Node60 -->
<g id="edge43" class="edge"><title>Node24&#45;&gt;Node60</title>
<path fill="none" stroke="midnightblue" d="M315.354,-710.11C316.281,-709.118 317.164,-708.082 318,-707 396.92,-604.785 272.92,-227.511 354,-127 358.91,-120.913 365.237,-116.299 372.222,-112.813"/>
<polygon fill="midnightblue" stroke="midnightblue" points="312.784,-707.703 307.484,-716.877 317.348,-713.011 312.784,-707.703"/>
</g>
<!-- Node61 -->
<g id="node45" class="node"><title>Node61</title>
<g id="a_node45"><a xlink:href="../../d8/d9e/classAForge_1_1Imaging_1_1Filters_1_1SaturationCorrection.html" target="_top" xlink:title="Saturation adjusting in HSL color space.">
<polygon fill="white" stroke="black" points="359,-39 359,-69 521,-69 521,-39 359,-39"/>
<text text-anchor="start" x="367" y="-57" font-family="Helvetica,sans-Serif" font-size="10.00">AForge.Imaging.Filters.Saturation</text>
<text text-anchor="middle" x="440" y="-46" font-family="Helvetica,sans-Serif" font-size="10.00">Correction</text>
</a>
</g>
</g>
<!-- Node24&#45;&gt;Node61 -->
<g id="edge44" class="edge"><title>Node24&#45;&gt;Node61</title>
<path fill="none" stroke="midnightblue" d="M315.361,-710.115C316.286,-709.122 317.167,-708.084 318,-707 403.296,-595.975 266.359,-187.182 354,-78 356.688,-74.6518 359.804,-71.7489 363.224,-69.2339"/>
<polygon fill="midnightblue" stroke="midnightblue" points="312.79,-707.711 307.505,-716.893 317.363,-713.011 312.79,-707.711"/>
</g>
<!-- Node62 -->
<g id="node46" class="node"><title>Node62</title>
<g id="a_node46"><a xlink:href="../../de/dba/classAForge_1_1Imaging_1_1Filters_1_1Sepia.html" target="_top" xlink:title="Sepia filter &#45; old brown photo.">
<polygon fill="white" stroke="black" points="368.5,-0.5 368.5,-19.5 511.5,-19.5 511.5,-0.5 368.5,-0.5"/>
<text text-anchor="middle" x="440" y="-7.5" font-family="Helvetica,sans-Serif" font-size="10.00">AForge.Imaging.Filters.Sepia</text>
</a>
</g>
</g>
<!-- Node24&#45;&gt;Node62 -->
<g id="edge45" class="edge"><title>Node24&#45;&gt;Node62</title>
<path fill="none" stroke="midnightblue" d="M315.367,-710.12C316.29,-709.125 317.169,-708.086 318,-707 409.673,-587.164 256.575,-144.207 354,-29 358.003,-24.2661 362.904,-20.5612 368.313,-17.6771"/>
<polygon fill="midnightblue" stroke="midnightblue" points="312.795,-707.717 307.523,-716.907 317.375,-713.011 312.795,-707.717"/>
</g>
</g>
</svg>
