<?xml version="1.0" encoding="UTF-8" standalone="no"?>
<!DOCTYPE svg PUBLIC "-//W3C//DTD SVG 1.1//EN"
 "http://www.w3.org/Graphics/SVG/1.1/DTD/svg11.dtd">
<!-- Generated by graphviz version 2.38.0 (20140413.2041)
 -->
<!-- Title: IG.Forms.MathematicaCalculatorControl Pages: 1 -->
<svg width="181pt" height="216pt"
 viewBox="0.00 0.00 181.00 216.00" xmlns="http://www.w3.org/2000/svg" xmlns:xlink="http://www.w3.org/1999/xlink">
<g id="graph0" class="graph" transform="scale(1 1) rotate(0) translate(4 212)">
<title>IG.Forms.MathematicaCalculatorControl</title>
<polygon fill="white" stroke="none" points="-4,4 -4,-212 177,-212 177,4 -4,4"/>
<!-- Node1 -->
<g id="node1" class="node"><title>Node1</title>
<g id="a_node1"><a xlink:title=" ">
<polygon fill="#bfbfbf" stroke="black" points="0,-0.5 0,-30.5 160,-30.5 160,-0.5 0,-0.5"/>
<text text-anchor="start" x="8" y="-18.5" font-family="Helvetica,sans-Serif" font-size="10.00">IG.Forms.MathematicaCalculator</text>
<text text-anchor="middle" x="80" y="-7.5" font-family="Helvetica,sans-Serif" font-size="10.00">Control</text>
</a>
</g>
</g>
<!-- Node2 -->
<g id="node2" class="node"><title>Node2</title>
<g id="a_node2"><a xlink:title=" ">
<polygon fill="white" stroke="#bfbfbf" points="8,-188.5 8,-207.5 76,-207.5 76,-188.5 8,-188.5"/>
<text text-anchor="middle" x="42" y="-195.5" font-family="Helvetica,sans-Serif" font-size="10.00">UserControl</text>
</a>
</g>
</g>
<!-- Node2&#45;&gt;Node1 -->
<g id="edge1" class="edge"><title>Node2&#45;&gt;Node1</title>
<path fill="none" stroke="midnightblue" d="M45.981,-178.09C53.6419,-141.701 70.2749,-62.6941 77.0444,-30.5391"/>
<polygon fill="midnightblue" stroke="midnightblue" points="42.4681,-177.788 43.8328,-188.294 49.3179,-179.23 42.4681,-177.788"/>
</g>
<!-- Node3 -->
<g id="node3" class="node"><title>Node3</title>
<g id="a_node3"><a xlink:title=" ">
<polygon fill="white" stroke="#bfbfbf" points="94,-188.5 94,-207.5 144,-207.5 144,-188.5 94,-188.5"/>
<text text-anchor="middle" x="119" y="-195.5" font-family="Helvetica,sans-Serif" font-size="10.00">System</text>
</a>
</g>
</g>
<!-- Node3&#45;&gt;Node1 -->
<g id="edge2" class="edge"><title>Node3&#45;&gt;Node1</title>
<path fill="none" stroke="#9a32cd" stroke-dasharray="5,2" d="M114.914,-178.09C107.052,-141.701 89.981,-62.6941 83.0334,-30.5391"/>
<polygon fill="#9a32cd" stroke="#9a32cd" points="111.586,-179.259 117.119,-188.294 118.428,-177.78 111.586,-179.259"/>
<text text-anchor="middle" x="142.5" y="-162" font-family="Helvetica,sans-Serif" font-size="10.00"> txtMessages</text>
<text text-anchor="middle" x="142.5" y="-151" font-family="Helvetica,sans-Serif" font-size="10.00">lblGraphics</text>
<text text-anchor="middle" x="142.5" y="-140" font-family="Helvetica,sans-Serif" font-size="10.00">txtPrint</text>
<text text-anchor="middle" x="142.5" y="-129" font-family="Helvetica,sans-Serif" font-size="10.00">_resources</text>
<text text-anchor="middle" x="142.5" y="-118" font-family="Helvetica,sans-Serif" font-size="10.00">chkNumeric</text>
<text text-anchor="middle" x="142.5" y="-107" font-family="Helvetica,sans-Serif" font-size="10.00">imgGraphics</text>
<text text-anchor="middle" x="142.5" y="-96" font-family="Helvetica,sans-Serif" font-size="10.00">components</text>
<text text-anchor="middle" x="142.5" y="-85" font-family="Helvetica,sans-Serif" font-size="10.00">lblInput</text>
<text text-anchor="middle" x="142.5" y="-74" font-family="Helvetica,sans-Serif" font-size="10.00">_defaultImage</text>
<text text-anchor="middle" x="142.5" y="-63" font-family="Helvetica,sans-Serif" font-size="10.00">textResult</text>
<text text-anchor="middle" x="142.5" y="-52" font-family="Helvetica,sans-Serif" font-size="10.00">...</text>
</g>
</g>
</svg>
