<?xml version="1.0" encoding="UTF-8" standalone="no"?>
<!DOCTYPE svg PUBLIC "-//W3C//DTD SVG 1.1//EN"
 "http://www.w3.org/Graphics/SVG/1.1/DTD/svg11.dtd">
<!-- Generated by graphviz version 2.38.0 (20140413.2041)
 -->
<!-- Title: IG.Forms.ControlViewerControl Pages: 1 -->
<svg width="210pt" height="216pt"
 viewBox="0.00 0.00 209.50 216.00" xmlns="http://www.w3.org/2000/svg" xmlns:xlink="http://www.w3.org/1999/xlink">
<g id="graph0" class="graph" transform="scale(1 1) rotate(0) translate(4 212)">
<title>IG.Forms.ControlViewerControl</title>
<polygon fill="white" stroke="none" points="-4,4 -4,-212 205.5,-212 205.5,4 -4,4"/>
<!-- Node1 -->
<g id="node1" class="node"><title>Node1</title>
<g id="a_node1"><a xlink:title=" ">
<polygon fill="#bfbfbf" stroke="black" points="0,-0.5 0,-19.5 151,-19.5 151,-0.5 0,-0.5"/>
<text text-anchor="middle" x="75.5" y="-7.5" font-family="Helvetica,sans-Serif" font-size="10.00">IG.Forms.ControlViewerControl</text>
</a>
</g>
</g>
<!-- Node2 -->
<g id="node2" class="node"><title>Node2</title>
<g id="a_node2"><a xlink:title=" ">
<polygon fill="white" stroke="#bfbfbf" points="3.5,-188.5 3.5,-207.5 71.5,-207.5 71.5,-188.5 3.5,-188.5"/>
<text text-anchor="middle" x="37.5" y="-195.5" font-family="Helvetica,sans-Serif" font-size="10.00">UserControl</text>
</a>
</g>
</g>
<!-- Node2&#45;&gt;Node1 -->
<g id="edge1" class="edge"><title>Node2&#45;&gt;Node1</title>
<path fill="none" stroke="midnightblue" d="M41.3583,-178.115C49.432,-138.596 67.8431,-48.4784 73.6856,-19.8812"/>
<polygon fill="midnightblue" stroke="midnightblue" points="37.9054,-177.531 39.3328,-188.029 44.7637,-178.932 37.9054,-177.531"/>
</g>
<!-- Node3 -->
<g id="node3" class="node"><title>Node3</title>
<g id="a_node3"><a xlink:title=" ">
<polygon fill="white" stroke="#bfbfbf" points="89.5,-188.5 89.5,-207.5 139.5,-207.5 139.5,-188.5 89.5,-188.5"/>
<text text-anchor="middle" x="114.5" y="-195.5" font-family="Helvetica,sans-Serif" font-size="10.00">System</text>
</a>
</g>
</g>
<!-- Node3&#45;&gt;Node1 -->
<g id="edge2" class="edge"><title>Node3&#45;&gt;Node1</title>
<path fill="none" stroke="#9a32cd" stroke-dasharray="5,2" d="M110.54,-178.115C102.254,-138.596 83.3584,-48.4784 77.3622,-19.8812"/>
<polygon fill="#9a32cd" stroke="#9a32cd" points="107.141,-178.96 112.619,-188.029 113.992,-177.523 107.141,-178.96"/>
<text text-anchor="middle" x="154.5" y="-162" font-family="Helvetica,sans-Serif" font-size="10.00"> pnlControls</text>
<text text-anchor="middle" x="154.5" y="-151" font-family="Helvetica,sans-Serif" font-size="10.00">pnlControlContainer</text>
<text text-anchor="middle" x="154.5" y="-140" font-family="Helvetica,sans-Serif" font-size="10.00">btnZoomIn</text>
<text text-anchor="middle" x="154.5" y="-129" font-family="Helvetica,sans-Serif" font-size="10.00">components</text>
<text text-anchor="middle" x="154.5" y="-118" font-family="Helvetica,sans-Serif" font-size="10.00">btnCloseControls</text>
<text text-anchor="middle" x="154.5" y="-107" font-family="Helvetica,sans-Serif" font-size="10.00">btnControlPosition</text>
<text text-anchor="middle" x="154.5" y="-96" font-family="Helvetica,sans-Serif" font-size="10.00">lblControls</text>
<text text-anchor="middle" x="154.5" y="-85" font-family="Helvetica,sans-Serif" font-size="10.00">btnTest</text>
<text text-anchor="start" x="107.5" y="-74" font-family="Helvetica,sans-Serif" font-size="10.00">btnUnderConstruction</text>
<text text-anchor="middle" x="154.5" y="-63" font-family="Helvetica,sans-Serif" font-size="10.00">_To_Delete</text>
<text text-anchor="middle" x="154.5" y="-52" font-family="Helvetica,sans-Serif" font-size="10.00">flowLayoutPanel1</text>
<text text-anchor="middle" x="154.5" y="-41" font-family="Helvetica,sans-Serif" font-size="10.00">...</text>
</g>
</g>
</svg>
