<?xml version="1.0" encoding="UTF-8" standalone="no"?>
<!DOCTYPE svg PUBLIC "-//W3C//DTD SVG 1.1//EN"
 "http://www.w3.org/Graphics/SVG/1.1/DTD/svg11.dtd">
<!-- Generated by graphviz version 2.38.0 (20140413.2041)
 -->
<!-- Title: IG.Lib.LoadableScriptBase Pages: 1 -->
<!--zoomable 1373 -->
<svg id="main" version="1.1" xmlns="http://www.w3.org/2000/svg" xmlns:xlink="http://www.w3.org/1999/xlink" xml:space="preserve" onload="init(evt)">
<style type="text/css"><![CDATA[
.edge:hover path { stroke: red; }
.edge:hover polygon { stroke: red; fill: red; }
]]></style>
<script type="text/javascript"><![CDATA[
var edges = document.getElementsByTagName('g');
if (edges && edges.length) {
  for (var i=0;i<edges.length;i++) {
    if (edges[i].id.substr(0,4)=='edge') {
      edges[i].setAttribute('class','edge');
    }
  }
}
]]></script>
        <defs>
                <circle id="rim" cx="0" cy="0" r="7"/>
                <circle id="rim2" cx="0" cy="0" r="3.5"/>
                <g id="zoomPlus">
                        <use xlink:href="#rim" fill="#404040">
                                <set attributeName="fill" to="#808080" begin="zoomplus.mouseover" end="zoomplus.mouseout"/>
                        </use>
                        <path d="M-4,0h8M0,-4v8" fill="none" stroke="white" stroke-width="1.5" pointer-events="none"/>
                </g>
                <g id="zoomMin">
                        <use xlink:href="#rim" fill="#404040">
                                <set attributeName="fill" to="#808080" begin="zoomminus.mouseover" end="zoomminus.mouseout"/>
                        </use>
                        <path d="M-4,0h8" fill="none" stroke="white" stroke-width="1.5" pointer-events="none"/>
                </g>
                <g id="dirArrow">
                        <path fill="none" stroke="white" stroke-width="1.5" d="M0,-3.0v7 M-2.5,-0.5L0,-3.0L2.5,-0.5"/>
                </g>
               <g id="resetDef">
                       <use xlink:href="#rim2" fill="#404040">
                               <set attributeName="fill" to="#808080" begin="reset.mouseover" end="reset.mouseout"/>
                       </use>
               </g>
        </defs>

<script type="text/javascript">
var viewWidth = 1316;
var viewHeight = 1373;
var sectionId = 'dynsection-0';
</script>
<script xlink:href="../../svgpan.js"/>
<svg id="graph" class="graph">
<g id="viewport">
<title>IG.Lib.LoadableScriptBase</title>
<polygon fill="white" stroke="none" points="-4,4 -4,-1368.5 1312,-1368.5 1312,4 -4,4"/>
<!-- Node1 -->
<g id="node1" class="node"><title>Node1</title>
<g id="a_node1"><a xlink:title="Base class for classes that can be dynamically loadeded from scripts and run, which provides function...">
<polygon fill="#bfbfbf" stroke="black" points="119,-613 119,-632 251,-632 251,-613 119,-613"/>
<text text-anchor="middle" x="185" y="-620" font-family="Helvetica,sans-Serif" font-size="10.00">IG.Lib.LoadableScriptBase</text>
</a>
</g>
</g>
<!-- Node4 -->
<g id="node4" class="node"><title>Node4</title>
<g id="a_node4"><a xlink:href="../../d5/d05/classIG_1_1Lib_1_1LoadableScriptOptBase.html" target="_top" xlink:title="Base class for loadable scripts for optimization problems. AGREEMENTS: The first argument to initiali...">
<polygon fill="white" stroke="black" points="290.5,-1252 290.5,-1271 438.5,-1271 438.5,-1252 290.5,-1252"/>
<text text-anchor="middle" x="364.5" y="-1259" font-family="Helvetica,sans-Serif" font-size="10.00">IG.Lib.LoadableScriptOptBase</text>
</a>
</g>
</g>
<!-- Node1&#45;&gt;Node4 -->
<g id="edge3" class="edge"><title>Node1&#45;&gt;Node4</title>
<path fill="none" stroke="midnightblue" d="M186.551,-642.57C189.565,-738.031 207.004,-1145.33 287,-1237.5 292.474,-1243.81 299.585,-1248.48 307.264,-1251.93"/>
<polygon fill="midnightblue" stroke="midnightblue" points="190.041,-642.189 186.245,-632.298 183.044,-642.398 190.041,-642.189"/>
</g>
<!-- Node25 -->
<g id="node13" class="node"><title>Node25</title>
<g id="a_node13"><a xlink:href="../../d0/d74/classIG_1_1Lib_1_1LoadableScriptRealFunctionBase.html" target="_top" xlink:title="Base class for loadable scripts that define real functions of one variable.">
<polygon fill="white" stroke="black" points="300,-1197.5 300,-1227.5 429,-1227.5 429,-1197.5 300,-1197.5"/>
<text text-anchor="start" x="308" y="-1215.5" font-family="Helvetica,sans-Serif" font-size="10.00">IG.Lib.LoadableScriptReal</text>
<text text-anchor="middle" x="364.5" y="-1204.5" font-family="Helvetica,sans-Serif" font-size="10.00">FunctionBase</text>
</a>
</g>
</g>
<!-- Node1&#45;&gt;Node25 -->
<g id="edge12" class="edge"><title>Node1&#45;&gt;Node25</title>
<path fill="none" stroke="midnightblue" d="M186.855,-642.397C191.129,-732.844 213.01,-1104.43 287,-1188.5 290.678,-1192.68 295.075,-1196.14 299.875,-1199"/>
<polygon fill="midnightblue" stroke="midnightblue" points="190.35,-642.21 186.4,-632.379 183.357,-642.528 190.35,-642.21"/>
</g>
<!-- Node27 -->
<g id="node15" class="node"><title>Node27</title>
<g id="a_node15"><a xlink:href="../../d7/dba/classIG_1_1Lib_1_1LoadableScriptScalarFunctionBase.html" target="_top" xlink:title="Base class for loadable scripts that define scalar functions of several variables.">
<polygon fill="white" stroke="black" points="296,-1148.5 296,-1178.5 433,-1178.5 433,-1148.5 296,-1148.5"/>
<text text-anchor="start" x="304" y="-1166.5" font-family="Helvetica,sans-Serif" font-size="10.00">IG.Lib.LoadableScriptScalar</text>
<text text-anchor="middle" x="364.5" y="-1155.5" font-family="Helvetica,sans-Serif" font-size="10.00">FunctionBase</text>
</a>
</g>
</g>
<!-- Node1&#45;&gt;Node27 -->
<g id="edge14" class="edge"><title>Node1&#45;&gt;Node27</title>
<path fill="none" stroke="midnightblue" d="M187.231,-642.545C192.888,-728.326 219.082,-1063.59 287,-1139.5 290.063,-1142.92 293.607,-1145.86 297.458,-1148.39"/>
<polygon fill="midnightblue" stroke="midnightblue" points="190.71,-642.103 186.579,-632.347 183.724,-642.55 190.71,-642.103"/>
</g>
<!-- Node29 -->
<g id="node17" class="node"><title>Node29</title>
<g id="a_node17"><a xlink:href="../../d4/d2e/classIG_1_1Script_1_1LoadableScriptExample.html" target="_top" xlink:title="Example cls. for testing function of loadable scripts.">
<polygon fill="white" stroke="black" points="303.5,-1099.5 303.5,-1129.5 425.5,-1129.5 425.5,-1099.5 303.5,-1099.5"/>
<text text-anchor="start" x="311.5" y="-1117.5" font-family="Helvetica,sans-Serif" font-size="10.00">IG.Script.LoadableScript</text>
<text text-anchor="middle" x="364.5" y="-1106.5" font-family="Helvetica,sans-Serif" font-size="10.00">Example</text>
</a>
</g>
</g>
<!-- Node1&#45;&gt;Node29 -->
<g id="edge16" class="edge"><title>Node1&#45;&gt;Node29</title>
<path fill="none" stroke="midnightblue" d="M187.664,-642.41C194.767,-722.83 225.055,-1022.61 287,-1090.5 291.597,-1095.54 297.238,-1099.53 303.353,-1102.68"/>
<polygon fill="midnightblue" stroke="midnightblue" points="191.129,-641.853 186.783,-632.191 184.155,-642.454 191.129,-641.853"/>
</g>
<!-- Node30 -->
<g id="node18" class="node"><title>Node30</title>
<g id="a_node18"><a xlink:href="../../da/d52/classIG_1_1Script_1_1LoadableScriptSpecialFunctionBase.html" target="_top" xlink:title="Base cls. for various special function loadable scripts.">
<polygon fill="white" stroke="black" points="303.5,-1050.5 303.5,-1080.5 425.5,-1080.5 425.5,-1050.5 303.5,-1050.5"/>
<text text-anchor="start" x="311.5" y="-1068.5" font-family="Helvetica,sans-Serif" font-size="10.00">IG.Script.LoadableScript</text>
<text text-anchor="middle" x="364.5" y="-1057.5" font-family="Helvetica,sans-Serif" font-size="10.00">SpecialFunctionBase</text>
</a>
</g>
</g>
<!-- Node1&#45;&gt;Node30 -->
<g id="edge17" class="edge"><title>Node1&#45;&gt;Node30</title>
<path fill="none" stroke="midnightblue" d="M188.267,-642.619C197.111,-717.735 231.567,-980.519 287,-1040.5 291.647,-1045.53 297.317,-1049.55 303.45,-1052.76"/>
<polygon fill="midnightblue" stroke="midnightblue" points="191.692,-641.768 187.068,-632.235 184.738,-642.57 191.692,-641.768"/>
</g>
<!-- Node32 -->
<g id="node20" class="node"><title>Node32</title>
<g id="a_node20"><a xlink:href="../../d7/d3c/classIG_1_1Script_1_1S__TestExt1.html" target="_top" xlink:title=" ">
<polygon fill="white" stroke="black" points="310,-1012 310,-1031 419,-1031 419,-1012 310,-1012"/>
<text text-anchor="middle" x="364.5" y="-1019" font-family="Helvetica,sans-Serif" font-size="10.00">IG.Script.S_TestExt1</text>
</a>
</g>
</g>
<!-- Node1&#45;&gt;Node32 -->
<g id="edge19" class="edge"><title>Node1&#45;&gt;Node32</title>
<path fill="none" stroke="midnightblue" d="M188.589,-642.266C198.211,-712.767 234.105,-950.463 287,-1002.5 293.341,-1008.74 301.394,-1013.03 309.88,-1015.97"/>
<polygon fill="midnightblue" stroke="midnightblue" points="192.025,-641.553 187.228,-632.107 185.087,-642.483 192.025,-641.553"/>
</g>
<!-- Node33 -->
<g id="node21" class="node"><title>Node33</title>
<g id="a_node21"><a xlink:href="../../d0/d0a/classIG_1_1Script_1_1S__TestExt2.html" target="_top" xlink:title=" ">
<polygon fill="white" stroke="black" points="310,-974 310,-993 419,-993 419,-974 310,-974"/>
<text text-anchor="middle" x="364.5" y="-981" font-family="Helvetica,sans-Serif" font-size="10.00">IG.Script.S_TestExt2</text>
</a>
</g>
</g>
<!-- Node1&#45;&gt;Node33 -->
<g id="edge20" class="edge"><title>Node1&#45;&gt;Node33</title>
<path fill="none" stroke="midnightblue" d="M185.517,-642.166C185.216,-700.514 192.661,-874.198 287,-964.5 293.327,-970.556 301.272,-974.772 309.63,-977.689"/>
<polygon fill="midnightblue" stroke="midnightblue" points="189.018,-642.141 185.658,-632.093 182.019,-642.043 189.018,-642.141"/>
</g>
<!-- Node34 -->
<g id="node22" class="node"><title>Node34</title>
<g id="a_node22"><a xlink:href="../../db/d22/classIG_1_1Script_1_1S__TestExt3.html" target="_top" xlink:title=" ">
<polygon fill="white" stroke="black" points="310,-936 310,-955 419,-955 419,-936 310,-936"/>
<text text-anchor="middle" x="364.5" y="-943" font-family="Helvetica,sans-Serif" font-size="10.00">IG.Script.S_TestExt3</text>
</a>
</g>
</g>
<!-- Node1&#45;&gt;Node34 -->
<g id="edge21" class="edge"><title>Node1&#45;&gt;Node34</title>
<path fill="none" stroke="midnightblue" d="M186.374,-642.458C188.52,-696.703 202.203,-848.018 287,-926.5 293.428,-932.449 301.423,-936.611 309.8,-939.508"/>
<polygon fill="midnightblue" stroke="midnightblue" points="189.864,-642.043 186.065,-632.153 182.867,-642.253 189.864,-642.043"/>
</g>
<!-- Node35 -->
<g id="node23" class="node"><title>Node35</title>
<g id="a_node23"><a xlink:href="../../d7/df8/classIG_1_1Script_1_1S__TestNeural1.html" target="_top" xlink:title=" ">
<polygon fill="white" stroke="black" points="303.5,-898 303.5,-917 425.5,-917 425.5,-898 303.5,-898"/>
<text text-anchor="middle" x="364.5" y="-905" font-family="Helvetica,sans-Serif" font-size="10.00">IG.Script.S_TestNeural1</text>
</a>
</g>
</g>
<!-- Node1&#45;&gt;Node35 -->
<g id="edge22" class="edge"><title>Node1&#45;&gt;Node35</title>
<path fill="none" stroke="midnightblue" d="M187.439,-642.277C192.133,-691.702 211.409,-821.439 287,-888.5 291.811,-892.768 297.435,-896.11 303.409,-898.721"/>
<polygon fill="midnightblue" stroke="midnightblue" points="190.922,-641.925 186.588,-632.257 183.947,-642.517 190.922,-641.925"/>
</g>
<!-- Node36 -->
<g id="node24" class="node"><title>Node36</title>
<g id="a_node24"><a xlink:href="../../db/d17/classIG_1_1Script_1_1S__TestNeural2.html" target="_top" xlink:title=" ">
<polygon fill="white" stroke="black" points="303.5,-860 303.5,-879 425.5,-879 425.5,-860 303.5,-860"/>
<text text-anchor="middle" x="364.5" y="-867" font-family="Helvetica,sans-Serif" font-size="10.00">IG.Script.S_TestNeural2</text>
</a>
</g>
</g>
<!-- Node1&#45;&gt;Node36 -->
<g id="edge23" class="edge"><title>Node1&#45;&gt;Node36</title>
<path fill="none" stroke="midnightblue" d="M188.806,-642.102C196.215,-686.39 220.518,-794.66 287,-850.5 291.82,-854.549 297.378,-857.756 303.253,-860.293"/>
<polygon fill="midnightblue" stroke="midnightblue" points="192.24,-641.407 187.238,-632.067 185.324,-642.488 192.24,-641.407"/>
</g>
<!-- Node37 -->
<g id="node25" class="node"><title>Node37</title>
<g id="a_node25"><a xlink:href="../../d0/d81/classIG_1_1Script_1_1S__TestNeural3.html" target="_top" xlink:title=" ">
<polygon fill="white" stroke="black" points="303.5,-822 303.5,-841 425.5,-841 425.5,-822 303.5,-822"/>
<text text-anchor="middle" x="364.5" y="-829" font-family="Helvetica,sans-Serif" font-size="10.00">IG.Script.S_TestNeural3</text>
</a>
</g>
</g>
<!-- Node1&#45;&gt;Node37 -->
<g id="edge24" class="edge"><title>Node1&#45;&gt;Node37</title>
<path fill="none" stroke="midnightblue" d="M190.726,-642.223C201.1,-681.098 229.645,-767.727 287,-812.5 291.962,-816.374 297.611,-819.469 303.539,-821.94"/>
<polygon fill="midnightblue" stroke="midnightblue" points="194.032,-641.021 188.175,-632.192 187.248,-642.746 194.032,-641.021"/>
</g>
<!-- Node38 -->
<g id="node26" class="node"><title>Node38</title>
<g id="a_node26"><a xlink:href="../../dc/da2/classIG_1_1Script_1_1S__TestOpt1.html" target="_top" xlink:title=" ">
<polygon fill="white" stroke="black" points="309.5,-784 309.5,-803 419.5,-803 419.5,-784 309.5,-784"/>
<text text-anchor="middle" x="364.5" y="-791" font-family="Helvetica,sans-Serif" font-size="10.00">IG.Script.S_TestOpt1</text>
</a>
</g>
</g>
<!-- Node1&#45;&gt;Node38 -->
<g id="edge25" class="edge"><title>Node1&#45;&gt;Node38</title>
<path fill="none" stroke="midnightblue" d="M193.335,-641.832C206.74,-674.456 238.369,-740.23 287,-774.5 293.712,-779.23 301.48,-782.786 309.44,-785.459"/>
<polygon fill="midnightblue" stroke="midnightblue" points="196.429,-640.138 189.49,-632.132 189.922,-642.718 196.429,-640.138"/>
</g>
<!-- Node39 -->
<g id="node27" class="node"><title>Node39</title>
<g id="a_node27"><a xlink:href="../../d3/d90/classIG_1_1Script_1_1S__TestOpt2.html" target="_top" xlink:title=" ">
<polygon fill="white" stroke="black" points="309.5,-746 309.5,-765 419.5,-765 419.5,-746 309.5,-746"/>
<text text-anchor="middle" x="364.5" y="-753" font-family="Helvetica,sans-Serif" font-size="10.00">IG.Script.S_TestOpt2</text>
</a>
</g>
</g>
<!-- Node1&#45;&gt;Node39 -->
<g id="edge26" class="edge"><title>Node1&#45;&gt;Node39</title>
<path fill="none" stroke="midnightblue" d="M197.14,-640.91C213.553,-666.408 246.69,-712.084 287,-736.5 293.789,-740.612 301.428,-743.836 309.184,-746.364"/>
<polygon fill="midnightblue" stroke="midnightblue" points="199.964,-638.826 191.688,-632.212 194.033,-642.544 199.964,-638.826"/>
</g>
<!-- Node40 -->
<g id="node28" class="node"><title>Node40</title>
<g id="a_node28"><a xlink:href="../../d5/d1c/classIG_1_1Script_1_1S__TestOpt3.html" target="_top" xlink:title=" ">
<polygon fill="white" stroke="black" points="309.5,-708 309.5,-727 419.5,-727 419.5,-708 309.5,-708"/>
<text text-anchor="middle" x="364.5" y="-715" font-family="Helvetica,sans-Serif" font-size="10.00">IG.Script.S_TestOpt3</text>
</a>
</g>
</g>
<!-- Node1&#45;&gt;Node40 -->
<g id="edge27" class="edge"><title>Node1&#45;&gt;Node40</title>
<path fill="none" stroke="midnightblue" d="M203.553,-639.249C222.629,-656.553 254.724,-683.137 287,-698.5 295.032,-702.323 303.917,-705.43 312.704,-707.937"/>
<polygon fill="midnightblue" stroke="midnightblue" points="205.699,-636.466 195.981,-632.243 200.944,-641.604 205.699,-636.466"/>
</g>
<!-- Node41 -->
<g id="node29" class="node"><title>Node41</title>
<g id="a_node29"><a xlink:href="../../d1/daf/classIG_1_1Script_1_1S__TestShellExt1.html" target="_top" xlink:title=" ">
<polygon fill="white" stroke="black" points="299,-670 299,-689 430,-689 430,-670 299,-670"/>
<text text-anchor="middle" x="364.5" y="-677" font-family="Helvetica,sans-Serif" font-size="10.00">IG.Script.S_TestShellExt1</text>
</a>
</g>
</g>
<!-- Node1&#45;&gt;Node41 -->
<g id="edge28" class="edge"><title>Node1&#45;&gt;Node41</title>
<path fill="none" stroke="midnightblue" d="M218.402,-635.791C238.05,-643.573 263.739,-653.262 287,-660.5 297.976,-663.915 309.986,-667.135 321.169,-669.919"/>
<polygon fill="midnightblue" stroke="midnightblue" points="219.585,-632.494 209.001,-632.03 216.985,-638.994 219.585,-632.494"/>
</g>
<!-- Node42 -->
<g id="node30" class="node"><title>Node42</title>
<g id="a_node30"><a xlink:href="../../dc/dce/classIG_1_1Script_1_1Scrip__OdeChem.html" target="_top" xlink:title="Script for testing systems of ordinary differential equations and chemical reactions.">
<polygon fill="white" stroke="black" points="300,-632 300,-651 429,-651 429,-632 300,-632"/>
<text text-anchor="middle" x="364.5" y="-639" font-family="Helvetica,sans-Serif" font-size="10.00">IG.Script.Scrip_OdeChem</text>
</a>
</g>
</g>
<!-- Node1&#45;&gt;Node42 -->
<g id="edge29" class="edge"><title>Node1&#45;&gt;Node42</title>
<path fill="none" stroke="midnightblue" d="M261.292,-630.559C274.148,-631.936 287.388,-633.353 299.902,-634.692"/>
<polygon fill="midnightblue" stroke="midnightblue" points="261.402,-627.051 251.087,-629.467 260.657,-634.012 261.402,-627.051"/>
</g>
<!-- Node43 -->
<g id="node31" class="node"><title>Node43</title>
<g id="a_node31"><a xlink:href="../../d4/de2/classIG_1_1Script_1_1Script2.html" target="_top" xlink:title=" ">
<polygon fill="white" stroke="black" points="320,-594 320,-613 409,-613 409,-594 320,-594"/>
<text text-anchor="middle" x="364.5" y="-601" font-family="Helvetica,sans-Serif" font-size="10.00">IG.Script.Script2</text>
</a>
</g>
</g>
<!-- Node1&#45;&gt;Node43 -->
<g id="edge30" class="edge"><title>Node1&#45;&gt;Node43</title>
<path fill="none" stroke="midnightblue" d="M261.118,-614.459C281.109,-612.319 302.046,-610.078 319.739,-608.184"/>
<polygon fill="midnightblue" stroke="midnightblue" points="260.657,-610.988 251.087,-615.533 261.402,-617.949 260.657,-610.988"/>
</g>
<!-- Node44 -->
<g id="node32" class="node"><title>Node44</title>
<g id="a_node32"><a xlink:href="../../d9/d99/classIG_1_1Script_1_1Script__Examples.html" target="_top" xlink:title=" ">
<polygon fill="white" stroke="black" points="298.5,-556 298.5,-575 430.5,-575 430.5,-556 298.5,-556"/>
<text text-anchor="middle" x="364.5" y="-563" font-family="Helvetica,sans-Serif" font-size="10.00">IG.Script.Script_Examples</text>
</a>
</g>
</g>
<!-- Node1&#45;&gt;Node44 -->
<g id="edge31" class="edge"><title>Node1&#45;&gt;Node44</title>
<path fill="none" stroke="midnightblue" d="M218.402,-609.209C238.05,-601.427 263.739,-591.738 287,-584.5 297.976,-581.085 309.986,-577.865 321.169,-575.081"/>
<polygon fill="midnightblue" stroke="midnightblue" points="216.985,-606.006 209.001,-612.97 219.585,-612.506 216.985,-606.006"/>
</g>
<!-- Node45 -->
<g id="node33" class="node"><title>Node45</title>
<g id="a_node33"><a xlink:href="../../d9/d8e/classIG_1_1Script_1_1Script__Misc.html" target="_top" xlink:title=" ">
<polygon fill="white" stroke="black" points="309.5,-518 309.5,-537 419.5,-537 419.5,-518 309.5,-518"/>
<text text-anchor="middle" x="364.5" y="-525" font-family="Helvetica,sans-Serif" font-size="10.00">IG.Script.Script_Misc</text>
</a>
</g>
</g>
<!-- Node1&#45;&gt;Node45 -->
<g id="edge32" class="edge"><title>Node1&#45;&gt;Node45</title>
<path fill="none" stroke="midnightblue" d="M203.553,-605.751C222.629,-588.447 254.724,-561.863 287,-546.5 295.032,-542.677 303.917,-539.57 312.704,-537.063"/>
<polygon fill="midnightblue" stroke="midnightblue" points="200.944,-603.396 195.981,-612.757 205.699,-608.534 200.944,-603.396"/>
</g>
<!-- Node46 -->
<g id="node34" class="node"><title>Node46</title>
<g id="a_node34"><a xlink:href="../../d6/db3/classIG_1_1Script_1_1Script__Numeric.html" target="_top" xlink:title=" ">
<polygon fill="white" stroke="black" points="302,-480 302,-499 427,-499 427,-480 302,-480"/>
<text text-anchor="middle" x="364.5" y="-487" font-family="Helvetica,sans-Serif" font-size="10.00">IG.Script.Script_Numeric</text>
</a>
</g>
</g>
<!-- Node1&#45;&gt;Node46 -->
<g id="edge33" class="edge"><title>Node1&#45;&gt;Node46</title>
<path fill="none" stroke="midnightblue" d="M197.14,-604.09C213.553,-578.592 246.69,-532.916 287,-508.5 293.438,-504.601 300.64,-501.5 307.982,-499.034"/>
<polygon fill="midnightblue" stroke="midnightblue" points="194.033,-602.456 191.688,-612.788 199.964,-606.174 194.033,-602.456"/>
</g>
<!-- Node47 -->
<g id="node35" class="node"><title>Node47</title>
<g id="a_node35"><a xlink:href="../../d4/daf/classIG_1_1Script_1_1Script__Optimization.html" target="_top" xlink:title=" ">
<polygon fill="white" stroke="black" points="293,-442 293,-461 436,-461 436,-442 293,-442"/>
<text text-anchor="middle" x="364.5" y="-449" font-family="Helvetica,sans-Serif" font-size="10.00">IG.Script.Script_Optimization</text>
</a>
</g>
</g>
<!-- Node1&#45;&gt;Node47 -->
<g id="edge34" class="edge"><title>Node1&#45;&gt;Node47</title>
<path fill="none" stroke="midnightblue" d="M193.335,-603.168C206.74,-570.544 238.369,-504.77 287,-470.5 292.481,-466.637 298.667,-463.557 305.086,-461.102"/>
<polygon fill="midnightblue" stroke="midnightblue" points="189.922,-602.282 189.49,-612.868 196.429,-604.862 189.922,-602.282"/>
</g>
<!-- Node48 -->
<g id="node36" class="node"><title>Node48</title>
<g id="a_node36"><a xlink:href="../../d3/d43/classIG_1_1Script_1_1ScriptExtExamples.html" target="_top" xlink:title=" ">
<polygon fill="white" stroke="black" points="293.5,-404 293.5,-423 435.5,-423 435.5,-404 293.5,-404"/>
<text text-anchor="middle" x="364.5" y="-411" font-family="Helvetica,sans-Serif" font-size="10.00">IG.Script.ScriptExtExamples</text>
</a>
</g>
</g>
<!-- Node1&#45;&gt;Node48 -->
<g id="edge35" class="edge"><title>Node1&#45;&gt;Node48</title>
<path fill="none" stroke="midnightblue" d="M190.726,-602.777C201.1,-563.902 229.645,-477.273 287,-432.5 291.962,-428.626 297.611,-425.531 303.539,-423.06"/>
<polygon fill="midnightblue" stroke="midnightblue" points="187.248,-602.254 188.175,-612.808 194.032,-603.979 187.248,-602.254"/>
</g>
<!-- Node50 -->
<g id="node38" class="node"><title>Node50</title>
<g id="a_node38"><a xlink:href="../../d0/d68/classIG_1_1Script_1_1ScriptExtFormats.html" target="_top" xlink:title=" ">
<polygon fill="white" stroke="black" points="297.5,-366 297.5,-385 431.5,-385 431.5,-366 297.5,-366"/>
<text text-anchor="middle" x="364.5" y="-373" font-family="Helvetica,sans-Serif" font-size="10.00">IG.Script.ScriptExtFormats</text>
</a>
</g>
</g>
<!-- Node1&#45;&gt;Node50 -->
<g id="edge37" class="edge"><title>Node1&#45;&gt;Node50</title>
<path fill="none" stroke="midnightblue" d="M188.806,-602.898C196.215,-558.61 220.518,-450.34 287,-394.5 291.611,-390.627 296.896,-387.525 302.489,-385.042"/>
<polygon fill="midnightblue" stroke="midnightblue" points="185.324,-602.512 187.238,-612.933 192.24,-603.593 185.324,-602.512"/>
</g>
<!-- Node51 -->
<g id="node39" class="node"><title>Node51</title>
<g id="a_node39"><a xlink:href="../../d9/d71/classIG_1_1Script_1_1ScriptExtNumeric.html" target="_top" xlink:title=" ">
<polygon fill="white" stroke="black" points="297.5,-328 297.5,-347 431.5,-347 431.5,-328 297.5,-328"/>
<text text-anchor="middle" x="364.5" y="-335" font-family="Helvetica,sans-Serif" font-size="10.00">IG.Script.ScriptExtNumeric</text>
</a>
</g>
</g>
<!-- Node1&#45;&gt;Node51 -->
<g id="edge38" class="edge"><title>Node1&#45;&gt;Node51</title>
<path fill="none" stroke="midnightblue" d="M187.439,-602.723C192.133,-553.298 211.409,-423.561 287,-356.5 291.299,-352.686 296.247,-349.611 301.515,-347.137"/>
<polygon fill="midnightblue" stroke="midnightblue" points="183.947,-602.483 186.588,-612.743 190.922,-603.075 183.947,-602.483"/>
</g>
<!-- Node52 -->
<g id="node40" class="node"><title>Node52</title>
<g id="a_node40"><a xlink:href="../../d4/d97/classIG_1_1Script_1_1ScriptExtTemplate.html" target="_top" xlink:title="A template script for running tests.">
<polygon fill="white" stroke="black" points="295.5,-290 295.5,-309 433.5,-309 433.5,-290 295.5,-290"/>
<text text-anchor="middle" x="364.5" y="-297" font-family="Helvetica,sans-Serif" font-size="10.00">IG.Script.ScriptExtTemplate</text>
</a>
</g>
</g>
<!-- Node1&#45;&gt;Node52 -->
<g id="edge39" class="edge"><title>Node1&#45;&gt;Node52</title>
<path fill="none" stroke="midnightblue" d="M186.374,-602.542C188.52,-548.297 202.203,-396.982 287,-318.5 291.118,-314.689 295.879,-311.611 300.971,-309.13"/>
<polygon fill="midnightblue" stroke="midnightblue" points="182.867,-602.747 186.065,-612.847 189.864,-602.957 182.867,-602.747"/>
</g>
<!-- Node53 -->
<g id="node41" class="node"><title>Node53</title>
<g id="a_node41"><a xlink:href="../../d4/d8c/classIG_1_1Script_1_1ScriptGraphics2dBase.html" target="_top" xlink:title="Base class for script classes with 2D graphics examples.">
<polygon fill="white" stroke="black" points="287,-252 287,-271 442,-271 442,-252 287,-252"/>
<text text-anchor="middle" x="364.5" y="-259" font-family="Helvetica,sans-Serif" font-size="10.00">IG.Script.ScriptGraphics2dBase</text>
</a>
</g>
</g>
<!-- Node1&#45;&gt;Node53 -->
<g id="edge40" class="edge"><title>Node1&#45;&gt;Node53</title>
<path fill="none" stroke="midnightblue" d="M185.517,-602.834C185.216,-544.486 192.661,-370.802 287,-280.5 290.954,-276.715 295.541,-273.649 300.465,-271.169"/>
<polygon fill="midnightblue" stroke="midnightblue" points="182.019,-602.957 185.658,-612.907 189.018,-602.859 182.019,-602.957"/>
</g>
<!-- Node54 -->
<g id="node42" class="node"><title>Node54</title>
<g id="a_node42"><a xlink:href="../../d2/d7e/classIG_1_1Script_1_1ScriptGraphics3DBase.html" target="_top" xlink:title="Base class for script classes with graphics examples.">
<polygon fill="white" stroke="black" points="300.5,-202.5 300.5,-232.5 428.5,-232.5 428.5,-202.5 300.5,-202.5"/>
<text text-anchor="start" x="308.5" y="-220.5" font-family="Helvetica,sans-Serif" font-size="10.00">IG.Script.ScriptGraphics3</text>
<text text-anchor="middle" x="364.5" y="-209.5" font-family="Helvetica,sans-Serif" font-size="10.00">DBase</text>
</a>
</g>
</g>
<!-- Node1&#45;&gt;Node54 -->
<g id="edge41" class="edge"><title>Node1&#45;&gt;Node54</title>
<path fill="none" stroke="midnightblue" d="M188.72,-602.862C198.79,-532.8 236.024,-296.418 287,-242.5 290.84,-238.439 295.347,-235.036 300.22,-232.186"/>
<polygon fill="midnightblue" stroke="midnightblue" points="185.227,-602.566 187.293,-612.957 192.158,-603.545 185.227,-602.566"/>
</g>
<!-- Node56 -->
<g id="node44" class="node"><title>Node56</title>
<g id="a_node44"><a xlink:href="../../d6/d3b/classIG_1_1Script_1_1ScriptNeuralExamples.html" target="_top" xlink:title=" ">
<polygon fill="white" stroke="black" points="287,-164 287,-183 442,-183 442,-164 287,-164"/>
<text text-anchor="middle" x="364.5" y="-171" font-family="Helvetica,sans-Serif" font-size="10.00">IG.Script.ScriptNeuralExamples</text>
</a>
</g>
</g>
<!-- Node1&#45;&gt;Node56 -->
<g id="edge43" class="edge"><title>Node1&#45;&gt;Node56</title>
<path fill="none" stroke="midnightblue" d="M187.944,-602.652C195.822,-526.252 227.81,-252.449 287,-192.5 290.75,-188.702 295.132,-185.621 299.868,-183.125"/>
<polygon fill="midnightblue" stroke="midnightblue" points="184.442,-602.501 186.921,-612.802 191.406,-603.203 184.442,-602.501"/>
</g>
<!-- Node57 -->
<g id="node45" class="node"><title>Node57</title>
<g id="a_node45"><a xlink:href="../../d0/dd5/classIG_1_1Script_1_1ScriptNeuralTemplate.html" target="_top" xlink:title="A template script for running tests.">
<polygon fill="white" stroke="black" points="289,-126 289,-145 440,-145 440,-126 289,-126"/>
<text text-anchor="middle" x="364.5" y="-133" font-family="Helvetica,sans-Serif" font-size="10.00">IG.Script.ScriptNeuralTemplate</text>
</a>
</g>
</g>
<!-- Node1&#45;&gt;Node57 -->
<g id="edge44" class="edge"><title>Node1&#45;&gt;Node57</title>
<path fill="none" stroke="midnightblue" d="M187.551,-602.483C194.214,-521.65 223.028,-220.479 287,-154.5 290.715,-150.668 295.074,-147.563 299.794,-145.052"/>
<polygon fill="midnightblue" stroke="midnightblue" points="184.038,-602.509 186.727,-612.757 191.015,-603.068 184.038,-602.509"/>
</g>
<!-- Node58 -->
<g id="node46" class="node"><title>Node58</title>
<g id="a_node46"><a xlink:href="../../db/d60/classIG_1_1Script_1_1ScriptOptTemplate.html" target="_top" xlink:title="A template script for running tests.">
<polygon fill="white" stroke="black" points="295,-88 295,-107 434,-107 434,-88 295,-88"/>
<text text-anchor="middle" x="364.5" y="-95" font-family="Helvetica,sans-Serif" font-size="10.00">IG.Script.ScriptOptTemplate</text>
</a>
</g>
</g>
<!-- Node1&#45;&gt;Node58 -->
<g id="edge45" class="edge"><title>Node1&#45;&gt;Node58</title>
<path fill="none" stroke="midnightblue" d="M187.182,-602.774C192.634,-518.373 218.105,-188.67 287,-116.5 290.591,-112.739 294.801,-109.675 299.368,-107.185"/>
<polygon fill="midnightblue" stroke="midnightblue" points="183.685,-602.61 186.554,-612.809 190.671,-603.047 183.685,-602.61"/>
</g>
<!-- Node60 -->
<g id="node48" class="node"><title>Node60</title>
<g id="a_node48"><a xlink:href="../../d8/dda/classIG_1_1Script_1_1TestClass1.html" target="_top" xlink:title=" ">
<polygon fill="white" stroke="black" points="311,-50 311,-69 418,-69 418,-50 311,-50"/>
<text text-anchor="middle" x="364.5" y="-57" font-family="Helvetica,sans-Serif" font-size="10.00">IG.Script.TestClass1</text>
</a>
</g>
</g>
<!-- Node1&#45;&gt;Node60 -->
<g id="edge47" class="edge"><title>Node1&#45;&gt;Node60</title>
<path fill="none" stroke="midnightblue" d="M186.885,-602.731C191.242,-514.405 213.255,-156.798 287,-78.5 293.38,-71.7259 301.768,-67.21 310.648,-64.2306"/>
<polygon fill="midnightblue" stroke="midnightblue" points="183.378,-602.796 186.402,-612.95 190.371,-603.127 183.378,-602.796"/>
</g>
<!-- Node61 -->
<g id="node49" class="node"><title>Node61</title>
<g id="a_node49"><a xlink:href="../../de/dec/classIG_1_1Script_1_1TestIglibExt__ToDelete.html" target="_top" xlink:title="Base class for script classes with graphics examples.">
<polygon fill="white" stroke="black" points="310,-0.5 310,-30.5 419,-30.5 419,-0.5 310,-0.5"/>
<text text-anchor="start" x="318" y="-18.5" font-family="Helvetica,sans-Serif" font-size="10.00">IG.Script.TestIglibExt</text>
<text text-anchor="middle" x="364.5" y="-7.5" font-family="Helvetica,sans-Serif" font-size="10.00">_ToDelete</text>
</a>
</g>
</g>
<!-- Node1&#45;&gt;Node61 -->
<g id="edge48" class="edge"><title>Node1&#45;&gt;Node61</title>
<path fill="none" stroke="midnightblue" d="M186.769,-602.657C190.717,-510.806 211.541,-127.692 287,-40.5 293.126,-33.4212 301.286,-28.3354 309.995,-24.6841"/>
<polygon fill="midnightblue" stroke="midnightblue" points="183.266,-602.663 186.353,-612.798 190.26,-602.95 183.266,-602.663"/>
</g>
<!-- Node2 -->
<g id="node2" class="node"><title>Node2</title>
<g id="a_node2"><a xlink:href="../../d7/d66/interfaceIG_1_1Lib_1_1ILoadableScript.html" target="_top" xlink:title="Interface for classes that can be dynamically loadeded from scripts and run, which provides functiona...">
<polygon fill="white" stroke="black" points="0,-632 0,-651 83,-651 83,-632 0,-632"/>
<text text-anchor="middle" x="41.5" y="-639" font-family="Helvetica,sans-Serif" font-size="10.00">ILoadableScript</text>
</a>
</g>
</g>
<!-- Node2&#45;&gt;Node1 -->
<g id="edge1" class="edge"><title>Node2&#45;&gt;Node1</title>
<path fill="none" stroke="midnightblue" d="M93.0261,-634.716C101.403,-633.591 110.193,-632.41 118.87,-631.245"/>
<polygon fill="midnightblue" stroke="midnightblue" points="92.4935,-631.256 83.0482,-636.055 93.4251,-638.193 92.4935,-631.256"/>
</g>
<!-- Node3 -->
<g id="node3" class="node"><title>Node3</title>
<g id="a_node3"><a xlink:href="../../d3/db6/interfaceIG_1_1Lib_1_1ILockable.html" target="_top" xlink:title="Lockable object, has a Lock property that returns object on which lock must be performed in order to ...">
<polygon fill="white" stroke="black" points="12.5,-594 12.5,-613 70.5,-613 70.5,-594 12.5,-594"/>
<text text-anchor="middle" x="41.5" y="-601" font-family="Helvetica,sans-Serif" font-size="10.00">ILockable</text>
</a>
</g>
</g>
<!-- Node3&#45;&gt;Node1 -->
<g id="edge2" class="edge"><title>Node3&#45;&gt;Node1</title>
<path fill="none" stroke="midnightblue" d="M80.7101,-608.631C92.4959,-610.213 105.822,-612.003 118.89,-613.757"/>
<polygon fill="midnightblue" stroke="midnightblue" points="81.1714,-605.161 70.7946,-607.299 80.2398,-612.099 81.1714,-605.161"/>
</g>
<!-- Node5 -->
<g id="node5" class="node"><title>Node5</title>
<g id="a_node5"><a xlink:href="../../d7/d31/classIG_1_1Lib_1_1LoadableScriptOptShellBaseControllable.html" target="_top" xlink:title="Controllable version of LoadableScriptOptBase, implements the ILoadableScriptC interface.">
<polygon fill="white" stroke="black" points="494,-1295.5 494,-1325.5 619,-1325.5 619,-1295.5 494,-1295.5"/>
<text text-anchor="start" x="502" y="-1313.5" font-family="Helvetica,sans-Serif" font-size="10.00">IG.Lib.LoadableScriptOpt</text>
<text text-anchor="middle" x="556.5" y="-1302.5" font-family="Helvetica,sans-Serif" font-size="10.00">ShellBaseControllable</text>
</a>
</g>
</g>
<!-- Node4&#45;&gt;Node5 -->
<g id="edge4" class="edge"><title>Node4&#45;&gt;Node5</title>
<path fill="none" stroke="midnightblue" d="M412.425,-1273.6C438.041,-1280.21 469.989,-1288.45 497.193,-1295.46"/>
<polygon fill="midnightblue" stroke="midnightblue" points="413.142,-1270.17 402.585,-1271.06 411.394,-1276.95 413.142,-1270.17"/>
</g>
<!-- Node24 -->
<g id="node12" class="node"><title>Node24</title>
<g id="a_node12"><a xlink:href="../../d2/dae/classIG_1_1Lib_1_1LoadableScriptOptTest_1_1LoadableScriptOptDerived.html" target="_top" xlink:title=" ">
<polygon fill="white" stroke="black" points="481.5,-1246.5 481.5,-1276.5 631.5,-1276.5 631.5,-1246.5 481.5,-1246.5"/>
<text text-anchor="start" x="489.5" y="-1264.5" font-family="Helvetica,sans-Serif" font-size="10.00">IG.Lib.LoadableScriptOpt</text>
<text text-anchor="middle" x="556.5" y="-1253.5" font-family="Helvetica,sans-Serif" font-size="10.00">Test.LoadableScriptOptDerived</text>
</a>
</g>
</g>
<!-- Node4&#45;&gt;Node24 -->
<g id="edge11" class="edge"><title>Node4&#45;&gt;Node24</title>
<path fill="none" stroke="midnightblue" d="M448.964,-1261.5C459.767,-1261.5 470.772,-1261.5 481.409,-1261.5"/>
<polygon fill="midnightblue" stroke="midnightblue" points="448.687,-1258 438.687,-1261.5 448.687,-1265 448.687,-1258"/>
</g>
<!-- Node6 -->
<g id="node6" class="node"><title>Node6</title>
<g id="a_node6"><a xlink:href="../../d6/d59/classIG_1_1Lib_1_1LoadableScriptShellBase.html" target="_top" xlink:title="Loadable script base class for the shell application that includes tols for definition of optiimizati...">
<polygon fill="white" stroke="black" points="671,-1301 671,-1320 825,-1320 825,-1301 671,-1301"/>
<text text-anchor="middle" x="748" y="-1308" font-family="Helvetica,sans-Serif" font-size="10.00">IG.Lib.LoadableScriptShellBase</text>
</a>
</g>
</g>
<!-- Node5&#45;&gt;Node6 -->
<g id="edge5" class="edge"><title>Node5&#45;&gt;Node6</title>
<path fill="none" stroke="midnightblue" d="M629.272,-1310.5C642.87,-1310.5 657.14,-1310.5 670.867,-1310.5"/>
<polygon fill="midnightblue" stroke="midnightblue" points="629.025,-1307 619.025,-1310.5 629.025,-1314 629.025,-1307"/>
</g>
<!-- Node7 -->
<g id="node7" class="node"><title>Node7</title>
<g id="a_node7"><a xlink:href="../../dc/d0c/classIG_1_1Script_1_1LoadableScriptShellNeuralBase.html" target="_top" xlink:title="Base class for loadable scripts that are used as custom applications that inclued neural networks app...">
<polygon fill="white" stroke="black" points="861,-1295.5 861,-1325.5 983,-1325.5 983,-1295.5 861,-1295.5"/>
<text text-anchor="start" x="869" y="-1313.5" font-family="Helvetica,sans-Serif" font-size="10.00">IG.Script.LoadableScript</text>
<text text-anchor="middle" x="922" y="-1302.5" font-family="Helvetica,sans-Serif" font-size="10.00">ShellNeuralBase</text>
</a>
</g>
</g>
<!-- Node6&#45;&gt;Node7 -->
<g id="edge6" class="edge"><title>Node6&#45;&gt;Node7</title>
<path fill="none" stroke="midnightblue" d="M835.316,-1310.5C843.956,-1310.5 852.592,-1310.5 860.874,-1310.5"/>
<polygon fill="midnightblue" stroke="midnightblue" points="835.193,-1307 825.193,-1310.5 835.193,-1314 835.193,-1307"/>
</g>
<!-- Node8 -->
<g id="node8" class="node"><title>Node8</title>
<g id="a_node8"><a xlink:href="../../d1/d30/classIG_1_1Script_1_1LoadableScriptShellNeural.html" target="_top" xlink:title="Base class for loadable scripts that are used as custom applications that inclued neural networks app...">
<polygon fill="white" stroke="red" points="1019,-1295.5 1019,-1325.5 1141,-1325.5 1141,-1295.5 1019,-1295.5"/>
<text text-anchor="start" x="1027" y="-1313.5" font-family="Helvetica,sans-Serif" font-size="10.00">IG.Script.LoadableScript</text>
<text text-anchor="middle" x="1080" y="-1302.5" font-family="Helvetica,sans-Serif" font-size="10.00">ShellNeural</text>
</a>
</g>
</g>
<!-- Node7&#45;&gt;Node8 -->
<g id="edge7" class="edge"><title>Node7&#45;&gt;Node8</title>
<path fill="none" stroke="midnightblue" d="M993.538,-1310.5C1001.99,-1310.5 1010.56,-1310.5 1018.85,-1310.5"/>
<polygon fill="midnightblue" stroke="midnightblue" points="993.314,-1307 983.314,-1310.5 993.314,-1314 993.314,-1307"/>
</g>
<!-- Node9 -->
<g id="node9" class="node"><title>Node9</title>
<g id="a_node9"><a xlink:href="../../dc/d73/classIG_1_1Script_1_1NeuralTestScript.html" target="_top" xlink:title=" ">
<polygon fill="white" stroke="black" points="1177.5,-1345 1177.5,-1364 1307.5,-1364 1307.5,-1345 1177.5,-1345"/>
<text text-anchor="middle" x="1242.5" y="-1352" font-family="Helvetica,sans-Serif" font-size="10.00">IG.Script.NeuralTestScript</text>
</a>
</g>
</g>
<!-- Node8&#45;&gt;Node9 -->
<g id="edge8" class="edge"><title>Node8&#45;&gt;Node9</title>
<path fill="none" stroke="midnightblue" d="M1145.55,-1328.2C1166.39,-1333.91 1188.7,-1340.03 1206.56,-1344.92"/>
<polygon fill="midnightblue" stroke="midnightblue" points="1146.36,-1324.79 1135.79,-1325.52 1144.5,-1331.54 1146.36,-1324.79"/>
</g>
<!-- Node10 -->
<g id="node10" class="node"><title>Node10</title>
<g id="a_node10"><a xlink:href="../../d7/da8/classIG_1_1Script_1_1NeuralTestScriptShellExt.html" target="_top" xlink:title=" ">
<polygon fill="white" stroke="black" points="1177.5,-1295.5 1177.5,-1325.5 1307.5,-1325.5 1307.5,-1295.5 1177.5,-1295.5"/>
<text text-anchor="start" x="1185.5" y="-1313.5" font-family="Helvetica,sans-Serif" font-size="10.00">IG.Script.NeuralTestScript</text>
<text text-anchor="middle" x="1242.5" y="-1302.5" font-family="Helvetica,sans-Serif" font-size="10.00">ShellExt</text>
</a>
</g>
</g>
<!-- Node8&#45;&gt;Node10 -->
<g id="edge9" class="edge"><title>Node8&#45;&gt;Node10</title>
<path fill="none" stroke="midnightblue" d="M1151.33,-1310.5C1160.02,-1310.5 1168.86,-1310.5 1177.45,-1310.5"/>
<polygon fill="midnightblue" stroke="midnightblue" points="1151.22,-1307 1141.22,-1310.5 1151.22,-1314 1151.22,-1307"/>
</g>
<!-- Node11 -->
<g id="node11" class="node"><title>Node11</title>
<g id="a_node11"><a xlink:href="../../dc/df5/classIG_1_1Script_1_1S__11__10__Clanek__Neural__Base.html" target="_top" xlink:title=" ">
<polygon fill="white" stroke="red" points="1177,-1246.5 1177,-1276.5 1308,-1276.5 1308,-1246.5 1177,-1246.5"/>
<text text-anchor="start" x="1185" y="-1264.5" font-family="Helvetica,sans-Serif" font-size="10.00">IG.Script.S_11_10_Clanek</text>
<text text-anchor="middle" x="1242.5" y="-1253.5" font-family="Helvetica,sans-Serif" font-size="10.00">_Neural_Base</text>
</a>
</g>
</g>
<!-- Node8&#45;&gt;Node11 -->
<g id="edge10" class="edge"><title>Node8&#45;&gt;Node11</title>
<path fill="none" stroke="midnightblue" d="M1140.33,-1292.39C1157.39,-1287.18 1175.81,-1281.55 1192.2,-1276.55"/>
<polygon fill="midnightblue" stroke="midnightblue" points="1139.01,-1289.13 1130.46,-1295.4 1141.05,-1295.83 1139.01,-1289.13"/>
</g>
<!-- Node26 -->
<g id="node14" class="node"><title>Node26</title>
<g id="a_node14"><a xlink:href="../../dc/d6c/classIG_1_1Script_1_1ScritpRealFunctionExample.html" target="_top" xlink:title="Example script for definition of a new real function class.">
<polygon fill="white" stroke="black" points="486.5,-1197.5 486.5,-1227.5 626.5,-1227.5 626.5,-1197.5 486.5,-1197.5"/>
<text text-anchor="start" x="494.5" y="-1215.5" font-family="Helvetica,sans-Serif" font-size="10.00">IG.Script.ScritpRealFunction</text>
<text text-anchor="middle" x="556.5" y="-1204.5" font-family="Helvetica,sans-Serif" font-size="10.00">Example</text>
</a>
</g>
</g>
<!-- Node25&#45;&gt;Node26 -->
<g id="edge13" class="edge"><title>Node25&#45;&gt;Node26</title>
<path fill="none" stroke="midnightblue" d="M439.13,-1212.5C454.702,-1212.5 471.083,-1212.5 486.478,-1212.5"/>
<polygon fill="midnightblue" stroke="midnightblue" points="439.031,-1209 429.031,-1212.5 439.031,-1216 439.031,-1209"/>
</g>
<!-- Node28 -->
<g id="node16" class="node"><title>Node28</title>
<g id="a_node16"><a xlink:href="../../d5/de0/classIG_1_1Script_1_1ScritpScalarFunctionExample.html" target="_top" xlink:title="Example script for definition of a new real function class.">
<polygon fill="white" stroke="black" points="482,-1148.5 482,-1178.5 631,-1178.5 631,-1148.5 482,-1148.5"/>
<text text-anchor="start" x="490" y="-1166.5" font-family="Helvetica,sans-Serif" font-size="10.00">IG.Script.ScritpScalarFunction</text>
<text text-anchor="middle" x="556.5" y="-1155.5" font-family="Helvetica,sans-Serif" font-size="10.00">Example</text>
</a>
</g>
</g>
<!-- Node27&#45;&gt;Node28 -->
<g id="edge15" class="edge"><title>Node27&#45;&gt;Node28</title>
<path fill="none" stroke="midnightblue" d="M443.141,-1163.5C455.897,-1163.5 469.086,-1163.5 481.744,-1163.5"/>
<polygon fill="midnightblue" stroke="midnightblue" points="443.022,-1160 433.022,-1163.5 443.022,-1167 443.022,-1160"/>
</g>
<!-- Node31 -->
<g id="node19" class="node"><title>Node31</title>
<g id="a_node19"><a xlink:href="../../de/dbd/classIG_1_1Script_1_1LoadableScriptScalarFunctionCreator.html" target="_top" xlink:title=" ">
<polygon fill="white" stroke="black" points="495.5,-1050.5 495.5,-1080.5 617.5,-1080.5 617.5,-1050.5 495.5,-1050.5"/>
<text text-anchor="start" x="503.5" y="-1068.5" font-family="Helvetica,sans-Serif" font-size="10.00">IG.Script.LoadableScript</text>
<text text-anchor="middle" x="556.5" y="-1057.5" font-family="Helvetica,sans-Serif" font-size="10.00">ScalarFunctionCreator</text>
</a>
</g>
</g>
<!-- Node30&#45;&gt;Node31 -->
<g id="edge18" class="edge"><title>Node30&#45;&gt;Node31</title>
<path fill="none" stroke="midnightblue" d="M435.719,-1065.5C455.339,-1065.5 476.474,-1065.5 495.448,-1065.5"/>
<polygon fill="midnightblue" stroke="midnightblue" points="435.617,-1062 425.617,-1065.5 435.617,-1069 435.617,-1062"/>
</g>
<!-- Node49 -->
<g id="node37" class="node"><title>Node49</title>
<g id="a_node37"><a xlink:href="../../db/d76/classIG_1_1Script_1_1ScriptExtExamplesExt.html" target="_top" xlink:title=" ">
<polygon fill="white" stroke="black" points="478,-404 478,-423 635,-423 635,-404 478,-404"/>
<text text-anchor="middle" x="556.5" y="-411" font-family="Helvetica,sans-Serif" font-size="10.00">IG.Script.ScriptExtExamplesExt</text>
</a>
</g>
</g>
<!-- Node48&#45;&gt;Node49 -->
<g id="edge36" class="edge"><title>Node48&#45;&gt;Node49</title>
<path fill="none" stroke="midnightblue" d="M445.807,-413.5C456.438,-413.5 467.321,-413.5 477.905,-413.5"/>
<polygon fill="midnightblue" stroke="midnightblue" points="445.709,-410 435.709,-413.5 445.709,-417 445.709,-410"/>
</g>
<!-- Node55 -->
<g id="node43" class="node"><title>Node55</title>
<g id="a_node43"><a xlink:href="../../d8/d0d/classIG_1_1Script_1_1ScriptExtGraphics3d.html" target="_top" xlink:title="Script class with graphics examples.">
<polygon fill="white" stroke="black" points="482.5,-208 482.5,-227 630.5,-227 630.5,-208 482.5,-208"/>
<text text-anchor="middle" x="556.5" y="-215" font-family="Helvetica,sans-Serif" font-size="10.00">IG.Script.ScriptExtGraphics3d</text>
</a>
</g>
</g>
<!-- Node54&#45;&gt;Node55 -->
<g id="edge42" class="edge"><title>Node54&#45;&gt;Node55</title>
<path fill="none" stroke="midnightblue" d="M438.793,-217.5C453.122,-217.5 468.146,-217.5 482.466,-217.5"/>
<polygon fill="midnightblue" stroke="midnightblue" points="438.503,-214 428.503,-217.5 438.503,-221 438.503,-214"/>
</g>
<!-- Node59 -->
<g id="node47" class="node"><title>Node59</title>
<g id="a_node47"><a xlink:href="../../df/d2d/classIG_1_1Script_1_1ScriptOptTemplateExt.html" target="_top" xlink:title="A template script for running tests.">
<polygon fill="white" stroke="black" points="479.5,-88 479.5,-107 633.5,-107 633.5,-88 479.5,-88"/>
<text text-anchor="middle" x="556.5" y="-95" font-family="Helvetica,sans-Serif" font-size="10.00">IG.Script.ScriptOptTemplateExt</text>
</a>
</g>
</g>
<!-- Node58&#45;&gt;Node59 -->
<g id="edge46" class="edge"><title>Node58&#45;&gt;Node59</title>
<path fill="none" stroke="midnightblue" d="M444.187,-97.5C455.79,-97.5 467.728,-97.5 479.28,-97.5"/>
<polygon fill="midnightblue" stroke="midnightblue" points="444.094,-94.0001 434.094,-97.5 444.094,-101 444.094,-94.0001"/>
</g>
</g>
</svg>
        <g id="navigator" transform="translate(0 0)" fill="#404254">
                <rect fill="#f2f5e9" fill-opacity="0.5" stroke="#606060" stroke-width=".5" x="0" y="0" width="60" height="60"/>
                <use id="zoomplus" xlink:href="#zoomPlus" x="17" y="9" onmousedown="handleZoom(evt,'in')"/>
                <use id="zoomminus" xlink:href="#zoomMin" x="42" y="9" onmousedown="handleZoom(evt,'out')"/>
                <use id="reset" xlink:href="#resetDef" x="30" y="36" onmousedown="handleReset()"/>
                <g id="arrowUp" xlink:href="#dirArrow" transform="translate(30 24)" onmousedown="handlePan(0,-1)">
                  <use xlink:href="#rim" fill="#404040">
                        <set attributeName="fill" to="#808080" begin="arrowUp.mouseover" end="arrowUp.mouseout"/>
                  </use>
                  <path fill="none" stroke="white" stroke-width="1.5" d="M0,-3.0v7 M-2.5,-0.5L0,-3.0L2.5,-0.5"/>
                </g>
                <g id="arrowRight" xlink:href="#dirArrow" transform="rotate(90) translate(36 -43)" onmousedown="handlePan(1,0)">
                  <use xlink:href="#rim" fill="#404040">
                        <set attributeName="fill" to="#808080" begin="arrowRight.mouseover" end="arrowRight.mouseout"/>
                  </use>
                  <path fill="none" stroke="white" stroke-width="1.5" d="M0,-3.0v7 M-2.5,-0.5L0,-3.0L2.5,-0.5"/>
                </g>
                <g id="arrowDown" xlink:href="#dirArrow" transform="rotate(180) translate(-30 -48)" onmousedown="handlePan(0,1)">
                  <use xlink:href="#rim" fill="#404040">
                        <set attributeName="fill" to="#808080" begin="arrowDown.mouseover" end="arrowDown.mouseout"/>
                  </use>
                  <path fill="none" stroke="white" stroke-width="1.5" d="M0,-3.0v7 M-2.5,-0.5L0,-3.0L2.5,-0.5"/>
                </g>
                <g id="arrowLeft" xlink:href="#dirArrow" transform="rotate(270) translate(-36 17)" onmousedown="handlePan(-1,0)">
                  <use xlink:href="#rim" fill="#404040">
                        <set attributeName="fill" to="#808080" begin="arrowLeft.mouseover" end="arrowLeft.mouseout"/>
                  </use>
                  <path fill="none" stroke="white" stroke-width="1.5" d="M0,-3.0v7 M-2.5,-0.5L0,-3.0L2.5,-0.5"/>
                </g>
        </g>
        <svg viewBox="0 0 15 15" width="100%" height="30px" preserveAspectRatio="xMaxYMin meet">
         <g id="arrow_out" transform="scale(0.3 0.3)">
          <a xlink:href="classIG_1_1Lib_1_1LoadableScriptBase__inherit__graph_org.svg" target="_base">
           <rect id="button" ry="5" rx="5" y="6" x="6" height="38" width="38"
                fill="#f2f5e9" fill-opacity="0.5" stroke="#606060" stroke-width="1.0"/>
           <path id="arrow"
             d="M 11.500037,31.436501 C 11.940474,20.09759 22.043105,11.32322 32.158766,21.979434 L 37.068811,17.246167 C 37.068811,17.246167 37.088388,32 37.088388,32 L 22.160133,31.978069 C 22.160133,31.978069 26.997745,27.140456 26.997745,27.140456 C 18.528582,18.264221 13.291696,25.230495 11.500037,31.436501 z"
             style="fill:#404040;"/>
          </a>
         </g>
        </svg>
</svg>
