<?xml version="1.0" encoding="UTF-8" standalone="no"?>
<!DOCTYPE svg PUBLIC "-//W3C//DTD SVG 1.1//EN"
 "http://www.w3.org/Graphics/SVG/1.1/DTD/svg11.dtd">
<!-- Generated by graphviz version 2.38.0 (20140413.2041)
 -->
<!-- Title: IG.Neural.NeuralApproximatorNeuron Pages: 1 -->
<!--zoomable 631 -->
<svg id="main" version="1.1" xmlns="http://www.w3.org/2000/svg" xmlns:xlink="http://www.w3.org/1999/xlink" xml:space="preserve" onload="init(evt)">
<style type="text/css"><![CDATA[
.edge:hover path { stroke: red; }
.edge:hover polygon { stroke: red; fill: red; }
]]></style>
<script type="text/javascript"><![CDATA[
var edges = document.getElementsByTagName('g');
if (edges && edges.length) {
  for (var i=0;i<edges.length;i++) {
    if (edges[i].id.substr(0,4)=='edge') {
      edges[i].setAttribute('class','edge');
    }
  }
}
]]></script>
        <defs>
                <circle id="rim" cx="0" cy="0" r="7"/>
                <circle id="rim2" cx="0" cy="0" r="3.5"/>
                <g id="zoomPlus">
                        <use xlink:href="#rim" fill="#404040">
                                <set attributeName="fill" to="#808080" begin="zoomplus.mouseover" end="zoomplus.mouseout"/>
                        </use>
                        <path d="M-4,0h8M0,-4v8" fill="none" stroke="white" stroke-width="1.5" pointer-events="none"/>
                </g>
                <g id="zoomMin">
                        <use xlink:href="#rim" fill="#404040">
                                <set attributeName="fill" to="#808080" begin="zoomminus.mouseover" end="zoomminus.mouseout"/>
                        </use>
                        <path d="M-4,0h8" fill="none" stroke="white" stroke-width="1.5" pointer-events="none"/>
                </g>
                <g id="dirArrow">
                        <path fill="none" stroke="white" stroke-width="1.5" d="M0,-3.0v7 M-2.5,-0.5L0,-3.0L2.5,-0.5"/>
                </g>
               <g id="resetDef">
                       <use xlink:href="#rim2" fill="#404040">
                               <set attributeName="fill" to="#808080" begin="reset.mouseover" end="reset.mouseout"/>
                       </use>
               </g>
        </defs>

<script type="text/javascript">
var viewWidth = 1450;
var viewHeight = 631;
var sectionId = 'dynsection-1';
</script>
<script xlink:href="../../svgpan.js"/>
<svg id="graph" class="graph">
<g id="viewport">
<title>IG.Neural.NeuralApproximatorNeuron</title>
<polygon fill="white" stroke="none" points="-4,4 -4,-626.684 1446,-626.684 1446,4 -4,4"/>
<!-- Node1 -->
<g id="node1" class="node"><title>Node1</title>
<g id="a_node1"><a xlink:title="Approximator of response by using neural networks, based on the NeuronDotNet library....">
<polygon fill="#bfbfbf" stroke="black" points="1296,-173.5 1296,-203.5 1442,-203.5 1442,-173.5 1296,-173.5"/>
<text text-anchor="start" x="1304" y="-191.5" font-family="Helvetica,sans-Serif" font-size="10.00">IG.Neural.NeuralApproximator</text>
<text text-anchor="middle" x="1369" y="-180.5" font-family="Helvetica,sans-Serif" font-size="10.00">Neuron</text>
</a>
</g>
</g>
<!-- Node2 -->
<g id="node2" class="node"><title>Node2</title>
<g id="a_node2"><a xlink:href="../../dc/db5/classIG_1_1Num_1_1NeuralApproximatorBase.html" target="_top" xlink:title="Base class for neural network approximators.">
<polygon fill="white" stroke="black" points="1056,-387 1056,-406 1181,-406 1181,-387 1056,-387"/>
<text text-anchor="middle" x="1118.5" y="-394" font-family="Helvetica,sans-Serif" font-size="10.00">NeuralApproximatorBase</text>
</a>
</g>
</g>
<!-- Node2&#45;&gt;Node1 -->
<g id="edge1" class="edge"><title>Node2&#45;&gt;Node1</title>
<path fill="none" stroke="midnightblue" d="M1139.06,-380.132C1186.03,-340.816 1304.67,-241.51 1350.01,-203.562"/>
<polygon fill="midnightblue" stroke="midnightblue" points="1136.57,-377.644 1131.15,-386.747 1141.07,-383.012 1136.57,-377.644"/>
</g>
<!-- Node3 -->
<g id="node3" class="node"><title>Node3</title>
<g id="a_node3"><a xlink:href="../../db/d03/classIG_1_1Num_1_1VectorApproximatorBase.html" target="_top" xlink:title="Base class for vector function approximators.">
<polygon fill="white" stroke="black" points="751.5,-469 751.5,-488 876.5,-488 876.5,-469 751.5,-469"/>
<text text-anchor="middle" x="814" y="-476" font-family="Helvetica,sans-Serif" font-size="10.00">VectorApproximatorBase</text>
</a>
</g>
</g>
<!-- Node3&#45;&gt;Node2 -->
<g id="edge2" class="edge"><title>Node3&#45;&gt;Node2</title>
<path fill="none" stroke="midnightblue" d="M887.058,-475.023C924.688,-471.698 971.084,-465.198 1011,-452.5 1046.24,-441.291 1083.66,-418.812 1103.4,-406.005"/>
<polygon fill="midnightblue" stroke="midnightblue" points="886.368,-471.568 876.69,-475.88 886.944,-478.545 886.368,-471.568"/>
</g>
<!-- Node4 -->
<g id="node4" class="node"><title>Node4</title>
<g id="a_node4"><a xlink:href="../../dc/d13/interfaceIG_1_1Num_1_1IVectorApproximator.html" target="_top" xlink:title="Interface for vector function approximators.">
<polygon fill="white" stroke="black" points="437,-457 437,-476 542,-476 542,-457 437,-457"/>
<text text-anchor="middle" x="489.5" y="-464" font-family="Helvetica,sans-Serif" font-size="10.00">IVectorApproximator</text>
</a>
</g>
</g>
<!-- Node4&#45;&gt;Node2 -->
<g id="edge9" class="edge"><title>Node4&#45;&gt;Node2</title>
<path fill="none" stroke="midnightblue" d="M552.427,-461.095C632.024,-453.987 774.459,-440.721 896,-426.5 950.153,-420.164 1011.58,-411.746 1055.99,-405.44"/>
<polygon fill="midnightblue" stroke="midnightblue" points="551.743,-457.642 542.093,-462.015 552.364,-464.615 551.743,-457.642"/>
</g>
<!-- Node4&#45;&gt;Node3 -->
<g id="edge3" class="edge"><title>Node4&#45;&gt;Node3</title>
<path fill="none" stroke="midnightblue" d="M552.317,-468.8C609.557,-470.93 694.217,-474.08 751.391,-476.208"/>
<polygon fill="midnightblue" stroke="midnightblue" points="552.438,-465.302 542.315,-468.428 552.178,-472.298 552.438,-465.302"/>
</g>
<!-- Node7 -->
<g id="node7" class="node"><title>Node7</title>
<g id="a_node7"><a xlink:href="../../d7/db4/interfaceIG_1_1Num_1_1INeuralApproximator.html" target="_top" xlink:title="Approximator of response by using neural networks. $A Igor Mar11;">
<polygon fill="white" stroke="black" points="762,-545 762,-564 866,-564 866,-545 762,-545"/>
<text text-anchor="middle" x="814" y="-552" font-family="Helvetica,sans-Serif" font-size="10.00">INeuralApproximator</text>
</a>
</g>
</g>
<!-- Node4&#45;&gt;Node7 -->
<g id="edge7" class="edge"><title>Node4&#45;&gt;Node7</title>
<path fill="none" stroke="midnightblue" d="M531.717,-478.928C579.661,-493.232 661.278,-517.114 732,-535.5 744.442,-538.735 758.023,-542.017 770.447,-544.922"/>
<polygon fill="midnightblue" stroke="midnightblue" points="532.598,-475.538 522.014,-476.026 530.592,-482.244 532.598,-475.538"/>
</g>
<!-- Node5 -->
<g id="node5" class="node"><title>Node5</title>
<g id="a_node5"><a xlink:href="../../d3/db6/interfaceIG_1_1Lib_1_1ILockable.html" target="_top" xlink:title="Lockable object, has a Lock property that returns object on which lock must be performed in order to ...">
<polygon fill="white" stroke="black" points="460.5,-570 460.5,-589 518.5,-589 518.5,-570 460.5,-570"/>
<text text-anchor="middle" x="489.5" y="-577" font-family="Helvetica,sans-Serif" font-size="10.00">ILockable</text>
</a>
</g>
</g>
<!-- Node5&#45;&gt;Node1 -->
<g id="edge18" class="edge"><title>Node5&#45;&gt;Node1</title>
<path fill="none" stroke="midnightblue" d="M515.674,-594.144C531.543,-602.511 552.788,-612.175 573,-616.5 634.28,-629.612 651.334,-616.672 714,-616.5 940.805,-615.877 1035.69,-635.977 1208,-488.5 1303.74,-406.554 1351.08,-252.633 1364.15,-203.784"/>
<polygon fill="midnightblue" stroke="midnightblue" points="517,-590.88 506.546,-589.161 513.646,-597.025 517,-590.88"/>
</g>
<!-- Node5&#45;&gt;Node2 -->
<g id="edge10" class="edge"><title>Node5&#45;&gt;Node2</title>
<path fill="none" stroke="midnightblue" d="M528.556,-588.552C620.829,-608.173 859.975,-644.843 1011,-539.5 1063.55,-502.842 1100.75,-431.97 1113.06,-406.182"/>
<polygon fill="midnightblue" stroke="midnightblue" points="529.072,-585.082 518.556,-586.368 527.579,-591.921 529.072,-585.082"/>
</g>
<!-- Node5&#45;&gt;Node3 -->
<g id="edge4" class="edge"><title>Node5&#45;&gt;Node3</title>
<path fill="none" stroke="midnightblue" d="M525.613,-566.38C572.317,-549.206 657.642,-518.791 732,-497.5 743.803,-494.12 756.698,-490.89 768.659,-488.083"/>
<polygon fill="midnightblue" stroke="midnightblue" points="524.145,-563.191 515.976,-569.937 526.569,-569.758 524.145,-563.191"/>
</g>
<!-- Node5&#45;&gt;Node7 -->
<g id="edge8" class="edge"><title>Node5&#45;&gt;Node7</title>
<path fill="none" stroke="midnightblue" d="M528.76,-576.534C586.797,-572.035 697.167,-563.479 761.976,-558.455"/>
<polygon fill="midnightblue" stroke="midnightblue" points="528.255,-573.063 518.556,-577.325 528.796,-580.042 528.255,-573.063"/>
</g>
<!-- Node6 -->
<g id="node6" class="node"><title>Node6</title>
<g id="a_node6"><a xlink:href="../../d3/d24/interfaceIG_1_1Num_1_1IVector.html" target="_top" xlink:title="Generic Vector interface">
<polygon fill="white" stroke="black" points="436,-360 436,-379 543,-379 543,-360 436,-360"/>
<text text-anchor="middle" x="489.5" y="-367" font-family="Helvetica,sans-Serif" font-size="10.00">IG.Num.IVector&lt; T &gt;</text>
</a>
</g>
</g>
<!-- Node6&#45;&gt;Node2 -->
<g id="edge14" class="edge"><title>Node6&#45;&gt;Node2</title>
<path fill="none" stroke="#9a32cd" stroke-dasharray="5,2" d="M553.462,-364.108C633.289,-358.189 775.09,-350.738 896,-360.5 957.55,-365.469 1027.79,-378.085 1072.37,-386.974"/>
<polygon fill="#9a32cd" stroke="#9a32cd" points="552.798,-360.648 543.092,-364.894 553.328,-367.628 552.798,-360.648"/>
<text text-anchor="middle" x="814" y="-418.5" font-family="Helvetica,sans-Serif" font-size="10.00"> _tolMaxRelative</text>
<text text-anchor="middle" x="814" y="-407.5" font-family="Helvetica,sans-Serif" font-size="10.00">_output</text>
<text text-anchor="middle" x="814" y="-396.5" font-family="Helvetica,sans-Serif" font-size="10.00">_tolRmsRelative</text>
<text text-anchor="middle" x="814" y="-385.5" font-family="Helvetica,sans-Serif" font-size="10.00">_toleranceMax</text>
<text text-anchor="middle" x="814" y="-374.5" font-family="Helvetica,sans-Serif" font-size="10.00">_toleranceRms</text>
<text text-anchor="middle" x="814" y="-363.5" font-family="Helvetica,sans-Serif" font-size="10.00">_outputFiltered1</text>
</g>
<!-- Node6&#45;&gt;Node3 -->
<g id="edge5" class="edge"><title>Node6&#45;&gt;Node3</title>
<path fill="none" stroke="#9a32cd" stroke-dasharray="5,2" d="M528.644,-382.209C573.156,-397.061 648.964,-422.42 714,-444.5 738.091,-452.679 765.441,-462.081 785.28,-468.922"/>
<polygon fill="#9a32cd" stroke="#9a32cd" points="529.693,-378.869 519.099,-379.025 527.478,-385.51 529.693,-378.869"/>
<text text-anchor="middle" x="643.5" y="-458.5" font-family="Helvetica,sans-Serif" font-size="10.00"> _lastCalculationOutputValues</text>
<text text-anchor="middle" x="643.5" y="-447.5" font-family="Helvetica,sans-Serif" font-size="10.00">_lastCalculationInputParameters</text>
</g>
<!-- Node7&#45;&gt;Node1 -->
<g id="edge17" class="edge"><title>Node7&#45;&gt;Node1</title>
<path fill="none" stroke="midnightblue" d="M876.504,-556.861C915.887,-556.593 967.563,-552.885 1011,-538.5 1108.99,-506.05 1133,-486.422 1208,-415.5 1279.99,-347.421 1339.5,-242.366 1360.18,-203.568"/>
<polygon fill="midnightblue" stroke="midnightblue" points="876.257,-553.361 866.255,-556.856 876.253,-560.361 876.257,-553.361"/>
</g>
<!-- Node7&#45;&gt;Node2 -->
<g id="edge6" class="edge"><title>Node7&#45;&gt;Node2</title>
<path fill="none" stroke="midnightblue" d="M876.484,-545.501C925.081,-537.626 988.368,-525.446 1011,-512.5 1058.94,-485.08 1097.53,-428.708 1111.68,-406.146"/>
<polygon fill="midnightblue" stroke="midnightblue" points="875.682,-542.085 866.357,-547.115 876.783,-548.998 875.682,-542.085"/>
</g>
<!-- Node8 -->
<g id="node8" class="node"><title>Node8</title>
<g id="a_node8"><a xlink:href="../../d5/d84/classIG_1_1Lib_1_1IndexList.html" target="_top" xlink:title="Index list, a sorted list of unique integer indices. Used for tasks such as filtering specified eleme...">
<polygon fill="white" stroke="black" points="772,-507 772,-526 856,-526 856,-507 772,-507"/>
<text text-anchor="middle" x="814" y="-514" font-family="Helvetica,sans-Serif" font-size="10.00">IG.Lib.IndexList</text>
</a>
</g>
</g>
<!-- Node8&#45;&gt;Node2 -->
<g id="edge11" class="edge"><title>Node8&#45;&gt;Node2</title>
<path fill="none" stroke="#9a32cd" stroke-dasharray="5,2" d="M866.224,-508.67C915.337,-500.692 985.645,-487.907 1011,-476.5 1051.07,-458.472 1090.33,-423.137 1107.9,-406.116"/>
<polygon fill="#9a32cd" stroke="#9a32cd" points="865.408,-505.256 856.089,-510.297 866.518,-512.167 865.408,-505.256"/>
<text text-anchor="middle" x="962.5" y="-501.5" font-family="Helvetica,sans-Serif" font-size="10.00"> _verificationIndices</text>
</g>
<!-- Node9 -->
<g id="node9" class="node"><title>Node9</title>
<g id="a_node9"><a xlink:href="../../da/d2a/classIG_1_1Lib_1_1SortedUniqueItemList.html" target="_top" xlink:title=" ">
<polygon fill="white" stroke="black" points="434.5,-501.5 434.5,-531.5 544.5,-531.5 544.5,-501.5 434.5,-501.5"/>
<text text-anchor="start" x="442.5" y="-519.5" font-family="Helvetica,sans-Serif" font-size="10.00">SortedUniqueItemList</text>
<text text-anchor="middle" x="489.5" y="-508.5" font-family="Helvetica,sans-Serif" font-size="10.00">&lt; int &gt;</text>
</a>
</g>
</g>
<!-- Node9&#45;&gt;Node8 -->
<g id="edge12" class="edge"><title>Node9&#45;&gt;Node8</title>
<path fill="none" stroke="midnightblue" d="M554.912,-516.5C619.48,-516.5 716.95,-516.5 771.772,-516.5"/>
<polygon fill="midnightblue" stroke="midnightblue" points="554.843,-513 544.843,-516.5 554.843,-520 554.843,-513"/>
</g>
<!-- Node10 -->
<g id="node10" class="node"><title>Node10</title>
<g id="a_node10"><a xlink:href="../../d4/d29/classIG_1_1Num_1_1SampledDataSet.html" target="_top" xlink:title="Sampled data consisting of elements of which each contains vector of input parameters and output valu...">
<polygon fill="white" stroke="black" points="751,-291 751,-310 877,-310 877,-291 751,-291"/>
<text text-anchor="middle" x="814" y="-298" font-family="Helvetica,sans-Serif" font-size="10.00">IG.Num.SampledDataSet</text>
</a>
</g>
</g>
<!-- Node10&#45;&gt;Node2 -->
<g id="edge13" class="edge"><title>Node10&#45;&gt;Node2</title>
<path fill="none" stroke="#9a32cd" stroke-dasharray="5,2" d="M887.605,-302.393C925.384,-305.285 971.749,-311.875 1011,-326.5 1049.56,-340.87 1088.31,-371.311 1106.62,-386.884"/>
<polygon fill="#9a32cd" stroke="#9a32cd" points="887.408,-298.871 877.19,-301.671 886.924,-305.854 887.408,-298.871"/>
<text text-anchor="middle" x="962.5" y="-329.5" font-family="Helvetica,sans-Serif" font-size="10.00"> _trainingData</text>
</g>
<!-- Node11 -->
<g id="node11" class="node"><title>Node11</title>
<g id="a_node11"><a xlink:href="../../db/d5e/interfaceIG_1_1Num_1_1IBoundingBox.html" target="_top" xlink:title="Bounding box, defines minimum and maximum co&#45;ordinates of domains, geometric objects and their groups...">
<polygon fill="white" stroke="black" points="757.5,-253 757.5,-272 870.5,-272 870.5,-253 757.5,-253"/>
<text text-anchor="middle" x="814" y="-260" font-family="Helvetica,sans-Serif" font-size="10.00">IG.Num.IBoundingBox</text>
</a>
</g>
</g>
<!-- Node11&#45;&gt;Node2 -->
<g id="edge15" class="edge"><title>Node11&#45;&gt;Node2</title>
<path fill="none" stroke="#9a32cd" stroke-dasharray="5,2" d="M856.91,-250.636C898.324,-241.311 962.358,-233.491 1011,-257.5 1067.7,-285.488 1102.57,-359.757 1113.65,-386.624"/>
<polygon fill="#9a32cd" stroke="#9a32cd" points="856.068,-247.239 847.149,-252.956 857.687,-254.049 856.068,-247.239"/>
<text text-anchor="middle" x="962.5" y="-293.5" font-family="Helvetica,sans-Serif" font-size="10.00"> _inputNeuronRange</text>
<text text-anchor="middle" x="962.5" y="-282.5" font-family="Helvetica,sans-Serif" font-size="10.00">_outputNeuronsRange</text>
<text text-anchor="middle" x="962.5" y="-271.5" font-family="Helvetica,sans-Serif" font-size="10.00">_inputDataBounds</text>
<text text-anchor="middle" x="962.5" y="-260.5" font-family="Helvetica,sans-Serif" font-size="10.00">_outputDataBounds</text>
</g>
<!-- Node12 -->
<g id="node12" class="node"><title>Node12</title>
<g id="a_node12"><a xlink:title=" ">
<polygon fill="white" stroke="#bfbfbf" points="799.5,-215 799.5,-234 828.5,-234 828.5,-215 799.5,-215"/>
<text text-anchor="middle" x="814" y="-222" font-family="Helvetica,sans-Serif" font-size="10.00">IG</text>
</a>
</g>
</g>
<!-- Node12&#45;&gt;Node2 -->
<g id="edge16" class="edge"><title>Node12&#45;&gt;Node2</title>
<path fill="none" stroke="#9a32cd" stroke-dasharray="5,2" d="M838.564,-218.097C877.344,-208.962 955.811,-196.492 1011,-227.5 1075.4,-263.683 1106.36,-356.65 1114.95,-386.86"/>
<polygon fill="#9a32cd" stroke="#9a32cd" points="837.588,-214.733 828.731,-220.547 839.28,-221.526 837.588,-214.733"/>
<text text-anchor="middle" x="962.5" y="-230.5" font-family="Helvetica,sans-Serif" font-size="10.00"> _auxErrors</text>
</g>
<!-- Node13 -->
<g id="node13" class="node"><title>Node13</title>
<g id="a_node13"><a xlink:href="../../d5/d28/classNeuronDotNet_1_1Core_1_1TrainingSet.html" target="_top" xlink:title="A Training Set represents a set of training samples used during &#39;batch training&#39; process.">
<polygon fill="white" stroke="black" points="254,-157 254,-176 406,-176 406,-157 254,-157"/>
<text text-anchor="middle" x="330" y="-164" font-family="Helvetica,sans-Serif" font-size="10.00">NeuronDotNet.Core.TrainingSet</text>
</a>
</g>
</g>
<!-- Node13&#45;&gt;Node1 -->
<g id="edge19" class="edge"><title>Node13&#45;&gt;Node1</title>
<path fill="none" stroke="#9a32cd" stroke-dasharray="5,2" d="M416.342,-169.046C632.264,-175.48 1186.03,-191.92 1226,-192.5 1249.11,-192.836 1254.89,-193.013 1278,-192.5 1283.79,-192.371 1289.78,-192.197 1295.8,-191.991"/>
<polygon fill="#9a32cd" stroke="#9a32cd" points="416.419,-165.547 406.319,-168.748 416.21,-172.544 416.419,-165.547"/>
<text text-anchor="middle" x="814" y="-197.5" font-family="Helvetica,sans-Serif" font-size="10.00"> _trainingSetSingleOutput</text>
<text text-anchor="middle" x="814" y="-186.5" font-family="Helvetica,sans-Serif" font-size="10.00">_trainingSet</text>
</g>
<!-- Node14 -->
<g id="node14" class="node"><title>Node14</title>
<g id="a_node14"><a xlink:title=" ">
<polygon fill="white" stroke="#bfbfbf" points="0,-97 0,-116 69,-116 69,-97 0,-97"/>
<text text-anchor="middle" x="34.5" y="-104" font-family="Helvetica,sans-Serif" font-size="10.00">ISerializable</text>
</a>
</g>
</g>
<!-- Node14&#45;&gt;Node13 -->
<g id="edge20" class="edge"><title>Node14&#45;&gt;Node13</title>
<path fill="none" stroke="midnightblue" d="M78.628,-118.763C87.6369,-121.144 97.1009,-123.514 106,-125.5 161.516,-137.89 225.409,-149.355 270.534,-156.993"/>
<polygon fill="midnightblue" stroke="midnightblue" points="79.2706,-115.311 68.7044,-116.089 77.4495,-122.07 79.2706,-115.311"/>
</g>
<!-- Node24 -->
<g id="node24" class="node"><title>Node24</title>
<g id="a_node24"><a xlink:href="../../d5/da3/interfaceNeuronDotNet_1_1Core_1_1INetwork.html" target="_top" xlink:title=" ">
<polygon fill="white" stroke="black" points="144,-59 144,-78 198,-78 198,-59 144,-59"/>
<text text-anchor="middle" x="171" y="-66" font-family="Helvetica,sans-Serif" font-size="10.00">INetwork</text>
</a>
</g>
</g>
<!-- Node14&#45;&gt;Node24 -->
<g id="edge32" class="edge"><title>Node14&#45;&gt;Node24</title>
<path fill="none" stroke="midnightblue" d="M78.8968,-94.2392C100.198,-88.2211 125.167,-81.1667 143.573,-75.9665"/>
<polygon fill="midnightblue" stroke="midnightblue" points="77.7648,-90.9219 69.0931,-97.009 79.668,-97.6583 77.7648,-90.9219"/>
</g>
<!-- Node25 -->
<g id="node25" class="node"><title>Node25</title>
<g id="a_node25"><a xlink:href="../../d0/dea/interfaceNeuronDotNet_1_1Core_1_1ILayer.html" target="_top" xlink:title="This interface represents a Layer in a neural network. A layer is a container for similar neurons....">
<polygon fill="white" stroke="black" points="106,-97 106,-116 236,-116 236,-97 106,-97"/>
<text text-anchor="middle" x="171" y="-104" font-family="Helvetica,sans-Serif" font-size="10.00">NeuronDotNet.Core.ILayer</text>
</a>
</g>
</g>
<!-- Node14&#45;&gt;Node25 -->
<g id="edge34" class="edge"><title>Node14&#45;&gt;Node25</title>
<path fill="none" stroke="midnightblue" d="M79.1862,-106.5C87.7333,-106.5 96.8618,-106.5 105.914,-106.5"/>
<polygon fill="midnightblue" stroke="midnightblue" points="79.0931,-103 69.0931,-106.5 79.093,-110 79.0931,-103"/>
</g>
<!-- Node15 -->
<g id="node15" class="node"><title>Node15</title>
<g id="a_node15"><a xlink:href="../../dc/da8/classNeuronDotNet_1_1Core_1_1Backpropagation_1_1LinearLayer.html" target="_top" xlink:title="An ActivationLayer using linear activation function">
<polygon fill="white" stroke="black" points="1029,-147.5 1029,-177.5 1208,-177.5 1208,-147.5 1029,-147.5"/>
<text text-anchor="start" x="1037" y="-165.5" font-family="Helvetica,sans-Serif" font-size="10.00">NeuronDotNet.Core.Backpropagation.</text>
<text text-anchor="middle" x="1118.5" y="-154.5" font-family="Helvetica,sans-Serif" font-size="10.00">LinearLayer</text>
</a>
</g>
</g>
<!-- Node15&#45;&gt;Node1 -->
<g id="edge21" class="edge"><title>Node15&#45;&gt;Node1</title>
<path fill="none" stroke="#9a32cd" stroke-dasharray="5,2" d="M1218.36,-172.843C1244.2,-175.547 1271.57,-178.41 1295.73,-180.939"/>
<polygon fill="#9a32cd" stroke="#9a32cd" points="1218.47,-169.336 1208.16,-171.776 1217.74,-176.298 1218.47,-169.336"/>
<text text-anchor="middle" x="1252" y="-182.5" font-family="Helvetica,sans-Serif" font-size="10.00"> _inputVal</text>
</g>
<!-- Node16 -->
<g id="node16" class="node"><title>Node16</title>
<g id="a_node16"><a xlink:href="../../df/d8a/classNeuronDotNet_1_1Core_1_1Backpropagation_1_1ActivationLayer.html" target="_top" xlink:title="Activation Layer is a layer of activation neurons.">
<polygon fill="white" stroke="black" points="772.5,-114 772.5,-133 855.5,-133 855.5,-114 772.5,-114"/>
<text text-anchor="middle" x="814" y="-121" font-family="Helvetica,sans-Serif" font-size="10.00">ActivationLayer</text>
</a>
</g>
</g>
<!-- Node16&#45;&gt;Node15 -->
<g id="edge22" class="edge"><title>Node16&#45;&gt;Node15</title>
<path fill="none" stroke="midnightblue" d="M865.775,-130.046C910.185,-135.772 975.698,-144.218 1028.76,-151.059"/>
<polygon fill="midnightblue" stroke="midnightblue" points="866.162,-126.567 855.796,-128.76 865.267,-133.51 866.162,-126.567"/>
</g>
<!-- Node18 -->
<g id="node18" class="node"><title>Node18</title>
<g id="a_node18"><a xlink:href="../../d0/d8e/classNeuronDotNet_1_1Core_1_1Backpropagation_1_1SigmoidLayer.html" target="_top" xlink:title="An ActivationLayer using sigmoid activation function">
<polygon fill="white" stroke="black" points="1029,-98.5 1029,-128.5 1208,-128.5 1208,-98.5 1029,-98.5"/>
<text text-anchor="start" x="1037" y="-116.5" font-family="Helvetica,sans-Serif" font-size="10.00">NeuronDotNet.Core.Backpropagation.</text>
<text text-anchor="middle" x="1118.5" y="-105.5" font-family="Helvetica,sans-Serif" font-size="10.00">SigmoidLayer</text>
</a>
</g>
</g>
<!-- Node16&#45;&gt;Node18 -->
<g id="edge25" class="edge"><title>Node16&#45;&gt;Node18</title>
<path fill="none" stroke="midnightblue" d="M866.055,-121.812C910.461,-120.344 975.81,-118.184 1028.76,-116.434"/>
<polygon fill="midnightblue" stroke="midnightblue" points="865.675,-118.323 855.796,-122.151 865.907,-125.319 865.675,-118.323"/>
</g>
<!-- Node17 -->
<g id="node17" class="node"><title>Node17</title>
<g id="a_node17"><a xlink:href="../../db/d81/classNeuronDotNet_1_1Core_1_1Layer.html" target="_top" xlink:title=" ">
<polygon fill="white" stroke="black" points="424,-114 424,-133 555,-133 555,-114 424,-114"/>
<text text-anchor="middle" x="489.5" y="-121" font-family="Helvetica,sans-Serif" font-size="10.00">Layer&lt; ActivationNeuron &gt;</text>
</a>
</g>
</g>
<!-- Node17&#45;&gt;Node16 -->
<g id="edge23" class="edge"><title>Node17&#45;&gt;Node16</title>
<path fill="none" stroke="midnightblue" d="M565.482,-123.5C629.911,-123.5 720.382,-123.5 772.216,-123.5"/>
<polygon fill="midnightblue" stroke="midnightblue" points="565.375,-120 555.375,-123.5 565.375,-127 565.375,-120"/>
</g>
<!-- Node18&#45;&gt;Node1 -->
<g id="edge24" class="edge"><title>Node18&#45;&gt;Node1</title>
<path fill="none" stroke="#9a32cd" stroke-dasharray="5,2" d="M1212.5,-130.762C1234.22,-135.693 1257.11,-141.628 1278,-148.5 1298.63,-155.285 1320.94,-165.182 1338.19,-173.434"/>
<polygon fill="#9a32cd" stroke="#9a32cd" points="1213.13,-127.318 1202.61,-128.568 1211.62,-134.152 1213.13,-127.318"/>
<text text-anchor="middle" x="1252" y="-162.5" font-family="Helvetica,sans-Serif" font-size="10.00"> _outputVal</text>
<text text-anchor="middle" x="1252" y="-151.5" font-family="Helvetica,sans-Serif" font-size="10.00">_hiddenVal</text>
</g>
<!-- Node19 -->
<g id="node19" class="node"><title>Node19</title>
<g id="a_node19"><a xlink:href="../../d6/de0/classNeuronDotNet_1_1Core_1_1Backpropagation_1_1BackpropagationConnector.html" target="_top" xlink:title="A Backpropagation Connector is an IConnector which consists of a collection of backpropagation synaps...">
<polygon fill="white" stroke="black" points="1029,-49.5 1029,-79.5 1208,-79.5 1208,-49.5 1029,-49.5"/>
<text text-anchor="start" x="1037" y="-67.5" font-family="Helvetica,sans-Serif" font-size="10.00">NeuronDotNet.Core.Backpropagation.</text>
<text text-anchor="middle" x="1118.5" y="-56.5" font-family="Helvetica,sans-Serif" font-size="10.00">BackpropagationConnector</text>
</a>
</g>
</g>
<!-- Node19&#45;&gt;Node1 -->
<g id="edge26" class="edge"><title>Node19&#45;&gt;Node1</title>
<path fill="none" stroke="#9a32cd" stroke-dasharray="5,2" d="M1189.67,-82.47C1195.91,-84.3859 1202.09,-86.4045 1208,-88.5 1240.07,-99.8745 1248.74,-102.138 1278,-119.5 1305.09,-135.574 1333.48,-158.509 1350.95,-173.449"/>
<polygon fill="#9a32cd" stroke="#9a32cd" points="1190.45,-79.0487 1179.86,-79.5477 1188.45,-85.7573 1190.45,-79.0487"/>
<text text-anchor="middle" x="1252" y="-122.5" font-family="Helvetica,sans-Serif" font-size="10.00"> _connector</text>
</g>
<!-- Node20 -->
<g id="node20" class="node"><title>Node20</title>
<g id="a_node20"><a xlink:href="../../d0/d97/classNeuronDotNet_1_1Core_1_1Connector.html" target="_top" xlink:title=" ">
<polygon fill="white" stroke="black" points="732,-44 732,-85 896,-85 896,-44 732,-44"/>
<text text-anchor="start" x="740" y="-73" font-family="Helvetica,sans-Serif" font-size="10.00">Connector&lt; ActivationLayer,</text>
<text text-anchor="start" x="740" y="-62" font-family="Helvetica,sans-Serif" font-size="10.00"> ActivationLayer, Backpropagation</text>
<text text-anchor="middle" x="814" y="-51" font-family="Helvetica,sans-Serif" font-size="10.00">Synapse &gt;</text>
</a>
</g>
</g>
<!-- Node20&#45;&gt;Node19 -->
<g id="edge27" class="edge"><title>Node20&#45;&gt;Node19</title>
<path fill="none" stroke="midnightblue" d="M906.311,-64.5C945.13,-64.5 990.232,-64.5 1028.76,-64.5"/>
<polygon fill="midnightblue" stroke="midnightblue" points="906.064,-61.0001 896.064,-64.5 906.064,-68.0001 906.064,-61.0001"/>
</g>
<!-- Node21 -->
<g id="node21" class="node"><title>Node21</title>
<g id="a_node21"><a xlink:href="../../db/d6e/classIG_1_1Neural_1_1NeuralApproximatorNeuron_1_1MyNeuronBackPropagation.html" target="_top" xlink:title="Replacement for BackpropagationNetwork from NeuronDotNet, adapts some functionality to the needs of e...">
<polygon fill="white" stroke="black" points="1034,-0.5 1034,-30.5 1203,-30.5 1203,-0.5 1034,-0.5"/>
<text text-anchor="start" x="1042" y="-18.5" font-family="Helvetica,sans-Serif" font-size="10.00">IG.Neural.NeuralApproximator</text>
<text text-anchor="middle" x="1118.5" y="-7.5" font-family="Helvetica,sans-Serif" font-size="10.00">Neuron.MyNeuronBackPropagation</text>
</a>
</g>
</g>
<!-- Node21&#45;&gt;Node1 -->
<g id="edge28" class="edge"><title>Node21&#45;&gt;Node1</title>
<path fill="none" stroke="#9a32cd" stroke-dasharray="5,2" d="M1192.59,-33.6575C1197.86,-35.4729 1203.05,-37.4209 1208,-39.5 1241.25,-53.4518 1250.49,-57.1915 1278,-80.5 1311.7,-109.059 1342.74,-151.222 1358.03,-173.476"/>
<polygon fill="#9a32cd" stroke="#9a32cd" points="1193.63,-30.3171 1183.04,-30.5334 1191.46,-36.97 1193.63,-30.3171"/>
<text text-anchor="middle" x="1252" y="-83.5" font-family="Helvetica,sans-Serif" font-size="10.00"> _networks</text>
</g>
<!-- Node22 -->
<g id="node22" class="node"><title>Node22</title>
<g id="a_node22"><a xlink:href="../../de/d87/classNeuronDotNet_1_1Core_1_1Backpropagation_1_1BackpropagationNetwork.html" target="_top" xlink:title="This class extends a Network and represents a Backpropagation neural network.">
<polygon fill="white" stroke="black" points="751.5,-6 751.5,-25 876.5,-25 876.5,-6 751.5,-6"/>
<text text-anchor="middle" x="814" y="-13" font-family="Helvetica,sans-Serif" font-size="10.00">BackpropagationNetwork</text>
</a>
</g>
</g>
<!-- Node22&#45;&gt;Node21 -->
<g id="edge29" class="edge"><title>Node22&#45;&gt;Node21</title>
<path fill="none" stroke="midnightblue" d="M886.664,-15.5C930.848,-15.5 987.703,-15.5 1033.93,-15.5"/>
<polygon fill="midnightblue" stroke="midnightblue" points="886.58,-12.0001 876.58,-15.5 886.58,-19.0001 886.58,-12.0001"/>
</g>
<!-- Node23 -->
<g id="node23" class="node"><title>Node23</title>
<g id="a_node23"><a xlink:href="../../d0/d7c/classNeuronDotNet_1_1Core_1_1Network.html" target="_top" xlink:title=" ">
<polygon fill="white" stroke="black" points="463.5,-59 463.5,-78 515.5,-78 515.5,-59 463.5,-59"/>
<text text-anchor="middle" x="489.5" y="-66" font-family="Helvetica,sans-Serif" font-size="10.00">Network</text>
</a>
</g>
</g>
<!-- Node23&#45;&gt;Node22 -->
<g id="edge30" class="edge"><title>Node23&#45;&gt;Node22</title>
<path fill="none" stroke="midnightblue" d="M525.516,-62.7455C580.632,-53.6877 688.211,-36.008 755.001,-25.0316"/>
<polygon fill="midnightblue" stroke="midnightblue" points="524.838,-59.3099 515.538,-64.3853 525.973,-66.2172 524.838,-59.3099"/>
</g>
<!-- Node24&#45;&gt;Node23 -->
<g id="edge31" class="edge"><title>Node24&#45;&gt;Node23</title>
<path fill="none" stroke="midnightblue" d="M208.331,-68.5C273.178,-68.5 407.289,-68.5 463.182,-68.5"/>
<polygon fill="midnightblue" stroke="midnightblue" points="208.17,-65.0001 198.17,-68.5 208.17,-72.0001 208.17,-65.0001"/>
</g>
<!-- Node25&#45;&gt;Node23 -->
<g id="edge33" class="edge"><title>Node25&#45;&gt;Node23</title>
<path fill="none" stroke="#9a32cd" stroke-dasharray="5,2" d="M246.392,-100.131C292.453,-95.8753 352.767,-89.7386 406,-82.5 425.29,-79.877 446.989,-76.1641 463.291,-73.221"/>
<polygon fill="#9a32cd" stroke="#9a32cd" points="245.835,-96.6674 236.195,-101.064 246.473,-103.638 245.835,-96.6674"/>
<text text-anchor="middle" x="330" y="-113.5" font-family="Helvetica,sans-Serif" font-size="10.00"> inputLayer</text>
<text text-anchor="middle" x="330" y="-102.5" font-family="Helvetica,sans-Serif" font-size="10.00">outputLayer</text>
</g>
</g>
</svg>
        <g id="navigator" transform="translate(0 0)" fill="#404254">
                <rect fill="#f2f5e9" fill-opacity="0.5" stroke="#606060" stroke-width=".5" x="0" y="0" width="60" height="60"/>
                <use id="zoomplus" xlink:href="#zoomPlus" x="17" y="9" onmousedown="handleZoom(evt,'in')"/>
                <use id="zoomminus" xlink:href="#zoomMin" x="42" y="9" onmousedown="handleZoom(evt,'out')"/>
                <use id="reset" xlink:href="#resetDef" x="30" y="36" onmousedown="handleReset()"/>
                <g id="arrowUp" xlink:href="#dirArrow" transform="translate(30 24)" onmousedown="handlePan(0,-1)">
                  <use xlink:href="#rim" fill="#404040">
                        <set attributeName="fill" to="#808080" begin="arrowUp.mouseover" end="arrowUp.mouseout"/>
                  </use>
                  <path fill="none" stroke="white" stroke-width="1.5" d="M0,-3.0v7 M-2.5,-0.5L0,-3.0L2.5,-0.5"/>
                </g>
                <g id="arrowRight" xlink:href="#dirArrow" transform="rotate(90) translate(36 -43)" onmousedown="handlePan(1,0)">
                  <use xlink:href="#rim" fill="#404040">
                        <set attributeName="fill" to="#808080" begin="arrowRight.mouseover" end="arrowRight.mouseout"/>
                  </use>
                  <path fill="none" stroke="white" stroke-width="1.5" d="M0,-3.0v7 M-2.5,-0.5L0,-3.0L2.5,-0.5"/>
                </g>
                <g id="arrowDown" xlink:href="#dirArrow" transform="rotate(180) translate(-30 -48)" onmousedown="handlePan(0,1)">
                  <use xlink:href="#rim" fill="#404040">
                        <set attributeName="fill" to="#808080" begin="arrowDown.mouseover" end="arrowDown.mouseout"/>
                  </use>
                  <path fill="none" stroke="white" stroke-width="1.5" d="M0,-3.0v7 M-2.5,-0.5L0,-3.0L2.5,-0.5"/>
                </g>
                <g id="arrowLeft" xlink:href="#dirArrow" transform="rotate(270) translate(-36 17)" onmousedown="handlePan(-1,0)">
                  <use xlink:href="#rim" fill="#404040">
                        <set attributeName="fill" to="#808080" begin="arrowLeft.mouseover" end="arrowLeft.mouseout"/>
                  </use>
                  <path fill="none" stroke="white" stroke-width="1.5" d="M0,-3.0v7 M-2.5,-0.5L0,-3.0L2.5,-0.5"/>
                </g>
        </g>
        <svg viewBox="0 0 15 15" width="100%" height="30px" preserveAspectRatio="xMaxYMin meet">
         <g id="arrow_out" transform="scale(0.3 0.3)">
          <a xlink:href="classIG_1_1Neural_1_1NeuralApproximatorNeuron__coll__graph_org.svg" target="_base">
           <rect id="button" ry="5" rx="5" y="6" x="6" height="38" width="38"
                fill="#f2f5e9" fill-opacity="0.5" stroke="#606060" stroke-width="1.0"/>
           <path id="arrow"
             d="M 11.500037,31.436501 C 11.940474,20.09759 22.043105,11.32322 32.158766,21.979434 L 37.068811,17.246167 C 37.068811,17.246167 37.088388,32 37.088388,32 L 22.160133,31.978069 C 22.160133,31.978069 26.997745,27.140456 26.997745,27.140456 C 18.528582,18.264221 13.291696,25.230495 11.500037,31.436501 z"
             style="fill:#404040;"/>
          </a>
         </g>
        </svg>
</svg>
