<?xml version="1.0" encoding="UTF-8" standalone="no"?>
<!DOCTYPE svg PUBLIC "-//W3C//DTD SVG 1.1//EN"
 "http://www.w3.org/Graphics/SVG/1.1/DTD/svg11.dtd">
<!-- Generated by graphviz version 2.38.0 (20140413.2041)
 -->
<!-- Title: NUnit.Framework.Internal.PropertyBagTests Pages: 1 -->
<svg width="137pt" height="231pt"
 viewBox="0.00 0.00 137.00 231.00" xmlns="http://www.w3.org/2000/svg" xmlns:xlink="http://www.w3.org/1999/xlink">
<g id="graph0" class="graph" transform="scale(1 1) rotate(0) translate(4 227)">
<title>NUnit.Framework.Internal.PropertyBagTests</title>
<polygon fill="white" stroke="none" points="-4,4 -4,-227 133,-227 133,4 -4,4"/>
<!-- Node1 -->
<g id="node1" class="node"><title>Node1</title>
<g id="a_node1"><a xlink:title=" ">
<polygon fill="#bfbfbf" stroke="black" points="0,-0.5 0,-30.5 129,-30.5 129,-0.5 0,-0.5"/>
<text text-anchor="start" x="8" y="-18.5" font-family="Helvetica,sans-Serif" font-size="10.00">NUnit.Framework.Internal.</text>
<text text-anchor="middle" x="64.5" y="-7.5" font-family="Helvetica,sans-Serif" font-size="10.00">PropertyBagTests</text>
</a>
</g>
</g>
<!-- Node2 -->
<g id="node2" class="node"><title>Node2</title>
<g id="a_node2"><a xlink:href="../../db/d10/classNUnit_1_1Framework_1_1Internal_1_1PropertyBag.html" target="_top" xlink:title="A PropertyBag represents a collection of name value pairs that allows duplicate entries with the same...">
<polygon fill="white" stroke="black" points="0,-78.5 0,-108.5 129,-108.5 129,-78.5 0,-78.5"/>
<text text-anchor="start" x="8" y="-96.5" font-family="Helvetica,sans-Serif" font-size="10.00">NUnit.Framework.Internal.</text>
<text text-anchor="middle" x="64.5" y="-85.5" font-family="Helvetica,sans-Serif" font-size="10.00">PropertyBag</text>
</a>
</g>
</g>
<!-- Node2&#45;&gt;Node1 -->
<g id="edge1" class="edge"><title>Node2&#45;&gt;Node1</title>
<path fill="none" stroke="#9a32cd" stroke-dasharray="5,2" d="M64.5,-68.0898C64.5,-55.7565 64.5,-41.2237 64.5,-30.7309"/>
<polygon fill="#9a32cd" stroke="#9a32cd" points="61.0001,-68.2049 64.5,-78.205 68.0001,-68.205 61.0001,-68.2049"/>
<text text-anchor="middle" x="74" y="-52" font-family="Helvetica,sans-Serif" font-size="10.00"> bag</text>
</g>
<!-- Node3 -->
<g id="node3" class="node"><title>Node3</title>
<g id="a_node3"><a xlink:href="../../dd/d90/interfaceNUnit_1_1Framework_1_1Interfaces_1_1IPropertyBag.html" target="_top" xlink:title="A PropertyBag represents a collection of name/value pairs that allows duplicate entries with the same...">
<polygon fill="white" stroke="black" points="28,-146.5 28,-165.5 101,-165.5 101,-146.5 28,-146.5"/>
<text text-anchor="middle" x="64.5" y="-153.5" font-family="Helvetica,sans-Serif" font-size="10.00">IPropertyBag</text>
</a>
</g>
</g>
<!-- Node3&#45;&gt;Node2 -->
<g id="edge2" class="edge"><title>Node3&#45;&gt;Node2</title>
<path fill="none" stroke="midnightblue" d="M64.5,-136.215C64.5,-127.356 64.5,-116.958 64.5,-108.759"/>
<polygon fill="midnightblue" stroke="midnightblue" points="61.0001,-136.332 64.5,-146.332 68.0001,-136.332 61.0001,-136.332"/>
</g>
<!-- Node4 -->
<g id="node4" class="node"><title>Node4</title>
<g id="a_node4"><a xlink:href="../../d9/dc0/interfaceNUnit_1_1Framework_1_1Interfaces_1_1IXmlNodeBuilder.html" target="_top" xlink:title="An object implementing IXmlNodeBuilder is able to build an XML representation of itself and any child...">
<polygon fill="white" stroke="black" points="21,-203.5 21,-222.5 108,-222.5 108,-203.5 21,-203.5"/>
<text text-anchor="middle" x="64.5" y="-210.5" font-family="Helvetica,sans-Serif" font-size="10.00">IXmlNodeBuilder</text>
</a>
</g>
</g>
<!-- Node4&#45;&gt;Node3 -->
<g id="edge3" class="edge"><title>Node4&#45;&gt;Node3</title>
<path fill="none" stroke="midnightblue" d="M64.5,-193.117C64.5,-183.817 64.5,-173.056 64.5,-165.715"/>
<polygon fill="midnightblue" stroke="midnightblue" points="61.0001,-193.406 64.5,-203.406 68.0001,-193.406 61.0001,-193.406"/>
</g>
</g>
</svg>
