<?xml version="1.0" encoding="UTF-8" standalone="no"?>
<!DOCTYPE svg PUBLIC "-//W3C//DTD SVG 1.1//EN"
 "http://www.w3.org/Graphics/SVG/1.1/DTD/svg11.dtd">
<!-- Generated by graphviz version 2.38.0 (20140413.2041)
 -->
<!-- Title: WcfService_WebDev_FromTemplate.WSBaseRef.TestServiceArgCompletedEventArgs Pages: 1 -->
<svg width="237pt" height="106pt"
 viewBox="0.00 0.00 237.00 106.00" xmlns="http://www.w3.org/2000/svg" xmlns:xlink="http://www.w3.org/1999/xlink">
<g id="graph0" class="graph" transform="scale(1 1) rotate(0) translate(4 102)">
<title>WcfService_WebDev_FromTemplate.WSBaseRef.TestServiceArgCompletedEventArgs</title>
<polygon fill="white" stroke="none" points="-4,4 -4,-102 233,-102 233,4 -4,4"/>
<!-- Node1 -->
<g id="node1" class="node"><title>Node1</title>
<g id="a_node1"><a xlink:title=" ">
<polygon fill="#bfbfbf" stroke="black" points="0,-0.5 0,-30.5 229,-30.5 229,-0.5 0,-0.5"/>
<text text-anchor="start" x="8" y="-18.5" font-family="Helvetica,sans-Serif" font-size="10.00">WcfService_WebDev_FromTemplate.</text>
<text text-anchor="middle" x="114.5" y="-7.5" font-family="Helvetica,sans-Serif" font-size="10.00">WSBaseRef.TestServiceArgCompletedEventArgs</text>
</a>
</g>
</g>
<!-- Node2 -->
<g id="node2" class="node"><title>Node2</title>
<g id="a_node2"><a xlink:title=" ">
<polygon fill="white" stroke="#bfbfbf" points="44,-67.5 44,-97.5 185,-97.5 185,-67.5 44,-67.5"/>
<text text-anchor="start" x="52" y="-85.5" font-family="Helvetica,sans-Serif" font-size="10.00">System::ComponentModel</text>
<text text-anchor="middle" x="114.5" y="-74.5" font-family="Helvetica,sans-Serif" font-size="10.00">::AsyncCompletedEventArgs</text>
</a>
</g>
</g>
<!-- Node2&#45;&gt;Node1 -->
<g id="edge1" class="edge"><title>Node2&#45;&gt;Node1</title>
<path fill="none" stroke="midnightblue" d="M114.5,-57.1081C114.5,-48.1539 114.5,-38.3227 114.5,-30.5765"/>
<polygon fill="midnightblue" stroke="midnightblue" points="111,-57.3959 114.5,-67.396 118,-57.396 111,-57.3959"/>
</g>
</g>
</svg>
