<?xml version="1.0" encoding="UTF-8" standalone="no"?>
<!DOCTYPE svg PUBLIC "-//W3C//DTD SVG 1.1//EN"
 "http://www.w3.org/Graphics/SVG/1.1/DTD/svg11.dtd">
<!-- Generated by graphviz version 2.38.0 (20140413.2041)
 -->
<!-- Title: NUnit.Framework.Constraints.ComparisonConstraintTestBase Pages: 1 -->
<svg width="679pt" height="186pt"
 viewBox="0.00 0.00 679.00 186.00" xmlns="http://www.w3.org/2000/svg" xmlns:xlink="http://www.w3.org/1999/xlink">
<g id="graph0" class="graph" transform="scale(1 1) rotate(0) translate(4 182)">
<title>NUnit.Framework.Constraints.ComparisonConstraintTestBase</title>
<polygon fill="white" stroke="none" points="-4,4 -4,-182 675,-182 675,4 -4,4"/>
<!-- Node1 -->
<g id="node1" class="node"><title>Node1</title>
<g id="a_node1"><a xlink:title=" ">
<polygon fill="#bfbfbf" stroke="black" points="308,-73.5 308,-103.5 462,-103.5 462,-73.5 308,-73.5"/>
<text text-anchor="start" x="316" y="-91.5" font-family="Helvetica,sans-Serif" font-size="10.00">NUnit.Framework.Constraints.</text>
<text text-anchor="middle" x="385" y="-80.5" font-family="Helvetica,sans-Serif" font-size="10.00">ComparisonConstraintTestBase</text>
</a>
</g>
</g>
<!-- Node4 -->
<g id="node4" class="node"><title>Node4</title>
<g id="a_node4"><a xlink:href="../../d5/d19/classNUnit_1_1Framework_1_1Constraints_1_1GreaterThanConstraintTests.html" target="_top" xlink:title=" ">
<polygon fill="white" stroke="black" points="511,-147.5 511,-177.5 658,-177.5 658,-147.5 511,-147.5"/>
<text text-anchor="start" x="519" y="-165.5" font-family="Helvetica,sans-Serif" font-size="10.00">NUnit.Framework.Constraints.</text>
<text text-anchor="middle" x="584.5" y="-154.5" font-family="Helvetica,sans-Serif" font-size="10.00">GreaterThanConstraintTests</text>
</a>
</g>
</g>
<!-- Node1&#45;&gt;Node4 -->
<g id="edge3" class="edge"><title>Node1&#45;&gt;Node4</title>
<path fill="none" stroke="midnightblue" d="M425.71,-107.933C446.867,-117.849 473.513,-129.651 498,-138.5 506.7,-141.644 516.018,-144.632 525.187,-147.366"/>
<polygon fill="midnightblue" stroke="midnightblue" points="426.939,-104.642 416.403,-103.527 423.944,-110.969 426.939,-104.642"/>
</g>
<!-- Node5 -->
<g id="node5" class="node"><title>Node5</title>
<g id="a_node5"><a xlink:href="../../d6/d14/classNUnit_1_1Framework_1_1Constraints_1_1GreaterThanOrEqualConstraintTests.html" target="_top" xlink:title=" ">
<polygon fill="white" stroke="black" points="498,-98.5 498,-128.5 671,-128.5 671,-98.5 498,-98.5"/>
<text text-anchor="start" x="506" y="-116.5" font-family="Helvetica,sans-Serif" font-size="10.00">NUnit.Framework.Constraints.</text>
<text text-anchor="middle" x="584.5" y="-105.5" font-family="Helvetica,sans-Serif" font-size="10.00">GreaterThanOrEqualConstraintTests</text>
</a>
</g>
</g>
<!-- Node1&#45;&gt;Node5 -->
<g id="edge4" class="edge"><title>Node1&#45;&gt;Node5</title>
<path fill="none" stroke="midnightblue" d="M472.07,-99.3949C480.647,-100.481 489.354,-101.583 497.926,-102.668"/>
<polygon fill="midnightblue" stroke="midnightblue" points="472.437,-95.9135 462.076,-98.1299 471.557,-102.858 472.437,-95.9135"/>
</g>
<!-- Node6 -->
<g id="node6" class="node"><title>Node6</title>
<g id="a_node6"><a xlink:href="../../df/d18/classNUnit_1_1Framework_1_1Constraints_1_1LessThanConstraintTests.html" target="_top" xlink:title=" ">
<polygon fill="white" stroke="black" points="511,-49.5 511,-79.5 658,-79.5 658,-49.5 511,-49.5"/>
<text text-anchor="start" x="519" y="-67.5" font-family="Helvetica,sans-Serif" font-size="10.00">NUnit.Framework.Constraints.</text>
<text text-anchor="middle" x="584.5" y="-56.5" font-family="Helvetica,sans-Serif" font-size="10.00">LessThanConstraintTests</text>
</a>
</g>
</g>
<!-- Node1&#45;&gt;Node6 -->
<g id="edge5" class="edge"><title>Node1&#45;&gt;Node6</title>
<path fill="none" stroke="midnightblue" d="M472.279,-78.0154C485.099,-76.4576 498.204,-74.8651 510.71,-73.3453"/>
<polygon fill="midnightblue" stroke="midnightblue" points="471.581,-74.5745 462.076,-79.2553 472.425,-81.5233 471.581,-74.5745"/>
</g>
<!-- Node7 -->
<g id="node7" class="node"><title>Node7</title>
<g id="a_node7"><a xlink:href="../../d6/d4e/classNUnit_1_1Framework_1_1Constraints_1_1LessThanOrEqualConstraintTests.html" target="_top" xlink:title=" ">
<polygon fill="white" stroke="black" points="503.5,-0.5 503.5,-30.5 665.5,-30.5 665.5,-0.5 503.5,-0.5"/>
<text text-anchor="start" x="511.5" y="-18.5" font-family="Helvetica,sans-Serif" font-size="10.00">NUnit.Framework.Constraints.</text>
<text text-anchor="middle" x="584.5" y="-7.5" font-family="Helvetica,sans-Serif" font-size="10.00">LessThanOrEqualConstraintTests</text>
</a>
</g>
</g>
<!-- Node1&#45;&gt;Node7 -->
<g id="edge6" class="edge"><title>Node1&#45;&gt;Node7</title>
<path fill="none" stroke="midnightblue" d="M426.653,-69.0882C447.672,-59.4699 473.907,-48.1048 498,-39.5 506.857,-36.3368 516.347,-33.3184 525.666,-30.5553"/>
<polygon fill="midnightblue" stroke="midnightblue" points="425,-65.9967 417.39,-73.3683 427.936,-72.3513 425,-65.9967"/>
</g>
<!-- Node2 -->
<g id="node2" class="node"><title>Node2</title>
<g id="a_node2"><a xlink:href="../../d5/d7a/classNUnit_1_1Framework_1_1Constraints_1_1ConstraintTestBase.html" target="_top" xlink:title=" ">
<polygon fill="white" stroke="black" points="170,-79 170,-98 272,-98 272,-79 170,-79"/>
<text text-anchor="middle" x="221" y="-86" font-family="Helvetica,sans-Serif" font-size="10.00">ConstraintTestBase</text>
</a>
</g>
</g>
<!-- Node2&#45;&gt;Node1 -->
<g id="edge1" class="edge"><title>Node2&#45;&gt;Node1</title>
<path fill="none" stroke="midnightblue" d="M282.595,-88.5C290.817,-88.5 299.338,-88.5 307.79,-88.5"/>
<polygon fill="midnightblue" stroke="midnightblue" points="282.37,-85.0001 272.37,-88.5 282.37,-92.0001 282.37,-85.0001"/>
</g>
<!-- Node3 -->
<g id="node3" class="node"><title>Node3</title>
<g id="a_node3"><a xlink:href="../../dc/d5c/classNUnit_1_1Framework_1_1Constraints_1_1ConstraintTestBaseNoData.html" target="_top" xlink:title=" ">
<polygon fill="white" stroke="black" points="0,-79 0,-98 134,-98 134,-79 0,-79"/>
<text text-anchor="middle" x="67" y="-86" font-family="Helvetica,sans-Serif" font-size="10.00">ConstraintTestBaseNoData</text>
</a>
</g>
</g>
<!-- Node3&#45;&gt;Node2 -->
<g id="edge2" class="edge"><title>Node3&#45;&gt;Node2</title>
<path fill="none" stroke="midnightblue" d="M144.404,-88.5C153.093,-88.5 161.775,-88.5 169.996,-88.5"/>
<polygon fill="midnightblue" stroke="midnightblue" points="144.227,-85.0001 134.227,-88.5 144.227,-92.0001 144.227,-85.0001"/>
</g>
</g>
</svg>
