<?xml version="1.0" encoding="UTF-8" standalone="no"?>
<!DOCTYPE svg PUBLIC "-//W3C//DTD SVG 1.1//EN"
 "http://www.w3.org/Graphics/SVG/1.1/DTD/svg11.dtd">
<!-- Generated by graphviz version 2.38.0 (20140413.2041)
 -->
<!-- Title: NUnit.Engine.Drivers.TestEventAdapter Pages: 1 -->
<svg width="382pt" height="106pt"
 viewBox="0.00 0.00 382.00 106.00" xmlns="http://www.w3.org/2000/svg" xmlns:xlink="http://www.w3.org/1999/xlink">
<g id="graph0" class="graph" transform="scale(1 1) rotate(0) translate(4 102)">
<title>NUnit.Engine.Drivers.TestEventAdapter</title>
<polygon fill="white" stroke="none" points="-4,4 -4,-102 378,-102 378,4 -4,4"/>
<!-- Node1 -->
<g id="node1" class="node"><title>Node1</title>
<g id="a_node1"><a xlink:title="The TestEventAdapter class receives NUnit v2 events and passes the equivalent v3 event to the engine.">
<polygon fill="#bfbfbf" stroke="black" points="98,-0.5 98,-30.5 226,-30.5 226,-0.5 98,-0.5"/>
<text text-anchor="start" x="106" y="-18.5" font-family="Helvetica,sans-Serif" font-size="10.00">NUnit.Engine.Drivers.Test</text>
<text text-anchor="middle" x="162" y="-7.5" font-family="Helvetica,sans-Serif" font-size="10.00">EventAdapter</text>
</a>
</g>
</g>
<!-- Node2 -->
<g id="node2" class="node"><title>Node2</title>
<g id="a_node2"><a xlink:title=" ">
<polygon fill="white" stroke="#bfbfbf" points="0,-78.5 0,-97.5 106,-97.5 106,-78.5 0,-78.5"/>
<text text-anchor="middle" x="53" y="-85.5" font-family="Helvetica,sans-Serif" font-size="10.00">MarshalByRefObject</text>
</a>
</g>
</g>
<!-- Node2&#45;&gt;Node1 -->
<g id="edge1" class="edge"><title>Node2&#45;&gt;Node1</title>
<path fill="none" stroke="midnightblue" d="M74.9517,-72.8019C93.9547,-60.5109 121.289,-42.8312 140.237,-30.5762"/>
<polygon fill="midnightblue" stroke="midnightblue" points="72.8615,-69.9855 66.3655,-78.3553 76.6631,-75.8632 72.8615,-69.9855"/>
</g>
<!-- Node3 -->
<g id="node3" class="node"><title>Node3</title>
<g id="a_node3"><a xlink:title=" ">
<polygon fill="white" stroke="#bfbfbf" points="124.5,-78.5 124.5,-97.5 199.5,-97.5 199.5,-78.5 124.5,-78.5"/>
<text text-anchor="middle" x="162" y="-85.5" font-family="Helvetica,sans-Serif" font-size="10.00">EventListener</text>
</a>
</g>
</g>
<!-- Node3&#45;&gt;Node1 -->
<g id="edge2" class="edge"><title>Node3&#45;&gt;Node1</title>
<path fill="none" stroke="midnightblue" d="M162,-68.2362C162,-56.4079 162,-41.3829 162,-30.5762"/>
<polygon fill="midnightblue" stroke="midnightblue" points="158.5,-68.3553 162,-78.3553 165.5,-68.3554 158.5,-68.3553"/>
</g>
<!-- Node4 -->
<g id="node4" class="node"><title>Node4</title>
<g id="a_node4"><a xlink:href="../../d1/d83/interfaceNUnit_1_1Engine_1_1ITestEventListener.html" target="_top" xlink:title="The ITestListener interface is used to receive notices of significant events while a test is running....">
<polygon fill="white" stroke="black" points="218,-78.5 218,-97.5 374,-97.5 374,-78.5 218,-78.5"/>
<text text-anchor="middle" x="296" y="-85.5" font-family="Helvetica,sans-Serif" font-size="10.00">NUnit.Engine.ITestEventListener</text>
</a>
</g>
</g>
<!-- Node4&#45;&gt;Node1 -->
<g id="edge3" class="edge"><title>Node4&#45;&gt;Node1</title>
<path fill="none" stroke="#9a32cd" stroke-dasharray="5,2" d="M270.851,-73.7687C247.399,-61.4301 212.537,-43.0882 188.621,-30.5059"/>
<polygon fill="#9a32cd" stroke="#9a32cd" points="269.357,-76.9374 279.836,-78.4961 272.616,-70.7424 269.357,-76.9374"/>
<text text-anchor="middle" x="262" y="-52" font-family="Helvetica,sans-Serif" font-size="10.00"> _listener</text>
</g>
</g>
</svg>
