<?xml version="1.0" encoding="UTF-8" standalone="no"?>
<!DOCTYPE svg PUBLIC "-//W3C//DTD SVG 1.1//EN"
 "http://www.w3.org/Graphics/SVG/1.1/DTD/svg11.dtd">
<!-- Generated by graphviz version 2.38.0 (20140413.2041)
 -->
<!-- Title: NUnit.Engine.Services.RecentFilesService Pages: 1 -->
<svg width="318pt" height="163pt"
 viewBox="0.00 0.00 317.50 163.00" xmlns="http://www.w3.org/2000/svg" xmlns:xlink="http://www.w3.org/1999/xlink">
<g id="graph0" class="graph" transform="scale(1 1) rotate(0) translate(4 159)">
<title>NUnit.Engine.Services.RecentFilesService</title>
<polygon fill="white" stroke="none" points="-4,4 -4,-159 313.5,-159 313.5,4 -4,4"/>
<!-- Node1 -->
<g id="node1" class="node"><title>Node1</title>
<g id="a_node1"><a xlink:title="Summary description for RecentFilesService.">
<polygon fill="#bfbfbf" stroke="black" points="67.5,-0.5 67.5,-30.5 214.5,-30.5 214.5,-0.5 67.5,-0.5"/>
<text text-anchor="start" x="75.5" y="-18.5" font-family="Helvetica,sans-Serif" font-size="10.00">NUnit.Engine.Services.Recent</text>
<text text-anchor="middle" x="141" y="-7.5" font-family="Helvetica,sans-Serif" font-size="10.00">FilesService</text>
</a>
</g>
</g>
<!-- Node2 -->
<g id="node2" class="node"><title>Node2</title>
<g id="a_node2"><a xlink:href="../../df/d6e/classNUnit_1_1Engine_1_1Services_1_1Service.html" target="_top" xlink:title="Abstract base class for services that can use it. Some Services already inherit from a different clas...">
<polygon fill="white" stroke="black" points="39,-78.5 39,-97.5 87,-97.5 87,-78.5 39,-78.5"/>
<text text-anchor="middle" x="63" y="-85.5" font-family="Helvetica,sans-Serif" font-size="10.00">Service</text>
</a>
</g>
</g>
<!-- Node2&#45;&gt;Node1 -->
<g id="edge1" class="edge"><title>Node2&#45;&gt;Node1</title>
<path fill="none" stroke="midnightblue" d="M80.2151,-71.4402C93.7217,-59.2323 112.361,-42.3856 125.426,-30.5762"/>
<polygon fill="midnightblue" stroke="midnightblue" points="77.6362,-69.0533 72.5643,-78.3553 82.33,-74.2465 77.6362,-69.0533"/>
</g>
<!-- Node3 -->
<g id="node3" class="node"><title>Node3</title>
<g id="a_node3"><a xlink:href="../../df/da1/interfaceNUnit_1_1Engine_1_1IService.html" target="_top" xlink:title="The IService interface is implemented by all Services. Although it is extensible, it does not reside ...">
<polygon fill="white" stroke="black" points="0,-135.5 0,-154.5 50,-154.5 50,-135.5 0,-135.5"/>
<text text-anchor="middle" x="25" y="-142.5" font-family="Helvetica,sans-Serif" font-size="10.00">IService</text>
</a>
</g>
</g>
<!-- Node3&#45;&gt;Node2 -->
<g id="edge2" class="edge"><title>Node3&#45;&gt;Node2</title>
<path fill="none" stroke="midnightblue" d="M36.79,-126.936C43.4809,-117.251 51.5726,-105.54 56.9788,-97.7149"/>
<polygon fill="midnightblue" stroke="midnightblue" points="33.7423,-125.189 30.9375,-135.406 39.5014,-129.168 33.7423,-125.189"/>
</g>
<!-- Node4 -->
<g id="node4" class="node"><title>Node4</title>
<g id="a_node4"><a xlink:title=" ">
<polygon fill="white" stroke="#bfbfbf" points="68.5,-135.5 68.5,-154.5 135.5,-154.5 135.5,-135.5 68.5,-135.5"/>
<text text-anchor="middle" x="102" y="-142.5" font-family="Helvetica,sans-Serif" font-size="10.00">IDisposable</text>
</a>
</g>
</g>
<!-- Node4&#45;&gt;Node2 -->
<g id="edge3" class="edge"><title>Node4&#45;&gt;Node2</title>
<path fill="none" stroke="midnightblue" d="M90.1117,-127.234C83.2043,-117.493 74.7854,-105.62 69.1797,-97.7149"/>
<polygon fill="midnightblue" stroke="midnightblue" points="87.2668,-129.273 95.9063,-135.406 92.977,-125.224 87.2668,-129.273"/>
</g>
<!-- Node5 -->
<g id="node5" class="node"><title>Node5</title>
<g id="a_node5"><a xlink:href="../../d9/d43/interfaceNUnit_1_1Engine_1_1IRecentFiles.html" target="_top" xlink:title="The IRecentFiles interface is used to isolate the app from various implementations of recent files.">
<polygon fill="white" stroke="black" points="105.5,-78.5 105.5,-97.5 176.5,-97.5 176.5,-78.5 105.5,-78.5"/>
<text text-anchor="middle" x="141" y="-85.5" font-family="Helvetica,sans-Serif" font-size="10.00">IRecentFiles</text>
</a>
</g>
</g>
<!-- Node5&#45;&gt;Node1 -->
<g id="edge4" class="edge"><title>Node5&#45;&gt;Node1</title>
<path fill="none" stroke="midnightblue" d="M141,-68.2362C141,-56.4079 141,-41.3829 141,-30.5762"/>
<polygon fill="midnightblue" stroke="midnightblue" points="137.5,-68.3553 141,-78.3553 144.5,-68.3554 137.5,-68.3553"/>
</g>
<!-- Node6 -->
<g id="node6" class="node"><title>Node6</title>
<g id="a_node6"><a xlink:href="../../d5/d1d/interfaceNUnit_1_1Engine_1_1ISettings.html" target="_top" xlink:title="The ISettings interface is used to access all user settings and options.">
<polygon fill="white" stroke="black" points="194.5,-78.5 194.5,-97.5 309.5,-97.5 309.5,-78.5 194.5,-78.5"/>
<text text-anchor="middle" x="252" y="-85.5" font-family="Helvetica,sans-Serif" font-size="10.00">NUnit.Engine.ISettings</text>
</a>
</g>
</g>
<!-- Node6&#45;&gt;Node1 -->
<g id="edge5" class="edge"><title>Node6&#45;&gt;Node1</title>
<path fill="none" stroke="#9a32cd" stroke-dasharray="5,2" d="M229.909,-72.9691C210.547,-60.6718 182.545,-42.8869 163.162,-30.5762"/>
<polygon fill="#9a32cd" stroke="#9a32cd" points="228.071,-75.9484 238.389,-78.3553 231.824,-70.0394 228.071,-75.9484"/>
<text text-anchor="middle" x="239" y="-52" font-family="Helvetica,sans-Serif" font-size="10.00"> _userSettings</text>
</g>
</g>
</svg>
