<?xml version="1.0" encoding="UTF-8" standalone="no"?>
<!DOCTYPE svg PUBLIC "-//W3C//DTD SVG 1.1//EN"
 "http://www.w3.org/Graphics/SVG/1.1/DTD/svg11.dtd">
<!-- Generated by graphviz version 2.38.0 (20140413.2041)
 -->
<!-- Title: IG.Forms.TestTcpClient Pages: 1 -->
<svg width="528pt" height="585pt"
 viewBox="0.00 0.00 527.50 585.00" xmlns="http://www.w3.org/2000/svg" xmlns:xlink="http://www.w3.org/1999/xlink">
<g id="graph0" class="graph" transform="scale(1 1) rotate(0) translate(4 581)">
<title>IG.Forms.TestTcpClient</title>
<polygon fill="white" stroke="none" points="-4,4 -4,-581 523.5,-581 523.5,4 -4,4"/>
<!-- Node1 -->
<g id="node1" class="node"><title>Node1</title>
<g id="a_node1"><a xlink:title=" ">
<polygon fill="#bfbfbf" stroke="black" points="356,-0.5 356,-19.5 475,-19.5 475,-0.5 356,-0.5"/>
<text text-anchor="middle" x="415.5" y="-7.5" font-family="Helvetica,sans-Serif" font-size="10.00">IG.Forms.TestTcpClient</text>
</a>
</g>
</g>
<!-- Node2 -->
<g id="node2" class="node"><title>Node2</title>
<g id="a_node2"><a xlink:href="../../d8/d91/classIG_1_1Forms_1_1ConsoleForm.html" target="_top" xlink:title="Console replacement.">
<polygon fill="white" stroke="black" points="275.5,-78.5 275.5,-97.5 393.5,-97.5 393.5,-78.5 275.5,-78.5"/>
<text text-anchor="middle" x="334.5" y="-85.5" font-family="Helvetica,sans-Serif" font-size="10.00">IG.Forms.ConsoleForm</text>
</a>
</g>
</g>
<!-- Node2&#45;&gt;Node1 -->
<g id="edge1" class="edge"><title>Node2&#45;&gt;Node1</title>
<path fill="none" stroke="#9a32cd" stroke-dasharray="5,2" d="M351.229,-71.3041C367.921,-55.6422 392.952,-32.1562 406.317,-19.6165"/>
<polygon fill="#9a32cd" stroke="#9a32cd" points="348.689,-68.887 343.792,-78.2818 353.479,-73.9918 348.689,-68.887"/>
<text text-anchor="middle" x="408" y="-52" font-family="Helvetica,sans-Serif" font-size="10.00"> auxcons</text>
<text text-anchor="middle" x="408" y="-41" font-family="Helvetica,sans-Serif" font-size="10.00">clientcons</text>
</g>
<!-- Node3 -->
<g id="node3" class="node"><title>Node3</title>
<g id="a_node3"><a xlink:title=" ">
<polygon fill="white" stroke="#bfbfbf" points="244.5,-255.5 244.5,-285.5 374.5,-285.5 374.5,-255.5 244.5,-255.5"/>
<text text-anchor="start" x="252.5" y="-273.5" font-family="Helvetica,sans-Serif" font-size="10.00">System::Windows::Forms</text>
<text text-anchor="middle" x="309.5" y="-262.5" font-family="Helvetica,sans-Serif" font-size="10.00">::Form</text>
</a>
</g>
</g>
<!-- Node3&#45;&gt;Node2 -->
<g id="edge2" class="edge"><title>Node3&#45;&gt;Node2</title>
<path fill="none" stroke="midnightblue" d="M312.867,-245.192C318.513,-204.426 329.633,-124.141 333.297,-97.6831"/>
<polygon fill="midnightblue" stroke="midnightblue" points="309.367,-244.951 311.462,-255.336 316.301,-245.911 309.367,-244.951"/>
</g>
<!-- Node4 -->
<g id="node4" class="node"><title>Node4</title>
<g id="a_node4"><a xlink:href="../../d4/de2/classIG_1_1Lib_1_1ReporterBase.html" target="_top" xlink:title="Base IGlib class for reporting, tracing and logging; provides a global reporter and a basis for creat...">
<polygon fill="white" stroke="black" points="122.5,-261 122.5,-280 226.5,-280 226.5,-261 122.5,-261"/>
<text text-anchor="middle" x="174.5" y="-268" font-family="Helvetica,sans-Serif" font-size="10.00">IG.Lib.ReporterBase</text>
</a>
</g>
</g>
<!-- Node4&#45;&gt;Node2 -->
<g id="edge3" class="edge"><title>Node4&#45;&gt;Node2</title>
<path fill="none" stroke="#9a32cd" stroke-dasharray="5,2" d="M180.671,-251.101C192.23,-219.279 220.066,-153.755 264.5,-116 274.327,-107.65 287.022,-101.721 298.897,-97.588"/>
<polygon fill="#9a32cd" stroke="#9a32cd" points="177.259,-250.256 177.261,-260.851 183.866,-252.567 177.259,-250.256"/>
<text text-anchor="middle" x="287.5" y="-174" font-family="Helvetica,sans-Serif" font-size="10.00"> _Reporter</text>
</g>
<!-- Node5 -->
<g id="node5" class="node"><title>Node5</title>
<g id="a_node5"><a xlink:href="../../db/db1/interfaceIG_1_1Lib_1_1IReporter.html" target="_top" xlink:title="Interface from which majority of reporters inherit. Includes generic reporting functionality plus tra...">
<polygon fill="white" stroke="black" points="146.5,-443.5 146.5,-462.5 202.5,-462.5 202.5,-443.5 146.5,-443.5"/>
<text text-anchor="middle" x="174.5" y="-450.5" font-family="Helvetica,sans-Serif" font-size="10.00">IReporter</text>
</a>
</g>
</g>
<!-- Node5&#45;&gt;Node4 -->
<g id="edge4" class="edge"><title>Node5&#45;&gt;Node4</title>
<path fill="none" stroke="midnightblue" d="M174.5,-432.928C174.5,-394.202 174.5,-307.692 174.5,-280.119"/>
<polygon fill="midnightblue" stroke="midnightblue" points="171,-433.294 174.5,-443.294 178,-433.294 171,-433.294"/>
</g>
<!-- Node6 -->
<g id="node6" class="node"><title>Node6</title>
<g id="a_node6"><a xlink:title=" ">
<polygon fill="white" stroke="#bfbfbf" points="0,-500.5 0,-519.5 67,-519.5 67,-500.5 0,-500.5"/>
<text text-anchor="middle" x="33.5" y="-507.5" font-family="Helvetica,sans-Serif" font-size="10.00">IDisposable</text>
</a>
</g>
</g>
<!-- Node6&#45;&gt;Node5 -->
<g id="edge5" class="edge"><title>Node6&#45;&gt;Node5</title>
<path fill="none" stroke="midnightblue" d="M55.2229,-494.807C63.2547,-489.973 72.5787,-484.828 81.5,-481 102.512,-471.984 127.446,-464.928 146.205,-460.293"/>
<polygon fill="midnightblue" stroke="midnightblue" points="53.1296,-491.988 46.4894,-500.243 56.8287,-497.931 53.1296,-491.988"/>
</g>
<!-- Node7 -->
<g id="node7" class="node"><title>Node7</title>
<g id="a_node7"><a xlink:href="../../de/d0d/interfaceIG_1_1Lib_1_1IReporterBase.html" target="_top" xlink:title="Interface from which all reporters inherit.">
<polygon fill="white" stroke="black" points="195.5,-557.5 195.5,-576.5 273.5,-576.5 273.5,-557.5 195.5,-557.5"/>
<text text-anchor="middle" x="234.5" y="-564.5" font-family="Helvetica,sans-Serif" font-size="10.00">IReporterBase</text>
</a>
</g>
</g>
<!-- Node7&#45;&gt;Node5 -->
<g id="edge6" class="edge"><title>Node7&#45;&gt;Node5</title>
<path fill="none" stroke="midnightblue" d="M185.295,-560.354C159.655,-554.634 130.403,-543.128 114.5,-520 98.97,-497.415 133.598,-474.51 156.448,-462.524"/>
<polygon fill="midnightblue" stroke="midnightblue" points="184.784,-563.821 195.275,-562.341 186.15,-556.956 184.784,-563.821"/>
</g>
<!-- Node8 -->
<g id="node8" class="node"><title>Node8</title>
<g id="a_node8"><a xlink:href="../../d2/d8e/interfaceIG_1_1Lib_1_1IReporterTextWriter.html" target="_top" xlink:title="Reporters that utilize writing messages to files. Messages are typically formatted as multi&#45;line mess...">
<polygon fill="white" stroke="black" points="124,-500.5 124,-519.5 225,-519.5 225,-500.5 124,-500.5"/>
<text text-anchor="middle" x="174.5" y="-507.5" font-family="Helvetica,sans-Serif" font-size="10.00">IReporterTextWriter</text>
</a>
</g>
</g>
<!-- Node7&#45;&gt;Node8 -->
<g id="edge8" class="edge"><title>Node7&#45;&gt;Node8</title>
<path fill="none" stroke="midnightblue" d="M217.499,-550.416C206.648,-540.469 192.983,-527.943 184.007,-519.715"/>
<polygon fill="midnightblue" stroke="midnightblue" points="215.388,-553.229 225.125,-557.406 220.118,-548.069 215.388,-553.229"/>
</g>
<!-- Node9 -->
<g id="node9" class="node"><title>Node9</title>
<g id="a_node9"><a xlink:href="../../d1/ddb/interfaceIG_1_1Lib_1_1IReporterTextLogger.html" target="_top" xlink:title="Reporters that utilize logging messages to files. IReporterTextLogger typically outputs (to a file) m...">
<polygon fill="white" stroke="black" points="243.5,-500.5 243.5,-519.5 347.5,-519.5 347.5,-500.5 243.5,-500.5"/>
<text text-anchor="middle" x="295.5" y="-507.5" font-family="Helvetica,sans-Serif" font-size="10.00">IReporterTextLogger</text>
</a>
</g>
</g>
<!-- Node7&#45;&gt;Node9 -->
<g id="edge10" class="edge"><title>Node7&#45;&gt;Node9</title>
<path fill="none" stroke="midnightblue" d="M251.46,-550.708C262.543,-540.715 276.619,-528.024 285.834,-519.715"/>
<polygon fill="midnightblue" stroke="midnightblue" points="249.114,-548.11 244.031,-557.406 253.802,-553.309 249.114,-548.11"/>
</g>
<!-- Node10 -->
<g id="node10" class="node"><title>Node10</title>
<g id="a_node10"><a xlink:href="../../d0/d0e/interfaceIG_1_1Lib_1_1IReporterTrace.html" target="_top" xlink:title="Reporters that utilize system&#39;s trace utility.">
<polygon fill="white" stroke="black" points="365.5,-500.5 365.5,-519.5 445.5,-519.5 445.5,-500.5 365.5,-500.5"/>
<text text-anchor="middle" x="405.5" y="-507.5" font-family="Helvetica,sans-Serif" font-size="10.00">IReporterTrace</text>
</a>
</g>
</g>
<!-- Node7&#45;&gt;Node10 -->
<g id="edge12" class="edge"><title>Node7&#45;&gt;Node10</title>
<path fill="none" stroke="midnightblue" d="M270.784,-554.33C303.201,-543.903 349.931,-528.873 378.969,-519.533"/>
<polygon fill="midnightblue" stroke="midnightblue" points="269.667,-551.012 261.219,-557.406 271.81,-557.676 269.667,-551.012"/>
</g>
<!-- Node8&#45;&gt;Node5 -->
<g id="edge7" class="edge"><title>Node8&#45;&gt;Node5</title>
<path fill="none" stroke="midnightblue" d="M174.5,-490.117C174.5,-480.817 174.5,-470.056 174.5,-462.715"/>
<polygon fill="midnightblue" stroke="midnightblue" points="171,-490.406 174.5,-500.406 178,-490.406 171,-490.406"/>
</g>
<!-- Node9&#45;&gt;Node5 -->
<g id="edge9" class="edge"><title>Node9&#45;&gt;Node5</title>
<path fill="none" stroke="midnightblue" d="M267.417,-496.235C244.621,-485.873 213.112,-471.551 193.273,-462.533"/>
<polygon fill="midnightblue" stroke="midnightblue" points="266.042,-499.454 276.594,-500.406 268.938,-493.082 266.042,-499.454"/>
</g>
<!-- Node10&#45;&gt;Node5 -->
<g id="edge11" class="edge"><title>Node10&#45;&gt;Node5</title>
<path fill="none" stroke="midnightblue" d="M359.787,-498.116C313.047,-486.987 241.915,-470.051 202.777,-460.733"/>
<polygon fill="midnightblue" stroke="midnightblue" points="359.121,-501.555 369.66,-500.467 360.742,-494.745 359.121,-501.555"/>
</g>
<!-- Node11 -->
<g id="node11" class="node"><title>Node11</title>
<g id="a_node11"><a xlink:title=" ">
<polygon fill="white" stroke="#bfbfbf" points="286,-443.5 286,-462.5 327,-462.5 327,-443.5 286,-443.5"/>
<text text-anchor="middle" x="306.5" y="-450.5" font-family="Helvetica,sans-Serif" font-size="10.00">static</text>
</a>
</g>
</g>
<!-- Node11&#45;&gt;Node1 -->
<g id="edge15" class="edge"><title>Node11&#45;&gt;Node1</title>
<path fill="none" stroke="#9a32cd" stroke-dasharray="5,2" d="M337.376,-448.193C354.486,-444.676 375.137,-437.928 389.5,-425 439.777,-379.745 437.413,-352.162 451.5,-286 456.146,-264.179 465.04,-281.534 448.5,-116 444.998,-80.9539 448.066,-70.5031 434.5,-38 431.762,-31.441 427.219,-24.9013 423.262,-19.9011"/>
<polygon fill="#9a32cd" stroke="#9a32cd" points="336.501,-444.794 327.269,-449.992 337.728,-451.686 336.501,-444.794"/>
<text text-anchor="middle" x="489" y="-179.5" font-family="Helvetica,sans-Serif" font-size="10.00"> totcount</text>
<text text-anchor="middle" x="489" y="-168.5" font-family="Helvetica,sans-Serif" font-size="10.00">numinstances</text>
</g>
<!-- Node11&#45;&gt;Node4 -->
<g id="edge13" class="edge"><title>Node11&#45;&gt;Node4</title>
<path fill="none" stroke="#9a32cd" stroke-dasharray="5,2" d="M293.986,-434.888C266.427,-397.203 201.315,-308.167 180.803,-280.119"/>
<polygon fill="#9a32cd" stroke="#9a32cd" points="291.405,-437.288 300.133,-443.294 297.056,-433.156 291.405,-437.288"/>
<text text-anchor="middle" x="335" y="-417" font-family="Helvetica,sans-Serif" font-size="10.00"> _newLineReplacement</text>
<text text-anchor="middle" x="335" y="-406" font-family="Helvetica,sans-Serif" font-size="10.00">_GlobalInitialized</text>
<text text-anchor="middle" x="335" y="-395" font-family="Helvetica,sans-Serif" font-size="10.00">maxErrIndentLevel</text>
<text text-anchor="middle" x="335" y="-384" font-family="Helvetica,sans-Serif" font-size="10.00">maxErrInitialIndent</text>
<text text-anchor="middle" x="335" y="-373" font-family="Helvetica,sans-Serif" font-size="10.00">numErrIndentLevel</text>
<text text-anchor="middle" x="335" y="-362" font-family="Helvetica,sans-Serif" font-size="10.00">_Global</text>
<text text-anchor="middle" x="335" y="-351" font-family="Helvetica,sans-Serif" font-size="10.00">maxErrIndentSpacing</text>
<text text-anchor="middle" x="335" y="-340" font-family="Helvetica,sans-Serif" font-size="10.00">numErrInitialIndent</text>
<text text-anchor="middle" x="335" y="-329" font-family="Helvetica,sans-Serif" font-size="10.00">numErrIndentSpacing</text>
<text text-anchor="middle" x="335" y="-318" font-family="Helvetica,sans-Serif" font-size="10.00">GlobalLock</text>
<text text-anchor="middle" x="335" y="-307" font-family="Helvetica,sans-Serif" font-size="10.00">...</text>
</g>
<!-- Node12 -->
<g id="node12" class="node"><title>Node12</title>
<g id="a_node12"><a xlink:title=" ">
<polygon fill="white" stroke="#bfbfbf" points="392.5,-261 392.5,-280 442.5,-280 442.5,-261 392.5,-261"/>
<text text-anchor="middle" x="417.5" y="-268" font-family="Helvetica,sans-Serif" font-size="10.00">System</text>
</a>
</g>
</g>
<!-- Node12&#45;&gt;Node2 -->
<g id="edge14" class="edge"><title>Node12&#45;&gt;Node2</title>
<path fill="none" stroke="#9a32cd" stroke-dasharray="5,2" d="M395.228,-254.706C389.082,-249.707 382.9,-243.679 378.5,-237 347.827,-190.439 337.951,-121.836 335.325,-97.7475"/>
<polygon fill="#9a32cd" stroke="#9a32cd" points="393.319,-257.649 403.419,-260.85 397.519,-252.049 393.319,-257.649"/>
<text text-anchor="middle" x="413.5" y="-229" font-family="Helvetica,sans-Serif" font-size="10.00"> ErrorOutColor</text>
<text text-anchor="middle" x="413.5" y="-218" font-family="Helvetica,sans-Serif" font-size="10.00">IFg</text>
<text text-anchor="middle" x="413.5" y="-207" font-family="Helvetica,sans-Serif" font-size="10.00">ILblActiveBg</text>
<text text-anchor="middle" x="413.5" y="-196" font-family="Helvetica,sans-Serif" font-size="10.00">NormalOutColor</text>
<text text-anchor="middle" x="413.5" y="-185" font-family="Helvetica,sans-Serif" font-size="10.00">IBg</text>
<text text-anchor="middle" x="413.5" y="-174" font-family="Helvetica,sans-Serif" font-size="10.00">HideBtn</text>
<text text-anchor="middle" x="413.5" y="-163" font-family="Helvetica,sans-Serif" font-size="10.00">MarkOutColor</text>
<text text-anchor="middle" x="413.5" y="-152" font-family="Helvetica,sans-Serif" font-size="10.00">ILblNormalBg</text>
<text text-anchor="middle" x="413.5" y="-141" font-family="Helvetica,sans-Serif" font-size="10.00">OSelFg</text>
<text text-anchor="middle" x="413.5" y="-130" font-family="Helvetica,sans-Serif" font-size="10.00">OFg</text>
<text text-anchor="middle" x="413.5" y="-119" font-family="Helvetica,sans-Serif" font-size="10.00">...</text>
</g>
</g>
</svg>
