<?xml version="1.0" encoding="UTF-8" standalone="no"?>
<!DOCTYPE svg PUBLIC "-//W3C//DTD SVG 1.1//EN"
 "http://www.w3.org/Graphics/SVG/1.1/DTD/svg11.dtd">
<!-- Generated by graphviz version 2.38.0 (20140413.2041)
 -->
<!-- Title: AForge.Math.Geometry.PointsCloud Pages: 1 -->
<svg width="214pt" height="117pt"
 viewBox="0.00 0.00 213.50 117.00" xmlns="http://www.w3.org/2000/svg" xmlns:xlink="http://www.w3.org/1999/xlink">
<g id="graph0" class="graph" transform="scale(1 1) rotate(0) translate(4 113)">
<title>AForge.Math.Geometry.PointsCloud</title>
<polygon fill="white" stroke="none" points="-4,4 -4,-113 209.5,-113 209.5,4 -4,4"/>
<!-- Node1 -->
<g id="node1" class="node"><title>Node1</title>
<g id="a_node1"><a xlink:title="Set of tools for processing collection of points in 2D space.">
<polygon fill="#bfbfbf" stroke="black" points="0,-0.5 0,-30.5 149,-30.5 149,-0.5 0,-0.5"/>
<text text-anchor="start" x="8" y="-18.5" font-family="Helvetica,sans-Serif" font-size="10.00">AForge.Math.Geometry.Points</text>
<text text-anchor="middle" x="74.5" y="-7.5" font-family="Helvetica,sans-Serif" font-size="10.00">Cloud</text>
</a>
</g>
</g>
<!-- Node2 -->
<g id="node2" class="node"><title>Node2</title>
<g id="a_node2"><a xlink:title=" ">
<polygon fill="white" stroke="#bfbfbf" points="54,-89.5 54,-108.5 95,-108.5 95,-89.5 54,-89.5"/>
<text text-anchor="middle" x="74.5" y="-96.5" font-family="Helvetica,sans-Serif" font-size="10.00">static</text>
</a>
</g>
</g>
<!-- Node2&#45;&gt;Node1 -->
<g id="edge1" class="edge"><title>Node2&#45;&gt;Node1</title>
<path fill="none" stroke="#9a32cd" stroke-dasharray="5,2" d="M74.5,-79.229C74.5,-64.4075 74.5,-44.0505 74.5,-30.5974"/>
<polygon fill="#9a32cd" stroke="#9a32cd" points="71.0001,-79.278 74.5,-89.2781 78.0001,-79.2781 71.0001,-79.278"/>
<text text-anchor="start" x="74.5" y="-63" font-family="Helvetica,sans-Serif" font-size="10.00"> quadrilateralRelativeDistortion</text>
<text text-anchor="middle" x="140" y="-52" font-family="Helvetica,sans-Serif" font-size="10.00">Limit</text>
</g>
</g>
</svg>
