<?xml version="1.0" encoding="UTF-8" standalone="no"?>
<!DOCTYPE svg PUBLIC "-//W3C//DTD SVG 1.1//EN"
 "http://www.w3.org/Graphics/SVG/1.1/DTD/svg11.dtd">
<!-- Generated by graphviz version 2.38.0 (20140413.2041)
 -->
<!-- Title: AForge.Imaging.Filters.YCbCrFiltering Pages: 1 -->
<svg width="366pt" height="151pt"
 viewBox="0.00 0.00 365.50 151.00" xmlns="http://www.w3.org/2000/svg" xmlns:xlink="http://www.w3.org/1999/xlink">
<g id="graph0" class="graph" transform="scale(1 1) rotate(0) translate(4 147)">
<title>AForge.Imaging.Filters.YCbCrFiltering</title>
<polygon fill="white" stroke="none" points="-4,4 -4,-147 361.5,-147 361.5,4 -4,4"/>
<!-- Node1 -->
<g id="node1" class="node"><title>Node1</title>
<g id="a_node1"><a xlink:title="Color filtering in YCbCr color space.">
<polygon fill="#bfbfbf" stroke="black" points="79,-0.5 79,-30.5 216,-30.5 216,-0.5 79,-0.5"/>
<text text-anchor="start" x="87" y="-18.5" font-family="Helvetica,sans-Serif" font-size="10.00">AForge.Imaging.Filters.YCb</text>
<text text-anchor="middle" x="147.5" y="-7.5" font-family="Helvetica,sans-Serif" font-size="10.00">CrFiltering</text>
</a>
</g>
</g>
<!-- Node2 -->
<g id="node2" class="node"><title>Node2</title>
<g id="a_node2"><a xlink:href="../../db/dc9/classAForge_1_1Imaging_1_1Filters_1_1BaseInPlacePartialFilter.html" target="_top" xlink:title="Base class for filters, which may be applied directly to the source image or its part.">
<polygon fill="white" stroke="black" points="87,-67.5 87,-86.5 208,-86.5 208,-67.5 87,-67.5"/>
<text text-anchor="middle" x="147.5" y="-74.5" font-family="Helvetica,sans-Serif" font-size="10.00">BaseInPlacePartialFilter</text>
</a>
</g>
</g>
<!-- Node2&#45;&gt;Node1 -->
<g id="edge1" class="edge"><title>Node2&#45;&gt;Node1</title>
<path fill="none" stroke="midnightblue" d="M147.5,-57.2349C147.5,-48.5864 147.5,-38.4969 147.5,-30.523"/>
<polygon fill="midnightblue" stroke="midnightblue" points="144,-57.4751 147.5,-67.4751 151,-57.4751 144,-57.4751"/>
</g>
<!-- Node3 -->
<g id="node3" class="node"><title>Node3</title>
<g id="a_node3"><a xlink:href="../../dd/d51/interfaceAForge_1_1Imaging_1_1Filters_1_1IFilter.html" target="_top" xlink:title="Image processing filter interface.">
<polygon fill="white" stroke="black" points="0,-123.5 0,-142.5 41,-142.5 41,-123.5 0,-123.5"/>
<text text-anchor="middle" x="20.5" y="-130.5" font-family="Helvetica,sans-Serif" font-size="10.00">IFilter</text>
</a>
</g>
</g>
<!-- Node3&#45;&gt;Node2 -->
<g id="edge2" class="edge"><title>Node3&#45;&gt;Node2</title>
<path fill="none" stroke="midnightblue" d="M49.8912,-119.503C73.7,-109.38 106.606,-95.388 127.471,-86.5164"/>
<polygon fill="midnightblue" stroke="midnightblue" points="48.4566,-116.31 40.6235,-123.444 51.1957,-122.751 48.4566,-116.31"/>
</g>
<!-- Node4 -->
<g id="node4" class="node"><title>Node4</title>
<g id="a_node4"><a xlink:href="../../de/d9b/interfaceAForge_1_1Imaging_1_1Filters_1_1IInPlaceFilter.html" target="_top" xlink:title="In&#45;place filter interface.">
<polygon fill="white" stroke="black" points="59,-123.5 59,-142.5 132,-142.5 132,-123.5 59,-123.5"/>
<text text-anchor="middle" x="95.5" y="-130.5" font-family="Helvetica,sans-Serif" font-size="10.00">IInPlaceFilter</text>
</a>
</g>
</g>
<!-- Node4&#45;&gt;Node2 -->
<g id="edge3" class="edge"><title>Node4&#45;&gt;Node2</title>
<path fill="none" stroke="midnightblue" d="M111.179,-115.718C120.345,-106.2 131.553,-94.5608 139.073,-86.7511"/>
<polygon fill="midnightblue" stroke="midnightblue" points="108.502,-113.452 104.087,-123.083 113.544,-118.308 108.502,-113.452"/>
</g>
<!-- Node5 -->
<g id="node5" class="node"><title>Node5</title>
<g id="a_node5"><a xlink:href="../../d2/d66/interfaceAForge_1_1Imaging_1_1Filters_1_1IInPlacePartialFilter.html" target="_top" xlink:title="In&#45;place partial filter interface.">
<polygon fill="white" stroke="black" points="150,-123.5 150,-142.5 251,-142.5 251,-123.5 150,-123.5"/>
<text text-anchor="middle" x="200.5" y="-130.5" font-family="Helvetica,sans-Serif" font-size="10.00">IInPlacePartialFilter</text>
</a>
</g>
</g>
<!-- Node5&#45;&gt;Node2 -->
<g id="edge4" class="edge"><title>Node5&#45;&gt;Node2</title>
<path fill="none" stroke="midnightblue" d="M184.519,-115.718C175.178,-106.2 163.754,-94.5608 156.089,-86.7511"/>
<polygon fill="midnightblue" stroke="midnightblue" points="182.246,-118.398 191.748,-123.083 187.241,-113.494 182.246,-118.398"/>
</g>
<!-- Node6 -->
<g id="node6" class="node"><title>Node6</title>
<g id="a_node6"><a xlink:href="../../d7/dec/interfaceAForge_1_1Imaging_1_1Filters_1_1IFilterInformation.html" target="_top" xlink:title="Interface which provides information about image processing filter.">
<polygon fill="white" stroke="black" points="269.5,-123.5 269.5,-142.5 357.5,-142.5 357.5,-123.5 269.5,-123.5"/>
<text text-anchor="middle" x="313.5" y="-130.5" font-family="Helvetica,sans-Serif" font-size="10.00">IFilterInformation</text>
</a>
</g>
</g>
<!-- Node6&#45;&gt;Node2 -->
<g id="edge5" class="edge"><title>Node6&#45;&gt;Node2</title>
<path fill="none" stroke="midnightblue" d="M277.547,-120.304C246.268,-110.129 201.679,-95.6246 173.68,-86.5164"/>
<polygon fill="midnightblue" stroke="midnightblue" points="276.605,-123.678 287.197,-123.444 278.77,-117.022 276.605,-123.678"/>
</g>
</g>
</svg>
