<?xml version="1.0" encoding="UTF-8" standalone="no"?>
<!DOCTYPE svg PUBLIC "-//W3C//DTD SVG 1.1//EN"
 "http://www.w3.org/Graphics/SVG/1.1/DTD/svg11.dtd">
<!-- Generated by graphviz version 2.38.0 (20140413.2041)
 -->
<!-- Title: IG.MPetekLib.Algorithms.PlottableModels.PlottableODEModelBase Pages: 1 -->
<svg width="695pt" height="230pt"
 viewBox="0.00 0.00 695.00 230.00" xmlns="http://www.w3.org/2000/svg" xmlns:xlink="http://www.w3.org/1999/xlink">
<g id="graph0" class="graph" transform="scale(1 1) rotate(0) translate(4 226)">
<title>IG.MPetekLib.Algorithms.PlottableModels.PlottableODEModelBase</title>
<polygon fill="white" stroke="none" points="-4,4 -4,-226 691,-226 691,4 -4,4"/>
<!-- Node1 -->
<g id="node1" class="node"><title>Node1</title>
<g id="a_node1"><a xlink:title="A template class for physical models, which are described by ordinary differential equations (ODEs)....">
<polygon fill="#bfbfbf" stroke="black" points="140,-66 140,-96 337,-96 337,-66 140,-66"/>
<text text-anchor="start" x="148" y="-84" font-family="Helvetica,sans-Serif" font-size="10.00">IG.MPetekLib.Algorithms.</text>
<text text-anchor="middle" x="238.5" y="-73" font-family="Helvetica,sans-Serif" font-size="10.00">PlottableModels.PlottableODEModelBase</text>
</a>
</g>
</g>
<!-- Node3 -->
<g id="node3" class="node"><title>Node3</title>
<g id="a_node3"><a xlink:href="../../df/d12/classIG_1_1MPetekLib_1_1Algorithms_1_1PlottableModels_1_1Oscillators_1_1DrivenOscillatorBase.html" target="_top" xlink:title="A template class for the driven oscillators. Holds the values for: angular driving frequency,...">
<polygon fill="white" stroke="black" points="373,-90.5 373,-131.5 512,-131.5 512,-90.5 373,-90.5"/>
<text text-anchor="start" x="381" y="-119.5" font-family="Helvetica,sans-Serif" font-size="10.00">IG.MPetekLib.Algorithms.</text>
<text text-anchor="start" x="381" y="-108.5" font-family="Helvetica,sans-Serif" font-size="10.00">PlottableModels.Oscillators.</text>
<text text-anchor="middle" x="442.5" y="-97.5" font-family="Helvetica,sans-Serif" font-size="10.00">DrivenOscillatorBase</text>
</a>
</g>
</g>
<!-- Node1&#45;&gt;Node3 -->
<g id="edge2" class="edge"><title>Node1&#45;&gt;Node3</title>
<path fill="none" stroke="midnightblue" d="M347.159,-96.9889C355.926,-98.291 364.626,-99.5831 372.993,-100.826"/>
<polygon fill="midnightblue" stroke="midnightblue" points="347.651,-93.5238 337.246,-95.5167 346.623,-100.448 347.651,-93.5238"/>
</g>
<!-- Node8 -->
<g id="node8" class="node"><title>Node8</title>
<g id="a_node8"><a xlink:href="../../d0/dd9/classIG_1_1MPetekLib_1_1Algorithms_1_1PlottableModels_1_1Oscillators_1_1SimpleHarmonicOscillator.html" target="_top" xlink:title=" ">
<polygon fill="white" stroke="black" points="373,-30.5 373,-71.5 512,-71.5 512,-30.5 373,-30.5"/>
<text text-anchor="start" x="381" y="-59.5" font-family="Helvetica,sans-Serif" font-size="10.00">IG.MPetekLib.Algorithms.</text>
<text text-anchor="start" x="381" y="-48.5" font-family="Helvetica,sans-Serif" font-size="10.00">PlottableModels.Oscillators.</text>
<text text-anchor="middle" x="442.5" y="-37.5" font-family="Helvetica,sans-Serif" font-size="10.00">SimpleHarmonicOscillator</text>
</a>
</g>
</g>
<!-- Node1&#45;&gt;Node8 -->
<g id="edge7" class="edge"><title>Node1&#45;&gt;Node8</title>
<path fill="none" stroke="midnightblue" d="M347.159,-65.0111C355.926,-63.709 364.626,-62.4169 372.993,-61.1743"/>
<polygon fill="midnightblue" stroke="midnightblue" points="346.623,-61.5522 337.246,-66.4833 347.651,-68.4762 346.623,-61.5522"/>
</g>
<!-- Node2 -->
<g id="node2" class="node"><title>Node2</title>
<g id="a_node2"><a xlink:href="../../d2/d4f/classIG_1_1MPetekLib_1_1Algorithms_1_1PlottableModels_1_1PlottableModelBase.html" target="_top" xlink:title="A template class for physical models. Each child should define its own plottable curves).">
<polygon fill="white" stroke="black" points="0,-71.5 0,-90.5 104,-90.5 104,-71.5 0,-71.5"/>
<text text-anchor="middle" x="52" y="-78.5" font-family="Helvetica,sans-Serif" font-size="10.00">PlottableModelBase</text>
</a>
</g>
</g>
<!-- Node2&#45;&gt;Node1 -->
<g id="edge1" class="edge"><title>Node2&#45;&gt;Node1</title>
<path fill="none" stroke="midnightblue" d="M114.508,-81C122.664,-81 131.182,-81 139.763,-81"/>
<polygon fill="midnightblue" stroke="midnightblue" points="114.394,-77.5001 104.394,-81 114.394,-84.5001 114.394,-77.5001"/>
</g>
<!-- Node4 -->
<g id="node4" class="node"><title>Node4</title>
<g id="a_node4"><a xlink:href="../../da/dff/classIG_1_1MPetekLib_1_1Algorithms_1_1PlottableModels_1_1Oscillators_1_1DrivenHarmonicOscillator.html" target="_top" xlink:title="SpecifiÄni solver, ki zastopa vsiljeno nihanje.">
<polygon fill="white" stroke="black" points="548,-180.5 548,-221.5 687,-221.5 687,-180.5 548,-180.5"/>
<text text-anchor="start" x="556" y="-209.5" font-family="Helvetica,sans-Serif" font-size="10.00">IG.MPetekLib.Algorithms.</text>
<text text-anchor="start" x="556" y="-198.5" font-family="Helvetica,sans-Serif" font-size="10.00">PlottableModels.Oscillators.</text>
<text text-anchor="middle" x="617.5" y="-187.5" font-family="Helvetica,sans-Serif" font-size="10.00">DrivenHarmonicOscillator</text>
</a>
</g>
</g>
<!-- Node3&#45;&gt;Node4 -->
<g id="edge3" class="edge"><title>Node3&#45;&gt;Node4</title>
<path fill="none" stroke="midnightblue" d="M485.958,-136.772C504.718,-147.794 527.197,-160.511 548,-171 554.26,-174.156 560.927,-177.316 567.551,-180.337"/>
<polygon fill="midnightblue" stroke="midnightblue" points="487.735,-133.756 477.346,-131.678 484.171,-139.781 487.735,-133.756"/>
</g>
<!-- Node5 -->
<g id="node5" class="node"><title>Node5</title>
<g id="a_node5"><a xlink:href="../../d0/dca/classIG_1_1MPetekLib_1_1Algorithms_1_1PlottableModels_1_1Oscillators_1_1DrivenNonlinearOscillator.html" target="_top" xlink:title=" ">
<polygon fill="white" stroke="black" points="548,-120.5 548,-161.5 687,-161.5 687,-120.5 548,-120.5"/>
<text text-anchor="start" x="556" y="-149.5" font-family="Helvetica,sans-Serif" font-size="10.00">IG.MPetekLib.Algorithms.</text>
<text text-anchor="start" x="556" y="-138.5" font-family="Helvetica,sans-Serif" font-size="10.00">PlottableModels.Oscillators.</text>
<text text-anchor="middle" x="617.5" y="-127.5" font-family="Helvetica,sans-Serif" font-size="10.00">DrivenNonlinearOscillator</text>
</a>
</g>
</g>
<!-- Node3&#45;&gt;Node5 -->
<g id="edge4" class="edge"><title>Node3&#45;&gt;Node5</title>
<path fill="none" stroke="midnightblue" d="M522.316,-124.668C530.844,-126.146 539.472,-127.643 547.866,-129.098"/>
<polygon fill="midnightblue" stroke="midnightblue" points="522.822,-121.203 512.371,-122.943 521.626,-128.1 522.822,-121.203"/>
</g>
<!-- Node6 -->
<g id="node6" class="node"><title>Node6</title>
<g id="a_node6"><a xlink:href="../../d6/dad/classIG_1_1MPetekLib_1_1Algorithms_1_1PlottableModels_1_1Oscillators_1_1DrivenNonlinOscNondim.html" target="_top" xlink:title=" ">
<polygon fill="white" stroke="black" points="548,-60.5 548,-101.5 687,-101.5 687,-60.5 548,-60.5"/>
<text text-anchor="start" x="556" y="-89.5" font-family="Helvetica,sans-Serif" font-size="10.00">IG.MPetekLib.Algorithms.</text>
<text text-anchor="start" x="556" y="-78.5" font-family="Helvetica,sans-Serif" font-size="10.00">PlottableModels.Oscillators.</text>
<text text-anchor="middle" x="617.5" y="-67.5" font-family="Helvetica,sans-Serif" font-size="10.00">DrivenNonlinOscNondim</text>
</a>
</g>
</g>
<!-- Node3&#45;&gt;Node6 -->
<g id="edge5" class="edge"><title>Node3&#45;&gt;Node6</title>
<path fill="none" stroke="midnightblue" d="M522.316,-97.3325C530.844,-95.8537 539.472,-94.3574 547.866,-92.9019"/>
<polygon fill="midnightblue" stroke="midnightblue" points="521.626,-93.8998 512.371,-99.057 522.822,-100.797 521.626,-93.8998"/>
</g>
<!-- Node7 -->
<g id="node7" class="node"><title>Node7</title>
<g id="a_node7"><a xlink:href="../../d8/d6c/classIG_1_1MPetekLib_1_1Algorithms_1_1PlottableModels_1_1Oscillators_1_1MagneticOscHardSpring.html" target="_top" xlink:title=" ">
<polygon fill="white" stroke="black" points="548,-0.5 548,-41.5 687,-41.5 687,-0.5 548,-0.5"/>
<text text-anchor="start" x="556" y="-29.5" font-family="Helvetica,sans-Serif" font-size="10.00">IG.MPetekLib.Algorithms.</text>
<text text-anchor="start" x="556" y="-18.5" font-family="Helvetica,sans-Serif" font-size="10.00">PlottableModels.Oscillators.</text>
<text text-anchor="middle" x="617.5" y="-7.5" font-family="Helvetica,sans-Serif" font-size="10.00">MagneticOscHardSpring</text>
</a>
</g>
</g>
<!-- Node3&#45;&gt;Node7 -->
<g id="edge6" class="edge"><title>Node3&#45;&gt;Node7</title>
<path fill="none" stroke="midnightblue" d="M503.87,-85.7276C506.655,-84.1984 509.379,-82.6205 512,-81 529.715,-70.047 530.285,-61.953 548,-51 553.411,-47.6545 559.26,-44.4906 565.181,-41.5613"/>
<polygon fill="midnightblue" stroke="midnightblue" points="502.073,-82.7172 494.819,-90.4387 505.305,-88.9266 502.073,-82.7172"/>
</g>
</g>
</svg>
