<?xml version="1.0" encoding="UTF-8" standalone="no"?>
<!DOCTYPE svg PUBLIC "-//W3C//DTD SVG 1.1//EN"
 "http://www.w3.org/Graphics/SVG/1.1/DTD/svg11.dtd">
<!-- Generated by graphviz version 2.38.0 (20140413.2041)
 -->
<!-- Title: IG.Forms.WindowShiftControlText Pages: 1 -->
<svg width="206pt" height="150pt"
 viewBox="0.00 0.00 206.00 150.00" xmlns="http://www.w3.org/2000/svg" xmlns:xlink="http://www.w3.org/1999/xlink">
<g id="graph0" class="graph" transform="scale(1 1) rotate(0) translate(4 146)">
<title>IG.Forms.WindowShiftControlText</title>
<polygon fill="white" stroke="none" points="-4,4 -4,-146 202,-146 202,4 -4,4"/>
<!-- Node1 -->
<g id="node1" class="node"><title>Node1</title>
<g id="a_node1"><a xlink:title="Control for setting window positions, relative positions, sizes, positions, shifts,...">
<polygon fill="#bfbfbf" stroke="black" points="0,-0.5 0,-19.5 164,-19.5 164,-0.5 0,-0.5"/>
<text text-anchor="middle" x="82" y="-7.5" font-family="Helvetica,sans-Serif" font-size="10.00">IG.Forms.WindowShiftControlText</text>
</a>
</g>
</g>
<!-- Node2 -->
<g id="node2" class="node"><title>Node2</title>
<g id="a_node2"><a xlink:title=" ">
<polygon fill="white" stroke="#bfbfbf" points="10,-122.5 10,-141.5 78,-141.5 78,-122.5 10,-122.5"/>
<text text-anchor="middle" x="44" y="-129.5" font-family="Helvetica,sans-Serif" font-size="10.00">UserControl</text>
</a>
</g>
</g>
<!-- Node2&#45;&gt;Node1 -->
<g id="edge1" class="edge"><title>Node2&#45;&gt;Node1</title>
<path fill="none" stroke="midnightblue" d="M49.8584,-112.5C58.2042,-86.1448 73.1809,-38.8498 79.2919,-19.5519"/>
<polygon fill="midnightblue" stroke="midnightblue" points="46.4152,-111.78 46.7329,-122.37 53.0886,-113.893 46.4152,-111.78"/>
</g>
<!-- Node3 -->
<g id="node3" class="node"><title>Node3</title>
<g id="a_node3"><a xlink:title=" ">
<polygon fill="white" stroke="#bfbfbf" points="96,-122.5 96,-141.5 146,-141.5 146,-122.5 96,-122.5"/>
<text text-anchor="middle" x="121" y="-129.5" font-family="Helvetica,sans-Serif" font-size="10.00">System</text>
</a>
</g>
</g>
<!-- Node3&#45;&gt;Node1 -->
<g id="edge2" class="edge"><title>Node3&#45;&gt;Node1</title>
<path fill="none" stroke="#9a32cd" stroke-dasharray="5,2" d="M115.102,-112.851C106.559,-86.5676 91.0792,-38.936 84.7794,-19.5519"/>
<polygon fill="#9a32cd" stroke="#9a32cd" points="111.776,-113.941 118.195,-122.37 118.433,-111.778 111.776,-113.941"/>
<text text-anchor="middle" x="154.5" y="-96" font-family="Helvetica,sans-Serif" font-size="10.00"> pnlOuter</text>
<text text-anchor="middle" x="154.5" y="-85" font-family="Helvetica,sans-Serif" font-size="10.00">lblWindowRelY</text>
<text text-anchor="middle" x="154.5" y="-74" font-family="Helvetica,sans-Serif" font-size="10.00">txtWindowShiftRelX</text>
<text text-anchor="middle" x="154.5" y="-63" font-family="Helvetica,sans-Serif" font-size="10.00">txtWindowShiftRelY</text>
<text text-anchor="middle" x="154.5" y="-52" font-family="Helvetica,sans-Serif" font-size="10.00">components</text>
<text text-anchor="middle" x="154.5" y="-41" font-family="Helvetica,sans-Serif" font-size="10.00">lblWindowShiftRelX</text>
</g>
</g>
</svg>
