<?xml version="1.0" encoding="UTF-8" standalone="no"?>
<!DOCTYPE svg PUBLIC "-//W3C//DTD SVG 1.1//EN"
 "http://www.w3.org/Graphics/SVG/1.1/DTD/svg11.dtd">
<!-- Generated by graphviz version 2.38.0 (20140413.2041)
 -->
<!-- Title: NUnit.Framework.Constraints.PrefixConstraint Pages: 1 -->
<svg width="196pt" height="240pt"
 viewBox="0.00 0.00 196.00 240.00" xmlns="http://www.w3.org/2000/svg" xmlns:xlink="http://www.w3.org/1999/xlink">
<g id="graph0" class="graph" transform="scale(1 1) rotate(0) translate(4 236)">
<title>NUnit.Framework.Constraints.PrefixConstraint</title>
<polygon fill="white" stroke="none" points="-4,4 -4,-236 192,-236 192,4 -4,4"/>
<!-- Node1 -->
<g id="node1" class="node"><title>Node1</title>
<g id="a_node1"><a xlink:title="Abstract base class used for prefixes">
<polygon fill="#bfbfbf" stroke="black" points="7,-0.5 7,-30.5 154,-30.5 154,-0.5 7,-0.5"/>
<text text-anchor="start" x="15" y="-18.5" font-family="Helvetica,sans-Serif" font-size="10.00">NUnit.Framework.Constraints.</text>
<text text-anchor="middle" x="80.5" y="-7.5" font-family="Helvetica,sans-Serif" font-size="10.00">PrefixConstraint</text>
</a>
</g>
</g>
<!-- Node2 -->
<g id="node2" class="node"><title>Node2</title>
<g id="a_node2"><a xlink:href="../../d9/da9/classNUnit_1_1Framework_1_1Constraints_1_1Constraint.html" target="_top" xlink:title="The Constraint class is the base of all built&#45;in constraints within NUnit. It provides the operator o...">
<polygon fill="white" stroke="black" points="0,-68.5 0,-87.5 61,-87.5 61,-68.5 0,-68.5"/>
<text text-anchor="middle" x="30.5" y="-75.5" font-family="Helvetica,sans-Serif" font-size="10.00">Constraint</text>
</a>
</g>
</g>
<!-- Node2&#45;&gt;Node1 -->
<g id="edge1" class="edge"><title>Node2&#45;&gt;Node1</title>
<path fill="none" stroke="midnightblue" d="M44.1044,-60.5387C51.8037,-51.2225 61.3376,-39.6865 68.716,-30.7587"/>
<polygon fill="midnightblue" stroke="midnightblue" points="41.3364,-58.3939 37.6638,-68.3318 46.7322,-62.8532 41.3364,-58.3939"/>
</g>
<!-- Node3 -->
<g id="node3" class="node"><title>Node3</title>
<g id="a_node3"><a xlink:href="../../d1/d94/interfaceNUnit_1_1Framework_1_1Constraints_1_1IConstraint.html" target="_top" xlink:title="Interface for all constraints">
<polygon fill="white" stroke="black" points="8,-155.5 8,-174.5 71,-174.5 71,-155.5 8,-155.5"/>
<text text-anchor="middle" x="39.5" y="-162.5" font-family="Helvetica,sans-Serif" font-size="10.00">IConstraint</text>
</a>
</g>
</g>
<!-- Node3&#45;&gt;Node2 -->
<g id="edge2" class="edge"><title>Node3&#45;&gt;Node2</title>
<path fill="none" stroke="midnightblue" d="M37.5014,-145.125C35.6134,-127.293 32.8644,-101.33 31.4377,-87.8559"/>
<polygon fill="midnightblue" stroke="midnightblue" points="34.0372,-145.648 38.5707,-155.224 40.9983,-144.911 34.0372,-145.648"/>
</g>
<!-- Node4 -->
<g id="node4" class="node"><title>Node4</title>
<g id="a_node4"><a xlink:href="../../d7/d29/interfaceNUnit_1_1Framework_1_1Constraints_1_1IResolveConstraint.html" target="_top" xlink:title="The IResolveConstraint interface is implemented by all complete and resolvable constraints and expres...">
<polygon fill="white" stroke="black" points="35,-212.5 35,-231.5 132,-231.5 132,-212.5 35,-212.5"/>
<text text-anchor="middle" x="83.5" y="-219.5" font-family="Helvetica,sans-Serif" font-size="10.00">IResolveConstraint</text>
</a>
</g>
</g>
<!-- Node4&#45;&gt;Node3 -->
<g id="edge3" class="edge"><title>Node4&#45;&gt;Node3</title>
<path fill="none" stroke="midnightblue" d="M70.3256,-204.532C62.4887,-194.736 52.8608,-182.701 46.4719,-174.715"/>
<polygon fill="midnightblue" stroke="midnightblue" points="67.645,-206.784 76.625,-212.406 73.1111,-202.411 67.645,-206.784"/>
</g>
<!-- Node5 -->
<g id="node5" class="node"><title>Node5</title>
<g id="a_node5"><a xlink:href="../../d1/d94/interfaceNUnit_1_1Framework_1_1Constraints_1_1IConstraint.html" target="_top" xlink:title="Interface for all constraints">
<polygon fill="white" stroke="black" points="41,-106.5 41,-136.5 188,-136.5 188,-106.5 41,-106.5"/>
<text text-anchor="start" x="49" y="-124.5" font-family="Helvetica,sans-Serif" font-size="10.00">NUnit.Framework.Constraints.</text>
<text text-anchor="middle" x="114.5" y="-113.5" font-family="Helvetica,sans-Serif" font-size="10.00">IConstraint</text>
</a>
</g>
</g>
<!-- Node4&#45;&gt;Node5 -->
<g id="edge5" class="edge"><title>Node4&#45;&gt;Node5</title>
<path fill="none" stroke="midnightblue" d="M89.2823,-202.627C95.2888,-183.542 104.559,-154.088 110.028,-136.709"/>
<polygon fill="midnightblue" stroke="midnightblue" points="85.9146,-201.669 86.251,-212.259 92.5917,-203.771 85.9146,-201.669"/>
</g>
<!-- Node5&#45;&gt;Node1 -->
<g id="edge4" class="edge"><title>Node5&#45;&gt;Node1</title>
<path fill="none" stroke="#9a32cd" stroke-dasharray="5,2" d="M106.8,-96.9483C100.126,-76.5333 90.6893,-47.6672 85.1213,-30.6358"/>
<polygon fill="#9a32cd" stroke="#9a32cd" points="103.48,-98.0567 109.915,-106.474 110.134,-95.8815 103.48,-98.0567"/>
<text text-anchor="middle" x="139" y="-75.5" font-family="Helvetica,sans-Serif" font-size="10.00"> baseConstraint</text>
</g>
</g>
</svg>
