<?xml version="1.0" encoding="UTF-8" standalone="no"?>
<!DOCTYPE svg PUBLIC "-//W3C//DTD SVG 1.1//EN"
 "http://www.w3.org/Graphics/SVG/1.1/DTD/svg11.dtd">
<!-- Generated by graphviz version 2.38.0 (20140413.2041)
 -->
<!-- Title: TexturesDemo.MainForm Pages: 1 -->
<svg width="170pt" height="139pt"
 viewBox="0.00 0.00 170.00 139.00" xmlns="http://www.w3.org/2000/svg" xmlns:xlink="http://www.w3.org/1999/xlink">
<g id="graph0" class="graph" transform="scale(1 1) rotate(0) translate(4 135)">
<title>TexturesDemo.MainForm</title>
<polygon fill="white" stroke="none" points="-4,4 -4,-135 166,-135 166,4 -4,4"/>
<!-- Node1 -->
<g id="node1" class="node"><title>Node1</title>
<g id="a_node1"><a xlink:title=" ">
<polygon fill="#bfbfbf" stroke="black" points="0,-0.5 0,-19.5 126,-19.5 126,-0.5 0,-0.5"/>
<text text-anchor="middle" x="63" y="-7.5" font-family="Helvetica,sans-Serif" font-size="10.00">TexturesDemo.MainForm</text>
</a>
</g>
</g>
<!-- Node2 -->
<g id="node2" class="node"><title>Node2</title>
<g id="a_node2"><a xlink:title=" ">
<polygon fill="white" stroke="#bfbfbf" points="12.5,-111.5 12.5,-130.5 51.5,-130.5 51.5,-111.5 12.5,-111.5"/>
<text text-anchor="middle" x="32" y="-118.5" font-family="Helvetica,sans-Serif" font-size="10.00">Form</text>
</a>
</g>
</g>
<!-- Node2&#45;&gt;Node1 -->
<g id="edge1" class="edge"><title>Node2&#45;&gt;Node1</title>
<path fill="none" stroke="midnightblue" d="M37.2564,-101.518C44.0467,-77.6424 55.5859,-37.0688 60.5788,-19.5133"/>
<polygon fill="midnightblue" stroke="midnightblue" points="33.8016,-100.871 34.4325,-111.447 40.5346,-102.786 33.8016,-100.871"/>
</g>
<!-- Node3 -->
<g id="node3" class="node"><title>Node3</title>
<g id="a_node3"><a xlink:title=" ">
<polygon fill="white" stroke="#bfbfbf" points="70,-111.5 70,-130.5 120,-130.5 120,-111.5 70,-111.5"/>
<text text-anchor="middle" x="95" y="-118.5" font-family="Helvetica,sans-Serif" font-size="10.00">System</text>
</a>
</g>
</g>
<!-- Node3&#45;&gt;Node1 -->
<g id="edge2" class="edge"><title>Node3&#45;&gt;Node1</title>
<path fill="none" stroke="#9a32cd" stroke-dasharray="5,2" d="M89.6688,-101.841C82.6727,-78.01 70.6765,-37.1482 65.4993,-19.5133"/>
<polygon fill="#9a32cd" stroke="#9a32cd" points="86.3138,-102.838 92.489,-111.447 93.0303,-100.866 86.3138,-102.838"/>
<text text-anchor="middle" x="124.5" y="-85" font-family="Helvetica,sans-Serif" font-size="10.00"> label1</text>
<text text-anchor="middle" x="124.5" y="-74" font-family="Helvetica,sans-Serif" font-size="10.00">pictureBox</text>
<text text-anchor="middle" x="124.5" y="-63" font-family="Helvetica,sans-Serif" font-size="10.00">components</text>
<text text-anchor="middle" x="124.5" y="-52" font-family="Helvetica,sans-Serif" font-size="10.00">regenerateButton</text>
<text text-anchor="middle" x="124.5" y="-41" font-family="Helvetica,sans-Serif" font-size="10.00">texturesCombo</text>
</g>
</g>
</svg>
