<?xml version="1.0" encoding="UTF-8" standalone="no"?>
<!DOCTYPE svg PUBLIC "-//W3C//DTD SVG 1.1//EN"
 "http://www.w3.org/Graphics/SVG/1.1/DTD/svg11.dtd">
<!-- Generated by graphviz version 2.38.0 (20140413.2041)
 -->
<!-- Title: IG.Script.Script_11_10_clanek_neural_01 Pages: 1 -->
<svg width="458pt" height="498pt"
 viewBox="0.00 0.00 457.50 498.00" xmlns="http://www.w3.org/2000/svg" xmlns:xlink="http://www.w3.org/1999/xlink">
<g id="graph0" class="graph" transform="scale(1 1) rotate(0) translate(4 494)">
<title>IG.Script.Script_11_10_clanek_neural_01</title>
<polygon fill="white" stroke="none" points="-4,4 -4,-494 453.5,-494 453.5,4 -4,4"/>
<!-- Node1 -->
<g id="node1" class="node"><title>Node1</title>
<g id="a_node1"><a xlink:title=" ">
<polygon fill="#bfbfbf" stroke="black" points="336.5,-0.5 336.5,-30.5 449.5,-30.5 449.5,-0.5 336.5,-0.5"/>
<text text-anchor="start" x="344.5" y="-18.5" font-family="Helvetica,sans-Serif" font-size="10.00">IG.Script.Script_11</text>
<text text-anchor="middle" x="393" y="-7.5" font-family="Helvetica,sans-Serif" font-size="10.00">_10_clanek_neural_01</text>
</a>
</g>
</g>
<!-- Node2 -->
<g id="node2" class="node"><title>Node2</title>
<g id="a_node2"><a xlink:href="../../dc/df5/classIG_1_1Script_1_1S__11__10__Clanek__Neural__Base.html" target="_top" xlink:title=" ">
<polygon fill="white" stroke="black" points="265.5,-67.5 265.5,-86.5 416.5,-86.5 416.5,-67.5 265.5,-67.5"/>
<text text-anchor="middle" x="341" y="-74.5" font-family="Helvetica,sans-Serif" font-size="10.00">S_11_10_Clanek_Neural_Base</text>
</a>
</g>
</g>
<!-- Node2&#45;&gt;Node1 -->
<g id="edge1" class="edge"><title>Node2&#45;&gt;Node1</title>
<path fill="none" stroke="midnightblue" d="M355.149,-59.8108C363.156,-50.6486 373.071,-39.3032 380.745,-30.523"/>
<polygon fill="midnightblue" stroke="midnightblue" points="352.396,-57.6422 348.45,-67.4751 357.666,-62.2486 352.396,-57.6422"/>
</g>
<!-- Node3 -->
<g id="node3" class="node"><title>Node3</title>
<g id="a_node3"><a xlink:href="../../d1/d30/classIG_1_1Script_1_1LoadableScriptShellNeural.html" target="_top" xlink:title="Base class for loadable scripts that are used as custom applications that inclued neural networks app...">
<polygon fill="white" stroke="black" points="247.5,-123.5 247.5,-142.5 378.5,-142.5 378.5,-123.5 247.5,-123.5"/>
<text text-anchor="middle" x="313" y="-130.5" font-family="Helvetica,sans-Serif" font-size="10.00">LoadableScriptShellNeural</text>
</a>
</g>
</g>
<!-- Node3&#45;&gt;Node2 -->
<g id="edge2" class="edge"><title>Node3&#45;&gt;Node2</title>
<path fill="none" stroke="midnightblue" d="M322.342,-113.983C327.095,-104.817 332.656,-94.0922 336.462,-86.7511"/>
<polygon fill="midnightblue" stroke="midnightblue" points="319.12,-112.594 317.624,-123.083 325.334,-115.817 319.12,-112.594"/>
</g>
<!-- Node4 -->
<g id="node4" class="node"><title>Node4</title>
<g id="a_node4"><a xlink:href="../../dc/d0c/classIG_1_1Script_1_1LoadableScriptShellNeuralBase.html" target="_top" xlink:title="Base class for loadable scripts that are used as custom applications that inclued neural networks app...">
<polygon fill="white" stroke="black" points="175.5,-179.5 175.5,-198.5 328.5,-198.5 328.5,-179.5 175.5,-179.5"/>
<text text-anchor="middle" x="252" y="-186.5" font-family="Helvetica,sans-Serif" font-size="10.00">LoadableScriptShellNeuralBase</text>
</a>
</g>
</g>
<!-- Node4&#45;&gt;Node3 -->
<g id="edge3" class="edge"><title>Node4&#45;&gt;Node3</title>
<path fill="none" stroke="midnightblue" d="M269.467,-172.537C280.344,-162.909 293.944,-150.869 303.021,-142.834"/>
<polygon fill="midnightblue" stroke="midnightblue" points="266.968,-170.075 261.801,-179.324 271.608,-175.316 266.968,-170.075"/>
</g>
<!-- Node5 -->
<g id="node5" class="node"><title>Node5</title>
<g id="a_node5"><a xlink:href="../../d6/d59/classIG_1_1Lib_1_1LoadableScriptShellBase.html" target="_top" xlink:title="Loadable script base class for the shell application that includes tols for definition of optiimizati...">
<polygon fill="white" stroke="black" points="79.5,-235.5 79.5,-254.5 204.5,-254.5 204.5,-235.5 79.5,-235.5"/>
<text text-anchor="middle" x="142" y="-242.5" font-family="Helvetica,sans-Serif" font-size="10.00">LoadableScriptShellBase</text>
</a>
</g>
</g>
<!-- Node5&#45;&gt;Node4 -->
<g id="edge4" class="edge"><title>Node5&#45;&gt;Node4</title>
<path fill="none" stroke="midnightblue" d="M168.762,-230.862C189.159,-220.849 216.666,-207.346 234.37,-198.655"/>
<polygon fill="midnightblue" stroke="midnightblue" points="167.108,-227.775 159.673,-235.324 170.192,-234.059 167.108,-227.775"/>
</g>
<!-- Node6 -->
<g id="node6" class="node"><title>Node6</title>
<g id="a_node6"><a xlink:href="../../d7/d31/classIG_1_1Lib_1_1LoadableScriptOptShellBaseControllable.html" target="_top" xlink:title="Controllable version of LoadableScriptOptBase, implements the ILoadableScriptC interface.">
<polygon fill="white" stroke="black" points="30.5,-291.5 30.5,-321.5 171.5,-321.5 171.5,-291.5 30.5,-291.5"/>
<text text-anchor="start" x="38.5" y="-309.5" font-family="Helvetica,sans-Serif" font-size="10.00">LoadableScriptOptShellBase</text>
<text text-anchor="middle" x="101" y="-298.5" font-family="Helvetica,sans-Serif" font-size="10.00">Controllable</text>
</a>
</g>
</g>
<!-- Node6&#45;&gt;Node5 -->
<g id="edge5" class="edge"><title>Node6&#45;&gt;Node5</title>
<path fill="none" stroke="midnightblue" d="M116.432,-283.104C123.266,-273.187 130.902,-262.106 136.034,-254.658"/>
<polygon fill="midnightblue" stroke="midnightblue" points="113.509,-281.179 110.716,-291.399 119.273,-285.151 113.509,-281.179"/>
</g>
<!-- Node7 -->
<g id="node7" class="node"><title>Node7</title>
<g id="a_node7"><a xlink:href="../../d5/d05/classIG_1_1Lib_1_1LoadableScriptOptBase.html" target="_top" xlink:title="Base class for loadable scripts for optimization problems. AGREEMENTS: The first argument to initiali...">
<polygon fill="white" stroke="black" points="38.5,-358.5 38.5,-377.5 157.5,-377.5 157.5,-358.5 38.5,-358.5"/>
<text text-anchor="middle" x="98" y="-365.5" font-family="Helvetica,sans-Serif" font-size="10.00">LoadableScriptOptBase</text>
</a>
</g>
</g>
<!-- Node7&#45;&gt;Node6 -->
<g id="edge6" class="edge"><title>Node7&#45;&gt;Node6</title>
<path fill="none" stroke="midnightblue" d="M98.9461,-348.235C99.3822,-339.586 99.8909,-329.497 100.293,-321.523"/>
<polygon fill="midnightblue" stroke="midnightblue" points="95.4379,-348.312 98.4298,-358.475 102.429,-348.664 95.4379,-348.312"/>
</g>
<!-- Node8 -->
<g id="node8" class="node"><title>Node8</title>
<g id="a_node8"><a xlink:href="../../d7/d15/classIG_1_1Lib_1_1LoadableScriptBase.html" target="_top" xlink:title="Base class for classes that can be dynamically loadeded from scripts and run, which provides function...">
<polygon fill="white" stroke="black" points="76,-414.5 76,-433.5 180,-433.5 180,-414.5 76,-414.5"/>
<text text-anchor="middle" x="128" y="-421.5" font-family="Helvetica,sans-Serif" font-size="10.00">LoadableScriptBase</text>
</a>
</g>
</g>
<!-- Node8&#45;&gt;Node7 -->
<g id="edge7" class="edge"><title>Node8&#45;&gt;Node7</title>
<path fill="none" stroke="midnightblue" d="M118.153,-405.275C113.025,-396.045 106.984,-385.17 102.862,-377.751"/>
<polygon fill="midnightblue" stroke="midnightblue" points="115.13,-407.041 123.046,-414.083 121.249,-403.642 115.13,-407.041"/>
</g>
<!-- Node9 -->
<g id="node9" class="node"><title>Node9</title>
<g id="a_node9"><a xlink:href="../../d7/d66/interfaceIG_1_1Lib_1_1ILoadableScript.html" target="_top" xlink:title="Interface for classes that can be dynamically loadeded from scripts and run, which provides functiona...">
<polygon fill="white" stroke="black" points="252.5,-470.5 252.5,-489.5 335.5,-489.5 335.5,-470.5 252.5,-470.5"/>
<text text-anchor="middle" x="294" y="-477.5" font-family="Helvetica,sans-Serif" font-size="10.00">ILoadableScript</text>
</a>
</g>
</g>
<!-- Node9&#45;&gt;Node1 -->
<g id="edge21" class="edge"><title>Node9&#45;&gt;Node1</title>
<path fill="none" stroke="midnightblue" d="M338.037,-467.35C382.61,-452.579 445,-422.371 445,-369 445,-369 445,-369 445,-132 445,-92.4169 419.292,-51.3961 404.028,-30.5286"/>
<polygon fill="midnightblue" stroke="midnightblue" points="336.744,-464.088 328.264,-470.44 338.854,-470.763 336.744,-464.088"/>
</g>
<!-- Node9&#45;&gt;Node2 -->
<g id="edge20" class="edge"><title>Node9&#45;&gt;Node2</title>
<path fill="none" stroke="midnightblue" d="M323.572,-465.917C357.053,-448.857 407,-415.598 407,-369 407,-369 407,-369 407,-188 407,-157.775 402.733,-148.808 387,-123 378.045,-108.309 363.217,-95.009 352.824,-86.7424"/>
<polygon fill="midnightblue" stroke="midnightblue" points="321.652,-462.959 314.202,-470.492 324.724,-469.249 321.652,-462.959"/>
</g>
<!-- Node9&#45;&gt;Node3 -->
<g id="edge19" class="edge"><title>Node9&#45;&gt;Node3</title>
<path fill="none" stroke="midnightblue" d="M313.261,-463.791C335.483,-444.384 369,-408.556 369,-369 369,-369 369,-369 369,-244 369,-202.212 336.508,-160.262 321.023,-142.642"/>
<polygon fill="midnightblue" stroke="midnightblue" points="310.799,-461.288 305.391,-470.398 315.3,-466.649 310.799,-461.288"/>
</g>
<!-- Node9&#45;&gt;Node4 -->
<g id="edge17" class="edge"><title>Node9&#45;&gt;Node4</title>
<path fill="none" stroke="midnightblue" d="M291.131,-460.434C287.449,-436.679 280.84,-394.264 275,-358 267.624,-312.193 263.914,-301.019 258,-255 255.429,-234.992 253.532,-211.383 252.616,-198.853"/>
<polygon fill="midnightblue" stroke="midnightblue" points="287.698,-461.141 292.687,-470.488 294.616,-460.07 287.698,-461.141"/>
</g>
<!-- Node9&#45;&gt;Node7 -->
<g id="edge10" class="edge"><title>Node9&#45;&gt;Node7</title>
<path fill="none" stroke="midnightblue" d="M272.507,-464.859C251.533,-451.26 218.554,-430.407 189,-414 164.499,-400.399 135.329,-386.334 116.741,-377.628"/>
<polygon fill="midnightblue" stroke="midnightblue" points="270.691,-467.853 280.98,-470.382 274.514,-461.989 270.691,-467.853"/>
</g>
<!-- Node9&#45;&gt;Node8 -->
<g id="edge8" class="edge"><title>Node9&#45;&gt;Node8</title>
<path fill="none" stroke="midnightblue" d="M258.047,-467.304C226.768,-457.129 182.179,-442.625 154.18,-433.516"/>
<polygon fill="midnightblue" stroke="midnightblue" points="257.105,-470.678 267.697,-470.444 259.27,-464.022 257.105,-470.678"/>
</g>
<!-- Node11 -->
<g id="node11" class="node"><title>Node11</title>
<g id="a_node11"><a xlink:href="../../d1/dca/interfaceIG_1_1Lib_1_1ILoadableScriptC.html" target="_top" xlink:title="Controllable loadable script, provides more control over loading and execution.">
<polygon fill="white" stroke="black" points="176,-358.5 176,-377.5 266,-377.5 266,-358.5 176,-358.5"/>
<text text-anchor="middle" x="221" y="-365.5" font-family="Helvetica,sans-Serif" font-size="10.00">ILoadableScriptC</text>
</a>
</g>
</g>
<!-- Node9&#45;&gt;Node11 -->
<g id="edge13" class="edge"><title>Node9&#45;&gt;Node11</title>
<path fill="none" stroke="midnightblue" d="M282.69,-461.957C266.869,-438.118 238.725,-395.709 226.702,-377.591"/>
<polygon fill="midnightblue" stroke="midnightblue" points="279.826,-463.972 288.272,-470.368 285.659,-460.101 279.826,-463.972"/>
</g>
<!-- Node10 -->
<g id="node10" class="node"><title>Node10</title>
<g id="a_node10"><a xlink:href="../../d3/db6/interfaceIG_1_1Lib_1_1ILockable.html" target="_top" xlink:title="Lockable object, has a Lock property that returns object on which lock must be performed in order to ...">
<polygon fill="white" stroke="black" points="0,-470.5 0,-489.5 58,-489.5 58,-470.5 0,-470.5"/>
<text text-anchor="middle" x="29" y="-477.5" font-family="Helvetica,sans-Serif" font-size="10.00">ILockable</text>
</a>
</g>
</g>
<!-- Node10&#45;&gt;Node5 -->
<g id="edge16" class="edge"><title>Node10&#45;&gt;Node5</title>
<path fill="none" stroke="midnightblue" d="M21.4128,-460.734C7.67437,-424.448 -16.5901,-342.367 21,-291 34.9638,-271.918 57.9683,-260.921 80.1905,-254.587"/>
<polygon fill="midnightblue" stroke="midnightblue" points="18.3209,-462.432 25.2583,-470.44 24.8287,-459.854 18.3209,-462.432"/>
</g>
<!-- Node10&#45;&gt;Node6 -->
<g id="edge14" class="edge"><title>Node10&#45;&gt;Node6</title>
<path fill="none" stroke="midnightblue" d="M24.0061,-460.562C18.341,-435.712 11.9373,-390.809 29,-358 37.3832,-341.88 53.5304,-329.835 68.412,-321.559"/>
<polygon fill="midnightblue" stroke="midnightblue" points="20.6565,-461.596 26.47,-470.453 27.4489,-459.904 20.6565,-461.596"/>
</g>
<!-- Node10&#45;&gt;Node7 -->
<g id="edge11" class="edge"><title>Node10&#45;&gt;Node7</title>
<path fill="none" stroke="midnightblue" d="M38.7465,-461.529C46.2265,-448.322 56.9432,-429.824 67,-414 75.1415,-401.189 85.2155,-386.814 91.6261,-377.834"/>
<polygon fill="midnightblue" stroke="midnightblue" points="35.5721,-460.034 33.722,-470.466 41.6738,-463.464 35.5721,-460.034"/>
</g>
<!-- Node10&#45;&gt;Node8 -->
<g id="edge9" class="edge"><title>Node10&#45;&gt;Node8</title>
<path fill="none" stroke="midnightblue" d="M53.837,-465.453C72.1136,-455.483 96.4156,-442.228 112.133,-433.655"/>
<polygon fill="midnightblue" stroke="midnightblue" points="52.009,-462.463 44.9061,-470.324 55.361,-468.608 52.009,-462.463"/>
</g>
<!-- Node11&#45;&gt;Node5 -->
<g id="edge15" class="edge"><title>Node11&#45;&gt;Node5</title>
<path fill="none" stroke="midnightblue" d="M212.637,-349.067C204.969,-333.272 192.878,-309.905 180,-291 170.789,-277.478 158.248,-263.281 150.138,-254.534"/>
<polygon fill="midnightblue" stroke="midnightblue" points="209.541,-350.706 217.001,-358.23 215.861,-347.696 209.541,-350.706"/>
</g>
<!-- Node11&#45;&gt;Node6 -->
<g id="edge12" class="edge"><title>Node11&#45;&gt;Node6</title>
<path fill="none" stroke="midnightblue" d="M194.657,-353.938C175.312,-344.347 149.068,-331.334 129.282,-321.523"/>
<polygon fill="midnightblue" stroke="midnightblue" points="193.293,-357.169 203.807,-358.475 196.403,-350.897 193.293,-357.169"/>
</g>
<!-- Node12 -->
<g id="node12" class="node"><title>Node12</title>
<g id="a_node12"><a xlink:href="../../d0/d98/interfaceIG_1_1Num_1_1INeuralModel.html" target="_top" xlink:title="Interface for artificial neural network &#45;based models that we can operate on.">
<polygon fill="white" stroke="black" points="267.5,-235.5 267.5,-254.5 340.5,-254.5 340.5,-235.5 267.5,-235.5"/>
<text text-anchor="middle" x="304" y="-242.5" font-family="Helvetica,sans-Serif" font-size="10.00">INeuralModel</text>
</a>
</g>
</g>
<!-- Node12&#45;&gt;Node4 -->
<g id="edge18" class="edge"><title>Node12&#45;&gt;Node4</title>
<path fill="none" stroke="midnightblue" d="M288.321,-227.718C279.155,-218.2 267.947,-206.561 260.427,-198.751"/>
<polygon fill="midnightblue" stroke="midnightblue" points="285.956,-230.308 295.413,-235.083 290.998,-225.452 285.956,-230.308"/>
</g>
</g>
</svg>
