<?xml version="1.0" encoding="UTF-8" standalone="no"?>
<!DOCTYPE svg PUBLIC "-//W3C//DTD SVG 1.1//EN"
 "http://www.w3.org/Graphics/SVG/1.1/DTD/svg11.dtd">
<!-- Generated by graphviz version 2.38.0 (20140413.2041)
 -->
<!-- Title: TestWS_GUI.EFA_WS.Service Pages: 1 -->
<svg width="387pt" height="216pt"
 viewBox="0.00 0.00 386.50 216.00" xmlns="http://www.w3.org/2000/svg" xmlns:xlink="http://www.w3.org/1999/xlink">
<g id="graph0" class="graph" transform="scale(1 1) rotate(0) translate(4 212)">
<title>TestWS_GUI.EFA_WS.Service</title>
<polygon fill="white" stroke="none" points="-4,4 -4,-212 382.5,-212 382.5,4 -4,4"/>
<!-- Node1 -->
<g id="node1" class="node"><title>Node1</title>
<g id="a_node1"><a xlink:title=" ">
<polygon fill="#bfbfbf" stroke="black" points="46.5,-0.5 46.5,-19.5 198.5,-19.5 198.5,-0.5 46.5,-0.5"/>
<text text-anchor="middle" x="122.5" y="-7.5" font-family="Helvetica,sans-Serif" font-size="10.00">TestWS_GUI.EFA_WS.Service</text>
</a>
</g>
</g>
<!-- Node2 -->
<g id="node2" class="node"><title>Node2</title>
<g id="a_node2"><a xlink:title=" ">
<polygon fill="white" stroke="#bfbfbf" points="0,-166.5 0,-207.5 135,-207.5 135,-166.5 0,-166.5"/>
<text text-anchor="start" x="8" y="-195.5" font-family="Helvetica,sans-Serif" font-size="10.00">System::Web::Services</text>
<text text-anchor="start" x="8" y="-184.5" font-family="Helvetica,sans-Serif" font-size="10.00">::Protocols::SoapHttpClient</text>
<text text-anchor="middle" x="67.5" y="-173.5" font-family="Helvetica,sans-Serif" font-size="10.00">Protocol</text>
</a>
</g>
</g>
<!-- Node2&#45;&gt;Node1 -->
<g id="edge1" class="edge"><title>Node2&#45;&gt;Node1</title>
<path fill="none" stroke="midnightblue" d="M76.7309,-156.629C89.5166,-115.947 111.923,-44.6533 119.727,-19.8245"/>
<polygon fill="midnightblue" stroke="midnightblue" points="73.3616,-155.676 73.7023,-166.265 80.0396,-157.775 73.3616,-155.676"/>
</g>
<!-- Node3 -->
<g id="node3" class="node"><title>Node3</title>
<g id="a_node3"><a xlink:title=" ">
<polygon fill="white" stroke="#bfbfbf" points="153.5,-177.5 153.5,-196.5 203.5,-196.5 203.5,-177.5 153.5,-177.5"/>
<text text-anchor="middle" x="178.5" y="-184.5" font-family="Helvetica,sans-Serif" font-size="10.00">System</text>
</a>
</g>
</g>
<!-- Node3&#45;&gt;Node1 -->
<g id="edge2" class="edge"><title>Node3&#45;&gt;Node1</title>
<path fill="none" stroke="#9a32cd" stroke-dasharray="5,2" d="M172.559,-167.436C160.583,-130.011 133.946,-46.7699 125.282,-19.6932"/>
<polygon fill="#9a32cd" stroke="#9a32cd" points="169.265,-168.624 175.646,-177.081 175.932,-166.49 169.265,-168.624"/>
<text text-anchor="start" x="165.5" y="-140" font-family="Helvetica,sans-Serif" font-size="10.00"> PaketTipZalogaVrednostiOperation</text>
<text text-anchor="middle" x="272" y="-129" font-family="Helvetica,sans-Serif" font-size="10.00">Completed</text>
<text text-anchor="middle" x="272" y="-118" font-family="Helvetica,sans-Serif" font-size="10.00">PaketStatusShemaOperationCompleted</text>
<text text-anchor="middle" x="272" y="-107" font-family="Helvetica,sans-Serif" font-size="10.00">PaketStatusOperationCompleted</text>
<text text-anchor="middle" x="272" y="-96" font-family="Helvetica,sans-Serif" font-size="10.00">PodrocjaZalogaVrednostiOperationCompleted</text>
<text text-anchor="middle" x="272" y="-85" font-family="Helvetica,sans-Serif" font-size="10.00">PosljiPaketZipOperationCompleted</text>
<text text-anchor="middle" x="272" y="-74" font-family="Helvetica,sans-Serif" font-size="10.00">PaketShemaOperationCompleted</text>
<text text-anchor="middle" x="272" y="-63" font-family="Helvetica,sans-Serif" font-size="10.00">PaketStatusZalogaVrednostiOperationCompleted</text>
<text text-anchor="middle" x="272" y="-52" font-family="Helvetica,sans-Serif" font-size="10.00">StevilkaSejeOperationCompleted</text>
<text text-anchor="middle" x="272" y="-41" font-family="Helvetica,sans-Serif" font-size="10.00">PosljiPaketOperationCompleted</text>
</g>
</g>
</svg>
