<?xml version="1.0" encoding="UTF-8" standalone="no"?>
<!DOCTYPE svg PUBLIC "-//W3C//DTD SVG 1.1//EN"
 "http://www.w3.org/Graphics/SVG/1.1/DTD/svg11.dtd">
<!-- Generated by graphviz version 2.38.0 (20140413.2041)
 -->
<!-- Title: IG.Script.AppBase Pages: 1 -->
<!--zoomable 237 -->
<svg id="main" version="1.1" xmlns="http://www.w3.org/2000/svg" xmlns:xlink="http://www.w3.org/1999/xlink" xml:space="preserve" onload="init(evt)">
<style type="text/css"><![CDATA[
.edge:hover path { stroke: red; }
.edge:hover polygon { stroke: red; fill: red; }
]]></style>
<script type="text/javascript"><![CDATA[
var edges = document.getElementsByTagName('g');
if (edges && edges.length) {
  for (var i=0;i<edges.length;i++) {
    if (edges[i].id.substr(0,4)=='edge') {
      edges[i].setAttribute('class','edge');
    }
  }
}
]]></script>
        <defs>
                <circle id="rim" cx="0" cy="0" r="7"/>
                <circle id="rim2" cx="0" cy="0" r="3.5"/>
                <g id="zoomPlus">
                        <use xlink:href="#rim" fill="#404040">
                                <set attributeName="fill" to="#808080" begin="zoomplus.mouseover" end="zoomplus.mouseout"/>
                        </use>
                        <path d="M-4,0h8M0,-4v8" fill="none" stroke="white" stroke-width="1.5" pointer-events="none"/>
                </g>
                <g id="zoomMin">
                        <use xlink:href="#rim" fill="#404040">
                                <set attributeName="fill" to="#808080" begin="zoomminus.mouseover" end="zoomminus.mouseout"/>
                        </use>
                        <path d="M-4,0h8" fill="none" stroke="white" stroke-width="1.5" pointer-events="none"/>
                </g>
                <g id="dirArrow">
                        <path fill="none" stroke="white" stroke-width="1.5" d="M0,-3.0v7 M-2.5,-0.5L0,-3.0L2.5,-0.5"/>
                </g>
               <g id="resetDef">
                       <use xlink:href="#rim2" fill="#404040">
                               <set attributeName="fill" to="#808080" begin="reset.mouseover" end="reset.mouseout"/>
                       </use>
               </g>
        </defs>

<script type="text/javascript">
var viewWidth = 1174;
var viewHeight = 237;
var sectionId = 'dynsection-0';
</script>
<script xlink:href="../../svgpan.js"/>
<svg id="graph" class="graph">
<g id="viewport">
<title>IG.Script.AppBase</title>
<polygon fill="white" stroke="none" points="-4,4 -4,-233 1170,-233 1170,4 -4,4"/>
<!-- Node1 -->
<g id="node1" class="node"><title>Node1</title>
<g id="a_node1"><a xlink:title="Base cls. for application scripts that can also be used on its own.">
<polygon fill="#bfbfbf" stroke="black" points="119,-95.5 119,-114.5 217,-114.5 217,-95.5 119,-95.5"/>
<text text-anchor="middle" x="168" y="-102.5" font-family="Helvetica,sans-Serif" font-size="10.00">IG.Script.AppBase</text>
</a>
</g>
</g>
<!-- Node4 -->
<g id="node4" class="node"><title>Node4</title>
<g id="a_node4"><a xlink:href="../../db/dff/classIG_1_1App_1_1AppHashShell.html" target="_top" xlink:title="Internal script for running embedded applications.">
<polygon fill="white" stroke="black" points="272.5,-202.5 272.5,-221.5 383.5,-221.5 383.5,-202.5 272.5,-202.5"/>
<text text-anchor="middle" x="328" y="-209.5" font-family="Helvetica,sans-Serif" font-size="10.00">IG.App.AppHashShell</text>
</a>
</g>
</g>
<!-- Node1&#45;&gt;Node4 -->
<g id="edge3" class="edge"><title>Node1&#45;&gt;Node4</title>
<path fill="none" stroke="midnightblue" d="M181.585,-122.948C196.421,-142.769 222.9,-174.224 253,-192 260.334,-196.331 268.626,-199.747 276.938,-202.434"/>
<polygon fill="midnightblue" stroke="midnightblue" points="184.332,-120.775 175.617,-114.75 178.673,-124.895 184.332,-120.775"/>
</g>
<!-- Node5 -->
<g id="node5" class="node"><title>Node5</title>
<g id="a_node5"><a xlink:href="../../d5/dc1/classIG_1_1Script_1_1AppEmbeddedCryptoIGShell.html" target="_top" xlink:title="Embedded script class for cryptographic utilities such as calculation and verification of file hashes...">
<polygon fill="white" stroke="black" points="253,-153 253,-183 403,-183 403,-153 253,-153"/>
<text text-anchor="start" x="261" y="-171" font-family="Helvetica,sans-Serif" font-size="10.00">IG.Script.AppEmbeddedCrypto</text>
<text text-anchor="middle" x="328" y="-160" font-family="Helvetica,sans-Serif" font-size="10.00">IGShell</text>
</a>
</g>
</g>
<!-- Node1&#45;&gt;Node5 -->
<g id="edge4" class="edge"><title>Node1&#45;&gt;Node5</title>
<path fill="none" stroke="midnightblue" d="M198.155,-119.048C214.177,-126.549 234.501,-135.712 253,-143 261.705,-146.43 271.094,-149.827 280.165,-152.96"/>
<polygon fill="midnightblue" stroke="midnightblue" points="199.326,-115.73 188.789,-114.623 196.336,-122.059 199.326,-115.73"/>
</g>
<!-- Node6 -->
<g id="node6" class="node"><title>Node6</title>
<g id="a_node6"><a xlink:href="../../d0/dec/classIG_1_1Script_1_1AppExtBase.html" target="_top" xlink:title="Internal script for running embedded applications.">
<polygon fill="white" stroke="black" points="271.5,-114.5 271.5,-133.5 384.5,-133.5 384.5,-114.5 271.5,-114.5"/>
<text text-anchor="middle" x="328" y="-121.5" font-family="Helvetica,sans-Serif" font-size="10.00">IG.Script.AppExtBase</text>
</a>
</g>
</g>
<!-- Node1&#45;&gt;Node6 -->
<g id="edge5" class="edge"><title>Node1&#45;&gt;Node6</title>
<path fill="none" stroke="midnightblue" d="M227.49,-112.034C241.81,-113.756 257.095,-115.594 271.281,-117.3"/>
<polygon fill="midnightblue" stroke="midnightblue" points="227.61,-108.523 217.264,-110.804 226.774,-115.473 227.61,-108.523"/>
</g>
<!-- Node17 -->
<g id="node17" class="node"><title>Node17</title>
<g id="a_node17"><a xlink:href="../../db/d07/classIG_1_1Script_1_1AppIgorForFerdo.html" target="_top" xlink:title="Internal script for running embedded applications.">
<polygon fill="white" stroke="black" points="263,-76.5 263,-95.5 393,-95.5 393,-76.5 263,-76.5"/>
<text text-anchor="middle" x="328" y="-83.5" font-family="Helvetica,sans-Serif" font-size="10.00">IG.Script.AppIgorForFerdo</text>
</a>
</g>
</g>
<!-- Node1&#45;&gt;Node17 -->
<g id="edge16" class="edge"><title>Node1&#45;&gt;Node17</title>
<path fill="none" stroke="midnightblue" d="M227.229,-97.9978C238.786,-96.608 250.982,-95.1414 262.728,-93.7289"/>
<polygon fill="midnightblue" stroke="midnightblue" points="226.774,-94.5272 217.264,-99.1961 227.61,-101.477 226.774,-94.5272"/>
</g>
<!-- Node19 -->
<g id="node19" class="node"><title>Node19</title>
<g id="a_node19"><a xlink:href="../../d5/d77/classIG_1_1Script_1_1AppIGShell.html" target="_top" xlink:title="Internal script for running embedded applications.">
<polygon fill="white" stroke="black" points="274.5,-38.5 274.5,-57.5 381.5,-57.5 381.5,-38.5 274.5,-38.5"/>
<text text-anchor="middle" x="328" y="-45.5" font-family="Helvetica,sans-Serif" font-size="10.00">IG.Script.AppIGShell</text>
</a>
</g>
</g>
<!-- Node1&#45;&gt;Node19 -->
<g id="edge18" class="edge"><title>Node1&#45;&gt;Node19</title>
<path fill="none" stroke="midnightblue" d="M196.997,-90.8589C213.097,-83.1031 233.868,-73.7265 253,-67 263.136,-63.4365 274.266,-60.2259 284.746,-57.5016"/>
<polygon fill="midnightblue" stroke="midnightblue" points="195.077,-87.9018 187.632,-95.4403 198.153,-94.1897 195.077,-87.9018"/>
</g>
<!-- Node20 -->
<g id="node20" class="node"><title>Node20</title>
<g id="a_node20"><a xlink:href="../../dc/d40/classIG_1_1Script_1_1ScriptAppIgBaseExt.html" target="_top" xlink:title="Internal script interpreter for running embedded applications.">
<polygon fill="white" stroke="black" points="255,-0.5 255,-19.5 401,-19.5 401,-0.5 255,-0.5"/>
<text text-anchor="middle" x="328" y="-7.5" font-family="Helvetica,sans-Serif" font-size="10.00">IG.Script.ScriptAppIgBaseExt</text>
</a>
</g>
</g>
<!-- Node1&#45;&gt;Node20 -->
<g id="edge19" class="edge"><title>Node1&#45;&gt;Node20</title>
<path fill="none" stroke="midnightblue" d="M183.435,-87.7468C198.897,-70.3726 225.016,-44.0482 253,-29 260.126,-25.168 268.058,-22.0835 276.006,-19.6077"/>
<polygon fill="midnightblue" stroke="midnightblue" points="180.646,-85.6202 176.739,-95.4683 185.935,-90.2063 180.646,-85.6202"/>
</g>
<!-- Node2 -->
<g id="node2" class="node"><title>Node2</title>
<g id="a_node2"><a xlink:href="../../db/da4/classIG_1_1Script_1_1ScriptAppBase.html" target="_top" xlink:title="Partial class definition containing tests of CSV utilities.">
<polygon fill="white" stroke="black" points="0.5,-114.5 0.5,-133.5 82.5,-133.5 82.5,-114.5 0.5,-114.5"/>
<text text-anchor="middle" x="41.5" y="-121.5" font-family="Helvetica,sans-Serif" font-size="10.00">ScriptAppBase</text>
</a>
</g>
</g>
<!-- Node2&#45;&gt;Node1 -->
<g id="edge1" class="edge"><title>Node2&#45;&gt;Node1</title>
<path fill="none" stroke="midnightblue" d="M92.5286,-116.365C101.169,-115.047 110.136,-113.678 118.729,-112.367"/>
<polygon fill="midnightblue" stroke="midnightblue" points="91.9354,-112.915 82.5779,-117.884 92.9915,-119.835 91.9354,-112.915"/>
</g>
<!-- Node3 -->
<g id="node3" class="node"><title>Node3</title>
<g id="a_node3"><a xlink:href="../../d7/d66/interfaceIG_1_1Lib_1_1ILoadableScript.html" target="_top" xlink:title="Interface for classes that can be dynamically loadeded from scripts and run, which provides functiona...">
<polygon fill="white" stroke="black" points="0,-76.5 0,-95.5 83,-95.5 83,-76.5 0,-76.5"/>
<text text-anchor="middle" x="41.5" y="-83.5" font-family="Helvetica,sans-Serif" font-size="10.00">ILoadableScript</text>
</a>
</g>
</g>
<!-- Node3&#45;&gt;Node1 -->
<g id="edge2" class="edge"><title>Node3&#45;&gt;Node1</title>
<path fill="none" stroke="midnightblue" d="M93.3346,-93.7579C101.741,-95.0409 110.436,-96.3677 118.776,-97.6405"/>
<polygon fill="midnightblue" stroke="midnightblue" points="93.6796,-90.2701 83.266,-92.2213 92.6235,-97.19 93.6796,-90.2701"/>
</g>
<!-- Node7 -->
<g id="node7" class="node"><title>Node7</title>
<g id="a_node7"><a xlink:href="../../d9/d4e/classIG_1_1Script_1_1AppIgorGresovnik.html" target="_top" xlink:title="Internal script for running embedded applications.">
<polygon fill="white" stroke="black" points="439,-190.5 439,-209.5 573,-209.5 573,-190.5 439,-190.5"/>
<text text-anchor="middle" x="506" y="-197.5" font-family="Helvetica,sans-Serif" font-size="10.00">IG.Script.AppIgorGresovnik</text>
</a>
</g>
</g>
<!-- Node6&#45;&gt;Node7 -->
<g id="edge6" class="edge"><title>Node6&#45;&gt;Node7</title>
<path fill="none" stroke="midnightblue" d="M390.84,-136.997C395.068,-138.754 399.167,-140.744 403,-143 423.051,-154.799 419.122,-168.912 439,-181 445.316,-184.841 452.445,-187.936 459.621,-190.421"/>
<polygon fill="midnightblue" stroke="midnightblue" points="392.02,-133.702 381.427,-133.514 389.591,-140.267 392.02,-133.702"/>
</g>
<!-- Node13 -->
<g id="node13" class="node"><title>Node13</title>
<g id="a_node13"><a xlink:href="../../da/d0b/classIG_1_1Script_1_1AppShellExt.html" target="_top" xlink:title="Internal script for running embedded applications.">
<polygon fill="white" stroke="black" points="450,-152.5 450,-171.5 562,-171.5 562,-152.5 450,-152.5"/>
<text text-anchor="middle" x="506" y="-159.5" font-family="Helvetica,sans-Serif" font-size="10.00">IG.Script.AppShellExt</text>
</a>
</g>
</g>
<!-- Node6&#45;&gt;Node13 -->
<g id="edge12" class="edge"><title>Node6&#45;&gt;Node13</title>
<path fill="none" stroke="midnightblue" d="M383.433,-135.753C408.319,-141.126 437.419,-147.409 460.907,-152.48"/>
<polygon fill="midnightblue" stroke="midnightblue" points="383.926,-132.278 373.412,-133.589 382.448,-139.121 383.926,-132.278"/>
</g>
<!-- Node14 -->
<g id="node14" class="node"><title>Node14</title>
<g id="a_node14"><a xlink:href="../../df/d21/classIG_1_1Script_1_1AppShellExtExt.html" target="_top" xlink:title="Internal script for running embedded applications.">
<polygon fill="white" stroke="black" points="442.5,-114.5 442.5,-133.5 569.5,-133.5 569.5,-114.5 442.5,-114.5"/>
<text text-anchor="middle" x="506" y="-121.5" font-family="Helvetica,sans-Serif" font-size="10.00">IG.Script.AppShellExtExt</text>
</a>
</g>
</g>
<!-- Node6&#45;&gt;Node14 -->
<g id="edge13" class="edge"><title>Node6&#45;&gt;Node14</title>
<path fill="none" stroke="midnightblue" d="M394.756,-124C410.329,-124 426.897,-124 442.329,-124"/>
<polygon fill="midnightblue" stroke="midnightblue" points="394.688,-120.5 384.688,-124 394.687,-127.5 394.688,-120.5"/>
</g>
<!-- Node15 -->
<g id="node15" class="node"><title>Node15</title>
<g id="a_node15"><a xlink:href="../../d2/df3/classIG_1_1Script_1_1AppTestShell.html" target="_top" xlink:title="Internal script for running embedded applications.">
<polygon fill="white" stroke="black" points="448,-76.5 448,-95.5 564,-95.5 564,-76.5 448,-76.5"/>
<text text-anchor="middle" x="506" y="-83.5" font-family="Helvetica,sans-Serif" font-size="10.00">IG.Script.AppTestShell</text>
</a>
</g>
</g>
<!-- Node6&#45;&gt;Node15 -->
<g id="edge14" class="edge"><title>Node6&#45;&gt;Node15</title>
<path fill="none" stroke="midnightblue" d="M383.433,-112.247C408.319,-106.874 437.419,-100.591 460.907,-95.5201"/>
<polygon fill="midnightblue" stroke="midnightblue" points="382.448,-108.879 373.412,-114.411 383.926,-115.722 382.448,-108.879"/>
</g>
<!-- Node8 -->
<g id="node8" class="node"><title>Node8</title>
<g id="a_node8"><a xlink:href="../../dc/de4/classIG_1_1Script_1_1AppMarkoEmbeddedTest.html" target="_top" xlink:title="Test embedded script class, used to demonstrate how nested embedded scripts can be run by the main sc...">
<polygon fill="white" stroke="black" points="609,-209.5 609,-228.5 776,-228.5 776,-209.5 609,-209.5"/>
<text text-anchor="middle" x="692.5" y="-216.5" font-family="Helvetica,sans-Serif" font-size="10.00">IG.Script.AppMarkoEmbeddedTest</text>
</a>
</g>
</g>
<!-- Node7&#45;&gt;Node8 -->
<g id="edge7" class="edge"><title>Node7&#45;&gt;Node8</title>
<path fill="none" stroke="midnightblue" d="M583.261,-207.853C591.692,-208.722 600.307,-209.609 608.812,-210.485"/>
<polygon fill="midnightblue" stroke="midnightblue" points="583.394,-204.349 573.088,-206.806 582.676,-211.312 583.394,-204.349"/>
</g>
<!-- Node9 -->
<g id="node9" class="node"><title>Node9</title>
<g id="a_node9"><a xlink:href="../../dd/d51/classIG_1_1Script_1_1AppMarkoPetek.html" target="_top" xlink:title="Internal script for running embedded applications.">
<polygon fill="white" stroke="black" points="628.5,-171.5 628.5,-190.5 756.5,-190.5 756.5,-171.5 628.5,-171.5"/>
<text text-anchor="middle" x="692.5" y="-178.5" font-family="Helvetica,sans-Serif" font-size="10.00">IG.Script.AppMarkoPetek</text>
</a>
</g>
</g>
<!-- Node7&#45;&gt;Node9 -->
<g id="edge8" class="edge"><title>Node7&#45;&gt;Node9</title>
<path fill="none" stroke="midnightblue" d="M583.34,-192.138C598.312,-190.597 613.86,-188.995 628.342,-187.504"/>
<polygon fill="midnightblue" stroke="midnightblue" points="582.676,-188.688 573.088,-193.194 583.394,-195.651 582.676,-188.688"/>
</g>
<!-- Node10 -->
<g id="node10" class="node"><title>Node10</title>
<g id="a_node10"><a xlink:href="../../dd/d84/classIG_1_1Script_1_1AppMarkoPetekDerivedScript.html" target="_top" xlink:title="Tells to the interpreter, which custom classes are available.">
<polygon fill="white" stroke="black" points="812,-188 812,-218 971,-218 971,-188 812,-188"/>
<text text-anchor="start" x="820" y="-206" font-family="Helvetica,sans-Serif" font-size="10.00">IG.Script.AppMarkoPetekDerived</text>
<text text-anchor="middle" x="891.5" y="-195" font-family="Helvetica,sans-Serif" font-size="10.00">Script</text>
</a>
</g>
</g>
<!-- Node9&#45;&gt;Node10 -->
<g id="edge9" class="edge"><title>Node9&#45;&gt;Node10</title>
<path fill="none" stroke="midnightblue" d="M766.685,-189.173C781.4,-190.816 796.923,-192.55 811.815,-194.213"/>
<polygon fill="midnightblue" stroke="midnightblue" points="766.972,-185.683 756.645,-188.052 766.195,-192.64 766.972,-185.683"/>
</g>
<!-- Node11 -->
<g id="node11" class="node"><title>Node11</title>
<g id="a_node11"><a xlink:href="../../d0/d8c/classIG_1_1Script_1_1AppMarkoPetekExt.html" target="_top" xlink:title="Internal script for running EXTENDED embedded applications.">
<polygon fill="white" stroke="black" points="820,-149.5 820,-168.5 963,-168.5 963,-149.5 820,-149.5"/>
<text text-anchor="middle" x="891.5" y="-156.5" font-family="Helvetica,sans-Serif" font-size="10.00">IG.Script.AppMarkoPetekExt</text>
</a>
</g>
</g>
<!-- Node9&#45;&gt;Node11 -->
<g id="edge10" class="edge"><title>Node9&#45;&gt;Node11</title>
<path fill="none" stroke="midnightblue" d="M766.726,-172.822C784.099,-170.882 802.596,-168.817 819.852,-166.89"/>
<polygon fill="midnightblue" stroke="midnightblue" points="766.195,-169.36 756.645,-173.948 766.972,-176.317 766.195,-169.36"/>
</g>
<!-- Node12 -->
<g id="node12" class="node"><title>Node12</title>
<g id="a_node12"><a xlink:href="../../db/d4d/classIG_1_1Script_1_1AppMarkoPetekDerivedScriptExt.html" target="_top" xlink:title="Tells to the interpreter, which custom classes are available.">
<polygon fill="white" stroke="black" points="1007,-144 1007,-174 1166,-174 1166,-144 1007,-144"/>
<text text-anchor="start" x="1015" y="-162" font-family="Helvetica,sans-Serif" font-size="10.00">IG.Script.AppMarkoPetekDerived</text>
<text text-anchor="middle" x="1086.5" y="-151" font-family="Helvetica,sans-Serif" font-size="10.00">ScriptExt</text>
</a>
</g>
</g>
<!-- Node11&#45;&gt;Node12 -->
<g id="edge11" class="edge"><title>Node11&#45;&gt;Node12</title>
<path fill="none" stroke="midnightblue" d="M973.37,-159C984.473,-159 995.86,-159 1006.92,-159"/>
<polygon fill="midnightblue" stroke="midnightblue" points="973.27,-155.5 963.27,-159 973.27,-162.5 973.27,-155.5"/>
</g>
<!-- Node16 -->
<g id="node16" class="node"><title>Node16</title>
<g id="a_node16"><a xlink:href="../../d4/dfe/classIG_1_1Script_1_1AppTestShellExt.html" target="_top" xlink:title="Internal script for running embedded applications.">
<polygon fill="white" stroke="black" points="627,-76.5 627,-95.5 758,-95.5 758,-76.5 627,-76.5"/>
<text text-anchor="middle" x="692.5" y="-83.5" font-family="Helvetica,sans-Serif" font-size="10.00">IG.Script.AppTestShellExt</text>
</a>
</g>
</g>
<!-- Node15&#45;&gt;Node16 -->
<g id="edge15" class="edge"><title>Node15&#45;&gt;Node16</title>
<path fill="none" stroke="midnightblue" d="M574.577,-86C591.671,-86 609.986,-86 626.928,-86"/>
<polygon fill="midnightblue" stroke="midnightblue" points="574.113,-82.5001 564.113,-86 574.113,-89.5001 574.113,-82.5001"/>
</g>
<!-- Node18 -->
<g id="node18" class="node"><title>Node18</title>
<g id="a_node18"><a xlink:href="../../d9/d52/classIG_1_1Script_1_1AppFerdo.html" target="_top" xlink:title="Internal script for running embedded applications.">
<polygon fill="white" stroke="black" points="456,-38.5 456,-57.5 556,-57.5 556,-38.5 456,-38.5"/>
<text text-anchor="middle" x="506" y="-45.5" font-family="Helvetica,sans-Serif" font-size="10.00">IG.Script.AppFerdo</text>
</a>
</g>
</g>
<!-- Node17&#45;&gt;Node18 -->
<g id="edge17" class="edge"><title>Node17&#45;&gt;Node18</title>
<path fill="none" stroke="midnightblue" d="M383.433,-74.2474C408.319,-68.8742 437.419,-62.5914 460.907,-57.5201"/>
<polygon fill="midnightblue" stroke="midnightblue" points="382.448,-70.8793 373.412,-76.411 383.926,-77.7216 382.448,-70.8793"/>
</g>
<!-- Node21 -->
<g id="node21" class="node"><title>Node21</title>
<g id="a_node21"><a xlink:href="../../d4/de8/classIG_1_1Script_1_1ScriptAppIGShell.html" target="_top" xlink:title="Internal script for running embedded applications.">
<polygon fill="white" stroke="black" points="440,-0.5 440,-19.5 572,-19.5 572,-0.5 440,-0.5"/>
<text text-anchor="middle" x="506" y="-7.5" font-family="Helvetica,sans-Serif" font-size="10.00">IG.Script.ScriptAppIGShell</text>
</a>
</g>
</g>
<!-- Node20&#45;&gt;Node21 -->
<g id="edge20" class="edge"><title>Node20&#45;&gt;Node21</title>
<path fill="none" stroke="midnightblue" d="M411.384,-10C420.918,-10 430.54,-10 439.801,-10"/>
<polygon fill="midnightblue" stroke="midnightblue" points="411.094,-6.5001 401.094,-10 411.094,-13.5001 411.094,-6.5001"/>
</g>
</g>
</svg>
        <g id="navigator" transform="translate(0 0)" fill="#404254">
                <rect fill="#f2f5e9" fill-opacity="0.5" stroke="#606060" stroke-width=".5" x="0" y="0" width="60" height="60"/>
                <use id="zoomplus" xlink:href="#zoomPlus" x="17" y="9" onmousedown="handleZoom(evt,'in')"/>
                <use id="zoomminus" xlink:href="#zoomMin" x="42" y="9" onmousedown="handleZoom(evt,'out')"/>
                <use id="reset" xlink:href="#resetDef" x="30" y="36" onmousedown="handleReset()"/>
                <g id="arrowUp" xlink:href="#dirArrow" transform="translate(30 24)" onmousedown="handlePan(0,-1)">
                  <use xlink:href="#rim" fill="#404040">
                        <set attributeName="fill" to="#808080" begin="arrowUp.mouseover" end="arrowUp.mouseout"/>
                  </use>
                  <path fill="none" stroke="white" stroke-width="1.5" d="M0,-3.0v7 M-2.5,-0.5L0,-3.0L2.5,-0.5"/>
                </g>
                <g id="arrowRight" xlink:href="#dirArrow" transform="rotate(90) translate(36 -43)" onmousedown="handlePan(1,0)">
                  <use xlink:href="#rim" fill="#404040">
                        <set attributeName="fill" to="#808080" begin="arrowRight.mouseover" end="arrowRight.mouseout"/>
                  </use>
                  <path fill="none" stroke="white" stroke-width="1.5" d="M0,-3.0v7 M-2.5,-0.5L0,-3.0L2.5,-0.5"/>
                </g>
                <g id="arrowDown" xlink:href="#dirArrow" transform="rotate(180) translate(-30 -48)" onmousedown="handlePan(0,1)">
                  <use xlink:href="#rim" fill="#404040">
                        <set attributeName="fill" to="#808080" begin="arrowDown.mouseover" end="arrowDown.mouseout"/>
                  </use>
                  <path fill="none" stroke="white" stroke-width="1.5" d="M0,-3.0v7 M-2.5,-0.5L0,-3.0L2.5,-0.5"/>
                </g>
                <g id="arrowLeft" xlink:href="#dirArrow" transform="rotate(270) translate(-36 17)" onmousedown="handlePan(-1,0)">
                  <use xlink:href="#rim" fill="#404040">
                        <set attributeName="fill" to="#808080" begin="arrowLeft.mouseover" end="arrowLeft.mouseout"/>
                  </use>
                  <path fill="none" stroke="white" stroke-width="1.5" d="M0,-3.0v7 M-2.5,-0.5L0,-3.0L2.5,-0.5"/>
                </g>
        </g>
        <svg viewBox="0 0 15 15" width="100%" height="30px" preserveAspectRatio="xMaxYMin meet">
         <g id="arrow_out" transform="scale(0.3 0.3)">
          <a xlink:href="classIG_1_1Script_1_1AppBase__inherit__graph_org.svg" target="_base">
           <rect id="button" ry="5" rx="5" y="6" x="6" height="38" width="38"
                fill="#f2f5e9" fill-opacity="0.5" stroke="#606060" stroke-width="1.0"/>
           <path id="arrow"
             d="M 11.500037,31.436501 C 11.940474,20.09759 22.043105,11.32322 32.158766,21.979434 L 37.068811,17.246167 C 37.068811,17.246167 37.088388,32 37.088388,32 L 22.160133,31.978069 C 22.160133,31.978069 26.997745,27.140456 26.997745,27.140456 C 18.528582,18.264221 13.291696,25.230495 11.500037,31.436501 z"
             style="fill:#404040;"/>
          </a>
         </g>
        </svg>
</svg>
