<?xml version="1.0" encoding="UTF-8" standalone="no"?>
<!DOCTYPE svg PUBLIC "-//W3C//DTD SVG 1.1//EN"
 "http://www.w3.org/Graphics/SVG/1.1/DTD/svg11.dtd">
<!-- Generated by graphviz version 2.38.0 (20140413.2041)
 -->
<!-- Title: CShell.Modules.Repl.Views.ReplView Pages: 1 -->
<svg width="154pt" height="95pt"
 viewBox="0.00 0.00 153.50 95.00" xmlns="http://www.w3.org/2000/svg" xmlns:xlink="http://www.w3.org/1999/xlink">
<g id="graph0" class="graph" transform="scale(1 1) rotate(0) translate(4 91)">
<title>CShell.Modules.Repl.Views.ReplView</title>
<polygon fill="white" stroke="none" points="-4,4 -4,-91 149.5,-91 149.5,4 -4,4"/>
<!-- Node1 -->
<g id="node1" class="node"><title>Node1</title>
<g id="a_node1"><a xlink:title="Interaction logic for ReplView.xaml">
<polygon fill="#bfbfbf" stroke="black" points="5,-0.5 5,-30.5 145,-30.5 145,-0.5 5,-0.5"/>
<text text-anchor="start" x="13" y="-18.5" font-family="Helvetica,sans-Serif" font-size="10.00">CShell.Modules.Repl.Views.</text>
<text text-anchor="middle" x="75" y="-7.5" font-family="Helvetica,sans-Serif" font-size="10.00">ReplView</text>
</a>
</g>
</g>
<!-- Node2 -->
<g id="node2" class="node"><title>Node2</title>
<g id="a_node2"><a xlink:title=" ">
<polygon fill="white" stroke="#bfbfbf" points="0,-67.5 0,-86.5 68,-86.5 68,-67.5 0,-67.5"/>
<text text-anchor="middle" x="34" y="-74.5" font-family="Helvetica,sans-Serif" font-size="10.00">UserControl</text>
</a>
</g>
</g>
<!-- Node2&#45;&gt;Node1 -->
<g id="edge1" class="edge"><title>Node2&#45;&gt;Node1</title>
<path fill="none" stroke="midnightblue" d="M45.7395,-58.9634C51.946,-49.9564 59.4721,-39.0344 65.3371,-30.523"/>
<polygon fill="midnightblue" stroke="midnightblue" points="42.6664,-57.2548 39.8743,-67.4751 48.4305,-61.2267 42.6664,-57.2548"/>
</g>
<!-- Node3 -->
<g id="node3" class="node"><title>Node3</title>
<g id="a_node3"><a xlink:href="../../dc/d1a/interfaceCShell_1_1Modules_1_1Repl_1_1Views_1_1IReplView.html" target="_top" xlink:title=" ">
<polygon fill="white" stroke="black" points="86.5,-67.5 86.5,-86.5 145.5,-86.5 145.5,-67.5 86.5,-67.5"/>
<text text-anchor="middle" x="116" y="-74.5" font-family="Helvetica,sans-Serif" font-size="10.00">IReplView</text>
</a>
</g>
</g>
<!-- Node3&#45;&gt;Node1 -->
<g id="edge2" class="edge"><title>Node3&#45;&gt;Node1</title>
<path fill="none" stroke="midnightblue" d="M104.26,-58.9634C98.054,-49.9564 90.5279,-39.0344 84.6629,-30.523"/>
<polygon fill="midnightblue" stroke="midnightblue" points="101.57,-61.2267 110.126,-67.4751 107.334,-57.2548 101.57,-61.2267"/>
</g>
</g>
</svg>
