<?xml version="1.0" encoding="UTF-8" standalone="no"?>
<!DOCTYPE svg PUBLIC "-//W3C//DTD SVG 1.1//EN"
 "http://www.w3.org/Graphics/SVG/1.1/DTD/svg11.dtd">
<!-- Generated by graphviz version 2.38.0 (20140413.2041)
 -->
<!-- Title: NUnit.Framework.Internal.Commands.TestActionCommand Pages: 1 -->
<svg width="168pt" height="151pt"
 viewBox="0.00 0.00 168.00 151.00" xmlns="http://www.w3.org/2000/svg" xmlns:xlink="http://www.w3.org/1999/xlink">
<g id="graph0" class="graph" transform="scale(1 1) rotate(0) translate(4 147)">
<title>NUnit.Framework.Internal.Commands.TestActionCommand</title>
<polygon fill="white" stroke="none" points="-4,4 -4,-147 164,-147 164,4 -4,4"/>
<!-- Node1 -->
<g id="node1" class="node"><title>Node1</title>
<g id="a_node1"><a xlink:title="TestActionCommand runs the BeforeTest actions for a test, then runs the test and finally runs the Aft...">
<polygon fill="#bfbfbf" stroke="black" points="0,-0.5 0,-30.5 160,-30.5 160,-0.5 0,-0.5"/>
<text text-anchor="start" x="8" y="-18.5" font-family="Helvetica,sans-Serif" font-size="10.00">NUnit.Framework.Internal.</text>
<text text-anchor="middle" x="80" y="-7.5" font-family="Helvetica,sans-Serif" font-size="10.00">Commands.TestActionCommand</text>
</a>
</g>
</g>
<!-- Node2 -->
<g id="node2" class="node"><title>Node2</title>
<g id="a_node2"><a xlink:href="../../d7/dcf/classNUnit_1_1Framework_1_1Internal_1_1Commands_1_1DelegatingTestCommand.html" target="_top" xlink:title="TODO: Documentation needed for class">
<polygon fill="white" stroke="black" points="17.5,-67.5 17.5,-86.5 142.5,-86.5 142.5,-67.5 17.5,-67.5"/>
<text text-anchor="middle" x="80" y="-74.5" font-family="Helvetica,sans-Serif" font-size="10.00">DelegatingTestCommand</text>
</a>
</g>
</g>
<!-- Node2&#45;&gt;Node1 -->
<g id="edge1" class="edge"><title>Node2&#45;&gt;Node1</title>
<path fill="none" stroke="midnightblue" d="M80,-57.2349C80,-48.5864 80,-38.4969 80,-30.523"/>
<polygon fill="midnightblue" stroke="midnightblue" points="76.5001,-57.4751 80,-67.4751 83.5001,-57.4751 76.5001,-57.4751"/>
</g>
<!-- Node3 -->
<g id="node3" class="node"><title>Node3</title>
<g id="a_node3"><a xlink:href="../../d9/d0b/classNUnit_1_1Framework_1_1Internal_1_1Commands_1_1TestCommand.html" target="_top" xlink:title="TestCommand is the abstract base class for all test commands in the framework. A TestCommand represen...">
<polygon fill="white" stroke="black" points="40,-123.5 40,-142.5 120,-142.5 120,-123.5 40,-123.5"/>
<text text-anchor="middle" x="80" y="-130.5" font-family="Helvetica,sans-Serif" font-size="10.00">TestCommand</text>
</a>
</g>
</g>
<!-- Node3&#45;&gt;Node2 -->
<g id="edge2" class="edge"><title>Node3&#45;&gt;Node2</title>
<path fill="none" stroke="midnightblue" d="M80,-112.805C80,-103.91 80,-93.7798 80,-86.7511"/>
<polygon fill="midnightblue" stroke="midnightblue" points="76.5001,-113.083 80,-123.083 83.5001,-113.083 76.5001,-113.083"/>
</g>
</g>
</svg>
