<?xml version="1.0" encoding="UTF-8" standalone="no"?>
<!DOCTYPE svg PUBLIC "-//W3C//DTD SVG 1.1//EN"
 "http://www.w3.org/Graphics/SVG/1.1/DTD/svg11.dtd">
<!-- Generated by graphviz version 2.38.0 (20140413.2041)
 -->
<!-- Title: IG.Lib.CommandLineApplicationInterpreter Pages: 1 -->
<svg width="724pt" height="154pt"
 viewBox="0.00 0.00 724.00 153.50" xmlns="http://www.w3.org/2000/svg" xmlns:xlink="http://www.w3.org/1999/xlink">
<g id="graph0" class="graph" transform="scale(1 1) rotate(0) translate(4 149.5)">
<title>IG.Lib.CommandLineApplicationInterpreter</title>
<polygon fill="white" stroke="none" points="-4,4 -4,-149.5 720,-149.5 720,4 -4,4"/>
<!-- Node1 -->
<g id="node1" class="node"><title>Node1</title>
<g id="a_node1"><a xlink:title="Simple command&#45;line application interpreters, holds a set of commands that can be executed by name....">
<polygon fill="#bfbfbf" stroke="black" points="209,-87.5 209,-117.5 364,-117.5 364,-87.5 209,-87.5"/>
<text text-anchor="start" x="217" y="-105.5" font-family="Helvetica,sans-Serif" font-size="10.00">IG.Lib.CommandLineApplication</text>
<text text-anchor="middle" x="286.5" y="-94.5" font-family="Helvetica,sans-Serif" font-size="10.00">Interpreter</text>
</a>
</g>
</g>
<!-- Node4 -->
<g id="node4" class="node"><title>Node4</title>
<g id="a_node4"><a xlink:href="../../d2/d86/classIG_1_1Lib_1_1CommandLineApplicationScriptInterpreter.html" target="_top" xlink:title="Command&#45;line interpreters adapted for executing script commands.">
<polygon fill="white" stroke="black" points="400,-112.5 400,-142.5 555,-142.5 555,-112.5 400,-112.5"/>
<text text-anchor="start" x="408" y="-130.5" font-family="Helvetica,sans-Serif" font-size="10.00">IG.Lib.CommandLineApplication</text>
<text text-anchor="middle" x="477.5" y="-119.5" font-family="Helvetica,sans-Serif" font-size="10.00">ScriptInterpreter</text>
</a>
</g>
</g>
<!-- Node1&#45;&gt;Node4 -->
<g id="edge3" class="edge"><title>Node1&#45;&gt;Node4</title>
<path fill="none" stroke="midnightblue" d="M374.104,-113.956C382.674,-115.089 391.33,-116.234 399.79,-117.353"/>
<polygon fill="midnightblue" stroke="midnightblue" points="374.474,-110.474 364.101,-112.632 373.556,-117.414 374.474,-110.474"/>
</g>
<!-- Node5 -->
<g id="node5" class="node"><title>Node5</title>
<g id="a_node5"><a xlink:href="../../d6/d30/classIG_1_1Lib_1_1NeuralApplicationInterpreter.html" target="_top" xlink:title="Command line application interpreter that contains some neural networks &#45; related commands.">
<polygon fill="white" stroke="black" points="417,-63.5 417,-93.5 538,-93.5 538,-63.5 417,-63.5"/>
<text text-anchor="start" x="425" y="-81.5" font-family="Helvetica,sans-Serif" font-size="10.00">IG.Lib.NeuralApplication</text>
<text text-anchor="middle" x="477.5" y="-70.5" font-family="Helvetica,sans-Serif" font-size="10.00">Interpreter</text>
</a>
</g>
</g>
<!-- Node1&#45;&gt;Node5 -->
<g id="edge4" class="edge"><title>Node1&#45;&gt;Node5</title>
<path fill="none" stroke="midnightblue" d="M374.075,-91.5064C388.563,-89.6666 403.302,-87.795 416.916,-86.0662"/>
<polygon fill="midnightblue" stroke="midnightblue" points="373.58,-88.0409 364.101,-92.7729 374.462,-94.9852 373.58,-88.0409"/>
</g>
<!-- Node2 -->
<g id="node2" class="node"><title>Node2</title>
<g id="a_node2"><a xlink:href="../../de/dfd/interfaceIG_1_1Lib_1_1ICommandLineApplicationInterpreter.html" target="_top" xlink:title="Interface for simple command&#45;line applicatino interpreters.">
<polygon fill="white" stroke="black" points="0,-112 0,-131 173,-131 173,-112 0,-112"/>
<text text-anchor="middle" x="86.5" y="-119" font-family="Helvetica,sans-Serif" font-size="10.00">ICommandLineApplicationInterpreter</text>
</a>
</g>
</g>
<!-- Node2&#45;&gt;Node1 -->
<g id="edge1" class="edge"><title>Node2&#45;&gt;Node1</title>
<path fill="none" stroke="midnightblue" d="M183.205,-112.316C191.758,-111.495 200.344,-110.671 208.708,-109.869"/>
<polygon fill="midnightblue" stroke="midnightblue" points="182.814,-108.838 173.194,-113.277 183.483,-115.806 182.814,-108.838"/>
</g>
<!-- Node3 -->
<g id="node3" class="node"><title>Node3</title>
<g id="a_node3"><a xlink:href="../../d3/db6/interfaceIG_1_1Lib_1_1ILockable.html" target="_top" xlink:title="Lockable object, has a Lock property that returns object on which lock must be performed in order to ...">
<polygon fill="white" stroke="black" points="57.5,-74 57.5,-93 115.5,-93 115.5,-74 57.5,-74"/>
<text text-anchor="middle" x="86.5" y="-81" font-family="Helvetica,sans-Serif" font-size="10.00">ILockable</text>
</a>
</g>
</g>
<!-- Node3&#45;&gt;Node1 -->
<g id="edge2" class="edge"><title>Node3&#45;&gt;Node1</title>
<path fill="none" stroke="midnightblue" d="M126.13,-87.2069C149.669,-89.4657 180.574,-92.4313 208.897,-95.1492"/>
<polygon fill="midnightblue" stroke="midnightblue" points="126.157,-83.6935 115.869,-86.2222 125.488,-90.6615 126.157,-83.6935"/>
</g>
<!-- Node6 -->
<g id="node6" class="node"><title>Node6</title>
<g id="a_node6"><a xlink:href="../../de/de7/classIG_1_1Lib_1_1AppExtendedShell.html" target="_top" xlink:title=" ">
<polygon fill="white" stroke="black" points="591,-126 591,-145 716,-145 716,-126 591,-126"/>
<text text-anchor="middle" x="653.5" y="-133" font-family="Helvetica,sans-Serif" font-size="10.00">IG.Lib.AppExtendedShell</text>
</a>
</g>
</g>
<!-- Node5&#45;&gt;Node6 -->
<g id="edge5" class="edge"><title>Node5&#45;&gt;Node6</title>
<path fill="none" stroke="midnightblue" d="M535.224,-96.8221C541.9,-99.0421 548.608,-101.302 555,-103.5 571.087,-109.032 574.869,-111.099 591,-116.5 600.537,-119.693 610.97,-122.99 620.489,-125.922"/>
<polygon fill="midnightblue" stroke="midnightblue" points="536.099,-93.4251 525.506,-93.6098 533.902,-100.071 536.099,-93.4251"/>
</g>
<!-- Node7 -->
<g id="node7" class="node"><title>Node7</title>
<g id="a_node7"><a xlink:href="../../d7/d4a/classIG_1_1Lib_1_1AppTestOpt.html" target="_top" xlink:title=" ">
<polygon fill="white" stroke="black" points="605,-88 605,-107 702,-107 702,-88 605,-88"/>
<text text-anchor="middle" x="653.5" y="-95" font-family="Helvetica,sans-Serif" font-size="10.00">IG.Lib.AppTestOpt</text>
</a>
</g>
</g>
<!-- Node5&#45;&gt;Node7 -->
<g id="edge6" class="edge"><title>Node5&#45;&gt;Node7</title>
<path fill="none" stroke="midnightblue" d="M548.463,-86.1396C567.404,-88.2079 587.466,-90.3985 604.866,-92.2986"/>
<polygon fill="midnightblue" stroke="midnightblue" points="548.702,-82.645 538.381,-85.0387 547.942,-89.6036 548.702,-82.645"/>
</g>
<!-- Node8 -->
<g id="node8" class="node"><title>Node8</title>
<g id="a_node8"><a xlink:href="../../da/dbd/classIG_1_1Lib_1_1MessyApplication.html" target="_top" xlink:title=" ">
<polygon fill="white" stroke="black" points="592.5,-50 592.5,-69 714.5,-69 714.5,-50 592.5,-50"/>
<text text-anchor="middle" x="653.5" y="-57" font-family="Helvetica,sans-Serif" font-size="10.00">IG.Lib.MessyApplication</text>
</a>
</g>
</g>
<!-- Node5&#45;&gt;Node8 -->
<g id="edge7" class="edge"><title>Node5&#45;&gt;Node8</title>
<path fill="none" stroke="midnightblue" d="M548.736,-70.8305C563.145,-69.2571 578.192,-67.6141 592.214,-66.083"/>
<polygon fill="midnightblue" stroke="midnightblue" points="547.942,-67.3964 538.381,-71.9613 548.702,-74.355 547.942,-67.3964"/>
</g>
<!-- Node9 -->
<g id="node9" class="node"><title>Node9</title>
<g id="a_node9"><a xlink:href="../../d2/d0e/classIG_1_1Lib_1_1NeuralApplicationInterpreterNeuronDotNet.html" target="_top" xlink:title=" ">
<polygon fill="white" stroke="black" points="593,-0.5 593,-30.5 714,-30.5 714,-0.5 593,-0.5"/>
<text text-anchor="start" x="601" y="-18.5" font-family="Helvetica,sans-Serif" font-size="10.00">IG.Lib.NeuralApplication</text>
<text text-anchor="middle" x="653.5" y="-7.5" font-family="Helvetica,sans-Serif" font-size="10.00">InterpreterNeuronDotNet</text>
</a>
</g>
</g>
<!-- Node5&#45;&gt;Node9 -->
<g id="edge8" class="edge"><title>Node5&#45;&gt;Node9</title>
<path fill="none" stroke="midnightblue" d="M529.802,-59.925C555.628,-50.5744 586.53,-39.3855 610.862,-30.576"/>
<polygon fill="midnightblue" stroke="midnightblue" points="528.388,-56.7145 520.177,-63.4099 530.772,-63.2964 528.388,-56.7145"/>
</g>
</g>
</svg>
