<?xml version="1.0" encoding="UTF-8" standalone="no"?>
<!DOCTYPE svg PUBLIC "-//W3C//DTD SVG 1.1//EN"
 "http://www.w3.org/Graphics/SVG/1.1/DTD/svg11.dtd">
<!-- Generated by graphviz version 2.38.0 (20140413.2041)
 -->
<!-- Title: Meta.Numerics.Matrices.ComplexEigensystem Pages: 1 -->
<svg width="199pt" height="206pt"
 viewBox="0.00 0.00 198.50 206.00" xmlns="http://www.w3.org/2000/svg" xmlns:xlink="http://www.w3.org/1999/xlink">
<g id="graph0" class="graph" transform="scale(1 1) rotate(0) translate(4 202)">
<title>Meta.Numerics.Matrices.ComplexEigensystem</title>
<polygon fill="white" stroke="none" points="-4,4 -4,-202 194.5,-202 194.5,4 -4,4"/>
<!-- Node1 -->
<g id="node1" class="node"><title>Node1</title>
<g id="a_node1"><a xlink:title="Represents a collection of complex eigenvalues and eigenvectors.">
<polygon fill="#bfbfbf" stroke="black" points="26.5,-0.5 26.5,-30.5 190.5,-30.5 190.5,-0.5 26.5,-0.5"/>
<text text-anchor="start" x="34.5" y="-18.5" font-family="Helvetica,sans-Serif" font-size="10.00">Meta.Numerics.Matrices.Complex</text>
<text text-anchor="middle" x="108.5" y="-7.5" font-family="Helvetica,sans-Serif" font-size="10.00">Eigensystem</text>
</a>
</g>
</g>
<!-- Node2 -->
<g id="node2" class="node"><title>Node2</title>
<g id="a_node2"><a xlink:href="../../dc/d14/structMeta_1_1Numerics_1_1Complex.html" target="_top" xlink:title="Represents a complex number.">
<polygon fill="white" stroke="black" points="46.5,-89.5 46.5,-108.5 170.5,-108.5 170.5,-89.5 46.5,-89.5"/>
<text text-anchor="middle" x="108.5" y="-96.5" font-family="Helvetica,sans-Serif" font-size="10.00">Meta.Numerics.Complex</text>
</a>
</g>
</g>
<!-- Node2&#45;&gt;Node1 -->
<g id="edge1" class="edge"><title>Node2&#45;&gt;Node1</title>
<path fill="none" stroke="#9a32cd" stroke-dasharray="5,2" d="M108.5,-79.229C108.5,-64.4075 108.5,-44.0505 108.5,-30.5974"/>
<polygon fill="#9a32cd" stroke="#9a32cd" points="105,-79.278 108.5,-89.2781 112,-79.2781 105,-79.278"/>
<text text-anchor="middle" x="136" y="-63" font-family="Helvetica,sans-Serif" font-size="10.00"> eigenvalues</text>
<text text-anchor="middle" x="136" y="-52" font-family="Helvetica,sans-Serif" font-size="10.00">eigenvectors</text>
</g>
<!-- Node3 -->
<g id="node3" class="node"><title>Node3</title>
<g id="a_node3"><a xlink:title=" ">
<polygon fill="white" stroke="#bfbfbf" points="0,-178.5 0,-197.5 119,-197.5 119,-178.5 0,-178.5"/>
<text text-anchor="middle" x="59.5" y="-185.5" font-family="Helvetica,sans-Serif" font-size="10.00">IEquatable&lt; Complex &gt;</text>
</a>
</g>
</g>
<!-- Node3&#45;&gt;Node2 -->
<g id="edge2" class="edge"><title>Node3&#45;&gt;Node2</title>
<path fill="none" stroke="midnightblue" d="M69.3645,-169.485C79.7565,-151.034 95.694,-122.737 103.642,-108.625"/>
<polygon fill="midnightblue" stroke="midnightblue" points="66.2353,-167.909 64.3774,-178.34 72.3344,-171.345 66.2353,-167.909"/>
</g>
<!-- Node4 -->
<g id="node4" class="node"><title>Node4</title>
<g id="a_node4"><a xlink:title=" ">
<polygon fill="white" stroke="#bfbfbf" points="137,-178.5 137,-197.5 178,-197.5 178,-178.5 137,-178.5"/>
<text text-anchor="middle" x="157.5" y="-185.5" font-family="Helvetica,sans-Serif" font-size="10.00">static</text>
</a>
</g>
</g>
<!-- Node4&#45;&gt;Node2 -->
<g id="edge3" class="edge"><title>Node4&#45;&gt;Node2</title>
<path fill="none" stroke="#9a32cd" stroke-dasharray="5,2" d="M147.635,-169.485C137.243,-151.034 121.306,-122.737 113.358,-108.625"/>
<polygon fill="#9a32cd" stroke="#9a32cd" points="144.666,-171.345 152.623,-178.34 150.765,-167.909 144.666,-171.345"/>
<text text-anchor="middle" x="152.5" y="-152" font-family="Helvetica,sans-Serif" font-size="10.00"> One</text>
<text text-anchor="middle" x="152.5" y="-141" font-family="Helvetica,sans-Serif" font-size="10.00">I</text>
<text text-anchor="middle" x="152.5" y="-130" font-family="Helvetica,sans-Serif" font-size="10.00">Zero</text>
</g>
</g>
</svg>
