<?xml version="1.0" encoding="UTF-8" standalone="no"?>
<!DOCTYPE svg PUBLIC "-//W3C//DTD SVG 1.1//EN"
 "http://www.w3.org/Graphics/SVG/1.1/DTD/svg11.dtd">
<!-- Generated by graphviz version 2.38.0 (20140413.2041)
 -->
<!-- Title: AForge.Controls.ColorSlider Pages: 1 -->
<svg width="206pt" height="128pt"
 viewBox="0.00 0.00 206.00 128.00" xmlns="http://www.w3.org/2000/svg" xmlns:xlink="http://www.w3.org/1999/xlink">
<g id="graph0" class="graph" transform="scale(1 1) rotate(0) translate(4 124)">
<title>AForge.Controls.ColorSlider</title>
<polygon fill="white" stroke="none" points="-4,4 -4,-124 202,-124 202,4 -4,4"/>
<!-- Node1 -->
<g id="node1" class="node"><title>Node1</title>
<g id="a_node1"><a xlink:title="Color slider control.">
<polygon fill="#bfbfbf" stroke="black" points="50.5,-0.5 50.5,-19.5 187.5,-19.5 187.5,-0.5 50.5,-0.5"/>
<text text-anchor="middle" x="119" y="-7.5" font-family="Helvetica,sans-Serif" font-size="10.00">AForge.Controls.ColorSlider</text>
</a>
</g>
</g>
<!-- Node2 -->
<g id="node2" class="node"><title>Node2</title>
<g id="a_node2"><a xlink:title=" ">
<polygon fill="white" stroke="#bfbfbf" points="0,-89.5 0,-119.5 130,-119.5 130,-89.5 0,-89.5"/>
<text text-anchor="start" x="8" y="-107.5" font-family="Helvetica,sans-Serif" font-size="10.00">System::Windows::Forms</text>
<text text-anchor="middle" x="65" y="-96.5" font-family="Helvetica,sans-Serif" font-size="10.00">::Control</text>
</a>
</g>
</g>
<!-- Node2&#45;&gt;Node1 -->
<g id="edge1" class="edge"><title>Node2&#45;&gt;Node1</title>
<path fill="none" stroke="midnightblue" d="M78.2901,-80.7345C89.8253,-60.9751 105.905,-33.4313 113.968,-19.6191"/>
<polygon fill="midnightblue" stroke="midnightblue" points="75.2205,-79.0506 73.2014,-89.4512 81.2657,-82.5797 75.2205,-79.0506"/>
</g>
<!-- Node3 -->
<g id="node3" class="node"><title>Node3</title>
<g id="a_node3"><a xlink:title=" ">
<polygon fill="white" stroke="#bfbfbf" points="148,-95 148,-114 198,-114 198,-95 148,-95"/>
<text text-anchor="middle" x="173" y="-102" font-family="Helvetica,sans-Serif" font-size="10.00">System</text>
</a>
</g>
</g>
<!-- Node3&#45;&gt;Node1 -->
<g id="edge2" class="edge"><title>Node3&#45;&gt;Node1</title>
<path fill="none" stroke="#9a32cd" stroke-dasharray="5,2" d="M162.967,-86.3144C151.386,-66.4768 132.803,-34.6442 123.971,-19.5157"/>
<polygon fill="#9a32cd" stroke="#9a32cd" points="159.952,-88.0921 168.017,-94.9636 165.998,-84.5629 159.952,-88.0921"/>
<text text-anchor="middle" x="174.5" y="-63" font-family="Helvetica,sans-Serif" font-size="10.00"> fillColor</text>
<text text-anchor="middle" x="174.5" y="-52" font-family="Helvetica,sans-Serif" font-size="10.00">endColor</text>
<text text-anchor="middle" x="174.5" y="-41" font-family="Helvetica,sans-Serif" font-size="10.00">startColor</text>
</g>
</g>
</svg>
