<?xml version="1.0" encoding="UTF-8" standalone="no"?>
<!DOCTYPE svg PUBLIC "-//W3C//DTD SVG 1.1//EN"
 "http://www.w3.org/Graphics/SVG/1.1/DTD/svg11.dtd">
<!-- Generated by graphviz version 2.38.0 (20140413.2041)
 -->
<!-- Title: NUnit.Framework.Internal.Execution.WorkItem Pages: 1 -->
<svg width="1045pt" height="434pt"
 viewBox="0.00 0.00 1045.00 433.50" xmlns="http://www.w3.org/2000/svg" xmlns:xlink="http://www.w3.org/1999/xlink">
<g id="graph0" class="graph" transform="scale(1 1) rotate(0) translate(4 429.5)">
<title>NUnit.Framework.Internal.Execution.WorkItem</title>
<polygon fill="white" stroke="none" points="-4,4 -4,-429.5 1041,-429.5 1041,4 -4,4"/>
<!-- Node1 -->
<g id="node1" class="node"><title>Node1</title>
<g id="a_node1"><a xlink:title="A WorkItem may be an individual test case, a fixture or a higher level grouping of tests....">
<polygon fill="#bfbfbf" stroke="black" points="908,-57 908,-87 1037,-87 1037,-57 908,-57"/>
<text text-anchor="start" x="916" y="-75" font-family="Helvetica,sans-Serif" font-size="10.00">NUnit.Framework.Internal.</text>
<text text-anchor="middle" x="972.5" y="-64" font-family="Helvetica,sans-Serif" font-size="10.00">Execution.WorkItem</text>
</a>
</g>
</g>
<!-- Node2 -->
<g id="node2" class="node"><title>Node2</title>
<g id="a_node2"><a xlink:href="../../dc/d67/classNUnit_1_1Framework_1_1Internal_1_1TestExecutionContext.html" target="_top" xlink:title="Helper class used to save and restore certain static or singleton settings in the environment that af...">
<polygon fill="white" stroke="black" points="686,-251 686,-281 815,-281 815,-251 686,-251"/>
<text text-anchor="start" x="694" y="-269" font-family="Helvetica,sans-Serif" font-size="10.00">NUnit.Framework.Internal.</text>
<text text-anchor="middle" x="750.5" y="-258" font-family="Helvetica,sans-Serif" font-size="10.00">TestExecutionContext</text>
</a>
</g>
</g>
<!-- Node2&#45;&gt;Node1 -->
<g id="edge1" class="edge"><title>Node2&#45;&gt;Node1</title>
<path fill="none" stroke="#9a32cd" stroke-dasharray="5,2" d="M776.328,-244.106C821.4,-204.361 915.597,-121.296 954.317,-87.1521"/>
<polygon fill="#9a32cd" stroke="#9a32cd" points="773.949,-241.538 768.763,-250.777 778.578,-246.788 773.949,-241.538"/>
<text text-anchor="middle" x="869.5" y="-178" font-family="Helvetica,sans-Serif" font-size="10.00"> _context</text>
</g>
<!-- Node2&#45;&gt;Node2 -->
<g id="edge5" class="edge"><title>Node2&#45;&gt;Node2</title>
<path fill="none" stroke="#9a32cd" stroke-dasharray="5,2" d="M729.533,-291.458C732.135,-296.179 739.124,-299.5 750.5,-299.5 769.168,-299.5 776.023,-290.557 771.064,-281.159"/>
<polygon fill="#9a32cd" stroke="#9a32cd" points="733.042,-291.288 729.936,-281.159 726.047,-291.014 733.042,-291.288"/>
<text text-anchor="middle" x="750.5" y="-302.5" font-family="Helvetica,sans-Serif" font-size="10.00"> _priorContext</text>
</g>
<!-- Node3 -->
<g id="node3" class="node"><title>Node3</title>
<g id="a_node3"><a xlink:href="../../d8/d34/classNUnit_1_1Framework_1_1Compatibility_1_1LongLivedMarshalByRefObject.html" target="_top" xlink:title="A MarshalByRefObject that lives forever">
<polygon fill="white" stroke="black" points="398.5,-307.5 398.5,-326.5 547.5,-326.5 547.5,-307.5 398.5,-307.5"/>
<text text-anchor="middle" x="473" y="-314.5" font-family="Helvetica,sans-Serif" font-size="10.00">LongLivedMarshalByRefObject</text>
</a>
</g>
</g>
<!-- Node3&#45;&gt;Node2 -->
<g id="edge2" class="edge"><title>Node3&#45;&gt;Node2</title>
<path fill="none" stroke="midnightblue" d="M544.608,-305.852C577.338,-300.492 616.717,-293.769 652,-287 662.968,-284.896 674.599,-282.519 685.862,-280.14"/>
<polygon fill="midnightblue" stroke="midnightblue" points="543.983,-302.408 534.676,-307.471 545.109,-309.317 543.983,-302.408"/>
</g>
<!-- Node4 -->
<g id="node4" class="node"><title>Node4</title>
<g id="a_node4"><a xlink:title=" ">
<polygon fill="white" stroke="#bfbfbf" points="124,-313.5 124,-332.5 230,-332.5 230,-313.5 124,-313.5"/>
<text text-anchor="middle" x="177" y="-320.5" font-family="Helvetica,sans-Serif" font-size="10.00">MarshalByRefObject</text>
</a>
</g>
</g>
<!-- Node4&#45;&gt;Node3 -->
<g id="edge3" class="edge"><title>Node4&#45;&gt;Node3</title>
<path fill="none" stroke="midnightblue" d="M240.408,-321.726C286.637,-320.783 349.787,-319.494 398.467,-318.501"/>
<polygon fill="midnightblue" stroke="midnightblue" points="240.149,-318.231 230.223,-321.934 240.292,-325.229 240.149,-318.231"/>
</g>
<!-- Node5 -->
<g id="node5" class="node"><title>Node5</title>
<g id="a_node5"><a xlink:title=" ">
<polygon fill="white" stroke="#bfbfbf" points="414.5,-269.5 414.5,-288.5 531.5,-288.5 531.5,-269.5 414.5,-269.5"/>
<text text-anchor="middle" x="473" y="-276.5" font-family="Helvetica,sans-Serif" font-size="10.00">ILogicalThreadAffinative</text>
</a>
</g>
</g>
<!-- Node5&#45;&gt;Node2 -->
<g id="edge4" class="edge"><title>Node5&#45;&gt;Node2</title>
<path fill="none" stroke="midnightblue" d="M541.763,-275.802C585.654,-273.731 642.455,-271.051 685.566,-269.017"/>
<polygon fill="midnightblue" stroke="midnightblue" points="541.578,-272.307 531.754,-276.275 541.908,-279.299 541.578,-272.307"/>
</g>
<!-- Node6 -->
<g id="node6" class="node"><title>Node6</title>
<g id="a_node6"><a xlink:href="../../d3/d0a/classNUnit_1_1Framework_1_1Internal_1_1Randomizer.html" target="_top" xlink:title="Randomizer returns a set of random _values in a repeatable way, to allow re&#45;running of tests if neces...">
<polygon fill="white" stroke="black" points="408.5,-220 408.5,-250 537.5,-250 537.5,-220 408.5,-220"/>
<text text-anchor="start" x="416.5" y="-238" font-family="Helvetica,sans-Serif" font-size="10.00">NUnit.Framework.Internal.</text>
<text text-anchor="middle" x="473" y="-227" font-family="Helvetica,sans-Serif" font-size="10.00">Randomizer</text>
</a>
</g>
</g>
<!-- Node6&#45;&gt;Node2 -->
<g id="edge6" class="edge"><title>Node6&#45;&gt;Node2</title>
<path fill="none" stroke="#9a32cd" stroke-dasharray="5,2" d="M547.689,-243.292C590.755,-248.138 644.567,-254.193 685.792,-258.831"/>
<polygon fill="#9a32cd" stroke="#9a32cd" points="547.88,-239.791 537.551,-242.151 547.097,-246.747 547.88,-239.791"/>
<text text-anchor="middle" x="610" y="-258" font-family="Helvetica,sans-Serif" font-size="10.00"> _randomGenerator</text>
</g>
<!-- Node7 -->
<g id="node7" class="node"><title>Node7</title>
<g id="a_node7"><a xlink:title=" ">
<polygon fill="white" stroke="#bfbfbf" points="150.5,-275.5 150.5,-294.5 203.5,-294.5 203.5,-275.5 150.5,-275.5"/>
<text text-anchor="middle" x="177" y="-282.5" font-family="Helvetica,sans-Serif" font-size="10.00">Random</text>
</a>
</g>
</g>
<!-- Node7&#45;&gt;Node6 -->
<g id="edge7" class="edge"><title>Node7&#45;&gt;Node6</title>
<path fill="none" stroke="midnightblue" d="M213.654,-293.915C255.456,-302.39 325.672,-310.328 378,-284 389.911,-278.007 385.168,-267.775 396,-260 401.304,-256.193 407.221,-252.942 413.349,-250.17"/>
<polygon fill="midnightblue" stroke="midnightblue" points="214.179,-290.448 203.667,-291.769 212.708,-297.292 214.179,-290.448"/>
</g>
<!-- Node8 -->
<g id="node8" class="node"><title>Node8</title>
<g id="a_node8"><a xlink:title=" ">
<polygon fill="white" stroke="#bfbfbf" points="156.5,-173.5 156.5,-192.5 197.5,-192.5 197.5,-173.5 156.5,-173.5"/>
<text text-anchor="middle" x="177" y="-180.5" font-family="Helvetica,sans-Serif" font-size="10.00">static</text>
</a>
</g>
</g>
<!-- Node8&#45;&gt;Node1 -->
<g id="edge23" class="edge"><title>Node8&#45;&gt;Node1</title>
<path fill="none" stroke="#9a32cd" stroke-dasharray="5,2" d="M207.142,-171.136C248.406,-154.92 326.577,-126.33 396,-113 612.127,-71.4997 670.58,-95.9726 890,-79 895.805,-78.551 901.841,-78.0662 907.886,-77.5687"/>
<polygon fill="#9a32cd" stroke="#9a32cd" points="205.717,-167.936 197.714,-174.879 208.3,-174.442 205.717,-167.936"/>
<text text-anchor="middle" x="610" y="-93" font-family="Helvetica,sans-Serif" font-size="10.00"> log</text>
</g>
<!-- Node8&#45;&gt;Node2 -->
<g id="edge9" class="edge"><title>Node8&#45;&gt;Node2</title>
<path fill="none" stroke="#9a32cd" stroke-dasharray="5,2" d="M207.666,-181.478C271.111,-178.832 424.429,-175.696 550,-199 609.453,-210.033 675.414,-234.803 714.621,-250.937"/>
<polygon fill="#9a32cd" stroke="#9a32cd" points="207.415,-177.986 197.58,-181.927 207.726,-184.979 207.415,-177.986"/>
<text text-anchor="middle" x="473" y="-202" font-family="Helvetica,sans-Serif" font-size="10.00"> CONTEXT_KEY</text>
</g>
<!-- Node8&#45;&gt;Node6 -->
<g id="edge8" class="edge"><title>Node8&#45;&gt;Node6</title>
<path fill="none" stroke="#9a32cd" stroke-dasharray="5,2" d="M207.765,-187.861C246.866,-194.293 317.649,-206.093 378,-217 387.811,-218.773 398.186,-220.704 408.323,-222.621"/>
<polygon fill="#9a32cd" stroke="#9a32cd" points="208.047,-184.361 197.612,-186.195 206.913,-191.268 208.047,-184.361"/>
<text text-anchor="middle" x="313" y="-231" font-family="Helvetica,sans-Serif" font-size="10.00"> _seedGenerator</text>
<text text-anchor="middle" x="313" y="-220" font-family="Helvetica,sans-Serif" font-size="10.00">Randomizers</text>
</g>
<!-- Node9 -->
<g id="node9" class="node"><title>Node9</title>
<g id="a_node9"><a xlink:href="../../dd/dfe/classNUnit_1_1Framework_1_1Internal_1_1TestResult.html" target="_top" xlink:title="The TestResult class represents the result of a test.">
<polygon fill="white" stroke="black" points="408.5,-346 408.5,-376 537.5,-376 537.5,-346 408.5,-346"/>
<text text-anchor="start" x="416.5" y="-364" font-family="Helvetica,sans-Serif" font-size="10.00">NUnit.Framework.Internal.</text>
<text text-anchor="middle" x="473" y="-353" font-family="Helvetica,sans-Serif" font-size="10.00">TestResult</text>
</a>
</g>
</g>
<!-- Node8&#45;&gt;Node9 -->
<g id="edge14" class="edge"><title>Node8&#45;&gt;Node9</title>
<path fill="none" stroke="#9a32cd" stroke-dasharray="5,2" d="M196.748,-199.41C232.901,-230.279 315.787,-297.353 396,-336 403.633,-339.678 411.944,-343.022 420.176,-345.983"/>
<polygon fill="#9a32cd" stroke="#9a32cd" points="198.841,-196.592 188.98,-192.717 194.272,-201.896 198.841,-196.592"/>
<text text-anchor="middle" x="313" y="-340" font-family="Helvetica,sans-Serif" font-size="10.00"> CHILD_IGNORE_MESSAGE</text>
<text text-anchor="middle" x="313" y="-329" font-family="Helvetica,sans-Serif" font-size="10.00">CHILD_ERRORS_MESSAGE</text>
</g>
<!-- Node16 -->
<g id="node16" class="node"><title>Node16</title>
<g id="a_node16"><a xlink:href="../../d6/d59/classNUnit_1_1Framework_1_1Internal_1_1Test.html" target="_top" xlink:title="The Test abstract class represents a test within the framework.">
<polygon fill="white" stroke="black" points="399,-12.5 399,-31.5 547,-31.5 547,-12.5 399,-12.5"/>
<text text-anchor="middle" x="473" y="-19.5" font-family="Helvetica,sans-Serif" font-size="10.00">NUnit.Framework.Internal.Test</text>
</a>
</g>
</g>
<!-- Node8&#45;&gt;Node16 -->
<g id="edge22" class="edge"><title>Node8&#45;&gt;Node16</title>
<path fill="none" stroke="#9a32cd" stroke-dasharray="5,2" d="M193.863,-165.563C205.053,-152.602 219.806,-134.102 230,-116 240.976,-96.5096 230.75,-83.2397 248,-69 293.25,-31.6475 320.645,-58.3774 378,-46 397.757,-41.7364 419.646,-36.1965 437.327,-31.5136"/>
<polygon fill="#9a32cd" stroke="#9a32cd" points="191.099,-163.406 187.108,-173.221 196.348,-168.037 191.099,-163.406"/>
<text text-anchor="middle" x="313" y="-72" font-family="Helvetica,sans-Serif" font-size="10.00"> _nextID</text>
</g>
<!-- Node9&#45;&gt;Node2 -->
<g id="edge10" class="edge"><title>Node9&#45;&gt;Node2</title>
<path fill="none" stroke="#9a32cd" stroke-dasharray="5,2" d="M542.411,-343.277C575.797,-334.057 616.352,-322.004 652,-309 674.594,-300.758 699.383,-289.798 718.312,-281.006"/>
<polygon fill="#9a32cd" stroke="#9a32cd" points="541.466,-339.907 532.745,-345.923 543.314,-346.659 541.466,-339.907"/>
<text text-anchor="middle" x="610" y="-338" font-family="Helvetica,sans-Serif" font-size="10.00"> _currentResult</text>
</g>
<!-- Node10 -->
<g id="node10" class="node"><title>Node10</title>
<g id="a_node10"><a xlink:href="../../d2/df9/interfaceNUnit_1_1Framework_1_1Interfaces_1_1ITestResult.html" target="_top" xlink:title="The ITestResult interface represents the result of a test.">
<polygon fill="white" stroke="black" points="144.5,-389.5 144.5,-408.5 209.5,-408.5 209.5,-389.5 144.5,-389.5"/>
<text text-anchor="middle" x="177" y="-396.5" font-family="Helvetica,sans-Serif" font-size="10.00">ITestResult</text>
</a>
</g>
</g>
<!-- Node10&#45;&gt;Node9 -->
<g id="edge11" class="edge"><title>Node10&#45;&gt;Node9</title>
<path fill="none" stroke="midnightblue" d="M219.615,-394.751C260.116,-390.488 323.371,-383.496 378,-376 387.823,-374.652 398.206,-373.112 408.345,-371.544"/>
<polygon fill="midnightblue" stroke="midnightblue" points="219.158,-391.279 209.576,-395.8 219.886,-398.241 219.158,-391.279"/>
</g>
<!-- Node11 -->
<g id="node11" class="node"><title>Node11</title>
<g id="a_node11"><a xlink:href="../../d9/dc0/interfaceNUnit_1_1Framework_1_1Interfaces_1_1IXmlNodeBuilder.html" target="_top" xlink:title="An object implementing IXmlNodeBuilder is able to build an XML representation of itself and any child...">
<polygon fill="white" stroke="black" points="0,-272.5 0,-291.5 87,-291.5 87,-272.5 0,-272.5"/>
<text text-anchor="middle" x="43.5" y="-279.5" font-family="Helvetica,sans-Serif" font-size="10.00">IXmlNodeBuilder</text>
</a>
</g>
</g>
<!-- Node11&#45;&gt;Node10 -->
<g id="edge12" class="edge"><title>Node11&#45;&gt;Node10</title>
<path fill="none" stroke="midnightblue" d="M54.9499,-300.142C68.3562,-321.937 93.5522,-358.273 124,-380 130.103,-384.355 137.314,-387.82 144.392,-390.533"/>
<polygon fill="midnightblue" stroke="midnightblue" points="57.9289,-298.304 49.794,-291.516 51.9204,-301.895 57.9289,-298.304"/>
</g>
<!-- Node17 -->
<g id="node17" class="node"><title>Node17</title>
<g id="a_node17"><a xlink:href="../../d6/dd5/interfaceNUnit_1_1Framework_1_1Interfaces_1_1ITest.html" target="_top" xlink:title="Common interface supported by all representations of a test. Only includes informational fields....">
<polygon fill="white" stroke="black" points="158,-87.5 158,-106.5 196,-106.5 196,-87.5 158,-87.5"/>
<text text-anchor="middle" x="177" y="-94.5" font-family="Helvetica,sans-Serif" font-size="10.00">ITest</text>
</a>
</g>
</g>
<!-- Node11&#45;&gt;Node17 -->
<g id="edge20" class="edge"><title>Node11&#45;&gt;Node17</title>
<path fill="none" stroke="midnightblue" d="M56.2129,-263.808C71.4023,-240.407 98.9255,-198.649 124,-164 139.02,-143.245 157.645,-119.751 168.035,-106.83"/>
<polygon fill="midnightblue" stroke="midnightblue" points="53.1682,-262.07 50.6757,-272.368 59.0458,-265.872 53.1682,-262.07"/>
</g>
<!-- Node12 -->
<g id="node12" class="node"><title>Node12</title>
<g id="a_node12"><a xlink:title=" ">
<polygon fill="white" stroke="#bfbfbf" points="152,-351.5 152,-370.5 202,-370.5 202,-351.5 152,-351.5"/>
<text text-anchor="middle" x="177" y="-358.5" font-family="Helvetica,sans-Serif" font-size="10.00">System</text>
</a>
</g>
</g>
<!-- Node12&#45;&gt;Node9 -->
<g id="edge13" class="edge"><title>Node12&#45;&gt;Node9</title>
<path fill="none" stroke="#9a32cd" stroke-dasharray="5,2" d="M212.222,-361C260.177,-361 348.232,-361 408.411,-361"/>
<polygon fill="#9a32cd" stroke="#9a32cd" points="212.059,-357.5 202.059,-361 212.059,-364.5 212.059,-357.5"/>
<text text-anchor="middle" x="313" y="-364" font-family="Helvetica,sans-Serif" font-size="10.00"> _children</text>
</g>
<!-- Node13 -->
<g id="node13" class="node"><title>Node13</title>
<g id="a_node13"><a xlink:href="../../d0/d90/interfaceNUnit_1_1Framework_1_1Internal_1_1Execution_1_1IWorkItemDispatcher.html" target="_top" xlink:title="An IWorkItemDispatcher handles execution of work items.">
<polygon fill="white" stroke="black" points="396,-123 396,-153 550,-153 550,-123 396,-123"/>
<text text-anchor="start" x="404" y="-141" font-family="Helvetica,sans-Serif" font-size="10.00">NUnit.Framework.Internal.</text>
<text text-anchor="middle" x="473" y="-130" font-family="Helvetica,sans-Serif" font-size="10.00">Execution.IWorkItemDispatcher</text>
</a>
</g>
</g>
<!-- Node13&#45;&gt;Node2 -->
<g id="edge15" class="edge"><title>Node13&#45;&gt;Node2</title>
<path fill="none" stroke="#9a32cd" stroke-dasharray="5,2" d="M560.235,-139.814C590.578,-143.308 624.056,-150.566 652,-165 691.41,-185.356 724.064,-227.817 739.648,-250.664"/>
<polygon fill="#9a32cd" stroke="#9a32cd" points="560.383,-136.311 550.077,-138.768 559.666,-143.274 560.383,-136.311"/>
<text text-anchor="middle" x="610" y="-168" font-family="Helvetica,sans-Serif" font-size="10.00"> _dispatcher</text>
</g>
<!-- Node14 -->
<g id="node14" class="node"><title>Node14</title>
<g id="a_node14"><a xlink:href="../../de/d53/interfaceNUnit_1_1Framework_1_1Interfaces_1_1ITestListener.html" target="_top" xlink:title="The ITestListener interface is used internally to receive notifications of significant events while a...">
<polygon fill="white" stroke="black" points="403,-395 403,-425 543,-425 543,-395 403,-395"/>
<text text-anchor="start" x="411" y="-413" font-family="Helvetica,sans-Serif" font-size="10.00">NUnit.Framework.Interfaces.</text>
<text text-anchor="middle" x="473" y="-402" font-family="Helvetica,sans-Serif" font-size="10.00">ITestListener</text>
</a>
</g>
</g>
<!-- Node14&#45;&gt;Node2 -->
<g id="edge16" class="edge"><title>Node14&#45;&gt;Node2</title>
<path fill="none" stroke="#9a32cd" stroke-dasharray="5,2" d="M532.6,-391.711C538.487,-389.809 544.367,-387.883 550,-386 595.594,-370.76 610.406,-374.105 652,-350 685.056,-330.843 717.454,-299.799 735.324,-281.296"/>
<polygon fill="#9a32cd" stroke="#9a32cd" points="531.183,-388.49 522.73,-394.877 533.322,-395.155 531.183,-388.49"/>
<text text-anchor="middle" x="610" y="-382" font-family="Helvetica,sans-Serif" font-size="10.00"> _listener</text>
</g>
<!-- Node15 -->
<g id="node15" class="node"><title>Node15</title>
<g id="a_node15"><a xlink:href="../../d7/d49/classNUnit_1_1Framework_1_1List.html" target="_top" xlink:title=" ">
<polygon fill="white" stroke="black" points="670,-35 670,-65 831,-65 831,-35 670,-35"/>
<text text-anchor="start" x="678" y="-53" font-family="Helvetica,sans-Serif" font-size="10.00">NUnit.Framework.List</text>
<text text-anchor="middle" x="750.5" y="-42" font-family="Helvetica,sans-Serif" font-size="10.00">&lt; NUnit.Framework.ITestAction &gt;</text>
</a>
</g>
</g>
<!-- Node15&#45;&gt;Node1 -->
<g id="edge17" class="edge"><title>Node15&#45;&gt;Node1</title>
<path fill="none" stroke="#9a32cd" stroke-dasharray="5,2" d="M841.388,-58.9888C863.688,-61.2188 887.13,-63.563 907.878,-65.6378"/>
<polygon fill="#9a32cd" stroke="#9a32cd" points="841.535,-55.4861 831.236,-57.9736 840.838,-62.4514 841.535,-55.4861"/>
<text text-anchor="middle" x="869.5" y="-67" font-family="Helvetica,sans-Serif" font-size="10.00"> _actions</text>
</g>
<!-- Node16&#45;&gt;Node1 -->
<g id="edge18" class="edge"><title>Node16&#45;&gt;Node1</title>
<path fill="none" stroke="#9a32cd" stroke-dasharray="5,2" d="M546.595,-11.2479C619.296,-2.6056 734.008,5.23254 831,-14 872.287,-22.1867 916.667,-42.6869 944.258,-56.9788"/>
<polygon fill="#9a32cd" stroke="#9a32cd" points="546.122,-7.77961 536.621,-12.4699 546.973,-14.7276 546.122,-7.77961"/>
<text text-anchor="middle" x="750.5" y="-17" font-family="Helvetica,sans-Serif" font-size="10.00"> _test</text>
</g>
<!-- Node17&#45;&gt;Node16 -->
<g id="edge19" class="edge"><title>Node17&#45;&gt;Node16</title>
<path fill="none" stroke="midnightblue" d="M196.359,-80.7198C209.721,-69.8438 228.772,-56.2488 248,-49 296.198,-30.8298 353.984,-24.2025 398.791,-22.0539"/>
<polygon fill="midnightblue" stroke="midnightblue" points="193.847,-78.2597 188.456,-87.3803 198.358,-83.6124 193.847,-78.2597"/>
</g>
<!-- Node18 -->
<g id="node18" class="node"><title>Node18</title>
<g id="a_node18"><a xlink:title=" ">
<polygon fill="white" stroke="#bfbfbf" points="141.5,-0.5 141.5,-19.5 212.5,-19.5 212.5,-0.5 141.5,-0.5"/>
<text text-anchor="middle" x="177" y="-7.5" font-family="Helvetica,sans-Serif" font-size="10.00">IComparable</text>
</a>
</g>
</g>
<!-- Node18&#45;&gt;Node16 -->
<g id="edge21" class="edge"><title>Node18&#45;&gt;Node16</title>
<path fill="none" stroke="midnightblue" d="M222.705,-11.8247C269.443,-13.7324 343.543,-16.7569 398.827,-19.0133"/>
<polygon fill="midnightblue" stroke="midnightblue" points="222.725,-8.32267 212.59,-11.4118 222.439,-15.3168 222.725,-8.32267"/>
</g>
</g>
</svg>
