<?xml version="1.0" encoding="UTF-8" standalone="no"?>
<!DOCTYPE svg PUBLIC "-//W3C//DTD SVG 1.1//EN"
 "http://www.w3.org/Graphics/SVG/1.1/DTD/svg11.dtd">
<!-- Generated by graphviz version 2.38.0 (20140413.2041)
 -->
<!-- Title: CShell.Framework.Menus.MenuModel Pages: 1 -->
<svg width="203pt" height="240pt"
 viewBox="0.00 0.00 203.00 240.00" xmlns="http://www.w3.org/2000/svg" xmlns:xlink="http://www.w3.org/1999/xlink">
<g id="graph0" class="graph" transform="scale(1 1) rotate(0) translate(4 236)">
<title>CShell.Framework.Menus.MenuModel</title>
<polygon fill="white" stroke="none" points="-4,4 -4,-236 199,-236 199,4 -4,4"/>
<!-- Node1 -->
<g id="node1" class="node"><title>Node1</title>
<g id="a_node1"><a xlink:title=" ">
<polygon fill="#bfbfbf" stroke="black" points="17.5,-67.5 17.5,-97.5 172.5,-97.5 172.5,-67.5 17.5,-67.5"/>
<text text-anchor="start" x="25.5" y="-85.5" font-family="Helvetica,sans-Serif" font-size="10.00">CShell.Framework.Menus.Menu</text>
<text text-anchor="middle" x="95" y="-74.5" font-family="Helvetica,sans-Serif" font-size="10.00">Model</text>
</a>
</g>
</g>
<!-- Node5 -->
<g id="node5" class="node"><title>Node5</title>
<g id="a_node5"><a xlink:href="../../d9/d09/classCShell_1_1Modules_1_1Shell_1_1ViewModels_1_1MainMenuViewModel.html" target="_top" xlink:title=" ">
<polygon fill="white" stroke="black" points="23.5,-0.5 23.5,-30.5 166.5,-30.5 166.5,-0.5 23.5,-0.5"/>
<text text-anchor="start" x="31.5" y="-18.5" font-family="Helvetica,sans-Serif" font-size="10.00">CShell.Modules.Shell.View</text>
<text text-anchor="middle" x="95" y="-7.5" font-family="Helvetica,sans-Serif" font-size="10.00">Models.MainMenuViewModel</text>
</a>
</g>
</g>
<!-- Node1&#45;&gt;Node5 -->
<g id="edge4" class="edge"><title>Node1&#45;&gt;Node5</title>
<path fill="none" stroke="midnightblue" d="M95,-57.1081C95,-48.1539 95,-38.3227 95,-30.5765"/>
<polygon fill="midnightblue" stroke="midnightblue" points="91.5001,-57.3959 95,-67.396 98.5001,-57.396 91.5001,-57.3959"/>
</g>
<!-- Node2 -->
<g id="node2" class="node"><title>Node2</title>
<g id="a_node2"><a xlink:title=" ">
<polygon fill="white" stroke="#bfbfbf" points="0,-134.5 0,-164.5 100,-164.5 100,-134.5 0,-134.5"/>
<text text-anchor="start" x="8" y="-152.5" font-family="Helvetica,sans-Serif" font-size="10.00">BindableCollection</text>
<text text-anchor="middle" x="50" y="-141.5" font-family="Helvetica,sans-Serif" font-size="10.00">&lt; MenuItemBase &gt;</text>
</a>
</g>
</g>
<!-- Node2&#45;&gt;Node1 -->
<g id="edge1" class="edge"><title>Node2&#45;&gt;Node1</title>
<path fill="none" stroke="midnightblue" d="M65.4679,-126.157C72.0301,-116.679 79.4795,-105.919 85.2547,-97.5765"/>
<polygon fill="midnightblue" stroke="midnightblue" points="62.5788,-124.182 59.7643,-134.396 68.3342,-128.166 62.5788,-124.182"/>
</g>
<!-- Node3 -->
<g id="node3" class="node"><title>Node3</title>
<g id="a_node3"><a xlink:href="../../d7/d2c/interfaceCShell_1_1Framework_1_1Menus_1_1IMenu.html" target="_top" xlink:title=" ">
<polygon fill="white" stroke="black" points="118.5,-140 118.5,-159 161.5,-159 161.5,-140 118.5,-140"/>
<text text-anchor="middle" x="140" y="-147" font-family="Helvetica,sans-Serif" font-size="10.00">IMenu</text>
</a>
</g>
</g>
<!-- Node3&#45;&gt;Node1 -->
<g id="edge2" class="edge"><title>Node3&#45;&gt;Node1</title>
<path fill="none" stroke="midnightblue" d="M128.13,-131.355C120.84,-120.824 111.617,-107.502 104.754,-97.589"/>
<polygon fill="midnightblue" stroke="midnightblue" points="125.361,-133.504 133.931,-139.734 131.117,-129.52 125.361,-133.504"/>
</g>
<!-- Node4 -->
<g id="node4" class="node"><title>Node4</title>
<g id="a_node4"><a xlink:title=" ">
<polygon fill="white" stroke="#bfbfbf" points="85,-201.5 85,-231.5 195,-231.5 195,-201.5 85,-201.5"/>
<text text-anchor="start" x="93" y="-219.5" font-family="Helvetica,sans-Serif" font-size="10.00">IObservableCollection</text>
<text text-anchor="middle" x="140" y="-208.5" font-family="Helvetica,sans-Serif" font-size="10.00">&lt; MenuItemBase &gt;</text>
</a>
</g>
</g>
<!-- Node4&#45;&gt;Node3 -->
<g id="edge3" class="edge"><title>Node4&#45;&gt;Node3</title>
<path fill="none" stroke="midnightblue" d="M140,-191.25C140,-180.017 140,-167.377 140,-159.195"/>
<polygon fill="midnightblue" stroke="midnightblue" points="136.5,-191.396 140,-201.396 143.5,-191.396 136.5,-191.396"/>
</g>
</g>
</svg>
