<?xml version="1.0" encoding="UTF-8" standalone="no"?>
<!DOCTYPE svg PUBLIC "-//W3C//DTD SVG 1.1//EN"
 "http://www.w3.org/Graphics/SVG/1.1/DTD/svg11.dtd">
<!-- Generated by graphviz version 2.38.0 (20140413.2041)
 -->
<!-- Title: IG.Lib.ServiceReferenceWSBase.WSBaseSoapClient Pages: 1 -->
<svg width="379pt" height="100pt"
 viewBox="0.00 0.00 379.00 99.50" xmlns="http://www.w3.org/2000/svg" xmlns:xlink="http://www.w3.org/1999/xlink">
<g id="graph0" class="graph" transform="scale(1 1) rotate(0) translate(4 95.5)">
<title>IG.Lib.ServiceReferenceWSBase.WSBaseSoapClient</title>
<polygon fill="white" stroke="none" points="-4,4 -4,-95.5 375,-95.5 375,4 -4,4"/>
<!-- Node1 -->
<g id="node1" class="node"><title>Node1</title>
<g id="a_node1"><a xlink:title=" ">
<polygon fill="#bfbfbf" stroke="black" points="209,-27.5 209,-57.5 371,-57.5 371,-27.5 209,-27.5"/>
<text text-anchor="start" x="217" y="-45.5" font-family="Helvetica,sans-Serif" font-size="10.00">IG.Lib.ServiceReferenceWSBase.</text>
<text text-anchor="middle" x="290" y="-34.5" font-family="Helvetica,sans-Serif" font-size="10.00">WSBaseSoapClient</text>
</a>
</g>
</g>
<!-- Node2 -->
<g id="node2" class="node"><title>Node2</title>
<g id="a_node2"><a xlink:title=" ">
<polygon fill="white" stroke="#bfbfbf" points="0,-50 0,-91 173,-91 173,-50 0,-50"/>
<text text-anchor="start" x="8" y="-79" font-family="Helvetica,sans-Serif" font-size="10.00">System::ServiceModel</text>
<text text-anchor="start" x="8" y="-68" font-family="Helvetica,sans-Serif" font-size="10.00">::ClientBase&lt; IG.Lib.Service</text>
<text text-anchor="middle" x="86.5" y="-57" font-family="Helvetica,sans-Serif" font-size="10.00">ReferenceWSBase.WSBaseSoap &gt;</text>
</a>
</g>
</g>
<!-- Node2&#45;&gt;Node1 -->
<g id="edge1" class="edge"><title>Node2&#45;&gt;Node1</title>
<path fill="none" stroke="midnightblue" d="M183.24,-57.1962C191.784,-56.0089 200.376,-54.8149 208.77,-53.6485"/>
<polygon fill="midnightblue" stroke="midnightblue" points="182.669,-53.7417 173.246,-58.5849 183.633,-60.6751 182.669,-53.7417"/>
</g>
<!-- Node3 -->
<g id="node3" class="node"><title>Node3</title>
<g id="a_node3"><a xlink:href="../../df/d49/interfaceIG_1_1Lib_1_1ServiceReferenceWSBase_1_1WSBaseSoap.html" target="_top" xlink:title=" ">
<polygon fill="white" stroke="black" points="23.5,-0.5 23.5,-30.5 149.5,-30.5 149.5,-0.5 23.5,-0.5"/>
<text text-anchor="start" x="31.5" y="-18.5" font-family="Helvetica,sans-Serif" font-size="10.00">IG::Lib::ServiceReference</text>
<text text-anchor="middle" x="86.5" y="-7.5" font-family="Helvetica,sans-Serif" font-size="10.00">WSBase::WSBaseSoap</text>
</a>
</g>
</g>
<!-- Node3&#45;&gt;Node1 -->
<g id="edge2" class="edge"><title>Node3&#45;&gt;Node1</title>
<path fill="none" stroke="midnightblue" d="M159.884,-25.1991C175.785,-27.3298 192.713,-29.5981 208.898,-31.7668"/>
<polygon fill="midnightblue" stroke="midnightblue" points="159.977,-21.6804 149.601,-23.8212 159.047,-28.6184 159.977,-21.6804"/>
</g>
</g>
</svg>
