<?xml version="1.0" encoding="UTF-8" standalone="no"?>
<!DOCTYPE svg PUBLIC "-//W3C//DTD SVG 1.1//EN"
 "http://www.w3.org/Graphics/SVG/1.1/DTD/svg11.dtd">
<!-- Generated by graphviz version 2.38.0 (20140413.2041)
 -->
<!-- Title: Graphical Class Hierarchy Pages: 1 -->
<svg width="352pt" height="137pt"
 viewBox="0.00 0.00 352.00 137.00" xmlns="http://www.w3.org/2000/svg" xmlns:xlink="http://www.w3.org/1999/xlink">
<g id="graph0" class="graph" transform="scale(1 1) rotate(0) translate(4 133)">
<title>Graphical Class Hierarchy</title>
<polygon fill="white" stroke="none" points="-4,4 -4,-133 348,-133 348,4 -4,4"/>
<!-- Node0 -->
<g id="node1" class="node"><title>Node0</title>
<g id="a_node1"><a xlink:href="da/dd5/interfaceAForge_1_1Math_1_1Metrics_1_1ISimilarity.html" target="_top" xlink:title="Interface for similarity algorithms.">
<polygon fill="white" stroke="black" points="0,-55 0,-74 154,-74 154,-55 0,-55"/>
<text text-anchor="middle" x="77" y="-62" font-family="Helvetica,sans-Serif" font-size="10.00">AForge.Math.Metrics.ISimilarity</text>
</a>
</g>
</g>
<!-- Node1 -->
<g id="node2" class="node"><title>Node1</title>
<g id="a_node2"><a xlink:href="d6/d81/classAForge_1_1Math_1_1Metrics_1_1CosineSimilarity.html" target="_top" xlink:title="Cosine similarity metric.">
<polygon fill="white" stroke="black" points="196.5,-98.5 196.5,-128.5 337.5,-128.5 337.5,-98.5 196.5,-98.5"/>
<text text-anchor="start" x="204.5" y="-116.5" font-family="Helvetica,sans-Serif" font-size="10.00">AForge.Math.Metrics.Cosine</text>
<text text-anchor="middle" x="267" y="-105.5" font-family="Helvetica,sans-Serif" font-size="10.00">Similarity</text>
</a>
</g>
</g>
<!-- Node0&#45;&gt;Node1 -->
<g id="edge1" class="edge"><title>Node0&#45;&gt;Node1</title>
<path fill="none" stroke="midnightblue" d="M124.431,-76.6018C149.777,-83.208 181.389,-91.4471 208.307,-98.463"/>
<polygon fill="midnightblue" stroke="midnightblue" points="125.254,-73.1994 114.695,-74.064 123.489,-79.9731 125.254,-73.1994"/>
</g>
<!-- Node2 -->
<g id="node3" class="node"><title>Node2</title>
<g id="a_node3"><a xlink:href="de/d39/classAForge_1_1Math_1_1Metrics_1_1EuclideanSimilarity.html" target="_top" xlink:title="Euclidean similarity metric.">
<polygon fill="white" stroke="black" points="190,-49.5 190,-79.5 344,-79.5 344,-49.5 190,-49.5"/>
<text text-anchor="start" x="198" y="-67.5" font-family="Helvetica,sans-Serif" font-size="10.00">AForge.Math.Metrics.Euclidean</text>
<text text-anchor="middle" x="267" y="-56.5" font-family="Helvetica,sans-Serif" font-size="10.00">Similarity</text>
</a>
</g>
</g>
<!-- Node0&#45;&gt;Node2 -->
<g id="edge2" class="edge"><title>Node0&#45;&gt;Node2</title>
<path fill="none" stroke="midnightblue" d="M164.424,-64.5C172.857,-64.5 181.372,-64.5 189.696,-64.5"/>
<polygon fill="midnightblue" stroke="midnightblue" points="164.196,-61.0001 154.196,-64.5 164.196,-68.0001 164.196,-61.0001"/>
</g>
<!-- Node3 -->
<g id="node4" class="node"><title>Node3</title>
<g id="a_node4"><a xlink:href="d2/db2/classAForge_1_1Math_1_1Metrics_1_1PearsonCorrelation.html" target="_top" xlink:title="Pearson correlation metric.">
<polygon fill="white" stroke="black" points="193.5,-0.5 193.5,-30.5 340.5,-30.5 340.5,-0.5 193.5,-0.5"/>
<text text-anchor="start" x="201.5" y="-18.5" font-family="Helvetica,sans-Serif" font-size="10.00">AForge.Math.Metrics.Pearson</text>
<text text-anchor="middle" x="267" y="-7.5" font-family="Helvetica,sans-Serif" font-size="10.00">Correlation</text>
</a>
</g>
</g>
<!-- Node0&#45;&gt;Node3 -->
<g id="edge3" class="edge"><title>Node0&#45;&gt;Node3</title>
<path fill="none" stroke="midnightblue" d="M124.431,-52.3982C149.777,-45.792 181.389,-37.5529 208.307,-30.537"/>
<polygon fill="midnightblue" stroke="midnightblue" points="123.489,-49.0269 114.695,-54.936 125.254,-55.8006 123.489,-49.0269"/>
</g>
</g>
</svg>
