<?xml version="1.0" encoding="UTF-8" standalone="no"?>
<!DOCTYPE svg PUBLIC "-//W3C//DTD SVG 1.1//EN"
 "http://www.w3.org/Graphics/SVG/1.1/DTD/svg11.dtd">
<!-- Generated by graphviz version 2.38.0 (20140413.2041)
 -->
<!-- Title: Graphical Class Hierarchy Pages: 1 -->
<svg width="300pt" height="235pt"
 viewBox="0.00 0.00 300.00 235.00" xmlns="http://www.w3.org/2000/svg" xmlns:xlink="http://www.w3.org/1999/xlink">
<g id="graph0" class="graph" transform="scale(1 1) rotate(0) translate(4 231)">
<title>Graphical Class Hierarchy</title>
<polygon fill="white" stroke="none" points="-4,4 -4,-231 296,-231 296,4 -4,4"/>
<!-- Node0 -->
<g id="node1" class="node"><title>Node0</title>
<g id="a_node1"><a xlink:href="d8/de2/interfaceAForge_1_1Imaging_1_1Textures_1_1ITextureGenerator.html" target="_top" xlink:title="Texture generator interface.">
<polygon fill="white" stroke="black" points="0,-98.5 0,-128.5 128,-128.5 128,-98.5 0,-98.5"/>
<text text-anchor="start" x="8" y="-116.5" font-family="Helvetica,sans-Serif" font-size="10.00">AForge.Imaging.Textures.</text>
<text text-anchor="middle" x="64" y="-105.5" font-family="Helvetica,sans-Serif" font-size="10.00">ITextureGenerator</text>
</a>
</g>
</g>
<!-- Node1 -->
<g id="node2" class="node"><title>Node1</title>
<g id="a_node2"><a xlink:href="da/d58/classAForge_1_1Imaging_1_1Textures_1_1CloudsTexture.html" target="_top" xlink:title="Clouds texture.">
<polygon fill="white" stroke="black" points="164,-196.5 164,-226.5 292,-226.5 292,-196.5 164,-196.5"/>
<text text-anchor="start" x="172" y="-214.5" font-family="Helvetica,sans-Serif" font-size="10.00">AForge.Imaging.Textures.</text>
<text text-anchor="middle" x="228" y="-203.5" font-family="Helvetica,sans-Serif" font-size="10.00">CloudsTexture</text>
</a>
</g>
</g>
<!-- Node0&#45;&gt;Node1 -->
<g id="edge1" class="edge"><title>Node0&#45;&gt;Node1</title>
<path fill="none" stroke="midnightblue" d="M89.9218,-135.213C109.18,-151.204 137.02,-172.658 164,-187.5 169.845,-190.716 176.211,-193.689 182.575,-196.369"/>
<polygon fill="midnightblue" stroke="midnightblue" points="92.1252,-132.493 82.2211,-128.73 87.6169,-137.848 92.1252,-132.493"/>
</g>
<!-- Node2 -->
<g id="node3" class="node"><title>Node2</title>
<g id="a_node3"><a xlink:href="d3/d24/classAForge_1_1Imaging_1_1Textures_1_1LabyrinthTexture.html" target="_top" xlink:title="Labirinth texture.">
<polygon fill="white" stroke="black" points="164,-147.5 164,-177.5 292,-177.5 292,-147.5 164,-147.5"/>
<text text-anchor="start" x="172" y="-165.5" font-family="Helvetica,sans-Serif" font-size="10.00">AForge.Imaging.Textures.</text>
<text text-anchor="middle" x="228" y="-154.5" font-family="Helvetica,sans-Serif" font-size="10.00">LabyrinthTexture</text>
</a>
</g>
</g>
<!-- Node0&#45;&gt;Node2 -->
<g id="edge2" class="edge"><title>Node0&#45;&gt;Node2</title>
<path fill="none" stroke="midnightblue" d="M124.884,-131.613C142.106,-136.822 160.698,-142.446 177.238,-147.448"/>
<polygon fill="midnightblue" stroke="midnightblue" points="125.512,-128.147 114.927,-128.601 123.486,-134.847 125.512,-128.147"/>
</g>
<!-- Node3 -->
<g id="node4" class="node"><title>Node3</title>
<g id="a_node4"><a xlink:href="d3/d7d/classAForge_1_1Imaging_1_1Textures_1_1MarbleTexture.html" target="_top" xlink:title="Marble texture.">
<polygon fill="white" stroke="black" points="164,-98.5 164,-128.5 292,-128.5 292,-98.5 164,-98.5"/>
<text text-anchor="start" x="172" y="-116.5" font-family="Helvetica,sans-Serif" font-size="10.00">AForge.Imaging.Textures.</text>
<text text-anchor="middle" x="228" y="-105.5" font-family="Helvetica,sans-Serif" font-size="10.00">MarbleTexture</text>
</a>
</g>
</g>
<!-- Node0&#45;&gt;Node3 -->
<g id="edge3" class="edge"><title>Node0&#45;&gt;Node3</title>
<path fill="none" stroke="midnightblue" d="M138.374,-113.5C146.865,-113.5 155.469,-113.5 163.808,-113.5"/>
<polygon fill="midnightblue" stroke="midnightblue" points="138.097,-110 128.097,-113.5 138.097,-117 138.097,-110"/>
</g>
<!-- Node4 -->
<g id="node5" class="node"><title>Node4</title>
<g id="a_node5"><a xlink:href="d6/d28/classAForge_1_1Imaging_1_1Textures_1_1TextileTexture.html" target="_top" xlink:title="Textile texture.">
<polygon fill="white" stroke="black" points="164,-49.5 164,-79.5 292,-79.5 292,-49.5 164,-49.5"/>
<text text-anchor="start" x="172" y="-67.5" font-family="Helvetica,sans-Serif" font-size="10.00">AForge.Imaging.Textures.</text>
<text text-anchor="middle" x="228" y="-56.5" font-family="Helvetica,sans-Serif" font-size="10.00">TextileTexture</text>
</a>
</g>
</g>
<!-- Node0&#45;&gt;Node4 -->
<g id="edge4" class="edge"><title>Node0&#45;&gt;Node4</title>
<path fill="none" stroke="midnightblue" d="M124.884,-95.3871C142.106,-90.1778 160.698,-84.5543 177.238,-79.5516"/>
<polygon fill="midnightblue" stroke="midnightblue" points="123.486,-92.1532 114.927,-98.3986 125.512,-98.8534 123.486,-92.1532"/>
</g>
<!-- Node5 -->
<g id="node6" class="node"><title>Node5</title>
<g id="a_node6"><a xlink:href="d9/dcd/classAForge_1_1Imaging_1_1Textures_1_1WoodTexture.html" target="_top" xlink:title="Wood texture.">
<polygon fill="white" stroke="black" points="164,-0.5 164,-30.5 292,-30.5 292,-0.5 164,-0.5"/>
<text text-anchor="start" x="172" y="-18.5" font-family="Helvetica,sans-Serif" font-size="10.00">AForge.Imaging.Textures.</text>
<text text-anchor="middle" x="228" y="-7.5" font-family="Helvetica,sans-Serif" font-size="10.00">WoodTexture</text>
</a>
</g>
</g>
<!-- Node0&#45;&gt;Node5 -->
<g id="edge5" class="edge"><title>Node0&#45;&gt;Node5</title>
<path fill="none" stroke="midnightblue" d="M90.3827,-91.9234C109.682,-76.2476 137.368,-55.2773 164,-40.5 170.482,-36.9032 177.59,-33.5626 184.622,-30.57"/>
<polygon fill="midnightblue" stroke="midnightblue" points="88.1507,-89.2274 82.6527,-98.284 92.5985,-94.6327 88.1507,-89.2274"/>
</g>
</g>
</svg>
