<?xml version="1.0" encoding="UTF-8" standalone="no"?>
<!DOCTYPE svg PUBLIC "-//W3C//DTD SVG 1.1//EN"
 "http://www.w3.org/Graphics/SVG/1.1/DTD/svg11.dtd">
<!-- Generated by graphviz version 2.38.0 (20140413.2041)
 -->
<!-- Title: Graphical Class Hierarchy Pages: 1 -->
<svg width="332pt" height="186pt"
 viewBox="0.00 0.00 332.00 186.00" xmlns="http://www.w3.org/2000/svg" xmlns:xlink="http://www.w3.org/1999/xlink">
<g id="graph0" class="graph" transform="scale(1 1) rotate(0) translate(4 182)">
<title>Graphical Class Hierarchy</title>
<polygon fill="white" stroke="none" points="-4,4 -4,-182 328,-182 328,4 -4,4"/>
<!-- Node0 -->
<g id="node1" class="node"><title>Node0</title>
<g id="a_node1"><a xlink:href="d2/d4b/interfaceAForge_1_1Vision_1_1Motion_1_1IMotionProcessing.html" target="_top" xlink:title="Interface of motion processing algorithm.">
<polygon fill="white" stroke="black" points="0,-73.5 0,-103.5 145,-103.5 145,-73.5 0,-73.5"/>
<text text-anchor="start" x="8" y="-91.5" font-family="Helvetica,sans-Serif" font-size="10.00">AForge.Vision.Motion.IMotion</text>
<text text-anchor="middle" x="72.5" y="-80.5" font-family="Helvetica,sans-Serif" font-size="10.00">Processing</text>
</a>
</g>
</g>
<!-- Node1 -->
<g id="node2" class="node"><title>Node1</title>
<g id="a_node2"><a xlink:href="de/d81/classAForge_1_1Vision_1_1Motion_1_1BlobCountingObjectsProcessing.html" target="_top" xlink:title="Motion processing algorithm, which counts separate moving objects and highlights them.">
<polygon fill="white" stroke="black" points="184,-147.5 184,-177.5 321,-177.5 321,-147.5 184,-147.5"/>
<text text-anchor="start" x="192" y="-165.5" font-family="Helvetica,sans-Serif" font-size="10.00">AForge.Vision.Motion.Blob</text>
<text text-anchor="middle" x="252.5" y="-154.5" font-family="Helvetica,sans-Serif" font-size="10.00">CountingObjectsProcessing</text>
</a>
</g>
</g>
<!-- Node0&#45;&gt;Node1 -->
<g id="edge1" class="edge"><title>Node0&#45;&gt;Node1</title>
<path fill="none" stroke="midnightblue" d="M112.877,-108.051C133.027,-117.738 158.079,-129.299 181,-138.5 188.679,-141.583 196.925,-144.624 204.974,-147.452"/>
<polygon fill="midnightblue" stroke="midnightblue" points="114.226,-104.816 103.701,-103.606 111.175,-111.115 114.226,-104.816"/>
</g>
<!-- Node2 -->
<g id="node3" class="node"><title>Node2</title>
<g id="a_node3"><a xlink:href="d7/d68/classAForge_1_1Vision_1_1Motion_1_1GridMotionAreaProcessing.html" target="_top" xlink:title="Motion processing algorithm, which performs grid processing of motion frame.">
<polygon fill="white" stroke="black" points="187,-98.5 187,-128.5 318,-128.5 318,-98.5 187,-98.5"/>
<text text-anchor="start" x="195" y="-116.5" font-family="Helvetica,sans-Serif" font-size="10.00">AForge.Vision.Motion.Grid</text>
<text text-anchor="middle" x="252.5" y="-105.5" font-family="Helvetica,sans-Serif" font-size="10.00">MotionAreaProcessing</text>
</a>
</g>
</g>
<!-- Node0&#45;&gt;Node2 -->
<g id="edge2" class="edge"><title>Node0&#45;&gt;Node2</title>
<path fill="none" stroke="midnightblue" d="M155.249,-99.9817C165.869,-101.473 176.627,-102.984 186.914,-104.429"/>
<polygon fill="midnightblue" stroke="midnightblue" points="155.52,-96.4853 145.13,-98.5604 154.546,-103.417 155.52,-96.4853"/>
</g>
<!-- Node3 -->
<g id="node4" class="node"><title>Node3</title>
<g id="a_node4"><a xlink:href="d6/d6e/classAForge_1_1Vision_1_1Motion_1_1MotionAreaHighlighting.html" target="_top" xlink:title="Motion processing algorithm, which highlights motion areas.">
<polygon fill="white" stroke="black" points="181,-49.5 181,-79.5 324,-79.5 324,-49.5 181,-49.5"/>
<text text-anchor="start" x="189" y="-67.5" font-family="Helvetica,sans-Serif" font-size="10.00">AForge.Vision.Motion.Motion</text>
<text text-anchor="middle" x="252.5" y="-56.5" font-family="Helvetica,sans-Serif" font-size="10.00">AreaHighlighting</text>
</a>
</g>
</g>
<!-- Node0&#45;&gt;Node3 -->
<g id="edge3" class="edge"><title>Node0&#45;&gt;Node3</title>
<path fill="none" stroke="midnightblue" d="M155.155,-77.4903C163.748,-76.3318 172.432,-75.1609 180.885,-74.0211"/>
<polygon fill="midnightblue" stroke="midnightblue" points="154.573,-74.0371 145.13,-78.842 155.508,-80.9743 154.573,-74.0371"/>
</g>
<!-- Node4 -->
<g id="node5" class="node"><title>Node4</title>
<g id="a_node5"><a xlink:href="d6/d0c/classAForge_1_1Vision_1_1Motion_1_1MotionBorderHighlighting.html" target="_top" xlink:title="Motion processing algorithm, which highlights border of motion areas.">
<polygon fill="white" stroke="black" points="181,-0.5 181,-30.5 324,-30.5 324,-0.5 181,-0.5"/>
<text text-anchor="start" x="189" y="-18.5" font-family="Helvetica,sans-Serif" font-size="10.00">AForge.Vision.Motion.Motion</text>
<text text-anchor="middle" x="252.5" y="-7.5" font-family="Helvetica,sans-Serif" font-size="10.00">BorderHighlighting</text>
</a>
</g>
</g>
<!-- Node0&#45;&gt;Node4 -->
<g id="edge4" class="edge"><title>Node0&#45;&gt;Node4</title>
<path fill="none" stroke="midnightblue" d="M115.026,-69.0361C134.843,-59.9859 158.982,-49.3035 181,-40.5 189.441,-37.1251 198.537,-33.7267 207.298,-30.5699"/>
<polygon fill="midnightblue" stroke="midnightblue" points="113.3,-65.9775 105.674,-73.3325 116.222,-72.3384 113.3,-65.9775"/>
</g>
</g>
</svg>
