<?xml version="1.0" encoding="UTF-8" standalone="no"?>
<!DOCTYPE svg PUBLIC "-//W3C//DTD SVG 1.1//EN"
 "http://www.w3.org/Graphics/SVG/1.1/DTD/svg11.dtd">
<!-- Generated by graphviz version 2.38.0 (20140413.2041)
 -->
<!-- Title: Graphical Class Hierarchy Pages: 1 -->
<svg width="566pt" height="235pt"
 viewBox="0.00 0.00 566.00 235.00" xmlns="http://www.w3.org/2000/svg" xmlns:xlink="http://www.w3.org/1999/xlink">
<g id="graph0" class="graph" transform="scale(1 1) rotate(0) translate(4 231)">
<title>Graphical Class Hierarchy</title>
<polygon fill="white" stroke="none" points="-4,4 -4,-231 562,-231 562,4 -4,4"/>
<!-- Node0 -->
<g id="node1" class="node"><title>Node0</title>
<g id="a_node1"><a xlink:href="db/d81/classNeuronDotNet_1_1Core_1_1Layer.html" target="_top" xlink:title=" ">
<polygon fill="white" stroke="black" points="0,-98.5 0,-128.5 128,-128.5 128,-98.5 0,-98.5"/>
<text text-anchor="start" x="8" y="-116.5" font-family="Helvetica,sans-Serif" font-size="10.00">NeuronDotNet.Core.Layer</text>
<text text-anchor="middle" x="64" y="-105.5" font-family="Helvetica,sans-Serif" font-size="10.00">&lt; ActivationNeuron &gt;</text>
</a>
</g>
</g>
<!-- Node1 -->
<g id="node2" class="node"><title>Node1</title>
<g id="a_node2"><a xlink:href="df/d8a/classNeuronDotNet_1_1Core_1_1Backpropagation_1_1ActivationLayer.html" target="_top" xlink:title="Activation Layer is a layer of activation neurons.">
<polygon fill="white" stroke="black" points="164,-98.5 164,-128.5 343,-128.5 343,-98.5 164,-98.5"/>
<text text-anchor="start" x="172" y="-116.5" font-family="Helvetica,sans-Serif" font-size="10.00">NeuronDotNet.Core.Backpropagation.</text>
<text text-anchor="middle" x="253.5" y="-105.5" font-family="Helvetica,sans-Serif" font-size="10.00">ActivationLayer</text>
</a>
</g>
</g>
<!-- Node0&#45;&gt;Node1 -->
<g id="edge1" class="edge"><title>Node0&#45;&gt;Node1</title>
<path fill="none" stroke="midnightblue" d="M138.327,-113.5C146.725,-113.5 155.352,-113.5 163.921,-113.5"/>
<polygon fill="midnightblue" stroke="midnightblue" points="138.218,-110 128.218,-113.5 138.218,-117 138.218,-110"/>
</g>
<!-- Node2 -->
<g id="node3" class="node"><title>Node2</title>
<g id="a_node3"><a xlink:href="dc/da8/classNeuronDotNet_1_1Core_1_1Backpropagation_1_1LinearLayer.html" target="_top" xlink:title="An ActivationLayer using linear activation function">
<polygon fill="white" stroke="black" points="379,-196.5 379,-226.5 558,-226.5 558,-196.5 379,-196.5"/>
<text text-anchor="start" x="387" y="-214.5" font-family="Helvetica,sans-Serif" font-size="10.00">NeuronDotNet.Core.Backpropagation.</text>
<text text-anchor="middle" x="468.5" y="-203.5" font-family="Helvetica,sans-Serif" font-size="10.00">LinearLayer</text>
</a>
</g>
</g>
<!-- Node1&#45;&gt;Node2 -->
<g id="edge2" class="edge"><title>Node1&#45;&gt;Node2</title>
<path fill="none" stroke="midnightblue" d="M284.503,-134.499C308.988,-150.841 344.974,-173.092 379,-187.5 386.77,-190.79 395.115,-193.746 403.466,-196.366"/>
<polygon fill="midnightblue" stroke="midnightblue" points="286.273,-131.471 276.028,-128.772 282.354,-137.271 286.273,-131.471"/>
</g>
<!-- Node3 -->
<g id="node4" class="node"><title>Node3</title>
<g id="a_node4"><a xlink:href="dd/daf/classNeuronDotNet_1_1Core_1_1Backpropagation_1_1LogarithmLayer.html" target="_top" xlink:title="An ActivationLayer using logarithmic activation function">
<polygon fill="white" stroke="black" points="379,-147.5 379,-177.5 558,-177.5 558,-147.5 379,-147.5"/>
<text text-anchor="start" x="387" y="-165.5" font-family="Helvetica,sans-Serif" font-size="10.00">NeuronDotNet.Core.Backpropagation.</text>
<text text-anchor="middle" x="468.5" y="-154.5" font-family="Helvetica,sans-Serif" font-size="10.00">LogarithmLayer</text>
</a>
</g>
</g>
<!-- Node1&#45;&gt;Node3 -->
<g id="edge3" class="edge"><title>Node1&#45;&gt;Node3</title>
<path fill="none" stroke="midnightblue" d="M329.837,-130.831C353.485,-136.271 379.381,-142.229 402.269,-147.494"/>
<polygon fill="midnightblue" stroke="midnightblue" points="330.385,-127.366 319.855,-128.535 328.815,-134.188 330.385,-127.366"/>
</g>
<!-- Node4 -->
<g id="node5" class="node"><title>Node4</title>
<g id="a_node5"><a xlink:href="d0/d8e/classNeuronDotNet_1_1Core_1_1Backpropagation_1_1SigmoidLayer.html" target="_top" xlink:title="An ActivationLayer using sigmoid activation function">
<polygon fill="white" stroke="black" points="379,-98.5 379,-128.5 558,-128.5 558,-98.5 379,-98.5"/>
<text text-anchor="start" x="387" y="-116.5" font-family="Helvetica,sans-Serif" font-size="10.00">NeuronDotNet.Core.Backpropagation.</text>
<text text-anchor="middle" x="468.5" y="-105.5" font-family="Helvetica,sans-Serif" font-size="10.00">SigmoidLayer</text>
</a>
</g>
</g>
<!-- Node1&#45;&gt;Node4 -->
<g id="edge4" class="edge"><title>Node1&#45;&gt;Node4</title>
<path fill="none" stroke="midnightblue" d="M353.545,-113.5C361.99,-113.5 370.498,-113.5 378.855,-113.5"/>
<polygon fill="midnightblue" stroke="midnightblue" points="353.289,-110 343.289,-113.5 353.289,-117 353.289,-110"/>
</g>
<!-- Node5 -->
<g id="node6" class="node"><title>Node5</title>
<g id="a_node6"><a xlink:href="d7/d77/classNeuronDotNet_1_1Core_1_1Backpropagation_1_1SineLayer.html" target="_top" xlink:title="An ActivationLayer using sine activation function">
<polygon fill="white" stroke="black" points="379,-49.5 379,-79.5 558,-79.5 558,-49.5 379,-49.5"/>
<text text-anchor="start" x="387" y="-67.5" font-family="Helvetica,sans-Serif" font-size="10.00">NeuronDotNet.Core.Backpropagation.</text>
<text text-anchor="middle" x="468.5" y="-56.5" font-family="Helvetica,sans-Serif" font-size="10.00">SineLayer</text>
</a>
</g>
</g>
<!-- Node1&#45;&gt;Node5 -->
<g id="edge5" class="edge"><title>Node1&#45;&gt;Node5</title>
<path fill="none" stroke="midnightblue" d="M329.837,-96.1691C353.485,-90.7288 379.381,-84.7715 402.269,-79.5062"/>
<polygon fill="midnightblue" stroke="midnightblue" points="328.815,-92.8125 319.855,-98.4654 330.385,-99.6343 328.815,-92.8125"/>
</g>
<!-- Node6 -->
<g id="node7" class="node"><title>Node6</title>
<g id="a_node7"><a xlink:href="db/db6/classNeuronDotNet_1_1Core_1_1Backpropagation_1_1TanhLayer.html" target="_top" xlink:title="An ActivationLayer using tanh activation function">
<polygon fill="white" stroke="black" points="379,-0.5 379,-30.5 558,-30.5 558,-0.5 379,-0.5"/>
<text text-anchor="start" x="387" y="-18.5" font-family="Helvetica,sans-Serif" font-size="10.00">NeuronDotNet.Core.Backpropagation.</text>
<text text-anchor="middle" x="468.5" y="-7.5" font-family="Helvetica,sans-Serif" font-size="10.00">TanhLayer</text>
</a>
</g>
</g>
<!-- Node1&#45;&gt;Node6 -->
<g id="edge6" class="edge"><title>Node1&#45;&gt;Node6</title>
<path fill="none" stroke="midnightblue" d="M285.033,-92.6122C309.554,-76.5862 345.332,-54.8466 379,-40.5 387.666,-36.8073 397.038,-33.4888 406.331,-30.5682"/>
<polygon fill="midnightblue" stroke="midnightblue" points="282.944,-89.7979 276.534,-98.2337 286.805,-95.6364 282.944,-89.7979"/>
</g>
</g>
</svg>
