<?xml version="1.0" encoding="UTF-8" standalone="no"?>
<!DOCTYPE svg PUBLIC "-//W3C//DTD SVG 1.1//EN"
 "http://www.w3.org/Graphics/SVG/1.1/DTD/svg11.dtd">
<!-- Generated by graphviz version 2.38.0 (20140413.2041)
 -->
<!-- Title: Graphical Class Hierarchy Pages: 1 -->
<svg width="613pt" height="176pt"
 viewBox="0.00 0.00 613.00 175.50" xmlns="http://www.w3.org/2000/svg" xmlns:xlink="http://www.w3.org/1999/xlink">
<g id="graph0" class="graph" transform="scale(1 1) rotate(0) translate(4 171.5)">
<title>Graphical Class Hierarchy</title>
<polygon fill="white" stroke="none" points="-4,4 -4,-171.5 609,-171.5 609,4 -4,4"/>
<!-- Node364 -->
<g id="node1" class="node"><title>Node364</title>
<g id="a_node1"><a xlink:title=" ">
<polygon fill="white" stroke="#bfbfbf" points="0,-68.5 0,-87.5 62,-87.5 62,-68.5 0,-68.5"/>
<text text-anchor="middle" x="31" y="-75.5" font-family="Helvetica,sans-Serif" font-size="10.00">TextWriter</text>
</a>
</g>
</g>
<!-- Node0 -->
<g id="node2" class="node"><title>Node0</title>
<g id="a_node2"><a xlink:href="d0/d56/classNUnit_1_1Common_1_1ExtendedTextWriter.html" target="_top" xlink:title="ExtendedTextWriter extends the TextWriter abstract class to support displaying text in color....">
<polygon fill="white" stroke="black" points="98,-137 98,-167 244,-167 244,-137 98,-137"/>
<text text-anchor="start" x="106" y="-155" font-family="Helvetica,sans-Serif" font-size="10.00">NUnit.Common.ExtendedText</text>
<text text-anchor="middle" x="171" y="-144" font-family="Helvetica,sans-Serif" font-size="10.00">Writer</text>
</a>
</g>
</g>
<!-- Node364&#45;&gt;Node0 -->
<g id="edge1" class="edge"><title>Node364&#45;&gt;Node0</title>
<path fill="none" stroke="midnightblue" d="M50.3703,-94.5329C63.0298,-105.244 80.6412,-118.851 98,-128 104.294,-131.317 111.137,-134.303 118.016,-136.95"/>
<polygon fill="midnightblue" stroke="midnightblue" points="52.3083,-91.5807 42.4612,-87.6712 47.721,-96.8681 52.3083,-91.5807"/>
</g>
<!-- Node368 -->
<g id="node5" class="node"><title>Node368</title>
<g id="a_node5"><a xlink:href="df/dfe/classNUnit_1_1Common_1_1InternalTraceWriter.html" target="_top" xlink:title="A trace listener that writes to a separate file per domain and process using it.">
<polygon fill="white" stroke="black" points="100.5,-88 100.5,-118 241.5,-118 241.5,-88 100.5,-88"/>
<text text-anchor="start" x="108.5" y="-106" font-family="Helvetica,sans-Serif" font-size="10.00">NUnit.Common.InternalTrace</text>
<text text-anchor="middle" x="171" y="-95" font-family="Helvetica,sans-Serif" font-size="10.00">Writer</text>
</a>
</g>
</g>
<!-- Node364&#45;&gt;Node368 -->
<g id="edge4" class="edge"><title>Node364&#45;&gt;Node368</title>
<path fill="none" stroke="midnightblue" d="M72.3023,-85.3011C81.176,-86.9087 90.8202,-88.6558 100.478,-90.4054"/>
<polygon fill="midnightblue" stroke="midnightblue" points="72.7485,-81.8251 62.2847,-83.4864 71.5006,-88.713 72.7485,-81.8251"/>
</g>
<!-- Node369 -->
<g id="node6" class="node"><title>Node369</title>
<g id="a_node6"><a xlink:href="d7/d0c/classNUnit_1_1Framework_1_1Internal_1_1Execution_1_1TextCapture.html" target="_top" xlink:title="The TextCapture class intercepts console output and writes it to the current execution context,...">
<polygon fill="white" stroke="black" points="106.5,-39 106.5,-69 235.5,-69 235.5,-39 106.5,-39"/>
<text text-anchor="start" x="114.5" y="-57" font-family="Helvetica,sans-Serif" font-size="10.00">NUnit.Framework.Internal.</text>
<text text-anchor="middle" x="171" y="-46" font-family="Helvetica,sans-Serif" font-size="10.00">Execution.TextCapture</text>
</a>
</g>
</g>
<!-- Node364&#45;&gt;Node369 -->
<g id="edge5" class="edge"><title>Node364&#45;&gt;Node369</title>
<path fill="none" stroke="midnightblue" d="M72.1729,-71.0134C82.8937,-69.1489 94.7465,-67.0876 106.393,-65.0621"/>
<polygon fill="midnightblue" stroke="midnightblue" points="71.5371,-67.5714 62.2847,-72.7331 72.7365,-74.4678 71.5371,-67.5714"/>
</g>
<!-- Node370 -->
<g id="node7" class="node"><title>Node370</title>
<g id="a_node7"><a xlink:href="de/d46/classNUnitLite_1_1DebugWriter.html" target="_top" xlink:title="DebugWriter is a TextWriter that sends it&#39;s output to Debug. We don&#39;t use Trace because writing to it...">
<polygon fill="white" stroke="black" points="114.5,-0.5 114.5,-19.5 227.5,-19.5 227.5,-0.5 114.5,-0.5"/>
<text text-anchor="middle" x="171" y="-7.5" font-family="Helvetica,sans-Serif" font-size="10.00">NUnitLite.DebugWriter</text>
</a>
</g>
</g>
<!-- Node364&#45;&gt;Node370 -->
<g id="edge6" class="edge"><title>Node364&#45;&gt;Node370</title>
<path fill="none" stroke="midnightblue" d="M50.787,-61.5125C63.3962,-51.1871 80.792,-38.3097 98,-30 106.762,-25.7689 116.57,-22.3004 126.058,-19.5107"/>
<polygon fill="midnightblue" stroke="midnightblue" points="48.2797,-59.0481 42.8834,-68.1657 52.7877,-64.4033 48.2797,-59.0481"/>
</g>
<!-- Node1 -->
<g id="node3" class="node"><title>Node1</title>
<g id="a_node3"><a xlink:href="dd/da2/classNUnit_1_1Common_1_1ExtendedTextWrapper.html" target="_top" xlink:title="ExtendedTextWrapper wraps a TextWriter and makes it look like an ExtendedTextWriter....">
<polygon fill="white" stroke="black" points="280,-137 280,-167 426,-167 426,-137 280,-137"/>
<text text-anchor="start" x="288" y="-155" font-family="Helvetica,sans-Serif" font-size="10.00">NUnit.Common.ExtendedText</text>
<text text-anchor="middle" x="353" y="-144" font-family="Helvetica,sans-Serif" font-size="10.00">Wrapper</text>
</a>
</g>
</g>
<!-- Node0&#45;&gt;Node1 -->
<g id="edge2" class="edge"><title>Node0&#45;&gt;Node1</title>
<path fill="none" stroke="midnightblue" d="M254.439,-152C262.906,-152 271.464,-152 279.808,-152"/>
<polygon fill="midnightblue" stroke="midnightblue" points="254.176,-148.5 244.176,-152 254.176,-155.5 254.176,-148.5"/>
</g>
<!-- Node2 -->
<g id="node4" class="node"><title>Node2</title>
<g id="a_node4"><a xlink:href="db/d74/classNUnit_1_1Common_1_1ColorConsoleWriter.html" target="_top" xlink:title=" ">
<polygon fill="white" stroke="black" points="462,-137 462,-167 605,-167 605,-137 462,-137"/>
<text text-anchor="start" x="470" y="-155" font-family="Helvetica,sans-Serif" font-size="10.00">NUnit.Common.ColorConsole</text>
<text text-anchor="middle" x="533.5" y="-144" font-family="Helvetica,sans-Serif" font-size="10.00">Writer</text>
</a>
</g>
</g>
<!-- Node1&#45;&gt;Node2 -->
<g id="edge3" class="edge"><title>Node1&#45;&gt;Node2</title>
<path fill="none" stroke="midnightblue" d="M436.128,-152C444.731,-152 453.423,-152 461.882,-152"/>
<polygon fill="midnightblue" stroke="midnightblue" points="436.088,-148.5 426.088,-152 436.088,-155.5 436.088,-148.5"/>
</g>
</g>
</svg>
