<?xml version="1.0" encoding="UTF-8" standalone="no"?>
<!DOCTYPE svg PUBLIC "-//W3C//DTD SVG 1.1//EN"
 "http://www.w3.org/Graphics/SVG/1.1/DTD/svg11.dtd">
<!-- Generated by graphviz version 2.38.0 (20140413.2041)
 -->
<!-- Title: Graphical Class Hierarchy Pages: 1 -->
<svg width="408pt" height="382pt"
 viewBox="0.00 0.00 408.00 382.00" xmlns="http://www.w3.org/2000/svg" xmlns:xlink="http://www.w3.org/1999/xlink">
<g id="graph0" class="graph" transform="scale(1 1) rotate(0) translate(4 378)">
<title>Graphical Class Hierarchy</title>
<polygon fill="white" stroke="none" points="-4,4 -4,-378 404,-378 404,4 -4,4"/>
<!-- Node2294 -->
<g id="node1" class="node"><title>Node2294</title>
<g id="a_node1"><a xlink:title=" ">
<polygon fill="white" stroke="#bfbfbf" points="0,-152 0,-171 47,-171 47,-152 0,-152"/>
<text text-anchor="middle" x="23.5" y="-159" font-family="Helvetica,sans-Serif" font-size="10.00">IResult</text>
</a>
</g>
</g>
<!-- Node0 -->
<g id="node2" class="node"><title>Node0</title>
<g id="a_node2"><a xlink:href="da/dde/interfaceCShell_1_1Framework_1_1Results_1_1IOpenResult.html" target="_top" xlink:title=" ">
<polygon fill="white" stroke="black" points="83,-220.5 83,-250.5 218,-250.5 218,-220.5 83,-220.5"/>
<text text-anchor="start" x="91" y="-238.5" font-family="Helvetica,sans-Serif" font-size="10.00">CShell.Framework.Results.</text>
<text text-anchor="middle" x="150.5" y="-227.5" font-family="Helvetica,sans-Serif" font-size="10.00">IOpenResult&lt; TChild &gt;</text>
</a>
</g>
</g>
<!-- Node2294&#45;&gt;Node0 -->
<g id="edge1" class="edge"><title>Node2294&#45;&gt;Node0</title>
<path fill="none" stroke="midnightblue" d="M40.8573,-178.329C51.9501,-188.986 67.387,-202.419 83,-211.5 88.7294,-214.832 95.0006,-217.827 101.33,-220.477"/>
<polygon fill="midnightblue" stroke="midnightblue" points="43.1796,-175.704 33.6073,-171.162 38.2584,-180.682 43.1796,-175.704"/>
</g>
<!-- Node2296 -->
<g id="node3" class="node"><title>Node2296</title>
<g id="a_node3"><a xlink:href="d6/dae/classCShell_1_1Framework_1_1Results_1_1ResultBase.html" target="_top" xlink:title=" ">
<polygon fill="white" stroke="black" points="83,-171.5 83,-201.5 218,-201.5 218,-171.5 83,-171.5"/>
<text text-anchor="start" x="91" y="-189.5" font-family="Helvetica,sans-Serif" font-size="10.00">CShell.Framework.Results.</text>
<text text-anchor="middle" x="150.5" y="-178.5" font-family="Helvetica,sans-Serif" font-size="10.00">ResultBase</text>
</a>
</g>
</g>
<!-- Node2294&#45;&gt;Node2296 -->
<g id="edge2" class="edge"><title>Node2294&#45;&gt;Node2296</title>
<path fill="none" stroke="midnightblue" d="M57.0765,-168.015C65.0583,-169.612 73.8924,-171.378 82.8407,-173.168"/>
<polygon fill="midnightblue" stroke="midnightblue" points="57.6288,-164.557 47.1366,-166.027 56.2559,-171.421 57.6288,-164.557"/>
</g>
<!-- Node2305 -->
<g id="node12" class="node"><title>Node2305</title>
<g id="a_node12"><a xlink:href="d0/dfe/classCShell_1_1Framework_1_1Results_1_1ShowCommonDialogResult.html" target="_top" xlink:title=" ">
<polygon fill="white" stroke="black" points="83,-122.5 83,-152.5 218,-152.5 218,-122.5 83,-122.5"/>
<text text-anchor="start" x="91" y="-140.5" font-family="Helvetica,sans-Serif" font-size="10.00">CShell.Framework.Results.</text>
<text text-anchor="middle" x="150.5" y="-129.5" font-family="Helvetica,sans-Serif" font-size="10.00">ShowCommonDialogResult</text>
</a>
</g>
</g>
<!-- Node2294&#45;&gt;Node2305 -->
<g id="edge11" class="edge"><title>Node2294&#45;&gt;Node2305</title>
<path fill="none" stroke="midnightblue" d="M57.0765,-155.245C65.0583,-153.713 73.8924,-152.017 82.8407,-150.299"/>
<polygon fill="midnightblue" stroke="midnightblue" points="56.2972,-151.831 47.1366,-157.154 57.6172,-158.705 56.2972,-151.831"/>
</g>
<!-- Node2306 -->
<g id="node13" class="node"><title>Node2306</title>
<g id="a_node13"><a xlink:href="d4/d1e/classCShell_1_1Framework_1_1Results_1_1ShowFolderDialogResult.html" target="_top" xlink:title=" ">
<polygon fill="white" stroke="black" points="83,-73.5 83,-103.5 218,-103.5 218,-73.5 83,-73.5"/>
<text text-anchor="start" x="91" y="-91.5" font-family="Helvetica,sans-Serif" font-size="10.00">CShell.Framework.Results.</text>
<text text-anchor="middle" x="150.5" y="-80.5" font-family="Helvetica,sans-Serif" font-size="10.00">ShowFolderDialogResult</text>
</a>
</g>
</g>
<!-- Node2294&#45;&gt;Node2306 -->
<g id="edge12" class="edge"><title>Node2294&#45;&gt;Node2306</title>
<path fill="none" stroke="midnightblue" d="M41.4112,-145.085C52.5351,-134.957 67.8002,-122.271 83,-113.5 89.4098,-109.801 96.468,-106.463 103.519,-103.52"/>
<polygon fill="midnightblue" stroke="midnightblue" points="39.0195,-142.53 34.1034,-151.915 43.7992,-147.644 39.0195,-142.53"/>
</g>
<!-- Node2297 -->
<g id="node4" class="node"><title>Node2297</title>
<g id="a_node4"><a xlink:href="dd/d6d/classCShell_1_1Framework_1_1Results_1_1CloseWorkspaceResult.html" target="_top" xlink:title=" ">
<polygon fill="white" stroke="black" points="259.5,-343.5 259.5,-373.5 394.5,-373.5 394.5,-343.5 259.5,-343.5"/>
<text text-anchor="start" x="267.5" y="-361.5" font-family="Helvetica,sans-Serif" font-size="10.00">CShell.Framework.Results.</text>
<text text-anchor="middle" x="327" y="-350.5" font-family="Helvetica,sans-Serif" font-size="10.00">CloseWorkspaceResult</text>
</a>
</g>
</g>
<!-- Node2296&#45;&gt;Node2297 -->
<g id="edge3" class="edge"><title>Node2296&#45;&gt;Node2297</title>
<path fill="none" stroke="midnightblue" d="M213.679,-207.375C215.201,-208.669 216.647,-210.042 218,-211.5 256.741,-253.256 214.476,-293.485 254,-334.5 257.291,-337.916 261.081,-340.845 265.163,-343.358"/>
<polygon fill="midnightblue" stroke="midnightblue" points="215.683,-204.505 205.51,-201.546 211.618,-210.204 215.683,-204.505"/>
</g>
<!-- Node2298 -->
<g id="node5" class="node"><title>Node2298</title>
<g id="a_node5"><a xlink:href="df/de8/classCShell_1_1Framework_1_1Results_1_1OpenWorkspaceResult.html" target="_top" xlink:title=" ">
<polygon fill="white" stroke="black" points="259.5,-294.5 259.5,-324.5 394.5,-324.5 394.5,-294.5 259.5,-294.5"/>
<text text-anchor="start" x="267.5" y="-312.5" font-family="Helvetica,sans-Serif" font-size="10.00">CShell.Framework.Results.</text>
<text text-anchor="middle" x="327" y="-301.5" font-family="Helvetica,sans-Serif" font-size="10.00">OpenWorkspaceResult</text>
</a>
</g>
</g>
<!-- Node2296&#45;&gt;Node2298 -->
<g id="edge4" class="edge"><title>Node2296&#45;&gt;Node2298</title>
<path fill="none" stroke="midnightblue" d="M212.596,-207.118C214.486,-208.489 216.296,-209.948 218,-211.5 245.038,-236.129 226.5,-261.387 254,-285.5 257.963,-288.975 262.445,-291.95 267.188,-294.496"/>
<polygon fill="midnightblue" stroke="midnightblue" points="214.197,-203.992 203.863,-201.656 210.485,-209.926 214.197,-203.992"/>
</g>
<!-- Node2299 -->
<g id="node6" class="node"><title>Node2299</title>
<g id="a_node6"><a xlink:href="d5/dd0/classCShell_1_1Framework_1_1Results_1_1RunCodeResult.html" target="_top" xlink:title=" ">
<polygon fill="white" stroke="black" points="259.5,-245.5 259.5,-275.5 394.5,-275.5 394.5,-245.5 259.5,-245.5"/>
<text text-anchor="start" x="267.5" y="-263.5" font-family="Helvetica,sans-Serif" font-size="10.00">CShell.Framework.Results.</text>
<text text-anchor="middle" x="327" y="-252.5" font-family="Helvetica,sans-Serif" font-size="10.00">RunCodeResult</text>
</a>
</g>
</g>
<!-- Node2296&#45;&gt;Node2299 -->
<g id="edge5" class="edge"><title>Node2296&#45;&gt;Node2299</title>
<path fill="none" stroke="midnightblue" d="M205.566,-205.518C209.83,-207.413 214.022,-209.412 218,-211.5 235.249,-220.552 236.583,-227.776 254,-236.5 260.597,-239.805 267.754,-242.812 274.909,-245.494"/>
<polygon fill="midnightblue" stroke="midnightblue" points="206.742,-202.216 196.168,-201.546 204.016,-208.663 206.742,-202.216"/>
</g>
<!-- Node2300 -->
<g id="node7" class="node"><title>Node2300</title>
<g id="a_node7"><a xlink:href="d6/dc4/classCShell_1_1Framework_1_1Results_1_1SaveDocumentResult.html" target="_top" xlink:title=" ">
<polygon fill="white" stroke="black" points="259.5,-196.5 259.5,-226.5 394.5,-226.5 394.5,-196.5 259.5,-196.5"/>
<text text-anchor="start" x="267.5" y="-214.5" font-family="Helvetica,sans-Serif" font-size="10.00">CShell.Framework.Results.</text>
<text text-anchor="middle" x="327" y="-203.5" font-family="Helvetica,sans-Serif" font-size="10.00">SaveDocumentResult</text>
</a>
</g>
</g>
<!-- Node2296&#45;&gt;Node2300 -->
<g id="edge6" class="edge"><title>Node2296&#45;&gt;Node2300</title>
<path fill="none" stroke="midnightblue" d="M228.592,-197.545C238.8,-199.007 249.197,-200.497 259.212,-201.932"/>
<polygon fill="midnightblue" stroke="midnightblue" points="228.863,-194.048 218.467,-196.094 227.87,-200.977 228.863,-194.048"/>
</g>
<!-- Node2301 -->
<g id="node8" class="node"><title>Node2301</title>
<g id="a_node8"><a xlink:href="dc/dd0/classCShell_1_1Framework_1_1Results_1_1ShowDialogResult.html" target="_top" xlink:title=" ">
<polygon fill="white" stroke="black" points="259.5,-147.5 259.5,-177.5 394.5,-177.5 394.5,-147.5 259.5,-147.5"/>
<text text-anchor="start" x="267.5" y="-165.5" font-family="Helvetica,sans-Serif" font-size="10.00">CShell.Framework.Results.</text>
<text text-anchor="middle" x="327" y="-154.5" font-family="Helvetica,sans-Serif" font-size="10.00">ShowDialogResult</text>
</a>
</g>
</g>
<!-- Node2296&#45;&gt;Node2301 -->
<g id="edge7" class="edge"><title>Node2296&#45;&gt;Node2301</title>
<path fill="none" stroke="midnightblue" d="M228.592,-175.897C238.8,-174.493 249.197,-173.063 259.212,-171.686"/>
<polygon fill="midnightblue" stroke="midnightblue" points="227.897,-172.46 218.467,-177.29 228.851,-179.394 227.897,-172.46"/>
</g>
<!-- Node2302 -->
<g id="node9" class="node"><title>Node2302</title>
<g id="a_node9"><a xlink:href="dc/da8/classCShell_1_1Modules_1_1Workspace_1_1Results_1_1AddFilesResult.html" target="_top" xlink:title=" ">
<polygon fill="white" stroke="black" points="257,-98.5 257,-128.5 397,-128.5 397,-98.5 257,-98.5"/>
<text text-anchor="start" x="265" y="-116.5" font-family="Helvetica,sans-Serif" font-size="10.00">CShell.Modules.Workspace.</text>
<text text-anchor="middle" x="327" y="-105.5" font-family="Helvetica,sans-Serif" font-size="10.00">Results.AddFilesResult</text>
</a>
</g>
</g>
<!-- Node2296&#45;&gt;Node2302 -->
<g id="edge8" class="edge"><title>Node2296&#45;&gt;Node2302</title>
<path fill="none" stroke="midnightblue" d="M207.186,-167.551C210.889,-165.941 214.524,-164.253 218,-162.5 235.169,-153.84 236.779,-147.056 254,-138.5 261.347,-134.85 269.359,-131.501 277.282,-128.522"/>
<polygon fill="midnightblue" stroke="midnightblue" points="205.803,-164.336 197.9,-171.391 208.478,-170.805 205.803,-164.336"/>
</g>
<!-- Node2303 -->
<g id="node10" class="node"><title>Node2303</title>
<g id="a_node10"><a xlink:href="d5/dbd/classCShell_1_1Modules_1_1Workspace_1_1Results_1_1AddFolderResult.html" target="_top" xlink:title=" ">
<polygon fill="white" stroke="black" points="257,-49.5 257,-79.5 397,-79.5 397,-49.5 257,-49.5"/>
<text text-anchor="start" x="265" y="-67.5" font-family="Helvetica,sans-Serif" font-size="10.00">CShell.Modules.Workspace.</text>
<text text-anchor="middle" x="327" y="-56.5" font-family="Helvetica,sans-Serif" font-size="10.00">Results.AddFolderResult</text>
</a>
</g>
</g>
<!-- Node2296&#45;&gt;Node2303 -->
<g id="edge9" class="edge"><title>Node2296&#45;&gt;Node2303</title>
<path fill="none" stroke="midnightblue" d="M213.86,-165.875C215.295,-164.805 216.679,-163.681 218,-162.5 244.969,-138.389 226.885,-113.446 254,-89.5 258.364,-85.646 263.355,-82.3783 268.628,-79.6092"/>
<polygon fill="midnightblue" stroke="midnightblue" points="211.706,-163.098 205.161,-171.429 215.473,-168.998 211.706,-163.098"/>
</g>
<!-- Node2304 -->
<g id="node11" class="node"><title>Node2304</title>
<g id="a_node11"><a xlink:href="d9/d50/classCShell_1_1Modules_1_1Workspace_1_1Results_1_1AddReferencesResult.html" target="_top" xlink:title=" ">
<polygon fill="white" stroke="black" points="254,-0.5 254,-30.5 400,-30.5 400,-0.5 254,-0.5"/>
<text text-anchor="start" x="262" y="-18.5" font-family="Helvetica,sans-Serif" font-size="10.00">CShell.Modules.Workspace.</text>
<text text-anchor="middle" x="327" y="-7.5" font-family="Helvetica,sans-Serif" font-size="10.00">Results.AddReferencesResult</text>
</a>
</g>
</g>
<!-- Node2296&#45;&gt;Node2304 -->
<g id="edge10" class="edge"><title>Node2296&#45;&gt;Node2304</title>
<path fill="none" stroke="midnightblue" d="M215.184,-165.252C216.16,-164.372 217.1,-163.455 218,-162.5 256.77,-121.355 214.98,-81.4087 254,-40.5 257.653,-36.67 261.922,-33.4266 266.526,-30.6798"/>
<polygon fill="midnightblue" stroke="midnightblue" points="212.991,-162.521 207.081,-171.314 217.185,-168.126 212.991,-162.521"/>
</g>
</g>
</svg>
