<?xml version="1.0" encoding="UTF-8" standalone="no"?>
<!DOCTYPE svg PUBLIC "-//W3C//DTD SVG 1.1//EN"
 "http://www.w3.org/Graphics/SVG/1.1/DTD/svg11.dtd">
<!-- Generated by graphviz version 2.38.0 (20140413.2041)
 -->
<!-- Title: Graphical Class Hierarchy Pages: 1 -->
<svg width="617pt" height="104pt"
 viewBox="0.00 0.00 617.00 104.00" xmlns="http://www.w3.org/2000/svg" xmlns:xlink="http://www.w3.org/1999/xlink">
<g id="graph0" class="graph" transform="scale(1 1) rotate(0) translate(4 100)">
<title>Graphical Class Hierarchy</title>
<polygon fill="white" stroke="none" points="-4,4 -4,-100 613,-100 613,4 -4,4"/>
<!-- Node0 -->
<g id="node1" class="node"><title>Node0</title>
<g id="a_node1"><a xlink:href="da/dac/classIG_1_1Lib_1_1ParsableXmlObject.html" target="_top" xlink:title="Base class for data classes that support writing data to / reading from custom XML files,...">
<polygon fill="white" stroke="black" points="0,-38.5 0,-57.5 128,-57.5 128,-38.5 0,-38.5"/>
<text text-anchor="middle" x="64" y="-45.5" font-family="Helvetica,sans-Serif" font-size="10.00">IG.Lib.ParsableXmlObject</text>
</a>
</g>
</g>
<!-- Node1 -->
<g id="node2" class="node"><title>Node1</title>
<g id="a_node2"><a xlink:href="d8/d6e/classIG_1_1Lib_1_1MsgBase.html" target="_top" xlink:title="Base class for all messages.">
<polygon fill="white" stroke="black" points="164,-38.5 164,-57.5 250,-57.5 250,-38.5 164,-38.5"/>
<text text-anchor="middle" x="207" y="-45.5" font-family="Helvetica,sans-Serif" font-size="10.00">IG.Lib.MsgBase</text>
</a>
</g>
</g>
<!-- Node0&#45;&gt;Node1 -->
<g id="edge1" class="edge"><title>Node0&#45;&gt;Node1</title>
<path fill="none" stroke="midnightblue" d="M138.26,-48C146.941,-48 155.565,-48 163.606,-48"/>
<polygon fill="midnightblue" stroke="midnightblue" points="138.077,-44.5001 128.077,-48 138.077,-51.5001 138.077,-44.5001"/>
</g>
<!-- Node2 -->
<g id="node3" class="node"><title>Node2</title>
<g id="a_node3"><a xlink:href="db/dbc/classIG_1_1Lib_1_1DocFindings.html" target="_top" xlink:title="Class for holding and manipulating the data about observation order. Includes parsing an XML file,...">
<polygon fill="white" stroke="black" points="303.5,-76.5 303.5,-95.5 402.5,-95.5 402.5,-76.5 303.5,-76.5"/>
<text text-anchor="middle" x="353" y="-83.5" font-family="Helvetica,sans-Serif" font-size="10.00">IG.Lib.DocFindings</text>
</a>
</g>
</g>
<!-- Node1&#45;&gt;Node2 -->
<g id="edge2" class="edge"><title>Node1&#45;&gt;Node2</title>
<path fill="none" stroke="midnightblue" d="M254.172,-60.1843C274.164,-65.46 297.219,-71.5438 315.924,-76.4799"/>
<polygon fill="midnightblue" stroke="midnightblue" points="254.899,-56.7565 244.337,-57.589 253.113,-63.5248 254.899,-56.7565"/>
</g>
<!-- Node3 -->
<g id="node4" class="node"><title>Node3</title>
<g id="a_node4"><a xlink:href="d4/d2b/classIG_1_1Lib_1_1MsgBaseWithModel.html" target="_top" xlink:title="Base class messages, includes possibility of model document for conversion of the object to XML msg a...">
<polygon fill="white" stroke="black" points="286.5,-38.5 286.5,-57.5 419.5,-57.5 419.5,-38.5 286.5,-38.5"/>
<text text-anchor="middle" x="353" y="-45.5" font-family="Helvetica,sans-Serif" font-size="10.00">IG.Lib.MsgBaseWithModel</text>
</a>
</g>
</g>
<!-- Node1&#45;&gt;Node3 -->
<g id="edge3" class="edge"><title>Node1&#45;&gt;Node3</title>
<path fill="none" stroke="midnightblue" d="M260.169,-48C268.667,-48 277.564,-48 286.335,-48"/>
<polygon fill="midnightblue" stroke="midnightblue" points="260.038,-44.5001 250.038,-48 260.038,-51.5001 260.038,-44.5001"/>
</g>
<!-- Node6 -->
<g id="node7" class="node"><title>Node6</title>
<g id="a_node7"><a xlink:href="d0/d10/classIG_1_1Lib_1_1MsgObervationOrder.html" target="_top" xlink:title="Class for holding and manipulating the data about observation order. Includes parsing an XML file,...">
<polygon fill="white" stroke="black" points="286,-0.5 286,-19.5 420,-19.5 420,-0.5 286,-0.5"/>
<text text-anchor="middle" x="353" y="-7.5" font-family="Helvetica,sans-Serif" font-size="10.00">IG.Lib.MsgObervationOrder</text>
</a>
</g>
</g>
<!-- Node1&#45;&gt;Node6 -->
<g id="edge6" class="edge"><title>Node1&#45;&gt;Node6</title>
<path fill="none" stroke="midnightblue" d="M254.172,-35.8157C274.164,-30.54 297.219,-24.4562 315.924,-19.5201"/>
<polygon fill="midnightblue" stroke="midnightblue" points="253.113,-32.4752 244.337,-38.411 254.899,-39.2435 253.113,-32.4752"/>
</g>
<!-- Node4 -->
<g id="node5" class="node"><title>Node4</title>
<g id="a_node5"><a xlink:href="d4/dfd/classIG_1_1Lib_1_1MsgFinancialTransaction.html" target="_top" xlink:title="Class for holding and manipulating the data about financial transaction. Includes parsing an XML file...">
<polygon fill="white" stroke="black" points="456,-57.5 456,-76.5 609,-76.5 609,-57.5 456,-57.5"/>
<text text-anchor="middle" x="532.5" y="-64.5" font-family="Helvetica,sans-Serif" font-size="10.00">IG.Lib.MsgFinancialTransaction</text>
</a>
</g>
</g>
<!-- Node3&#45;&gt;Node4 -->
<g id="edge4" class="edge"><title>Node3&#45;&gt;Node4</title>
<path fill="none" stroke="midnightblue" d="M429.709,-56.1041C438.414,-57.0358 447.289,-57.9859 455.991,-58.9173"/>
<polygon fill="midnightblue" stroke="midnightblue" points="429.906,-52.6052 419.59,-55.0209 429.161,-59.5655 429.906,-52.6052"/>
</g>
<!-- Node5 -->
<g id="node6" class="node"><title>Node5</title>
<g id="a_node6"><a xlink:href="df/d19/classIG_1_1Lib_1_1MsgObservationEvent.html" target="_top" xlink:title="Class for holding and manipulating the data about observation event. Includes parsing an XML file,...">
<polygon fill="white" stroke="black" points="463,-19.5 463,-38.5 602,-38.5 602,-19.5 463,-19.5"/>
<text text-anchor="middle" x="532.5" y="-26.5" font-family="Helvetica,sans-Serif" font-size="10.00">IG.Lib.MsgObservationEvent</text>
</a>
</g>
</g>
<!-- Node3&#45;&gt;Node5 -->
<g id="edge5" class="edge"><title>Node3&#45;&gt;Node5</title>
<path fill="none" stroke="midnightblue" d="M429.638,-39.9035C440.686,-38.7209 452.011,-37.5086 462.909,-36.3422"/>
<polygon fill="midnightblue" stroke="midnightblue" points="429.161,-36.4345 419.59,-40.9791 429.906,-43.3948 429.161,-36.4345"/>
</g>
</g>
</svg>
