<?xml version="1.0" encoding="UTF-8" standalone="no"?>
<!DOCTYPE svg PUBLIC "-//W3C//DTD SVG 1.1//EN"
 "http://www.w3.org/Graphics/SVG/1.1/DTD/svg11.dtd">
<!-- Generated by graphviz version 2.38.0 (20140413.2041)
 -->
<!-- Title: Graphical Class Hierarchy Pages: 1 -->
<svg width="414pt" height="110pt"
 viewBox="0.00 0.00 414.00 110.00" xmlns="http://www.w3.org/2000/svg" xmlns:xlink="http://www.w3.org/1999/xlink">
<g id="graph0" class="graph" transform="scale(1 1) rotate(0) translate(4 106)">
<title>Graphical Class Hierarchy</title>
<polygon fill="white" stroke="none" points="-4,4 -4,-106 410,-106 410,4 -4,4"/>
<!-- Node0 -->
<g id="node1" class="node"><title>Node0</title>
<g id="a_node1"><a xlink:href="d7/dd8/classIG_1_1Lib_1_1SerializationDtoBase.html" target="_top" xlink:title=" ">
<polygon fill="white" stroke="black" points="0,-30.5 0,-71.5 194,-71.5 194,-30.5 0,-30.5"/>
<text text-anchor="start" x="8" y="-59.5" font-family="Helvetica,sans-Serif" font-size="10.00">IG.Lib.SerializationDtoBase</text>
<text text-anchor="start" x="8" y="-48.5" font-family="Helvetica,sans-Serif" font-size="10.00">&lt; TypeResponseEvaluator,</text>
<text text-anchor="middle" x="97" y="-37.5" font-family="Helvetica,sans-Serif" font-size="10.00"> ResponseEvaluatorWithStorageVector &gt;</text>
</a>
</g>
</g>
<!-- Node1 -->
<g id="node2" class="node"><title>Node1</title>
<g id="a_node2"><a xlink:href="d1/d14/classIG_1_1Num_1_1ResponseEvaluatorWithStorageVectorDtoBase.html" target="_top" xlink:title="Base class for DTOs (Data Transfer Objects) for response evaluators with storage where response is ev...">
<polygon fill="white" stroke="black" points="248.5,-60.5 248.5,-101.5 387.5,-101.5 387.5,-60.5 248.5,-60.5"/>
<text text-anchor="start" x="256.5" y="-89.5" font-family="Helvetica,sans-Serif" font-size="10.00">IG.Num.ResponseEvaluator</text>
<text text-anchor="start" x="256.5" y="-78.5" font-family="Helvetica,sans-Serif" font-size="10.00">WithStorageVectorDtoBase</text>
<text text-anchor="middle" x="318" y="-67.5" font-family="Helvetica,sans-Serif" font-size="10.00">&lt; TypeResponseEvaluator &gt;</text>
</a>
</g>
</g>
<!-- Node0&#45;&gt;Node1 -->
<g id="edge1" class="edge"><title>Node0&#45;&gt;Node1</title>
<path fill="none" stroke="midnightblue" d="M204.375,-65.5719C219.317,-67.6188 234.337,-69.6764 248.321,-71.5919"/>
<polygon fill="midnightblue" stroke="midnightblue" points="204.439,-62.0481 194.057,-64.1584 203.489,-68.9833 204.439,-62.0481"/>
</g>
<!-- Node2 -->
<g id="node3" class="node"><title>Node2</title>
<g id="a_node3"><a xlink:href="d2/d93/classIG_1_1NumExperimental_1_1ResponseEvaluatorWithStorageVectorDtoBase.html" target="_top" xlink:title="Base class for DTOs (Data Transfer Objects) for response evaluators with storage where response is ev...">
<polygon fill="white" stroke="black" points="230,-0.5 230,-41.5 406,-41.5 406,-0.5 230,-0.5"/>
<text text-anchor="start" x="238" y="-29.5" font-family="Helvetica,sans-Serif" font-size="10.00">IG.NumExperimental.Response</text>
<text text-anchor="start" x="238" y="-18.5" font-family="Helvetica,sans-Serif" font-size="10.00">EvaluatorWithStorageVectorDtoBase</text>
<text text-anchor="middle" x="318" y="-7.5" font-family="Helvetica,sans-Serif" font-size="10.00">&lt; TypeResponseEvaluator &gt;</text>
</a>
</g>
</g>
<!-- Node0&#45;&gt;Node2 -->
<g id="edge2" class="edge"><title>Node0&#45;&gt;Node2</title>
<path fill="none" stroke="midnightblue" d="M204.18,-36.4548C212.825,-35.2705 221.498,-34.0824 229.983,-32.9201"/>
<polygon fill="midnightblue" stroke="midnightblue" points="203.489,-33.0167 194.057,-37.8416 204.439,-39.9519 203.489,-33.0167"/>
</g>
</g>
</svg>
