<?xml version="1.0" encoding="UTF-8" standalone="no"?>
<!DOCTYPE svg PUBLIC "-//W3C//DTD SVG 1.1//EN"
 "http://www.w3.org/Graphics/SVG/1.1/DTD/svg11.dtd">
<!-- Generated by graphviz version 2.38.0 (20140413.2041)
 -->
<!-- Title: Graphical Class Hierarchy Pages: 1 -->
<svg width="349pt" height="78pt"
 viewBox="0.00 0.00 349.00 77.50" xmlns="http://www.w3.org/2000/svg" xmlns:xlink="http://www.w3.org/1999/xlink">
<g id="graph0" class="graph" transform="scale(1 1) rotate(0) translate(4 73.5)">
<title>Graphical Class Hierarchy</title>
<polygon fill="white" stroke="none" points="-4,4 -4,-73.5 345,-73.5 345,4 -4,4"/>
<!-- Node0 -->
<g id="node1" class="node"><title>Node0</title>
<g id="a_node1"><a xlink:href="d7/d79/classAForge_1_1Imaging_1_1BlobCounterBase.html" target="_top" xlink:title="Base class for different blob counting algorithms.">
<polygon fill="white" stroke="black" points="0,-28 0,-47 164,-47 164,-28 0,-28"/>
<text text-anchor="middle" x="82" y="-35" font-family="Helvetica,sans-Serif" font-size="10.00">AForge.Imaging.BlobCounterBase</text>
</a>
</g>
</g>
<!-- Node1 -->
<g id="node2" class="node"><title>Node1</title>
<g id="a_node2"><a xlink:href="d1/d9f/classAForge_1_1Imaging_1_1BlobCounter.html" target="_top" xlink:title="Blob counter &#45; counts objects in image, which are separated by black background.">
<polygon fill="white" stroke="black" points="200,-50 200,-69 341,-69 341,-50 200,-50"/>
<text text-anchor="middle" x="270.5" y="-57" font-family="Helvetica,sans-Serif" font-size="10.00">AForge.Imaging.BlobCounter</text>
</a>
</g>
</g>
<!-- Node0&#45;&gt;Node1 -->
<g id="edge1" class="edge"><title>Node0&#45;&gt;Node1</title>
<path fill="none" stroke="midnightblue" d="M173.899,-48.2227C182.6,-49.249 191.327,-50.2785 199.779,-51.2755"/>
<polygon fill="midnightblue" stroke="midnightblue" points="174.058,-44.7173 163.717,-47.0216 173.238,-51.6691 174.058,-44.7173"/>
</g>
<!-- Node2 -->
<g id="node3" class="node"><title>Node2</title>
<g id="a_node3"><a xlink:href="d8/dd8/classAForge_1_1Imaging_1_1RecursiveBlobCounter.html" target="_top" xlink:title="Blob counter based on recursion.">
<polygon fill="white" stroke="black" points="205.5,-0.5 205.5,-30.5 335.5,-30.5 335.5,-0.5 205.5,-0.5"/>
<text text-anchor="start" x="213.5" y="-18.5" font-family="Helvetica,sans-Serif" font-size="10.00">AForge.Imaging.Recursive</text>
<text text-anchor="middle" x="270.5" y="-7.5" font-family="Helvetica,sans-Serif" font-size="10.00">BlobCounter</text>
</a>
</g>
</g>
<!-- Node0&#45;&gt;Node2 -->
<g id="edge2" class="edge"><title>Node0&#45;&gt;Node2</title>
<path fill="none" stroke="midnightblue" d="M173.851,-26.783C184.452,-25.5325 195.095,-24.277 205.231,-23.0814"/>
<polygon fill="midnightblue" stroke="midnightblue" points="173.238,-23.3309 163.717,-27.9784 174.058,-30.2827 173.238,-23.3309"/>
</g>
</g>
</svg>
