<?xml version="1.0" encoding="UTF-8" standalone="no"?>
<!DOCTYPE svg PUBLIC "-//W3C//DTD SVG 1.1//EN"
 "http://www.w3.org/Graphics/SVG/1.1/DTD/svg11.dtd">
<!-- Generated by graphviz version 2.38.0 (20140413.2041)
 -->
<!-- Title: Graphical Class Hierarchy Pages: 1 -->
<svg width="585pt" height="39pt"
 viewBox="0.00 0.00 585.00 39.00" xmlns="http://www.w3.org/2000/svg" xmlns:xlink="http://www.w3.org/1999/xlink">
<g id="graph0" class="graph" transform="scale(1 1) rotate(0) translate(4 35)">
<title>Graphical Class Hierarchy</title>
<polygon fill="white" stroke="none" points="-4,4 -4,-35 581,-35 581,4 -4,4"/>
<!-- Node0 -->
<g id="node1" class="node"><title>Node0</title>
<g id="a_node1"><a xlink:href="df/d58/classNUnit_1_1Framework_1_1Constraints_1_1AssignableFromConstraintTests_1_1B.html" target="_top" xlink:title=" ">
<polygon fill="white" stroke="black" points="0,-0.5 0,-30.5 165,-30.5 165,-0.5 0,-0.5"/>
<text text-anchor="start" x="8" y="-18.5" font-family="Helvetica,sans-Serif" font-size="10.00">NUnit.Framework.Constraints.</text>
<text text-anchor="middle" x="82.5" y="-7.5" font-family="Helvetica,sans-Serif" font-size="10.00">AssignableFromConstraintTests.B</text>
</a>
</g>
</g>
<!-- Node1 -->
<g id="node2" class="node"><title>Node1</title>
<g id="a_node2"><a xlink:href="da/de6/classNUnit_1_1Framework_1_1Constraints_1_1AssignableFromConstraintTests_1_1D1.html" target="_top" xlink:title=" ">
<polygon fill="white" stroke="black" points="201,-0.5 201,-30.5 371,-30.5 371,-0.5 201,-0.5"/>
<text text-anchor="start" x="209" y="-18.5" font-family="Helvetica,sans-Serif" font-size="10.00">NUnit.Framework.Constraints.</text>
<text text-anchor="middle" x="286" y="-7.5" font-family="Helvetica,sans-Serif" font-size="10.00">AssignableFromConstraintTests.D1</text>
</a>
</g>
</g>
<!-- Node0&#45;&gt;Node1 -->
<g id="edge1" class="edge"><title>Node0&#45;&gt;Node1</title>
<path fill="none" stroke="midnightblue" d="M175.179,-15.5C183.755,-15.5 192.419,-15.5 200.921,-15.5"/>
<polygon fill="midnightblue" stroke="midnightblue" points="175.167,-12.0001 165.167,-15.5 175.167,-19.0001 175.167,-12.0001"/>
</g>
<!-- Node2 -->
<g id="node3" class="node"><title>Node2</title>
<g id="a_node3"><a xlink:href="df/dcc/classNUnit_1_1Framework_1_1Constraints_1_1AssignableFromConstraintTests_1_1D2.html" target="_top" xlink:title=" ">
<polygon fill="white" stroke="black" points="407,-0.5 407,-30.5 577,-30.5 577,-0.5 407,-0.5"/>
<text text-anchor="start" x="415" y="-18.5" font-family="Helvetica,sans-Serif" font-size="10.00">NUnit.Framework.Constraints.</text>
<text text-anchor="middle" x="492" y="-7.5" font-family="Helvetica,sans-Serif" font-size="10.00">AssignableFromConstraintTests.D2</text>
</a>
</g>
</g>
<!-- Node1&#45;&gt;Node2 -->
<g id="edge2" class="edge"><title>Node1&#45;&gt;Node2</title>
<path fill="none" stroke="midnightblue" d="M381.402,-15.5C389.847,-15.5 398.361,-15.5 406.712,-15.5"/>
<polygon fill="midnightblue" stroke="midnightblue" points="381.152,-12.0001 371.152,-15.5 381.152,-19.0001 381.152,-12.0001"/>
</g>
</g>
</svg>
