<?xml version="1.0" encoding="UTF-8" standalone="no"?>
<!DOCTYPE svg PUBLIC "-//W3C//DTD SVG 1.1//EN"
 "http://www.w3.org/Graphics/SVG/1.1/DTD/svg11.dtd">
<!-- Generated by graphviz version 2.38.0 (20140413.2041)
 -->
<!-- Title: Graphical Class Hierarchy Pages: 1 -->
<svg width="289pt" height="88pt"
 viewBox="0.00 0.00 289.00 88.00" xmlns="http://www.w3.org/2000/svg" xmlns:xlink="http://www.w3.org/1999/xlink">
<g id="graph0" class="graph" transform="scale(1 1) rotate(0) translate(4 84)">
<title>Graphical Class Hierarchy</title>
<polygon fill="white" stroke="none" points="-4,4 -4,-84 285,-84 285,4 -4,4"/>
<!-- Node4555 -->
<g id="node1" class="node"><title>Node4555</title>
<g id="a_node1"><a xlink:title=" ">
<polygon fill="white" stroke="#bfbfbf" points="0,-30 0,-49 102,-49 102,-30 0,-30"/>
<text text-anchor="middle" x="51" y="-37" font-family="Helvetica,sans-Serif" font-size="10.00">ArgumentException</text>
</a>
</g>
</g>
<!-- Node0 -->
<g id="node2" class="node"><title>Node0</title>
<g id="a_node2"><a xlink:href="d6/d14/classAForge_1_1Imaging_1_1InvalidImagePropertiesException.html" target="_top" xlink:title="Invalid image properties exception.">
<polygon fill="white" stroke="black" points="139.5,-49.5 139.5,-79.5 279.5,-79.5 279.5,-49.5 139.5,-49.5"/>
<text text-anchor="start" x="147.5" y="-67.5" font-family="Helvetica,sans-Serif" font-size="10.00">AForge.Imaging.InvalidImage</text>
<text text-anchor="middle" x="209.5" y="-56.5" font-family="Helvetica,sans-Serif" font-size="10.00">PropertiesException</text>
</a>
</g>
</g>
<!-- Node4555&#45;&gt;Node0 -->
<g id="edge1" class="edge"><title>Node4555&#45;&gt;Node0</title>
<path fill="none" stroke="midnightblue" d="M112.533,-49.1698C121.33,-50.5752 130.443,-52.0309 139.394,-53.4607"/>
<polygon fill="midnightblue" stroke="midnightblue" points="112.806,-45.6691 102.379,-47.5478 111.702,-52.5815 112.806,-45.6691"/>
</g>
<!-- Node4557 -->
<g id="node3" class="node"><title>Node4557</title>
<g id="a_node3"><a xlink:href="d4/d86/classAForge_1_1Imaging_1_1UnsupportedImageFormatException.html" target="_top" xlink:title="Unsupported image format exception.">
<polygon fill="white" stroke="black" points="138,-0.5 138,-30.5 281,-30.5 281,-0.5 138,-0.5"/>
<text text-anchor="start" x="146" y="-18.5" font-family="Helvetica,sans-Serif" font-size="10.00">AForge.Imaging.Unsupported</text>
<text text-anchor="middle" x="209.5" y="-7.5" font-family="Helvetica,sans-Serif" font-size="10.00">ImageFormatException</text>
</a>
</g>
</g>
<!-- Node4555&#45;&gt;Node4557 -->
<g id="edge2" class="edge"><title>Node4555&#45;&gt;Node4557</title>
<path fill="none" stroke="midnightblue" d="M112.418,-30.2346C120.787,-28.9511 129.444,-27.6235 137.978,-26.3149"/>
<polygon fill="midnightblue" stroke="midnightblue" points="111.733,-26.7987 102.379,-31.7741 112.794,-33.7178 111.733,-26.7987"/>
</g>
</g>
</svg>
