<?xml version="1.0" encoding="UTF-8" standalone="no"?>
<!DOCTYPE svg PUBLIC "-//W3C//DTD SVG 1.1//EN"
 "http://www.w3.org/Graphics/SVG/1.1/DTD/svg11.dtd">
<!-- Generated by graphviz version 2.38.0 (20140413.2041)
 -->
<!-- Title: Graphical Class Hierarchy Pages: 1 -->
<svg width="218pt" height="88pt"
 viewBox="0.00 0.00 218.00 88.00" xmlns="http://www.w3.org/2000/svg" xmlns:xlink="http://www.w3.org/1999/xlink">
<g id="graph0" class="graph" transform="scale(1 1) rotate(0) translate(4 84)">
<title>Graphical Class Hierarchy</title>
<polygon fill="white" stroke="none" points="-4,4 -4,-84 214,-84 214,4 -4,4"/>
<!-- Node2653 -->
<g id="node1" class="node"><title>Node2653</title>
<g id="a_node1"><a xlink:title=" ">
<polygon fill="white" stroke="#bfbfbf" points="0,-30 0,-49 35,-49 35,-30 0,-30"/>
<text text-anchor="middle" x="17.5" y="-37" font-family="Helvetica,sans-Serif" font-size="10.00">ILog</text>
</a>
</g>
</g>
<!-- Node0 -->
<g id="node2" class="node"><title>Node0</title>
<g id="a_node2"><a xlink:href="da/d3e/classCShell_1_1Framework_1_1Services_1_1DebugLogger.html" target="_top" xlink:title="A simple logger that writes to the Visual Studio debug log. From here: http://buksbaum....">
<polygon fill="white" stroke="black" points="71,-49.5 71,-79.5 210,-79.5 210,-49.5 71,-49.5"/>
<text text-anchor="start" x="79" y="-67.5" font-family="Helvetica,sans-Serif" font-size="10.00">CShell.Framework.Services.</text>
<text text-anchor="middle" x="140.5" y="-56.5" font-family="Helvetica,sans-Serif" font-size="10.00">DebugLogger</text>
</a>
</g>
</g>
<!-- Node2653&#45;&gt;Node0 -->
<g id="edge1" class="edge"><title>Node2653&#45;&gt;Node0</title>
<path fill="none" stroke="midnightblue" d="M45.1768,-45.0117C52.9608,-46.62 61.8456,-48.4557 70.9785,-50.3427"/>
<polygon fill="midnightblue" stroke="midnightblue" points="45.8259,-41.572 35.3245,-42.9761 44.4095,-48.4272 45.8259,-41.572"/>
</g>
<!-- Node2655 -->
<g id="node3" class="node"><title>Node2655</title>
<g id="a_node3"><a xlink:href="d0/d96/classCShell_1_1Framework_1_1Services_1_1NLogLogger.html" target="_top" xlink:title="Uses NLog to write out the log messages.">
<polygon fill="white" stroke="black" points="71,-0.5 71,-30.5 210,-30.5 210,-0.5 71,-0.5"/>
<text text-anchor="start" x="79" y="-18.5" font-family="Helvetica,sans-Serif" font-size="10.00">CShell.Framework.Services.</text>
<text text-anchor="middle" x="140.5" y="-7.5" font-family="Helvetica,sans-Serif" font-size="10.00">NLogLogger</text>
</a>
</g>
</g>
<!-- Node2653&#45;&gt;Node2655 -->
<g id="edge2" class="edge"><title>Node2653&#45;&gt;Node2655</title>
<path fill="none" stroke="midnightblue" d="M45.1768,-34.2087C52.9608,-32.6648 61.8456,-30.9025 70.9785,-29.091"/>
<polygon fill="midnightblue" stroke="midnightblue" points="44.4525,-30.7841 35.3245,-36.1629 45.8144,-37.6504 44.4525,-30.7841"/>
</g>
</g>
</svg>
