<?xml version="1.0" encoding="UTF-8" standalone="no"?>
<!DOCTYPE svg PUBLIC "-//W3C//DTD SVG 1.1//EN"
 "http://www.w3.org/Graphics/SVG/1.1/DTD/svg11.dtd">
<!-- Generated by graphviz version 2.38.0 (20140413.2041)
 -->
<!-- Title: Graphical Class Hierarchy Pages: 1 -->
<svg width="389pt" height="149pt"
 viewBox="0.00 0.00 389.00 148.50" xmlns="http://www.w3.org/2000/svg" xmlns:xlink="http://www.w3.org/1999/xlink">
<g id="graph0" class="graph" transform="scale(1 1) rotate(0) translate(4 144.5)">
<title>Graphical Class Hierarchy</title>
<polygon fill="white" stroke="none" points="-4,4 -4,-144.5 385,-144.5 385,4 -4,4"/>
<!-- Node0 -->
<g id="node1" class="node"><title>Node0</title>
<g id="a_node1"><a xlink:href="d0/db0/classNUnit_1_1Engine_1_1Services_1_1ResultWriters_1_1Tests_1_1XmlOutputTest.html" target="_top" xlink:title="This is the abstract base for all XML output tests, which need to work on a TestEngineResult....">
<polygon fill="white" stroke="black" points="0,-61 0,-91 144,-91 144,-61 0,-61"/>
<text text-anchor="start" x="8" y="-79" font-family="Helvetica,sans-Serif" font-size="10.00">NUnit.Engine.Services.Result</text>
<text text-anchor="middle" x="72" y="-68" font-family="Helvetica,sans-Serif" font-size="10.00">Writers.Tests.XmlOutputTest</text>
</a>
</g>
</g>
<!-- Node1 -->
<g id="node2" class="node"><title>Node1</title>
<g id="a_node2"><a xlink:href="d9/dbb/classNUnit_1_1Engine_1_1Services_1_1ResultWriters_1_1Tests_1_1NUnit2XmlResultWriterTests.html" target="_top" xlink:title=" ">
<polygon fill="white" stroke="black" points="180,-110 180,-140 381,-140 381,-110 180,-110"/>
<text text-anchor="start" x="188" y="-128" font-family="Helvetica,sans-Serif" font-size="10.00">NUnit.Engine.Services.Result</text>
<text text-anchor="middle" x="280.5" y="-117" font-family="Helvetica,sans-Serif" font-size="10.00">Writers.Tests.NUnit2XmlResultWriterTests</text>
</a>
</g>
</g>
<!-- Node0&#45;&gt;Node1 -->
<g id="edge1" class="edge"><title>Node0&#45;&gt;Node1</title>
<path fill="none" stroke="midnightblue" d="M146.345,-93.4038C169.188,-98.8243 194.169,-104.752 216.26,-109.994"/>
<polygon fill="midnightblue" stroke="midnightblue" points="146.898,-89.938 136.36,-91.0346 145.282,-96.7489 146.898,-89.938"/>
</g>
<!-- Node2 -->
<g id="node3" class="node"><title>Node2</title>
<g id="a_node3"><a xlink:href="db/ddc/classNUnit_1_1Engine_1_1Services_1_1ResultWriters_1_1Tests_1_1NUnit2XmlValidationTests.html" target="_top" xlink:title=" ">
<polygon fill="white" stroke="black" points="185.5,-61 185.5,-91 375.5,-91 375.5,-61 185.5,-61"/>
<text text-anchor="start" x="193.5" y="-79" font-family="Helvetica,sans-Serif" font-size="10.00">NUnit.Engine.Services.Result</text>
<text text-anchor="middle" x="280.5" y="-68" font-family="Helvetica,sans-Serif" font-size="10.00">Writers.Tests.NUnit2XmlValidationTests</text>
</a>
</g>
</g>
<!-- Node0&#45;&gt;Node2 -->
<g id="edge2" class="edge"><title>Node0&#45;&gt;Node2</title>
<path fill="none" stroke="midnightblue" d="M154.173,-76C164.398,-76 174.925,-76 185.328,-76"/>
<polygon fill="midnightblue" stroke="midnightblue" points="154.066,-72.5001 144.066,-76 154.066,-79.5001 154.066,-72.5001"/>
</g>
<!-- Node3 -->
<g id="node4" class="node"><title>Node3</title>
<g id="a_node4"><a xlink:href="da/dce/classNUnit_1_1Engine_1_1Services_1_1ResultWriters_1_1Tests_1_1XmlTransformResultWriterTests.html" target="_top" xlink:title=" ">
<polygon fill="white" stroke="black" points="198.5,-0.5 198.5,-41.5 362.5,-41.5 362.5,-0.5 198.5,-0.5"/>
<text text-anchor="start" x="206.5" y="-29.5" font-family="Helvetica,sans-Serif" font-size="10.00">NUnit.Engine.Services.Result</text>
<text text-anchor="start" x="206.5" y="-18.5" font-family="Helvetica,sans-Serif" font-size="10.00">Writers.Tests.XmlTransformResult</text>
<text text-anchor="middle" x="280.5" y="-7.5" font-family="Helvetica,sans-Serif" font-size="10.00">WriterTests</text>
</a>
</g>
</g>
<!-- Node0&#45;&gt;Node3 -->
<g id="edge3" class="edge"><title>Node0&#45;&gt;Node3</title>
<path fill="none" stroke="midnightblue" d="M139.104,-58.3935C159.205,-53.0398 181.473,-47.109 202.24,-41.5777"/>
<polygon fill="midnightblue" stroke="midnightblue" points="138.189,-55.0151 129.427,-60.971 139.991,-61.7793 138.189,-55.0151"/>
</g>
</g>
</svg>
