<?xml version="1.0" encoding="UTF-8" standalone="no"?>
<!DOCTYPE svg PUBLIC "-//W3C//DTD SVG 1.1//EN"
 "http://www.w3.org/Graphics/SVG/1.1/DTD/svg11.dtd">
<!-- Generated by graphviz version 2.38.0 (20140413.2041)
 -->
<!-- Title: Graphical Class Hierarchy Pages: 1 -->
<svg width="390pt" height="50pt"
 viewBox="0.00 0.00 390.00 50.00" xmlns="http://www.w3.org/2000/svg" xmlns:xlink="http://www.w3.org/1999/xlink">
<g id="graph0" class="graph" transform="scale(1 1) rotate(0) translate(4 46)">
<title>Graphical Class Hierarchy</title>
<polygon fill="white" stroke="none" points="-4,4 -4,-46 386,-46 386,4 -4,4"/>
<!-- Node0 -->
<g id="node1" class="node"><title>Node0</title>
<g id="a_node1"><a xlink:href="d0/d97/classNeuronDotNet_1_1Core_1_1Connector.html" target="_top" xlink:title=" ">
<polygon fill="white" stroke="black" points="0,-0.5 0,-41.5 167,-41.5 167,-0.5 0,-0.5"/>
<text text-anchor="start" x="8" y="-29.5" font-family="Helvetica,sans-Serif" font-size="10.00">NeuronDotNet.Core.Connector</text>
<text text-anchor="start" x="8" y="-18.5" font-family="Helvetica,sans-Serif" font-size="10.00">&lt; ActivationLayer, ActivationLayer,</text>
<text text-anchor="middle" x="83.5" y="-7.5" font-family="Helvetica,sans-Serif" font-size="10.00"> BackpropagationSynapse &gt;</text>
</a>
</g>
</g>
<!-- Node1 -->
<g id="node2" class="node"><title>Node1</title>
<g id="a_node2"><a xlink:href="d6/de0/classNeuronDotNet_1_1Core_1_1Backpropagation_1_1BackpropagationConnector.html" target="_top" xlink:title="A Backpropagation Connector is an IConnector which consists of a collection of backpropagation synaps...">
<polygon fill="white" stroke="black" points="203,-6 203,-36 382,-36 382,-6 203,-6"/>
<text text-anchor="start" x="211" y="-24" font-family="Helvetica,sans-Serif" font-size="10.00">NeuronDotNet.Core.Backpropagation.</text>
<text text-anchor="middle" x="292.5" y="-13" font-family="Helvetica,sans-Serif" font-size="10.00">BackpropagationConnector</text>
</a>
</g>
</g>
<!-- Node0&#45;&gt;Node1 -->
<g id="edge1" class="edge"><title>Node0&#45;&gt;Node1</title>
<path fill="none" stroke="midnightblue" d="M177.438,-21C185.879,-21 194.415,-21 202.817,-21"/>
<polygon fill="midnightblue" stroke="midnightblue" points="177.204,-17.5001 167.204,-21 177.204,-24.5001 177.204,-17.5001"/>
</g>
</g>
</svg>
