<?xml version="1.0" encoding="UTF-8" standalone="no"?>
<!DOCTYPE svg PUBLIC "-//W3C//DTD SVG 1.1//EN"
 "http://www.w3.org/Graphics/SVG/1.1/DTD/svg11.dtd">
<!-- Generated by graphviz version 2.38.0 (20140413.2041)
 -->
<!-- Title: Graphical Class Hierarchy Pages: 1 -->
<svg width="392pt" height="269pt"
 viewBox="0.00 0.00 392.00 269.00" xmlns="http://www.w3.org/2000/svg" xmlns:xlink="http://www.w3.org/1999/xlink">
<g id="graph0" class="graph" transform="scale(1 1) rotate(0) translate(4 265)">
<title>Graphical Class Hierarchy</title>
<polygon fill="white" stroke="none" points="-4,4 -4,-265 388,-265 388,4 -4,4"/>
<!-- Node0 -->
<g id="node1" class="node"><title>Node0</title>
<g id="a_node1"><a xlink:href="dd/d0b/classNUnit_1_1Framework_1_1Internal_1_1Tests_1_1TestNamingTests.html" target="_top" xlink:title=" ">
<polygon fill="white" stroke="black" points="0,-115.5 0,-145.5 129,-145.5 129,-115.5 0,-115.5"/>
<text text-anchor="start" x="8" y="-133.5" font-family="Helvetica,sans-Serif" font-size="10.00">NUnit.Framework.Internal.</text>
<text text-anchor="middle" x="64.5" y="-122.5" font-family="Helvetica,sans-Serif" font-size="10.00">Tests.TestNamingTests</text>
</a>
</g>
</g>
<!-- Node1 -->
<g id="node2" class="node"><title>Node1</title>
<g id="a_node2"><a xlink:href="da/d29/classNUnit_1_1Framework_1_1Internal_1_1Tests_1_1TestNamingTests_1_1GenericFixture.html" target="_top" xlink:title=" ">
<polygon fill="white" stroke="black" points="170,-230.5 170,-260.5 379,-260.5 379,-230.5 170,-230.5"/>
<text text-anchor="start" x="178" y="-248.5" font-family="Helvetica,sans-Serif" font-size="10.00">NUnit.Framework.Internal.</text>
<text text-anchor="middle" x="274.5" y="-237.5" font-family="Helvetica,sans-Serif" font-size="10.00">Tests.TestNamingTests.GenericFixture&lt; T &gt;</text>
</a>
</g>
</g>
<!-- Node0&#45;&gt;Node1 -->
<g id="edge1" class="edge"><title>Node0&#45;&gt;Node1</title>
<path fill="none" stroke="midnightblue" d="M84.6614,-153.525C103.123,-174.187 132.914,-203.759 165,-220.5 172.455,-224.39 180.509,-227.679 188.744,-230.46"/>
<polygon fill="midnightblue" stroke="midnightblue" points="87.1442,-151.047 77.9293,-145.819 81.8725,-155.652 87.1442,-151.047"/>
</g>
<!-- Node2 -->
<g id="node3" class="node"><title>Node2</title>
<g id="a_node3"><a xlink:href="d7/d41/classNUnit_1_1Framework_1_1Internal_1_1Tests_1_1TestNamingTests_1_1GenericParameterizedFixture.html" target="_top" xlink:title=" ">
<polygon fill="white" stroke="black" points="165,-170 165,-211 384,-211 384,-170 165,-170"/>
<text text-anchor="start" x="173" y="-199" font-family="Helvetica,sans-Serif" font-size="10.00">NUnit.Framework.Internal.</text>
<text text-anchor="start" x="173" y="-188" font-family="Helvetica,sans-Serif" font-size="10.00">Tests.TestNamingTests.GenericParameterized</text>
<text text-anchor="middle" x="274.5" y="-177" font-family="Helvetica,sans-Serif" font-size="10.00">Fixture&lt; T1, T2 &gt;</text>
</a>
</g>
</g>
<!-- Node0&#45;&gt;Node2 -->
<g id="edge2" class="edge"><title>Node0&#45;&gt;Node2</title>
<path fill="none" stroke="midnightblue" d="M124.126,-148.422C137.54,-152.454 151.75,-156.671 165,-160.5 175.796,-163.62 187.216,-166.851 198.435,-169.987"/>
<polygon fill="midnightblue" stroke="midnightblue" points="125.109,-145.062 114.524,-145.526 123.088,-151.764 125.109,-145.062"/>
</g>
<!-- Node3 -->
<g id="node4" class="node"><title>Node3</title>
<g id="a_node4"><a xlink:href="d2/d3e/classNUnit_1_1Framework_1_1Internal_1_1Tests_1_1TestNamingTests_1_1ParameterizedFixture.html" target="_top" xlink:title=" ">
<polygon fill="white" stroke="black" points="182,-110 182,-151 367,-151 367,-110 182,-110"/>
<text text-anchor="start" x="190" y="-139" font-family="Helvetica,sans-Serif" font-size="10.00">NUnit.Framework.Internal.</text>
<text text-anchor="start" x="190" y="-128" font-family="Helvetica,sans-Serif" font-size="10.00">Tests.TestNamingTests.Parameterized</text>
<text text-anchor="middle" x="274.5" y="-117" font-family="Helvetica,sans-Serif" font-size="10.00">Fixture</text>
</a>
</g>
</g>
<!-- Node0&#45;&gt;Node3 -->
<g id="edge3" class="edge"><title>Node0&#45;&gt;Node3</title>
<path fill="none" stroke="midnightblue" d="M139.341,-130.5C153.033,-130.5 167.488,-130.5 181.639,-130.5"/>
<polygon fill="midnightblue" stroke="midnightblue" points="139.037,-127 129.037,-130.5 139.037,-134 139.037,-127"/>
</g>
<!-- Node4 -->
<g id="node5" class="node"><title>Node4</title>
<g id="a_node5"><a xlink:href="de/d28/classNUnit_1_1Framework_1_1Internal_1_1Tests_1_1TestNamingTests_1_1ParameterizedFixtureWithLongStringArgument.html" target="_top" xlink:title=" ">
<polygon fill="white" stroke="black" points="182,-50 182,-91 367,-91 367,-50 182,-50"/>
<text text-anchor="start" x="190" y="-79" font-family="Helvetica,sans-Serif" font-size="10.00">NUnit.Framework.Internal.</text>
<text text-anchor="start" x="190" y="-68" font-family="Helvetica,sans-Serif" font-size="10.00">Tests.TestNamingTests.Parameterized</text>
<text text-anchor="middle" x="274.5" y="-57" font-family="Helvetica,sans-Serif" font-size="10.00">FixtureWithLongStringArgument</text>
</a>
</g>
</g>
<!-- Node0&#45;&gt;Node4 -->
<g id="edge4" class="edge"><title>Node0&#45;&gt;Node4</title>
<path fill="none" stroke="midnightblue" d="M124.126,-112.578C137.54,-108.546 151.75,-104.329 165,-100.5 175.796,-97.3804 187.216,-94.1487 198.435,-91.0127"/>
<polygon fill="midnightblue" stroke="midnightblue" points="123.088,-109.236 114.524,-115.474 125.109,-115.938 123.088,-109.236"/>
</g>
<!-- Node5 -->
<g id="node6" class="node"><title>Node5</title>
<g id="a_node6"><a xlink:href="d1/d99/classNUnit_1_1Framework_1_1Internal_1_1Tests_1_1TestNamingTests_1_1SimpleFixture.html" target="_top" xlink:title=" ">
<polygon fill="white" stroke="black" points="183.5,-0.5 183.5,-30.5 365.5,-30.5 365.5,-0.5 183.5,-0.5"/>
<text text-anchor="start" x="191.5" y="-18.5" font-family="Helvetica,sans-Serif" font-size="10.00">NUnit.Framework.Internal.</text>
<text text-anchor="middle" x="274.5" y="-7.5" font-family="Helvetica,sans-Serif" font-size="10.00">Tests.TestNamingTests.SimpleFixture</text>
</a>
</g>
</g>
<!-- Node0&#45;&gt;Node5 -->
<g id="edge5" class="edge"><title>Node0&#45;&gt;Node5</title>
<path fill="none" stroke="midnightblue" d="M84.6614,-107.475C103.123,-86.8135 132.914,-57.2406 165,-40.5 172.455,-36.6104 180.509,-33.3209 188.744,-30.5397"/>
<polygon fill="midnightblue" stroke="midnightblue" points="81.8725,-105.348 77.9293,-115.181 87.1442,-109.953 81.8725,-105.348"/>
</g>
</g>
</svg>
