<?xml version="1.0" encoding="UTF-8" standalone="no"?>
<!DOCTYPE svg PUBLIC "-//W3C//DTD SVG 1.1//EN"
 "http://www.w3.org/Graphics/SVG/1.1/DTD/svg11.dtd">
<!-- Generated by graphviz version 2.38.0 (20140413.2041)
 -->
<!-- Title: Graphical Class Hierarchy Pages: 1 -->
<svg width="324pt" height="88pt"
 viewBox="0.00 0.00 324.00 88.00" xmlns="http://www.w3.org/2000/svg" xmlns:xlink="http://www.w3.org/1999/xlink">
<g id="graph0" class="graph" transform="scale(1 1) rotate(0) translate(4 84)">
<title>Graphical Class Hierarchy</title>
<polygon fill="white" stroke="none" points="-4,4 -4,-84 320,-84 320,4 -4,4"/>
<!-- Node0 -->
<g id="node1" class="node"><title>Node0</title>
<g id="a_node1"><a xlink:href="d1/dca/interfaceAForge_1_1Genetic_1_1IGPGene.html" target="_top" xlink:title="Genetic Programming&#39;s gene interface.">
<polygon fill="white" stroke="black" points="0,-30 0,-49 128,-49 128,-30 0,-30"/>
<text text-anchor="middle" x="64" y="-37" font-family="Helvetica,sans-Serif" font-size="10.00">AForge.Genetic.IGPGene</text>
</a>
</g>
</g>
<!-- Node1 -->
<g id="node2" class="node"><title>Node1</title>
<g id="a_node2"><a xlink:href="da/d88/classAForge_1_1Genetic_1_1ExtendedGeneFunction.html" target="_top" xlink:title="Genetic programming gene, which represents arithmetic functions, common mathematical functions and ar...">
<polygon fill="white" stroke="black" points="164,-49.5 164,-79.5 316,-79.5 316,-49.5 164,-49.5"/>
<text text-anchor="start" x="172" y="-67.5" font-family="Helvetica,sans-Serif" font-size="10.00">AForge.Genetic.ExtendedGene</text>
<text text-anchor="middle" x="240" y="-56.5" font-family="Helvetica,sans-Serif" font-size="10.00">Function</text>
</a>
</g>
</g>
<!-- Node0&#45;&gt;Node1 -->
<g id="edge1" class="edge"><title>Node0&#45;&gt;Node1</title>
<path fill="none" stroke="midnightblue" d="M138.467,-50.0556C146.883,-51.2647 155.471,-52.4987 163.907,-53.7108"/>
<polygon fill="midnightblue" stroke="midnightblue" points="138.706,-46.5541 128.31,-48.5963 137.711,-53.483 138.706,-46.5541"/>
</g>
<!-- Node2 -->
<g id="node3" class="node"><title>Node2</title>
<g id="a_node3"><a xlink:href="df/d26/classAForge_1_1Genetic_1_1SimpleGeneFunction.html" target="_top" xlink:title="Genetic programming gene, which represents simple arithmetic functions and arguments.">
<polygon fill="white" stroke="black" points="169.5,-0.5 169.5,-30.5 310.5,-30.5 310.5,-0.5 169.5,-0.5"/>
<text text-anchor="start" x="177.5" y="-18.5" font-family="Helvetica,sans-Serif" font-size="10.00">AForge.Genetic.SimpleGene</text>
<text text-anchor="middle" x="240" y="-7.5" font-family="Helvetica,sans-Serif" font-size="10.00">Function</text>
</a>
</g>
</g>
<!-- Node0&#45;&gt;Node2 -->
<g id="edge2" class="edge"><title>Node0&#45;&gt;Node2</title>
<path fill="none" stroke="midnightblue" d="M138.423,-29.3727C148.643,-27.9631 159.119,-26.5181 169.268,-25.1182"/>
<polygon fill="midnightblue" stroke="midnightblue" points="137.738,-25.9339 128.31,-30.7676 138.695,-32.8683 137.738,-25.9339"/>
</g>
</g>
</svg>
