<?xml version="1.0" encoding="UTF-8" standalone="no"?>
<!DOCTYPE svg PUBLIC "-//W3C//DTD SVG 1.1//EN"
 "http://www.w3.org/Graphics/SVG/1.1/DTD/svg11.dtd">
<!-- Generated by graphviz version 2.38.0 (20140413.2041)
 -->
<!-- Title: Graphical Class Hierarchy Pages: 1 -->
<svg width="636pt" height="429pt"
 viewBox="0.00 0.00 636.00 428.50" xmlns="http://www.w3.org/2000/svg" xmlns:xlink="http://www.w3.org/1999/xlink">
<g id="graph0" class="graph" transform="scale(1 1) rotate(0) translate(4 424.5)">
<title>Graphical Class Hierarchy</title>
<polygon fill="white" stroke="none" points="-4,4 -4,-424.5 632,-424.5 632,4 -4,4"/>
<!-- Node0 -->
<g id="node1" class="node"><title>Node0</title>
<g id="a_node1"><a xlink:href="d9/d0b/classNUnit_1_1Framework_1_1Internal_1_1Commands_1_1TestCommand.html" target="_top" xlink:title="TestCommand is the abstract base class for all test commands in the framework. A TestCommand represen...">
<polygon fill="white" stroke="black" points="0,-98.5 0,-128.5 132,-128.5 132,-98.5 0,-98.5"/>
<text text-anchor="start" x="8" y="-116.5" font-family="Helvetica,sans-Serif" font-size="10.00">NUnit.Framework.Internal.</text>
<text text-anchor="middle" x="66" y="-105.5" font-family="Helvetica,sans-Serif" font-size="10.00">Commands.TestCommand</text>
</a>
</g>
</g>
<!-- Node1 -->
<g id="node2" class="node"><title>Node1</title>
<g id="a_node2"><a xlink:href="d7/dcf/classNUnit_1_1Framework_1_1Internal_1_1Commands_1_1DelegatingTestCommand.html" target="_top" xlink:title="TODO: Documentation needed for class">
<polygon fill="white" stroke="black" points="176.5,-196.5 176.5,-226.5 354.5,-226.5 354.5,-196.5 176.5,-196.5"/>
<text text-anchor="start" x="184.5" y="-214.5" font-family="Helvetica,sans-Serif" font-size="10.00">NUnit.Framework.Internal.</text>
<text text-anchor="middle" x="265.5" y="-203.5" font-family="Helvetica,sans-Serif" font-size="10.00">Commands.DelegatingTestCommand</text>
</a>
</g>
</g>
<!-- Node0&#45;&gt;Node1 -->
<g id="edge1" class="edge"><title>Node0&#45;&gt;Node1</title>
<path fill="none" stroke="midnightblue" d="M91.387,-135.156C110.882,-151.426 139.563,-173.124 168,-186.5 176.143,-190.331 184.96,-193.636 193.841,-196.473"/>
<polygon fill="midnightblue" stroke="midnightblue" points="93.5082,-132.366 83.6222,-128.555 88.9745,-137.699 93.5082,-132.366"/>
</g>
<!-- Node10 -->
<g id="node11" class="node"><title>Node10</title>
<g id="a_node11"><a xlink:href="d8/dfb/classNUnit_1_1Framework_1_1Internal_1_1Commands_1_1OneTimeSetUpCommand.html" target="_top" xlink:title="OneTimeSetUpCommand runs any one&#45;time setup methods for a suite, constructing the user test object if...">
<polygon fill="white" stroke="black" points="176,-147.5 176,-177.5 355,-177.5 355,-147.5 176,-147.5"/>
<text text-anchor="start" x="184" y="-165.5" font-family="Helvetica,sans-Serif" font-size="10.00">NUnit.Framework.Internal.</text>
<text text-anchor="middle" x="265.5" y="-154.5" font-family="Helvetica,sans-Serif" font-size="10.00">Commands.OneTimeSetUpCommand</text>
</a>
</g>
</g>
<!-- Node0&#45;&gt;Node10 -->
<g id="edge10" class="edge"><title>Node0&#45;&gt;Node10</title>
<path fill="none" stroke="midnightblue" d="M137.442,-130.977C159.21,-136.377 182.983,-142.276 204.016,-147.494"/>
<polygon fill="midnightblue" stroke="midnightblue" points="138.147,-127.546 127.599,-128.535 136.462,-134.34 138.147,-127.546"/>
</g>
<!-- Node11 -->
<g id="node12" class="node"><title>Node11</title>
<g id="a_node12"><a xlink:href="db/dd2/classNUnit_1_1Framework_1_1Internal_1_1Commands_1_1OneTimeTearDownCommand.html" target="_top" xlink:title="OneTimeTearDownCommand performs any teardown actions specified for a suite and calls Dispose on the u...">
<polygon fill="white" stroke="black" points="168,-98.5 168,-128.5 363,-128.5 363,-98.5 168,-98.5"/>
<text text-anchor="start" x="176" y="-116.5" font-family="Helvetica,sans-Serif" font-size="10.00">NUnit.Framework.Internal.</text>
<text text-anchor="middle" x="265.5" y="-105.5" font-family="Helvetica,sans-Serif" font-size="10.00">Commands.OneTimeTearDownCommand</text>
</a>
</g>
</g>
<!-- Node0&#45;&gt;Node11 -->
<g id="edge11" class="edge"><title>Node0&#45;&gt;Node11</title>
<path fill="none" stroke="midnightblue" d="M142.309,-113.5C150.694,-113.5 159.319,-113.5 167.922,-113.5"/>
<polygon fill="midnightblue" stroke="midnightblue" points="142.216,-110 132.216,-113.5 142.216,-117 142.216,-110"/>
</g>
<!-- Node12 -->
<g id="node13" class="node"><title>Node12</title>
<g id="a_node13"><a xlink:href="de/ded/classNUnit_1_1Framework_1_1Internal_1_1Commands_1_1SkipCommand.html" target="_top" xlink:title="TODO: Documentation needed for class">
<polygon fill="white" stroke="black" points="199,-49.5 199,-79.5 332,-79.5 332,-49.5 199,-49.5"/>
<text text-anchor="start" x="207" y="-67.5" font-family="Helvetica,sans-Serif" font-size="10.00">NUnit.Framework.Internal.</text>
<text text-anchor="middle" x="265.5" y="-56.5" font-family="Helvetica,sans-Serif" font-size="10.00">Commands.SkipCommand</text>
</a>
</g>
</g>
<!-- Node0&#45;&gt;Node12 -->
<g id="edge12" class="edge"><title>Node0&#45;&gt;Node12</title>
<path fill="none" stroke="midnightblue" d="M137.442,-96.0232C159.21,-90.6225 182.983,-84.7245 204.016,-79.5062"/>
<polygon fill="midnightblue" stroke="midnightblue" points="136.462,-92.6603 127.599,-98.4654 138.147,-99.4543 136.462,-92.6603"/>
</g>
<!-- Node13 -->
<g id="node14" class="node"><title>Node13</title>
<g id="a_node14"><a xlink:href="d4/d60/classNUnit_1_1Framework_1_1Internal_1_1Commands_1_1TestMethodCommand.html" target="_top" xlink:title="TestMethodCommand is the lowest level concrete command used to run actual test cases.">
<polygon fill="white" stroke="black" points="183.5,-0.5 183.5,-30.5 347.5,-30.5 347.5,-0.5 183.5,-0.5"/>
<text text-anchor="start" x="191.5" y="-18.5" font-family="Helvetica,sans-Serif" font-size="10.00">NUnit.Framework.Internal.</text>
<text text-anchor="middle" x="265.5" y="-7.5" font-family="Helvetica,sans-Serif" font-size="10.00">Commands.TestMethodCommand</text>
</a>
</g>
</g>
<!-- Node0&#45;&gt;Node13 -->
<g id="edge13" class="edge"><title>Node0&#45;&gt;Node13</title>
<path fill="none" stroke="midnightblue" d="M90.9489,-91.7521C110.401,-75.1755 139.235,-52.9731 168,-39.5 175.27,-36.0949 183.082,-33.135 191.001,-30.5709"/>
<polygon fill="midnightblue" stroke="midnightblue" points="88.4689,-89.2702 83.2141,-98.4701 93.0591,-94.5551 88.4689,-89.2702"/>
</g>
<!-- Node2 -->
<g id="node3" class="node"><title>Node2</title>
<g id="a_node3"><a xlink:href="db/d1d/classNUnit_1_1Framework_1_1Attributes_1_1Tests_1_1CommandWrapperTests_1_1ExpectedExceptionAttribute_1_1ExpectedExceptionCommand.html" target="_top" xlink:title=" ">
<polygon fill="white" stroke="black" points="399,-379 399,-420 628,-420 628,-379 399,-379"/>
<text text-anchor="start" x="407" y="-408" font-family="Helvetica,sans-Serif" font-size="10.00">NUnit.Framework.Attributes.</text>
<text text-anchor="start" x="407" y="-397" font-family="Helvetica,sans-Serif" font-size="10.00">Tests.CommandWrapperTests.Expected</text>
<text text-anchor="middle" x="513.5" y="-386" font-family="Helvetica,sans-Serif" font-size="10.00">ExceptionAttribute.ExpectedExceptionCommand</text>
</a>
</g>
</g>
<!-- Node1&#45;&gt;Node2 -->
<g id="edge2" class="edge"><title>Node1&#45;&gt;Node2</title>
<path fill="none" stroke="midnightblue" d="M280.191,-235.835C301.16,-270.83 344.578,-334.948 399,-369.5 404.592,-373.05 410.594,-376.183 416.811,-378.946"/>
<polygon fill="midnightblue" stroke="midnightblue" points="282.961,-233.639 274.882,-226.785 276.924,-237.181 282.961,-233.639"/>
</g>
<!-- Node3 -->
<g id="node4" class="node"><title>Node3</title>
<g id="a_node4"><a xlink:href="d5/d0f/classNUnit_1_1Framework_1_1Internal_1_1Commands_1_1ApplyChangesToContextCommand.html" target="_top" xlink:title="ContextSettingsCommand applies specified changes to the TestExecutionContext prior to running a test....">
<polygon fill="white" stroke="black" points="425.5,-319 425.5,-360 601.5,-360 601.5,-319 425.5,-319"/>
<text text-anchor="start" x="433.5" y="-348" font-family="Helvetica,sans-Serif" font-size="10.00">NUnit.Framework.Internal.</text>
<text text-anchor="start" x="433.5" y="-337" font-family="Helvetica,sans-Serif" font-size="10.00">Commands.ApplyChangesToContext</text>
<text text-anchor="middle" x="513.5" y="-326" font-family="Helvetica,sans-Serif" font-size="10.00">Command</text>
</a>
</g>
</g>
<!-- Node1&#45;&gt;Node3 -->
<g id="edge3" class="edge"><title>Node1&#45;&gt;Node3</title>
<path fill="none" stroke="midnightblue" d="M290.298,-233.519C315.504,-255.724 357.339,-289.498 399,-309.5 407.36,-313.514 416.334,-317.048 425.439,-320.148"/>
<polygon fill="midnightblue" stroke="midnightblue" points="292.509,-230.801 282.72,-226.748 287.845,-236.021 292.509,-230.801"/>
</g>
<!-- Node4 -->
<g id="node5" class="node"><title>Node4</title>
<g id="a_node5"><a xlink:href="de/d18/classNUnit_1_1Framework_1_1Internal_1_1Commands_1_1MaxTimeCommand.html" target="_top" xlink:title="TODO: Documentation needed for class">
<polygon fill="white" stroke="black" points="437,-269.5 437,-299.5 590,-299.5 590,-269.5 437,-269.5"/>
<text text-anchor="start" x="445" y="-287.5" font-family="Helvetica,sans-Serif" font-size="10.00">NUnit.Framework.Internal.</text>
<text text-anchor="middle" x="513.5" y="-276.5" font-family="Helvetica,sans-Serif" font-size="10.00">Commands.MaxTimeCommand</text>
</a>
</g>
</g>
<!-- Node1&#45;&gt;Node4 -->
<g id="edge4" class="edge"><title>Node1&#45;&gt;Node4</title>
<path fill="none" stroke="midnightblue" d="M312.195,-230.275C337.481,-240.186 369.645,-252.018 399,-260.5 411.093,-263.994 424.046,-267.213 436.719,-270.082"/>
<polygon fill="midnightblue" stroke="midnightblue" points="313.447,-227.006 302.86,-226.581 310.871,-233.515 313.447,-227.006"/>
</g>
<!-- Node5 -->
<g id="node6" class="node"><title>Node5</title>
<g id="a_node6"><a xlink:href="df/d1f/classNUnit_1_1Framework_1_1Internal_1_1Commands_1_1SetUpTearDownCommand.html" target="_top" xlink:title="SetUpTearDownCommand runs any SetUp methods for a suite, runs the test and then runs any TearDown met...">
<polygon fill="white" stroke="black" points="422,-220.5 422,-250.5 605,-250.5 605,-220.5 422,-220.5"/>
<text text-anchor="start" x="430" y="-238.5" font-family="Helvetica,sans-Serif" font-size="10.00">NUnit.Framework.Internal.</text>
<text text-anchor="middle" x="513.5" y="-227.5" font-family="Helvetica,sans-Serif" font-size="10.00">Commands.SetUpTearDownCommand</text>
</a>
</g>
</g>
<!-- Node1&#45;&gt;Node5 -->
<g id="edge5" class="edge"><title>Node1&#45;&gt;Node5</title>
<path fill="none" stroke="midnightblue" d="M364.672,-221.078C383.487,-222.913 403.111,-224.828 421.682,-226.64"/>
<polygon fill="midnightblue" stroke="midnightblue" points="364.909,-217.584 354.617,-220.097 364.23,-224.551 364.909,-217.584"/>
</g>
<!-- Node6 -->
<g id="node7" class="node"><title>Node6</title>
<g id="a_node7"><a xlink:href="df/d5e/classNUnit_1_1Framework_1_1Internal_1_1Commands_1_1TestActionCommand.html" target="_top" xlink:title="TestActionCommand runs the BeforeTest actions for a test, then runs the test and finally runs the Aft...">
<polygon fill="white" stroke="black" points="433.5,-171.5 433.5,-201.5 593.5,-201.5 593.5,-171.5 433.5,-171.5"/>
<text text-anchor="start" x="441.5" y="-189.5" font-family="Helvetica,sans-Serif" font-size="10.00">NUnit.Framework.Internal.</text>
<text text-anchor="middle" x="513.5" y="-178.5" font-family="Helvetica,sans-Serif" font-size="10.00">Commands.TestActionCommand</text>
</a>
</g>
</g>
<!-- Node1&#45;&gt;Node6 -->
<g id="edge6" class="edge"><title>Node1&#45;&gt;Node6</title>
<path fill="none" stroke="midnightblue" d="M364.633,-201.527C387.393,-199.214 411.339,-196.781 433.175,-194.562"/>
<polygon fill="midnightblue" stroke="midnightblue" points="364.212,-198.052 354.617,-202.545 364.919,-205.016 364.212,-198.052"/>
</g>
<!-- Node7 -->
<g id="node8" class="node"><title>Node7</title>
<g id="a_node8"><a xlink:href="d7/d06/classNUnit_1_1Framework_1_1Internal_1_1Commands_1_1TheoryResultCommand.html" target="_top" xlink:title="TheoryResultCommand adjusts the result of a Theory so that it fails if all the results were inconclus...">
<polygon fill="white" stroke="black" points="428.5,-122.5 428.5,-152.5 598.5,-152.5 598.5,-122.5 428.5,-122.5"/>
<text text-anchor="start" x="436.5" y="-140.5" font-family="Helvetica,sans-Serif" font-size="10.00">NUnit.Framework.Internal.</text>
<text text-anchor="middle" x="513.5" y="-129.5" font-family="Helvetica,sans-Serif" font-size="10.00">Commands.TheoryResultCommand</text>
</a>
</g>
</g>
<!-- Node1&#45;&gt;Node7 -->
<g id="edge7" class="edge"><title>Node1&#45;&gt;Node7</title>
<path fill="none" stroke="midnightblue" d="M346.304,-193.234C352.038,-191.191 357.659,-188.951 363,-186.5 380.704,-178.375 381.117,-169.223 399,-161.5 408.245,-157.507 418.208,-154.159 428.257,-151.355"/>
<polygon fill="midnightblue" stroke="midnightblue" points="344.951,-189.996 336.578,-196.488 347.172,-196.635 344.951,-189.996"/>
</g>
<!-- Node8 -->
<g id="node9" class="node"><title>Node8</title>
<g id="a_node9"><a xlink:href="df/da2/classNUnit_1_1Framework_1_1RepeatAttribute_1_1RepeatedTestCommand.html" target="_top" xlink:title="The test command for the RepeatAttribute">
<polygon fill="white" stroke="black" points="431,-73.5 431,-103.5 596,-103.5 596,-73.5 431,-73.5"/>
<text text-anchor="start" x="439" y="-91.5" font-family="Helvetica,sans-Serif" font-size="10.00">NUnit.Framework.RepeatAttribute.</text>
<text text-anchor="middle" x="513.5" y="-80.5" font-family="Helvetica,sans-Serif" font-size="10.00">RepeatedTestCommand</text>
</a>
</g>
</g>
<!-- Node1&#45;&gt;Node8 -->
<g id="edge8" class="edge"><title>Node1&#45;&gt;Node8</title>
<path fill="none" stroke="midnightblue" d="M356.567,-191.208C358.798,-189.745 360.949,-188.178 363,-186.5 391.306,-163.339 370.179,-135.017 399,-112.5 408.364,-105.184 419.441,-99.966 430.943,-96.2668"/>
<polygon fill="midnightblue" stroke="midnightblue" points="354.534,-188.339 347.601,-196.35 358.017,-194.411 354.534,-188.339"/>
</g>
<!-- Node9 -->
<g id="node10" class="node"><title>Node9</title>
<g id="a_node10"><a xlink:href="de/d29/classNUnit_1_1Framework_1_1RetryAttribute_1_1RetryCommand.html" target="_top" xlink:title="The test command for the RetryAttribute">
<polygon fill="white" stroke="black" points="434.5,-24.5 434.5,-54.5 592.5,-54.5 592.5,-24.5 434.5,-24.5"/>
<text text-anchor="start" x="442.5" y="-42.5" font-family="Helvetica,sans-Serif" font-size="10.00">NUnit.Framework.RetryAttribute.</text>
<text text-anchor="middle" x="513.5" y="-31.5" font-family="Helvetica,sans-Serif" font-size="10.00">RetryCommand</text>
</a>
</g>
</g>
<!-- Node1&#45;&gt;Node9 -->
<g id="edge9" class="edge"><title>Node1&#45;&gt;Node9</title>
<path fill="none" stroke="midnightblue" d="M358.32,-190.599C359.945,-189.31 361.509,-187.945 363,-186.5 403.901,-146.857 357.215,-102.21 399,-63.5 408.899,-54.3293 421.391,-48.3149 434.44,-44.433"/>
<polygon fill="midnightblue" stroke="midnightblue" points="356.034,-187.92 349.72,-196.427 359.961,-193.714 356.034,-187.92"/>
</g>
</g>
</svg>
