<?xml version="1.0" encoding="UTF-8" standalone="no"?>
<!DOCTYPE svg PUBLIC "-//W3C//DTD SVG 1.1//EN"
 "http://www.w3.org/Graphics/SVG/1.1/DTD/svg11.dtd">
<!-- Generated by graphviz version 2.38.0 (20140413.2041)
 -->
<!-- Title: Graphical Class Hierarchy Pages: 1 -->
<svg width="320pt" height="50pt"
 viewBox="0.00 0.00 320.00 50.00" xmlns="http://www.w3.org/2000/svg" xmlns:xlink="http://www.w3.org/1999/xlink">
<g id="graph0" class="graph" transform="scale(1 1) rotate(0) translate(4 46)">
<title>Graphical Class Hierarchy</title>
<polygon fill="white" stroke="none" points="-4,4 -4,-46 316,-46 316,4 -4,4"/>
<!-- Node3139 -->
<g id="node1" class="node"><title>Node3139</title>
<g id="a_node1"><a xlink:title=" ">
<polygon fill="white" stroke="#bfbfbf" points="0,-6 0,-36 102,-36 102,-6 0,-6"/>
<text text-anchor="start" x="8" y="-24" font-family="Helvetica,sans-Serif" font-size="10.00">IEqualityComparer&lt;</text>
<text text-anchor="middle" x="51" y="-13" font-family="Helvetica,sans-Serif" font-size="10.00"> List&lt; int &gt;&gt;</text>
</a>
</g>
</g>
<!-- Node0 -->
<g id="node2" class="node"><title>Node0</title>
<g id="a_node2"><a xlink:href="dc/dde/classNUnit_1_1Framework_1_1Constraints_1_1EqualConstraintTests_1_1UsingModifier_1_1IntListEqualComparer.html" target="_top" xlink:title=" ">
<polygon fill="white" stroke="black" points="138,-0.5 138,-41.5 312,-41.5 312,-0.5 138,-0.5"/>
<text text-anchor="start" x="146" y="-29.5" font-family="Helvetica,sans-Serif" font-size="10.00">NUnit.Framework.Constraints.</text>
<text text-anchor="start" x="146" y="-18.5" font-family="Helvetica,sans-Serif" font-size="10.00">EqualConstraintTests.UsingModifier.</text>
<text text-anchor="middle" x="225" y="-7.5" font-family="Helvetica,sans-Serif" font-size="10.00">IntListEqualComparer</text>
</a>
</g>
</g>
<!-- Node3139&#45;&gt;Node0 -->
<g id="edge1" class="edge"><title>Node3139&#45;&gt;Node0</title>
<path fill="none" stroke="midnightblue" d="M112.426,-21C120.656,-21 129.229,-21 137.804,-21"/>
<polygon fill="midnightblue" stroke="midnightblue" points="112.212,-17.5001 102.212,-21 112.212,-24.5001 112.212,-17.5001"/>
</g>
</g>
</svg>
