<?xml version="1.0" encoding="UTF-8" standalone="no"?>
<!DOCTYPE svg PUBLIC "-//W3C//DTD SVG 1.1//EN"
 "http://www.w3.org/Graphics/SVG/1.1/DTD/svg11.dtd">
<!-- Generated by graphviz version 2.38.0 (20140413.2041)
 -->
<!-- Title: Graphical Class Hierarchy Pages: 1 -->
<svg width="363pt" height="88pt"
 viewBox="0.00 0.00 363.00 88.00" xmlns="http://www.w3.org/2000/svg" xmlns:xlink="http://www.w3.org/1999/xlink">
<g id="graph0" class="graph" transform="scale(1 1) rotate(0) translate(4 84)">
<title>Graphical Class Hierarchy</title>
<polygon fill="white" stroke="none" points="-4,4 -4,-84 359,-84 359,4 -4,4"/>
<!-- Node0 -->
<g id="node1" class="node"><title>Node0</title>
<g id="a_node1"><a xlink:href="d3/d5d/interfaceAForge_1_1Imaging_1_1ICornersDetector.html" target="_top" xlink:title="Corners detector&#39;s interface.">
<polygon fill="white" stroke="black" points="0,-30 0,-49 161,-49 161,-30 0,-30"/>
<text text-anchor="middle" x="80.5" y="-37" font-family="Helvetica,sans-Serif" font-size="10.00">AForge.Imaging.ICornersDetector</text>
</a>
</g>
</g>
<!-- Node1 -->
<g id="node2" class="node"><title>Node1</title>
<g id="a_node2"><a xlink:href="d2/dad/classAForge_1_1Imaging_1_1MoravecCornersDetector.html" target="_top" xlink:title="Moravec corners detector.">
<polygon fill="white" stroke="black" points="197,-49.5 197,-79.5 355,-79.5 355,-49.5 197,-49.5"/>
<text text-anchor="start" x="205" y="-67.5" font-family="Helvetica,sans-Serif" font-size="10.00">AForge.Imaging.MoravecCorners</text>
<text text-anchor="middle" x="276" y="-56.5" font-family="Helvetica,sans-Serif" font-size="10.00">Detector</text>
</a>
</g>
</g>
<!-- Node0&#45;&gt;Node1 -->
<g id="edge1" class="edge"><title>Node0&#45;&gt;Node1</title>
<path fill="none" stroke="midnightblue" d="M165.237,-50.3187C175.783,-51.6813 186.54,-53.0711 196.993,-54.4216"/>
<polygon fill="midnightblue" stroke="midnightblue" points="165.572,-46.833 155.206,-49.0227 164.675,-53.7753 165.572,-46.833"/>
</g>
<!-- Node2 -->
<g id="node3" class="node"><title>Node2</title>
<g id="a_node3"><a xlink:href="da/d67/classAForge_1_1Imaging_1_1SusanCornersDetector.html" target="_top" xlink:title="Susan corners detector.">
<polygon fill="white" stroke="black" points="201.5,-0.5 201.5,-30.5 350.5,-30.5 350.5,-0.5 201.5,-0.5"/>
<text text-anchor="start" x="209.5" y="-18.5" font-family="Helvetica,sans-Serif" font-size="10.00">AForge.Imaging.SusanCorners</text>
<text text-anchor="middle" x="276" y="-7.5" font-family="Helvetica,sans-Serif" font-size="10.00">Detector</text>
</a>
</g>
</g>
<!-- Node0&#45;&gt;Node2 -->
<g id="edge2" class="edge"><title>Node0&#45;&gt;Node2</title>
<path fill="none" stroke="midnightblue" d="M168.353,-28.7276C179.421,-27.3548 190.663,-25.9604 201.493,-24.6172"/>
<polygon fill="midnightblue" stroke="midnightblue" points="167.747,-25.2757 158.254,-29.9801 168.609,-32.2225 167.747,-25.2757"/>
</g>
</g>
</svg>
