<?xml version="1.0" encoding="UTF-8" standalone="no"?>
<!DOCTYPE svg PUBLIC "-//W3C//DTD SVG 1.1//EN"
 "http://www.w3.org/Graphics/SVG/1.1/DTD/svg11.dtd">
<!-- Generated by graphviz version 2.38.0 (20140413.2041)
 -->
<!-- Title: Graphical Class Hierarchy Pages: 1 -->
<svg width="327pt" height="100pt"
 viewBox="0.00 0.00 327.00 99.50" xmlns="http://www.w3.org/2000/svg" xmlns:xlink="http://www.w3.org/1999/xlink">
<g id="graph0" class="graph" transform="scale(1 1) rotate(0) translate(4 95.5)">
<title>Graphical Class Hierarchy</title>
<polygon fill="white" stroke="none" points="-4,4 -4,-95.5 323,-95.5 323,4 -4,4"/>
<!-- Node0 -->
<g id="node1" class="node"><title>Node0</title>
<g id="a_node1"><a xlink:href="df/d90/classIG_1_1Lib_1_1FileOrDirectoryDataBase.html" target="_top" xlink:title="Base class for storing file&#45; or directory&#45; related data.">
<polygon fill="white" stroke="black" points="0,-33 0,-52 153,-52 153,-33 0,-33"/>
<text text-anchor="middle" x="76.5" y="-40" font-family="Helvetica,sans-Serif" font-size="10.00">IG.Lib.FileOrDirectoryDataBase</text>
</a>
</g>
</g>
<!-- Node1 -->
<g id="node2" class="node"><title>Node1</title>
<g id="a_node2"><a xlink:href="d5/dd4/classIG_1_1Lib_1_1DirectoryData.html" target="_top" xlink:title="Generic base class for file data classes (derived from FileDataBaseObsolete) that form a group with c...">
<polygon fill="white" stroke="black" points="199.5,-50 199.5,-91 308.5,-91 308.5,-50 199.5,-50"/>
<text text-anchor="start" x="207.5" y="-79" font-family="Helvetica,sans-Serif" font-size="10.00">IG.Lib.DirectoryData</text>
<text text-anchor="start" x="207.5" y="-68" font-family="Helvetica,sans-Serif" font-size="10.00">&lt; DirectoryDataType,</text>
<text text-anchor="middle" x="254" y="-57" font-family="Helvetica,sans-Serif" font-size="10.00"> FileDataType &gt;</text>
</a>
</g>
</g>
<!-- Node0&#45;&gt;Node1 -->
<g id="edge1" class="edge"><title>Node0&#45;&gt;Node1</title>
<path fill="none" stroke="midnightblue" d="M147.432,-53.6573C164.685,-56.4099 182.897,-59.3155 199.247,-61.924"/>
<polygon fill="midnightblue" stroke="midnightblue" points="147.833,-50.177 137.406,-52.0577 146.73,-57.0896 147.833,-50.177"/>
</g>
<!-- Node2 -->
<g id="node3" class="node"><title>Node2</title>
<g id="a_node3"><a xlink:href="d6/d35/classIG_1_1Lib_1_1FileData.html" target="_top" xlink:title="Generic base class for file data classes (derived from FileDataBaseObsolete) that form a group with c...">
<polygon fill="white" stroke="black" points="189,-0.5 189,-30.5 319,-30.5 319,-0.5 189,-0.5"/>
<text text-anchor="start" x="197" y="-18.5" font-family="Helvetica,sans-Serif" font-size="10.00">IG.Lib.FileData&lt; Directory</text>
<text text-anchor="middle" x="254" y="-7.5" font-family="Helvetica,sans-Serif" font-size="10.00">DataType, FileDataType &gt;</text>
</a>
</g>
</g>
<!-- Node0&#45;&gt;Node2 -->
<g id="edge2" class="edge"><title>Node0&#45;&gt;Node2</title>
<path fill="none" stroke="midnightblue" d="M149.637,-31.402C162.587,-29.4097 176.005,-27.3453 188.715,-25.39"/>
<polygon fill="midnightblue" stroke="midnightblue" points="148.726,-28.0009 139.375,-32.9808 149.791,-34.9195 148.726,-28.0009"/>
</g>
</g>
</svg>
