<?xml version="1.0" encoding="UTF-8" standalone="no"?>
<!DOCTYPE svg PUBLIC "-//W3C//DTD SVG 1.1//EN"
 "http://www.w3.org/Graphics/SVG/1.1/DTD/svg11.dtd">
<!-- Generated by graphviz version 2.38.0 (20140413.2041)
 -->
<!-- Title: Graphical Class Hierarchy Pages: 1 -->
<svg width="335pt" height="137pt"
 viewBox="0.00 0.00 335.00 137.00" xmlns="http://www.w3.org/2000/svg" xmlns:xlink="http://www.w3.org/1999/xlink">
<g id="graph0" class="graph" transform="scale(1 1) rotate(0) translate(4 133)">
<title>Graphical Class Hierarchy</title>
<polygon fill="white" stroke="none" points="-4,4 -4,-133 331,-133 331,4 -4,4"/>
<!-- Node0 -->
<g id="node1" class="node"><title>Node0</title>
<g id="a_node1"><a xlink:href="d1/d8b/interfaceNUnit_1_1Framework_1_1Interfaces_1_1ICombiningStrategy.html" target="_top" xlink:title="CombiningStrategy is the abstract base for classes that know how to combine values provided for indiv...">
<polygon fill="white" stroke="black" points="0,-49.5 0,-79.5 140,-79.5 140,-49.5 0,-49.5"/>
<text text-anchor="start" x="8" y="-67.5" font-family="Helvetica,sans-Serif" font-size="10.00">NUnit.Framework.Interfaces.</text>
<text text-anchor="middle" x="70" y="-56.5" font-family="Helvetica,sans-Serif" font-size="10.00">ICombiningStrategy</text>
</a>
</g>
</g>
<!-- Node1 -->
<g id="node2" class="node"><title>Node1</title>
<g id="a_node2"><a xlink:href="dc/db0/classNUnit_1_1Framework_1_1Internal_1_1Builders_1_1CombinatorialStrategy.html" target="_top" xlink:title="CombinatorialStrategy creates test cases by using all possible combinations of the parameter data.">
<polygon fill="white" stroke="black" points="176,-98.5 176,-128.5 327,-128.5 327,-98.5 176,-98.5"/>
<text text-anchor="start" x="184" y="-116.5" font-family="Helvetica,sans-Serif" font-size="10.00">NUnit.Framework.Internal.</text>
<text text-anchor="middle" x="251.5" y="-105.5" font-family="Helvetica,sans-Serif" font-size="10.00">Builders.CombinatorialStrategy</text>
</a>
</g>
</g>
<!-- Node0&#45;&gt;Node1 -->
<g id="edge1" class="edge"><title>Node0&#45;&gt;Node1</title>
<path fill="none" stroke="midnightblue" d="M136.017,-82.2485C155.472,-87.5591 176.607,-93.3288 195.362,-98.4484"/>
<polygon fill="midnightblue" stroke="midnightblue" points="136.889,-78.8585 126.321,-79.6014 135.046,-85.6114 136.889,-78.8585"/>
</g>
<!-- Node2 -->
<g id="node3" class="node"><title>Node2</title>
<g id="a_node3"><a xlink:href="d0/da1/classNUnit_1_1Framework_1_1Internal_1_1Builders_1_1PairwiseStrategy.html" target="_top" xlink:title="PairwiseStrategy creates test cases by combining the parameter data so that all possible pairs of dat...">
<polygon fill="white" stroke="black" points="187,-49.5 187,-79.5 316,-79.5 316,-49.5 187,-49.5"/>
<text text-anchor="start" x="195" y="-67.5" font-family="Helvetica,sans-Serif" font-size="10.00">NUnit.Framework.Internal.</text>
<text text-anchor="middle" x="251.5" y="-56.5" font-family="Helvetica,sans-Serif" font-size="10.00">Builders.PairwiseStrategy</text>
</a>
</g>
</g>
<!-- Node0&#45;&gt;Node2 -->
<g id="edge2" class="edge"><title>Node0&#45;&gt;Node2</title>
<path fill="none" stroke="midnightblue" d="M150.356,-64.5C162.612,-64.5 175.131,-64.5 186.98,-64.5"/>
<polygon fill="midnightblue" stroke="midnightblue" points="150.143,-61.0001 140.143,-64.5 150.143,-68.0001 150.143,-61.0001"/>
</g>
<!-- Node3 -->
<g id="node4" class="node"><title>Node3</title>
<g id="a_node4"><a xlink:href="d4/df6/classNUnit_1_1Framework_1_1Internal_1_1Builders_1_1SequentialStrategy.html" target="_top" xlink:title="SequentialStrategy creates test cases by using all of the parameter data sources in parallel,...">
<polygon fill="white" stroke="black" points="183,-0.5 183,-30.5 320,-30.5 320,-0.5 183,-0.5"/>
<text text-anchor="start" x="191" y="-18.5" font-family="Helvetica,sans-Serif" font-size="10.00">NUnit.Framework.Internal.</text>
<text text-anchor="middle" x="251.5" y="-7.5" font-family="Helvetica,sans-Serif" font-size="10.00">Builders.SequentialStrategy</text>
</a>
</g>
</g>
<!-- Node0&#45;&gt;Node3 -->
<g id="edge3" class="edge"><title>Node0&#45;&gt;Node3</title>
<path fill="none" stroke="midnightblue" d="M136.017,-46.7515C155.472,-41.4409 176.607,-35.6712 195.362,-30.5516"/>
<polygon fill="midnightblue" stroke="midnightblue" points="135.046,-43.3886 126.321,-49.3986 136.889,-50.1415 135.046,-43.3886"/>
</g>
</g>
</svg>
