<?xml version="1.0" encoding="UTF-8" standalone="no"?>
<!DOCTYPE svg PUBLIC "-//W3C//DTD SVG 1.1//EN"
 "http://www.w3.org/Graphics/SVG/1.1/DTD/svg11.dtd">
<!-- Generated by graphviz version 2.38.0 (20140413.2041)
 -->
<!-- Title: Graphical Class Hierarchy Pages: 1 -->
<svg width="402pt" height="78pt"
 viewBox="0.00 0.00 402.00 77.50" xmlns="http://www.w3.org/2000/svg" xmlns:xlink="http://www.w3.org/1999/xlink">
<g id="graph0" class="graph" transform="scale(1 1) rotate(0) translate(4 73.5)">
<title>Graphical Class Hierarchy</title>
<polygon fill="white" stroke="none" points="-4,4 -4,-73.5 398,-73.5 398,4 -4,4"/>
<!-- Node0 -->
<g id="node1" class="node"><title>Node0</title>
<g id="a_node1"><a xlink:href="dc/d86/interfaceAForge_1_1Neuro_1_1Learning_1_1IUnsupervisedLearning.html" target="_top" xlink:title="Unsupervised learning interface">
<polygon fill="white" stroke="black" points="0,-17 0,-47 179,-47 179,-17 0,-17"/>
<text text-anchor="start" x="8" y="-35" font-family="Helvetica,sans-Serif" font-size="10.00">AForge.Neuro.Learning.IUnsupervised</text>
<text text-anchor="middle" x="89.5" y="-24" font-family="Helvetica,sans-Serif" font-size="10.00">Learning</text>
</a>
</g>
</g>
<!-- Node1 -->
<g id="node2" class="node"><title>Node1</title>
<g id="a_node2"><a xlink:href="d8/de3/classAForge_1_1Neuro_1_1Learning_1_1ElasticNetworkLearning.html" target="_top" xlink:title="Elastic network learning algorithm">
<polygon fill="white" stroke="black" points="230,-39 230,-69 379,-69 379,-39 230,-39"/>
<text text-anchor="start" x="238" y="-57" font-family="Helvetica,sans-Serif" font-size="10.00">AForge.Neuro.Learning.Elastic</text>
<text text-anchor="middle" x="304.5" y="-46" font-family="Helvetica,sans-Serif" font-size="10.00">NetworkLearning</text>
</a>
</g>
</g>
<!-- Node0&#45;&gt;Node1 -->
<g id="edge1" class="edge"><title>Node0&#45;&gt;Node1</title>
<path fill="none" stroke="midnightblue" d="M189.574,-42.233C203.084,-43.6284 216.755,-45.0404 229.71,-46.3785"/>
<polygon fill="midnightblue" stroke="midnightblue" points="189.596,-38.7167 179.289,-41.1707 188.876,-45.6796 189.596,-38.7167"/>
</g>
<!-- Node2 -->
<g id="node3" class="node"><title>Node2</title>
<g id="a_node3"><a xlink:href="db/d8a/classAForge_1_1Neuro_1_1Learning_1_1SOMLearning.html" target="_top" xlink:title="Kohonen Self Organizing Map (SOM) learning algorithm">
<polygon fill="white" stroke="black" points="215,-0.5 215,-19.5 394,-19.5 394,-0.5 215,-0.5"/>
<text text-anchor="middle" x="304.5" y="-7.5" font-family="Helvetica,sans-Serif" font-size="10.00">AForge.Neuro.Learning.SOMLearning</text>
</a>
</g>
</g>
<!-- Node0&#45;&gt;Node2 -->
<g id="edge2" class="edge"><title>Node0&#45;&gt;Node2</title>
<path fill="none" stroke="midnightblue" d="M189.266,-21.7988C197.803,-20.9171 206.406,-20.0285 214.855,-19.1558"/>
<polygon fill="midnightblue" stroke="midnightblue" points="188.876,-18.3204 179.289,-22.8293 189.596,-25.2833 188.876,-18.3204"/>
</g>
</g>
</svg>
