<?xml version="1.0" encoding="UTF-8" standalone="no"?>
<!DOCTYPE svg PUBLIC "-//W3C//DTD SVG 1.1//EN"
 "http://www.w3.org/Graphics/SVG/1.1/DTD/svg11.dtd">
<!-- Generated by graphviz version 2.38.0 (20140413.2041)
 -->
<!-- Title: Graphical Class Hierarchy Pages: 1 -->
<svg width="317pt" height="88pt"
 viewBox="0.00 0.00 317.00 88.00" xmlns="http://www.w3.org/2000/svg" xmlns:xlink="http://www.w3.org/1999/xlink">
<g id="graph0" class="graph" transform="scale(1 1) rotate(0) translate(4 84)">
<title>Graphical Class Hierarchy</title>
<polygon fill="white" stroke="none" points="-4,4 -4,-84 313,-84 313,4 -4,4"/>
<!-- Node76 -->
<g id="node1" class="node"><title>Node76</title>
<g id="a_node1"><a xlink:title=" ">
<polygon fill="white" stroke="#bfbfbf" points="0,-30 0,-49 119,-49 119,-30 0,-30"/>
<text text-anchor="middle" x="59.5" y="-37" font-family="Helvetica,sans-Serif" font-size="10.00">VisualizerObjectSource</text>
</a>
</g>
</g>
<!-- Node0 -->
<g id="node2" class="node"><title>Node0</title>
<g id="a_node2"><a xlink:href="d2/d6b/classAForge_1_1DebuggerVisualizers_1_1BitmapDataObjectSource.html" target="_top" xlink:title=" ">
<polygon fill="white" stroke="black" points="160.5,-49.5 160.5,-79.5 303.5,-79.5 303.5,-49.5 160.5,-49.5"/>
<text text-anchor="start" x="168.5" y="-67.5" font-family="Helvetica,sans-Serif" font-size="10.00">AForge.DebuggerVisualizers.</text>
<text text-anchor="middle" x="232" y="-56.5" font-family="Helvetica,sans-Serif" font-size="10.00">BitmapDataObjectSource</text>
</a>
</g>
</g>
<!-- Node76&#45;&gt;Node0 -->
<g id="edge1" class="edge"><title>Node76&#45;&gt;Node0</title>
<path fill="none" stroke="midnightblue" d="M129.303,-49.5884C139.562,-51.0927 150.152,-52.6455 160.447,-54.155"/>
<polygon fill="midnightblue" stroke="midnightblue" points="129.578,-46.0915 119.176,-48.1036 128.563,-53.0174 129.578,-46.0915"/>
</g>
<!-- Node78 -->
<g id="node3" class="node"><title>Node78</title>
<g id="a_node3"><a xlink:href="d0/d47/classAForge_1_1DebuggerVisualizers_1_1UnmanagedImageObjectSource.html" target="_top" xlink:title=" ">
<polygon fill="white" stroke="black" points="155,-0.5 155,-30.5 309,-30.5 309,-0.5 155,-0.5"/>
<text text-anchor="start" x="163" y="-18.5" font-family="Helvetica,sans-Serif" font-size="10.00">AForge.DebuggerVisualizers.</text>
<text text-anchor="middle" x="232" y="-7.5" font-family="Helvetica,sans-Serif" font-size="10.00">UnmanagedImageObjectSource</text>
</a>
</g>
</g>
<!-- Node76&#45;&gt;Node78 -->
<g id="edge2" class="edge"><title>Node76&#45;&gt;Node78</title>
<path fill="none" stroke="midnightblue" d="M129.273,-29.8194C137.658,-28.639 146.265,-27.4275 154.752,-26.2329"/>
<polygon fill="midnightblue" stroke="midnightblue" points="128.591,-26.3808 119.176,-31.2406 129.567,-33.3124 128.591,-26.3808"/>
</g>
</g>
</svg>
