<?xml version="1.0" encoding="UTF-8" standalone="no"?>
<!DOCTYPE svg PUBLIC "-//W3C//DTD SVG 1.1//EN"
 "http://www.w3.org/Graphics/SVG/1.1/DTD/svg11.dtd">
<!-- Generated by graphviz version 2.38.0 (20140413.2041)
 -->
<!-- Title: Graphical Class Hierarchy Pages: 1 -->
<svg width="609pt" height="110pt"
 viewBox="0.00 0.00 609.00 110.00" xmlns="http://www.w3.org/2000/svg" xmlns:xlink="http://www.w3.org/1999/xlink">
<g id="graph0" class="graph" transform="scale(1 1) rotate(0) translate(4 106)">
<title>Graphical Class Hierarchy</title>
<polygon fill="white" stroke="none" points="-4,4 -4,-106 605,-106 605,4 -4,4"/>
<!-- Node0 -->
<g id="node1" class="node"><title>Node0</title>
<g id="a_node1"><a xlink:href="d7/dd8/classIG_1_1Lib_1_1SerializationDtoBase.html" target="_top" xlink:title=" ">
<polygon fill="white" stroke="black" points="0,-30.5 0,-71.5 203,-71.5 203,-30.5 0,-30.5"/>
<text text-anchor="start" x="8" y="-59.5" font-family="Helvetica,sans-Serif" font-size="10.00">IG.Lib.SerializationDtoBase</text>
<text text-anchor="start" x="8" y="-48.5" font-family="Helvetica,sans-Serif" font-size="10.00">&lt; TypeResponseEvaluator,</text>
<text text-anchor="middle" x="101.5" y="-37.5" font-family="Helvetica,sans-Serif" font-size="10.00"> ResponseEvaluatorWithStorageAnalysis &gt;</text>
</a>
</g>
</g>
<!-- Node1 -->
<g id="node2" class="node"><title>Node1</title>
<g id="a_node2"><a xlink:href="d2/d1f/classIG_1_1Num_1_1ResponseEvaluatorWithStorageAnalysisDtoBase.html" target="_top" xlink:title="Base class for DTOs (Data Transfer Objects) for response evaluators with storage where response is ev...">
<polygon fill="white" stroke="black" points="247.5,-60.5 247.5,-101.5 393.5,-101.5 393.5,-60.5 247.5,-60.5"/>
<text text-anchor="start" x="255.5" y="-89.5" font-family="Helvetica,sans-Serif" font-size="10.00">IG.Num.ResponseEvaluator</text>
<text text-anchor="start" x="255.5" y="-78.5" font-family="Helvetica,sans-Serif" font-size="10.00">WithStorageAnalysisDtoBase</text>
<text text-anchor="middle" x="320.5" y="-67.5" font-family="Helvetica,sans-Serif" font-size="10.00">&lt; TypeResponseEvaluator &gt;</text>
</a>
</g>
</g>
<!-- Node0&#45;&gt;Node1 -->
<g id="edge1" class="edge"><title>Node0&#45;&gt;Node1</title>
<path fill="none" stroke="midnightblue" d="M213.25,-66.3111C224.852,-67.915 236.419,-69.5141 247.421,-71.0351"/>
<polygon fill="midnightblue" stroke="midnightblue" points="213.445,-62.8048 203.06,-64.9022 212.486,-69.7388 213.445,-62.8048"/>
</g>
<!-- Node2 -->
<g id="node3" class="node"><title>Node2</title>
<g id="a_node3"><a xlink:href="db/d9a/classIG_1_1NumExperimental_1_1ResponseEvaluatorWithStorageAnalysisDtoBase.html" target="_top" xlink:title="Base class for DTOs (Data Transfer Objects) for response evaluators with storage where response is ev...">
<polygon fill="white" stroke="black" points="239,-0.5 239,-41.5 402,-41.5 402,-0.5 239,-0.5"/>
<text text-anchor="start" x="247" y="-29.5" font-family="Helvetica,sans-Serif" font-size="10.00">IG.NumExperimental.Response</text>
<text text-anchor="start" x="247" y="-18.5" font-family="Helvetica,sans-Serif" font-size="10.00">EvaluatorWithStorageAnalysisDto</text>
<text text-anchor="middle" x="320.5" y="-7.5" font-family="Helvetica,sans-Serif" font-size="10.00">Base&lt; TypeResponseEvaluator &gt;</text>
</a>
</g>
</g>
<!-- Node0&#45;&gt;Node2 -->
<g id="edge2" class="edge"><title>Node0&#45;&gt;Node2</title>
<path fill="none" stroke="midnightblue" d="M213.18,-35.6986C221.805,-34.5062 230.411,-33.3164 238.782,-32.1592"/>
<polygon fill="midnightblue" stroke="midnightblue" points="212.486,-32.2612 203.06,-37.0978 213.445,-39.1952 212.486,-32.2612"/>
</g>
<!-- Node3 -->
<g id="node4" class="node"><title>Node3</title>
<g id="a_node4"><a xlink:href="df/d68/classIG_1_1NumExperimental_1_1ResponseEvaluatorWithStorageAnalysisDto.html" target="_top" xlink:title="DTO (data transfer object) for response evaluators with storage where response is evaluated by an (op...">
<polygon fill="white" stroke="black" points="438,-6 438,-36 601,-36 601,-6 438,-6"/>
<text text-anchor="start" x="446" y="-24" font-family="Helvetica,sans-Serif" font-size="10.00">IG.NumExperimental.Response</text>
<text text-anchor="middle" x="519.5" y="-13" font-family="Helvetica,sans-Serif" font-size="10.00">EvaluatorWithStorageAnalysisDto</text>
</a>
</g>
</g>
<!-- Node2&#45;&gt;Node3 -->
<g id="edge3" class="edge"><title>Node2&#45;&gt;Node3</title>
<path fill="none" stroke="midnightblue" d="M412.215,-21C420.795,-21 429.454,-21 437.93,-21"/>
<polygon fill="midnightblue" stroke="midnightblue" points="412.196,-17.5001 402.196,-21 412.196,-24.5001 412.196,-17.5001"/>
</g>
</g>
</svg>
