<?xml version="1.0" encoding="UTF-8" standalone="no"?>
<!DOCTYPE svg PUBLIC "-//W3C//DTD SVG 1.1//EN"
 "http://www.w3.org/Graphics/SVG/1.1/DTD/svg11.dtd">
<!-- Generated by graphviz version 2.38.0 (20140413.2041)
 -->
<!-- Title: Graphical Class Hierarchy Pages: 1 -->
<svg width="283pt" height="493pt"
 viewBox="0.00 0.00 283.00 492.50" xmlns="http://www.w3.org/2000/svg" xmlns:xlink="http://www.w3.org/1999/xlink">
<g id="graph0" class="graph" transform="scale(1 1) rotate(0) translate(4 488.5)">
<title>Graphical Class Hierarchy</title>
<polygon fill="white" stroke="none" points="-4,4 -4,-488.5 279,-488.5 279,4 -4,4"/>
<!-- Node3798 -->
<g id="node1" class="node"><title>Node3798</title>
<g id="a_node1"><a xlink:title=" ">
<polygon fill="white" stroke="#bfbfbf" points="0,-232.5 0,-251.5 61,-251.5 61,-232.5 0,-232.5"/>
<text text-anchor="middle" x="30.5" y="-239.5" font-family="Helvetica,sans-Serif" font-size="10.00">EventArgs</text>
</a>
</g>
</g>
<!-- Node0 -->
<g id="node2" class="node"><title>Node0</title>
<g id="a_node2"><a xlink:href="dc/d77/classAForge_1_1Controls_1_1ManipulatorControl_1_1PositionEventArgs.html" target="_top" xlink:title="Class, which summarizes arguments of manipulator&#39;s position change event.">
<polygon fill="white" stroke="black" points="116,-454 116,-484 256,-484 256,-454 116,-454"/>
<text text-anchor="start" x="124" y="-472" font-family="Helvetica,sans-Serif" font-size="10.00">AForge.Controls.Manipulator</text>
<text text-anchor="middle" x="186" y="-461" font-family="Helvetica,sans-Serif" font-size="10.00">Control.PositionEventArgs</text>
</a>
</g>
</g>
<!-- Node3798&#45;&gt;Node0 -->
<g id="edge1" class="edge"><title>Node3798&#45;&gt;Node0</title>
<path fill="none" stroke="midnightblue" d="M32.0305,-261.759C34.2068,-301.988 44.9469,-393.826 97,-444 102.489,-449.291 109.013,-453.476 115.992,-456.785"/>
<polygon fill="midnightblue" stroke="midnightblue" points="35.5227,-261.497 31.6106,-251.651 28.5288,-261.788 35.5227,-261.497"/>
</g>
<!-- Node3800 -->
<g id="node3" class="node"><title>Node3800</title>
<g id="a_node3"><a xlink:href="d3/d80/classCShell_1_1Code_1_1ConsoleEventArgs.html" target="_top" xlink:title=" ">
<polygon fill="white" stroke="black" points="109.5,-415.5 109.5,-434.5 262.5,-434.5 262.5,-415.5 109.5,-415.5"/>
<text text-anchor="middle" x="186" y="-422.5" font-family="Helvetica,sans-Serif" font-size="10.00">CShell.Code.ConsoleEventArgs</text>
</a>
</g>
</g>
<!-- Node3798&#45;&gt;Node3800 -->
<g id="edge2" class="edge"><title>Node3798&#45;&gt;Node3800</title>
<path fill="none" stroke="midnightblue" d="M33.4758,-261.819C38.0462,-296.598 52.6118,-368.481 97,-406 101.536,-409.834 106.664,-412.949 112.109,-415.473"/>
<polygon fill="midnightblue" stroke="midnightblue" points="36.9132,-261.078 32.2803,-251.55 29.9602,-261.887 36.9132,-261.078"/>
</g>
<!-- Node3801 -->
<g id="node4" class="node"><title>Node3801</title>
<g id="a_node4"><a xlink:href="d9/dae/classCShell_1_1Code_1_1EvaluateStartedEventArgs.html" target="_top" xlink:title=" ">
<polygon fill="white" stroke="black" points="115,-366 115,-396 257,-396 257,-366 115,-366"/>
<text text-anchor="start" x="123" y="-384" font-family="Helvetica,sans-Serif" font-size="10.00">CShell.Code.EvaluateStarted</text>
<text text-anchor="middle" x="186" y="-373" font-family="Helvetica,sans-Serif" font-size="10.00">EventArgs</text>
</a>
</g>
</g>
<!-- Node3798&#45;&gt;Node3801 -->
<g id="edge3" class="edge"><title>Node3798&#45;&gt;Node3801</title>
<path fill="none" stroke="midnightblue" d="M37.4346,-261.25C46.2796,-286.726 65.3608,-331.29 97,-356 102.382,-360.204 108.439,-363.7 114.793,-366.609"/>
<polygon fill="midnightblue" stroke="midnightblue" points="40.7143,-260.019 34.2639,-251.614 34.065,-262.207 40.7143,-260.019"/>
</g>
<!-- Node3802 -->
<g id="node5" class="node"><title>Node3802</title>
<g id="a_node5"><a xlink:href="da/dc3/classCShell_1_1WorkspaceClosedEventArgs.html" target="_top" xlink:title=" ">
<polygon fill="white" stroke="black" points="100,-327.5 100,-346.5 272,-346.5 272,-327.5 100,-327.5"/>
<text text-anchor="middle" x="186" y="-334.5" font-family="Helvetica,sans-Serif" font-size="10.00">CShell.WorkspaceClosedEventArgs</text>
</a>
</g>
</g>
<!-- Node3798&#45;&gt;Node3802 -->
<g id="edge4" class="edge"><title>Node3798&#45;&gt;Node3802</title>
<path fill="none" stroke="midnightblue" d="M42.4102,-260.497C53.7809,-278.085 73.2456,-303.888 97,-318 103.584,-321.912 110.872,-325.022 118.353,-327.494"/>
<polygon fill="midnightblue" stroke="midnightblue" points="45.1966,-258.35 36.95,-251.698 39.2487,-262.04 45.1966,-258.35"/>
</g>
<!-- Node3803 -->
<g id="node6" class="node"><title>Node3803</title>
<g id="a_node6"><a xlink:href="d5/d53/classCShell_1_1WorkspaceClosingEventArgs.html" target="_top" xlink:title=" ">
<polygon fill="white" stroke="black" points="99,-289.5 99,-308.5 273,-308.5 273,-289.5 99,-289.5"/>
<text text-anchor="middle" x="186" y="-296.5" font-family="Helvetica,sans-Serif" font-size="10.00">CShell.WorkspaceClosingEventArgs</text>
</a>
</g>
</g>
<!-- Node3798&#45;&gt;Node3803 -->
<g id="edge5" class="edge"><title>Node3798&#45;&gt;Node3803</title>
<path fill="none" stroke="midnightblue" d="M54.0405,-257.441C66.2811,-265.206 81.9535,-274.178 97,-280 106.766,-283.779 117.448,-286.881 127.898,-289.402"/>
<polygon fill="midnightblue" stroke="midnightblue" points="55.7031,-254.347 45.4161,-251.811 51.8765,-260.208 55.7031,-254.347"/>
</g>
<!-- Node3804 -->
<g id="node7" class="node"><title>Node3804</title>
<g id="a_node7"><a xlink:href="d9/d1e/classCShell_1_1WorkspaceOpenedEventArgs.html" target="_top" xlink:title=" ">
<polygon fill="white" stroke="black" points="98,-251.5 98,-270.5 274,-270.5 274,-251.5 98,-251.5"/>
<text text-anchor="middle" x="186" y="-258.5" font-family="Helvetica,sans-Serif" font-size="10.00">CShell.WorkspaceOpenedEventArgs</text>
</a>
</g>
</g>
<!-- Node3798&#45;&gt;Node3804 -->
<g id="edge6" class="edge"><title>Node3798&#45;&gt;Node3804</title>
<path fill="none" stroke="midnightblue" d="M71.0743,-246.898C82.421,-248.303 95.1971,-249.884 107.983,-251.467"/>
<polygon fill="midnightblue" stroke="midnightblue" points="71.4506,-243.418 61.0963,-245.663 70.5906,-250.365 71.4506,-243.418"/>
</g>
<!-- Node3805 -->
<g id="node8" class="node"><title>Node3805</title>
<g id="a_node8"><a xlink:href="da/d20/classCShell_1_1WorkspaceOpeningEventArgs.html" target="_top" xlink:title=" ">
<polygon fill="white" stroke="black" points="97,-213.5 97,-232.5 275,-232.5 275,-213.5 97,-213.5"/>
<text text-anchor="middle" x="186" y="-220.5" font-family="Helvetica,sans-Serif" font-size="10.00">CShell.WorkspaceOpeningEventArgs</text>
</a>
</g>
</g>
<!-- Node3798&#45;&gt;Node3805 -->
<g id="edge7" class="edge"><title>Node3798&#45;&gt;Node3805</title>
<path fill="none" stroke="midnightblue" d="M71.0743,-237.102C82.421,-235.697 95.1971,-234.116 107.983,-232.533"/>
<polygon fill="midnightblue" stroke="midnightblue" points="70.5906,-233.635 61.0963,-238.337 71.4506,-240.582 70.5906,-233.635"/>
</g>
<!-- Node3806 -->
<g id="node9" class="node"><title>Node3806</title>
<g id="a_node9"><a xlink:href="db/d79/classEFA__WS_1_1ExceptionEventArgs.html" target="_top" xlink:title=" ">
<polygon fill="white" stroke="black" points="111.5,-175.5 111.5,-194.5 260.5,-194.5 260.5,-175.5 111.5,-175.5"/>
<text text-anchor="middle" x="186" y="-182.5" font-family="Helvetica,sans-Serif" font-size="10.00">EFA_WS.ExceptionEventArgs</text>
</a>
</g>
</g>
<!-- Node3798&#45;&gt;Node3806 -->
<g id="edge8" class="edge"><title>Node3798&#45;&gt;Node3806</title>
<path fill="none" stroke="midnightblue" d="M54.0405,-226.559C66.2811,-218.794 81.9535,-209.822 97,-204 106.766,-200.221 117.448,-197.119 127.898,-194.598"/>
<polygon fill="midnightblue" stroke="midnightblue" points="51.8765,-223.792 45.4161,-232.189 55.7031,-229.653 51.8765,-223.792"/>
</g>
<!-- Node3807 -->
<g id="node10" class="node"><title>Node3807</title>
<g id="a_node10"><a xlink:href="d1/d12/classIG_1_1Forms_1_1FontEventArgs.html" target="_top" xlink:title="EventArgs class that contains font information.">
<polygon fill="white" stroke="black" points="124,-137.5 124,-156.5 248,-156.5 248,-137.5 124,-137.5"/>
<text text-anchor="middle" x="186" y="-144.5" font-family="Helvetica,sans-Serif" font-size="10.00">IG.Forms.FontEventArgs</text>
</a>
</g>
</g>
<!-- Node3798&#45;&gt;Node3807 -->
<g id="edge9" class="edge"><title>Node3798&#45;&gt;Node3807</title>
<path fill="none" stroke="midnightblue" d="M42.4102,-223.503C53.7809,-205.915 73.2456,-180.112 97,-166 105.197,-161.13 114.484,-157.503 123.876,-154.802"/>
<polygon fill="midnightblue" stroke="midnightblue" points="39.2487,-221.96 36.95,-232.302 45.1966,-225.65 39.2487,-221.96"/>
</g>
<!-- Node3808 -->
<g id="node11" class="node"><title>Node3808</title>
<g id="a_node11"><a xlink:href="d8/d81/classIG_1_1Forms_1_1ValueChangeEventArgs.html" target="_top" xlink:title="Event arguments for events bearing information about value that has changed.">
<polygon fill="white" stroke="black" points="115,-88 115,-118 257,-118 257,-88 115,-88"/>
<text text-anchor="start" x="123" y="-106" font-family="Helvetica,sans-Serif" font-size="10.00">IG.Forms.ValueChangeEvent</text>
<text text-anchor="middle" x="186" y="-95" font-family="Helvetica,sans-Serif" font-size="10.00">Args&lt; ValueType &gt;</text>
</a>
</g>
</g>
<!-- Node3798&#45;&gt;Node3808 -->
<g id="edge10" class="edge"><title>Node3798&#45;&gt;Node3808</title>
<path fill="none" stroke="midnightblue" d="M37.4346,-222.75C46.2796,-197.274 65.3608,-152.71 97,-128 102.382,-123.796 108.439,-120.3 114.793,-117.391"/>
<polygon fill="midnightblue" stroke="midnightblue" points="34.065,-221.793 34.2639,-232.386 40.7143,-223.981 34.065,-221.793"/>
</g>
<!-- Node3809 -->
<g id="node12" class="node"><title>Node3809</title>
<g id="a_node12"><a xlink:href="d2/d95/classNeuronDotNet_1_1Core_1_1TrainingEpochEventArgs.html" target="_top" xlink:title="Training Epoch Event Arguments">
<polygon fill="white" stroke="black" points="117.5,-39 117.5,-69 254.5,-69 254.5,-39 117.5,-39"/>
<text text-anchor="start" x="125.5" y="-57" font-family="Helvetica,sans-Serif" font-size="10.00">NeuronDotNet.Core.Training</text>
<text text-anchor="middle" x="186" y="-46" font-family="Helvetica,sans-Serif" font-size="10.00">EpochEventArgs</text>
</a>
</g>
</g>
<!-- Node3798&#45;&gt;Node3809 -->
<g id="edge11" class="edge"><title>Node3798&#45;&gt;Node3809</title>
<path fill="none" stroke="midnightblue" d="M33.8331,-222.094C38.9242,-187.782 54.2277,-117.49 97,-79 102.903,-73.688 109.857,-69.4974 117.226,-66.1926"/>
<polygon fill="midnightblue" stroke="midnightblue" points="30.331,-221.876 32.4731,-232.252 37.2691,-222.805 30.331,-221.876"/>
</g>
<!-- Node3810 -->
<g id="node13" class="node"><title>Node3810</title>
<g id="a_node13"><a xlink:href="d5/d16/classNUnit_1_1Engine_1_1SettingsEventArgs.html" target="_top" xlink:title="Event argument for settings changes">
<polygon fill="white" stroke="black" points="107.5,-0.5 107.5,-19.5 264.5,-19.5 264.5,-0.5 107.5,-0.5"/>
<text text-anchor="middle" x="186" y="-7.5" font-family="Helvetica,sans-Serif" font-size="10.00">NUnit.Engine.SettingsEventArgs</text>
</a>
</g>
</g>
<!-- Node3798&#45;&gt;Node3810 -->
<g id="edge12" class="edge"><title>Node3798&#45;&gt;Node3810</title>
<path fill="none" stroke="midnightblue" d="M31.4495,-222.178C32.478,-180.17 41.0911,-81.804 97,-30 101.597,-25.7406 106.906,-22.3239 112.592,-19.5907"/>
<polygon fill="midnightblue" stroke="midnightblue" points="27.9492,-222.19 31.3273,-232.232 34.9487,-222.276 27.9492,-222.19"/>
</g>
</g>
</svg>
