<?xml version="1.0" encoding="UTF-8" standalone="no"?>
<!DOCTYPE svg PUBLIC "-//W3C//DTD SVG 1.1//EN"
 "http://www.w3.org/Graphics/SVG/1.1/DTD/svg11.dtd">
<!-- Generated by graphviz version 2.38.0 (20140413.2041)
 -->
<!-- Title: Graphical Class Hierarchy Pages: 1 -->
<svg width="394pt" height="50pt"
 viewBox="0.00 0.00 394.00 50.00" xmlns="http://www.w3.org/2000/svg" xmlns:xlink="http://www.w3.org/1999/xlink">
<g id="graph0" class="graph" transform="scale(1 1) rotate(0) translate(4 46)">
<title>Graphical Class Hierarchy</title>
<polygon fill="white" stroke="none" points="-4,4 -4,-46 390,-46 390,4 -4,4"/>
<!-- Node0 -->
<g id="node1" class="node"><title>Node0</title>
<g id="a_node1"><a xlink:href="d3/d5b/classNUnit_1_1TestData_1_1OneTimeSetUpTearDownData_1_1StaticSetUpAndTearDownFixture.html" target="_top" xlink:title=" ">
<polygon fill="white" stroke="black" points="0,-0.5 0,-41.5 183,-41.5 183,-0.5 0,-0.5"/>
<text text-anchor="start" x="8" y="-29.5" font-family="Helvetica,sans-Serif" font-size="10.00">NUnit.TestData.OneTimeSet</text>
<text text-anchor="start" x="8" y="-18.5" font-family="Helvetica,sans-Serif" font-size="10.00">UpTearDownData.StaticSetUpAndTear</text>
<text text-anchor="middle" x="91.5" y="-7.5" font-family="Helvetica,sans-Serif" font-size="10.00">DownFixture</text>
</a>
</g>
</g>
<!-- Node1 -->
<g id="node2" class="node"><title>Node1</title>
<g id="a_node2"><a xlink:href="dc/d34/classNUnit_1_1TestData_1_1OneTimeSetUpTearDownData_1_1DerivedStaticSetUpAndTearDownFixture.html" target="_top" xlink:title=" ">
<polygon fill="white" stroke="black" points="219,-0.5 219,-41.5 386,-41.5 386,-0.5 219,-0.5"/>
<text text-anchor="start" x="227" y="-29.5" font-family="Helvetica,sans-Serif" font-size="10.00">NUnit.TestData.OneTimeSet</text>
<text text-anchor="start" x="227" y="-18.5" font-family="Helvetica,sans-Serif" font-size="10.00">UpTearDownData.DerivedStaticSet</text>
<text text-anchor="middle" x="302.5" y="-7.5" font-family="Helvetica,sans-Serif" font-size="10.00">UpAndTearDownFixture</text>
</a>
</g>
</g>
<!-- Node0&#45;&gt;Node1 -->
<g id="edge1" class="edge"><title>Node0&#45;&gt;Node1</title>
<path fill="none" stroke="midnightblue" d="M193.525,-21C201.966,-21 210.438,-21 218.719,-21"/>
<polygon fill="midnightblue" stroke="midnightblue" points="193.259,-17.5001 183.259,-21 193.259,-24.5001 193.259,-17.5001"/>
</g>
</g>
</svg>
