<?xml version="1.0" encoding="UTF-8" standalone="no"?>
<!DOCTYPE svg PUBLIC "-//W3C//DTD SVG 1.1//EN"
 "http://www.w3.org/Graphics/SVG/1.1/DTD/svg11.dtd">
<!-- Generated by graphviz version 2.38.0 (20140413.2041)
 -->
<!-- Title: Graphical Class Hierarchy Pages: 1 -->
<svg width="576pt" height="39pt"
 viewBox="0.00 0.00 576.00 39.00" xmlns="http://www.w3.org/2000/svg" xmlns:xlink="http://www.w3.org/1999/xlink">
<g id="graph0" class="graph" transform="scale(1 1) rotate(0) translate(4 35)">
<title>Graphical Class Hierarchy</title>
<polygon fill="white" stroke="none" points="-4,4 -4,-35 572,-35 572,4 -4,4"/>
<!-- Node0 -->
<g id="node1" class="node"><title>Node0</title>
<g id="a_node1"><a xlink:href="df/dc1/classNUnit_1_1Framework_1_1Constraints_1_1InstanceOfTypeConstraintTests_1_1B.html" target="_top" xlink:title=" ">
<polygon fill="white" stroke="black" points="0,-0.5 0,-30.5 162,-30.5 162,-0.5 0,-0.5"/>
<text text-anchor="start" x="8" y="-18.5" font-family="Helvetica,sans-Serif" font-size="10.00">NUnit.Framework.Constraints.</text>
<text text-anchor="middle" x="81" y="-7.5" font-family="Helvetica,sans-Serif" font-size="10.00">InstanceOfTypeConstraintTests.B</text>
</a>
</g>
</g>
<!-- Node1 -->
<g id="node2" class="node"><title>Node1</title>
<g id="a_node2"><a xlink:href="db/d32/classNUnit_1_1Framework_1_1Constraints_1_1InstanceOfTypeConstraintTests_1_1D1.html" target="_top" xlink:title=" ">
<polygon fill="white" stroke="black" points="198,-0.5 198,-30.5 365,-30.5 365,-0.5 198,-0.5"/>
<text text-anchor="start" x="206" y="-18.5" font-family="Helvetica,sans-Serif" font-size="10.00">NUnit.Framework.Constraints.</text>
<text text-anchor="middle" x="281.5" y="-7.5" font-family="Helvetica,sans-Serif" font-size="10.00">InstanceOfTypeConstraintTests.D1</text>
</a>
</g>
</g>
<!-- Node0&#45;&gt;Node1 -->
<g id="edge1" class="edge"><title>Node0&#45;&gt;Node1</title>
<path fill="none" stroke="midnightblue" d="M172.412,-15.5C180.861,-15.5 189.396,-15.5 197.77,-15.5"/>
<polygon fill="midnightblue" stroke="midnightblue" points="172.165,-12.0001 162.165,-15.5 172.165,-19.0001 172.165,-12.0001"/>
</g>
<!-- Node2 -->
<g id="node3" class="node"><title>Node2</title>
<g id="a_node3"><a xlink:href="d4/d77/classNUnit_1_1Framework_1_1Constraints_1_1InstanceOfTypeConstraintTests_1_1D2.html" target="_top" xlink:title=" ">
<polygon fill="white" stroke="black" points="401,-0.5 401,-30.5 568,-30.5 568,-0.5 401,-0.5"/>
<text text-anchor="start" x="409" y="-18.5" font-family="Helvetica,sans-Serif" font-size="10.00">NUnit.Framework.Constraints.</text>
<text text-anchor="middle" x="484.5" y="-7.5" font-family="Helvetica,sans-Serif" font-size="10.00">InstanceOfTypeConstraintTests.D2</text>
</a>
</g>
</g>
<!-- Node1&#45;&gt;Node2 -->
<g id="edge2" class="edge"><title>Node1&#45;&gt;Node2</title>
<path fill="none" stroke="midnightblue" d="M375.148,-15.5C383.73,-15.5 392.389,-15.5 400.872,-15.5"/>
<polygon fill="midnightblue" stroke="midnightblue" points="375.125,-12.0001 365.125,-15.5 375.124,-19.0001 375.125,-12.0001"/>
</g>
</g>
</svg>
