<?xml version="1.0" encoding="UTF-8" standalone="no"?>
<!DOCTYPE svg PUBLIC "-//W3C//DTD SVG 1.1//EN"
 "http://www.w3.org/Graphics/SVG/1.1/DTD/svg11.dtd">
<!-- Generated by graphviz version 2.38.0 (20140413.2041)
 -->
<!-- Title: Graphical Class Hierarchy Pages: 1 -->
<svg width="416pt" height="78pt"
 viewBox="0.00 0.00 416.00 77.50" xmlns="http://www.w3.org/2000/svg" xmlns:xlink="http://www.w3.org/1999/xlink">
<g id="graph0" class="graph" transform="scale(1 1) rotate(0) translate(4 73.5)">
<title>Graphical Class Hierarchy</title>
<polygon fill="white" stroke="none" points="-4,4 -4,-73.5 412,-73.5 412,4 -4,4"/>
<!-- Node3275 -->
<g id="node1" class="node"><title>Node3275</title>
<g id="a_node1"><a xlink:title=" ">
<polygon fill="white" stroke="#bfbfbf" points="0,-44.5 0,-63.5 63,-63.5 63,-44.5 0,-44.5"/>
<text text-anchor="middle" x="31.5" y="-51.5" font-family="Helvetica,sans-Serif" font-size="10.00">IConductor</text>
</a>
</g>
</g>
<!-- Node3276 -->
<g id="node2" class="node"><title>Node3276</title>
<g id="a_node2"><a xlink:href="d9/da1/interfaceCShell_1_1Framework_1_1Services_1_1IShell.html" target="_top" xlink:title=" ">
<polygon fill="white" stroke="black" points="99,-39 99,-69 238,-69 238,-39 99,-39"/>
<text text-anchor="start" x="107" y="-57" font-family="Helvetica,sans-Serif" font-size="10.00">CShell.Framework.Services.</text>
<text text-anchor="middle" x="168.5" y="-46" font-family="Helvetica,sans-Serif" font-size="10.00">IShell</text>
</a>
</g>
</g>
<!-- Node3275&#45;&gt;Node3276 -->
<g id="edge1" class="edge"><title>Node3275&#45;&gt;Node3276</title>
<path fill="none" stroke="midnightblue" d="M73.397,-54C81.5093,-54 90.2318,-54 98.9773,-54"/>
<polygon fill="midnightblue" stroke="midnightblue" points="73.1336,-50.5001 63.1336,-54 73.1336,-57.5001 73.1336,-50.5001"/>
</g>
<!-- Node0 -->
<g id="node3" class="node"><title>Node0</title>
<g id="a_node3"><a xlink:href="db/dd2/classCShell_1_1Modules_1_1Shell_1_1ViewModels_1_1ShellViewModel.html" target="_top" xlink:title=" ">
<polygon fill="white" stroke="black" points="274,-17 274,-47 408,-47 408,-17 274,-17"/>
<text text-anchor="start" x="282" y="-35" font-family="Helvetica,sans-Serif" font-size="10.00">CShell.Modules.Shell.View</text>
<text text-anchor="middle" x="341" y="-24" font-family="Helvetica,sans-Serif" font-size="10.00">Models.ShellViewModel</text>
</a>
</g>
</g>
<!-- Node3276&#45;&gt;Node0 -->
<g id="edge2" class="edge"><title>Node3276&#45;&gt;Node0</title>
<path fill="none" stroke="midnightblue" d="M248.342,-43.8268C256.9,-42.7226 265.544,-41.6073 273.927,-40.5256"/>
<polygon fill="midnightblue" stroke="midnightblue" points="247.827,-40.3641 238.357,-45.1152 248.723,-47.3066 247.827,-40.3641"/>
</g>
<!-- Node1487 -->
<g id="node4" class="node"><title>Node1487</title>
<g id="a_node4"><a xlink:title=" ">
<polygon fill="white" stroke="#bfbfbf" points="138,-0.5 138,-19.5 199,-19.5 199,-0.5 138,-0.5"/>
<text text-anchor="middle" x="168.5" y="-7.5" font-family="Helvetica,sans-Serif" font-size="10.00">OneActive</text>
</a>
</g>
</g>
<!-- Node1487&#45;&gt;Node0 -->
<g id="edge3" class="edge"><title>Node1487&#45;&gt;Node0</title>
<path fill="none" stroke="midnightblue" d="M209.382,-15.1461C228.584,-17.6238 252.12,-20.6606 273.897,-23.4706"/>
<polygon fill="midnightblue" stroke="midnightblue" points="209.565,-11.6407 199.199,-13.8321 208.669,-18.5831 209.565,-11.6407"/>
</g>
</g>
</svg>
