<?xml version="1.0" encoding="UTF-8" standalone="no"?>
<!DOCTYPE svg PUBLIC "-//W3C//DTD SVG 1.1//EN"
 "http://www.w3.org/Graphics/SVG/1.1/DTD/svg11.dtd">
<!-- Generated by graphviz version 2.38.0 (20140413.2041)
 -->
<!-- Title: IG.Forms.ScriptLoaderForm Pages: 1 -->
<svg width="177pt" height="205pt"
 viewBox="0.00 0.00 176.50 205.00" xmlns="http://www.w3.org/2000/svg" xmlns:xlink="http://www.w3.org/1999/xlink">
<g id="graph0" class="graph" transform="scale(1 1) rotate(0) translate(4 201)">
<title>IG.Forms.ScriptLoaderForm</title>
<polygon fill="white" stroke="none" points="-4,4 -4,-201 172.5,-201 172.5,4 -4,4"/>
<!-- Node1 -->
<g id="node1" class="node"><title>Node1</title>
<g id="a_node1"><a xlink:title=" ">
<polygon fill="#bfbfbf" stroke="black" points="0,-0.5 0,-19.5 137,-19.5 137,-0.5 0,-0.5"/>
<text text-anchor="middle" x="68.5" y="-7.5" font-family="Helvetica,sans-Serif" font-size="10.00">IG.Forms.ScriptLoaderForm</text>
</a>
</g>
</g>
<!-- Node2 -->
<g id="node2" class="node"><title>Node2</title>
<g id="a_node2"><a xlink:title=" ">
<polygon fill="white" stroke="#bfbfbf" points="18,-177.5 18,-196.5 57,-196.5 57,-177.5 18,-177.5"/>
<text text-anchor="middle" x="37.5" y="-184.5" font-family="Helvetica,sans-Serif" font-size="10.00">Form</text>
</a>
</g>
</g>
<!-- Node2&#45;&gt;Node1 -->
<g id="edge1" class="edge"><title>Node2&#45;&gt;Node1</title>
<path fill="none" stroke="midnightblue" d="M40.8744,-166.951C47.5445,-129.297 62.1842,-46.6537 66.9601,-19.6932"/>
<polygon fill="midnightblue" stroke="midnightblue" points="37.3779,-166.624 39.0799,-177.081 44.2706,-167.845 37.3779,-166.624"/>
</g>
<!-- Node3 -->
<g id="node3" class="node"><title>Node3</title>
<g id="a_node3"><a xlink:title=" ">
<polygon fill="white" stroke="#bfbfbf" points="75.5,-177.5 75.5,-196.5 125.5,-196.5 125.5,-177.5 75.5,-177.5"/>
<text text-anchor="middle" x="100.5" y="-184.5" font-family="Helvetica,sans-Serif" font-size="10.00">System</text>
</a>
</g>
</g>
<!-- Node3&#45;&gt;Node1 -->
<g id="edge2" class="edge"><title>Node3&#45;&gt;Node1</title>
<path fill="none" stroke="#9a32cd" stroke-dasharray="5,2" d="M97.0168,-166.951C90.1315,-129.297 75.0195,-46.6537 70.0896,-19.6932"/>
<polygon fill="#9a32cd" stroke="#9a32cd" points="93.6274,-167.874 98.8691,-177.081 100.513,-166.615 93.6274,-167.874"/>
<text text-anchor="middle" x="132" y="-151" font-family="Helvetica,sans-Serif" font-size="10.00"> btnRun</text>
<text text-anchor="middle" x="132" y="-140" font-family="Helvetica,sans-Serif" font-size="10.00">txtInitArgs</text>
<text text-anchor="middle" x="132" y="-129" font-family="Helvetica,sans-Serif" font-size="10.00">btnCompile</text>
<text text-anchor="middle" x="132" y="-118" font-family="Helvetica,sans-Serif" font-size="10.00">txtRunArgs</text>
<text text-anchor="middle" x="132" y="-107" font-family="Helvetica,sans-Serif" font-size="10.00">btnQuit</text>
<text text-anchor="middle" x="132" y="-96" font-family="Helvetica,sans-Serif" font-size="10.00">lblInitArgs</text>
<text text-anchor="middle" x="132" y="-85" font-family="Helvetica,sans-Serif" font-size="10.00">btnLoad</text>
<text text-anchor="middle" x="132" y="-74" font-family="Helvetica,sans-Serif" font-size="10.00">btnOther</text>
<text text-anchor="middle" x="132" y="-63" font-family="Helvetica,sans-Serif" font-size="10.00">components</text>
<text text-anchor="middle" x="132" y="-52" font-family="Helvetica,sans-Serif" font-size="10.00">btnLoadFromFile</text>
<text text-anchor="middle" x="132" y="-41" font-family="Helvetica,sans-Serif" font-size="10.00">...</text>
</g>
</g>
</svg>
