<?xml version="1.0" encoding="UTF-8" standalone="no"?>
<!DOCTYPE svg PUBLIC "-//W3C//DTD SVG 1.1//EN"
 "http://www.w3.org/Graphics/SVG/1.1/DTD/svg11.dtd">
<!-- Generated by graphviz version 2.38.0 (20140413.2041)
 -->
<!-- Title: IG.Script.S_12_02_paper_neural_process_chain_model Pages: 1 -->
<svg width="656pt" height="632pt"
 viewBox="0.00 0.00 655.68 632.00" xmlns="http://www.w3.org/2000/svg" xmlns:xlink="http://www.w3.org/1999/xlink">
<g id="graph0" class="graph" transform="scale(1 1) rotate(0) translate(4 628)">
<title>IG.Script.S_12_02_paper_neural_process_chain_model</title>
<polygon fill="white" stroke="none" points="-4,4 -4,-628 651.68,-628 651.68,4 -4,4"/>
<!-- Node1 -->
<g id="node1" class="node"><title>Node1</title>
<g id="a_node1"><a xlink:title=" ">
<polygon fill="#bfbfbf" stroke="black" points="0,-0.5 0,-30.5 148,-30.5 148,-0.5 0,-0.5"/>
<text text-anchor="start" x="8" y="-18.5" font-family="Helvetica,sans-Serif" font-size="10.00">IG.Script.S_12_02_paper</text>
<text text-anchor="middle" x="74" y="-7.5" font-family="Helvetica,sans-Serif" font-size="10.00">_neural_process_chain_model</text>
</a>
</g>
</g>
<!-- Node2 -->
<g id="node2" class="node"><title>Node2</title>
<g id="a_node2"><a xlink:href="../../d5/d3c/classIG_1_1Script_1_1LoadableScriptShellNeuralIT.html" target="_top" xlink:title="Base class for loadable scripts that are used as custom applications that inclued neural networks app...">
<polygon fill="white" stroke="black" points="54,-67.5 54,-86.5 192,-86.5 192,-67.5 54,-67.5"/>
<text text-anchor="middle" x="123" y="-74.5" font-family="Helvetica,sans-Serif" font-size="10.00">LoadableScriptShellNeuralIT</text>
</a>
</g>
</g>
<!-- Node2&#45;&gt;Node1 -->
<g id="edge1" class="edge"><title>Node2&#45;&gt;Node1</title>
<path fill="none" stroke="midnightblue" d="M109.436,-59.5296C101.932,-50.4173 92.7053,-39.2136 85.5483,-30.523"/>
<polygon fill="midnightblue" stroke="midnightblue" points="106.921,-61.9808 115.979,-67.4751 112.324,-57.5308 106.921,-61.9808"/>
</g>
<!-- Node3 -->
<g id="node3" class="node"><title>Node3</title>
<g id="a_node3"><a xlink:href="../../d8/dd6/classIG_1_1Script_1_1LoadableScriptShellNeuralITOriginalBase.html" target="_top" xlink:title="Base class for loadable scripts that are used as custom applications that inclued neural networks app...">
<polygon fill="white" stroke="black" points="92.5,-123.5 92.5,-153.5 223.5,-153.5 223.5,-123.5 92.5,-123.5"/>
<text text-anchor="start" x="100.5" y="-141.5" font-family="Helvetica,sans-Serif" font-size="10.00">LoadableScriptShellNeural</text>
<text text-anchor="middle" x="158" y="-130.5" font-family="Helvetica,sans-Serif" font-size="10.00">ITOriginalBase</text>
</a>
</g>
</g>
<!-- Node3&#45;&gt;Node2 -->
<g id="edge2" class="edge"><title>Node3&#45;&gt;Node2</title>
<path fill="none" stroke="midnightblue" d="M144.472,-114.502C138.73,-104.741 132.386,-93.9558 128.093,-86.6578"/>
<polygon fill="midnightblue" stroke="midnightblue" points="141.618,-116.555 149.705,-123.399 147.652,-113.005 141.618,-116.555"/>
</g>
<!-- Node4 -->
<g id="node4" class="node"><title>Node4</title>
<g id="a_node4"><a xlink:href="../../de/d7f/classIG_1_1Script_1_1ScriptShellNeuralWithSimulatorManagers.html" target="_top" xlink:title="Neural script class with added simulatior managers.">
<polygon fill="white" stroke="black" points="168.5,-190.5 168.5,-220.5 321.5,-220.5 321.5,-190.5 168.5,-190.5"/>
<text text-anchor="start" x="176.5" y="-208.5" font-family="Helvetica,sans-Serif" font-size="10.00">ScriptShellNeuralWithSimulator</text>
<text text-anchor="middle" x="245" y="-197.5" font-family="Helvetica,sans-Serif" font-size="10.00">Managers</text>
</a>
</g>
</g>
<!-- Node4&#45;&gt;Node3 -->
<g id="edge3" class="edge"><title>Node4&#45;&gt;Node3</title>
<path fill="none" stroke="midnightblue" d="M217.786,-184.168C204.482,-174.228 188.804,-162.514 176.841,-153.577"/>
<polygon fill="midnightblue" stroke="midnightblue" points="216.016,-187.215 226.122,-190.396 220.206,-181.607 216.016,-187.215"/>
</g>
<!-- Node5 -->
<g id="node5" class="node"><title>Node5</title>
<g id="a_node5"><a xlink:href="../../d1/d30/classIG_1_1Script_1_1LoadableScriptShellNeural.html" target="_top" xlink:title="Base class for loadable scripts that are used as custom applications that inclued neural networks app...">
<polygon fill="white" stroke="black" points="217.5,-257.5 217.5,-276.5 348.5,-276.5 348.5,-257.5 217.5,-257.5"/>
<text text-anchor="middle" x="283" y="-264.5" font-family="Helvetica,sans-Serif" font-size="10.00">LoadableScriptShellNeural</text>
</a>
</g>
</g>
<!-- Node5&#45;&gt;Node4 -->
<g id="edge4" class="edge"><title>Node5&#45;&gt;Node4</title>
<path fill="none" stroke="midnightblue" d="M272.119,-248.963C266.367,-239.956 259.392,-229.034 253.956,-220.523"/>
<polygon fill="midnightblue" stroke="midnightblue" points="269.223,-250.931 277.556,-257.475 275.123,-247.163 269.223,-250.931"/>
</g>
<!-- Node6 -->
<g id="node6" class="node"><title>Node6</title>
<g id="a_node6"><a xlink:href="../../dc/d0c/classIG_1_1Script_1_1LoadableScriptShellNeuralBase.html" target="_top" xlink:title="Base class for loadable scripts that are used as custom applications that inclued neural networks app...">
<polygon fill="white" stroke="black" points="206.5,-313.5 206.5,-332.5 359.5,-332.5 359.5,-313.5 206.5,-313.5"/>
<text text-anchor="middle" x="283" y="-320.5" font-family="Helvetica,sans-Serif" font-size="10.00">LoadableScriptShellNeuralBase</text>
</a>
</g>
</g>
<!-- Node6&#45;&gt;Node5 -->
<g id="edge5" class="edge"><title>Node6&#45;&gt;Node5</title>
<path fill="none" stroke="midnightblue" d="M283,-302.805C283,-293.91 283,-283.78 283,-276.751"/>
<polygon fill="midnightblue" stroke="midnightblue" points="279.5,-303.083 283,-313.083 286.5,-303.083 279.5,-303.083"/>
</g>
<!-- Node7 -->
<g id="node7" class="node"><title>Node7</title>
<g id="a_node7"><a xlink:href="../../d6/d59/classIG_1_1Lib_1_1LoadableScriptShellBase.html" target="_top" xlink:title="Loadable script base class for the shell application that includes tols for definition of optiimizati...">
<polygon fill="white" stroke="black" points="424.5,-369.5 424.5,-388.5 549.5,-388.5 549.5,-369.5 424.5,-369.5"/>
<text text-anchor="middle" x="487" y="-376.5" font-family="Helvetica,sans-Serif" font-size="10.00">LoadableScriptShellBase</text>
</a>
</g>
</g>
<!-- Node7&#45;&gt;Node6 -->
<g id="edge6" class="edge"><title>Node7&#45;&gt;Node6</title>
<path fill="none" stroke="midnightblue" d="M444.799,-366.829C406.282,-356.633 350.178,-341.782 315.173,-332.516"/>
<polygon fill="midnightblue" stroke="midnightblue" points="444.113,-370.268 454.676,-369.444 445.904,-363.501 444.113,-370.268"/>
</g>
<!-- Node8 -->
<g id="node8" class="node"><title>Node8</title>
<g id="a_node8"><a xlink:href="../../d7/d31/classIG_1_1Lib_1_1LoadableScriptOptShellBaseControllable.html" target="_top" xlink:title="Controllable version of LoadableScriptOptBase, implements the ILoadableScriptC interface.">
<polygon fill="white" stroke="black" points="465.5,-425.5 465.5,-455.5 606.5,-455.5 606.5,-425.5 465.5,-425.5"/>
<text text-anchor="start" x="473.5" y="-443.5" font-family="Helvetica,sans-Serif" font-size="10.00">LoadableScriptOptShellBase</text>
<text text-anchor="middle" x="536" y="-432.5" font-family="Helvetica,sans-Serif" font-size="10.00">Controllable</text>
</a>
</g>
</g>
<!-- Node8&#45;&gt;Node7 -->
<g id="edge7" class="edge"><title>Node8&#45;&gt;Node7</title>
<path fill="none" stroke="midnightblue" d="M517.804,-417.404C509.574,-407.411 500.326,-396.181 494.13,-388.658"/>
<polygon fill="midnightblue" stroke="midnightblue" points="515.329,-419.905 524.388,-425.399 520.732,-415.455 515.329,-419.905"/>
</g>
<!-- Node9 -->
<g id="node9" class="node"><title>Node9</title>
<g id="a_node9"><a xlink:href="../../d5/d05/classIG_1_1Lib_1_1LoadableScriptOptBase.html" target="_top" xlink:title="Base class for loadable scripts for optimization problems. AGREEMENTS: The first argument to initiali...">
<polygon fill="white" stroke="black" points="482.5,-492.5 482.5,-511.5 601.5,-511.5 601.5,-492.5 482.5,-492.5"/>
<text text-anchor="middle" x="542" y="-499.5" font-family="Helvetica,sans-Serif" font-size="10.00">LoadableScriptOptBase</text>
</a>
</g>
</g>
<!-- Node9&#45;&gt;Node8 -->
<g id="edge8" class="edge"><title>Node9&#45;&gt;Node8</title>
<path fill="none" stroke="midnightblue" d="M540.108,-482.235C539.236,-473.586 538.218,-463.497 537.414,-455.523"/>
<polygon fill="midnightblue" stroke="midnightblue" points="536.655,-482.877 541.14,-492.475 543.619,-482.174 536.655,-482.877"/>
</g>
<!-- Node10 -->
<g id="node10" class="node"><title>Node10</title>
<g id="a_node10"><a xlink:href="../../d7/d15/classIG_1_1Lib_1_1LoadableScriptBase.html" target="_top" xlink:title="Base class for classes that can be dynamically loadeded from scripts and run, which provides function...">
<polygon fill="white" stroke="black" points="460,-548.5 460,-567.5 564,-567.5 564,-548.5 460,-548.5"/>
<text text-anchor="middle" x="512" y="-555.5" font-family="Helvetica,sans-Serif" font-size="10.00">LoadableScriptBase</text>
</a>
</g>
</g>
<!-- Node10&#45;&gt;Node9 -->
<g id="edge9" class="edge"><title>Node10&#45;&gt;Node9</title>
<path fill="none" stroke="midnightblue" d="M521.847,-539.275C526.975,-530.045 533.016,-519.17 537.138,-511.751"/>
<polygon fill="midnightblue" stroke="midnightblue" points="518.751,-537.642 516.954,-548.083 524.87,-541.041 518.751,-537.642"/>
</g>
<!-- Node11 -->
<g id="node11" class="node"><title>Node11</title>
<g id="a_node11"><a xlink:href="../../d7/d66/interfaceIG_1_1Lib_1_1ILoadableScript.html" target="_top" xlink:title="Interface for classes that can be dynamically loadeded from scripts and run, which provides functiona...">
<polygon fill="white" stroke="black" points="266.5,-604.5 266.5,-623.5 349.5,-623.5 349.5,-604.5 266.5,-604.5"/>
<text text-anchor="middle" x="308" y="-611.5" font-family="Helvetica,sans-Serif" font-size="10.00">ILoadableScript</text>
</a>
</g>
</g>
<!-- Node11&#45;&gt;Node1 -->
<g id="edge26" class="edge"><title>Node11&#45;&gt;Node1</title>
<path fill="none" stroke="midnightblue" d="M255.925,-613.046C206.501,-610.85 131.83,-601.538 77,-568 45.6753,-548.84 26,-539.72 26,-503 26,-503 26,-503 26,-137.5 26,-96.369 50.2607,-52.5638 64.2865,-30.6758"/>
<polygon fill="midnightblue" stroke="midnightblue" points="255.952,-616.549 266.072,-613.413 256.205,-609.554 255.952,-616.549"/>
</g>
<!-- Node11&#45;&gt;Node2 -->
<g id="edge25" class="edge"><title>Node11&#45;&gt;Node2</title>
<path fill="none" stroke="midnightblue" d="M256.137,-611.779C184.499,-607.022 64,-586.595 64,-503 64,-503 64,-503 64,-204.5 64,-167.306 65.8961,-156.027 83,-123 90.4987,-108.52 103.712,-94.9774 112.89,-86.6066"/>
<polygon fill="midnightblue" stroke="midnightblue" points="256.146,-615.285 266.332,-612.373 256.553,-608.297 256.146,-615.285"/>
</g>
<!-- Node11&#45;&gt;Node3 -->
<g id="edge23" class="edge"><title>Node11&#45;&gt;Node3</title>
<path fill="none" stroke="midnightblue" d="M256.067,-607.774C195.042,-598.433 102,-572.753 102,-503 102,-503 102,-503 102,-266 102,-222.048 130.616,-176.292 146.936,-153.771"/>
<polygon fill="midnightblue" stroke="midnightblue" points="255.919,-611.288 266.313,-609.237 256.908,-604.358 255.919,-611.288"/>
</g>
<!-- Node11&#45;&gt;Node4 -->
<g id="edge22" class="edge"><title>Node11&#45;&gt;Node4</title>
<path fill="none" stroke="midnightblue" d="M272.959,-600.75C234.456,-584.787 178,-552.877 178,-503 178,-503 178,-503 178,-322 178,-280.737 210.392,-241.016 230.131,-220.641"/>
<polygon fill="midnightblue" stroke="midnightblue" points="271.73,-604.028 282.316,-604.466 274.314,-597.522 271.73,-604.028"/>
</g>
<!-- Node11&#45;&gt;Node5 -->
<g id="edge21" class="edge"><title>Node11&#45;&gt;Node5</title>
<path fill="none" stroke="midnightblue" d="M314.903,-594.76C336.119,-537.385 397.213,-361.52 368,-313 356.89,-294.547 335.393,-283.265 316.799,-276.612"/>
<polygon fill="midnightblue" stroke="midnightblue" points="311.556,-593.719 311.333,-604.311 318.113,-596.17 311.556,-593.719"/>
</g>
<!-- Node11&#45;&gt;Node6 -->
<g id="edge19" class="edge"><title>Node11&#45;&gt;Node6</title>
<path fill="none" stroke="midnightblue" d="M308,-594.251C308,-572.357 308,-535.052 308,-503 308,-503 308,-503 308,-439.5 308,-398.672 292.893,-351.527 286.166,-332.556"/>
<polygon fill="midnightblue" stroke="midnightblue" points="304.5,-594.442 308,-604.442 311.5,-594.442 304.5,-594.442"/>
</g>
<!-- Node11&#45;&gt;Node9 -->
<g id="edge12" class="edge"><title>Node11&#45;&gt;Node9</title>
<path fill="none" stroke="midnightblue" d="M335.609,-600.021C384.004,-577.272 482.881,-530.791 523.724,-511.591"/>
<polygon fill="midnightblue" stroke="midnightblue" points="333.923,-596.947 326.362,-604.368 336.901,-603.282 333.923,-596.947"/>
</g>
<!-- Node11&#45;&gt;Node10 -->
<g id="edge10" class="edge"><title>Node11&#45;&gt;Node10</title>
<path fill="none" stroke="midnightblue" d="M350.201,-601.829C388.718,-591.633 444.822,-576.782 479.827,-567.516"/>
<polygon fill="midnightblue" stroke="midnightblue" points="349.096,-598.501 340.324,-604.444 350.887,-605.268 349.096,-598.501"/>
</g>
<!-- Node13 -->
<g id="node13" class="node"><title>Node13</title>
<g id="a_node13"><a xlink:href="../../d1/dca/interfaceIG_1_1Lib_1_1ILoadableScriptC.html" target="_top" xlink:title="Controllable loadable script, provides more control over loading and execution.">
<polygon fill="white" stroke="black" points="374,-492.5 374,-511.5 464,-511.5 464,-492.5 374,-492.5"/>
<text text-anchor="middle" x="419" y="-499.5" font-family="Helvetica,sans-Serif" font-size="10.00">ILoadableScriptC</text>
</a>
</g>
</g>
<!-- Node11&#45;&gt;Node13 -->
<g id="edge15" class="edge"><title>Node11&#45;&gt;Node13</title>
<path fill="none" stroke="midnightblue" d="M326.527,-597.9C336.675,-589.4 349.323,-578.427 360,-568 379.626,-548.833 400.822,-524.485 411.677,-511.717"/>
<polygon fill="midnightblue" stroke="midnightblue" points="324.157,-595.318 318.688,-604.392 328.622,-600.709 324.157,-595.318"/>
</g>
<!-- Node12 -->
<g id="node12" class="node"><title>Node12</title>
<g id="a_node12"><a xlink:href="../../d3/db6/interfaceIG_1_1Lib_1_1ILockable.html" target="_top" xlink:title="Lockable object, has a Lock property that returns object on which lock must be performed in order to ...">
<polygon fill="white" stroke="black" points="582,-604.5 582,-623.5 640,-623.5 640,-604.5 582,-604.5"/>
<text text-anchor="middle" x="611" y="-611.5" font-family="Helvetica,sans-Serif" font-size="10.00">ILockable</text>
</a>
</g>
</g>
<!-- Node12&#45;&gt;Node7 -->
<g id="edge18" class="edge"><title>Node12&#45;&gt;Node7</title>
<path fill="none" stroke="midnightblue" d="M622.757,-595.769C627.563,-587.71 632.561,-577.755 635,-568 650.55,-505.8 657.606,-473.78 616,-425 599.376,-405.51 573.819,-394.455 549.826,-388.188"/>
<polygon fill="midnightblue" stroke="midnightblue" points="619.787,-593.917 617.367,-604.232 625.691,-597.678 619.787,-593.917"/>
</g>
<!-- Node12&#45;&gt;Node8 -->
<g id="edge16" class="edge"><title>Node12&#45;&gt;Node8</title>
<path fill="none" stroke="midnightblue" d="M616.085,-594.514C621.854,-569.61 628.374,-524.645 611,-492 602.371,-475.787 585.964,-463.846 570.69,-455.658"/>
<polygon fill="midnightblue" stroke="midnightblue" points="612.636,-593.876 613.576,-604.429 619.423,-595.593 612.636,-593.876"/>
</g>
<!-- Node12&#45;&gt;Node9 -->
<g id="edge13" class="edge"><title>Node12&#45;&gt;Node9</title>
<path fill="none" stroke="midnightblue" d="M601.254,-595.529C593.774,-582.322 583.057,-563.824 573,-548 564.858,-535.189 554.784,-520.814 548.374,-511.834"/>
<polygon fill="midnightblue" stroke="midnightblue" points="598.326,-597.464 606.278,-604.466 604.428,-594.034 598.326,-597.464"/>
</g>
<!-- Node12&#45;&gt;Node10 -->
<g id="edge11" class="edge"><title>Node12&#45;&gt;Node10</title>
<path fill="none" stroke="midnightblue" d="M586.163,-599.453C567.886,-589.483 543.584,-576.228 527.867,-567.655"/>
<polygon fill="midnightblue" stroke="midnightblue" points="584.639,-602.608 595.094,-604.324 587.991,-596.463 584.639,-602.608"/>
</g>
<!-- Node13&#45;&gt;Node7 -->
<g id="edge17" class="edge"><title>Node13&#45;&gt;Node7</title>
<path fill="none" stroke="midnightblue" d="M426.914,-482.83C433.949,-467.18 444.824,-444.156 456,-425 463.649,-411.889 473.846,-397.589 480.418,-388.707"/>
<polygon fill="midnightblue" stroke="midnightblue" points="423.548,-481.788 422.701,-492.349 429.949,-484.621 423.548,-481.788"/>
</g>
<!-- Node13&#45;&gt;Node8 -->
<g id="edge14" class="edge"><title>Node13&#45;&gt;Node8</title>
<path fill="none" stroke="midnightblue" d="M444.684,-487.938C463.545,-478.347 489.134,-465.334 508.425,-455.523"/>
<polygon fill="midnightblue" stroke="midnightblue" points="443.09,-484.822 435.763,-492.475 446.263,-491.062 443.09,-484.822"/>
</g>
<!-- Node14 -->
<g id="node14" class="node"><title>Node14</title>
<g id="a_node14"><a xlink:href="../../d0/d98/interfaceIG_1_1Num_1_1INeuralModel.html" target="_top" xlink:title="Interface for artificial neural network &#45;based models that we can operate on.">
<polygon fill="white" stroke="black" points="206.5,-369.5 206.5,-388.5 279.5,-388.5 279.5,-369.5 206.5,-369.5"/>
<text text-anchor="middle" x="243" y="-376.5" font-family="Helvetica,sans-Serif" font-size="10.00">INeuralModel</text>
</a>
</g>
</g>
<!-- Node14&#45;&gt;Node3 -->
<g id="edge24" class="edge"><title>Node14&#45;&gt;Node3</title>
<path fill="none" stroke="midnightblue" d="M223.41,-362.576C214.328,-354.573 204.016,-344.148 197,-333 169.001,-288.513 167.877,-272.81 159,-221 155.009,-197.708 155.8,-170.122 156.832,-153.757"/>
<polygon fill="midnightblue" stroke="midnightblue" points="221.371,-365.435 231.276,-369.196 225.879,-360.079 221.371,-365.435"/>
</g>
<!-- Node14&#45;&gt;Node6 -->
<g id="edge20" class="edge"><title>Node14&#45;&gt;Node6</title>
<path fill="none" stroke="midnightblue" d="M255.7,-360.855C262.626,-351.505 270.906,-340.327 276.518,-332.751"/>
<polygon fill="midnightblue" stroke="midnightblue" points="252.745,-358.964 249.605,-369.083 258.37,-363.131 252.745,-358.964"/>
</g>
</g>
</svg>
