<?xml version="1.0" encoding="UTF-8" standalone="no"?>
<!DOCTYPE svg PUBLIC "-//W3C//DTD SVG 1.1//EN"
 "http://www.w3.org/Graphics/SVG/1.1/DTD/svg11.dtd">
<!-- Generated by graphviz version 2.38.0 (20140413.2041)
 -->
<!-- Title: IG.Neural.Forms.NeuralPredictionControl Pages: 1 -->
<!--zoomable 568 -->
<svg id="main" version="1.1" xmlns="http://www.w3.org/2000/svg" xmlns:xlink="http://www.w3.org/1999/xlink" xml:space="preserve" onload="init(evt)">
<style type="text/css"><![CDATA[
.edge:hover path { stroke: red; }
.edge:hover polygon { stroke: red; fill: red; }
]]></style>
<script type="text/javascript"><![CDATA[
var edges = document.getElementsByTagName('g');
if (edges && edges.length) {
  for (var i=0;i<edges.length;i++) {
    if (edges[i].id.substr(0,4)=='edge') {
      edges[i].setAttribute('class','edge');
    }
  }
}
]]></script>
        <defs>
                <circle id="rim" cx="0" cy="0" r="7"/>
                <circle id="rim2" cx="0" cy="0" r="3.5"/>
                <g id="zoomPlus">
                        <use xlink:href="#rim" fill="#404040">
                                <set attributeName="fill" to="#808080" begin="zoomplus.mouseover" end="zoomplus.mouseout"/>
                        </use>
                        <path d="M-4,0h8M0,-4v8" fill="none" stroke="white" stroke-width="1.5" pointer-events="none"/>
                </g>
                <g id="zoomMin">
                        <use xlink:href="#rim" fill="#404040">
                                <set attributeName="fill" to="#808080" begin="zoomminus.mouseover" end="zoomminus.mouseout"/>
                        </use>
                        <path d="M-4,0h8" fill="none" stroke="white" stroke-width="1.5" pointer-events="none"/>
                </g>
                <g id="dirArrow">
                        <path fill="none" stroke="white" stroke-width="1.5" d="M0,-3.0v7 M-2.5,-0.5L0,-3.0L2.5,-0.5"/>
                </g>
               <g id="resetDef">
                       <use xlink:href="#rim2" fill="#404040">
                               <set attributeName="fill" to="#808080" begin="reset.mouseover" end="reset.mouseout"/>
                       </use>
               </g>
        </defs>

<script type="text/javascript">
var viewWidth = 779;
var viewHeight = 568;
var sectionId = 'dynsection-1';
</script>
<script xlink:href="../../svgpan.js"/>
<svg id="graph" class="graph">
<g id="viewport">
<title>IG.Neural.Forms.NeuralPredictionControl</title>
<polygon fill="white" stroke="none" points="-4,4 -4,-564.328 775,-564.328 775,4 -4,4"/>
<!-- Node1 -->
<g id="node1" class="node"><title>Node1</title>
<g id="a_node1"><a xlink:title="Control for making predictions of output values based on ANN model.">
<polygon fill="#bfbfbf" stroke="black" points="609,-174 609,-204 771,-204 771,-174 609,-174"/>
<text text-anchor="start" x="617" y="-192" font-family="Helvetica,sans-Serif" font-size="10.00">IG.Neural.Forms.NeuralPrediction</text>
<text text-anchor="middle" x="690" y="-181" font-family="Helvetica,sans-Serif" font-size="10.00">Control</text>
</a>
</g>
</g>
<!-- Node2 -->
<g id="node2" class="node"><title>Node2</title>
<g id="a_node2"><a xlink:title=" ">
<polygon fill="white" stroke="#bfbfbf" points="45,-529.5 45,-548.5 113,-548.5 113,-529.5 45,-529.5"/>
<text text-anchor="middle" x="79" y="-536.5" font-family="Helvetica,sans-Serif" font-size="10.00">UserControl</text>
</a>
</g>
</g>
<!-- Node2&#45;&gt;Node1 -->
<g id="edge1" class="edge"><title>Node2&#45;&gt;Node1</title>
<path fill="none" stroke="midnightblue" d="M123.247,-548.008C201.644,-561.779 369.173,-579.178 478,-504 594.708,-423.378 664.447,-255.275 683.591,-204.104"/>
<polygon fill="midnightblue" stroke="midnightblue" points="123.705,-544.534 113.24,-546.183 122.45,-551.42 123.705,-544.534"/>
</g>
<!-- Node4 -->
<g id="node4" class="node"><title>Node4</title>
<g id="a_node4"><a xlink:href="../../d9/da9/classIG_1_1Neural_1_1Forms_1_1NeuralOutputControl.html" target="_top" xlink:title="Control for editing output values of an approximative model.">
<polygon fill="white" stroke="black" points="330,-200 330,-230 478,-230 478,-200 330,-200"/>
<text text-anchor="start" x="338" y="-218" font-family="Helvetica,sans-Serif" font-size="10.00">IG.Neural.Forms.NeuralOutput</text>
<text text-anchor="middle" x="404" y="-207" font-family="Helvetica,sans-Serif" font-size="10.00">Control</text>
</a>
</g>
</g>
<!-- Node2&#45;&gt;Node4 -->
<g id="edge4" class="edge"><title>Node2&#45;&gt;Node4</title>
<path fill="none" stroke="midnightblue" d="M123.373,-542.109C182.386,-545.399 283.866,-547.416 312,-525 313.518,-523.79 380.535,-292.598 398.57,-230.307"/>
<polygon fill="midnightblue" stroke="midnightblue" points="123.417,-538.606 113.227,-541.508 123.003,-545.594 123.417,-538.606"/>
</g>
<!-- Node8 -->
<g id="node8" class="node"><title>Node8</title>
<g id="a_node8"><a xlink:href="../../d8/daf/classIG_1_1Neural_1_1Forms_1_1NeuralInputControl.html" target="_top" xlink:title="Control for editing input parameter values.">
<polygon fill="white" stroke="black" points="334,-151 334,-181 474,-181 474,-151 334,-151"/>
<text text-anchor="start" x="342" y="-169" font-family="Helvetica,sans-Serif" font-size="10.00">IG.Neural.Forms.NeuralInput</text>
<text text-anchor="middle" x="404" y="-158" font-family="Helvetica,sans-Serif" font-size="10.00">Control</text>
</a>
</g>
</g>
<!-- Node2&#45;&gt;Node8 -->
<g id="edge11" class="edge"><title>Node2&#45;&gt;Node8</title>
<path fill="none" stroke="midnightblue" d="M123.309,-533.471C183.643,-524.807 288.279,-505.968 312,-477 352.486,-427.559 290.926,-240.565 330,-190 332.61,-186.622 335.709,-183.713 339.132,-181.21"/>
<polygon fill="midnightblue" stroke="midnightblue" points="122.724,-530.018 113.306,-534.872 123.695,-536.951 122.724,-530.018"/>
</g>
<!-- Node3 -->
<g id="node3" class="node"><title>Node3</title>
<g id="a_node3"><a xlink:href="../../d1/d98/interfaceIG_1_1Neural_1_1INeuralModelContainer.html" target="_top" xlink:title="Interface for classes that contain the NeuralModel property that implements the INeuralModel interfac...">
<polygon fill="white" stroke="black" points="22,-0.5 22,-19.5 136,-19.5 136,-0.5 22,-0.5"/>
<text text-anchor="middle" x="79" y="-7.5" font-family="Helvetica,sans-Serif" font-size="10.00">INeuralModelContainer</text>
</a>
</g>
</g>
<!-- Node3&#45;&gt;Node1 -->
<g id="edge2" class="edge"><title>Node3&#45;&gt;Node1</title>
<path fill="none" stroke="midnightblue" d="M146.413,-6.42495C193.022,-5.0642 256.657,-5.51485 312,-14 441.337,-33.8299 478.425,-41.3054 591,-108 623.094,-127.014 655.523,-156.224 673.858,-173.881"/>
<polygon fill="midnightblue" stroke="midnightblue" points="146.02,-2.93585 136.141,-6.76209 146.25,-9.93209 146.02,-2.93585"/>
</g>
<!-- Node3&#45;&gt;Node8 -->
<g id="edge12" class="edge"><title>Node3&#45;&gt;Node8</title>
<path fill="none" stroke="midnightblue" d="M146.24,-13.4348C195.013,-18.502 261.371,-30.8888 312,-61 349.941,-83.5653 380.139,-127.524 394.277,-150.76"/>
<polygon fill="midnightblue" stroke="midnightblue" points="146.401,-9.9342 136.111,-12.4609 145.73,-16.9021 146.401,-9.9342"/>
</g>
<!-- Node4&#45;&gt;Node1 -->
<g id="edge3" class="edge"><title>Node4&#45;&gt;Node1</title>
<path fill="none" stroke="#9a32cd" stroke-dasharray="5,2" d="M488.17,-207.386C526.244,-203.9 571.172,-199.787 608.87,-196.336"/>
<polygon fill="#9a32cd" stroke="#9a32cd" points="487.776,-203.907 478.137,-208.304 488.415,-210.878 487.776,-203.907"/>
<text text-anchor="middle" x="543.5" y="-210" font-family="Helvetica,sans-Serif" font-size="10.00"> neuralOutputControl1</text>
</g>
<!-- Node5 -->
<g id="node5" class="node"><title>Node5</title>
<g id="a_node5"><a xlink:title=" ">
<polygon fill="white" stroke="#bfbfbf" points="54,-387.5 54,-406.5 104,-406.5 104,-387.5 54,-387.5"/>
<text text-anchor="middle" x="79" y="-394.5" font-family="Helvetica,sans-Serif" font-size="10.00">System</text>
</a>
</g>
</g>
<!-- Node5&#45;&gt;Node1 -->
<g id="edge8" class="edge"><title>Node5&#45;&gt;Node1</title>
<path fill="none" stroke="#9a32cd" stroke-dasharray="5,2" d="M94.4103,-414.291C111.557,-433.376 142.154,-462.983 176,-475 232.961,-495.223 254.71,-494.272 312,-475 479.413,-418.684 631.537,-255.235 675.97,-204.324"/>
<polygon fill="#9a32cd" stroke="#9a32cd" points="96.921,-411.845 87.7147,-406.601 91.6416,-416.441 96.921,-411.845"/>
<text text-anchor="middle" x="404" y="-492" font-family="Helvetica,sans-Serif" font-size="10.00"> btnReset</text>
<text text-anchor="middle" x="404" y="-481" font-family="Helvetica,sans-Serif" font-size="10.00">btnPredict</text>
<text text-anchor="middle" x="404" y="-470" font-family="Helvetica,sans-Serif" font-size="10.00">components</text>
</g>
<!-- Node5&#45;&gt;Node4 -->
<g id="edge5" class="edge"><title>Node5&#45;&gt;Node4</title>
<path fill="none" stroke="#9a32cd" stroke-dasharray="5,2" d="M114.599,-397.544C171.143,-397.812 280.244,-395.539 312,-375 365.397,-340.464 390.767,-262.938 399.416,-230.128"/>
<polygon fill="#9a32cd" stroke="#9a32cd" points="114.382,-394.043 104.356,-397.465 114.328,-401.043 114.382,-394.043"/>
<text text-anchor="middle" x="244" y="-465" font-family="Helvetica,sans-Serif" font-size="10.00"> dataGridViewTextBoxColumn2</text>
<text text-anchor="middle" x="244" y="-454" font-family="Helvetica,sans-Serif" font-size="10.00">dataGridViewTextBoxColumn3</text>
<text text-anchor="middle" x="244" y="-443" font-family="Helvetica,sans-Serif" font-size="10.00">groupBox2</text>
<text text-anchor="middle" x="244" y="-432" font-family="Helvetica,sans-Serif" font-size="10.00">components</text>
<text text-anchor="middle" x="244" y="-421" font-family="Helvetica,sans-Serif" font-size="10.00">dGridOutputValues</text>
<text text-anchor="middle" x="244" y="-410" font-family="Helvetica,sans-Serif" font-size="10.00">btnClear</text>
<text text-anchor="middle" x="244" y="-399" font-family="Helvetica,sans-Serif" font-size="10.00">dataGridViewTextBoxColumn1</text>
</g>
<!-- Node5&#45;&gt;Node8 -->
<g id="edge14" class="edge"><title>Node5&#45;&gt;Node8</title>
<path fill="none" stroke="#9a32cd" stroke-dasharray="5,2" d="M85.7826,-377.316C96.9987,-342.935 125.186,-272.423 176,-239 226.99,-205.461 261.104,-253.681 312,-220 324.967,-211.419 317.851,-199.705 330,-190 334.274,-186.586 339.051,-183.65 344.061,-181.127"/>
<polygon fill="#9a32cd" stroke="#9a32cd" points="82.3623,-376.528 82.7302,-387.117 89.0456,-378.61 82.3623,-376.528"/>
<text text-anchor="middle" x="244" y="-363" font-family="Helvetica,sans-Serif" font-size="10.00"> btnResetDefault</text>
<text text-anchor="middle" x="244" y="-352" font-family="Helvetica,sans-Serif" font-size="10.00">columnValue</text>
<text text-anchor="middle" x="244" y="-341" font-family="Helvetica,sans-Serif" font-size="10.00">btnResetCenter</text>
<text text-anchor="start" x="193.5" y="-330" font-family="Helvetica,sans-Serif" font-size="10.00">resetToDefaultToolStrip</text>
<text text-anchor="middle" x="244" y="-319" font-family="Helvetica,sans-Serif" font-size="10.00">MenuItem</text>
<text text-anchor="middle" x="244" y="-308" font-family="Helvetica,sans-Serif" font-size="10.00">columnName</text>
<text text-anchor="middle" x="244" y="-297" font-family="Helvetica,sans-Serif" font-size="10.00">groupBox1</text>
<text text-anchor="middle" x="244" y="-286" font-family="Helvetica,sans-Serif" font-size="10.00">components</text>
<text text-anchor="middle" x="244" y="-275" font-family="Helvetica,sans-Serif" font-size="10.00">contextMenuControl</text>
<text text-anchor="middle" x="244" y="-264" font-family="Helvetica,sans-Serif" font-size="10.00">columnID</text>
<text text-anchor="middle" x="244" y="-253" font-family="Helvetica,sans-Serif" font-size="10.00">dGridInputParam</text>
<text text-anchor="middle" x="244" y="-242" font-family="Helvetica,sans-Serif" font-size="10.00">...</text>
</g>
<!-- Node6 -->
<g id="node6" class="node"><title>Node6</title>
<g id="a_node6"><a xlink:title=" ">
<polygon fill="white" stroke="#bfbfbf" points="64.5,-184.5 64.5,-203.5 93.5,-203.5 93.5,-184.5 64.5,-184.5"/>
<text text-anchor="middle" x="79" y="-191.5" font-family="Helvetica,sans-Serif" font-size="10.00">IG</text>
</a>
</g>
</g>
<!-- Node6&#45;&gt;Node4 -->
<g id="edge6" class="edge"><title>Node6&#45;&gt;Node4</title>
<path fill="none" stroke="#9a32cd" stroke-dasharray="5,2" d="M103.646,-195.519C145.604,-198.216 235.837,-204.027 312,-209 317.846,-209.382 323.903,-209.778 329.987,-210.178"/>
<polygon fill="#9a32cd" stroke="#9a32cd" points="103.802,-192.022 93.5982,-194.873 103.353,-199.007 103.802,-192.022"/>
<text text-anchor="middle" x="244" y="-212" font-family="Helvetica,sans-Serif" font-size="10.00"> _values</text>
</g>
<!-- Node6&#45;&gt;Node8 -->
<g id="edge15" class="edge"><title>Node6&#45;&gt;Node8</title>
<path fill="none" stroke="#9a32cd" stroke-dasharray="5,2" d="M103.93,-191.926C151.944,-187.763 261.612,-178.257 333.956,-171.985"/>
<polygon fill="#9a32cd" stroke="#9a32cd" points="103.539,-188.446 93.8789,-192.797 104.144,-195.42 103.539,-188.446"/>
<text text-anchor="middle" x="244" y="-188" font-family="Helvetica,sans-Serif" font-size="10.00"> _values</text>
</g>
<!-- Node7 -->
<g id="node7" class="node"><title>Node7</title>
<g id="a_node7"><a xlink:href="../../d1/d98/interfaceIG_1_1Neural_1_1INeuralModelContainer.html" target="_top" xlink:title="Interface for classes that contain the NeuralModel property that implements the INeuralModel interfac...">
<polygon fill="white" stroke="black" points="0,-71.5 0,-90.5 158,-90.5 158,-71.5 0,-71.5"/>
<text text-anchor="middle" x="79" y="-78.5" font-family="Helvetica,sans-Serif" font-size="10.00">IG.Neural.INeuralModelContainer</text>
</a>
</g>
</g>
<!-- Node7&#45;&gt;Node1 -->
<g id="edge9" class="edge"><title>Node7&#45;&gt;Node1</title>
<path fill="none" stroke="#9a32cd" stroke-dasharray="5,2" d="M129.056,-69.375C144.035,-66.3448 160.613,-63.5081 176,-62 236.156,-56.1042 252.352,-52.223 312,-62 444.052,-83.6446 592.166,-145.272 656.391,-173.963"/>
<polygon fill="#9a32cd" stroke="#9a32cd" points="128.045,-66.0109 118.977,-71.4898 129.482,-72.8618 128.045,-66.0109"/>
<text text-anchor="middle" x="404" y="-107" font-family="Helvetica,sans-Serif" font-size="10.00"> _neuralModelContainerControl</text>
</g>
<!-- Node7&#45;&gt;Node4 -->
<g id="edge7" class="edge"><title>Node7&#45;&gt;Node4</title>
<path fill="none" stroke="#9a32cd" stroke-dasharray="5,2" d="M154.325,-92.5879C203.34,-103.312 266.629,-123.363 312,-160 324.098,-169.769 317.911,-180.221 330,-190 334.791,-193.876 340.217,-197.166 345.896,-199.955"/>
<polygon fill="#9a32cd" stroke="#9a32cd" points="154.914,-89.1354 144.408,-90.502 153.473,-95.9855 154.914,-89.1354"/>
<text text-anchor="middle" x="244" y="-163" font-family="Helvetica,sans-Serif" font-size="10.00"> _neuralModelContainerControl</text>
</g>
<!-- Node7&#45;&gt;Node8 -->
<g id="edge16" class="edge"><title>Node7&#45;&gt;Node8</title>
<path fill="none" stroke="#9a32cd" stroke-dasharray="5,2" d="M137.624,-69.9732C185.938,-63.33 255.838,-59.9018 312,-82 347.413,-95.934 377.358,-130.755 392.468,-150.92"/>
<polygon fill="#9a32cd" stroke="#9a32cd" points="137.043,-66.5209 127.655,-71.4316 138.056,-73.4472 137.043,-66.5209"/>
<text text-anchor="middle" x="244" y="-85" font-family="Helvetica,sans-Serif" font-size="10.00"> _neuralModelContainerControl</text>
</g>
<!-- Node8&#45;&gt;Node1 -->
<g id="edge10" class="edge"><title>Node8&#45;&gt;Node1</title>
<path fill="none" stroke="#9a32cd" stroke-dasharray="5,2" d="M484.083,-168.193C517.172,-169.534 556.001,-171.661 591,-175 596.817,-175.555 602.818,-176.21 608.85,-176.927"/>
<polygon fill="#9a32cd" stroke="#9a32cd" points="484.137,-164.693 474.009,-167.802 483.865,-171.687 484.137,-164.693"/>
<text text-anchor="middle" x="543.5" y="-178" font-family="Helvetica,sans-Serif" font-size="10.00"> neuralInputControl1</text>
</g>
<!-- Node9 -->
<g id="node9" class="node"><title>Node9</title>
<g id="a_node9"><a xlink:title=" ">
<polygon fill="white" stroke="#bfbfbf" points="42.5,-131.5 42.5,-150.5 115.5,-150.5 115.5,-131.5 42.5,-131.5"/>
<text text-anchor="middle" x="79" y="-138.5" font-family="Helvetica,sans-Serif" font-size="10.00">INeuralModel</text>
</a>
</g>
</g>
<!-- Node9&#45;&gt;Node8 -->
<g id="edge13" class="edge"><title>Node9&#45;&gt;Node8</title>
<path fill="none" stroke="midnightblue" d="M125.955,-142.959C172.805,-145.147 247.552,-149.166 312,-155 319.132,-155.646 326.568,-156.404 333.982,-157.216"/>
<polygon fill="midnightblue" stroke="midnightblue" points="125.97,-139.456 115.82,-142.494 125.649,-146.449 125.97,-139.456"/>
</g>
</g>
</svg>
        <g id="navigator" transform="translate(0 0)" fill="#404254">
                <rect fill="#f2f5e9" fill-opacity="0.5" stroke="#606060" stroke-width=".5" x="0" y="0" width="60" height="60"/>
                <use id="zoomplus" xlink:href="#zoomPlus" x="17" y="9" onmousedown="handleZoom(evt,'in')"/>
                <use id="zoomminus" xlink:href="#zoomMin" x="42" y="9" onmousedown="handleZoom(evt,'out')"/>
                <use id="reset" xlink:href="#resetDef" x="30" y="36" onmousedown="handleReset()"/>
                <g id="arrowUp" xlink:href="#dirArrow" transform="translate(30 24)" onmousedown="handlePan(0,-1)">
                  <use xlink:href="#rim" fill="#404040">
                        <set attributeName="fill" to="#808080" begin="arrowUp.mouseover" end="arrowUp.mouseout"/>
                  </use>
                  <path fill="none" stroke="white" stroke-width="1.5" d="M0,-3.0v7 M-2.5,-0.5L0,-3.0L2.5,-0.5"/>
                </g>
                <g id="arrowRight" xlink:href="#dirArrow" transform="rotate(90) translate(36 -43)" onmousedown="handlePan(1,0)">
                  <use xlink:href="#rim" fill="#404040">
                        <set attributeName="fill" to="#808080" begin="arrowRight.mouseover" end="arrowRight.mouseout"/>
                  </use>
                  <path fill="none" stroke="white" stroke-width="1.5" d="M0,-3.0v7 M-2.5,-0.5L0,-3.0L2.5,-0.5"/>
                </g>
                <g id="arrowDown" xlink:href="#dirArrow" transform="rotate(180) translate(-30 -48)" onmousedown="handlePan(0,1)">
                  <use xlink:href="#rim" fill="#404040">
                        <set attributeName="fill" to="#808080" begin="arrowDown.mouseover" end="arrowDown.mouseout"/>
                  </use>
                  <path fill="none" stroke="white" stroke-width="1.5" d="M0,-3.0v7 M-2.5,-0.5L0,-3.0L2.5,-0.5"/>
                </g>
                <g id="arrowLeft" xlink:href="#dirArrow" transform="rotate(270) translate(-36 17)" onmousedown="handlePan(-1,0)">
                  <use xlink:href="#rim" fill="#404040">
                        <set attributeName="fill" to="#808080" begin="arrowLeft.mouseover" end="arrowLeft.mouseout"/>
                  </use>
                  <path fill="none" stroke="white" stroke-width="1.5" d="M0,-3.0v7 M-2.5,-0.5L0,-3.0L2.5,-0.5"/>
                </g>
        </g>
        <svg viewBox="0 0 15 15" width="100%" height="30px" preserveAspectRatio="xMaxYMin meet">
         <g id="arrow_out" transform="scale(0.3 0.3)">
          <a xlink:href="classIG_1_1Neural_1_1Forms_1_1NeuralPredictionControl__coll__graph_org.svg" target="_base">
           <rect id="button" ry="5" rx="5" y="6" x="6" height="38" width="38"
                fill="#f2f5e9" fill-opacity="0.5" stroke="#606060" stroke-width="1.0"/>
           <path id="arrow"
             d="M 11.500037,31.436501 C 11.940474,20.09759 22.043105,11.32322 32.158766,21.979434 L 37.068811,17.246167 C 37.068811,17.246167 37.088388,32 37.088388,32 L 22.160133,31.978069 C 22.160133,31.978069 26.997745,27.140456 26.997745,27.140456 C 18.528582,18.264221 13.291696,25.230495 11.500037,31.436501 z"
             style="fill:#404040;"/>
          </a>
         </g>
        </svg>
</svg>
