<?xml version="1.0" encoding="UTF-8" standalone="no"?>
<!DOCTYPE svg PUBLIC "-//W3C//DTD SVG 1.1//EN"
 "http://www.w3.org/Graphics/SVG/1.1/DTD/svg11.dtd">
<!-- Generated by graphviz version 2.38.0 (20140413.2041)
 -->
<!-- Title: NUnit.Framework.TestFixtureAttribute Pages: 1 -->
<!--zoomable 192 -->
<svg id="main" version="1.1" xmlns="http://www.w3.org/2000/svg" xmlns:xlink="http://www.w3.org/1999/xlink" xml:space="preserve" onload="init(evt)">
<style type="text/css"><![CDATA[
.edge:hover path { stroke: red; }
.edge:hover polygon { stroke: red; fill: red; }
]]></style>
<script type="text/javascript"><![CDATA[
var edges = document.getElementsByTagName('g');
if (edges && edges.length) {
  for (var i=0;i<edges.length;i++) {
    if (edges[i].id.substr(0,4)=='edge') {
      edges[i].setAttribute('class','edge');
    }
  }
}
]]></script>
        <defs>
                <circle id="rim" cx="0" cy="0" r="7"/>
                <circle id="rim2" cx="0" cy="0" r="3.5"/>
                <g id="zoomPlus">
                        <use xlink:href="#rim" fill="#404040">
                                <set attributeName="fill" to="#808080" begin="zoomplus.mouseover" end="zoomplus.mouseout"/>
                        </use>
                        <path d="M-4,0h8M0,-4v8" fill="none" stroke="white" stroke-width="1.5" pointer-events="none"/>
                </g>
                <g id="zoomMin">
                        <use xlink:href="#rim" fill="#404040">
                                <set attributeName="fill" to="#808080" begin="zoomminus.mouseover" end="zoomminus.mouseout"/>
                        </use>
                        <path d="M-4,0h8" fill="none" stroke="white" stroke-width="1.5" pointer-events="none"/>
                </g>
                <g id="dirArrow">
                        <path fill="none" stroke="white" stroke-width="1.5" d="M0,-3.0v7 M-2.5,-0.5L0,-3.0L2.5,-0.5"/>
                </g>
               <g id="resetDef">
                       <use xlink:href="#rim2" fill="#404040">
                               <set attributeName="fill" to="#808080" begin="reset.mouseover" end="reset.mouseout"/>
                       </use>
               </g>
        </defs>

<script type="text/javascript">
var viewWidth = 667;
var viewHeight = 192;
var sectionId = 'dynsection-1';
</script>
<script xlink:href="../../svgpan.js"/>
<svg id="graph" class="graph">
<g id="viewport">
<title>NUnit.Framework.TestFixtureAttribute</title>
<polygon fill="white" stroke="none" points="-4,4 -4,-188 663,-188 663,4 -4,4"/>
<!-- Node1 -->
<g id="node1" class="node"><title>Node1</title>
<g id="a_node1"><a xlink:title="TestFixtureAttribute is used to mark a class that represents a TestFixture.">
<polygon fill="#bfbfbf" stroke="black" points="516,-105 516,-135 659,-135 659,-105 516,-105"/>
<text text-anchor="start" x="524" y="-123" font-family="Helvetica,sans-Serif" font-size="10.00">NUnit.Framework.TestFixture</text>
<text text-anchor="middle" x="587.5" y="-112" font-family="Helvetica,sans-Serif" font-size="10.00">Attribute</text>
</a>
</g>
</g>
<!-- Node2 -->
<g id="node2" class="node"><title>Node2</title>
<g id="a_node2"><a xlink:href="../../d3/dee/classNUnit_1_1Framework_1_1NUnitAttribute.html" target="_top" xlink:title="The abstract base class for all custom attributes defined by NUnit.">
<polygon fill="white" stroke="black" points="325.5,-164.5 325.5,-183.5 402.5,-183.5 402.5,-164.5 325.5,-164.5"/>
<text text-anchor="middle" x="364" y="-171.5" font-family="Helvetica,sans-Serif" font-size="10.00">NUnitAttribute</text>
</a>
</g>
</g>
<!-- Node2&#45;&gt;Node1 -->
<g id="edge1" class="edge"><title>Node2&#45;&gt;Node1</title>
<path fill="none" stroke="midnightblue" d="M412.54,-162.422C422.597,-159.972 433.149,-157.401 443,-155 469.783,-148.472 499.376,-141.255 524.697,-135.078"/>
<polygon fill="midnightblue" stroke="midnightblue" points="411.578,-159.054 402.69,-164.821 413.235,-165.855 411.578,-159.054"/>
</g>
<!-- Node3 -->
<g id="node3" class="node"><title>Node3</title>
<g id="a_node3"><a xlink:title=" ">
<polygon fill="white" stroke="#bfbfbf" points="43.5,-164.5 43.5,-183.5 96.5,-183.5 96.5,-164.5 43.5,-164.5"/>
<text text-anchor="middle" x="70" y="-171.5" font-family="Helvetica,sans-Serif" font-size="10.00">Attribute</text>
</a>
</g>
</g>
<!-- Node3&#45;&gt;Node2 -->
<g id="edge2" class="edge"><title>Node3&#45;&gt;Node2</title>
<path fill="none" stroke="midnightblue" d="M106.724,-174C162.207,-174 268.593,-174 325.274,-174"/>
<polygon fill="midnightblue" stroke="midnightblue" points="106.657,-170.5 96.6571,-174 106.657,-177.5 106.657,-170.5"/>
</g>
<!-- Node4 -->
<g id="node4" class="node"><title>Node4</title>
<g id="a_node4"><a xlink:href="../../d8/daf/interfaceNUnit_1_1Framework_1_1Interfaces_1_1IFixtureBuilder.html" target="_top" xlink:title="The IFixtureBuilder interface is exposed by a class that knows how to build a TestFixture from one or...">
<polygon fill="white" stroke="black" points="324.5,-126.5 324.5,-145.5 403.5,-145.5 403.5,-126.5 324.5,-126.5"/>
<text text-anchor="middle" x="364" y="-133.5" font-family="Helvetica,sans-Serif" font-size="10.00">IFixtureBuilder</text>
</a>
</g>
</g>
<!-- Node4&#45;&gt;Node1 -->
<g id="edge3" class="edge"><title>Node4&#45;&gt;Node1</title>
<path fill="none" stroke="midnightblue" d="M413.766,-132.477C443.672,-130.317 482.472,-127.514 515.721,-125.113"/>
<polygon fill="midnightblue" stroke="midnightblue" points="413.304,-129.002 403.582,-133.213 413.809,-135.983 413.304,-129.002"/>
</g>
<!-- Node5 -->
<g id="node5" class="node"><title>Node5</title>
<g id="a_node5"><a xlink:href="../../d2/d9e/interfaceNUnit_1_1Framework_1_1Interfaces_1_1ITestFixtureData.html" target="_top" xlink:title="The ITestCaseData interface is implemented by a class that is able to return the data required to cre...">
<polygon fill="white" stroke="black" points="320,-88.5 320,-107.5 408,-107.5 408,-88.5 320,-88.5"/>
<text text-anchor="middle" x="364" y="-95.5" font-family="Helvetica,sans-Serif" font-size="10.00">ITestFixtureData</text>
</a>
</g>
</g>
<!-- Node5&#45;&gt;Node1 -->
<g id="edge4" class="edge"><title>Node5&#45;&gt;Node1</title>
<path fill="none" stroke="midnightblue" d="M418.264,-103.29C447.554,-106.2 484.267,-109.846 515.918,-112.99"/>
<polygon fill="midnightblue" stroke="midnightblue" points="418.53,-99.7996 408.233,-102.294 417.838,-106.765 418.53,-99.7996"/>
</g>
<!-- Node6 -->
<g id="node6" class="node"><title>Node6</title>
<g id="a_node6"><a xlink:href="../../dc/d63/interfaceNUnit_1_1Framework_1_1Interfaces_1_1ITestData.html" target="_top" xlink:title="The ITestData interface is implemented by a class that represents a single instance of a parameterize...">
<polygon fill="white" stroke="black" points="41,-88.5 41,-107.5 99,-107.5 99,-88.5 41,-88.5"/>
<text text-anchor="middle" x="70" y="-95.5" font-family="Helvetica,sans-Serif" font-size="10.00">ITestData</text>
</a>
</g>
</g>
<!-- Node6&#45;&gt;Node5 -->
<g id="edge5" class="edge"><title>Node6&#45;&gt;Node5</title>
<path fill="none" stroke="midnightblue" d="M109.532,-98C163.981,-98 263.121,-98 319.934,-98"/>
<polygon fill="midnightblue" stroke="midnightblue" points="109.264,-94.5001 99.2635,-98 109.263,-101.5 109.264,-94.5001"/>
</g>
<!-- Node7 -->
<g id="node7" class="node"><title>Node7</title>
<g id="a_node7"><a xlink:href="../../d0/dbc/classNUnit_1_1Framework_1_1Internal_1_1Builders_1_1NUnitTestFixtureBuilder.html" target="_top" xlink:title="NUnitTestFixtureBuilder is able to build a fixture given a class marked with a TestFixtureAttribute o...">
<polygon fill="white" stroke="black" points="285,-39 285,-69 443,-69 443,-39 285,-39"/>
<text text-anchor="start" x="293" y="-57" font-family="Helvetica,sans-Serif" font-size="10.00">NUnit.Framework.Internal.</text>
<text text-anchor="middle" x="364" y="-46" font-family="Helvetica,sans-Serif" font-size="10.00">Builders.NUnitTestFixtureBuilder</text>
</a>
</g>
</g>
<!-- Node7&#45;&gt;Node1 -->
<g id="edge6" class="edge"><title>Node7&#45;&gt;Node1</title>
<path fill="none" stroke="#9a32cd" stroke-dasharray="5,2" d="M428.704,-71.8078C450.696,-78.0599 475.466,-85.2178 498,-92 511.58,-96.0873 526.281,-100.673 539.728,-104.932"/>
<polygon fill="#9a32cd" stroke="#9a32cd" points="429.388,-68.3639 418.812,-69.0035 427.478,-75.0984 429.388,-68.3639"/>
<text text-anchor="middle" x="479.5" y="-95" font-family="Helvetica,sans-Serif" font-size="10.00"> _builder</text>
</g>
<!-- Node8 -->
<g id="node8" class="node"><title>Node8</title>
<g id="a_node8"><a xlink:href="../../d2/dbb/interfaceNUnit_1_1Framework_1_1Interfaces_1_1ITestCaseBuilder.html" target="_top" xlink:title="The ITestCaseBuilder interface is exposed by a class that knows how to build a test case from certain...">
<polygon fill="white" stroke="black" points="0,-39 0,-69 140,-69 140,-39 0,-39"/>
<text text-anchor="start" x="8" y="-57" font-family="Helvetica,sans-Serif" font-size="10.00">NUnit.Framework.Interfaces.</text>
<text text-anchor="middle" x="70" y="-46" font-family="Helvetica,sans-Serif" font-size="10.00">ITestCaseBuilder</text>
</a>
</g>
</g>
<!-- Node8&#45;&gt;Node7 -->
<g id="edge7" class="edge"><title>Node8&#45;&gt;Node7</title>
<path fill="none" stroke="#9a32cd" stroke-dasharray="5,2" d="M150.334,-54C192.109,-54 243.158,-54 284.769,-54"/>
<polygon fill="#9a32cd" stroke="#9a32cd" points="150.2,-50.5001 140.2,-54 150.2,-57.5001 150.2,-50.5001"/>
<text text-anchor="middle" x="212.5" y="-57" font-family="Helvetica,sans-Serif" font-size="10.00"> _testBuilder</text>
</g>
<!-- Node9 -->
<g id="node9" class="node"><title>Node9</title>
<g id="a_node9"><a xlink:title=" ">
<polygon fill="white" stroke="#bfbfbf" points="49.5,-0.5 49.5,-19.5 90.5,-19.5 90.5,-0.5 49.5,-0.5"/>
<text text-anchor="middle" x="70" y="-7.5" font-family="Helvetica,sans-Serif" font-size="10.00">static</text>
</a>
</g>
</g>
<!-- Node9&#45;&gt;Node7 -->
<g id="edge8" class="edge"><title>Node9&#45;&gt;Node7</title>
<path fill="none" stroke="#9a32cd" stroke-dasharray="5,2" d="M100.753,-14.3257C139.171,-19.9286 208.095,-30.0404 267,-39 272.837,-39.8878 278.872,-40.8133 284.943,-41.7494"/>
<polygon fill="#9a32cd" stroke="#9a32cd" points="101.161,-10.8482 90.7604,-12.8697 100.151,-17.775 101.161,-10.8482"/>
<text text-anchor="middle" x="212.5" y="-42" font-family="Helvetica,sans-Serif" font-size="10.00"> NO_TYPE_ARGS_MSG</text>
</g>
</g>
</svg>
        <g id="navigator" transform="translate(0 0)" fill="#404254">
                <rect fill="#f2f5e9" fill-opacity="0.5" stroke="#606060" stroke-width=".5" x="0" y="0" width="60" height="60"/>
                <use id="zoomplus" xlink:href="#zoomPlus" x="17" y="9" onmousedown="handleZoom(evt,'in')"/>
                <use id="zoomminus" xlink:href="#zoomMin" x="42" y="9" onmousedown="handleZoom(evt,'out')"/>
                <use id="reset" xlink:href="#resetDef" x="30" y="36" onmousedown="handleReset()"/>
                <g id="arrowUp" xlink:href="#dirArrow" transform="translate(30 24)" onmousedown="handlePan(0,-1)">
                  <use xlink:href="#rim" fill="#404040">
                        <set attributeName="fill" to="#808080" begin="arrowUp.mouseover" end="arrowUp.mouseout"/>
                  </use>
                  <path fill="none" stroke="white" stroke-width="1.5" d="M0,-3.0v7 M-2.5,-0.5L0,-3.0L2.5,-0.5"/>
                </g>
                <g id="arrowRight" xlink:href="#dirArrow" transform="rotate(90) translate(36 -43)" onmousedown="handlePan(1,0)">
                  <use xlink:href="#rim" fill="#404040">
                        <set attributeName="fill" to="#808080" begin="arrowRight.mouseover" end="arrowRight.mouseout"/>
                  </use>
                  <path fill="none" stroke="white" stroke-width="1.5" d="M0,-3.0v7 M-2.5,-0.5L0,-3.0L2.5,-0.5"/>
                </g>
                <g id="arrowDown" xlink:href="#dirArrow" transform="rotate(180) translate(-30 -48)" onmousedown="handlePan(0,1)">
                  <use xlink:href="#rim" fill="#404040">
                        <set attributeName="fill" to="#808080" begin="arrowDown.mouseover" end="arrowDown.mouseout"/>
                  </use>
                  <path fill="none" stroke="white" stroke-width="1.5" d="M0,-3.0v7 M-2.5,-0.5L0,-3.0L2.5,-0.5"/>
                </g>
                <g id="arrowLeft" xlink:href="#dirArrow" transform="rotate(270) translate(-36 17)" onmousedown="handlePan(-1,0)">
                  <use xlink:href="#rim" fill="#404040">
                        <set attributeName="fill" to="#808080" begin="arrowLeft.mouseover" end="arrowLeft.mouseout"/>
                  </use>
                  <path fill="none" stroke="white" stroke-width="1.5" d="M0,-3.0v7 M-2.5,-0.5L0,-3.0L2.5,-0.5"/>
                </g>
        </g>
        <svg viewBox="0 0 15 15" width="100%" height="30px" preserveAspectRatio="xMaxYMin meet">
         <g id="arrow_out" transform="scale(0.3 0.3)">
          <a xlink:href="classNUnit_1_1Framework_1_1TestFixtureAttribute__coll__graph_org.svg" target="_base">
           <rect id="button" ry="5" rx="5" y="6" x="6" height="38" width="38"
                fill="#f2f5e9" fill-opacity="0.5" stroke="#606060" stroke-width="1.0"/>
           <path id="arrow"
             d="M 11.500037,31.436501 C 11.940474,20.09759 22.043105,11.32322 32.158766,21.979434 L 37.068811,17.246167 C 37.068811,17.246167 37.088388,32 37.088388,32 L 22.160133,31.978069 C 22.160133,31.978069 26.997745,27.140456 26.997745,27.140456 C 18.528582,18.264221 13.291696,25.230495 11.500037,31.436501 z"
             style="fill:#404040;"/>
          </a>
         </g>
        </svg>
</svg>
