<?xml version="1.0" encoding="UTF-8" standalone="no"?>
<!DOCTYPE svg PUBLIC "-//W3C//DTD SVG 1.1//EN"
 "http://www.w3.org/Graphics/SVG/1.1/DTD/svg11.dtd">
<!-- Generated by graphviz version 2.38.0 (20140413.2041)
 -->
<!-- Title: IG.Num.ConvectionRev1RobertFileManager Pages: 1 -->
<svg width="239pt" height="218pt"
 viewBox="0.00 0.00 238.50 218.00" xmlns="http://www.w3.org/2000/svg" xmlns:xlink="http://www.w3.org/1999/xlink">
<g id="graph0" class="graph" transform="scale(1 1) rotate(0) translate(4 214)">
<title>IG.Num.ConvectionRev1RobertFileManager</title>
<polygon fill="white" stroke="none" points="-4,4 -4,-214 234.5,-214 234.5,4 -4,4"/>
<!-- Node1 -->
<g id="node1" class="node"><title>Node1</title>
<g id="a_node1"><a xlink:title=" ">
<polygon fill="#bfbfbf" stroke="black" points="48,-0.5 48,-30.5 197,-30.5 197,-0.5 48,-0.5"/>
<text text-anchor="start" x="56" y="-18.5" font-family="Helvetica,sans-Serif" font-size="10.00">IG.Num.ConvectionRev1Robert</text>
<text text-anchor="middle" x="122.5" y="-7.5" font-family="Helvetica,sans-Serif" font-size="10.00">FileManager</text>
</a>
</g>
</g>
<!-- Node2 -->
<g id="node2" class="node"><title>Node2</title>
<g id="a_node2"><a xlink:href="../../d9/dae/classIG_1_1Num_1_1ConvectionRobertFileManager.html" target="_top" xlink:title="File manager for interfacing simulation casting simulator of Robert Vertnik.">
<polygon fill="white" stroke="black" points="49.5,-67.5 49.5,-86.5 195.5,-86.5 195.5,-67.5 49.5,-67.5"/>
<text text-anchor="middle" x="122.5" y="-74.5" font-family="Helvetica,sans-Serif" font-size="10.00">ConvectionRobertFileManager</text>
</a>
</g>
</g>
<!-- Node2&#45;&gt;Node1 -->
<g id="edge1" class="edge"><title>Node2&#45;&gt;Node1</title>
<path fill="none" stroke="midnightblue" d="M122.5,-57.2349C122.5,-48.5864 122.5,-38.4969 122.5,-30.523"/>
<polygon fill="midnightblue" stroke="midnightblue" points="119,-57.4751 122.5,-67.4751 126,-57.4751 119,-57.4751"/>
</g>
<!-- Node3 -->
<g id="node3" class="node"><title>Node3</title>
<g id="a_node3"><a xlink:href="../../df/d43/classIG_1_1Num_1_1SimCastingRobertFileManager.html" target="_top" xlink:title="File manager for interfacing simulation casting simulator of Robert Vertnik.">
<polygon fill="white" stroke="black" points="48,-123.5 48,-142.5 197,-142.5 197,-123.5 48,-123.5"/>
<text text-anchor="middle" x="122.5" y="-130.5" font-family="Helvetica,sans-Serif" font-size="10.00">SimCastingRobertFileManager</text>
</a>
</g>
</g>
<!-- Node3&#45;&gt;Node2 -->
<g id="edge2" class="edge"><title>Node3&#45;&gt;Node2</title>
<path fill="none" stroke="midnightblue" d="M122.5,-112.805C122.5,-103.91 122.5,-93.7798 122.5,-86.7511"/>
<polygon fill="midnightblue" stroke="midnightblue" points="119,-113.083 122.5,-123.083 126,-113.083 119,-113.083"/>
</g>
<!-- Node4 -->
<g id="node4" class="node"><title>Node4</title>
<g id="a_node4"><a xlink:href="../../d6/d7c/interfaceIG_1_1Num_1_1IResponseEvaluatorVectorSimple.html" target="_top" xlink:title="Interface for simulators and other systems (used e.g. for optimization) that can calculate vector res...">
<polygon fill="white" stroke="black" points="0,-179.5 0,-209.5 131,-209.5 131,-179.5 0,-179.5"/>
<text text-anchor="start" x="8" y="-197.5" font-family="Helvetica,sans-Serif" font-size="10.00">IResponseEvaluatorVector</text>
<text text-anchor="middle" x="65.5" y="-186.5" font-family="Helvetica,sans-Serif" font-size="10.00">Simple</text>
</a>
</g>
</g>
<!-- Node4&#45;&gt;Node2 -->
<g id="edge5" class="edge"><title>Node4&#45;&gt;Node2</title>
<path fill="none" stroke="midnightblue" d="M46.8348,-171.043C37.3168,-156.721 29.4675,-138.086 38.5,-123 49.5484,-104.547 71.0371,-93.2313 89.5137,-86.5623"/>
<polygon fill="midnightblue" stroke="midnightblue" points="44.1393,-173.288 52.8407,-179.333 49.8079,-169.181 44.1393,-173.288"/>
</g>
<!-- Node4&#45;&gt;Node3 -->
<g id="edge3" class="edge"><title>Node4&#45;&gt;Node3</title>
<path fill="none" stroke="midnightblue" d="M86.0944,-172.002C95.809,-161.862 106.854,-150.332 114.206,-142.658"/>
<polygon fill="midnightblue" stroke="midnightblue" points="83.3986,-169.757 79.0082,-179.399 88.4534,-174.599 83.3986,-169.757"/>
</g>
<!-- Node5 -->
<g id="node5" class="node"><title>Node5</title>
<g id="a_node5"><a xlink:href="../../d3/db6/interfaceIG_1_1Lib_1_1ILockable.html" target="_top" xlink:title="Lockable object, has a Lock property that returns object on which lock must be performed in order to ...">
<polygon fill="white" stroke="black" points="172.5,-185 172.5,-204 230.5,-204 230.5,-185 172.5,-185"/>
<text text-anchor="middle" x="201.5" y="-192" font-family="Helvetica,sans-Serif" font-size="10.00">ILockable</text>
</a>
</g>
</g>
<!-- Node5&#45;&gt;Node2 -->
<g id="edge6" class="edge"><title>Node5&#45;&gt;Node2</title>
<path fill="none" stroke="midnightblue" d="M207.855,-175.276C211.93,-160.195 214.886,-138.766 205.5,-123 194.516,-104.55 173.039,-93.1985 154.685,-86.5124"/>
<polygon fill="midnightblue" stroke="midnightblue" points="204.469,-174.376 204.85,-184.964 211.155,-176.45 204.469,-174.376"/>
</g>
<!-- Node5&#45;&gt;Node3 -->
<g id="edge4" class="edge"><title>Node5&#45;&gt;Node3</title>
<path fill="none" stroke="midnightblue" d="M181.974,-178.794C166.82,-167.38 146.343,-151.958 133.798,-142.509"/>
<polygon fill="midnightblue" stroke="midnightblue" points="180.088,-181.755 190.181,-184.975 184.299,-176.163 180.088,-181.755"/>
</g>
</g>
</svg>
