<?xml version="1.0" encoding="UTF-8" standalone="no"?>
<!DOCTYPE svg PUBLIC "-//W3C//DTD SVG 1.1//EN"
 "http://www.w3.org/Graphics/SVG/1.1/DTD/svg11.dtd">
<!-- Generated by graphviz version 2.38.0 (20140413.2041)
 -->
<!-- Title: AForge.Neuro.DistanceNetwork Pages: 1 -->
<svg width="161pt" height="297pt"
 viewBox="0.00 0.00 161.00 297.00" xmlns="http://www.w3.org/2000/svg" xmlns:xlink="http://www.w3.org/1999/xlink">
<g id="graph0" class="graph" transform="scale(1 1) rotate(0) translate(4 293)">
<title>AForge.Neuro.DistanceNetwork</title>
<polygon fill="white" stroke="none" points="-4,4 -4,-293 157,-293 157,4 -4,4"/>
<!-- Node1 -->
<g id="node1" class="node"><title>Node1</title>
<g id="a_node1"><a xlink:title="Distance network">
<polygon fill="#bfbfbf" stroke="black" points="0,-0.5 0,-19.5 153,-19.5 153,-0.5 0,-0.5"/>
<text text-anchor="middle" x="76.5" y="-7.5" font-family="Helvetica,sans-Serif" font-size="10.00">AForge.Neuro.DistanceNetwork</text>
</a>
</g>
</g>
<!-- Node2 -->
<g id="node2" class="node"><title>Node2</title>
<g id="a_node2"><a xlink:href="../../d3/db3/classAForge_1_1Neuro_1_1Network.html" target="_top" xlink:title="Base neural network class">
<polygon fill="white" stroke="black" points="50.5,-57.5 50.5,-76.5 102.5,-76.5 102.5,-57.5 50.5,-57.5"/>
<text text-anchor="middle" x="76.5" y="-64.5" font-family="Helvetica,sans-Serif" font-size="10.00">Network</text>
</a>
</g>
</g>
<!-- Node2&#45;&gt;Node1 -->
<g id="edge1" class="edge"><title>Node2&#45;&gt;Node1</title>
<path fill="none" stroke="midnightblue" d="M76.5,-47.1166C76.5,-37.8173 76.5,-27.0557 76.5,-19.7149"/>
<polygon fill="midnightblue" stroke="midnightblue" points="73.0001,-47.4062 76.5,-57.4063 80.0001,-47.4063 73.0001,-47.4062"/>
</g>
<!-- Node3 -->
<g id="node3" class="node"><title>Node3</title>
<g id="a_node3"><a xlink:href="../../d1/d23/classAForge_1_1Neuro_1_1Layer.html" target="_top" xlink:title="Base neural layer class">
<polygon fill="white" stroke="black" points="24.5,-124.5 24.5,-143.5 128.5,-143.5 128.5,-124.5 24.5,-124.5"/>
<text text-anchor="middle" x="76.5" y="-131.5" font-family="Helvetica,sans-Serif" font-size="10.00">AForge.Neuro.Layer</text>
</a>
</g>
</g>
<!-- Node3&#45;&gt;Node2 -->
<g id="edge2" class="edge"><title>Node3&#45;&gt;Node2</title>
<path fill="none" stroke="#9a32cd" stroke-dasharray="5,2" d="M76.5,-114.037C76.5,-101.67 76.5,-86.1198 76.5,-76.6273"/>
<polygon fill="#9a32cd" stroke="#9a32cd" points="73.0001,-114.234 76.5,-124.234 80.0001,-114.234 73.0001,-114.234"/>
<text text-anchor="middle" x="91.5" y="-98" font-family="Helvetica,sans-Serif" font-size="10.00"> layers</text>
</g>
<!-- Node4 -->
<g id="node4" class="node"><title>Node4</title>
<g id="a_node4"><a xlink:href="../../d9/d64/classAForge_1_1Neuro_1_1Neuron.html" target="_top" xlink:title="Base neuron class">
<polygon fill="white" stroke="black" points="21.5,-191.5 21.5,-210.5 131.5,-210.5 131.5,-191.5 21.5,-191.5"/>
<text text-anchor="middle" x="76.5" y="-198.5" font-family="Helvetica,sans-Serif" font-size="10.00">AForge.Neuro.Neuron</text>
</a>
</g>
</g>
<!-- Node4&#45;&gt;Node3 -->
<g id="edge3" class="edge"><title>Node4&#45;&gt;Node3</title>
<path fill="none" stroke="#9a32cd" stroke-dasharray="5,2" d="M76.5,-181.037C76.5,-168.67 76.5,-153.12 76.5,-143.627"/>
<polygon fill="#9a32cd" stroke="#9a32cd" points="73.0001,-181.234 76.5,-191.234 80.0001,-181.234 73.0001,-181.234"/>
<text text-anchor="middle" x="95.5" y="-165" font-family="Helvetica,sans-Serif" font-size="10.00"> neurons</text>
</g>
<!-- Node5 -->
<g id="node5" class="node"><title>Node5</title>
<g id="a_node5"><a xlink:title=" ">
<polygon fill="white" stroke="#bfbfbf" points="56,-269.5 56,-288.5 97,-288.5 97,-269.5 56,-269.5"/>
<text text-anchor="middle" x="76.5" y="-276.5" font-family="Helvetica,sans-Serif" font-size="10.00">static</text>
</a>
</g>
</g>
<!-- Node5&#45;&gt;Node4 -->
<g id="edge4" class="edge"><title>Node5&#45;&gt;Node4</title>
<path fill="none" stroke="#9a32cd" stroke-dasharray="5,2" d="M76.5,-259.224C76.5,-243.697 76.5,-222.358 76.5,-210.616"/>
<polygon fill="#9a32cd" stroke="#9a32cd" points="73.0001,-259.282 76.5,-269.282 80.0001,-259.282 73.0001,-259.282"/>
<text text-anchor="middle" x="100" y="-243" font-family="Helvetica,sans-Serif" font-size="10.00"> rand</text>
<text text-anchor="middle" x="100" y="-232" font-family="Helvetica,sans-Serif" font-size="10.00">randRange</text>
</g>
</g>
</svg>
