<?xml version="1.0" encoding="UTF-8" standalone="no"?>
<!DOCTYPE svg PUBLIC "-//W3C//DTD SVG 1.1//EN"
 "http://www.w3.org/Graphics/SVG/1.1/DTD/svg11.dtd">
<!-- Generated by graphviz version 2.38.0 (20140413.2041)
 -->
<!-- Title: IG.Gr3d.Graph3dManipulatorWindowExtended Pages: 1 -->
<!--zoomable 752 -->
<svg id="main" version="1.1" xmlns="http://www.w3.org/2000/svg" xmlns:xlink="http://www.w3.org/1999/xlink" xml:space="preserve" onload="init(evt)">
<style type="text/css"><![CDATA[
.edge:hover path { stroke: red; }
.edge:hover polygon { stroke: red; fill: red; }
]]></style>
<script type="text/javascript"><![CDATA[
var edges = document.getElementsByTagName('g');
if (edges && edges.length) {
  for (var i=0;i<edges.length;i++) {
    if (edges[i].id.substr(0,4)=='edge') {
      edges[i].setAttribute('class','edge');
    }
  }
}
]]></script>
        <defs>
                <circle id="rim" cx="0" cy="0" r="7"/>
                <circle id="rim2" cx="0" cy="0" r="3.5"/>
                <g id="zoomPlus">
                        <use xlink:href="#rim" fill="#404040">
                                <set attributeName="fill" to="#808080" begin="zoomplus.mouseover" end="zoomplus.mouseout"/>
                        </use>
                        <path d="M-4,0h8M0,-4v8" fill="none" stroke="white" stroke-width="1.5" pointer-events="none"/>
                </g>
                <g id="zoomMin">
                        <use xlink:href="#rim" fill="#404040">
                                <set attributeName="fill" to="#808080" begin="zoomminus.mouseover" end="zoomminus.mouseout"/>
                        </use>
                        <path d="M-4,0h8" fill="none" stroke="white" stroke-width="1.5" pointer-events="none"/>
                </g>
                <g id="dirArrow">
                        <path fill="none" stroke="white" stroke-width="1.5" d="M0,-3.0v7 M-2.5,-0.5L0,-3.0L2.5,-0.5"/>
                </g>
               <g id="resetDef">
                       <use xlink:href="#rim2" fill="#404040">
                               <set attributeName="fill" to="#808080" begin="reset.mouseover" end="reset.mouseout"/>
                       </use>
               </g>
        </defs>

<script type="text/javascript">
var viewWidth = 1979;
var viewHeight = 752;
var sectionId = 'dynsection-1';
</script>
<script xlink:href="../../svgpan.js"/>
<svg id="graph" class="graph">
<g id="viewport">
<title>IG.Gr3d.Graph3dManipulatorWindowExtended</title>
<polygon fill="white" stroke="none" points="-4,4 -4,-748 1975,-748 1975,4 -4,4"/>
<!-- Node1 -->
<g id="node1" class="node"><title>Node1</title>
<g id="a_node1"><a xlink:title="A form for manipulating 3D graphics.">
<polygon fill="#bfbfbf" stroke="black" points="1831,-494 1831,-524 1971,-524 1971,-494 1831,-494"/>
<text text-anchor="start" x="1839" y="-512" font-family="Helvetica,sans-Serif" font-size="10.00">IG.Gr3d.Graph3dManipulator</text>
<text text-anchor="middle" x="1901" y="-501" font-family="Helvetica,sans-Serif" font-size="10.00">WindowExtended</text>
</a>
</g>
</g>
<!-- Node2 -->
<g id="node2" class="node"><title>Node2</title>
<g id="a_node2"><a xlink:title=" ">
<polygon fill="white" stroke="#bfbfbf" points="775.5,-562.5 775.5,-581.5 814.5,-581.5 814.5,-562.5 775.5,-562.5"/>
<text text-anchor="middle" x="795" y="-569.5" font-family="Helvetica,sans-Serif" font-size="10.00">Form</text>
</a>
</g>
</g>
<!-- Node2&#45;&gt;Node1 -->
<g id="edge1" class="edge"><title>Node2&#45;&gt;Node1</title>
<path fill="none" stroke="midnightblue" d="M824.686,-574.632C924.209,-583.277 1263.73,-608.705 1542,-581 1649.72,-570.275 1773.01,-541.826 1843.18,-524.068"/>
<polygon fill="midnightblue" stroke="midnightblue" points="824.791,-571.128 814.522,-573.734 824.175,-578.1 824.791,-571.128"/>
</g>
<!-- Node9 -->
<g id="node9" class="node"><title>Node9</title>
<g id="a_node9"><a xlink:href="../../d9/d71/classIG_1_1Gr3d_1_1Graph3dManipulatorWindow.html" target="_top" xlink:title="A form for manipulation of 3D graphics.">
<polygon fill="white" stroke="black" points="996,-310 996,-340 1136,-340 1136,-310 996,-310"/>
<text text-anchor="start" x="1004" y="-328" font-family="Helvetica,sans-Serif" font-size="10.00">IG.Gr3d.Graph3dManipulator</text>
<text text-anchor="middle" x="1066" y="-317" font-family="Helvetica,sans-Serif" font-size="10.00">Window</text>
</a>
</g>
</g>
<!-- Node2&#45;&gt;Node9 -->
<g id="edge11" class="edge"><title>Node2&#45;&gt;Node9</title>
<path fill="none" stroke="midnightblue" d="M824.618,-565.553C837.647,-561.765 852.836,-556.095 865,-548 954.4,-488.5 1029.71,-379.891 1055.49,-340.114"/>
<polygon fill="midnightblue" stroke="midnightblue" points="823.488,-562.232 814.732,-568.197 825.297,-568.994 823.488,-562.232"/>
</g>
<!-- Node3 -->
<g id="node3" class="node"><title>Node3</title>
<g id="a_node3"><a xlink:href="../../d3/d68/interfaceIG_1_1Forms_1_1IClosableFromContainedForm.html" target="_top" xlink:title="Marker interface indicating that a form can be closed from the contained control.">
<polygon fill="white" stroke="black" points="731,-219 731,-249 859,-249 859,-219 731,-219"/>
<text text-anchor="start" x="739" y="-237" font-family="Helvetica,sans-Serif" font-size="10.00">IG::Forms::IClosableFrom</text>
<text text-anchor="middle" x="795" y="-226" font-family="Helvetica,sans-Serif" font-size="10.00">ContainedForm</text>
</a>
</g>
</g>
<!-- Node3&#45;&gt;Node1 -->
<g id="edge2" class="edge"><title>Node3&#45;&gt;Node1</title>
<path fill="none" stroke="midnightblue" d="M852.816,-215.973C999.831,-172.59 1402.04,-74.811 1700,-199 1828.58,-252.593 1883.04,-438.889 1896.51,-493.711"/>
<polygon fill="midnightblue" stroke="midnightblue" points="851.673,-212.661 843.091,-218.874 853.674,-219.369 851.673,-212.661"/>
</g>
<!-- Node3&#45;&gt;Node9 -->
<g id="edge12" class="edge"><title>Node3&#45;&gt;Node9</title>
<path fill="none" stroke="midnightblue" d="M868.988,-243.986C903.137,-250.362 943.735,-260.445 978,-276 986.986,-280.079 987.604,-283.815 996,-289 1008.07,-296.454 1021.85,-303.85 1033.9,-309.981"/>
<polygon fill="midnightblue" stroke="midnightblue" points="869.538,-240.529 859.076,-242.205 868.3,-247.419 869.538,-240.529"/>
</g>
<!-- Node4 -->
<g id="node4" class="node"><title>Node4</title>
<g id="a_node4"><a xlink:href="../../dc/d11/interfaceIG_1_1Gr3d_1_1IVtkFormContainer.html" target="_top" xlink:title="This interface is implemented by the forms that contain the VTK control that can render VTK graphics.">
<polygon fill="white" stroke="black" points="493,-84.5 493,-103.5 627,-103.5 627,-84.5 493,-84.5"/>
<text text-anchor="middle" x="560" y="-91.5" font-family="Helvetica,sans-Serif" font-size="10.00">IG.Gr3d.IVtkFormContainer</text>
</a>
</g>
</g>
<!-- Node4&#45;&gt;Node1 -->
<g id="edge3" class="edge"><title>Node4&#45;&gt;Node1</title>
<path fill="none" stroke="#9a32cd" stroke-dasharray="5,2" d="M582.541,-78.7507C622.317,-52.1337 710.84,-0 794,-0 794,-0 794,-0 1631,-0 1860.38,-0 1894.68,-409.075 1899.32,-493.767"/>
<polygon fill="#9a32cd" stroke="#9a32cd" points="580.447,-75.9424 574.159,-84.4695 584.392,-81.7248 580.447,-75.9424"/>
<text text-anchor="middle" x="1201" y="-3" font-family="Helvetica,sans-Serif" font-size="10.00"> _vtkContainer</text>
</g>
<!-- Node6 -->
<g id="node6" class="node"><title>Node6</title>
<g id="a_node6"><a xlink:href="../../d0/d54/classIG_1_1Gr3d_1_1Graph3dManipulatorExtended.html" target="_top" xlink:title="Extended control for manipulation of 3D VTK graphics. Contains the standard control plus additional b...">
<polygon fill="white" stroke="black" points="1560,-209 1560,-239 1700,-239 1700,-209 1560,-209"/>
<text text-anchor="start" x="1568" y="-227" font-family="Helvetica,sans-Serif" font-size="10.00">IG.Gr3d.Graph3dManipulator</text>
<text text-anchor="middle" x="1630" y="-216" font-family="Helvetica,sans-Serif" font-size="10.00">Extended</text>
</a>
</g>
</g>
<!-- Node4&#45;&gt;Node6 -->
<g id="edge7" class="edge"><title>Node4&#45;&gt;Node6</title>
<path fill="none" stroke="#9a32cd" stroke-dasharray="5,2" d="M637.174,-92.0867C698.688,-91.0025 787.463,-90.478 865,-94 1166.5,-107.695 1264.17,-29.1051 1542,-147 1573.94,-160.552 1602.23,-190.653 1617.36,-208.947"/>
<polygon fill="#9a32cd" stroke="#9a32cd" points="637.094,-88.5875 627.161,-92.2724 637.224,-95.5863 637.094,-88.5875"/>
<text text-anchor="middle" x="1066" y="-98" font-family="Helvetica,sans-Serif" font-size="10.00"> _vtkContainer</text>
</g>
<!-- Node8 -->
<g id="node8" class="node"><title>Node8</title>
<g id="a_node8"><a xlink:href="../../d5/daf/classIG_1_1Gr3d_1_1Graph3dManipulatorBasic.html" target="_top" xlink:title="Basic manipulation of VTK&#45;based 3D hraphs.">
<polygon fill="white" stroke="black" points="1266,-289 1266,-319 1406,-319 1406,-289 1266,-289"/>
<text text-anchor="start" x="1274" y="-307" font-family="Helvetica,sans-Serif" font-size="10.00">IG.Gr3d.Graph3dManipulator</text>
<text text-anchor="middle" x="1336" y="-296" font-family="Helvetica,sans-Serif" font-size="10.00">Basic</text>
</a>
</g>
</g>
<!-- Node4&#45;&gt;Node8 -->
<g id="edge28" class="edge"><title>Node4&#45;&gt;Node8</title>
<path fill="none" stroke="#9a32cd" stroke-dasharray="5,2" d="M637.18,-95.0259C739.847,-97.1711 916.808,-103.771 978,-124 1066.03,-153.102 1069.65,-197.508 1154,-236 1193.66,-254.097 1207.21,-248.634 1248,-264 1267.29,-271.266 1288.31,-280.878 1304.85,-288.858"/>
<polygon fill="#9a32cd" stroke="#9a32cd" points="637.246,-91.5266 627.178,-94.8261 637.106,-98.5252 637.246,-91.5266"/>
<text text-anchor="middle" x="930.5" y="-127" font-family="Helvetica,sans-Serif" font-size="10.00"> _vtkContainer</text>
</g>
<!-- Node4&#45;&gt;Node9 -->
<g id="edge13" class="edge"><title>Node4&#45;&gt;Node9</title>
<path fill="none" stroke="#9a32cd" stroke-dasharray="5,2" d="M591.241,-107.814C629.387,-125.821 691.848,-157.436 707,-178 728.618,-207.34 698.888,-232.577 725,-258 744.236,-276.729 901.948,-301.914 995.674,-315.446"/>
<polygon fill="#9a32cd" stroke="#9a32cd" points="592.651,-104.61 582.11,-103.544 589.686,-110.951 592.651,-104.61"/>
<text text-anchor="middle" x="795" y="-298" font-family="Helvetica,sans-Serif" font-size="10.00"> _vtkContainer</text>
</g>
<!-- Node16 -->
<g id="node16" class="node"><title>Node16</title>
<g id="a_node16"><a xlink:href="../../d8/d45/classIG_1_1Gr3d_1_1Graph3dManipulator.html" target="_top" xlink:title="Basic control for manipulating 3D graphics.">
<polygon fill="white" stroke="black" points="725,-315.5 725,-334.5 865,-334.5 865,-315.5 725,-315.5"/>
<text text-anchor="middle" x="795" y="-322.5" font-family="Helvetica,sans-Serif" font-size="10.00">IG.Gr3d.Graph3dManipulator</text>
</a>
</g>
</g>
<!-- Node4&#45;&gt;Node16 -->
<g id="edge25" class="edge"><title>Node4&#45;&gt;Node16</title>
<path fill="none" stroke="#9a32cd" stroke-dasharray="5,2" d="M577.821,-111.278C594.424,-128.074 620.769,-154.046 645,-175 671.359,-197.795 688.212,-193.65 707,-223 726.181,-252.965 701.236,-274.522 725,-301 730.676,-307.324 738.107,-311.982 745.986,-315.412"/>
<polygon fill="#9a32cd" stroke="#9a32cd" points="580.01,-108.512 570.505,-103.831 575.017,-113.418 580.01,-108.512"/>
<text text-anchor="middle" x="676" y="-226" font-family="Helvetica,sans-Serif" font-size="10.00"> _vtkContainer</text>
</g>
<!-- Node5 -->
<g id="node5" class="node"><title>Node5</title>
<g id="a_node5"><a xlink:href="../../d3/d6e/interfaceIG_1_1Gr3d_1_1IVtkFormContainerGen.html" target="_top" xlink:title=" ">
<polygon fill="white" stroke="black" points="0,-133 0,-163 188,-163 188,-133 0,-133"/>
<text text-anchor="start" x="8" y="-151" font-family="Helvetica,sans-Serif" font-size="10.00">IVtkFormContainerGen</text>
<text text-anchor="middle" x="94" y="-140" font-family="Helvetica,sans-Serif" font-size="10.00">&lt; Kitware.VTK.RenderWindowControl &gt;</text>
</a>
</g>
</g>
<!-- Node5&#45;&gt;Node4 -->
<g id="edge4" class="edge"><title>Node5&#45;&gt;Node4</title>
<path fill="none" stroke="midnightblue" d="M198.009,-136.012C287.928,-125.547 415.745,-110.672 492.697,-101.716"/>
<polygon fill="midnightblue" stroke="midnightblue" points="197.589,-132.537 188.061,-137.17 198.398,-139.49 197.589,-132.537"/>
</g>
<!-- Node12 -->
<g id="node12" class="node"><title>Node12</title>
<g id="a_node12"><a xlink:href="../../dc/d11/interfaceIG_1_1Gr3d_1_1IVtkFormContainer.html" target="_top" xlink:title="This interface is implemented by the forms that contain the VTK control that can render VTK graphics.">
<polygon fill="white" stroke="black" points="225.5,-521.5 225.5,-540.5 323.5,-540.5 323.5,-521.5 225.5,-521.5"/>
<text text-anchor="middle" x="274.5" y="-528.5" font-family="Helvetica,sans-Serif" font-size="10.00">IVtkFormContainer</text>
</a>
</g>
</g>
<!-- Node5&#45;&gt;Node12 -->
<g id="edge18" class="edge"><title>Node5&#45;&gt;Node12</title>
<path fill="none" stroke="midnightblue" d="M103.385,-172.832C121.995,-226.711 169.52,-357.726 225,-460 237.528,-483.094 255.754,-507.992 265.921,-521.298"/>
<polygon fill="midnightblue" stroke="midnightblue" points="106.608,-171.441 100.054,-163.116 99.9858,-173.71 106.608,-171.441"/>
</g>
<!-- Node6&#45;&gt;Node1 -->
<g id="edge5" class="edge"><title>Node6&#45;&gt;Node1</title>
<path fill="none" stroke="#9a32cd" stroke-dasharray="5,2" d="M1652.36,-246.631C1705.29,-302.707 1841.43,-446.945 1885.79,-493.947"/>
<polygon fill="#9a32cd" stroke="#9a32cd" points="1654.87,-244.193 1645.46,-239.323 1649.78,-248.998 1654.87,-244.193"/>
<text text-anchor="middle" x="1765.5" y="-420" font-family="Helvetica,sans-Serif" font-size="10.00"> graph3DManipulator1</text>
</g>
<!-- Node7 -->
<g id="node7" class="node"><title>Node7</title>
<g id="a_node7"><a xlink:title=" ">
<polygon fill="white" stroke="#bfbfbf" points="240.5,-179.5 240.5,-198.5 308.5,-198.5 308.5,-179.5 240.5,-179.5"/>
<text text-anchor="middle" x="274.5" y="-186.5" font-family="Helvetica,sans-Serif" font-size="10.00">UserControl</text>
</a>
</g>
</g>
<!-- Node7&#45;&gt;Node6 -->
<g id="edge6" class="edge"><title>Node7&#45;&gt;Node6</title>
<path fill="none" stroke="midnightblue" d="M292.674,-171.972C334.414,-132.482 446.076,-38 559,-38 559,-38 559,-38 1337,-38 1432.45,-38 1464.71,-46.0017 1542,-102 1581.61,-130.693 1609.96,-183.039 1622.23,-208.823"/>
<polygon fill="midnightblue" stroke="midnightblue" points="290.055,-169.635 285.279,-179.092 294.91,-174.678 290.055,-169.635"/>
</g>
<!-- Node7&#45;&gt;Node8 -->
<g id="edge9" class="edge"><title>Node7&#45;&gt;Node8</title>
<path fill="none" stroke="midnightblue" d="M318.763,-188.245C359.2,-187.821 421.241,-187.892 475,-191 550.851,-195.386 569.128,-204.994 645,-209 693.821,-211.577 816.354,-204.133 865,-209 942.657,-216.77 1158.69,-264.12 1268.74,-288.903"/>
<polygon fill="midnightblue" stroke="midnightblue" points="318.672,-184.746 308.714,-188.365 318.755,-191.745 318.672,-184.746"/>
</g>
<!-- Node11 -->
<g id="node11" class="node"><title>Node11</title>
<g id="a_node11"><a xlink:href="../../d1/db7/classIG_1_1Gr3d_1_1VtkControlBase.html" target="_top" xlink:title="Basic control encapsulating the VTK&#39;s render control of type Kitware.VTK.RenderWindowControl.">
<polygon fill="white" stroke="black" points="499,-600.5 499,-619.5 621,-619.5 621,-600.5 499,-600.5"/>
<text text-anchor="middle" x="560" y="-607.5" font-family="Helvetica,sans-Serif" font-size="10.00">IG.Gr3d.VtkControlBase</text>
</a>
</g>
</g>
<!-- Node7&#45;&gt;Node11 -->
<g id="edge16" class="edge"><title>Node7&#45;&gt;Node11</title>
<path fill="none" stroke="midnightblue" d="M287.692,-207.105C336.349,-279.361 515.772,-545.805 552.432,-600.247"/>
<polygon fill="midnightblue" stroke="midnightblue" points="290.443,-204.924 281.954,-198.584 284.636,-208.834 290.443,-204.924"/>
</g>
<!-- Node7&#45;&gt;Node16 -->
<g id="edge24" class="edge"><title>Node7&#45;&gt;Node16</title>
<path fill="none" stroke="midnightblue" d="M318.873,-192.001C399.256,-198.987 575.175,-221.027 707,-286 716.341,-290.604 715.936,-295.873 725,-301 735.377,-306.869 747.437,-311.664 758.544,-315.382"/>
<polygon fill="midnightblue" stroke="midnightblue" points="318.893,-188.49 308.637,-191.148 318.312,-195.466 318.893,-188.49"/>
</g>
<!-- Node8&#45;&gt;Node6 -->
<g id="edge8" class="edge"><title>Node8&#45;&gt;Node6</title>
<path fill="none" stroke="#9a32cd" stroke-dasharray="5,2" d="M1401.65,-286.289C1453.28,-272.142 1524.86,-252.531 1573.83,-239.116"/>
<polygon fill="#9a32cd" stroke="#9a32cd" points="1400.64,-282.935 1391.92,-288.953 1402.49,-289.686 1400.64,-282.935"/>
<text text-anchor="middle" x="1483" y="-282" font-family="Helvetica,sans-Serif" font-size="10.00"> graph3dManipulatorBasic1</text>
</g>
<!-- Node9&#45;&gt;Node8 -->
<g id="edge10" class="edge"><title>Node9&#45;&gt;Node8</title>
<path fill="none" stroke="#9a32cd" stroke-dasharray="5,2" d="M1146.02,-318.808C1184.01,-315.832 1229.13,-312.296 1265.75,-309.426"/>
<polygon fill="#9a32cd" stroke="#9a32cd" points="1145.71,-315.321 1136.02,-319.592 1146.26,-322.3 1145.71,-315.321"/>
<text text-anchor="middle" x="1201" y="-321" font-family="Helvetica,sans-Serif" font-size="10.00"> _graphControls</text>
</g>
<!-- Node10 -->
<g id="node10" class="node"><title>Node10</title>
<g id="a_node10"><a xlink:title=" ">
<polygon fill="white" stroke="#bfbfbf" points="249.5,-431.5 249.5,-450.5 299.5,-450.5 299.5,-431.5 249.5,-431.5"/>
<text text-anchor="middle" x="274.5" y="-438.5" font-family="Helvetica,sans-Serif" font-size="10.00">System</text>
</a>
</g>
</g>
<!-- Node10&#45;&gt;Node1 -->
<g id="edge34" class="edge"><title>Node10&#45;&gt;Node1</title>
<path fill="none" stroke="#9a32cd" stroke-dasharray="5,2" d="M289.718,-458.684C300.312,-472.537 314.526,-492.642 324,-512 335.492,-535.482 323.781,-549.251 342,-568 385.691,-612.962 419.992,-584.923 475,-615 483.892,-619.862 483.869,-624.601 493,-629 671.867,-715.17 730.959,-724 929.5,-724 929.5,-724 929.5,-724 1631,-724 1719.9,-724 1745.46,-698.813 1813,-641 1852.62,-607.089 1881.35,-550.803 1893.53,-524.035"/>
<polygon fill="#9a32cd" stroke="#9a32cd" points="292.28,-456.278 283.365,-450.554 286.765,-460.588 292.28,-456.278"/>
<text text-anchor="middle" x="1066" y="-727" font-family="Helvetica,sans-Serif" font-size="10.00"> components</text>
</g>
<!-- Node10&#45;&gt;Node6 -->
<g id="edge31" class="edge"><title>Node10&#45;&gt;Node6</title>
<path fill="none" stroke="#9a32cd" stroke-dasharray="5,2" d="M279.16,-421.197C286.021,-389.385 303.724,-326.753 342,-290 446.36,-189.794 502.845,-197.914 645,-171 983.501,-106.911 1398.33,-176.445 1559.95,-209.036"/>
<polygon fill="#9a32cd" stroke="#9a32cd" points="275.645,-420.923 277.104,-431.417 282.507,-422.304 275.645,-420.923"/>
<text text-anchor="middle" x="930.5" y="-149" font-family="Helvetica,sans-Serif" font-size="10.00"> components</text>
</g>
<!-- Node10&#45;&gt;Node8 -->
<g id="edge29" class="edge"><title>Node10&#45;&gt;Node8</title>
<path fill="none" stroke="#9a32cd" stroke-dasharray="5,2" d="M310.054,-444.093C320.326,-444.878 331.61,-445.61 342,-446 401.07,-448.218 415.891,-446.51 475,-446 578.123,-445.111 603.933,-445.497 707,-442 777.272,-439.616 795.522,-444.8 865,-434 1038.95,-406.959 1079.3,-383.305 1248,-333 1262.34,-328.723 1277.88,-323.677 1291.81,-319.004"/>
<polygon fill="#9a32cd" stroke="#9a32cd" points="310.044,-440.581 299.796,-443.266 309.482,-447.558 310.044,-440.581"/>
<text text-anchor="middle" x="795" y="-522" font-family="Helvetica,sans-Serif" font-size="10.00"> btnManipulate</text>
<text text-anchor="middle" x="795" y="-511" font-family="Helvetica,sans-Serif" font-size="10.00">btnResetCamera</text>
<text text-anchor="middle" x="795" y="-500" font-family="Helvetica,sans-Serif" font-size="10.00">pnlControls</text>
<text text-anchor="middle" x="795" y="-489" font-family="Helvetica,sans-Serif" font-size="10.00">btnSurfaceWireframe</text>
<text text-anchor="middle" x="795" y="-478" font-family="Helvetica,sans-Serif" font-size="10.00">btnCameraActor</text>
<text text-anchor="middle" x="795" y="-467" font-family="Helvetica,sans-Serif" font-size="10.00">btnCloseWin</text>
<text text-anchor="middle" x="795" y="-456" font-family="Helvetica,sans-Serif" font-size="10.00">components</text>
<text text-anchor="middle" x="795" y="-445" font-family="Helvetica,sans-Serif" font-size="10.00">btnTrackBallJoystick</text>
</g>
<!-- Node10&#45;&gt;Node9 -->
<g id="edge14" class="edge"><title>Node10&#45;&gt;Node9</title>
<path fill="none" stroke="#9a32cd" stroke-dasharray="5,2" d="M309.899,-441.575C387.726,-442.279 574.618,-440.438 627,-408 639.897,-400.013 632.195,-387.134 645,-379 707.889,-339.049 904.262,-350.667 978,-340 983.764,-339.166 989.734,-338.249 995.722,-337.293"/>
<polygon fill="#9a32cd" stroke="#9a32cd" points="309.705,-438.073 299.666,-441.462 309.627,-445.073 309.705,-438.073"/>
<text text-anchor="middle" x="676" y="-382" font-family="Helvetica,sans-Serif" font-size="10.00"> components</text>
</g>
<!-- Node10&#45;&gt;Node11 -->
<g id="edge21" class="edge"><title>Node10&#45;&gt;Node11</title>
<path fill="none" stroke="#9a32cd" stroke-dasharray="5,2" d="M288.224,-458.783C300.282,-474.258 319.814,-496.032 342,-508 395.085,-536.637 421.076,-507.976 475,-535 507.859,-551.467 537.758,-584.196 551.324,-600.422"/>
<polygon fill="#9a32cd" stroke="#9a32cd" points="290.825,-456.419 282.024,-450.521 285.226,-460.62 290.825,-456.419"/>
<text text-anchor="middle" x="408.5" y="-560" font-family="Helvetica,sans-Serif" font-size="10.00"> txtReplacementNotification</text>
<text text-anchor="middle" x="408.5" y="-549" font-family="Helvetica,sans-Serif" font-size="10.00">vtkReplacementPanel</text>
<text text-anchor="middle" x="408.5" y="-538" font-family="Helvetica,sans-Serif" font-size="10.00">components</text>
</g>
<!-- Node10&#45;&gt;Node16 -->
<g id="edge26" class="edge"><title>Node10&#45;&gt;Node16</title>
<path fill="none" stroke="#9a32cd" stroke-dasharray="5,2" d="M291.842,-423.774C325.548,-389.651 406.876,-314.403 493,-287 549.752,-268.943 567.817,-280.352 627,-287 674.721,-292.361 728.694,-306.081 762.04,-315.48"/>
<polygon fill="#9a32cd" stroke="#9a32cd" points="289.139,-421.533 284.675,-431.141 294.157,-426.413 289.139,-421.533"/>
<text text-anchor="middle" x="560" y="-400" font-family="Helvetica,sans-Serif" font-size="10.00"> btnUp</text>
<text text-anchor="middle" x="560" y="-389" font-family="Helvetica,sans-Serif" font-size="10.00">lblFi</text>
<text text-anchor="middle" x="560" y="-378" font-family="Helvetica,sans-Serif" font-size="10.00">txtViewAngle</text>
<text text-anchor="middle" x="560" y="-367" font-family="Helvetica,sans-Serif" font-size="10.00">txtZoomFactor</text>
<text text-anchor="middle" x="560" y="-356" font-family="Helvetica,sans-Serif" font-size="10.00">lblZoomFactor</text>
<text text-anchor="middle" x="560" y="-345" font-family="Helvetica,sans-Serif" font-size="10.00">lblRotationStep</text>
<text text-anchor="middle" x="560" y="-334" font-family="Helvetica,sans-Serif" font-size="10.00">btnLeft</text>
<text text-anchor="middle" x="560" y="-323" font-family="Helvetica,sans-Serif" font-size="10.00">btnDownLeft</text>
<text text-anchor="middle" x="560" y="-312" font-family="Helvetica,sans-Serif" font-size="10.00">btnRollCounterClockwise</text>
<text text-anchor="middle" x="560" y="-301" font-family="Helvetica,sans-Serif" font-size="10.00">txtR</text>
<text text-anchor="middle" x="560" y="-290" font-family="Helvetica,sans-Serif" font-size="10.00">...</text>
</g>
<!-- Node11&#45;&gt;Node1 -->
<g id="edge35" class="edge"><title>Node11&#45;&gt;Node1</title>
<path fill="none" stroke="#9a32cd" stroke-dasharray="5,2" d="M588.4,-624.169C604.451,-631.761 625.369,-640.464 645,-645 885.758,-700.633 952.898,-678 1200,-678 1200,-678 1200,-678 1631,-678 1745.99,-678 1852.11,-565.897 1887.53,-524.296"/>
<polygon fill="#9a32cd" stroke="#9a32cd" points="589.612,-620.866 579.089,-619.633 586.546,-627.159 589.612,-620.866"/>
<text text-anchor="middle" x="1201" y="-681" font-family="Helvetica,sans-Serif" font-size="10.00"> _vtkControl</text>
</g>
<!-- Node11&#45;&gt;Node6 -->
<g id="edge32" class="edge"><title>Node11&#45;&gt;Node6</title>
<path fill="none" stroke="#9a32cd" stroke-dasharray="5,2" d="M601.055,-622.137C614.845,-625.746 630.473,-629.212 645,-631 672.349,-634.367 679.446,-631.262 707,-631 899.054,-629.177 958.785,-653.046 1136,-579 1348.15,-490.356 1556.49,-295.252 1613.66,-239.284"/>
<polygon fill="#9a32cd" stroke="#9a32cd" points="601.949,-618.753 591.381,-619.506 600.112,-625.508 601.949,-618.753"/>
<text text-anchor="middle" x="1066" y="-626" font-family="Helvetica,sans-Serif" font-size="10.00"> _vtkControl</text>
</g>
<!-- Node11&#45;&gt;Node8 -->
<g id="edge30" class="edge"><title>Node11&#45;&gt;Node8</title>
<path fill="none" stroke="#9a32cd" stroke-dasharray="5,2" d="M631.642,-616.082C767.444,-623.812 1067.44,-621.167 1248,-470 1297.4,-428.643 1322.43,-351.958 1331.23,-319.333"/>
<polygon fill="#9a32cd" stroke="#9a32cd" points="631.561,-612.571 621.368,-615.459 631.138,-619.558 631.561,-612.571"/>
<text text-anchor="middle" x="930.5" y="-610" font-family="Helvetica,sans-Serif" font-size="10.00"> _vtkControl</text>
</g>
<!-- Node11&#45;&gt;Node9 -->
<g id="edge15" class="edge"><title>Node11&#45;&gt;Node9</title>
<path fill="none" stroke="#9a32cd" stroke-dasharray="5,2" d="M582.031,-594.085C613.027,-569.7 671.165,-520.284 707,-467 718.791,-449.467 708.586,-436.305 725,-423 813.783,-351.033 871.01,-417.185 978,-377 1002.38,-367.843 1027.65,-351.894 1044.63,-340.067"/>
<polygon fill="#9a32cd" stroke="#9a32cd" points="579.802,-591.385 574.05,-600.282 584.095,-596.914 579.802,-591.385"/>
<text text-anchor="middle" x="795" y="-426" font-family="Helvetica,sans-Serif" font-size="10.00"> _vtkControl</text>
</g>
<!-- Node11&#45;&gt;Node16 -->
<g id="edge27" class="edge"><title>Node11&#45;&gt;Node16</title>
<path fill="none" stroke="#9a32cd" stroke-dasharray="5,2" d="M568.834,-590.829C581.838,-560.355 609.954,-499.832 645,-456 687.159,-403.272 752.103,-354.494 780.23,-334.526"/>
<polygon fill="#9a32cd" stroke="#9a32cd" points="565.511,-589.703 564.878,-600.278 571.968,-592.406 565.511,-589.703"/>
<text text-anchor="middle" x="676" y="-459" font-family="Helvetica,sans-Serif" font-size="10.00"> _vtkControl</text>
</g>
<!-- Node12&#45;&gt;Node11 -->
<g id="edge17" class="edge"><title>Node12&#45;&gt;Node11</title>
<path fill="none" stroke="midnightblue" d="M297.507,-546.054C310.045,-553.982 326.337,-563.23 342,-569 393.087,-587.819 454.266,-598.375 498.622,-604.045"/>
<polygon fill="midnightblue" stroke="midnightblue" points="299.394,-543.106 289.104,-540.583 295.574,-548.972 299.394,-543.106"/>
</g>
<!-- Node13 -->
<g id="node13" class="node"><title>Node13</title>
<g id="a_node13"><a xlink:href="../../d5/def/interfaceIG_1_1Gr3d_1_1I3dGraphicsControl.html" target="_top" xlink:title="Interface for 3D graphics controls that can be manipulated via a standard set of commands for rotatio...">
<polygon fill="white" stroke="black" points="225,-724.5 225,-743.5 324,-743.5 324,-724.5 225,-724.5"/>
<text text-anchor="middle" x="274.5" y="-731.5" font-family="Helvetica,sans-Serif" font-size="10.00">I3dGraphicsControl</text>
</a>
</g>
</g>
<!-- Node13&#45;&gt;Node11 -->
<g id="edge19" class="edge"><title>Node13&#45;&gt;Node11</title>
<path fill="none" stroke="midnightblue" d="M334.002,-737.576C375.68,-737.617 431.747,-732.401 475,-709 514.254,-687.763 543.036,-640.155 554.063,-619.672"/>
<polygon fill="midnightblue" stroke="midnightblue" points="334.04,-734.076 324.002,-737.466 333.963,-741.076 334.04,-734.076"/>
</g>
<!-- Node14 -->
<g id="node14" class="node"><title>Node14</title>
<g id="a_node14"><a xlink:title=" ">
<polygon fill="white" stroke="#bfbfbf" points="257,-686.5 257,-705.5 292,-705.5 292,-686.5 257,-686.5"/>
<text text-anchor="middle" x="274.5" y="-693.5" font-family="Helvetica,sans-Serif" font-size="10.00">VTK</text>
</a>
</g>
</g>
<!-- Node14&#45;&gt;Node11 -->
<g id="edge20" class="edge"><title>Node14&#45;&gt;Node11</title>
<path fill="none" stroke="#9a32cd" stroke-dasharray="5,2" d="M302.275,-696.343C341.532,-695.978 416.401,-691.96 475,-669 504.536,-657.428 533.609,-633.424 548.583,-619.871"/>
<polygon fill="#9a32cd" stroke="#9a32cd" points="302.183,-692.843 292.19,-696.361 302.196,-699.843 302.183,-692.843"/>
<text text-anchor="middle" x="408.5" y="-697" font-family="Helvetica,sans-Serif" font-size="10.00"> _renderWindowControl1</text>
</g>
<!-- Node15 -->
<g id="node15" class="node"><title>Node15</title>
<g id="a_node15"><a xlink:title=" ">
<polygon fill="white" stroke="#bfbfbf" points="254,-630.5 254,-649.5 295,-649.5 295,-630.5 254,-630.5"/>
<text text-anchor="middle" x="274.5" y="-637.5" font-family="Helvetica,sans-Serif" font-size="10.00">static</text>
</a>
</g>
</g>
<!-- Node15&#45;&gt;Node11 -->
<g id="edge22" class="edge"><title>Node15&#45;&gt;Node11</title>
<path fill="none" stroke="#9a32cd" stroke-dasharray="5,2" d="M305.599,-636.815C351.407,-631.968 439.543,-622.641 498.823,-616.368"/>
<polygon fill="#9a32cd" stroke="#9a32cd" points="305.011,-633.357 295.435,-637.89 305.748,-640.319 305.011,-633.357"/>
<text text-anchor="middle" x="408.5" y="-657" font-family="Helvetica,sans-Serif" font-size="10.00"> DefaultVtkTestText</text>
<text text-anchor="middle" x="408.5" y="-646" font-family="Helvetica,sans-Serif" font-size="10.00">DefaultVtkAddTestActors</text>
<text text-anchor="middle" x="408.5" y="-635" font-family="Helvetica,sans-Serif" font-size="10.00">DefaultVtkAddTestActorsIGLib</text>
</g>
<!-- Node16&#45;&gt;Node6 -->
<g id="edge33" class="edge"><title>Node16&#45;&gt;Node6</title>
<path fill="none" stroke="#9a32cd" stroke-dasharray="5,2" d="M875.301,-314.553C994.373,-298.974 1226.47,-269.022 1424,-246 1469.15,-240.737 1519.96,-235.282 1559.7,-231.12"/>
<polygon fill="#9a32cd" stroke="#9a32cd" points="874.642,-311.11 865.181,-315.879 875.551,-318.051 874.642,-311.11"/>
<text text-anchor="middle" x="1201" y="-282" font-family="Helvetica,sans-Serif" font-size="10.00"> graph3dManipulator1</text>
</g>
<!-- Node16&#45;&gt;Node9 -->
<g id="edge23" class="edge"><title>Node16&#45;&gt;Node9</title>
<path fill="none" stroke="#9a32cd" stroke-dasharray="5,2" d="M875.353,-325C913.637,-325 959.129,-325 995.961,-325"/>
<polygon fill="#9a32cd" stroke="#9a32cd" points="875.274,-321.5 865.274,-325 875.274,-328.5 875.274,-321.5"/>
<text text-anchor="middle" x="930.5" y="-328" font-family="Helvetica,sans-Serif" font-size="10.00"> graph3DManipulator1</text>
</g>
</g>
</svg>
        <g id="navigator" transform="translate(0 0)" fill="#404254">
                <rect fill="#f2f5e9" fill-opacity="0.5" stroke="#606060" stroke-width=".5" x="0" y="0" width="60" height="60"/>
                <use id="zoomplus" xlink:href="#zoomPlus" x="17" y="9" onmousedown="handleZoom(evt,'in')"/>
                <use id="zoomminus" xlink:href="#zoomMin" x="42" y="9" onmousedown="handleZoom(evt,'out')"/>
                <use id="reset" xlink:href="#resetDef" x="30" y="36" onmousedown="handleReset()"/>
                <g id="arrowUp" xlink:href="#dirArrow" transform="translate(30 24)" onmousedown="handlePan(0,-1)">
                  <use xlink:href="#rim" fill="#404040">
                        <set attributeName="fill" to="#808080" begin="arrowUp.mouseover" end="arrowUp.mouseout"/>
                  </use>
                  <path fill="none" stroke="white" stroke-width="1.5" d="M0,-3.0v7 M-2.5,-0.5L0,-3.0L2.5,-0.5"/>
                </g>
                <g id="arrowRight" xlink:href="#dirArrow" transform="rotate(90) translate(36 -43)" onmousedown="handlePan(1,0)">
                  <use xlink:href="#rim" fill="#404040">
                        <set attributeName="fill" to="#808080" begin="arrowRight.mouseover" end="arrowRight.mouseout"/>
                  </use>
                  <path fill="none" stroke="white" stroke-width="1.5" d="M0,-3.0v7 M-2.5,-0.5L0,-3.0L2.5,-0.5"/>
                </g>
                <g id="arrowDown" xlink:href="#dirArrow" transform="rotate(180) translate(-30 -48)" onmousedown="handlePan(0,1)">
                  <use xlink:href="#rim" fill="#404040">
                        <set attributeName="fill" to="#808080" begin="arrowDown.mouseover" end="arrowDown.mouseout"/>
                  </use>
                  <path fill="none" stroke="white" stroke-width="1.5" d="M0,-3.0v7 M-2.5,-0.5L0,-3.0L2.5,-0.5"/>
                </g>
                <g id="arrowLeft" xlink:href="#dirArrow" transform="rotate(270) translate(-36 17)" onmousedown="handlePan(-1,0)">
                  <use xlink:href="#rim" fill="#404040">
                        <set attributeName="fill" to="#808080" begin="arrowLeft.mouseover" end="arrowLeft.mouseout"/>
                  </use>
                  <path fill="none" stroke="white" stroke-width="1.5" d="M0,-3.0v7 M-2.5,-0.5L0,-3.0L2.5,-0.5"/>
                </g>
        </g>
        <svg viewBox="0 0 15 15" width="100%" height="30px" preserveAspectRatio="xMaxYMin meet">
         <g id="arrow_out" transform="scale(0.3 0.3)">
          <a xlink:href="classIG_1_1Gr3d_1_1Graph3dManipulatorWindowExtended__coll__graph_org.svg" target="_base">
           <rect id="button" ry="5" rx="5" y="6" x="6" height="38" width="38"
                fill="#f2f5e9" fill-opacity="0.5" stroke="#606060" stroke-width="1.0"/>
           <path id="arrow"
             d="M 11.500037,31.436501 C 11.940474,20.09759 22.043105,11.32322 32.158766,21.979434 L 37.068811,17.246167 C 37.068811,17.246167 37.088388,32 37.088388,32 L 22.160133,31.978069 C 22.160133,31.978069 26.997745,27.140456 26.997745,27.140456 C 18.528582,18.264221 13.291696,25.230495 11.500037,31.436501 z"
             style="fill:#404040;"/>
          </a>
         </g>
        </svg>
</svg>
