<?xml version="1.0" encoding="UTF-8" standalone="no"?>
<!DOCTYPE svg PUBLIC "-//W3C//DTD SVG 1.1//EN"
 "http://www.w3.org/Graphics/SVG/1.1/DTD/svg11.dtd">
<!-- Generated by graphviz version 2.38.0 (20140413.2041)
 -->
<!-- Title: Meta.Numerics.Statistics.MultivariateSample Pages: 1 -->
<svg width="347pt" height="95pt"
 viewBox="0.00 0.00 347.00 95.00" xmlns="http://www.w3.org/2000/svg" xmlns:xlink="http://www.w3.org/1999/xlink">
<g id="graph0" class="graph" transform="scale(1 1) rotate(0) translate(4 91)">
<title>Meta.Numerics.Statistics.MultivariateSample</title>
<polygon fill="white" stroke="none" points="-4,4 -4,-91 343,-91 343,4 -4,4"/>
<!-- Node1 -->
<g id="node1" class="node"><title>Node1</title>
<g id="a_node1"><a xlink:title="Represents a multivariate sample.">
<polygon fill="#bfbfbf" stroke="black" points="124.5,-0.5 124.5,-30.5 254.5,-30.5 254.5,-0.5 124.5,-0.5"/>
<text text-anchor="start" x="132.5" y="-18.5" font-family="Helvetica,sans-Serif" font-size="10.00">Meta.Numerics.Statistics.</text>
<text text-anchor="middle" x="189.5" y="-7.5" font-family="Helvetica,sans-Serif" font-size="10.00">MultivariateSample</text>
</a>
</g>
</g>
<!-- Node2 -->
<g id="node2" class="node"><title>Node2</title>
<g id="a_node2"><a xlink:title=" ">
<polygon fill="white" stroke="#bfbfbf" points="0,-67.5 0,-86.5 111,-86.5 111,-67.5 0,-67.5"/>
<text text-anchor="middle" x="55.5" y="-74.5" font-family="Helvetica,sans-Serif" font-size="10.00">ICollection&lt; double[]&gt;</text>
</a>
</g>
</g>
<!-- Node2&#45;&gt;Node1 -->
<g id="edge1" class="edge"><title>Node2&#45;&gt;Node1</title>
<path fill="none" stroke="midnightblue" d="M84.0327,-63.3306C105.713,-53.7037 135.522,-40.468 157.919,-30.523"/>
<polygon fill="midnightblue" stroke="midnightblue" points="82.4181,-60.218 74.6989,-67.4751 85.2589,-66.6157 82.4181,-60.218"/>
</g>
<!-- Node3 -->
<g id="node3" class="node"><title>Node3</title>
<g id="a_node3"><a xlink:title=" ">
<polygon fill="white" stroke="#bfbfbf" points="129.5,-67.5 129.5,-86.5 249.5,-86.5 249.5,-67.5 129.5,-67.5"/>
<text text-anchor="middle" x="189.5" y="-74.5" font-family="Helvetica,sans-Serif" font-size="10.00">IEnumerable&lt; double[]&gt;</text>
</a>
</g>
</g>
<!-- Node3&#45;&gt;Node1 -->
<g id="edge2" class="edge"><title>Node3&#45;&gt;Node1</title>
<path fill="none" stroke="midnightblue" d="M189.5,-57.2349C189.5,-48.5864 189.5,-38.4969 189.5,-30.523"/>
<polygon fill="midnightblue" stroke="midnightblue" points="186,-57.4751 189.5,-67.4751 193,-57.4751 186,-57.4751"/>
</g>
<!-- Node4 -->
<g id="node4" class="node"><title>Node4</title>
<g id="a_node4"><a xlink:title=" ">
<polygon fill="white" stroke="#bfbfbf" points="268,-67.5 268,-86.5 339,-86.5 339,-67.5 268,-67.5"/>
<text text-anchor="middle" x="303.5" y="-74.5" font-family="Helvetica,sans-Serif" font-size="10.00">IEnumerable</text>
</a>
</g>
</g>
<!-- Node4&#45;&gt;Node1 -->
<g id="edge3" class="edge"><title>Node4&#45;&gt;Node1</title>
<path fill="none" stroke="midnightblue" d="M278.222,-62.8068C259.869,-53.2278 235.078,-40.2888 216.368,-30.523"/>
<polygon fill="midnightblue" stroke="midnightblue" points="276.682,-65.9509 287.167,-67.4751 279.921,-59.7453 276.682,-65.9509"/>
</g>
</g>
</svg>
