<?xml version="1.0" encoding="UTF-8" standalone="no"?>
<!DOCTYPE svg PUBLIC "-//W3C//DTD SVG 1.1//EN"
 "http://www.w3.org/Graphics/SVG/1.1/DTD/svg11.dtd">
<!-- Generated by graphviz version 2.38.0 (20140413.2041)
 -->
<!-- Title: AForge.Imaging.Formats.ImageInfo Pages: 1 -->
<svg width="404pt" height="140pt"
 viewBox="0.00 0.00 404.00 140.00" xmlns="http://www.w3.org/2000/svg" xmlns:xlink="http://www.w3.org/1999/xlink">
<g id="graph0" class="graph" transform="scale(1 1) rotate(0) translate(4 136)">
<title>AForge.Imaging.Formats.ImageInfo</title>
<polygon fill="white" stroke="none" points="-4,4 -4,-136 400,-136 400,4 -4,4"/>
<!-- Node1 -->
<g id="node1" class="node"><title>Node1</title>
<g id="a_node1"><a xlink:title="Information about image&#39;s frame.">
<polygon fill="#bfbfbf" stroke="black" points="113,-56.5 113,-75.5 281,-75.5 281,-56.5 113,-56.5"/>
<text text-anchor="middle" x="197" y="-63.5" font-family="Helvetica,sans-Serif" font-size="10.00">AForge.Imaging.Formats.ImageInfo</text>
</a>
</g>
</g>
<!-- Node3 -->
<g id="node3" class="node"><title>Node3</title>
<g id="a_node3"><a xlink:href="../../d2/d03/classAForge_1_1Imaging_1_1Formats_1_1FITSImageInfo.html" target="_top" xlink:title="Information about FITS image&#39;s frame.">
<polygon fill="white" stroke="black" points="0,-0.5 0,-19.5 188,-19.5 188,-0.5 0,-0.5"/>
<text text-anchor="middle" x="94" y="-7.5" font-family="Helvetica,sans-Serif" font-size="10.00">AForge.Imaging.Formats.FITSImageInfo</text>
</a>
</g>
</g>
<!-- Node1&#45;&gt;Node3 -->
<g id="edge2" class="edge"><title>Node1&#45;&gt;Node3</title>
<path fill="none" stroke="midnightblue" d="M171.421,-51.5895C152.377,-41.6052 126.936,-28.2672 110.508,-19.6545"/>
<polygon fill="midnightblue" stroke="midnightblue" points="169.969,-54.7805 180.451,-56.324 173.22,-48.5808 169.969,-54.7805"/>
</g>
<!-- Node4 -->
<g id="node4" class="node"><title>Node4</title>
<g id="a_node4"><a xlink:href="../../de/d3a/classAForge_1_1Imaging_1_1Formats_1_1PNMImageInfo.html" target="_top" xlink:title="Information about PNM image&#39;s frame.">
<polygon fill="white" stroke="black" points="206,-0.5 206,-19.5 396,-19.5 396,-0.5 206,-0.5"/>
<text text-anchor="middle" x="301" y="-7.5" font-family="Helvetica,sans-Serif" font-size="10.00">AForge.Imaging.Formats.PNMImageInfo</text>
</a>
</g>
</g>
<!-- Node1&#45;&gt;Node4 -->
<g id="edge3" class="edge"><title>Node1&#45;&gt;Node4</title>
<path fill="none" stroke="midnightblue" d="M222.828,-51.5895C242.057,-41.6052 267.745,-28.2672 284.332,-19.6545"/>
<polygon fill="midnightblue" stroke="midnightblue" points="220.971,-48.6095 213.709,-56.324 224.197,-54.822 220.971,-48.6095"/>
</g>
<!-- Node2 -->
<g id="node2" class="node"><title>Node2</title>
<g id="a_node2"><a xlink:title=" ">
<polygon fill="white" stroke="#bfbfbf" points="166,-112.5 166,-131.5 228,-131.5 228,-112.5 166,-112.5"/>
<text text-anchor="middle" x="197" y="-119.5" font-family="Helvetica,sans-Serif" font-size="10.00">ICloneable</text>
</a>
</g>
</g>
<!-- Node2&#45;&gt;Node1 -->
<g id="edge1" class="edge"><title>Node2&#45;&gt;Node1</title>
<path fill="none" stroke="midnightblue" d="M197,-101.805C197,-92.9102 197,-82.7798 197,-75.7511"/>
<polygon fill="midnightblue" stroke="midnightblue" points="193.5,-102.083 197,-112.083 200.5,-102.083 193.5,-102.083"/>
</g>
</g>
</svg>
