<?xml version="1.0" encoding="UTF-8" standalone="no"?>
<!DOCTYPE svg PUBLIC "-//W3C//DTD SVG 1.1//EN"
 "http://www.w3.org/Graphics/SVG/1.1/DTD/svg11.dtd">
<!-- Generated by graphviz version 2.38.0 (20140413.2041)
 -->
<!-- Title: NUnit.Framework.Attributes.ThreadingTests Pages: 1 -->
<svg width="329pt" height="88pt"
 viewBox="0.00 0.00 329.00 88.00" xmlns="http://www.w3.org/2000/svg" xmlns:xlink="http://www.w3.org/1999/xlink">
<g id="graph0" class="graph" transform="scale(1 1) rotate(0) translate(4 84)">
<title>NUnit.Framework.Attributes.ThreadingTests</title>
<polygon fill="white" stroke="none" points="-4,4 -4,-84 325,-84 325,4 -4,4"/>
<!-- Node1 -->
<g id="node1" class="node"><title>Node1</title>
<g id="a_node1"><a xlink:title=" ">
<polygon fill="#bfbfbf" stroke="black" points="0,-24.5 0,-54.5 140,-54.5 140,-24.5 0,-24.5"/>
<text text-anchor="start" x="8" y="-42.5" font-family="Helvetica,sans-Serif" font-size="10.00">NUnit.Framework.Attributes.</text>
<text text-anchor="middle" x="70" y="-31.5" font-family="Helvetica,sans-Serif" font-size="10.00">ThreadingTests</text>
</a>
</g>
</g>
<!-- Node2 -->
<g id="node2" class="node"><title>Node2</title>
<g id="a_node2"><a xlink:href="../../d0/de0/classNUnit_1_1Framework_1_1Attributes_1_1ApartmentAttributeTests.html" target="_top" xlink:title=" ">
<polygon fill="white" stroke="black" points="178.5,-49.5 178.5,-79.5 318.5,-79.5 318.5,-49.5 178.5,-49.5"/>
<text text-anchor="start" x="186.5" y="-67.5" font-family="Helvetica,sans-Serif" font-size="10.00">NUnit.Framework.Attributes.</text>
<text text-anchor="middle" x="248.5" y="-56.5" font-family="Helvetica,sans-Serif" font-size="10.00">ApartmentAttributeTests</text>
</a>
</g>
</g>
<!-- Node1&#45;&gt;Node2 -->
<g id="edge1" class="edge"><title>Node1&#45;&gt;Node2</title>
<path fill="none" stroke="midnightblue" d="M150.349,-50.7393C159.723,-52.0671 169.233,-53.414 178.449,-54.7194"/>
<polygon fill="midnightblue" stroke="midnightblue" points="150.643,-47.246 140.251,-49.3089 149.661,-54.1768 150.643,-47.246"/>
</g>
<!-- Node3 -->
<g id="node3" class="node"><title>Node3</title>
<g id="a_node3"><a xlink:href="../../d5/db9/classNUnit_1_1Framework_1_1Attributes_1_1RequiresThreadAttributeTests.html" target="_top" xlink:title=" ">
<polygon fill="white" stroke="black" points="176,-0.5 176,-30.5 321,-30.5 321,-0.5 176,-0.5"/>
<text text-anchor="start" x="184" y="-18.5" font-family="Helvetica,sans-Serif" font-size="10.00">NUnit.Framework.Attributes.</text>
<text text-anchor="middle" x="248.5" y="-7.5" font-family="Helvetica,sans-Serif" font-size="10.00">RequiresThreadAttributeTests</text>
</a>
</g>
</g>
<!-- Node1&#45;&gt;Node3 -->
<g id="edge2" class="edge"><title>Node1&#45;&gt;Node3</title>
<path fill="none" stroke="midnightblue" d="M150.202,-28.7303C158.74,-27.5693 167.393,-26.3928 175.835,-25.2448"/>
<polygon fill="midnightblue" stroke="midnightblue" points="149.688,-25.2679 140.251,-30.0834 150.631,-32.2041 149.688,-25.2679"/>
</g>
</g>
</svg>
