<?xml version="1.0" encoding="UTF-8" standalone="no"?>
<!DOCTYPE svg PUBLIC "-//W3C//DTD SVG 1.1//EN"
 "http://www.w3.org/Graphics/SVG/1.1/DTD/svg11.dtd">
<!-- Generated by graphviz version 2.38.0 (20140413.2041)
 -->
<!-- Title: IG.Script.LoadableScriptScalarFunctionCreator Pages: 1 -->
<svg width="218pt" height="207pt"
 viewBox="0.00 0.00 218.00 207.00" xmlns="http://www.w3.org/2000/svg" xmlns:xlink="http://www.w3.org/1999/xlink">
<g id="graph0" class="graph" transform="scale(1 1) rotate(0) translate(4 203)">
<title>IG.Script.LoadableScriptScalarFunctionCreator</title>
<polygon fill="white" stroke="none" points="-4,4 -4,-203 214,-203 214,4 -4,4"/>
<!-- Node1 -->
<g id="node1" class="node"><title>Node1</title>
<g id="a_node1"><a xlink:title=" ">
<polygon fill="#bfbfbf" stroke="black" points="4.5,-0.5 4.5,-30.5 126.5,-30.5 126.5,-0.5 4.5,-0.5"/>
<text text-anchor="start" x="12.5" y="-18.5" font-family="Helvetica,sans-Serif" font-size="10.00">IG.Script.LoadableScript</text>
<text text-anchor="middle" x="65.5" y="-7.5" font-family="Helvetica,sans-Serif" font-size="10.00">ScalarFunctionCreator</text>
</a>
</g>
</g>
<!-- Node2 -->
<g id="node2" class="node"><title>Node2</title>
<g id="a_node2"><a xlink:href="../../da/d52/classIG_1_1Script_1_1LoadableScriptSpecialFunctionBase.html" target="_top" xlink:title="Base cls. for various special function loadable scripts.">
<polygon fill="white" stroke="black" points="37,-67.5 37,-86.5 210,-86.5 210,-67.5 37,-67.5"/>
<text text-anchor="middle" x="123.5" y="-74.5" font-family="Helvetica,sans-Serif" font-size="10.00">LoadableScriptSpecialFunctionBase</text>
</a>
</g>
</g>
<!-- Node2&#45;&gt;Node1 -->
<g id="edge1" class="edge"><title>Node2&#45;&gt;Node1</title>
<path fill="none" stroke="midnightblue" d="M107.992,-60.0906C99.0137,-50.8804 87.8157,-39.3928 79.1695,-30.523"/>
<polygon fill="midnightblue" stroke="midnightblue" points="105.703,-62.7574 115.19,-67.4751 110.716,-57.8712 105.703,-62.7574"/>
</g>
<!-- Node3 -->
<g id="node3" class="node"><title>Node3</title>
<g id="a_node3"><a xlink:href="../../d7/d15/classIG_1_1Lib_1_1LoadableScriptBase.html" target="_top" xlink:title="Base class for classes that can be dynamically loadeded from scripts and run, which provides function...">
<polygon fill="white" stroke="black" points="74.5,-123.5 74.5,-142.5 178.5,-142.5 178.5,-123.5 74.5,-123.5"/>
<text text-anchor="middle" x="126.5" y="-130.5" font-family="Helvetica,sans-Serif" font-size="10.00">LoadableScriptBase</text>
</a>
</g>
</g>
<!-- Node3&#45;&gt;Node2 -->
<g id="edge2" class="edge"><title>Node3&#45;&gt;Node2</title>
<path fill="none" stroke="midnightblue" d="M125.434,-112.805C124.939,-103.91 124.377,-93.7798 123.986,-86.7511"/>
<polygon fill="midnightblue" stroke="midnightblue" points="121.955,-113.293 126.005,-123.083 128.944,-112.904 121.955,-113.293"/>
</g>
<!-- Node4 -->
<g id="node4" class="node"><title>Node4</title>
<g id="a_node4"><a xlink:href="../../d7/d66/interfaceIG_1_1Lib_1_1ILoadableScript.html" target="_top" xlink:title="Interface for classes that can be dynamically loadeded from scripts and run, which provides functiona...">
<polygon fill="white" stroke="black" points="0,-179.5 0,-198.5 83,-198.5 83,-179.5 0,-179.5"/>
<text text-anchor="middle" x="41.5" y="-186.5" font-family="Helvetica,sans-Serif" font-size="10.00">ILoadableScript</text>
</a>
</g>
</g>
<!-- Node4&#45;&gt;Node1 -->
<g id="edge6" class="edge"><title>Node4&#45;&gt;Node1</title>
<path fill="none" stroke="midnightblue" d="M34.5631,-169.578C26.5331,-145.408 15.8161,-101.96 27.5,-67 32.0909,-53.2635 42.0505,-40.2664 50.6217,-30.8983"/>
<polygon fill="midnightblue" stroke="midnightblue" points="31.341,-170.965 37.9733,-179.227 37.9409,-168.632 31.341,-170.965"/>
</g>
<!-- Node4&#45;&gt;Node2 -->
<g id="edge5" class="edge"><title>Node4&#45;&gt;Node2</title>
<path fill="none" stroke="midnightblue" d="M45.412,-169.473C48.9824,-155.691 55.2899,-136.935 65.5,-123 76.9493,-107.373 95.2498,-94.4392 108.229,-86.5091"/>
<polygon fill="midnightblue" stroke="midnightblue" points="41.9895,-168.738 43.1132,-179.273 48.8045,-170.337 41.9895,-168.738"/>
</g>
<!-- Node4&#45;&gt;Node3 -->
<g id="edge3" class="edge"><title>Node4&#45;&gt;Node3</title>
<path fill="none" stroke="midnightblue" d="M63.6936,-173.901C79.28,-163.999 99.6297,-151.071 112.877,-142.655"/>
<polygon fill="midnightblue" stroke="midnightblue" points="61.7206,-171.007 55.1567,-179.324 65.4743,-176.916 61.7206,-171.007"/>
</g>
<!-- Node5 -->
<g id="node5" class="node"><title>Node5</title>
<g id="a_node5"><a xlink:href="../../d3/db6/interfaceIG_1_1Lib_1_1ILockable.html" target="_top" xlink:title="Lockable object, has a Lock property that returns object on which lock must be performed in order to ...">
<polygon fill="white" stroke="black" points="101.5,-179.5 101.5,-198.5 159.5,-198.5 159.5,-179.5 101.5,-179.5"/>
<text text-anchor="middle" x="130.5" y="-186.5" font-family="Helvetica,sans-Serif" font-size="10.00">ILockable</text>
</a>
</g>
</g>
<!-- Node5&#45;&gt;Node3 -->
<g id="edge4" class="edge"><title>Node5&#45;&gt;Node3</title>
<path fill="none" stroke="midnightblue" d="M129.1,-169.101C128.436,-160.136 127.675,-149.858 127.148,-142.751"/>
<polygon fill="midnightblue" stroke="midnightblue" points="125.61,-169.369 129.839,-179.083 132.591,-168.852 125.61,-169.369"/>
</g>
</g>
</svg>
