<?xml version="1.0" encoding="UTF-8" standalone="no"?>
<!DOCTYPE svg PUBLIC "-//W3C//DTD SVG 1.1//EN"
 "http://www.w3.org/Graphics/SVG/1.1/DTD/svg11.dtd">
<!-- Generated by graphviz version 2.38.0 (20140413.2041)
 -->
<!-- Title: AForge.Robotics.Surveyor.SRV1Camera Pages: 1 -->
<svg width="319pt" height="163pt"
 viewBox="0.00 0.00 319.00 163.00" xmlns="http://www.w3.org/2000/svg" xmlns:xlink="http://www.w3.org/1999/xlink">
<g id="graph0" class="graph" transform="scale(1 1) rotate(0) translate(4 159)">
<title>AForge.Robotics.Surveyor.SRV1Camera</title>
<polygon fill="white" stroke="none" points="-4,4 -4,-159 315,-159 315,4 -4,4"/>
<!-- Node1 -->
<g id="node1" class="node"><title>Node1</title>
<g id="a_node1"><a xlink:title="Provides access to video stream from Surveyor SRV&#45;1 Blackfin camera.">
<polygon fill="#bfbfbf" stroke="black" points="178,-67.5 178,-97.5 311,-97.5 311,-67.5 178,-67.5"/>
<text text-anchor="start" x="186" y="-85.5" font-family="Helvetica,sans-Serif" font-size="10.00">AForge.Robotics.Surveyor.</text>
<text text-anchor="middle" x="244.5" y="-74.5" font-family="Helvetica,sans-Serif" font-size="10.00">SRV1Camera</text>
</a>
</g>
</g>
<!-- Node3 -->
<g id="node3" class="node"><title>Node3</title>
<g id="a_node3"><a xlink:href="../../d7/d88/classAForge_1_1Robotics_1_1Surveyor_1_1SRV1.html" target="_top" xlink:title="Manipulation of Surveyor SRV&#45;1 Blackfin robot/camera.">
<polygon fill="white" stroke="black" points="118.5,-0.5 118.5,-19.5 276.5,-19.5 276.5,-0.5 118.5,-0.5"/>
<text text-anchor="middle" x="197.5" y="-7.5" font-family="Helvetica,sans-Serif" font-size="10.00">AForge.Robotics.Surveyor.SRV1</text>
</a>
</g>
</g>
<!-- Node1&#45;&gt;Node3 -->
<g id="edge3" class="edge"><title>Node1&#45;&gt;Node3</title>
<path fill="none" stroke="#9a32cd" stroke-dasharray="5,2" d="M204.409,-61.1949C200.46,-57.6548 196.998,-53.6024 194.5,-49 189.576,-39.9263 191.767,-27.8004 194.23,-19.7115"/>
<polygon fill="#9a32cd" stroke="#9a32cd" points="202.41,-64.0728 212.475,-67.3811 206.67,-58.5182 202.41,-64.0728"/>
<text text-anchor="middle" x="212.5" y="-41" font-family="Helvetica,sans-Serif" font-size="10.00"> camera</text>
</g>
<!-- Node2 -->
<g id="node2" class="node"><title>Node2</title>
<g id="a_node2"><a xlink:href="../../d3/d61/interfaceAForge_1_1Video_1_1IVideoSource.html" target="_top" xlink:title="Video source interface.">
<polygon fill="white" stroke="black" points="207.5,-135.5 207.5,-154.5 281.5,-154.5 281.5,-135.5 207.5,-135.5"/>
<text text-anchor="middle" x="244.5" y="-142.5" font-family="Helvetica,sans-Serif" font-size="10.00">IVideoSource</text>
</a>
</g>
</g>
<!-- Node2&#45;&gt;Node1 -->
<g id="edge1" class="edge"><title>Node2&#45;&gt;Node1</title>
<path fill="none" stroke="midnightblue" d="M244.5,-125.215C244.5,-116.356 244.5,-105.958 244.5,-97.7587"/>
<polygon fill="midnightblue" stroke="midnightblue" points="241,-125.332 244.5,-135.332 248,-125.332 241,-125.332"/>
</g>
<!-- Node3&#45;&gt;Node1 -->
<g id="edge2" class="edge"><title>Node3&#45;&gt;Node1</title>
<path fill="none" stroke="#9a32cd" stroke-dasharray="5,2" d="M222.622,-25.5003C227.131,-29.0823 231.38,-33.2706 234.5,-38 240.218,-46.6675 242.69,-58.1796 243.747,-67.1836"/>
<polygon fill="#9a32cd" stroke="#9a32cd" points="224.607,-22.6171 214.415,-19.7214 220.576,-28.3405 224.607,-22.6171"/>
<text text-anchor="middle" x="272" y="-41" font-family="Helvetica,sans-Serif" font-size="10.00"> communicator</text>
</g>
<!-- Node4 -->
<g id="node4" class="node"><title>Node4</title>
<g id="a_node4"><a xlink:href="../../df/dce/classAForge_1_1Robotics_1_1Surveyor_1_1SRV1_1_1CommunicationRequest.html" target="_top" xlink:title=" ">
<polygon fill="white" stroke="black" points="0,-67.5 0,-97.5 149,-97.5 149,-67.5 0,-67.5"/>
<text text-anchor="start" x="8" y="-85.5" font-family="Helvetica,sans-Serif" font-size="10.00">AForge.Robotics.Surveyor.</text>
<text text-anchor="middle" x="74.5" y="-74.5" font-family="Helvetica,sans-Serif" font-size="10.00">SRV1.CommunicationRequest</text>
</a>
</g>
</g>
<!-- Node4&#45;&gt;Node3 -->
<g id="edge4" class="edge"><title>Node4&#45;&gt;Node3</title>
<path fill="none" stroke="#9a32cd" stroke-dasharray="5,2" d="M77.0767,-57.4376C78.9496,-50.3385 82.1288,-43.1107 87.5,-38 96.3324,-29.596 107.339,-23.6791 118.948,-19.5374"/>
<polygon fill="#9a32cd" stroke="#9a32cd" points="73.5959,-57.0069 75.1643,-67.485 80.4725,-58.3159 73.5959,-57.0069"/>
<text text-anchor="middle" x="137.5" y="-41" font-family="Helvetica,sans-Serif" font-size="10.00"> lastRequestWithReply</text>
</g>
</g>
</svg>
