<?xml version="1.0" encoding="UTF-8" standalone="no"?>
<!DOCTYPE svg PUBLIC "-//W3C//DTD SVG 1.1//EN"
 "http://www.w3.org/Graphics/SVG/1.1/DTD/svg11.dtd">
<!-- Generated by graphviz version 2.38.0 (20140413.2041)
 -->
<!-- Title: IG.Script.ScriptGraphics3DBase Pages: 1 -->
<svg width="182pt" height="207pt"
 viewBox="0.00 0.00 181.50 207.00" xmlns="http://www.w3.org/2000/svg" xmlns:xlink="http://www.w3.org/1999/xlink">
<g id="graph0" class="graph" transform="scale(1 1) rotate(0) translate(4 203)">
<title>IG.Script.ScriptGraphics3DBase</title>
<polygon fill="white" stroke="none" points="-4,4 -4,-203 177.5,-203 177.5,4 -4,4"/>
<!-- Node1 -->
<g id="node1" class="node"><title>Node1</title>
<g id="a_node1"><a xlink:title="Base class for script classes with graphics examples.">
<polygon fill="#bfbfbf" stroke="black" points="17.5,-56.5 17.5,-86.5 145.5,-86.5 145.5,-56.5 17.5,-56.5"/>
<text text-anchor="start" x="25.5" y="-74.5" font-family="Helvetica,sans-Serif" font-size="10.00">IG.Script.ScriptGraphics3</text>
<text text-anchor="middle" x="81.5" y="-63.5" font-family="Helvetica,sans-Serif" font-size="10.00">DBase</text>
</a>
</g>
</g>
<!-- Node5 -->
<g id="node5" class="node"><title>Node5</title>
<g id="a_node5"><a xlink:href="../../d8/d0d/classIG_1_1Script_1_1ScriptExtGraphics3d.html" target="_top" xlink:title="Script class with graphics examples.">
<polygon fill="white" stroke="black" points="7.5,-0.5 7.5,-19.5 155.5,-19.5 155.5,-0.5 7.5,-0.5"/>
<text text-anchor="middle" x="81.5" y="-7.5" font-family="Helvetica,sans-Serif" font-size="10.00">IG.Script.ScriptExtGraphics3d</text>
</a>
</g>
</g>
<!-- Node1&#45;&gt;Node5 -->
<g id="edge5" class="edge"><title>Node1&#45;&gt;Node5</title>
<path fill="none" stroke="midnightblue" d="M81.5,-46.2892C81.5,-36.857 81.5,-26.6548 81.5,-19.6578"/>
<polygon fill="midnightblue" stroke="midnightblue" points="78.0001,-46.3993 81.5,-56.3993 85.0001,-46.3994 78.0001,-46.3993"/>
</g>
<!-- Node2 -->
<g id="node2" class="node"><title>Node2</title>
<g id="a_node2"><a xlink:href="../../d7/d15/classIG_1_1Lib_1_1LoadableScriptBase.html" target="_top" xlink:title="Base class for classes that can be dynamically loadeded from scripts and run, which provides function...">
<polygon fill="white" stroke="black" points="69.5,-123.5 69.5,-142.5 173.5,-142.5 173.5,-123.5 69.5,-123.5"/>
<text text-anchor="middle" x="121.5" y="-130.5" font-family="Helvetica,sans-Serif" font-size="10.00">LoadableScriptBase</text>
</a>
</g>
</g>
<!-- Node2&#45;&gt;Node1 -->
<g id="edge1" class="edge"><title>Node2&#45;&gt;Node1</title>
<path fill="none" stroke="midnightblue" d="M110.047,-114.963C103.992,-105.956 96.6492,-95.0344 90.9272,-86.523"/>
<polygon fill="midnightblue" stroke="midnightblue" points="107.285,-117.129 115.769,-123.475 113.094,-113.223 107.285,-117.129"/>
</g>
<!-- Node3 -->
<g id="node3" class="node"><title>Node3</title>
<g id="a_node3"><a xlink:href="../../d7/d66/interfaceIG_1_1Lib_1_1ILoadableScript.html" target="_top" xlink:title="Interface for classes that can be dynamically loadeded from scripts and run, which provides functiona...">
<polygon fill="white" stroke="black" points="0,-179.5 0,-198.5 83,-198.5 83,-179.5 0,-179.5"/>
<text text-anchor="middle" x="41.5" y="-186.5" font-family="Helvetica,sans-Serif" font-size="10.00">ILoadableScript</text>
</a>
</g>
</g>
<!-- Node3&#45;&gt;Node1 -->
<g id="edge4" class="edge"><title>Node3&#45;&gt;Node1</title>
<path fill="none" stroke="midnightblue" d="M46.2466,-169.793C49.8077,-156.667 54.9983,-138.591 60.5,-123 64.8604,-110.643 70.6221,-96.9341 75.0072,-86.9211"/>
<polygon fill="midnightblue" stroke="midnightblue" points="42.855,-168.928 43.6674,-179.492 49.6199,-170.727 42.855,-168.928"/>
</g>
<!-- Node3&#45;&gt;Node2 -->
<g id="edge2" class="edge"><title>Node3&#45;&gt;Node2</title>
<path fill="none" stroke="midnightblue" d="M62.8006,-173.622C77.415,-163.757 96.3268,-150.992 108.679,-142.655"/>
<polygon fill="midnightblue" stroke="midnightblue" points="60.6837,-170.828 54.3534,-179.324 64.6001,-176.63 60.6837,-170.828"/>
</g>
<!-- Node4 -->
<g id="node4" class="node"><title>Node4</title>
<g id="a_node4"><a xlink:href="../../d3/db6/interfaceIG_1_1Lib_1_1ILockable.html" target="_top" xlink:title="Lockable object, has a Lock property that returns object on which lock must be performed in order to ...">
<polygon fill="white" stroke="black" points="101.5,-179.5 101.5,-198.5 159.5,-198.5 159.5,-179.5 101.5,-179.5"/>
<text text-anchor="middle" x="130.5" y="-186.5" font-family="Helvetica,sans-Serif" font-size="10.00">ILockable</text>
</a>
</g>
</g>
<!-- Node4&#45;&gt;Node2 -->
<g id="edge3" class="edge"><title>Node4&#45;&gt;Node2</title>
<path fill="none" stroke="midnightblue" d="M127.35,-169.101C125.856,-160.136 124.143,-149.858 122.959,-142.751"/>
<polygon fill="midnightblue" stroke="midnightblue" points="123.917,-169.794 129.014,-179.083 130.822,-168.644 123.917,-169.794"/>
</g>
</g>
</svg>
