<?xml version="1.0" encoding="UTF-8" standalone="no"?>
<!DOCTYPE svg PUBLIC "-//W3C//DTD SVG 1.1//EN"
 "http://www.w3.org/Graphics/SVG/1.1/DTD/svg11.dtd">
<!-- Generated by graphviz version 2.38.0 (20140413.2041)
 -->
<!-- Title: AForge.Neuro.DistanceNeuron Pages: 1 -->
<svg width="157pt" height="163pt"
 viewBox="0.00 0.00 157.00 163.00" xmlns="http://www.w3.org/2000/svg" xmlns:xlink="http://www.w3.org/1999/xlink">
<g id="graph0" class="graph" transform="scale(1 1) rotate(0) translate(4 159)">
<title>AForge.Neuro.DistanceNeuron</title>
<polygon fill="white" stroke="none" points="-4,4 -4,-159 153,-159 153,4 -4,4"/>
<!-- Node1 -->
<g id="node1" class="node"><title>Node1</title>
<g id="a_node1"><a xlink:title="Distance neuron">
<polygon fill="#bfbfbf" stroke="black" points="0,-0.5 0,-19.5 149,-19.5 149,-0.5 0,-0.5"/>
<text text-anchor="middle" x="74.5" y="-7.5" font-family="Helvetica,sans-Serif" font-size="10.00">AForge.Neuro.DistanceNeuron</text>
</a>
</g>
</g>
<!-- Node2 -->
<g id="node2" class="node"><title>Node2</title>
<g id="a_node2"><a xlink:href="../../d9/d64/classAForge_1_1Neuro_1_1Neuron.html" target="_top" xlink:title="Base neuron class">
<polygon fill="white" stroke="black" points="51,-57.5 51,-76.5 98,-76.5 98,-57.5 51,-57.5"/>
<text text-anchor="middle" x="74.5" y="-64.5" font-family="Helvetica,sans-Serif" font-size="10.00">Neuron</text>
</a>
</g>
</g>
<!-- Node2&#45;&gt;Node1 -->
<g id="edge1" class="edge"><title>Node2&#45;&gt;Node1</title>
<path fill="none" stroke="midnightblue" d="M74.5,-47.1166C74.5,-37.8173 74.5,-27.0557 74.5,-19.7149"/>
<polygon fill="midnightblue" stroke="midnightblue" points="71.0001,-47.4062 74.5,-57.4063 78.0001,-47.4063 71.0001,-47.4062"/>
</g>
<!-- Node3 -->
<g id="node3" class="node"><title>Node3</title>
<g id="a_node3"><a xlink:title=" ">
<polygon fill="white" stroke="#bfbfbf" points="54,-135.5 54,-154.5 95,-154.5 95,-135.5 54,-135.5"/>
<text text-anchor="middle" x="74.5" y="-142.5" font-family="Helvetica,sans-Serif" font-size="10.00">static</text>
</a>
</g>
</g>
<!-- Node3&#45;&gt;Node2 -->
<g id="edge2" class="edge"><title>Node3&#45;&gt;Node2</title>
<path fill="none" stroke="#9a32cd" stroke-dasharray="5,2" d="M74.5,-125.224C74.5,-109.697 74.5,-88.3582 74.5,-76.6165"/>
<polygon fill="#9a32cd" stroke="#9a32cd" points="71.0001,-125.282 74.5,-135.282 78.0001,-125.282 71.0001,-125.282"/>
<text text-anchor="middle" x="98" y="-109" font-family="Helvetica,sans-Serif" font-size="10.00"> rand</text>
<text text-anchor="middle" x="98" y="-98" font-family="Helvetica,sans-Serif" font-size="10.00">randRange</text>
</g>
</g>
</svg>
