<?xml version="1.0" encoding="UTF-8" standalone="no"?>
<!DOCTYPE svg PUBLIC "-//W3C//DTD SVG 1.1//EN"
 "http://www.w3.org/Graphics/SVG/1.1/DTD/svg11.dtd">
<!-- Generated by graphviz version 2.38.0 (20140413.2041)
 -->
<!-- Title: IG.Gr3d.TestVtkGraphicBase Pages: 1 -->
<svg width="151pt" height="205pt"
 viewBox="0.00 0.00 151.00 205.00" xmlns="http://www.w3.org/2000/svg" xmlns:xlink="http://www.w3.org/1999/xlink">
<g id="graph0" class="graph" transform="scale(1 1) rotate(0) translate(4 201)">
<title>IG.Gr3d.TestVtkGraphicBase</title>
<polygon fill="white" stroke="none" points="-4,4 -4,-201 147,-201 147,4 -4,4"/>
<!-- Node1 -->
<g id="node1" class="node"><title>Node1</title>
<g id="a_node1"><a xlink:title="Tests of 3D graphics enabled by ActiViz (VTK wrapper library).">
<polygon fill="#bfbfbf" stroke="black" points="0,-0.5 0,-19.5 143,-19.5 143,-0.5 0,-0.5"/>
<text text-anchor="middle" x="71.5" y="-7.5" font-family="Helvetica,sans-Serif" font-size="10.00">IG.Gr3d.TestVtkGraphicBase</text>
</a>
</g>
</g>
<!-- Node2 -->
<g id="node2" class="node"><title>Node2</title>
<g id="a_node2"><a xlink:title=" ">
<polygon fill="white" stroke="#bfbfbf" points="51,-177.5 51,-196.5 92,-196.5 92,-177.5 51,-177.5"/>
<text text-anchor="middle" x="71.5" y="-184.5" font-family="Helvetica,sans-Serif" font-size="10.00">static</text>
</a>
</g>
</g>
<!-- Node2&#45;&gt;Node1 -->
<g id="edge1" class="edge"><title>Node2&#45;&gt;Node1</title>
<path fill="none" stroke="#9a32cd" stroke-dasharray="5,2" d="M71.5,-166.951C71.5,-129.297 71.5,-46.6537 71.5,-19.6932"/>
<polygon fill="#9a32cd" stroke="#9a32cd" points="68.0001,-167.081 71.5,-177.081 75.0001,-167.081 68.0001,-167.081"/>
<text text-anchor="middle" x="95" y="-151" font-family="Helvetica,sans-Serif" font-size="10.00"> maxValue</text>
<text text-anchor="middle" x="95" y="-140" font-family="Helvetica,sans-Serif" font-size="10.00">numi</text>
<text text-anchor="middle" x="95" y="-129" font-family="Helvetica,sans-Serif" font-size="10.00">numj</text>
<text text-anchor="middle" x="95" y="-118" font-family="Helvetica,sans-Serif" font-size="10.00">numk</text>
<text text-anchor="middle" x="95" y="-107" font-family="Helvetica,sans-Serif" font-size="10.00">maxX</text>
<text text-anchor="middle" x="95" y="-96" font-family="Helvetica,sans-Serif" font-size="10.00">maxY</text>
<text text-anchor="middle" x="95" y="-85" font-family="Helvetica,sans-Serif" font-size="10.00">minX</text>
<text text-anchor="middle" x="95" y="-74" font-family="Helvetica,sans-Serif" font-size="10.00">maxZ</text>
<text text-anchor="middle" x="95" y="-63" font-family="Helvetica,sans-Serif" font-size="10.00">minY</text>
<text text-anchor="middle" x="95" y="-52" font-family="Helvetica,sans-Serif" font-size="10.00">minZ</text>
<text text-anchor="middle" x="95" y="-41" font-family="Helvetica,sans-Serif" font-size="10.00">...</text>
</g>
</g>
</svg>
