<?xml version="1.0" encoding="UTF-8" standalone="no"?>
<!DOCTYPE svg PUBLIC "-//W3C//DTD SVG 1.1//EN"
 "http://www.w3.org/Graphics/SVG/1.1/DTD/svg11.dtd">
<!-- Generated by graphviz version 2.38.0 (20140413.2041)
 -->
<!-- Title: IG.Gr3d.ExampleValueFunctionDiff3D Pages: 1 -->
<svg width="413pt" height="288pt"
 viewBox="0.00 0.00 412.50 288.00" xmlns="http://www.w3.org/2000/svg" xmlns:xlink="http://www.w3.org/1999/xlink">
<g id="graph0" class="graph" transform="scale(1 1) rotate(0) translate(4 284)">
<title>IG.Gr3d.ExampleValueFunctionDiff3D</title>
<polygon fill="white" stroke="none" points="-4,4 -4,-284 408.5,-284 408.5,4 -4,4"/>
<!-- Node1 -->
<g id="node1" class="node"><title>Node1</title>
<g id="a_node1"><a xlink:title=" ">
<polygon fill="#bfbfbf" stroke="black" points="199.5,-0.5 199.5,-30.5 353.5,-30.5 353.5,-0.5 199.5,-0.5"/>
<text text-anchor="start" x="207.5" y="-18.5" font-family="Helvetica,sans-Serif" font-size="10.00">IG.Gr3d.ExampleValueFunction</text>
<text text-anchor="middle" x="276.5" y="-7.5" font-family="Helvetica,sans-Serif" font-size="10.00">Diff3D</text>
</a>
</g>
</g>
<!-- Node2 -->
<g id="node2" class="node"><title>Node2</title>
<g id="a_node2"><a xlink:href="../../de/d93/classIG_1_1Num_1_1Func3dBaseNoGradient.html" target="_top" xlink:title="Base class for scalar functions of 3 variables (implementations of the IFunc3d interface)....">
<polygon fill="white" stroke="black" points="125.5,-89.5 125.5,-108.5 245.5,-108.5 245.5,-89.5 125.5,-89.5"/>
<text text-anchor="middle" x="185.5" y="-96.5" font-family="Helvetica,sans-Serif" font-size="10.00">Func3dBaseNoGradient</text>
</a>
</g>
</g>
<!-- Node2&#45;&gt;Node1 -->
<g id="edge1" class="edge"><title>Node2&#45;&gt;Node1</title>
<path fill="none" stroke="midnightblue" d="M203.144,-82.1983C219.852,-67.2341 244.707,-44.9738 260.759,-30.5974"/>
<polygon fill="midnightblue" stroke="midnightblue" points="200.353,-79.9993 195.239,-89.2781 205.023,-85.2137 200.353,-79.9993"/>
</g>
<!-- Node3 -->
<g id="node3" class="node"><title>Node3</title>
<g id="a_node3"><a xlink:href="../../d4/d29/classIG_1_1Num_1_1Func3dBase.html" target="_top" xlink:title="Base class for scalar functions of 3 variables (base for implementation of IFunc3d interface).">
<polygon fill="white" stroke="black" points="150,-146.5 150,-165.5 221,-165.5 221,-146.5 150,-146.5"/>
<text text-anchor="middle" x="185.5" y="-153.5" font-family="Helvetica,sans-Serif" font-size="10.00">Func3dBase</text>
</a>
</g>
</g>
<!-- Node3&#45;&gt;Node2 -->
<g id="edge2" class="edge"><title>Node3&#45;&gt;Node2</title>
<path fill="none" stroke="midnightblue" d="M185.5,-136.117C185.5,-126.817 185.5,-116.056 185.5,-108.715"/>
<polygon fill="midnightblue" stroke="midnightblue" points="182,-136.406 185.5,-146.406 189,-136.406 182,-136.406"/>
</g>
<!-- Node4 -->
<g id="node4" class="node"><title>Node4</title>
<g id="a_node4"><a xlink:href="../../d2/d9e/classIG_1_1Num_1_1ScalarFunctionUntransformedBase.html" target="_top" xlink:title="Base class for defining scalar functions without possibility of affine transformation of parameters.">
<polygon fill="white" stroke="black" points="102,-203.5 102,-222.5 269,-222.5 269,-203.5 102,-203.5"/>
<text text-anchor="middle" x="185.5" y="-210.5" font-family="Helvetica,sans-Serif" font-size="10.00">ScalarFunctionUntransformedBase</text>
</a>
</g>
</g>
<!-- Node4&#45;&gt;Node3 -->
<g id="edge3" class="edge"><title>Node4&#45;&gt;Node3</title>
<path fill="none" stroke="midnightblue" d="M185.5,-193.117C185.5,-183.817 185.5,-173.056 185.5,-165.715"/>
<polygon fill="midnightblue" stroke="midnightblue" points="182,-193.406 185.5,-203.406 189,-193.406 182,-193.406"/>
</g>
<!-- Node5 -->
<g id="node5" class="node"><title>Node5</title>
<g id="a_node5"><a xlink:href="../../d8/d56/interfaceIG_1_1Num_1_1IScalarFunctionUntransformed.html" target="_top" xlink:title="Scalar functions of vector arguments.">
<polygon fill="white" stroke="black" points="0,-260.5 0,-279.5 147,-279.5 147,-260.5 0,-260.5"/>
<text text-anchor="middle" x="73.5" y="-267.5" font-family="Helvetica,sans-Serif" font-size="10.00">IScalarFunctionUntransformed</text>
</a>
</g>
</g>
<!-- Node5&#45;&gt;Node2 -->
<g id="edge8" class="edge"><title>Node5&#45;&gt;Node2</title>
<path fill="none" stroke="midnightblue" d="M70.786,-250.093C69.6938,-236.3 70.1085,-217.553 77.5,-203 99.676,-159.339 147.974,-124.005 171.736,-108.501"/>
<polygon fill="midnightblue" stroke="midnightblue" points="67.3398,-250.768 71.9378,-260.313 74.2958,-249.984 67.3398,-250.768"/>
</g>
<!-- Node5&#45;&gt;Node3 -->
<g id="edge6" class="edge"><title>Node5&#45;&gt;Node3</title>
<path fill="none" stroke="midnightblue" d="M74.8599,-250.075C76.7811,-235.731 81.4022,-216.287 92.5,-203 108.089,-184.337 133.099,-172.565 153.259,-165.607"/>
<polygon fill="midnightblue" stroke="midnightblue" points="71.3529,-249.968 73.8258,-260.27 78.3171,-250.675 71.3529,-249.968"/>
</g>
<!-- Node5&#45;&gt;Node4 -->
<g id="edge4" class="edge"><title>Node5&#45;&gt;Node4</title>
<path fill="none" stroke="midnightblue" d="M100.061,-255.957C121.114,-245.618 149.924,-231.47 168.123,-222.533"/>
<polygon fill="midnightblue" stroke="midnightblue" points="98.4333,-252.857 91,-260.406 101.519,-259.14 98.4333,-252.857"/>
</g>
<!-- Node6 -->
<g id="node6" class="node"><title>Node6</title>
<g id="a_node6"><a xlink:href="../../d5/d03/interfaceIG_1_1Num_1_1IFunc3d.html" target="_top" xlink:title="Represents scalar functions of 2 variables.">
<polygon fill="white" stroke="black" points="287,-203.5 287,-222.5 338,-222.5 338,-203.5 287,-203.5"/>
<text text-anchor="middle" x="312.5" y="-210.5" font-family="Helvetica,sans-Serif" font-size="10.00">IFunc3d</text>
</a>
</g>
</g>
<!-- Node6&#45;&gt;Node2 -->
<g id="edge7" class="edge"><title>Node6&#45;&gt;Node2</title>
<path fill="none" stroke="midnightblue" d="M294.969,-196.54C267.92,-172.685 216.892,-127.684 195.419,-108.748"/>
<polygon fill="midnightblue" stroke="midnightblue" points="292.719,-199.222 302.535,-203.212 297.349,-193.972 292.719,-199.222"/>
</g>
<!-- Node6&#45;&gt;Node3 -->
<g id="edge5" class="edge"><title>Node6&#45;&gt;Node3</title>
<path fill="none" stroke="midnightblue" d="M283.344,-199.374C259.394,-189.001 226.12,-174.591 205.204,-165.533"/>
<polygon fill="midnightblue" stroke="midnightblue" points="282.089,-202.644 292.656,-203.406 284.871,-196.22 282.089,-202.644"/>
</g>
<!-- Node7 -->
<g id="node7" class="node"><title>Node7</title>
<g id="a_node7"><a xlink:href="../../d8/d15/interfaceIG_1_1Num_1_1IFunc2d.html" target="_top" xlink:title="Represents scalar functions of 2 variables.">
<polygon fill="white" stroke="black" points="264,-89.5 264,-108.5 351,-108.5 351,-89.5 264,-89.5"/>
<text text-anchor="middle" x="307.5" y="-96.5" font-family="Helvetica,sans-Serif" font-size="10.00">IG.Num.IFunc2d</text>
</a>
</g>
</g>
<!-- Node7&#45;&gt;Node1 -->
<g id="edge9" class="edge"><title>Node7&#45;&gt;Node1</title>
<path fill="none" stroke="#9a32cd" stroke-dasharray="5,2" d="M300.525,-79.6633C294.875,-64.8073 287.03,-44.1824 281.862,-30.5974"/>
<polygon fill="#9a32cd" stroke="#9a32cd" points="297.356,-81.1757 304.182,-89.2781 303.899,-78.687 297.356,-81.1757"/>
<text text-anchor="middle" x="351" y="-63" font-family="Helvetica,sans-Serif" font-size="10.00"> _originalFunction</text>
<text text-anchor="middle" x="351" y="-52" font-family="Helvetica,sans-Serif" font-size="10.00">_oapproximatedFunction</text>
</g>
</g>
</svg>
