<?xml version="1.0" encoding="UTF-8" standalone="no"?>
<!DOCTYPE svg PUBLIC "-//W3C//DTD SVG 1.1//EN"
 "http://www.w3.org/Graphics/SVG/1.1/DTD/svg11.dtd">
<!-- Generated by graphviz version 2.38.0 (20140413.2041)
 -->
<!-- Title: AForge.Imaging.Filters.BlobsFiltering Pages: 1 -->
<svg width="379pt" height="230pt"
 viewBox="0.00 0.00 379.00 230.00" xmlns="http://www.w3.org/2000/svg" xmlns:xlink="http://www.w3.org/1999/xlink">
<g id="graph0" class="graph" transform="scale(1 1) rotate(0) translate(4 226)">
<title>AForge.Imaging.Filters.BlobsFiltering</title>
<polygon fill="white" stroke="none" points="-4,4 -4,-226 375,-226 375,4 -4,4"/>
<!-- Node1 -->
<g id="node1" class="node"><title>Node1</title>
<g id="a_node1"><a xlink:title="Blobs filtering by size.">
<polygon fill="#bfbfbf" stroke="black" points="124,-0.5 124,-30.5 267,-30.5 267,-0.5 124,-0.5"/>
<text text-anchor="start" x="132" y="-18.5" font-family="Helvetica,sans-Serif" font-size="10.00">AForge.Imaging.Filters.Blobs</text>
<text text-anchor="middle" x="195.5" y="-7.5" font-family="Helvetica,sans-Serif" font-size="10.00">Filtering</text>
</a>
</g>
</g>
<!-- Node2 -->
<g id="node2" class="node"><title>Node2</title>
<g id="a_node2"><a xlink:href="../../d6/d11/classAForge_1_1Imaging_1_1Filters_1_1BaseInPlaceFilter.html" target="_top" xlink:title="Base class for filters, which may be applied directly to the source image.">
<polygon fill="white" stroke="black" points="58,-78.5 58,-97.5 151,-97.5 151,-78.5 58,-78.5"/>
<text text-anchor="middle" x="104.5" y="-85.5" font-family="Helvetica,sans-Serif" font-size="10.00">BaseInPlaceFilter</text>
</a>
</g>
</g>
<!-- Node2&#45;&gt;Node1 -->
<g id="edge1" class="edge"><title>Node2&#45;&gt;Node1</title>
<path fill="none" stroke="midnightblue" d="M123.699,-72.1262C139.519,-59.8698 161.8,-42.6084 177.331,-30.5762"/>
<polygon fill="midnightblue" stroke="midnightblue" points="121.42,-69.4641 115.658,-78.3553 125.707,-74.9977 121.42,-69.4641"/>
</g>
<!-- Node3 -->
<g id="node3" class="node"><title>Node3</title>
<g id="a_node3"><a xlink:href="../../dd/d51/interfaceAForge_1_1Imaging_1_1Filters_1_1IFilter.html" target="_top" xlink:title="Image processing filter interface.">
<polygon fill="white" stroke="black" points="0,-135.5 0,-154.5 41,-154.5 41,-135.5 0,-135.5"/>
<text text-anchor="middle" x="20.5" y="-142.5" font-family="Helvetica,sans-Serif" font-size="10.00">IFilter</text>
</a>
</g>
</g>
<!-- Node3&#45;&gt;Node2 -->
<g id="edge2" class="edge"><title>Node3&#45;&gt;Node2</title>
<path fill="none" stroke="midnightblue" d="M42.15,-129.824C57.7578,-119.605 78.3099,-106.148 91.4672,-97.5334"/>
<polygon fill="midnightblue" stroke="midnightblue" points="40.0739,-127 33.625,-135.406 43.9085,-132.857 40.0739,-127"/>
</g>
<!-- Node4 -->
<g id="node4" class="node"><title>Node4</title>
<g id="a_node4"><a xlink:href="../../de/d9b/interfaceAForge_1_1Imaging_1_1Filters_1_1IInPlaceFilter.html" target="_top" xlink:title="In&#45;place filter interface.">
<polygon fill="white" stroke="black" points="59,-135.5 59,-154.5 132,-154.5 132,-135.5 59,-135.5"/>
<text text-anchor="middle" x="95.5" y="-142.5" font-family="Helvetica,sans-Serif" font-size="10.00">IInPlaceFilter</text>
</a>
</g>
</g>
<!-- Node4&#45;&gt;Node2 -->
<g id="edge3" class="edge"><title>Node4&#45;&gt;Node2</title>
<path fill="none" stroke="midnightblue" d="M98.5399,-125.423C100.073,-116.054 101.86,-105.136 103.074,-97.7149"/>
<polygon fill="midnightblue" stroke="midnightblue" points="95.0672,-124.972 96.9063,-135.406 101.975,-126.103 95.0672,-124.972"/>
</g>
<!-- Node5 -->
<g id="node5" class="node"><title>Node5</title>
<g id="a_node5"><a xlink:href="../../d7/dec/interfaceAForge_1_1Imaging_1_1Filters_1_1IFilterInformation.html" target="_top" xlink:title="Interface which provides information about image processing filter.">
<polygon fill="white" stroke="black" points="150.5,-135.5 150.5,-154.5 238.5,-154.5 238.5,-135.5 150.5,-135.5"/>
<text text-anchor="middle" x="194.5" y="-142.5" font-family="Helvetica,sans-Serif" font-size="10.00">IFilterInformation</text>
</a>
</g>
</g>
<!-- Node5&#45;&gt;Node2 -->
<g id="edge4" class="edge"><title>Node5&#45;&gt;Node2</title>
<path fill="none" stroke="midnightblue" d="M171.771,-130.11C154.993,-119.857 132.693,-106.229 118.464,-97.5334"/>
<polygon fill="midnightblue" stroke="midnightblue" points="170.08,-133.178 180.438,-135.406 173.73,-127.205 170.08,-133.178"/>
</g>
<!-- Node6 -->
<g id="node6" class="node"><title>Node6</title>
<g id="a_node6"><a xlink:href="../../d1/d9f/classAForge_1_1Imaging_1_1BlobCounter.html" target="_top" xlink:title="Blob counter &#45; counts objects in image, which are separated by black background.">
<polygon fill="white" stroke="black" points="187,-78.5 187,-97.5 328,-97.5 328,-78.5 187,-78.5"/>
<text text-anchor="middle" x="257.5" y="-85.5" font-family="Helvetica,sans-Serif" font-size="10.00">AForge.Imaging.BlobCounter</text>
</a>
</g>
</g>
<!-- Node6&#45;&gt;Node1 -->
<g id="edge5" class="edge"><title>Node6&#45;&gt;Node1</title>
<path fill="none" stroke="#9a32cd" stroke-dasharray="5,2" d="M243.204,-70.7443C232.523,-58.5984 218.069,-42.1628 207.879,-30.5762"/>
<polygon fill="#9a32cd" stroke="#9a32cd" points="240.665,-73.1574 249.898,-78.3553 245.922,-68.5347 240.665,-73.1574"/>
<text text-anchor="middle" x="259" y="-52" font-family="Helvetica,sans-Serif" font-size="10.00"> blobCounter</text>
</g>
<!-- Node7 -->
<g id="node7" class="node"><title>Node7</title>
<g id="a_node7"><a xlink:href="../../d7/d79/classAForge_1_1Imaging_1_1BlobCounterBase.html" target="_top" xlink:title="Base class for different blob counting algorithms.">
<polygon fill="white" stroke="black" points="256.5,-135.5 256.5,-154.5 348.5,-154.5 348.5,-135.5 256.5,-135.5"/>
<text text-anchor="middle" x="302.5" y="-142.5" font-family="Helvetica,sans-Serif" font-size="10.00">BlobCounterBase</text>
</a>
</g>
</g>
<!-- Node7&#45;&gt;Node6 -->
<g id="edge6" class="edge"><title>Node7&#45;&gt;Node6</title>
<path fill="none" stroke="midnightblue" d="M289.026,-127.532C281.011,-117.736 271.164,-105.701 264.63,-97.7149"/>
<polygon fill="midnightblue" stroke="midnightblue" points="286.427,-129.883 295.469,-135.406 291.845,-125.45 286.427,-129.883"/>
</g>
<!-- Node8 -->
<g id="node8" class="node"><title>Node8</title>
<g id="a_node8"><a xlink:href="../../d6/dc7/interfaceAForge_1_1Imaging_1_1IBlobsFilter.html" target="_top" xlink:title="Interface for custom blobs&#39; filters used for filtering blobs after blob counting.">
<polygon fill="white" stroke="black" points="234,-202.5 234,-221.5 371,-221.5 371,-202.5 234,-202.5"/>
<text text-anchor="middle" x="302.5" y="-209.5" font-family="Helvetica,sans-Serif" font-size="10.00">AForge.Imaging.IBlobsFilter</text>
</a>
</g>
</g>
<!-- Node8&#45;&gt;Node7 -->
<g id="edge7" class="edge"><title>Node8&#45;&gt;Node7</title>
<path fill="none" stroke="#9a32cd" stroke-dasharray="5,2" d="M302.5,-192.037C302.5,-179.67 302.5,-164.12 302.5,-154.627"/>
<polygon fill="#9a32cd" stroke="#9a32cd" points="299,-192.234 302.5,-202.234 306,-192.234 299,-192.234"/>
<text text-anchor="middle" x="313.5" y="-176" font-family="Helvetica,sans-Serif" font-size="10.00"> filter</text>
</g>
</g>
</svg>
