<?xml version="1.0" encoding="UTF-8" standalone="no"?>
<!DOCTYPE svg PUBLIC "-//W3C//DTD SVG 1.1//EN"
 "http://www.w3.org/Graphics/SVG/1.1/DTD/svg11.dtd">
<!-- Generated by graphviz version 2.38.0 (20140413.2041)
 -->
<!-- Title: IG.Lib.AutopsyBase Pages: 1 -->
<svg width="300pt" height="154pt"
 viewBox="0.00 0.00 300.00 153.50" xmlns="http://www.w3.org/2000/svg" xmlns:xlink="http://www.w3.org/1999/xlink">
<g id="graph0" class="graph" transform="scale(1 1) rotate(0) translate(4 149.5)">
<title>IG.Lib.AutopsyBase</title>
<polygon fill="white" stroke="none" points="-4,4 -4,-149.5 296,-149.5 296,4 -4,4"/>
<!-- Node1 -->
<g id="node1" class="node"><title>Node1</title>
<g id="a_node1"><a xlink:title="Base class for Text fields of autopsy declaration">
<polygon fill="#bfbfbf" stroke="black" points="0,-57.5 0,-76.5 104,-76.5 104,-57.5 0,-57.5"/>
<text text-anchor="middle" x="52" y="-64.5" font-family="Helvetica,sans-Serif" font-size="10.00">IG.Lib.AutopsyBase</text>
</a>
</g>
</g>
<!-- Node2 -->
<g id="node2" class="node"><title>Node2</title>
<g id="a_node2"><a xlink:href="../../de/d7c/classIG_1_1Lib_1_1AutopsyAssociatedDisease.html" target="_top" xlink:title=" ">
<polygon fill="white" stroke="black" points="151,-115 151,-145 281,-145 281,-115 151,-115"/>
<text text-anchor="start" x="159" y="-133" font-family="Helvetica,sans-Serif" font-size="10.00">IG.Lib.AutopsyAssociated</text>
<text text-anchor="middle" x="216" y="-122" font-family="Helvetica,sans-Serif" font-size="10.00">Disease</text>
</a>
</g>
</g>
<!-- Node1&#45;&gt;Node2 -->
<g id="edge1" class="edge"><title>Node1&#45;&gt;Node2</title>
<path fill="none" stroke="midnightblue" d="M82.7648,-80.7934C99.4421,-88.3209 120.708,-97.5886 140,-105 148.84,-108.396 158.364,-111.778 167.56,-114.906"/>
<polygon fill="midnightblue" stroke="midnightblue" points="84.0769,-77.5452 73.5252,-76.5896 81.1779,-83.9167 84.0769,-77.5452"/>
</g>
<!-- Node3 -->
<g id="node3" class="node"><title>Node3</title>
<g id="a_node3"><a xlink:href="../../dd/dfd/classIG_1_1Lib_1_1AutopsyBasicDisease.html" target="_top" xlink:title=" ">
<polygon fill="white" stroke="black" points="145.5,-76.5 145.5,-95.5 286.5,-95.5 286.5,-76.5 145.5,-76.5"/>
<text text-anchor="middle" x="216" y="-83.5" font-family="Helvetica,sans-Serif" font-size="10.00">IG.Lib.AutopsyBasicDisease</text>
</a>
</g>
</g>
<!-- Node1&#45;&gt;Node3 -->
<g id="edge2" class="edge"><title>Node1&#45;&gt;Node3</title>
<path fill="none" stroke="midnightblue" d="M114.26,-74.1848C124.435,-75.3782 135.053,-76.6235 145.416,-77.8389"/>
<polygon fill="midnightblue" stroke="midnightblue" points="114.597,-70.7005 104.258,-73.0117 113.782,-77.6528 114.597,-70.7005"/>
</g>
<!-- Node4 -->
<g id="node4" class="node"><title>Node4</title>
<g id="a_node4"><a xlink:href="../../d7/d4a/classIG_1_1Lib_1_1AutopsyDeathReason.html" target="_top" xlink:title=" ">
<polygon fill="white" stroke="black" points="146,-38.5 146,-57.5 286,-57.5 286,-38.5 146,-38.5"/>
<text text-anchor="middle" x="216" y="-45.5" font-family="Helvetica,sans-Serif" font-size="10.00">IG.Lib.AutopsyDeathReason</text>
</a>
</g>
</g>
<!-- Node1&#45;&gt;Node4 -->
<g id="edge3" class="edge"><title>Node1&#45;&gt;Node4</title>
<path fill="none" stroke="midnightblue" d="M114.332,-59.8068C124.581,-58.6047 135.278,-57.3501 145.71,-56.1266"/>
<polygon fill="midnightblue" stroke="midnightblue" points="113.782,-56.3472 104.258,-60.9883 114.597,-63.2995 113.782,-56.3472"/>
</g>
<!-- Node5 -->
<g id="node5" class="node"><title>Node5</title>
<g id="a_node5"><a xlink:href="../../d2/d64/classIG_1_1Lib_1_1AutopsyOtherInformation.html" target="_top" xlink:title=" ">
<polygon fill="white" stroke="black" points="140,-0.5 140,-19.5 292,-19.5 292,-0.5 140,-0.5"/>
<text text-anchor="middle" x="216" y="-7.5" font-family="Helvetica,sans-Serif" font-size="10.00">IG.Lib.AutopsyOtherInformation</text>
</a>
</g>
</g>
<!-- Node1&#45;&gt;Node5 -->
<g id="edge4" class="edge"><title>Node1&#45;&gt;Node5</title>
<path fill="none" stroke="midnightblue" d="M81.5707,-53.1081C98.3255,-45.3205 120.057,-35.8301 140,-29 150.293,-25.4748 161.581,-22.2783 172.204,-19.5553"/>
<polygon fill="midnightblue" stroke="midnightblue" points="79.8846,-50.0335 72.3318,-57.4636 82.8696,-56.3652 79.8846,-50.0335"/>
</g>
</g>
</svg>
