<?xml version="1.0" encoding="UTF-8" standalone="no"?>
<!DOCTYPE svg PUBLIC "-//W3C//DTD SVG 1.1//EN"
 "http://www.w3.org/Graphics/SVG/1.1/DTD/svg11.dtd">
<!-- Generated by graphviz version 2.38.0 (20140413.2041)
 -->
<!-- Title: Player.URLForm Pages: 1 -->
<svg width="154pt" height="139pt"
 viewBox="0.00 0.00 153.50 139.00" xmlns="http://www.w3.org/2000/svg" xmlns:xlink="http://www.w3.org/1999/xlink">
<g id="graph0" class="graph" transform="scale(1 1) rotate(0) translate(4 135)">
<title>Player.URLForm</title>
<polygon fill="white" stroke="none" points="-4,4 -4,-135 149.5,-135 149.5,4 -4,4"/>
<!-- Node1 -->
<g id="node1" class="node"><title>Node1</title>
<g id="a_node1"><a xlink:title=" ">
<polygon fill="#bfbfbf" stroke="black" points="6,-0.5 6,-19.5 95,-19.5 95,-0.5 6,-0.5"/>
<text text-anchor="middle" x="50.5" y="-7.5" font-family="Helvetica,sans-Serif" font-size="10.00">Player.URLForm</text>
</a>
</g>
</g>
<!-- Node2 -->
<g id="node2" class="node"><title>Node2</title>
<g id="a_node2"><a xlink:title=" ">
<polygon fill="white" stroke="#bfbfbf" points="0,-111.5 0,-130.5 39,-130.5 39,-111.5 0,-111.5"/>
<text text-anchor="middle" x="19.5" y="-118.5" font-family="Helvetica,sans-Serif" font-size="10.00">Form</text>
</a>
</g>
</g>
<!-- Node2&#45;&gt;Node1 -->
<g id="edge1" class="edge"><title>Node2&#45;&gt;Node1</title>
<path fill="none" stroke="midnightblue" d="M24.7564,-101.518C31.5467,-77.6424 43.0859,-37.0688 48.0788,-19.5133"/>
<polygon fill="midnightblue" stroke="midnightblue" points="21.3016,-100.871 21.9325,-111.447 28.0346,-102.786 21.3016,-100.871"/>
</g>
<!-- Node3 -->
<g id="node3" class="node"><title>Node3</title>
<g id="a_node3"><a xlink:title=" ">
<polygon fill="white" stroke="#bfbfbf" points="57.5,-111.5 57.5,-130.5 107.5,-130.5 107.5,-111.5 57.5,-111.5"/>
<text text-anchor="middle" x="82.5" y="-118.5" font-family="Helvetica,sans-Serif" font-size="10.00">System</text>
</a>
</g>
</g>
<!-- Node3&#45;&gt;Node1 -->
<g id="edge2" class="edge"><title>Node3&#45;&gt;Node1</title>
<path fill="none" stroke="#9a32cd" stroke-dasharray="5,2" d="M77.1688,-101.841C70.1727,-78.01 58.1765,-37.1482 52.9993,-19.5133"/>
<polygon fill="#9a32cd" stroke="#9a32cd" points="73.8138,-102.838 79.989,-111.447 80.5303,-100.866 73.8138,-102.838"/>
<text text-anchor="middle" x="110" y="-85" font-family="Helvetica,sans-Serif" font-size="10.00"> okButton</text>
<text text-anchor="middle" x="110" y="-74" font-family="Helvetica,sans-Serif" font-size="10.00">cancelButton</text>
<text text-anchor="middle" x="110" y="-63" font-family="Helvetica,sans-Serif" font-size="10.00">descriptionLabel</text>
<text text-anchor="middle" x="110" y="-52" font-family="Helvetica,sans-Serif" font-size="10.00">components</text>
<text text-anchor="middle" x="110" y="-41" font-family="Helvetica,sans-Serif" font-size="10.00">urlBox</text>
</g>
</g>
</svg>
