<?xml version="1.0" encoding="UTF-8" standalone="no"?>
<!DOCTYPE svg PUBLIC "-//W3C//DTD SVG 1.1//EN"
 "http://www.w3.org/Graphics/SVG/1.1/DTD/svg11.dtd">
<!-- Generated by graphviz version 2.38.0 (20140413.2041)
 -->
<!-- Title: NUnit.Framework.TestCaseSourceAttribute Pages: 1 -->
<svg width="262pt" height="151pt"
 viewBox="0.00 0.00 261.50 151.00" xmlns="http://www.w3.org/2000/svg" xmlns:xlink="http://www.w3.org/1999/xlink">
<g id="graph0" class="graph" transform="scale(1 1) rotate(0) translate(4 147)">
<title>NUnit.Framework.TestCaseSourceAttribute</title>
<polygon fill="white" stroke="none" points="-4,4 -4,-147 257.5,-147 257.5,4 -4,4"/>
<!-- Node1 -->
<g id="node1" class="node"><title>Node1</title>
<g id="a_node1"><a xlink:title="TestCaseSourceAttribute indicates the source to be used to provide test cases for a test method.">
<polygon fill="#bfbfbf" stroke="black" points="61.5,-0.5 61.5,-30.5 197.5,-30.5 197.5,-0.5 61.5,-0.5"/>
<text text-anchor="start" x="69.5" y="-18.5" font-family="Helvetica,sans-Serif" font-size="10.00">NUnit.Framework.TestCase</text>
<text text-anchor="middle" x="129.5" y="-7.5" font-family="Helvetica,sans-Serif" font-size="10.00">SourceAttribute</text>
</a>
</g>
</g>
<!-- Node2 -->
<g id="node2" class="node"><title>Node2</title>
<g id="a_node2"><a xlink:href="../../d3/dee/classNUnit_1_1Framework_1_1NUnitAttribute.html" target="_top" xlink:title="The abstract base class for all custom attributes defined by NUnit.">
<polygon fill="white" stroke="black" points="0,-67.5 0,-86.5 77,-86.5 77,-67.5 0,-67.5"/>
<text text-anchor="middle" x="38.5" y="-74.5" font-family="Helvetica,sans-Serif" font-size="10.00">NUnitAttribute</text>
</a>
</g>
</g>
<!-- Node2&#45;&gt;Node1 -->
<g id="edge1" class="edge"><title>Node2&#45;&gt;Node1</title>
<path fill="none" stroke="midnightblue" d="M60.311,-61.739C74.7739,-52.2824 93.6653,-39.9304 108.053,-30.523"/>
<polygon fill="midnightblue" stroke="midnightblue" points="57.9924,-59.0732 51.5381,-67.4751 61.8232,-64.932 57.9924,-59.0732"/>
</g>
<!-- Node3 -->
<g id="node3" class="node"><title>Node3</title>
<g id="a_node3"><a xlink:title=" ">
<polygon fill="white" stroke="#bfbfbf" points="12,-123.5 12,-142.5 65,-142.5 65,-123.5 12,-123.5"/>
<text text-anchor="middle" x="38.5" y="-130.5" font-family="Helvetica,sans-Serif" font-size="10.00">Attribute</text>
</a>
</g>
</g>
<!-- Node3&#45;&gt;Node2 -->
<g id="edge2" class="edge"><title>Node3&#45;&gt;Node2</title>
<path fill="none" stroke="midnightblue" d="M38.5,-112.805C38.5,-103.91 38.5,-93.7798 38.5,-86.7511"/>
<polygon fill="midnightblue" stroke="midnightblue" points="35.0001,-113.083 38.5,-123.083 42.0001,-113.083 35.0001,-113.083"/>
</g>
<!-- Node4 -->
<g id="node4" class="node"><title>Node4</title>
<g id="a_node4"><a xlink:href="../../d9/d9f/interfaceNUnit_1_1Framework_1_1Interfaces_1_1ITestBuilder.html" target="_top" xlink:title="The ITestBuilder interface is exposed by a class that knows how to build one or more TestMethods from...">
<polygon fill="white" stroke="black" points="95.5,-67.5 95.5,-86.5 163.5,-86.5 163.5,-67.5 95.5,-67.5"/>
<text text-anchor="middle" x="129.5" y="-74.5" font-family="Helvetica,sans-Serif" font-size="10.00">ITestBuilder</text>
</a>
</g>
</g>
<!-- Node4&#45;&gt;Node1 -->
<g id="edge3" class="edge"><title>Node4&#45;&gt;Node1</title>
<path fill="none" stroke="midnightblue" d="M129.5,-57.2349C129.5,-48.5864 129.5,-38.4969 129.5,-30.523"/>
<polygon fill="midnightblue" stroke="midnightblue" points="126,-57.4751 129.5,-67.4751 133,-57.4751 126,-57.4751"/>
</g>
<!-- Node5 -->
<g id="node5" class="node"><title>Node5</title>
<g id="a_node5"><a xlink:href="../../d3/d21/interfaceNUnit_1_1Framework_1_1Interfaces_1_1IImplyFixture.html" target="_top" xlink:title="IImplyFixture is an empty marker interface used by attributes like TestAttribute that cause the class...">
<polygon fill="white" stroke="black" points="181.5,-67.5 181.5,-86.5 253.5,-86.5 253.5,-67.5 181.5,-67.5"/>
<text text-anchor="middle" x="217.5" y="-74.5" font-family="Helvetica,sans-Serif" font-size="10.00">IImplyFixture</text>
</a>
</g>
</g>
<!-- Node5&#45;&gt;Node1 -->
<g id="edge4" class="edge"><title>Node5&#45;&gt;Node1</title>
<path fill="none" stroke="midnightblue" d="M196.408,-61.739C182.422,-52.2824 164.153,-39.9304 150.24,-30.523"/>
<polygon fill="midnightblue" stroke="midnightblue" points="194.647,-64.7733 204.892,-67.4751 198.568,-58.9744 194.647,-64.7733"/>
</g>
</g>
</svg>
