<?xml version="1.0" encoding="UTF-8" standalone="no"?>
<!DOCTYPE svg PUBLIC "-//W3C//DTD SVG 1.1//EN"
 "http://www.w3.org/Graphics/SVG/1.1/DTD/svg11.dtd">
<!-- Generated by graphviz version 2.38.0 (20140413.2041)
 -->
<!-- Title: NUnit.Framework.TheoryAttribute Pages: 1 -->
<svg width="334pt" height="196pt"
 viewBox="0.00 0.00 333.50 196.00" xmlns="http://www.w3.org/2000/svg" xmlns:xlink="http://www.w3.org/1999/xlink">
<g id="graph0" class="graph" transform="scale(1 1) rotate(0) translate(4 192)">
<title>NUnit.Framework.TheoryAttribute</title>
<polygon fill="white" stroke="none" points="-4,4 -4,-192 329.5,-192 329.5,4 -4,4"/>
<!-- Node1 -->
<g id="node1" class="node"><title>Node1</title>
<g id="a_node1"><a xlink:title="Adding this attribute to a method within a TestFixtureAttributeclass makes the method callable from t...">
<polygon fill="#bfbfbf" stroke="black" points="145,-0.5 145,-19.5 306,-19.5 306,-0.5 145,-0.5"/>
<text text-anchor="middle" x="225.5" y="-7.5" font-family="Helvetica,sans-Serif" font-size="10.00">NUnit.Framework.TheoryAttribute</text>
</a>
</g>
</g>
<!-- Node2 -->
<g id="node2" class="node"><title>Node2</title>
<g id="a_node2"><a xlink:href="../../d4/db0/classNUnit_1_1Framework_1_1CombiningStrategyAttribute.html" target="_top" xlink:title="Marks a test to use a particular CombiningStrategy to join any parameter data provided....">
<polygon fill="white" stroke="black" points="61.5,-56.5 61.5,-75.5 197.5,-75.5 197.5,-56.5 61.5,-56.5"/>
<text text-anchor="middle" x="129.5" y="-63.5" font-family="Helvetica,sans-Serif" font-size="10.00">CombiningStrategyAttribute</text>
</a>
</g>
</g>
<!-- Node2&#45;&gt;Node1 -->
<g id="edge1" class="edge"><title>Node2&#45;&gt;Node1</title>
<path fill="none" stroke="midnightblue" d="M154.074,-51.1774C171.739,-41.2407 195.013,-28.1492 210.114,-19.6545"/>
<polygon fill="midnightblue" stroke="midnightblue" points="151.924,-48.3708 144.924,-56.324 155.356,-54.4718 151.924,-48.3708"/>
</g>
<!-- Node3 -->
<g id="node3" class="node"><title>Node3</title>
<g id="a_node3"><a xlink:href="../../d3/dee/classNUnit_1_1Framework_1_1NUnitAttribute.html" target="_top" xlink:title="The abstract base class for all custom attributes defined by NUnit.">
<polygon fill="white" stroke="black" points="0,-112.5 0,-131.5 77,-131.5 77,-112.5 0,-112.5"/>
<text text-anchor="middle" x="38.5" y="-119.5" font-family="Helvetica,sans-Serif" font-size="10.00">NUnitAttribute</text>
</a>
</g>
</g>
<!-- Node3&#45;&gt;Node2 -->
<g id="edge2" class="edge"><title>Node3&#45;&gt;Node2</title>
<path fill="none" stroke="midnightblue" d="M61.7937,-107.177C78.5389,-97.2407 100.6,-84.1492 114.916,-75.6545"/>
<polygon fill="midnightblue" stroke="midnightblue" points="59.9344,-104.211 53.1207,-112.324 63.5067,-110.231 59.9344,-104.211"/>
</g>
<!-- Node4 -->
<g id="node4" class="node"><title>Node4</title>
<g id="a_node4"><a xlink:title=" ">
<polygon fill="white" stroke="#bfbfbf" points="12,-168.5 12,-187.5 65,-187.5 65,-168.5 12,-168.5"/>
<text text-anchor="middle" x="38.5" y="-175.5" font-family="Helvetica,sans-Serif" font-size="10.00">Attribute</text>
</a>
</g>
</g>
<!-- Node4&#45;&gt;Node3 -->
<g id="edge3" class="edge"><title>Node4&#45;&gt;Node3</title>
<path fill="none" stroke="midnightblue" d="M38.5,-157.805C38.5,-148.91 38.5,-138.78 38.5,-131.751"/>
<polygon fill="midnightblue" stroke="midnightblue" points="35.0001,-158.083 38.5,-168.083 42.0001,-158.083 35.0001,-158.083"/>
</g>
<!-- Node5 -->
<g id="node5" class="node"><title>Node5</title>
<g id="a_node5"><a xlink:href="../../d9/d9f/interfaceNUnit_1_1Framework_1_1Interfaces_1_1ITestBuilder.html" target="_top" xlink:title="The ITestBuilder interface is exposed by a class that knows how to build one or more TestMethods from...">
<polygon fill="white" stroke="black" points="188.5,-112.5 188.5,-131.5 256.5,-131.5 256.5,-112.5 188.5,-112.5"/>
<text text-anchor="middle" x="222.5" y="-119.5" font-family="Helvetica,sans-Serif" font-size="10.00">ITestBuilder</text>
</a>
</g>
</g>
<!-- Node5&#45;&gt;Node1 -->
<g id="edge6" class="edge"><title>Node5&#45;&gt;Node1</title>
<path fill="none" stroke="midnightblue" d="M223.009,-102.348C223.666,-78.2538 224.783,-37.3079 225.266,-19.5914"/>
<polygon fill="midnightblue" stroke="midnightblue" points="219.509,-102.277 222.735,-112.368 226.507,-102.468 219.509,-102.277"/>
</g>
<!-- Node5&#45;&gt;Node2 -->
<g id="edge4" class="edge"><title>Node5&#45;&gt;Node2</title>
<path fill="none" stroke="midnightblue" d="M198.694,-107.177C181.581,-97.2407 159.035,-84.1492 144.405,-75.6545"/>
<polygon fill="midnightblue" stroke="midnightblue" points="197.153,-110.329 207.558,-112.324 200.668,-104.276 197.153,-110.329"/>
</g>
<!-- Node6 -->
<g id="node6" class="node"><title>Node6</title>
<g id="a_node6"><a xlink:href="../../d8/d57/interfaceNUnit_1_1Framework_1_1Interfaces_1_1IApplyToTest.html" target="_top" xlink:title="The IApplyToTest interface is implemented by self&#45;applying attributes that modify the state of a test...">
<polygon fill="white" stroke="black" points="95,-112.5 95,-131.5 168,-131.5 168,-112.5 95,-112.5"/>
<text text-anchor="middle" x="131.5" y="-119.5" font-family="Helvetica,sans-Serif" font-size="10.00">IApplyToTest</text>
</a>
</g>
</g>
<!-- Node6&#45;&gt;Node2 -->
<g id="edge5" class="edge"><title>Node6&#45;&gt;Node2</title>
<path fill="none" stroke="midnightblue" d="M130.789,-101.805C130.46,-92.9102 130.084,-82.7798 129.824,-75.7511"/>
<polygon fill="midnightblue" stroke="midnightblue" points="127.302,-102.219 131.17,-112.083 134.297,-101.96 127.302,-102.219"/>
</g>
<!-- Node7 -->
<g id="node7" class="node"><title>Node7</title>
<g id="a_node7"><a xlink:href="../../d3/d21/interfaceNUnit_1_1Framework_1_1Interfaces_1_1IImplyFixture.html" target="_top" xlink:title="IImplyFixture is an empty marker interface used by attributes like TestAttribute that cause the class...">
<polygon fill="white" stroke="black" points="253.5,-56.5 253.5,-75.5 325.5,-75.5 325.5,-56.5 253.5,-56.5"/>
<text text-anchor="middle" x="289.5" y="-63.5" font-family="Helvetica,sans-Serif" font-size="10.00">IImplyFixture</text>
</a>
</g>
</g>
<!-- Node7&#45;&gt;Node1 -->
<g id="edge7" class="edge"><title>Node7&#45;&gt;Node1</title>
<path fill="none" stroke="midnightblue" d="M271.509,-49.8197C260.042,-40.1452 245.587,-27.9481 235.97,-19.8339"/>
<polygon fill="midnightblue" stroke="midnightblue" points="269.317,-52.5502 279.217,-56.324 273.831,-47.2002 269.317,-52.5502"/>
</g>
</g>
</svg>
