<?xml version="1.0" encoding="UTF-8" standalone="no"?>
<!DOCTYPE svg PUBLIC "-//W3C//DTD SVG 1.1//EN"
 "http://www.w3.org/Graphics/SVG/1.1/DTD/svg11.dtd">
<!-- Generated by graphviz version 2.38.0 (20140413.2041)
 -->
<!-- Title: AForge.DebuggerVisualizers.ImageView Pages: 1 -->
<svg width="230pt" height="172pt"
 viewBox="0.00 0.00 229.50 172.00" xmlns="http://www.w3.org/2000/svg" xmlns:xlink="http://www.w3.org/1999/xlink">
<g id="graph0" class="graph" transform="scale(1 1) rotate(0) translate(4 168)">
<title>AForge.DebuggerVisualizers.ImageView</title>
<polygon fill="white" stroke="none" points="-4,4 -4,-168 225.5,-168 225.5,4 -4,4"/>
<!-- Node1 -->
<g id="node1" class="node"><title>Node1</title>
<g id="a_node1"><a xlink:title=" ">
<polygon fill="#bfbfbf" stroke="black" points="10,-0.5 10,-30.5 153,-30.5 153,-0.5 10,-0.5"/>
<text text-anchor="start" x="18" y="-18.5" font-family="Helvetica,sans-Serif" font-size="10.00">AForge.DebuggerVisualizers.</text>
<text text-anchor="middle" x="81.5" y="-7.5" font-family="Helvetica,sans-Serif" font-size="10.00">ImageView</text>
</a>
</g>
</g>
<!-- Node2 -->
<g id="node2" class="node"><title>Node2</title>
<g id="a_node2"><a xlink:title=" ">
<polygon fill="white" stroke="#bfbfbf" points="0,-144.5 0,-163.5 39,-163.5 39,-144.5 0,-144.5"/>
<text text-anchor="middle" x="19.5" y="-151.5" font-family="Helvetica,sans-Serif" font-size="10.00">Form</text>
</a>
</g>
</g>
<!-- Node2&#45;&gt;Node1 -->
<g id="edge1" class="edge"><title>Node2&#45;&gt;Node1</title>
<path fill="none" stroke="midnightblue" d="M27.5598,-135.255C40.0366,-107.786 63.7708,-55.5329 75.131,-30.5221"/>
<polygon fill="midnightblue" stroke="midnightblue" points="24.3273,-133.909 23.3784,-144.461 30.7006,-136.804 24.3273,-133.909"/>
</g>
<!-- Node3 -->
<g id="node3" class="node"><title>Node3</title>
<g id="a_node3"><a xlink:title=" ">
<polygon fill="white" stroke="#bfbfbf" points="57.5,-144.5 57.5,-163.5 105.5,-163.5 105.5,-144.5 57.5,-144.5"/>
<text text-anchor="middle" x="81.5" y="-151.5" font-family="Helvetica,sans-Serif" font-size="10.00">AForge</text>
</a>
</g>
</g>
<!-- Node3&#45;&gt;Node1 -->
<g id="edge2" class="edge"><title>Node3&#45;&gt;Node1</title>
<path fill="none" stroke="#9a32cd" stroke-dasharray="5,2" d="M81.5,-134.154C81.5,-106.41 81.5,-55.2023 81.5,-30.5221"/>
<polygon fill="#9a32cd" stroke="#9a32cd" points="78.0001,-134.461 81.5,-144.461 85.0001,-134.461 78.0001,-134.461"/>
<text text-anchor="middle" x="106.5" y="-85" font-family="Helvetica,sans-Serif" font-size="10.00"> pictureBox</text>
</g>
<!-- Node4 -->
<g id="node4" class="node"><title>Node4</title>
<g id="a_node4"><a xlink:title=" ">
<polygon fill="white" stroke="#bfbfbf" points="129.5,-144.5 129.5,-163.5 179.5,-163.5 179.5,-144.5 129.5,-144.5"/>
<text text-anchor="middle" x="154.5" y="-151.5" font-family="Helvetica,sans-Serif" font-size="10.00">System</text>
</a>
</g>
</g>
<!-- Node4&#45;&gt;Node1 -->
<g id="edge3" class="edge"><title>Node4&#45;&gt;Node1</title>
<path fill="none" stroke="#9a32cd" stroke-dasharray="5,2" d="M154.764,-134.194C154.183,-111.951 150.312,-74.7062 132.5,-49 127.357,-41.5783 119.914,-35.4753 112.297,-30.6425"/>
<polygon fill="#9a32cd" stroke="#9a32cd" points="151.265,-134.339 154.825,-144.318 158.265,-134.297 151.265,-134.339"/>
<text text-anchor="middle" x="187.5" y="-118" font-family="Helvetica,sans-Serif" font-size="10.00"> saveButton</text>
<text text-anchor="middle" x="187.5" y="-107" font-family="Helvetica,sans-Serif" font-size="10.00">imagePanel</text>
<text text-anchor="middle" x="187.5" y="-96" font-family="Helvetica,sans-Serif" font-size="10.00">groupBox1</text>
<text text-anchor="middle" x="187.5" y="-85" font-family="Helvetica,sans-Serif" font-size="10.00">groupBox2</text>
<text text-anchor="middle" x="187.5" y="-74" font-family="Helvetica,sans-Serif" font-size="10.00">components</text>
<text text-anchor="middle" x="187.5" y="-63" font-family="Helvetica,sans-Serif" font-size="10.00">saveFileDialog</text>
<text text-anchor="middle" x="187.5" y="-52" font-family="Helvetica,sans-Serif" font-size="10.00">clipboardButton</text>
</g>
</g>
</svg>
