<?xml version="1.0" encoding="UTF-8" standalone="no"?>
<!DOCTYPE svg PUBLIC "-//W3C//DTD SVG 1.1//EN"
 "http://www.w3.org/Graphics/SVG/1.1/DTD/svg11.dtd">
<!-- Generated by graphviz version 2.38.0 (20140413.2041)
 -->
<!-- Title: IG.Lib.ICommandLineApplicationInterpreter Pages: 1 -->
<!--zoomable 154 -->
<svg id="main" version="1.1" xmlns="http://www.w3.org/2000/svg" xmlns:xlink="http://www.w3.org/1999/xlink" xml:space="preserve" onload="init(evt)">
<style type="text/css"><![CDATA[
.edge:hover path { stroke: red; }
.edge:hover polygon { stroke: red; fill: red; }
]]></style>
<script type="text/javascript"><![CDATA[
var edges = document.getElementsByTagName('g');
if (edges && edges.length) {
  for (var i=0;i<edges.length;i++) {
    if (edges[i].id.substr(0,4)=='edge') {
      edges[i].setAttribute('class','edge');
    }
  }
}
]]></script>
        <defs>
                <circle id="rim" cx="0" cy="0" r="7"/>
                <circle id="rim2" cx="0" cy="0" r="3.5"/>
                <g id="zoomPlus">
                        <use xlink:href="#rim" fill="#404040">
                                <set attributeName="fill" to="#808080" begin="zoomplus.mouseover" end="zoomplus.mouseout"/>
                        </use>
                        <path d="M-4,0h8M0,-4v8" fill="none" stroke="white" stroke-width="1.5" pointer-events="none"/>
                </g>
                <g id="zoomMin">
                        <use xlink:href="#rim" fill="#404040">
                                <set attributeName="fill" to="#808080" begin="zoomminus.mouseover" end="zoomminus.mouseout"/>
                        </use>
                        <path d="M-4,0h8" fill="none" stroke="white" stroke-width="1.5" pointer-events="none"/>
                </g>
                <g id="dirArrow">
                        <path fill="none" stroke="white" stroke-width="1.5" d="M0,-3.0v7 M-2.5,-0.5L0,-3.0L2.5,-0.5"/>
                </g>
               <g id="resetDef">
                       <use xlink:href="#rim2" fill="#404040">
                               <set attributeName="fill" to="#808080" begin="reset.mouseover" end="reset.mouseout"/>
                       </use>
               </g>
        </defs>

<script type="text/javascript">
var viewWidth = 709;
var viewHeight = 154;
var sectionId = 'dynsection-0';
</script>
<script xlink:href="../../svgpan.js"/>
<svg id="graph" class="graph">
<g id="viewport">
<title>IG.Lib.ICommandLineApplicationInterpreter</title>
<polygon fill="white" stroke="none" points="-4,4 -4,-149.5 705,-149.5 705,4 -4,4"/>
<!-- Node1 -->
<g id="node1" class="node"><title>Node1</title>
<g id="a_node1"><a xlink:title="Interface for simple command&#45;line applicatino interpreters.">
<polygon fill="#bfbfbf" stroke="black" points="0,-90.5 0,-120.5 158,-120.5 158,-90.5 0,-90.5"/>
<text text-anchor="start" x="8" y="-108.5" font-family="Helvetica,sans-Serif" font-size="10.00">IG.Lib.ICommandLineApplication</text>
<text text-anchor="middle" x="79" y="-97.5" font-family="Helvetica,sans-Serif" font-size="10.00">Interpreter</text>
</a>
</g>
</g>
<!-- Node2 -->
<g id="node2" class="node"><title>Node2</title>
<g id="a_node2"><a xlink:href="../../de/dcf/classIG_1_1Lib_1_1CommandLineApplicationInterpreter.html" target="_top" xlink:title="Simple command&#45;line application interpreters, holds a set of commands that can be executed by name....">
<polygon fill="white" stroke="black" points="194,-68.5 194,-98.5 349,-98.5 349,-68.5 194,-68.5"/>
<text text-anchor="start" x="202" y="-86.5" font-family="Helvetica,sans-Serif" font-size="10.00">IG.Lib.CommandLineApplication</text>
<text text-anchor="middle" x="271.5" y="-75.5" font-family="Helvetica,sans-Serif" font-size="10.00">Interpreter</text>
</a>
</g>
</g>
<!-- Node1&#45;&gt;Node2 -->
<g id="edge1" class="edge"><title>Node1&#45;&gt;Node2</title>
<path fill="none" stroke="midnightblue" d="M168.073,-95.3288C176.671,-94.3359 185.347,-93.3339 193.819,-92.3555"/>
<polygon fill="midnightblue" stroke="midnightblue" points="167.566,-91.8641 158.033,-96.4883 168.369,-98.8179 167.566,-91.8641"/>
</g>
<!-- Node3 -->
<g id="node3" class="node"><title>Node3</title>
<g id="a_node3"><a xlink:href="../../d2/d86/classIG_1_1Lib_1_1CommandLineApplicationScriptInterpreter.html" target="_top" xlink:title="Command&#45;line interpreters adapted for executing script commands.">
<polygon fill="white" stroke="black" points="385,-112.5 385,-142.5 540,-142.5 540,-112.5 385,-112.5"/>
<text text-anchor="start" x="393" y="-130.5" font-family="Helvetica,sans-Serif" font-size="10.00">IG.Lib.CommandLineApplication</text>
<text text-anchor="middle" x="462.5" y="-119.5" font-family="Helvetica,sans-Serif" font-size="10.00">ScriptInterpreter</text>
</a>
</g>
</g>
<!-- Node1&#45;&gt;Node3 -->
<g id="edge8" class="edge"><title>Node1&#45;&gt;Node3</title>
<path fill="none" stroke="midnightblue" d="M168.43,-110.599C233.919,-114.376 322.264,-119.471 384.785,-123.076"/>
<polygon fill="midnightblue" stroke="midnightblue" points="168.308,-107.087 158.123,-110.005 167.905,-114.075 168.308,-107.087"/>
</g>
<!-- Node2&#45;&gt;Node3 -->
<g id="edge2" class="edge"><title>Node2&#45;&gt;Node3</title>
<path fill="none" stroke="midnightblue" d="M347.142,-100.877C363.612,-104.711 380.925,-108.742 396.956,-112.474"/>
<polygon fill="midnightblue" stroke="midnightblue" points="347.548,-97.3779 337.014,-98.5192 345.96,-104.196 347.548,-97.3779"/>
</g>
<!-- Node4 -->
<g id="node4" class="node"><title>Node4</title>
<g id="a_node4"><a xlink:href="../../d6/d30/classIG_1_1Lib_1_1NeuralApplicationInterpreter.html" target="_top" xlink:title="Command line application interpreter that contains some neural networks &#45; related commands.">
<polygon fill="white" stroke="black" points="402,-63.5 402,-93.5 523,-93.5 523,-63.5 402,-63.5"/>
<text text-anchor="start" x="410" y="-81.5" font-family="Helvetica,sans-Serif" font-size="10.00">IG.Lib.NeuralApplication</text>
<text text-anchor="middle" x="462.5" y="-70.5" font-family="Helvetica,sans-Serif" font-size="10.00">Interpreter</text>
</a>
</g>
</g>
<!-- Node2&#45;&gt;Node4 -->
<g id="edge3" class="edge"><title>Node2&#45;&gt;Node4</title>
<path fill="none" stroke="midnightblue" d="M359.493,-81.1986C373.847,-80.8189 388.433,-80.433 401.916,-80.0763"/>
<polygon fill="midnightblue" stroke="midnightblue" points="359.005,-77.7102 349.101,-81.4735 359.19,-84.7077 359.005,-77.7102"/>
</g>
<!-- Node5 -->
<g id="node5" class="node"><title>Node5</title>
<g id="a_node5"><a xlink:href="../../de/de7/classIG_1_1Lib_1_1AppExtendedShell.html" target="_top" xlink:title=" ">
<polygon fill="white" stroke="black" points="576,-126 576,-145 701,-145 701,-126 576,-126"/>
<text text-anchor="middle" x="638.5" y="-133" font-family="Helvetica,sans-Serif" font-size="10.00">IG.Lib.AppExtendedShell</text>
</a>
</g>
</g>
<!-- Node4&#45;&gt;Node5 -->
<g id="edge4" class="edge"><title>Node4&#45;&gt;Node5</title>
<path fill="none" stroke="midnightblue" d="M520.224,-96.8221C526.9,-99.0421 533.608,-101.302 540,-103.5 556.087,-109.032 559.869,-111.099 576,-116.5 585.537,-119.693 595.97,-122.99 605.489,-125.922"/>
<polygon fill="midnightblue" stroke="midnightblue" points="521.099,-93.4251 510.506,-93.6098 518.902,-100.071 521.099,-93.4251"/>
</g>
<!-- Node6 -->
<g id="node6" class="node"><title>Node6</title>
<g id="a_node6"><a xlink:href="../../d7/d4a/classIG_1_1Lib_1_1AppTestOpt.html" target="_top" xlink:title=" ">
<polygon fill="white" stroke="black" points="590,-88 590,-107 687,-107 687,-88 590,-88"/>
<text text-anchor="middle" x="638.5" y="-95" font-family="Helvetica,sans-Serif" font-size="10.00">IG.Lib.AppTestOpt</text>
</a>
</g>
</g>
<!-- Node4&#45;&gt;Node6 -->
<g id="edge5" class="edge"><title>Node4&#45;&gt;Node6</title>
<path fill="none" stroke="midnightblue" d="M533.463,-86.1396C552.404,-88.2079 572.466,-90.3985 589.866,-92.2986"/>
<polygon fill="midnightblue" stroke="midnightblue" points="533.702,-82.645 523.381,-85.0387 532.942,-89.6036 533.702,-82.645"/>
</g>
<!-- Node7 -->
<g id="node7" class="node"><title>Node7</title>
<g id="a_node7"><a xlink:href="../../da/dbd/classIG_1_1Lib_1_1MessyApplication.html" target="_top" xlink:title=" ">
<polygon fill="white" stroke="black" points="577.5,-50 577.5,-69 699.5,-69 699.5,-50 577.5,-50"/>
<text text-anchor="middle" x="638.5" y="-57" font-family="Helvetica,sans-Serif" font-size="10.00">IG.Lib.MessyApplication</text>
</a>
</g>
</g>
<!-- Node4&#45;&gt;Node7 -->
<g id="edge6" class="edge"><title>Node4&#45;&gt;Node7</title>
<path fill="none" stroke="midnightblue" d="M533.736,-70.8305C548.145,-69.2571 563.192,-67.6141 577.214,-66.083"/>
<polygon fill="midnightblue" stroke="midnightblue" points="532.942,-67.3964 523.381,-71.9613 533.702,-74.355 532.942,-67.3964"/>
</g>
<!-- Node8 -->
<g id="node8" class="node"><title>Node8</title>
<g id="a_node8"><a xlink:href="../../d2/d0e/classIG_1_1Lib_1_1NeuralApplicationInterpreterNeuronDotNet.html" target="_top" xlink:title=" ">
<polygon fill="white" stroke="black" points="578,-0.5 578,-30.5 699,-30.5 699,-0.5 578,-0.5"/>
<text text-anchor="start" x="586" y="-18.5" font-family="Helvetica,sans-Serif" font-size="10.00">IG.Lib.NeuralApplication</text>
<text text-anchor="middle" x="638.5" y="-7.5" font-family="Helvetica,sans-Serif" font-size="10.00">InterpreterNeuronDotNet</text>
</a>
</g>
</g>
<!-- Node4&#45;&gt;Node8 -->
<g id="edge7" class="edge"><title>Node4&#45;&gt;Node8</title>
<path fill="none" stroke="midnightblue" d="M514.802,-59.925C540.628,-50.5744 571.53,-39.3855 595.862,-30.576"/>
<polygon fill="midnightblue" stroke="midnightblue" points="513.388,-56.7145 505.177,-63.4099 515.772,-63.2964 513.388,-56.7145"/>
</g>
</g>
</svg>
        <g id="navigator" transform="translate(0 0)" fill="#404254">
                <rect fill="#f2f5e9" fill-opacity="0.5" stroke="#606060" stroke-width=".5" x="0" y="0" width="60" height="60"/>
                <use id="zoomplus" xlink:href="#zoomPlus" x="17" y="9" onmousedown="handleZoom(evt,'in')"/>
                <use id="zoomminus" xlink:href="#zoomMin" x="42" y="9" onmousedown="handleZoom(evt,'out')"/>
                <use id="reset" xlink:href="#resetDef" x="30" y="36" onmousedown="handleReset()"/>
                <g id="arrowUp" xlink:href="#dirArrow" transform="translate(30 24)" onmousedown="handlePan(0,-1)">
                  <use xlink:href="#rim" fill="#404040">
                        <set attributeName="fill" to="#808080" begin="arrowUp.mouseover" end="arrowUp.mouseout"/>
                  </use>
                  <path fill="none" stroke="white" stroke-width="1.5" d="M0,-3.0v7 M-2.5,-0.5L0,-3.0L2.5,-0.5"/>
                </g>
                <g id="arrowRight" xlink:href="#dirArrow" transform="rotate(90) translate(36 -43)" onmousedown="handlePan(1,0)">
                  <use xlink:href="#rim" fill="#404040">
                        <set attributeName="fill" to="#808080" begin="arrowRight.mouseover" end="arrowRight.mouseout"/>
                  </use>
                  <path fill="none" stroke="white" stroke-width="1.5" d="M0,-3.0v7 M-2.5,-0.5L0,-3.0L2.5,-0.5"/>
                </g>
                <g id="arrowDown" xlink:href="#dirArrow" transform="rotate(180) translate(-30 -48)" onmousedown="handlePan(0,1)">
                  <use xlink:href="#rim" fill="#404040">
                        <set attributeName="fill" to="#808080" begin="arrowDown.mouseover" end="arrowDown.mouseout"/>
                  </use>
                  <path fill="none" stroke="white" stroke-width="1.5" d="M0,-3.0v7 M-2.5,-0.5L0,-3.0L2.5,-0.5"/>
                </g>
                <g id="arrowLeft" xlink:href="#dirArrow" transform="rotate(270) translate(-36 17)" onmousedown="handlePan(-1,0)">
                  <use xlink:href="#rim" fill="#404040">
                        <set attributeName="fill" to="#808080" begin="arrowLeft.mouseover" end="arrowLeft.mouseout"/>
                  </use>
                  <path fill="none" stroke="white" stroke-width="1.5" d="M0,-3.0v7 M-2.5,-0.5L0,-3.0L2.5,-0.5"/>
                </g>
        </g>
        <svg viewBox="0 0 15 15" width="100%" height="30px" preserveAspectRatio="xMaxYMin meet">
         <g id="arrow_out" transform="scale(0.3 0.3)">
          <a xlink:href="interfaceIG_1_1Lib_1_1ICommandLineApplicationInterpreter__inherit__graph_org.svg" target="_base">
           <rect id="button" ry="5" rx="5" y="6" x="6" height="38" width="38"
                fill="#f2f5e9" fill-opacity="0.5" stroke="#606060" stroke-width="1.0"/>
           <path id="arrow"
             d="M 11.500037,31.436501 C 11.940474,20.09759 22.043105,11.32322 32.158766,21.979434 L 37.068811,17.246167 C 37.068811,17.246167 37.088388,32 37.088388,32 L 22.160133,31.978069 C 22.160133,31.978069 26.997745,27.140456 26.997745,27.140456 C 18.528582,18.264221 13.291696,25.230495 11.500037,31.436501 z"
             style="fill:#404040;"/>
          </a>
         </g>
        </svg>
</svg>
