<?xml version="1.0" encoding="UTF-8" standalone="no"?>
<!DOCTYPE svg PUBLIC "-//W3C//DTD SVG 1.1//EN"
 "http://www.w3.org/Graphics/SVG/1.1/DTD/svg11.dtd">
<!-- Generated by graphviz version 2.38.0 (20140413.2041)
 -->
<!-- Title: NUnit.Framework.Interfaces.ISimpleTestBuilder Pages: 1 -->
<svg width="158pt" height="162pt"
 viewBox="0.00 0.00 158.00 162.00" xmlns="http://www.w3.org/2000/svg" xmlns:xlink="http://www.w3.org/1999/xlink">
<g id="graph0" class="graph" transform="scale(1 1) rotate(0) translate(4 158)">
<title>NUnit.Framework.Interfaces.ISimpleTestBuilder</title>
<polygon fill="white" stroke="none" points="-4,4 -4,-158 154,-158 154,4 -4,4"/>
<!-- Node1 -->
<g id="node1" class="node"><title>Node1</title>
<g id="a_node1"><a xlink:title="The ISimpleTestBuilder interface is exposed by a class that knows how to build a single TestMethod fr...">
<polygon fill="#bfbfbf" stroke="black" points="5,-123.5 5,-153.5 145,-153.5 145,-123.5 5,-123.5"/>
<text text-anchor="start" x="13" y="-141.5" font-family="Helvetica,sans-Serif" font-size="10.00">NUnit.Framework.Interfaces.</text>
<text text-anchor="middle" x="75" y="-130.5" font-family="Helvetica,sans-Serif" font-size="10.00">ISimpleTestBuilder</text>
</a>
</g>
</g>
<!-- Node2 -->
<g id="node2" class="node"><title>Node2</title>
<g id="a_node2"><a xlink:href="../../dd/d34/classNUnit_1_1Framework_1_1TestAttribute.html" target="_top" xlink:title="Adding this attribute to a method within a TestFixtureAttributeclass makes the method callable from t...">
<polygon fill="white" stroke="black" points="0,-67.5 0,-86.5 150,-86.5 150,-67.5 0,-67.5"/>
<text text-anchor="middle" x="75" y="-74.5" font-family="Helvetica,sans-Serif" font-size="10.00">NUnit.Framework.TestAttribute</text>
</a>
</g>
</g>
<!-- Node1&#45;&gt;Node2 -->
<g id="edge1" class="edge"><title>Node1&#45;&gt;Node2</title>
<path fill="none" stroke="midnightblue" d="M75,-113.289C75,-103.857 75,-93.6548 75,-86.6578"/>
<polygon fill="midnightblue" stroke="midnightblue" points="71.5001,-113.399 75,-123.399 78.5001,-113.399 71.5001,-113.399"/>
</g>
<!-- Node3 -->
<g id="node3" class="node"><title>Node3</title>
<g id="a_node3"><a xlink:href="../../d4/dd4/classNUnit_1_1TestData_1_1AttributeInheritanceData_1_1SpecAttribute.html" target="_top" xlink:title=" ">
<polygon fill="white" stroke="black" points="2,-0.5 2,-30.5 148,-30.5 148,-0.5 2,-0.5"/>
<text text-anchor="start" x="10" y="-18.5" font-family="Helvetica,sans-Serif" font-size="10.00">NUnit.TestData.Attribute</text>
<text text-anchor="middle" x="75" y="-7.5" font-family="Helvetica,sans-Serif" font-size="10.00">InheritanceData.SpecAttribute</text>
</a>
</g>
</g>
<!-- Node2&#45;&gt;Node3 -->
<g id="edge2" class="edge"><title>Node2&#45;&gt;Node3</title>
<path fill="none" stroke="midnightblue" d="M75,-57.2349C75,-48.5864 75,-38.4969 75,-30.523"/>
<polygon fill="midnightblue" stroke="midnightblue" points="71.5001,-57.4751 75,-67.4751 78.5001,-57.4751 71.5001,-57.4751"/>
</g>
</g>
</svg>
