<?xml version="1.0" encoding="UTF-8" standalone="no"?>
<!DOCTYPE svg PUBLIC "-//W3C//DTD SVG 1.1//EN"
 "http://www.w3.org/Graphics/SVG/1.1/DTD/svg11.dtd">
<!-- Generated by graphviz version 2.38.0 (20140413.2041)
 -->
<!-- Title: CShell.Modules.Workspace.ViewModels.AssemblyReferencesViewModel Pages: 1 -->
<svg width="962pt" height="216pt"
 viewBox="0.00 0.00 962.00 215.50" xmlns="http://www.w3.org/2000/svg" xmlns:xlink="http://www.w3.org/1999/xlink">
<g id="graph0" class="graph" transform="scale(1 1) rotate(0) translate(4 211.5)">
<title>CShell.Modules.Workspace.ViewModels.AssemblyReferencesViewModel</title>
<polygon fill="white" stroke="none" points="-4,4 -4,-211.5 958,-211.5 958,4 -4,4"/>
<!-- Node1 -->
<g id="node1" class="node"><title>Node1</title>
<g id="a_node1"><a xlink:title=" ">
<polygon fill="#bfbfbf" stroke="black" points="742,-107.5 742,-137.5 954,-137.5 954,-107.5 742,-107.5"/>
<text text-anchor="start" x="750" y="-125.5" font-family="Helvetica,sans-Serif" font-size="10.00">CShell.Modules.Workspace.</text>
<text text-anchor="middle" x="848" y="-114.5" font-family="Helvetica,sans-Serif" font-size="10.00">ViewModels.AssemblyReferencesViewModel</text>
</a>
</g>
</g>
<!-- Node2 -->
<g id="node2" class="node"><title>Node2</title>
<g id="a_node2"><a xlink:href="../../d7/d97/classCShell_1_1Modules_1_1Workspace_1_1ViewModels_1_1TreeViewModel.html" target="_top" xlink:title=" ">
<polygon fill="white" stroke="black" points="286.5,-144 286.5,-163 369.5,-163 369.5,-144 286.5,-144"/>
<text text-anchor="middle" x="328" y="-151" font-family="Helvetica,sans-Serif" font-size="10.00">TreeViewModel</text>
</a>
</g>
</g>
<!-- Node2&#45;&gt;Node1 -->
<g id="edge1" class="edge"><title>Node2&#45;&gt;Node1</title>
<path fill="none" stroke="midnightblue" d="M379.65,-150.469C463.224,-145.467 631.7,-135.385 741.882,-128.791"/>
<polygon fill="midnightblue" stroke="midnightblue" points="379.42,-146.976 369.647,-151.067 379.838,-153.964 379.42,-146.976"/>
</g>
<!-- Node3 -->
<g id="node3" class="node"><title>Node3</title>
<g id="a_node3"><a xlink:title=" ">
<polygon fill="white" stroke="#bfbfbf" points="14.5,-188 14.5,-207 128.5,-207 128.5,-188 14.5,-188"/>
<text text-anchor="middle" x="71.5" y="-195" font-family="Helvetica,sans-Serif" font-size="10.00">PropertyChangedBase</text>
</a>
</g>
</g>
<!-- Node3&#45;&gt;Node2 -->
<g id="edge2" class="edge"><title>Node3&#45;&gt;Node2</title>
<path fill="none" stroke="midnightblue" d="M138.686,-186.667C167.92,-181.822 202.689,-175.979 234,-170.5 251.138,-167.501 270.028,-164.071 286.281,-161.081"/>
<polygon fill="midnightblue" stroke="midnightblue" points="137.886,-183.252 128.592,-188.337 139.029,-190.158 137.886,-183.252"/>
</g>
<!-- Node4 -->
<g id="node4" class="node"><title>Node4</title>
<g id="a_node4"><a xlink:title=" ">
<polygon fill="white" stroke="#bfbfbf" points="22.5,-150 22.5,-169 120.5,-169 120.5,-150 22.5,-150"/>
<text text-anchor="middle" x="71.5" y="-157" font-family="Helvetica,sans-Serif" font-size="10.00">IHaveDisplayName</text>
</a>
</g>
</g>
<!-- Node4&#45;&gt;Node2 -->
<g id="edge3" class="edge"><title>Node4&#45;&gt;Node2</title>
<path fill="none" stroke="midnightblue" d="M130.81,-158.125C178.303,-157.006 244.148,-155.453 286.165,-154.463"/>
<polygon fill="midnightblue" stroke="midnightblue" points="130.583,-154.63 120.669,-158.364 130.748,-161.628 130.583,-154.63"/>
</g>
<!-- Node5 -->
<g id="node5" class="node"><title>Node5</title>
<g id="a_node5"><a xlink:title=" ">
<polygon fill="white" stroke="#bfbfbf" points="38,-100 38,-119 105,-119 105,-100 38,-100"/>
<text text-anchor="middle" x="71.5" y="-107" font-family="Helvetica,sans-Serif" font-size="10.00">IDisposable</text>
</a>
</g>
</g>
<!-- Node5&#45;&gt;Node2 -->
<g id="edge4" class="edge"><title>Node5&#45;&gt;Node2</title>
<path fill="none" stroke="midnightblue" d="M115.262,-116.893C162.97,-125.141 239.584,-138.387 286.398,-146.48"/>
<polygon fill="midnightblue" stroke="midnightblue" points="115.701,-113.417 105.25,-115.162 114.508,-120.315 115.701,-113.417"/>
</g>
<!-- Node6 -->
<g id="node6" class="node"><title>Node6</title>
<g id="a_node6"><a xlink:href="../../d6/dc3/classCShell_1_1AssemblyReferences.html" target="_top" xlink:title=" ">
<polygon fill="white" stroke="black" points="472,-79 472,-98 612,-98 612,-79 472,-79"/>
<text text-anchor="middle" x="542" y="-86" font-family="Helvetica,sans-Serif" font-size="10.00">CShell.AssemblyReferences</text>
</a>
</g>
</g>
<!-- Node5&#45;&gt;Node6 -->
<g id="edge7" class="edge"><title>Node5&#45;&gt;Node6</title>
<path fill="none" stroke="midnightblue" d="M115.463,-108.534C186.124,-106.808 331.28,-102.685 454,-95.5 459.748,-95.1634 465.707,-94.7726 471.687,-94.3509"/>
<polygon fill="midnightblue" stroke="midnightblue" points="115.096,-105.042 105.183,-108.781 115.264,-112.04 115.096,-105.042"/>
</g>
<!-- Node8 -->
<g id="node8" class="node"><title>Node8</title>
<g id="a_node8"><a xlink:href="../../dc/d7b/classCShell_1_1ScriptingEngine.html" target="_top" xlink:title=" ">
<polygon fill="white" stroke="black" points="270,-62 270,-81 386,-81 386,-62 270,-62"/>
<text text-anchor="middle" x="328" y="-69" font-family="Helvetica,sans-Serif" font-size="10.00">CShell.ScriptingEngine</text>
</a>
</g>
</g>
<!-- Node5&#45;&gt;Node8 -->
<g id="edge9" class="edge"><title>Node5&#45;&gt;Node8</title>
<path fill="none" stroke="midnightblue" d="M115.241,-103.118C157.605,-96.7927 222.777,-87.0618 269.629,-80.0662"/>
<polygon fill="midnightblue" stroke="midnightblue" points="114.624,-99.6715 105.25,-104.61 115.658,-106.595 114.624,-99.6715"/>
</g>
<!-- Node6&#45;&gt;Node1 -->
<g id="edge5" class="edge"><title>Node6&#45;&gt;Node1</title>
<path fill="none" stroke="#9a32cd" stroke-dasharray="5,2" d="M622.447,-97.3855C658.921,-101.465 702.676,-106.358 741.835,-110.738"/>
<polygon fill="#9a32cd" stroke="#9a32cd" points="622.69,-93.8909 612.363,-96.2577 621.912,-100.848 622.69,-93.8909"/>
<text text-anchor="middle" x="677" y="-112.5" font-family="Helvetica,sans-Serif" font-size="10.00"> assemblyReferences</text>
</g>
<!-- Node7 -->
<g id="node7" class="node"><title>Node7</title>
<g id="a_node7"><a xlink:href="../../de/d8d/classCShell_1_1Util_1_1ObservableKeyedCollection.html" target="_top" xlink:title=" ">
<polygon fill="white" stroke="black" points="252,-12.5 252,-42.5 404,-42.5 404,-12.5 252,-12.5"/>
<text text-anchor="start" x="260" y="-30.5" font-family="Helvetica,sans-Serif" font-size="10.00">ObservableKeyedCollection</text>
<text text-anchor="middle" x="328" y="-19.5" font-family="Helvetica,sans-Serif" font-size="10.00">&lt; string, AssemblyReference &gt;</text>
</a>
</g>
</g>
<!-- Node7&#45;&gt;Node6 -->
<g id="edge6" class="edge"><title>Node7&#45;&gt;Node6</title>
<path fill="none" stroke="midnightblue" d="M391.135,-45.3786C429.34,-56.3715 476.776,-70.0204 507.918,-78.9812"/>
<polygon fill="midnightblue" stroke="midnightblue" points="391.71,-41.9021 381.133,-42.5004 389.775,-48.6292 391.71,-41.9021"/>
</g>
<!-- Node8&#45;&gt;Node6 -->
<g id="edge8" class="edge"><title>Node8&#45;&gt;Node6</title>
<path fill="none" stroke="#9a32cd" stroke-dasharray="5,2" d="M396.204,-76.889C420.283,-78.8199 447.462,-80.9993 471.715,-82.9441"/>
<polygon fill="#9a32cd" stroke="#9a32cd" points="396.339,-73.3887 386.091,-76.0781 395.779,-80.3663 396.339,-73.3887"/>
<text text-anchor="middle" x="438" y="-85.5" font-family="Helvetica,sans-Serif" font-size="10.00"> engine</text>
</g>
<!-- Node9 -->
<g id="node9" class="node"><title>Node9</title>
<g id="a_node9"><a xlink:href="../../d0/dc3/interfaceCShellCore_1_1CodeCompletion_1_1ICSharpScriptProvider.html" target="_top" xlink:title="This interface allows to provide more information for scripts such as using statements,...">
<polygon fill="white" stroke="black" points="16,-50 16,-69 127,-69 127,-50 16,-50"/>
<text text-anchor="middle" x="71.5" y="-57" font-family="Helvetica,sans-Serif" font-size="10.00">ICSharpScriptProvider</text>
</a>
</g>
</g>
<!-- Node9&#45;&gt;Node8 -->
<g id="edge10" class="edge"><title>Node9&#45;&gt;Node8</title>
<path fill="none" stroke="midnightblue" d="M137.232,-62.5522C178.129,-64.4805 230.489,-66.9494 269.846,-68.8051"/>
<polygon fill="midnightblue" stroke="midnightblue" points="137.25,-59.0493 127.097,-62.0743 136.921,-66.0415 137.25,-59.0493"/>
</g>
<!-- Node10 -->
<g id="node10" class="node"><title>Node10</title>
<g id="a_node10"><a xlink:href="../../da/dc3/classCShellCore_1_1CodeCompletion_1_1CSharpCompletion.html" target="_top" xlink:title=" ">
<polygon fill="white" stroke="black" points="0,-0.5 0,-30.5 143,-30.5 143,-0.5 0,-0.5"/>
<text text-anchor="start" x="8" y="-18.5" font-family="Helvetica,sans-Serif" font-size="10.00">CShellCore.CodeCompletion.</text>
<text text-anchor="middle" x="71.5" y="-7.5" font-family="Helvetica,sans-Serif" font-size="10.00">CSharpCompletion</text>
</a>
</g>
</g>
<!-- Node10&#45;&gt;Node8 -->
<g id="edge11" class="edge"><title>Node10&#45;&gt;Node8</title>
<path fill="none" stroke="#9a32cd" stroke-dasharray="5,2" d="M153.438,-32.1294C179.216,-37.5356 207.833,-43.6515 234,-49.5 251.649,-53.4447 271.129,-58.0186 287.681,-61.9708"/>
<polygon fill="#9a32cd" stroke="#9a32cd" points="153.839,-28.6376 143.334,-30.0162 152.406,-35.4894 153.839,-28.6376"/>
<text text-anchor="middle" x="197.5" y="-52.5" font-family="Helvetica,sans-Serif" font-size="10.00"> codeCompletion</text>
</g>
</g>
</svg>
