<?xml version="1.0" encoding="UTF-8" standalone="no"?>
<!DOCTYPE svg PUBLIC "-//W3C//DTD SVG 1.1//EN"
 "http://www.w3.org/Graphics/SVG/1.1/DTD/svg11.dtd">
<!-- Generated by graphviz version 2.38.0 (20140413.2041)
 -->
<!-- Title: NUnit.Framework.Attributes.TestDummy Pages: 1 -->
<svg width="160pt" height="207pt"
 viewBox="0.00 0.00 160.00 207.00" xmlns="http://www.w3.org/2000/svg" xmlns:xlink="http://www.w3.org/1999/xlink">
<g id="graph0" class="graph" transform="scale(1 1) rotate(0) translate(4 203)">
<title>NUnit.Framework.Attributes.TestDummy</title>
<polygon fill="white" stroke="none" points="-4,4 -4,-203 156,-203 156,4 -4,4"/>
<!-- Node1 -->
<g id="node1" class="node"><title>Node1</title>
<g id="a_node1"><a xlink:title=" ">
<polygon fill="#bfbfbf" stroke="black" points="9.5,-0.5 9.5,-30.5 149.5,-30.5 149.5,-0.5 9.5,-0.5"/>
<text text-anchor="start" x="17.5" y="-18.5" font-family="Helvetica,sans-Serif" font-size="10.00">NUnit.Framework.Attributes.</text>
<text text-anchor="middle" x="79.5" y="-7.5" font-family="Helvetica,sans-Serif" font-size="10.00">TestDummy</text>
</a>
</g>
</g>
<!-- Node2 -->
<g id="node2" class="node"><title>Node2</title>
<g id="a_node2"><a xlink:href="../../d6/d59/classNUnit_1_1Framework_1_1Internal_1_1Test.html" target="_top" xlink:title="The Test abstract class represents a test within the framework.">
<polygon fill="white" stroke="black" points="62,-67.5 62,-86.5 97,-86.5 97,-67.5 62,-67.5"/>
<text text-anchor="middle" x="79.5" y="-74.5" font-family="Helvetica,sans-Serif" font-size="10.00">Test</text>
</a>
</g>
</g>
<!-- Node2&#45;&gt;Node1 -->
<g id="edge1" class="edge"><title>Node2&#45;&gt;Node1</title>
<path fill="none" stroke="midnightblue" d="M79.5,-57.2349C79.5,-48.5864 79.5,-38.4969 79.5,-30.523"/>
<polygon fill="midnightblue" stroke="midnightblue" points="76.0001,-57.4751 79.5,-67.4751 83.0001,-57.4751 76.0001,-57.4751"/>
</g>
<!-- Node3 -->
<g id="node3" class="node"><title>Node3</title>
<g id="a_node3"><a xlink:href="../../d6/dd5/interfaceNUnit_1_1Framework_1_1Interfaces_1_1ITest.html" target="_top" xlink:title="Common interface supported by all representations of a test. Only includes informational fields....">
<polygon fill="white" stroke="black" points="24.5,-123.5 24.5,-142.5 62.5,-142.5 62.5,-123.5 24.5,-123.5"/>
<text text-anchor="middle" x="43.5" y="-130.5" font-family="Helvetica,sans-Serif" font-size="10.00">ITest</text>
</a>
</g>
</g>
<!-- Node3&#45;&gt;Node2 -->
<g id="edge2" class="edge"><title>Node3&#45;&gt;Node2</title>
<path fill="none" stroke="midnightblue" d="M55.1229,-114.566C61.3168,-105.275 68.6677,-94.2484 73.6659,-86.7511"/>
<polygon fill="midnightblue" stroke="midnightblue" points="52.0795,-112.821 49.4447,-123.083 57.9039,-116.704 52.0795,-112.821"/>
</g>
<!-- Node4 -->
<g id="node4" class="node"><title>Node4</title>
<g id="a_node4"><a xlink:href="../../d9/dc0/interfaceNUnit_1_1Framework_1_1Interfaces_1_1IXmlNodeBuilder.html" target="_top" xlink:title="An object implementing IXmlNodeBuilder is able to build an XML representation of itself and any child...">
<polygon fill="white" stroke="black" points="0,-179.5 0,-198.5 87,-198.5 87,-179.5 0,-179.5"/>
<text text-anchor="middle" x="43.5" y="-186.5" font-family="Helvetica,sans-Serif" font-size="10.00">IXmlNodeBuilder</text>
</a>
</g>
</g>
<!-- Node4&#45;&gt;Node3 -->
<g id="edge3" class="edge"><title>Node4&#45;&gt;Node3</title>
<path fill="none" stroke="midnightblue" d="M43.5,-168.805C43.5,-159.91 43.5,-149.78 43.5,-142.751"/>
<polygon fill="midnightblue" stroke="midnightblue" points="40.0001,-169.083 43.5,-179.083 47.0001,-169.083 40.0001,-169.083"/>
</g>
<!-- Node5 -->
<g id="node5" class="node"><title>Node5</title>
<g id="a_node5"><a xlink:title=" ">
<polygon fill="white" stroke="#bfbfbf" points="81,-123.5 81,-142.5 152,-142.5 152,-123.5 81,-123.5"/>
<text text-anchor="middle" x="116.5" y="-130.5" font-family="Helvetica,sans-Serif" font-size="10.00">IComparable</text>
</a>
</g>
</g>
<!-- Node5&#45;&gt;Node2 -->
<g id="edge4" class="edge"><title>Node5&#45;&gt;Node2</title>
<path fill="none" stroke="midnightblue" d="M104.554,-114.566C98.1883,-105.275 90.6332,-94.2484 85.4961,-86.7511"/>
<polygon fill="midnightblue" stroke="midnightblue" points="101.851,-116.812 110.39,-123.083 107.625,-112.855 101.851,-116.812"/>
</g>
</g>
</svg>
