<?xml version="1.0" encoding="UTF-8" standalone="no"?>
<!DOCTYPE svg PUBLIC "-//W3C//DTD SVG 1.1//EN"
 "http://www.w3.org/Graphics/SVG/1.1/DTD/svg11.dtd">
<!-- Generated by graphviz version 2.38.0 (20140413.2041)
 -->
<!-- Title: alglib.minlm.minlmstate Pages: 1 -->
<svg width="284pt" height="173pt"
 viewBox="0.00 0.00 284.00 173.00" xmlns="http://www.w3.org/2000/svg" xmlns:xlink="http://www.w3.org/1999/xlink">
<g id="graph0" class="graph" transform="scale(1 1) rotate(0) translate(4 169)">
<title>alglib.minlm.minlmstate</title>
<polygon fill="white" stroke="none" points="-4,4 -4,-169 280,-169 280,4 -4,4"/>
<!-- Node1 -->
<g id="node1" class="node"><title>Node1</title>
<g id="a_node1"><a xlink:title=" ">
<polygon fill="#bfbfbf" stroke="black" points="65.5,-0.5 65.5,-19.5 184.5,-19.5 184.5,-0.5 65.5,-0.5"/>
<text text-anchor="middle" x="125" y="-7.5" font-family="Helvetica,sans-Serif" font-size="10.00">alglib.minlm.minlmstate</text>
</a>
</g>
</g>
<!-- Node2 -->
<g id="node2" class="node"><title>Node2</title>
<g id="a_node2"><a xlink:href="../../de/d2d/classalglib_1_1minqp.html" target="_top" xlink:title=" ">
<polygon fill="white" stroke="black" points="0,-78.5 0,-97.5 68,-97.5 68,-78.5 0,-78.5"/>
<text text-anchor="middle" x="34" y="-85.5" font-family="Helvetica,sans-Serif" font-size="10.00">alglib.minqp</text>
</a>
</g>
</g>
<!-- Node2&#45;&gt;Node1 -->
<g id="edge1" class="edge"><title>Node2&#45;&gt;Node1</title>
<path fill="none" stroke="#9a32cd" stroke-dasharray="5,2" d="M49.3065,-70.9442C59.1154,-61.0036 72.3392,-48.2294 85,-38 93.2115,-31.3654 103.03,-24.7211 110.884,-19.6837"/>
<polygon fill="#9a32cd" stroke="#9a32cd" points="46.7081,-68.5958 42.248,-78.2062 51.7277,-73.4748 46.7081,-68.5958"/>
<text text-anchor="middle" x="103" y="-52" font-family="Helvetica,sans-Serif" font-size="10.00"> qpstate</text>
<text text-anchor="middle" x="103" y="-41" font-family="Helvetica,sans-Serif" font-size="10.00">qprep</text>
</g>
<!-- Node3 -->
<g id="node3" class="node"><title>Node3</title>
<g id="a_node3"><a xlink:href="../../d0/d30/classalglib_1_1minlbfgs.html" target="_top" xlink:title=" ">
<polygon fill="white" stroke="black" points="86,-78.5 86,-97.5 164,-97.5 164,-78.5 86,-78.5"/>
<text text-anchor="middle" x="125" y="-85.5" font-family="Helvetica,sans-Serif" font-size="10.00">alglib.minlbfgs</text>
</a>
</g>
</g>
<!-- Node3&#45;&gt;Node1 -->
<g id="edge2" class="edge"><title>Node3&#45;&gt;Node1</title>
<path fill="none" stroke="#9a32cd" stroke-dasharray="5,2" d="M125,-68.2239C125,-52.6974 125,-31.3582 125,-19.6165"/>
<polygon fill="#9a32cd" stroke="#9a32cd" points="121.5,-68.2818 125,-78.2818 128.5,-68.2819 121.5,-68.2818"/>
<text text-anchor="middle" x="152" y="-52" font-family="Helvetica,sans-Serif" font-size="10.00"> internalrep</text>
<text text-anchor="middle" x="152" y="-41" font-family="Helvetica,sans-Serif" font-size="10.00">internalstate</text>
</g>
<!-- Node4 -->
<g id="node4" class="node"><title>Node4</title>
<g id="a_node4"><a xlink:href="../../da/d61/classalglib_1_1rcommstate.html" target="_top" xlink:title=" ">
<polygon fill="white" stroke="black" points="182,-78.5 182,-97.5 276,-97.5 276,-78.5 182,-78.5"/>
<text text-anchor="middle" x="229" y="-85.5" font-family="Helvetica,sans-Serif" font-size="10.00">alglib.rcommstate</text>
</a>
</g>
</g>
<!-- Node4&#45;&gt;Node1 -->
<g id="edge3" class="edge"><title>Node4&#45;&gt;Node1</title>
<path fill="none" stroke="#9a32cd" stroke-dasharray="5,2" d="M216.319,-70.5523C207.744,-60.2335 195.703,-47.1906 183,-38 172.561,-30.4477 159.674,-24.1959 148.7,-19.6168"/>
<polygon fill="#9a32cd" stroke="#9a32cd" points="213.656,-72.8261 222.644,-78.435 219.115,-68.4451 213.656,-72.8261"/>
<text text-anchor="middle" x="220" y="-46.5" font-family="Helvetica,sans-Serif" font-size="10.00"> rstate</text>
</g>
<!-- Node5 -->
<g id="node5" class="node"><title>Node5</title>
<g id="a_node5"><a xlink:href="../../d7/d81/classalglib.html" target="_top" xlink:title=" ">
<polygon fill="white" stroke="black" points="209.5,-145.5 209.5,-164.5 248.5,-164.5 248.5,-145.5 209.5,-145.5"/>
<text text-anchor="middle" x="229" y="-152.5" font-family="Helvetica,sans-Serif" font-size="10.00">alglib</text>
</a>
</g>
</g>
<!-- Node5&#45;&gt;Node4 -->
<g id="edge4" class="edge"><title>Node5&#45;&gt;Node4</title>
<path fill="none" stroke="#9a32cd" stroke-dasharray="5,2" d="M229,-135.037C229,-122.67 229,-107.12 229,-97.6273"/>
<polygon fill="#9a32cd" stroke="#9a32cd" points="225.5,-135.234 229,-145.234 232.5,-135.234 225.5,-135.234"/>
<text text-anchor="middle" x="236" y="-119" font-family="Helvetica,sans-Serif" font-size="10.00"> ca</text>
</g>
</g>
</svg>
