<?xml version="1.0" encoding="UTF-8" standalone="no"?>
<!DOCTYPE svg PUBLIC "-//W3C//DTD SVG 1.1//EN"
 "http://www.w3.org/Graphics/SVG/1.1/DTD/svg11.dtd">
<!-- Generated by graphviz version 2.38.0 (20140413.2041)
 -->
<!-- Title: IG.Neural.Forms.NeuralParametricTest Pages: 1 -->
<!--zoomable 709 -->
<svg id="main" version="1.1" xmlns="http://www.w3.org/2000/svg" xmlns:xlink="http://www.w3.org/1999/xlink" xml:space="preserve" onload="init(evt)">
<style type="text/css"><![CDATA[
.edge:hover path { stroke: red; }
.edge:hover polygon { stroke: red; fill: red; }
]]></style>
<script type="text/javascript"><![CDATA[
var edges = document.getElementsByTagName('g');
if (edges && edges.length) {
  for (var i=0;i<edges.length;i++) {
    if (edges[i].id.substr(0,4)=='edge') {
      edges[i].setAttribute('class','edge');
    }
  }
}
]]></script>
        <defs>
                <circle id="rim" cx="0" cy="0" r="7"/>
                <circle id="rim2" cx="0" cy="0" r="3.5"/>
                <g id="zoomPlus">
                        <use xlink:href="#rim" fill="#404040">
                                <set attributeName="fill" to="#808080" begin="zoomplus.mouseover" end="zoomplus.mouseout"/>
                        </use>
                        <path d="M-4,0h8M0,-4v8" fill="none" stroke="white" stroke-width="1.5" pointer-events="none"/>
                </g>
                <g id="zoomMin">
                        <use xlink:href="#rim" fill="#404040">
                                <set attributeName="fill" to="#808080" begin="zoomminus.mouseover" end="zoomminus.mouseout"/>
                        </use>
                        <path d="M-4,0h8" fill="none" stroke="white" stroke-width="1.5" pointer-events="none"/>
                </g>
                <g id="dirArrow">
                        <path fill="none" stroke="white" stroke-width="1.5" d="M0,-3.0v7 M-2.5,-0.5L0,-3.0L2.5,-0.5"/>
                </g>
               <g id="resetDef">
                       <use xlink:href="#rim2" fill="#404040">
                               <set attributeName="fill" to="#808080" begin="reset.mouseover" end="reset.mouseout"/>
                       </use>
               </g>
        </defs>

<script type="text/javascript">
var viewWidth = 833;
var viewHeight = 709;
var sectionId = 'dynsection-1';
</script>
<script xlink:href="../../svgpan.js"/>
<svg id="graph" class="graph">
<g id="viewport">
<title>IG.Neural.Forms.NeuralParametricTest</title>
<polygon fill="white" stroke="none" points="-4,4 -4,-705.32 829,-705.32 829,4 -4,4"/>
<!-- Node1 -->
<g id="node1" class="node"><title>Node1</title>
<g id="a_node1"><a xlink:title="Form for training artificial neural networks.">
<polygon fill="#bfbfbf" stroke="black" points="640,-307.525 640,-326.525 825,-326.525 825,-307.525 640,-307.525"/>
<text text-anchor="middle" x="732.5" y="-314.525" font-family="Helvetica,sans-Serif" font-size="10.00">IG.Neural.Forms.NeuralParametricTest</text>
</a>
</g>
</g>
<!-- Node2 -->
<g id="node2" class="node"><title>Node2</title>
<g id="a_node2"><a xlink:title=" ">
<polygon fill="white" stroke="#bfbfbf" points="45,-638.525 45,-657.525 113,-657.525 113,-638.525 45,-638.525"/>
<text text-anchor="middle" x="79" y="-645.525" font-family="Helvetica,sans-Serif" font-size="10.00">UserControl</text>
</a>
</g>
</g>
<!-- Node2&#45;&gt;Node1 -->
<g id="edge1" class="edge"><title>Node2&#45;&gt;Node1</title>
<path fill="none" stroke="midnightblue" d="M118.415,-660.458C214.642,-689.009 469.229,-748.203 622,-631.025 724.843,-552.142 731.52,-370.132 731.606,-326.535"/>
<polygon fill="midnightblue" stroke="midnightblue" points="119.39,-657.097 108.805,-657.552 117.363,-663.797 119.39,-657.097"/>
</g>
<!-- Node5 -->
<g id="node5" class="node"><title>Node5</title>
<g id="a_node5"><a xlink:href="../../d1/d0d/classIG_1_1Neural_1_1Forms_1_1NeuralInputParameterSelectorMinMax.html" target="_top" xlink:title="Selection of parameter to be varied, together with bounds &#45; for parametric tests.">
<polygon fill="white" stroke="black" points="327,-594.025 327,-624.025 467,-624.025 467,-594.025 327,-594.025"/>
<text text-anchor="start" x="335" y="-612.025" font-family="Helvetica,sans-Serif" font-size="10.00">IG.Neural.Forms.NeuralInput</text>
<text text-anchor="middle" x="397" y="-601.025" font-family="Helvetica,sans-Serif" font-size="10.00">ParameterSelectorMinMax</text>
</a>
</g>
</g>
<!-- Node2&#45;&gt;Node5 -->
<g id="edge5" class="edge"><title>Node2&#45;&gt;Node5</title>
<path fill="none" stroke="midnightblue" d="M123.531,-648.183C169.841,-647.696 245.088,-645.025 309,-634.025 322.784,-631.653 337.499,-627.908 350.832,-624.033"/>
<polygon fill="midnightblue" stroke="midnightblue" points="123.228,-644.685 113.254,-648.26 123.28,-651.685 123.228,-644.685"/>
</g>
<!-- Node9 -->
<g id="node9" class="node"><title>Node9</title>
<g id="a_node9"><a xlink:href="../../d8/daf/classIG_1_1Neural_1_1Forms_1_1NeuralInputControl.html" target="_top" xlink:title="Control for editing input parameter values.">
<polygon fill="white" stroke="black" points="327,-199.025 327,-229.025 467,-229.025 467,-199.025 327,-199.025"/>
<text text-anchor="start" x="335" y="-217.025" font-family="Helvetica,sans-Serif" font-size="10.00">IG.Neural.Forms.NeuralInput</text>
<text text-anchor="middle" x="397" y="-206.025" font-family="Helvetica,sans-Serif" font-size="10.00">Control</text>
</a>
</g>
</g>
<!-- Node2&#45;&gt;Node9 -->
<g id="edge12" class="edge"><title>Node2&#45;&gt;Node9</title>
<path fill="none" stroke="midnightblue" d="M123.022,-642.091C187.611,-632.985 302.795,-615.898 309,-609.025 329.148,-586.707 318.533,-367.875 327,-339.025 339.565,-296.212 368.573,-251.807 384.689,-229.214"/>
<polygon fill="midnightblue" stroke="midnightblue" points="122.531,-638.625 113.115,-643.481 123.504,-645.558 122.531,-638.625"/>
</g>
<!-- Node3 -->
<g id="node3" class="node"><title>Node3</title>
<g id="a_node3"><a xlink:href="../../d1/d98/interfaceIG_1_1Neural_1_1INeuralModelContainer.html" target="_top" xlink:title="Interface for classes that contain the NeuralModel property that implements the INeuralModel interfac...">
<polygon fill="white" stroke="black" points="22,-93.5251 22,-112.525 136,-112.525 136,-93.5251 22,-93.5251"/>
<text text-anchor="middle" x="79" y="-100.525" font-family="Helvetica,sans-Serif" font-size="10.00">INeuralModelContainer</text>
</a>
</g>
</g>
<!-- Node3&#45;&gt;Node1 -->
<g id="edge2" class="edge"><title>Node3&#45;&gt;Node1</title>
<path fill="none" stroke="midnightblue" d="M146.364,-99.2694C192.487,-98.1304 255.107,-99.5276 309,-111.025 455.822,-142.348 490.629,-165.364 622,-238.025 660.154,-259.128 700.67,-291.269 719.974,-307.269"/>
<polygon fill="midnightblue" stroke="midnightblue" points="146.087,-95.7759 136.194,-99.568 146.292,-102.773 146.087,-95.7759"/>
</g>
<!-- Node3&#45;&gt;Node9 -->
<g id="edge13" class="edge"><title>Node3&#45;&gt;Node9</title>
<path fill="none" stroke="midnightblue" d="M146.534,-106.196C193.684,-110.494 257.463,-120.554 309,-144.025 338.111,-157.283 365.837,-182.53 381.871,-198.804"/>
<polygon fill="midnightblue" stroke="midnightblue" points="146.695,-102.697 136.435,-105.339 146.104,-109.672 146.695,-102.697"/>
</g>
<!-- Node4 -->
<g id="node4" class="node"><title>Node4</title>
<g id="a_node4"><a xlink:title=" ">
<polygon fill="white" stroke="#bfbfbf" points="375,-49.5251 375,-68.5251 419,-68.5251 419,-49.5251 375,-49.5251"/>
<text text-anchor="middle" x="397" y="-56.5251" font-family="Helvetica,sans-Serif" font-size="10.00">Forms</text>
</a>
</g>
</g>
<!-- Node4&#45;&gt;Node1 -->
<g id="edge3" class="edge"><title>Node4&#45;&gt;Node1</title>
<path fill="none" stroke="#9a32cd" stroke-dasharray="5,2" d="M429.186,-51.4619C475.664,-42.0971 563.857,-31.8855 622,-72.0251 706.349,-130.257 726.592,-269.341 730.617,-307.307"/>
<polygon fill="#9a32cd" stroke="#9a32cd" points="428.167,-48.1005 419.118,-53.6107 429.628,-54.9463 428.167,-48.1005"/>
<text text-anchor="middle" x="553.5" y="-75.0251" font-family="Helvetica,sans-Serif" font-size="10.00"> neuralOutputValueSelector1</text>
</g>
<!-- Node5&#45;&gt;Node1 -->
<g id="edge4" class="edge"><title>Node5&#45;&gt;Node1</title>
<path fill="none" stroke="#9a32cd" stroke-dasharray="5,2" d="M477.263,-616.496C523.827,-616.721 581.335,-609.295 622,-578.025 708.087,-511.826 727.145,-365.412 730.747,-326.615"/>
<polygon fill="#9a32cd" stroke="#9a32cd" points="477.257,-612.995 467.201,-616.329 477.141,-619.994 477.257,-612.995"/>
<text text-anchor="middle" x="553.5" y="-619.025" font-family="Helvetica,sans-Serif" font-size="10.00"> neuralInputParameterSelector1</text>
</g>
<!-- Node6 -->
<g id="node6" class="node"><title>Node6</title>
<g id="a_node6"><a xlink:title=" ">
<polygon fill="white" stroke="#bfbfbf" points="54,-351.525 54,-370.525 104,-370.525 104,-351.525 54,-351.525"/>
<text text-anchor="middle" x="79" y="-358.525" font-family="Helvetica,sans-Serif" font-size="10.00">System</text>
</a>
</g>
</g>
<!-- Node6&#45;&gt;Node1 -->
<g id="edge9" class="edge"><title>Node6&#45;&gt;Node1</title>
<path fill="none" stroke="#9a32cd" stroke-dasharray="5,2" d="M114.112,-359.045C158.861,-356.422 239.826,-351.595 309,-347.025 422.915,-339.499 554.049,-330.068 639.622,-323.81"/>
<polygon fill="#9a32cd" stroke="#9a32cd" points="113.852,-355.554 104.073,-359.631 114.26,-362.542 113.852,-355.554"/>
<text text-anchor="middle" x="397" y="-393.025" font-family="Helvetica,sans-Serif" font-size="10.00"> lblNumPointsLine</text>
<text text-anchor="middle" x="397" y="-382.025" font-family="Helvetica,sans-Serif" font-size="10.00">btnParmTestStart</text>
<text text-anchor="middle" x="397" y="-371.025" font-family="Helvetica,sans-Serif" font-size="10.00">txtNumPointsLine</text>
<text text-anchor="middle" x="397" y="-360.025" font-family="Helvetica,sans-Serif" font-size="10.00">components</text>
<text text-anchor="middle" x="397" y="-349.025" font-family="Helvetica,sans-Serif" font-size="10.00">pnlGraph</text>
</g>
<!-- Node6&#45;&gt;Node5 -->
<g id="edge6" class="edge"><title>Node6&#45;&gt;Node5</title>
<path fill="none" stroke="#9a32cd" stroke-dasharray="5,2" d="M114.174,-364.984C176.378,-372.345 302.338,-388.023 309,-395.025 337.317,-424.791 302.826,-545.806 327,-579.025 331.458,-585.151 337.438,-590.041 344.021,-593.941"/>
<polygon fill="#9a32cd" stroke="#9a32cd" points="114.394,-361.486 104.054,-363.794 113.576,-368.438 114.394,-361.486"/>
<text text-anchor="middle" x="242.5" y="-508.025" font-family="Helvetica,sans-Serif" font-size="10.00"> btnIncrease</text>
<text text-anchor="middle" x="242.5" y="-497.025" font-family="Helvetica,sans-Serif" font-size="10.00">lblFrom</text>
<text text-anchor="middle" x="242.5" y="-486.025" font-family="Helvetica,sans-Serif" font-size="10.00">txtMaxValue</text>
<text text-anchor="middle" x="242.5" y="-475.025" font-family="Helvetica,sans-Serif" font-size="10.00">txtParamNum</text>
<text text-anchor="middle" x="242.5" y="-464.025" font-family="Helvetica,sans-Serif" font-size="10.00">components</text>
<text text-anchor="middle" x="242.5" y="-453.025" font-family="Helvetica,sans-Serif" font-size="10.00">lblSelectParameter</text>
<text text-anchor="middle" x="242.5" y="-442.025" font-family="Helvetica,sans-Serif" font-size="10.00">lblParamNum</text>
<text text-anchor="middle" x="242.5" y="-431.025" font-family="Helvetica,sans-Serif" font-size="10.00">txtMinValue</text>
<text text-anchor="middle" x="242.5" y="-420.025" font-family="Helvetica,sans-Serif" font-size="10.00">btnDecrease</text>
<text text-anchor="middle" x="242.5" y="-409.025" font-family="Helvetica,sans-Serif" font-size="10.00">pnlMain</text>
<text text-anchor="middle" x="242.5" y="-398.025" font-family="Helvetica,sans-Serif" font-size="10.00">...</text>
</g>
<!-- Node6&#45;&gt;Node9 -->
<g id="edge15" class="edge"><title>Node6&#45;&gt;Node9</title>
<path fill="none" stroke="#9a32cd" stroke-dasharray="5,2" d="M85.9872,-341.702C97.3902,-308.678 125.685,-242.306 176,-215.025 223.511,-189.264 285.714,-191.675 331.851,-198.986"/>
<polygon fill="#9a32cd" stroke="#9a32cd" points="82.5583,-340.926 82.7603,-351.518 89.2082,-343.112 82.5583,-340.926"/>
<text text-anchor="middle" x="242.5" y="-339.025" font-family="Helvetica,sans-Serif" font-size="10.00"> btnResetDefault</text>
<text text-anchor="middle" x="242.5" y="-328.025" font-family="Helvetica,sans-Serif" font-size="10.00">columnValue</text>
<text text-anchor="middle" x="242.5" y="-317.025" font-family="Helvetica,sans-Serif" font-size="10.00">btnResetCenter</text>
<text text-anchor="start" x="192" y="-306.025" font-family="Helvetica,sans-Serif" font-size="10.00">resetToDefaultToolStrip</text>
<text text-anchor="middle" x="242.5" y="-295.025" font-family="Helvetica,sans-Serif" font-size="10.00">MenuItem</text>
<text text-anchor="middle" x="242.5" y="-284.025" font-family="Helvetica,sans-Serif" font-size="10.00">columnName</text>
<text text-anchor="middle" x="242.5" y="-273.025" font-family="Helvetica,sans-Serif" font-size="10.00">groupBox1</text>
<text text-anchor="middle" x="242.5" y="-262.025" font-family="Helvetica,sans-Serif" font-size="10.00">components</text>
<text text-anchor="middle" x="242.5" y="-251.025" font-family="Helvetica,sans-Serif" font-size="10.00">contextMenuControl</text>
<text text-anchor="middle" x="242.5" y="-240.025" font-family="Helvetica,sans-Serif" font-size="10.00">columnID</text>
<text text-anchor="middle" x="242.5" y="-229.025" font-family="Helvetica,sans-Serif" font-size="10.00">dGridInputParam</text>
<text text-anchor="middle" x="242.5" y="-218.025" font-family="Helvetica,sans-Serif" font-size="10.00">...</text>
</g>
<!-- Node7 -->
<g id="node7" class="node"><title>Node7</title>
<g id="a_node7"><a xlink:href="../../d1/d98/interfaceIG_1_1Neural_1_1INeuralModelContainer.html" target="_top" xlink:title="Interface for classes that contain the NeuralModel property that implements the INeuralModel interfac...">
<polygon fill="white" stroke="black" points="0,-554.525 0,-573.525 158,-573.525 158,-554.525 0,-554.525"/>
<text text-anchor="middle" x="79" y="-561.525" font-family="Helvetica,sans-Serif" font-size="10.00">IG.Neural.INeuralModelContainer</text>
</a>
</g>
</g>
<!-- Node7&#45;&gt;Node1 -->
<g id="edge10" class="edge"><title>Node7&#45;&gt;Node1</title>
<path fill="none" stroke="#9a32cd" stroke-dasharray="5,2" d="M168.247,-567.632C211.444,-567.144 263.76,-563.158 309,-550.025 485.576,-498.768 669.962,-364.114 718.951,-326.758"/>
<polygon fill="#9a32cd" stroke="#9a32cd" points="168.024,-564.133 158.042,-567.685 168.06,-571.133 168.024,-564.133"/>
<text text-anchor="middle" x="397" y="-546.025" font-family="Helvetica,sans-Serif" font-size="10.00"> _neuralModelContainerControl</text>
</g>
<!-- Node7&#45;&gt;Node5 -->
<g id="edge7" class="edge"><title>Node7&#45;&gt;Node5</title>
<path fill="none" stroke="#9a32cd" stroke-dasharray="5,2" d="M157.166,-575.014C209.032,-582.4 276.801,-592.051 326.897,-599.184"/>
<polygon fill="#9a32cd" stroke="#9a32cd" points="157.409,-571.513 147.015,-573.568 156.422,-578.443 157.409,-571.513"/>
<text text-anchor="middle" x="242.5" y="-598.025" font-family="Helvetica,sans-Serif" font-size="10.00"> _neuralModelContainerControl</text>
</g>
<!-- Node7&#45;&gt;Node9 -->
<g id="edge17" class="edge"><title>Node7&#45;&gt;Node9</title>
<path fill="none" stroke="#9a32cd" stroke-dasharray="5,2" d="M123.851,-551.782C140.154,-547.449 158.854,-542.733 176,-539.025 205.316,-532.685 288.545,-537.962 309,-516.025 335.962,-487.109 315.208,-376.762 327,-339.025 340.308,-296.437 369.014,-251.94 384.885,-229.274"/>
<polygon fill="#9a32cd" stroke="#9a32cd" points="122.794,-548.442 114.045,-554.419 124.611,-555.202 122.794,-548.442"/>
<text text-anchor="middle" x="242.5" y="-542.025" font-family="Helvetica,sans-Serif" font-size="10.00"> _neuralModelContainerControl</text>
</g>
<!-- Node8 -->
<g id="node8" class="node"><title>Node8</title>
<g id="a_node8"><a xlink:title=" ">
<polygon fill="white" stroke="#bfbfbf" points="367.5,-11.5251 367.5,-30.5251 426.5,-30.5251 426.5,-11.5251 367.5,-11.5251"/>
<text text-anchor="middle" x="397" y="-18.5251" font-family="Helvetica,sans-Serif" font-size="10.00">ZedGraph</text>
</a>
</g>
</g>
<!-- Node8&#45;&gt;Node1 -->
<g id="edge8" class="edge"><title>Node8&#45;&gt;Node1</title>
<path fill="none" stroke="#9a32cd" stroke-dasharray="5,2" d="M436.635,-10.3005C484.799,0.60758 567.419,10.9347 622,-28.0251 719.385,-97.5385 730.196,-265.241 731.365,-307.322"/>
<polygon fill="#9a32cd" stroke="#9a32cd" points="435.528,-6.96617 426.614,-12.6918 437.153,-13.775 435.528,-6.96617"/>
<text text-anchor="middle" x="553.5" y="-31.0251" font-family="Helvetica,sans-Serif" font-size="10.00"> ParmTestFGraph</text>
</g>
<!-- Node9&#45;&gt;Node1 -->
<g id="edge11" class="edge"><title>Node9&#45;&gt;Node1</title>
<path fill="none" stroke="#9a32cd" stroke-dasharray="5,2" d="M456.567,-232.113C527.677,-254.075 644.969,-290.3 700.505,-307.452"/>
<polygon fill="#9a32cd" stroke="#9a32cd" points="457.438,-228.719 446.851,-229.112 455.373,-235.408 457.438,-228.719"/>
<text text-anchor="middle" x="553.5" y="-284.025" font-family="Helvetica,sans-Serif" font-size="10.00"> neuralInputControl1</text>
</g>
<!-- Node10 -->
<g id="node10" class="node"><title>Node10</title>
<g id="a_node10"><a xlink:title=" ">
<polygon fill="white" stroke="#bfbfbf" points="42.5,-134.525 42.5,-153.525 115.5,-153.525 115.5,-134.525 42.5,-134.525"/>
<text text-anchor="middle" x="79" y="-141.525" font-family="Helvetica,sans-Serif" font-size="10.00">INeuralModel</text>
</a>
</g>
</g>
<!-- Node10&#45;&gt;Node9 -->
<g id="edge14" class="edge"><title>Node10&#45;&gt;Node9</title>
<path fill="none" stroke="midnightblue" d="M125.848,-144.487C172.771,-146.051 247.345,-151.583 309,-170.025 331.378,-176.719 354.911,-188.982 371.851,-198.864"/>
<polygon fill="midnightblue" stroke="midnightblue" points="125.789,-140.984 115.693,-144.196 125.589,-147.981 125.789,-140.984"/>
</g>
<!-- Node11 -->
<g id="node11" class="node"><title>Node11</title>
<g id="a_node11"><a xlink:title=" ">
<polygon fill="white" stroke="#bfbfbf" points="64.5,-172.525 64.5,-191.525 93.5,-191.525 93.5,-172.525 64.5,-172.525"/>
<text text-anchor="middle" x="79" y="-179.525" font-family="Helvetica,sans-Serif" font-size="10.00">IG</text>
</a>
</g>
</g>
<!-- Node11&#45;&gt;Node9 -->
<g id="edge16" class="edge"><title>Node11&#45;&gt;Node9</title>
<path fill="none" stroke="#9a32cd" stroke-dasharray="5,2" d="M103.592,-179.079C145.398,-174.487 235.05,-167.471 309,-181.025 328.067,-184.52 348.375,-191.989 364.571,-198.939"/>
<polygon fill="#9a32cd" stroke="#9a32cd" points="103.108,-175.612 93.5755,-180.236 103.911,-182.565 103.108,-175.612"/>
<text text-anchor="middle" x="242.5" y="-184.025" font-family="Helvetica,sans-Serif" font-size="10.00"> _values</text>
</g>
</g>
</svg>
        <g id="navigator" transform="translate(0 0)" fill="#404254">
                <rect fill="#f2f5e9" fill-opacity="0.5" stroke="#606060" stroke-width=".5" x="0" y="0" width="60" height="60"/>
                <use id="zoomplus" xlink:href="#zoomPlus" x="17" y="9" onmousedown="handleZoom(evt,'in')"/>
                <use id="zoomminus" xlink:href="#zoomMin" x="42" y="9" onmousedown="handleZoom(evt,'out')"/>
                <use id="reset" xlink:href="#resetDef" x="30" y="36" onmousedown="handleReset()"/>
                <g id="arrowUp" xlink:href="#dirArrow" transform="translate(30 24)" onmousedown="handlePan(0,-1)">
                  <use xlink:href="#rim" fill="#404040">
                        <set attributeName="fill" to="#808080" begin="arrowUp.mouseover" end="arrowUp.mouseout"/>
                  </use>
                  <path fill="none" stroke="white" stroke-width="1.5" d="M0,-3.0v7 M-2.5,-0.5L0,-3.0L2.5,-0.5"/>
                </g>
                <g id="arrowRight" xlink:href="#dirArrow" transform="rotate(90) translate(36 -43)" onmousedown="handlePan(1,0)">
                  <use xlink:href="#rim" fill="#404040">
                        <set attributeName="fill" to="#808080" begin="arrowRight.mouseover" end="arrowRight.mouseout"/>
                  </use>
                  <path fill="none" stroke="white" stroke-width="1.5" d="M0,-3.0v7 M-2.5,-0.5L0,-3.0L2.5,-0.5"/>
                </g>
                <g id="arrowDown" xlink:href="#dirArrow" transform="rotate(180) translate(-30 -48)" onmousedown="handlePan(0,1)">
                  <use xlink:href="#rim" fill="#404040">
                        <set attributeName="fill" to="#808080" begin="arrowDown.mouseover" end="arrowDown.mouseout"/>
                  </use>
                  <path fill="none" stroke="white" stroke-width="1.5" d="M0,-3.0v7 M-2.5,-0.5L0,-3.0L2.5,-0.5"/>
                </g>
                <g id="arrowLeft" xlink:href="#dirArrow" transform="rotate(270) translate(-36 17)" onmousedown="handlePan(-1,0)">
                  <use xlink:href="#rim" fill="#404040">
                        <set attributeName="fill" to="#808080" begin="arrowLeft.mouseover" end="arrowLeft.mouseout"/>
                  </use>
                  <path fill="none" stroke="white" stroke-width="1.5" d="M0,-3.0v7 M-2.5,-0.5L0,-3.0L2.5,-0.5"/>
                </g>
        </g>
        <svg viewBox="0 0 15 15" width="100%" height="30px" preserveAspectRatio="xMaxYMin meet">
         <g id="arrow_out" transform="scale(0.3 0.3)">
          <a xlink:href="classIG_1_1Neural_1_1Forms_1_1NeuralParametricTest__coll__graph_org.svg" target="_base">
           <rect id="button" ry="5" rx="5" y="6" x="6" height="38" width="38"
                fill="#f2f5e9" fill-opacity="0.5" stroke="#606060" stroke-width="1.0"/>
           <path id="arrow"
             d="M 11.500037,31.436501 C 11.940474,20.09759 22.043105,11.32322 32.158766,21.979434 L 37.068811,17.246167 C 37.068811,17.246167 37.088388,32 37.088388,32 L 22.160133,31.978069 C 22.160133,31.978069 26.997745,27.140456 26.997745,27.140456 C 18.528582,18.264221 13.291696,25.230495 11.500037,31.436501 z"
             style="fill:#404040;"/>
          </a>
         </g>
        </svg>
</svg>
