<?xml version="1.0" encoding="UTF-8" standalone="no"?>
<!DOCTYPE svg PUBLIC "-//W3C//DTD SVG 1.1//EN"
 "http://www.w3.org/Graphics/SVG/1.1/DTD/svg11.dtd">
<!-- Generated by graphviz version 2.38.0 (20140413.2041)
 -->
<!-- Title: IG.Num.Func3dBase Pages: 1 -->
<!--zoomable 317 -->
<svg id="main" version="1.1" xmlns="http://www.w3.org/2000/svg" xmlns:xlink="http://www.w3.org/1999/xlink" xml:space="preserve" onload="init(evt)">
<style type="text/css"><![CDATA[
.edge:hover path { stroke: red; }
.edge:hover polygon { stroke: red; fill: red; }
]]></style>
<script type="text/javascript"><![CDATA[
var edges = document.getElementsByTagName('g');
if (edges && edges.length) {
  for (var i=0;i<edges.length;i++) {
    if (edges[i].id.substr(0,4)=='edge') {
      edges[i].setAttribute('class','edge');
    }
  }
}
]]></script>
        <defs>
                <circle id="rim" cx="0" cy="0" r="7"/>
                <circle id="rim2" cx="0" cy="0" r="3.5"/>
                <g id="zoomPlus">
                        <use xlink:href="#rim" fill="#404040">
                                <set attributeName="fill" to="#808080" begin="zoomplus.mouseover" end="zoomplus.mouseout"/>
                        </use>
                        <path d="M-4,0h8M0,-4v8" fill="none" stroke="white" stroke-width="1.5" pointer-events="none"/>
                </g>
                <g id="zoomMin">
                        <use xlink:href="#rim" fill="#404040">
                                <set attributeName="fill" to="#808080" begin="zoomminus.mouseover" end="zoomminus.mouseout"/>
                        </use>
                        <path d="M-4,0h8" fill="none" stroke="white" stroke-width="1.5" pointer-events="none"/>
                </g>
                <g id="dirArrow">
                        <path fill="none" stroke="white" stroke-width="1.5" d="M0,-3.0v7 M-2.5,-0.5L0,-3.0L2.5,-0.5"/>
                </g>
               <g id="resetDef">
                       <use xlink:href="#rim2" fill="#404040">
                               <set attributeName="fill" to="#808080" begin="reset.mouseover" end="reset.mouseout"/>
                       </use>
               </g>
        </defs>

<script type="text/javascript">
var viewWidth = 927;
var viewHeight = 317;
var sectionId = 'dynsection-0';
</script>
<script xlink:href="../../svgpan.js"/>
<svg id="graph" class="graph">
<g id="viewport">
<title>IG.Num.Func3dBase</title>
<polygon fill="white" stroke="none" points="-4,4 -4,-312.5 923,-312.5 923,4 -4,4"/>
<!-- Node1 -->
<g id="node1" class="node"><title>Node1</title>
<g id="a_node1"><a xlink:title="Base class for scalar functions of 3 variables (base for implementation of IFunc3d interface).">
<polygon fill="#bfbfbf" stroke="black" points="386,-104.5 386,-123.5 493,-123.5 493,-104.5 386,-104.5"/>
<text text-anchor="middle" x="439.5" y="-111.5" font-family="Helvetica,sans-Serif" font-size="10.00">IG.Num.Func3dBase</text>
</a>
</g>
</g>
<!-- Node5 -->
<g id="node5" class="node"><title>Node5</title>
<g id="a_node5"><a xlink:href="../../de/d93/classIG_1_1Num_1_1Func3dBaseNoGradient.html" target="_top" xlink:title="Base class for scalar functions of 3 variables (implementations of the IFunc3d interface)....">
<polygon fill="white" stroke="black" points="537.5,-234.5 537.5,-253.5 693.5,-253.5 693.5,-234.5 537.5,-234.5"/>
<text text-anchor="middle" x="615.5" y="-241.5" font-family="Helvetica,sans-Serif" font-size="10.00">IG.Num.Func3dBaseNoGradient</text>
</a>
</g>
</g>
<!-- Node1&#45;&gt;Node5 -->
<g id="edge5" class="edge"><title>Node1&#45;&gt;Node5</title>
<path fill="none" stroke="midnightblue" d="M461.736,-129.866C498.284,-157.172 572.004,-212.25 601.687,-234.427"/>
<polygon fill="midnightblue" stroke="midnightblue" points="463.401,-126.741 453.295,-123.559 459.211,-132.348 463.401,-126.741"/>
</g>
<!-- Node8 -->
<g id="node8" class="node"><title>Node8</title>
<g id="a_node8"><a xlink:href="../../d0/d67/classIG_1_1Num_1_1Func3dBaseNoHessian.html" target="_top" xlink:title="Base class for scalar functions of 3 variables (implementations of the IFunc3d interface)....">
<polygon fill="white" stroke="black" points="538,-133.5 538,-152.5 693,-152.5 693,-133.5 538,-133.5"/>
<text text-anchor="middle" x="615.5" y="-140.5" font-family="Helvetica,sans-Serif" font-size="10.00">IG.Num.Func3dBaseNoHessian</text>
</a>
</g>
</g>
<!-- Node1&#45;&gt;Node8 -->
<g id="edge8" class="edge"><title>Node1&#45;&gt;Node8</title>
<path fill="none" stroke="midnightblue" d="M503.387,-124.481C521.051,-127.425 540.154,-130.609 557.457,-133.493"/>
<polygon fill="midnightblue" stroke="midnightblue" points="503.617,-120.971 493.178,-122.78 502.466,-127.876 503.617,-120.971"/>
</g>
<!-- Node12 -->
<g id="node12" class="node"><title>Node12</title>
<g id="a_node12"><a xlink:href="../../d9/d64/classIG_1_1Num_1_1Func3dFromScalarFunction.html" target="_top" xlink:title="Scalar function of 3 variables that is based on a general scalar function of vector argument.">
<polygon fill="white" stroke="black" points="529,-85.5 529,-104.5 702,-104.5 702,-85.5 529,-85.5"/>
<text text-anchor="middle" x="615.5" y="-92.5" font-family="Helvetica,sans-Serif" font-size="10.00">IG.Num.Func3dFromScalarFunction</text>
</a>
</g>
</g>
<!-- Node1&#45;&gt;Node12 -->
<g id="edge12" class="edge"><title>Node1&#45;&gt;Node12</title>
<path fill="none" stroke="midnightblue" d="M503.187,-107.155C511.544,-106.242 520.227,-105.294 528.891,-104.348"/>
<polygon fill="midnightblue" stroke="midnightblue" points="502.739,-103.683 493.178,-108.248 503.499,-110.642 502.739,-103.683"/>
</g>
<!-- Node14 -->
<g id="node14" class="node"><title>Node14</title>
<g id="a_node14"><a xlink:href="../../d9/d2a/classIG_1_1Num_1_1Func3dVectorFormBase.html" target="_top" xlink:title="Base class for scalar functions of 3 variables (base for implementation of IFunc3d interface).">
<polygon fill="white" stroke="black" points="536.5,-38.5 536.5,-57.5 694.5,-57.5 694.5,-38.5 536.5,-38.5"/>
<text text-anchor="middle" x="615.5" y="-45.5" font-family="Helvetica,sans-Serif" font-size="10.00">IG.Num.Func3dVectorFormBase</text>
</a>
</g>
</g>
<!-- Node1&#45;&gt;Node14 -->
<g id="edge14" class="edge"><title>Node1&#45;&gt;Node14</title>
<path fill="none" stroke="midnightblue" d="M470.786,-100.202C487.753,-92.6737 509.385,-83.4061 529,-76 546.681,-69.324 566.749,-62.7036 582.998,-57.5777"/>
<polygon fill="midnightblue" stroke="midnightblue" points="469.085,-97.1291 461.385,-104.407 471.943,-103.519 469.085,-97.1291"/>
</g>
<!-- Node2 -->
<g id="node2" class="node"><title>Node2</title>
<g id="a_node2"><a xlink:href="../../d2/d9e/classIG_1_1Num_1_1ScalarFunctionUntransformedBase.html" target="_top" xlink:title="Base class for defining scalar functions without possibility of affine transformation of parameters.">
<polygon fill="white" stroke="black" points="183,-104.5 183,-123.5 350,-123.5 350,-104.5 183,-104.5"/>
<text text-anchor="middle" x="266.5" y="-111.5" font-family="Helvetica,sans-Serif" font-size="10.00">ScalarFunctionUntransformedBase</text>
</a>
</g>
</g>
<!-- Node2&#45;&gt;Node1 -->
<g id="edge1" class="edge"><title>Node2&#45;&gt;Node1</title>
<path fill="none" stroke="midnightblue" d="M360.455,-114C369.13,-114 377.703,-114 385.811,-114"/>
<polygon fill="midnightblue" stroke="midnightblue" points="360.245,-110.5 350.245,-114 360.245,-117.5 360.245,-110.5"/>
</g>
<!-- Node3 -->
<g id="node3" class="node"><title>Node3</title>
<g id="a_node3"><a xlink:href="../../d8/d56/interfaceIG_1_1Num_1_1IScalarFunctionUntransformed.html" target="_top" xlink:title="Scalar functions of vector arguments.">
<polygon fill="white" stroke="black" points="0,-123.5 0,-142.5 147,-142.5 147,-123.5 0,-123.5"/>
<text text-anchor="middle" x="73.5" y="-130.5" font-family="Helvetica,sans-Serif" font-size="10.00">IScalarFunctionUntransformed</text>
</a>
</g>
</g>
<!-- Node3&#45;&gt;Node1 -->
<g id="edge4" class="edge"><title>Node3&#45;&gt;Node1</title>
<path fill="none" stroke="midnightblue" d="M157.244,-137.544C212.078,-139.439 285.523,-139.843 350,-133 367.502,-131.142 386.629,-127.273 402.61,-123.509"/>
<polygon fill="midnightblue" stroke="midnightblue" points="157.35,-134.046 147.228,-137.174 157.092,-141.041 157.35,-134.046"/>
</g>
<!-- Node3&#45;&gt;Node2 -->
<g id="edge2" class="edge"><title>Node3&#45;&gt;Node2</title>
<path fill="none" stroke="midnightblue" d="M157.411,-124.752C165.807,-123.917 174.335,-123.069 182.729,-122.234"/>
<polygon fill="midnightblue" stroke="midnightblue" points="156.858,-121.29 147.254,-125.763 157.551,-128.256 156.858,-121.29"/>
</g>
<!-- Node4 -->
<g id="node4" class="node"><title>Node4</title>
<g id="a_node4"><a xlink:href="../../d5/d03/interfaceIG_1_1Num_1_1IFunc3d.html" target="_top" xlink:title="Represents scalar functions of 2 variables.">
<polygon fill="white" stroke="black" points="241,-66.5 241,-85.5 292,-85.5 292,-66.5 241,-66.5"/>
<text text-anchor="middle" x="266.5" y="-73.5" font-family="Helvetica,sans-Serif" font-size="10.00">IFunc3d</text>
</a>
</g>
</g>
<!-- Node4&#45;&gt;Node1 -->
<g id="edge3" class="edge"><title>Node4&#45;&gt;Node1</title>
<path fill="none" stroke="midnightblue" d="M301.774,-83.6164C328.76,-89.6133 366.53,-98.0066 395.536,-104.452"/>
<polygon fill="midnightblue" stroke="midnightblue" points="302.521,-80.1972 292,-81.4445 301.003,-87.0305 302.521,-80.1972"/>
</g>
<!-- Node6 -->
<g id="node6" class="node"><title>Node6</title>
<g id="a_node6"><a xlink:href="../../d4/d6b/classIG_1_1Gr3d_1_1ExampleValueFunctionDiff3D.html" target="_top" xlink:title=" ">
<polygon fill="white" stroke="black" points="751.5,-278 751.5,-308 905.5,-308 905.5,-278 751.5,-278"/>
<text text-anchor="start" x="759.5" y="-296" font-family="Helvetica,sans-Serif" font-size="10.00">IG.Gr3d.ExampleValueFunction</text>
<text text-anchor="middle" x="828.5" y="-285" font-family="Helvetica,sans-Serif" font-size="10.00">Diff3D</text>
</a>
</g>
</g>
<!-- Node5&#45;&gt;Node6 -->
<g id="edge6" class="edge"><title>Node5&#45;&gt;Node6</title>
<path fill="none" stroke="midnightblue" d="M667.228,-255.78C695.856,-262.429 731.93,-270.806 762.601,-277.929"/>
<polygon fill="midnightblue" stroke="midnightblue" points="667.966,-252.359 657.433,-253.506 666.382,-259.177 667.966,-252.359"/>
</g>
<!-- Node7 -->
<g id="node7" class="node"><title>Node7</title>
<g id="a_node7"><a xlink:href="../../d7/d31/classIG_1_1Gr3d_1_1VtkPlotBase_1_1ExampleValueFunctionDiff21.html" target="_top" xlink:title="3D function of coordinates that returns difference between func2 and func1 at the first two coordinat...">
<polygon fill="white" stroke="black" points="754,-229 754,-259 903,-259 903,-229 754,-229"/>
<text text-anchor="start" x="762" y="-247" font-family="Helvetica,sans-Serif" font-size="10.00">IG.Gr3d.VtkPlotBase.Example</text>
<text text-anchor="middle" x="828.5" y="-236" font-family="Helvetica,sans-Serif" font-size="10.00">ValueFunctionDiff21</text>
</a>
</g>
</g>
<!-- Node5&#45;&gt;Node7 -->
<g id="edge7" class="edge"><title>Node5&#45;&gt;Node7</title>
<path fill="none" stroke="midnightblue" d="M703.819,-244C720.432,-244 737.664,-244 753.801,-244"/>
<polygon fill="midnightblue" stroke="midnightblue" points="703.572,-240.5 693.571,-244 703.571,-247.5 703.572,-240.5"/>
</g>
<!-- Node9 -->
<g id="node9" class="node"><title>Node9</title>
<g id="a_node9"><a xlink:href="../../d1/d3b/classIG_1_1Gr3d_1_1VtkPlotBase_1_1Func3dZ.html" target="_top" xlink:title="3D function that returns the third component of its 3D vector argument. Used e.g. for coloring graphs...">
<polygon fill="white" stroke="black" points="754,-190.5 754,-209.5 903,-209.5 903,-190.5 754,-190.5"/>
<text text-anchor="middle" x="828.5" y="-197.5" font-family="Helvetica,sans-Serif" font-size="10.00">IG.Gr3d.VtkPlotBase.Func3dZ</text>
</a>
</g>
</g>
<!-- Node8&#45;&gt;Node9 -->
<g id="edge9" class="edge"><title>Node8&#45;&gt;Node9</title>
<path fill="none" stroke="midnightblue" d="M653.999,-155.73C677.881,-163.587 709.564,-173.553 738,-181 751.061,-184.421 765.316,-187.665 778.532,-190.472"/>
<polygon fill="midnightblue" stroke="midnightblue" points="654.867,-152.33 644.274,-152.505 652.664,-158.974 654.867,-152.33"/>
</g>
<!-- Node10 -->
<g id="node10" class="node"><title>Node10</title>
<g id="a_node10"><a xlink:href="../../d0/d4d/classIG_1_1Gr3d_1_1VtkPlotBase_1_1Func3dZero.html" target="_top" xlink:title="3D function that returns 0. Used e.g. for coloring graphs by heights.">
<polygon fill="white" stroke="black" points="747.5,-152.5 747.5,-171.5 909.5,-171.5 909.5,-152.5 747.5,-152.5"/>
<text text-anchor="middle" x="828.5" y="-159.5" font-family="Helvetica,sans-Serif" font-size="10.00">IG.Gr3d.VtkPlotBase.Func3dZero</text>
</a>
</g>
</g>
<!-- Node8&#45;&gt;Node10 -->
<g id="edge10" class="edge"><title>Node8&#45;&gt;Node10</title>
<path fill="none" stroke="midnightblue" d="M703.256,-150.812C717.809,-152.123 732.854,-153.477 747.235,-154.772"/>
<polygon fill="midnightblue" stroke="midnightblue" points="703.546,-147.324 693.273,-149.913 702.918,-154.296 703.546,-147.324"/>
</g>
<!-- Node11 -->
<g id="node11" class="node"><title>Node11</title>
<g id="a_node11"><a xlink:href="../../db/dd6/classIG_1_1Num_1_1Func3dExamples_1_1Func3dXYZ.html" target="_top" xlink:title="Function f(x, y, z) = x * y * z.">
<polygon fill="white" stroke="black" points="738,-114.5 738,-133.5 919,-133.5 919,-114.5 738,-114.5"/>
<text text-anchor="middle" x="828.5" y="-121.5" font-family="Helvetica,sans-Serif" font-size="10.00">IG.Num.Func3dExamples.Func3dXYZ</text>
</a>
</g>
</g>
<!-- Node8&#45;&gt;Node11 -->
<g id="edge11" class="edge"><title>Node8&#45;&gt;Node11</title>
<path fill="none" stroke="midnightblue" d="M703.577,-135.159C714.903,-134.139 726.522,-133.093 737.889,-132.069"/>
<polygon fill="midnightblue" stroke="midnightblue" points="702.918,-131.704 693.273,-136.087 703.546,-138.676 702.918,-131.704"/>
</g>
<!-- Node13 -->
<g id="node13" class="node"><title>Node13</title>
<g id="a_node13"><a xlink:href="../../d2/dd5/classIG_1_1Num_1_1Func3dFromScript.html" target="_top" xlink:title="Scalar function of 3 variables that is generated from expressions for evaluation of function value,...">
<polygon fill="white" stroke="black" points="762,-76.5 762,-95.5 895,-95.5 895,-76.5 762,-76.5"/>
<text text-anchor="middle" x="828.5" y="-83.5" font-family="Helvetica,sans-Serif" font-size="10.00">IG.Num.Func3dFromScript</text>
</a>
</g>
</g>
<!-- Node12&#45;&gt;Node13 -->
<g id="edge13" class="edge"><title>Node12&#45;&gt;Node13</title>
<path fill="none" stroke="midnightblue" d="M712.398,-90.9095C729.163,-90.1945 746.253,-89.4655 761.957,-88.7957"/>
<polygon fill="midnightblue" stroke="midnightblue" points="711.859,-87.4293 702.018,-91.3523 712.158,-94.4229 711.859,-87.4293"/>
</g>
<!-- Node15 -->
<g id="node15" class="node"><title>Node15</title>
<g id="a_node15"><a xlink:href="../../d4/d33/classIG_1_1Num_1_1Func3dLinear.html" target="_top" xlink:title="Linear (Affine) function of 3 variables.">
<polygon fill="white" stroke="black" points="773,-38.5 773,-57.5 884,-57.5 884,-38.5 773,-38.5"/>
<text text-anchor="middle" x="828.5" y="-45.5" font-family="Helvetica,sans-Serif" font-size="10.00">IG.Num.Func3dLinear</text>
</a>
</g>
</g>
<!-- Node14&#45;&gt;Node15 -->
<g id="edge15" class="edge"><title>Node14&#45;&gt;Node15</title>
<path fill="none" stroke="midnightblue" d="M704.895,-48C727.902,-48 752.025,-48 772.727,-48"/>
<polygon fill="midnightblue" stroke="midnightblue" points="704.769,-44.5001 694.769,-48 704.769,-51.5001 704.769,-44.5001"/>
</g>
<!-- Node16 -->
<g id="node16" class="node"><title>Node16</title>
<g id="a_node16"><a xlink:href="../../dc/dd8/classIG_1_1Num_1_1Func3dQuadratic.html" target="_top" xlink:title="Quadratic function of 3 variables.">
<polygon fill="white" stroke="black" points="765,-0.5 765,-19.5 892,-19.5 892,-0.5 765,-0.5"/>
<text text-anchor="middle" x="828.5" y="-7.5" font-family="Helvetica,sans-Serif" font-size="10.00">IG.Num.Func3dQuadratic</text>
</a>
</g>
</g>
<!-- Node14&#45;&gt;Node16 -->
<g id="edge16" class="edge"><title>Node14&#45;&gt;Node16</title>
<path fill="none" stroke="midnightblue" d="M679.505,-36.653C709.779,-31.2009 745.658,-24.7393 774.506,-19.5439"/>
<polygon fill="midnightblue" stroke="midnightblue" points="678.693,-33.2429 669.472,-38.46 679.934,-40.1321 678.693,-33.2429"/>
</g>
</g>
</svg>
        <g id="navigator" transform="translate(0 0)" fill="#404254">
                <rect fill="#f2f5e9" fill-opacity="0.5" stroke="#606060" stroke-width=".5" x="0" y="0" width="60" height="60"/>
                <use id="zoomplus" xlink:href="#zoomPlus" x="17" y="9" onmousedown="handleZoom(evt,'in')"/>
                <use id="zoomminus" xlink:href="#zoomMin" x="42" y="9" onmousedown="handleZoom(evt,'out')"/>
                <use id="reset" xlink:href="#resetDef" x="30" y="36" onmousedown="handleReset()"/>
                <g id="arrowUp" xlink:href="#dirArrow" transform="translate(30 24)" onmousedown="handlePan(0,-1)">
                  <use xlink:href="#rim" fill="#404040">
                        <set attributeName="fill" to="#808080" begin="arrowUp.mouseover" end="arrowUp.mouseout"/>
                  </use>
                  <path fill="none" stroke="white" stroke-width="1.5" d="M0,-3.0v7 M-2.5,-0.5L0,-3.0L2.5,-0.5"/>
                </g>
                <g id="arrowRight" xlink:href="#dirArrow" transform="rotate(90) translate(36 -43)" onmousedown="handlePan(1,0)">
                  <use xlink:href="#rim" fill="#404040">
                        <set attributeName="fill" to="#808080" begin="arrowRight.mouseover" end="arrowRight.mouseout"/>
                  </use>
                  <path fill="none" stroke="white" stroke-width="1.5" d="M0,-3.0v7 M-2.5,-0.5L0,-3.0L2.5,-0.5"/>
                </g>
                <g id="arrowDown" xlink:href="#dirArrow" transform="rotate(180) translate(-30 -48)" onmousedown="handlePan(0,1)">
                  <use xlink:href="#rim" fill="#404040">
                        <set attributeName="fill" to="#808080" begin="arrowDown.mouseover" end="arrowDown.mouseout"/>
                  </use>
                  <path fill="none" stroke="white" stroke-width="1.5" d="M0,-3.0v7 M-2.5,-0.5L0,-3.0L2.5,-0.5"/>
                </g>
                <g id="arrowLeft" xlink:href="#dirArrow" transform="rotate(270) translate(-36 17)" onmousedown="handlePan(-1,0)">
                  <use xlink:href="#rim" fill="#404040">
                        <set attributeName="fill" to="#808080" begin="arrowLeft.mouseover" end="arrowLeft.mouseout"/>
                  </use>
                  <path fill="none" stroke="white" stroke-width="1.5" d="M0,-3.0v7 M-2.5,-0.5L0,-3.0L2.5,-0.5"/>
                </g>
        </g>
        <svg viewBox="0 0 15 15" width="100%" height="30px" preserveAspectRatio="xMaxYMin meet">
         <g id="arrow_out" transform="scale(0.3 0.3)">
          <a xlink:href="classIG_1_1Num_1_1Func3dBase__inherit__graph_org.svg" target="_base">
           <rect id="button" ry="5" rx="5" y="6" x="6" height="38" width="38"
                fill="#f2f5e9" fill-opacity="0.5" stroke="#606060" stroke-width="1.0"/>
           <path id="arrow"
             d="M 11.500037,31.436501 C 11.940474,20.09759 22.043105,11.32322 32.158766,21.979434 L 37.068811,17.246167 C 37.068811,17.246167 37.088388,32 37.088388,32 L 22.160133,31.978069 C 22.160133,31.978069 26.997745,27.140456 26.997745,27.140456 C 18.528582,18.264221 13.291696,25.230495 11.500037,31.436501 z"
             style="fill:#404040;"/>
          </a>
         </g>
        </svg>
</svg>
