<?xml version="1.0" encoding="UTF-8" standalone="no"?>
<!DOCTYPE svg PUBLIC "-//W3C//DTD SVG 1.1//EN"
 "http://www.w3.org/Graphics/SVG/1.1/DTD/svg11.dtd">
<!-- Generated by graphviz version 2.38.0 (20140413.2041)
 -->
<!-- Title: IG.Forms.FileSelector Pages: 1 -->
<svg width="226pt" height="205pt"
 viewBox="0.00 0.00 226.00 205.00" xmlns="http://www.w3.org/2000/svg" xmlns:xlink="http://www.w3.org/1999/xlink">
<g id="graph0" class="graph" transform="scale(1 1) rotate(0) translate(4 201)">
<title>IG.Forms.FileSelector</title>
<polygon fill="white" stroke="none" points="-4,4 -4,-201 222,-201 222,4 -4,4"/>
<!-- Node1 -->
<g id="node1" class="node"><title>Node1</title>
<g id="a_node1"><a xlink:title=" ">
<polygon fill="#bfbfbf" stroke="black" points="16,-0.5 16,-19.5 128,-19.5 128,-0.5 16,-0.5"/>
<text text-anchor="middle" x="72" y="-7.5" font-family="Helvetica,sans-Serif" font-size="10.00">IG.Forms.FileSelector</text>
</a>
</g>
</g>
<!-- Node2 -->
<g id="node2" class="node"><title>Node2</title>
<g id="a_node2"><a xlink:title=" ">
<polygon fill="white" stroke="#bfbfbf" points="0,-177.5 0,-196.5 68,-196.5 68,-177.5 0,-177.5"/>
<text text-anchor="middle" x="34" y="-184.5" font-family="Helvetica,sans-Serif" font-size="10.00">UserControl</text>
</a>
</g>
</g>
<!-- Node2&#45;&gt;Node1 -->
<g id="edge1" class="edge"><title>Node2&#45;&gt;Node1</title>
<path fill="none" stroke="midnightblue" d="M38.1363,-166.951C46.3126,-129.297 64.2581,-46.6537 70.1123,-19.6932"/>
<polygon fill="midnightblue" stroke="midnightblue" points="34.6384,-166.566 35.9367,-177.081 41.479,-168.052 34.6384,-166.566"/>
</g>
<!-- Node3 -->
<g id="node3" class="node"><title>Node3</title>
<g id="a_node3"><a xlink:title=" ">
<polygon fill="white" stroke="#bfbfbf" points="86,-177.5 86,-196.5 136,-196.5 136,-177.5 86,-177.5"/>
<text text-anchor="middle" x="111" y="-184.5" font-family="Helvetica,sans-Serif" font-size="10.00">System</text>
</a>
</g>
</g>
<!-- Node3&#45;&gt;Node1 -->
<g id="edge2" class="edge"><title>Node3&#45;&gt;Node1</title>
<path fill="none" stroke="#9a32cd" stroke-dasharray="5,2" d="M106.755,-166.951C98.3634,-129.297 79.9457,-46.6537 73.9373,-19.6932"/>
<polygon fill="#9a32cd" stroke="#9a32cd" points="103.421,-168.082 109.012,-177.081 110.253,-166.559 103.421,-168.082"/>
<text text-anchor="middle" x="161" y="-151" font-family="Helvetica,sans-Serif" font-size="10.00"> menuExpandEnvironment</text>
<text text-anchor="middle" x="161" y="-140" font-family="Helvetica,sans-Serif" font-size="10.00">menuAllowExistent</text>
<text text-anchor="middle" x="161" y="-129" font-family="Helvetica,sans-Serif" font-size="10.00">contextMenuMain</text>
<text text-anchor="middle" x="161" y="-118" font-family="Helvetica,sans-Serif" font-size="10.00">btnFileBrowse</text>
<text text-anchor="middle" x="161" y="-107" font-family="Helvetica,sans-Serif" font-size="10.00">_normalBackground</text>
<text text-anchor="middle" x="161" y="-96" font-family="Helvetica,sans-Serif" font-size="10.00">menuFilter</text>
<text text-anchor="middle" x="161" y="-85" font-family="Helvetica,sans-Serif" font-size="10.00">openFileDialog1</text>
<text text-anchor="middle" x="161" y="-74" font-family="Helvetica,sans-Serif" font-size="10.00">menuAbsolutePaths</text>
<text text-anchor="middle" x="161" y="-63" font-family="Helvetica,sans-Serif" font-size="10.00">_normalforeground</text>
<text text-anchor="middle" x="161" y="-52" font-family="Helvetica,sans-Serif" font-size="10.00">menuFilterValue</text>
<text text-anchor="middle" x="161" y="-41" font-family="Helvetica,sans-Serif" font-size="10.00">...</text>
</g>
</g>
</svg>
