<?xml version="1.0" encoding="UTF-8" standalone="no"?>
<!DOCTYPE svg PUBLIC "-//W3C//DTD SVG 1.1//EN"
 "http://www.w3.org/Graphics/SVG/1.1/DTD/svg11.dtd">
<!-- Generated by graphviz version 2.38.0 (20140413.2041)
 -->
<!-- Title: TestGui.Form2 Pages: 1 -->
<svg width="203pt" height="205pt"
 viewBox="0.00 0.00 202.50 205.00" xmlns="http://www.w3.org/2000/svg" xmlns:xlink="http://www.w3.org/1999/xlink">
<g id="graph0" class="graph" transform="scale(1 1) rotate(0) translate(4 201)">
<title>TestGui.Form2</title>
<polygon fill="white" stroke="none" points="-4,4 -4,-201 198.5,-201 198.5,4 -4,4"/>
<!-- Node1 -->
<g id="node1" class="node"><title>Node1</title>
<g id="a_node1"><a xlink:title=" ">
<polygon fill="#bfbfbf" stroke="black" points="38,-0.5 38,-19.5 119,-19.5 119,-0.5 38,-0.5"/>
<text text-anchor="middle" x="78.5" y="-7.5" font-family="Helvetica,sans-Serif" font-size="10.00">TestGui.Form2</text>
</a>
</g>
</g>
<!-- Node2 -->
<g id="node2" class="node"><title>Node2</title>
<g id="a_node2"><a xlink:title=" ">
<polygon fill="white" stroke="#bfbfbf" points="0,-177.5 0,-196.5 39,-196.5 39,-177.5 0,-177.5"/>
<text text-anchor="middle" x="19.5" y="-184.5" font-family="Helvetica,sans-Serif" font-size="10.00">Form</text>
</a>
</g>
</g>
<!-- Node2&#45;&gt;Node1 -->
<g id="edge1" class="edge"><title>Node2&#45;&gt;Node1</title>
<path fill="none" stroke="midnightblue" d="M25.7589,-167.436C38.3764,-130.011 66.4404,-46.7699 75.5691,-19.6932"/>
<polygon fill="midnightblue" stroke="midnightblue" points="22.3852,-166.487 22.5069,-177.081 29.0183,-168.723 22.3852,-166.487"/>
</g>
<!-- Node3 -->
<g id="node3" class="node"><title>Node3</title>
<g id="a_node3"><a xlink:title=" ">
<polygon fill="white" stroke="#bfbfbf" points="57,-177.5 57,-196.5 100,-196.5 100,-177.5 57,-177.5"/>
<text text-anchor="middle" x="78.5" y="-184.5" font-family="Helvetica,sans-Serif" font-size="10.00">efakt1</text>
</a>
</g>
</g>
<!-- Node3&#45;&gt;Node1 -->
<g id="edge2" class="edge"><title>Node3&#45;&gt;Node1</title>
<path fill="none" stroke="#9a32cd" stroke-dasharray="5,2" d="M78.5,-166.951C78.5,-129.297 78.5,-46.6537 78.5,-19.6932"/>
<polygon fill="#9a32cd" stroke="#9a32cd" points="75.0001,-167.081 78.5,-177.081 82.0001,-167.081 75.0001,-167.081"/>
<text text-anchor="middle" x="89" y="-96" font-family="Helvetica,sans-Serif" font-size="10.00"> web</text>
</g>
<!-- Node4 -->
<g id="node4" class="node"><title>Node4</title>
<g id="a_node4"><a xlink:title=" ">
<polygon fill="white" stroke="#bfbfbf" points="118.5,-177.5 118.5,-196.5 168.5,-196.5 168.5,-177.5 118.5,-177.5"/>
<text text-anchor="middle" x="143.5" y="-184.5" font-family="Helvetica,sans-Serif" font-size="10.00">System</text>
</a>
</g>
</g>
<!-- Node4&#45;&gt;Node1 -->
<g id="edge3" class="edge"><title>Node4&#45;&gt;Node1</title>
<path fill="none" stroke="#9a32cd" stroke-dasharray="5,2" d="M141.391,-167.454C137.461,-138.325 127.165,-80.7626 103.5,-38 99.6643,-31.0691 93.679,-24.5177 88.5264,-19.6044"/>
<polygon fill="#9a32cd" stroke="#9a32cd" points="137.927,-167.96 142.636,-177.451 144.873,-167.095 137.927,-167.96"/>
<text text-anchor="middle" x="167.5" y="-151" font-family="Helvetica,sans-Serif" font-size="10.00"> button4</text>
<text text-anchor="middle" x="167.5" y="-140" font-family="Helvetica,sans-Serif" font-size="10.00">button5</text>
<text text-anchor="middle" x="167.5" y="-129" font-family="Helvetica,sans-Serif" font-size="10.00">button6</text>
<text text-anchor="middle" x="167.5" y="-118" font-family="Helvetica,sans-Serif" font-size="10.00">button7</text>
<text text-anchor="middle" x="167.5" y="-107" font-family="Helvetica,sans-Serif" font-size="10.00">button8</text>
<text text-anchor="middle" x="167.5" y="-96" font-family="Helvetica,sans-Serif" font-size="10.00">components</text>
<text text-anchor="middle" x="167.5" y="-85" font-family="Helvetica,sans-Serif" font-size="10.00">textBox1</text>
<text text-anchor="middle" x="167.5" y="-74" font-family="Helvetica,sans-Serif" font-size="10.00">button1</text>
<text text-anchor="middle" x="167.5" y="-63" font-family="Helvetica,sans-Serif" font-size="10.00">button2</text>
<text text-anchor="middle" x="167.5" y="-52" font-family="Helvetica,sans-Serif" font-size="10.00">button3</text>
<text text-anchor="middle" x="167.5" y="-41" font-family="Helvetica,sans-Serif" font-size="10.00">...</text>
</g>
</g>
</svg>
