<?xml version="1.0" encoding="UTF-8" standalone="no"?>
<!DOCTYPE svg PUBLIC "-//W3C//DTD SVG 1.1//EN"
 "http://www.w3.org/Graphics/SVG/1.1/DTD/svg11.dtd">
<!-- Generated by graphviz version 2.38.0 (20140413.2041)
 -->
<!-- Title: NeuronDotNet.Core.SOM.KohonenLayer Pages: 1 -->
<!--zoomable 112 -->
<svg id="main" version="1.1" xmlns="http://www.w3.org/2000/svg" xmlns:xlink="http://www.w3.org/1999/xlink" xml:space="preserve" onload="init(evt)">
<style type="text/css"><![CDATA[
.edge:hover path { stroke: red; }
.edge:hover polygon { stroke: red; fill: red; }
]]></style>
<script type="text/javascript"><![CDATA[
var edges = document.getElementsByTagName('g');
if (edges && edges.length) {
  for (var i=0;i<edges.length;i++) {
    if (edges[i].id.substr(0,4)=='edge') {
      edges[i].setAttribute('class','edge');
    }
  }
}
]]></script>
        <defs>
                <circle id="rim" cx="0" cy="0" r="7"/>
                <circle id="rim2" cx="0" cy="0" r="3.5"/>
                <g id="zoomPlus">
                        <use xlink:href="#rim" fill="#404040">
                                <set attributeName="fill" to="#808080" begin="zoomplus.mouseover" end="zoomplus.mouseout"/>
                        </use>
                        <path d="M-4,0h8M0,-4v8" fill="none" stroke="white" stroke-width="1.5" pointer-events="none"/>
                </g>
                <g id="zoomMin">
                        <use xlink:href="#rim" fill="#404040">
                                <set attributeName="fill" to="#808080" begin="zoomminus.mouseover" end="zoomminus.mouseout"/>
                        </use>
                        <path d="M-4,0h8" fill="none" stroke="white" stroke-width="1.5" pointer-events="none"/>
                </g>
                <g id="dirArrow">
                        <path fill="none" stroke="white" stroke-width="1.5" d="M0,-3.0v7 M-2.5,-0.5L0,-3.0L2.5,-0.5"/>
                </g>
               <g id="resetDef">
                       <use xlink:href="#rim2" fill="#404040">
                               <set attributeName="fill" to="#808080" begin="reset.mouseover" end="reset.mouseout"/>
                       </use>
               </g>
        </defs>

<script type="text/javascript">
var viewWidth = 838;
var viewHeight = 112;
var sectionId = 'dynsection-1';
</script>
<script xlink:href="../../svgpan.js"/>
<svg id="graph" class="graph">
<g id="viewport">
<title>NeuronDotNet.Core.SOM.KohonenLayer</title>
<polygon fill="white" stroke="none" points="-4,4 -4,-107.5 834,-107.5 834,4 -4,4"/>
<!-- Node1 -->
<g id="node1" class="node"><title>Node1</title>
<g id="a_node1"><a xlink:title="Kohonen Layer is a layer containing position neurons.">
<polygon fill="#bfbfbf" stroke="black" points="432,-26.5 432,-56.5 599,-56.5 599,-26.5 432,-26.5"/>
<text text-anchor="start" x="440" y="-44.5" font-family="Helvetica,sans-Serif" font-size="10.00">NeuronDotNet.Core.SOM.Kohonen</text>
<text text-anchor="middle" x="515.5" y="-33.5" font-family="Helvetica,sans-Serif" font-size="10.00">Layer</text>
</a>
</g>
</g>
<!-- Node3 -->
<g id="node3" class="node"><title>Node3</title>
<g id="a_node3"><a xlink:href="../../dc/d62/classNeuronDotNet_1_1Core_1_1SOM_1_1PositionNeuron.html" target="_top" xlink:title="Position Neuron is a neuron in a two&#45;dimensional space used in Kohonen networks.">
<polygon fill="white" stroke="black" points="666,-52.5 666,-82.5 830,-82.5 830,-52.5 666,-52.5"/>
<text text-anchor="start" x="674" y="-70.5" font-family="Helvetica,sans-Serif" font-size="10.00">NeuronDotNet.Core.SOM.Position</text>
<text text-anchor="middle" x="748" y="-59.5" font-family="Helvetica,sans-Serif" font-size="10.00">Neuron</text>
</a>
</g>
</g>
<!-- Node1&#45;&gt;Node3 -->
<g id="edge4" class="edge"><title>Node1&#45;&gt;Node3</title>
<path fill="none" stroke="#9a32cd" stroke-dasharray="5,2" d="M609.088,-51.9438C627.852,-54.0603 647.45,-56.2709 665.785,-58.3391"/>
<polygon fill="#9a32cd" stroke="#9a32cd" points="609.394,-48.4562 599.065,-50.8132 608.609,-55.4121 609.394,-48.4562"/>
<text text-anchor="middle" x="632.5" y="-59.5" font-family="Helvetica,sans-Serif" font-size="10.00"> parent</text>
</g>
<!-- Node2 -->
<g id="node2" class="node"><title>Node2</title>
<g id="a_node2"><a xlink:href="../../db/d81/classNeuronDotNet_1_1Core_1_1Layer.html" target="_top" xlink:title=" ">
<polygon fill="white" stroke="black" points="139,-50 139,-69 264,-69 264,-50 139,-50"/>
<text text-anchor="middle" x="201.5" y="-57" font-family="Helvetica,sans-Serif" font-size="10.00">Layer&lt; PositionNeuron &gt;</text>
</a>
</g>
</g>
<!-- Node2&#45;&gt;Node1 -->
<g id="edge1" class="edge"><title>Node2&#45;&gt;Node1</title>
<path fill="none" stroke="midnightblue" d="M274.231,-55.3617C321.184,-52.6529 382.688,-49.1045 431.715,-46.276"/>
<polygon fill="midnightblue" stroke="midnightblue" points="273.923,-51.8735 264.141,-55.9438 274.326,-58.8619 273.923,-51.8735"/>
</g>
<!-- Node3&#45;&gt;Node1 -->
<g id="edge2" class="edge"><title>Node3&#45;&gt;Node1</title>
<path fill="none" stroke="#9a32cd" stroke-dasharray="5,2" d="M701.594,-48.9599C685.02,-43.1077 665.939,-37.4111 648,-34.5 632.316,-31.9548 615.456,-31.3075 599.214,-31.7152"/>
<polygon fill="#9a32cd" stroke="#9a32cd" points="700.441,-52.2649 711.035,-52.4037 702.84,-45.6887 700.441,-52.2649"/>
<text text-anchor="middle" x="632.5" y="-37.5" font-family="Helvetica,sans-Serif" font-size="10.00"> winner</text>
</g>
<!-- Node4 -->
<g id="node4" class="node"><title>Node4</title>
<g id="a_node4"><a xlink:href="../../d4/d8e/interfaceNeuronDotNet_1_1Core_1_1INeuron.html" target="_top" xlink:title="Interface representing a neuron. A neuron is a basic building block of a neural network.">
<polygon fill="white" stroke="black" points="490.5,-84 490.5,-103 540.5,-103 540.5,-84 490.5,-84"/>
<text text-anchor="middle" x="515.5" y="-91" font-family="Helvetica,sans-Serif" font-size="10.00">INeuron</text>
</a>
</g>
</g>
<!-- Node4&#45;&gt;Node3 -->
<g id="edge3" class="edge"><title>Node4&#45;&gt;Node3</title>
<path fill="none" stroke="midnightblue" d="M551.046,-89.9609C577.577,-87.2092 615.119,-83.2429 648,-79.5 653.849,-78.8342 659.89,-78.1336 665.97,-77.4192"/>
<polygon fill="midnightblue" stroke="midnightblue" points="550.335,-86.5156 540.748,-91.0252 551.055,-93.4785 550.335,-86.5156"/>
</g>
<!-- Node5 -->
<g id="node5" class="node"><title>Node5</title>
<g id="a_node5"><a xlink:href="../../d2/dcb/interfaceNeuronDotNet_1_1Core_1_1SOM_1_1INeighborhoodFunction.html" target="_top" xlink:title="This interface represents a neighborhood function. A neighborhood function determines the neighborhoo...">
<polygon fill="white" stroke="black" points="106,-0.5 106,-30.5 297,-30.5 297,-0.5 106,-0.5"/>
<text text-anchor="start" x="114" y="-18.5" font-family="Helvetica,sans-Serif" font-size="10.00">NeuronDotNet.Core.SOM.INeighborhood</text>
<text text-anchor="middle" x="201.5" y="-7.5" font-family="Helvetica,sans-Serif" font-size="10.00">Function</text>
</a>
</g>
</g>
<!-- Node5&#45;&gt;Node1 -->
<g id="edge5" class="edge"><title>Node5&#45;&gt;Node1</title>
<path fill="none" stroke="#9a32cd" stroke-dasharray="5,2" d="M306.989,-23.7089C341.108,-26.4401 379.173,-29.541 414,-32.5 419.847,-32.9968 425.885,-33.5177 431.964,-34.0479"/>
<polygon fill="#9a32cd" stroke="#9a32cd" points="307.255,-20.2191 297.008,-22.9114 306.697,-27.1968 307.255,-20.2191"/>
<text text-anchor="middle" x="364.5" y="-35.5" font-family="Helvetica,sans-Serif" font-size="10.00"> neighborhoodFunction</text>
</g>
<!-- Node6 -->
<g id="node6" class="node"><title>Node6</title>
<g id="a_node6"><a xlink:title=" ">
<polygon fill="white" stroke="#bfbfbf" points="0,-6 0,-25 69,-25 69,-6 0,-6"/>
<text text-anchor="middle" x="34.5" y="-13" font-family="Helvetica,sans-Serif" font-size="10.00">ISerializable</text>
</a>
</g>
</g>
<!-- Node6&#45;&gt;Node5 -->
<g id="edge6" class="edge"><title>Node6&#45;&gt;Node5</title>
<path fill="none" stroke="midnightblue" d="M79.3726,-15.5C87.6438,-15.5 96.584,-15.5 105.73,-15.5"/>
<polygon fill="midnightblue" stroke="midnightblue" points="79.2884,-12.0001 69.2884,-15.5 79.2883,-19.0001 79.2884,-12.0001"/>
</g>
</g>
</svg>
        <g id="navigator" transform="translate(0 0)" fill="#404254">
                <rect fill="#f2f5e9" fill-opacity="0.5" stroke="#606060" stroke-width=".5" x="0" y="0" width="60" height="60"/>
                <use id="zoomplus" xlink:href="#zoomPlus" x="17" y="9" onmousedown="handleZoom(evt,'in')"/>
                <use id="zoomminus" xlink:href="#zoomMin" x="42" y="9" onmousedown="handleZoom(evt,'out')"/>
                <use id="reset" xlink:href="#resetDef" x="30" y="36" onmousedown="handleReset()"/>
                <g id="arrowUp" xlink:href="#dirArrow" transform="translate(30 24)" onmousedown="handlePan(0,-1)">
                  <use xlink:href="#rim" fill="#404040">
                        <set attributeName="fill" to="#808080" begin="arrowUp.mouseover" end="arrowUp.mouseout"/>
                  </use>
                  <path fill="none" stroke="white" stroke-width="1.5" d="M0,-3.0v7 M-2.5,-0.5L0,-3.0L2.5,-0.5"/>
                </g>
                <g id="arrowRight" xlink:href="#dirArrow" transform="rotate(90) translate(36 -43)" onmousedown="handlePan(1,0)">
                  <use xlink:href="#rim" fill="#404040">
                        <set attributeName="fill" to="#808080" begin="arrowRight.mouseover" end="arrowRight.mouseout"/>
                  </use>
                  <path fill="none" stroke="white" stroke-width="1.5" d="M0,-3.0v7 M-2.5,-0.5L0,-3.0L2.5,-0.5"/>
                </g>
                <g id="arrowDown" xlink:href="#dirArrow" transform="rotate(180) translate(-30 -48)" onmousedown="handlePan(0,1)">
                  <use xlink:href="#rim" fill="#404040">
                        <set attributeName="fill" to="#808080" begin="arrowDown.mouseover" end="arrowDown.mouseout"/>
                  </use>
                  <path fill="none" stroke="white" stroke-width="1.5" d="M0,-3.0v7 M-2.5,-0.5L0,-3.0L2.5,-0.5"/>
                </g>
                <g id="arrowLeft" xlink:href="#dirArrow" transform="rotate(270) translate(-36 17)" onmousedown="handlePan(-1,0)">
                  <use xlink:href="#rim" fill="#404040">
                        <set attributeName="fill" to="#808080" begin="arrowLeft.mouseover" end="arrowLeft.mouseout"/>
                  </use>
                  <path fill="none" stroke="white" stroke-width="1.5" d="M0,-3.0v7 M-2.5,-0.5L0,-3.0L2.5,-0.5"/>
                </g>
        </g>
        <svg viewBox="0 0 15 15" width="100%" height="30px" preserveAspectRatio="xMaxYMin meet">
         <g id="arrow_out" transform="scale(0.3 0.3)">
          <a xlink:href="classNeuronDotNet_1_1Core_1_1SOM_1_1KohonenLayer__coll__graph_org.svg" target="_base">
           <rect id="button" ry="5" rx="5" y="6" x="6" height="38" width="38"
                fill="#f2f5e9" fill-opacity="0.5" stroke="#606060" stroke-width="1.0"/>
           <path id="arrow"
             d="M 11.500037,31.436501 C 11.940474,20.09759 22.043105,11.32322 32.158766,21.979434 L 37.068811,17.246167 C 37.068811,17.246167 37.088388,32 37.088388,32 L 22.160133,31.978069 C 22.160133,31.978069 26.997745,27.140456 26.997745,27.140456 C 18.528582,18.264221 13.291696,25.230495 11.500037,31.436501 z"
             style="fill:#404040;"/>
          </a>
         </g>
        </svg>
</svg>
