<?xml version="1.0" encoding="UTF-8" standalone="no"?>
<!DOCTYPE svg PUBLIC "-//W3C//DTD SVG 1.1//EN"
 "http://www.w3.org/Graphics/SVG/1.1/DTD/svg11.dtd">
<!-- Generated by graphviz version 2.38.0 (20140413.2041)
 -->
<!-- Title: AForge.MachineLearning.BoltzmannExploration Pages: 1 -->
<svg width="189pt" height="106pt"
 viewBox="0.00 0.00 188.50 106.00" xmlns="http://www.w3.org/2000/svg" xmlns:xlink="http://www.w3.org/1999/xlink">
<g id="graph0" class="graph" transform="scale(1 1) rotate(0) translate(4 102)">
<title>AForge.MachineLearning.BoltzmannExploration</title>
<polygon fill="white" stroke="none" points="-4,4 -4,-102 184.5,-102 184.5,4 -4,4"/>
<!-- Node1 -->
<g id="node1" class="node"><title>Node1</title>
<g id="a_node1"><a xlink:title="Boltzmann distribution exploration policy.">
<polygon fill="#bfbfbf" stroke="black" points="6.5,-0.5 6.5,-30.5 180.5,-30.5 180.5,-0.5 6.5,-0.5"/>
<text text-anchor="start" x="14.5" y="-18.5" font-family="Helvetica,sans-Serif" font-size="10.00">AForge.MachineLearning.Boltzmann</text>
<text text-anchor="middle" x="93.5" y="-7.5" font-family="Helvetica,sans-Serif" font-size="10.00">Exploration</text>
</a>
</g>
</g>
<!-- Node2 -->
<g id="node2" class="node"><title>Node2</title>
<g id="a_node2"><a xlink:href="../../d9/d24/interfaceAForge_1_1MachineLearning_1_1IExplorationPolicy.html" target="_top" xlink:title="Exploration policy interface.">
<polygon fill="white" stroke="black" points="0,-78.5 0,-97.5 95,-97.5 95,-78.5 0,-78.5"/>
<text text-anchor="middle" x="47.5" y="-85.5" font-family="Helvetica,sans-Serif" font-size="10.00">IExplorationPolicy</text>
</a>
</g>
</g>
<!-- Node2&#45;&gt;Node1 -->
<g id="edge1" class="edge"><title>Node2&#45;&gt;Node1</title>
<path fill="none" stroke="midnightblue" d="M58.7992,-69.6827C66.6476,-57.6542 76.9736,-41.8286 84.3156,-30.5762"/>
<polygon fill="midnightblue" stroke="midnightblue" points="55.6738,-68.0678 53.1405,-78.3553 61.5363,-71.893 55.6738,-68.0678"/>
</g>
<!-- Node3 -->
<g id="node3" class="node"><title>Node3</title>
<g id="a_node3"><a xlink:title=" ">
<polygon fill="white" stroke="#bfbfbf" points="113,-78.5 113,-97.5 166,-97.5 166,-78.5 113,-78.5"/>
<text text-anchor="middle" x="139.5" y="-85.5" font-family="Helvetica,sans-Serif" font-size="10.00">Random</text>
</a>
</g>
</g>
<!-- Node3&#45;&gt;Node1 -->
<g id="edge2" class="edge"><title>Node3&#45;&gt;Node1</title>
<path fill="none" stroke="#9a32cd" stroke-dasharray="5,2" d="M128.201,-69.6827C120.352,-57.6542 110.026,-41.8286 102.684,-30.5762"/>
<polygon fill="#9a32cd" stroke="#9a32cd" points="125.464,-71.893 133.859,-78.3553 131.326,-68.0678 125.464,-71.893"/>
<text text-anchor="middle" x="131.5" y="-52" font-family="Helvetica,sans-Serif" font-size="10.00"> rand</text>
</g>
</g>
</svg>
