<?xml version="1.0" encoding="UTF-8" standalone="no"?>
<!DOCTYPE svg PUBLIC "-//W3C//DTD SVG 1.1//EN"
 "http://www.w3.org/Graphics/SVG/1.1/DTD/svg11.dtd">
<!-- Generated by graphviz version 2.38.0 (20140413.2041)
 -->
<!-- Title: NUnit.Framework.Syntax.CollectionOrderedTest_Comparer_Descending Pages: 1 -->
<svg width="181pt" height="196pt"
 viewBox="0.00 0.00 181.00 196.00" xmlns="http://www.w3.org/2000/svg" xmlns:xlink="http://www.w3.org/1999/xlink">
<g id="graph0" class="graph" transform="scale(1 1) rotate(0) translate(4 192)">
<title>NUnit.Framework.Syntax.CollectionOrderedTest_Comparer_Descending</title>
<polygon fill="white" stroke="none" points="-4,4 -4,-192 177,-192 177,4 -4,4"/>
<!-- Node1 -->
<g id="node1" class="node"><title>Node1</title>
<g id="a_node1"><a xlink:title=" ">
<polygon fill="#bfbfbf" stroke="black" points="0,-0.5 0,-30.5 173,-30.5 173,-0.5 0,-0.5"/>
<text text-anchor="start" x="8" y="-18.5" font-family="Helvetica,sans-Serif" font-size="10.00">NUnit.Framework.Syntax.Collection</text>
<text text-anchor="middle" x="86.5" y="-7.5" font-family="Helvetica,sans-Serif" font-size="10.00">OrderedTest_Comparer_Descending</text>
</a>
</g>
</g>
<!-- Node2 -->
<g id="node2" class="node"><title>Node2</title>
<g id="a_node2"><a xlink:href="../../dc/dba/classNUnit_1_1Framework_1_1Syntax_1_1SyntaxTest.html" target="_top" xlink:title=" ">
<polygon fill="white" stroke="black" points="53.5,-68.5 53.5,-87.5 119.5,-87.5 119.5,-68.5 53.5,-68.5"/>
<text text-anchor="middle" x="86.5" y="-75.5" font-family="Helvetica,sans-Serif" font-size="10.00">SyntaxTest</text>
</a>
</g>
</g>
<!-- Node2&#45;&gt;Node1 -->
<g id="edge1" class="edge"><title>Node2&#45;&gt;Node1</title>
<path fill="none" stroke="midnightblue" d="M86.5,-58.2154C86.5,-49.3565 86.5,-38.9577 86.5,-30.7587"/>
<polygon fill="midnightblue" stroke="midnightblue" points="83.0001,-58.3318 86.5,-68.3318 90.0001,-58.3319 83.0001,-58.3318"/>
</g>
<!-- Node3 -->
<g id="node3" class="node"><title>Node3</title>
<g id="a_node3"><a xlink:href="../../d7/d29/interfaceNUnit_1_1Framework_1_1Constraints_1_1IResolveConstraint.html" target="_top" xlink:title="The IResolveConstraint interface is implemented by all complete and resolvable constraints and expres...">
<polygon fill="white" stroke="black" points="13,-157.5 13,-187.5 160,-187.5 160,-157.5 13,-157.5"/>
<text text-anchor="start" x="21" y="-175.5" font-family="Helvetica,sans-Serif" font-size="10.00">NUnit.Framework.Constraints.</text>
<text text-anchor="middle" x="86.5" y="-164.5" font-family="Helvetica,sans-Serif" font-size="10.00">IResolveConstraint</text>
</a>
</g>
</g>
<!-- Node3&#45;&gt;Node2 -->
<g id="edge2" class="edge"><title>Node3&#45;&gt;Node2</title>
<path fill="none" stroke="#9a32cd" stroke-dasharray="5,2" d="M86.5,-147.382C86.5,-127.736 86.5,-101.119 86.5,-87.6191"/>
<polygon fill="#9a32cd" stroke="#9a32cd" points="83.0001,-147.451 86.5,-157.451 90.0001,-147.451 83.0001,-147.451"/>
<text text-anchor="middle" x="120.5" y="-131" font-family="Helvetica,sans-Serif" font-size="10.00"> builderSyntax</text>
<text text-anchor="middle" x="120.5" y="-120" font-family="Helvetica,sans-Serif" font-size="10.00">inheritedSyntax</text>
<text text-anchor="middle" x="120.5" y="-109" font-family="Helvetica,sans-Serif" font-size="10.00">staticSyntax</text>
</g>
</g>
</svg>
