<?xml version="1.0" encoding="UTF-8" standalone="no"?>
<!DOCTYPE svg PUBLIC "-//W3C//DTD SVG 1.1//EN"
 "http://www.w3.org/Graphics/SVG/1.1/DTD/svg11.dtd">
<!-- Generated by graphviz version 2.38.0 (20140413.2041)
 -->
<!-- Title: NeuronDotNet.Core.Backpropagation.BackpropagationConnector Pages: 1 -->
<svg width="187pt" height="117pt"
 viewBox="0.00 0.00 187.00 117.00" xmlns="http://www.w3.org/2000/svg" xmlns:xlink="http://www.w3.org/1999/xlink">
<g id="graph0" class="graph" transform="scale(1 1) rotate(0) translate(4 113)">
<title>NeuronDotNet.Core.Backpropagation.BackpropagationConnector</title>
<polygon fill="white" stroke="none" points="-4,4 -4,-113 183,-113 183,4 -4,4"/>
<!-- Node1 -->
<g id="node1" class="node"><title>Node1</title>
<g id="a_node1"><a xlink:title="A Backpropagation Connector is an IConnector which consists of a collection of backpropagation synaps...">
<polygon fill="#bfbfbf" stroke="black" points="0,-0.5 0,-30.5 179,-30.5 179,-0.5 0,-0.5"/>
<text text-anchor="start" x="8" y="-18.5" font-family="Helvetica,sans-Serif" font-size="10.00">NeuronDotNet.Core.Backpropagation.</text>
<text text-anchor="middle" x="89.5" y="-7.5" font-family="Helvetica,sans-Serif" font-size="10.00">BackpropagationConnector</text>
</a>
</g>
</g>
<!-- Node2 -->
<g id="node2" class="node"><title>Node2</title>
<g id="a_node2"><a xlink:href="../../d0/d97/classNeuronDotNet_1_1Core_1_1Connector.html" target="_top" xlink:title=" ">
<polygon fill="white" stroke="black" points="7.5,-67.5 7.5,-108.5 171.5,-108.5 171.5,-67.5 7.5,-67.5"/>
<text text-anchor="start" x="15.5" y="-96.5" font-family="Helvetica,sans-Serif" font-size="10.00">Connector&lt; ActivationLayer,</text>
<text text-anchor="start" x="15.5" y="-85.5" font-family="Helvetica,sans-Serif" font-size="10.00"> ActivationLayer, Backpropagation</text>
<text text-anchor="middle" x="89.5" y="-74.5" font-family="Helvetica,sans-Serif" font-size="10.00">Synapse &gt;</text>
</a>
</g>
</g>
<!-- Node2&#45;&gt;Node1 -->
<g id="edge1" class="edge"><title>Node2&#45;&gt;Node1</title>
<path fill="none" stroke="midnightblue" d="M89.5,-57.08C89.5,-48.0061 89.5,-38.4498 89.5,-30.8916"/>
<polygon fill="midnightblue" stroke="midnightblue" points="86.0001,-57.3618 89.5,-67.3618 93.0001,-57.3619 86.0001,-57.3618"/>
</g>
</g>
</svg>
