<?xml version="1.0" encoding="UTF-8" standalone="no"?>
<!DOCTYPE svg PUBLIC "-//W3C//DTD SVG 1.1//EN"
 "http://www.w3.org/Graphics/SVG/1.1/DTD/svg11.dtd">
<!-- Generated by graphviz version 2.38.0 (20140413.2041)
 -->
<!-- Title: IG.Forms.WindowShiftControlNumeric Pages: 1 -->
<svg width="198pt" height="161pt"
 viewBox="0.00 0.00 197.50 161.00" xmlns="http://www.w3.org/2000/svg" xmlns:xlink="http://www.w3.org/1999/xlink">
<g id="graph0" class="graph" transform="scale(1 1) rotate(0) translate(4 157)">
<title>IG.Forms.WindowShiftControlNumeric</title>
<polygon fill="white" stroke="none" points="-4,4 -4,-157 193.5,-157 193.5,4 -4,4"/>
<!-- Node1 -->
<g id="node1" class="node"><title>Node1</title>
<g id="a_node1"><a xlink:title="Control for setting window positions, relative positions, sizes, positions, shifts,...">
<polygon fill="#bfbfbf" stroke="black" points="0,-0.5 0,-30.5 145,-30.5 145,-0.5 0,-0.5"/>
<text text-anchor="start" x="8" y="-18.5" font-family="Helvetica,sans-Serif" font-size="10.00">IG.Forms.WindowShiftControl</text>
<text text-anchor="middle" x="72.5" y="-7.5" font-family="Helvetica,sans-Serif" font-size="10.00">Numeric</text>
</a>
</g>
</g>
<!-- Node2 -->
<g id="node2" class="node"><title>Node2</title>
<g id="a_node2"><a xlink:title=" ">
<polygon fill="white" stroke="#bfbfbf" points="0.5,-133.5 0.5,-152.5 68.5,-152.5 68.5,-133.5 0.5,-133.5"/>
<text text-anchor="middle" x="34.5" y="-140.5" font-family="Helvetica,sans-Serif" font-size="10.00">UserControl</text>
</a>
</g>
</g>
<!-- Node2&#45;&gt;Node1 -->
<g id="edge1" class="edge"><title>Node2&#45;&gt;Node1</title>
<path fill="none" stroke="midnightblue" d="M40.0721,-123.597C47.7075,-98.3806 61.2608,-53.619 68.1779,-30.7743"/>
<polygon fill="midnightblue" stroke="midnightblue" points="36.6601,-122.789 37.1119,-133.374 43.3597,-124.817 36.6601,-122.789"/>
</g>
<!-- Node3 -->
<g id="node3" class="node"><title>Node3</title>
<g id="a_node3"><a xlink:title=" ">
<polygon fill="white" stroke="#bfbfbf" points="86.5,-133.5 86.5,-152.5 136.5,-152.5 136.5,-133.5 86.5,-133.5"/>
<text text-anchor="middle" x="111.5" y="-140.5" font-family="Helvetica,sans-Serif" font-size="10.00">System</text>
</a>
</g>
</g>
<!-- Node3&#45;&gt;Node1 -->
<g id="edge2" class="edge"><title>Node3&#45;&gt;Node1</title>
<path fill="none" stroke="#9a32cd" stroke-dasharray="5,2" d="M105.781,-123.597C97.945,-98.3806 84.035,-53.619 76.9358,-30.7743"/>
<polygon fill="#9a32cd" stroke="#9a32cd" points="102.509,-124.863 108.819,-133.374 109.194,-122.786 102.509,-124.863"/>
<text text-anchor="middle" x="146" y="-107" font-family="Helvetica,sans-Serif" font-size="10.00"> pnlOuter</text>
<text text-anchor="middle" x="146" y="-96" font-family="Helvetica,sans-Serif" font-size="10.00">lblWindowRelY</text>
<text text-anchor="middle" x="146" y="-85" font-family="Helvetica,sans-Serif" font-size="10.00">txtWindowShiftRelX</text>
<text text-anchor="middle" x="146" y="-74" font-family="Helvetica,sans-Serif" font-size="10.00">txtWindowShiftRelY</text>
<text text-anchor="middle" x="146" y="-63" font-family="Helvetica,sans-Serif" font-size="10.00">components</text>
<text text-anchor="middle" x="146" y="-52" font-family="Helvetica,sans-Serif" font-size="10.00">lblWindowShiftRelX</text>
</g>
</g>
</svg>
