<?xml version="1.0" encoding="UTF-8" standalone="no"?>
<!DOCTYPE svg PUBLIC "-//W3C//DTD SVG 1.1//EN"
 "http://www.w3.org/Graphics/SVG/1.1/DTD/svg11.dtd">
<!-- Generated by graphviz version 2.38.0 (20140413.2041)
 -->
<!-- Title: IG.Script.S_11_10_clanek_neural_00 Pages: 1 -->
<svg width="2284pt" height="967pt"
 viewBox="0.00 0.00 2284.00 966.56" xmlns="http://www.w3.org/2000/svg" xmlns:xlink="http://www.w3.org/1999/xlink">
<g id="graph0" class="graph" transform="scale(1 1) rotate(0) translate(4 962.559)">
<title>IG.Script.S_11_10_clanek_neural_00</title>
<polygon fill="white" stroke="none" points="-4,4 -4,-962.559 2280,-962.559 2280,4 -4,4"/>
<!-- Node1 -->
<g id="node1" class="node"><title>Node1</title>
<g id="a_node1"><a xlink:title=" ">
<polygon fill="#bfbfbf" stroke="black" points="2146,-802.559 2146,-832.559 2276,-832.559 2276,-802.559 2146,-802.559"/>
<text text-anchor="start" x="2154" y="-820.559" font-family="Helvetica,sans-Serif" font-size="10.00">IG.Script.S_11_10_clanek</text>
<text text-anchor="middle" x="2211" y="-809.559" font-family="Helvetica,sans-Serif" font-size="10.00">_neural_00</text>
</a>
</g>
</g>
<!-- Node2 -->
<g id="node2" class="node"><title>Node2</title>
<g id="a_node2"><a xlink:href="../../dc/df5/classIG_1_1Script_1_1S__11__10__Clanek__Neural__Base.html" target="_top" xlink:title=" ">
<polygon fill="white" stroke="black" points="1958,-808.059 1958,-827.059 2109,-827.059 2109,-808.059 1958,-808.059"/>
<text text-anchor="middle" x="2033.5" y="-815.059" font-family="Helvetica,sans-Serif" font-size="10.00">S_11_10_Clanek_Neural_Base</text>
</a>
</g>
</g>
<!-- Node2&#45;&gt;Node1 -->
<g id="edge1" class="edge"><title>Node2&#45;&gt;Node1</title>
<path fill="none" stroke="midnightblue" d="M2119.27,-817.559C2128.23,-817.559 2137.24,-817.559 2145.91,-817.559"/>
<polygon fill="midnightblue" stroke="midnightblue" points="2119.18,-814.059 2109.18,-817.559 2119.18,-821.059 2119.18,-814.059"/>
</g>
<!-- Node3 -->
<g id="node3" class="node"><title>Node3</title>
<g id="a_node3"><a xlink:href="../../d1/d30/classIG_1_1Script_1_1LoadableScriptShellNeural.html" target="_top" xlink:title="Base class for loadable scripts that are used as custom applications that inclued neural networks app...">
<polygon fill="white" stroke="black" points="1790,-770.059 1790,-789.059 1921,-789.059 1921,-770.059 1790,-770.059"/>
<text text-anchor="middle" x="1855.5" y="-777.059" font-family="Helvetica,sans-Serif" font-size="10.00">LoadableScriptShellNeural</text>
</a>
</g>
</g>
<!-- Node3&#45;&gt;Node2 -->
<g id="edge2" class="edge"><title>Node3&#45;&gt;Node2</title>
<path fill="none" stroke="midnightblue" d="M1910.93,-791.312C1935.82,-796.685 1964.92,-802.968 1988.41,-808.039"/>
<polygon fill="midnightblue" stroke="midnightblue" points="1911.43,-787.838 1900.91,-789.148 1909.95,-794.68 1911.43,-787.838"/>
</g>
<!-- Node4 -->
<g id="node4" class="node"><title>Node4</title>
<g id="a_node4"><a xlink:href="../../dc/d0c/classIG_1_1Script_1_1LoadableScriptShellNeuralBase.html" target="_top" xlink:title="Base class for loadable scripts that are used as custom applications that inclued neural networks app...">
<polygon fill="white" stroke="black" points="1520,-365.059 1520,-384.059 1673,-384.059 1673,-365.059 1520,-365.059"/>
<text text-anchor="middle" x="1596.5" y="-372.059" font-family="Helvetica,sans-Serif" font-size="10.00">LoadableScriptShellNeuralBase</text>
</a>
</g>
</g>
<!-- Node4&#45;&gt;Node3 -->
<g id="edge3" class="edge"><title>Node4&#45;&gt;Node3</title>
<path fill="none" stroke="midnightblue" d="M1601.96,-394.091C1617.09,-456.039 1672.2,-650.228 1790,-755.559 1797.04,-761.851 1805.87,-766.545 1814.73,-770.028"/>
<polygon fill="midnightblue" stroke="midnightblue" points="1605.31,-393.036 1599.59,-384.114 1598.5,-394.651 1605.31,-393.036"/>
</g>
<!-- Node5 -->
<g id="node5" class="node"><title>Node5</title>
<g id="a_node5"><a xlink:href="../../d6/d59/classIG_1_1Lib_1_1LoadableScriptShellBase.html" target="_top" xlink:title="Loadable script base class for the shell application that includes tols for definition of optiimizati...">
<polygon fill="white" stroke="black" points="1254.5,-417.059 1254.5,-436.059 1379.5,-436.059 1379.5,-417.059 1254.5,-417.059"/>
<text text-anchor="middle" x="1317" y="-424.059" font-family="Helvetica,sans-Serif" font-size="10.00">LoadableScriptShellBase</text>
</a>
</g>
</g>
<!-- Node5&#45;&gt;Node4 -->
<g id="edge4" class="edge"><title>Node5&#45;&gt;Node4</title>
<path fill="none" stroke="midnightblue" d="M1378.86,-415.155C1428.46,-405.86 1497.71,-392.883 1544.46,-384.124"/>
<polygon fill="midnightblue" stroke="midnightblue" points="1378.08,-411.74 1368.9,-417.022 1379.37,-418.62 1378.08,-411.74"/>
</g>
<!-- Node6 -->
<g id="node6" class="node"><title>Node6</title>
<g id="a_node6"><a xlink:href="../../d7/d31/classIG_1_1Lib_1_1LoadableScriptOptShellBaseControllable.html" target="_top" xlink:title="Controllable version of LoadableScriptOptBase, implements the ILoadableScriptC interface.">
<polygon fill="white" stroke="black" points="989,-469.559 989,-499.559 1130,-499.559 1130,-469.559 989,-469.559"/>
<text text-anchor="start" x="997" y="-487.559" font-family="Helvetica,sans-Serif" font-size="10.00">LoadableScriptOptShellBase</text>
<text text-anchor="middle" x="1059.5" y="-476.559" font-family="Helvetica,sans-Serif" font-size="10.00">Controllable</text>
</a>
</g>
</g>
<!-- Node6&#45;&gt;Node5 -->
<g id="edge5" class="edge"><title>Node6&#45;&gt;Node5</title>
<path fill="none" stroke="midnightblue" d="M1140.3,-468.595C1170.37,-462.354 1204.83,-454.932 1236,-447.559 1250.81,-444.056 1267.07,-439.853 1281.05,-436.131"/>
<polygon fill="midnightblue" stroke="midnightblue" points="1139.37,-465.214 1130.28,-470.665 1140.78,-472.069 1139.37,-465.214"/>
</g>
<!-- Node7 -->
<g id="node7" class="node"><title>Node7</title>
<g id="a_node7"><a xlink:href="../../d5/d05/classIG_1_1Lib_1_1LoadableScriptOptBase.html" target="_top" xlink:title="Base class for loadable scripts for optimization problems. AGREEMENTS: The first argument to initiali...">
<polygon fill="white" stroke="black" points="686,-495.059 686,-514.059 805,-514.059 805,-495.059 686,-495.059"/>
<text text-anchor="middle" x="745.5" y="-502.059" font-family="Helvetica,sans-Serif" font-size="10.00">LoadableScriptOptBase</text>
</a>
</g>
</g>
<!-- Node7&#45;&gt;Node6 -->
<g id="edge6" class="edge"><title>Node7&#45;&gt;Node6</title>
<path fill="none" stroke="midnightblue" d="M815.382,-499.095C817.954,-498.911 820.5,-498.732 823,-498.559 878.775,-494.714 942.025,-490.989 988.922,-488.35"/>
<polygon fill="midnightblue" stroke="midnightblue" points="815.099,-495.607 805.381,-499.828 815.61,-502.588 815.099,-495.607"/>
</g>
<!-- Node8 -->
<g id="node8" class="node"><title>Node8</title>
<g id="a_node8"><a xlink:href="../../d7/d15/classIG_1_1Lib_1_1LoadableScriptBase.html" target="_top" xlink:title="Base class for classes that can be dynamically loadeded from scripts and run, which provides function...">
<polygon fill="white" stroke="black" points="363.5,-542.059 363.5,-561.059 467.5,-561.059 467.5,-542.059 363.5,-542.059"/>
<text text-anchor="middle" x="415.5" y="-549.059" font-family="Helvetica,sans-Serif" font-size="10.00">LoadableScriptBase</text>
</a>
</g>
</g>
<!-- Node8&#45;&gt;Node7 -->
<g id="edge7" class="edge"><title>Node8&#45;&gt;Node7</title>
<path fill="none" stroke="midnightblue" d="M478.186,-548.548C529.377,-545.304 603.899,-538.857 668,-526.559 684.015,-523.487 701.52,-518.572 715.738,-514.167"/>
<polygon fill="midnightblue" stroke="midnightblue" points="477.717,-545.07 467.95,-549.173 478.144,-552.057 477.717,-545.07"/>
</g>
<!-- Node9 -->
<g id="node9" class="node"><title>Node9</title>
<g id="a_node9"><a xlink:href="../../d7/d66/interfaceIG_1_1Lib_1_1ILoadableScript.html" target="_top" xlink:title="Interface for classes that can be dynamically loadeded from scripts and run, which provides functiona...">
<polygon fill="white" stroke="black" points="37.5,-732.059 37.5,-751.059 120.5,-751.059 120.5,-732.059 37.5,-732.059"/>
<text text-anchor="middle" x="79" y="-739.059" font-family="Helvetica,sans-Serif" font-size="10.00">ILoadableScript</text>
</a>
</g>
</g>
<!-- Node9&#45;&gt;Node1 -->
<g id="edge46" class="edge"><title>Node9&#45;&gt;Node1</title>
<path fill="none" stroke="midnightblue" d="M88.544,-760.524C102.654,-789.775 133.546,-845.834 176,-877.559 265.673,-944.572 302.554,-958.559 414.5,-958.559 414.5,-958.559 414.5,-958.559 2034.5,-958.559 2114.23,-958.559 2178.34,-869.023 2201.09,-832.649"/>
<polygon fill="midnightblue" stroke="midnightblue" points="91.6721,-758.95 84.2614,-751.379 85.3328,-761.919 91.6721,-758.95"/>
</g>
<!-- Node9&#45;&gt;Node2 -->
<g id="edge44" class="edge"><title>Node9&#45;&gt;Node2</title>
<path fill="none" stroke="midnightblue" d="M96.7266,-758.374C142.902,-802.914 277.804,-920.559 414.5,-920.559 414.5,-920.559 414.5,-920.559 1856.5,-920.559 1930.14,-920.559 2000.3,-852.563 2024.02,-827.065"/>
<polygon fill="midnightblue" stroke="midnightblue" points="98.9799,-755.682 89.3876,-751.183 94.0809,-760.682 98.9799,-755.682"/>
</g>
<!-- Node9&#45;&gt;Node3 -->
<g id="edge43" class="edge"><title>Node9&#45;&gt;Node3</title>
<path fill="none" stroke="midnightblue" d="M130.536,-750.907C195.86,-762.159 313.252,-779.559 414.5,-779.559 414.5,-779.559 414.5,-779.559 1597.5,-779.559 1662.98,-779.559 1737.84,-779.559 1789.81,-779.559"/>
<polygon fill="midnightblue" stroke="midnightblue" points="130.962,-747.429 120.509,-749.158 129.759,-754.324 130.962,-747.429"/>
</g>
<!-- Node9&#45;&gt;Node4 -->
<g id="edge30" class="edge"><title>Node9&#45;&gt;Node4</title>
<path fill="none" stroke="midnightblue" d="M130.707,-739.091C180.079,-736.583 257.228,-732.389 324,-727.559 612.25,-706.71 690.694,-732.924 971,-662.559 1092.79,-631.985 1119.27,-610.84 1236,-564.559 1355.41,-517.219 1392.22,-518.249 1502,-451.559 1535.43,-431.251 1569.64,-399.806 1585.85,-384.127"/>
<polygon fill="midnightblue" stroke="midnightblue" points="130.418,-735.601 120.607,-739.6 130.77,-742.592 130.418,-735.601"/>
</g>
<!-- Node9&#45;&gt;Node7 -->
<g id="edge12" class="edge"><title>Node9&#45;&gt;Node7</title>
<path fill="none" stroke="midnightblue" d="M108.606,-727.796C127.399,-719.217 152.727,-708.525 176,-701.559 182.662,-699.565 663.029,-613.423 668,-608.559 695.602,-581.554 660.17,-552.264 686,-523.559 689.5,-519.67 693.803,-516.573 698.474,-514.108"/>
<polygon fill="midnightblue" stroke="midnightblue" points="107.017,-724.674 99.4187,-732.058 109.963,-731.024 107.017,-724.674"/>
</g>
<!-- Node9&#45;&gt;Node8 -->
<g id="edge8" class="edge"><title>Node9&#45;&gt;Node8</title>
<path fill="none" stroke="midnightblue" d="M88.9533,-722.798C103.259,-694.961 133.996,-643.152 176,-616.559 232.86,-580.561 263.026,-613.041 324,-584.559 333.183,-580.27 332.913,-575.046 342,-570.559 349.7,-566.757 358.249,-563.652 366.697,-561.138"/>
<polygon fill="midnightblue" stroke="midnightblue" points="85.7565,-721.366 84.4359,-731.878 92.0238,-724.484 85.7565,-721.366"/>
</g>
<!-- Node17 -->
<g id="node17" class="node"><title>Node17</title>
<g id="a_node17"><a xlink:href="../../d1/dca/interfaceIG_1_1Lib_1_1ILoadableScriptC.html" target="_top" xlink:title="Controllable loadable script, provides more control over loading and execution.">
<polygon fill="white" stroke="black" points="700.5,-533.059 700.5,-552.059 790.5,-552.059 790.5,-533.059 700.5,-533.059"/>
<text text-anchor="middle" x="745.5" y="-540.059" font-family="Helvetica,sans-Serif" font-size="10.00">ILoadableScriptC</text>
</a>
</g>
</g>
<!-- Node9&#45;&gt;Node17 -->
<g id="edge21" class="edge"><title>Node9&#45;&gt;Node17</title>
<path fill="none" stroke="midnightblue" d="M130.766,-733.953C269.26,-713.065 644.859,-655.452 668,-641.559 704.873,-619.422 730.471,-572.306 740.177,-552.093"/>
<polygon fill="midnightblue" stroke="midnightblue" points="130.19,-730.5 120.823,-735.451 131.233,-737.422 130.19,-730.5"/>
</g>
<!-- Node10 -->
<g id="node10" class="node"><title>Node10</title>
<g id="a_node10"><a xlink:href="../../d3/db6/interfaceIG_1_1Lib_1_1ILockable.html" target="_top" xlink:title="Lockable object, has a Lock property that returns object on which lock must be performed in order to ...">
<polygon fill="white" stroke="black" points="50,-428.059 50,-447.059 108,-447.059 108,-428.059 50,-428.059"/>
<text text-anchor="middle" x="79" y="-435.059" font-family="Helvetica,sans-Serif" font-size="10.00">ILockable</text>
</a>
</g>
</g>
<!-- Node10&#45;&gt;Node5 -->
<g id="edge24" class="edge"><title>Node10&#45;&gt;Node5</title>
<path fill="none" stroke="midnightblue" d="M118.517,-433.702C193.303,-426.427 363.442,-410.931 507,-405.559 638.945,-400.622 990.875,-403.832 1130,-410.559 1171.44,-412.563 1217.94,-416.563 1254.08,-420.062"/>
<polygon fill="midnightblue" stroke="midnightblue" points="117.8,-430.255 108.189,-434.713 118.482,-437.222 117.8,-430.255"/>
</g>
<!-- Node10&#45;&gt;Node6 -->
<g id="edge22" class="edge"><title>Node10&#45;&gt;Node6</title>
<path fill="none" stroke="midnightblue" d="M118.588,-439.413C266.303,-446.508 797.131,-472.005 988.828,-481.213"/>
<polygon fill="midnightblue" stroke="midnightblue" points="118.386,-435.899 108.229,-438.915 118.05,-442.891 118.386,-435.899"/>
</g>
<!-- Node10&#45;&gt;Node7 -->
<g id="edge13" class="edge"><title>Node10&#45;&gt;Node7</title>
<path fill="none" stroke="midnightblue" d="M118.142,-448.674C135.63,-453.361 156.719,-458.443 176,-461.559 360.431,-491.367 581.945,-500.596 685.599,-503.387"/>
<polygon fill="midnightblue" stroke="midnightblue" points="118.871,-445.245 108.302,-445.978 117.022,-451.997 118.871,-445.245"/>
</g>
<!-- Node10&#45;&gt;Node8 -->
<g id="edge9" class="edge"><title>Node10&#45;&gt;Node8</title>
<path fill="none" stroke="midnightblue" d="M103.644,-452.469C122.614,-463.907 150.237,-479.407 176,-489.559 194.583,-496.882 312.974,-526.515 375.665,-542.011"/>
<polygon fill="midnightblue" stroke="midnightblue" points="105.429,-449.458 95.073,-447.222 101.774,-455.428 105.429,-449.458"/>
</g>
<!-- Node14 -->
<g id="node14" class="node"><title>Node14</title>
<g id="a_node14"><a xlink:href="../../de/de7/classIG_1_1Lib_1_1StopWatch1.html" target="_top" xlink:title="Timer for measuring execution times and other intervals of time elapsed between successive events....">
<polygon fill="white" stroke="black" points="366,-352.059 366,-371.059 465,-371.059 465,-352.059 366,-352.059"/>
<text text-anchor="middle" x="415.5" y="-359.059" font-family="Helvetica,sans-Serif" font-size="10.00">IG.Lib.StopWatch1</text>
</a>
</g>
</g>
<!-- Node10&#45;&gt;Node14 -->
<g id="edge16" class="edge"><title>Node10&#45;&gt;Node14</title>
<path fill="none" stroke="midnightblue" d="M117.968,-428.017C135.575,-423.707 156.808,-418.671 176,-414.559 241.459,-400.534 258.792,-401.707 324,-386.559 343.529,-382.023 365.184,-376.074 382.414,-371.118"/>
<polygon fill="midnightblue" stroke="midnightblue" points="116.935,-424.667 108.063,-430.459 118.61,-431.464 116.935,-424.667"/>
</g>
<!-- Node18 -->
<g id="node18" class="node"><title>Node18</title>
<g id="a_node18"><a xlink:href="../../df/d43/classIG_1_1Num_1_1SimCastingRobertFileManager.html" target="_top" xlink:title="File manager for interfacing simulation casting simulator of Robert Vertnik.">
<polygon fill="white" stroke="black" points="342,-302.559 342,-332.559 489,-332.559 489,-302.559 342,-302.559"/>
<text text-anchor="start" x="350" y="-320.559" font-family="Helvetica,sans-Serif" font-size="10.00">IG.Num.SimCastingRobertFile</text>
<text text-anchor="middle" x="415.5" y="-309.559" font-family="Helvetica,sans-Serif" font-size="10.00">Manager</text>
</a>
</g>
</g>
<!-- Node10&#45;&gt;Node18 -->
<g id="edge27" class="edge"><title>Node10&#45;&gt;Node18</title>
<path fill="none" stroke="midnightblue" d="M94.6127,-420.366C111.946,-401.212 142.715,-370.923 176,-355.559 190.942,-348.662 277.26,-335.932 341.787,-327.118"/>
<polygon fill="midnightblue" stroke="midnightblue" points="91.8231,-418.238 87.8356,-428.054 97.074,-422.867 91.8231,-418.238"/>
</g>
<!-- Node24 -->
<g id="node24" class="node"><title>Node24</title>
<g id="a_node24"><a xlink:href="../../d7/db4/interfaceIG_1_1Num_1_1INeuralApproximator.html" target="_top" xlink:title="Approximator of response by using neural networks. $A Igor Mar11;">
<polygon fill="white" stroke="black" points="345.5,-264.059 345.5,-283.059 485.5,-283.059 485.5,-264.059 345.5,-264.059"/>
<text text-anchor="middle" x="415.5" y="-271.059" font-family="Helvetica,sans-Serif" font-size="10.00">IG.Num.INeuralApproximator</text>
</a>
</g>
</g>
<!-- Node10&#45;&gt;Node24 -->
<g id="edge37" class="edge"><title>Node10&#45;&gt;Node24</title>
<path fill="none" stroke="midnightblue" d="M91.2954,-419.194C107.151,-395.025 138.328,-352.991 176,-330.559 227.85,-299.685 295.404,-285.526 345.373,-279.037"/>
<polygon fill="midnightblue" stroke="midnightblue" points="88.2411,-417.474 85.8119,-427.787 94.1419,-421.24 88.2411,-417.474"/>
</g>
<!-- Node26 -->
<g id="node26" class="node"><title>Node26</title>
<g id="a_node26"><a xlink:href="../../d5/de7/classIG_1_1Neural_1_1NeuraApproximationFileManager.html" target="_top" xlink:title="File manager for neural network approximation file client and server.">
<polygon fill="white" stroke="black" points="823,-623.559 823,-653.559 971,-653.559 971,-623.559 823,-623.559"/>
<text text-anchor="start" x="831" y="-641.559" font-family="Helvetica,sans-Serif" font-size="10.00">IG.Neural.NeuraApproximation</text>
<text text-anchor="middle" x="897" y="-630.559" font-family="Helvetica,sans-Serif" font-size="10.00">FileManager</text>
</a>
</g>
</g>
<!-- Node10&#45;&gt;Node26 -->
<g id="edge39" class="edge"><title>Node10&#45;&gt;Node26</title>
<path fill="none" stroke="midnightblue" d="M94.4009,-454.927C111.71,-474.63 142.624,-506.261 176,-523.559 235.922,-554.615 273.647,-512.619 324,-557.559 341.933,-573.565 322.76,-594.15 342,-608.559 491.955,-720.861 733.842,-679.834 841.406,-653.641"/>
<polygon fill="midnightblue" stroke="midnightblue" points="97.0161,-452.6 87.848,-447.29 91.7036,-457.158 97.0161,-452.6"/>
</g>
<!-- Node11 -->
<g id="node11" class="node"><title>Node11</title>
<g id="a_node11"><a xlink:href="../../de/dfd/interfaceIG_1_1Lib_1_1ICommandLineApplicationInterpreter.html" target="_top" xlink:title="Interface for simple command&#45;line applicatino interpreters.">
<polygon fill="white" stroke="black" points="0,-561.559 0,-591.559 158,-591.559 158,-561.559 0,-561.559"/>
<text text-anchor="start" x="8" y="-579.559" font-family="Helvetica,sans-Serif" font-size="10.00">IG.Lib.ICommandLineApplication</text>
<text text-anchor="middle" x="79" y="-568.559" font-family="Helvetica,sans-Serif" font-size="10.00">Interpreter</text>
</a>
</g>
</g>
<!-- Node11&#45;&gt;Node8 -->
<g id="edge10" class="edge"><title>Node11&#45;&gt;Node8</title>
<path fill="none" stroke="#9a32cd" stroke-dasharray="5,2" d="M168.214,-569.966C230.457,-565.314 311.665,-559.245 363.463,-555.374"/>
<polygon fill="#9a32cd" stroke="#9a32cd" points="167.715,-566.494 158.003,-570.729 168.236,-573.474 167.715,-566.494"/>
<text text-anchor="middle" x="250" y="-572.559" font-family="Helvetica,sans-Serif" font-size="10.00"> _script_interpreter</text>
</g>
<!-- Node12 -->
<g id="node12" class="node"><title>Node12</title>
<g id="a_node12"><a xlink:title=" ">
<polygon fill="white" stroke="#bfbfbf" points="58.5,-146.059 58.5,-165.059 99.5,-165.059 99.5,-146.059 58.5,-146.059"/>
<text text-anchor="middle" x="79" y="-153.059" font-family="Helvetica,sans-Serif" font-size="10.00">static</text>
</a>
</g>
</g>
<!-- Node12&#45;&gt;Node4 -->
<g id="edge42" class="edge"><title>Node12&#45;&gt;Node4</title>
<path fill="none" stroke="#9a32cd" stroke-dasharray="5,2" d="M109.576,-153.341C167.875,-149.167 301.766,-140.559 414.5,-140.559 414.5,-140.559 414.5,-140.559 1318,-140.559 1459.48,-140.559 1566.23,-320.516 1590.36,-364.802"/>
<polygon fill="#9a32cd" stroke="#9a32cd" points="109.312,-149.851 99.5917,-154.066 109.819,-156.833 109.312,-149.851"/>
<text text-anchor="start" x="839.5" y="-154.559" font-family="Helvetica,sans-Serif" font-size="10.00"> TrainedNetworkAlternative</text>
<text text-anchor="middle" x="897" y="-143.559" font-family="Helvetica,sans-Serif" font-size="10.00">Lovation</text>
</g>
<!-- Node12&#45;&gt;Node8 -->
<g id="edge11" class="edge"><title>Node12&#45;&gt;Node8</title>
<path fill="none" stroke="#9a32cd" stroke-dasharray="5,2" d="M110.082,-155.097C126.602,-156.527 146.095,-161.278 158,-174.559 199.284,-220.618 149.935,-256.466 176,-312.559 217.096,-401 275.493,-389.956 324,-474.559 337.425,-497.974 322.494,-513.904 342,-532.559 348.018,-538.315 355.559,-542.38 363.484,-545.241"/>
<polygon fill="#9a32cd" stroke="#9a32cd" points="109.927,-151.585 99.7641,-154.58 109.577,-158.576 109.927,-151.585"/>
<text text-anchor="middle" x="250" y="-477.559" font-family="Helvetica,sans-Serif" font-size="10.00"> _defaultOutputLevel</text>
</g>
<!-- Node12&#45;&gt;Node14 -->
<g id="edge18" class="edge"><title>Node12&#45;&gt;Node14</title>
<path fill="none" stroke="#9a32cd" stroke-dasharray="5,2" d="M109.698,-158.721C124.925,-161.321 143.307,-166.035 158,-174.559 168.062,-180.396 166.6,-186.707 176,-193.559 234.956,-236.532 278.321,-207.674 324,-264.559 346.005,-291.962 317.645,-316.222 342,-341.559 348.424,-348.243 356.862,-352.757 365.702,-355.792"/>
<polygon fill="#9a32cd" stroke="#9a32cd" points="110.15,-155.25 99.7431,-157.238 109.118,-162.174 110.15,-155.25"/>
<text text-anchor="middle" x="250" y="-300.559" font-family="Helvetica,sans-Serif" font-size="10.00"> lastId</text>
<text text-anchor="middle" x="250" y="-289.559" font-family="Helvetica,sans-Serif" font-size="10.00">_staticLock</text>
<text text-anchor="middle" x="250" y="-278.559" font-family="Helvetica,sans-Serif" font-size="10.00">numWarnCpu</text>
<text text-anchor="middle" x="250" y="-267.559" font-family="Helvetica,sans-Serif" font-size="10.00">MaxWarnCpu</text>
</g>
<!-- Node12&#45;&gt;Node18 -->
<g id="edge28" class="edge"><title>Node12&#45;&gt;Node18</title>
<path fill="none" stroke="#9a32cd" stroke-dasharray="5,2" d="M109.924,-154.012C168.183,-151.677 293.782,-150.176 324,-178.559 361.388,-213.677 309.047,-253.25 342,-292.559 345.25,-296.436 349.133,-299.713 353.389,-302.483"/>
<polygon fill="#9a32cd" stroke="#9a32cd" points="109.706,-150.518 99.8678,-154.451 110.011,-157.512 109.706,-150.518"/>
<text text-anchor="middle" x="250" y="-181.559" font-family="Helvetica,sans-Serif" font-size="10.00"> emptyCommandArguments</text>
</g>
<!-- Node22 -->
<g id="node22" class="node"><title>Node22</title>
<g id="a_node22"><a xlink:href="../../d5/dd5/classIG_1_1Num_1_1InputOutputDataDefiniton.html" target="_top" xlink:title="Definition of input and output data for vector functions, approximations, etc. Contains descriptiove ...">
<polygon fill="white" stroke="black" points="507,-47.0592 507,-66.0592 668,-66.0592 668,-47.0592 507,-47.0592"/>
<text text-anchor="middle" x="587.5" y="-54.0592" font-family="Helvetica,sans-Serif" font-size="10.00">IG.Num.InputOutputDataDefiniton</text>
</a>
</g>
</g>
<!-- Node12&#45;&gt;Node22 -->
<g id="edge33" class="edge"><title>Node12&#45;&gt;Node22</title>
<path fill="none" stroke="#9a32cd" stroke-dasharray="5,2" d="M109.754,-154.832C126.166,-152.84 145.659,-147.589 158,-134.559 184.554,-106.522 145.999,-73.8721 176,-49.5592 292.567,44.908 494.983,-20.7119 563.254,-47.0219"/>
<polygon fill="#9a32cd" stroke="#9a32cd" points="109.181,-151.369 99.5207,-155.721 109.786,-158.343 109.181,-151.369"/>
<text text-anchor="start" x="176" y="-118.559" font-family="Helvetica,sans-Serif" font-size="10.00"> _defaultElementNameStating</text>
<text text-anchor="middle" x="250" y="-107.559" font-family="Helvetica,sans-Serif" font-size="10.00">Index</text>
<text text-anchor="middle" x="250" y="-96.5592" font-family="Helvetica,sans-Serif" font-size="10.00">DefaultDescription</text>
<text text-anchor="middle" x="250" y="-85.5592" font-family="Helvetica,sans-Serif" font-size="10.00">_defaultElementNameNumDigits</text>
<text text-anchor="middle" x="250" y="-74.5592" font-family="Helvetica,sans-Serif" font-size="10.00">_defaultOutputElementNameBase</text>
<text text-anchor="middle" x="250" y="-63.5592" font-family="Helvetica,sans-Serif" font-size="10.00">_defaultInputElementNameBase</text>
<text text-anchor="middle" x="250" y="-52.5592" font-family="Helvetica,sans-Serif" font-size="10.00">DefaultName</text>
</g>
<!-- Node13 -->
<g id="node13" class="node"><title>Node13</title>
<g id="a_node13"><a xlink:href="../../d5/d59/interfaceIG_1_1Num_1_1IAnalysis.html" target="_top" xlink:title="Interface for direct analysis classes used in optimization problems.">
<polygon fill="white" stroke="black" points="369.5,-504.059 369.5,-523.059 461.5,-523.059 461.5,-504.059 369.5,-504.059"/>
<text text-anchor="middle" x="415.5" y="-511.059" font-family="Helvetica,sans-Serif" font-size="10.00">IG.Num.IAnalysis</text>
</a>
</g>
</g>
<!-- Node13&#45;&gt;Node7 -->
<g id="edge14" class="edge"><title>Node13&#45;&gt;Node7</title>
<path fill="none" stroke="#9a32cd" stroke-dasharray="5,2" d="M472.078,-512.034C531.494,-510.404 625.306,-507.83 685.869,-506.168"/>
<polygon fill="#9a32cd" stroke="#9a32cd" points="471.663,-508.544 461.763,-512.317 471.855,-515.542 471.663,-508.544"/>
<text text-anchor="middle" x="587.5" y="-514.559" font-family="Helvetica,sans-Serif" font-size="10.00"> _analysis</text>
</g>
<!-- Node14&#45;&gt;Node7 -->
<g id="edge15" class="edge"><title>Node14&#45;&gt;Node7</title>
<path fill="none" stroke="#9a32cd" stroke-dasharray="5,2" d="M463.073,-373.867C514.783,-388.471 599.929,-415.346 668,-450.559 692.691,-463.332 718.529,-483.135 732.966,-494.877"/>
<polygon fill="#9a32cd" stroke="#9a32cd" points="463.765,-370.426 453.192,-371.111 461.884,-377.169 463.765,-370.426"/>
<text text-anchor="middle" x="587.5" y="-453.559" font-family="Helvetica,sans-Serif" font-size="10.00"> _timer</text>
</g>
<!-- Node15 -->
<g id="node15" class="node"><title>Node15</title>
<g id="a_node15"><a xlink:href="../../dc/d79/interfaceIG_1_1Lib_1_1IIdentifiable.html" target="_top" xlink:title="Classes whose instances have unique integer IDs.">
<polygon fill="white" stroke="black" points="46.5,-282.059 46.5,-301.059 111.5,-301.059 111.5,-282.059 46.5,-282.059"/>
<text text-anchor="middle" x="79" y="-289.059" font-family="Helvetica,sans-Serif" font-size="10.00">IIdentifiable</text>
</a>
</g>
</g>
<!-- Node15&#45;&gt;Node14 -->
<g id="edge17" class="edge"><title>Node15&#45;&gt;Node14</title>
<path fill="none" stroke="midnightblue" d="M121.758,-300.298C184.791,-313.489 303.783,-338.39 368.969,-352.031"/>
<polygon fill="midnightblue" stroke="midnightblue" points="122.275,-296.83 111.771,-298.208 120.842,-303.682 122.275,-296.83"/>
</g>
<!-- Node16 -->
<g id="node16" class="node"><title>Node16</title>
<g id="a_node16"><a xlink:href="../../d4/d43/interfaceIG_1_1Num_1_1IRandomGenerator.html" target="_top" xlink:title="Uniform random number generator.">
<polygon fill="white" stroke="black" points="348.5,-580.059 348.5,-599.059 482.5,-599.059 482.5,-580.059 348.5,-580.059"/>
<text text-anchor="middle" x="415.5" y="-587.059" font-family="Helvetica,sans-Serif" font-size="10.00">IG.Num.IRandomGenerator</text>
</a>
</g>
</g>
<!-- Node16&#45;&gt;Node7 -->
<g id="edge19" class="edge"><title>Node16&#45;&gt;Node7</title>
<path fill="none" stroke="#9a32cd" stroke-dasharray="5,2" d="M492.529,-593.301C545.557,-592.393 615.873,-583.848 668,-550.559 680.155,-542.797 674.505,-532.269 686,-523.559 691.107,-519.69 697.033,-516.59 703.115,-514.113"/>
<polygon fill="#9a32cd" stroke="#9a32cd" points="492.471,-589.801 482.501,-593.386 492.53,-596.801 492.471,-589.801"/>
<text text-anchor="middle" x="587.5" y="-596.559" font-family="Helvetica,sans-Serif" font-size="10.00"> _randGen</text>
</g>
<!-- Node17&#45;&gt;Node5 -->
<g id="edge23" class="edge"><title>Node17&#45;&gt;Node5</title>
<path fill="none" stroke="midnightblue" d="M800.874,-541.951C875.777,-540.163 1014.55,-533.424 1130,-508.559 1178.78,-498.053 1190.52,-492.093 1236,-471.559 1259.38,-461.001 1285,-445.925 1300.79,-436.189"/>
<polygon fill="midnightblue" stroke="midnightblue" points="800.66,-538.455 790.738,-542.172 800.812,-545.453 800.66,-538.455"/>
</g>
<!-- Node17&#45;&gt;Node6 -->
<g id="edge20" class="edge"><title>Node17&#45;&gt;Node6</title>
<path fill="none" stroke="midnightblue" d="M792.38,-530.536C802.435,-528.077 813.049,-525.615 823,-523.559 878.5,-512.09 941.905,-501.746 988.934,-494.597"/>
<polygon fill="midnightblue" stroke="midnightblue" points="791.416,-527.169 782.556,-532.979 793.105,-533.963 791.416,-527.169"/>
</g>
<!-- Node18&#45;&gt;Node5 -->
<g id="edge25" class="edge"><title>Node18&#45;&gt;Node5</title>
<path fill="none" stroke="#9a32cd" stroke-dasharray="5,2" d="M499.245,-327.799C501.859,-328.064 504.449,-328.319 507,-328.559 668.648,-343.805 1086.25,-314.798 1236,-377.559 1245.87,-381.697 1245.21,-387.446 1254,-393.559 1267.01,-402.613 1282.8,-410.981 1295.18,-417.025"/>
<polygon fill="#9a32cd" stroke="#9a32cd" points="499.386,-324.295 489.075,-326.729 498.653,-331.257 499.386,-324.295"/>
<text text-anchor="middle" x="897" y="-341.559" font-family="Helvetica,sans-Serif" font-size="10.00"> _CastingRobertFilemanager</text>
</g>
<!-- Node19 -->
<g id="node19" class="node"><title>Node19</title>
<g id="a_node19"><a xlink:href="../../d6/d7c/interfaceIG_1_1Num_1_1IResponseEvaluatorVectorSimple.html" target="_top" xlink:title="Interface for simulators and other systems (used e.g. for optimization) that can calculate vector res...">
<polygon fill="white" stroke="black" points="13.5,-184.559 13.5,-214.559 144.5,-214.559 144.5,-184.559 13.5,-184.559"/>
<text text-anchor="start" x="21.5" y="-202.559" font-family="Helvetica,sans-Serif" font-size="10.00">IResponseEvaluatorVector</text>
<text text-anchor="middle" x="79" y="-191.559" font-family="Helvetica,sans-Serif" font-size="10.00">Simple</text>
</a>
</g>
</g>
<!-- Node19&#45;&gt;Node18 -->
<g id="edge26" class="edge"><title>Node19&#45;&gt;Node18</title>
<path fill="none" stroke="midnightblue" d="M154.697,-194.354C216.92,-191.691 299.219,-192.6 324,-213.559 351.495,-236.814 317.948,-265.758 342,-292.559 345.468,-296.424 349.562,-299.691 354.011,-302.453"/>
<polygon fill="midnightblue" stroke="midnightblue" points="154.331,-190.867 144.505,-194.829 154.657,-197.859 154.331,-190.867"/>
</g>
<!-- Node20 -->
<g id="node20" class="node"><title>Node20</title>
<g id="a_node20"><a xlink:href="../../d6/d7c/interfaceIG_1_1Num_1_1IResponseEvaluatorVectorSimple.html" target="_top" xlink:title="Interface for simulators and other systems (used e.g. for optimization) that can calculate vector res...">
<polygon fill="white" stroke="black" points="990.5,-420.559 990.5,-450.559 1128.5,-450.559 1128.5,-420.559 990.5,-420.559"/>
<text text-anchor="start" x="998.5" y="-438.559" font-family="Helvetica,sans-Serif" font-size="10.00">IG.Num.IResponseEvaluator</text>
<text text-anchor="middle" x="1059.5" y="-427.559" font-family="Helvetica,sans-Serif" font-size="10.00">VectorSimple</text>
</a>
</g>
</g>
<!-- Node20&#45;&gt;Node5 -->
<g id="edge29" class="edge"><title>Node20&#45;&gt;Node5</title>
<path fill="none" stroke="#9a32cd" stroke-dasharray="5,2" d="M1138.89,-432.798C1175.93,-431.493 1219.51,-429.958 1254.18,-428.737"/>
<polygon fill="#9a32cd" stroke="#9a32cd" points="1138.5,-429.309 1128.63,-433.159 1138.75,-436.305 1138.5,-429.309"/>
<text text-anchor="middle" x="1192" y="-435.559" font-family="Helvetica,sans-Serif" font-size="10.00"> _simulator</text>
</g>
<!-- Node21 -->
<g id="node21" class="node"><title>Node21</title>
<g id="a_node21"><a xlink:href="../../d0/d98/interfaceIG_1_1Num_1_1INeuralModel.html" target="_top" xlink:title="Interface for artificial neural network &#45;based models that we can operate on.">
<polygon fill="white" stroke="black" points="1280.5,-365.059 1280.5,-384.059 1353.5,-384.059 1353.5,-365.059 1280.5,-365.059"/>
<text text-anchor="middle" x="1317" y="-372.059" font-family="Helvetica,sans-Serif" font-size="10.00">INeuralModel</text>
</a>
</g>
</g>
<!-- Node21&#45;&gt;Node4 -->
<g id="edge31" class="edge"><title>Node21&#45;&gt;Node4</title>
<path fill="none" stroke="midnightblue" d="M1363.74,-374.559C1406.13,-374.559 1469.99,-374.559 1519.95,-374.559"/>
<polygon fill="midnightblue" stroke="midnightblue" points="1363.71,-371.059 1353.71,-374.559 1363.71,-378.059 1363.71,-371.059"/>
</g>
<!-- Node22&#45;&gt;Node4 -->
<g id="edge32" class="edge"><title>Node22&#45;&gt;Node4</title>
<path fill="none" stroke="#9a32cd" stroke-dasharray="5,2" d="M651.929,-67.7002C713.947,-77.615 811.16,-90.5592 896,-90.5592 896,-90.5592 896,-90.5592 1318,-90.5592 1401.33,-90.5592 1438.36,-72.7671 1502,-126.559 1579.14,-191.759 1592.73,-327.474 1595.04,-364.849"/>
<polygon fill="#9a32cd" stroke="#9a32cd" points="652.338,-64.2209 641.907,-66.0753 651.218,-71.1307 652.338,-64.2209"/>
<text text-anchor="middle" x="1059.5" y="-104.559" font-family="Helvetica,sans-Serif" font-size="10.00"> _neuralDataDefinition</text>
<text text-anchor="middle" x="1059.5" y="-93.5592" font-family="Helvetica,sans-Serif" font-size="10.00">_simulationDataDefinition</text>
</g>
<!-- Node23 -->
<g id="node23" class="node"><title>Node23</title>
<g id="a_node23"><a xlink:href="../../d4/d29/classIG_1_1Num_1_1SampledDataSet.html" target="_top" xlink:title="Sampled data consisting of elements of which each contains vector of input parameters and output valu...">
<polygon fill="white" stroke="black" points="1254,-257.059 1254,-276.059 1380,-276.059 1380,-257.059 1254,-257.059"/>
<text text-anchor="middle" x="1317" y="-264.059" font-family="Helvetica,sans-Serif" font-size="10.00">IG.Num.SampledDataSet</text>
</a>
</g>
</g>
<!-- Node23&#45;&gt;Node4 -->
<g id="edge34" class="edge"><title>Node23&#45;&gt;Node4</title>
<path fill="none" stroke="#9a32cd" stroke-dasharray="5,2" d="M1372.17,-255.513C1410.22,-250.397 1461.37,-248.975 1502,-267.559 1547.32,-288.289 1579.33,-342.925 1590.82,-365.052"/>
<polygon fill="#9a32cd" stroke="#9a32cd" points="1371.19,-252.12 1361.8,-257.041 1372.21,-259.045 1371.19,-252.12"/>
<text text-anchor="middle" x="1450" y="-292.559" font-family="Helvetica,sans-Serif" font-size="10.00"> _neuralTrainingData</text>
<text text-anchor="middle" x="1450" y="-281.559" font-family="Helvetica,sans-Serif" font-size="10.00">_verificationData</text>
<text text-anchor="middle" x="1450" y="-270.559" font-family="Helvetica,sans-Serif" font-size="10.00">_trainingData</text>
</g>
<!-- Node24&#45;&gt;Node4 -->
<g id="edge35" class="edge"><title>Node24&#45;&gt;Node4</title>
<path fill="none" stroke="#9a32cd" stroke-dasharray="5,2" d="M473.043,-284.966C538.199,-297.098 648.627,-314.559 744.5,-314.559 744.5,-314.559 744.5,-314.559 1318,-314.559 1412.39,-314.559 1520.85,-348.134 1569.51,-365.052"/>
<polygon fill="#9a32cd" stroke="#9a32cd" points="473.459,-281.483 462.984,-283.068 472.161,-288.362 473.459,-281.483"/>
<text text-anchor="middle" x="1059.5" y="-317.559" font-family="Helvetica,sans-Serif" font-size="10.00"> _trainedNetwork</text>
</g>
<!-- Node25 -->
<g id="node25" class="node"><title>Node25</title>
<g id="a_node25"><a xlink:href="../../dc/d13/interfaceIG_1_1Num_1_1IVectorApproximator.html" target="_top" xlink:title="Interface for vector function approximators.">
<polygon fill="white" stroke="black" points="26.5,-106.059 26.5,-125.059 131.5,-125.059 131.5,-106.059 26.5,-106.059"/>
<text text-anchor="middle" x="79" y="-113.059" font-family="Helvetica,sans-Serif" font-size="10.00">IVectorApproximator</text>
</a>
</g>
</g>
<!-- Node25&#45;&gt;Node24 -->
<g id="edge36" class="edge"><title>Node25&#45;&gt;Node24</title>
<path fill="none" stroke="midnightblue" d="M142.026,-111.994C194.13,-111.833 268.722,-118.46 324,-151.559 370.157,-179.197 400.22,-240.258 410.528,-263.924"/>
<polygon fill="midnightblue" stroke="midnightblue" points="141.876,-108.495 131.917,-112.111 141.957,-115.495 141.876,-108.495"/>
</g>
<!-- Node26&#45;&gt;Node4 -->
<g id="edge38" class="edge"><title>Node26&#45;&gt;Node4</title>
<path fill="none" stroke="#9a32cd" stroke-dasharray="5,2" d="M951.898,-620.172C1058.06,-583.642 1301.37,-498.376 1502,-416.559 1527.54,-406.144 1556.43,-392.944 1575.25,-384.15"/>
<polygon fill="#9a32cd" stroke="#9a32cd" points="950.681,-616.89 942.361,-623.449 952.956,-623.51 950.681,-616.89"/>
<text text-anchor="middle" x="1192" y="-552.559" font-family="Helvetica,sans-Serif" font-size="10.00"> _neuralFileManager</text>
</g>
<!-- Node27 -->
<g id="node27" class="node"><title>Node27</title>
<g id="a_node27"><a xlink:href="../../d3/d24/interfaceIG_1_1Num_1_1IVector.html" target="_top" xlink:title="Generic Vector interface">
<polygon fill="white" stroke="black" points="1263.5,-724.059 1263.5,-743.059 1370.5,-743.059 1370.5,-724.059 1263.5,-724.059"/>
<text text-anchor="middle" x="1317" y="-731.059" font-family="Helvetica,sans-Serif" font-size="10.00">IG.Num.IVector&lt; T &gt;</text>
</a>
</g>
</g>
<!-- Node27&#45;&gt;Node1 -->
<g id="edge47" class="edge"><title>Node27&#45;&gt;Node1</title>
<path fill="none" stroke="#9a32cd" stroke-dasharray="5,2" d="M1381.03,-728.765C1491.18,-721.569 1725.6,-711.509 1921,-738.559 2010.91,-751.006 2112.53,-783.19 2168.11,-802.421"/>
<polygon fill="#9a32cd" stroke="#9a32cd" points="1380.5,-725.292 1370.76,-729.452 1380.97,-732.277 1380.5,-725.292"/>
<text text-anchor="middle" x="1855.5" y="-752.559" font-family="Helvetica,sans-Serif" font-size="10.00"> auxNeuralOutput</text>
<text text-anchor="middle" x="1855.5" y="-741.559" font-family="Helvetica,sans-Serif" font-size="10.00">auxNeuralInput</text>
</g>
<!-- Node27&#45;&gt;Node2 -->
<g id="edge45" class="edge"><title>Node27&#45;&gt;Node2</title>
<path fill="none" stroke="#9a32cd" stroke-dasharray="5,2" d="M1381.14,-744.715C1386.84,-745.689 1392.52,-746.65 1398,-747.559 1528.04,-769.144 1560.02,-778.703 1691,-793.559 1782.54,-803.942 1888.42,-810.55 1957.72,-814.148"/>
<polygon fill="#9a32cd" stroke="#9a32cd" points="1381.36,-741.201 1370.91,-742.953 1380.17,-748.099 1381.36,-741.201"/>
<text text-anchor="middle" x="1731.5" y="-880.559" font-family="Helvetica,sans-Serif" font-size="10.00"> _outputTargets</text>
<text text-anchor="middle" x="1731.5" y="-869.559" font-family="Helvetica,sans-Serif" font-size="10.00">_outputMax</text>
<text text-anchor="middle" x="1731.5" y="-858.559" font-family="Helvetica,sans-Serif" font-size="10.00">_paramOptMin</text>
<text text-anchor="middle" x="1731.5" y="-847.559" font-family="Helvetica,sans-Serif" font-size="10.00">_paramOptMax</text>
<text text-anchor="middle" x="1731.5" y="-836.559" font-family="Helvetica,sans-Serif" font-size="10.00">_outputScales</text>
<text text-anchor="middle" x="1731.5" y="-825.559" font-family="Helvetica,sans-Serif" font-size="10.00">_paramOptScales</text>
<text text-anchor="middle" x="1731.5" y="-814.559" font-family="Helvetica,sans-Serif" font-size="10.00">_paramOptTargets</text>
<text text-anchor="middle" x="1731.5" y="-803.559" font-family="Helvetica,sans-Serif" font-size="10.00">_outputMin</text>
</g>
<!-- Node27&#45;&gt;Node4 -->
<g id="edge40" class="edge"><title>Node27&#45;&gt;Node4</title>
<path fill="none" stroke="#9a32cd" stroke-dasharray="5,2" d="M1336.68,-716.518C1349.85,-703.861 1367.34,-685.714 1380,-667.559 1390.23,-652.886 1383.89,-642.561 1398,-631.559 1435.33,-602.445 1465.92,-639.206 1502,-608.559 1574.69,-546.817 1591.38,-420.542 1594.74,-384.415"/>
<polygon fill="#9a32cd" stroke="#9a32cd" points="1334,-714.237 1329.11,-723.641 1338.79,-719.334 1334,-714.237"/>
<text text-anchor="middle" x="1450" y="-711.559" font-family="Helvetica,sans-Serif" font-size="10.00"> _neuralInputMax</text>
<text text-anchor="middle" x="1450" y="-700.559" font-family="Helvetica,sans-Serif" font-size="10.00">_neuralInputDefault</text>
<text text-anchor="middle" x="1450" y="-689.559" font-family="Helvetica,sans-Serif" font-size="10.00">_simulationInputMax</text>
<text text-anchor="middle" x="1450" y="-678.559" font-family="Helvetica,sans-Serif" font-size="10.00">_neuralInputMin</text>
<text text-anchor="middle" x="1450" y="-667.559" font-family="Helvetica,sans-Serif" font-size="10.00">_someInput</text>
<text text-anchor="middle" x="1450" y="-656.559" font-family="Helvetica,sans-Serif" font-size="10.00">_neuralInput</text>
<text text-anchor="middle" x="1450" y="-645.559" font-family="Helvetica,sans-Serif" font-size="10.00">_simulationInputDefault</text>
<text text-anchor="middle" x="1450" y="-634.559" font-family="Helvetica,sans-Serif" font-size="10.00">_simulationInputMin</text>
</g>
<!-- Node28 -->
<g id="node28" class="node"><title>Node28</title>
<g id="a_node28"><a xlink:href="../../db/d5e/interfaceIG_1_1Num_1_1IBoundingBox.html" target="_top" xlink:title="Bounding box, defines minimum and maximum co&#45;ordinates of domains, geometric objects and their groups...">
<polygon fill="white" stroke="black" points="1260.5,-43.0592 1260.5,-62.0592 1373.5,-62.0592 1373.5,-43.0592 1260.5,-43.0592"/>
<text text-anchor="middle" x="1317" y="-50.0592" font-family="Helvetica,sans-Serif" font-size="10.00">IG.Num.IBoundingBox</text>
</a>
</g>
</g>
<!-- Node28&#45;&gt;Node4 -->
<g id="edge41" class="edge"><title>Node28&#45;&gt;Node4</title>
<path fill="none" stroke="#9a32cd" stroke-dasharray="5,2" d="M1357.68,-40.4854C1398.19,-30.7775 1460.81,-23.3334 1502,-54.5592 1554.46,-94.3343 1587.52,-316.131 1594.23,-365.023"/>
<polygon fill="#9a32cd" stroke="#9a32cd" points="1356.71,-37.1206 1347.89,-42.9802 1358.44,-43.9041 1356.71,-37.1206"/>
<text text-anchor="middle" x="1450" y="-68.5592" font-family="Helvetica,sans-Serif" font-size="10.00"> _neuralInputBounds</text>
<text text-anchor="middle" x="1450" y="-57.5592" font-family="Helvetica,sans-Serif" font-size="10.00">_simulationInputBounds</text>
</g>
</g>
</svg>
