<?xml version="1.0" encoding="UTF-8" standalone="no"?>
<!DOCTYPE svg PUBLIC "-//W3C//DTD SVG 1.1//EN"
 "http://www.w3.org/Graphics/SVG/1.1/DTD/svg11.dtd">
<!-- Generated by graphviz version 2.38.0 (20140413.2041)
 -->
<!-- Title: IG.Forms.FadingMessage Pages: 1 -->
<svg width="572pt" height="249pt"
 viewBox="0.00 0.00 572.00 249.00" xmlns="http://www.w3.org/2000/svg" xmlns:xlink="http://www.w3.org/1999/xlink">
<g id="graph0" class="graph" transform="scale(1 1) rotate(0) translate(4 245)">
<title>IG.Forms.FadingMessage</title>
<polygon fill="white" stroke="none" points="-4,4 -4,-245 568,-245 568,4 -4,4"/>
<!-- Node1 -->
<g id="node1" class="node"><title>Node1</title>
<g id="a_node1"><a xlink:title="Manages a fading message window. Windows containing a message are launched in separate threads,...">
<polygon fill="#bfbfbf" stroke="black" points="196.5,-0.5 196.5,-19.5 325.5,-19.5 325.5,-0.5 196.5,-0.5"/>
<text text-anchor="middle" x="261" y="-7.5" font-family="Helvetica,sans-Serif" font-size="10.00">IG.Forms.FadingMessage</text>
</a>
</g>
</g>
<!-- Node2 -->
<g id="node2" class="node"><title>Node2</title>
<g id="a_node2"><a xlink:title=" ">
<polygon fill="white" stroke="#bfbfbf" points="0,-210.5 0,-240.5 130,-240.5 130,-210.5 0,-210.5"/>
<text text-anchor="start" x="8" y="-228.5" font-family="Helvetica,sans-Serif" font-size="10.00">System::Windows::Forms</text>
<text text-anchor="middle" x="65" y="-217.5" font-family="Helvetica,sans-Serif" font-size="10.00">::Form</text>
</a>
</g>
</g>
<!-- Node2&#45;&gt;Node1 -->
<g id="edge1" class="edge"><title>Node2&#45;&gt;Node1</title>
<path fill="none" stroke="midnightblue" d="M75.0089,-201.204C92.8629,-162.219 133.771,-83.5619 191,-38 201.394,-29.7248 214.618,-23.7576 226.767,-19.5729"/>
<polygon fill="midnightblue" stroke="midnightblue" points="71.7679,-199.878 70.8749,-210.435 78.1565,-202.739 71.7679,-199.878"/>
</g>
<!-- Node3 -->
<g id="node3" class="node"><title>Node3</title>
<g id="a_node3"><a xlink:title=" ">
<polygon fill="white" stroke="#bfbfbf" points="148.5,-216 148.5,-235 213.5,-235 213.5,-216 148.5,-216"/>
<text text-anchor="middle" x="181" y="-223" font-family="Helvetica,sans-Serif" font-size="10.00">IIdentifiable</text>
</a>
</g>
</g>
<!-- Node3&#45;&gt;Node1 -->
<g id="edge2" class="edge"><title>Node3&#45;&gt;Node1</title>
<path fill="none" stroke="midnightblue" d="M187.764,-206.448C204.238,-162.484 245.955,-51.1511 257.812,-19.5074"/>
<polygon fill="midnightblue" stroke="midnightblue" points="184.467,-205.274 184.235,-215.866 191.022,-207.73 184.467,-205.274"/>
</g>
<!-- Node4 -->
<g id="node4" class="node"><title>Node4</title>
<g id="a_node4"><a xlink:title=" ">
<polygon fill="white" stroke="#bfbfbf" points="232,-216 232,-235 290,-235 290,-216 232,-216"/>
<text text-anchor="middle" x="261" y="-223" font-family="Helvetica,sans-Serif" font-size="10.00">ILockable</text>
</a>
</g>
</g>
<!-- Node4&#45;&gt;Node1 -->
<g id="edge3" class="edge"><title>Node4&#45;&gt;Node1</title>
<path fill="none" stroke="midnightblue" d="M261,-205.603C261,-161.074 261,-50.9504 261,-19.5074"/>
<polygon fill="midnightblue" stroke="midnightblue" points="257.5,-205.866 261,-215.866 264.5,-205.866 257.5,-205.866"/>
</g>
<!-- Node5 -->
<g id="node5" class="node"><title>Node5</title>
<g id="a_node5"><a xlink:title=" ">
<polygon fill="white" stroke="#bfbfbf" points="308,-216 308,-235 358,-235 358,-216 308,-216"/>
<text text-anchor="middle" x="333" y="-223" font-family="Helvetica,sans-Serif" font-size="10.00">System</text>
</a>
</g>
</g>
<!-- Node5&#45;&gt;Node1 -->
<g id="edge4" class="edge"><title>Node5&#45;&gt;Node1</title>
<path fill="none" stroke="#9a32cd" stroke-dasharray="5,2" d="M321.525,-206.933C318.783,-202.217 316.058,-197.028 314,-192 287.253,-126.657 300.083,-103.999 275,-38 272.599,-31.6823 269.099,-24.9323 266.199,-19.7617"/>
<polygon fill="#9a32cd" stroke="#9a32cd" points="318.734,-209.076 326.967,-215.745 324.69,-205.397 318.734,-209.076"/>
<text text-anchor="middle" x="363" y="-167.5" font-family="Helvetica,sans-Serif" font-size="10.00"> labelBottom</text>
<text text-anchor="middle" x="363" y="-156.5" font-family="Helvetica,sans-Serif" font-size="10.00">timer1</text>
<text text-anchor="middle" x="363" y="-145.5" font-family="Helvetica,sans-Serif" font-size="10.00">ForeGroundColorTitle</text>
<text text-anchor="middle" x="363" y="-134.5" font-family="Helvetica,sans-Serif" font-size="10.00">menuCopyMessage</text>
<text text-anchor="middle" x="363" y="-123.5" font-family="Helvetica,sans-Serif" font-size="10.00">BodyPnl</text>
<text text-anchor="middle" x="363" y="-112.5" font-family="Helvetica,sans-Serif" font-size="10.00">lblTitle</text>
<text text-anchor="middle" x="363" y="-101.5" font-family="Helvetica,sans-Serif" font-size="10.00">menuClose</text>
<text text-anchor="middle" x="363" y="-90.5" font-family="Helvetica,sans-Serif" font-size="10.00">ForeGroundColorMsg</text>
<text text-anchor="middle" x="363" y="-79.5" font-family="Helvetica,sans-Serif" font-size="10.00">menuExampleMassive</text>
<text text-anchor="middle" x="363" y="-68.5" font-family="Helvetica,sans-Serif" font-size="10.00">FadeColor</text>
<text text-anchor="middle" x="363" y="-57.5" font-family="Helvetica,sans-Serif" font-size="10.00">...</text>
</g>
<!-- Node6 -->
<g id="node6" class="node"><title>Node6</title>
<g id="a_node6"><a xlink:title=" ">
<polygon fill="white" stroke="#bfbfbf" points="413.5,-216 413.5,-235 454.5,-235 454.5,-216 413.5,-216"/>
<text text-anchor="middle" x="434" y="-223" font-family="Helvetica,sans-Serif" font-size="10.00">static</text>
</a>
</g>
</g>
<!-- Node6&#45;&gt;Node1 -->
<g id="edge5" class="edge"><title>Node6&#45;&gt;Node1</title>
<path fill="none" stroke="#9a32cd" stroke-dasharray="5,2" d="M438.292,-205.571C445.558,-168.127 455.562,-84.2355 412,-38 400.084,-25.3526 361.078,-18.5834 325.697,-14.9859"/>
<polygon fill="#9a32cd" stroke="#9a32cd" points="434.814,-205.101 436.187,-215.607 441.665,-206.538 434.814,-205.101"/>
<text text-anchor="middle" x="504" y="-184" font-family="Helvetica,sans-Serif" font-size="10.00"> DefaultBackGroundColor</text>
<text text-anchor="middle" x="504" y="-173" font-family="Helvetica,sans-Serif" font-size="10.00">DefaultInfoBackgroundColor</text>
<text text-anchor="middle" x="504" y="-162" font-family="Helvetica,sans-Serif" font-size="10.00">_lockStatic</text>
<text text-anchor="middle" x="504" y="-151" font-family="Helvetica,sans-Serif" font-size="10.00">_numLaunched</text>
<text text-anchor="middle" x="504" y="-140" font-family="Helvetica,sans-Serif" font-size="10.00">BlockMaxShown</text>
<text text-anchor="start" x="444" y="-129" font-family="Helvetica,sans-Serif" font-size="10.00">DefaultForeGroundColor</text>
<text text-anchor="middle" x="504" y="-118" font-family="Helvetica,sans-Serif" font-size="10.00">Title</text>
<text text-anchor="start" x="444" y="-107" font-family="Helvetica,sans-Serif" font-size="10.00">DefaultErrorBackground</text>
<text text-anchor="middle" x="504" y="-96" font-family="Helvetica,sans-Serif" font-size="10.00">Color</text>
<text text-anchor="start" x="444" y="-85" font-family="Helvetica,sans-Serif" font-size="10.00">DefaultWarningBackground</text>
<text text-anchor="middle" x="504" y="-74" font-family="Helvetica,sans-Serif" font-size="10.00">Color</text>
<text text-anchor="middle" x="504" y="-63" font-family="Helvetica,sans-Serif" font-size="10.00">_outputLevel</text>
<text text-anchor="middle" x="504" y="-52" font-family="Helvetica,sans-Serif" font-size="10.00">defaultFadingTimePortion</text>
<text text-anchor="middle" x="504" y="-41" font-family="Helvetica,sans-Serif" font-size="10.00">...</text>
</g>
</g>
</svg>
