<?xml version="1.0" encoding="UTF-8" standalone="no"?>
<!DOCTYPE svg PUBLIC "-//W3C//DTD SVG 1.1//EN"
 "http://www.w3.org/Graphics/SVG/1.1/DTD/svg11.dtd">
<!-- Generated by graphviz version 2.38.0 (20140413.2041)
 -->
<!-- Title: IG.Gr3d.VtkPlotBase Pages: 1 -->
<svg width="256pt" height="252pt"
 viewBox="0.00 0.00 255.50 252.00" xmlns="http://www.w3.org/2000/svg" xmlns:xlink="http://www.w3.org/1999/xlink">
<g id="graph0" class="graph" transform="scale(1 1) rotate(0) translate(4 248)">
<title>IG.Gr3d.VtkPlotBase</title>
<polygon fill="white" stroke="none" points="-4,4 -4,-248 251.5,-248 251.5,4 -4,4"/>
<!-- Node1 -->
<g id="node1" class="node"><title>Node1</title>
<g id="a_node1"><a xlink:title="Base class for plotting classes that plot on VTK windows (class VtkPlotter).">
<polygon fill="#bfbfbf" stroke="black" points="67,-168.5 67,-187.5 175,-187.5 175,-168.5 67,-168.5"/>
<text text-anchor="middle" x="121" y="-175.5" font-family="Helvetica,sans-Serif" font-size="10.00">IG.Gr3d.VtkPlotBase</text>
</a>
</g>
</g>
<!-- Node4 -->
<g id="node4" class="node"><title>Node4</title>
<g id="a_node4"><a xlink:href="../../d8/d62/classIG_1_1Gr3d_1_1VtkSurfacePlotBase.html" target="_top" xlink:title="Contains basic settings for various surface and contour plots.">
<polygon fill="white" stroke="black" points="50.5,-112.5 50.5,-131.5 191.5,-131.5 191.5,-112.5 50.5,-112.5"/>
<text text-anchor="middle" x="121" y="-119.5" font-family="Helvetica,sans-Serif" font-size="10.00">IG.Gr3d.VtkSurfacePlotBase</text>
</a>
</g>
</g>
<!-- Node1&#45;&gt;Node4 -->
<g id="edge3" class="edge"><title>Node1&#45;&gt;Node4</title>
<path fill="none" stroke="midnightblue" d="M121,-157.805C121,-148.91 121,-138.78 121,-131.751"/>
<polygon fill="midnightblue" stroke="midnightblue" points="117.5,-158.083 121,-168.083 124.5,-158.083 117.5,-158.083"/>
</g>
<!-- Node2 -->
<g id="node2" class="node"><title>Node2</title>
<g id="a_node2"><a xlink:href="../../d3/db6/interfaceIG_1_1Lib_1_1ILockable.html" target="_top" xlink:title="Lockable object, has a Lock property that returns object on which lock must be performed in order to ...">
<polygon fill="white" stroke="black" points="52,-224.5 52,-243.5 110,-243.5 110,-224.5 52,-224.5"/>
<text text-anchor="middle" x="81" y="-231.5" font-family="Helvetica,sans-Serif" font-size="10.00">ILockable</text>
</a>
</g>
</g>
<!-- Node2&#45;&gt;Node1 -->
<g id="edge1" class="edge"><title>Node2&#45;&gt;Node1</title>
<path fill="none" stroke="midnightblue" d="M93.6997,-215.855C100.626,-206.505 108.906,-195.327 114.518,-187.751"/>
<polygon fill="midnightblue" stroke="midnightblue" points="90.745,-213.964 87.6052,-224.083 96.37,-218.131 90.745,-213.964"/>
</g>
<!-- Node3 -->
<g id="node3" class="node"><title>Node3</title>
<g id="a_node3"><a xlink:title=" ">
<polygon fill="white" stroke="#bfbfbf" points="128.5,-224.5 128.5,-243.5 195.5,-243.5 195.5,-224.5 128.5,-224.5"/>
<text text-anchor="middle" x="162" y="-231.5" font-family="Helvetica,sans-Serif" font-size="10.00">IDisposable</text>
</a>
</g>
</g>
<!-- Node3&#45;&gt;Node1 -->
<g id="edge2" class="edge"><title>Node3&#45;&gt;Node1</title>
<path fill="none" stroke="midnightblue" d="M148.983,-215.855C141.883,-206.505 133.396,-195.327 127.644,-187.751"/>
<polygon fill="midnightblue" stroke="midnightblue" points="146.395,-218.235 155.23,-224.083 151.97,-214.002 146.395,-218.235"/>
</g>
<!-- Node5 -->
<g id="node5" class="node"><title>Node5</title>
<g id="a_node5"><a xlink:href="../../de/d93/classIG_1_1Gr3d_1_1VtkCurvePlot.html" target="_top" xlink:title="Handles 3D curve plots in VTK render window accessed through the VtkPlotter class.">
<polygon fill="white" stroke="black" points="0,-56.5 0,-75.5 110,-75.5 110,-56.5 0,-56.5"/>
<text text-anchor="middle" x="55" y="-63.5" font-family="Helvetica,sans-Serif" font-size="10.00">IG.Gr3d.VtkCurvePlot</text>
</a>
</g>
</g>
<!-- Node4&#45;&gt;Node5 -->
<g id="edge4" class="edge"><title>Node4&#45;&gt;Node5</title>
<path fill="none" stroke="midnightblue" d="M102.446,-105.82C90.6219,-96.1452 75.7144,-83.9481 65.797,-75.8339"/>
<polygon fill="midnightblue" stroke="midnightblue" points="100.44,-108.7 110.396,-112.324 104.873,-103.283 100.44,-108.7"/>
</g>
<!-- Node6 -->
<g id="node6" class="node"><title>Node6</title>
<g id="a_node6"><a xlink:href="../../d9/de8/classIG_1_1Gr3d_1_1VtkSurfacePlot.html" target="_top" xlink:title="Handles surface plots in VTK render window accessed through the VtkPlotter class.">
<polygon fill="white" stroke="black" points="128.5,-56.5 128.5,-75.5 247.5,-75.5 247.5,-56.5 128.5,-56.5"/>
<text text-anchor="middle" x="188" y="-63.5" font-family="Helvetica,sans-Serif" font-size="10.00">IG.Gr3d.VtkSurfacePlot</text>
</a>
</g>
</g>
<!-- Node4&#45;&gt;Node6 -->
<g id="edge5" class="edge"><title>Node4&#45;&gt;Node6</title>
<path fill="none" stroke="midnightblue" d="M139.835,-105.82C151.838,-96.1452 166.972,-83.9481 177.039,-75.8339"/>
<polygon fill="midnightblue" stroke="midnightblue" points="137.354,-103.324 131.765,-112.324 141.747,-108.774 137.354,-103.324"/>
</g>
<!-- Node7 -->
<g id="node7" class="node"><title>Node7</title>
<g id="a_node7"><a xlink:href="../../d8/dc2/classIG_1_1Gr3d_1_1VtkContourPlot.html" target="_top" xlink:title="Plots contours on surfaces in 3D.">
<polygon fill="white" stroke="black" points="128.5,-0.5 128.5,-19.5 247.5,-19.5 247.5,-0.5 128.5,-0.5"/>
<text text-anchor="middle" x="188" y="-7.5" font-family="Helvetica,sans-Serif" font-size="10.00">IG.Gr3d.VtkContourPlot</text>
</a>
</g>
</g>
<!-- Node6&#45;&gt;Node7 -->
<g id="edge6" class="edge"><title>Node6&#45;&gt;Node7</title>
<path fill="none" stroke="midnightblue" d="M188,-45.8045C188,-36.9102 188,-26.7798 188,-19.7511"/>
<polygon fill="midnightblue" stroke="midnightblue" points="184.5,-46.083 188,-56.083 191.5,-46.083 184.5,-46.083"/>
</g>
</g>
</svg>
