<?xml version="1.0" encoding="UTF-8" standalone="no"?>
<!DOCTYPE svg PUBLIC "-//W3C//DTD SVG 1.1//EN"
 "http://www.w3.org/Graphics/SVG/1.1/DTD/svg11.dtd">
<!-- Generated by graphviz version 2.38.0 (20140413.2041)
 -->
<!-- Title: NUnit.Framework.PlatformAttribute Pages: 1 -->
<!--zoomable 181 -->
<svg id="main" version="1.1" xmlns="http://www.w3.org/2000/svg" xmlns:xlink="http://www.w3.org/1999/xlink" xml:space="preserve" onload="init(evt)">
<style type="text/css"><![CDATA[
.edge:hover path { stroke: red; }
.edge:hover polygon { stroke: red; fill: red; }
]]></style>
<script type="text/javascript"><![CDATA[
var edges = document.getElementsByTagName('g');
if (edges && edges.length) {
  for (var i=0;i<edges.length;i++) {
    if (edges[i].id.substr(0,4)=='edge') {
      edges[i].setAttribute('class','edge');
    }
  }
}
]]></script>
        <defs>
                <circle id="rim" cx="0" cy="0" r="7"/>
                <circle id="rim2" cx="0" cy="0" r="3.5"/>
                <g id="zoomPlus">
                        <use xlink:href="#rim" fill="#404040">
                                <set attributeName="fill" to="#808080" begin="zoomplus.mouseover" end="zoomplus.mouseout"/>
                        </use>
                        <path d="M-4,0h8M0,-4v8" fill="none" stroke="white" stroke-width="1.5" pointer-events="none"/>
                </g>
                <g id="zoomMin">
                        <use xlink:href="#rim" fill="#404040">
                                <set attributeName="fill" to="#808080" begin="zoomminus.mouseover" end="zoomminus.mouseout"/>
                        </use>
                        <path d="M-4,0h8" fill="none" stroke="white" stroke-width="1.5" pointer-events="none"/>
                </g>
                <g id="dirArrow">
                        <path fill="none" stroke="white" stroke-width="1.5" d="M0,-3.0v7 M-2.5,-0.5L0,-3.0L2.5,-0.5"/>
                </g>
               <g id="resetDef">
                       <use xlink:href="#rim2" fill="#404040">
                               <set attributeName="fill" to="#808080" begin="reset.mouseover" end="reset.mouseout"/>
                       </use>
               </g>
        </defs>

<script type="text/javascript">
var viewWidth = 748;
var viewHeight = 181;
var sectionId = 'dynsection-1';
</script>
<script xlink:href="../../svgpan.js"/>
<svg id="graph" class="graph">
<g id="viewport">
<title>NUnit.Framework.PlatformAttribute</title>
<polygon fill="white" stroke="none" points="-4,4 -4,-177.432 744,-177.432 744,4 -4,4"/>
<!-- Node1 -->
<g id="node1" class="node"><title>Node1</title>
<g id="a_node1"><a xlink:title="PlatformAttribute is used to mark a test fixture or an individual method as applying to a particular ...">
<polygon fill="#bfbfbf" stroke="black" points="609,-106.432 609,-136.432 740,-136.432 740,-106.432 609,-106.432"/>
<text text-anchor="start" x="617" y="-124.432" font-family="Helvetica,sans-Serif" font-size="10.00">NUnit.Framework.Platform</text>
<text text-anchor="middle" x="674.5" y="-113.432" font-family="Helvetica,sans-Serif" font-size="10.00">Attribute</text>
</a>
</g>
</g>
<!-- Node2 -->
<g id="node2" class="node"><title>Node2</title>
<g id="a_node2"><a xlink:href="../../df/d2f/classNUnit_1_1Framework_1_1IncludeExcludeAttribute.html" target="_top" xlink:title="Abstract base for Attributes that are used to include tests in the test run based on environmental se...">
<polygon fill="white" stroke="black" points="383,-150.932 383,-169.932 502,-169.932 502,-150.932 383,-150.932"/>
<text text-anchor="middle" x="442.5" y="-157.932" font-family="Helvetica,sans-Serif" font-size="10.00">IncludeExcludeAttribute</text>
</a>
</g>
</g>
<!-- Node2&#45;&gt;Node1 -->
<g id="edge1" class="edge"><title>Node2&#45;&gt;Node1</title>
<path fill="none" stroke="midnightblue" d="M509.781,-149.201C535.184,-144.896 564.438,-139.937 591,-135.432 596.729,-134.461 602.682,-133.451 608.649,-132.438"/>
<polygon fill="midnightblue" stroke="midnightblue" points="509.158,-145.757 499.884,-150.878 510.328,-152.658 509.158,-145.757"/>
</g>
<!-- Node3 -->
<g id="node3" class="node"><title>Node3</title>
<g id="a_node3"><a xlink:href="../../d3/dee/classNUnit_1_1Framework_1_1NUnitAttribute.html" target="_top" xlink:title="The abstract base class for all custom attributes defined by NUnit.">
<polygon fill="white" stroke="black" points="225,-153.932 225,-172.932 302,-172.932 302,-153.932 225,-153.932"/>
<text text-anchor="middle" x="263.5" y="-160.932" font-family="Helvetica,sans-Serif" font-size="10.00">NUnitAttribute</text>
</a>
</g>
</g>
<!-- Node3&#45;&gt;Node2 -->
<g id="edge2" class="edge"><title>Node3&#45;&gt;Node2</title>
<path fill="none" stroke="midnightblue" d="M312.324,-162.622C334.026,-162.254 359.899,-161.815 382.769,-161.428"/>
<polygon fill="midnightblue" stroke="midnightblue" points="311.976,-159.127 302.037,-162.796 312.095,-166.126 311.976,-159.127"/>
</g>
<!-- Node4 -->
<g id="node4" class="node"><title>Node4</title>
<g id="a_node4"><a xlink:title=" ">
<polygon fill="white" stroke="#bfbfbf" points="0,-153.932 0,-172.932 53,-172.932 53,-153.932 0,-153.932"/>
<text text-anchor="middle" x="26.5" y="-160.932" font-family="Helvetica,sans-Serif" font-size="10.00">Attribute</text>
</a>
</g>
</g>
<!-- Node4&#45;&gt;Node3 -->
<g id="edge3" class="edge"><title>Node4&#45;&gt;Node3</title>
<path fill="none" stroke="midnightblue" d="M63.259,-163.432C106.94,-163.432 180.494,-163.432 224.966,-163.432"/>
<polygon fill="midnightblue" stroke="midnightblue" points="63.0965,-159.932 53.0965,-163.432 63.0964,-166.932 63.0965,-159.932"/>
</g>
<!-- Node5 -->
<g id="node5" class="node"><title>Node5</title>
<g id="a_node5"><a xlink:href="../../d8/d57/interfaceNUnit_1_1Framework_1_1Interfaces_1_1IApplyToTest.html" target="_top" xlink:title="The IApplyToTest interface is implemented by self&#45;applying attributes that modify the state of a test...">
<polygon fill="white" stroke="black" points="406,-111.932 406,-130.932 479,-130.932 479,-111.932 406,-111.932"/>
<text text-anchor="middle" x="442.5" y="-118.932" font-family="Helvetica,sans-Serif" font-size="10.00">IApplyToTest</text>
</a>
</g>
</g>
<!-- Node5&#45;&gt;Node1 -->
<g id="edge4" class="edge"><title>Node5&#45;&gt;Node1</title>
<path fill="none" stroke="midnightblue" d="M489.376,-121.432C523.638,-121.432 570.915,-121.432 608.984,-121.432"/>
<polygon fill="midnightblue" stroke="midnightblue" points="489.185,-117.932 479.185,-121.432 489.185,-124.932 489.185,-117.932"/>
</g>
<!-- Node6 -->
<g id="node6" class="node"><title>Node6</title>
<g id="a_node6"><a xlink:href="../../d1/da2/classNUnit_1_1Framework_1_1Internal_1_1PlatformHelper.html" target="_top" xlink:title="PlatformHelper class is used by the PlatformAttribute class to determine whether a platform is suppor...">
<polygon fill="white" stroke="black" points="378,-61.4322 378,-91.4322 507,-91.4322 507,-61.4322 378,-61.4322"/>
<text text-anchor="start" x="386" y="-79.4322" font-family="Helvetica,sans-Serif" font-size="10.00">NUnit.Framework.Internal.</text>
<text text-anchor="middle" x="442.5" y="-68.4322" font-family="Helvetica,sans-Serif" font-size="10.00">PlatformHelper</text>
</a>
</g>
</g>
<!-- Node6&#45;&gt;Node1 -->
<g id="edge5" class="edge"><title>Node6&#45;&gt;Node1</title>
<path fill="none" stroke="#9a32cd" stroke-dasharray="5,2" d="M517.091,-90.8304C546.586,-96.6011 580.275,-103.192 608.814,-108.776"/>
<polygon fill="#9a32cd" stroke="#9a32cd" points="517.748,-87.3928 507.262,-88.9074 516.404,-94.2625 517.748,-87.3928"/>
<text text-anchor="middle" x="558" y="-107.432" font-family="Helvetica,sans-Serif" font-size="10.00"> platformHelper</text>
</g>
<!-- Node7 -->
<g id="node7" class="node"><title>Node7</title>
<g id="a_node7"><a xlink:href="../../d5/d54/classNUnit_1_1Framework_1_1Internal_1_1RuntimeFramework.html" target="_top" xlink:title="RuntimeFramework represents a particular version of a common language runtime implementation.">
<polygon fill="white" stroke="black" points="199,-57.4322 199,-87.4322 328,-87.4322 328,-57.4322 199,-57.4322"/>
<text text-anchor="start" x="207" y="-75.4322" font-family="Helvetica,sans-Serif" font-size="10.00">NUnit.Framework.Internal.</text>
<text text-anchor="middle" x="263.5" y="-64.4322" font-family="Helvetica,sans-Serif" font-size="10.00">RuntimeFramework</text>
</a>
</g>
</g>
<!-- Node7&#45;&gt;Node6 -->
<g id="edge6" class="edge"><title>Node7&#45;&gt;Node6</title>
<path fill="none" stroke="#9a32cd" stroke-dasharray="5,2" d="M338.751,-74.1102C351.798,-74.405 365.269,-74.7095 377.99,-74.9969"/>
<polygon fill="#9a32cd" stroke="#9a32cd" points="338.478,-70.6032 328.401,-73.8763 338.319,-77.6014 338.478,-70.6032"/>
<text text-anchor="middle" x="353" y="-78.4322" font-family="Helvetica,sans-Serif" font-size="10.00"> rt</text>
</g>
<!-- Node8 -->
<g id="node8" class="node"><title>Node8</title>
<g id="a_node8"><a xlink:title=" ">
<polygon fill="white" stroke="#bfbfbf" points="6,-77.9322 6,-96.9322 47,-96.9322 47,-77.9322 6,-77.9322"/>
<text text-anchor="middle" x="26.5" y="-84.9322" font-family="Helvetica,sans-Serif" font-size="10.00">static</text>
</a>
</g>
</g>
<!-- Node8&#45;&gt;Node6 -->
<g id="edge8" class="edge"><title>Node8&#45;&gt;Node6</title>
<path fill="none" stroke="#9a32cd" stroke-dasharray="5,2" d="M50.1376,-102.049C56.6205,-105.487 63.8694,-108.663 71,-110.432 182.026,-137.977 214.644,-111.793 328,-96.4322 344.159,-94.2425 361.533,-91.42 377.71,-88.5895"/>
<polygon fill="#9a32cd" stroke="#9a32cd" points="51.7033,-98.9117 41.2903,-96.9574 48.2118,-104.979 51.7033,-98.9117"/>
<text text-anchor="middle" x="263.5" y="-122.432" font-family="Helvetica,sans-Serif" font-size="10.00"> RuntimePlatforms</text>
</g>
<!-- Node8&#45;&gt;Node7 -->
<g id="edge7" class="edge"><title>Node8&#45;&gt;Node7</title>
<path fill="none" stroke="#9a32cd" stroke-dasharray="5,2" d="M57.2863,-85.5309C92.6975,-83.2706 152.786,-79.4352 198.817,-76.497"/>
<polygon fill="#9a32cd" stroke="#9a32cd" points="56.8885,-82.0491 47.1318,-86.1791 57.3344,-89.0349 56.8885,-82.0491"/>
<text text-anchor="middle" x="126" y="-99.4322" font-family="Helvetica,sans-Serif" font-size="10.00"> DefaultVersion</text>
<text text-anchor="middle" x="126" y="-88.4322" font-family="Helvetica,sans-Serif" font-size="10.00">currentFramework</text>
</g>
<!-- Node9 -->
<g id="node9" class="node"><title>Node9</title>
<g id="a_node9"><a xlink:href="../../d8/df4/classNUnit_1_1Framework_1_1Internal_1_1OSPlatform.html" target="_top" xlink:title="OSPlatform represents a particular operating system platform">
<polygon fill="white" stroke="black" points="199,-1.43219 199,-31.4322 328,-31.4322 328,-1.43219 199,-1.43219"/>
<text text-anchor="start" x="207" y="-19.4322" font-family="Helvetica,sans-Serif" font-size="10.00">NUnit.Framework.Internal.</text>
<text text-anchor="middle" x="263.5" y="-8.43219" font-family="Helvetica,sans-Serif" font-size="10.00">OSPlatform</text>
</a>
</g>
</g>
<!-- Node8&#45;&gt;Node9 -->
<g id="edge10" class="edge"><title>Node8&#45;&gt;Node9</title>
<path fill="none" stroke="#9a32cd" stroke-dasharray="5,2" d="M33.9183,-68.2037C40.458,-52.0019 52.3243,-29.8462 71,-19.4322 109.479,2.02462 159.427,2.07394 198.663,-2.87214"/>
<polygon fill="#9a32cd" stroke="#9a32cd" points="30.5527,-67.2142 30.3719,-77.8075 37.1193,-69.6391 30.5527,-67.2142"/>
<text text-anchor="middle" x="126" y="-66.4322" font-family="Helvetica,sans-Serif" font-size="10.00"> MacOSXPlatformID</text>
<text text-anchor="middle" x="126" y="-55.4322" font-family="Helvetica,sans-Serif" font-size="10.00">UnixPlatformID_Mono</text>
<text text-anchor="middle" x="126" y="-44.4322" font-family="Helvetica,sans-Serif" font-size="10.00">XBoxPlatformID</text>
<text text-anchor="middle" x="126" y="-33.4322" font-family="Helvetica,sans-Serif" font-size="10.00">UnixPlatformID_Microsoft</text>
<text text-anchor="middle" x="126" y="-22.4322" font-family="Helvetica,sans-Serif" font-size="10.00">currentPlatform</text>
</g>
<!-- Node9&#45;&gt;Node6 -->
<g id="edge9" class="edge"><title>Node9&#45;&gt;Node6</title>
<path fill="none" stroke="#9a32cd" stroke-dasharray="5,2" d="M318.909,-34.8759C344.01,-43.3847 373.43,-53.3575 397.157,-61.4005"/>
<polygon fill="#9a32cd" stroke="#9a32cd" points="319.759,-31.4684 309.165,-31.5727 317.512,-38.0979 319.759,-31.4684"/>
<text text-anchor="middle" x="353" y="-51.4322" font-family="Helvetica,sans-Serif" font-size="10.00"> os</text>
</g>
</g>
</svg>
        <g id="navigator" transform="translate(0 0)" fill="#404254">
                <rect fill="#f2f5e9" fill-opacity="0.5" stroke="#606060" stroke-width=".5" x="0" y="0" width="60" height="60"/>
                <use id="zoomplus" xlink:href="#zoomPlus" x="17" y="9" onmousedown="handleZoom(evt,'in')"/>
                <use id="zoomminus" xlink:href="#zoomMin" x="42" y="9" onmousedown="handleZoom(evt,'out')"/>
                <use id="reset" xlink:href="#resetDef" x="30" y="36" onmousedown="handleReset()"/>
                <g id="arrowUp" xlink:href="#dirArrow" transform="translate(30 24)" onmousedown="handlePan(0,-1)">
                  <use xlink:href="#rim" fill="#404040">
                        <set attributeName="fill" to="#808080" begin="arrowUp.mouseover" end="arrowUp.mouseout"/>
                  </use>
                  <path fill="none" stroke="white" stroke-width="1.5" d="M0,-3.0v7 M-2.5,-0.5L0,-3.0L2.5,-0.5"/>
                </g>
                <g id="arrowRight" xlink:href="#dirArrow" transform="rotate(90) translate(36 -43)" onmousedown="handlePan(1,0)">
                  <use xlink:href="#rim" fill="#404040">
                        <set attributeName="fill" to="#808080" begin="arrowRight.mouseover" end="arrowRight.mouseout"/>
                  </use>
                  <path fill="none" stroke="white" stroke-width="1.5" d="M0,-3.0v7 M-2.5,-0.5L0,-3.0L2.5,-0.5"/>
                </g>
                <g id="arrowDown" xlink:href="#dirArrow" transform="rotate(180) translate(-30 -48)" onmousedown="handlePan(0,1)">
                  <use xlink:href="#rim" fill="#404040">
                        <set attributeName="fill" to="#808080" begin="arrowDown.mouseover" end="arrowDown.mouseout"/>
                  </use>
                  <path fill="none" stroke="white" stroke-width="1.5" d="M0,-3.0v7 M-2.5,-0.5L0,-3.0L2.5,-0.5"/>
                </g>
                <g id="arrowLeft" xlink:href="#dirArrow" transform="rotate(270) translate(-36 17)" onmousedown="handlePan(-1,0)">
                  <use xlink:href="#rim" fill="#404040">
                        <set attributeName="fill" to="#808080" begin="arrowLeft.mouseover" end="arrowLeft.mouseout"/>
                  </use>
                  <path fill="none" stroke="white" stroke-width="1.5" d="M0,-3.0v7 M-2.5,-0.5L0,-3.0L2.5,-0.5"/>
                </g>
        </g>
        <svg viewBox="0 0 15 15" width="100%" height="30px" preserveAspectRatio="xMaxYMin meet">
         <g id="arrow_out" transform="scale(0.3 0.3)">
          <a xlink:href="classNUnit_1_1Framework_1_1PlatformAttribute__coll__graph_org.svg" target="_base">
           <rect id="button" ry="5" rx="5" y="6" x="6" height="38" width="38"
                fill="#f2f5e9" fill-opacity="0.5" stroke="#606060" stroke-width="1.0"/>
           <path id="arrow"
             d="M 11.500037,31.436501 C 11.940474,20.09759 22.043105,11.32322 32.158766,21.979434 L 37.068811,17.246167 C 37.068811,17.246167 37.088388,32 37.088388,32 L 22.160133,31.978069 C 22.160133,31.978069 26.997745,27.140456 26.997745,27.140456 C 18.528582,18.264221 13.291696,25.230495 11.500037,31.436501 z"
             style="fill:#404040;"/>
          </a>
         </g>
        </svg>
</svg>
