<?xml version="1.0" encoding="UTF-8" standalone="no"?>
<!DOCTYPE svg PUBLIC "-//W3C//DTD SVG 1.1//EN"
 "http://www.w3.org/Graphics/SVG/1.1/DTD/svg11.dtd">
<!-- Generated by graphviz version 2.38.0 (20140413.2041)
 -->
<!-- Title: IG.Neural.Applications.AnnApp Pages: 1 -->
<svg width="159pt" height="196pt"
 viewBox="0.00 0.00 159.00 196.00" xmlns="http://www.w3.org/2000/svg" xmlns:xlink="http://www.w3.org/1999/xlink">
<g id="graph0" class="graph" transform="scale(1 1) rotate(0) translate(4 192)">
<title>IG.Neural.Applications.AnnApp</title>
<polygon fill="white" stroke="none" points="-4,4 -4,-192 155,-192 155,4 -4,4"/>
<!-- Node1 -->
<g id="node1" class="node"><title>Node1</title>
<g id="a_node1"><a xlink:title="Application class for the current application.">
<polygon fill="#bfbfbf" stroke="black" points="0,-0.5 0,-19.5 151,-19.5 151,-0.5 0,-0.5"/>
<text text-anchor="middle" x="75.5" y="-7.5" font-family="Helvetica,sans-Serif" font-size="10.00">IG.Neural.Applications.AnnApp</text>
</a>
</g>
</g>
<!-- Node2 -->
<g id="node2" class="node"><title>Node2</title>
<g id="a_node2"><a xlink:href="../../d1/d77/classIG_1_1Lib_1_1ApplicationBase.html" target="_top" xlink:title="Base class for all application classes. Provides some basic functionality such as keeping information...">
<polygon fill="white" stroke="black" points="14.5,-56.5 14.5,-75.5 136.5,-75.5 136.5,-56.5 14.5,-56.5"/>
<text text-anchor="middle" x="75.5" y="-63.5" font-family="Helvetica,sans-Serif" font-size="10.00">IG::Lib::ApplicationBase</text>
</a>
</g>
</g>
<!-- Node2&#45;&gt;Node1 -->
<g id="edge1" class="edge"><title>Node2&#45;&gt;Node1</title>
<path fill="none" stroke="midnightblue" d="M75.5,-45.8045C75.5,-36.9102 75.5,-26.7798 75.5,-19.7511"/>
<polygon fill="midnightblue" stroke="midnightblue" points="72.0001,-46.083 75.5,-56.083 79.0001,-46.083 72.0001,-46.083"/>
</g>
<!-- Node3 -->
<g id="node3" class="node"><title>Node3</title>
<g id="a_node3"><a xlink:href="../../db/dc7/classIG_1_1Lib_1_1Module.html" target="_top" xlink:title="General module (or library) management class, a base class for specific module classes....">
<polygon fill="white" stroke="black" points="77.5,-112.5 77.5,-131.5 125.5,-131.5 125.5,-112.5 77.5,-112.5"/>
<text text-anchor="middle" x="101.5" y="-119.5" font-family="Helvetica,sans-Serif" font-size="10.00">Module</text>
</a>
</g>
</g>
<!-- Node3&#45;&gt;Node2 -->
<g id="edge2" class="edge"><title>Node3&#45;&gt;Node2</title>
<path fill="none" stroke="midnightblue" d="M92.825,-102.983C88.4118,-93.8168 83.2481,-83.0922 79.7135,-75.7511"/>
<polygon fill="midnightblue" stroke="midnightblue" points="89.7149,-104.591 97.2066,-112.083 96.0219,-101.555 89.7149,-104.591"/>
</g>
<!-- Node4 -->
<g id="node4" class="node"><title>Node4</title>
<g id="a_node4"><a xlink:href="../../d3/db6/interfaceIG_1_1Lib_1_1ILockable.html" target="_top" xlink:title="Lockable object, has a Lock property that returns object on which lock must be performed in order to ...">
<polygon fill="white" stroke="black" points="46.5,-168.5 46.5,-187.5 104.5,-187.5 104.5,-168.5 46.5,-168.5"/>
<text text-anchor="middle" x="75.5" y="-175.5" font-family="Helvetica,sans-Serif" font-size="10.00">ILockable</text>
</a>
</g>
</g>
<!-- Node4&#45;&gt;Node2 -->
<g id="edge4" class="edge"><title>Node4&#45;&gt;Node2</title>
<path fill="none" stroke="midnightblue" d="M71.9719,-158.547C70.5919,-150.437 69.1788,-140.78 68.5,-132 66.9427,-111.857 70.9352,-88.3006 73.5128,-75.8158"/>
<polygon fill="midnightblue" stroke="midnightblue" points="68.5337,-159.204 73.7611,-168.419 75.4215,-157.955 68.5337,-159.204"/>
</g>
<!-- Node4&#45;&gt;Node3 -->
<g id="edge3" class="edge"><title>Node4&#45;&gt;Node3</title>
<path fill="none" stroke="midnightblue" d="M84.175,-158.983C88.5882,-149.817 93.7519,-139.092 97.2865,-131.751"/>
<polygon fill="midnightblue" stroke="midnightblue" points="80.9781,-157.555 79.7934,-168.083 87.2851,-160.591 80.9781,-157.555"/>
</g>
</g>
</svg>
