<?xml version="1.0" encoding="UTF-8" standalone="no"?>
<!DOCTYPE svg PUBLIC "-//W3C//DTD SVG 1.1//EN"
 "http://www.w3.org/Graphics/SVG/1.1/DTD/svg11.dtd">
<!-- Generated by graphviz version 2.38.0 (20140413.2041)
 -->
<!-- Title: IG.Neural.MappingApproximationFileServerNeural Pages: 1 -->
<!--zoomable 154 -->
<svg id="main" version="1.1" xmlns="http://www.w3.org/2000/svg" xmlns:xlink="http://www.w3.org/1999/xlink" xml:space="preserve" onload="init(evt)">
<style type="text/css"><![CDATA[
.edge:hover path { stroke: red; }
.edge:hover polygon { stroke: red; fill: red; }
]]></style>
<script type="text/javascript"><![CDATA[
var edges = document.getElementsByTagName('g');
if (edges && edges.length) {
  for (var i=0;i<edges.length;i++) {
    if (edges[i].id.substr(0,4)=='edge') {
      edges[i].setAttribute('class','edge');
    }
  }
}
]]></script>
        <defs>
                <circle id="rim" cx="0" cy="0" r="7"/>
                <circle id="rim2" cx="0" cy="0" r="3.5"/>
                <g id="zoomPlus">
                        <use xlink:href="#rim" fill="#404040">
                                <set attributeName="fill" to="#808080" begin="zoomplus.mouseover" end="zoomplus.mouseout"/>
                        </use>
                        <path d="M-4,0h8M0,-4v8" fill="none" stroke="white" stroke-width="1.5" pointer-events="none"/>
                </g>
                <g id="zoomMin">
                        <use xlink:href="#rim" fill="#404040">
                                <set attributeName="fill" to="#808080" begin="zoomminus.mouseover" end="zoomminus.mouseout"/>
                        </use>
                        <path d="M-4,0h8" fill="none" stroke="white" stroke-width="1.5" pointer-events="none"/>
                </g>
                <g id="dirArrow">
                        <path fill="none" stroke="white" stroke-width="1.5" d="M0,-3.0v7 M-2.5,-0.5L0,-3.0L2.5,-0.5"/>
                </g>
               <g id="resetDef">
                       <use xlink:href="#rim2" fill="#404040">
                               <set attributeName="fill" to="#808080" begin="reset.mouseover" end="reset.mouseout"/>
                       </use>
               </g>
        </defs>

<script type="text/javascript">
var viewWidth = 838;
var viewHeight = 154;
var sectionId = 'dynsection-1';
</script>
<script xlink:href="../../svgpan.js"/>
<svg id="graph" class="graph">
<g id="viewport">
<title>IG.Neural.MappingApproximationFileServerNeural</title>
<polygon fill="white" stroke="none" points="-4,4 -4,-149.5 834,-149.5 834,4 -4,4"/>
<!-- Node1 -->
<g id="node1" class="node"><title>Node1</title>
<g id="a_node1"><a xlink:title="Class for mapping file server.">
<polygon fill="#bfbfbf" stroke="black" points="671,-73 671,-103 830,-103 830,-73 671,-73"/>
<text text-anchor="start" x="679" y="-91" font-family="Helvetica,sans-Serif" font-size="10.00">IG.Neural.MappingApproximation</text>
<text text-anchor="middle" x="750.5" y="-80" font-family="Helvetica,sans-Serif" font-size="10.00">FileServerNeural</text>
</a>
</g>
</g>
<!-- Node2 -->
<g id="node2" class="node"><title>Node2</title>
<g id="a_node2"><a xlink:href="../../d2/dba/classIG_1_1Neural_1_1ApproximationFileServerNeural.html" target="_top" xlink:title="Class for approximation file server.">
<polygon fill="white" stroke="black" points="382,-103.5 382,-122.5 531,-122.5 531,-103.5 382,-103.5"/>
<text text-anchor="middle" x="456.5" y="-110.5" font-family="Helvetica,sans-Serif" font-size="10.00">ApproximationFileServerNeural</text>
</a>
</g>
</g>
<!-- Node2&#45;&gt;Node1 -->
<g id="edge1" class="edge"><title>Node2&#45;&gt;Node1</title>
<path fill="none" stroke="midnightblue" d="M541.374,-105.819C582.169,-102.326 630.919,-98.1525 670.979,-94.7227"/>
<polygon fill="midnightblue" stroke="midnightblue" points="540.849,-102.351 531.184,-106.691 541.446,-109.326 540.849,-102.351"/>
</g>
<!-- Node3 -->
<g id="node3" class="node"><title>Node3</title>
<g id="a_node3"><a xlink:href="../../d5/de7/classIG_1_1Neural_1_1NeuraApproximationFileManager.html" target="_top" xlink:title="File manager for neural network approximation file client and server.">
<polygon fill="white" stroke="black" points="100,-115 100,-145 248,-145 248,-115 100,-115"/>
<text text-anchor="start" x="108" y="-133" font-family="Helvetica,sans-Serif" font-size="10.00">IG.Neural.NeuraApproximation</text>
<text text-anchor="middle" x="174" y="-122" font-family="Helvetica,sans-Serif" font-size="10.00">FileManager</text>
</a>
</g>
</g>
<!-- Node3&#45;&gt;Node2 -->
<g id="edge2" class="edge"><title>Node3&#45;&gt;Node2</title>
<path fill="none" stroke="#9a32cd" stroke-dasharray="5,2" d="M258.629,-124.932C297.711,-122.563 343.842,-119.767 381.622,-117.477"/>
<polygon fill="#9a32cd" stroke="#9a32cd" points="258.102,-121.457 248.332,-125.556 258.525,-128.444 258.102,-121.457"/>
<text text-anchor="middle" x="315" y="-127" font-family="Helvetica,sans-Serif" font-size="10.00"> _neuralFileManager</text>
</g>
<!-- Node4 -->
<g id="node4" class="node"><title>Node4</title>
<g id="a_node4"><a xlink:href="../../d3/db6/interfaceIG_1_1Lib_1_1ILockable.html" target="_top" xlink:title="Lockable object, has a Lock property that returns object on which lock must be performed in order to ...">
<polygon fill="white" stroke="black" points="0,-100.5 0,-119.5 58,-119.5 58,-100.5 0,-100.5"/>
<text text-anchor="middle" x="29" y="-107.5" font-family="Helvetica,sans-Serif" font-size="10.00">ILockable</text>
</a>
</g>
</g>
<!-- Node4&#45;&gt;Node3 -->
<g id="edge3" class="edge"><title>Node4&#45;&gt;Node3</title>
<path fill="none" stroke="midnightblue" d="M68.3598,-115.365C78.0993,-116.727 88.8923,-118.237 99.7393,-119.754"/>
<polygon fill="midnightblue" stroke="midnightblue" points="68.6406,-111.87 58.2522,-113.951 67.671,-118.803 68.6406,-111.87"/>
</g>
<!-- Node6 -->
<g id="node6" class="node"><title>Node6</title>
<g id="a_node6"><a xlink:href="../../d5/de7/classIG_1_1Neural_1_1NeuraApproximationFileManager.html" target="_top" xlink:title="File manager for neural network approximation file client and server.">
<polygon fill="white" stroke="black" points="95,-76.5 95,-95.5 253,-95.5 253,-76.5 95,-76.5"/>
<text text-anchor="middle" x="174" y="-83.5" font-family="Helvetica,sans-Serif" font-size="10.00">NeuraApproximationFileManager</text>
</a>
</g>
</g>
<!-- Node4&#45;&gt;Node6 -->
<g id="edge6" class="edge"><title>Node4&#45;&gt;Node6</title>
<path fill="none" stroke="midnightblue" d="M68.4502,-103.547C83.0979,-101.088 100.118,-98.2319 116.118,-95.5466"/>
<polygon fill="midnightblue" stroke="midnightblue" points="67.5349,-100.151 58.2522,-105.258 68.6936,-107.055 67.5349,-100.151"/>
</g>
<!-- Node5 -->
<g id="node5" class="node"><title>Node5</title>
<g id="a_node5"><a xlink:href="../../de/d55/classIG_1_1Neural_1_1MappingApproximationFileManager.html" target="_top" xlink:title="File manager for mapping file client and server.">
<polygon fill="white" stroke="black" points="377,-40 377,-70 536,-70 536,-40 377,-40"/>
<text text-anchor="start" x="385" y="-58" font-family="Helvetica,sans-Serif" font-size="10.00">IG.Neural.MappingApproximation</text>
<text text-anchor="middle" x="456.5" y="-47" font-family="Helvetica,sans-Serif" font-size="10.00">FileManager</text>
</a>
</g>
</g>
<!-- Node5&#45;&gt;Node1 -->
<g id="edge4" class="edge"><title>Node5&#45;&gt;Node1</title>
<path fill="none" stroke="#9a32cd" stroke-dasharray="5,2" d="M546.097,-65.0127C585.891,-69.51 632.453,-74.7721 670.978,-79.126"/>
<polygon fill="#9a32cd" stroke="#9a32cd" points="546.465,-61.532 536.135,-63.8868 545.678,-68.4877 546.465,-61.532"/>
<text text-anchor="middle" x="603.5" y="-80" font-family="Helvetica,sans-Serif" font-size="10.00"> _mappingFileManager</text>
</g>
<!-- Node6&#45;&gt;Node5 -->
<g id="edge5" class="edge"><title>Node6&#45;&gt;Node5</title>
<path fill="none" stroke="midnightblue" d="M263.471,-76.4783C293.768,-73.1925 327.869,-69.4661 359,-66 364.782,-65.3563 370.758,-64.6862 376.77,-64.0087"/>
<polygon fill="midnightblue" stroke="midnightblue" points="262.917,-73.0178 253.352,-77.5748 263.671,-79.9771 262.917,-73.0178"/>
</g>
<!-- Node7 -->
<g id="node7" class="node"><title>Node7</title>
<g id="a_node7"><a xlink:href="../../d0/d0b/interfaceIG_1_1Neural_1_1IDataMapper.html" target="_top" xlink:title=" ">
<polygon fill="white" stroke="black" points="116.5,-38.5 116.5,-57.5 231.5,-57.5 231.5,-38.5 116.5,-38.5"/>
<text text-anchor="middle" x="174" y="-45.5" font-family="Helvetica,sans-Serif" font-size="10.00">IG.Neural.IDataMapper</text>
</a>
</g>
</g>
<!-- Node7&#45;&gt;Node5 -->
<g id="edge7" class="edge"><title>Node7&#45;&gt;Node5</title>
<path fill="none" stroke="#9a32cd" stroke-dasharray="5,2" d="M241.808,-49.6672C282.333,-50.6785 334.253,-51.9742 376.768,-53.0352"/>
<polygon fill="#9a32cd" stroke="#9a32cd" points="241.848,-46.1672 231.763,-49.4166 241.673,-53.165 241.848,-46.1672"/>
<text text-anchor="middle" x="315" y="-56" font-family="Helvetica,sans-Serif" font-size="10.00"> _mapperDefinition</text>
</g>
<!-- Node8 -->
<g id="node8" class="node"><title>Node8</title>
<g id="a_node8"><a xlink:title=" ">
<polygon fill="white" stroke="#bfbfbf" points="153.5,-0.5 153.5,-19.5 194.5,-19.5 194.5,-0.5 153.5,-0.5"/>
<text text-anchor="middle" x="174" y="-7.5" font-family="Helvetica,sans-Serif" font-size="10.00">static</text>
</a>
</g>
</g>
<!-- Node8&#45;&gt;Node5 -->
<g id="edge8" class="edge"><title>Node8&#45;&gt;Node5</title>
<path fill="none" stroke="#9a32cd" stroke-dasharray="5,2" d="M204.615,-13.6839C241.038,-18.33 304.713,-26.8271 359,-36 366.24,-37.2233 373.77,-38.5717 381.289,-39.9687"/>
<polygon fill="#9a32cd" stroke="#9a32cd" points="205.021,-10.2075 194.66,-12.4237 204.142,-17.152 205.021,-10.2075"/>
<text text-anchor="middle" x="315" y="-39" font-family="Helvetica,sans-Serif" font-size="10.00"> _aux</text>
</g>
</g>
</svg>
        <g id="navigator" transform="translate(0 0)" fill="#404254">
                <rect fill="#f2f5e9" fill-opacity="0.5" stroke="#606060" stroke-width=".5" x="0" y="0" width="60" height="60"/>
                <use id="zoomplus" xlink:href="#zoomPlus" x="17" y="9" onmousedown="handleZoom(evt,'in')"/>
                <use id="zoomminus" xlink:href="#zoomMin" x="42" y="9" onmousedown="handleZoom(evt,'out')"/>
                <use id="reset" xlink:href="#resetDef" x="30" y="36" onmousedown="handleReset()"/>
                <g id="arrowUp" xlink:href="#dirArrow" transform="translate(30 24)" onmousedown="handlePan(0,-1)">
                  <use xlink:href="#rim" fill="#404040">
                        <set attributeName="fill" to="#808080" begin="arrowUp.mouseover" end="arrowUp.mouseout"/>
                  </use>
                  <path fill="none" stroke="white" stroke-width="1.5" d="M0,-3.0v7 M-2.5,-0.5L0,-3.0L2.5,-0.5"/>
                </g>
                <g id="arrowRight" xlink:href="#dirArrow" transform="rotate(90) translate(36 -43)" onmousedown="handlePan(1,0)">
                  <use xlink:href="#rim" fill="#404040">
                        <set attributeName="fill" to="#808080" begin="arrowRight.mouseover" end="arrowRight.mouseout"/>
                  </use>
                  <path fill="none" stroke="white" stroke-width="1.5" d="M0,-3.0v7 M-2.5,-0.5L0,-3.0L2.5,-0.5"/>
                </g>
                <g id="arrowDown" xlink:href="#dirArrow" transform="rotate(180) translate(-30 -48)" onmousedown="handlePan(0,1)">
                  <use xlink:href="#rim" fill="#404040">
                        <set attributeName="fill" to="#808080" begin="arrowDown.mouseover" end="arrowDown.mouseout"/>
                  </use>
                  <path fill="none" stroke="white" stroke-width="1.5" d="M0,-3.0v7 M-2.5,-0.5L0,-3.0L2.5,-0.5"/>
                </g>
                <g id="arrowLeft" xlink:href="#dirArrow" transform="rotate(270) translate(-36 17)" onmousedown="handlePan(-1,0)">
                  <use xlink:href="#rim" fill="#404040">
                        <set attributeName="fill" to="#808080" begin="arrowLeft.mouseover" end="arrowLeft.mouseout"/>
                  </use>
                  <path fill="none" stroke="white" stroke-width="1.5" d="M0,-3.0v7 M-2.5,-0.5L0,-3.0L2.5,-0.5"/>
                </g>
        </g>
        <svg viewBox="0 0 15 15" width="100%" height="30px" preserveAspectRatio="xMaxYMin meet">
         <g id="arrow_out" transform="scale(0.3 0.3)">
          <a xlink:href="classIG_1_1Neural_1_1MappingApproximationFileServerNeural__coll__graph_org.svg" target="_base">
           <rect id="button" ry="5" rx="5" y="6" x="6" height="38" width="38"
                fill="#f2f5e9" fill-opacity="0.5" stroke="#606060" stroke-width="1.0"/>
           <path id="arrow"
             d="M 11.500037,31.436501 C 11.940474,20.09759 22.043105,11.32322 32.158766,21.979434 L 37.068811,17.246167 C 37.068811,17.246167 37.088388,32 37.088388,32 L 22.160133,31.978069 C 22.160133,31.978069 26.997745,27.140456 26.997745,27.140456 C 18.528582,18.264221 13.291696,25.230495 11.500037,31.436501 z"
             style="fill:#404040;"/>
          </a>
         </g>
        </svg>
</svg>
