<?xml version="1.0" encoding="UTF-8" standalone="no"?>
<!DOCTYPE svg PUBLIC "-//W3C//DTD SVG 1.1//EN"
 "http://www.w3.org/Graphics/SVG/1.1/DTD/svg11.dtd">
<!-- Generated by graphviz version 2.38.0 (20140413.2041)
 -->
<!-- Title: NUnit.Framework.Constraints.DelayedConstraintTests Pages: 1 -->
<svg width="274pt" height="465pt"
 viewBox="0.00 0.00 273.50 465.00" xmlns="http://www.w3.org/2000/svg" xmlns:xlink="http://www.w3.org/1999/xlink">
<g id="graph0" class="graph" transform="scale(1 1) rotate(0) translate(4 461)">
<title>NUnit.Framework.Constraints.DelayedConstraintTests</title>
<polygon fill="white" stroke="none" points="-4,4 -4,-461 269.5,-461 269.5,4 -4,4"/>
<!-- Node1 -->
<g id="node1" class="node"><title>Node1</title>
<g id="a_node1"><a xlink:title=" ">
<polygon fill="#bfbfbf" stroke="black" points="67,-0.5 67,-30.5 214,-30.5 214,-0.5 67,-0.5"/>
<text text-anchor="start" x="75" y="-18.5" font-family="Helvetica,sans-Serif" font-size="10.00">NUnit.Framework.Constraints.</text>
<text text-anchor="middle" x="140.5" y="-7.5" font-family="Helvetica,sans-Serif" font-size="10.00">DelayedConstraintTests</text>
</a>
</g>
</g>
<!-- Node2 -->
<g id="node2" class="node"><title>Node2</title>
<g id="a_node2"><a xlink:href="../../d5/d7a/classNUnit_1_1Framework_1_1Constraints_1_1ConstraintTestBase.html" target="_top" xlink:title=" ">
<polygon fill="white" stroke="black" points="22.5,-188.5 22.5,-207.5 124.5,-207.5 124.5,-188.5 22.5,-188.5"/>
<text text-anchor="middle" x="73.5" y="-195.5" font-family="Helvetica,sans-Serif" font-size="10.00">ConstraintTestBase</text>
</a>
</g>
</g>
<!-- Node2&#45;&gt;Node1 -->
<g id="edge1" class="edge"><title>Node2&#45;&gt;Node1</title>
<path fill="none" stroke="midnightblue" d="M80.3446,-178.561C93.7722,-142.386 123.301,-62.8333 135.289,-30.5391"/>
<polygon fill="midnightblue" stroke="midnightblue" points="76.9303,-177.701 76.7315,-188.294 83.4928,-180.137 76.9303,-177.701"/>
</g>
<!-- Node3 -->
<g id="node3" class="node"><title>Node3</title>
<g id="a_node3"><a xlink:href="../../dc/d5c/classNUnit_1_1Framework_1_1Constraints_1_1ConstraintTestBaseNoData.html" target="_top" xlink:title=" ">
<polygon fill="white" stroke="black" points="6.5,-245.5 6.5,-264.5 140.5,-264.5 140.5,-245.5 6.5,-245.5"/>
<text text-anchor="middle" x="73.5" y="-252.5" font-family="Helvetica,sans-Serif" font-size="10.00">ConstraintTestBaseNoData</text>
</a>
</g>
</g>
<!-- Node3&#45;&gt;Node2 -->
<g id="edge2" class="edge"><title>Node3&#45;&gt;Node2</title>
<path fill="none" stroke="midnightblue" d="M73.5,-235.117C73.5,-225.817 73.5,-215.056 73.5,-207.715"/>
<polygon fill="midnightblue" stroke="midnightblue" points="70.0001,-235.406 73.5,-245.406 77.0001,-235.406 70.0001,-235.406"/>
</g>
<!-- Node4 -->
<g id="node4" class="node"><title>Node4</title>
<g id="a_node4"><a xlink:href="../../d9/da9/classNUnit_1_1Framework_1_1Constraints_1_1Constraint.html" target="_top" xlink:title="The Constraint class is the base of all built&#45;in constraints within NUnit. It provides the operator o...">
<polygon fill="white" stroke="black" points="0,-312.5 0,-342.5 147,-342.5 147,-312.5 0,-312.5"/>
<text text-anchor="start" x="8" y="-330.5" font-family="Helvetica,sans-Serif" font-size="10.00">NUnit.Framework.Constraints.</text>
<text text-anchor="middle" x="73.5" y="-319.5" font-family="Helvetica,sans-Serif" font-size="10.00">Constraint</text>
</a>
</g>
</g>
<!-- Node4&#45;&gt;Node3 -->
<g id="edge3" class="edge"><title>Node4&#45;&gt;Node3</title>
<path fill="none" stroke="#9a32cd" stroke-dasharray="5,2" d="M73.5,-302.091C73.5,-289.214 73.5,-274.197 73.5,-264.893"/>
<polygon fill="#9a32cd" stroke="#9a32cd" points="70.0001,-302.233 73.5,-312.233 77.0001,-302.233 70.0001,-302.233"/>
<text text-anchor="middle" x="104" y="-286" font-family="Helvetica,sans-Serif" font-size="10.00"> theConstraint</text>
</g>
<!-- Node5 -->
<g id="node5" class="node"><title>Node5</title>
<g id="a_node5"><a xlink:href="../../d1/d94/interfaceNUnit_1_1Framework_1_1Constraints_1_1IConstraint.html" target="_top" xlink:title="Interface for all constraints">
<polygon fill="white" stroke="black" points="42,-380.5 42,-399.5 105,-399.5 105,-380.5 42,-380.5"/>
<text text-anchor="middle" x="73.5" y="-387.5" font-family="Helvetica,sans-Serif" font-size="10.00">IConstraint</text>
</a>
</g>
</g>
<!-- Node5&#45;&gt;Node4 -->
<g id="edge4" class="edge"><title>Node5&#45;&gt;Node4</title>
<path fill="none" stroke="midnightblue" d="M73.5,-370.215C73.5,-361.356 73.5,-350.958 73.5,-342.759"/>
<polygon fill="midnightblue" stroke="midnightblue" points="70.0001,-370.332 73.5,-380.332 77.0001,-370.332 70.0001,-370.332"/>
</g>
<!-- Node6 -->
<g id="node6" class="node"><title>Node6</title>
<g id="a_node6"><a xlink:href="../../d7/d29/interfaceNUnit_1_1Framework_1_1Constraints_1_1IResolveConstraint.html" target="_top" xlink:title="The IResolveConstraint interface is implemented by all complete and resolvable constraints and expres...">
<polygon fill="white" stroke="black" points="25,-437.5 25,-456.5 122,-456.5 122,-437.5 25,-437.5"/>
<text text-anchor="middle" x="73.5" y="-444.5" font-family="Helvetica,sans-Serif" font-size="10.00">IResolveConstraint</text>
</a>
</g>
</g>
<!-- Node6&#45;&gt;Node5 -->
<g id="edge5" class="edge"><title>Node6&#45;&gt;Node5</title>
<path fill="none" stroke="midnightblue" d="M73.5,-427.117C73.5,-417.817 73.5,-407.056 73.5,-399.715"/>
<polygon fill="midnightblue" stroke="midnightblue" points="70.0001,-427.406 73.5,-437.406 77.0001,-427.406 70.0001,-427.406"/>
</g>
<!-- Node7 -->
<g id="node7" class="node"><title>Node7</title>
<g id="a_node7"><a xlink:title=" ">
<polygon fill="white" stroke="#bfbfbf" points="143,-188.5 143,-207.5 184,-207.5 184,-188.5 143,-188.5"/>
<text text-anchor="middle" x="163.5" y="-195.5" font-family="Helvetica,sans-Serif" font-size="10.00">static</text>
</a>
</g>
</g>
<!-- Node7&#45;&gt;Node1 -->
<g id="edge6" class="edge"><title>Node7&#45;&gt;Node1</title>
<path fill="none" stroke="#9a32cd" stroke-dasharray="5,2" d="M161.09,-178.09C156.454,-141.701 146.386,-62.6941 142.289,-30.5391"/>
<polygon fill="#9a32cd" stroke="#9a32cd" points="157.655,-178.817 162.391,-188.294 164.598,-177.932 157.655,-178.817"/>
<text text-anchor="middle" x="213" y="-162" font-family="Helvetica,sans-Serif" font-size="10.00"> SuccessDelegates</text>
<text text-anchor="middle" x="213" y="-151" font-family="Helvetica,sans-Serif" font-size="10.00">DelegateReturningValue</text>
<text text-anchor="middle" x="213" y="-140" font-family="Helvetica,sans-Serif" font-size="10.00">boolValue</text>
<text text-anchor="middle" x="213" y="-129" font-family="Helvetica,sans-Serif" font-size="10.00">FailureData</text>
<text text-anchor="middle" x="213" y="-118" font-family="Helvetica,sans-Serif" font-size="10.00">statusString</text>
<text text-anchor="middle" x="213" y="-107" font-family="Helvetica,sans-Serif" font-size="10.00">DelegateReturningZero</text>
<text text-anchor="middle" x="213" y="-96" font-family="Helvetica,sans-Serif" font-size="10.00">waitEvent</text>
<text text-anchor="middle" x="213" y="-85" font-family="Helvetica,sans-Serif" font-size="10.00">SuccessData</text>
<text text-anchor="middle" x="213" y="-74" font-family="Helvetica,sans-Serif" font-size="10.00">setValuesDelay</text>
<text text-anchor="middle" x="213" y="-63" font-family="Helvetica,sans-Serif" font-size="10.00">FailureDelegates</text>
<text text-anchor="middle" x="213" y="-52" font-family="Helvetica,sans-Serif" font-size="10.00">...</text>
</g>
</g>
</svg>
