<?xml version="1.0" encoding="UTF-8" standalone="no"?>
<!DOCTYPE svg PUBLIC "-//W3C//DTD SVG 1.1//EN"
 "http://www.w3.org/Graphics/SVG/1.1/DTD/svg11.dtd">
<!-- Generated by graphviz version 2.38.0 (20140413.2041)
 -->
<!-- Title: CShellCore.CodeCompletion.DataItems.ImportCompletionData Pages: 1 -->
<svg width="301pt" height="218pt"
 viewBox="0.00 0.00 300.50 218.00" xmlns="http://www.w3.org/2000/svg" xmlns:xlink="http://www.w3.org/1999/xlink">
<g id="graph0" class="graph" transform="scale(1 1) rotate(0) translate(4 214)">
<title>CShellCore.CodeCompletion.DataItems.ImportCompletionData</title>
<polygon fill="white" stroke="none" points="-4,4 -4,-214 296.5,-214 296.5,4 -4,4"/>
<!-- Node1 -->
<g id="node1" class="node"><title>Node1</title>
<g id="a_node1"><a xlink:title="Completion item that introduces a using declaration.">
<polygon fill="#bfbfbf" stroke="black" points="97,-0.5 97,-30.5 257,-30.5 257,-0.5 97,-0.5"/>
<text text-anchor="start" x="105" y="-18.5" font-family="Helvetica,sans-Serif" font-size="10.00">CShellCore.CodeCompletion.</text>
<text text-anchor="middle" x="177" y="-7.5" font-family="Helvetica,sans-Serif" font-size="10.00">DataItems.ImportCompletionData</text>
</a>
</g>
</g>
<!-- Node2 -->
<g id="node2" class="node"><title>Node2</title>
<g id="a_node2"><a xlink:href="../../db/d44/classCShellCore_1_1CodeCompletion_1_1DataItems_1_1EntityCompletionData.html" target="_top" xlink:title=" ">
<polygon fill="white" stroke="black" points="121.5,-67.5 121.5,-86.5 232.5,-86.5 232.5,-67.5 121.5,-67.5"/>
<text text-anchor="middle" x="177" y="-74.5" font-family="Helvetica,sans-Serif" font-size="10.00">EntityCompletionData</text>
</a>
</g>
</g>
<!-- Node2&#45;&gt;Node1 -->
<g id="edge1" class="edge"><title>Node2&#45;&gt;Node1</title>
<path fill="none" stroke="midnightblue" d="M177,-57.2349C177,-48.5864 177,-38.4969 177,-30.523"/>
<polygon fill="midnightblue" stroke="midnightblue" points="173.5,-57.4751 177,-67.4751 180.5,-57.4751 173.5,-57.4751"/>
</g>
<!-- Node3 -->
<g id="node3" class="node"><title>Node3</title>
<g id="a_node3"><a xlink:href="../../db/df6/classCShellCore_1_1CodeCompletion_1_1DataItems_1_1CompletionData.html" target="_top" xlink:title=" ">
<polygon fill="white" stroke="black" points="75,-123.5 75,-142.5 161,-142.5 161,-123.5 75,-123.5"/>
<text text-anchor="middle" x="118" y="-130.5" font-family="Helvetica,sans-Serif" font-size="10.00">CompletionData</text>
</a>
</g>
</g>
<!-- Node3&#45;&gt;Node2 -->
<g id="edge2" class="edge"><title>Node3&#45;&gt;Node2</title>
<path fill="none" stroke="midnightblue" d="M134.895,-116.537C145.415,-106.909 158.569,-94.8694 167.348,-86.8339"/>
<polygon fill="midnightblue" stroke="midnightblue" points="132.493,-113.99 127.479,-123.324 137.219,-119.154 132.493,-113.99"/>
</g>
<!-- Node4 -->
<g id="node4" class="node"><title>Node4</title>
<g id="a_node4"><a xlink:title=" ">
<polygon fill="white" stroke="#bfbfbf" points="0,-185 0,-204 88,-204 88,-185 0,-185"/>
<text text-anchor="middle" x="44" y="-192" font-family="Helvetica,sans-Serif" font-size="10.00">ICompletionData</text>
</a>
</g>
</g>
<!-- Node4&#45;&gt;Node3 -->
<g id="edge3" class="edge"><title>Node4&#45;&gt;Node3</title>
<path fill="none" stroke="midnightblue" d="M62.6894,-178.473C76.8429,-167.093 95.7759,-151.869 107.417,-142.509"/>
<polygon fill="midnightblue" stroke="midnightblue" points="60.2025,-175.981 54.6024,-184.975 64.5889,-181.437 60.2025,-175.981"/>
</g>
<!-- Node5 -->
<g id="node5" class="node"><title>Node5</title>
<g id="a_node5"><a xlink:title=" ">
<polygon fill="white" stroke="#bfbfbf" points="106.5,-179.5 106.5,-209.5 277.5,-209.5 277.5,-179.5 106.5,-179.5"/>
<text text-anchor="start" x="114.5" y="-197.5" font-family="Helvetica,sans-Serif" font-size="10.00">ICSharpCode::AvalonEdit</text>
<text text-anchor="middle" x="192" y="-186.5" font-family="Helvetica,sans-Serif" font-size="10.00">::CodeCompletion::ICompletionData</text>
</a>
</g>
</g>
<!-- Node5&#45;&gt;Node3 -->
<g id="edge4" class="edge"><title>Node5&#45;&gt;Node3</title>
<path fill="none" stroke="midnightblue" d="M166.372,-172.893C153.499,-162.543 138.593,-150.558 128.768,-142.658"/>
<polygon fill="midnightblue" stroke="midnightblue" points="164.477,-175.861 174.463,-179.399 168.863,-170.405 164.477,-175.861"/>
</g>
<!-- Node6 -->
<g id="node6" class="node"><title>Node6</title>
<g id="a_node6"><a xlink:title=" ">
<polygon fill="white" stroke="#bfbfbf" points="179.5,-123.5 179.5,-142.5 292.5,-142.5 292.5,-123.5 179.5,-123.5"/>
<text text-anchor="middle" x="236" y="-130.5" font-family="Helvetica,sans-Serif" font-size="10.00">IEntityCompletionData</text>
</a>
</g>
</g>
<!-- Node6&#45;&gt;Node2 -->
<g id="edge5" class="edge"><title>Node6&#45;&gt;Node2</title>
<path fill="none" stroke="midnightblue" d="M219.105,-116.537C208.585,-106.909 195.431,-94.8694 186.652,-86.8339"/>
<polygon fill="midnightblue" stroke="midnightblue" points="216.781,-119.154 226.521,-123.324 221.507,-113.99 216.781,-119.154"/>
</g>
</g>
</svg>
