<?xml version="1.0" encoding="UTF-8" standalone="no"?>
<!DOCTYPE svg PUBLIC "-//W3C//DTD SVG 1.1//EN"
 "http://www.w3.org/Graphics/SVG/1.1/DTD/svg11.dtd">
<!-- Generated by graphviz version 2.38.0 (20140413.2041)
 -->
<!-- Title: NUnit.Framework.Internal.TextMessageWriter Pages: 1 -->
<svg width="238pt" height="196pt"
 viewBox="0.00 0.00 237.50 196.00" xmlns="http://www.w3.org/2000/svg" xmlns:xlink="http://www.w3.org/1999/xlink">
<g id="graph0" class="graph" transform="scale(1 1) rotate(0) translate(4 192)">
<title>NUnit.Framework.Internal.TextMessageWriter</title>
<polygon fill="white" stroke="none" points="-4,4 -4,-192 233.5,-192 233.5,4 -4,4"/>
<!-- Node1 -->
<g id="node1" class="node"><title>Node1</title>
<g id="a_node1"><a xlink:title="TextMessageWriter writes constraint descriptions and messages in displayable form as a text stream....">
<polygon fill="#bfbfbf" stroke="black" points="37,-0.5 37,-30.5 166,-30.5 166,-0.5 37,-0.5"/>
<text text-anchor="start" x="45" y="-18.5" font-family="Helvetica,sans-Serif" font-size="10.00">NUnit.Framework.Internal.</text>
<text text-anchor="middle" x="101.5" y="-7.5" font-family="Helvetica,sans-Serif" font-size="10.00">TextMessageWriter</text>
</a>
</g>
</g>
<!-- Node2 -->
<g id="node2" class="node"><title>Node2</title>
<g id="a_node2"><a xlink:href="../../dd/d63/classNUnit_1_1Framework_1_1Constraints_1_1MessageWriter.html" target="_top" xlink:title="MessageWriter is the abstract base for classes that write constraint descriptions and messages in som...">
<polygon fill="white" stroke="black" points="0,-111.5 0,-130.5 83,-130.5 83,-111.5 0,-111.5"/>
<text text-anchor="middle" x="41.5" y="-118.5" font-family="Helvetica,sans-Serif" font-size="10.00">MessageWriter</text>
</a>
</g>
</g>
<!-- Node2&#45;&gt;Node1 -->
<g id="edge1" class="edge"><title>Node2&#45;&gt;Node1</title>
<path fill="none" stroke="midnightblue" d="M51.7081,-102.391C63.4051,-82.2137 82.3502,-49.5334 93.1868,-30.8403"/>
<polygon fill="midnightblue" stroke="midnightblue" points="48.6029,-100.769 46.6156,-111.176 54.6589,-104.28 48.6029,-100.769"/>
</g>
<!-- Node3 -->
<g id="node3" class="node"><title>Node3</title>
<g id="a_node3"><a xlink:title=" ">
<polygon fill="white" stroke="#bfbfbf" points="7.5,-168.5 7.5,-187.5 75.5,-187.5 75.5,-168.5 7.5,-168.5"/>
<text text-anchor="middle" x="41.5" y="-175.5" font-family="Helvetica,sans-Serif" font-size="10.00">StringWriter</text>
</a>
</g>
</g>
<!-- Node3&#45;&gt;Node2 -->
<g id="edge2" class="edge"><title>Node3&#45;&gt;Node2</title>
<path fill="none" stroke="midnightblue" d="M41.5,-158.117C41.5,-148.817 41.5,-138.056 41.5,-130.715"/>
<polygon fill="midnightblue" stroke="midnightblue" points="38.0001,-158.406 41.5,-168.406 45.0001,-158.406 38.0001,-158.406"/>
</g>
<!-- Node4 -->
<g id="node4" class="node"><title>Node4</title>
<g id="a_node4"><a xlink:title=" ">
<polygon fill="white" stroke="#bfbfbf" points="101,-111.5 101,-130.5 142,-130.5 142,-111.5 101,-111.5"/>
<text text-anchor="middle" x="121.5" y="-118.5" font-family="Helvetica,sans-Serif" font-size="10.00">static</text>
</a>
</g>
</g>
<!-- Node4&#45;&gt;Node1 -->
<g id="edge3" class="edge"><title>Node4&#45;&gt;Node1</title>
<path fill="none" stroke="#9a32cd" stroke-dasharray="5,2" d="M117.882,-101.278C113.97,-81.03 107.818,-49.1935 104.271,-30.8403"/>
<polygon fill="#9a32cd" stroke="#9a32cd" points="114.461,-102.021 119.795,-111.176 121.334,-100.693 114.461,-102.021"/>
<text text-anchor="middle" x="172.5" y="-85" font-family="Helvetica,sans-Serif" font-size="10.00"> Pfx_Expected</text>
<text text-anchor="middle" x="172.5" y="-74" font-family="Helvetica,sans-Serif" font-size="10.00">DEFAULT_LINE_LENGTH</text>
<text text-anchor="middle" x="172.5" y="-63" font-family="Helvetica,sans-Serif" font-size="10.00">Pfx_Actual</text>
<text text-anchor="middle" x="172.5" y="-52" font-family="Helvetica,sans-Serif" font-size="10.00">PrefixLength</text>
</g>
</g>
</svg>
