<?xml version="1.0" encoding="UTF-8" standalone="no"?>
<!DOCTYPE svg PUBLIC "-//W3C//DTD SVG 1.1//EN"
 "http://www.w3.org/Graphics/SVG/1.1/DTD/svg11.dtd">
<!-- Generated by graphviz version 2.38.0 (20140413.2041)
 -->
<!-- Title: IG.Num.IVectorApproximator Pages: 1 -->
<svg width="725pt" height="186pt"
 viewBox="0.00 0.00 725.00 186.00" xmlns="http://www.w3.org/2000/svg" xmlns:xlink="http://www.w3.org/1999/xlink">
<g id="graph0" class="graph" transform="scale(1 1) rotate(0) translate(4 182)">
<title>IG.Num.IVectorApproximator</title>
<polygon fill="white" stroke="none" points="-4,4 -4,-182 721,-182 721,4 -4,4"/>
<!-- Node1 -->
<g id="node1" class="node"><title>Node1</title>
<g id="a_node1"><a xlink:title="Interface for vector function approximators.">
<polygon fill="#bfbfbf" stroke="black" points="0,-58 0,-77 141,-77 141,-58 0,-58"/>
<text text-anchor="middle" x="70.5" y="-65" font-family="Helvetica,sans-Serif" font-size="10.00">IG.Num.IVectorApproximator</text>
</a>
</g>
</g>
<!-- Node2 -->
<g id="node2" class="node"><title>Node2</title>
<g id="a_node2"><a xlink:href="../../d7/db4/interfaceIG_1_1Num_1_1INeuralApproximator.html" target="_top" xlink:title="Approximator of response by using neural networks. $A Igor Mar11;">
<polygon fill="white" stroke="black" points="187.5,-96 187.5,-115 327.5,-115 327.5,-96 187.5,-96"/>
<text text-anchor="middle" x="257.5" y="-103" font-family="Helvetica,sans-Serif" font-size="10.00">IG.Num.INeuralApproximator</text>
</a>
</g>
</g>
<!-- Node1&#45;&gt;Node2 -->
<g id="edge1" class="edge"><title>Node1&#45;&gt;Node2</title>
<path fill="none" stroke="midnightblue" d="M128.02,-79.1095C154.331,-84.514 185.243,-90.8635 210.152,-95.9799"/>
<polygon fill="midnightblue" stroke="midnightblue" points="128.683,-75.6727 118.183,-77.089 127.275,-82.5296 128.683,-75.6727"/>
</g>
<!-- Node6 -->
<g id="node6" class="node"><title>Node6</title>
<g id="a_node6"><a xlink:href="../../dc/db5/classIG_1_1Num_1_1NeuralApproximatorBase.html" target="_top" xlink:title="Base class for neural network approximators.">
<polygon fill="white" stroke="black" points="374,-39 374,-58 535,-58 535,-39 374,-39"/>
<text text-anchor="middle" x="454.5" y="-46" font-family="Helvetica,sans-Serif" font-size="10.00">IG.Num.NeuralApproximatorBase</text>
</a>
</g>
</g>
<!-- Node1&#45;&gt;Node6 -->
<g id="edge10" class="edge"><title>Node1&#45;&gt;Node6</title>
<path fill="none" stroke="midnightblue" d="M124.515,-56.0485C141.224,-52.9528 159.807,-50.0358 177,-48.5 243.102,-42.5952 318.447,-43.0681 373.775,-44.7523"/>
<polygon fill="midnightblue" stroke="midnightblue" points="123.546,-52.6704 114.382,-57.9884 124.862,-59.5456 123.546,-52.6704"/>
</g>
<!-- Node8 -->
<g id="node8" class="node"><title>Node8</title>
<g id="a_node8"><a xlink:href="../../db/d03/classIG_1_1Num_1_1VectorApproximatorBase.html" target="_top" xlink:title="Base class for vector function approximators.">
<polygon fill="white" stroke="black" points="177,-58 177,-77 338,-77 338,-58 177,-58"/>
<text text-anchor="middle" x="257.5" y="-65" font-family="Helvetica,sans-Serif" font-size="10.00">IG.Num.VectorApproximatorBase</text>
</a>
</g>
</g>
<!-- Node1&#45;&gt;Node8 -->
<g id="edge11" class="edge"><title>Node1&#45;&gt;Node8</title>
<path fill="none" stroke="midnightblue" d="M151.413,-67.5C159.879,-67.5 168.488,-67.5 176.95,-67.5"/>
<polygon fill="midnightblue" stroke="midnightblue" points="151.177,-64.0001 141.177,-67.5 151.177,-71.0001 151.177,-64.0001"/>
</g>
<!-- Node3 -->
<g id="node3" class="node"><title>Node3</title>
<g id="a_node3"><a xlink:href="../../da/d91/classIG_1_1Neural_1_1NeuralApproximatorAforge.html" target="_top" xlink:title="Approximator of response by using neural networks, based on the AforgeDotNet library....">
<polygon fill="white" stroke="black" points="571,-147.5 571,-177.5 717,-177.5 717,-147.5 571,-147.5"/>
<text text-anchor="start" x="579" y="-165.5" font-family="Helvetica,sans-Serif" font-size="10.00">IG.Neural.NeuralApproximator</text>
<text text-anchor="middle" x="644" y="-154.5" font-family="Helvetica,sans-Serif" font-size="10.00">Aforge</text>
</a>
</g>
</g>
<!-- Node2&#45;&gt;Node3 -->
<g id="edge2" class="edge"><title>Node2&#45;&gt;Node3</title>
<path fill="none" stroke="midnightblue" d="M328.895,-116.593C343.784,-118.905 359.407,-121.305 374,-123.5 440.614,-133.519 516.58,-144.491 570.755,-152.238"/>
<polygon fill="midnightblue" stroke="midnightblue" points="329.146,-113.09 318.726,-115.01 328.069,-120.006 329.146,-113.09"/>
</g>
<!-- Node4 -->
<g id="node4" class="node"><title>Node4</title>
<g id="a_node4"><a xlink:href="../../df/d4d/classIG_1_1Neural_1_1NeuralApproximatorBaseExt.html" target="_top" xlink:title="Base class for neural network approximators.">
<polygon fill="white" stroke="black" points="571,-98.5 571,-128.5 717,-128.5 717,-98.5 571,-98.5"/>
<text text-anchor="start" x="579" y="-116.5" font-family="Helvetica,sans-Serif" font-size="10.00">IG.Neural.NeuralApproximator</text>
<text text-anchor="middle" x="644" y="-105.5" font-family="Helvetica,sans-Serif" font-size="10.00">BaseExt</text>
</a>
</g>
</g>
<!-- Node2&#45;&gt;Node4 -->
<g id="edge3" class="edge"><title>Node2&#45;&gt;Node4</title>
<path fill="none" stroke="midnightblue" d="M337.991,-107.154C406.479,-108.579 504.496,-110.618 570.781,-111.997"/>
<polygon fill="midnightblue" stroke="midnightblue" points="337.756,-103.648 327.685,-106.939 337.61,-110.647 337.756,-103.648"/>
</g>
<!-- Node5 -->
<g id="node5" class="node"><title>Node5</title>
<g id="a_node5"><a xlink:href="../../db/d11/classIG_1_1Neural_1_1NeuralApproximatorNeuron.html" target="_top" xlink:title="Approximator of response by using neural networks, based on the NeuronDotNet library....">
<polygon fill="white" stroke="black" points="571,-49.5 571,-79.5 717,-79.5 717,-49.5 571,-49.5"/>
<text text-anchor="start" x="579" y="-67.5" font-family="Helvetica,sans-Serif" font-size="10.00">IG.Neural.NeuralApproximator</text>
<text text-anchor="middle" x="644" y="-56.5" font-family="Helvetica,sans-Serif" font-size="10.00">Neuron</text>
</a>
</g>
</g>
<!-- Node2&#45;&gt;Node5 -->
<g id="edge4" class="edge"><title>Node2&#45;&gt;Node5</title>
<path fill="none" stroke="midnightblue" d="M337.991,-97.0237C406.479,-89.7207 504.496,-79.2689 570.781,-72.2008"/>
<polygon fill="midnightblue" stroke="midnightblue" points="337.257,-93.582 327.685,-98.1227 338,-100.543 337.257,-93.582"/>
</g>
<!-- Node2&#45;&gt;Node6 -->
<g id="edge5" class="edge"><title>Node2&#45;&gt;Node6</title>
<path fill="none" stroke="midnightblue" d="M313.107,-93.4902C321.495,-91.346 330.017,-88.9935 338,-86.5 354.387,-81.3818 357.77,-78.096 374,-72.5 388.857,-67.3774 405.474,-62.2661 419.66,-58.0851"/>
<polygon fill="midnightblue" stroke="midnightblue" points="312.225,-90.1029 303.361,-95.9075 313.91,-96.8971 312.225,-90.1029"/>
</g>
<!-- Node6&#45;&gt;Node3 -->
<g id="edge6" class="edge"><title>Node6&#45;&gt;Node3</title>
<path fill="none" stroke="midnightblue" d="M472.855,-65.1493C494.36,-85.0027 532.851,-118.061 571,-138.5 577.156,-141.798 583.848,-144.759 590.592,-147.381"/>
<polygon fill="midnightblue" stroke="midnightblue" points="475.171,-62.5232 465.48,-58.2406 470.385,-67.6317 475.171,-62.5232"/>
</g>
<!-- Node6&#45;&gt;Node4 -->
<g id="edge7" class="edge"><title>Node6&#45;&gt;Node4</title>
<path fill="none" stroke="midnightblue" d="M491.641,-61.5315C514.38,-69.6803 544.36,-80.3326 571,-89.5 579.472,-92.4154 588.524,-95.4754 597.249,-98.3974"/>
<polygon fill="midnightblue" stroke="midnightblue" points="492.651,-58.1754 482.056,-58.0913 490.286,-64.7639 492.651,-58.1754"/>
</g>
<!-- Node6&#45;&gt;Node5 -->
<g id="edge8" class="edge"><title>Node6&#45;&gt;Node5</title>
<path fill="none" stroke="midnightblue" d="M545.095,-56.1454C553.713,-56.8809 562.379,-57.6203 570.799,-58.3388"/>
<polygon fill="midnightblue" stroke="midnightblue" points="545.278,-52.6484 535.017,-55.2854 544.683,-59.6231 545.278,-52.6484"/>
</g>
<!-- Node7 -->
<g id="node7" class="node"><title>Node7</title>
<g id="a_node7"><a xlink:href="../../dd/d0e/classIG_1_1Num_1_1NeuralApproximatorAforgeFake.html" target="_top" xlink:title=" ">
<polygon fill="white" stroke="black" points="575,-0.5 575,-30.5 713,-30.5 713,-0.5 575,-0.5"/>
<text text-anchor="start" x="583" y="-18.5" font-family="Helvetica,sans-Serif" font-size="10.00">IG.Num.NeuralApproximator</text>
<text text-anchor="middle" x="644" y="-7.5" font-family="Helvetica,sans-Serif" font-size="10.00">AforgeFake</text>
</a>
</g>
</g>
<!-- Node6&#45;&gt;Node7 -->
<g id="edge9" class="edge"><title>Node6&#45;&gt;Node7</title>
<path fill="none" stroke="midnightblue" d="M519.717,-37.1978C537.448,-34.0772 556.748,-30.6803 574.701,-27.5206"/>
<polygon fill="midnightblue" stroke="midnightblue" points="518.723,-33.8188 509.481,-38.9993 519.937,-40.7129 518.723,-33.8188"/>
</g>
<!-- Node8&#45;&gt;Node6 -->
<g id="edge12" class="edge"><title>Node8&#45;&gt;Node6</title>
<path fill="none" stroke="midnightblue" d="M348.117,-58.7681C356.7,-57.9318 365.365,-57.0875 373.843,-56.2614"/>
<polygon fill="midnightblue" stroke="midnightblue" points="347.709,-55.2912 338.095,-59.7446 348.388,-62.2582 347.709,-55.2912"/>
</g>
</g>
</svg>
