<?xml version="1.0" encoding="UTF-8" standalone="no"?>
<!DOCTYPE svg PUBLIC "-//W3C//DTD SVG 1.1//EN"
 "http://www.w3.org/Graphics/SVG/1.1/DTD/svg11.dtd">
<!-- Generated by graphviz version 2.38.0 (20140413.2041)
 -->
<!-- Title: CShell.Framework.Menus.CheckableMenuItem Pages: 1 -->
<svg width="294pt" height="207pt"
 viewBox="0.00 0.00 294.00 207.00" xmlns="http://www.w3.org/2000/svg" xmlns:xlink="http://www.w3.org/1999/xlink">
<g id="graph0" class="graph" transform="scale(1 1) rotate(0) translate(4 203)">
<title>CShell.Framework.Menus.CheckableMenuItem</title>
<polygon fill="white" stroke="none" points="-4,4 -4,-203 290,-203 290,4 -4,4"/>
<!-- Node1 -->
<g id="node1" class="node"><title>Node1</title>
<g id="a_node1"><a xlink:title=" ">
<polygon fill="#bfbfbf" stroke="black" points="44.5,-0.5 44.5,-30.5 221.5,-30.5 221.5,-0.5 44.5,-0.5"/>
<text text-anchor="start" x="52.5" y="-18.5" font-family="Helvetica,sans-Serif" font-size="10.00">CShell.Framework.Menus.Checkable</text>
<text text-anchor="middle" x="133" y="-7.5" font-family="Helvetica,sans-Serif" font-size="10.00">MenuItem</text>
</a>
</g>
</g>
<!-- Node2 -->
<g id="node2" class="node"><title>Node2</title>
<g id="a_node2"><a xlink:href="../../d3/dde/classCShell_1_1Framework_1_1Menus_1_1StandardMenuItem.html" target="_top" xlink:title=" ">
<polygon fill="white" stroke="black" points="84,-67.5 84,-86.5 182,-86.5 182,-67.5 84,-67.5"/>
<text text-anchor="middle" x="133" y="-74.5" font-family="Helvetica,sans-Serif" font-size="10.00">StandardMenuItem</text>
</a>
</g>
</g>
<!-- Node2&#45;&gt;Node1 -->
<g id="edge1" class="edge"><title>Node2&#45;&gt;Node1</title>
<path fill="none" stroke="midnightblue" d="M133,-57.2349C133,-48.5864 133,-38.4969 133,-30.523"/>
<polygon fill="midnightblue" stroke="midnightblue" points="129.5,-57.4751 133,-67.4751 136.5,-57.4751 129.5,-57.4751"/>
</g>
<!-- Node3 -->
<g id="node3" class="node"><title>Node3</title>
<g id="a_node3"><a xlink:href="../../df/d53/classCShell_1_1Framework_1_1Menus_1_1MenuItemBase.html" target="_top" xlink:title=" ">
<polygon fill="white" stroke="black" points="92,-123.5 92,-142.5 174,-142.5 174,-123.5 92,-123.5"/>
<text text-anchor="middle" x="133" y="-130.5" font-family="Helvetica,sans-Serif" font-size="10.00">MenuItemBase</text>
</a>
</g>
</g>
<!-- Node3&#45;&gt;Node2 -->
<g id="edge2" class="edge"><title>Node3&#45;&gt;Node2</title>
<path fill="none" stroke="midnightblue" d="M133,-112.805C133,-103.91 133,-93.7798 133,-86.7511"/>
<polygon fill="midnightblue" stroke="midnightblue" points="129.5,-113.083 133,-123.083 136.5,-113.083 129.5,-113.083"/>
</g>
<!-- Node4 -->
<g id="node4" class="node"><title>Node4</title>
<g id="a_node4"><a xlink:title=" ">
<polygon fill="white" stroke="#bfbfbf" points="0,-179.5 0,-198.5 114,-198.5 114,-179.5 0,-179.5"/>
<text text-anchor="middle" x="57" y="-186.5" font-family="Helvetica,sans-Serif" font-size="10.00">PropertyChangedBase</text>
</a>
</g>
</g>
<!-- Node4&#45;&gt;Node3 -->
<g id="edge3" class="edge"><title>Node4&#45;&gt;Node3</title>
<path fill="none" stroke="midnightblue" d="M77.5758,-173.38C91.312,-163.62 108.925,-151.106 120.567,-142.834"/>
<polygon fill="midnightblue" stroke="midnightblue" points="75.3353,-170.679 69.2107,-179.324 79.3898,-176.385 75.3353,-170.679"/>
</g>
<!-- Node5 -->
<g id="node5" class="node"><title>Node5</title>
<g id="a_node5"><a xlink:title=" ">
<polygon fill="white" stroke="#bfbfbf" points="132,-179.5 132,-198.5 286,-198.5 286,-179.5 132,-179.5"/>
<text text-anchor="middle" x="209" y="-186.5" font-family="Helvetica,sans-Serif" font-size="10.00">IEnumerable&lt; MenuItemBase &gt;</text>
</a>
</g>
</g>
<!-- Node5&#45;&gt;Node3 -->
<g id="edge4" class="edge"><title>Node5&#45;&gt;Node3</title>
<path fill="none" stroke="midnightblue" d="M188.424,-173.38C174.688,-163.62 157.075,-151.106 145.433,-142.834"/>
<polygon fill="midnightblue" stroke="midnightblue" points="186.61,-176.385 196.789,-179.324 190.665,-170.679 186.61,-176.385"/>
</g>
</g>
</svg>
