<?xml version="1.0" encoding="UTF-8" standalone="no"?>
<!DOCTYPE svg PUBLIC "-//W3C//DTD SVG 1.1//EN"
 "http://www.w3.org/Graphics/SVG/1.1/DTD/svg11.dtd">
<!-- Generated by graphviz version 2.38.0 (20140413.2041)
 -->
<!-- Title: NeuronDotNet.Core.Layer&lt; TNeuron &gt; Pages: 1 -->
<svg width="375pt" height="174pt"
 viewBox="0.00 0.00 374.50 174.00" xmlns="http://www.w3.org/2000/svg" xmlns:xlink="http://www.w3.org/1999/xlink">
<g id="graph0" class="graph" transform="scale(1 1) rotate(0) translate(4 170)">
<title>NeuronDotNet.Core.Layer&lt; TNeuron &gt;</title>
<polygon fill="white" stroke="none" points="-4,4 -4,-170 370.5,-170 370.5,4 -4,4"/>
<!-- Node1 -->
<g id="node1" class="node"><title>Node1</title>
<g id="a_node1"><a xlink:title="Layer is an abstract container for similar neurons. No two neurons within a layer can be connected to...">
<polygon fill="#bfbfbf" stroke="black" points="68.5,-0.5 68.5,-30.5 196.5,-30.5 196.5,-0.5 68.5,-0.5"/>
<text text-anchor="start" x="76.5" y="-18.5" font-family="Helvetica,sans-Serif" font-size="10.00">NeuronDotNet.Core.Layer</text>
<text text-anchor="middle" x="132.5" y="-7.5" font-family="Helvetica,sans-Serif" font-size="10.00">&lt; TNeuron &gt;</text>
</a>
</g>
</g>
<!-- Node2 -->
<g id="node2" class="node"><title>Node2</title>
<g id="a_node2"><a xlink:href="../../d0/dea/interfaceNeuronDotNet_1_1Core_1_1ILayer.html" target="_top" xlink:title="This interface represents a Layer in a neural network. A layer is a container for similar neurons....">
<polygon fill="white" stroke="black" points="0,-84 0,-103 43,-103 43,-84 0,-84"/>
<text text-anchor="middle" x="21.5" y="-91" font-family="Helvetica,sans-Serif" font-size="10.00">ILayer</text>
</a>
</g>
</g>
<!-- Node2&#45;&gt;Node1 -->
<g id="edge1" class="edge"><title>Node2&#45;&gt;Node1</title>
<path fill="none" stroke="midnightblue" d="M42.6401,-78.0257C62.5873,-64.3682 92.2968,-44.0265 112.024,-30.5198"/>
<polygon fill="midnightblue" stroke="midnightblue" points="40.507,-75.2443 34.2331,-83.7818 44.4617,-81.0202 40.507,-75.2443"/>
</g>
<!-- Node3 -->
<g id="node3" class="node"><title>Node3</title>
<g id="a_node3"><a xlink:title=" ">
<polygon fill="white" stroke="#bfbfbf" points="98,-146.5 98,-165.5 167,-165.5 167,-146.5 98,-146.5"/>
<text text-anchor="middle" x="132.5" y="-153.5" font-family="Helvetica,sans-Serif" font-size="10.00">ISerializable</text>
</a>
</g>
</g>
<!-- Node3&#45;&gt;Node2 -->
<g id="edge2" class="edge"><title>Node3&#45;&gt;Node2</title>
<path fill="none" stroke="midnightblue" d="M107.71,-141.488C86.2123,-129.771 55.7422,-113.164 37.3741,-103.152"/>
<polygon fill="midnightblue" stroke="midnightblue" points="106.141,-144.619 116.596,-146.332 109.491,-138.473 106.141,-144.619"/>
</g>
<!-- Node4 -->
<g id="node4" class="node"><title>Node4</title>
<g id="a_node4"><a xlink:href="../../d9/d85/interfaceNeuronDotNet_1_1Core_1_1ILearningRateFunction.html" target="_top" xlink:title="Learning Rate Function interface. This interface defines the way in which learning rate changes from ...">
<polygon fill="white" stroke="black" points="61,-78.5 61,-108.5 204,-108.5 204,-78.5 61,-78.5"/>
<text text-anchor="start" x="69" y="-96.5" font-family="Helvetica,sans-Serif" font-size="10.00">NeuronDotNet.Core.ILearning</text>
<text text-anchor="middle" x="132.5" y="-85.5" font-family="Helvetica,sans-Serif" font-size="10.00">RateFunction</text>
</a>
</g>
</g>
<!-- Node3&#45;&gt;Node4 -->
<g id="edge4" class="edge"><title>Node3&#45;&gt;Node4</title>
<path fill="none" stroke="midnightblue" d="M132.5,-136.215C132.5,-127.356 132.5,-116.958 132.5,-108.759"/>
<polygon fill="midnightblue" stroke="midnightblue" points="129,-136.332 132.5,-146.332 136,-136.332 129,-136.332"/>
</g>
<!-- Node5 -->
<g id="node5" class="node"><title>Node5</title>
<g id="a_node5"><a xlink:href="../../dd/d78/interfaceNeuronDotNet_1_1Core_1_1IInitializer.html" target="_top" xlink:title="Initializer interface. An initializer should define initialization methods for all concrete initializ...">
<polygon fill="white" stroke="black" points="222.5,-84 222.5,-103 366.5,-103 366.5,-84 222.5,-84"/>
<text text-anchor="middle" x="294.5" y="-91" font-family="Helvetica,sans-Serif" font-size="10.00">NeuronDotNet.Core.IInitializer</text>
</a>
</g>
</g>
<!-- Node3&#45;&gt;Node5 -->
<g id="edge6" class="edge"><title>Node3&#45;&gt;Node5</title>
<path fill="none" stroke="midnightblue" d="M165.02,-142.855C196.568,-131.073 243.639,-113.494 271.488,-103.094"/>
<polygon fill="midnightblue" stroke="midnightblue" points="163.511,-139.683 155.367,-146.46 165.96,-146.24 163.511,-139.683"/>
</g>
<!-- Node4&#45;&gt;Node1 -->
<g id="edge3" class="edge"><title>Node4&#45;&gt;Node1</title>
<path fill="none" stroke="#9a32cd" stroke-dasharray="5,2" d="M132.5,-68.0898C132.5,-55.7565 132.5,-41.2237 132.5,-30.7309"/>
<polygon fill="#9a32cd" stroke="#9a32cd" points="129,-68.2049 132.5,-78.205 136,-68.205 129,-68.2049"/>
<text text-anchor="middle" x="180" y="-52" font-family="Helvetica,sans-Serif" font-size="10.00"> learningRateFunction</text>
</g>
<!-- Node5&#45;&gt;Node1 -->
<g id="edge5" class="edge"><title>Node5&#45;&gt;Node1</title>
<path fill="none" stroke="#9a32cd" stroke-dasharray="5,2" d="M275.968,-77.5866C263.863,-68.3935 247.403,-56.894 231.5,-49 216.836,-41.7209 200.167,-35.5267 184.744,-30.5601"/>
<polygon fill="#9a32cd" stroke="#9a32cd" points="273.901,-80.4125 283.943,-83.7885 278.198,-74.8867 273.901,-80.4125"/>
<text text-anchor="middle" x="271.5" y="-52" font-family="Helvetica,sans-Serif" font-size="10.00"> initializer</text>
</g>
</g>
</svg>
