<?xml version="1.0" encoding="UTF-8" standalone="no"?>
<!DOCTYPE svg PUBLIC "-//W3C//DTD SVG 1.1//EN"
 "http://www.w3.org/Graphics/SVG/1.1/DTD/svg11.dtd">
<!-- Generated by graphviz version 2.38.0 (20140413.2041)
 -->
<!-- Title: IG.Web.WSBaseRefBase Pages: 1 -->
<svg width="170pt" height="140pt"
 viewBox="0.00 0.00 170.00 140.00" xmlns="http://www.w3.org/2000/svg" xmlns:xlink="http://www.w3.org/1999/xlink">
<g id="graph0" class="graph" transform="scale(1 1) rotate(0) translate(4 136)">
<title>IG.Web.WSBaseRefBase</title>
<polygon fill="white" stroke="none" points="-4,4 -4,-136 166,-136 166,4 -4,4"/>
<!-- Node1 -->
<g id="node1" class="node"><title>Node1</title>
<g id="a_node1"><a xlink:title="Intermediate proxy class to a web service based on the WSBaseClass.">
<polygon fill="#bfbfbf" stroke="black" points="24,-56.5 24,-75.5 152,-75.5 152,-56.5 24,-56.5"/>
<text text-anchor="middle" x="88" y="-63.5" font-family="Helvetica,sans-Serif" font-size="10.00">IG.Web.WSBaseRefBase</text>
</a>
</g>
</g>
<!-- Node4 -->
<g id="node4" class="node"><title>Node4</title>
<g id="a_node4"><a xlink:href="../../d9/db0/classIG_1_1Web_1_1WSBaseRef.html" target="_top" xlink:title="Class for referencing a web service based on the WSBaseClass.">
<polygon fill="white" stroke="black" points="35,-0.5 35,-19.5 141,-19.5 141,-0.5 35,-0.5"/>
<text text-anchor="middle" x="88" y="-7.5" font-family="Helvetica,sans-Serif" font-size="10.00">IG.Web.WSBaseRef</text>
</a>
</g>
</g>
<!-- Node1&#45;&gt;Node4 -->
<g id="edge3" class="edge"><title>Node1&#45;&gt;Node4</title>
<path fill="none" stroke="midnightblue" d="M88,-45.8045C88,-36.9102 88,-26.7798 88,-19.7511"/>
<polygon fill="midnightblue" stroke="midnightblue" points="84.5001,-46.083 88,-56.083 91.5001,-46.083 84.5001,-46.083"/>
</g>
<!-- Node2 -->
<g id="node2" class="node"><title>Node2</title>
<g id="a_node2"><a xlink:title=" ">
<polygon fill="white" stroke="#bfbfbf" points="0,-112.5 0,-131.5 86,-131.5 86,-112.5 0,-112.5"/>
<text text-anchor="middle" x="43" y="-119.5" font-family="Helvetica,sans-Serif" font-size="10.00">WSBasePointer</text>
</a>
</g>
</g>
<!-- Node2&#45;&gt;Node1 -->
<g id="edge1" class="edge"><title>Node2&#45;&gt;Node1</title>
<path fill="none" stroke="midnightblue" d="M57.0467,-104.144C64.8869,-94.7357 74.3295,-83.4046 80.7074,-75.7511"/>
<polygon fill="midnightblue" stroke="midnightblue" points="54.1439,-102.16 50.4308,-112.083 59.5215,-106.641 54.1439,-102.16"/>
</g>
<!-- Node3 -->
<g id="node3" class="node"><title>Node3</title>
<g id="a_node3"><a xlink:href="../../d3/d45/interfaceIG_1_1Web_1_1IWSBase.html" target="_top" xlink:title="Interface for basic web service.">
<polygon fill="white" stroke="black" points="104,-112.5 104,-131.5 162,-131.5 162,-112.5 104,-112.5"/>
<text text-anchor="middle" x="133" y="-119.5" font-family="Helvetica,sans-Serif" font-size="10.00">IWSBase</text>
</a>
</g>
</g>
<!-- Node3&#45;&gt;Node1 -->
<g id="edge2" class="edge"><title>Node3&#45;&gt;Node1</title>
<path fill="none" stroke="midnightblue" d="M118.953,-104.144C111.113,-94.7357 101.671,-83.4046 95.2926,-75.7511"/>
<polygon fill="midnightblue" stroke="midnightblue" points="116.479,-106.641 125.569,-112.083 121.856,-102.16 116.479,-106.641"/>
</g>
</g>
</svg>
