<?xml version="1.0" encoding="UTF-8" standalone="no"?>
<!DOCTYPE svg PUBLIC "-//W3C//DTD SVG 1.1//EN"
 "http://www.w3.org/Graphics/SVG/1.1/DTD/svg11.dtd">
<!-- Generated by graphviz version 2.38.0 (20140413.2041)
 -->
<!-- Title: IG.Web.Forms.WSClientFormsAboutForm Pages: 1 -->
<svg width="204pt" height="216pt"
 viewBox="0.00 0.00 204.00 216.00" xmlns="http://www.w3.org/2000/svg" xmlns:xlink="http://www.w3.org/1999/xlink">
<g id="graph0" class="graph" transform="scale(1 1) rotate(0) translate(4 212)">
<title>IG.Web.Forms.WSClientFormsAboutForm</title>
<polygon fill="white" stroke="none" points="-4,4 -4,-212 200,-212 200,4 -4,4"/>
<!-- Node1 -->
<g id="node1" class="node"><title>Node1</title>
<g id="a_node1"><a xlink:title="Form containing information about Web service test clients software.">
<polygon fill="#bfbfbf" stroke="black" points="0,-0.5 0,-30.5 152,-30.5 152,-0.5 0,-0.5"/>
<text text-anchor="start" x="8" y="-18.5" font-family="Helvetica,sans-Serif" font-size="10.00">IG.Web.Forms.WSClientForms</text>
<text text-anchor="middle" x="76" y="-7.5" font-family="Helvetica,sans-Serif" font-size="10.00">AboutForm</text>
</a>
</g>
</g>
<!-- Node2 -->
<g id="node2" class="node"><title>Node2</title>
<g id="a_node2"><a xlink:title=" ">
<polygon fill="white" stroke="#bfbfbf" points="4,-188.5 4,-207.5 72,-207.5 72,-188.5 4,-188.5"/>
<text text-anchor="middle" x="38" y="-195.5" font-family="Helvetica,sans-Serif" font-size="10.00">UserControl</text>
</a>
</g>
</g>
<!-- Node2&#45;&gt;Node1 -->
<g id="edge1" class="edge"><title>Node2&#45;&gt;Node1</title>
<path fill="none" stroke="midnightblue" d="M41.981,-178.09C49.6419,-141.701 66.2749,-62.6941 73.0444,-30.5391"/>
<polygon fill="midnightblue" stroke="midnightblue" points="38.4681,-177.788 39.8328,-188.294 45.3179,-179.23 38.4681,-177.788"/>
</g>
<!-- Node3 -->
<g id="node3" class="node"><title>Node3</title>
<g id="a_node3"><a xlink:title=" ">
<polygon fill="white" stroke="#bfbfbf" points="90,-188.5 90,-207.5 140,-207.5 140,-188.5 90,-188.5"/>
<text text-anchor="middle" x="115" y="-195.5" font-family="Helvetica,sans-Serif" font-size="10.00">System</text>
</a>
</g>
</g>
<!-- Node3&#45;&gt;Node1 -->
<g id="edge2" class="edge"><title>Node3&#45;&gt;Node1</title>
<path fill="none" stroke="#9a32cd" stroke-dasharray="5,2" d="M110.914,-178.09C103.052,-141.701 85.981,-62.6941 79.0334,-30.5391"/>
<polygon fill="#9a32cd" stroke="#9a32cd" points="107.586,-179.259 113.119,-188.294 114.428,-177.78 107.586,-179.259"/>
<text text-anchor="middle" x="152" y="-162" font-family="Helvetica,sans-Serif" font-size="10.00"> lblPoweredIGLib</text>
<text text-anchor="middle" x="152" y="-151" font-family="Helvetica,sans-Serif" font-size="10.00">lblAbourContactIntro</text>
<text text-anchor="middle" x="152" y="-140" font-family="Helvetica,sans-Serif" font-size="10.00">lblAboutAuthors</text>
<text text-anchor="middle" x="152" y="-129" font-family="Helvetica,sans-Serif" font-size="10.00">lblTitle</text>
<text text-anchor="middle" x="152" y="-118" font-family="Helvetica,sans-Serif" font-size="10.00">pnlIGLib</text>
<text text-anchor="middle" x="152" y="-107" font-family="Helvetica,sans-Serif" font-size="10.00">lblAboutAuthorsIntro</text>
<text text-anchor="middle" x="152" y="-96" font-family="Helvetica,sans-Serif" font-size="10.00">lblAboutTitle</text>
<text text-anchor="middle" x="152" y="-85" font-family="Helvetica,sans-Serif" font-size="10.00">lblAboutWeb</text>
<text text-anchor="middle" x="152" y="-74" font-family="Helvetica,sans-Serif" font-size="10.00">btnWeb</text>
<text text-anchor="middle" x="152" y="-63" font-family="Helvetica,sans-Serif" font-size="10.00">components</text>
<text text-anchor="middle" x="152" y="-52" font-family="Helvetica,sans-Serif" font-size="10.00">...</text>
</g>
</g>
</svg>
