<?xml version="1.0" encoding="UTF-8" standalone="no"?>
<!DOCTYPE svg PUBLIC "-//W3C//DTD SVG 1.1//EN"
 "http://www.w3.org/Graphics/SVG/1.1/DTD/svg11.dtd">
<!-- Generated by graphviz version 2.38.0 (20140413.2041)
 -->
<!-- Title: NUnit.Framework.Internal.TextMessageWriterTests Pages: 1 -->
<svg width="315pt" height="274pt"
 viewBox="0.00 0.00 315.00 274.00" xmlns="http://www.w3.org/2000/svg" xmlns:xlink="http://www.w3.org/1999/xlink">
<g id="graph0" class="graph" transform="scale(1 1) rotate(0) translate(4 270)">
<title>NUnit.Framework.Internal.TextMessageWriterTests</title>
<polygon fill="white" stroke="none" points="-4,4 -4,-270 311,-270 311,4 -4,4"/>
<!-- Node1 -->
<g id="node1" class="node"><title>Node1</title>
<g id="a_node1"><a xlink:title=" ">
<polygon fill="#bfbfbf" stroke="black" points="118.5,-0.5 118.5,-30.5 247.5,-30.5 247.5,-0.5 118.5,-0.5"/>
<text text-anchor="start" x="126.5" y="-18.5" font-family="Helvetica,sans-Serif" font-size="10.00">NUnit.Framework.Internal.</text>
<text text-anchor="middle" x="183" y="-7.5" font-family="Helvetica,sans-Serif" font-size="10.00">TextMessageWriterTests</text>
</a>
</g>
</g>
<!-- Node2 -->
<g id="node2" class="node"><title>Node2</title>
<g id="a_node2"><a xlink:href="../../d2/dbf/classNUnit_1_1Framework_1_1AssertionHelper.html" target="_top" xlink:title="AssertionHelper is an optional base class for user tests, allowing the use of shorter ids for constra...">
<polygon fill="white" stroke="black" points="7,-84 7,-103 93,-103 93,-84 7,-84"/>
<text text-anchor="middle" x="50" y="-91" font-family="Helvetica,sans-Serif" font-size="10.00">AssertionHelper</text>
</a>
</g>
</g>
<!-- Node2&#45;&gt;Node1 -->
<g id="edge1" class="edge"><title>Node2&#45;&gt;Node1</title>
<path fill="none" stroke="midnightblue" d="M73.7657,-78.9196C97.6188,-65.2893 134.198,-44.3868 158.357,-30.5815"/>
<polygon fill="midnightblue" stroke="midnightblue" points="71.9442,-75.9293 64.9983,-83.9296 75.4172,-82.007 71.9442,-75.9293"/>
</g>
<!-- Node3 -->
<g id="node3" class="node"><title>Node3</title>
<g id="a_node3"><a xlink:href="../../d2/dab/classNUnit_1_1Framework_1_1Constraints_1_1ConstraintFactory.html" target="_top" xlink:title="Helper class with properties and methods that supply a number of constraints used in Asserts.">
<polygon fill="white" stroke="black" points="0,-189.5 0,-208.5 94,-208.5 94,-189.5 0,-189.5"/>
<text text-anchor="middle" x="47" y="-196.5" font-family="Helvetica,sans-Serif" font-size="10.00">ConstraintFactory</text>
</a>
</g>
</g>
<!-- Node3&#45;&gt;Node2 -->
<g id="edge2" class="edge"><title>Node3&#45;&gt;Node2</title>
<path fill="none" stroke="midnightblue" d="M47.5479,-179.098C48.2037,-156.473 49.2734,-119.569 49.7533,-103.011"/>
<polygon fill="midnightblue" stroke="midnightblue" points="44.0471,-179.078 47.2558,-189.176 51.0441,-179.281 44.0471,-179.078"/>
</g>
<!-- Node4 -->
<g id="node4" class="node"><title>Node4</title>
<g id="a_node4"><a xlink:href="../../df/ddc/classNUnit_1_1Framework_1_1Internal_1_1TextMessageWriter.html" target="_top" xlink:title="TextMessageWriter writes constraint descriptions and messages in displayable form as a text stream....">
<polygon fill="white" stroke="black" points="118.5,-78.5 118.5,-108.5 247.5,-108.5 247.5,-78.5 118.5,-78.5"/>
<text text-anchor="start" x="126.5" y="-96.5" font-family="Helvetica,sans-Serif" font-size="10.00">NUnit.Framework.Internal.</text>
<text text-anchor="middle" x="183" y="-85.5" font-family="Helvetica,sans-Serif" font-size="10.00">TextMessageWriter</text>
</a>
</g>
</g>
<!-- Node4&#45;&gt;Node1 -->
<g id="edge3" class="edge"><title>Node4&#45;&gt;Node1</title>
<path fill="none" stroke="#9a32cd" stroke-dasharray="5,2" d="M183,-68.0898C183,-55.7565 183,-41.2237 183,-30.7309"/>
<polygon fill="#9a32cd" stroke="#9a32cd" points="179.5,-68.2049 183,-78.205 186.5,-68.205 179.5,-68.2049"/>
<text text-anchor="middle" x="196.5" y="-52" font-family="Helvetica,sans-Serif" font-size="10.00"> writer</text>
</g>
<!-- Node5 -->
<g id="node5" class="node"><title>Node5</title>
<g id="a_node5"><a xlink:href="../../dd/d63/classNUnit_1_1Framework_1_1Constraints_1_1MessageWriter.html" target="_top" xlink:title="MessageWriter is the abstract base for classes that write constraint descriptions and messages in som...">
<polygon fill="white" stroke="black" points="112.5,-189.5 112.5,-208.5 195.5,-208.5 195.5,-189.5 112.5,-189.5"/>
<text text-anchor="middle" x="154" y="-196.5" font-family="Helvetica,sans-Serif" font-size="10.00">MessageWriter</text>
</a>
</g>
</g>
<!-- Node5&#45;&gt;Node4 -->
<g id="edge4" class="edge"><title>Node5&#45;&gt;Node4</title>
<path fill="none" stroke="midnightblue" d="M155.544,-179.277C157.128,-164.729 160.21,-144.202 166,-127 168.113,-120.724 171.314,-114.183 174.372,-108.629"/>
<polygon fill="midnightblue" stroke="midnightblue" points="152.036,-179.197 154.572,-189.484 159.004,-179.861 152.036,-179.197"/>
</g>
<!-- Node6 -->
<g id="node6" class="node"><title>Node6</title>
<g id="a_node6"><a xlink:title=" ">
<polygon fill="white" stroke="#bfbfbf" points="120,-246.5 120,-265.5 188,-265.5 188,-246.5 120,-246.5"/>
<text text-anchor="middle" x="154" y="-253.5" font-family="Helvetica,sans-Serif" font-size="10.00">StringWriter</text>
</a>
</g>
</g>
<!-- Node6&#45;&gt;Node5 -->
<g id="edge5" class="edge"><title>Node6&#45;&gt;Node5</title>
<path fill="none" stroke="midnightblue" d="M154,-236.117C154,-226.817 154,-216.056 154,-208.715"/>
<polygon fill="midnightblue" stroke="midnightblue" points="150.5,-236.406 154,-246.406 157.5,-236.406 150.5,-236.406"/>
</g>
<!-- Node7 -->
<g id="node7" class="node"><title>Node7</title>
<g id="a_node7"><a xlink:title=" ">
<polygon fill="white" stroke="#bfbfbf" points="252.5,-189.5 252.5,-208.5 293.5,-208.5 293.5,-189.5 252.5,-189.5"/>
<text text-anchor="middle" x="273" y="-196.5" font-family="Helvetica,sans-Serif" font-size="10.00">static</text>
</a>
</g>
</g>
<!-- Node7&#45;&gt;Node1 -->
<g id="edge7" class="edge"><title>Node7&#45;&gt;Node1</title>
<path fill="none" stroke="#9a32cd" stroke-dasharray="5,2" d="M292.573,-182.366C295.601,-178.965 298.288,-175.134 300,-171 307.484,-152.933 306.996,-145.261 300,-127 283.008,-82.6458 236.989,-48.4714 207.988,-30.5159"/>
<polygon fill="#9a32cd" stroke="#9a32cd" points="289.975,-180.008 285.186,-189.459 294.824,-185.057 289.975,-180.008"/>
<text text-anchor="middle" x="299" y="-91" font-family="Helvetica,sans-Serif" font-size="10.00"> NL</text>
</g>
<!-- Node7&#45;&gt;Node4 -->
<g id="edge6" class="edge"><title>Node7&#45;&gt;Node4</title>
<path fill="none" stroke="#9a32cd" stroke-dasharray="5,2" d="M242.137,-197.003C222.775,-194.602 199.079,-188.043 186,-171 172.244,-153.074 175.435,-125.221 179.131,-108.531"/>
<polygon fill="#9a32cd" stroke="#9a32cd" points="242.073,-200.512 252.353,-197.95 242.719,-193.542 242.073,-200.512"/>
<text text-anchor="middle" x="243" y="-163" font-family="Helvetica,sans-Serif" font-size="10.00"> Pfx_Expected</text>
<text text-anchor="middle" x="243" y="-152" font-family="Helvetica,sans-Serif" font-size="10.00">DEFAULT_LINE_LENGTH</text>
<text text-anchor="middle" x="243" y="-141" font-family="Helvetica,sans-Serif" font-size="10.00">Pfx_Actual</text>
<text text-anchor="middle" x="243" y="-130" font-family="Helvetica,sans-Serif" font-size="10.00">PrefixLength</text>
</g>
</g>
</svg>
