<?xml version="1.0" encoding="UTF-8" standalone="no"?>
<!DOCTYPE svg PUBLIC "-//W3C//DTD SVG 1.1//EN"
 "http://www.w3.org/Graphics/SVG/1.1/DTD/svg11.dtd">
<!-- Generated by graphviz version 2.38.0 (20140413.2041)
 -->
<!-- Title: alglib.mlptrain.smlptrnsession Pages: 1 -->
<svg width="452pt" height="173pt"
 viewBox="0.00 0.00 451.50 173.00" xmlns="http://www.w3.org/2000/svg" xmlns:xlink="http://www.w3.org/1999/xlink">
<g id="graph0" class="graph" transform="scale(1 1) rotate(0) translate(4 169)">
<title>alglib.mlptrain.smlptrnsession</title>
<polygon fill="white" stroke="none" points="-4,4 -4,-169 447.5,-169 447.5,4 -4,4"/>
<!-- Node1 -->
<g id="node1" class="node"><title>Node1</title>
<g id="a_node1"><a xlink:title=" ">
<polygon fill="#bfbfbf" stroke="black" points="122.5,-0.5 122.5,-19.5 268.5,-19.5 268.5,-0.5 122.5,-0.5"/>
<text text-anchor="middle" x="195.5" y="-7.5" font-family="Helvetica,sans-Serif" font-size="10.00">alglib.mlptrain.smlptrnsession</text>
</a>
</g>
</g>
<!-- Node2 -->
<g id="node2" class="node"><title>Node2</title>
<g id="a_node2"><a xlink:href="../../d0/d58/classalglib_1_1apobject.html" target="_top" xlink:title=" ">
<polygon fill="white" stroke="black" points="0,-78.5 0,-97.5 53,-97.5 53,-78.5 0,-78.5"/>
<text text-anchor="middle" x="26.5" y="-85.5" font-family="Helvetica,sans-Serif" font-size="10.00">apobject</text>
</a>
</g>
</g>
<!-- Node2&#45;&gt;Node1 -->
<g id="edge1" class="edge"><title>Node2&#45;&gt;Node1</title>
<path fill="none" stroke="midnightblue" d="M50.8077,-73.5874C69.9888,-63.2504 97.5761,-48.9248 122.5,-38 138.094,-31.1649 156.022,-24.5173 170.208,-19.5286"/>
<polygon fill="midnightblue" stroke="midnightblue" points="48.9748,-70.5999 41.8589,-78.4494 52.3167,-76.7507 48.9748,-70.5999"/>
</g>
<!-- Node3 -->
<g id="node3" class="node"><title>Node3</title>
<g id="a_node3"><a xlink:href="../../d1/dc9/classalglib_1_1hqrnd.html" target="_top" xlink:title=" ">
<polygon fill="white" stroke="black" points="71.5,-78.5 71.5,-97.5 137.5,-97.5 137.5,-78.5 71.5,-78.5"/>
<text text-anchor="middle" x="104.5" y="-85.5" font-family="Helvetica,sans-Serif" font-size="10.00">alglib.hqrnd</text>
</a>
</g>
</g>
<!-- Node3&#45;&gt;Node1 -->
<g id="edge2" class="edge"><title>Node3&#45;&gt;Node1</title>
<path fill="none" stroke="#9a32cd" stroke-dasharray="5,2" d="M116.919,-70.1532C124.914,-60.045 135.942,-47.3742 147.5,-38 156.411,-30.7726 167.515,-24.3882 176.798,-19.6447"/>
<polygon fill="#9a32cd" stroke="#9a32cd" points="114.037,-68.1609 110.738,-78.2293 119.596,-72.4154 114.037,-68.1609"/>
<text text-anchor="middle" x="169.5" y="-46.5" font-family="Helvetica,sans-Serif" font-size="10.00"> generator</text>
</g>
<!-- Node4 -->
<g id="node4" class="node"><title>Node4</title>
<g id="a_node4"><a xlink:href="../../d0/d97/classalglib_1_1mlpbase.html" target="_top" xlink:title=" ">
<polygon fill="white" stroke="black" points="156,-78.5 156,-97.5 235,-97.5 235,-78.5 156,-78.5"/>
<text text-anchor="middle" x="195.5" y="-85.5" font-family="Helvetica,sans-Serif" font-size="10.00">alglib.mlpbase</text>
</a>
</g>
</g>
<!-- Node4&#45;&gt;Node1 -->
<g id="edge3" class="edge"><title>Node4&#45;&gt;Node1</title>
<path fill="none" stroke="#9a32cd" stroke-dasharray="5,2" d="M195.5,-68.2239C195.5,-52.6974 195.5,-31.3582 195.5,-19.6165"/>
<polygon fill="#9a32cd" stroke="#9a32cd" points="192,-68.2818 195.5,-78.2818 199,-68.2819 192,-68.2818"/>
<text text-anchor="middle" x="214" y="-46.5" font-family="Helvetica,sans-Serif" font-size="10.00"> network</text>
</g>
<!-- Node5 -->
<g id="node5" class="node"><title>Node5</title>
<g id="a_node5"><a xlink:href="../../da/d61/classalglib_1_1rcommstate.html" target="_top" xlink:title=" ">
<polygon fill="white" stroke="black" points="253.5,-78.5 253.5,-97.5 347.5,-97.5 347.5,-78.5 253.5,-78.5"/>
<text text-anchor="middle" x="300.5" y="-85.5" font-family="Helvetica,sans-Serif" font-size="10.00">alglib.rcommstate</text>
</a>
</g>
</g>
<!-- Node5&#45;&gt;Node1 -->
<g id="edge4" class="edge"><title>Node5&#45;&gt;Node1</title>
<path fill="none" stroke="#9a32cd" stroke-dasharray="5,2" d="M281.861,-72.1705C269.231,-62.2619 252.07,-49.0658 236.5,-38 227.469,-31.5813 217.037,-24.719 208.956,-19.5189"/>
<polygon fill="#9a32cd" stroke="#9a32cd" points="279.786,-74.992 289.805,-78.4385 284.122,-69.4965 279.786,-74.992"/>
<text text-anchor="middle" x="279.5" y="-46.5" font-family="Helvetica,sans-Serif" font-size="10.00"> rstate</text>
</g>
<!-- Node6 -->
<g id="node6" class="node"><title>Node6</title>
<g id="a_node6"><a xlink:href="../../d7/d81/classalglib.html" target="_top" xlink:title=" ">
<polygon fill="white" stroke="black" points="281,-145.5 281,-164.5 320,-164.5 320,-145.5 281,-145.5"/>
<text text-anchor="middle" x="300.5" y="-152.5" font-family="Helvetica,sans-Serif" font-size="10.00">alglib</text>
</a>
</g>
</g>
<!-- Node6&#45;&gt;Node5 -->
<g id="edge5" class="edge"><title>Node6&#45;&gt;Node5</title>
<path fill="none" stroke="#9a32cd" stroke-dasharray="5,2" d="M300.5,-135.037C300.5,-122.67 300.5,-107.12 300.5,-97.6273"/>
<polygon fill="#9a32cd" stroke="#9a32cd" points="297,-135.234 300.5,-145.234 304,-135.234 297,-135.234"/>
<text text-anchor="middle" x="307.5" y="-119" font-family="Helvetica,sans-Serif" font-size="10.00"> ca</text>
</g>
<!-- Node7 -->
<g id="node7" class="node"><title>Node7</title>
<g id="a_node7"><a xlink:href="../../d0/d30/classalglib_1_1minlbfgs.html" target="_top" xlink:title=" ">
<polygon fill="white" stroke="black" points="365.5,-78.5 365.5,-97.5 443.5,-97.5 443.5,-78.5 365.5,-78.5"/>
<text text-anchor="middle" x="404.5" y="-85.5" font-family="Helvetica,sans-Serif" font-size="10.00">alglib.minlbfgs</text>
</a>
</g>
</g>
<!-- Node7&#45;&gt;Node1 -->
<g id="edge6" class="edge"><title>Node7&#45;&gt;Node1</title>
<path fill="none" stroke="#9a32cd" stroke-dasharray="5,2" d="M379.135,-73.8913C357.77,-63.2157 326.188,-48.2809 297.5,-38 276.979,-30.6461 253.496,-24.2949 234.239,-19.6032"/>
<polygon fill="#9a32cd" stroke="#9a32cd" points="377.681,-77.0782 388.185,-78.4645 380.838,-70.8305 377.681,-77.0782"/>
<text text-anchor="middle" x="375.5" y="-52" font-family="Helvetica,sans-Serif" font-size="10.00"> optimizer</text>
<text text-anchor="middle" x="375.5" y="-41" font-family="Helvetica,sans-Serif" font-size="10.00">optimizerrep</text>
</g>
</g>
</svg>
