<?xml version="1.0" encoding="UTF-8" standalone="no"?>
<!DOCTYPE svg PUBLIC "-//W3C//DTD SVG 1.1//EN"
 "http://www.w3.org/Graphics/SVG/1.1/DTD/svg11.dtd">
<!-- Generated by graphviz version 2.38.0 (20140413.2041)
 -->
<!-- Title: AForge.MachineLearning.QLearning Pages: 1 -->
<svg width="187pt" height="106pt"
 viewBox="0.00 0.00 187.00 106.00" xmlns="http://www.w3.org/2000/svg" xmlns:xlink="http://www.w3.org/1999/xlink">
<g id="graph0" class="graph" transform="scale(1 1) rotate(0) translate(4 102)">
<title>AForge.MachineLearning.QLearning</title>
<polygon fill="white" stroke="none" points="-4,4 -4,-102 183,-102 183,4 -4,4"/>
<!-- Node1 -->
<g id="node1" class="node"><title>Node1</title>
<g id="a_node1"><a xlink:title="QLearning learning algorithm.">
<polygon fill="#bfbfbf" stroke="black" points="3.5,-0.5 3.5,-19.5 175.5,-19.5 175.5,-0.5 3.5,-0.5"/>
<text text-anchor="middle" x="89.5" y="-7.5" font-family="Helvetica,sans-Serif" font-size="10.00">AForge.MachineLearning.QLearning</text>
</a>
</g>
</g>
<!-- Node2 -->
<g id="node2" class="node"><title>Node2</title>
<g id="a_node2"><a xlink:href="../../d9/d24/interfaceAForge_1_1MachineLearning_1_1IExplorationPolicy.html" target="_top" xlink:title="Exploration policy interface.">
<polygon fill="white" stroke="black" points="0,-67.5 0,-97.5 179,-97.5 179,-67.5 0,-67.5"/>
<text text-anchor="start" x="8" y="-85.5" font-family="Helvetica,sans-Serif" font-size="10.00">AForge.MachineLearning.IExploration</text>
<text text-anchor="middle" x="89.5" y="-74.5" font-family="Helvetica,sans-Serif" font-size="10.00">Policy</text>
</a>
</g>
</g>
<!-- Node2&#45;&gt;Node1 -->
<g id="edge1" class="edge"><title>Node2&#45;&gt;Node1</title>
<path fill="none" stroke="#9a32cd" stroke-dasharray="5,2" d="M89.5,-57.0913C89.5,-44.2136 89.5,-29.1974 89.5,-19.8932"/>
<polygon fill="#9a32cd" stroke="#9a32cd" points="86.0001,-57.2332 89.5,-67.2333 93.0001,-57.2333 86.0001,-57.2332"/>
<text text-anchor="middle" x="128.5" y="-41" font-family="Helvetica,sans-Serif" font-size="10.00"> explorationPolicy</text>
</g>
</g>
</svg>
