<?xml version="1.0" encoding="UTF-8" standalone="no"?>
<!DOCTYPE svg PUBLIC "-//W3C//DTD SVG 1.1//EN"
 "http://www.w3.org/Graphics/SVG/1.1/DTD/svg11.dtd">
<!-- Generated by graphviz version 2.38.0 (20140413.2041)
 -->
<!-- Title: NUnit.Framework.Constraints.EqualityAdapter.EqualityComparerAdapter&lt; T &gt; Pages: 1 -->
<svg width="213pt" height="162pt"
 viewBox="0.00 0.00 212.50 162.00" xmlns="http://www.w3.org/2000/svg" xmlns:xlink="http://www.w3.org/1999/xlink">
<g id="graph0" class="graph" transform="scale(1 1) rotate(0) translate(4 158)">
<title>NUnit.Framework.Constraints.EqualityAdapter.EqualityComparerAdapter&lt; T &gt;</title>
<polygon fill="white" stroke="none" points="-4,4 -4,-158 208.5,-158 208.5,4 -4,4"/>
<!-- Node1 -->
<g id="node1" class="node"><title>Node1</title>
<g id="a_node1"><a xlink:title=" ">
<polygon fill="#bfbfbf" stroke="black" points="0,-0.5 0,-41.5 166,-41.5 166,-0.5 0,-0.5"/>
<text text-anchor="start" x="8" y="-29.5" font-family="Helvetica,sans-Serif" font-size="10.00">NUnit.Framework.Constraints.</text>
<text text-anchor="start" x="8" y="-18.5" font-family="Helvetica,sans-Serif" font-size="10.00">EqualityAdapter.EqualityComparer</text>
<text text-anchor="middle" x="83" y="-7.5" font-family="Helvetica,sans-Serif" font-size="10.00">Adapter&lt; T &gt;</text>
</a>
</g>
</g>
<!-- Node2 -->
<g id="node2" class="node"><title>Node2</title>
<g id="a_node2"><a xlink:href="../../da/d28/classNUnit_1_1Framework_1_1Constraints_1_1EqualityAdapter.html" target="_top" xlink:title="EqualityAdapter class handles all equality comparisons that use an IEqualityComparer,...">
<polygon fill="white" stroke="black" points="40,-134.5 40,-153.5 126,-153.5 126,-134.5 40,-134.5"/>
<text text-anchor="middle" x="83" y="-141.5" font-family="Helvetica,sans-Serif" font-size="10.00">EqualityAdapter</text>
</a>
</g>
</g>
<!-- Node2&#45;&gt;Node1 -->
<g id="edge1" class="edge"><title>Node2&#45;&gt;Node1</title>
<path fill="none" stroke="midnightblue" d="M68.0247,-126.473C61.7757,-118.479 55.2286,-108.378 52,-98 45.9043,-78.4065 56.4749,-56.8088 66.8909,-41.6612"/>
<polygon fill="midnightblue" stroke="midnightblue" points="65.4162,-128.81 74.5173,-134.234 70.7851,-124.318 65.4162,-128.81"/>
</g>
<!-- Node3 -->
<g id="node3" class="node"><title>Node3</title>
<g id="a_node3"><a xlink:href="../../d1/d7f/classNUnit_1_1Framework_1_1Constraints_1_1EqualityAdapter_1_1GenericEqualityAdapter.html" target="_top" xlink:title=" ">
<polygon fill="white" stroke="black" points="61.5,-78.5 61.5,-97.5 204.5,-97.5 204.5,-78.5 61.5,-78.5"/>
<text text-anchor="middle" x="133" y="-85.5" font-family="Helvetica,sans-Serif" font-size="10.00">GenericEqualityAdapter&lt; T &gt;</text>
</a>
</g>
</g>
<!-- Node2&#45;&gt;Node3 -->
<g id="edge3" class="edge"><title>Node2&#45;&gt;Node3</title>
<path fill="none" stroke="midnightblue" d="M98.0763,-126.718C106.889,-117.2 117.666,-105.561 124.897,-97.7511"/>
<polygon fill="midnightblue" stroke="midnightblue" points="95.4824,-124.367 91.2565,-134.083 100.619,-129.123 95.4824,-124.367"/>
</g>
<!-- Node3&#45;&gt;Node1 -->
<g id="edge2" class="edge"><title>Node3&#45;&gt;Node1</title>
<path fill="none" stroke="midnightblue" d="M120.131,-70.2705C113.382,-61.4967 105.076,-50.6988 98.0324,-41.5421"/>
<polygon fill="midnightblue" stroke="midnightblue" points="117.385,-72.4416 126.257,-78.2338 122.934,-68.1735 117.385,-72.4416"/>
</g>
</g>
</svg>
