<?xml version="1.0" encoding="UTF-8" standalone="no"?>
<!DOCTYPE svg PUBLIC "-//W3C//DTD SVG 1.1//EN"
 "http://www.w3.org/Graphics/SVG/1.1/DTD/svg11.dtd">
<!-- Generated by graphviz version 2.38.0 (20140413.2041)
 -->
<!-- Title: IG.NumExperimental.ResponseEvaluatorWithStorageAnalysisDtoBase&lt; TypeResponseEvaluator &gt; Pages: 1 -->
<svg width="628pt" height="61pt"
 viewBox="0.00 0.00 628.00 61.00" xmlns="http://www.w3.org/2000/svg" xmlns:xlink="http://www.w3.org/1999/xlink">
<g id="graph0" class="graph" transform="scale(1 1) rotate(0) translate(4 57)">
<title>IG.NumExperimental.ResponseEvaluatorWithStorageAnalysisDtoBase&lt; TypeResponseEvaluator &gt;</title>
<polygon fill="white" stroke="none" points="-4,4 -4,-57 624,-57 624,4 -4,4"/>
<!-- Node1 -->
<g id="node1" class="node"><title>Node1</title>
<g id="a_node1"><a xlink:title="Base class for DTOs (Data Transfer Objects) for response evaluators with storage where response is ev...">
<polygon fill="#bfbfbf" stroke="black" points="239,-6 239,-47 402,-47 402,-6 239,-6"/>
<text text-anchor="start" x="247" y="-35" font-family="Helvetica,sans-Serif" font-size="10.00">IG.NumExperimental.Response</text>
<text text-anchor="start" x="247" y="-24" font-family="Helvetica,sans-Serif" font-size="10.00">EvaluatorWithStorageAnalysisDto</text>
<text text-anchor="middle" x="320.5" y="-13" font-family="Helvetica,sans-Serif" font-size="10.00">Base&lt; TypeResponseEvaluator &gt;</text>
</a>
</g>
</g>
<!-- Node3 -->
<g id="node3" class="node"><title>Node3</title>
<g id="a_node3"><a xlink:href="../../df/d68/classIG_1_1NumExperimental_1_1ResponseEvaluatorWithStorageAnalysisDto.html" target="_top" xlink:title="DTO (data transfer object) for response evaluators with storage where response is evaluated by an (op...">
<polygon fill="white" stroke="black" points="438,-0.5 438,-52.5 620,-52.5 620,-0.5 438,-0.5"/>
<text text-anchor="start" x="446" y="-40.5" font-family="Helvetica,sans-Serif" font-size="10.00">IG::NumExperimental</text>
<text text-anchor="start" x="446" y="-29.5" font-family="Helvetica,sans-Serif" font-size="10.00">::ResponseEvaluatorWithStorage</text>
<text text-anchor="start" x="446" y="-18.5" font-family="Helvetica,sans-Serif" font-size="10.00">AnalysisDto&lt; ResponseEvaluatorWith</text>
<text text-anchor="middle" x="529" y="-7.5" font-family="Helvetica,sans-Serif" font-size="10.00">StorageAnalysis &gt;</text>
</a>
</g>
</g>
<!-- Node1&#45;&gt;Node3 -->
<g id="edge2" class="edge"><title>Node1&#45;&gt;Node3</title>
<path fill="none" stroke="midnightblue" d="M412.415,-26.5C420.826,-26.5 429.348,-26.5 437.753,-26.5"/>
<polygon fill="midnightblue" stroke="midnightblue" points="412.226,-23.0001 402.226,-26.5 412.225,-30.0001 412.226,-23.0001"/>
</g>
<!-- Node2 -->
<g id="node2" class="node"><title>Node2</title>
<g id="a_node2"><a xlink:href="../../d7/dd8/classIG_1_1Lib_1_1SerializationDtoBase.html" target="_top" xlink:title=" ">
<polygon fill="white" stroke="black" points="0,-6 0,-47 203,-47 203,-6 0,-6"/>
<text text-anchor="start" x="8" y="-35" font-family="Helvetica,sans-Serif" font-size="10.00">SerializationDtoBase</text>
<text text-anchor="start" x="8" y="-24" font-family="Helvetica,sans-Serif" font-size="10.00">&lt; TypeResponseEvaluator,</text>
<text text-anchor="middle" x="101.5" y="-13" font-family="Helvetica,sans-Serif" font-size="10.00"> ResponseEvaluatorWithStorageAnalysis &gt;</text>
</a>
</g>
</g>
<!-- Node2&#45;&gt;Node1 -->
<g id="edge1" class="edge"><title>Node2&#45;&gt;Node1</title>
<path fill="none" stroke="midnightblue" d="M213.18,-26.5C221.805,-26.5 230.411,-26.5 238.782,-26.5"/>
<polygon fill="midnightblue" stroke="midnightblue" points="213.06,-23.0001 203.06,-26.5 213.06,-30.0001 213.06,-23.0001"/>
</g>
</g>
</svg>
