<?xml version="1.0" encoding="UTF-8" standalone="no"?>
<!DOCTYPE svg PUBLIC "-//W3C//DTD SVG 1.1//EN"
 "http://www.w3.org/Graphics/SVG/1.1/DTD/svg11.dtd">
<!-- Generated by graphviz version 2.38.0 (20140413.2041)
 -->
<!-- Title: Test.LevaNormalGenerator Pages: 1 -->
<svg width="162pt" height="95pt"
 viewBox="0.00 0.00 162.00 95.00" xmlns="http://www.w3.org/2000/svg" xmlns:xlink="http://www.w3.org/1999/xlink">
<g id="graph0" class="graph" transform="scale(1 1) rotate(0) translate(4 91)">
<title>Test.LevaNormalGenerator</title>
<polygon fill="white" stroke="none" points="-4,4 -4,-91 158,-91 158,4 -4,4"/>
<!-- Node1 -->
<g id="node1" class="node"><title>Node1</title>
<g id="a_node1"><a xlink:title=" ">
<polygon fill="#bfbfbf" stroke="black" points="23,-0.5 23,-19.5 154,-19.5 154,-0.5 23,-0.5"/>
<text text-anchor="middle" x="88.5" y="-7.5" font-family="Helvetica,sans-Serif" font-size="10.00">Test.LevaNormalGenerator</text>
</a>
</g>
</g>
<!-- Node2 -->
<g id="node2" class="node"><title>Node2</title>
<g id="a_node2"><a xlink:href="../../df/dee/interfaceTest_1_1IDeviateGenerator.html" target="_top" xlink:title=" ">
<polygon fill="white" stroke="black" points="0,-67.5 0,-86.5 93,-86.5 93,-67.5 0,-67.5"/>
<text text-anchor="middle" x="46.5" y="-74.5" font-family="Helvetica,sans-Serif" font-size="10.00">IDeviateGenerator</text>
</a>
</g>
</g>
<!-- Node2&#45;&gt;Node1 -->
<g id="edge1" class="edge"><title>Node2&#45;&gt;Node1</title>
<path fill="none" stroke="midnightblue" d="M57.7853,-58.5347C65.917,-45.9499 76.5415,-29.5072 82.9254,-19.6273"/>
<polygon fill="midnightblue" stroke="midnightblue" points="54.6518,-56.9351 52.1643,-67.2338 60.5312,-60.7341 54.6518,-56.9351"/>
</g>
<!-- Node3 -->
<g id="node3" class="node"><title>Node3</title>
<g id="a_node3"><a xlink:title=" ">
<polygon fill="white" stroke="#bfbfbf" points="111,-67.5 111,-86.5 152,-86.5 152,-67.5 111,-67.5"/>
<text text-anchor="middle" x="131.5" y="-74.5" font-family="Helvetica,sans-Serif" font-size="10.00">static</text>
</a>
</g>
</g>
<!-- Node3&#45;&gt;Node1 -->
<g id="edge2" class="edge"><title>Node3&#45;&gt;Node1</title>
<path fill="none" stroke="#9a32cd" stroke-dasharray="5,2" d="M119.946,-58.5347C111.621,-45.9499 100.743,-29.5072 94.2073,-19.6273"/>
<polygon fill="#9a32cd" stroke="#9a32cd" points="117.264,-60.8247 125.701,-67.2338 123.103,-56.9625 117.264,-60.8247"/>
<text text-anchor="middle" x="117" y="-41" font-family="Helvetica,sans-Serif" font-size="10.00"> c</text>
</g>
</g>
</svg>
