<?xml version="1.0" encoding="UTF-8" standalone="no"?>
<!DOCTYPE svg PUBLIC "-//W3C//DTD SVG 1.1//EN"
 "http://www.w3.org/Graphics/SVG/1.1/DTD/svg11.dtd">
<!-- Generated by graphviz version 2.38.0 (20140413.2041)
 -->
<!-- Title: IG.Lib.MsgBaseWithModel Pages: 1 -->
<svg width="318pt" height="196pt"
 viewBox="0.00 0.00 318.00 196.00" xmlns="http://www.w3.org/2000/svg" xmlns:xlink="http://www.w3.org/1999/xlink">
<g id="graph0" class="graph" transform="scale(1 1) rotate(0) translate(4 192)">
<title>IG.Lib.MsgBaseWithModel</title>
<polygon fill="white" stroke="none" points="-4,4 -4,-192 314,-192 314,4 -4,4"/>
<!-- Node1 -->
<g id="node1" class="node"><title>Node1</title>
<g id="a_node1"><a xlink:title="Base class messages, includes possibility of model document for conversion of the object to XML msg a...">
<polygon fill="#bfbfbf" stroke="black" points="92,-56.5 92,-75.5 225,-75.5 225,-56.5 92,-56.5"/>
<text text-anchor="middle" x="158.5" y="-63.5" font-family="Helvetica,sans-Serif" font-size="10.00">IG.Lib.MsgBaseWithModel</text>
</a>
</g>
</g>
<!-- Node4 -->
<g id="node4" class="node"><title>Node4</title>
<g id="a_node4"><a xlink:href="../../d4/dfd/classIG_1_1Lib_1_1MsgFinancialTransaction.html" target="_top" xlink:title="Class for holding and manipulating the data about financial transaction. Includes parsing an XML file...">
<polygon fill="white" stroke="black" points="0,-0.5 0,-19.5 153,-19.5 153,-0.5 0,-0.5"/>
<text text-anchor="middle" x="76.5" y="-7.5" font-family="Helvetica,sans-Serif" font-size="10.00">IG.Lib.MsgFinancialTransaction</text>
</a>
</g>
</g>
<!-- Node1&#45;&gt;Node4 -->
<g id="edge3" class="edge"><title>Node1&#45;&gt;Node4</title>
<path fill="none" stroke="midnightblue" d="M136.667,-50.6221C121.687,-40.7574 102.303,-27.9919 89.642,-19.6545"/>
<polygon fill="midnightblue" stroke="midnightblue" points="135.049,-53.7471 145.325,-56.324 138.899,-47.9009 135.049,-53.7471"/>
</g>
<!-- Node5 -->
<g id="node5" class="node"><title>Node5</title>
<g id="a_node5"><a xlink:href="../../df/d19/classIG_1_1Lib_1_1MsgObservationEvent.html" target="_top" xlink:title="Class for holding and manipulating the data about observation event. Includes parsing an XML file,...">
<polygon fill="white" stroke="black" points="171,-0.5 171,-19.5 310,-19.5 310,-0.5 171,-0.5"/>
<text text-anchor="middle" x="240.5" y="-7.5" font-family="Helvetica,sans-Serif" font-size="10.00">IG.Lib.MsgObservationEvent</text>
</a>
</g>
</g>
<!-- Node1&#45;&gt;Node5 -->
<g id="edge4" class="edge"><title>Node1&#45;&gt;Node5</title>
<path fill="none" stroke="midnightblue" d="M180.333,-50.6221C195.313,-40.7574 214.697,-27.9919 227.358,-19.6545"/>
<polygon fill="midnightblue" stroke="midnightblue" points="178.101,-47.9009 171.675,-56.324 181.951,-53.7471 178.101,-47.9009"/>
</g>
<!-- Node2 -->
<g id="node2" class="node"><title>Node2</title>
<g id="a_node2"><a xlink:href="../../d8/d6e/classIG_1_1Lib_1_1MsgBase.html" target="_top" xlink:title="Base class for all messages.">
<polygon fill="white" stroke="black" points="129.5,-112.5 129.5,-131.5 187.5,-131.5 187.5,-112.5 129.5,-112.5"/>
<text text-anchor="middle" x="158.5" y="-119.5" font-family="Helvetica,sans-Serif" font-size="10.00">MsgBase</text>
</a>
</g>
</g>
<!-- Node2&#45;&gt;Node1 -->
<g id="edge1" class="edge"><title>Node2&#45;&gt;Node1</title>
<path fill="none" stroke="midnightblue" d="M158.5,-101.805C158.5,-92.9102 158.5,-82.7798 158.5,-75.7511"/>
<polygon fill="midnightblue" stroke="midnightblue" points="155,-102.083 158.5,-112.083 162,-102.083 155,-102.083"/>
</g>
<!-- Node3 -->
<g id="node3" class="node"><title>Node3</title>
<g id="a_node3"><a xlink:href="../../da/dac/classIG_1_1Lib_1_1ParsableXmlObject.html" target="_top" xlink:title="Base class for data classes that support writing data to / reading from custom XML files,...">
<polygon fill="white" stroke="black" points="109,-168.5 109,-187.5 208,-187.5 208,-168.5 109,-168.5"/>
<text text-anchor="middle" x="158.5" y="-175.5" font-family="Helvetica,sans-Serif" font-size="10.00">ParsableXmlObject</text>
</a>
</g>
</g>
<!-- Node3&#45;&gt;Node2 -->
<g id="edge2" class="edge"><title>Node3&#45;&gt;Node2</title>
<path fill="none" stroke="midnightblue" d="M158.5,-157.805C158.5,-148.91 158.5,-138.78 158.5,-131.751"/>
<polygon fill="midnightblue" stroke="midnightblue" points="155,-158.083 158.5,-168.083 162,-158.083 155,-158.083"/>
</g>
</g>
</svg>
