<?xml version="1.0" encoding="UTF-8" standalone="no"?>
<!DOCTYPE svg PUBLIC "-//W3C//DTD SVG 1.1//EN"
 "http://www.w3.org/Graphics/SVG/1.1/DTD/svg11.dtd">
<!-- Generated by graphviz version 2.38.0 (20140413.2041)
 -->
<!-- Title: AForge.Imaging.Filters.SierraDithering Pages: 1 -->
<svg width="366pt" height="274pt"
 viewBox="0.00 0.00 365.50 274.00" xmlns="http://www.w3.org/2000/svg" xmlns:xlink="http://www.w3.org/1999/xlink">
<g id="graph0" class="graph" transform="scale(1 1) rotate(0) translate(4 270)">
<title>AForge.Imaging.Filters.SierraDithering</title>
<polygon fill="white" stroke="none" points="-4,4 -4,-270 361.5,-270 361.5,4 -4,4"/>
<!-- Node1 -->
<g id="node1" class="node"><title>Node1</title>
<g id="a_node1"><a xlink:title="Dithering using Sierra error diffusion.">
<polygon fill="#bfbfbf" stroke="black" points="76,-0.5 76,-30.5 219,-30.5 219,-0.5 76,-0.5"/>
<text text-anchor="start" x="84" y="-18.5" font-family="Helvetica,sans-Serif" font-size="10.00">AForge.Imaging.Filters.Sierra</text>
<text text-anchor="middle" x="147.5" y="-7.5" font-family="Helvetica,sans-Serif" font-size="10.00">Dithering</text>
</a>
</g>
</g>
<!-- Node2 -->
<g id="node2" class="node"><title>Node2</title>
<g id="a_node2"><a xlink:href="../../d6/d91/classAForge_1_1Imaging_1_1Filters_1_1ErrorDiffusionToAdjacentNeighbors.html" target="_top" xlink:title="Base class for error diffusion dithering, where error is diffused to adjacent neighbor pixels.">
<polygon fill="white" stroke="black" points="86,-67.5 86,-97.5 209,-97.5 209,-67.5 86,-67.5"/>
<text text-anchor="start" x="94" y="-85.5" font-family="Helvetica,sans-Serif" font-size="10.00">ErrorDiffusionToAdjacent</text>
<text text-anchor="middle" x="147.5" y="-74.5" font-family="Helvetica,sans-Serif" font-size="10.00">Neighbors</text>
</a>
</g>
</g>
<!-- Node2&#45;&gt;Node1 -->
<g id="edge1" class="edge"><title>Node2&#45;&gt;Node1</title>
<path fill="none" stroke="midnightblue" d="M147.5,-57.1081C147.5,-48.1539 147.5,-38.3227 147.5,-30.5765"/>
<polygon fill="midnightblue" stroke="midnightblue" points="144,-57.3959 147.5,-67.396 151,-57.396 144,-57.3959"/>
</g>
<!-- Node3 -->
<g id="node3" class="node"><title>Node3</title>
<g id="a_node3"><a xlink:href="../../d2/db9/classAForge_1_1Imaging_1_1Filters_1_1ErrorDiffusionDithering.html" target="_top" xlink:title="Base class for error diffusion dithering.">
<polygon fill="white" stroke="black" points="91,-134.5 91,-153.5 204,-153.5 204,-134.5 91,-134.5"/>
<text text-anchor="middle" x="147.5" y="-141.5" font-family="Helvetica,sans-Serif" font-size="10.00">ErrorDiffusionDithering</text>
</a>
</g>
</g>
<!-- Node3&#45;&gt;Node2 -->
<g id="edge2" class="edge"><title>Node3&#45;&gt;Node2</title>
<path fill="none" stroke="midnightblue" d="M147.5,-124.235C147.5,-115.586 147.5,-105.497 147.5,-97.523"/>
<polygon fill="midnightblue" stroke="midnightblue" points="144,-124.475 147.5,-134.475 151,-124.475 144,-124.475"/>
</g>
<!-- Node4 -->
<g id="node4" class="node"><title>Node4</title>
<g id="a_node4"><a xlink:href="../../db/dc9/classAForge_1_1Imaging_1_1Filters_1_1BaseInPlacePartialFilter.html" target="_top" xlink:title="Base class for filters, which may be applied directly to the source image or its part.">
<polygon fill="white" stroke="black" points="87,-190.5 87,-209.5 208,-209.5 208,-190.5 87,-190.5"/>
<text text-anchor="middle" x="147.5" y="-197.5" font-family="Helvetica,sans-Serif" font-size="10.00">BaseInPlacePartialFilter</text>
</a>
</g>
</g>
<!-- Node4&#45;&gt;Node3 -->
<g id="edge3" class="edge"><title>Node4&#45;&gt;Node3</title>
<path fill="none" stroke="midnightblue" d="M147.5,-179.805C147.5,-170.91 147.5,-160.78 147.5,-153.751"/>
<polygon fill="midnightblue" stroke="midnightblue" points="144,-180.083 147.5,-190.083 151,-180.083 144,-180.083"/>
</g>
<!-- Node5 -->
<g id="node5" class="node"><title>Node5</title>
<g id="a_node5"><a xlink:href="../../dd/d51/interfaceAForge_1_1Imaging_1_1Filters_1_1IFilter.html" target="_top" xlink:title="Image processing filter interface.">
<polygon fill="white" stroke="black" points="0,-246.5 0,-265.5 41,-265.5 41,-246.5 0,-246.5"/>
<text text-anchor="middle" x="20.5" y="-253.5" font-family="Helvetica,sans-Serif" font-size="10.00">IFilter</text>
</a>
</g>
</g>
<!-- Node5&#45;&gt;Node4 -->
<g id="edge4" class="edge"><title>Node5&#45;&gt;Node4</title>
<path fill="none" stroke="midnightblue" d="M49.8912,-242.503C73.7,-232.38 106.606,-218.388 127.471,-209.516"/>
<polygon fill="midnightblue" stroke="midnightblue" points="48.4566,-239.31 40.6235,-246.444 51.1957,-245.751 48.4566,-239.31"/>
</g>
<!-- Node6 -->
<g id="node6" class="node"><title>Node6</title>
<g id="a_node6"><a xlink:href="../../de/d9b/interfaceAForge_1_1Imaging_1_1Filters_1_1IInPlaceFilter.html" target="_top" xlink:title="In&#45;place filter interface.">
<polygon fill="white" stroke="black" points="59,-246.5 59,-265.5 132,-265.5 132,-246.5 59,-246.5"/>
<text text-anchor="middle" x="95.5" y="-253.5" font-family="Helvetica,sans-Serif" font-size="10.00">IInPlaceFilter</text>
</a>
</g>
</g>
<!-- Node6&#45;&gt;Node4 -->
<g id="edge5" class="edge"><title>Node6&#45;&gt;Node4</title>
<path fill="none" stroke="midnightblue" d="M111.179,-238.718C120.345,-229.2 131.553,-217.561 139.073,-209.751"/>
<polygon fill="midnightblue" stroke="midnightblue" points="108.502,-236.452 104.087,-246.083 113.544,-241.308 108.502,-236.452"/>
</g>
<!-- Node7 -->
<g id="node7" class="node"><title>Node7</title>
<g id="a_node7"><a xlink:href="../../d2/d66/interfaceAForge_1_1Imaging_1_1Filters_1_1IInPlacePartialFilter.html" target="_top" xlink:title="In&#45;place partial filter interface.">
<polygon fill="white" stroke="black" points="150,-246.5 150,-265.5 251,-265.5 251,-246.5 150,-246.5"/>
<text text-anchor="middle" x="200.5" y="-253.5" font-family="Helvetica,sans-Serif" font-size="10.00">IInPlacePartialFilter</text>
</a>
</g>
</g>
<!-- Node7&#45;&gt;Node4 -->
<g id="edge6" class="edge"><title>Node7&#45;&gt;Node4</title>
<path fill="none" stroke="midnightblue" d="M184.519,-238.718C175.178,-229.2 163.754,-217.561 156.089,-209.751"/>
<polygon fill="midnightblue" stroke="midnightblue" points="182.246,-241.398 191.748,-246.083 187.241,-236.494 182.246,-241.398"/>
</g>
<!-- Node8 -->
<g id="node8" class="node"><title>Node8</title>
<g id="a_node8"><a xlink:href="../../d7/dec/interfaceAForge_1_1Imaging_1_1Filters_1_1IFilterInformation.html" target="_top" xlink:title="Interface which provides information about image processing filter.">
<polygon fill="white" stroke="black" points="269.5,-246.5 269.5,-265.5 357.5,-265.5 357.5,-246.5 269.5,-246.5"/>
<text text-anchor="middle" x="313.5" y="-253.5" font-family="Helvetica,sans-Serif" font-size="10.00">IFilterInformation</text>
</a>
</g>
</g>
<!-- Node8&#45;&gt;Node4 -->
<g id="edge7" class="edge"><title>Node8&#45;&gt;Node4</title>
<path fill="none" stroke="midnightblue" d="M277.547,-243.304C246.268,-233.129 201.679,-218.625 173.68,-209.516"/>
<polygon fill="midnightblue" stroke="midnightblue" points="276.605,-246.678 287.197,-246.444 278.77,-240.022 276.605,-246.678"/>
</g>
</g>
</svg>
