<?xml version="1.0" encoding="UTF-8" standalone="no"?>
<!DOCTYPE svg PUBLIC "-//W3C//DTD SVG 1.1//EN"
 "http://www.w3.org/Graphics/SVG/1.1/DTD/svg11.dtd">
<!-- Generated by graphviz version 2.38.0 (20140413.2041)
 -->
<!-- Title: NUnit.Framework.Constraints.FileOrDirectoryExistsConstraint Pages: 1 -->
<svg width="162pt" height="207pt"
 viewBox="0.00 0.00 162.00 207.00" xmlns="http://www.w3.org/2000/svg" xmlns:xlink="http://www.w3.org/1999/xlink">
<g id="graph0" class="graph" transform="scale(1 1) rotate(0) translate(4 203)">
<title>NUnit.Framework.Constraints.FileOrDirectoryExistsConstraint</title>
<polygon fill="white" stroke="none" points="-4,4 -4,-203 158,-203 158,4 -4,4"/>
<!-- Node1 -->
<g id="node1" class="node"><title>Node1</title>
<g id="a_node1"><a xlink:title="FileOrDirectoryExistsConstraint is used to determine if a file or directory exists">
<polygon fill="#bfbfbf" stroke="black" points="0,-0.5 0,-30.5 154,-30.5 154,-0.5 0,-0.5"/>
<text text-anchor="start" x="8" y="-18.5" font-family="Helvetica,sans-Serif" font-size="10.00">NUnit.Framework.Constraints.</text>
<text text-anchor="middle" x="77" y="-7.5" font-family="Helvetica,sans-Serif" font-size="10.00">FileOrDirectoryExistsConstraint</text>
</a>
</g>
</g>
<!-- Node2 -->
<g id="node2" class="node"><title>Node2</title>
<g id="a_node2"><a xlink:href="../../d9/da9/classNUnit_1_1Framework_1_1Constraints_1_1Constraint.html" target="_top" xlink:title="The Constraint class is the base of all built&#45;in constraints within NUnit. It provides the operator o...">
<polygon fill="white" stroke="black" points="46.5,-67.5 46.5,-86.5 107.5,-86.5 107.5,-67.5 46.5,-67.5"/>
<text text-anchor="middle" x="77" y="-74.5" font-family="Helvetica,sans-Serif" font-size="10.00">Constraint</text>
</a>
</g>
</g>
<!-- Node2&#45;&gt;Node1 -->
<g id="edge1" class="edge"><title>Node2&#45;&gt;Node1</title>
<path fill="none" stroke="midnightblue" d="M77,-57.2349C77,-48.5864 77,-38.4969 77,-30.523"/>
<polygon fill="midnightblue" stroke="midnightblue" points="73.5001,-57.4751 77,-67.4751 80.5001,-57.4751 73.5001,-57.4751"/>
</g>
<!-- Node3 -->
<g id="node3" class="node"><title>Node3</title>
<g id="a_node3"><a xlink:href="../../d1/d94/interfaceNUnit_1_1Framework_1_1Constraints_1_1IConstraint.html" target="_top" xlink:title="Interface for all constraints">
<polygon fill="white" stroke="black" points="45.5,-123.5 45.5,-142.5 108.5,-142.5 108.5,-123.5 45.5,-123.5"/>
<text text-anchor="middle" x="77" y="-130.5" font-family="Helvetica,sans-Serif" font-size="10.00">IConstraint</text>
</a>
</g>
</g>
<!-- Node3&#45;&gt;Node2 -->
<g id="edge2" class="edge"><title>Node3&#45;&gt;Node2</title>
<path fill="none" stroke="midnightblue" d="M77,-112.805C77,-103.91 77,-93.7798 77,-86.7511"/>
<polygon fill="midnightblue" stroke="midnightblue" points="73.5001,-113.083 77,-123.083 80.5001,-113.083 73.5001,-113.083"/>
</g>
<!-- Node4 -->
<g id="node4" class="node"><title>Node4</title>
<g id="a_node4"><a xlink:href="../../d7/d29/interfaceNUnit_1_1Framework_1_1Constraints_1_1IResolveConstraint.html" target="_top" xlink:title="The IResolveConstraint interface is implemented by all complete and resolvable constraints and expres...">
<polygon fill="white" stroke="black" points="28.5,-179.5 28.5,-198.5 125.5,-198.5 125.5,-179.5 28.5,-179.5"/>
<text text-anchor="middle" x="77" y="-186.5" font-family="Helvetica,sans-Serif" font-size="10.00">IResolveConstraint</text>
</a>
</g>
</g>
<!-- Node4&#45;&gt;Node3 -->
<g id="edge3" class="edge"><title>Node4&#45;&gt;Node3</title>
<path fill="none" stroke="midnightblue" d="M77,-168.805C77,-159.91 77,-149.78 77,-142.751"/>
<polygon fill="midnightblue" stroke="midnightblue" points="73.5001,-169.083 77,-179.083 80.5001,-169.083 73.5001,-169.083"/>
</g>
</g>
</svg>
