<?xml version="1.0" encoding="UTF-8" standalone="no"?>
<!DOCTYPE svg PUBLIC "-//W3C//DTD SVG 1.1//EN"
 "http://www.w3.org/Graphics/SVG/1.1/DTD/svg11.dtd">
<!-- Generated by graphviz version 2.38.0 (20140413.2041)
 -->
<!-- Title: AForge.Imaging.Filters.CanvasMove Pages: 1 -->
<svg width="270pt" height="152pt"
 viewBox="0.00 0.00 269.50 152.00" xmlns="http://www.w3.org/2000/svg" xmlns:xlink="http://www.w3.org/1999/xlink">
<g id="graph0" class="graph" transform="scale(1 1) rotate(0) translate(4 148)">
<title>AForge.Imaging.Filters.CanvasMove</title>
<polygon fill="white" stroke="none" points="-4,4 -4,-148 265.5,-148 265.5,4 -4,4"/>
<!-- Node1 -->
<g id="node1" class="node"><title>Node1</title>
<g id="a_node1"><a xlink:title="Move canvas to the specified point.">
<polygon fill="#bfbfbf" stroke="black" points="89.5,-0.5 89.5,-19.5 261.5,-19.5 261.5,-0.5 89.5,-0.5"/>
<text text-anchor="middle" x="175.5" y="-7.5" font-family="Helvetica,sans-Serif" font-size="10.00">AForge.Imaging.Filters.CanvasMove</text>
</a>
</g>
</g>
<!-- Node2 -->
<g id="node2" class="node"><title>Node2</title>
<g id="a_node2"><a xlink:href="../../d6/d11/classAForge_1_1Imaging_1_1Filters_1_1BaseInPlaceFilter.html" target="_top" xlink:title="Base class for filters, which may be applied directly to the source image.">
<polygon fill="white" stroke="black" points="49,-67.5 49,-86.5 142,-86.5 142,-67.5 49,-67.5"/>
<text text-anchor="middle" x="95.5" y="-74.5" font-family="Helvetica,sans-Serif" font-size="10.00">BaseInPlaceFilter</text>
</a>
</g>
</g>
<!-- Node2&#45;&gt;Node1 -->
<g id="edge1" class="edge"><title>Node2&#45;&gt;Node1</title>
<path fill="none" stroke="midnightblue" d="M114.314,-60.7134C130.076,-47.907 152.007,-30.0884 164.882,-19.6273"/>
<polygon fill="midnightblue" stroke="midnightblue" points="111.843,-58.2114 106.289,-67.2338 116.257,-63.6443 111.843,-58.2114"/>
</g>
<!-- Node3 -->
<g id="node3" class="node"><title>Node3</title>
<g id="a_node3"><a xlink:href="../../dd/d51/interfaceAForge_1_1Imaging_1_1Filters_1_1IFilter.html" target="_top" xlink:title="Image processing filter interface.">
<polygon fill="white" stroke="black" points="0,-124.5 0,-143.5 41,-143.5 41,-124.5 0,-124.5"/>
<text text-anchor="middle" x="20.5" y="-131.5" font-family="Helvetica,sans-Serif" font-size="10.00">IFilter</text>
</a>
</g>
</g>
<!-- Node3&#45;&gt;Node2 -->
<g id="edge2" class="edge"><title>Node3&#45;&gt;Node2</title>
<path fill="none" stroke="midnightblue" d="M40.5632,-118.287C54.3052,-108.21 72.0658,-95.1851 83.616,-86.7149"/>
<polygon fill="midnightblue" stroke="midnightblue" points="38.213,-115.67 32.2188,-124.406 42.3526,-121.315 38.213,-115.67"/>
</g>
<!-- Node4 -->
<g id="node4" class="node"><title>Node4</title>
<g id="a_node4"><a xlink:href="../../de/d9b/interfaceAForge_1_1Imaging_1_1Filters_1_1IInPlaceFilter.html" target="_top" xlink:title="In&#45;place filter interface.">
<polygon fill="white" stroke="black" points="59,-124.5 59,-143.5 132,-143.5 132,-124.5 59,-124.5"/>
<text text-anchor="middle" x="95.5" y="-131.5" font-family="Helvetica,sans-Serif" font-size="10.00">IInPlaceFilter</text>
</a>
</g>
</g>
<!-- Node4&#45;&gt;Node2 -->
<g id="edge3" class="edge"><title>Node4&#45;&gt;Node2</title>
<path fill="none" stroke="midnightblue" d="M95.5,-114.117C95.5,-104.817 95.5,-94.0557 95.5,-86.7149"/>
<polygon fill="midnightblue" stroke="midnightblue" points="92.0001,-114.406 95.5,-124.406 99.0001,-114.406 92.0001,-114.406"/>
</g>
<!-- Node5 -->
<g id="node5" class="node"><title>Node5</title>
<g id="a_node5"><a xlink:href="../../d7/dec/interfaceAForge_1_1Imaging_1_1Filters_1_1IFilterInformation.html" target="_top" xlink:title="Interface which provides information about image processing filter.">
<polygon fill="white" stroke="black" points="150.5,-124.5 150.5,-143.5 238.5,-143.5 238.5,-124.5 150.5,-124.5"/>
<text text-anchor="middle" x="194.5" y="-131.5" font-family="Helvetica,sans-Serif" font-size="10.00">IFilterInformation</text>
</a>
</g>
</g>
<!-- Node5&#45;&gt;Node2 -->
<g id="edge4" class="edge"><title>Node5&#45;&gt;Node2</title>
<path fill="none" stroke="midnightblue" d="M170.264,-119.535C151.726,-109.236 126.729,-95.3496 110.86,-86.5334"/>
<polygon fill="midnightblue" stroke="midnightblue" points="168.59,-122.609 179.031,-124.406 171.989,-116.49 168.59,-122.609"/>
</g>
<!-- Node6 -->
<g id="node6" class="node"><title>Node6</title>
<g id="a_node6"><a xlink:href="../../dc/d3d/structAForge_1_1IntPoint.html" target="_top" xlink:title="Structure for representing a pair of coordinates of integer type.">
<polygon fill="white" stroke="black" points="160.5,-67.5 160.5,-86.5 244.5,-86.5 244.5,-67.5 160.5,-67.5"/>
<text text-anchor="middle" x="202.5" y="-74.5" font-family="Helvetica,sans-Serif" font-size="10.00">AForge.IntPoint</text>
</a>
</g>
</g>
<!-- Node6&#45;&gt;Node1 -->
<g id="edge5" class="edge"><title>Node6&#45;&gt;Node1</title>
<path fill="none" stroke="#9a32cd" stroke-dasharray="5,2" d="M194.936,-57.79C189.751,-45.3076 183.107,-29.3135 179.084,-19.6273"/>
<polygon fill="#9a32cd" stroke="#9a32cd" points="191.79,-59.3415 198.859,-67.2338 198.255,-56.6562 191.79,-59.3415"/>
<text text-anchor="middle" x="216" y="-41" font-family="Helvetica,sans-Serif" font-size="10.00"> movePoint</text>
</g>
</g>
</svg>
