<?xml version="1.0" encoding="UTF-8" standalone="no"?>
<!DOCTYPE svg PUBLIC "-//W3C//DTD SVG 1.1//EN"
 "http://www.w3.org/Graphics/SVG/1.1/DTD/svg11.dtd">
<!-- Generated by graphviz version 2.38.0 (20140413.2041)
 -->
<!-- Title: CShell.Modules.Shell.ViewModels.StatusBarViewModel Pages: 1 -->
<svg width="202pt" height="95pt"
 viewBox="0.00 0.00 202.00 95.00" xmlns="http://www.w3.org/2000/svg" xmlns:xlink="http://www.w3.org/1999/xlink">
<g id="graph0" class="graph" transform="scale(1 1) rotate(0) translate(4 91)">
<title>CShell.Modules.Shell.ViewModels.StatusBarViewModel</title>
<polygon fill="white" stroke="none" points="-4,4 -4,-91 198,-91 198,4 -4,4"/>
<!-- Node1 -->
<g id="node1" class="node"><title>Node1</title>
<g id="a_node1"><a xlink:title=" ">
<polygon fill="#bfbfbf" stroke="black" points="39,-0.5 39,-30.5 181,-30.5 181,-0.5 39,-0.5"/>
<text text-anchor="start" x="47" y="-18.5" font-family="Helvetica,sans-Serif" font-size="10.00">CShell.Modules.Shell.View</text>
<text text-anchor="middle" x="110" y="-7.5" font-family="Helvetica,sans-Serif" font-size="10.00">Models.StatusBarViewModel</text>
</a>
</g>
</g>
<!-- Node2 -->
<g id="node2" class="node"><title>Node2</title>
<g id="a_node2"><a xlink:title=" ">
<polygon fill="white" stroke="#bfbfbf" points="0,-67.5 0,-86.5 114,-86.5 114,-67.5 0,-67.5"/>
<text text-anchor="middle" x="57" y="-74.5" font-family="Helvetica,sans-Serif" font-size="10.00">PropertyChangedBase</text>
</a>
</g>
</g>
<!-- Node2&#45;&gt;Node1 -->
<g id="edge1" class="edge"><title>Node2&#45;&gt;Node1</title>
<path fill="none" stroke="midnightblue" d="M71.4206,-59.8108C79.5819,-50.6486 89.6879,-39.3032 97.5089,-30.523"/>
<polygon fill="midnightblue" stroke="midnightblue" points="68.6315,-57.6799 64.5936,-67.4751 73.8586,-62.3359 68.6315,-57.6799"/>
</g>
<!-- Node3 -->
<g id="node3" class="node"><title>Node3</title>
<g id="a_node3"><a xlink:href="../../de/d9d/interfaceCShell_1_1Framework_1_1Services_1_1IStatusBar.html" target="_top" xlink:title=" ">
<polygon fill="white" stroke="black" points="132,-67.5 132,-86.5 194,-86.5 194,-67.5 132,-67.5"/>
<text text-anchor="middle" x="163" y="-74.5" font-family="Helvetica,sans-Serif" font-size="10.00">IStatusBar</text>
</a>
</g>
</g>
<!-- Node3&#45;&gt;Node1 -->
<g id="edge2" class="edge"><title>Node3&#45;&gt;Node1</title>
<path fill="none" stroke="midnightblue" d="M148.579,-59.8108C140.418,-50.6486 130.312,-39.3032 122.491,-30.523"/>
<polygon fill="midnightblue" stroke="midnightblue" points="146.141,-62.3359 155.406,-67.4751 151.368,-57.6799 146.141,-62.3359"/>
</g>
</g>
</svg>
