<?xml version="1.0" encoding="UTF-8" standalone="no"?>
<!DOCTYPE svg PUBLIC "-//W3C//DTD SVG 1.1//EN"
 "http://www.w3.org/Graphics/SVG/1.1/DTD/svg11.dtd">
<!-- Generated by graphviz version 2.38.0 (20140413.2041)
 -->
<!-- Title: CShell.Modules.Shell.ViewModels.ToolBarViewModel Pages: 1 -->
<svg width="207pt" height="229pt"
 viewBox="0.00 0.00 207.00 229.00" xmlns="http://www.w3.org/2000/svg" xmlns:xlink="http://www.w3.org/1999/xlink">
<g id="graph0" class="graph" transform="scale(1 1) rotate(0) translate(4 225)">
<title>CShell.Modules.Shell.ViewModels.ToolBarViewModel</title>
<polygon fill="white" stroke="none" points="-4,4 -4,-225 203,-225 203,4 -4,4"/>
<!-- Node1 -->
<g id="node1" class="node"><title>Node1</title>
<g id="a_node1"><a xlink:title=" ">
<polygon fill="#bfbfbf" stroke="black" points="30,-0.5 30,-30.5 164,-30.5 164,-0.5 30,-0.5"/>
<text text-anchor="start" x="38" y="-18.5" font-family="Helvetica,sans-Serif" font-size="10.00">CShell.Modules.Shell.View</text>
<text text-anchor="middle" x="97" y="-7.5" font-family="Helvetica,sans-Serif" font-size="10.00">Models.ToolBarViewModel</text>
</a>
</g>
</g>
<!-- Node2 -->
<g id="node2" class="node"><title>Node2</title>
<g id="a_node2"><a xlink:href="../../d5/d58/classCShell_1_1Framework_1_1Menus_1_1ToolBarModel.html" target="_top" xlink:title=" ">
<polygon fill="white" stroke="black" points="59,-67.5 59,-86.5 135,-86.5 135,-67.5 59,-67.5"/>
<text text-anchor="middle" x="97" y="-74.5" font-family="Helvetica,sans-Serif" font-size="10.00">ToolBarModel</text>
</a>
</g>
</g>
<!-- Node2&#45;&gt;Node1 -->
<g id="edge1" class="edge"><title>Node2&#45;&gt;Node1</title>
<path fill="none" stroke="midnightblue" d="M97,-57.2349C97,-48.5864 97,-38.4969 97,-30.523"/>
<polygon fill="midnightblue" stroke="midnightblue" points="93.5001,-57.4751 97,-67.4751 100.5,-57.4751 93.5001,-57.4751"/>
</g>
<!-- Node3 -->
<g id="node3" class="node"><title>Node3</title>
<g id="a_node3"><a xlink:title=" ">
<polygon fill="white" stroke="#bfbfbf" points="0,-123.5 0,-153.5 100,-153.5 100,-123.5 0,-123.5"/>
<text text-anchor="start" x="8" y="-141.5" font-family="Helvetica,sans-Serif" font-size="10.00">BindableCollection</text>
<text text-anchor="middle" x="50" y="-130.5" font-family="Helvetica,sans-Serif" font-size="10.00">&lt; MenuItemBase &gt;</text>
</a>
</g>
</g>
<!-- Node3&#45;&gt;Node2 -->
<g id="edge2" class="edge"><title>Node3&#45;&gt;Node2</title>
<path fill="none" stroke="midnightblue" d="M67.4538,-115.404C75.3476,-105.411 84.218,-94.1815 90.1611,-86.6578"/>
<polygon fill="midnightblue" stroke="midnightblue" points="64.5905,-113.383 61.1383,-123.399 70.0835,-117.722 64.5905,-113.383"/>
</g>
<!-- Node4 -->
<g id="node4" class="node"><title>Node4</title>
<g id="a_node4"><a xlink:href="../../df/db0/interfaceCShell_1_1Framework_1_1Menus_1_1IToolBar.html" target="_top" xlink:title=" ">
<polygon fill="white" stroke="black" points="118,-129 118,-148 170,-148 170,-129 118,-129"/>
<text text-anchor="middle" x="144" y="-136" font-family="Helvetica,sans-Serif" font-size="10.00">IToolBar</text>
</a>
</g>
</g>
<!-- Node4&#45;&gt;Node2 -->
<g id="edge3" class="edge"><title>Node4&#45;&gt;Node2</title>
<path fill="none" stroke="midnightblue" d="M130.838,-120.838C122.016,-109.669 110.767,-95.4278 103.721,-86.5091"/>
<polygon fill="midnightblue" stroke="midnightblue" points="128.321,-123.297 137.266,-128.975 133.814,-118.958 128.321,-123.297"/>
</g>
<!-- Node5 -->
<g id="node5" class="node"><title>Node5</title>
<g id="a_node5"><a xlink:title=" ">
<polygon fill="white" stroke="#bfbfbf" points="89,-190.5 89,-220.5 199,-220.5 199,-190.5 89,-190.5"/>
<text text-anchor="start" x="97" y="-208.5" font-family="Helvetica,sans-Serif" font-size="10.00">IObservableCollection</text>
<text text-anchor="middle" x="144" y="-197.5" font-family="Helvetica,sans-Serif" font-size="10.00">&lt; MenuItemBase &gt;</text>
</a>
</g>
</g>
<!-- Node5&#45;&gt;Node4 -->
<g id="edge4" class="edge"><title>Node5&#45;&gt;Node4</title>
<path fill="none" stroke="midnightblue" d="M144,-180.25C144,-169.017 144,-156.377 144,-148.195"/>
<polygon fill="midnightblue" stroke="midnightblue" points="140.5,-180.396 144,-190.396 147.5,-180.396 140.5,-180.396"/>
</g>
</g>
</svg>
