<?xml version="1.0" encoding="UTF-8" standalone="no"?>
<!DOCTYPE svg PUBLIC "-//W3C//DTD SVG 1.1//EN"
 "http://www.w3.org/Graphics/SVG/1.1/DTD/svg11.dtd">
<!-- Generated by graphviz version 2.38.0 (20140413.2041)
 -->
<!-- Title: NUnit.Framework.Internal.TestFixtureTests.FixtureNotNullTestAttribute Pages: 1 -->
<svg width="162pt" height="162pt"
 viewBox="0.00 0.00 162.00 162.00" xmlns="http://www.w3.org/2000/svg" xmlns:xlink="http://www.w3.org/1999/xlink">
<g id="graph0" class="graph" transform="scale(1 1) rotate(0) translate(4 158)">
<title>NUnit.Framework.Internal.TestFixtureTests.FixtureNotNullTestAttribute</title>
<polygon fill="white" stroke="none" points="-4,4 -4,-158 158,-158 158,4 -4,4"/>
<!-- Node1 -->
<g id="node1" class="node"><title>Node1</title>
<g id="a_node1"><a xlink:title=" ">
<polygon fill="#bfbfbf" stroke="black" points="0,-0.5 0,-41.5 154,-41.5 154,-0.5 0,-0.5"/>
<text text-anchor="start" x="8" y="-29.5" font-family="Helvetica,sans-Serif" font-size="10.00">NUnit.Framework.Internal.</text>
<text text-anchor="start" x="8" y="-18.5" font-family="Helvetica,sans-Serif" font-size="10.00">TestFixtureTests.FixtureNotNull</text>
<text text-anchor="middle" x="77" y="-7.5" font-family="Helvetica,sans-Serif" font-size="10.00">TestAttribute</text>
</a>
</g>
</g>
<!-- Node2 -->
<g id="node2" class="node"><title>Node2</title>
<g id="a_node2"><a xlink:href="../../d2/d86/classNUnit_1_1Framework_1_1TestActionAttribute.html" target="_top" xlink:title="Provide actions to execute before and after tests.">
<polygon fill="white" stroke="black" points="27,-78.5 27,-97.5 127,-97.5 127,-78.5 27,-78.5"/>
<text text-anchor="middle" x="77" y="-85.5" font-family="Helvetica,sans-Serif" font-size="10.00">TestActionAttribute</text>
</a>
</g>
</g>
<!-- Node2&#45;&gt;Node1 -->
<g id="edge1" class="edge"><title>Node2&#45;&gt;Node1</title>
<path fill="none" stroke="midnightblue" d="M77,-68.037C77,-59.7084 77,-49.9358 77,-41.5421"/>
<polygon fill="midnightblue" stroke="midnightblue" points="73.5001,-68.2338 77,-78.2338 80.5001,-68.2338 73.5001,-68.2338"/>
</g>
<!-- Node3 -->
<g id="node3" class="node"><title>Node3</title>
<g id="a_node3"><a xlink:title=" ">
<polygon fill="white" stroke="#bfbfbf" points="12.5,-134.5 12.5,-153.5 65.5,-153.5 65.5,-134.5 12.5,-134.5"/>
<text text-anchor="middle" x="39" y="-141.5" font-family="Helvetica,sans-Serif" font-size="10.00">Attribute</text>
</a>
</g>
</g>
<!-- Node3&#45;&gt;Node2 -->
<g id="edge2" class="edge"><title>Node3&#45;&gt;Node2</title>
<path fill="none" stroke="midnightblue" d="M51.0647,-125.855C57.6447,-116.505 65.511,-105.327 70.8418,-97.7511"/>
<polygon fill="midnightblue" stroke="midnightblue" points="48.1676,-123.891 45.2749,-134.083 53.8922,-127.919 48.1676,-123.891"/>
</g>
<!-- Node4 -->
<g id="node4" class="node"><title>Node4</title>
<g id="a_node4"><a xlink:href="../../d9/d1f/interfaceNUnit_1_1Framework_1_1ITestAction.html" target="_top" xlink:title="When implemented by an attribute, this interface implemented to provide actions to execute before and...">
<polygon fill="white" stroke="black" points="83.5,-134.5 83.5,-153.5 148.5,-153.5 148.5,-134.5 83.5,-134.5"/>
<text text-anchor="middle" x="116" y="-141.5" font-family="Helvetica,sans-Serif" font-size="10.00">ITestAction</text>
</a>
</g>
</g>
<!-- Node4&#45;&gt;Node2 -->
<g id="edge3" class="edge"><title>Node4&#45;&gt;Node2</title>
<path fill="none" stroke="midnightblue" d="M103.618,-125.855C96.8646,-116.505 88.7914,-105.327 83.3202,-97.7511"/>
<polygon fill="midnightblue" stroke="midnightblue" points="100.868,-128.025 109.56,-134.083 106.542,-123.927 100.868,-128.025"/>
</g>
</g>
</svg>
