<?xml version="1.0" encoding="UTF-8" standalone="no"?>
<!DOCTYPE svg PUBLIC "-//W3C//DTD SVG 1.1//EN"
 "http://www.w3.org/Graphics/SVG/1.1/DTD/svg11.dtd">
<!-- Generated by graphviz version 2.38.0 (20140413.2041)
 -->
<!-- Title: IG.Script.ScriptAppIgBaseExt Pages: 1 -->
<!--zoomable 932 -->
<svg id="main" version="1.1" xmlns="http://www.w3.org/2000/svg" xmlns:xlink="http://www.w3.org/1999/xlink" xml:space="preserve" onload="init(evt)">
<style type="text/css"><![CDATA[
.edge:hover path { stroke: red; }
.edge:hover polygon { stroke: red; fill: red; }
]]></style>
<script type="text/javascript"><![CDATA[
var edges = document.getElementsByTagName('g');
if (edges && edges.length) {
  for (var i=0;i<edges.length;i++) {
    if (edges[i].id.substr(0,4)=='edge') {
      edges[i].setAttribute('class','edge');
    }
  }
}
]]></script>
        <defs>
                <circle id="rim" cx="0" cy="0" r="7"/>
                <circle id="rim2" cx="0" cy="0" r="3.5"/>
                <g id="zoomPlus">
                        <use xlink:href="#rim" fill="#404040">
                                <set attributeName="fill" to="#808080" begin="zoomplus.mouseover" end="zoomplus.mouseout"/>
                        </use>
                        <path d="M-4,0h8M0,-4v8" fill="none" stroke="white" stroke-width="1.5" pointer-events="none"/>
                </g>
                <g id="zoomMin">
                        <use xlink:href="#rim" fill="#404040">
                                <set attributeName="fill" to="#808080" begin="zoomminus.mouseover" end="zoomminus.mouseout"/>
                        </use>
                        <path d="M-4,0h8" fill="none" stroke="white" stroke-width="1.5" pointer-events="none"/>
                </g>
                <g id="dirArrow">
                        <path fill="none" stroke="white" stroke-width="1.5" d="M0,-3.0v7 M-2.5,-0.5L0,-3.0L2.5,-0.5"/>
                </g>
               <g id="resetDef">
                       <use xlink:href="#rim2" fill="#404040">
                               <set attributeName="fill" to="#808080" begin="reset.mouseover" end="reset.mouseout"/>
                       </use>
               </g>
        </defs>

<script type="text/javascript">
var viewWidth = 1640;
var viewHeight = 932;
var sectionId = 'dynsection-1';
</script>
<script xlink:href="../../svgpan.js"/>
<svg id="graph" class="graph">
<g id="viewport">
<title>IG.Script.ScriptAppIgBaseExt</title>
<polygon fill="white" stroke="none" points="-4,4 -4,-928 1636,-928 1636,4 -4,4"/>
<!-- Node1 -->
<g id="node1" class="node"><title>Node1</title>
<g id="a_node1"><a xlink:title="Internal script interpreter for running embedded applications.">
<polygon fill="#bfbfbf" stroke="black" points="1486,-841.5 1486,-860.5 1632,-860.5 1632,-841.5 1486,-841.5"/>
<text text-anchor="middle" x="1559" y="-848.5" font-family="Helvetica,sans-Serif" font-size="10.00">IG.Script.ScriptAppIgBaseExt</text>
</a>
</g>
</g>
<!-- Node2 -->
<g id="node2" class="node"><title>Node2</title>
<g id="a_node2"><a xlink:href="../../d5/d63/classIG_1_1Script_1_1AppBase.html" target="_top" xlink:title="Base cls. for application scripts that can also be used on its own.">
<polygon fill="white" stroke="black" points="1007.5,-841.5 1007.5,-860.5 1063.5,-860.5 1063.5,-841.5 1007.5,-841.5"/>
<text text-anchor="middle" x="1035.5" y="-848.5" font-family="Helvetica,sans-Serif" font-size="10.00">AppBase</text>
</a>
</g>
</g>
<!-- Node2&#45;&gt;Node1 -->
<g id="edge1" class="edge"><title>Node2&#45;&gt;Node1</title>
<path fill="none" stroke="midnightblue" d="M1073.89,-851C1159.94,-851 1373.23,-851 1485.79,-851"/>
<polygon fill="midnightblue" stroke="midnightblue" points="1073.8,-847.5 1063.8,-851 1073.8,-854.5 1073.8,-847.5"/>
</g>
<!-- Node5 -->
<g id="node5" class="node"><title>Node5</title>
<g id="a_node5"><a xlink:href="../../d5/dc1/classIG_1_1Script_1_1AppEmbeddedCryptoIGShell.html" target="_top" xlink:title="Embedded script class for cryptographic utilities such as calculation and verification of file hashes...">
<polygon fill="white" stroke="black" points="1218,-734 1218,-764 1368,-764 1368,-734 1218,-734"/>
<text text-anchor="start" x="1226" y="-752" font-family="Helvetica,sans-Serif" font-size="10.00">IG.Script.AppEmbeddedCrypto</text>
<text text-anchor="middle" x="1293" y="-741" font-family="Helvetica,sans-Serif" font-size="10.00">IGShell</text>
</a>
</g>
</g>
<!-- Node2&#45;&gt;Node5 -->
<g id="edge6" class="edge"><title>Node2&#45;&gt;Node5</title>
<path fill="none" stroke="midnightblue" d="M1073.48,-846.136C1107.45,-840.758 1158.66,-830.328 1200,-812 1227.96,-799.604 1256.45,-778.511 1274.17,-764.179"/>
<polygon fill="midnightblue" stroke="midnightblue" points="1072.88,-842.686 1063.52,-847.645 1073.93,-849.607 1072.88,-842.686"/>
</g>
<!-- Node3 -->
<g id="node3" class="node"><title>Node3</title>
<g id="a_node3"><a xlink:href="../../db/da4/classIG_1_1Script_1_1ScriptAppBase.html" target="_top" xlink:title="Partial class definition containing tests of CSV utilities.">
<polygon fill="white" stroke="black" points="762.5,-904.5 762.5,-923.5 844.5,-923.5 844.5,-904.5 762.5,-904.5"/>
<text text-anchor="middle" x="803.5" y="-911.5" font-family="Helvetica,sans-Serif" font-size="10.00">ScriptAppBase</text>
</a>
</g>
</g>
<!-- Node3&#45;&gt;Node2 -->
<g id="edge2" class="edge"><title>Node3&#45;&gt;Node2</title>
<path fill="none" stroke="midnightblue" d="M849.317,-901.724C896.175,-888.889 968.203,-869.16 1007.18,-858.483"/>
<polygon fill="midnightblue" stroke="midnightblue" points="848.152,-898.414 839.432,-904.432 850.001,-905.165 848.152,-898.414"/>
</g>
<!-- Node4 -->
<g id="node4" class="node"><title>Node4</title>
<g id="a_node4"><a xlink:href="../../d7/d66/interfaceIG_1_1Lib_1_1ILoadableScript.html" target="_top" xlink:title="Interface for classes that can be dynamically loadeded from scripts and run, which provides functiona...">
<polygon fill="white" stroke="black" points="762,-841.5 762,-860.5 845,-860.5 845,-841.5 762,-841.5"/>
<text text-anchor="middle" x="803.5" y="-848.5" font-family="Helvetica,sans-Serif" font-size="10.00">ILoadableScript</text>
</a>
</g>
</g>
<!-- Node4&#45;&gt;Node1 -->
<g id="edge4" class="edge"><title>Node4&#45;&gt;Node1</title>
<path fill="none" stroke="midnightblue" d="M855.335,-860.877C864.832,-862.459 874.696,-863.926 884,-865 923.797,-869.593 933.954,-868.888 974,-870 1106.31,-873.672 1424.3,-868.675 1468,-865 1479.98,-863.993 1492.77,-862.35 1504.85,-860.537"/>
<polygon fill="midnightblue" stroke="midnightblue" points="855.666,-857.382 845.216,-859.128 854.474,-864.28 855.666,-857.382"/>
</g>
<!-- Node4&#45;&gt;Node2 -->
<g id="edge3" class="edge"><title>Node4&#45;&gt;Node2</title>
<path fill="none" stroke="midnightblue" d="M855.34,-851C902.197,-851 969.952,-851 1007.27,-851"/>
<polygon fill="midnightblue" stroke="midnightblue" points="855.09,-847.5 845.09,-851 855.09,-854.5 855.09,-847.5"/>
</g>
<!-- Node4&#45;&gt;Node5 -->
<g id="edge7" class="edge"><title>Node4&#45;&gt;Node5</title>
<path fill="none" stroke="midnightblue" d="M855.403,-845.287C931.336,-836.084 1078.37,-815.633 1200,-783 1218.75,-777.97 1239.04,-770.677 1255.79,-764.135"/>
<polygon fill="midnightblue" stroke="midnightblue" points="854.684,-841.848 845.17,-846.511 855.515,-848.798 854.684,-841.848"/>
</g>
<!-- Node5&#45;&gt;Node1 -->
<g id="edge5" class="edge"><title>Node5&#45;&gt;Node1</title>
<path fill="none" stroke="#9a32cd" stroke-dasharray="5,2" d="M1342.37,-767.688C1398.71,-789.455 1489.6,-824.573 1533.16,-841.404"/>
<polygon fill="#9a32cd" stroke="#9a32cd" points="1343.54,-764.39 1332.95,-764.05 1341.02,-770.919 1343.54,-764.39"/>
<text text-anchor="middle" x="1427" y="-819" font-family="Helvetica,sans-Serif" font-size="10.00"> _embeddedCrypto</text>
</g>
<!-- Node6 -->
<g id="node6" class="node"><title>Node6</title>
<g id="a_node6"><a xlink:href="../../d3/db6/interfaceIG_1_1Lib_1_1ILockable.html" target="_top" xlink:title="Lockable object, has a Lock property that returns object on which lock must be performed in order to ...">
<polygon fill="white" stroke="black" points="1006.5,-674.5 1006.5,-693.5 1064.5,-693.5 1064.5,-674.5 1006.5,-674.5"/>
<text text-anchor="middle" x="1035.5" y="-681.5" font-family="Helvetica,sans-Serif" font-size="10.00">ILockable</text>
</a>
</g>
</g>
<!-- Node6&#45;&gt;Node5 -->
<g id="edge8" class="edge"><title>Node6&#45;&gt;Node5</title>
<path fill="none" stroke="midnightblue" d="M1074.81,-689.815C1108.19,-695.279 1157.73,-704.354 1200,-716 1218,-720.958 1237.51,-727.748 1253.92,-733.88"/>
<polygon fill="midnightblue" stroke="midnightblue" points="1075,-686.3 1064.57,-688.169 1073.89,-693.212 1075,-686.3"/>
</g>
<!-- Node7 -->
<g id="node7" class="node"><title>Node7</title>
<g id="a_node7"><a xlink:href="../../db/da4/classIG_1_1Script_1_1ScriptAppBase.html" target="_top" xlink:title="Partial class definition containing tests of CSV utilities.">
<polygon fill="white" stroke="black" points="974,-636.5 974,-655.5 1097,-655.5 1097,-636.5 974,-636.5"/>
<text text-anchor="middle" x="1035.5" y="-643.5" font-family="Helvetica,sans-Serif" font-size="10.00">IG.Script.ScriptAppBase</text>
</a>
</g>
</g>
<!-- Node7&#45;&gt;Node5 -->
<g id="edge9" class="edge"><title>Node7&#45;&gt;Node5</title>
<path fill="none" stroke="#9a32cd" stroke-dasharray="5,2" d="M1107.59,-655.704C1137.05,-661.335 1171.03,-669.979 1200,-683 1228.87,-695.975 1257.81,-718.734 1275.32,-733.839"/>
<polygon fill="#9a32cd" stroke="#9a32cd" points="1107.84,-652.192 1097.37,-653.835 1106.58,-659.077 1107.84,-652.192"/>
<text text-anchor="middle" x="1157.5" y="-686" font-family="Helvetica,sans-Serif" font-size="10.00"> _wrappedAppBase</text>
</g>
<!-- Node8 -->
<g id="node8" class="node"><title>Node8</title>
<g id="a_node8"><a xlink:href="../../d4/d4e/classIG_1_1Forms_1_1HashAllForm.html" target="_top" xlink:title=" ">
<polygon fill="white" stroke="black" points="977.5,-522.5 977.5,-541.5 1093.5,-541.5 1093.5,-522.5 977.5,-522.5"/>
<text text-anchor="middle" x="1035.5" y="-529.5" font-family="Helvetica,sans-Serif" font-size="10.00">IG.Forms.HashAllForm</text>
</a>
</g>
</g>
<!-- Node8&#45;&gt;Node5 -->
<g id="edge10" class="edge"><title>Node8&#45;&gt;Node5</title>
<path fill="none" stroke="#9a32cd" stroke-dasharray="5,2" d="M1062.53,-546.78C1096.1,-566.465 1155.45,-603.433 1200,-643 1232.61,-671.964 1264.6,-712.248 1280.89,-733.861"/>
<polygon fill="#9a32cd" stroke="#9a32cd" points="1064.19,-543.694 1053.78,-541.698 1060.67,-549.747 1064.19,-543.694"/>
<text text-anchor="middle" x="1157.5" y="-646" font-family="Helvetica,sans-Serif" font-size="10.00"> hashAllForm</text>
</g>
<!-- Node9 -->
<g id="node9" class="node"><title>Node9</title>
<g id="a_node9"><a xlink:title=" ">
<polygon fill="white" stroke="#bfbfbf" points="14.5,-759.5 14.5,-778.5 53.5,-778.5 53.5,-759.5 14.5,-759.5"/>
<text text-anchor="middle" x="34" y="-766.5" font-family="Helvetica,sans-Serif" font-size="10.00">Form</text>
</a>
</g>
</g>
<!-- Node9&#45;&gt;Node8 -->
<g id="edge11" class="edge"><title>Node9&#45;&gt;Node8</title>
<path fill="none" stroke="midnightblue" d="M63.4302,-778.249C70.7088,-780.216 78.5783,-782 86,-783 147.665,-791.31 163.793,-784.396 226,-783 448.437,-778.009 514.894,-801.707 723,-723 850.273,-674.864 982.956,-573.3 1022.63,-541.636"/>
<polygon fill="midnightblue" stroke="midnightblue" points="64.2215,-774.834 53.6423,-775.409 62.2711,-781.557 64.2215,-774.834"/>
</g>
<!-- Node16 -->
<g id="node16" class="node"><title>Node16</title>
<g id="a_node16"><a xlink:href="../../da/df7/classIG_1_1Forms_1_1HashAboutForm.html" target="_top" xlink:title=" ">
<polygon fill="white" stroke="black" points="244,-592.5 244,-611.5 375,-611.5 375,-592.5 244,-592.5"/>
<text text-anchor="middle" x="309.5" y="-599.5" font-family="Helvetica,sans-Serif" font-size="10.00">IG.Forms.HashAboutForm</text>
</a>
</g>
</g>
<!-- Node9&#45;&gt;Node16 -->
<g id="edge21" class="edge"><title>Node9&#45;&gt;Node16</title>
<path fill="none" stroke="midnightblue" d="M48.2521,-751.159C57.8201,-739.098 71.553,-723.36 86,-712 141.488,-668.368 164.748,-672.085 226,-637 234.135,-632.34 235.568,-630.098 244,-626 255.176,-620.568 267.916,-615.589 279.106,-611.591"/>
<polygon fill="midnightblue" stroke="midnightblue" points="45.4047,-749.12 42.0705,-759.176 50.9483,-753.394 45.4047,-749.12"/>
</g>
<!-- Node18 -->
<g id="node18" class="node"><title>Node18</title>
<g id="a_node18"><a xlink:href="../../df/d8d/classIG_1_1Forms_1_1HashForm.html" target="_top" xlink:title="A window form to calculate various checksums of selected files or inserted text.">
<polygon fill="white" stroke="black" points="751,-610.5 751,-629.5 856,-629.5 856,-610.5 751,-610.5"/>
<text text-anchor="middle" x="803.5" y="-617.5" font-family="Helvetica,sans-Serif" font-size="10.00">IG.Forms.HashForm</text>
</a>
</g>
</g>
<!-- Node9&#45;&gt;Node18 -->
<g id="edge30" class="edge"><title>Node9&#45;&gt;Node18</title>
<path fill="none" stroke="midnightblue" d="M63.9069,-769.623C101.347,-770.218 168.614,-770.565 226,-767 352.339,-759.152 719.845,-702.592 723,-701 756.6,-684.046 784.316,-647.301 796.225,-629.735"/>
<polygon fill="midnightblue" stroke="midnightblue" points="63.7901,-766.121 53.7298,-769.443 63.6663,-773.12 63.7901,-766.121"/>
</g>
<!-- Node19 -->
<g id="node19" class="node"><title>Node19</title>
<g id="a_node19"><a xlink:href="../../de/d7e/classIG_1_1Forms_1_1HashDirForm.html" target="_top" xlink:title=" ">
<polygon fill="white" stroke="black" points="251,-721.5 251,-740.5 368,-740.5 368,-721.5 251,-721.5"/>
<text text-anchor="middle" x="309.5" y="-728.5" font-family="Helvetica,sans-Serif" font-size="10.00">IG.Forms.HashDirForm</text>
</a>
</g>
</g>
<!-- Node9&#45;&gt;Node19 -->
<g id="edge34" class="edge"><title>Node9&#45;&gt;Node19</title>
<path fill="none" stroke="midnightblue" d="M63.8847,-765.152C101.301,-760.148 168.542,-751.089 226,-743 234.026,-741.87 242.489,-740.66 250.812,-739.46"/>
<polygon fill="midnightblue" stroke="midnightblue" points="63.163,-761.717 53.7145,-766.51 64.0899,-768.655 63.163,-761.717"/>
</g>
<!-- Node10 -->
<g id="node10" class="node"><title>Node10</title>
<g id="a_node10"><a xlink:href="../../dd/d24/classIG_1_1Forms_1_1HashAllControl.html" target="_top" xlink:title=" ">
<polygon fill="white" stroke="black" points="741,-445.5 741,-464.5 866,-464.5 866,-445.5 741,-445.5"/>
<text text-anchor="middle" x="803.5" y="-452.5" font-family="Helvetica,sans-Serif" font-size="10.00">IG.Forms.HashAllControl</text>
</a>
</g>
</g>
<!-- Node10&#45;&gt;Node8 -->
<g id="edge12" class="edge"><title>Node10&#45;&gt;Node8</title>
<path fill="none" stroke="#9a32cd" stroke-dasharray="5,2" d="M842.764,-467.81C888.695,-483.187 964.663,-508.62 1005.84,-522.404"/>
<polygon fill="#9a32cd" stroke="#9a32cd" points="843.758,-464.452 833.165,-464.596 841.536,-471.09 843.758,-464.452"/>
<text text-anchor="middle" x="920" y="-508" font-family="Helvetica,sans-Serif" font-size="10.00"> hashAllControl1</text>
</g>
<!-- Node11 -->
<g id="node11" class="node"><title>Node11</title>
<g id="a_node11"><a xlink:title=" ">
<polygon fill="white" stroke="#bfbfbf" points="0,-161.5 0,-180.5 68,-180.5 68,-161.5 0,-161.5"/>
<text text-anchor="middle" x="34" y="-168.5" font-family="Helvetica,sans-Serif" font-size="10.00">UserControl</text>
</a>
</g>
</g>
<!-- Node11&#45;&gt;Node10 -->
<g id="edge13" class="edge"><title>Node11&#45;&gt;Node10</title>
<path fill="none" stroke="midnightblue" d="M78.2528,-166.846C178.22,-159.364 429.876,-152.856 602,-255 692.905,-308.946 772.538,-413.347 795.714,-445.404"/>
<polygon fill="midnightblue" stroke="midnightblue" points="77.9127,-163.361 68.2197,-167.639 78.4645,-170.34 77.9127,-163.361"/>
</g>
<!-- Node12 -->
<g id="node12" class="node"><title>Node12</title>
<g id="a_node12"><a xlink:href="../../d7/d96/classIG_1_1Forms_1_1HashControl.html" target="_top" xlink:title="A control used to calculate various checksums of selected files or inserted text.">
<polygon fill="white" stroke="black" points="489,-445.5 489,-464.5 602,-464.5 602,-445.5 489,-445.5"/>
<text text-anchor="middle" x="545.5" y="-452.5" font-family="Helvetica,sans-Serif" font-size="10.00">IG.Forms.HashControl</text>
</a>
</g>
</g>
<!-- Node11&#45;&gt;Node12 -->
<g id="edge15" class="edge"><title>Node11&#45;&gt;Node12</title>
<path fill="none" stroke="midnightblue" d="M77.9935,-180.321C80.702,-180.894 83.388,-181.457 86,-182 148.127,-194.912 169.198,-181.715 226,-210 235.581,-214.771 235.476,-219.527 244,-226 306.737,-273.643 322.359,-287.133 393,-322 426.028,-338.302 441.731,-327.64 471,-350 506.011,-376.746 530.832,-424.931 540.283,-445.392"/>
<polygon fill="midnightblue" stroke="midnightblue" points="78.6893,-176.891 68.1796,-178.232 77.2316,-183.738 78.6893,-176.891"/>
</g>
<!-- Node13 -->
<g id="node13" class="node"><title>Node13</title>
<g id="a_node13"><a xlink:href="../../de/d72/classIG_1_1Forms_1_1IndicatorLight.html" target="_top" xlink:title=" ">
<polygon fill="white" stroke="black" points="250.5,-197.5 250.5,-216.5 368.5,-216.5 368.5,-197.5 250.5,-197.5"/>
<text text-anchor="middle" x="309.5" y="-204.5" font-family="Helvetica,sans-Serif" font-size="10.00">IG.Forms.IndicatorLight</text>
</a>
</g>
</g>
<!-- Node11&#45;&gt;Node13 -->
<g id="edge17" class="edge"><title>Node11&#45;&gt;Node13</title>
<path fill="none" stroke="midnightblue" d="M78.4353,-171.869C117.329,-173.195 175.802,-176.544 226,-185 243.541,-187.955 262.765,-192.973 278.239,-197.472"/>
<polygon fill="midnightblue" stroke="midnightblue" points="78.111,-168.357 68.0074,-171.546 77.8942,-175.354 78.111,-168.357"/>
</g>
<!-- Node12&#45;&gt;Node10 -->
<g id="edge14" class="edge"><title>Node12&#45;&gt;Node10</title>
<path fill="none" stroke="#9a32cd" stroke-dasharray="5,2" d="M612.138,-455C651.746,-455 701.897,-455 740.779,-455"/>
<polygon fill="#9a32cd" stroke="#9a32cd" points="612.048,-451.5 602.048,-455 612.048,-458.5 612.048,-451.5"/>
<text text-anchor="middle" x="671.5" y="-458" font-family="Helvetica,sans-Serif" font-size="10.00"> hashControl1</text>
</g>
<!-- Node12&#45;&gt;Node18 -->
<g id="edge31" class="edge"><title>Node12&#45;&gt;Node18</title>
<path fill="none" stroke="#9a32cd" stroke-dasharray="5,2" d="M583.247,-468.107C620.432,-482.343 678.614,-507.348 723,-539 753.16,-560.508 781.898,-594.11 795.036,-610.443"/>
<polygon fill="#9a32cd" stroke="#9a32cd" points="584.398,-464.8 573.806,-464.551 581.931,-471.351 584.398,-464.8"/>
<text text-anchor="middle" x="671.5" y="-542" font-family="Helvetica,sans-Serif" font-size="10.00"> hashGeneratorControl1</text>
</g>
<!-- Node13&#45;&gt;Node12 -->
<g id="edge16" class="edge"><title>Node13&#45;&gt;Node12</title>
<path fill="none" stroke="#9a32cd" stroke-dasharray="5,2" d="M341.57,-220.956C376.69,-238.009 433.801,-269.758 471,-311 509.538,-353.727 533.487,-420.364 541.5,-445.219"/>
<polygon fill="#9a32cd" stroke="#9a32cd" points="342.816,-217.674 332.282,-216.54 339.81,-223.995 342.816,-217.674"/>
<text text-anchor="middle" x="432" y="-314" font-family="Helvetica,sans-Serif" font-size="10.00"> indicatorLight1</text>
</g>
<!-- Node14 -->
<g id="node14" class="node"><title>Node14</title>
<g id="a_node14"><a xlink:title=" ">
<polygon fill="white" stroke="#bfbfbf" points="9,-405.5 9,-424.5 59,-424.5 59,-405.5 9,-405.5"/>
<text text-anchor="middle" x="34" y="-412.5" font-family="Helvetica,sans-Serif" font-size="10.00">System</text>
</a>
</g>
</g>
<!-- Node14&#45;&gt;Node8 -->
<g id="edge28" class="edge"><title>Node14&#45;&gt;Node8</title>
<path fill="none" stroke="#9a32cd" stroke-dasharray="5,2" d="M53.9061,-398.782C63.0579,-391.713 74.5311,-383.931 86,-379 144.295,-353.938 164.864,-367.996 226,-351 301.986,-329.876 315.303,-304.534 393,-291 427.152,-285.051 436.868,-284.933 471,-291 655.124,-323.727 693.662,-363.388 866,-436 906.853,-453.213 917.524,-456.981 956,-479 979.977,-492.722 1006.29,-511.259 1021.55,-522.382"/>
<polygon fill="#9a32cd" stroke="#9a32cd" points="51.5049,-396.222 45.919,-405.225 55.8998,-401.67 51.5049,-396.222"/>
<text text-anchor="middle" x="545.5" y="-325" font-family="Helvetica,sans-Serif" font-size="10.00"> components</text>
</g>
<!-- Node14&#45;&gt;Node10 -->
<g id="edge26" class="edge"><title>Node14&#45;&gt;Node10</title>
<path fill="none" stroke="#9a32cd" stroke-dasharray="5,2" d="M69.2359,-406.647C142.867,-389.792 321.708,-354.81 471,-373 585.466,-386.947 717.354,-427.035 774.115,-445.491"/>
<polygon fill="#9a32cd" stroke="#9a32cd" points="68.0982,-403.318 59.1518,-408.994 69.6849,-410.136 68.0982,-403.318"/>
<text text-anchor="middle" x="432" y="-420" font-family="Helvetica,sans-Serif" font-size="10.00"> tabPageAbout</text>
<text text-anchor="middle" x="432" y="-409" font-family="Helvetica,sans-Serif" font-size="10.00">tabControl1</text>
<text text-anchor="middle" x="432" y="-398" font-family="Helvetica,sans-Serif" font-size="10.00">components</text>
<text text-anchor="middle" x="432" y="-387" font-family="Helvetica,sans-Serif" font-size="10.00">tabPageDir</text>
<text text-anchor="middle" x="432" y="-376" font-family="Helvetica,sans-Serif" font-size="10.00">tabPageHash</text>
</g>
<!-- Node14&#45;&gt;Node12 -->
<g id="edge24" class="edge"><title>Node14&#45;&gt;Node12</title>
<path fill="none" stroke="#9a32cd" stroke-dasharray="5,2" d="M69.6987,-415.159C131.306,-415.724 263.78,-418.214 375,-429 414.559,-432.837 458.954,-439.742 492.383,-445.473"/>
<polygon fill="#9a32cd" stroke="#9a32cd" points="69.4157,-411.657 59.388,-415.077 69.3597,-418.656 69.4157,-411.657"/>
<text text-anchor="middle" x="309.5" y="-542" font-family="Helvetica,sans-Serif" font-size="10.00"> contextMenuStrip1</text>
<text text-anchor="middle" x="309.5" y="-531" font-family="Helvetica,sans-Serif" font-size="10.00">aboutToolStripMenuItem</text>
<text text-anchor="middle" x="309.5" y="-520" font-family="Helvetica,sans-Serif" font-size="10.00">lvlVerifyMain</text>
<text text-anchor="middle" x="309.5" y="-509" font-family="Helvetica,sans-Serif" font-size="10.00">contextMenuStrip2</text>
<text text-anchor="middle" x="309.5" y="-498" font-family="Helvetica,sans-Serif" font-size="10.00">btnClearHashes</text>
<text text-anchor="middle" x="309.5" y="-487" font-family="Helvetica,sans-Serif" font-size="10.00">lblSha512</text>
<text text-anchor="middle" x="309.5" y="-476" font-family="Helvetica,sans-Serif" font-size="10.00">chkGenerateFile</text>
<text text-anchor="middle" x="309.5" y="-465" font-family="Helvetica,sans-Serif" font-size="10.00">btnGenerate</text>
<text text-anchor="middle" x="309.5" y="-454" font-family="Helvetica,sans-Serif" font-size="10.00">txtMd5</text>
<text text-anchor="middle" x="309.5" y="-443" font-family="Helvetica,sans-Serif" font-size="10.00">lblVerify</text>
<text text-anchor="middle" x="309.5" y="-432" font-family="Helvetica,sans-Serif" font-size="10.00">...</text>
</g>
<!-- Node14&#45;&gt;Node13 -->
<g id="edge18" class="edge"><title>Node14&#45;&gt;Node13</title>
<path fill="none" stroke="#9a32cd" stroke-dasharray="5,2" d="M37.6773,-394.885C43.8813,-351.526 60.6719,-251.438 86,-230 133.723,-189.607 209.424,-190.923 259.035,-197.463"/>
<polygon fill="#9a32cd" stroke="#9a32cd" points="34.1741,-394.668 36.2692,-405.053 41.1079,-395.628 34.1741,-394.668"/>
<text text-anchor="middle" x="156" y="-343" font-family="Helvetica,sans-Serif" font-size="10.00"> _colorLightError</text>
<text text-anchor="middle" x="156" y="-332" font-family="Helvetica,sans-Serif" font-size="10.00">_colorLabel</text>
<text text-anchor="middle" x="156" y="-321" font-family="Helvetica,sans-Serif" font-size="10.00">timer1</text>
<text text-anchor="middle" x="156" y="-310" font-family="Helvetica,sans-Serif" font-size="10.00">flowOuter</text>
<text text-anchor="middle" x="156" y="-299" font-family="Helvetica,sans-Serif" font-size="10.00">_colorLightOk</text>
<text text-anchor="middle" x="156" y="-288" font-family="Helvetica,sans-Serif" font-size="10.00">_specialBlinkColor</text>
<text text-anchor="middle" x="156" y="-277" font-family="Helvetica,sans-Serif" font-size="10.00">_colorLightOff</text>
<text text-anchor="middle" x="156" y="-266" font-family="Helvetica,sans-Serif" font-size="10.00">lblText</text>
<text text-anchor="middle" x="156" y="-255" font-family="Helvetica,sans-Serif" font-size="10.00">components</text>
<text text-anchor="middle" x="156" y="-244" font-family="Helvetica,sans-Serif" font-size="10.00">_colorLightBusy</text>
<text text-anchor="middle" x="156" y="-233" font-family="Helvetica,sans-Serif" font-size="10.00">...</text>
</g>
<!-- Node14&#45;&gt;Node16 -->
<g id="edge22" class="edge"><title>Node14&#45;&gt;Node16</title>
<path fill="none" stroke="#9a32cd" stroke-dasharray="5,2" d="M37.7983,-434.719C42.6553,-461.203 55.2584,-507.734 86,-532 135.612,-571.162 171.131,-525.625 226,-557 236.671,-563.102 233.919,-570.966 244,-578 252.721,-584.085 263.174,-588.839 273.1,-592.453"/>
<polygon fill="#9a32cd" stroke="#9a32cd" points="41.2309,-434.022 36.1606,-424.72 34.3229,-435.154 41.2309,-434.022"/>
<text text-anchor="middle" x="156" y="-560" font-family="Helvetica,sans-Serif" font-size="10.00"> components</text>
</g>
<!-- Node14&#45;&gt;Node18 -->
<g id="edge32" class="edge"><title>Node14&#45;&gt;Node18</title>
<path fill="none" stroke="#9a32cd" stroke-dasharray="5,2" d="M60.5684,-429.585C97.8862,-451.2 169.027,-493.648 226,-535 234.428,-541.117 234.448,-545.852 244,-550 334.641,-589.364 630.656,-610.221 750.964,-617.244"/>
<polygon fill="#9a32cd" stroke="#9a32cd" points="62.2503,-426.515 51.8388,-424.553 58.754,-432.579 62.2503,-426.515"/>
<text text-anchor="middle" x="432" y="-597" font-family="Helvetica,sans-Serif" font-size="10.00"> components</text>
</g>
<!-- Node14&#45;&gt;Node19 -->
<g id="edge35" class="edge"><title>Node14&#45;&gt;Node19</title>
<path fill="none" stroke="#9a32cd" stroke-dasharray="5,2" d="M35.4242,-435.001C37.2049,-471.696 45.807,-550.539 86,-600 130.126,-654.3 166.274,-635.553 226,-672 252.004,-687.869 280.538,-709.234 296.307,-721.42"/>
<polygon fill="#9a32cd" stroke="#9a32cd" points="38.9096,-434.527 35.0544,-424.659 31.9141,-434.778 38.9096,-434.527"/>
<text text-anchor="middle" x="156" y="-675" font-family="Helvetica,sans-Serif" font-size="10.00"> components</text>
</g>
<!-- Node15 -->
<g id="node15" class="node"><title>Node15</title>
<g id="a_node15"><a xlink:title=" ">
<polygon fill="white" stroke="#bfbfbf" points="13.5,-0.5 13.5,-19.5 54.5,-19.5 54.5,-0.5 13.5,-0.5"/>
<text text-anchor="middle" x="34" y="-7.5" font-family="Helvetica,sans-Serif" font-size="10.00">static</text>
</a>
</g>
</g>
<!-- Node15&#45;&gt;Node13 -->
<g id="edge19" class="edge"><title>Node15&#45;&gt;Node13</title>
<path fill="none" stroke="#9a32cd" stroke-dasharray="5,2" d="M64.5564,-8.35623C105.025,-7.64246 178.108,-12.0229 226,-48 278.216,-87.2251 300.28,-169.09 306.524,-197.243"/>
<polygon fill="#9a32cd" stroke="#9a32cd" points="64.4228,-4.85855 54.5299,-8.65071 64.6284,-11.8555 64.4228,-4.85855"/>
<text text-anchor="middle" x="156" y="-161" font-family="Helvetica,sans-Serif" font-size="10.00"> _defaultColorLabel</text>
<text text-anchor="middle" x="156" y="-150" font-family="Helvetica,sans-Serif" font-size="10.00">_defaultBorderOut</text>
<text text-anchor="middle" x="156" y="-139" font-family="Helvetica,sans-Serif" font-size="10.00">_defaultBorderLabel</text>
<text text-anchor="middle" x="156" y="-128" font-family="Helvetica,sans-Serif" font-size="10.00">_defaultColorLightOff</text>
<text text-anchor="middle" x="156" y="-117" font-family="Helvetica,sans-Serif" font-size="10.00">_defaultPaddingLabel</text>
<text text-anchor="middle" x="156" y="-106" font-family="Helvetica,sans-Serif" font-size="10.00">_defaultMarginLabel</text>
<text text-anchor="middle" x="156" y="-95" font-family="Helvetica,sans-Serif" font-size="10.00">_defaultColorLightBusy</text>
<text text-anchor="middle" x="156" y="-84" font-family="Helvetica,sans-Serif" font-size="10.00">_defaultBlinkIntervalMilliseconds</text>
<text text-anchor="middle" x="156" y="-73" font-family="Helvetica,sans-Serif" font-size="10.00">_defaultPaddingOut</text>
<text text-anchor="middle" x="156" y="-62" font-family="Helvetica,sans-Serif" font-size="10.00">_defaultColorLightError</text>
<text text-anchor="middle" x="156" y="-51" font-family="Helvetica,sans-Serif" font-size="10.00">...</text>
</g>
<!-- Node16&#45;&gt;Node12 -->
<g id="edge20" class="edge"><title>Node16&#45;&gt;Node12</title>
<path fill="none" stroke="#9a32cd" stroke-dasharray="5,2" d="M327.515,-585.146C343.529,-569.839 368.628,-547.24 393,-531 435.73,-502.526 490.599,-477.558 521.205,-464.546"/>
<polygon fill="#9a32cd" stroke="#9a32cd" points="324.763,-582.938 320.021,-592.413 329.636,-587.964 324.763,-582.938"/>
<text text-anchor="middle" x="432" y="-534" font-family="Helvetica,sans-Serif" font-size="10.00"> _aboutForm</text>
</g>
<!-- Node17 -->
<g id="node17" class="node"><title>Node17</title>
<g id="a_node17"><a xlink:title=" ">
<polygon fill="white" stroke="#bfbfbf" points="19.5,-650.5 19.5,-669.5 48.5,-669.5 48.5,-650.5 19.5,-650.5"/>
<text text-anchor="middle" x="34" y="-657.5" font-family="Helvetica,sans-Serif" font-size="10.00">IG</text>
</a>
</g>
</g>
<!-- Node17&#45;&gt;Node10 -->
<g id="edge27" class="edge"><title>Node17&#45;&gt;Node10</title>
<path fill="none" stroke="#9a32cd" stroke-dasharray="5,2" d="M58.9718,-662.549C114.783,-667.944 257.588,-678.643 375,-661 535.016,-636.955 589.109,-644.865 723,-554 758.75,-529.738 786.359,-484.595 797.337,-464.767"/>
<polygon fill="#9a32cd" stroke="#9a32cd" points="59.0115,-659.035 48.7122,-661.52 58.3132,-666 59.0115,-659.035"/>
<text text-anchor="middle" x="432" y="-673" font-family="Helvetica,sans-Serif" font-size="10.00"> hashFormAbout1</text>
<text text-anchor="middle" x="432" y="-662" font-family="Helvetica,sans-Serif" font-size="10.00">hashDirControl1</text>
</g>
<!-- Node17&#45;&gt;Node12 -->
<g id="edge25" class="edge"><title>Node17&#45;&gt;Node12</title>
<path fill="none" stroke="#9a32cd" stroke-dasharray="5,2" d="M58.8584,-659.689C114.98,-658.437 259.342,-652.178 375,-621 419.966,-608.879 436.113,-609.851 471,-579 508.869,-545.513 532.738,-487.668 541.123,-464.754"/>
<polygon fill="#9a32cd" stroke="#9a32cd" points="58.4862,-656.195 48.5539,-659.883 58.618,-663.194 58.4862,-656.195"/>
<text text-anchor="middle" x="309.5" y="-649" font-family="Helvetica,sans-Serif" font-size="10.00"> backgroundWorker1</text>
</g>
<!-- Node17&#45;&gt;Node16 -->
<g id="edge23" class="edge"><title>Node17&#45;&gt;Node16</title>
<path fill="none" stroke="#9a32cd" stroke-dasharray="5,2" d="M42.671,-640.806C50.6612,-623.711 64.976,-599.784 86,-589 150.383,-555.976 239.429,-578.134 282.753,-592.479"/>
<polygon fill="#9a32cd" stroke="#9a32cd" points="39.2824,-639.823 38.5098,-650.389 45.7032,-642.611 39.2824,-639.823"/>
<text text-anchor="middle" x="156" y="-592" font-family="Helvetica,sans-Serif" font-size="10.00"> hashFormAbout1</text>
</g>
<!-- Node17&#45;&gt;Node19 -->
<g id="edge36" class="edge"><title>Node17&#45;&gt;Node19</title>
<path fill="none" stroke="#9a32cd" stroke-dasharray="5,2" d="M57.5024,-673.732C66.1571,-678.522 76.2931,-683.555 86,-687 140.178,-706.23 204.929,-717.837 250.571,-724.261"/>
<polygon fill="#9a32cd" stroke="#9a32cd" points="59.1963,-670.669 48.7828,-668.717 55.7063,-676.737 59.1963,-670.669"/>
<text text-anchor="middle" x="156" y="-723" font-family="Helvetica,sans-Serif" font-size="10.00"> hashDirControl1</text>
</g>
<!-- Node18&#45;&gt;Node5 -->
<g id="edge29" class="edge"><title>Node18&#45;&gt;Node5</title>
<path fill="none" stroke="#9a32cd" stroke-dasharray="5,2" d="M828.853,-634.967C860.906,-653.939 919.576,-686.194 974,-703 1055.28,-728.099 1152.57,-739.619 1217.95,-744.831"/>
<polygon fill="#9a32cd" stroke="#9a32cd" points="830.545,-631.901 820.168,-629.764 826.948,-637.906 830.545,-631.901"/>
<text text-anchor="middle" x="1035.5" y="-733" font-family="Helvetica,sans-Serif" font-size="10.00"> hashForm</text>
</g>
<!-- Node19&#45;&gt;Node5 -->
<g id="edge33" class="edge"><title>Node19&#45;&gt;Node5</title>
<path fill="none" stroke="#9a32cd" stroke-dasharray="5,2" d="M356.545,-742.973C403.478,-754.111 478.549,-769 544.5,-769 544.5,-769 544.5,-769 1036.5,-769 1097.68,-769 1166.85,-763.23 1217.77,-757.889"/>
<polygon fill="#9a32cd" stroke="#9a32cd" points="357.225,-739.537 346.683,-740.589 355.581,-746.341 357.225,-739.537"/>
<text text-anchor="middle" x="803.5" y="-772" font-family="Helvetica,sans-Serif" font-size="10.00"> hashDirForm</text>
</g>
</g>
</svg>
        <g id="navigator" transform="translate(0 0)" fill="#404254">
                <rect fill="#f2f5e9" fill-opacity="0.5" stroke="#606060" stroke-width=".5" x="0" y="0" width="60" height="60"/>
                <use id="zoomplus" xlink:href="#zoomPlus" x="17" y="9" onmousedown="handleZoom(evt,'in')"/>
                <use id="zoomminus" xlink:href="#zoomMin" x="42" y="9" onmousedown="handleZoom(evt,'out')"/>
                <use id="reset" xlink:href="#resetDef" x="30" y="36" onmousedown="handleReset()"/>
                <g id="arrowUp" xlink:href="#dirArrow" transform="translate(30 24)" onmousedown="handlePan(0,-1)">
                  <use xlink:href="#rim" fill="#404040">
                        <set attributeName="fill" to="#808080" begin="arrowUp.mouseover" end="arrowUp.mouseout"/>
                  </use>
                  <path fill="none" stroke="white" stroke-width="1.5" d="M0,-3.0v7 M-2.5,-0.5L0,-3.0L2.5,-0.5"/>
                </g>
                <g id="arrowRight" xlink:href="#dirArrow" transform="rotate(90) translate(36 -43)" onmousedown="handlePan(1,0)">
                  <use xlink:href="#rim" fill="#404040">
                        <set attributeName="fill" to="#808080" begin="arrowRight.mouseover" end="arrowRight.mouseout"/>
                  </use>
                  <path fill="none" stroke="white" stroke-width="1.5" d="M0,-3.0v7 M-2.5,-0.5L0,-3.0L2.5,-0.5"/>
                </g>
                <g id="arrowDown" xlink:href="#dirArrow" transform="rotate(180) translate(-30 -48)" onmousedown="handlePan(0,1)">
                  <use xlink:href="#rim" fill="#404040">
                        <set attributeName="fill" to="#808080" begin="arrowDown.mouseover" end="arrowDown.mouseout"/>
                  </use>
                  <path fill="none" stroke="white" stroke-width="1.5" d="M0,-3.0v7 M-2.5,-0.5L0,-3.0L2.5,-0.5"/>
                </g>
                <g id="arrowLeft" xlink:href="#dirArrow" transform="rotate(270) translate(-36 17)" onmousedown="handlePan(-1,0)">
                  <use xlink:href="#rim" fill="#404040">
                        <set attributeName="fill" to="#808080" begin="arrowLeft.mouseover" end="arrowLeft.mouseout"/>
                  </use>
                  <path fill="none" stroke="white" stroke-width="1.5" d="M0,-3.0v7 M-2.5,-0.5L0,-3.0L2.5,-0.5"/>
                </g>
        </g>
        <svg viewBox="0 0 15 15" width="100%" height="30px" preserveAspectRatio="xMaxYMin meet">
         <g id="arrow_out" transform="scale(0.3 0.3)">
          <a xlink:href="classIG_1_1Script_1_1ScriptAppIgBaseExt__coll__graph_org.svg" target="_base">
           <rect id="button" ry="5" rx="5" y="6" x="6" height="38" width="38"
                fill="#f2f5e9" fill-opacity="0.5" stroke="#606060" stroke-width="1.0"/>
           <path id="arrow"
             d="M 11.500037,31.436501 C 11.940474,20.09759 22.043105,11.32322 32.158766,21.979434 L 37.068811,17.246167 C 37.068811,17.246167 37.088388,32 37.088388,32 L 22.160133,31.978069 C 22.160133,31.978069 26.997745,27.140456 26.997745,27.140456 C 18.528582,18.264221 13.291696,25.230495 11.500037,31.436501 z"
             style="fill:#404040;"/>
          </a>
         </g>
        </svg>
</svg>
