<?xml version="1.0" encoding="UTF-8" standalone="no"?>
<!DOCTYPE svg PUBLIC "-//W3C//DTD SVG 1.1//EN"
 "http://www.w3.org/Graphics/SVG/1.1/DTD/svg11.dtd">
<!-- Generated by graphviz version 2.38.0 (20140413.2041)
 -->
<!-- Title: AForge.Imaging.Filters.GrayscaleRMY Pages: 1 -->
<svg width="192pt" height="196pt"
 viewBox="0.00 0.00 192.00 196.00" xmlns="http://www.w3.org/2000/svg" xmlns:xlink="http://www.w3.org/1999/xlink">
<g id="graph0" class="graph" transform="scale(1 1) rotate(0) translate(4 192)">
<title>AForge.Imaging.Filters.GrayscaleRMY</title>
<polygon fill="white" stroke="none" points="-4,4 -4,-192 188,-192 188,4 -4,4"/>
<!-- Node1 -->
<g id="node1" class="node"><title>Node1</title>
<g id="a_node1"><a xlink:title="Grayscale image using R&#45;Y algorithm.">
<polygon fill="#bfbfbf" stroke="black" points="0,-0.5 0,-19.5 184,-19.5 184,-0.5 0,-0.5"/>
<text text-anchor="middle" x="92" y="-7.5" font-family="Helvetica,sans-Serif" font-size="10.00">AForge.Imaging.Filters.GrayscaleRMY</text>
</a>
</g>
</g>
<!-- Node2 -->
<g id="node2" class="node"><title>Node2</title>
<g id="a_node2"><a xlink:href="../../d7/d89/classAForge_1_1Imaging_1_1Filters_1_1Grayscale.html" target="_top" xlink:title="Base class for image grayscaling.">
<polygon fill="white" stroke="black" points="61.5,-56.5 61.5,-75.5 122.5,-75.5 122.5,-56.5 61.5,-56.5"/>
<text text-anchor="middle" x="92" y="-63.5" font-family="Helvetica,sans-Serif" font-size="10.00">Grayscale</text>
</a>
</g>
</g>
<!-- Node2&#45;&gt;Node1 -->
<g id="edge1" class="edge"><title>Node2&#45;&gt;Node1</title>
<path fill="none" stroke="midnightblue" d="M92,-45.8045C92,-36.9102 92,-26.7798 92,-19.7511"/>
<polygon fill="midnightblue" stroke="midnightblue" points="88.5001,-46.083 92,-56.083 95.5001,-46.083 88.5001,-46.083"/>
</g>
<!-- Node3 -->
<g id="node3" class="node"><title>Node3</title>
<g id="a_node3"><a xlink:href="../../d0/d25/classAForge_1_1Imaging_1_1Filters_1_1BaseFilter.html" target="_top" xlink:title="Base class for filters, which produce new image of the same size as a result of image processing.">
<polygon fill="white" stroke="black" points="61.5,-112.5 61.5,-131.5 122.5,-131.5 122.5,-112.5 61.5,-112.5"/>
<text text-anchor="middle" x="92" y="-119.5" font-family="Helvetica,sans-Serif" font-size="10.00">BaseFilter</text>
</a>
</g>
</g>
<!-- Node3&#45;&gt;Node2 -->
<g id="edge2" class="edge"><title>Node3&#45;&gt;Node2</title>
<path fill="none" stroke="midnightblue" d="M92,-101.805C92,-92.9102 92,-82.7798 92,-75.7511"/>
<polygon fill="midnightblue" stroke="midnightblue" points="88.5001,-102.083 92,-112.083 95.5001,-102.083 88.5001,-102.083"/>
</g>
<!-- Node4 -->
<g id="node4" class="node"><title>Node4</title>
<g id="a_node4"><a xlink:href="../../dd/d51/interfaceAForge_1_1Imaging_1_1Filters_1_1IFilter.html" target="_top" xlink:title="Image processing filter interface.">
<polygon fill="white" stroke="black" points="30.5,-168.5 30.5,-187.5 71.5,-187.5 71.5,-168.5 30.5,-168.5"/>
<text text-anchor="middle" x="51" y="-175.5" font-family="Helvetica,sans-Serif" font-size="10.00">IFilter</text>
</a>
</g>
</g>
<!-- Node4&#45;&gt;Node3 -->
<g id="edge3" class="edge"><title>Node4&#45;&gt;Node3</title>
<path fill="none" stroke="midnightblue" d="M64.0172,-159.855C71.1167,-150.505 79.604,-139.327 85.3557,-131.751"/>
<polygon fill="midnightblue" stroke="midnightblue" points="61.0299,-158.002 57.7703,-168.083 66.605,-162.235 61.0299,-158.002"/>
</g>
<!-- Node5 -->
<g id="node5" class="node"><title>Node5</title>
<g id="a_node5"><a xlink:href="../../d7/dec/interfaceAForge_1_1Imaging_1_1Filters_1_1IFilterInformation.html" target="_top" xlink:title="Interface which provides information about image processing filter.">
<polygon fill="white" stroke="black" points="90,-168.5 90,-187.5 178,-187.5 178,-168.5 90,-168.5"/>
<text text-anchor="middle" x="134" y="-175.5" font-family="Helvetica,sans-Serif" font-size="10.00">IFilterInformation</text>
</a>
</g>
</g>
<!-- Node5&#45;&gt;Node3 -->
<g id="edge4" class="edge"><title>Node5&#45;&gt;Node3</title>
<path fill="none" stroke="midnightblue" d="M120.89,-160.144C113.572,-150.736 104.759,-139.405 98.8064,-131.751"/>
<polygon fill="midnightblue" stroke="midnightblue" points="118.162,-162.338 127.065,-168.083 123.688,-158.041 118.162,-162.338"/>
</g>
</g>
</svg>
