<?xml version="1.0" encoding="UTF-8" standalone="no"?>
<!DOCTYPE svg PUBLIC "-//W3C//DTD SVG 1.1//EN"
 "http://www.w3.org/Graphics/SVG/1.1/DTD/svg11.dtd">
<!-- Generated by graphviz version 2.38.0 (20140413.2041)
 -->
<!-- Title: alglib.linlsqr.linlsqrstate Pages: 1 -->
<svg width="224pt" height="162pt"
 viewBox="0.00 0.00 224.00 162.00" xmlns="http://www.w3.org/2000/svg" xmlns:xlink="http://www.w3.org/1999/xlink">
<g id="graph0" class="graph" transform="scale(1 1) rotate(0) translate(4 158)">
<title>alglib.linlsqr.linlsqrstate</title>
<polygon fill="white" stroke="none" points="-4,4 -4,-158 220,-158 220,4 -4,4"/>
<!-- Node1 -->
<g id="node1" class="node"><title>Node1</title>
<g id="a_node1"><a xlink:title=" ">
<polygon fill="#bfbfbf" stroke="black" points="75,-0.5 75,-19.5 193,-19.5 193,-0.5 75,-0.5"/>
<text text-anchor="middle" x="134" y="-7.5" font-family="Helvetica,sans-Serif" font-size="10.00">alglib.linlsqr.linlsqrstate</text>
</a>
</g>
</g>
<!-- Node2 -->
<g id="node2" class="node"><title>Node2</title>
<g id="a_node2"><a xlink:href="../../da/d61/classalglib_1_1rcommstate.html" target="_top" xlink:title=" ">
<polygon fill="white" stroke="black" points="0,-67.5 0,-86.5 94,-86.5 94,-67.5 0,-67.5"/>
<text text-anchor="middle" x="47" y="-74.5" font-family="Helvetica,sans-Serif" font-size="10.00">alglib.rcommstate</text>
</a>
</g>
</g>
<!-- Node2&#45;&gt;Node1 -->
<g id="edge1" class="edge"><title>Node2&#45;&gt;Node1</title>
<path fill="none" stroke="#9a32cd" stroke-dasharray="5,2" d="M66.9862,-61.0678C84.1589,-48.2376 108.321,-30.1853 122.453,-19.6273"/>
<polygon fill="#9a32cd" stroke="#9a32cd" points="64.6494,-58.4446 58.7332,-67.2338 68.8391,-64.0524 64.6494,-58.4446"/>
<text text-anchor="middle" x="110" y="-41" font-family="Helvetica,sans-Serif" font-size="10.00"> rstate</text>
</g>
<!-- Node3 -->
<g id="node3" class="node"><title>Node3</title>
<g id="a_node3"><a xlink:href="../../d7/d81/classalglib.html" target="_top" xlink:title=" ">
<polygon fill="white" stroke="black" points="27.5,-134.5 27.5,-153.5 66.5,-153.5 66.5,-134.5 27.5,-134.5"/>
<text text-anchor="middle" x="47" y="-141.5" font-family="Helvetica,sans-Serif" font-size="10.00">alglib</text>
</a>
</g>
</g>
<!-- Node3&#45;&gt;Node2 -->
<g id="edge2" class="edge"><title>Node3&#45;&gt;Node2</title>
<path fill="none" stroke="#9a32cd" stroke-dasharray="5,2" d="M47,-124.037C47,-111.67 47,-96.1198 47,-86.6273"/>
<polygon fill="#9a32cd" stroke="#9a32cd" points="43.5001,-124.234 47,-134.234 50.5001,-124.234 43.5001,-124.234"/>
<text text-anchor="middle" x="54" y="-108" font-family="Helvetica,sans-Serif" font-size="10.00"> ca</text>
</g>
<!-- Node4 -->
<g id="node4" class="node"><title>Node4</title>
<g id="a_node4"><a xlink:href="../../dc/d3a/classalglib_1_1normestimator.html" target="_top" xlink:title=" ">
<polygon fill="white" stroke="black" points="112,-67.5 112,-86.5 216,-86.5 216,-67.5 112,-67.5"/>
<text text-anchor="middle" x="164" y="-74.5" font-family="Helvetica,sans-Serif" font-size="10.00">alglib.normestimator</text>
</a>
</g>
</g>
<!-- Node4&#45;&gt;Node1 -->
<g id="edge3" class="edge"><title>Node4&#45;&gt;Node1</title>
<path fill="none" stroke="#9a32cd" stroke-dasharray="5,2" d="M155.595,-57.79C149.834,-45.3076 142.452,-29.3135 137.982,-19.6273"/>
<polygon fill="#9a32cd" stroke="#9a32cd" points="152.586,-59.6209 159.954,-67.2338 158.941,-56.6875 152.586,-59.6209"/>
<text text-anchor="middle" x="159.5" y="-41" font-family="Helvetica,sans-Serif" font-size="10.00"> nes</text>
</g>
</g>
</svg>
