<?xml version="1.0" encoding="UTF-8" standalone="no"?>
<!DOCTYPE svg PUBLIC "-//W3C//DTD SVG 1.1//EN"
 "http://www.w3.org/Graphics/SVG/1.1/DTD/svg11.dtd">
<!-- Generated by graphviz version 2.38.0 (20140413.2041)
 -->
<!-- Title: NUnit.Engine.Drivers.NUnit3FrameworkDriver Pages: 1 -->
<svg width="224pt" height="172pt"
 viewBox="0.00 0.00 223.50 172.00" xmlns="http://www.w3.org/2000/svg" xmlns:xlink="http://www.w3.org/1999/xlink">
<g id="graph0" class="graph" transform="scale(1 1) rotate(0) translate(4 168)">
<title>NUnit.Engine.Drivers.NUnit3FrameworkDriver</title>
<polygon fill="white" stroke="none" points="-4,4 -4,-168 219.5,-168 219.5,4 -4,4"/>
<!-- Node1 -->
<g id="node1" class="node"><title>Node1</title>
<g id="a_node1"><a xlink:title="NUnitFrameworkDriver is used by the test&#45;runner to load and run tests using the NUnit framework assem...">
<polygon fill="#bfbfbf" stroke="black" points="18.5,-0.5 18.5,-30.5 156.5,-30.5 156.5,-0.5 18.5,-0.5"/>
<text text-anchor="start" x="26.5" y="-18.5" font-family="Helvetica,sans-Serif" font-size="10.00">NUnit.Engine.Drivers.NUnit3</text>
<text text-anchor="middle" x="87.5" y="-7.5" font-family="Helvetica,sans-Serif" font-size="10.00">FrameworkDriver</text>
</a>
</g>
</g>
<!-- Node2 -->
<g id="node2" class="node"><title>Node2</title>
<g id="a_node2"><a xlink:href="../../d9/d04/interfaceNUnit_1_1Engine_1_1Extensibility_1_1IFrameworkDriver.html" target="_top" xlink:title="The IFrameworkDriver interface is implemented by a class that is able to use an external framework to...">
<polygon fill="white" stroke="black" points="0,-144.5 0,-163.5 91,-163.5 91,-144.5 0,-144.5"/>
<text text-anchor="middle" x="45.5" y="-151.5" font-family="Helvetica,sans-Serif" font-size="10.00">IFrameworkDriver</text>
</a>
</g>
</g>
<!-- Node2&#45;&gt;Node1 -->
<g id="edge1" class="edge"><title>Node2&#45;&gt;Node1</title>
<path fill="none" stroke="midnightblue" d="M51.072,-134.891C59.5534,-107.326 75.5238,-55.4227 83.1855,-30.5221"/>
<polygon fill="midnightblue" stroke="midnightblue" points="47.723,-133.874 48.1273,-144.461 54.4134,-135.933 47.723,-133.874"/>
</g>
<!-- Node3 -->
<g id="node3" class="node"><title>Node3</title>
<g id="a_node3"><a xlink:title=" ">
<polygon fill="white" stroke="#bfbfbf" points="109,-144.5 109,-163.5 150,-163.5 150,-144.5 109,-144.5"/>
<text text-anchor="middle" x="129.5" y="-151.5" font-family="Helvetica,sans-Serif" font-size="10.00">static</text>
</a>
</g>
</g>
<!-- Node3&#45;&gt;Node1 -->
<g id="edge2" class="edge"><title>Node3&#45;&gt;Node1</title>
<path fill="none" stroke="#9a32cd" stroke-dasharray="5,2" d="M123.928,-134.891C115.447,-107.326 99.4762,-55.4227 91.8145,-30.5221"/>
<polygon fill="#9a32cd" stroke="#9a32cd" points="120.587,-135.933 126.873,-144.461 127.277,-133.874 120.587,-135.933"/>
<text text-anchor="middle" x="167.5" y="-118" font-family="Helvetica,sans-Serif" font-size="10.00"> EXPLORE_ACTION</text>
<text text-anchor="middle" x="167.5" y="-107" font-family="Helvetica,sans-Serif" font-size="10.00">COUNT_ACTION</text>
<text text-anchor="middle" x="167.5" y="-96" font-family="Helvetica,sans-Serif" font-size="10.00">CONTROLLER_TYPE</text>
<text text-anchor="middle" x="167.5" y="-85" font-family="Helvetica,sans-Serif" font-size="10.00">STOP_RUN_ACTION</text>
<text text-anchor="middle" x="167.5" y="-74" font-family="Helvetica,sans-Serif" font-size="10.00">RUN_ACTION</text>
<text text-anchor="middle" x="167.5" y="-63" font-family="Helvetica,sans-Serif" font-size="10.00">log</text>
<text text-anchor="middle" x="167.5" y="-52" font-family="Helvetica,sans-Serif" font-size="10.00">LOAD_ACTION</text>
</g>
</g>
</svg>
