<?xml version="1.0" encoding="UTF-8" standalone="no"?>
<!DOCTYPE svg PUBLIC "-//W3C//DTD SVG 1.1//EN"
 "http://www.w3.org/Graphics/SVG/1.1/DTD/svg11.dtd">
<!-- Generated by graphviz version 2.38.0 (20140413.2041)
 -->
<!-- Title: IG.Lib.Ig Pages: 1 -->
<svg width="126pt" height="139pt"
 viewBox="0.00 0.00 125.50 139.00" xmlns="http://www.w3.org/2000/svg" xmlns:xlink="http://www.w3.org/1999/xlink">
<g id="graph0" class="graph" transform="scale(1 1) rotate(0) translate(4 135)">
<title>IG.Lib.Ig</title>
<polygon fill="white" stroke="none" points="-4,4 -4,-135 121.5,-135 121.5,4 -4,4"/>
<!-- Node1 -->
<g id="node1" class="node"><title>Node1</title>
<g id="a_node1"><a xlink:title=" ">
<polygon fill="#bfbfbf" stroke="black" points="0,-0.5 0,-19.5 53,-19.5 53,-0.5 0,-0.5"/>
<text text-anchor="middle" x="26.5" y="-7.5" font-family="Helvetica,sans-Serif" font-size="10.00">IG.Lib.Ig</text>
</a>
</g>
</g>
<!-- Node2 -->
<g id="node2" class="node"><title>Node2</title>
<g id="a_node2"><a xlink:title=" ">
<polygon fill="white" stroke="#bfbfbf" points="6,-111.5 6,-130.5 47,-130.5 47,-111.5 6,-111.5"/>
<text text-anchor="middle" x="26.5" y="-118.5" font-family="Helvetica,sans-Serif" font-size="10.00">static</text>
</a>
</g>
</g>
<!-- Node2&#45;&gt;Node1 -->
<g id="edge1" class="edge"><title>Node2&#45;&gt;Node1</title>
<path fill="none" stroke="#9a32cd" stroke-dasharray="5,2" d="M26.5,-101.193C26.5,-77.2756 26.5,-36.9893 26.5,-19.5133"/>
<polygon fill="#9a32cd" stroke="#9a32cd" points="23.0001,-101.447 26.5,-111.447 30.0001,-101.447 23.0001,-101.447"/>
<text text-anchor="middle" x="72" y="-85" font-family="Helvetica,sans-Serif" font-size="10.00"> aa</text>
<text text-anchor="middle" x="72" y="-74" font-family="Helvetica,sans-Serif" font-size="10.00">WorkspaceDirectory</text>
<text text-anchor="middle" x="72" y="-63" font-family="Helvetica,sans-Serif" font-size="10.00">IsInitialized</text>
<text text-anchor="middle" x="72" y="-52" font-family="Helvetica,sans-Serif" font-size="10.00">InitializationError</text>
<text text-anchor="middle" x="72" y="-41" font-family="Helvetica,sans-Serif" font-size="10.00">InitializationMessage</text>
</g>
</g>
</svg>
