<?xml version="1.0" encoding="UTF-8" standalone="no"?>
<!DOCTYPE svg PUBLIC "-//W3C//DTD SVG 1.1//EN"
 "http://www.w3.org/Graphics/SVG/1.1/DTD/svg11.dtd">
<!-- Generated by graphviz version 2.38.0 (20140413.2041)
 -->
<!-- Title: NUnit.Framework.Internal.TestSuite Pages: 1 -->
<svg width="608pt" height="235pt"
 viewBox="0.00 0.00 608.00 235.00" xmlns="http://www.w3.org/2000/svg" xmlns:xlink="http://www.w3.org/1999/xlink">
<g id="graph0" class="graph" transform="scale(1 1) rotate(0) translate(4 231)">
<title>NUnit.Framework.Internal.TestSuite</title>
<polygon fill="white" stroke="none" points="-4,4 -4,-231 604,-231 604,4 -4,4"/>
<!-- Node1 -->
<g id="node1" class="node"><title>Node1</title>
<g id="a_node1"><a xlink:title="TestSuite represents a composite test, which contains other tests.">
<polygon fill="#bfbfbf" stroke="black" points="301,-98.5 301,-128.5 430,-128.5 430,-98.5 301,-98.5"/>
<text text-anchor="start" x="309" y="-116.5" font-family="Helvetica,sans-Serif" font-size="10.00">NUnit.Framework.Internal.</text>
<text text-anchor="middle" x="365.5" y="-105.5" font-family="Helvetica,sans-Serif" font-size="10.00">TestSuite</text>
</a>
</g>
</g>
<!-- Node6 -->
<g id="node6" class="node"><title>Node6</title>
<g id="a_node6"><a xlink:href="../../db/dcd/classNUnit_1_1Framework_1_1Internal_1_1ParameterizedFixtureSuite.html" target="_top" xlink:title="ParameterizedFixtureSuite serves as a container for the set of test fixtures created from a given Typ...">
<polygon fill="white" stroke="black" points="467,-196.5 467,-226.5 599,-226.5 599,-196.5 467,-196.5"/>
<text text-anchor="start" x="475" y="-214.5" font-family="Helvetica,sans-Serif" font-size="10.00">NUnit.Framework.Internal.</text>
<text text-anchor="middle" x="533" y="-203.5" font-family="Helvetica,sans-Serif" font-size="10.00">ParameterizedFixtureSuite</text>
</a>
</g>
</g>
<!-- Node1&#45;&gt;Node6 -->
<g id="edge5" class="edge"><title>Node1&#45;&gt;Node6</title>
<path fill="none" stroke="midnightblue" d="M391.148,-135.031C410.491,-151.109 438.637,-172.76 466,-187.5 472.011,-190.738 478.55,-193.708 485.099,-196.372"/>
<polygon fill="midnightblue" stroke="midnightblue" points="393.326,-132.289 383.425,-128.518 388.813,-137.64 393.326,-132.289"/>
</g>
<!-- Node7 -->
<g id="node7" class="node"><title>Node7</title>
<g id="a_node7"><a xlink:href="../../d4/d7b/classNUnit_1_1Framework_1_1Internal_1_1ParameterizedMethodSuite.html" target="_top" xlink:title="ParameterizedMethodSuite holds a collection of individual TestMethods with their arguments applied.">
<polygon fill="white" stroke="black" points="466,-147.5 466,-177.5 600,-177.5 600,-147.5 466,-147.5"/>
<text text-anchor="start" x="474" y="-165.5" font-family="Helvetica,sans-Serif" font-size="10.00">NUnit.Framework.Internal.</text>
<text text-anchor="middle" x="533" y="-154.5" font-family="Helvetica,sans-Serif" font-size="10.00">ParameterizedMethodSuite</text>
</a>
</g>
</g>
<!-- Node1&#45;&gt;Node7 -->
<g id="edge6" class="edge"><title>Node1&#45;&gt;Node7</title>
<path fill="none" stroke="midnightblue" d="M427.184,-131.467C444.917,-136.717 464.108,-142.399 481.163,-147.448"/>
<polygon fill="midnightblue" stroke="midnightblue" points="428.088,-128.084 417.506,-128.601 426.101,-134.796 428.088,-128.084"/>
</g>
<!-- Node8 -->
<g id="node8" class="node"><title>Node8</title>
<g id="a_node8"><a xlink:href="../../dc/dd9/classNUnit_1_1Framework_1_1Internal_1_1SetUpFixture.html" target="_top" xlink:title="SetUpFixture extends TestSuite and supports Setup and TearDown methods.">
<polygon fill="white" stroke="black" points="468.5,-98.5 468.5,-128.5 597.5,-128.5 597.5,-98.5 468.5,-98.5"/>
<text text-anchor="start" x="476.5" y="-116.5" font-family="Helvetica,sans-Serif" font-size="10.00">NUnit.Framework.Internal.</text>
<text text-anchor="middle" x="533" y="-105.5" font-family="Helvetica,sans-Serif" font-size="10.00">SetUpFixture</text>
</a>
</g>
</g>
<!-- Node1&#45;&gt;Node8 -->
<g id="edge7" class="edge"><title>Node1&#45;&gt;Node8</title>
<path fill="none" stroke="midnightblue" d="M440.147,-113.5C449.565,-113.5 459.143,-113.5 468.383,-113.5"/>
<polygon fill="midnightblue" stroke="midnightblue" points="440.013,-110 430.013,-113.5 440.013,-117 440.013,-110"/>
</g>
<!-- Node9 -->
<g id="node9" class="node"><title>Node9</title>
<g id="a_node9"><a xlink:href="../../dd/dcb/classNUnit_1_1Framework_1_1Internal_1_1TestAssembly.html" target="_top" xlink:title="TestAssembly is a TestSuite that represents the execution of tests in a managed assembly.">
<polygon fill="white" stroke="black" points="468.5,-49.5 468.5,-79.5 597.5,-79.5 597.5,-49.5 468.5,-49.5"/>
<text text-anchor="start" x="476.5" y="-67.5" font-family="Helvetica,sans-Serif" font-size="10.00">NUnit.Framework.Internal.</text>
<text text-anchor="middle" x="533" y="-56.5" font-family="Helvetica,sans-Serif" font-size="10.00">TestAssembly</text>
</a>
</g>
</g>
<!-- Node1&#45;&gt;Node9 -->
<g id="edge8" class="edge"><title>Node1&#45;&gt;Node9</title>
<path fill="none" stroke="midnightblue" d="M427.184,-95.533C444.917,-90.283 464.108,-84.6011 481.163,-79.5516"/>
<polygon fill="midnightblue" stroke="midnightblue" points="426.101,-92.2036 417.506,-98.3986 428.088,-98.9156 426.101,-92.2036"/>
</g>
<!-- Node10 -->
<g id="node10" class="node"><title>Node10</title>
<g id="a_node10"><a xlink:href="../../db/d23/classNUnit_1_1Framework_1_1Internal_1_1TestFixture.html" target="_top" xlink:title="TestFixture is a surrogate for a user test fixture class, containing one or more tests.">
<polygon fill="white" stroke="black" points="468.5,-0.5 468.5,-30.5 597.5,-30.5 597.5,-0.5 468.5,-0.5"/>
<text text-anchor="start" x="476.5" y="-18.5" font-family="Helvetica,sans-Serif" font-size="10.00">NUnit.Framework.Internal.</text>
<text text-anchor="middle" x="533" y="-7.5" font-family="Helvetica,sans-Serif" font-size="10.00">TestFixture</text>
</a>
</g>
</g>
<!-- Node1&#45;&gt;Node10 -->
<g id="edge9" class="edge"><title>Node1&#45;&gt;Node10</title>
<path fill="none" stroke="midnightblue" d="M391.148,-91.969C410.491,-75.8908 438.637,-54.2404 466,-39.5 472.011,-36.2619 478.55,-33.292 485.099,-30.628"/>
<polygon fill="midnightblue" stroke="midnightblue" points="388.813,-89.3596 383.425,-98.4821 393.326,-94.7107 388.813,-89.3596"/>
</g>
<!-- Node2 -->
<g id="node2" class="node"><title>Node2</title>
<g id="a_node2"><a xlink:href="../../d6/d59/classNUnit_1_1Framework_1_1Internal_1_1Test.html" target="_top" xlink:title="The Test abstract class represents a test within the framework.">
<polygon fill="white" stroke="black" points="230,-104 230,-123 265,-123 265,-104 230,-104"/>
<text text-anchor="middle" x="247.5" y="-111" font-family="Helvetica,sans-Serif" font-size="10.00">Test</text>
</a>
</g>
</g>
<!-- Node2&#45;&gt;Node1 -->
<g id="edge1" class="edge"><title>Node2&#45;&gt;Node1</title>
<path fill="none" stroke="midnightblue" d="M275.28,-113.5C283.031,-113.5 291.841,-113.5 300.834,-113.5"/>
<polygon fill="midnightblue" stroke="midnightblue" points="275.12,-110 265.12,-113.5 275.12,-117 275.12,-110"/>
</g>
<!-- Node3 -->
<g id="node3" class="node"><title>Node3</title>
<g id="a_node3"><a xlink:href="../../d6/dd5/interfaceNUnit_1_1Framework_1_1Interfaces_1_1ITest.html" target="_top" xlink:title="Common interface supported by all representations of a test. Only includes informational fields....">
<polygon fill="white" stroke="black" points="139.5,-123 139.5,-142 177.5,-142 177.5,-123 139.5,-123"/>
<text text-anchor="middle" x="158.5" y="-130" font-family="Helvetica,sans-Serif" font-size="10.00">ITest</text>
</a>
</g>
</g>
<!-- Node3&#45;&gt;Node2 -->
<g id="edge2" class="edge"><title>Node3&#45;&gt;Node2</title>
<path fill="none" stroke="midnightblue" d="M187.631,-126.356C201.615,-123.303 218.029,-119.718 229.968,-117.11"/>
<polygon fill="midnightblue" stroke="midnightblue" points="186.549,-123.01 177.526,-128.563 188.043,-129.849 186.549,-123.01"/>
</g>
<!-- Node4 -->
<g id="node4" class="node"><title>Node4</title>
<g id="a_node4"><a xlink:href="../../d9/dc0/interfaceNUnit_1_1Framework_1_1Interfaces_1_1IXmlNodeBuilder.html" target="_top" xlink:title="An object implementing IXmlNodeBuilder is able to build an XML representation of itself and any child...">
<polygon fill="white" stroke="black" points="0,-123 0,-142 87,-142 87,-123 0,-123"/>
<text text-anchor="middle" x="43.5" y="-130" font-family="Helvetica,sans-Serif" font-size="10.00">IXmlNodeBuilder</text>
</a>
</g>
</g>
<!-- Node4&#45;&gt;Node3 -->
<g id="edge3" class="edge"><title>Node4&#45;&gt;Node3</title>
<path fill="none" stroke="midnightblue" d="M97.5026,-132.5C112.506,-132.5 127.84,-132.5 139.25,-132.5"/>
<polygon fill="midnightblue" stroke="midnightblue" points="97.2205,-129 87.2205,-132.5 97.2204,-136 97.2205,-129"/>
</g>
<!-- Node5 -->
<g id="node5" class="node"><title>Node5</title>
<g id="a_node5"><a xlink:title=" ">
<polygon fill="white" stroke="#bfbfbf" points="123,-85 123,-104 194,-104 194,-85 123,-85"/>
<text text-anchor="middle" x="158.5" y="-92" font-family="Helvetica,sans-Serif" font-size="10.00">IComparable</text>
</a>
</g>
</g>
<!-- Node5&#45;&gt;Node2 -->
<g id="edge4" class="edge"><title>Node5&#45;&gt;Node2</title>
<path fill="none" stroke="midnightblue" d="M204.084,-104.237C213.301,-106.25 222.454,-108.249 229.885,-109.871"/>
<polygon fill="midnightblue" stroke="midnightblue" points="204.651,-100.778 194.135,-102.064 203.158,-107.617 204.651,-100.778"/>
</g>
</g>
</svg>
