<?xml version="1.0" encoding="UTF-8" standalone="no"?>
<!DOCTYPE svg PUBLIC "-//W3C//DTD SVG 1.1//EN"
 "http://www.w3.org/Graphics/SVG/1.1/DTD/svg11.dtd">
<!-- Generated by graphviz version 2.38.0 (20140413.2041)
 -->
<!-- Title: SVSTest.AboutForm Pages: 1 -->
<svg width="143pt" height="172pt"
 viewBox="0.00 0.00 142.50 172.00" xmlns="http://www.w3.org/2000/svg" xmlns:xlink="http://www.w3.org/1999/xlink">
<g id="graph0" class="graph" transform="scale(1 1) rotate(0) translate(4 168)">
<title>SVSTest.AboutForm</title>
<polygon fill="white" stroke="none" points="-4,4 -4,-168 138.5,-168 138.5,4 -4,4"/>
<!-- Node1 -->
<g id="node1" class="node"><title>Node1</title>
<g id="a_node1"><a xlink:title=" ">
<polygon fill="#bfbfbf" stroke="black" points="0,-0.5 0,-19.5 107,-19.5 107,-0.5 0,-0.5"/>
<text text-anchor="middle" x="53.5" y="-7.5" font-family="Helvetica,sans-Serif" font-size="10.00">SVSTest.AboutForm</text>
</a>
</g>
</g>
<!-- Node2 -->
<g id="node2" class="node"><title>Node2</title>
<g id="a_node2"><a xlink:title=" ">
<polygon fill="white" stroke="#bfbfbf" points="3,-144.5 3,-163.5 42,-163.5 42,-144.5 3,-144.5"/>
<text text-anchor="middle" x="22.5" y="-151.5" font-family="Helvetica,sans-Serif" font-size="10.00">Form</text>
</a>
</g>
</g>
<!-- Node2&#45;&gt;Node1 -->
<g id="edge1" class="edge"><title>Node2&#45;&gt;Node1</title>
<path fill="none" stroke="midnightblue" d="M26.6245,-134.107C33.4309,-102.929 46.7485,-41.926 51.6404,-19.5184"/>
<polygon fill="midnightblue" stroke="midnightblue" points="23.1527,-133.601 24.4392,-144.117 29.9916,-135.094 23.1527,-133.601"/>
</g>
<!-- Node3 -->
<g id="node3" class="node"><title>Node3</title>
<g id="a_node3"><a xlink:title=" ">
<polygon fill="white" stroke="#bfbfbf" points="60.5,-144.5 60.5,-163.5 110.5,-163.5 110.5,-144.5 60.5,-144.5"/>
<text text-anchor="middle" x="85.5" y="-151.5" font-family="Helvetica,sans-Serif" font-size="10.00">System</text>
</a>
</g>
</g>
<!-- Node3&#45;&gt;Node1 -->
<g id="edge2" class="edge"><title>Node3&#45;&gt;Node1</title>
<path fill="none" stroke="#9a32cd" stroke-dasharray="5,2" d="M81.2424,-134.107C74.2164,-102.929 60.4692,-41.926 55.4196,-19.5184"/>
<polygon fill="#9a32cd" stroke="#9a32cd" points="77.8854,-135.131 83.4983,-144.117 84.7142,-133.592 77.8854,-135.131"/>
<text text-anchor="middle" x="107" y="-118" font-family="Helvetica,sans-Serif" font-size="10.00"> pictureBox1</text>
<text text-anchor="middle" x="107" y="-107" font-family="Helvetica,sans-Serif" font-size="10.00">label1</text>
<text text-anchor="middle" x="107" y="-96" font-family="Helvetica,sans-Serif" font-size="10.00">label2</text>
<text text-anchor="middle" x="107" y="-85" font-family="Helvetica,sans-Serif" font-size="10.00">panel1</text>
<text text-anchor="middle" x="107" y="-74" font-family="Helvetica,sans-Serif" font-size="10.00">label3</text>
<text text-anchor="middle" x="107" y="-63" font-family="Helvetica,sans-Serif" font-size="10.00">components</text>
<text text-anchor="middle" x="107" y="-52" font-family="Helvetica,sans-Serif" font-size="10.00">emailLabel</text>
<text text-anchor="middle" x="107" y="-41" font-family="Helvetica,sans-Serif" font-size="10.00">aforgeLabel</text>
</g>
</g>
</svg>
