<?xml version="1.0" encoding="UTF-8" standalone="no"?>
<!DOCTYPE svg PUBLIC "-//W3C//DTD SVG 1.1//EN"
 "http://www.w3.org/Graphics/SVG/1.1/DTD/svg11.dtd">
<!-- Generated by graphviz version 2.38.0 (20140413.2041)
 -->
<!-- Title: IG.Num.ResponseEvaluatorWithStorageAnalysis Pages: 1 -->
<svg width="398pt" height="116pt"
 viewBox="0.00 0.00 398.00 115.50" xmlns="http://www.w3.org/2000/svg" xmlns:xlink="http://www.w3.org/1999/xlink">
<g id="graph0" class="graph" transform="scale(1 1) rotate(0) translate(4 111.5)">
<title>IG.Num.ResponseEvaluatorWithStorageAnalysis</title>
<polygon fill="white" stroke="none" points="-4,4 -4,-111.5 394,-111.5 394,4 -4,4"/>
<!-- Node1 -->
<g id="node1" class="node"><title>Node1</title>
<g id="a_node1"><a xlink:title="Base class for response evaluators where response is evaluated by objects of type IAnalysis .">
<polygon fill="#bfbfbf" stroke="black" points="254,-33 254,-63 390,-63 390,-33 254,-33"/>
<text text-anchor="start" x="262" y="-51" font-family="Helvetica,sans-Serif" font-size="10.00">IG.Num.ResponseEvaluator</text>
<text text-anchor="middle" x="322" y="-40" font-family="Helvetica,sans-Serif" font-size="10.00">WithStorageAnalysis</text>
</a>
</g>
</g>
<!-- Node2 -->
<g id="node2" class="node"><title>Node2</title>
<g id="a_node2"><a xlink:href="../../df/d15/classIG_1_1Num_1_1ResponseEvaluatorWithStorageBase.html" target="_top" xlink:title=" ">
<polygon fill="white" stroke="black" points="0,-77 0,-107 173,-107 173,-77 0,-77"/>
<text text-anchor="start" x="8" y="-95" font-family="Helvetica,sans-Serif" font-size="10.00">ResponseEvaluatorWithStorage</text>
<text text-anchor="middle" x="86.5" y="-84" font-family="Helvetica,sans-Serif" font-size="10.00">Base&lt; AnalysisResults, IAnalysis &gt;</text>
</a>
</g>
</g>
<!-- Node2&#45;&gt;Node1 -->
<g id="edge1" class="edge"><title>Node2&#45;&gt;Node1</title>
<path fill="none" stroke="midnightblue" d="M177.217,-75.0939C202.632,-70.3049 229.854,-65.1752 253.701,-60.6817"/>
<polygon fill="midnightblue" stroke="midnightblue" points="176.383,-71.6894 167.204,-76.9808 177.68,-78.5684 176.383,-71.6894"/>
</g>
<!-- Node3 -->
<g id="node3" class="node"><title>Node3</title>
<g id="a_node3"><a xlink:href="../../d3/db6/interfaceIG_1_1Lib_1_1ILockable.html" target="_top" xlink:title="Lockable object, has a Lock property that returns object on which lock must be performed in order to ...">
<polygon fill="white" stroke="black" points="57.5,-38.5 57.5,-57.5 115.5,-57.5 115.5,-38.5 57.5,-38.5"/>
<text text-anchor="middle" x="86.5" y="-45.5" font-family="Helvetica,sans-Serif" font-size="10.00">ILockable</text>
</a>
</g>
</g>
<!-- Node3&#45;&gt;Node1 -->
<g id="edge2" class="edge"><title>Node3&#45;&gt;Node1</title>
<path fill="none" stroke="midnightblue" d="M125.827,-48C160.437,-48 212.148,-48 253.648,-48"/>
<polygon fill="midnightblue" stroke="midnightblue" points="125.666,-44.5001 115.666,-48 125.666,-51.5001 125.666,-44.5001"/>
</g>
<!-- Node4 -->
<g id="node4" class="node"><title>Node4</title>
<g id="a_node4"><a xlink:href="../../d5/d59/interfaceIG_1_1Num_1_1IAnalysis.html" target="_top" xlink:title="Interface for direct analysis classes used in optimization problems.">
<polygon fill="white" stroke="black" points="40.5,-0.5 40.5,-19.5 132.5,-19.5 132.5,-0.5 40.5,-0.5"/>
<text text-anchor="middle" x="86.5" y="-7.5" font-family="Helvetica,sans-Serif" font-size="10.00">IG.Num.IAnalysis</text>
</a>
</g>
</g>
<!-- Node4&#45;&gt;Node1 -->
<g id="edge3" class="edge"><title>Node4&#45;&gt;Node1</title>
<path fill="none" stroke="#9a32cd" stroke-dasharray="5,2" d="M142.7,-18.2673C170.676,-22.529 205.169,-27.8926 236,-33 241.766,-33.9551 247.747,-34.9673 253.745,-35.9971"/>
<polygon fill="#9a32cd" stroke="#9a32cd" points="143.118,-14.7908 132.706,-16.7495 142.067,-21.7114 143.118,-14.7908"/>
<text text-anchor="middle" x="213.5" y="-36" font-family="Helvetica,sans-Serif" font-size="10.00"> _analysis</text>
</g>
</g>
</svg>
