<?xml version="1.0" encoding="UTF-8" standalone="no"?>
<!DOCTYPE svg PUBLIC "-//W3C//DTD SVG 1.1//EN"
 "http://www.w3.org/Graphics/SVG/1.1/DTD/svg11.dtd">
<!-- Generated by graphviz version 2.38.0 (20140413.2041)
 -->
<!-- Title: CShell.AssemblyReferences Pages: 1 -->
<svg width="620pt" height="177pt"
 viewBox="0.00 0.00 620.00 177.00" xmlns="http://www.w3.org/2000/svg" xmlns:xlink="http://www.w3.org/1999/xlink">
<g id="graph0" class="graph" transform="scale(1 1) rotate(0) translate(4 173)">
<title>CShell.AssemblyReferences</title>
<polygon fill="white" stroke="none" points="-4,4 -4,-173 616,-173 616,4 -4,4"/>
<!-- Node1 -->
<g id="node1" class="node"><title>Node1</title>
<g id="a_node1"><a xlink:title=" ">
<polygon fill="#bfbfbf" stroke="black" points="472,-100 472,-119 612,-119 612,-100 472,-100"/>
<text text-anchor="middle" x="542" y="-107" font-family="Helvetica,sans-Serif" font-size="10.00">CShell.AssemblyReferences</text>
</a>
</g>
</g>
<!-- Node2 -->
<g id="node2" class="node"><title>Node2</title>
<g id="a_node2"><a xlink:href="../../de/d8d/classCShell_1_1Util_1_1ObservableKeyedCollection.html" target="_top" xlink:title=" ">
<polygon fill="white" stroke="black" points="252,-138.5 252,-168.5 404,-168.5 404,-138.5 252,-138.5"/>
<text text-anchor="start" x="260" y="-156.5" font-family="Helvetica,sans-Serif" font-size="10.00">ObservableKeyedCollection</text>
<text text-anchor="middle" x="328" y="-145.5" font-family="Helvetica,sans-Serif" font-size="10.00">&lt; string, AssemblyReference &gt;</text>
</a>
</g>
</g>
<!-- Node2&#45;&gt;Node1 -->
<g id="edge1" class="edge"><title>Node2&#45;&gt;Node1</title>
<path fill="none" stroke="midnightblue" d="M411.324,-136.414C439.804,-130.503 470.687,-124.093 495.167,-119.012"/>
<polygon fill="midnightblue" stroke="midnightblue" points="410.445,-133.022 401.365,-138.481 411.868,-139.875 410.445,-133.022"/>
</g>
<!-- Node3 -->
<g id="node3" class="node"><title>Node3</title>
<g id="a_node3"><a xlink:title=" ">
<polygon fill="white" stroke="#bfbfbf" points="38,-94 38,-113 105,-113 105,-94 38,-94"/>
<text text-anchor="middle" x="71.5" y="-101" font-family="Helvetica,sans-Serif" font-size="10.00">IDisposable</text>
</a>
</g>
</g>
<!-- Node3&#45;&gt;Node1 -->
<g id="edge2" class="edge"><title>Node3&#45;&gt;Node1</title>
<path fill="none" stroke="midnightblue" d="M115.419,-104.05C196.644,-105.09 373.483,-107.355 471.718,-108.613"/>
<polygon fill="midnightblue" stroke="midnightblue" points="115.116,-100.546 105.072,-103.917 115.026,-107.545 115.116,-100.546"/>
</g>
<!-- Node4 -->
<g id="node4" class="node"><title>Node4</title>
<g id="a_node4"><a xlink:href="../../dc/d7b/classCShell_1_1ScriptingEngine.html" target="_top" xlink:title=" ">
<polygon fill="white" stroke="black" points="270,-56 270,-75 386,-75 386,-56 270,-56"/>
<text text-anchor="middle" x="328" y="-63" font-family="Helvetica,sans-Serif" font-size="10.00">CShell.ScriptingEngine</text>
</a>
</g>
</g>
<!-- Node3&#45;&gt;Node4 -->
<g id="edge4" class="edge"><title>Node3&#45;&gt;Node4</title>
<path fill="none" stroke="midnightblue" d="M115.241,-97.1182C157.605,-90.7927 222.777,-81.0618 269.629,-74.0662"/>
<polygon fill="midnightblue" stroke="midnightblue" points="114.624,-93.6715 105.25,-98.61 115.658,-100.595 114.624,-93.6715"/>
</g>
<!-- Node4&#45;&gt;Node1 -->
<g id="edge3" class="edge"><title>Node4&#45;&gt;Node1</title>
<path fill="none" stroke="#9a32cd" stroke-dasharray="5,2" d="M396.186,-74.0847C414.986,-76.9274 435.369,-80.4249 454,-84.5 473.344,-88.731 494.722,-94.8533 511.446,-99.9802"/>
<polygon fill="#9a32cd" stroke="#9a32cd" points="396.626,-70.6119 386.222,-72.616 395.605,-77.537 396.626,-70.6119"/>
<text text-anchor="middle" x="438" y="-87.5" font-family="Helvetica,sans-Serif" font-size="10.00"> engine</text>
</g>
<!-- Node5 -->
<g id="node5" class="node"><title>Node5</title>
<g id="a_node5"><a xlink:href="../../d0/dc3/interfaceCShellCore_1_1CodeCompletion_1_1ICSharpScriptProvider.html" target="_top" xlink:title="This interface allows to provide more information for scripts such as using statements,...">
<polygon fill="white" stroke="black" points="16,-50 16,-69 127,-69 127,-50 16,-50"/>
<text text-anchor="middle" x="71.5" y="-57" font-family="Helvetica,sans-Serif" font-size="10.00">ICSharpScriptProvider</text>
</a>
</g>
</g>
<!-- Node5&#45;&gt;Node4 -->
<g id="edge5" class="edge"><title>Node5&#45;&gt;Node4</title>
<path fill="none" stroke="midnightblue" d="M137.232,-61.0261C178.129,-61.9903 230.489,-63.2247 269.846,-64.1525"/>
<polygon fill="midnightblue" stroke="midnightblue" points="137.176,-57.5239 127.097,-60.7872 137.011,-64.522 137.176,-57.5239"/>
</g>
<!-- Node6 -->
<g id="node6" class="node"><title>Node6</title>
<g id="a_node6"><a xlink:href="../../da/dc3/classCShellCore_1_1CodeCompletion_1_1CSharpCompletion.html" target="_top" xlink:title=" ">
<polygon fill="white" stroke="black" points="0,-0.5 0,-30.5 143,-30.5 143,-0.5 0,-0.5"/>
<text text-anchor="start" x="8" y="-18.5" font-family="Helvetica,sans-Serif" font-size="10.00">CShellCore.CodeCompletion.</text>
<text text-anchor="middle" x="71.5" y="-7.5" font-family="Helvetica,sans-Serif" font-size="10.00">CSharpCompletion</text>
</a>
</g>
</g>
<!-- Node6&#45;&gt;Node4 -->
<g id="edge6" class="edge"><title>Node6&#45;&gt;Node4</title>
<path fill="none" stroke="#9a32cd" stroke-dasharray="5,2" d="M153.082,-31.3314C194.293,-39.428 243.086,-49.0139 278.485,-55.9686"/>
<polygon fill="#9a32cd" stroke="#9a32cd" points="153.542,-27.8549 143.054,-29.3614 152.192,-34.7236 153.542,-27.8549"/>
<text text-anchor="middle" x="197.5" y="-49.5" font-family="Helvetica,sans-Serif" font-size="10.00"> codeCompletion</text>
</g>
</g>
</svg>
