<?xml version="1.0" encoding="UTF-8" standalone="no"?>
<!DOCTYPE svg PUBLIC "-//W3C//DTD SVG 1.1//EN"
 "http://www.w3.org/Graphics/SVG/1.1/DTD/svg11.dtd">
<!-- Generated by graphviz version 2.38.0 (20140413.2041)
 -->
<!-- Title: DotNumerics.LinearAlgebra.CSLapack.DTRCON Pages: 1 -->
<!--zoomable 752 -->
<svg id="main" version="1.1" xmlns="http://www.w3.org/2000/svg" xmlns:xlink="http://www.w3.org/1999/xlink" xml:space="preserve" onload="init(evt)">
<style type="text/css"><![CDATA[
.edge:hover path { stroke: red; }
.edge:hover polygon { stroke: red; fill: red; }
]]></style>
<script type="text/javascript"><![CDATA[
var edges = document.getElementsByTagName('g');
if (edges && edges.length) {
  for (var i=0;i<edges.length;i++) {
    if (edges[i].id.substr(0,4)=='edge') {
      edges[i].setAttribute('class','edge');
    }
  }
}
]]></script>
        <defs>
                <circle id="rim" cx="0" cy="0" r="7"/>
                <circle id="rim2" cx="0" cy="0" r="3.5"/>
                <g id="zoomPlus">
                        <use xlink:href="#rim" fill="#404040">
                                <set attributeName="fill" to="#808080" begin="zoomplus.mouseover" end="zoomplus.mouseout"/>
                        </use>
                        <path d="M-4,0h8M0,-4v8" fill="none" stroke="white" stroke-width="1.5" pointer-events="none"/>
                </g>
                <g id="zoomMin">
                        <use xlink:href="#rim" fill="#404040">
                                <set attributeName="fill" to="#808080" begin="zoomminus.mouseover" end="zoomminus.mouseout"/>
                        </use>
                        <path d="M-4,0h8" fill="none" stroke="white" stroke-width="1.5" pointer-events="none"/>
                </g>
                <g id="dirArrow">
                        <path fill="none" stroke="white" stroke-width="1.5" d="M0,-3.0v7 M-2.5,-0.5L0,-3.0L2.5,-0.5"/>
                </g>
               <g id="resetDef">
                       <use xlink:href="#rim2" fill="#404040">
                               <set attributeName="fill" to="#808080" begin="reset.mouseover" end="reset.mouseout"/>
                       </use>
               </g>
        </defs>

<script type="text/javascript">
var viewWidth = 1213;
var viewHeight = 752;
var sectionId = 'dynsection-0';
</script>
<script xlink:href="../../svgpan.js"/>
<svg id="graph" class="graph">
<g id="viewport">
<title>DotNumerics.LinearAlgebra.CSLapack.DTRCON</title>
<polygon fill="white" stroke="none" points="-4,4 -4,-747.5 1209,-747.5 1209,4 -4,4"/>
<!-- Node1 -->
<g id="node1" class="node"><title>Node1</title>
<g id="a_node1"><a xlink:title="– LAPACK routine (version 3.0) – Univ. of Tennessee, Univ. of California Berkeley,...">
<polygon fill="#bfbfbf" stroke="black" points="1067,-445.5 1067,-475.5 1205,-475.5 1205,-445.5 1067,-445.5"/>
<text text-anchor="start" x="1075" y="-463.5" font-family="Helvetica,sans-Serif" font-size="10.00">DotNumerics.LinearAlgebra.</text>
<text text-anchor="middle" x="1136" y="-452.5" font-family="Helvetica,sans-Serif" font-size="10.00">CSLapack.DTRCON</text>
</a>
</g>
</g>
<!-- Node2 -->
<g id="node2" class="node"><title>Node2</title>
<g id="a_node2"><a xlink:href="../../d4/dd0/classDotNumerics_1_1LinearAlgebra_1_1CSLapack_1_1DLAMCH.html" target="_top" xlink:title="– LAPACK auxiliary routine (version 3.1) – Univ. of Tennessee, Univ. of California Berkeley and NAG L...">
<polygon fill="white" stroke="black" points="642,-509.5 642,-539.5 780,-539.5 780,-509.5 642,-509.5"/>
<text text-anchor="start" x="650" y="-527.5" font-family="Helvetica,sans-Serif" font-size="10.00">DotNumerics.LinearAlgebra.</text>
<text text-anchor="middle" x="711" y="-516.5" font-family="Helvetica,sans-Serif" font-size="10.00">CSLapack.DLAMCH</text>
</a>
</g>
</g>
<!-- Node2&#45;&gt;Node1 -->
<g id="edge1" class="edge"><title>Node2&#45;&gt;Node1</title>
<path fill="none" stroke="#9a32cd" stroke-dasharray="5,2" d="M790.373,-512.642C869.703,-500.64 991.139,-482.266 1066.67,-470.839"/>
<polygon fill="#9a32cd" stroke="#9a32cd" points="789.796,-509.189 780.432,-514.146 790.843,-516.111 789.796,-509.189"/>
<text text-anchor="middle" x="925" y="-505.5" font-family="Helvetica,sans-Serif" font-size="10.00"> _dlamch</text>
</g>
<!-- Node9 -->
<g id="node9" class="node"><title>Node9</title>
<g id="a_node9"><a xlink:href="../../dd/d7f/classDotNumerics_1_1LinearAlgebra_1_1CSLapack_1_1DRSCL.html" target="_top" xlink:title="– LAPACK auxiliary routine (version 3.0) – Univ. of Tennessee, Univ. of California Berkeley,...">
<polygon fill="white" stroke="black" points="856,-542.5 856,-572.5 994,-572.5 994,-542.5 856,-542.5"/>
<text text-anchor="start" x="864" y="-560.5" font-family="Helvetica,sans-Serif" font-size="10.00">DotNumerics.LinearAlgebra.</text>
<text text-anchor="middle" x="925" y="-549.5" font-family="Helvetica,sans-Serif" font-size="10.00">CSLapack.DRSCL</text>
</a>
</g>
</g>
<!-- Node2&#45;&gt;Node9 -->
<g id="edge13" class="edge"><title>Node2&#45;&gt;Node9</title>
<path fill="none" stroke="#9a32cd" stroke-dasharray="5,2" d="M790.328,-536.693C811.843,-540.042 834.993,-543.645 855.883,-546.897"/>
<polygon fill="#9a32cd" stroke="#9a32cd" points="790.664,-533.203 780.245,-535.123 789.588,-540.12 790.664,-533.203"/>
<text text-anchor="middle" x="818" y="-547.5" font-family="Helvetica,sans-Serif" font-size="10.00"> _dlamch</text>
</g>
<!-- Node15 -->
<g id="node15" class="node"><title>Node15</title>
<g id="a_node15"><a xlink:href="../../d0/d34/classDotNumerics_1_1LinearAlgebra_1_1CSLapack_1_1DLATRS.html" target="_top" xlink:title="– LAPACK auxiliary routine (version 3.0) – Univ. of Tennessee, Univ. of California Berkeley,...">
<polygon fill="white" stroke="black" points="856,-318.5 856,-348.5 994,-348.5 994,-318.5 856,-318.5"/>
<text text-anchor="start" x="864" y="-336.5" font-family="Helvetica,sans-Serif" font-size="10.00">DotNumerics.LinearAlgebra.</text>
<text text-anchor="middle" x="925" y="-325.5" font-family="Helvetica,sans-Serif" font-size="10.00">CSLapack.DLATRS</text>
</a>
</g>
</g>
<!-- Node2&#45;&gt;Node15 -->
<g id="edge21" class="edge"><title>Node2&#45;&gt;Node15</title>
<path fill="none" stroke="#9a32cd" stroke-dasharray="5,2" d="M771.352,-504.814C774.353,-503.163 777.257,-501.394 780,-499.5 842.163,-456.58 894.309,-380.75 914.747,-348.592"/>
<polygon fill="#9a32cd" stroke="#9a32cd" points="769.505,-501.824 762.114,-509.416 772.626,-508.09 769.505,-501.824"/>
<text text-anchor="middle" x="818" y="-488.5" font-family="Helvetica,sans-Serif" font-size="10.00"> _dlamch</text>
</g>
<!-- Node3 -->
<g id="node3" class="node"><title>Node3</title>
<g id="a_node3"><a xlink:href="../../dd/dac/classDotNumerics_1_1LinearAlgebra_1_1CSLapack_1_1LSAME.html" target="_top" xlink:title="– LAPACK auxiliary routine (version 3.1) – Univ. of Tennessee, Univ. of California Berkeley and NAG L...">
<polygon fill="white" stroke="black" points="428,-509.5 428,-539.5 566,-539.5 566,-509.5 428,-509.5"/>
<text text-anchor="start" x="436" y="-527.5" font-family="Helvetica,sans-Serif" font-size="10.00">DotNumerics.LinearAlgebra.</text>
<text text-anchor="middle" x="497" y="-516.5" font-family="Helvetica,sans-Serif" font-size="10.00">CSLapack.LSAME</text>
</a>
</g>
</g>
<!-- Node3&#45;&gt;Node1 -->
<g id="edge32" class="edge"><title>Node3&#45;&gt;Node1</title>
<path fill="none" stroke="#9a32cd" stroke-dasharray="5,2" d="M528.206,-545.149C556.265,-562.992 599.936,-587.447 642,-597.5 794.316,-633.903 842.582,-621.474 994,-581.5 1020.14,-574.598 1027.29,-571.611 1049,-555.5 1080.45,-532.169 1109.3,-496.016 1124.27,-475.698"/>
<polygon fill="#9a32cd" stroke="#9a32cd" points="529.961,-542.116 519.666,-539.615 526.154,-547.99 529.961,-542.116"/>
<text text-anchor="middle" x="818" y="-622.5" font-family="Helvetica,sans-Serif" font-size="10.00"> _lsame</text>
</g>
<!-- Node3&#45;&gt;Node2 -->
<g id="edge2" class="edge"><title>Node3&#45;&gt;Node2</title>
<path fill="none" stroke="#9a32cd" stroke-dasharray="5,2" d="M576.328,-524.5C597.843,-524.5 620.993,-524.5 641.883,-524.5"/>
<polygon fill="#9a32cd" stroke="#9a32cd" points="576.245,-521 566.245,-524.5 576.245,-528 576.245,-521"/>
<text text-anchor="middle" x="604" y="-527.5" font-family="Helvetica,sans-Serif" font-size="10.00"> _lsame</text>
</g>
<!-- Node12 -->
<g id="node12" class="node"><title>Node12</title>
<g id="a_node12"><a xlink:href="../../d9/d42/classDotNumerics_1_1LinearAlgebra_1_1CSLapack_1_1DLANTR.html" target="_top" xlink:title="– LAPACK auxiliary routine (version 3.0) – Univ. of Tennessee, Univ. of California Berkeley,...">
<polygon fill="white" stroke="black" points="642,-648.5 642,-678.5 780,-678.5 780,-648.5 642,-648.5"/>
<text text-anchor="start" x="650" y="-666.5" font-family="Helvetica,sans-Serif" font-size="10.00">DotNumerics.LinearAlgebra.</text>
<text text-anchor="middle" x="711" y="-655.5" font-family="Helvetica,sans-Serif" font-size="10.00">CSLapack.DLANTR</text>
</a>
</g>
</g>
<!-- Node3&#45;&gt;Node12 -->
<g id="edge16" class="edge"><title>Node3&#45;&gt;Node12</title>
<path fill="none" stroke="#9a32cd" stroke-dasharray="5,2" d="M511.756,-548.501C526.603,-572.277 552.418,-608.015 584,-628.5 601.238,-639.681 622.035,-647.33 641.72,-652.548"/>
<polygon fill="#9a32cd" stroke="#9a32cd" points="514.614,-546.465 506.436,-539.729 508.629,-550.095 514.614,-546.465"/>
<text text-anchor="middle" x="604" y="-650.5" font-family="Helvetica,sans-Serif" font-size="10.00"> _lsame</text>
</g>
<!-- Node3&#45;&gt;Node15 -->
<g id="edge29" class="edge"><title>Node3&#45;&gt;Node15</title>
<path fill="none" stroke="#9a32cd" stroke-dasharray="5,2" d="M503.978,-499.58C517.838,-448.32 557.627,-332.522 642,-292.5 726.481,-252.426 839.927,-293.871 893.523,-318.31"/>
<polygon fill="#9a32cd" stroke="#9a32cd" points="500.53,-498.93 501.407,-509.488 507.306,-500.688 500.53,-498.93"/>
<text text-anchor="middle" x="711" y="-295.5" font-family="Helvetica,sans-Serif" font-size="10.00"> _lsame</text>
</g>
<!-- Node18 -->
<g id="node18" class="node"><title>Node18</title>
<g id="a_node18"><a xlink:href="../../dc/d51/classDotNumerics_1_1LinearAlgebra_1_1CSLapack_1_1DTRSV.html" target="_top" xlink:title=" ">
<polygon fill="white" stroke="black" points="642,-313.5 642,-343.5 780,-343.5 780,-313.5 642,-313.5"/>
<text text-anchor="start" x="650" y="-331.5" font-family="Helvetica,sans-Serif" font-size="10.00">DotNumerics.LinearAlgebra.</text>
<text text-anchor="middle" x="711" y="-320.5" font-family="Helvetica,sans-Serif" font-size="10.00">CSLapack.DTRSV</text>
</a>
</g>
</g>
<!-- Node3&#45;&gt;Node18 -->
<g id="edge27" class="edge"><title>Node3&#45;&gt;Node18</title>
<path fill="none" stroke="#9a32cd" stroke-dasharray="5,2" d="M511.996,-500.702C534.781,-463.91 583.299,-393.225 642,-352.5 646.937,-349.075 652.414,-346.09 658.054,-343.501"/>
<polygon fill="#9a32cd" stroke="#9a32cd" points="508.98,-498.925 506.767,-509.286 514.958,-502.566 508.98,-498.925"/>
<text text-anchor="middle" x="604" y="-404.5" font-family="Helvetica,sans-Serif" font-size="10.00"> _lsame</text>
</g>
<!-- Node4 -->
<g id="node4" class="node"><title>Node4</title>
<g id="a_node4"><a xlink:href="../../dc/ddd/classDotNumerics_1_1LinearAlgebra_1_1CSLapack_1_1DLAMC2.html" target="_top" xlink:title="– LAPACK auxiliary routine (version 3.1) – Univ. of Tennessee, Univ. of California Berkeley and NAG L...">
<polygon fill="white" stroke="black" points="428,-661.5 428,-691.5 566,-691.5 566,-661.5 428,-661.5"/>
<text text-anchor="start" x="436" y="-679.5" font-family="Helvetica,sans-Serif" font-size="10.00">DotNumerics.LinearAlgebra.</text>
<text text-anchor="middle" x="497" y="-668.5" font-family="Helvetica,sans-Serif" font-size="10.00">CSLapack.DLAMC2</text>
</a>
</g>
</g>
<!-- Node4&#45;&gt;Node2 -->
<g id="edge3" class="edge"><title>Node4&#45;&gt;Node2</title>
<path fill="none" stroke="#9a32cd" stroke-dasharray="5,2" d="M576.557,-683.014C594.08,-680.626 611.227,-674.699 624,-662.5 661.094,-627.072 609.189,-587.928 642,-548.5 644.883,-545.036 648.3,-542.071 652.043,-539.534"/>
<polygon fill="#9a32cd" stroke="#9a32cd" points="575.835,-679.568 566.227,-684.031 576.522,-686.534 575.835,-679.568"/>
<text text-anchor="middle" x="604" y="-684.5" font-family="Helvetica,sans-Serif" font-size="10.00"> _dlamc2</text>
</g>
<!-- Node5 -->
<g id="node5" class="node"><title>Node5</title>
<g id="a_node5"><a xlink:href="../../d5/db1/classDotNumerics_1_1LinearAlgebra_1_1CSLapack_1_1DLAMC1.html" target="_top" xlink:title="– LAPACK auxiliary routine (version 3.1) – Univ. of Tennessee, Univ. of California Berkeley and NAG L...">
<polygon fill="white" stroke="black" points="214,-685.5 214,-715.5 352,-715.5 352,-685.5 214,-685.5"/>
<text text-anchor="start" x="222" y="-703.5" font-family="Helvetica,sans-Serif" font-size="10.00">DotNumerics.LinearAlgebra.</text>
<text text-anchor="middle" x="283" y="-692.5" font-family="Helvetica,sans-Serif" font-size="10.00">CSLapack.DLAMC1</text>
</a>
</g>
</g>
<!-- Node5&#45;&gt;Node4 -->
<g id="edge4" class="edge"><title>Node5&#45;&gt;Node4</title>
<path fill="none" stroke="#9a32cd" stroke-dasharray="5,2" d="M362.328,-691.633C383.843,-689.197 406.993,-686.576 427.883,-684.211"/>
<polygon fill="#9a32cd" stroke="#9a32cd" points="361.788,-688.171 352.245,-692.774 362.575,-695.127 361.788,-688.171"/>
<text text-anchor="middle" x="390" y="-694.5" font-family="Helvetica,sans-Serif" font-size="10.00"> _dlamc1</text>
</g>
<!-- Node6 -->
<g id="node6" class="node"><title>Node6</title>
<g id="a_node6"><a xlink:href="../../db/dbb/classDotNumerics_1_1LinearAlgebra_1_1CSLapack_1_1DLAMC3.html" target="_top" xlink:title="– LAPACK auxiliary routine (version 3.1) – Univ. of Tennessee, Univ. of California Berkeley and NAG L...">
<polygon fill="white" stroke="black" points="0,-659.5 0,-689.5 138,-689.5 138,-659.5 0,-659.5"/>
<text text-anchor="start" x="8" y="-677.5" font-family="Helvetica,sans-Serif" font-size="10.00">DotNumerics.LinearAlgebra.</text>
<text text-anchor="middle" x="69" y="-666.5" font-family="Helvetica,sans-Serif" font-size="10.00">CSLapack.DLAMC3</text>
</a>
</g>
</g>
<!-- Node6&#45;&gt;Node4 -->
<g id="edge6" class="edge"><title>Node6&#45;&gt;Node4</title>
<path fill="none" stroke="#9a32cd" stroke-dasharray="5,2" d="M112.129,-693.543C140.31,-705.167 178.584,-718.847 214,-724.5 274.567,-734.168 291.36,-733.693 352,-724.5 378.686,-720.454 384.365,-714.946 410,-706.5 424.268,-701.799 439.789,-696.456 453.669,-691.594"/>
<polygon fill="#9a32cd" stroke="#9a32cd" points="113.178,-690.187 102.603,-689.533 110.462,-696.639 113.178,-690.187"/>
<text text-anchor="middle" x="283" y="-735.5" font-family="Helvetica,sans-Serif" font-size="10.00"> _dlamc3</text>
</g>
<!-- Node6&#45;&gt;Node5 -->
<g id="edge5" class="edge"><title>Node6&#45;&gt;Node5</title>
<path fill="none" stroke="#9a32cd" stroke-dasharray="5,2" d="M148.328,-684.106C169.843,-686.745 192.993,-689.584 213.883,-692.146"/>
<polygon fill="#9a32cd" stroke="#9a32cd" points="148.597,-680.613 138.245,-682.87 147.745,-687.561 148.597,-680.613"/>
<text text-anchor="middle" x="176" y="-693.5" font-family="Helvetica,sans-Serif" font-size="10.00"> _dlamc3</text>
</g>
<!-- Node7 -->
<g id="node7" class="node"><title>Node7</title>
<g id="a_node7"><a xlink:href="../../de/dd1/classDotNumerics_1_1LinearAlgebra_1_1CSLapack_1_1DLAMC4.html" target="_top" xlink:title="– LAPACK auxiliary routine (version 3.1) – Univ. of Tennessee, Univ. of California Berkeley and NAG L...">
<polygon fill="white" stroke="black" points="214,-636.5 214,-666.5 352,-666.5 352,-636.5 214,-636.5"/>
<text text-anchor="start" x="222" y="-654.5" font-family="Helvetica,sans-Serif" font-size="10.00">DotNumerics.LinearAlgebra.</text>
<text text-anchor="middle" x="283" y="-643.5" font-family="Helvetica,sans-Serif" font-size="10.00">CSLapack.DLAMC4</text>
</a>
</g>
</g>
<!-- Node6&#45;&gt;Node7 -->
<g id="edge8" class="edge"><title>Node6&#45;&gt;Node7</title>
<path fill="none" stroke="#9a32cd" stroke-dasharray="5,2" d="M148.407,-661.435C150.966,-661.105 153.502,-660.792 156,-660.5 174.733,-658.311 195.099,-656.577 213.888,-655.239"/>
<polygon fill="#9a32cd" stroke="#9a32cd" points="147.896,-657.972 138.457,-662.785 148.837,-664.909 147.896,-657.972"/>
<text text-anchor="middle" x="176" y="-663.5" font-family="Helvetica,sans-Serif" font-size="10.00"> _dlamc3</text>
</g>
<!-- Node8 -->
<g id="node8" class="node"><title>Node8</title>
<g id="a_node8"><a xlink:href="../../d7/d30/classDotNumerics_1_1LinearAlgebra_1_1CSLapack_1_1DLAMC5.html" target="_top" xlink:title="– LAPACK auxiliary routine (version 3.1) – Univ. of Tennessee, Univ. of California Berkeley and NAG L...">
<polygon fill="white" stroke="black" points="214,-587.5 214,-617.5 352,-617.5 352,-587.5 214,-587.5"/>
<text text-anchor="start" x="222" y="-605.5" font-family="Helvetica,sans-Serif" font-size="10.00">DotNumerics.LinearAlgebra.</text>
<text text-anchor="middle" x="283" y="-594.5" font-family="Helvetica,sans-Serif" font-size="10.00">CSLapack.DLAMC5</text>
</a>
</g>
</g>
<!-- Node6&#45;&gt;Node8 -->
<g id="edge10" class="edge"><title>Node6&#45;&gt;Node8</title>
<path fill="none" stroke="#9a32cd" stroke-dasharray="5,2" d="M118.749,-655.89C130.877,-651.39 143.878,-646.677 156,-642.5 181.171,-633.827 209.401,-624.802 232.75,-617.523"/>
<polygon fill="#9a32cd" stroke="#9a32cd" points="117.387,-652.662 109.243,-659.439 119.835,-659.22 117.387,-652.662"/>
<text text-anchor="middle" x="176" y="-645.5" font-family="Helvetica,sans-Serif" font-size="10.00"> _dlamc3</text>
</g>
<!-- Node7&#45;&gt;Node4 -->
<g id="edge7" class="edge"><title>Node7&#45;&gt;Node4</title>
<path fill="none" stroke="#9a32cd" stroke-dasharray="5,2" d="M362.328,-660.737C383.843,-663.274 406.993,-666.004 427.883,-668.467"/>
<polygon fill="#9a32cd" stroke="#9a32cd" points="362.586,-657.243 352.245,-659.548 361.766,-664.195 362.586,-657.243"/>
<text text-anchor="middle" x="390" y="-669.5" font-family="Helvetica,sans-Serif" font-size="10.00"> _dlamc4</text>
</g>
<!-- Node8&#45;&gt;Node4 -->
<g id="edge9" class="edge"><title>Node8&#45;&gt;Node4</title>
<path fill="none" stroke="#9a32cd" stroke-dasharray="5,2" d="M336.942,-620.98C372.73,-633.472 419.389,-649.758 452.904,-661.457"/>
<polygon fill="#9a32cd" stroke="#9a32cd" points="337.752,-617.555 327.157,-617.564 335.445,-624.164 337.752,-617.555"/>
<text text-anchor="middle" x="390" y="-649.5" font-family="Helvetica,sans-Serif" font-size="10.00"> _dlamc5</text>
</g>
<!-- Node9&#45;&gt;Node1 -->
<g id="edge11" class="edge"><title>Node9&#45;&gt;Node1</title>
<path fill="none" stroke="#9a32cd" stroke-dasharray="5,2" d="M1004.11,-542.92C1019.4,-538.66 1035.02,-533.268 1049,-526.5 1076.27,-513.3 1103.26,-490.599 1119.53,-475.568"/>
<polygon fill="#9a32cd" stroke="#9a32cd" points="1002.9,-539.619 994.131,-545.559 1004.69,-546.386 1002.9,-539.619"/>
<text text-anchor="middle" x="1030.5" y="-543.5" font-family="Helvetica,sans-Serif" font-size="10.00"> _drscl</text>
</g>
<!-- Node10 -->
<g id="node10" class="node"><title>Node10</title>
<g id="a_node10"><a xlink:href="../../d1/d76/classDotNumerics_1_1LinearAlgebra_1_1CSLapack_1_1DSCAL.html" target="_top" xlink:title=" ">
<polygon fill="white" stroke="black" points="642,-460.5 642,-490.5 780,-490.5 780,-460.5 642,-460.5"/>
<text text-anchor="start" x="650" y="-478.5" font-family="Helvetica,sans-Serif" font-size="10.00">DotNumerics.LinearAlgebra.</text>
<text text-anchor="middle" x="711" y="-467.5" font-family="Helvetica,sans-Serif" font-size="10.00">CSLapack.DSCAL</text>
</a>
</g>
</g>
<!-- Node10&#45;&gt;Node9 -->
<g id="edge12" class="edge"><title>Node10&#45;&gt;Node9</title>
<path fill="none" stroke="#9a32cd" stroke-dasharray="5,2" d="M765.228,-494.036C770.232,-495.854 775.218,-497.694 780,-499.5 816.938,-513.45 858.757,-530.428 887.775,-542.4"/>
<polygon fill="#9a32cd" stroke="#9a32cd" points="766.228,-490.676 755.634,-490.583 763.858,-497.263 766.228,-490.676"/>
<text text-anchor="middle" x="818" y="-524.5" font-family="Helvetica,sans-Serif" font-size="10.00"> _dscal</text>
</g>
<!-- Node10&#45;&gt;Node15 -->
<g id="edge20" class="edge"><title>Node10&#45;&gt;Node15</title>
<path fill="none" stroke="#9a32cd" stroke-dasharray="5,2" d="M773.589,-455.271C775.829,-453.787 777.977,-452.199 780,-450.5 792.201,-440.254 786.711,-430.742 798,-419.5 812.531,-405.03 820.813,-407.688 838,-396.5 861.577,-381.153 887.475,-361.82 904.625,-348.646"/>
<polygon fill="#9a32cd" stroke="#9a32cd" points="771.467,-452.456 764.568,-460.497 774.975,-458.513 771.467,-452.456"/>
<text text-anchor="middle" x="818" y="-422.5" font-family="Helvetica,sans-Serif" font-size="10.00"> _dscal</text>
</g>
<!-- Node11 -->
<g id="node11" class="node"><title>Node11</title>
<g id="a_node11"><a xlink:href="../../d3/d40/classDotNumerics_1_1LinearAlgebra_1_1CSLapack_1_1DLABAD.html" target="_top" xlink:title="– LAPACK auxiliary routine (version 3.1) – Univ. of Tennessee, Univ. of California Berkeley and NAG L...">
<polygon fill="white" stroke="black" points="642,-558.5 642,-588.5 780,-588.5 780,-558.5 642,-558.5"/>
<text text-anchor="start" x="650" y="-576.5" font-family="Helvetica,sans-Serif" font-size="10.00">DotNumerics.LinearAlgebra.</text>
<text text-anchor="middle" x="711" y="-565.5" font-family="Helvetica,sans-Serif" font-size="10.00">CSLapack.DLABAD</text>
</a>
</g>
</g>
<!-- Node11&#45;&gt;Node9 -->
<g id="edge14" class="edge"><title>Node11&#45;&gt;Node9</title>
<path fill="none" stroke="#9a32cd" stroke-dasharray="5,2" d="M790.328,-567.588C811.843,-565.965 834.993,-564.218 855.883,-562.641"/>
<polygon fill="#9a32cd" stroke="#9a32cd" points="789.953,-564.107 780.245,-568.349 790.48,-571.087 789.953,-564.107"/>
<text text-anchor="middle" x="818" y="-570.5" font-family="Helvetica,sans-Serif" font-size="10.00"> _dlabad</text>
</g>
<!-- Node12&#45;&gt;Node1 -->
<g id="edge15" class="edge"><title>Node12&#45;&gt;Node1</title>
<path fill="none" stroke="#9a32cd" stroke-dasharray="5,2" d="M790.224,-676.229C863.519,-683.815 972.896,-683.537 1049,-631.5 1104.14,-593.8 1125.71,-509.884 1132.43,-475.567"/>
<polygon fill="#9a32cd" stroke="#9a32cd" points="790.453,-672.733 780.128,-675.111 789.682,-679.69 790.453,-672.733"/>
<text text-anchor="middle" x="925" y="-683.5" font-family="Helvetica,sans-Serif" font-size="10.00"> _dlantr</text>
</g>
<!-- Node13 -->
<g id="node13" class="node"><title>Node13</title>
<g id="a_node13"><a xlink:href="../../de/d0f/classDotNumerics_1_1LinearAlgebra_1_1CSLapack_1_1DLASSQ.html" target="_top" xlink:title="– LAPACK auxiliary routine (version 3.1) – Univ. of Tennessee, Univ. of California Berkeley and NAG L...">
<polygon fill="white" stroke="black" points="428,-710.5 428,-740.5 566,-740.5 566,-710.5 428,-710.5"/>
<text text-anchor="start" x="436" y="-728.5" font-family="Helvetica,sans-Serif" font-size="10.00">DotNumerics.LinearAlgebra.</text>
<text text-anchor="middle" x="497" y="-717.5" font-family="Helvetica,sans-Serif" font-size="10.00">CSLapack.DLASSQ</text>
</a>
</g>
</g>
<!-- Node13&#45;&gt;Node12 -->
<g id="edge17" class="edge"><title>Node13&#45;&gt;Node12</title>
<path fill="none" stroke="#9a32cd" stroke-dasharray="5,2" d="M576.141,-711.824C592.118,-708.345 608.715,-704.228 624,-699.5 642.401,-693.809 662.278,-685.629 678.282,-678.505"/>
<polygon fill="#9a32cd" stroke="#9a32cd" points="575.349,-708.414 566.29,-713.908 576.798,-715.263 575.349,-708.414"/>
<text text-anchor="middle" x="604" y="-713.5" font-family="Helvetica,sans-Serif" font-size="10.00"> _dlassq</text>
</g>
<!-- Node14 -->
<g id="node14" class="node"><title>Node14</title>
<g id="a_node14"><a xlink:href="../../db/d6a/classDotNumerics_1_1LinearAlgebra_1_1CSLapack_1_1XERBLA.html" target="_top" xlink:title="– LAPACK auxiliary routine (version 3.1) – Univ. of Tennessee, Univ. of California Berkeley and NAG L...">
<polygon fill="white" stroke="black" points="428,-221.5 428,-251.5 566,-251.5 566,-221.5 428,-221.5"/>
<text text-anchor="start" x="436" y="-239.5" font-family="Helvetica,sans-Serif" font-size="10.00">DotNumerics.LinearAlgebra.</text>
<text text-anchor="middle" x="497" y="-228.5" font-family="Helvetica,sans-Serif" font-size="10.00">CSLapack.XERBLA</text>
</a>
</g>
</g>
<!-- Node14&#45;&gt;Node1 -->
<g id="edge18" class="edge"><title>Node14&#45;&gt;Node1</title>
<path fill="none" stroke="#9a32cd" stroke-dasharray="5,2" d="M576.393,-224.151C578.956,-223.907 581.497,-223.688 584,-223.5 696.768,-215.025 731.292,-201.061 838,-238.5 909.708,-263.659 932.255,-264.2 994,-308.5 1050.74,-349.207 1102.46,-415.508 1124.18,-445.235"/>
<polygon fill="#9a32cd" stroke="#9a32cd" points="576.004,-220.672 566.43,-225.21 576.744,-227.633 576.004,-220.672"/>
<text text-anchor="middle" x="818" y="-241.5" font-family="Helvetica,sans-Serif" font-size="10.00"> _xerbla</text>
</g>
<!-- Node14&#45;&gt;Node15 -->
<g id="edge22" class="edge"><title>Node14&#45;&gt;Node15</title>
<path fill="none" stroke="#9a32cd" stroke-dasharray="5,2" d="M576.398,-228.133C648.463,-224.012 756.198,-227.103 838,-269.5 864.108,-283.031 890.748,-304.239 907.318,-318.493"/>
<polygon fill="#9a32cd" stroke="#9a32cd" points="575.79,-224.665 566.031,-228.79 576.233,-231.651 575.79,-224.665"/>
<text text-anchor="middle" x="711" y="-248.5" font-family="Helvetica,sans-Serif" font-size="10.00"> _xerbla</text>
</g>
<!-- Node14&#45;&gt;Node18 -->
<g id="edge26" class="edge"><title>Node14&#45;&gt;Node18</title>
<path fill="none" stroke="#9a32cd" stroke-dasharray="5,2" d="M542.662,-255.881C582.196,-273.038 639.087,-297.726 675.293,-313.438"/>
<polygon fill="#9a32cd" stroke="#9a32cd" points="543.574,-252.462 533.007,-251.692 540.788,-258.884 543.574,-252.462"/>
<text text-anchor="middle" x="604" y="-294.5" font-family="Helvetica,sans-Serif" font-size="10.00"> _xerbla</text>
</g>
<!-- Node15&#45;&gt;Node1 -->
<g id="edge19" class="edge"><title>Node15&#45;&gt;Node1</title>
<path fill="none" stroke="#9a32cd" stroke-dasharray="5,2" d="M959.564,-353.895C1001.64,-379.464 1072.78,-422.693 1110.24,-445.452"/>
<polygon fill="#9a32cd" stroke="#9a32cd" points="961.159,-350.769 950.796,-348.567 957.524,-356.751 961.159,-350.769"/>
<text text-anchor="middle" x="1030.5" y="-408.5" font-family="Helvetica,sans-Serif" font-size="10.00"> _dlatrs</text>
</g>
<!-- Node16 -->
<g id="node16" class="node"><title>Node16</title>
<g id="a_node16"><a xlink:href="../../da/d10/classDotNumerics_1_1LinearAlgebra_1_1CSLapack_1_1DASUM.html" target="_top" xlink:title=" ">
<polygon fill="white" stroke="black" points="642,-119.5 642,-149.5 780,-149.5 780,-119.5 642,-119.5"/>
<text text-anchor="start" x="650" y="-137.5" font-family="Helvetica,sans-Serif" font-size="10.00">DotNumerics.LinearAlgebra.</text>
<text text-anchor="middle" x="711" y="-126.5" font-family="Helvetica,sans-Serif" font-size="10.00">CSLapack.DASUM</text>
</a>
</g>
</g>
<!-- Node16&#45;&gt;Node15 -->
<g id="edge23" class="edge"><title>Node16&#45;&gt;Node15</title>
<path fill="none" stroke="#9a32cd" stroke-dasharray="5,2" d="M778.758,-152.553C803.667,-160.257 828.268,-169.337 838,-177.5 884.442,-216.453 910.181,-287.204 919.695,-318.228"/>
<polygon fill="#9a32cd" stroke="#9a32cd" points="779.442,-149.103 768.857,-149.562 777.418,-155.804 779.442,-149.103"/>
<text text-anchor="middle" x="818" y="-180.5" font-family="Helvetica,sans-Serif" font-size="10.00"> _dasum</text>
</g>
<!-- Node21 -->
<g id="node21" class="node"><title>Node21</title>
<g id="a_node21"><a xlink:href="../../da/dc8/classDotNumerics_1_1LinearAlgebra_1_1CSLapack_1_1DLACON.html" target="_top" xlink:title="– LAPACK auxiliary routine (version 3.0) – Univ. of Tennessee, Univ. of California Berkeley,...">
<polygon fill="white" stroke="black" points="856,-82.5 856,-112.5 994,-112.5 994,-82.5 856,-82.5"/>
<text text-anchor="start" x="864" y="-100.5" font-family="Helvetica,sans-Serif" font-size="10.00">DotNumerics.LinearAlgebra.</text>
<text text-anchor="middle" x="925" y="-89.5" font-family="Helvetica,sans-Serif" font-size="10.00">CSLapack.DLACON</text>
</a>
</g>
</g>
<!-- Node16&#45;&gt;Node21 -->
<g id="edge35" class="edge"><title>Node16&#45;&gt;Node21</title>
<path fill="none" stroke="#9a32cd" stroke-dasharray="5,2" d="M767.837,-116.623C777.804,-113.905 788.15,-111.383 798,-109.5 816.669,-105.93 837.108,-103.403 855.988,-101.621"/>
<polygon fill="#9a32cd" stroke="#9a32cd" points="766.703,-113.306 758.029,-119.391 768.604,-120.043 766.703,-113.306"/>
<text text-anchor="middle" x="818" y="-112.5" font-family="Helvetica,sans-Serif" font-size="10.00"> _dasum</text>
</g>
<!-- Node17 -->
<g id="node17" class="node"><title>Node17</title>
<g id="a_node17"><a xlink:href="../../dc/d96/classDotNumerics_1_1LinearAlgebra_1_1CSLapack_1_1IDAMAX.html" target="_top" xlink:title=" ">
<polygon fill="white" stroke="black" points="642,-59.5 642,-89.5 780,-89.5 780,-59.5 642,-59.5"/>
<text text-anchor="start" x="650" y="-77.5" font-family="Helvetica,sans-Serif" font-size="10.00">DotNumerics.LinearAlgebra.</text>
<text text-anchor="middle" x="711" y="-66.5" font-family="Helvetica,sans-Serif" font-size="10.00">CSLapack.IDAMAX</text>
</a>
</g>
</g>
<!-- Node17&#45;&gt;Node1 -->
<g id="edge31" class="edge"><title>Node17&#45;&gt;Node1</title>
<path fill="none" stroke="#9a32cd" stroke-dasharray="5,2" d="M765.153,-56.5071C824.738,-39.7062 922.373,-22.5328 994,-61.5 1066.28,-100.823 1120.02,-376.815 1132.33,-445.199"/>
<polygon fill="#9a32cd" stroke="#9a32cd" points="763.827,-53.2481 755.207,-59.4082 765.787,-59.9681 763.827,-53.2481"/>
<text text-anchor="middle" x="925" y="-64.5" font-family="Helvetica,sans-Serif" font-size="10.00"> _idamax</text>
</g>
<!-- Node17&#45;&gt;Node15 -->
<g id="edge24" class="edge"><title>Node17&#45;&gt;Node15</title>
<path fill="none" stroke="#9a32cd" stroke-dasharray="5,2" d="M751.839,-94.3286C761.156,-99.1521 770.989,-104.395 780,-109.5 780.825,-109.967 837.373,-144.789 838,-145.5 885.568,-199.499 911.378,-284.234 920.334,-318.437"/>
<polygon fill="#9a32cd" stroke="#9a32cd" points="753.239,-91.1131 742.743,-89.6658 750.046,-97.3423 753.239,-91.1131"/>
<text text-anchor="middle" x="818" y="-148.5" font-family="Helvetica,sans-Serif" font-size="10.00"> _idamax</text>
</g>
<!-- Node17&#45;&gt;Node21 -->
<g id="edge36" class="edge"><title>Node17&#45;&gt;Node21</title>
<path fill="none" stroke="#9a32cd" stroke-dasharray="5,2" d="M790.474,-72.1839C806.258,-72.5435 822.696,-73.5118 838,-75.5 849.615,-77.0089 861.913,-79.5609 873.465,-82.4036"/>
<polygon fill="#9a32cd" stroke="#9a32cd" points="790.265,-68.6805 780.214,-72.0309 790.161,-75.6797 790.265,-68.6805"/>
<text text-anchor="middle" x="818" y="-78.5" font-family="Helvetica,sans-Serif" font-size="10.00"> _idamax</text>
</g>
<!-- Node18&#45;&gt;Node15 -->
<g id="edge25" class="edge"><title>Node18&#45;&gt;Node15</title>
<path fill="none" stroke="#9a32cd" stroke-dasharray="5,2" d="M790.283,-317.306C806.082,-316.274 822.575,-316.077 838,-317.5 843.747,-318.03 849.682,-318.755 855.624,-319.606"/>
<polygon fill="#9a32cd" stroke="#9a32cd" points="789.72,-313.839 780.018,-318.096 790.257,-320.818 789.72,-313.839"/>
<text text-anchor="middle" x="818" y="-320.5" font-family="Helvetica,sans-Serif" font-size="10.00"> _dtrsv</text>
</g>
<!-- Node19 -->
<g id="node19" class="node"><title>Node19</title>
<g id="a_node19"><a xlink:href="../../d4/d70/classDotNumerics_1_1LinearAlgebra_1_1CSLapack_1_1DAXPY.html" target="_top" xlink:title=" ">
<polygon fill="white" stroke="black" points="642,-411.5 642,-441.5 780,-441.5 780,-411.5 642,-411.5"/>
<text text-anchor="start" x="650" y="-429.5" font-family="Helvetica,sans-Serif" font-size="10.00">DotNumerics.LinearAlgebra.</text>
<text text-anchor="middle" x="711" y="-418.5" font-family="Helvetica,sans-Serif" font-size="10.00">CSLapack.DAXPY</text>
</a>
</g>
</g>
<!-- Node19&#45;&gt;Node15 -->
<g id="edge28" class="edge"><title>Node19&#45;&gt;Node15</title>
<path fill="none" stroke="#9a32cd" stroke-dasharray="5,2" d="M769.245,-407.275C772.958,-405.475 776.577,-403.549 780,-401.5 789.183,-396.002 788.926,-391.177 798,-385.5 822.677,-370.063 852.728,-357.455 877.292,-348.522"/>
<polygon fill="#9a32cd" stroke="#9a32cd" points="767.558,-404.196 759.877,-411.494 770.433,-410.579 767.558,-404.196"/>
<text text-anchor="middle" x="818" y="-388.5" font-family="Helvetica,sans-Serif" font-size="10.00"> _daxpy</text>
</g>
<!-- Node20 -->
<g id="node20" class="node"><title>Node20</title>
<g id="a_node20"><a xlink:href="../../de/d1b/classDotNumerics_1_1LinearAlgebra_1_1CSLapack_1_1DDOT.html" target="_top" xlink:title=" ">
<polygon fill="white" stroke="black" points="642,-362.5 642,-392.5 780,-392.5 780,-362.5 642,-362.5"/>
<text text-anchor="start" x="650" y="-380.5" font-family="Helvetica,sans-Serif" font-size="10.00">DotNumerics.LinearAlgebra.</text>
<text text-anchor="middle" x="711" y="-369.5" font-family="Helvetica,sans-Serif" font-size="10.00">CSLapack.DDOT</text>
</a>
</g>
</g>
<!-- Node20&#45;&gt;Node15 -->
<g id="edge30" class="edge"><title>Node20&#45;&gt;Node15</title>
<path fill="none" stroke="#9a32cd" stroke-dasharray="5,2" d="M766.871,-359.56C777.143,-356.588 787.844,-353.747 798,-351.5 816.663,-347.371 837.099,-343.977 855.979,-341.293"/>
<polygon fill="#9a32cd" stroke="#9a32cd" points="765.775,-356.234 757.185,-362.436 767.767,-362.945 765.775,-356.234"/>
<text text-anchor="middle" x="818" y="-354.5" font-family="Helvetica,sans-Serif" font-size="10.00"> _ddot</text>
</g>
<!-- Node21&#45;&gt;Node1 -->
<g id="edge33" class="edge"><title>Node21&#45;&gt;Node1</title>
<path fill="none" stroke="#9a32cd" stroke-dasharray="5,2" d="M966.296,-117.377C993.275,-132.595 1027.63,-155.974 1049,-185.5 1110.59,-270.602 1129,-401.135 1133.63,-445.297"/>
<polygon fill="#9a32cd" stroke="#9a32cd" points="967.91,-114.271 957.458,-112.533 964.545,-120.409 967.91,-114.271"/>
<text text-anchor="middle" x="1030.5" y="-188.5" font-family="Helvetica,sans-Serif" font-size="10.00"> _dlacon</text>
</g>
<!-- Node22 -->
<g id="node22" class="node"><title>Node22</title>
<g id="a_node22"><a xlink:href="../../d1/d2a/classDotNumerics_1_1LinearAlgebra_1_1CSLapack_1_1DCOPY.html" target="_top" xlink:title=" ">
<polygon fill="white" stroke="black" points="642,-0.5 642,-30.5 780,-30.5 780,-0.5 642,-0.5"/>
<text text-anchor="start" x="650" y="-18.5" font-family="Helvetica,sans-Serif" font-size="10.00">DotNumerics.LinearAlgebra.</text>
<text text-anchor="middle" x="711" y="-7.5" font-family="Helvetica,sans-Serif" font-size="10.00">CSLapack.DCOPY</text>
</a>
</g>
</g>
<!-- Node22&#45;&gt;Node21 -->
<g id="edge34" class="edge"><title>Node22&#45;&gt;Node21</title>
<path fill="none" stroke="#9a32cd" stroke-dasharray="5,2" d="M771.096,-33.6643C792.377,-40.6072 816.447,-48.9276 838,-57.5 856.82,-64.9853 877.408,-74.5117 893.721,-82.3899"/>
<polygon fill="#9a32cd" stroke="#9a32cd" points="772.126,-30.3188 761.534,-30.5753 769.974,-36.9798 772.126,-30.3188"/>
<text text-anchor="middle" x="818" y="-60.5" font-family="Helvetica,sans-Serif" font-size="10.00"> _dcopy</text>
</g>
</g>
</svg>
        <g id="navigator" transform="translate(0 0)" fill="#404254">
                <rect fill="#f2f5e9" fill-opacity="0.5" stroke="#606060" stroke-width=".5" x="0" y="0" width="60" height="60"/>
                <use id="zoomplus" xlink:href="#zoomPlus" x="17" y="9" onmousedown="handleZoom(evt,'in')"/>
                <use id="zoomminus" xlink:href="#zoomMin" x="42" y="9" onmousedown="handleZoom(evt,'out')"/>
                <use id="reset" xlink:href="#resetDef" x="30" y="36" onmousedown="handleReset()"/>
                <g id="arrowUp" xlink:href="#dirArrow" transform="translate(30 24)" onmousedown="handlePan(0,-1)">
                  <use xlink:href="#rim" fill="#404040">
                        <set attributeName="fill" to="#808080" begin="arrowUp.mouseover" end="arrowUp.mouseout"/>
                  </use>
                  <path fill="none" stroke="white" stroke-width="1.5" d="M0,-3.0v7 M-2.5,-0.5L0,-3.0L2.5,-0.5"/>
                </g>
                <g id="arrowRight" xlink:href="#dirArrow" transform="rotate(90) translate(36 -43)" onmousedown="handlePan(1,0)">
                  <use xlink:href="#rim" fill="#404040">
                        <set attributeName="fill" to="#808080" begin="arrowRight.mouseover" end="arrowRight.mouseout"/>
                  </use>
                  <path fill="none" stroke="white" stroke-width="1.5" d="M0,-3.0v7 M-2.5,-0.5L0,-3.0L2.5,-0.5"/>
                </g>
                <g id="arrowDown" xlink:href="#dirArrow" transform="rotate(180) translate(-30 -48)" onmousedown="handlePan(0,1)">
                  <use xlink:href="#rim" fill="#404040">
                        <set attributeName="fill" to="#808080" begin="arrowDown.mouseover" end="arrowDown.mouseout"/>
                  </use>
                  <path fill="none" stroke="white" stroke-width="1.5" d="M0,-3.0v7 M-2.5,-0.5L0,-3.0L2.5,-0.5"/>
                </g>
                <g id="arrowLeft" xlink:href="#dirArrow" transform="rotate(270) translate(-36 17)" onmousedown="handlePan(-1,0)">
                  <use xlink:href="#rim" fill="#404040">
                        <set attributeName="fill" to="#808080" begin="arrowLeft.mouseover" end="arrowLeft.mouseout"/>
                  </use>
                  <path fill="none" stroke="white" stroke-width="1.5" d="M0,-3.0v7 M-2.5,-0.5L0,-3.0L2.5,-0.5"/>
                </g>
        </g>
        <svg viewBox="0 0 15 15" width="100%" height="30px" preserveAspectRatio="xMaxYMin meet">
         <g id="arrow_out" transform="scale(0.3 0.3)">
          <a xlink:href="classDotNumerics_1_1LinearAlgebra_1_1CSLapack_1_1DTRCON__coll__graph_org.svg" target="_base">
           <rect id="button" ry="5" rx="5" y="6" x="6" height="38" width="38"
                fill="#f2f5e9" fill-opacity="0.5" stroke="#606060" stroke-width="1.0"/>
           <path id="arrow"
             d="M 11.500037,31.436501 C 11.940474,20.09759 22.043105,11.32322 32.158766,21.979434 L 37.068811,17.246167 C 37.068811,17.246167 37.088388,32 37.088388,32 L 22.160133,31.978069 C 22.160133,31.978069 26.997745,27.140456 26.997745,27.140456 C 18.528582,18.264221 13.291696,25.230495 11.500037,31.436501 z"
             style="fill:#404040;"/>
          </a>
         </g>
        </svg>
</svg>
