<?xml version="1.0" encoding="UTF-8" standalone="no"?>
<!DOCTYPE svg PUBLIC "-//W3C//DTD SVG 1.1//EN"
 "http://www.w3.org/Graphics/SVG/1.1/DTD/svg11.dtd">
<!-- Generated by graphviz version 2.38.0 (20140413.2041)
 -->
<!-- Title: IG.Forms.MathematicaCalculatorApp Pages: 1 -->
<svg width="329pt" height="283pt"
 viewBox="0.00 0.00 328.50 283.00" xmlns="http://www.w3.org/2000/svg" xmlns:xlink="http://www.w3.org/1999/xlink">
<g id="graph0" class="graph" transform="scale(1 1) rotate(0) translate(4 279)">
<title>IG.Forms.MathematicaCalculatorApp</title>
<polygon fill="white" stroke="none" points="-4,4 -4,-279 324.5,-279 324.5,4 -4,4"/>
<!-- Node1 -->
<g id="node1" class="node"><title>Node1</title>
<g id="a_node1"><a xlink:title=" ">
<polygon fill="#bfbfbf" stroke="black" points="0,-0.5 0,-19.5 177,-19.5 177,-0.5 0,-0.5"/>
<text text-anchor="middle" x="88.5" y="-7.5" font-family="Helvetica,sans-Serif" font-size="10.00">IG.Forms.MathematicaCalculatorApp</text>
</a>
</g>
</g>
<!-- Node2 -->
<g id="node2" class="node"><title>Node2</title>
<g id="a_node2"><a xlink:title=" ">
<polygon fill="white" stroke="#bfbfbf" points="13,-73 13,-92 52,-92 52,-73 13,-73"/>
<text text-anchor="middle" x="32.5" y="-80" font-family="Helvetica,sans-Serif" font-size="10.00">Form</text>
</a>
</g>
</g>
<!-- Node2&#45;&gt;Node1 -->
<g id="edge1" class="edge"><title>Node2&#45;&gt;Node1</title>
<path fill="none" stroke="midnightblue" d="M45.6881,-64.8971C56.931,-50.7431 72.648,-30.9566 81.5771,-19.7154"/>
<polygon fill="midnightblue" stroke="midnightblue" points="42.8459,-62.848 39.3667,-72.8553 48.3272,-67.2019 42.8459,-62.848"/>
</g>
<!-- Node3 -->
<g id="node3" class="node"><title>Node3</title>
<g id="a_node3"><a xlink:title=" ">
<polygon fill="white" stroke="#bfbfbf" points="100.5,-255.5 100.5,-274.5 150.5,-274.5 150.5,-255.5 100.5,-255.5"/>
<text text-anchor="middle" x="125.5" y="-262.5" font-family="Helvetica,sans-Serif" font-size="10.00">System</text>
</a>
</g>
</g>
<!-- Node3&#45;&gt;Node1 -->
<g id="edge2" class="edge"><title>Node3&#45;&gt;Node1</title>
<path fill="none" stroke="#9a32cd" stroke-dasharray="5,2" d="M121.944,-245.301C116.202,-214.629 104.795,-151.67 97.5,-98 93.6143,-69.4118 90.5389,-35.3359 89.2114,-19.6657"/>
<polygon fill="#9a32cd" stroke="#9a32cd" points="118.554,-246.211 123.847,-255.389 125.433,-244.914 118.554,-246.211"/>
<text text-anchor="middle" x="124.5" y="-85.5" font-family="Helvetica,sans-Serif" font-size="10.00"> btnClose</text>
<text text-anchor="middle" x="124.5" y="-74.5" font-family="Helvetica,sans-Serif" font-size="10.00">components</text>
</g>
<!-- Node4 -->
<g id="node4" class="node"><title>Node4</title>
<g id="a_node4"><a xlink:href="../../d6/df3/classIG_1_1Forms_1_1MathematicaCalculatorControl.html" target="_top" xlink:title=" ">
<polygon fill="white" stroke="black" points="160.5,-67.5 160.5,-97.5 320.5,-97.5 320.5,-67.5 160.5,-67.5"/>
<text text-anchor="start" x="168.5" y="-85.5" font-family="Helvetica,sans-Serif" font-size="10.00">IG.Forms.MathematicaCalculator</text>
<text text-anchor="middle" x="240.5" y="-74.5" font-family="Helvetica,sans-Serif" font-size="10.00">Control</text>
</a>
</g>
</g>
<!-- Node3&#45;&gt;Node4 -->
<g id="edge5" class="edge"><title>Node3&#45;&gt;Node4</title>
<path fill="none" stroke="#9a32cd" stroke-dasharray="5,2" d="M127.281,-245.054C131.071,-214.49 142.491,-153.904 175.5,-116 182.129,-108.388 190.962,-102.36 199.975,-97.6691"/>
<polygon fill="#9a32cd" stroke="#9a32cd" points="123.781,-244.867 126.173,-255.188 130.739,-245.628 123.781,-244.867"/>
<text text-anchor="middle" x="206" y="-229" font-family="Helvetica,sans-Serif" font-size="10.00"> txtMessages</text>
<text text-anchor="middle" x="206" y="-218" font-family="Helvetica,sans-Serif" font-size="10.00">lblGraphics</text>
<text text-anchor="middle" x="206" y="-207" font-family="Helvetica,sans-Serif" font-size="10.00">txtPrint</text>
<text text-anchor="middle" x="206" y="-196" font-family="Helvetica,sans-Serif" font-size="10.00">_resources</text>
<text text-anchor="middle" x="206" y="-185" font-family="Helvetica,sans-Serif" font-size="10.00">chkNumeric</text>
<text text-anchor="middle" x="206" y="-174" font-family="Helvetica,sans-Serif" font-size="10.00">imgGraphics</text>
<text text-anchor="middle" x="206" y="-163" font-family="Helvetica,sans-Serif" font-size="10.00">components</text>
<text text-anchor="middle" x="206" y="-152" font-family="Helvetica,sans-Serif" font-size="10.00">lblInput</text>
<text text-anchor="middle" x="206" y="-141" font-family="Helvetica,sans-Serif" font-size="10.00">_defaultImage</text>
<text text-anchor="middle" x="206" y="-130" font-family="Helvetica,sans-Serif" font-size="10.00">textResult</text>
<text text-anchor="middle" x="206" y="-119" font-family="Helvetica,sans-Serif" font-size="10.00">...</text>
</g>
<!-- Node4&#45;&gt;Node1 -->
<g id="edge3" class="edge"><title>Node4&#45;&gt;Node1</title>
<path fill="none" stroke="#9a32cd" stroke-dasharray="5,2" d="M200.65,-63.0167C170.335,-48.9565 130.018,-30.2566 106.899,-19.5336"/>
<polygon fill="#9a32cd" stroke="#9a32cd" points="199.561,-66.3702 210.106,-67.4027 202.507,-60.0199 199.561,-66.3702"/>
<text text-anchor="middle" x="239" y="-41" font-family="Helvetica,sans-Serif" font-size="10.00"> mathematicaCalculatorControl1</text>
</g>
<!-- Node5 -->
<g id="node5" class="node"><title>Node5</title>
<g id="a_node5"><a xlink:title=" ">
<polygon fill="white" stroke="#bfbfbf" points="206.5,-255.5 206.5,-274.5 274.5,-274.5 274.5,-255.5 206.5,-255.5"/>
<text text-anchor="middle" x="240.5" y="-262.5" font-family="Helvetica,sans-Serif" font-size="10.00">UserControl</text>
</a>
</g>
</g>
<!-- Node5&#45;&gt;Node4 -->
<g id="edge4" class="edge"><title>Node5&#45;&gt;Node4</title>
<path fill="none" stroke="midnightblue" d="M240.5,-245.09C240.5,-208.701 240.5,-129.694 240.5,-97.5391"/>
<polygon fill="midnightblue" stroke="midnightblue" points="237,-245.294 240.5,-255.294 244,-245.294 237,-245.294"/>
</g>
</g>
</svg>
