<?xml version="1.0" encoding="UTF-8" standalone="no"?>
<!DOCTYPE svg PUBLIC "-//W3C//DTD SVG 1.1//EN"
 "http://www.w3.org/Graphics/SVG/1.1/DTD/svg11.dtd">
<!-- Generated by graphviz version 2.38.0 (20140413.2041)
 -->
<!-- Title: IG.Num.IFunc2d Pages: 1 -->
<svg width="681pt" height="748pt"
 viewBox="0.00 0.00 681.00 748.00" xmlns="http://www.w3.org/2000/svg" xmlns:xlink="http://www.w3.org/1999/xlink">
<g id="graph0" class="graph" transform="scale(1 1) rotate(0) translate(4 744)">
<title>IG.Num.IFunc2d</title>
<polygon fill="white" stroke="none" points="-4,4 -4,-744 677,-744 677,4 -4,4"/>
<!-- Node1 -->
<g id="node1" class="node"><title>Node1</title>
<g id="a_node1"><a xlink:title="Represents scalar functions of 2 variables.">
<polygon fill="#bfbfbf" stroke="black" points="0,-328 0,-347 87,-347 87,-328 0,-328"/>
<text text-anchor="middle" x="43.5" y="-335" font-family="Helvetica,sans-Serif" font-size="10.00">IG.Num.IFunc2d</text>
</a>
</g>
</g>
<!-- Node2 -->
<g id="node2" class="node"><title>Node2</title>
<g id="a_node2"><a xlink:href="../../d6/dc1/classIG_1_1Gr3d_1_1VtkPlotBase_1_1ExampleFunc2dShifted.html" target="_top" xlink:title="Function defined as some other function shifted for the specified value.">
<polygon fill="white" stroke="black" points="510.5,-709.5 510.5,-739.5 659.5,-739.5 659.5,-709.5 510.5,-709.5"/>
<text text-anchor="start" x="518.5" y="-727.5" font-family="Helvetica,sans-Serif" font-size="10.00">IG.Gr3d.VtkPlotBase.Example</text>
<text text-anchor="middle" x="585" y="-716.5" font-family="Helvetica,sans-Serif" font-size="10.00">Func2dShifted</text>
</a>
</g>
</g>
<!-- Node1&#45;&gt;Node2 -->
<g id="edge1" class="edge"><title>Node1&#45;&gt;Node2</title>
<path fill="none" stroke="midnightblue" d="M45.7243,-357.429C49.4667,-401.122 64.401,-506.167 123,-565.5 228.596,-672.419 409.385,-707.51 510.33,-718.978"/>
<polygon fill="midnightblue" stroke="midnightblue" points="49.2001,-356.974 44.9659,-347.262 42.2195,-357.495 49.2001,-356.974"/>
</g>
<!-- Node3 -->
<g id="node3" class="node"><title>Node3</title>
<g id="a_node3"><a xlink:href="../../d9/dc1/classIG_1_1Neural_1_1Func2dFromApproximator.html" target="_top" xlink:title="Approximator function of 2 variables that is based on a general approximator function of vector argum...">
<polygon fill="white" stroke="black" points="288,-518 288,-537 461,-537 461,-518 288,-518"/>
<text text-anchor="middle" x="374.5" y="-525" font-family="Helvetica,sans-Serif" font-size="10.00">IG.Neural.Func2dFromApproximator</text>
</a>
</g>
</g>
<!-- Node1&#45;&gt;Node3 -->
<g id="edge2" class="edge"><title>Node1&#45;&gt;Node3</title>
<path fill="none" stroke="midnightblue" d="M47.7514,-357.197C54.6767,-392.285 74.4139,-465.147 123,-499.5 174.453,-535.88 247.281,-540.192 301.157,-537.001"/>
<polygon fill="midnightblue" stroke="midnightblue" points="51.1708,-356.438 45.9328,-347.228 44.2844,-357.694 51.1708,-356.438"/>
</g>
<!-- Node4 -->
<g id="node4" class="node"><title>Node4</title>
<g id="a_node4"><a xlink:href="../../da/d29/classIG_1_1Num_1_1Func2dBase.html" target="_top" xlink:title="Base class for scalar functions of 2 variables (base for implementation of IFunc2d interface).">
<polygon fill="white" stroke="black" points="134,-442 134,-461 241,-461 241,-442 134,-442"/>
<text text-anchor="middle" x="187.5" y="-449" font-family="Helvetica,sans-Serif" font-size="10.00">IG.Num.Func2dBase</text>
</a>
</g>
</g>
<!-- Node1&#45;&gt;Node4 -->
<g id="edge3" class="edge"><title>Node1&#45;&gt;Node4</title>
<path fill="none" stroke="midnightblue" d="M56.1536,-355.544C69.9405,-375.608 94.6351,-407.783 123,-427.5 131.709,-433.554 142.143,-438.318 152.013,-441.95"/>
<polygon fill="midnightblue" stroke="midnightblue" points="58.9213,-353.386 50.4528,-347.019 53.1027,-357.277 58.9213,-353.386"/>
</g>
<!-- Node5 -->
<g id="node5" class="node"><title>Node5</title>
<g id="a_node5"><a xlink:href="../../d8/d1b/classIG_1_1Num_1_1Func2dBaseNoGradient.html" target="_top" xlink:title="Base class for scalar functions of 2 variables (implementations of the IFunc2d interface)....">
<polygon fill="white" stroke="black" points="296.5,-556 296.5,-575 452.5,-575 452.5,-556 296.5,-556"/>
<text text-anchor="middle" x="374.5" y="-563" font-family="Helvetica,sans-Serif" font-size="10.00">IG.Num.Func2dBaseNoGradient</text>
</a>
</g>
</g>
<!-- Node1&#45;&gt;Node5 -->
<g id="edge25" class="edge"><title>Node1&#45;&gt;Node5</title>
<path fill="none" stroke="midnightblue" d="M46.1413,-357.211C50.609,-397.203 66.7385,-487.781 123,-531.5 171.691,-569.336 242.389,-575.882 296.273,-574.088"/>
<polygon fill="midnightblue" stroke="midnightblue" points="49.6134,-356.754 45.1491,-347.146 42.6471,-357.441 49.6134,-356.754"/>
</g>
<!-- Node6 -->
<g id="node6" class="node"><title>Node6</title>
<g id="a_node6"><a xlink:href="../../da/dee/classIG_1_1Num_1_1Func2dBaseNoHessian.html" target="_top" xlink:title="Base class for scalar functions of 2 variables (implementations of the IFunc2d interface)....">
<polygon fill="white" stroke="black" points="297,-480 297,-499 452,-499 452,-480 297,-480"/>
<text text-anchor="middle" x="374.5" y="-487" font-family="Helvetica,sans-Serif" font-size="10.00">IG.Num.Func2dBaseNoHessian</text>
</a>
</g>
</g>
<!-- Node1&#45;&gt;Node6 -->
<g id="edge26" class="edge"><title>Node1&#45;&gt;Node6</title>
<path fill="none" stroke="midnightblue" d="M49.642,-356.782C58.7989,-386.906 81.0317,-444.383 123,-470.5 182.341,-507.427 265.547,-505.568 319.488,-499.012"/>
<polygon fill="midnightblue" stroke="midnightblue" points="52.9669,-355.679 46.8477,-347.03 46.2377,-357.607 52.9669,-355.679"/>
</g>
<!-- Node14 -->
<g id="node14" class="node"><title>Node14</title>
<g id="a_node14"><a xlink:href="../../df/d8b/classIG_1_1Num_1_1Func2dExamples_1_1Func2dXY.html" target="_top" xlink:title="Function f(x, y) = x * y.">
<polygon fill="white" stroke="black" points="497,-360 497,-379 673,-379 673,-360 497,-360"/>
<text text-anchor="middle" x="585" y="-367" font-family="Helvetica,sans-Serif" font-size="10.00">IG.Num.Func2dExamples.Func2dXY</text>
</a>
</g>
</g>
<!-- Node1&#45;&gt;Node14 -->
<g id="edge28" class="edge"><title>Node1&#45;&gt;Node14</title>
<path fill="none" stroke="midnightblue" d="M71.7898,-351.491C86.5886,-358.516 105.405,-366.562 123,-371.5 267.968,-412.186 311.187,-409.571 461,-394.5 476.394,-392.951 512.554,-385.429 541.708,-379.036"/>
<polygon fill="midnightblue" stroke="midnightblue" points="73.2214,-348.295 62.6983,-347.064 70.1572,-354.588 73.2214,-348.295"/>
</g>
<!-- Node15 -->
<g id="node15" class="node"><title>Node15</title>
<g id="a_node15"><a xlink:href="../../d3/d2f/classIG_1_1Num_1_1Func2dFromScalarFunction.html" target="_top" xlink:title="Scalar function of 2 variables that is based on a general scalar function of vector argument.">
<polygon fill="white" stroke="black" points="288,-366 288,-385 461,-385 461,-366 288,-366"/>
<text text-anchor="middle" x="374.5" y="-373" font-family="Helvetica,sans-Serif" font-size="10.00">IG.Num.Func2dFromScalarFunction</text>
</a>
</g>
</g>
<!-- Node1&#45;&gt;Node15 -->
<g id="edge29" class="edge"><title>Node1&#45;&gt;Node15</title>
<path fill="none" stroke="midnightblue" d="M97.1499,-347.494C105.77,-348.957 114.621,-350.353 123,-351.5 177.648,-358.978 239.319,-364.918 287.796,-369.017"/>
<polygon fill="midnightblue" stroke="midnightblue" points="97.6311,-344.026 87.1791,-345.759 96.4308,-350.922 97.6311,-344.026"/>
</g>
<!-- Node16 -->
<g id="node16" class="node"><title>Node16</title>
<g id="a_node16"><a xlink:href="../../d5/da9/classIG_1_1Num_1_1Func2dFromScalarScript.html" target="_top" xlink:title="Scalar function of 2 variables that is generated from expressions for evaluation of function value,...">
<polygon fill="white" stroke="black" points="504.5,-322 504.5,-341 665.5,-341 665.5,-322 504.5,-322"/>
<text text-anchor="middle" x="585" y="-329" font-family="Helvetica,sans-Serif" font-size="10.00">IG.Num.Func2dFromScalarScript</text>
</a>
</g>
</g>
<!-- Node1&#45;&gt;Node16 -->
<g id="edge30" class="edge"><title>Node1&#45;&gt;Node16</title>
<path fill="none" stroke="midnightblue" d="M97.5269,-336.91C192.624,-335.853 392.639,-333.628 504.311,-332.386"/>
<polygon fill="midnightblue" stroke="midnightblue" points="97.245,-333.413 87.2846,-337.024 97.3229,-340.413 97.245,-333.413"/>
</g>
<!-- Node17 -->
<g id="node17" class="node"><title>Node17</title>
<g id="a_node17"><a xlink:href="../../d0/d88/classIG_1_1Num_1_1Func2dVectorFormBase.html" target="_top" xlink:title="Base class for scalar functions of 2 variables (base for implementation of IFunc2d interface).">
<polygon fill="white" stroke="black" points="295.5,-88 295.5,-107 453.5,-107 453.5,-88 295.5,-88"/>
<text text-anchor="middle" x="374.5" y="-95" font-family="Helvetica,sans-Serif" font-size="10.00">IG.Num.Func2dVectorFormBase</text>
</a>
</g>
</g>
<!-- Node1&#45;&gt;Node17 -->
<g id="edge33" class="edge"><title>Node1&#45;&gt;Node17</title>
<path fill="none" stroke="midnightblue" d="M45.0973,-317.504C47.583,-273.875 60.1562,-170.159 123,-121.5 180.689,-76.8324 269.713,-80.2288 324.639,-87.9891"/>
<polygon fill="midnightblue" stroke="midnightblue" points="41.5927,-317.533 44.644,-327.679 48.5857,-317.845 41.5927,-317.533"/>
</g>
<!-- Node18 -->
<g id="node18" class="node"><title>Node18</title>
<g id="a_node18"><a xlink:href="../../db/d84/classIG_1_1Num_1_1Func2dLinear.html" target="_top" xlink:title="Linear (Affine) function of 2 variables.">
<polygon fill="white" stroke="black" points="529.5,-105 529.5,-124 640.5,-124 640.5,-105 529.5,-105"/>
<text text-anchor="middle" x="585" y="-112" font-family="Helvetica,sans-Serif" font-size="10.00">IG.Num.Func2dLinear</text>
</a>
</g>
</g>
<!-- Node1&#45;&gt;Node18 -->
<g id="edge31" class="edge"><title>Node1&#45;&gt;Node18</title>
<path fill="none" stroke="midnightblue" d="M48.559,-317.667C56.5119,-284.267 77.4961,-217.242 123,-184.5 187.149,-138.342 421.611,-121.874 529.277,-116.657"/>
<polygon fill="midnightblue" stroke="midnightblue" points="45.1029,-317.086 46.3448,-327.607 51.9354,-318.608 45.1029,-317.086"/>
</g>
<!-- Node19 -->
<g id="node19" class="node"><title>Node19</title>
<g id="a_node19"><a xlink:href="../../de/d0a/classIG_1_1Num_1_1Func2dQuadratic.html" target="_top" xlink:title="Quadratic function of 2 variables.">
<polygon fill="white" stroke="black" points="521.5,-67 521.5,-86 648.5,-86 648.5,-67 521.5,-67"/>
<text text-anchor="middle" x="585" y="-74" font-family="Helvetica,sans-Serif" font-size="10.00">IG.Num.Func2dQuadratic</text>
</a>
</g>
</g>
<!-- Node1&#45;&gt;Node19 -->
<g id="edge32" class="edge"><title>Node1&#45;&gt;Node19</title>
<path fill="none" stroke="midnightblue" d="M47.4852,-317.662C56.2461,-262.388 83.7616,-108.774 123,-79.5 184.184,-33.8539 410.136,-54.5656 521.344,-68.0891"/>
<polygon fill="midnightblue" stroke="midnightblue" points="43.9739,-317.466 45.9029,-327.884 50.8915,-318.537 43.9739,-317.466"/>
</g>
<!-- Node21 -->
<g id="node21" class="node"><title>Node21</title>
<g id="a_node21"><a xlink:href="../../db/d2c/classIG_1_1Num_1_1Func3d2dBase_1_1ComponentFunction1.html" target="_top" xlink:title="Class that represents a scalar function of 2 variables that is the first component of the specified 3...">
<polygon fill="white" stroke="black" points="500,-268.5 500,-298.5 670,-298.5 670,-268.5 500,-268.5"/>
<text text-anchor="start" x="508" y="-286.5" font-family="Helvetica,sans-Serif" font-size="10.00">IG.Num.Func3d2dBase.Component</text>
<text text-anchor="middle" x="585" y="-275.5" font-family="Helvetica,sans-Serif" font-size="10.00">Function1</text>
</a>
</g>
</g>
<!-- Node1&#45;&gt;Node21 -->
<g id="edge34" class="edge"><title>Node1&#45;&gt;Node21</title>
<path fill="none" stroke="midnightblue" d="M97.3941,-332.206C191.213,-322.815 387.444,-303.174 499.947,-291.913"/>
<polygon fill="midnightblue" stroke="midnightblue" points="96.8863,-328.739 87.2846,-333.218 97.5835,-335.704 96.8863,-328.739"/>
</g>
<!-- Node22 -->
<g id="node22" class="node"><title>Node22</title>
<g id="a_node22"><a xlink:href="../../d9/dbc/classIG_1_1Num_1_1Func3d2dBase_1_1ComponentFunction2.html" target="_top" xlink:title="Class that represents a scalar function of 2 variables that is the first component of the specified 3...">
<polygon fill="white" stroke="black" points="500,-211.5 500,-241.5 670,-241.5 670,-211.5 500,-211.5"/>
<text text-anchor="start" x="508" y="-229.5" font-family="Helvetica,sans-Serif" font-size="10.00">IG.Num.Func3d2dBase.Component</text>
<text text-anchor="middle" x="585" y="-218.5" font-family="Helvetica,sans-Serif" font-size="10.00">Function2</text>
</a>
</g>
</g>
<!-- Node1&#45;&gt;Node22 -->
<g id="edge35" class="edge"><title>Node1&#45;&gt;Node22</title>
<path fill="none" stroke="midnightblue" d="M69.123,-322.848C111.876,-298.329 203.384,-249.866 288,-231.5 358.192,-216.265 439.958,-216.173 499.744,-219.232"/>
<polygon fill="midnightblue" stroke="midnightblue" points="67.1764,-319.931 60.2835,-327.977 70.6895,-325.986 67.1764,-319.931"/>
</g>
<!-- Node23 -->
<g id="node23" class="node"><title>Node23</title>
<g id="a_node23"><a xlink:href="../../db/d01/classIG_1_1Num_1_1Func3d2dBase_1_1ComponentFunction3.html" target="_top" xlink:title="Class that represents a scalar function of 2 variables that is the third component of the specified 3...">
<polygon fill="white" stroke="black" points="500,-160.5 500,-190.5 670,-190.5 670,-160.5 500,-160.5"/>
<text text-anchor="start" x="508" y="-178.5" font-family="Helvetica,sans-Serif" font-size="10.00">IG.Num.Func3d2dBase.Component</text>
<text text-anchor="middle" x="585" y="-167.5" font-family="Helvetica,sans-Serif" font-size="10.00">Function3</text>
</a>
</g>
</g>
<!-- Node1&#45;&gt;Node23 -->
<g id="edge36" class="edge"><title>Node1&#45;&gt;Node23</title>
<path fill="none" stroke="midnightblue" d="M53.5955,-318.603C65.8705,-295.339 90.0562,-256.575 123,-237.5 240.407,-169.518 402.254,-164.061 499.65,-168.343"/>
<polygon fill="midnightblue" stroke="midnightblue" points="50.3341,-317.296 48.9387,-327.799 56.579,-320.459 50.3341,-317.296"/>
</g>
<!-- Node24 -->
<g id="node24" class="node"><title>Node24</title>
<g id="a_node24"><a xlink:href="../../d4/d33/classIG_1_1Num_1_1Func2dBasePlain__ToConsider.html" target="_top" xlink:title="Base class for scalar functions of 2 variables.">
<polygon fill="white" stroke="black" points="123,-0.5 123,-30.5 252,-30.5 252,-0.5 123,-0.5"/>
<text text-anchor="start" x="131" y="-18.5" font-family="Helvetica,sans-Serif" font-size="10.00">IG.Num.Func2dBasePlain</text>
<text text-anchor="middle" x="187.5" y="-7.5" font-family="Helvetica,sans-Serif" font-size="10.00">_ToConsider</text>
</a>
</g>
</g>
<!-- Node1&#45;&gt;Node24 -->
<g id="edge27" class="edge"><title>Node1&#45;&gt;Node24</title>
<path fill="none" stroke="midnightblue" d="M44.3798,-317.876C45.0913,-266.892 53.689,-128.455 123,-45.5 128.081,-39.4182 134.676,-34.4908 141.688,-30.5236"/>
<polygon fill="midnightblue" stroke="midnightblue" points="40.8799,-317.864 44.3308,-327.881 47.8798,-317.899 40.8799,-317.864"/>
</g>
<!-- Node4&#45;&gt;Node3 -->
<g id="edge4" class="edge"><title>Node4&#45;&gt;Node3</title>
<path fill="none" stroke="midnightblue" d="M210.474,-466.684C230.019,-479.542 259.793,-497.578 288,-508.5 297.784,-512.289 308.505,-515.415 318.948,-517.962"/>
<polygon fill="midnightblue" stroke="midnightblue" points="212.262,-463.669 202.005,-461.013 208.367,-469.485 212.262,-463.669"/>
</g>
<!-- Node4&#45;&gt;Node5 -->
<g id="edge5" class="edge"><title>Node4&#45;&gt;Node5</title>
<path fill="none" stroke="midnightblue" d="M201.823,-469.122C219.203,-490.805 251.707,-527.12 288,-546.5 295.243,-550.368 303.235,-553.449 311.337,-555.904"/>
<polygon fill="midnightblue" stroke="midnightblue" points="204.448,-466.797 195.53,-461.076 198.934,-471.109 204.448,-466.797"/>
</g>
<!-- Node4&#45;&gt;Node6 -->
<g id="edge7" class="edge"><title>Node4&#45;&gt;Node6</title>
<path fill="none" stroke="midnightblue" d="M245.02,-463.11C271.331,-468.514 302.243,-474.864 327.152,-479.98"/>
<polygon fill="midnightblue" stroke="midnightblue" points="245.683,-459.673 235.183,-461.089 244.275,-466.53 245.683,-459.673"/>
</g>
<!-- Node4&#45;&gt;Node15 -->
<g id="edge16" class="edge"><title>Node4&#45;&gt;Node15</title>
<path fill="none" stroke="midnightblue" d="M221.292,-438.029C258.339,-422.809 317.697,-398.424 350.26,-385.047"/>
<polygon fill="midnightblue" stroke="midnightblue" points="219.85,-434.837 211.93,-441.875 222.51,-441.312 219.85,-434.837"/>
</g>
<!-- Node4&#45;&gt;Node17 -->
<g id="edge18" class="edge"><title>Node4&#45;&gt;Node17</title>
<path fill="none" stroke="midnightblue" d="M196.199,-432.04C211.834,-393.121 249.134,-303.266 288,-231.5 314.152,-183.21 351.31,-129.025 366.561,-107.289"/>
<polygon fill="midnightblue" stroke="midnightblue" points="192.836,-431.025 192.38,-441.61 199.337,-433.619 192.836,-431.025"/>
</g>
<!-- Node20 -->
<g id="node20" class="node"><title>Node20</title>
<g id="a_node20"><a xlink:href="../../df/d17/classIG_1_1Num_1_1Func3d2dBase_1_1ComponentFunctionBase.html" target="_top" xlink:title="Base function for component functions, provides internal variable for vector function.">
<polygon fill="white" stroke="black" points="289.5,-240.5 289.5,-270.5 459.5,-270.5 459.5,-240.5 289.5,-240.5"/>
<text text-anchor="start" x="297.5" y="-258.5" font-family="Helvetica,sans-Serif" font-size="10.00">IG.Num.Func3d2dBase.Component</text>
<text text-anchor="middle" x="374.5" y="-247.5" font-family="Helvetica,sans-Serif" font-size="10.00">FunctionBase</text>
</a>
</g>
</g>
<!-- Node4&#45;&gt;Node20 -->
<g id="edge21" class="edge"><title>Node4&#45;&gt;Node20</title>
<path fill="none" stroke="midnightblue" d="M204.919,-434.105C240.73,-396.164 325.353,-306.51 359.171,-270.68"/>
<polygon fill="midnightblue" stroke="midnightblue" points="201.993,-432.106 197.674,-441.78 207.084,-436.911 201.993,-432.106"/>
</g>
<!-- Node5&#45;&gt;Node2 -->
<g id="edge6" class="edge"><title>Node5&#45;&gt;Node2</title>
<path fill="none" stroke="midnightblue" d="M393.847,-581.819C411.797,-598.169 439.496,-624.438 461,-649.5 478.831,-670.282 474.607,-683.739 497,-699.5 502.526,-703.389 508.65,-706.678 515.016,-709.457"/>
<polygon fill="midnightblue" stroke="midnightblue" points="396.111,-579.148 386.343,-575.046 391.421,-584.344 396.111,-579.148"/>
</g>
<!-- Node7 -->
<g id="node7" class="node"><title>Node7</title>
<g id="a_node7"><a xlink:href="../../db/da2/classIG_1_1Gr3d_1_1VtkPlotBase_1_1ExampleFunc2dLinear.html" target="_top" xlink:title="Function f(x,y)=x+y.">
<polygon fill="white" stroke="black" points="510.5,-621.5 510.5,-651.5 659.5,-651.5 659.5,-621.5 510.5,-621.5"/>
<text text-anchor="start" x="518.5" y="-639.5" font-family="Helvetica,sans-Serif" font-size="10.00">IG.Gr3d.VtkPlotBase.Example</text>
<text text-anchor="middle" x="585" y="-628.5" font-family="Helvetica,sans-Serif" font-size="10.00">Func2dLinear</text>
</a>
</g>
</g>
<!-- Node6&#45;&gt;Node7 -->
<g id="edge8" class="edge"><title>Node6&#45;&gt;Node7</title>
<path fill="none" stroke="midnightblue" d="M455.463,-504.163C457.396,-505.495 459.248,-506.938 461,-508.5 497.51,-541.05 461.323,-579.039 497,-612.5 501,-616.252 505.532,-619.426 510.377,-622.111"/>
<polygon fill="midnightblue" stroke="midnightblue" points="456.935,-500.971 446.525,-499.003 453.436,-507.034 456.935,-500.971"/>
</g>
<!-- Node8 -->
<g id="node8" class="node"><title>Node8</title>
<g id="a_node8"><a xlink:href="../../d8/d3a/classIG_1_1Gr3d_1_1VtkPlotBase_1_1ExampleFunc2dSquare.html" target="_top" xlink:title="Function f(x,y)=x*x+y*y.">
<polygon fill="white" stroke="black" points="510.5,-572.5 510.5,-602.5 659.5,-602.5 659.5,-572.5 510.5,-572.5"/>
<text text-anchor="start" x="518.5" y="-590.5" font-family="Helvetica,sans-Serif" font-size="10.00">IG.Gr3d.VtkPlotBase.Example</text>
<text text-anchor="middle" x="585" y="-579.5" font-family="Helvetica,sans-Serif" font-size="10.00">Func2dSquare</text>
</a>
</g>
</g>
<!-- Node6&#45;&gt;Node8 -->
<g id="edge9" class="edge"><title>Node6&#45;&gt;Node8</title>
<path fill="none" stroke="midnightblue" d="M451.821,-503.082C455.02,-504.694 458.098,-506.493 461,-508.5 485.03,-525.115 473.397,-546.283 497,-563.5 501.684,-566.916 506.831,-569.847 512.21,-572.36"/>
<polygon fill="midnightblue" stroke="midnightblue" points="453.097,-499.82 442.533,-499.014 450.288,-506.232 453.097,-499.82"/>
</g>
<!-- Node9 -->
<g id="node9" class="node"><title>Node9</title>
<g id="a_node9"><a xlink:href="../../d5/d33/classIG_1_1Gr3d_1_1VtkPlotBase_1_1ExampleFunc2dXY.html" target="_top" xlink:title="Function f(x,y)=x*y.">
<polygon fill="white" stroke="black" points="510.5,-523.5 510.5,-553.5 659.5,-553.5 659.5,-523.5 510.5,-523.5"/>
<text text-anchor="start" x="518.5" y="-541.5" font-family="Helvetica,sans-Serif" font-size="10.00">IG.Gr3d.VtkPlotBase.Example</text>
<text text-anchor="middle" x="585" y="-530.5" font-family="Helvetica,sans-Serif" font-size="10.00">Func2dXY</text>
</a>
</g>
</g>
<!-- Node6&#45;&gt;Node9 -->
<g id="edge10" class="edge"><title>Node6&#45;&gt;Node9</title>
<path fill="none" stroke="midnightblue" d="M429.375,-501.295C439.873,-503.644 450.788,-506.12 461,-508.5 481.336,-513.239 503.518,-518.592 523.374,-523.451"/>
<polygon fill="midnightblue" stroke="midnightblue" points="429.997,-497.848 419.475,-499.091 428.475,-504.681 429.997,-497.848"/>
</g>
<!-- Node10 -->
<g id="node10" class="node"><title>Node10</title>
<g id="a_node10"><a xlink:href="../../d8/d7b/classIG_1_1Gr3d_1_1VtkPlotBase_1_1ExampleFuncDiff.html" target="_top" xlink:title="Difference between the two auxiliary functions.">
<polygon fill="white" stroke="black" points="510.5,-474.5 510.5,-504.5 659.5,-504.5 659.5,-474.5 510.5,-474.5"/>
<text text-anchor="start" x="518.5" y="-492.5" font-family="Helvetica,sans-Serif" font-size="10.00">IG.Gr3d.VtkPlotBase.Example</text>
<text text-anchor="middle" x="585" y="-481.5" font-family="Helvetica,sans-Serif" font-size="10.00">FuncDiff</text>
</a>
</g>
</g>
<!-- Node6&#45;&gt;Node10 -->
<g id="edge11" class="edge"><title>Node6&#45;&gt;Node10</title>
<path fill="none" stroke="midnightblue" d="M462.562,-489.5C478.399,-489.5 494.78,-489.5 510.189,-489.5"/>
<polygon fill="midnightblue" stroke="midnightblue" points="462.249,-486 452.249,-489.5 462.249,-493 462.249,-486"/>
</g>
<!-- Node11 -->
<g id="node11" class="node"><title>Node11</title>
<g id="a_node11"><a xlink:href="../../df/de1/classIG_1_1Gr3d_1_1VtkPlotBase_1_1Func2dX.html" target="_top" xlink:title="2D function that returns the first parameter. Used as the first componnet of parametric definition of...">
<polygon fill="white" stroke="black" points="510.5,-436 510.5,-455 659.5,-455 659.5,-436 510.5,-436"/>
<text text-anchor="middle" x="585" y="-443" font-family="Helvetica,sans-Serif" font-size="10.00">IG.Gr3d.VtkPlotBase.Func2dX</text>
</a>
</g>
</g>
<!-- Node6&#45;&gt;Node11 -->
<g id="edge12" class="edge"><title>Node6&#45;&gt;Node11</title>
<path fill="none" stroke="midnightblue" d="M430.904,-477.808C464.632,-470.69 507.173,-461.713 538.847,-455.029"/>
<polygon fill="midnightblue" stroke="midnightblue" points="429.803,-474.463 420.741,-479.953 431.249,-481.312 429.803,-474.463"/>
</g>
<!-- Node12 -->
<g id="node12" class="node"><title>Node12</title>
<g id="a_node12"><a xlink:href="../../db/d2e/classIG_1_1Gr3d_1_1VtkPlotBase_1_1Func2dY.html" target="_top" xlink:title="2D function that returns the second parameter. Used as the second componnet of parametric definition ...">
<polygon fill="white" stroke="black" points="510,-398 510,-417 660,-417 660,-398 510,-398"/>
<text text-anchor="middle" x="585" y="-405" font-family="Helvetica,sans-Serif" font-size="10.00">IG.Gr3d.VtkPlotBase.Func2dY</text>
</a>
</g>
</g>
<!-- Node6&#45;&gt;Node12 -->
<g id="edge13" class="edge"><title>Node6&#45;&gt;Node12</title>
<path fill="none" stroke="midnightblue" d="M399.35,-474.723C423.249,-460.506 461.489,-439.329 497,-426.5 507.324,-422.77 518.613,-419.648 529.538,-417.083"/>
<polygon fill="midnightblue" stroke="midnightblue" points="397.387,-471.82 390.631,-479.982 401.002,-477.814 397.387,-471.82"/>
</g>
<!-- Node13 -->
<g id="node13" class="node"><title>Node13</title>
<g id="a_node13"><a xlink:href="../../d7/d4d/classIG_1_1Gr3d_1_1VtkPlotBase_1_1Func2dZero.html" target="_top" xlink:title="Auxiliary 2D function that returns 0.">
<polygon fill="white" stroke="black" points="504,-671 504,-690 666,-690 666,-671 504,-671"/>
<text text-anchor="middle" x="585" y="-678" font-family="Helvetica,sans-Serif" font-size="10.00">IG.Gr3d.VtkPlotBase.Func2dZero</text>
</a>
</g>
</g>
<!-- Node6&#45;&gt;Node13 -->
<g id="edge14" class="edge"><title>Node6&#45;&gt;Node13</title>
<path fill="none" stroke="midnightblue" d="M456.905,-504.875C458.33,-506.008 459.698,-507.214 461,-508.5 510.702,-557.589 447.208,-612.502 497,-661.5 500.857,-665.295 505.285,-668.408 510.057,-670.954"/>
<polygon fill="midnightblue" stroke="midnightblue" points="458.462,-501.712 448.177,-499.17 454.632,-507.571 458.462,-501.712"/>
</g>
<!-- Node6&#45;&gt;Node14 -->
<g id="edge15" class="edge"><title>Node6&#45;&gt;Node14</title>
<path fill="none" stroke="midnightblue" d="M399.289,-474.119C416.996,-462.235 441.39,-444.922 461,-427.5 478.635,-411.833 476.531,-400.225 497,-388.5 503.708,-384.658 511.114,-381.592 518.69,-379.145"/>
<polygon fill="midnightblue" stroke="midnightblue" points="397.102,-471.369 390.7,-479.811 400.969,-477.204 397.102,-471.369"/>
</g>
<!-- Node15&#45;&gt;Node16 -->
<g id="edge17" class="edge"><title>Node15&#45;&gt;Node16</title>
<path fill="none" stroke="midnightblue" d="M430.904,-363.808C464.632,-356.69 507.173,-347.713 538.847,-341.029"/>
<polygon fill="midnightblue" stroke="midnightblue" points="429.803,-360.463 420.741,-365.953 431.249,-367.312 429.803,-360.463"/>
</g>
<!-- Node17&#45;&gt;Node18 -->
<g id="edge19" class="edge"><title>Node17&#45;&gt;Node18</title>
<path fill="none" stroke="midnightblue" d="M463.867,-104.705C486.113,-106.519 509.346,-108.413 529.387,-110.047"/>
<polygon fill="midnightblue" stroke="midnightblue" points="463.982,-101.203 453.731,-103.879 463.413,-108.18 463.982,-101.203"/>
</g>
<!-- Node17&#45;&gt;Node19 -->
<g id="edge20" class="edge"><title>Node17&#45;&gt;Node19</title>
<path fill="none" stroke="midnightblue" d="M463.76,-88.6105C483.096,-86.6629 503.185,-84.6396 521.279,-82.8173"/>
<polygon fill="midnightblue" stroke="midnightblue" points="463.33,-85.136 453.731,-89.6206 464.031,-92.1008 463.33,-85.136"/>
</g>
<!-- Node20&#45;&gt;Node21 -->
<g id="edge22" class="edge"><title>Node20&#45;&gt;Node21</title>
<path fill="none" stroke="midnightblue" d="M469.691,-268.149C479.735,-269.498 489.904,-270.864 499.821,-272.195"/>
<polygon fill="midnightblue" stroke="midnightblue" points="470.081,-264.67 459.704,-266.808 469.149,-271.608 470.081,-264.67"/>
</g>
<!-- Node20&#45;&gt;Node22 -->
<g id="edge23" class="edge"><title>Node20&#45;&gt;Node22</title>
<path fill="none" stroke="midnightblue" d="M469.691,-242.399C479.735,-241.002 489.904,-239.588 499.821,-238.208"/>
<polygon fill="midnightblue" stroke="midnightblue" points="469.126,-238.944 459.704,-243.788 470.091,-245.877 469.126,-238.944"/>
</g>
<!-- Node20&#45;&gt;Node23 -->
<g id="edge24" class="edge"><title>Node20&#45;&gt;Node23</title>
<path fill="none" stroke="midnightblue" d="M416.58,-236.231C439.906,-225.632 469.796,-212.619 497,-202.5 508.265,-198.31 520.509,-194.228 532.158,-190.559"/>
<polygon fill="midnightblue" stroke="midnightblue" points="414.974,-233.117 407.337,-240.46 417.887,-239.482 414.974,-233.117"/>
</g>
</g>
</svg>
