<?xml version="1.0" encoding="UTF-8" standalone="no"?>
<!DOCTYPE svg PUBLIC "-//W3C//DTD SVG 1.1//EN"
 "http://www.w3.org/Graphics/SVG/1.1/DTD/svg11.dtd">
<!-- Generated by graphviz version 2.38.0 (20140413.2041)
 -->
<!-- Title: Meta.Numerics.Statistics.FitResult Pages: 1 -->
<svg width="384pt" height="320pt"
 viewBox="0.00 0.00 384.00 320.00" xmlns="http://www.w3.org/2000/svg" xmlns:xlink="http://www.w3.org/1999/xlink">
<g id="graph0" class="graph" transform="scale(1 1) rotate(0) translate(4 316)">
<title>Meta.Numerics.Statistics.FitResult</title>
<polygon fill="white" stroke="none" points="-4,4 -4,-316 380,-316 380,4 -4,4"/>
<!-- Node1 -->
<g id="node1" class="node"><title>Node1</title>
<g id="a_node1"><a xlink:title="Represents the result of a fit procedure.">
<polygon fill="#bfbfbf" stroke="black" points="100,-0.5 100,-30.5 230,-30.5 230,-0.5 100,-0.5"/>
<text text-anchor="start" x="108" y="-18.5" font-family="Helvetica,sans-Serif" font-size="10.00">Meta.Numerics.Statistics.</text>
<text text-anchor="middle" x="165" y="-7.5" font-family="Helvetica,sans-Serif" font-size="10.00">FitResult</text>
</a>
</g>
</g>
<!-- Node2 -->
<g id="node2" class="node"><title>Node2</title>
<g id="a_node2"><a xlink:href="../../d9/de9/classMeta_1_1Numerics_1_1Statistics_1_1TestResult.html" target="_top" xlink:title="Represents the result of a statistical test.">
<polygon fill="white" stroke="black" points="0,-78.5 0,-108.5 130,-108.5 130,-78.5 0,-78.5"/>
<text text-anchor="start" x="8" y="-96.5" font-family="Helvetica,sans-Serif" font-size="10.00">Meta.Numerics.Statistics.</text>
<text text-anchor="middle" x="65" y="-85.5" font-family="Helvetica,sans-Serif" font-size="10.00">TestResult</text>
</a>
</g>
</g>
<!-- Node2&#45;&gt;Node1 -->
<g id="edge1" class="edge"><title>Node2&#45;&gt;Node1</title>
<path fill="none" stroke="#9a32cd" stroke-dasharray="5,2" d="M91.8279,-72.1108C109.032,-59.0359 130.935,-42.3895 146.275,-30.7309"/>
<polygon fill="#9a32cd" stroke="#9a32cd" points="89.6531,-69.3675 83.8092,-78.205 93.8887,-74.9407 89.6531,-69.3675"/>
<text text-anchor="middle" x="131" y="-52" font-family="Helvetica,sans-Serif" font-size="10.00"> test</text>
</g>
<!-- Node3 -->
<g id="node3" class="node"><title>Node3</title>
<g id="a_node3"><a xlink:href="../../dc/d69/classMeta_1_1Numerics_1_1Statistics_1_1Distributions_1_1Distribution.html" target="_top" xlink:title="Represents all continuous, univariate probability distribution.">
<polygon fill="white" stroke="black" points="0,-156.5 0,-186.5 130,-186.5 130,-156.5 0,-156.5"/>
<text text-anchor="start" x="8" y="-174.5" font-family="Helvetica,sans-Serif" font-size="10.00">Meta.Numerics.Statistics.</text>
<text text-anchor="middle" x="65" y="-163.5" font-family="Helvetica,sans-Serif" font-size="10.00">Distributions.Distribution</text>
</a>
</g>
</g>
<!-- Node3&#45;&gt;Node2 -->
<g id="edge2" class="edge"><title>Node3&#45;&gt;Node2</title>
<path fill="none" stroke="#9a32cd" stroke-dasharray="5,2" d="M65,-146.09C65,-133.757 65,-119.224 65,-108.731"/>
<polygon fill="#9a32cd" stroke="#9a32cd" points="61.5001,-146.205 65,-156.205 68.5001,-146.205 61.5001,-146.205"/>
<text text-anchor="middle" x="90.5" y="-130" font-family="Helvetica,sans-Serif" font-size="10.00"> distribution</text>
</g>
<!-- Node4 -->
<g id="node4" class="node"><title>Node4</title>
<g id="a_node4"><a xlink:href="../../da/d1a/classMeta_1_1Numerics_1_1Statistics_1_1Distributions_1_1UnivariateDistribution.html" target="_top" xlink:title="Represents a probability distribution over a single variable.">
<polygon fill="white" stroke="black" points="11.5,-224.5 11.5,-243.5 118.5,-243.5 118.5,-224.5 11.5,-224.5"/>
<text text-anchor="middle" x="65" y="-231.5" font-family="Helvetica,sans-Serif" font-size="10.00">UnivariateDistribution</text>
</a>
</g>
</g>
<!-- Node4&#45;&gt;Node3 -->
<g id="edge3" class="edge"><title>Node4&#45;&gt;Node3</title>
<path fill="none" stroke="midnightblue" d="M65,-214.215C65,-205.356 65,-194.958 65,-186.759"/>
<polygon fill="midnightblue" stroke="midnightblue" points="61.5001,-214.332 65,-224.332 68.5001,-214.332 61.5001,-214.332"/>
</g>
<!-- Node5 -->
<g id="node5" class="node"><title>Node5</title>
<g id="a_node5"><a xlink:href="../../d3/d15/classMeta_1_1Numerics_1_1Matrices_1_1SymmetricMatrix.html" target="_top" xlink:title="Represents a symmetric matrix.">
<polygon fill="white" stroke="black" points="148.5,-78.5 148.5,-108.5 321.5,-108.5 321.5,-78.5 148.5,-78.5"/>
<text text-anchor="start" x="156.5" y="-96.5" font-family="Helvetica,sans-Serif" font-size="10.00">Meta.Numerics.Matrices.Symmetric</text>
<text text-anchor="middle" x="235" y="-85.5" font-family="Helvetica,sans-Serif" font-size="10.00">Matrix</text>
</a>
</g>
</g>
<!-- Node5&#45;&gt;Node1 -->
<g id="edge4" class="edge"><title>Node5&#45;&gt;Node1</title>
<path fill="none" stroke="#9a32cd" stroke-dasharray="5,2" d="M214.894,-70.6707C203.069,-57.8319 188.455,-41.9656 178.107,-30.7309"/>
<polygon fill="#9a32cd" stroke="#9a32cd" points="212.484,-73.2207 221.834,-78.205 217.633,-68.4783 212.484,-73.2207"/>
<text text-anchor="middle" x="243" y="-52" font-family="Helvetica,sans-Serif" font-size="10.00"> covarianceMatrix</text>
</g>
<!-- Node6 -->
<g id="node6" class="node"><title>Node6</title>
<g id="a_node6"><a xlink:href="../../d1/da7/classMeta_1_1Numerics_1_1Matrices_1_1AnySquareMatrix.html" target="_top" xlink:title="Describes the form of all real, square matrices.">
<polygon fill="white" stroke="black" points="189,-162 189,-181 281,-181 281,-162 189,-162"/>
<text text-anchor="middle" x="235" y="-169" font-family="Helvetica,sans-Serif" font-size="10.00">AnySquareMatrix</text>
</a>
</g>
</g>
<!-- Node6&#45;&gt;Node5 -->
<g id="edge5" class="edge"><title>Node6&#45;&gt;Node5</title>
<path fill="none" stroke="midnightblue" d="M235,-151.782C235,-138.404 235,-120.688 235,-108.52"/>
<polygon fill="midnightblue" stroke="midnightblue" points="231.5,-151.782 235,-161.782 238.5,-151.782 231.5,-151.782"/>
</g>
<!-- Node7 -->
<g id="node7" class="node"><title>Node7</title>
<g id="a_node7"><a xlink:href="../../d9/d5b/classMeta_1_1Numerics_1_1Matrices_1_1AnyRectangularMatrix.html" target="_top" xlink:title="Describes the form of all real matrices.">
<polygon fill="white" stroke="black" points="178.5,-224.5 178.5,-243.5 291.5,-243.5 291.5,-224.5 178.5,-224.5"/>
<text text-anchor="middle" x="235" y="-231.5" font-family="Helvetica,sans-Serif" font-size="10.00">AnyRectangularMatrix</text>
</a>
</g>
</g>
<!-- Node7&#45;&gt;Node6 -->
<g id="edge6" class="edge"><title>Node7&#45;&gt;Node6</title>
<path fill="none" stroke="midnightblue" d="M235,-214.003C235,-203 235,-189.682 235,-181.152"/>
<polygon fill="midnightblue" stroke="midnightblue" points="231.5,-214.332 235,-224.332 238.5,-214.332 231.5,-214.332"/>
</g>
<!-- Node8 -->
<g id="node8" class="node"><title>Node8</title>
<g id="a_node8"><a xlink:href="../../df/de5/classMeta_1_1Numerics_1_1Matrices_1_1AnyMatrix.html" target="_top" xlink:title=" ">
<polygon fill="white" stroke="black" points="110.5,-287 110.5,-306 217.5,-306 217.5,-287 110.5,-287"/>
<text text-anchor="middle" x="164" y="-294" font-family="Helvetica,sans-Serif" font-size="10.00">AnyMatrix&lt; double &gt;</text>
</a>
</g>
</g>
<!-- Node8&#45;&gt;Node7 -->
<g id="edge7" class="edge"><title>Node8&#45;&gt;Node7</title>
<path fill="none" stroke="midnightblue" d="M181.932,-280.22C195.511,-268.649 213.677,-253.17 224.846,-243.652"/>
<polygon fill="midnightblue" stroke="midnightblue" points="179.514,-277.682 174.173,-286.832 184.054,-283.01 179.514,-277.682"/>
</g>
<!-- Node9 -->
<g id="node9" class="node"><title>Node9</title>
<g id="a_node9"><a xlink:title=" ">
<polygon fill="white" stroke="#bfbfbf" points="236,-281.5 236,-311.5 376,-311.5 376,-281.5 236,-281.5"/>
<text text-anchor="start" x="244" y="-299.5" font-family="Helvetica,sans-Serif" font-size="10.00">IEquatable&lt; AnyRectangular</text>
<text text-anchor="middle" x="306" y="-288.5" font-family="Helvetica,sans-Serif" font-size="10.00">Matrix &gt;</text>
</a>
</g>
</g>
<!-- Node9&#45;&gt;Node7 -->
<g id="edge8" class="edge"><title>Node9&#45;&gt;Node7</title>
<path fill="none" stroke="midnightblue" d="M281.664,-274.763C269.12,-264.074 254.507,-251.622 245.022,-243.54"/>
<polygon fill="midnightblue" stroke="midnightblue" points="279.651,-277.646 289.533,-281.468 284.191,-272.318 279.651,-277.646"/>
</g>
</g>
</svg>
