<?xml version="1.0" encoding="UTF-8" standalone="no"?>
<!DOCTYPE svg PUBLIC "-//W3C//DTD SVG 1.1//EN"
 "http://www.w3.org/Graphics/SVG/1.1/DTD/svg11.dtd">
<!-- Generated by graphviz version 2.38.0 (20140413.2041)
 -->
<!-- Title: AForge.Imaging.Filters.CornersMarker Pages: 1 -->
<svg width="398pt" height="163pt"
 viewBox="0.00 0.00 397.50 163.00" xmlns="http://www.w3.org/2000/svg" xmlns:xlink="http://www.w3.org/1999/xlink">
<g id="graph0" class="graph" transform="scale(1 1) rotate(0) translate(4 159)">
<title>AForge.Imaging.Filters.CornersMarker</title>
<polygon fill="white" stroke="none" points="-4,4 -4,-159 393.5,-159 393.5,4 -4,4"/>
<!-- Node1 -->
<g id="node1" class="node"><title>Node1</title>
<g id="a_node1"><a xlink:title="Filter to mark (highlight) corners of objects.">
<polygon fill="#bfbfbf" stroke="black" points="164.5,-0.5 164.5,-30.5 316.5,-30.5 316.5,-0.5 164.5,-0.5"/>
<text text-anchor="start" x="172.5" y="-18.5" font-family="Helvetica,sans-Serif" font-size="10.00">AForge.Imaging.Filters.Corners</text>
<text text-anchor="middle" x="240.5" y="-7.5" font-family="Helvetica,sans-Serif" font-size="10.00">Marker</text>
</a>
</g>
</g>
<!-- Node2 -->
<g id="node2" class="node"><title>Node2</title>
<g id="a_node2"><a xlink:href="../../d6/d11/classAForge_1_1Imaging_1_1Filters_1_1BaseInPlaceFilter.html" target="_top" xlink:title="Base class for filters, which may be applied directly to the source image.">
<polygon fill="white" stroke="black" points="49,-78.5 49,-97.5 142,-97.5 142,-78.5 49,-78.5"/>
<text text-anchor="middle" x="95.5" y="-85.5" font-family="Helvetica,sans-Serif" font-size="10.00">BaseInPlaceFilter</text>
</a>
</g>
</g>
<!-- Node2&#45;&gt;Node1 -->
<g id="edge1" class="edge"><title>Node2&#45;&gt;Node1</title>
<path fill="none" stroke="midnightblue" d="M122.039,-74.0963C147.419,-61.7567 185.585,-43.2001 211.694,-30.5059"/>
<polygon fill="midnightblue" stroke="midnightblue" points="120.453,-70.9757 112.99,-78.4961 123.514,-77.271 120.453,-70.9757"/>
</g>
<!-- Node3 -->
<g id="node3" class="node"><title>Node3</title>
<g id="a_node3"><a xlink:href="../../dd/d51/interfaceAForge_1_1Imaging_1_1Filters_1_1IFilter.html" target="_top" xlink:title="Image processing filter interface.">
<polygon fill="white" stroke="black" points="0,-135.5 0,-154.5 41,-154.5 41,-135.5 0,-135.5"/>
<text text-anchor="middle" x="20.5" y="-142.5" font-family="Helvetica,sans-Serif" font-size="10.00">IFilter</text>
</a>
</g>
</g>
<!-- Node3&#45;&gt;Node2 -->
<g id="edge2" class="edge"><title>Node3&#45;&gt;Node2</title>
<path fill="none" stroke="midnightblue" d="M40.5632,-129.287C54.3052,-119.21 72.0658,-106.185 83.616,-97.7149"/>
<polygon fill="midnightblue" stroke="midnightblue" points="38.213,-126.67 32.2188,-135.406 42.3526,-132.315 38.213,-126.67"/>
</g>
<!-- Node4 -->
<g id="node4" class="node"><title>Node4</title>
<g id="a_node4"><a xlink:href="../../de/d9b/interfaceAForge_1_1Imaging_1_1Filters_1_1IInPlaceFilter.html" target="_top" xlink:title="In&#45;place filter interface.">
<polygon fill="white" stroke="black" points="59,-135.5 59,-154.5 132,-154.5 132,-135.5 59,-135.5"/>
<text text-anchor="middle" x="95.5" y="-142.5" font-family="Helvetica,sans-Serif" font-size="10.00">IInPlaceFilter</text>
</a>
</g>
</g>
<!-- Node4&#45;&gt;Node2 -->
<g id="edge3" class="edge"><title>Node4&#45;&gt;Node2</title>
<path fill="none" stroke="midnightblue" d="M95.5,-125.117C95.5,-115.817 95.5,-105.056 95.5,-97.7149"/>
<polygon fill="midnightblue" stroke="midnightblue" points="92.0001,-125.406 95.5,-135.406 99.0001,-125.406 92.0001,-125.406"/>
</g>
<!-- Node5 -->
<g id="node5" class="node"><title>Node5</title>
<g id="a_node5"><a xlink:href="../../d7/dec/interfaceAForge_1_1Imaging_1_1Filters_1_1IFilterInformation.html" target="_top" xlink:title="Interface which provides information about image processing filter.">
<polygon fill="white" stroke="black" points="150.5,-135.5 150.5,-154.5 238.5,-154.5 238.5,-135.5 150.5,-135.5"/>
<text text-anchor="middle" x="194.5" y="-142.5" font-family="Helvetica,sans-Serif" font-size="10.00">IFilterInformation</text>
</a>
</g>
</g>
<!-- Node5&#45;&gt;Node2 -->
<g id="edge4" class="edge"><title>Node5&#45;&gt;Node2</title>
<path fill="none" stroke="midnightblue" d="M170.264,-130.535C151.726,-120.236 126.729,-106.35 110.86,-97.5334"/>
<polygon fill="midnightblue" stroke="midnightblue" points="168.59,-133.609 179.031,-135.406 171.989,-127.49 168.59,-133.609"/>
</g>
<!-- Node6 -->
<g id="node6" class="node"><title>Node6</title>
<g id="a_node6"><a xlink:href="../../d3/d5d/interfaceAForge_1_1Imaging_1_1ICornersDetector.html" target="_top" xlink:title="Corners detector&#39;s interface.">
<polygon fill="white" stroke="black" points="160,-78.5 160,-97.5 321,-97.5 321,-78.5 160,-78.5"/>
<text text-anchor="middle" x="240.5" y="-85.5" font-family="Helvetica,sans-Serif" font-size="10.00">AForge.Imaging.ICornersDetector</text>
</a>
</g>
</g>
<!-- Node6&#45;&gt;Node1 -->
<g id="edge5" class="edge"><title>Node6&#45;&gt;Node1</title>
<path fill="none" stroke="#9a32cd" stroke-dasharray="5,2" d="M240.5,-68.2362C240.5,-56.4079 240.5,-41.3829 240.5,-30.5762"/>
<polygon fill="#9a32cd" stroke="#9a32cd" points="237,-68.3553 240.5,-78.3553 244,-68.3554 237,-68.3553"/>
<text text-anchor="middle" x="260" y="-52" font-family="Helvetica,sans-Serif" font-size="10.00"> detector</text>
</g>
<!-- Node7 -->
<g id="node7" class="node"><title>Node7</title>
<g id="a_node7"><a xlink:title=" ">
<polygon fill="white" stroke="#bfbfbf" points="339.5,-78.5 339.5,-97.5 389.5,-97.5 389.5,-78.5 339.5,-78.5"/>
<text text-anchor="middle" x="364.5" y="-85.5" font-family="Helvetica,sans-Serif" font-size="10.00">System</text>
</a>
</g>
</g>
<!-- Node7&#45;&gt;Node1 -->
<g id="edge6" class="edge"><title>Node7&#45;&gt;Node1</title>
<path fill="none" stroke="#9a32cd" stroke-dasharray="5,2" d="M340.406,-73.3016C318.759,-60.9941 287.107,-42.9984 265.258,-30.5762"/>
<polygon fill="#9a32cd" stroke="#9a32cd" points="338.872,-76.4554 349.295,-78.3553 342.332,-70.3701 338.872,-76.4554"/>
<text text-anchor="middle" x="342.5" y="-52" font-family="Helvetica,sans-Serif" font-size="10.00"> markerColor</text>
</g>
</g>
</svg>
