<?xml version="1.0" encoding="UTF-8" standalone="no"?>
<!DOCTYPE svg PUBLIC "-//W3C//DTD SVG 1.1//EN"
 "http://www.w3.org/Graphics/SVG/1.1/DTD/svg11.dtd">
<!-- Generated by graphviz version 2.38.0 (20140413.2041)
 -->
<!-- Title: NUnit.Framework.PropertyAttribute Pages: 1 -->
<svg width="323pt" height="231pt"
 viewBox="0.00 0.00 323.00 231.00" xmlns="http://www.w3.org/2000/svg" xmlns:xlink="http://www.w3.org/1999/xlink">
<g id="graph0" class="graph" transform="scale(1 1) rotate(0) translate(4 227)">
<title>NUnit.Framework.PropertyAttribute</title>
<polygon fill="white" stroke="none" points="-4,4 -4,-227 319,-227 319,4 -4,4"/>
<!-- Node1 -->
<g id="node1" class="node"><title>Node1</title>
<g id="a_node1"><a xlink:title="PropertyAttribute is used to attach information to a test as a name/value pair..">
<polygon fill="#bfbfbf" stroke="black" points="66,-0.5 66,-30.5 197,-30.5 197,-0.5 66,-0.5"/>
<text text-anchor="start" x="74" y="-18.5" font-family="Helvetica,sans-Serif" font-size="10.00">NUnit.Framework.Property</text>
<text text-anchor="middle" x="131.5" y="-7.5" font-family="Helvetica,sans-Serif" font-size="10.00">Attribute</text>
</a>
</g>
</g>
<!-- Node2 -->
<g id="node2" class="node"><title>Node2</title>
<g id="a_node2"><a xlink:href="../../d3/dee/classNUnit_1_1Framework_1_1NUnitAttribute.html" target="_top" xlink:title="The abstract base class for all custom attributes defined by NUnit.">
<polygon fill="white" stroke="black" points="0,-84 0,-103 77,-103 77,-84 0,-84"/>
<text text-anchor="middle" x="38.5" y="-91" font-family="Helvetica,sans-Serif" font-size="10.00">NUnitAttribute</text>
</a>
</g>
</g>
<!-- Node2&#45;&gt;Node1 -->
<g id="edge1" class="edge"><title>Node2&#45;&gt;Node1</title>
<path fill="none" stroke="midnightblue" d="M57.1232,-77.281C73.8188,-63.6374 98.114,-43.7832 114.344,-30.5198"/>
<polygon fill="midnightblue" stroke="midnightblue" points="54.6968,-74.7438 49.1683,-83.7818 59.1263,-80.1641 54.6968,-74.7438"/>
</g>
<!-- Node3 -->
<g id="node3" class="node"><title>Node3</title>
<g id="a_node3"><a xlink:title=" ">
<polygon fill="white" stroke="#bfbfbf" points="12,-146.5 12,-165.5 65,-165.5 65,-146.5 12,-146.5"/>
<text text-anchor="middle" x="38.5" y="-153.5" font-family="Helvetica,sans-Serif" font-size="10.00">Attribute</text>
</a>
</g>
</g>
<!-- Node3&#45;&gt;Node2 -->
<g id="edge2" class="edge"><title>Node3&#45;&gt;Node2</title>
<path fill="none" stroke="midnightblue" d="M38.5,-136.003C38.5,-125 38.5,-111.682 38.5,-103.152"/>
<polygon fill="midnightblue" stroke="midnightblue" points="35.0001,-136.332 38.5,-146.332 42.0001,-136.332 35.0001,-136.332"/>
</g>
<!-- Node4 -->
<g id="node4" class="node"><title>Node4</title>
<g id="a_node4"><a xlink:href="../../d8/d57/interfaceNUnit_1_1Framework_1_1Interfaces_1_1IApplyToTest.html" target="_top" xlink:title="The IApplyToTest interface is implemented by self&#45;applying attributes that modify the state of a test...">
<polygon fill="white" stroke="black" points="95,-84 95,-103 168,-103 168,-84 95,-84"/>
<text text-anchor="middle" x="131.5" y="-91" font-family="Helvetica,sans-Serif" font-size="10.00">IApplyToTest</text>
</a>
</g>
</g>
<!-- Node4&#45;&gt;Node1 -->
<g id="edge3" class="edge"><title>Node4&#45;&gt;Node1</title>
<path fill="none" stroke="midnightblue" d="M131.5,-73.7816C131.5,-60.4036 131.5,-42.688 131.5,-30.5198"/>
<polygon fill="midnightblue" stroke="midnightblue" points="128,-73.7818 131.5,-83.7818 135,-73.7819 128,-73.7818"/>
</g>
<!-- Node5 -->
<g id="node5" class="node"><title>Node5</title>
<g id="a_node5"><a xlink:href="../../db/d10/classNUnit_1_1Framework_1_1Internal_1_1PropertyBag.html" target="_top" xlink:title="A PropertyBag represents a collection of name value pairs that allows duplicate entries with the same...">
<polygon fill="white" stroke="black" points="186,-78.5 186,-108.5 315,-108.5 315,-78.5 186,-78.5"/>
<text text-anchor="start" x="194" y="-96.5" font-family="Helvetica,sans-Serif" font-size="10.00">NUnit.Framework.Internal.</text>
<text text-anchor="middle" x="250.5" y="-85.5" font-family="Helvetica,sans-Serif" font-size="10.00">PropertyBag</text>
</a>
</g>
</g>
<!-- Node5&#45;&gt;Node1 -->
<g id="edge4" class="edge"><title>Node5&#45;&gt;Node1</title>
<path fill="none" stroke="#9a32cd" stroke-dasharray="5,2" d="M219.915,-72.967C199.141,-59.6993 172.153,-42.4633 153.486,-30.5413"/>
<polygon fill="#9a32cd" stroke="#9a32cd" points="218.084,-75.9503 228.396,-78.3831 221.852,-70.0508 218.084,-75.9503"/>
<text text-anchor="middle" x="220.5" y="-52" font-family="Helvetica,sans-Serif" font-size="10.00"> properties</text>
</g>
<!-- Node6 -->
<g id="node6" class="node"><title>Node6</title>
<g id="a_node6"><a xlink:href="../../dd/d90/interfaceNUnit_1_1Framework_1_1Interfaces_1_1IPropertyBag.html" target="_top" xlink:title="A PropertyBag represents a collection of name/value pairs that allows duplicate entries with the same...">
<polygon fill="white" stroke="black" points="214,-146.5 214,-165.5 287,-165.5 287,-146.5 214,-146.5"/>
<text text-anchor="middle" x="250.5" y="-153.5" font-family="Helvetica,sans-Serif" font-size="10.00">IPropertyBag</text>
</a>
</g>
</g>
<!-- Node6&#45;&gt;Node5 -->
<g id="edge5" class="edge"><title>Node6&#45;&gt;Node5</title>
<path fill="none" stroke="midnightblue" d="M250.5,-136.215C250.5,-127.356 250.5,-116.958 250.5,-108.759"/>
<polygon fill="midnightblue" stroke="midnightblue" points="247,-136.332 250.5,-146.332 254,-136.332 247,-136.332"/>
</g>
<!-- Node7 -->
<g id="node7" class="node"><title>Node7</title>
<g id="a_node7"><a xlink:href="../../d9/dc0/interfaceNUnit_1_1Framework_1_1Interfaces_1_1IXmlNodeBuilder.html" target="_top" xlink:title="An object implementing IXmlNodeBuilder is able to build an XML representation of itself and any child...">
<polygon fill="white" stroke="black" points="207,-203.5 207,-222.5 294,-222.5 294,-203.5 207,-203.5"/>
<text text-anchor="middle" x="250.5" y="-210.5" font-family="Helvetica,sans-Serif" font-size="10.00">IXmlNodeBuilder</text>
</a>
</g>
</g>
<!-- Node7&#45;&gt;Node6 -->
<g id="edge6" class="edge"><title>Node7&#45;&gt;Node6</title>
<path fill="none" stroke="midnightblue" d="M250.5,-193.117C250.5,-183.817 250.5,-173.056 250.5,-165.715"/>
<polygon fill="midnightblue" stroke="midnightblue" points="247,-193.406 250.5,-203.406 254,-193.406 247,-193.406"/>
</g>
</g>
</svg>
