<?xml version="1.0" encoding="UTF-8" standalone="no"?>
<!DOCTYPE svg PUBLIC "-//W3C//DTD SVG 1.1//EN"
 "http://www.w3.org/Graphics/SVG/1.1/DTD/svg11.dtd">
<!-- Generated by graphviz version 2.38.0 (20140413.2041)
 -->
<!-- Title: IG.Forms.BrowserSimpleForm Pages: 1 -->
<svg width="342pt" height="283pt"
 viewBox="0.00 0.00 341.50 283.00" xmlns="http://www.w3.org/2000/svg" xmlns:xlink="http://www.w3.org/1999/xlink">
<g id="graph0" class="graph" transform="scale(1 1) rotate(0) translate(4 279)">
<title>IG.Forms.BrowserSimpleForm</title>
<polygon fill="white" stroke="none" points="-4,4 -4,-279 337.5,-279 337.5,4 -4,4"/>
<!-- Node1 -->
<g id="node1" class="node"><title>Node1</title>
<g id="a_node1"><a xlink:title=" ">
<polygon fill="#bfbfbf" stroke="black" points="1.5,-0.5 1.5,-19.5 149.5,-19.5 149.5,-0.5 1.5,-0.5"/>
<text text-anchor="middle" x="75.5" y="-7.5" font-family="Helvetica,sans-Serif" font-size="10.00">IG.Forms.BrowserSimpleForm</text>
</a>
</g>
</g>
<!-- Node2 -->
<g id="node2" class="node"><title>Node2</title>
<g id="a_node2"><a xlink:title=" ">
<polygon fill="white" stroke="#bfbfbf" points="0,-67.5 0,-86.5 39,-86.5 39,-67.5 0,-67.5"/>
<text text-anchor="middle" x="19.5" y="-74.5" font-family="Helvetica,sans-Serif" font-size="10.00">Form</text>
</a>
</g>
</g>
<!-- Node2&#45;&gt;Node1 -->
<g id="edge1" class="edge"><title>Node2&#45;&gt;Node1</title>
<path fill="none" stroke="midnightblue" d="M33.5992,-59.6348C44.5512,-46.9228 59.305,-29.7978 68.0672,-19.6273"/>
<polygon fill="midnightblue" stroke="midnightblue" points="30.9279,-57.3732 27.0524,-67.2338 36.2312,-61.9422 30.9279,-57.3732"/>
</g>
<!-- Node3 -->
<g id="node3" class="node"><title>Node3</title>
<g id="a_node3"><a xlink:title=" ">
<polygon fill="white" stroke="#bfbfbf" points="66.5,-255.5 66.5,-274.5 116.5,-274.5 116.5,-255.5 66.5,-255.5"/>
<text text-anchor="middle" x="91.5" y="-262.5" font-family="Helvetica,sans-Serif" font-size="10.00">System</text>
</a>
</g>
</g>
<!-- Node3&#45;&gt;Node1 -->
<g id="edge2" class="edge"><title>Node3&#45;&gt;Node1</title>
<path fill="none" stroke="#9a32cd" stroke-dasharray="5,2" d="M90.0908,-245.375C89.887,-242.569 89.6842,-239.708 89.5,-237 83.7386,-152.283 77.7328,-49.6334 75.9966,-19.6236"/>
<polygon fill="#9a32cd" stroke="#9a32cd" points="86.6109,-245.777 90.8432,-255.49 93.5917,-245.257 86.6109,-245.777"/>
<text text-anchor="middle" x="109" y="-74.5" font-family="Helvetica,sans-Serif" font-size="10.00"> components</text>
</g>
<!-- Node4 -->
<g id="node4" class="node"><title>Node4</title>
<g id="a_node4"><a xlink:href="../../d2/de2/classIG_1_1Forms_1_1BrowserSimpleControl.html" target="_top" xlink:title=" ">
<polygon fill="white" stroke="black" points="150.5,-67.5 150.5,-86.5 306.5,-86.5 306.5,-67.5 150.5,-67.5"/>
<text text-anchor="middle" x="228.5" y="-74.5" font-family="Helvetica,sans-Serif" font-size="10.00">IG.Forms.BrowserSimpleControl</text>
</a>
</g>
</g>
<!-- Node3&#45;&gt;Node4 -->
<g id="edge6" class="edge"><title>Node3&#45;&gt;Node4</title>
<path fill="none" stroke="#9a32cd" stroke-dasharray="5,2" d="M91.1435,-245.278C91.5686,-212.289 97.335,-143.648 135.5,-105 143.887,-96.5064 154.776,-90.6473 166.133,-86.6146"/>
<polygon fill="#9a32cd" stroke="#9a32cd" points="87.6436,-245.362 91.1715,-255.352 94.6436,-245.343 87.6436,-245.362"/>
<text text-anchor="middle" x="178" y="-229" font-family="Helvetica,sans-Serif" font-size="10.00"> MenuTools</text>
<text text-anchor="middle" x="178" y="-218" font-family="Helvetica,sans-Serif" font-size="10.00">buttonStop</text>
<text text-anchor="middle" x="178" y="-207" font-family="Helvetica,sans-Serif" font-size="10.00">MenuGelp</text>
<text text-anchor="start" x="135.5" y="-196" font-family="Helvetica,sans-Serif" font-size="10.00">otherToolStripMenu</text>
<text text-anchor="middle" x="178" y="-185" font-family="Helvetica,sans-Serif" font-size="10.00">Item</text>
<text text-anchor="middle" x="178" y="-174" font-family="Helvetica,sans-Serif" font-size="10.00">pnlOuter</text>
<text text-anchor="middle" x="178" y="-163" font-family="Helvetica,sans-Serif" font-size="10.00">txtAddressBar</text>
<text text-anchor="middle" x="178" y="-152" font-family="Helvetica,sans-Serif" font-size="10.00">MenuFile</text>
<text text-anchor="middle" x="178" y="-141" font-family="Helvetica,sans-Serif" font-size="10.00">buttonRefresh</text>
<text text-anchor="middle" x="178" y="-130" font-family="Helvetica,sans-Serif" font-size="10.00">StatusError</text>
<text text-anchor="middle" x="178" y="-119" font-family="Helvetica,sans-Serif" font-size="10.00">ControlPnl</text>
<text text-anchor="middle" x="178" y="-108" font-family="Helvetica,sans-Serif" font-size="10.00">...</text>
</g>
<!-- Node4&#45;&gt;Node1 -->
<g id="edge3" class="edge"><title>Node4&#45;&gt;Node1</title>
<path fill="none" stroke="#9a32cd" stroke-dasharray="5,2" d="M198.956,-63.4485C168.662,-50.5787 122.349,-30.9032 95.9012,-19.6672"/>
<polygon fill="#9a32cd" stroke="#9a32cd" points="197.61,-66.6797 208.183,-67.3685 200.347,-60.237 197.61,-66.6797"/>
<text text-anchor="middle" x="191.5" y="-41" font-family="Helvetica,sans-Serif" font-size="10.00"> browserForm</text>
</g>
<!-- Node5 -->
<g id="node5" class="node"><title>Node5</title>
<g id="a_node5"><a xlink:title=" ">
<polygon fill="white" stroke="#bfbfbf" points="189.5,-255.5 189.5,-274.5 257.5,-274.5 257.5,-255.5 189.5,-255.5"/>
<text text-anchor="middle" x="223.5" y="-262.5" font-family="Helvetica,sans-Serif" font-size="10.00">UserControl</text>
</a>
</g>
</g>
<!-- Node5&#45;&gt;Node4 -->
<g id="edge4" class="edge"><title>Node5&#45;&gt;Node4</title>
<path fill="none" stroke="midnightblue" d="M224.015,-244.86C225.08,-205.211 227.494,-115.417 228.261,-86.8812"/>
<polygon fill="midnightblue" stroke="midnightblue" points="220.511,-244.938 223.741,-255.029 227.509,-245.127 220.511,-244.938"/>
</g>
<!-- Node6 -->
<g id="node6" class="node"><title>Node6</title>
<g id="a_node6"><a xlink:title=" ">
<polygon fill="white" stroke="#bfbfbf" points="275.5,-255.5 275.5,-274.5 333.5,-274.5 333.5,-255.5 275.5,-255.5"/>
<text text-anchor="middle" x="304.5" y="-262.5" font-family="Helvetica,sans-Serif" font-size="10.00">ILockable</text>
</a>
</g>
</g>
<!-- Node6&#45;&gt;Node4 -->
<g id="edge5" class="edge"><title>Node6&#45;&gt;Node4</title>
<path fill="none" stroke="midnightblue" d="M297.461,-245.911C285.891,-216.318 261.989,-155.763 240.5,-105 237.94,-98.9535 234.94,-92.2035 232.58,-86.9652"/>
<polygon fill="midnightblue" stroke="midnightblue" points="294.243,-247.294 301.139,-255.338 300.765,-244.75 294.243,-247.294"/>
</g>
</g>
</svg>
