<?xml version="1.0" encoding="UTF-8" standalone="no"?>
<!DOCTYPE svg PUBLIC "-//W3C//DTD SVG 1.1//EN"
 "http://www.w3.org/Graphics/SVG/1.1/DTD/svg11.dtd">
<!-- Generated by graphviz version 2.38.0 (20140413.2041)
 -->
<!-- Title: IG.Neural.Applications.NeuralPredictionWindow Pages: 1 -->
<svg width="271pt" height="95pt"
 viewBox="0.00 0.00 271.00 95.00" xmlns="http://www.w3.org/2000/svg" xmlns:xlink="http://www.w3.org/1999/xlink">
<g id="graph0" class="graph" transform="scale(1 1) rotate(0) translate(4 91)">
<title>IG.Neural.Applications.NeuralPredictionWindow</title>
<polygon fill="white" stroke="none" points="-4,4 -4,-91 267,-91 267,4 -4,4"/>
<!-- Node1 -->
<g id="node1" class="node"><title>Node1</title>
<g id="a_node1"><a xlink:title="Window for making predictions of output values based on ANN model.">
<polygon fill="#bfbfbf" stroke="black" points="42.5,-0.5 42.5,-30.5 186.5,-30.5 186.5,-0.5 42.5,-0.5"/>
<text text-anchor="start" x="50.5" y="-18.5" font-family="Helvetica,sans-Serif" font-size="10.00">IG.Neural.Applications.Neural</text>
<text text-anchor="middle" x="114.5" y="-7.5" font-family="Helvetica,sans-Serif" font-size="10.00">PredictionWindow</text>
</a>
</g>
</g>
<!-- Node2 -->
<g id="node2" class="node"><title>Node2</title>
<g id="a_node2"><a xlink:title=" ">
<polygon fill="white" stroke="#bfbfbf" points="0,-67.5 0,-86.5 39,-86.5 39,-67.5 0,-67.5"/>
<text text-anchor="middle" x="19.5" y="-74.5" font-family="Helvetica,sans-Serif" font-size="10.00">Form</text>
</a>
</g>
</g>
<!-- Node2&#45;&gt;Node1 -->
<g id="edge1" class="edge"><title>Node2&#45;&gt;Node1</title>
<path fill="none" stroke="midnightblue" d="M41.8396,-62.0084C56.9923,-52.518 76.9471,-40.02 92.1104,-30.523"/>
<polygon fill="midnightblue" stroke="midnightblue" points="39.7283,-59.2008 33.1112,-67.4751 43.444,-65.1333 39.7283,-59.2008"/>
</g>
<!-- Node3 -->
<g id="node3" class="node"><title>Node3</title>
<g id="a_node3"><a xlink:href="../../d1/d98/interfaceIG_1_1Neural_1_1INeuralModelContainer.html" target="_top" xlink:title="Interface for classes that contain the NeuralModel property that implements the INeuralModel interfac...">
<polygon fill="white" stroke="black" points="57.5,-67.5 57.5,-86.5 171.5,-86.5 171.5,-67.5 57.5,-67.5"/>
<text text-anchor="middle" x="114.5" y="-74.5" font-family="Helvetica,sans-Serif" font-size="10.00">INeuralModelContainer</text>
</a>
</g>
</g>
<!-- Node3&#45;&gt;Node1 -->
<g id="edge2" class="edge"><title>Node3&#45;&gt;Node1</title>
<path fill="none" stroke="midnightblue" d="M114.5,-57.2349C114.5,-48.5864 114.5,-38.4969 114.5,-30.523"/>
<polygon fill="midnightblue" stroke="midnightblue" points="111,-57.4751 114.5,-67.4751 118,-57.4751 111,-57.4751"/>
</g>
<!-- Node4 -->
<g id="node4" class="node"><title>Node4</title>
<g id="a_node4"><a xlink:title=" ">
<polygon fill="white" stroke="#bfbfbf" points="190,-67.5 190,-86.5 263,-86.5 263,-67.5 190,-67.5"/>
<text text-anchor="middle" x="226.5" y="-74.5" font-family="Helvetica,sans-Serif" font-size="10.00">INeuralModel</text>
</a>
</g>
</g>
<!-- Node4&#45;&gt;Node1 -->
<g id="edge3" class="edge"><title>Node4&#45;&gt;Node1</title>
<path fill="none" stroke="midnightblue" d="M201.168,-62.5423C183.188,-52.9907 159.11,-40.1992 140.896,-30.523"/>
<polygon fill="midnightblue" stroke="midnightblue" points="199.98,-65.8744 210.453,-67.4751 203.264,-59.6926 199.98,-65.8744"/>
</g>
</g>
</svg>
