<?xml version="1.0" encoding="UTF-8" standalone="no"?>
<!DOCTYPE svg PUBLIC "-//W3C//DTD SVG 1.1//EN"
 "http://www.w3.org/Graphics/SVG/1.1/DTD/svg11.dtd">
<!-- Generated by graphviz version 2.38.0 (20140413.2041)
 -->
<!-- Title: IG.Forms.DialogForm Pages: 1 -->
<svg width="292pt" height="272pt"
 viewBox="0.00 0.00 291.50 272.00" xmlns="http://www.w3.org/2000/svg" xmlns:xlink="http://www.w3.org/1999/xlink">
<g id="graph0" class="graph" transform="scale(1 1) rotate(0) translate(4 268)">
<title>IG.Forms.DialogForm</title>
<polygon fill="white" stroke="none" points="-4,4 -4,-268 287.5,-268 287.5,4 -4,4"/>
<!-- Node1 -->
<g id="node1" class="node"><title>Node1</title>
<g id="a_node1"><a xlink:title=" ">
<polygon fill="#bfbfbf" stroke="black" points="61.5,-0.5 61.5,-19.5 171.5,-19.5 171.5,-0.5 61.5,-0.5"/>
<text text-anchor="middle" x="116.5" y="-7.5" font-family="Helvetica,sans-Serif" font-size="10.00">IG.Forms.DialogForm</text>
</a>
</g>
</g>
<!-- Node2 -->
<g id="node2" class="node"><title>Node2</title>
<g id="a_node2"><a xlink:title=" ">
<polygon fill="white" stroke="#bfbfbf" points="0,-67.5 0,-86.5 39,-86.5 39,-67.5 0,-67.5"/>
<text text-anchor="middle" x="19.5" y="-74.5" font-family="Helvetica,sans-Serif" font-size="10.00">Form</text>
</a>
</g>
</g>
<!-- Node2&#45;&gt;Node1 -->
<g id="edge1" class="edge"><title>Node2&#45;&gt;Node1</title>
<path fill="none" stroke="midnightblue" d="M40.9974,-61.5945C60.1864,-48.7359 87.6529,-30.3306 103.625,-19.6273"/>
<polygon fill="midnightblue" stroke="midnightblue" points="38.9408,-58.7595 32.5819,-67.2338 42.8375,-64.5746 38.9408,-58.7595"/>
</g>
<!-- Node3 -->
<g id="node3" class="node"><title>Node3</title>
<g id="a_node3"><a xlink:href="../../d2/d28/classIG_1_1Forms_1_1DialogControl.html" target="_top" xlink:title="Highly configurable interactive message box with custom buttons, message, and possibly editable text.">
<polygon fill="white" stroke="black" points="57.5,-67.5 57.5,-86.5 175.5,-86.5 175.5,-67.5 57.5,-67.5"/>
<text text-anchor="middle" x="116.5" y="-74.5" font-family="Helvetica,sans-Serif" font-size="10.00">IG.Forms.DialogControl</text>
</a>
</g>
</g>
<!-- Node3&#45;&gt;Node1 -->
<g id="edge2" class="edge"><title>Node3&#45;&gt;Node1</title>
<path fill="none" stroke="#9a32cd" stroke-dasharray="5,2" d="M116.5,-57.037C116.5,-44.6703 116.5,-29.1198 116.5,-19.6273"/>
<polygon fill="#9a32cd" stroke="#9a32cd" points="113,-57.2338 116.5,-67.2338 120,-57.2338 113,-57.2338"/>
<text text-anchor="middle" x="156" y="-41" font-family="Helvetica,sans-Serif" font-size="10.00"> messageControl1</text>
</g>
<!-- Node4 -->
<g id="node4" class="node"><title>Node4</title>
<g id="a_node4"><a xlink:title=" ">
<polygon fill="white" stroke="#bfbfbf" points="49.5,-244.5 49.5,-263.5 117.5,-263.5 117.5,-244.5 49.5,-244.5"/>
<text text-anchor="middle" x="83.5" y="-251.5" font-family="Helvetica,sans-Serif" font-size="10.00">UserControl</text>
</a>
</g>
</g>
<!-- Node4&#45;&gt;Node3 -->
<g id="edge3" class="edge"><title>Node4&#45;&gt;Node3</title>
<path fill="none" stroke="midnightblue" d="M82.2527,-234.064C81.0165,-205.237 81.2333,-149.048 97.5,-105 99.9622,-98.3327 104.497,-91.7896 108.519,-86.8147"/>
<polygon fill="midnightblue" stroke="midnightblue" points="78.7722,-234.521 82.8082,-244.317 85.762,-234.143 78.7722,-234.521"/>
</g>
<!-- Node5 -->
<g id="node5" class="node"><title>Node5</title>
<g id="a_node5"><a xlink:title=" ">
<polygon fill="white" stroke="#bfbfbf" points="164.5,-244.5 164.5,-263.5 214.5,-263.5 214.5,-244.5 164.5,-244.5"/>
<text text-anchor="middle" x="189.5" y="-251.5" font-family="Helvetica,sans-Serif" font-size="10.00">System</text>
</a>
</g>
</g>
<!-- Node5&#45;&gt;Node1 -->
<g id="edge5" class="edge"><title>Node5&#45;&gt;Node1</title>
<path fill="none" stroke="#9a32cd" stroke-dasharray="5,2" d="M200.85,-235.529C202.356,-232.461 203.666,-229.218 204.5,-226 225.467,-145.087 251.103,-103.754 199.5,-38 192.484,-29.0596 182.455,-23.0403 171.78,-18.9979"/>
<polygon fill="#9a32cd" stroke="#9a32cd" points="197.653,-234.068 195.709,-244.483 203.723,-237.554 197.653,-234.068"/>
<text text-anchor="middle" x="255" y="-74.5" font-family="Helvetica,sans-Serif" font-size="10.00"> components</text>
</g>
<!-- Node5&#45;&gt;Node3 -->
<g id="edge4" class="edge"><title>Node5&#45;&gt;Node3</title>
<path fill="none" stroke="#9a32cd" stroke-dasharray="5,2" d="M154.551,-248.526C140.657,-244.847 125.985,-238.156 117.5,-226 86.7623,-181.964 105.547,-111.186 113.481,-86.6811"/>
<polygon fill="#9a32cd" stroke="#9a32cd" points="153.912,-251.969 164.431,-250.708 155.421,-245.134 153.912,-251.969"/>
<text text-anchor="middle" x="161" y="-218" font-family="Helvetica,sans-Serif" font-size="10.00"> lblMessage</text>
<text text-anchor="middle" x="161" y="-207" font-family="Helvetica,sans-Serif" font-size="10.00">pnlText</text>
<text text-anchor="middle" x="161" y="-196" font-family="Helvetica,sans-Serif" font-size="10.00">btnOk</text>
<text text-anchor="middle" x="161" y="-185" font-family="Helvetica,sans-Serif" font-size="10.00">menuSummary</text>
<text text-anchor="middle" x="161" y="-174" font-family="Helvetica,sans-Serif" font-size="10.00">menuTextVisible</text>
<text text-anchor="middle" x="161" y="-163" font-family="Helvetica,sans-Serif" font-size="10.00">pnlMessage</text>
<text text-anchor="middle" x="161" y="-152" font-family="Helvetica,sans-Serif" font-size="10.00">pnlOuter</text>
<text text-anchor="middle" x="161" y="-141" font-family="Helvetica,sans-Serif" font-size="10.00">menuCopyMessage</text>
<text text-anchor="middle" x="161" y="-130" font-family="Helvetica,sans-Serif" font-size="10.00">txtText</text>
<text text-anchor="middle" x="161" y="-119" font-family="Helvetica,sans-Serif" font-size="10.00">btnClose</text>
<text text-anchor="middle" x="161" y="-108" font-family="Helvetica,sans-Serif" font-size="10.00">...</text>
</g>
</g>
</svg>
