<?xml version="1.0" encoding="UTF-8" standalone="no"?>
<!DOCTYPE svg PUBLIC "-//W3C//DTD SVG 1.1//EN"
 "http://www.w3.org/Graphics/SVG/1.1/DTD/svg11.dtd">
<!-- Generated by graphviz version 2.38.0 (20140413.2041)
 -->
<!-- Title: IG.MPetekLib.Algorithms.Solvers.InitialProblemODE_RK4.InitialProblemSolverBase Pages: 1 -->
<svg width="159pt" height="128pt"
 viewBox="0.00 0.00 159.00 128.00" xmlns="http://www.w3.org/2000/svg" xmlns:xlink="http://www.w3.org/1999/xlink">
<g id="graph0" class="graph" transform="scale(1 1) rotate(0) translate(4 124)">
<title>IG.MPetekLib.Algorithms.Solvers.InitialProblemODE_RK4.InitialProblemSolverBase</title>
<polygon fill="white" stroke="none" points="-4,4 -4,-124 155,-124 155,4 -4,4"/>
<!-- Node1 -->
<g id="node1" class="node"><title>Node1</title>
<g id="a_node1"><a xlink:title="A template ODE solver without an actual implementation of the solving method (e.g....">
<polygon fill="#bfbfbf" stroke="black" points="0,-78.5 0,-119.5 151,-119.5 151,-78.5 0,-78.5"/>
<text text-anchor="start" x="8" y="-107.5" font-family="Helvetica,sans-Serif" font-size="10.00">IG.MPetekLib.Algorithms.</text>
<text text-anchor="start" x="8" y="-96.5" font-family="Helvetica,sans-Serif" font-size="10.00">Solvers.InitialProblemODE</text>
<text text-anchor="middle" x="75.5" y="-85.5" font-family="Helvetica,sans-Serif" font-size="10.00">_RK4.InitialProblemSolverBase</text>
</a>
</g>
</g>
<!-- Node2 -->
<g id="node2" class="node"><title>Node2</title>
<g id="a_node2"><a xlink:href="../../de/d6b/classIG_1_1MPetekLib_1_1Algorithms_1_1Solvers_1_1InitialProblemODE__RK4_1_1InitialProblemSolverRK4.html" target="_top" xlink:title="A fourth order Runge&#45;Kutta ODE solver.">
<polygon fill="white" stroke="black" points="2,-0.5 2,-41.5 149,-41.5 149,-0.5 2,-0.5"/>
<text text-anchor="start" x="10" y="-29.5" font-family="Helvetica,sans-Serif" font-size="10.00">IG.MPetekLib.Algorithms.</text>
<text text-anchor="start" x="10" y="-18.5" font-family="Helvetica,sans-Serif" font-size="10.00">Solvers.InitialProblemODE</text>
<text text-anchor="middle" x="75.5" y="-7.5" font-family="Helvetica,sans-Serif" font-size="10.00">_RK4.InitialProblemSolverRK4</text>
</a>
</g>
</g>
<!-- Node1&#45;&gt;Node2 -->
<g id="edge1" class="edge"><title>Node1&#45;&gt;Node2</title>
<path fill="none" stroke="midnightblue" d="M75.5,-68.2965C75.5,-59.3009 75.5,-49.6532 75.5,-41.5056"/>
<polygon fill="midnightblue" stroke="midnightblue" points="72.0001,-68.4281 75.5,-78.4281 79.0001,-68.4281 72.0001,-68.4281"/>
</g>
</g>
</svg>
