<?xml version="1.0" encoding="UTF-8" standalone="no"?>
<!DOCTYPE svg PUBLIC "-//W3C//DTD SVG 1.1//EN"
 "http://www.w3.org/Graphics/SVG/1.1/DTD/svg11.dtd">
<!-- Generated by graphviz version 2.38.0 (20140413.2041)
 -->
<!-- Title: IG.Neural.NeuralTrainingTablePlotter Pages: 1 -->
<svg width="744pt" height="383pt"
 viewBox="0.00 0.00 743.54 383.00" xmlns="http://www.w3.org/2000/svg" xmlns:xlink="http://www.w3.org/1999/xlink">
<g id="graph0" class="graph" transform="scale(1 1) rotate(0) translate(4 379)">
<title>IG.Neural.NeuralTrainingTablePlotter</title>
<polygon fill="white" stroke="none" points="-4,4 -4,-379 739.543,-379 739.543,4 -4,4"/>
<!-- Node1 -->
<g id="node1" class="node"><title>Node1</title>
<g id="a_node1"><a xlink:title="Plotter class for neural training results.">
<polygon fill="#bfbfbf" stroke="black" points="285.543,-0.5 285.543,-30.5 407.543,-30.5 407.543,-0.5 285.543,-0.5"/>
<text text-anchor="start" x="293.543" y="-18.5" font-family="Helvetica,sans-Serif" font-size="10.00">IG.Neural.NeuralTraining</text>
<text text-anchor="middle" x="346.543" y="-7.5" font-family="Helvetica,sans-Serif" font-size="10.00">TablePlotter</text>
</a>
</g>
</g>
<!-- Node2 -->
<g id="node2" class="node"><title>Node2</title>
<g id="a_node2"><a xlink:href="../../d1/d33/classIG_1_1Neural_1_1NeuralTrainingResultsPlotter.html" target="_top" xlink:title="Plotter class for neural training results.">
<polygon fill="white" stroke="black" points="170.543,-78.5 170.543,-97.5 310.543,-97.5 310.543,-78.5 170.543,-78.5"/>
<text text-anchor="middle" x="240.543" y="-85.5" font-family="Helvetica,sans-Serif" font-size="10.00">NeuralTrainingResultsPlotter</text>
</a>
</g>
</g>
<!-- Node2&#45;&gt;Node1 -->
<g id="edge1" class="edge"><title>Node2&#45;&gt;Node1</title>
<path fill="none" stroke="midnightblue" d="M261.891,-72.8019C280.371,-60.5109 306.953,-42.8312 325.379,-30.5762"/>
<polygon fill="midnightblue" stroke="midnightblue" points="259.929,-69.903 253.541,-78.3553 263.806,-75.7316 259.929,-69.903"/>
</g>
<!-- Node3 -->
<g id="node3" class="node"><title>Node3</title>
<g id="a_node3"><a xlink:href="../../d3/db6/interfaceIG_1_1Lib_1_1ILockable.html" target="_top" xlink:title="Lockable object, has a Lock property that returns object on which lock must be performed in order to ...">
<polygon fill="white" stroke="black" points="321.543,-145.5 321.543,-164.5 379.543,-164.5 379.543,-145.5 321.543,-145.5"/>
<text text-anchor="middle" x="350.543" y="-152.5" font-family="Helvetica,sans-Serif" font-size="10.00">ILockable</text>
</a>
</g>
</g>
<!-- Node3&#45;&gt;Node1 -->
<g id="edge8" class="edge"><title>Node3&#45;&gt;Node1</title>
<path fill="none" stroke="midnightblue" d="M350.002,-135.388C349.191,-107.53 347.681,-55.5968 346.954,-30.6248"/>
<polygon fill="midnightblue" stroke="midnightblue" points="346.504,-135.505 350.293,-145.399 353.501,-135.301 346.504,-135.505"/>
</g>
<!-- Node3&#45;&gt;Node2 -->
<g id="edge2" class="edge"><title>Node3&#45;&gt;Node2</title>
<path fill="none" stroke="midnightblue" d="M327.046,-140.115C305.252,-127.237 273.502,-108.476 255.143,-97.6273"/>
<polygon fill="midnightblue" stroke="midnightblue" points="325.318,-143.16 335.708,-145.234 328.879,-137.133 325.318,-143.16"/>
</g>
<!-- Node8 -->
<g id="node8" class="node"><title>Node8</title>
<g id="a_node8"><a xlink:href="../../d2/d4a/classIG_1_1Num_1_1NeuralTrainingTable.html" target="_top" xlink:title="Contains Parameters that define neural network architecture and trainig limits, together with achieve...">
<polygon fill="white" stroke="black" points="375.043,-78.5 375.043,-97.5 512.043,-97.5 512.043,-78.5 375.043,-78.5"/>
<text text-anchor="middle" x="443.543" y="-85.5" font-family="Helvetica,sans-Serif" font-size="10.00">IG.Num.NeuralTrainingTable</text>
</a>
</g>
</g>
<!-- Node3&#45;&gt;Node8 -->
<g id="edge10" class="edge"><title>Node3&#45;&gt;Node8</title>
<path fill="none" stroke="midnightblue" d="M371.404,-139.42C389.79,-126.569 415.955,-108.282 431.2,-97.6273"/>
<polygon fill="midnightblue" stroke="midnightblue" points="369.277,-136.636 363.086,-145.234 373.287,-142.374 369.277,-136.636"/>
</g>
<!-- Node4 -->
<g id="node4" class="node"><title>Node4</title>
<g id="a_node4"><a xlink:title=" ">
<polygon fill="white" stroke="#bfbfbf" points="15.0433,-355.5 15.0433,-374.5 56.0433,-374.5 56.0433,-355.5 15.0433,-355.5"/>
<text text-anchor="middle" x="35.5433" y="-362.5" font-family="Helvetica,sans-Serif" font-size="10.00">static</text>
</a>
</g>
</g>
<!-- Node4&#45;&gt;Node2 -->
<g id="edge3" class="edge"><title>Node4&#45;&gt;Node2</title>
<path fill="none" stroke="#9a32cd" stroke-dasharray="5,2" d="M22.6923,-346.669C20.9837,-343.585 19.4956,-340.3 18.5433,-337 -0.434907,-271.239 -10.2855,-245.077 18.5433,-183 44.8106,-126.439 115.706,-103.875 170.381,-94.894"/>
<polygon fill="#9a32cd" stroke="#9a32cd" points="19.7951,-348.634 28.1641,-355.131 25.6733,-344.833 19.7951,-348.634"/>
<text text-anchor="middle" x="79.0433" y="-152.5" font-family="Helvetica,sans-Serif" font-size="10.00"> _dataDefinition</text>
</g>
<!-- Node5 -->
<g id="node5" class="node"><title>Node5</title>
<g id="a_node5"><a xlink:href="../../db/da0/classIG_1_1Num_1_1NeuralTrainingParameters.html" target="_top" xlink:title="Contains Parameters that define neural network architecture and trainig procedure,...">
<polygon fill="white" stroke="black" points="139.543,-145.5 139.543,-164.5 303.543,-164.5 303.543,-145.5 139.543,-145.5"/>
<text text-anchor="middle" x="221.543" y="-152.5" font-family="Helvetica,sans-Serif" font-size="10.00">IG.Num.NeuralTrainingParameters</text>
</a>
</g>
</g>
<!-- Node4&#45;&gt;Node5 -->
<g id="edge7" class="edge"><title>Node4&#45;&gt;Node5</title>
<path fill="none" stroke="#9a32cd" stroke-dasharray="5,2" d="M30.6676,-345.641C22.2412,-309.324 9.61314,-227.943 51.5433,-183 63.8258,-169.835 102.211,-163.081 139.404,-159.62"/>
<polygon fill="#9a32cd" stroke="#9a32cd" points="27.2775,-346.512 33.0827,-355.375 34.0715,-344.827 27.2775,-346.512"/>
<text text-anchor="middle" x="133.043" y="-318" font-family="Helvetica,sans-Serif" font-size="10.00"> DefaultInputLength</text>
<text text-anchor="middle" x="133.043" y="-307" font-family="Helvetica,sans-Serif" font-size="10.00">DefaultEpochsInBundle</text>
<text text-anchor="middle" x="133.043" y="-296" font-family="Helvetica,sans-Serif" font-size="10.00">DefaultInputBoundSafetyFactor</text>
<text text-anchor="middle" x="133.043" y="-285" font-family="Helvetica,sans-Serif" font-size="10.00">DefaultToleranceMax</text>
<text text-anchor="middle" x="133.043" y="-274" font-family="Helvetica,sans-Serif" font-size="10.00">DefaultToleranceRms</text>
<text text-anchor="middle" x="133.043" y="-263" font-family="Helvetica,sans-Serif" font-size="10.00">DefaultNumHiddenLayers</text>
<text text-anchor="middle" x="133.043" y="-252" font-family="Helvetica,sans-Serif" font-size="10.00">DefaultSigmoidAlphaValue</text>
<text text-anchor="middle" x="133.043" y="-241" font-family="Helvetica,sans-Serif" font-size="10.00">DefaultOutputBoundSafetyFactor</text>
<text text-anchor="start" x="51.5433" y="-230" font-family="Helvetica,sans-Serif" font-size="10.00">DefaultToleranceMaxRelativeToRange</text>
<text text-anchor="middle" x="133.043" y="-219" font-family="Helvetica,sans-Serif" font-size="10.00">Scalar</text>
<text text-anchor="middle" x="133.043" y="-208" font-family="Helvetica,sans-Serif" font-size="10.00">DefaultNumHiddenNeurons</text>
<text text-anchor="middle" x="133.043" y="-197" font-family="Helvetica,sans-Serif" font-size="10.00">...</text>
</g>
<!-- Node9 -->
<g id="node9" class="node"><title>Node9</title>
<g id="a_node9"><a xlink:href="../../d6/d82/classIG_1_1Num_1_1NeuralTrainingLimits.html" target="_top" xlink:title="Contains Parameters that define neural network architecture limits and trainig parameter limits.">
<polygon fill="white" stroke="black" points="408.543,-145.5 408.543,-164.5 548.543,-164.5 548.543,-145.5 408.543,-145.5"/>
<text text-anchor="middle" x="478.543" y="-152.5" font-family="Helvetica,sans-Serif" font-size="10.00">IG.Num.NeuralTrainingLimits</text>
</a>
</g>
</g>
<!-- Node4&#45;&gt;Node9 -->
<g id="edge13" class="edge"><title>Node4&#45;&gt;Node9</title>
<path fill="none" stroke="#9a32cd" stroke-dasharray="5,2" d="M66.3794,-361.801C92.7173,-359.938 131.615,-357.224 165.543,-355 197.869,-352.881 432.969,-359.219 456.543,-337 458.141,-335.494 473.512,-200.485 477.567,-164.65"/>
<polygon fill="#9a32cd" stroke="#9a32cd" points="65.9815,-358.321 56.2541,-362.519 66.4766,-365.303 65.9815,-358.321"/>
<text text-anchor="start" x="475.543" y="-329" font-family="Helvetica,sans-Serif" font-size="10.00"> DefaultNumHiddenNeuronsFirst</text>
<text text-anchor="middle" x="550.543" y="-318" font-family="Helvetica,sans-Serif" font-size="10.00">Min</text>
<text text-anchor="middle" x="550.543" y="-307" font-family="Helvetica,sans-Serif" font-size="10.00">DefaultMomentumMin</text>
<text text-anchor="middle" x="550.543" y="-296" font-family="Helvetica,sans-Serif" font-size="10.00">DefaultMomentumMax</text>
<text text-anchor="middle" x="550.543" y="-285" font-family="Helvetica,sans-Serif" font-size="10.00">DefaultLearningRateMax</text>
<text text-anchor="start" x="475.543" y="-274" font-family="Helvetica,sans-Serif" font-size="10.00">DefaultNumHiddenNeuronsSecond</text>
<text text-anchor="middle" x="550.543" y="-263" font-family="Helvetica,sans-Serif" font-size="10.00">Num</text>
<text text-anchor="start" x="475.543" y="-252" font-family="Helvetica,sans-Serif" font-size="10.00">DefaultNumHiddenNeuronsSecond</text>
<text text-anchor="middle" x="550.543" y="-241" font-family="Helvetica,sans-Serif" font-size="10.00">Max</text>
<text text-anchor="middle" x="550.543" y="-230" font-family="Helvetica,sans-Serif" font-size="10.00">DefaultInputSafetyFactorMin</text>
<text text-anchor="middle" x="550.543" y="-219" font-family="Helvetica,sans-Serif" font-size="10.00">DefaultLearningRateNum</text>
<text text-anchor="middle" x="550.543" y="-208" font-family="Helvetica,sans-Serif" font-size="10.00">DefaultEpochBundle</text>
<text text-anchor="middle" x="550.543" y="-197" font-family="Helvetica,sans-Serif" font-size="10.00">DefaultAlphaMax</text>
<text text-anchor="middle" x="550.543" y="-186" font-family="Helvetica,sans-Serif" font-size="10.00">...</text>
</g>
<!-- Node5&#45;&gt;Node2 -->
<g id="edge4" class="edge"><title>Node5&#45;&gt;Node2</title>
<path fill="none" stroke="#9a32cd" stroke-dasharray="5,2" d="M226.976,-135.415C230.608,-122.988 235.218,-107.217 238.021,-97.6273"/>
<polygon fill="#9a32cd" stroke="#9a32cd" points="223.552,-134.653 224.106,-145.234 230.271,-136.617 223.552,-134.653"/>
<text text-anchor="middle" x="251.543" y="-119" font-family="Helvetica,sans-Serif" font-size="10.00"> _results</text>
</g>
<!-- Node6 -->
<g id="node6" class="node"><title>Node6</title>
<g id="a_node6"><a xlink:href="../../d3/d24/interfaceIG_1_1Num_1_1IVector.html" target="_top" xlink:title="Generic Vector interface">
<polygon fill="white" stroke="black" points="175.043,-355.5 175.043,-374.5 282.043,-374.5 282.043,-355.5 175.043,-355.5"/>
<text text-anchor="middle" x="228.543" y="-362.5" font-family="Helvetica,sans-Serif" font-size="10.00">IG.Num.IVector&lt; T &gt;</text>
</a>
</g>
</g>
<!-- Node6&#45;&gt;Node5 -->
<g id="edge5" class="edge"><title>Node6&#45;&gt;Node5</title>
<path fill="none" stroke="#9a32cd" stroke-dasharray="5,2" d="M223.83,-345.204C223.3,-342.467 222.844,-339.672 222.543,-337 215.126,-271.111 219.256,-190.876 220.938,-164.704"/>
<polygon fill="#9a32cd" stroke="#9a32cd" points="220.443,-346.097 226.059,-355.081 227.272,-344.556 220.443,-346.097"/>
<text text-anchor="middle" x="282.543" y="-312.5" font-family="Helvetica,sans-Serif" font-size="10.00"> _tolMaxRelative</text>
<text text-anchor="middle" x="282.543" y="-301.5" font-family="Helvetica,sans-Serif" font-size="10.00">_errorsTrainingMax</text>
<text text-anchor="middle" x="282.543" y="-290.5" font-family="Helvetica,sans-Serif" font-size="10.00">_errorsVerificationMax</text>
<text text-anchor="middle" x="282.543" y="-279.5" font-family="Helvetica,sans-Serif" font-size="10.00">_errorsVerificationRms</text>
<text text-anchor="middle" x="282.543" y="-268.5" font-family="Helvetica,sans-Serif" font-size="10.00">_errorsVerificationMeanAbs</text>
<text text-anchor="middle" x="282.543" y="-257.5" font-family="Helvetica,sans-Serif" font-size="10.00">_tolRmsRelative</text>
<text text-anchor="middle" x="282.543" y="-246.5" font-family="Helvetica,sans-Serif" font-size="10.00">_toleranceMax</text>
<text text-anchor="middle" x="282.543" y="-235.5" font-family="Helvetica,sans-Serif" font-size="10.00">_outputRange</text>
<text text-anchor="middle" x="282.543" y="-224.5" font-family="Helvetica,sans-Serif" font-size="10.00">_toleranceRms</text>
<text text-anchor="middle" x="282.543" y="-213.5" font-family="Helvetica,sans-Serif" font-size="10.00">_errorsTrainingRms</text>
<text text-anchor="middle" x="282.543" y="-202.5" font-family="Helvetica,sans-Serif" font-size="10.00">...</text>
</g>
<!-- Node6&#45;&gt;Node9 -->
<g id="edge12" class="edge"><title>Node6&#45;&gt;Node9</title>
<path fill="none" stroke="#9a32cd" stroke-dasharray="5,2" d="M292.563,-355.576C294.578,-355.373 296.576,-355.18 298.543,-355 335.223,-351.649 604.216,-363.742 629.543,-337 676.608,-287.306 673.475,-235.484 629.543,-183 618.903,-170.288 582.898,-163.554 548.716,-159.991"/>
<polygon fill="#9a32cd" stroke="#9a32cd" points="291.953,-352.121 282.385,-356.672 292.702,-359.081 291.953,-352.121"/>
<text text-anchor="middle" x="699.543" y="-274" font-family="Helvetica,sans-Serif" font-size="10.00"> _tolMaxRelative</text>
<text text-anchor="middle" x="699.543" y="-263" font-family="Helvetica,sans-Serif" font-size="10.00">_tolRmsRelative</text>
<text text-anchor="middle" x="699.543" y="-252" font-family="Helvetica,sans-Serif" font-size="10.00">_toleranceMax</text>
<text text-anchor="middle" x="699.543" y="-241" font-family="Helvetica,sans-Serif" font-size="10.00">_toleranceRms</text>
</g>
<!-- Node7 -->
<g id="node7" class="node"><title>Node7</title>
<g id="a_node7"><a xlink:href="../../db/d5e/interfaceIG_1_1Num_1_1IBoundingBox.html" target="_top" xlink:title="Bounding box, defines minimum and maximum co&#45;ordinates of domains, geometric objects and their groups...">
<polygon fill="white" stroke="black" points="308.043,-355.5 308.043,-374.5 421.043,-374.5 421.043,-355.5 308.043,-355.5"/>
<text text-anchor="middle" x="364.543" y="-362.5" font-family="Helvetica,sans-Serif" font-size="10.00">IG.Num.IBoundingBox</text>
</a>
</g>
</g>
<!-- Node7&#45;&gt;Node5 -->
<g id="edge6" class="edge"><title>Node7&#45;&gt;Node5</title>
<path fill="none" stroke="#9a32cd" stroke-dasharray="5,2" d="M364.896,-345.285C365.272,-303.912 363.816,-206.48 342.543,-183 335.065,-174.745 313.855,-168.752 291.24,-164.541"/>
<polygon fill="#9a32cd" stroke="#9a32cd" points="361.395,-345.312 364.756,-355.36 368.394,-345.409 361.395,-345.312"/>
<text text-anchor="middle" x="411.043" y="-263" font-family="Helvetica,sans-Serif" font-size="10.00"> _inputNeuronRange</text>
<text text-anchor="middle" x="411.043" y="-252" font-family="Helvetica,sans-Serif" font-size="10.00">_outputNeuronRange</text>
</g>
<!-- Node8&#45;&gt;Node1 -->
<g id="edge9" class="edge"><title>Node8&#45;&gt;Node1</title>
<path fill="none" stroke="#9a32cd" stroke-dasharray="5,2" d="M423.545,-72.4653C406.656,-60.1899 382.619,-42.7198 365.91,-30.5762"/>
<polygon fill="#9a32cd" stroke="#9a32cd" points="421.502,-75.3073 431.649,-78.3553 425.618,-69.6448 421.502,-75.3073"/>
<text text-anchor="middle" x="432.543" y="-52" font-family="Helvetica,sans-Serif" font-size="10.00"> _resultTable</text>
</g>
<!-- Node9&#45;&gt;Node8 -->
<g id="edge11" class="edge"><title>Node9&#45;&gt;Node8</title>
<path fill="none" stroke="#9a32cd" stroke-dasharray="5,2" d="M468.939,-136.163C462.189,-123.628 453.457,-107.41 448.189,-97.6273"/>
<polygon fill="#9a32cd" stroke="#9a32cd" points="466,-138.088 473.823,-145.234 472.164,-134.77 466,-138.088"/>
<text text-anchor="middle" x="497.043" y="-119" font-family="Helvetica,sans-Serif" font-size="10.00"> _trainingLimits</text>
</g>
</g>
</svg>
