<?xml version="1.0" encoding="UTF-8" standalone="no"?>
<!DOCTYPE svg PUBLIC "-//W3C//DTD SVG 1.1//EN"
 "http://www.w3.org/Graphics/SVG/1.1/DTD/svg11.dtd">
<!-- Generated by graphviz version 2.38.0 (20140413.2041)
 -->
<!-- Title: IG.Forms.NotificationFrame Pages: 1 -->
<svg width="342pt" height="350pt"
 viewBox="0.00 0.00 342.00 350.00" xmlns="http://www.w3.org/2000/svg" xmlns:xlink="http://www.w3.org/1999/xlink">
<g id="graph0" class="graph" transform="scale(1 1) rotate(0) translate(4 346)">
<title>IG.Forms.NotificationFrame</title>
<polygon fill="white" stroke="none" points="-4,4 -4,-346 338,-346 338,4 -4,4"/>
<!-- Node1 -->
<g id="node1" class="node"><title>Node1</title>
<g id="a_node1"><a xlink:title=" ">
<polygon fill="#bfbfbf" stroke="black" points="69,-0.5 69,-19.5 205,-19.5 205,-0.5 69,-0.5"/>
<text text-anchor="middle" x="137" y="-7.5" font-family="Helvetica,sans-Serif" font-size="10.00">IG.Forms.NotificationFrame</text>
</a>
</g>
</g>
<!-- Node2 -->
<g id="node2" class="node"><title>Node2</title>
<g id="a_node2"><a xlink:title=" ">
<polygon fill="white" stroke="#bfbfbf" points="0,-211.5 0,-230.5 68,-230.5 68,-211.5 0,-211.5"/>
<text text-anchor="middle" x="34" y="-218.5" font-family="Helvetica,sans-Serif" font-size="10.00">UserControl</text>
</a>
</g>
</g>
<!-- Node2&#45;&gt;Node1 -->
<g id="edge1" class="edge"><title>Node2&#45;&gt;Node1</title>
<path fill="none" stroke="midnightblue" d="M37.2498,-201.213C41.1818,-180.995 48.8308,-148.215 61,-122 80.2741,-80.4796 114.585,-37.4712 129.609,-19.5917"/>
<polygon fill="midnightblue" stroke="midnightblue" points="33.7657,-200.808 35.4003,-211.276 40.6504,-202.073 33.7657,-200.808"/>
</g>
<!-- Node3 -->
<g id="node3" class="node"><title>Node3</title>
<g id="a_node3"><a xlink:href="../../d3/dcb/classIG_1_1Forms_1_1NotificationPanel.html" target="_top" xlink:title="Control containing a notification. Can be used in different scanarios &#45; as static notification panel ...">
<polygon fill="white" stroke="black" points="70.5,-122.5 70.5,-141.5 203.5,-141.5 203.5,-122.5 70.5,-122.5"/>
<text text-anchor="middle" x="137" y="-129.5" font-family="Helvetica,sans-Serif" font-size="10.00">IG.Forms.NotificationPanel</text>
</a>
</g>
</g>
<!-- Node2&#45;&gt;Node3 -->
<g id="edge3" class="edge"><title>Node2&#45;&gt;Node3</title>
<path fill="none" stroke="midnightblue" d="M52.0799,-204.729C73.7722,-186.406 109.388,-156.322 126.789,-141.625"/>
<polygon fill="midnightblue" stroke="midnightblue" points="49.6336,-202.213 44.2526,-211.34 54.1506,-207.561 49.6336,-202.213"/>
</g>
<!-- Node3&#45;&gt;Node1 -->
<g id="edge2" class="edge"><title>Node3&#45;&gt;Node1</title>
<path fill="none" stroke="#9a32cd" stroke-dasharray="5,2" d="M137,-112.145C137,-85.7231 137,-38.7637 137,-19.5519"/>
<polygon fill="#9a32cd" stroke="#9a32cd" points="133.5,-112.37 137,-122.37 140.5,-112.37 133.5,-112.37"/>
<text text-anchor="middle" x="178.5" y="-96" font-family="Helvetica,sans-Serif" font-size="10.00"> notificationFrame1</text>
<text text-anchor="middle" x="178.5" y="-85" font-family="Helvetica,sans-Serif" font-size="10.00">notificationFrame2</text>
<text text-anchor="middle" x="178.5" y="-74" font-family="Helvetica,sans-Serif" font-size="10.00">notificationPanel1</text>
<text text-anchor="middle" x="178.5" y="-63" font-family="Helvetica,sans-Serif" font-size="10.00">notificationPanel2</text>
<text text-anchor="middle" x="178.5" y="-52" font-family="Helvetica,sans-Serif" font-size="10.00">notificationPanel3</text>
<text text-anchor="middle" x="178.5" y="-41" font-family="Helvetica,sans-Serif" font-size="10.00">notificationPanel4</text>
</g>
<!-- Node4 -->
<g id="node4" class="node"><title>Node4</title>
<g id="a_node4"><a xlink:href="../../d4/dcb/classIG_1_1Forms_1_1NotificationParameters.html" target="_top" xlink:title="Contains parameters for GUI notifications.">
<polygon fill="white" stroke="black" points="86,-211.5 86,-230.5 244,-230.5 244,-211.5 86,-211.5"/>
<text text-anchor="middle" x="165" y="-218.5" font-family="Helvetica,sans-Serif" font-size="10.00">IG.Forms.NotificationParameters</text>
</a>
</g>
</g>
<!-- Node4&#45;&gt;Node3 -->
<g id="edge4" class="edge"><title>Node4&#45;&gt;Node3</title>
<path fill="none" stroke="#9a32cd" stroke-dasharray="5,2" d="M145.483,-204.342C142.45,-200.944 139.747,-197.12 138,-193 130.761,-175.927 133.105,-153.589 135.206,-141.561"/>
<polygon fill="#9a32cd" stroke="#9a32cd" points="143.23,-207.031 152.865,-211.437 148.08,-201.984 143.23,-207.031"/>
<text text-anchor="middle" x="167" y="-174" font-family="Helvetica,sans-Serif" font-size="10.00"> _parameters</text>
</g>
<!-- Node5 -->
<g id="node5" class="node"><title>Node5</title>
<g id="a_node5"><a xlink:title=" ">
<polygon fill="white" stroke="#bfbfbf" points="144.5,-322.5 144.5,-341.5 185.5,-341.5 185.5,-322.5 144.5,-322.5"/>
<text text-anchor="middle" x="165" y="-329.5" font-family="Helvetica,sans-Serif" font-size="10.00">static</text>
</a>
</g>
</g>
<!-- Node5&#45;&gt;Node4 -->
<g id="edge5" class="edge"><title>Node5&#45;&gt;Node4</title>
<path fill="none" stroke="#9a32cd" stroke-dasharray="5,2" d="M165,-312.193C165,-288.276 165,-247.989 165,-230.513"/>
<polygon fill="#9a32cd" stroke="#9a32cd" points="161.5,-312.447 165,-322.447 168.5,-312.447 161.5,-312.447"/>
<text text-anchor="middle" x="231.5" y="-296" font-family="Helvetica,sans-Serif" font-size="10.00"> DefaultInfoTitle</text>
<text text-anchor="middle" x="231.5" y="-285" font-family="Helvetica,sans-Serif" font-size="10.00">DefaultTitle</text>
<text text-anchor="middle" x="231.5" y="-274" font-family="Helvetica,sans-Serif" font-size="10.00">_defaultNotificationParameters</text>
<text text-anchor="middle" x="231.5" y="-263" font-family="Helvetica,sans-Serif" font-size="10.00">DefaultWarningTitle</text>
<text text-anchor="middle" x="231.5" y="-252" font-family="Helvetica,sans-Serif" font-size="10.00">DefaultErrorTitle</text>
</g>
<!-- Node6 -->
<g id="node6" class="node"><title>Node6</title>
<g id="a_node6"><a xlink:title=" ">
<polygon fill="white" stroke="#bfbfbf" points="262,-211.5 262,-230.5 312,-230.5 312,-211.5 262,-211.5"/>
<text text-anchor="middle" x="287" y="-218.5" font-family="Helvetica,sans-Serif" font-size="10.00">System</text>
</a>
</g>
</g>
<!-- Node6&#45;&gt;Node1 -->
<g id="edge7" class="edge"><title>Node6&#45;&gt;Node1</title>
<path fill="none" stroke="#9a32cd" stroke-dasharray="5,2" d="M286.096,-200.885C283.279,-163.822 271.689,-81.9742 224,-38 214.699,-29.4233 202.715,-23.5704 190.633,-19.5764"/>
<polygon fill="#9a32cd" stroke="#9a32cd" points="282.625,-201.476 286.737,-211.24 289.612,-201.043 282.625,-201.476"/>
<text text-anchor="middle" x="305.5" y="-129.5" font-family="Helvetica,sans-Serif" font-size="10.00"> components</text>
</g>
<!-- Node6&#45;&gt;Node3 -->
<g id="edge6" class="edge"><title>Node6&#45;&gt;Node3</title>
<path fill="none" stroke="#9a32cd" stroke-dasharray="5,2" d="M252.224,-210.605C240.872,-206.435 228.702,-200.687 219,-193 204.988,-181.898 209.724,-171.457 196,-160 186.488,-152.059 174.257,-145.957 163.4,-141.58"/>
<polygon fill="#9a32cd" stroke="#9a32cd" points="251.314,-213.991 261.908,-213.873 253.552,-207.359 251.314,-213.991"/>
<text text-anchor="middle" x="246" y="-185" font-family="Helvetica,sans-Serif" font-size="10.00"> lblTitle</text>
<text text-anchor="middle" x="246" y="-174" font-family="Helvetica,sans-Serif" font-size="10.00">components</text>
<text text-anchor="middle" x="246" y="-163" font-family="Helvetica,sans-Serif" font-size="10.00">txtMessage</text>
</g>
</g>
</svg>
