<?xml version="1.0" encoding="UTF-8" standalone="no"?>
<!DOCTYPE svg PUBLIC "-//W3C//DTD SVG 1.1//EN"
 "http://www.w3.org/Graphics/SVG/1.1/DTD/svg11.dtd">
<!-- Generated by graphviz version 2.38.0 (20140413.2041)
 -->
<!-- Title: AForge.Imaging.Filters.IFilterInformation Pages: 1 -->
<svg width="548pt" height="1788pt"
 viewBox="0.00 0.00 548.00 1787.50" xmlns="http://www.w3.org/2000/svg" xmlns:xlink="http://www.w3.org/1999/xlink">
<g id="graph0" class="graph" transform="scale(1 1) rotate(0) translate(4 1783.5)">
<title>AForge.Imaging.Filters.IFilterInformation</title>
<polygon fill="white" stroke="none" points="-4,4 -4,-1783.5 544,-1783.5 544,4 -4,4"/>
<!-- Node1 -->
<g id="node1" class="node"><title>Node1</title>
<g id="a_node1"><a xlink:title="Interface which provides information about image processing filter.">
<polygon fill="#bfbfbf" stroke="black" points="0,-273 0,-303 142,-303 142,-273 0,-273"/>
<text text-anchor="start" x="8" y="-291" font-family="Helvetica,sans-Serif" font-size="10.00">AForge.Imaging.Filters.IFilter</text>
<text text-anchor="middle" x="71" y="-280" font-family="Helvetica,sans-Serif" font-size="10.00">Information</text>
</a>
</g>
</g>
<!-- Node2 -->
<g id="node2" class="node"><title>Node2</title>
<g id="a_node2"><a xlink:href="../../d0/d25/classAForge_1_1Imaging_1_1Filters_1_1BaseFilter.html" target="_top" xlink:title="Base class for filters, which produce new image of the same size as a result of image processing.">
<polygon fill="white" stroke="black" points="185,-1460 185,-1490 325,-1490 325,-1460 185,-1460"/>
<text text-anchor="start" x="193" y="-1478" font-family="Helvetica,sans-Serif" font-size="10.00">AForge.Imaging.Filters.Base</text>
<text text-anchor="middle" x="255" y="-1467" font-family="Helvetica,sans-Serif" font-size="10.00">Filter</text>
</a>
</g>
</g>
<!-- Node1&#45;&gt;Node2 -->
<g id="edge1" class="edge"><title>Node1&#45;&gt;Node2</title>
<path fill="none" stroke="midnightblue" d="M75.8694,-313.236C100.281,-472.448 232.541,-1335.05 251.689,-1459.93"/>
<polygon fill="midnightblue" stroke="midnightblue" points="79.2764,-312.362 74.3012,-303.008 72.3572,-313.423 79.2764,-312.362"/>
</g>
<!-- Node20 -->
<g id="node15" class="node"><title>Node20</title>
<g id="a_node15"><a xlink:href="../../d6/d11/classAForge_1_1Imaging_1_1Filters_1_1BaseInPlaceFilter.html" target="_top" xlink:title="Base class for filters, which may be applied directly to the source image.">
<polygon fill="white" stroke="black" points="185,-923 185,-953 325,-953 325,-923 185,-923"/>
<text text-anchor="start" x="193" y="-941" font-family="Helvetica,sans-Serif" font-size="10.00">AForge.Imaging.Filters.Base</text>
<text text-anchor="middle" x="255" y="-930" font-family="Helvetica,sans-Serif" font-size="10.00">InPlaceFilter</text>
</a>
</g>
</g>
<!-- Node1&#45;&gt;Node20 -->
<g id="edge14" class="edge"><title>Node1&#45;&gt;Node20</title>
<path fill="none" stroke="midnightblue" d="M79.0045,-313.016C108.987,-420.097 226.065,-838.234 249.792,-922.972"/>
<polygon fill="midnightblue" stroke="midnightblue" points="82.2977,-311.796 76.2309,-303.11 75.5569,-313.684 82.2977,-311.796"/>
</g>
<!-- Node42 -->
<g id="node28" class="node"><title>Node42</title>
<g id="a_node28"><a xlink:href="../../db/dc9/classAForge_1_1Imaging_1_1Filters_1_1BaseInPlacePartialFilter.html" target="_top" xlink:title="Base class for filters, which may be applied directly to the source image or its part.">
<polygon fill="white" stroke="red" points="185,-371 185,-401 325,-401 325,-371 185,-371"/>
<text text-anchor="start" x="193" y="-389" font-family="Helvetica,sans-Serif" font-size="10.00">AForge.Imaging.Filters.Base</text>
<text text-anchor="middle" x="255" y="-378" font-family="Helvetica,sans-Serif" font-size="10.00">InPlacePartialFilter</text>
</a>
</g>
</g>
<!-- Node1&#45;&gt;Node42 -->
<g id="edge27" class="edge"><title>Node1&#45;&gt;Node42</title>
<path fill="none" stroke="midnightblue" d="M98.5017,-309.435C119.18,-325.351 149.147,-346.689 178,-361 185.466,-364.703 193.607,-368.044 201.697,-370.988"/>
<polygon fill="midnightblue" stroke="midnightblue" points="100.547,-306.592 90.5106,-303.199 96.2404,-312.11 100.547,-306.592"/>
</g>
<!-- Node91 -->
<g id="node44" class="node"><title>Node91</title>
<g id="a_node44"><a xlink:href="../../dc/d45/classAForge_1_1Imaging_1_1Filters_1_1BaseTransformationFilter.html" target="_top" xlink:title="Base class for filters, which may produce new image of different size as a result of image processing...">
<polygon fill="white" stroke="red" points="185,-322 185,-352 325,-352 325,-322 185,-322"/>
<text text-anchor="start" x="193" y="-340" font-family="Helvetica,sans-Serif" font-size="10.00">AForge.Imaging.Filters.Base</text>
<text text-anchor="middle" x="255" y="-329" font-family="Helvetica,sans-Serif" font-size="10.00">TransformationFilter</text>
</a>
</g>
</g>
<!-- Node1&#45;&gt;Node91 -->
<g id="edge43" class="edge"><title>Node1&#45;&gt;Node91</title>
<path fill="none" stroke="midnightblue" d="M137.923,-305.748C157.648,-311.059 179.078,-316.829 198.094,-321.948"/>
<polygon fill="midnightblue" stroke="midnightblue" points="138.657,-302.322 128.091,-303.101 136.837,-309.081 138.657,-302.322"/>
</g>
<!-- Node108 -->
<g id="node45" class="node"><title>Node108</title>
<g id="a_node45"><a xlink:href="../../d8/ddf/classAForge_1_1Imaging_1_1Filters_1_1BaseUsingCopyPartialFilter.html" target="_top" xlink:title="Base class for filters, which require source image backup to make them applicable to source image (or...">
<polygon fill="white" stroke="red" points="185,-273 185,-303 325,-303 325,-273 185,-273"/>
<text text-anchor="start" x="193" y="-291" font-family="Helvetica,sans-Serif" font-size="10.00">AForge.Imaging.Filters.Base</text>
<text text-anchor="middle" x="255" y="-280" font-family="Helvetica,sans-Serif" font-size="10.00">UsingCopyPartialFilter</text>
</a>
</g>
</g>
<!-- Node1&#45;&gt;Node108 -->
<g id="edge44" class="edge"><title>Node1&#45;&gt;Node108</title>
<path fill="none" stroke="midnightblue" d="M152.394,-288C163.211,-288 174.231,-288 184.831,-288"/>
<polygon fill="midnightblue" stroke="midnightblue" points="152.106,-284.5 142.106,-288 152.106,-291.5 152.106,-284.5"/>
</g>
<!-- Node134 -->
<g id="node46" class="node"><title>Node134</title>
<g id="a_node46"><a xlink:href="../../d4/dcd/classAForge_1_1Imaging_1_1Filters_1_1Closing.html" target="_top" xlink:title="Closing operator from Mathematical Morphology.">
<polygon fill="white" stroke="black" points="180,-234.5 180,-253.5 330,-253.5 330,-234.5 180,-234.5"/>
<text text-anchor="middle" x="255" y="-241.5" font-family="Helvetica,sans-Serif" font-size="10.00">AForge.Imaging.Filters.Closing</text>
</a>
</g>
</g>
<!-- Node1&#45;&gt;Node134 -->
<g id="edge45" class="edge"><title>Node1&#45;&gt;Node134</title>
<path fill="none" stroke="midnightblue" d="M143.958,-270.604C168.049,-264.779 194.004,-258.505 214.653,-253.512"/>
<polygon fill="midnightblue" stroke="midnightblue" points="143.023,-267.229 134.125,-272.981 144.668,-274.033 143.023,-267.229"/>
</g>
<!-- Node135 -->
<g id="node47" class="node"><title>Node135</title>
<g id="a_node47"><a xlink:href="../../d3/dc1/classAForge_1_1Imaging_1_1Filters_1_1ExtractBiggestBlob.html" target="_top" xlink:title="Extract the biggest blob from image.">
<polygon fill="white" stroke="black" points="180.5,-185 180.5,-215 329.5,-215 329.5,-185 180.5,-185"/>
<text text-anchor="start" x="188.5" y="-203" font-family="Helvetica,sans-Serif" font-size="10.00">AForge.Imaging.Filters.Extract</text>
<text text-anchor="middle" x="255" y="-192" font-family="Helvetica,sans-Serif" font-size="10.00">BiggestBlob</text>
</a>
</g>
</g>
<!-- Node1&#45;&gt;Node135 -->
<g id="edge46" class="edge"><title>Node1&#45;&gt;Node135</title>
<path fill="none" stroke="midnightblue" d="M103.018,-267.109C123.647,-253.84 151.691,-236.971 178,-225 185.965,-221.376 194.612,-218.021 203.124,-215.023"/>
<polygon fill="midnightblue" stroke="midnightblue" points="100.846,-264.347 94.3758,-272.736 104.666,-270.213 100.846,-264.347"/>
</g>
<!-- Node136 -->
<g id="node48" class="node"><title>Node136</title>
<g id="a_node48"><a xlink:href="../../db/d8c/classAForge_1_1Imaging_1_1Filters_1_1FilterIterator.html" target="_top" xlink:title="Filter iterator.">
<polygon fill="white" stroke="black" points="185,-136 185,-166 325,-166 325,-136 185,-136"/>
<text text-anchor="start" x="193" y="-154" font-family="Helvetica,sans-Serif" font-size="10.00">AForge.Imaging.Filters.Filter</text>
<text text-anchor="middle" x="255" y="-143" font-family="Helvetica,sans-Serif" font-size="10.00">Iterator</text>
</a>
</g>
</g>
<!-- Node1&#45;&gt;Node136 -->
<g id="edge47" class="edge"><title>Node1&#45;&gt;Node136</title>
<path fill="none" stroke="midnightblue" d="M88.2527,-264.502C107.063,-238.984 140.324,-198.706 178,-175 183.387,-171.61 189.292,-168.664 195.355,-166.111"/>
<polygon fill="midnightblue" stroke="midnightblue" points="85.2337,-262.704 82.2186,-272.861 90.9095,-266.801 85.2337,-262.704"/>
</g>
<!-- Node137 -->
<g id="node49" class="node"><title>Node137</title>
<g id="a_node49"><a xlink:href="../../d2/d79/classAForge_1_1Imaging_1_1Filters_1_1Opening.html" target="_top" xlink:title="Opening operator from Mathematical Morphology.">
<polygon fill="white" stroke="black" points="178,-97.5 178,-116.5 332,-116.5 332,-97.5 178,-97.5"/>
<text text-anchor="middle" x="255" y="-104.5" font-family="Helvetica,sans-Serif" font-size="10.00">AForge.Imaging.Filters.Opening</text>
</a>
</g>
</g>
<!-- Node1&#45;&gt;Node137 -->
<g id="edge48" class="edge"><title>Node1&#45;&gt;Node137</title>
<path fill="none" stroke="midnightblue" d="M81.3918,-263.041C96.2458,-227.063 128.639,-161.104 178,-126 183.431,-122.138 189.567,-119.058 195.94,-116.602"/>
<polygon fill="midnightblue" stroke="midnightblue" points="77.9684,-262.176 77.5062,-272.761 84.4683,-264.774 77.9684,-262.176"/>
</g>
<!-- Node3 -->
<g id="node3" class="node"><title>Node3</title>
<g id="a_node3"><a xlink:href="../../dd/d10/classAForge_1_1Imaging_1_1Filters_1_1BaseFilter2.html" target="_top" xlink:title="Base class for filters, which operate with two images of the same size and format and produce new ima...">
<polygon fill="white" stroke="red" points="384,-1749 384,-1779 524,-1779 524,-1749 384,-1749"/>
<text text-anchor="start" x="392" y="-1767" font-family="Helvetica,sans-Serif" font-size="10.00">AForge.Imaging.Filters.Base</text>
<text text-anchor="middle" x="454" y="-1756" font-family="Helvetica,sans-Serif" font-size="10.00">Filter2</text>
</a>
</g>
</g>
<!-- Node2&#45;&gt;Node3 -->
<g id="edge2" class="edge"><title>Node2&#45;&gt;Node3</title>
<path fill="none" stroke="midnightblue" d="M259.35,-1500.37C267.673,-1553.08 294.228,-1674.9 368,-1740 372.714,-1744.16 378.098,-1747.6 383.817,-1750.45"/>
<polygon fill="midnightblue" stroke="midnightblue" points="262.774,-1499.6 257.841,-1490.22 255.85,-1500.63 262.774,-1499.6"/>
</g>
<!-- Node6 -->
<g id="node4" class="node"><title>Node6</title>
<g id="a_node4"><a xlink:href="../../dd/d27/classAForge_1_1Imaging_1_1Filters_1_1BayerFilter.html" target="_top" xlink:title="Generic Bayer fileter image processing routine.">
<polygon fill="white" stroke="black" points="382.5,-1700 382.5,-1730 525.5,-1730 525.5,-1700 382.5,-1700"/>
<text text-anchor="start" x="390.5" y="-1718" font-family="Helvetica,sans-Serif" font-size="10.00">AForge.Imaging.Filters.Bayer</text>
<text text-anchor="middle" x="454" y="-1707" font-family="Helvetica,sans-Serif" font-size="10.00">Filter</text>
</a>
</g>
</g>
<!-- Node2&#45;&gt;Node6 -->
<g id="edge3" class="edge"><title>Node2&#45;&gt;Node6</title>
<path fill="none" stroke="midnightblue" d="M261.954,-1500.05C273.991,-1545.17 305.553,-1640.11 368,-1691 372.398,-1694.58 377.3,-1697.63 382.469,-1700.23"/>
<polygon fill="midnightblue" stroke="midnightblue" points="265.304,-1499.03 259.429,-1490.21 258.524,-1500.77 265.304,-1499.03"/>
</g>
<!-- Node7 -->
<g id="node5" class="node"><title>Node7</title>
<g id="a_node5"><a xlink:href="../../d5/d11/classAForge_1_1Imaging_1_1Filters_1_1BayerFilterOptimized.html" target="_top" xlink:title="Optimized Bayer fileter image processing routine.">
<polygon fill="white" stroke="black" points="382.5,-1651 382.5,-1681 525.5,-1681 525.5,-1651 382.5,-1651"/>
<text text-anchor="start" x="390.5" y="-1669" font-family="Helvetica,sans-Serif" font-size="10.00">AForge.Imaging.Filters.Bayer</text>
<text text-anchor="middle" x="454" y="-1658" font-family="Helvetica,sans-Serif" font-size="10.00">FilterOptimized</text>
</a>
</g>
</g>
<!-- Node2&#45;&gt;Node7 -->
<g id="edge4" class="edge"><title>Node2&#45;&gt;Node7</title>
<path fill="none" stroke="midnightblue" d="M265.8,-1499.5C281.699,-1536.1 316.601,-1604.71 368,-1642 372.716,-1645.42 377.906,-1648.36 383.323,-1650.87"/>
<polygon fill="midnightblue" stroke="midnightblue" points="268.936,-1497.93 261.822,-1490.08 262.488,-1500.66 268.936,-1497.93"/>
</g>
<!-- Node8 -->
<g id="node6" class="node"><title>Node8</title>
<g id="a_node6"><a xlink:href="../../dc/d8d/classAForge_1_1Imaging_1_1Filters_1_1ConnectedComponentsLabeling.html" target="_top" xlink:title="Connected components labeling.">
<polygon fill="white" stroke="black" points="372,-1602 372,-1632 536,-1632 536,-1602 372,-1602"/>
<text text-anchor="start" x="380" y="-1620" font-family="Helvetica,sans-Serif" font-size="10.00">AForge.Imaging.Filters.Connected</text>
<text text-anchor="middle" x="454" y="-1609" font-family="Helvetica,sans-Serif" font-size="10.00">ComponentsLabeling</text>
</a>
</g>
</g>
<!-- Node2&#45;&gt;Node8 -->
<g id="edge5" class="edge"><title>Node2&#45;&gt;Node8</title>
<path fill="none" stroke="midnightblue" d="M272.203,-1498.54C291.838,-1525.31 327.38,-1568.47 368,-1593 373.644,-1596.41 379.79,-1599.35 386.111,-1601.88"/>
<polygon fill="midnightblue" stroke="midnightblue" points="274.847,-1496.22 266.17,-1490.14 269.161,-1500.31 274.847,-1496.22"/>
</g>
<!-- Node9 -->
<g id="node7" class="node"><title>Node9</title>
<g id="a_node7"><a xlink:href="../../d4/d7d/classAForge_1_1Imaging_1_1Filters_1_1ExtractChannel.html" target="_top" xlink:title="Extract RGB channel from image.">
<polygon fill="white" stroke="black" points="379.5,-1553 379.5,-1583 528.5,-1583 528.5,-1553 379.5,-1553"/>
<text text-anchor="start" x="387.5" y="-1571" font-family="Helvetica,sans-Serif" font-size="10.00">AForge.Imaging.Filters.Extract</text>
<text text-anchor="middle" x="454" y="-1560" font-family="Helvetica,sans-Serif" font-size="10.00">Channel</text>
</a>
</g>
</g>
<!-- Node2&#45;&gt;Node9 -->
<g id="edge6" class="edge"><title>Node2&#45;&gt;Node9</title>
<path fill="none" stroke="midnightblue" d="M284.715,-1495.78C306.646,-1510.88 338.093,-1530.87 368,-1544 375.582,-1547.33 383.747,-1550.32 391.912,-1552.97"/>
<polygon fill="midnightblue" stroke="midnightblue" points="286.714,-1492.91 276.51,-1490.06 282.709,-1498.65 286.714,-1492.91"/>
</g>
<!-- Node10 -->
<g id="node8" class="node"><title>Node10</title>
<g id="a_node8"><a xlink:href="../../d0/d8c/classAForge_1_1Imaging_1_1Filters_1_1ExtractNormalizedRGBChannel.html" target="_top" xlink:title="Extract normalized RGB channel from color image.">
<polygon fill="white" stroke="black" points="379.5,-1504 379.5,-1534 528.5,-1534 528.5,-1504 379.5,-1504"/>
<text text-anchor="start" x="387.5" y="-1522" font-family="Helvetica,sans-Serif" font-size="10.00">AForge.Imaging.Filters.Extract</text>
<text text-anchor="middle" x="454" y="-1511" font-family="Helvetica,sans-Serif" font-size="10.00">NormalizedRGBChannel</text>
</a>
</g>
</g>
<!-- Node2&#45;&gt;Node10 -->
<g id="edge7" class="edge"><title>Node2&#45;&gt;Node10</title>
<path fill="none" stroke="midnightblue" d="M333.315,-1492.27C350.628,-1496.14 368.857,-1500.21 385.724,-1503.97"/>
<polygon fill="midnightblue" stroke="midnightblue" points="333.768,-1488.78 323.245,-1490.02 332.242,-1495.61 333.768,-1488.78"/>
</g>
<!-- Node11 -->
<g id="node9" class="node"><title>Node11</title>
<g id="a_node9"><a xlink:href="../../d7/d89/classAForge_1_1Imaging_1_1Filters_1_1Grayscale.html" target="_top" xlink:title="Base class for image grayscaling.">
<polygon fill="white" stroke="red" points="373,-1465.5 373,-1484.5 535,-1484.5 535,-1465.5 373,-1465.5"/>
<text text-anchor="middle" x="454" y="-1472.5" font-family="Helvetica,sans-Serif" font-size="10.00">AForge.Imaging.Filters.Grayscale</text>
</a>
</g>
</g>
<!-- Node2&#45;&gt;Node11 -->
<g id="edge8" class="edge"><title>Node2&#45;&gt;Node11</title>
<path fill="none" stroke="midnightblue" d="M335.424,-1475C347.76,-1475 360.511,-1475 372.862,-1475"/>
<polygon fill="midnightblue" stroke="midnightblue" points="335.178,-1471.5 325.178,-1475 335.178,-1478.5 335.178,-1471.5"/>
</g>
<!-- Node15 -->
<g id="node10" class="node"><title>Node15</title>
<g id="a_node10"><a xlink:href="../../d0/de7/classAForge_1_1Imaging_1_1Filters_1_1GrayscaleToRGB.html" target="_top" xlink:title="Convert grayscale image to RGB.">
<polygon fill="white" stroke="black" points="373,-1416 373,-1446 535,-1446 535,-1416 373,-1416"/>
<text text-anchor="start" x="381" y="-1434" font-family="Helvetica,sans-Serif" font-size="10.00">AForge.Imaging.Filters.Grayscale</text>
<text text-anchor="middle" x="454" y="-1423" font-family="Helvetica,sans-Serif" font-size="10.00">ToRGB</text>
</a>
</g>
</g>
<!-- Node2&#45;&gt;Node15 -->
<g id="edge9" class="edge"><title>Node2&#45;&gt;Node15</title>
<path fill="none" stroke="midnightblue" d="M333.315,-1457.73C350.628,-1453.86 368.857,-1449.79 385.724,-1446.03"/>
<polygon fill="midnightblue" stroke="midnightblue" points="332.242,-1454.39 323.245,-1459.98 333.768,-1461.22 332.242,-1454.39"/>
</g>
<!-- Node16 -->
<g id="node11" class="node"><title>Node16</title>
<g id="a_node11"><a xlink:href="../../da/d24/classAForge_1_1Imaging_1_1Filters_1_1ImageWarp.html" target="_top" xlink:title="Image warp effect filter.">
<polygon fill="white" stroke="black" points="370.5,-1377.5 370.5,-1396.5 537.5,-1396.5 537.5,-1377.5 370.5,-1377.5"/>
<text text-anchor="middle" x="454" y="-1384.5" font-family="Helvetica,sans-Serif" font-size="10.00">AForge.Imaging.Filters.ImageWarp</text>
</a>
</g>
</g>
<!-- Node2&#45;&gt;Node16 -->
<g id="edge10" class="edge"><title>Node2&#45;&gt;Node16</title>
<path fill="none" stroke="midnightblue" d="M284.887,-1453.95C306.746,-1438.92 338.023,-1419.27 368,-1407 378.383,-1402.75 389.866,-1399.29 400.945,-1396.51"/>
<polygon fill="midnightblue" stroke="midnightblue" points="282.609,-1451.28 276.417,-1459.87 286.619,-1457.01 282.609,-1451.28"/>
</g>
<!-- Node17 -->
<g id="node12" class="node"><title>Node17</title>
<g id="a_node12"><a xlink:href="../../dc/dbd/classAForge_1_1Imaging_1_1Filters_1_1TexturedFilter.html" target="_top" xlink:title="Textured filter &#45; filter an image using texture.">
<polygon fill="white" stroke="black" points="376.5,-1328 376.5,-1358 531.5,-1358 531.5,-1328 376.5,-1328"/>
<text text-anchor="start" x="384.5" y="-1346" font-family="Helvetica,sans-Serif" font-size="10.00">AForge.Imaging.Filters.Textured</text>
<text text-anchor="middle" x="454" y="-1335" font-family="Helvetica,sans-Serif" font-size="10.00">Filter</text>
</a>
</g>
</g>
<!-- Node2&#45;&gt;Node17 -->
<g id="edge11" class="edge"><title>Node2&#45;&gt;Node17</title>
<path fill="none" stroke="midnightblue" d="M274.318,-1451.9C294.724,-1427.64 329.892,-1390.04 368,-1368 374.658,-1364.15 381.957,-1360.85 389.394,-1358.03"/>
<polygon fill="midnightblue" stroke="midnightblue" points="271.402,-1449.93 267.735,-1459.87 276.801,-1454.39 271.402,-1449.93"/>
</g>
<!-- Node18 -->
<g id="node13" class="node"><title>Node18</title>
<g id="a_node13"><a xlink:href="../../dc/d0e/classAForge_1_1Imaging_1_1Filters_1_1WaterWave.html" target="_top" xlink:title="Simple water wave effect filter.">
<polygon fill="white" stroke="black" points="370,-1289.5 370,-1308.5 538,-1308.5 538,-1289.5 370,-1289.5"/>
<text text-anchor="middle" x="454" y="-1296.5" font-family="Helvetica,sans-Serif" font-size="10.00">AForge.Imaging.Filters.WaterWave</text>
</a>
</g>
</g>
<!-- Node2&#45;&gt;Node18 -->
<g id="edge12" class="edge"><title>Node2&#45;&gt;Node18</title>
<path fill="none" stroke="midnightblue" d="M266.663,-1450.1C283.078,-1414.9 317.967,-1351.18 368,-1318 373.797,-1314.16 380.255,-1311.08 386.95,-1308.62"/>
<polygon fill="midnightblue" stroke="midnightblue" points="263.282,-1449.08 262.345,-1459.63 269.659,-1451.97 263.282,-1449.08"/>
</g>
<!-- Node19 -->
<g id="node14" class="node"><title>Node19</title>
<g id="a_node14"><a xlink:href="../../da/d42/classAForge_1_1Imaging_1_1Filters_1_1YCbCrExtractChannel.html" target="_top" xlink:title="Extract YCbCr channel from image.">
<polygon fill="white" stroke="black" points="385.5,-1240 385.5,-1270 522.5,-1270 522.5,-1240 385.5,-1240"/>
<text text-anchor="start" x="393.5" y="-1258" font-family="Helvetica,sans-Serif" font-size="10.00">AForge.Imaging.Filters.YCb</text>
<text text-anchor="middle" x="454" y="-1247" font-family="Helvetica,sans-Serif" font-size="10.00">CrExtractChannel</text>
</a>
</g>
</g>
<!-- Node2&#45;&gt;Node19 -->
<g id="edge13" class="edge"><title>Node2&#45;&gt;Node19</title>
<path fill="none" stroke="midnightblue" d="M263.397,-1450.39C277.122,-1408.95 310.49,-1325.35 368,-1280 373.194,-1275.9 379.041,-1272.48 385.175,-1269.61"/>
<polygon fill="midnightblue" stroke="midnightblue" points="260.047,-1449.38 260.328,-1459.97 266.713,-1451.51 260.047,-1449.38"/>
</g>
<!-- Node21 -->
<g id="node16" class="node"><title>Node21</title>
<g id="a_node16"><a xlink:href="../../dc/d44/classAForge_1_1Imaging_1_1Filters_1_1BackwardQuadrilateralTransformation.html" target="_top" xlink:title="Performs backward quadrilateral transformation into an area in destination image.">
<polygon fill="white" stroke="black" points="373.5,-1191 373.5,-1221 534.5,-1221 534.5,-1191 373.5,-1191"/>
<text text-anchor="start" x="381.5" y="-1209" font-family="Helvetica,sans-Serif" font-size="10.00">AForge.Imaging.Filters.Backward</text>
<text text-anchor="middle" x="454" y="-1198" font-family="Helvetica,sans-Serif" font-size="10.00">QuadrilateralTransformation</text>
</a>
</g>
</g>
<!-- Node20&#45;&gt;Node21 -->
<g id="edge15" class="edge"><title>Node20&#45;&gt;Node21</title>
<path fill="none" stroke="midnightblue" d="M260.478,-963.257C270.556,-1012.57 299.696,-1122 368,-1181 372.423,-1184.82 377.406,-1188.06 382.685,-1190.8"/>
<polygon fill="midnightblue" stroke="midnightblue" points="263.857,-962.294 258.51,-953.147 256.986,-963.631 263.857,-962.294"/>
</g>
<!-- Node22 -->
<g id="node17" class="node"><title>Node22</title>
<g id="a_node17"><a xlink:href="../../dc/df2/classAForge_1_1Imaging_1_1Filters_1_1BaseInPlaceFilter2.html" target="_top" xlink:title="Base class for filters, which operate with two images of the same size and format and may be applied ...">
<polygon fill="white" stroke="red" points="384,-1142 384,-1172 524,-1172 524,-1142 384,-1142"/>
<text text-anchor="start" x="392" y="-1160" font-family="Helvetica,sans-Serif" font-size="10.00">AForge.Imaging.Filters.Base</text>
<text text-anchor="middle" x="454" y="-1149" font-family="Helvetica,sans-Serif" font-size="10.00">InPlaceFilter2</text>
</a>
</g>
</g>
<!-- Node20&#45;&gt;Node22 -->
<g id="edge16" class="edge"><title>Node20&#45;&gt;Node22</title>
<path fill="none" stroke="midnightblue" d="M263.536,-962.789C277.378,-1004.12 310.802,-1087 368,-1132 372.956,-1135.9 378.505,-1139.19 384.33,-1141.97"/>
<polygon fill="midnightblue" stroke="midnightblue" points="266.849,-961.659 260.436,-953.225 260.19,-963.817 266.849,-961.659"/>
</g>
<!-- Node32 -->
<g id="node18" class="node"><title>Node32</title>
<g id="a_node18"><a xlink:href="../../d0/d8c/classAForge_1_1Imaging_1_1Filters_1_1BlobsFiltering.html" target="_top" xlink:title="Blobs filtering by size.">
<polygon fill="white" stroke="black" points="382.5,-1093 382.5,-1123 525.5,-1123 525.5,-1093 382.5,-1093"/>
<text text-anchor="start" x="390.5" y="-1111" font-family="Helvetica,sans-Serif" font-size="10.00">AForge.Imaging.Filters.Blobs</text>
<text text-anchor="middle" x="454" y="-1100" font-family="Helvetica,sans-Serif" font-size="10.00">Filtering</text>
</a>
</g>
</g>
<!-- Node20&#45;&gt;Node32 -->
<g id="edge17" class="edge"><title>Node20&#45;&gt;Node32</title>
<path fill="none" stroke="midnightblue" d="M268.493,-962.479C286.252,-994.841 321.831,-1051.44 368,-1083 373.588,-1086.82 379.765,-1090.06 386.165,-1092.82"/>
<polygon fill="midnightblue" stroke="midnightblue" points="271.367,-960.432 263.561,-953.268 265.196,-963.736 271.367,-960.432"/>
</g>
<!-- Node33 -->
<g id="node19" class="node"><title>Node33</title>
<g id="a_node19"><a xlink:href="../../da/dce/classAForge_1_1Imaging_1_1Filters_1_1BottomHat.html" target="_top" xlink:title="Bottop&#45;hat operator from Mathematical Morphology.">
<polygon fill="white" stroke="black" points="372,-1054.5 372,-1073.5 536,-1073.5 536,-1054.5 372,-1054.5"/>
<text text-anchor="middle" x="454" y="-1061.5" font-family="Helvetica,sans-Serif" font-size="10.00">AForge.Imaging.Filters.BottomHat</text>
</a>
</g>
</g>
<!-- Node20&#45;&gt;Node33 -->
<g id="edge18" class="edge"><title>Node20&#45;&gt;Node33</title>
<path fill="none" stroke="midnightblue" d="M274.136,-961.291C294.386,-985.659 329.424,-1023.2 368,-1044 376.006,-1048.32 384.929,-1051.71 393.898,-1054.37"/>
<polygon fill="midnightblue" stroke="midnightblue" points="276.635,-958.817 267.608,-953.27 271.206,-963.236 276.635,-958.817"/>
</g>
<!-- Node34 -->
<g id="node20" class="node"><title>Node34</title>
<g id="a_node20"><a xlink:href="../../d2/d7b/classAForge_1_1Imaging_1_1Filters_1_1BradleyLocalThresholding.html" target="_top" xlink:title="Adaptive thresholding using the internal image.">
<polygon fill="white" stroke="black" points="378.5,-1005 378.5,-1035 529.5,-1035 529.5,-1005 378.5,-1005"/>
<text text-anchor="start" x="386.5" y="-1023" font-family="Helvetica,sans-Serif" font-size="10.00">AForge.Imaging.Filters.Bradley</text>
<text text-anchor="middle" x="454" y="-1012" font-family="Helvetica,sans-Serif" font-size="10.00">LocalThresholding</text>
</a>
</g>
</g>
<!-- Node20&#45;&gt;Node34 -->
<g id="edge19" class="edge"><title>Node20&#45;&gt;Node34</title>
<path fill="none" stroke="midnightblue" d="M290.911,-957.878C312.626,-969.707 341.39,-984.421 368,-995 377.005,-998.58 386.726,-1001.91 396.264,-1004.9"/>
<polygon fill="midnightblue" stroke="midnightblue" points="292.511,-954.764 282.063,-953.006 289.134,-960.896 292.511,-954.764"/>
</g>
<!-- Node35 -->
<g id="node21" class="node"><title>Node35</title>
<g id="a_node21"><a xlink:href="../../d0/d9b/classAForge_1_1Imaging_1_1Filters_1_1CanvasCrop.html" target="_top" xlink:title="Fill areas outiside of specified region.">
<polygon fill="white" stroke="black" points="369,-966.5 369,-985.5 539,-985.5 539,-966.5 369,-966.5"/>
<text text-anchor="middle" x="454" y="-973.5" font-family="Helvetica,sans-Serif" font-size="10.00">AForge.Imaging.Filters.CanvasCrop</text>
</a>
</g>
</g>
<!-- Node20&#45;&gt;Node35 -->
<g id="edge20" class="edge"><title>Node20&#45;&gt;Node35</title>
<path fill="none" stroke="midnightblue" d="M335.298,-953.296C358.348,-957.742 382.858,-962.47 403.511,-966.454"/>
<polygon fill="midnightblue" stroke="midnightblue" points="335.66,-949.801 325.178,-951.344 334.334,-956.675 335.66,-949.801"/>
</g>
<!-- Node36 -->
<g id="node22" class="node"><title>Node36</title>
<g id="a_node22"><a xlink:href="../../d2/d4f/classAForge_1_1Imaging_1_1Filters_1_1CanvasFill.html" target="_top" xlink:title="Fill areas iniside of the specified region.">
<polygon fill="white" stroke="black" points="373,-928.5 373,-947.5 535,-947.5 535,-928.5 373,-928.5"/>
<text text-anchor="middle" x="454" y="-935.5" font-family="Helvetica,sans-Serif" font-size="10.00">AForge.Imaging.Filters.CanvasFill</text>
</a>
</g>
</g>
<!-- Node20&#45;&gt;Node36 -->
<g id="edge21" class="edge"><title>Node20&#45;&gt;Node36</title>
<path fill="none" stroke="midnightblue" d="M335.424,-938C347.76,-938 360.511,-938 372.862,-938"/>
<polygon fill="midnightblue" stroke="midnightblue" points="335.178,-934.5 325.178,-938 335.178,-941.5 335.178,-934.5"/>
</g>
<!-- Node37 -->
<g id="node23" class="node"><title>Node37</title>
<g id="a_node23"><a xlink:href="../../d8/d11/classAForge_1_1Imaging_1_1Filters_1_1CanvasMove.html" target="_top" xlink:title="Move canvas to the specified point.">
<polygon fill="white" stroke="black" points="368,-890.5 368,-909.5 540,-909.5 540,-890.5 368,-890.5"/>
<text text-anchor="middle" x="454" y="-897.5" font-family="Helvetica,sans-Serif" font-size="10.00">AForge.Imaging.Filters.CanvasMove</text>
</a>
</g>
</g>
<!-- Node20&#45;&gt;Node37 -->
<g id="edge22" class="edge"><title>Node20&#45;&gt;Node37</title>
<path fill="none" stroke="midnightblue" d="M335.298,-922.704C358.348,-918.258 382.858,-913.53 403.511,-909.546"/>
<polygon fill="midnightblue" stroke="midnightblue" points="334.334,-919.325 325.178,-924.656 335.66,-926.199 334.334,-919.325"/>
</g>
<!-- Node38 -->
<g id="node24" class="node"><title>Node38</title>
<g id="a_node24"><a xlink:href="../../dc/dce/classAForge_1_1Imaging_1_1Filters_1_1CornersMarker.html" target="_top" xlink:title="Filter to mark (highlight) corners of objects.">
<polygon fill="white" stroke="black" points="378,-841 378,-871 530,-871 530,-841 378,-841"/>
<text text-anchor="start" x="386" y="-859" font-family="Helvetica,sans-Serif" font-size="10.00">AForge.Imaging.Filters.Corners</text>
<text text-anchor="middle" x="454" y="-848" font-family="Helvetica,sans-Serif" font-size="10.00">Marker</text>
</a>
</g>
</g>
<!-- Node20&#45;&gt;Node38 -->
<g id="edge23" class="edge"><title>Node20&#45;&gt;Node38</title>
<path fill="none" stroke="midnightblue" d="M290.911,-918.122C312.626,-906.293 341.39,-891.579 368,-881 377.005,-877.42 386.726,-874.088 396.264,-871.098"/>
<polygon fill="midnightblue" stroke="midnightblue" points="289.134,-915.104 282.063,-922.994 292.511,-921.236 289.134,-915.104"/>
</g>
<!-- Node39 -->
<g id="node25" class="node"><title>Node39</title>
<g id="a_node25"><a xlink:href="../../d5/d05/classAForge_1_1Imaging_1_1Filters_1_1FillHoles.html" target="_top" xlink:title="Fill holes in objects in binary image.">
<polygon fill="white" stroke="black" points="388.5,-792 388.5,-822 519.5,-822 519.5,-792 388.5,-792"/>
<text text-anchor="start" x="396.5" y="-810" font-family="Helvetica,sans-Serif" font-size="10.00">AForge.Imaging.Filters.Fill</text>
<text text-anchor="middle" x="454" y="-799" font-family="Helvetica,sans-Serif" font-size="10.00">Holes</text>
</a>
</g>
</g>
<!-- Node20&#45;&gt;Node39 -->
<g id="edge24" class="edge"><title>Node20&#45;&gt;Node39</title>
<path fill="none" stroke="midnightblue" d="M274.272,-914.815C294.638,-890.494 329.773,-852.831 368,-831 374.258,-827.426 381.084,-824.355 388.057,-821.724"/>
<polygon fill="midnightblue" stroke="midnightblue" points="271.345,-912.864 267.703,-922.814 276.754,-917.307 271.345,-912.864"/>
</g>
<!-- Node40 -->
<g id="node26" class="node"><title>Node40</title>
<g id="a_node26"><a xlink:href="../../de/db9/classAForge_1_1Imaging_1_1Filters_1_1FlatFieldCorrection.html" target="_top" xlink:title="Flat field correction filter.">
<polygon fill="white" stroke="black" points="387,-743 387,-773 521,-773 521,-743 387,-743"/>
<text text-anchor="start" x="395" y="-761" font-family="Helvetica,sans-Serif" font-size="10.00">AForge.Imaging.Filters.Flat</text>
<text text-anchor="middle" x="454" y="-750" font-family="Helvetica,sans-Serif" font-size="10.00">FieldCorrection</text>
</a>
</g>
</g>
<!-- Node20&#45;&gt;Node40 -->
<g id="edge25" class="edge"><title>Node20&#45;&gt;Node40</title>
<path fill="none" stroke="midnightblue" d="M266.957,-913.625C283.732,-879.095 319.058,-816.327 368,-782 373.775,-777.95 380.219,-774.58 386.905,-771.777"/>
<polygon fill="midnightblue" stroke="midnightblue" points="263.648,-912.435 262.536,-922.971 269.976,-915.428 263.648,-912.435"/>
</g>
<!-- Node41 -->
<g id="node27" class="node"><title>Node41</title>
<g id="a_node27"><a xlink:href="../../dc/d0f/classAForge_1_1Imaging_1_1Filters_1_1TopHat.html" target="_top" xlink:title="Top&#45;hat operator from Mathematical Morphology.">
<polygon fill="white" stroke="black" points="379.5,-704.5 379.5,-723.5 528.5,-723.5 528.5,-704.5 379.5,-704.5"/>
<text text-anchor="middle" x="454" y="-711.5" font-family="Helvetica,sans-Serif" font-size="10.00">AForge.Imaging.Filters.TopHat</text>
</a>
</g>
</g>
<!-- Node20&#45;&gt;Node41 -->
<g id="edge26" class="edge"><title>Node20&#45;&gt;Node41</title>
<path fill="none" stroke="midnightblue" d="M262.34,-912.965C274.771,-869.235 306.64,-779.197 368,-733 373.074,-729.18 378.77,-726.102 384.749,-723.626"/>
<polygon fill="midnightblue" stroke="midnightblue" points="258.916,-912.218 259.656,-922.787 265.668,-914.064 258.916,-912.218"/>
</g>
<!-- Node43 -->
<g id="node29" class="node"><title>Node43</title>
<g id="a_node29"><a xlink:href="../../d0/dd7/classAForge_1_1Imaging_1_1Filters_1_1AdditiveNoise.html" target="_top" xlink:title="Additive noise filter.">
<polygon fill="white" stroke="black" points="378,-655 378,-685 530,-685 530,-655 378,-655"/>
<text text-anchor="start" x="386" y="-673" font-family="Helvetica,sans-Serif" font-size="10.00">AForge.Imaging.Filters.Additive</text>
<text text-anchor="middle" x="454" y="-662" font-family="Helvetica,sans-Serif" font-size="10.00">Noise</text>
</a>
</g>
</g>
<!-- Node42&#45;&gt;Node43 -->
<g id="edge28" class="edge"><title>Node42&#45;&gt;Node43</title>
<path fill="none" stroke="midnightblue" d="M259.652,-411.115C268.493,-462.725 295.897,-581.204 368,-645 372.378,-648.873 377.328,-652.148 382.586,-654.915"/>
<polygon fill="midnightblue" stroke="midnightblue" points="263.093,-410.471 258.037,-401.161 256.183,-411.592 263.093,-410.471"/>
</g>
<!-- Node44 -->
<g id="node30" class="node"><title>Node44</title>
<g id="a_node30"><a xlink:href="../../dd/d82/classAForge_1_1Imaging_1_1Filters_1_1ApplyMask.html" target="_top" xlink:title="Apply mask to the specified image.">
<polygon fill="white" stroke="black" points="370.5,-616.5 370.5,-635.5 537.5,-635.5 537.5,-616.5 370.5,-616.5"/>
<text text-anchor="middle" x="454" y="-623.5" font-family="Helvetica,sans-Serif" font-size="10.00">AForge.Imaging.Filters.ApplyMask</text>
</a>
</g>
</g>
<!-- Node42&#45;&gt;Node44 -->
<g id="edge29" class="edge"><title>Node42&#45;&gt;Node44</title>
<path fill="none" stroke="midnightblue" d="M261.356,-410.819C272.622,-456.803 303.256,-555.18 368,-606 373.485,-610.306 379.744,-613.71 386.321,-616.398"/>
<polygon fill="midnightblue" stroke="midnightblue" points="264.761,-410.01 259.069,-401.074 257.946,-411.609 264.761,-410.01"/>
</g>
<!-- Node45 -->
<g id="node31" class="node"><title>Node45</title>
<g id="a_node31"><a xlink:href="../../de/de3/classAForge_1_1Imaging_1_1Filters_1_1BrightnessCorrection.html" target="_top" xlink:title="Brightness adjusting in RGB color space.">
<polygon fill="white" stroke="black" points="372,-567 372,-597 536,-597 536,-567 372,-567"/>
<text text-anchor="start" x="380" y="-585" font-family="Helvetica,sans-Serif" font-size="10.00">AForge.Imaging.Filters.Brightness</text>
<text text-anchor="middle" x="454" y="-574" font-family="Helvetica,sans-Serif" font-size="10.00">Correction</text>
</a>
</g>
</g>
<!-- Node42&#45;&gt;Node45 -->
<g id="edge30" class="edge"><title>Node42&#45;&gt;Node45</title>
<path fill="none" stroke="midnightblue" d="M265.572,-410.736C281.272,-448.042 316.034,-518.431 368,-557 373.188,-560.85 378.961,-564.11 384.988,-566.87"/>
<polygon fill="midnightblue" stroke="midnightblue" points="268.675,-409.077 261.651,-401.145 262.195,-411.726 268.675,-409.077"/>
</g>
<!-- Node46 -->
<g id="node32" class="node"><title>Node46</title>
<g id="a_node32"><a xlink:href="../../d2/d53/classAForge_1_1Imaging_1_1Filters_1_1ChannelFiltering.html" target="_top" xlink:title="Channels filters.">
<polygon fill="white" stroke="black" points="377.5,-518 377.5,-548 530.5,-548 530.5,-518 377.5,-518"/>
<text text-anchor="start" x="385.5" y="-536" font-family="Helvetica,sans-Serif" font-size="10.00">AForge.Imaging.Filters.Channel</text>
<text text-anchor="middle" x="454" y="-525" font-family="Helvetica,sans-Serif" font-size="10.00">Filtering</text>
</a>
</g>
</g>
<!-- Node42&#45;&gt;Node46 -->
<g id="edge31" class="edge"><title>Node42&#45;&gt;Node46</title>
<path fill="none" stroke="midnightblue" d="M271.503,-409.48C290.886,-437.029 326.599,-482.212 368,-508 374.136,-511.822 380.885,-515.084 387.813,-517.862"/>
<polygon fill="midnightblue" stroke="midnightblue" points="274.354,-407.449 265.797,-401.201 268.591,-411.421 274.354,-407.449"/>
</g>
<!-- Node47 -->
<g id="node33" class="node"><title>Node47</title>
<g id="a_node33"><a xlink:href="../../da/d2b/classAForge_1_1Imaging_1_1Filters_1_1ColorFiltering.html" target="_top" xlink:title="Color filtering.">
<polygon fill="white" stroke="black" points="384,-469 384,-499 524,-499 524,-469 384,-469"/>
<text text-anchor="start" x="392" y="-487" font-family="Helvetica,sans-Serif" font-size="10.00">AForge.Imaging.Filters.Color</text>
<text text-anchor="middle" x="454" y="-476" font-family="Helvetica,sans-Serif" font-size="10.00">Filtering</text>
</a>
</g>
</g>
<!-- Node42&#45;&gt;Node47 -->
<g id="edge32" class="edge"><title>Node42&#45;&gt;Node47</title>
<path fill="none" stroke="midnightblue" d="M283.37,-407.107C305.271,-423.168 337.295,-444.85 368,-459 376.103,-462.734 384.897,-466.059 393.653,-468.97"/>
<polygon fill="midnightblue" stroke="midnightblue" points="285.323,-404.198 275.211,-401.039 281.146,-409.815 285.323,-404.198"/>
</g>
<!-- Node48 -->
<g id="node34" class="node"><title>Node48</title>
<g id="a_node34"><a xlink:href="../../d9/d13/classAForge_1_1Imaging_1_1Filters_1_1ColorRemapping.html" target="_top" xlink:title="Color remapping.">
<polygon fill="white" stroke="black" points="384,-420 384,-450 524,-450 524,-420 384,-420"/>
<text text-anchor="start" x="392" y="-438" font-family="Helvetica,sans-Serif" font-size="10.00">AForge.Imaging.Filters.Color</text>
<text text-anchor="middle" x="454" y="-427" font-family="Helvetica,sans-Serif" font-size="10.00">Remapping</text>
</a>
</g>
</g>
<!-- Node42&#45;&gt;Node48 -->
<g id="edge33" class="edge"><title>Node42&#45;&gt;Node48</title>
<path fill="none" stroke="midnightblue" d="M326.264,-403.477C347.977,-408.877 371.689,-414.776 392.669,-419.994"/>
<polygon fill="midnightblue" stroke="midnightblue" points="326.994,-400.052 316.445,-401.035 325.305,-406.845 326.994,-400.052"/>
</g>
<!-- Node49 -->
<g id="node35" class="node"><title>Node49</title>
<g id="a_node35"><a xlink:href="../../de/db8/classAForge_1_1Imaging_1_1Filters_1_1ContrastCorrection.html" target="_top" xlink:title="Contrast adjusting in RGB color space.">
<polygon fill="white" stroke="black" points="376.5,-371 376.5,-401 531.5,-401 531.5,-371 376.5,-371"/>
<text text-anchor="start" x="384.5" y="-389" font-family="Helvetica,sans-Serif" font-size="10.00">AForge.Imaging.Filters.Contrast</text>
<text text-anchor="middle" x="454" y="-378" font-family="Helvetica,sans-Serif" font-size="10.00">Correction</text>
</a>
</g>
</g>
<!-- Node42&#45;&gt;Node49 -->
<g id="edge34" class="edge"><title>Node42&#45;&gt;Node49</title>
<path fill="none" stroke="midnightblue" d="M335.376,-386C348.863,-386 362.847,-386 376.263,-386"/>
<polygon fill="midnightblue" stroke="midnightblue" points="335.178,-382.5 325.178,-386 335.178,-389.5 335.178,-382.5"/>
</g>
<!-- Node50 -->
<g id="node36" class="node"><title>Node50</title>
<g id="a_node36"><a xlink:href="../../d9/def/classAForge_1_1Imaging_1_1Filters_1_1ContrastStretch.html" target="_top" xlink:title="Contrast stretching filter.">
<polygon fill="white" stroke="black" points="376.5,-322 376.5,-352 531.5,-352 531.5,-322 376.5,-322"/>
<text text-anchor="start" x="384.5" y="-340" font-family="Helvetica,sans-Serif" font-size="10.00">AForge.Imaging.Filters.Contrast</text>
<text text-anchor="middle" x="454" y="-329" font-family="Helvetica,sans-Serif" font-size="10.00">Stretch</text>
</a>
</g>
</g>
<!-- Node42&#45;&gt;Node50 -->
<g id="edge35" class="edge"><title>Node42&#45;&gt;Node50</title>
<path fill="none" stroke="midnightblue" d="M326.264,-368.523C347.977,-363.123 371.689,-357.224 392.669,-352.006"/>
<polygon fill="midnightblue" stroke="midnightblue" points="325.305,-365.155 316.445,-370.965 326.994,-371.948 325.305,-365.155"/>
</g>
<!-- Node51 -->
<g id="node37" class="node"><title>Node51</title>
<g id="a_node37"><a xlink:href="../../d2/db9/classAForge_1_1Imaging_1_1Filters_1_1ErrorDiffusionDithering.html" target="_top" xlink:title="Base class for error diffusion dithering.">
<polygon fill="white" stroke="red" points="384.5,-273 384.5,-303 523.5,-303 523.5,-273 384.5,-273"/>
<text text-anchor="start" x="392.5" y="-291" font-family="Helvetica,sans-Serif" font-size="10.00">AForge.Imaging.Filters.Error</text>
<text text-anchor="middle" x="454" y="-280" font-family="Helvetica,sans-Serif" font-size="10.00">DiffusionDithering</text>
</a>
</g>
</g>
<!-- Node42&#45;&gt;Node51 -->
<g id="edge36" class="edge"><title>Node42&#45;&gt;Node51</title>
<path fill="none" stroke="midnightblue" d="M323.658,-366.335C326.56,-364.692 329.358,-362.916 332,-361 353.876,-345.134 345.791,-327.396 368,-312 373.041,-308.506 378.581,-305.517 384.343,-302.962"/>
<polygon fill="midnightblue" stroke="midnightblue" points="322.025,-363.239 314.688,-370.882 325.19,-369.483 322.025,-363.239"/>
</g>
<!-- Node58 -->
<g id="node38" class="node"><title>Node58</title>
<g id="a_node38"><a xlink:href="../../d0/de5/classAForge_1_1Imaging_1_1Filters_1_1EuclideanColorFiltering.html" target="_top" xlink:title="Euclidean color filtering.">
<polygon fill="white" stroke="black" points="373.5,-224 373.5,-254 534.5,-254 534.5,-224 373.5,-224"/>
<text text-anchor="start" x="381.5" y="-242" font-family="Helvetica,sans-Serif" font-size="10.00">AForge.Imaging.Filters.Euclidean</text>
<text text-anchor="middle" x="454" y="-231" font-family="Helvetica,sans-Serif" font-size="10.00">ColorFiltering</text>
</a>
</g>
</g>
<!-- Node42&#45;&gt;Node58 -->
<g id="edge37" class="edge"><title>Node42&#45;&gt;Node58</title>
<path fill="none" stroke="midnightblue" d="M327.264,-365.097C328.918,-363.812 330.502,-362.448 332,-361 365.368,-328.756 333.953,-294.526 368,-263 371.713,-259.562 375.881,-256.612 380.325,-254.08"/>
<polygon fill="midnightblue" stroke="midnightblue" points="324.904,-362.461 318.48,-370.886 328.756,-368.305 324.904,-362.461"/>
</g>
<!-- Node59 -->
<g id="node39" class="node"><title>Node59</title>
<g id="a_node39"><a xlink:href="../../df/d34/classAForge_1_1Imaging_1_1Filters_1_1GammaCorrection.html" target="_top" xlink:title="Gamma correction filter.">
<polygon fill="white" stroke="black" points="378,-175 378,-205 530,-205 530,-175 378,-175"/>
<text text-anchor="start" x="386" y="-193" font-family="Helvetica,sans-Serif" font-size="10.00">AForge.Imaging.Filters.Gamma</text>
<text text-anchor="middle" x="454" y="-182" font-family="Helvetica,sans-Serif" font-size="10.00">Correction</text>
</a>
</g>
</g>
<!-- Node42&#45;&gt;Node59 -->
<g id="edge38" class="edge"><title>Node42&#45;&gt;Node59</title>
<path fill="none" stroke="midnightblue" d="M328.098,-364.787C329.463,-363.593 330.768,-362.332 332,-361 377.681,-311.627 321.277,-262.388 368,-214 371.302,-210.58 375.05,-207.637 379.089,-205.105"/>
<polygon fill="midnightblue" stroke="midnightblue" points="325.7,-362.202 319.675,-370.917 329.82,-367.862 325.7,-362.202"/>
</g>
<!-- Node60 -->
<g id="node40" class="node"><title>Node60</title>
<g id="a_node40"><a xlink:href="../../df/ded/classAForge_1_1Imaging_1_1Filters_1_1HistogramEqualization.html" target="_top" xlink:title="Histogram equalization filter.">
<polygon fill="white" stroke="black" points="373,-126 373,-156 535,-156 535,-126 373,-126"/>
<text text-anchor="start" x="381" y="-144" font-family="Helvetica,sans-Serif" font-size="10.00">AForge.Imaging.Filters.Histogram</text>
<text text-anchor="middle" x="454" y="-133" font-family="Helvetica,sans-Serif" font-size="10.00">Equalization</text>
</a>
</g>
</g>
<!-- Node42&#45;&gt;Node60 -->
<g id="edge39" class="edge"><title>Node42&#45;&gt;Node60</title>
<path fill="none" stroke="midnightblue" d="M328.309,-364.786C329.605,-363.592 330.839,-362.331 332,-361 390.222,-294.258 308.369,-230.487 368,-165 371.097,-161.599 374.636,-158.665 378.47,-156.136"/>
<polygon fill="midnightblue" stroke="midnightblue" points="326.102,-362.067 320.279,-370.918 330.351,-367.631 326.102,-362.067"/>
</g>
<!-- Node61 -->
<g id="node41" class="node"><title>Node61</title>
<g id="a_node41"><a xlink:href="../../d5/d0c/classAForge_1_1Imaging_1_1Filters_1_1HorizontalRunLengthSmoothing.html" target="_top" xlink:title="Horizontal run length smoothing algorithm.">
<polygon fill="white" stroke="black" points="373.5,-77 373.5,-107 534.5,-107 534.5,-77 373.5,-77"/>
<text text-anchor="start" x="381.5" y="-95" font-family="Helvetica,sans-Serif" font-size="10.00">AForge.Imaging.Filters.Horizontal</text>
<text text-anchor="middle" x="454" y="-84" font-family="Helvetica,sans-Serif" font-size="10.00">RunLengthSmoothing</text>
</a>
</g>
</g>
<!-- Node42&#45;&gt;Node61 -->
<g id="edge40" class="edge"><title>Node42&#45;&gt;Node61</title>
<path fill="none" stroke="midnightblue" d="M328.814,-364.419C329.93,-363.335 330.994,-362.196 332,-361 402.855,-276.784 295.367,-198.688 368,-116 371.036,-112.544 374.528,-109.568 378.326,-107.008"/>
<polygon fill="midnightblue" stroke="midnightblue" points="326.42,-361.852 320.781,-370.822 330.783,-367.326 326.42,-361.852"/>
</g>
<!-- Node62 -->
<g id="node42" class="node"><title>Node62</title>
<g id="a_node42"><a xlink:href="../../d6/d57/classAForge_1_1Imaging_1_1Filters_1_1HSLFiltering.html" target="_top" xlink:title="Color filtering in HSL color space.">
<polygon fill="white" stroke="black" points="368.5,-38.5 368.5,-57.5 539.5,-57.5 539.5,-38.5 368.5,-38.5"/>
<text text-anchor="middle" x="454" y="-45.5" font-family="Helvetica,sans-Serif" font-size="10.00">AForge.Imaging.Filters.HSLFiltering</text>
</a>
</g>
</g>
<!-- Node42&#45;&gt;Node62 -->
<g id="edge41" class="edge"><title>Node42&#45;&gt;Node62</title>
<path fill="none" stroke="midnightblue" d="M328.854,-364.452C329.957,-363.358 331.008,-362.208 332,-361 415.533,-259.255 279.589,-164.536 368,-67 371.351,-63.3028 375.251,-60.2432 379.502,-57.718"/>
<polygon fill="midnightblue" stroke="midnightblue" points="326.452,-361.893 320.884,-370.907 330.858,-367.333 326.452,-361.893"/>
</g>
<!-- Node63 -->
<g id="node43" class="node"><title>Node63</title>
<g id="a_node43"><a xlink:href="../../de/d0e/classAForge_1_1Imaging_1_1Filters_1_1HSLLinear.html" target="_top" xlink:title="Luminance and saturation linear correction.">
<polygon fill="white" stroke="black" points="372.5,-0.5 372.5,-19.5 535.5,-19.5 535.5,-0.5 372.5,-0.5"/>
<text text-anchor="middle" x="454" y="-7.5" font-family="Helvetica,sans-Serif" font-size="10.00">AForge.Imaging.Filters.HSLLinear</text>
</a>
</g>
</g>
<!-- Node42&#45;&gt;Node63 -->
<g id="edge42" class="edge"><title>Node42&#45;&gt;Node63</title>
<path fill="none" stroke="midnightblue" d="M328.877,-364.471C329.973,-363.371 331.017,-362.215 332,-361 425.384,-245.639 269.084,-139.654 368,-29 371.326,-25.2798 375.206,-22.2029 379.444,-19.6654"/>
<polygon fill="midnightblue" stroke="midnightblue" points="326.471,-361.917 320.943,-370.955 330.901,-367.337 326.471,-361.917"/>
</g>
</g>
</svg>
