<?xml version="1.0" encoding="UTF-8" standalone="no"?>
<!DOCTYPE svg PUBLIC "-//W3C//DTD SVG 1.1//EN"
 "http://www.w3.org/Graphics/SVG/1.1/DTD/svg11.dtd">
<!-- Generated by graphviz version 2.38.0 (20140413.2041)
 -->
<!-- Title: NUnit.Framework.TestContext.TestAdapter Pages: 1 -->
<svg width="219pt" height="230pt"
 viewBox="0.00 0.00 219.00 230.00" xmlns="http://www.w3.org/2000/svg" xmlns:xlink="http://www.w3.org/1999/xlink">
<g id="graph0" class="graph" transform="scale(1 1) rotate(0) translate(4 226)">
<title>NUnit.Framework.TestContext.TestAdapter</title>
<polygon fill="white" stroke="none" points="-4,4 -4,-226 215,-226 215,4 -4,4"/>
<!-- Node1 -->
<g id="node1" class="node"><title>Node1</title>
<g id="a_node1"><a xlink:title="TestAdapter adapts a Test for consumption by the user test code.">
<polygon fill="#bfbfbf" stroke="black" points="41.5,-0.5 41.5,-30.5 191.5,-30.5 191.5,-0.5 41.5,-0.5"/>
<text text-anchor="start" x="49.5" y="-18.5" font-family="Helvetica,sans-Serif" font-size="10.00">NUnit.Framework.TestContext.</text>
<text text-anchor="middle" x="116.5" y="-7.5" font-family="Helvetica,sans-Serif" font-size="10.00">TestAdapter</text>
</a>
</g>
</g>
<!-- Node2 -->
<g id="node2" class="node"><title>Node2</title>
<g id="a_node2"><a xlink:href="../../d6/d59/classNUnit_1_1Framework_1_1Internal_1_1Test.html" target="_top" xlink:title="The Test abstract class represents a test within the framework.">
<polygon fill="white" stroke="black" points="42.5,-78.5 42.5,-97.5 190.5,-97.5 190.5,-78.5 42.5,-78.5"/>
<text text-anchor="middle" x="116.5" y="-85.5" font-family="Helvetica,sans-Serif" font-size="10.00">NUnit.Framework.Internal.Test</text>
</a>
</g>
</g>
<!-- Node2&#45;&gt;Node1 -->
<g id="edge1" class="edge"><title>Node2&#45;&gt;Node1</title>
<path fill="none" stroke="#9a32cd" stroke-dasharray="5,2" d="M116.5,-68.2362C116.5,-56.4079 116.5,-41.3829 116.5,-30.5762"/>
<polygon fill="#9a32cd" stroke="#9a32cd" points="113,-68.3553 116.5,-78.3553 120,-68.3554 113,-68.3553"/>
<text text-anchor="middle" x="129" y="-52" font-family="Helvetica,sans-Serif" font-size="10.00"> _test</text>
</g>
<!-- Node3 -->
<g id="node3" class="node"><title>Node3</title>
<g id="a_node3"><a xlink:href="../../d6/dd5/interfaceNUnit_1_1Framework_1_1Interfaces_1_1ITest.html" target="_top" xlink:title="Common interface supported by all representations of a test. Only includes informational fields....">
<polygon fill="white" stroke="black" points="24.5,-145.5 24.5,-164.5 62.5,-164.5 62.5,-145.5 24.5,-145.5"/>
<text text-anchor="middle" x="43.5" y="-152.5" font-family="Helvetica,sans-Serif" font-size="10.00">ITest</text>
</a>
</g>
</g>
<!-- Node3&#45;&gt;Node2 -->
<g id="edge2" class="edge"><title>Node3&#45;&gt;Node2</title>
<path fill="none" stroke="midnightblue" d="M61.069,-138.356C75.4205,-125.578 95.171,-107.992 106.811,-97.6273"/>
<polygon fill="midnightblue" stroke="midnightblue" points="58.4861,-135.97 53.3451,-145.234 63.1411,-141.198 58.4861,-135.97"/>
</g>
<!-- Node4 -->
<g id="node4" class="node"><title>Node4</title>
<g id="a_node4"><a xlink:href="../../d9/dc0/interfaceNUnit_1_1Framework_1_1Interfaces_1_1IXmlNodeBuilder.html" target="_top" xlink:title="An object implementing IXmlNodeBuilder is able to build an XML representation of itself and any child...">
<polygon fill="white" stroke="black" points="0,-202.5 0,-221.5 87,-221.5 87,-202.5 0,-202.5"/>
<text text-anchor="middle" x="43.5" y="-209.5" font-family="Helvetica,sans-Serif" font-size="10.00">IXmlNodeBuilder</text>
</a>
</g>
</g>
<!-- Node4&#45;&gt;Node3 -->
<g id="edge3" class="edge"><title>Node4&#45;&gt;Node3</title>
<path fill="none" stroke="midnightblue" d="M43.5,-192.117C43.5,-182.817 43.5,-172.056 43.5,-164.715"/>
<polygon fill="midnightblue" stroke="midnightblue" points="40.0001,-192.406 43.5,-202.406 47.0001,-192.406 40.0001,-192.406"/>
</g>
<!-- Node5 -->
<g id="node5" class="node"><title>Node5</title>
<g id="a_node5"><a xlink:title=" ">
<polygon fill="white" stroke="#bfbfbf" points="81,-145.5 81,-164.5 152,-164.5 152,-145.5 81,-145.5"/>
<text text-anchor="middle" x="116.5" y="-152.5" font-family="Helvetica,sans-Serif" font-size="10.00">IComparable</text>
</a>
</g>
</g>
<!-- Node5&#45;&gt;Node2 -->
<g id="edge4" class="edge"><title>Node5&#45;&gt;Node2</title>
<path fill="none" stroke="midnightblue" d="M116.5,-135.037C116.5,-122.67 116.5,-107.12 116.5,-97.6273"/>
<polygon fill="midnightblue" stroke="midnightblue" points="113,-135.234 116.5,-145.234 120,-135.234 113,-135.234"/>
</g>
<!-- Node6 -->
<g id="node6" class="node"><title>Node6</title>
<g id="a_node6"><a xlink:title=" ">
<polygon fill="white" stroke="#bfbfbf" points="170,-145.5 170,-164.5 211,-164.5 211,-145.5 170,-145.5"/>
<text text-anchor="middle" x="190.5" y="-152.5" font-family="Helvetica,sans-Serif" font-size="10.00">static</text>
</a>
</g>
</g>
<!-- Node6&#45;&gt;Node2 -->
<g id="edge5" class="edge"><title>Node6&#45;&gt;Node2</title>
<path fill="none" stroke="#9a32cd" stroke-dasharray="5,2" d="M172.69,-138.356C158.142,-125.578 138.121,-107.992 126.322,-97.6273"/>
<polygon fill="#9a32cd" stroke="#9a32cd" points="170.697,-141.264 180.52,-145.234 175.317,-136.005 170.697,-141.264"/>
<text text-anchor="middle" x="177" y="-119" font-family="Helvetica,sans-Serif" font-size="10.00"> _nextID</text>
</g>
</g>
</svg>
