<?xml version="1.0" encoding="UTF-8" standalone="no"?>
<!DOCTYPE svg PUBLIC "-//W3C//DTD SVG 1.1//EN"
 "http://www.w3.org/Graphics/SVG/1.1/DTD/svg11.dtd">
<!-- Generated by graphviz version 2.38.0 (20140413.2041)
 -->
<!-- Title: TestOpt.IGLibShellExtMainProgram.IGLibShellExtApp Pages: 1 -->
<svg width="142pt" height="207pt"
 viewBox="0.00 0.00 142.00 207.00" xmlns="http://www.w3.org/2000/svg" xmlns:xlink="http://www.w3.org/1999/xlink">
<g id="graph0" class="graph" transform="scale(1 1) rotate(0) translate(4 203)">
<title>TestOpt.IGLibShellExtMainProgram.IGLibShellExtApp</title>
<polygon fill="white" stroke="none" points="-4,4 -4,-203 138,-203 138,4 -4,4"/>
<!-- Node1 -->
<g id="node1" class="node"><title>Node1</title>
<g id="a_node1"><a xlink:title="Application class for the current application (IGLib Extended Shell Application, igsx).">
<polygon fill="#bfbfbf" stroke="black" points="0,-0.5 0,-30.5 134,-30.5 134,-0.5 0,-0.5"/>
<text text-anchor="start" x="8" y="-18.5" font-family="Helvetica,sans-Serif" font-size="10.00">TestOpt.IGLibShellExtMain</text>
<text text-anchor="middle" x="67" y="-7.5" font-family="Helvetica,sans-Serif" font-size="10.00">Program.IGLibShellExtApp</text>
</a>
</g>
</g>
<!-- Node2 -->
<g id="node2" class="node"><title>Node2</title>
<g id="a_node2"><a xlink:href="../../d1/d77/classIG_1_1Lib_1_1ApplicationBase.html" target="_top" xlink:title="Base class for all application classes. Provides some basic functionality such as keeping information...">
<polygon fill="white" stroke="black" points="23.5,-67.5 23.5,-86.5 110.5,-86.5 110.5,-67.5 23.5,-67.5"/>
<text text-anchor="middle" x="67" y="-74.5" font-family="Helvetica,sans-Serif" font-size="10.00">ApplicationBase</text>
</a>
</g>
</g>
<!-- Node2&#45;&gt;Node1 -->
<g id="edge1" class="edge"><title>Node2&#45;&gt;Node1</title>
<path fill="none" stroke="midnightblue" d="M67,-57.2349C67,-48.5864 67,-38.4969 67,-30.523"/>
<polygon fill="midnightblue" stroke="midnightblue" points="63.5001,-57.4751 67,-67.4751 70.5001,-57.4751 63.5001,-57.4751"/>
</g>
<!-- Node3 -->
<g id="node3" class="node"><title>Node3</title>
<g id="a_node3"><a xlink:href="../../db/dc7/classIG_1_1Lib_1_1Module.html" target="_top" xlink:title="General module (or library) management class, a base class for specific module classes....">
<polygon fill="white" stroke="black" points="69,-123.5 69,-142.5 117,-142.5 117,-123.5 69,-123.5"/>
<text text-anchor="middle" x="93" y="-130.5" font-family="Helvetica,sans-Serif" font-size="10.00">Module</text>
</a>
</g>
</g>
<!-- Node3&#45;&gt;Node2 -->
<g id="edge2" class="edge"><title>Node3&#45;&gt;Node2</title>
<path fill="none" stroke="midnightblue" d="M84.325,-113.983C79.9118,-104.817 74.7481,-94.0922 71.2135,-86.7511"/>
<polygon fill="midnightblue" stroke="midnightblue" points="81.2149,-115.591 88.7066,-123.083 87.5219,-112.555 81.2149,-115.591"/>
</g>
<!-- Node4 -->
<g id="node4" class="node"><title>Node4</title>
<g id="a_node4"><a xlink:href="../../d3/db6/interfaceIG_1_1Lib_1_1ILockable.html" target="_top" xlink:title="Lockable object, has a Lock property that returns object on which lock must be performed in order to ...">
<polygon fill="white" stroke="black" points="38,-179.5 38,-198.5 96,-198.5 96,-179.5 38,-179.5"/>
<text text-anchor="middle" x="67" y="-186.5" font-family="Helvetica,sans-Serif" font-size="10.00">ILockable</text>
</a>
</g>
</g>
<!-- Node4&#45;&gt;Node2 -->
<g id="edge4" class="edge"><title>Node4&#45;&gt;Node2</title>
<path fill="none" stroke="midnightblue" d="M63.4719,-169.547C62.0919,-161.437 60.6788,-151.78 60,-143 58.4427,-122.857 62.4352,-99.3006 65.0128,-86.8158"/>
<polygon fill="midnightblue" stroke="midnightblue" points="60.0337,-170.204 65.2611,-179.419 66.9215,-168.955 60.0337,-170.204"/>
</g>
<!-- Node4&#45;&gt;Node3 -->
<g id="edge3" class="edge"><title>Node4&#45;&gt;Node3</title>
<path fill="none" stroke="midnightblue" d="M75.675,-169.983C80.0882,-160.817 85.2519,-150.092 88.7865,-142.751"/>
<polygon fill="midnightblue" stroke="midnightblue" points="72.4781,-168.555 71.2934,-179.083 78.7851,-171.591 72.4781,-168.555"/>
</g>
</g>
</svg>
