<?xml version="1.0" encoding="UTF-8" standalone="no"?>
<!DOCTYPE svg PUBLIC "-//W3C//DTD SVG 1.1//EN"
 "http://www.w3.org/Graphics/SVG/1.1/DTD/svg11.dtd">
<!-- Generated by graphviz version 2.38.0 (20140413.2041)
 -->
<!-- Title: AForge.Math.Metrics.IDistance Pages: 1 -->
<svg width="353pt" height="235pt"
 viewBox="0.00 0.00 353.00 235.00" xmlns="http://www.w3.org/2000/svg" xmlns:xlink="http://www.w3.org/1999/xlink">
<g id="graph0" class="graph" transform="scale(1 1) rotate(0) translate(4 231)">
<title>AForge.Math.Metrics.IDistance</title>
<polygon fill="white" stroke="none" points="-4,4 -4,-231 349,-231 349,4 -4,4"/>
<!-- Node1 -->
<g id="node1" class="node"><title>Node1</title>
<g id="a_node1"><a xlink:title="Interface for distance metric algorithms.">
<polygon fill="#bfbfbf" stroke="black" points="0,-104 0,-123 152,-123 152,-104 0,-104"/>
<text text-anchor="middle" x="76" y="-111" font-family="Helvetica,sans-Serif" font-size="10.00">AForge.Math.Metrics.IDistance</text>
</a>
</g>
</g>
<!-- Node2 -->
<g id="node2" class="node"><title>Node2</title>
<g id="a_node2"><a xlink:href="../../db/dd4/classAForge_1_1Math_1_1Metrics_1_1CosineDistance.html" target="_top" xlink:title="Cosine distance metric.">
<polygon fill="white" stroke="black" points="196,-196.5 196,-226.5 337,-226.5 337,-196.5 196,-196.5"/>
<text text-anchor="start" x="204" y="-214.5" font-family="Helvetica,sans-Serif" font-size="10.00">AForge.Math.Metrics.Cosine</text>
<text text-anchor="middle" x="266.5" y="-203.5" font-family="Helvetica,sans-Serif" font-size="10.00">Distance</text>
</a>
</g>
</g>
<!-- Node1&#45;&gt;Node2 -->
<g id="edge1" class="edge"><title>Node1&#45;&gt;Node2</title>
<path fill="none" stroke="midnightblue" d="M96.9661,-129.402C118.408,-145.84 153.995,-171.318 188,-187.5 194.868,-190.768 202.287,-193.726 209.719,-196.358"/>
<polygon fill="midnightblue" stroke="midnightblue" points="98.9934,-126.545 88.9502,-123.17 94.6971,-132.071 98.9934,-126.545"/>
</g>
<!-- Node3 -->
<g id="node3" class="node"><title>Node3</title>
<g id="a_node3"><a xlink:href="../../d0/dfd/classAForge_1_1Math_1_1Metrics_1_1EuclideanDistance.html" target="_top" xlink:title="Euclidean distance metric.">
<polygon fill="white" stroke="black" points="189.5,-147.5 189.5,-177.5 343.5,-177.5 343.5,-147.5 189.5,-147.5"/>
<text text-anchor="start" x="197.5" y="-165.5" font-family="Helvetica,sans-Serif" font-size="10.00">AForge.Math.Metrics.Euclidean</text>
<text text-anchor="middle" x="266.5" y="-154.5" font-family="Helvetica,sans-Serif" font-size="10.00">Distance</text>
</a>
</g>
</g>
<!-- Node1&#45;&gt;Node3 -->
<g id="edge2" class="edge"><title>Node1&#45;&gt;Node3</title>
<path fill="none" stroke="midnightblue" d="M123.555,-125.602C148.968,-132.208 180.664,-140.447 207.654,-147.463"/>
<polygon fill="midnightblue" stroke="midnightblue" points="124.351,-122.193 113.792,-123.064 122.59,-128.967 124.351,-122.193"/>
</g>
<!-- Node4 -->
<g id="node4" class="node"><title>Node4</title>
<g id="a_node4"><a xlink:href="../../d1/d9e/classAForge_1_1Math_1_1Metrics_1_1HammingDistance.html" target="_top" xlink:title="Hamming distance metric.">
<polygon fill="white" stroke="black" points="190.5,-98.5 190.5,-128.5 342.5,-128.5 342.5,-98.5 190.5,-98.5"/>
<text text-anchor="start" x="198.5" y="-116.5" font-family="Helvetica,sans-Serif" font-size="10.00">AForge.Math.Metrics.Hamming</text>
<text text-anchor="middle" x="266.5" y="-105.5" font-family="Helvetica,sans-Serif" font-size="10.00">Distance</text>
</a>
</g>
</g>
<!-- Node1&#45;&gt;Node4 -->
<g id="edge3" class="edge"><title>Node1&#45;&gt;Node4</title>
<path fill="none" stroke="midnightblue" d="M162.189,-113.5C171.6,-113.5 181.134,-113.5 190.408,-113.5"/>
<polygon fill="midnightblue" stroke="midnightblue" points="162.042,-110 152.042,-113.5 162.042,-117 162.042,-110"/>
</g>
<!-- Node5 -->
<g id="node5" class="node"><title>Node5</title>
<g id="a_node5"><a xlink:href="../../d8/d6d/classAForge_1_1Math_1_1Metrics_1_1JaccardDistance.html" target="_top" xlink:title="Jaccard distance metric.">
<polygon fill="white" stroke="black" points="194,-49.5 194,-79.5 339,-79.5 339,-49.5 194,-49.5"/>
<text text-anchor="start" x="202" y="-67.5" font-family="Helvetica,sans-Serif" font-size="10.00">AForge.Math.Metrics.Jaccard</text>
<text text-anchor="middle" x="266.5" y="-56.5" font-family="Helvetica,sans-Serif" font-size="10.00">Distance</text>
</a>
</g>
</g>
<!-- Node1&#45;&gt;Node5 -->
<g id="edge4" class="edge"><title>Node1&#45;&gt;Node5</title>
<path fill="none" stroke="midnightblue" d="M123.555,-101.398C148.968,-94.792 180.664,-86.5529 207.654,-79.537"/>
<polygon fill="midnightblue" stroke="midnightblue" points="122.59,-98.0326 113.792,-103.936 124.351,-104.807 122.59,-98.0326"/>
</g>
<!-- Node6 -->
<g id="node6" class="node"><title>Node6</title>
<g id="a_node6"><a xlink:href="../../d7/dcd/classAForge_1_1Math_1_1Metrics_1_1ManhattanDistance.html" target="_top" xlink:title="Manhattan distance metric.">
<polygon fill="white" stroke="black" points="188,-0.5 188,-30.5 345,-30.5 345,-0.5 188,-0.5"/>
<text text-anchor="start" x="196" y="-18.5" font-family="Helvetica,sans-Serif" font-size="10.00">AForge.Math.Metrics.Manhattan</text>
<text text-anchor="middle" x="266.5" y="-7.5" font-family="Helvetica,sans-Serif" font-size="10.00">Distance</text>
</a>
</g>
</g>
<!-- Node1&#45;&gt;Node6 -->
<g id="edge5" class="edge"><title>Node1&#45;&gt;Node6</title>
<path fill="none" stroke="midnightblue" d="M97.3899,-97.6482C118.928,-81.5049 154.363,-56.6198 188,-40.5 195.65,-36.8341 203.971,-33.5134 212.228,-30.5773"/>
<polygon fill="midnightblue" stroke="midnightblue" points="95.1667,-94.9417 89.3199,-103.777 99.4004,-100.516 95.1667,-94.9417"/>
</g>
</g>
</svg>
