<?xml version="1.0" encoding="UTF-8" standalone="no"?>
<!DOCTYPE svg PUBLIC "-//W3C//DTD SVG 1.1//EN"
 "http://www.w3.org/Graphics/SVG/1.1/DTD/svg11.dtd">
<!-- Generated by graphviz version 2.38.0 (20140413.2041)
 -->
<!-- Title: NUnit.Framework.Api.FrameworkController.FrameworkControllerAction Pages: 1 -->
<svg width="709pt" height="284pt"
 viewBox="0.00 0.00 709.00 284.00" xmlns="http://www.w3.org/2000/svg" xmlns:xlink="http://www.w3.org/1999/xlink">
<g id="graph0" class="graph" transform="scale(1 1) rotate(0) translate(4 280)">
<title>NUnit.Framework.Api.FrameworkController.FrameworkControllerAction</title>
<polygon fill="white" stroke="none" points="-4,4 -4,-280 705,-280 705,4 -4,4"/>
<!-- Node1 -->
<g id="node1" class="node"><title>Node1</title>
<g id="a_node1"><a xlink:title="FrameworkControllerAction is the base class for all actions performed against a FrameworkController.">
<polygon fill="#bfbfbf" stroke="black" points="327,-122.5 327,-152.5 505,-152.5 505,-122.5 327,-122.5"/>
<text text-anchor="start" x="335" y="-140.5" font-family="Helvetica,sans-Serif" font-size="10.00">NUnit.Framework.Api.Framework</text>
<text text-anchor="middle" x="416" y="-129.5" font-family="Helvetica,sans-Serif" font-size="10.00">Controller.FrameworkControllerAction</text>
</a>
</g>
</g>
<!-- Node4 -->
<g id="node4" class="node"><title>Node4</title>
<g id="a_node4"><a xlink:href="../../df/d69/classNUnit_1_1Framework_1_1Api_1_1FrameworkController_1_1CountTestsAction.html" target="_top" xlink:title="CountTestsAction counts the number of test cases in the loaded TestSuite held by the FrameworkControl...">
<polygon fill="white" stroke="black" points="541,-245.5 541,-275.5 701,-275.5 701,-245.5 541,-245.5"/>
<text text-anchor="start" x="549" y="-263.5" font-family="Helvetica,sans-Serif" font-size="10.00">NUnit.Framework.Api.Framework</text>
<text text-anchor="middle" x="621" y="-252.5" font-family="Helvetica,sans-Serif" font-size="10.00">Controller.CountTestsAction</text>
</a>
</g>
</g>
<!-- Node1&#45;&gt;Node4 -->
<g id="edge3" class="edge"><title>Node1&#45;&gt;Node4</title>
<path fill="none" stroke="midnightblue" d="M439.418,-159.824C462.911,-182.092 501.794,-215.872 541,-236.5 547.343,-239.837 554.221,-242.786 561.185,-245.372"/>
<polygon fill="midnightblue" stroke="midnightblue" points="441.696,-157.159 432.062,-152.75 436.844,-162.205 441.696,-157.159"/>
</g>
<!-- Node5 -->
<g id="node5" class="node"><title>Node5</title>
<g id="a_node5"><a xlink:href="../../d8/da1/classNUnit_1_1Framework_1_1Api_1_1FrameworkController_1_1ExploreTestsAction.html" target="_top" xlink:title="ExploreTestsAction returns info about the tests in an assembly">
<polygon fill="white" stroke="black" points="541,-196.5 541,-226.5 701,-226.5 701,-196.5 541,-196.5"/>
<text text-anchor="start" x="549" y="-214.5" font-family="Helvetica,sans-Serif" font-size="10.00">NUnit.Framework.Api.Framework</text>
<text text-anchor="middle" x="621" y="-203.5" font-family="Helvetica,sans-Serif" font-size="10.00">Controller.ExploreTestsAction</text>
</a>
</g>
</g>
<!-- Node1&#45;&gt;Node5 -->
<g id="edge4" class="edge"><title>Node1&#45;&gt;Node5</title>
<path fill="none" stroke="midnightblue" d="M461.308,-156.473C484.799,-166.25 514.257,-178.067 541,-187.5 549.651,-190.552 558.915,-193.578 567.943,-196.4"/>
<polygon fill="midnightblue" stroke="midnightblue" points="462.537,-153.193 451.961,-152.56 459.833,-159.65 462.537,-153.193"/>
</g>
<!-- Node6 -->
<g id="node6" class="node"><title>Node6</title>
<g id="a_node6"><a xlink:href="../../d3/d02/classNUnit_1_1Framework_1_1Api_1_1FrameworkController_1_1LoadTestsAction.html" target="_top" xlink:title="LoadTestsAction loads a test into the FrameworkController">
<polygon fill="white" stroke="black" points="541,-147.5 541,-177.5 701,-177.5 701,-147.5 541,-147.5"/>
<text text-anchor="start" x="549" y="-165.5" font-family="Helvetica,sans-Serif" font-size="10.00">NUnit.Framework.Api.Framework</text>
<text text-anchor="middle" x="621" y="-154.5" font-family="Helvetica,sans-Serif" font-size="10.00">Controller.LoadTestsAction</text>
</a>
</g>
</g>
<!-- Node1&#45;&gt;Node6 -->
<g id="edge5" class="edge"><title>Node1&#45;&gt;Node6</title>
<path fill="none" stroke="midnightblue" d="M515.218,-149.596C523.817,-150.655 532.448,-151.718 540.863,-152.754"/>
<polygon fill="midnightblue" stroke="midnightblue" points="515.506,-146.105 505.153,-148.356 514.65,-153.052 515.506,-146.105"/>
</g>
<!-- Node7 -->
<g id="node7" class="node"><title>Node7</title>
<g id="a_node7"><a xlink:href="../../d0/d0f/classNUnit_1_1Framework_1_1Api_1_1FrameworkController_1_1RunAsyncAction.html" target="_top" xlink:title="RunAsyncAction initiates an asynchronous test run, returning immediately">
<polygon fill="white" stroke="black" points="541,-98.5 541,-128.5 701,-128.5 701,-98.5 541,-98.5"/>
<text text-anchor="start" x="549" y="-116.5" font-family="Helvetica,sans-Serif" font-size="10.00">NUnit.Framework.Api.Framework</text>
<text text-anchor="middle" x="621" y="-105.5" font-family="Helvetica,sans-Serif" font-size="10.00">Controller.RunAsyncAction</text>
</a>
</g>
</g>
<!-- Node1&#45;&gt;Node7 -->
<g id="edge6" class="edge"><title>Node1&#45;&gt;Node7</title>
<path fill="none" stroke="midnightblue" d="M515.218,-125.888C523.817,-124.871 532.448,-123.851 540.863,-122.856"/>
<polygon fill="midnightblue" stroke="midnightblue" points="514.673,-122.428 505.153,-127.078 515.495,-129.38 514.673,-122.428"/>
</g>
<!-- Node8 -->
<g id="node8" class="node"><title>Node8</title>
<g id="a_node8"><a xlink:href="../../d0/dfd/classNUnit_1_1Framework_1_1Api_1_1FrameworkController_1_1RunTestsAction.html" target="_top" xlink:title="RunTestsAction runs the loaded TestSuite held by the FrameworkController.">
<polygon fill="white" stroke="black" points="541,-49.5 541,-79.5 701,-79.5 701,-49.5 541,-49.5"/>
<text text-anchor="start" x="549" y="-67.5" font-family="Helvetica,sans-Serif" font-size="10.00">NUnit.Framework.Api.Framework</text>
<text text-anchor="middle" x="621" y="-56.5" font-family="Helvetica,sans-Serif" font-size="10.00">Controller.RunTestsAction</text>
</a>
</g>
</g>
<!-- Node1&#45;&gt;Node8 -->
<g id="edge7" class="edge"><title>Node1&#45;&gt;Node8</title>
<path fill="none" stroke="midnightblue" d="M462.105,-118.653C485.478,-109.148 514.587,-97.7136 541,-88.5 549.797,-85.4312 559.22,-82.3736 568.384,-79.5192"/>
<polygon fill="midnightblue" stroke="midnightblue" points="460.724,-115.436 452.793,-122.461 463.374,-121.916 460.724,-115.436"/>
</g>
<!-- Node9 -->
<g id="node9" class="node"><title>Node9</title>
<g id="a_node9"><a xlink:href="../../d2/d73/classNUnit_1_1Framework_1_1Api_1_1FrameworkController_1_1StopRunAction.html" target="_top" xlink:title="StopRunAction stops an ongoing run.">
<polygon fill="white" stroke="black" points="541,-0.5 541,-30.5 701,-30.5 701,-0.5 541,-0.5"/>
<text text-anchor="start" x="549" y="-18.5" font-family="Helvetica,sans-Serif" font-size="10.00">NUnit.Framework.Api.Framework</text>
<text text-anchor="middle" x="621" y="-7.5" font-family="Helvetica,sans-Serif" font-size="10.00">Controller.StopRunAction</text>
</a>
</g>
</g>
<!-- Node1&#45;&gt;Node9 -->
<g id="edge8" class="edge"><title>Node1&#45;&gt;Node9</title>
<path fill="none" stroke="midnightblue" d="M439.461,-115.414C462.988,-93.3818 501.897,-59.9507 541,-39.5 547.478,-36.112 554.51,-33.1214 561.619,-30.5044"/>
<polygon fill="midnightblue" stroke="midnightblue" points="436.932,-112.988 432.094,-122.413 441.754,-118.063 436.932,-112.988"/>
</g>
<!-- Node2 -->
<g id="node2" class="node"><title>Node2</title>
<g id="a_node2"><a xlink:href="../../d8/d34/classNUnit_1_1Framework_1_1Compatibility_1_1LongLivedMarshalByRefObject.html" target="_top" xlink:title="A MarshalByRefObject that lives forever">
<polygon fill="white" stroke="black" points="142,-128 142,-147 291,-147 291,-128 142,-128"/>
<text text-anchor="middle" x="216.5" y="-135" font-family="Helvetica,sans-Serif" font-size="10.00">LongLivedMarshalByRefObject</text>
</a>
</g>
</g>
<!-- Node2&#45;&gt;Node1 -->
<g id="edge1" class="edge"><title>Node2&#45;&gt;Node1</title>
<path fill="none" stroke="midnightblue" d="M301.231,-137.5C309.659,-137.5 318.237,-137.5 326.711,-137.5"/>
<polygon fill="midnightblue" stroke="midnightblue" points="301.042,-134 291.042,-137.5 301.042,-141 301.042,-134"/>
</g>
<!-- Node3 -->
<g id="node3" class="node"><title>Node3</title>
<g id="a_node3"><a xlink:title=" ">
<polygon fill="white" stroke="#bfbfbf" points="0,-128 0,-147 106,-147 106,-128 0,-128"/>
<text text-anchor="middle" x="53" y="-135" font-family="Helvetica,sans-Serif" font-size="10.00">MarshalByRefObject</text>
</a>
</g>
</g>
<!-- Node3&#45;&gt;Node2 -->
<g id="edge2" class="edge"><title>Node3&#45;&gt;Node2</title>
<path fill="none" stroke="midnightblue" d="M116.446,-137.5C124.787,-137.5 133.403,-137.5 141.912,-137.5"/>
<polygon fill="midnightblue" stroke="midnightblue" points="116.434,-134 106.434,-137.5 116.434,-141 116.434,-134"/>
</g>
</g>
</svg>
