<?xml version="1.0" encoding="UTF-8" standalone="no"?>
<!DOCTYPE svg PUBLIC "-//W3C//DTD SVG 1.1//EN"
 "http://www.w3.org/Graphics/SVG/1.1/DTD/svg11.dtd">
<!-- Generated by graphviz version 2.38.0 (20140413.2041)
 -->
<!-- Title: NUnit.ConsoleRunner.ConsoleRunner Pages: 1 -->
<svg width="699pt" height="269pt"
 viewBox="0.00 0.00 699.00 268.50" xmlns="http://www.w3.org/2000/svg" xmlns:xlink="http://www.w3.org/1999/xlink">
<g id="graph0" class="graph" transform="scale(1 1) rotate(0) translate(4 264.5)">
<title>NUnit.ConsoleRunner.ConsoleRunner</title>
<polygon fill="white" stroke="none" points="-4,4 -4,-264.5 695,-264.5 695,4 -4,4"/>
<!-- Node1 -->
<g id="node1" class="node"><title>Node1</title>
<g id="a_node1"><a xlink:title="ConsoleRunner provides the nunit3&#45;console text&#45;based user interface, running the tests and reporting ...">
<polygon fill="#bfbfbf" stroke="black" points="543,-125 543,-155 691,-155 691,-125 543,-125"/>
<text text-anchor="start" x="551" y="-143" font-family="Helvetica,sans-Serif" font-size="10.00">NUnit.ConsoleRunner.Console</text>
<text text-anchor="middle" x="617" y="-132" font-family="Helvetica,sans-Serif" font-size="10.00">Runner</text>
</a>
</g>
</g>
<!-- Node2 -->
<g id="node2" class="node"><title>Node2</title>
<g id="a_node2"><a xlink:href="../../d0/d56/classNUnit_1_1Common_1_1ExtendedTextWriter.html" target="_top" xlink:title="ExtendedTextWriter extends the TextWriter abstract class to support displaying text in color....">
<polygon fill="white" stroke="black" points="251.5,-230 251.5,-260 397.5,-260 397.5,-230 251.5,-230"/>
<text text-anchor="start" x="259.5" y="-248" font-family="Helvetica,sans-Serif" font-size="10.00">NUnit.Common.ExtendedText</text>
<text text-anchor="middle" x="324.5" y="-237" font-family="Helvetica,sans-Serif" font-size="10.00">Writer</text>
</a>
</g>
</g>
<!-- Node2&#45;&gt;Node1 -->
<g id="edge1" class="edge"><title>Node2&#45;&gt;Node1</title>
<path fill="none" stroke="#9a32cd" stroke-dasharray="5,2" d="M408.086,-236.416C444.951,-230.59 488.265,-220.925 525,-205 553.679,-192.567 582.278,-170.063 599.554,-155.074"/>
<polygon fill="#9a32cd" stroke="#9a32cd" points="407.234,-233.005 397.869,-237.959 408.28,-239.926 407.234,-233.005"/>
<text text-anchor="middle" x="472.5" y="-236" font-family="Helvetica,sans-Serif" font-size="10.00"> _outWriter</text>
</g>
<!-- Node3 -->
<g id="node3" class="node"><title>Node3</title>
<g id="a_node3"><a xlink:title=" ">
<polygon fill="white" stroke="#bfbfbf" points="122.5,-235.5 122.5,-254.5 184.5,-254.5 184.5,-235.5 122.5,-235.5"/>
<text text-anchor="middle" x="153.5" y="-242.5" font-family="Helvetica,sans-Serif" font-size="10.00">TextWriter</text>
</a>
</g>
</g>
<!-- Node3&#45;&gt;Node2 -->
<g id="edge2" class="edge"><title>Node3&#45;&gt;Node2</title>
<path fill="none" stroke="midnightblue" d="M194.811,-245C211.775,-245 232.044,-245 251.423,-245"/>
<polygon fill="midnightblue" stroke="midnightblue" points="194.714,-241.5 184.714,-245 194.714,-248.5 194.714,-241.5"/>
</g>
<!-- Node4 -->
<g id="node4" class="node"><title>Node4</title>
<g id="a_node4"><a xlink:href="../../d3/d87/interfaceNUnit_1_1Engine_1_1IResultService.html" target="_top" xlink:title="IResultWriterService provides result writers for a specified well&#45;known format.">
<polygon fill="white" stroke="black" points="255.5,-191.5 255.5,-210.5 393.5,-210.5 393.5,-191.5 255.5,-191.5"/>
<text text-anchor="middle" x="324.5" y="-198.5" font-family="Helvetica,sans-Serif" font-size="10.00">NUnit.Engine.IResultService</text>
</a>
</g>
</g>
<!-- Node4&#45;&gt;Node1 -->
<g id="edge3" class="edge"><title>Node4&#45;&gt;Node1</title>
<path fill="none" stroke="#9a32cd" stroke-dasharray="5,2" d="M404.126,-191.818C441.089,-186.73 485.597,-179.488 525,-170 541.658,-165.989 559.643,-160.349 575.19,-155.04"/>
<polygon fill="#9a32cd" stroke="#9a32cd" points="403.353,-188.391 393.911,-193.196 404.289,-195.328 403.353,-188.391"/>
<text text-anchor="middle" x="472.5" y="-193" font-family="Helvetica,sans-Serif" font-size="10.00"> _resultService</text>
</g>
<!-- Node5 -->
<g id="node5" class="node"><title>Node5</title>
<g id="a_node5"><a xlink:href="../../d4/d86/classNUnit_1_1Common_1_1ConsoleOptions.html" target="_top" xlink:title="ConsoleOptions encapsulates the option settings for the nunit3&#45;console program.">
<polygon fill="white" stroke="black" points="247,-153.5 247,-172.5 402,-172.5 402,-153.5 247,-153.5"/>
<text text-anchor="middle" x="324.5" y="-160.5" font-family="Helvetica,sans-Serif" font-size="10.00">NUnit.Common.ConsoleOptions</text>
</a>
</g>
</g>
<!-- Node5&#45;&gt;Node1 -->
<g id="edge4" class="edge"><title>Node5&#45;&gt;Node1</title>
<path fill="none" stroke="#9a32cd" stroke-dasharray="5,2" d="M412.33,-156.125C453.935,-152.831 503.212,-148.93 542.874,-145.79"/>
<polygon fill="#9a32cd" stroke="#9a32cd" points="411.898,-152.648 402.205,-156.927 412.451,-159.627 411.898,-152.648"/>
<text text-anchor="middle" x="472.5" y="-158" font-family="Helvetica,sans-Serif" font-size="10.00"> _options</text>
</g>
<!-- Node6 -->
<g id="node6" class="node"><title>Node6</title>
<g id="a_node6"><a xlink:href="../../da/d32/classNUnit_1_1Common_1_1CommandLineOptions.html" target="_top" xlink:title="CommandLineOptions is the base class the specific option classes used for nunit3&#45;console and nunitlit...">
<polygon fill="white" stroke="black" points="97,-153.5 97,-172.5 210,-172.5 210,-153.5 97,-153.5"/>
<text text-anchor="middle" x="153.5" y="-160.5" font-family="Helvetica,sans-Serif" font-size="10.00">CommandLineOptions</text>
</a>
</g>
</g>
<!-- Node6&#45;&gt;Node5 -->
<g id="edge5" class="edge"><title>Node6&#45;&gt;Node5</title>
<path fill="none" stroke="midnightblue" d="M220.377,-163C229.086,-163 238.072,-163 246.94,-163"/>
<polygon fill="midnightblue" stroke="midnightblue" points="220.305,-159.5 210.305,-163 220.305,-166.5 220.305,-159.5"/>
</g>
<!-- Node7 -->
<g id="node7" class="node"><title>Node7</title>
<g id="a_node7"><a xlink:title=" ">
<polygon fill="white" stroke="#bfbfbf" points="0,-153.5 0,-172.5 60,-172.5 60,-153.5 0,-153.5"/>
<text text-anchor="middle" x="30" y="-160.5" font-family="Helvetica,sans-Serif" font-size="10.00">OptionSet</text>
</a>
</g>
</g>
<!-- Node7&#45;&gt;Node6 -->
<g id="edge6" class="edge"><title>Node7&#45;&gt;Node6</title>
<path fill="none" stroke="midnightblue" d="M70.1563,-163C78.7106,-163 87.9216,-163 96.9765,-163"/>
<polygon fill="midnightblue" stroke="midnightblue" points="70.1023,-159.5 60.1023,-163 70.1022,-166.5 70.1023,-159.5"/>
</g>
<!-- Node8 -->
<g id="node8" class="node"><title>Node8</title>
<g id="a_node8"><a xlink:href="../../d1/d5d/interfaceNUnit_1_1Engine_1_1ITestFilterService.html" target="_top" xlink:title="The TestFilterService provides builders that can create TestFilters">
<polygon fill="white" stroke="black" points="265,-104 265,-134 384,-134 384,-104 265,-104"/>
<text text-anchor="start" x="273" y="-122" font-family="Helvetica,sans-Serif" font-size="10.00">NUnit.Engine.ITestFilter</text>
<text text-anchor="middle" x="324.5" y="-111" font-family="Helvetica,sans-Serif" font-size="10.00">Service</text>
</a>
</g>
</g>
<!-- Node8&#45;&gt;Node1 -->
<g id="edge7" class="edge"><title>Node8&#45;&gt;Node1</title>
<path fill="none" stroke="#9a32cd" stroke-dasharray="5,2" d="M394.188,-118.811C432.721,-119.27 481.626,-120.792 525,-125 530.737,-125.557 536.661,-126.253 542.604,-127.04"/>
<polygon fill="#9a32cd" stroke="#9a32cd" points="394.151,-115.311 384.117,-118.712 394.083,-122.31 394.151,-115.311"/>
<text text-anchor="middle" x="472.5" y="-128" font-family="Helvetica,sans-Serif" font-size="10.00"> _filterService</text>
</g>
<!-- Node9 -->
<g id="node9" class="node"><title>Node9</title>
<g id="a_node9"><a xlink:href="../../d7/dfc/interfaceNUnit_1_1Engine_1_1ITestEngine.html" target="_top" xlink:title="ITestEngine represents an instance of the test engine. Clients wanting to discover,...">
<polygon fill="white" stroke="black" points="260.5,-65.5 260.5,-84.5 388.5,-84.5 388.5,-65.5 260.5,-65.5"/>
<text text-anchor="middle" x="324.5" y="-72.5" font-family="Helvetica,sans-Serif" font-size="10.00">NUnit.Engine.ITestEngine</text>
</a>
</g>
</g>
<!-- Node9&#45;&gt;Node1 -->
<g id="edge8" class="edge"><title>Node9&#45;&gt;Node1</title>
<path fill="none" stroke="#9a32cd" stroke-dasharray="5,2" d="M398.647,-82.1277C436.727,-86.8081 483.811,-94.1216 525,-105 544.312,-110.1 565.154,-117.935 582.014,-124.9"/>
<polygon fill="#9a32cd" stroke="#9a32cd" points="399.009,-78.6462 388.664,-80.9354 398.179,-85.5968 399.009,-78.6462"/>
<text text-anchor="middle" x="472.5" y="-108" font-family="Helvetica,sans-Serif" font-size="10.00"> _engine</text>
</g>
<!-- Node10 -->
<g id="node10" class="node"><title>Node10</title>
<g id="a_node10"><a xlink:title=" ">
<polygon fill="white" stroke="#bfbfbf" points="120,-65.5 120,-84.5 187,-84.5 187,-65.5 120,-65.5"/>
<text text-anchor="middle" x="153.5" y="-72.5" font-family="Helvetica,sans-Serif" font-size="10.00">IDisposable</text>
</a>
</g>
</g>
<!-- Node10&#45;&gt;Node9 -->
<g id="edge9" class="edge"><title>Node10&#45;&gt;Node9</title>
<path fill="none" stroke="midnightblue" d="M197.258,-75C216.338,-75 239.208,-75 260.21,-75"/>
<polygon fill="midnightblue" stroke="midnightblue" points="197.085,-71.5001 187.085,-75 197.085,-78.5001 197.085,-71.5001"/>
</g>
<!-- Node11 -->
<g id="node11" class="node"><title>Node11</title>
<g id="a_node11"><a xlink:title=" ">
<polygon fill="white" stroke="#bfbfbf" points="304,-0.5 304,-19.5 345,-19.5 345,-0.5 304,-0.5"/>
<text text-anchor="middle" x="324.5" y="-7.5" font-family="Helvetica,sans-Serif" font-size="10.00">static</text>
</a>
</g>
</g>
<!-- Node11&#45;&gt;Node1 -->
<g id="edge10" class="edge"><title>Node11&#45;&gt;Node1</title>
<path fill="none" stroke="#9a32cd" stroke-dasharray="5,2" d="M355.135,-5.61488C395.964,-1.04381 470.63,1.92474 525,-27 566.584,-49.1227 595.973,-99.2206 608.794,-124.619"/>
<polygon fill="#9a32cd" stroke="#9a32cd" points="354.536,-2.16206 345.039,-6.85709 355.391,-9.10967 354.536,-2.16206"/>
<text text-anchor="middle" x="472.5" y="-74" font-family="Helvetica,sans-Serif" font-size="10.00"> INVALID_ARG</text>
<text text-anchor="middle" x="472.5" y="-63" font-family="Helvetica,sans-Serif" font-size="10.00">INVALID_ASSEMBLY</text>
<text text-anchor="middle" x="472.5" y="-52" font-family="Helvetica,sans-Serif" font-size="10.00">FIXTURE_NOT_FOUND</text>
<text text-anchor="middle" x="472.5" y="-41" font-family="Helvetica,sans-Serif" font-size="10.00">UNEXPECTED_ERROR</text>
<text text-anchor="middle" x="472.5" y="-30" font-family="Helvetica,sans-Serif" font-size="10.00">OK</text>
</g>
</g>
</svg>
