<?xml version="1.0" encoding="UTF-8" standalone="no"?>
<!DOCTYPE svg PUBLIC "-//W3C//DTD SVG 1.1//EN"
 "http://www.w3.org/Graphics/SVG/1.1/DTD/svg11.dtd">
<!-- Generated by graphviz version 2.38.0 (20140413.2041)
 -->
<!-- Title: XMLEncryption.Form1 Pages: 1 -->
<svg width="188pt" height="227pt"
 viewBox="0.00 0.00 187.50 227.00" xmlns="http://www.w3.org/2000/svg" xmlns:xlink="http://www.w3.org/1999/xlink">
<g id="graph0" class="graph" transform="scale(1 1) rotate(0) translate(4 223)">
<title>XMLEncryption.Form1</title>
<polygon fill="white" stroke="none" points="-4,4 -4,-223 183.5,-223 183.5,4 -4,4"/>
<!-- Node1 -->
<g id="node1" class="node"><title>Node1</title>
<g id="a_node1"><a xlink:title=" ">
<polygon fill="#bfbfbf" stroke="black" points="0,-0.5 0,-19.5 113,-19.5 113,-0.5 0,-0.5"/>
<text text-anchor="middle" x="56.5" y="-7.5" font-family="Helvetica,sans-Serif" font-size="10.00">XMLEncryption.Form1</text>
</a>
</g>
</g>
<!-- Node2 -->
<g id="node2" class="node"><title>Node2</title>
<g id="a_node2"><a xlink:title=" ">
<polygon fill="white" stroke="#bfbfbf" points="6,-199.5 6,-218.5 45,-218.5 45,-199.5 6,-199.5"/>
<text text-anchor="middle" x="25.5" y="-206.5" font-family="Helvetica,sans-Serif" font-size="10.00">Form</text>
</a>
</g>
</g>
<!-- Node2&#45;&gt;Node1 -->
<g id="edge1" class="edge"><title>Node2&#45;&gt;Node1</title>
<path fill="none" stroke="midnightblue" d="M28.4647,-189.16C35.0084,-147.575 50.4769,-49.2758 55.1438,-19.6183"/>
<polygon fill="midnightblue" stroke="midnightblue" points="24.9691,-188.858 26.872,-199.281 31.884,-189.947 24.9691,-188.858"/>
</g>
<!-- Node3 -->
<g id="node3" class="node"><title>Node3</title>
<g id="a_node3"><a xlink:title=" ">
<polygon fill="white" stroke="#bfbfbf" points="63.5,-199.5 63.5,-218.5 113.5,-218.5 113.5,-199.5 63.5,-199.5"/>
<text text-anchor="middle" x="88.5" y="-206.5" font-family="Helvetica,sans-Serif" font-size="10.00">System</text>
</a>
</g>
</g>
<!-- Node3&#45;&gt;Node1 -->
<g id="edge2" class="edge"><title>Node3&#45;&gt;Node1</title>
<path fill="none" stroke="#9a32cd" stroke-dasharray="5,2" d="M85.4397,-189.16C78.6848,-147.575 62.7174,-49.2758 57.8999,-19.6183"/>
<polygon fill="#9a32cd" stroke="#9a32cd" points="82.0256,-189.972 87.0837,-199.281 88.935,-188.849 82.0256,-189.972"/>
<text text-anchor="middle" x="132" y="-173" font-family="Helvetica,sans-Serif" font-size="10.00"> txtEncryptedXml</text>
<text text-anchor="middle" x="132" y="-162" font-family="Helvetica,sans-Serif" font-size="10.00">fileToolStripMenuItem</text>
<text text-anchor="middle" x="132" y="-151" font-family="Helvetica,sans-Serif" font-size="10.00">warningLbl</text>
<text text-anchor="middle" x="132" y="-140" font-family="Helvetica,sans-Serif" font-size="10.00">menuStrip1</text>
<text text-anchor="middle" x="132" y="-129" font-family="Helvetica,sans-Serif" font-size="10.00">txtXml</text>
<text text-anchor="middle" x="132" y="-118" font-family="Helvetica,sans-Serif" font-size="10.00">components</text>
<text text-anchor="middle" x="132" y="-107" font-family="Helvetica,sans-Serif" font-size="10.00">splitContainer1</text>
<text text-anchor="start" x="84.5" y="-96" font-family="Helvetica,sans-Serif" font-size="10.00">decryptToolStripMenu</text>
<text text-anchor="middle" x="132" y="-85" font-family="Helvetica,sans-Serif" font-size="10.00">Item</text>
<text text-anchor="start" x="84.5" y="-74" font-family="Helvetica,sans-Serif" font-size="10.00">encryptToolStripMenu</text>
<text text-anchor="middle" x="132" y="-63" font-family="Helvetica,sans-Serif" font-size="10.00">Item</text>
<text text-anchor="middle" x="132" y="-52" font-family="Helvetica,sans-Serif" font-size="10.00">statusStrip1</text>
<text text-anchor="middle" x="132" y="-41" font-family="Helvetica,sans-Serif" font-size="10.00">...</text>
</g>
</g>
</svg>
