<?xml version="1.0" encoding="UTF-8" standalone="no"?>
<!DOCTYPE svg PUBLIC "-//W3C//DTD SVG 1.1//EN"
 "http://www.w3.org/Graphics/SVG/1.1/DTD/svg11.dtd">
<!-- Generated by graphviz version 2.38.0 (20140413.2041)
 -->
<!-- Title: IG.Forms.TestForm Pages: 1 -->
<svg width="489pt" height="184pt"
 viewBox="0.00 0.00 488.50 184.00" xmlns="http://www.w3.org/2000/svg" xmlns:xlink="http://www.w3.org/1999/xlink">
<g id="graph0" class="graph" transform="scale(1 1) rotate(0) translate(4 180)">
<title>IG.Forms.TestForm</title>
<polygon fill="white" stroke="none" points="-4,4 -4,-180 484.5,-180 484.5,4 -4,4"/>
<!-- Node1 -->
<g id="node1" class="node"><title>Node1</title>
<g id="a_node1"><a xlink:title="Test form.">
<polygon fill="#bfbfbf" stroke="black" points="112,-0.5 112,-19.5 213,-19.5 213,-0.5 112,-0.5"/>
<text text-anchor="middle" x="162.5" y="-7.5" font-family="Helvetica,sans-Serif" font-size="10.00">IG.Forms.TestForm</text>
</a>
</g>
</g>
<!-- Node2 -->
<g id="node2" class="node"><title>Node2</title>
<g id="a_node2"><a xlink:title=" ">
<polygon fill="white" stroke="#bfbfbf" points="0,-73 0,-92 39,-92 39,-73 0,-73"/>
<text text-anchor="middle" x="19.5" y="-80" font-family="Helvetica,sans-Serif" font-size="10.00">Form</text>
</a>
</g>
</g>
<!-- Node2&#45;&gt;Node1 -->
<g id="edge1" class="edge"><title>Node2&#45;&gt;Node1</title>
<path fill="none" stroke="midnightblue" d="M29.2436,-64.037C35.1456,-54.9883 43.4709,-44.5006 53.5,-38 70.8411,-26.7599 92.5094,-20.1989 111.948,-16.3692"/>
<polygon fill="midnightblue" stroke="midnightblue" points="26.1743,-62.3489 24.0004,-72.7183 32.1663,-65.9678 26.1743,-62.3489"/>
</g>
<!-- Node3 -->
<g id="node3" class="node"><title>Node3</title>
<g id="a_node3"><a xlink:title=" ">
<polygon fill="white" stroke="#bfbfbf" points="22,-156.5 22,-175.5 87,-175.5 87,-156.5 22,-156.5"/>
<text text-anchor="middle" x="54.5" y="-163.5" font-family="Helvetica,sans-Serif" font-size="10.00">IIdentifiable</text>
</a>
</g>
</g>
<!-- Node3&#45;&gt;Node1 -->
<g id="edge2" class="edge"><title>Node3&#45;&gt;Node1</title>
<path fill="none" stroke="midnightblue" d="M60.041,-146.776C66.8971,-126.108 79.9767,-92.036 98.5,-67 113.077,-47.2979 135.66,-29.6006 149.736,-19.5922"/>
<polygon fill="midnightblue" stroke="midnightblue" points="56.647,-145.899 56.9519,-156.49 63.3179,-148.021 56.647,-145.899"/>
</g>
<!-- Node5 -->
<g id="node5" class="node"><title>Node5</title>
<g id="a_node5"><a xlink:href="../../d8/dc1/classIG_1_1Forms_1_1TestControl.html" target="_top" xlink:title="Test control.">
<polygon fill="white" stroke="black" points="107.5,-73 107.5,-92 217.5,-92 217.5,-73 107.5,-73"/>
<text text-anchor="middle" x="162.5" y="-80" font-family="Helvetica,sans-Serif" font-size="10.00">IG.Forms.TestControl</text>
</a>
</g>
</g>
<!-- Node3&#45;&gt;Node5 -->
<g id="edge6" class="edge"><title>Node3&#45;&gt;Node5</title>
<path fill="none" stroke="midnightblue" d="M74.2266,-150.114C96.7173,-133.142 132.728,-105.967 151.025,-92.1592"/>
<polygon fill="midnightblue" stroke="midnightblue" points="71.9319,-147.461 66.0579,-156.278 76.1484,-153.048 71.9319,-147.461"/>
</g>
<!-- Node4 -->
<g id="node4" class="node"><title>Node4</title>
<g id="a_node4"><a xlink:href="../../d3/d68/interfaceIG_1_1Forms_1_1IClosableFromContainedForm.html" target="_top" xlink:title="Marker interface indicating that a form can be closed from the contained control.">
<polygon fill="white" stroke="black" points="352.5,-67.5 352.5,-97.5 480.5,-97.5 480.5,-67.5 352.5,-67.5"/>
<text text-anchor="start" x="360.5" y="-85.5" font-family="Helvetica,sans-Serif" font-size="10.00">IG::Forms::IClosableFrom</text>
<text text-anchor="middle" x="416.5" y="-74.5" font-family="Helvetica,sans-Serif" font-size="10.00">ContainedForm</text>
</a>
</g>
</g>
<!-- Node4&#45;&gt;Node1 -->
<g id="edge3" class="edge"><title>Node4&#45;&gt;Node1</title>
<path fill="none" stroke="midnightblue" d="M370.571,-63.9276C347.136,-55.3688 318.042,-45.3632 291.5,-38 265.042,-30.6602 235.043,-24.2688 210.637,-19.5495"/>
<polygon fill="midnightblue" stroke="midnightblue" points="369.651,-67.3187 380.245,-67.4951 372.074,-60.7511 369.651,-67.3187"/>
</g>
<!-- Node5&#45;&gt;Node1 -->
<g id="edge4" class="edge"><title>Node5&#45;&gt;Node1</title>
<path fill="none" stroke="#9a32cd" stroke-dasharray="5,2" d="M162.5,-62.442C162.5,-48.5305 162.5,-30.3203 162.5,-19.7154"/>
<polygon fill="#9a32cd" stroke="#9a32cd" points="159,-62.8553 162.5,-72.8553 166,-62.8553 159,-62.8553"/>
<text text-anchor="middle" x="190.5" y="-41" font-family="Helvetica,sans-Serif" font-size="10.00"> testControl1</text>
</g>
<!-- Node6 -->
<g id="node6" class="node"><title>Node6</title>
<g id="a_node6"><a xlink:title=" ">
<polygon fill="white" stroke="#bfbfbf" points="164.5,-156.5 164.5,-175.5 232.5,-175.5 232.5,-156.5 164.5,-156.5"/>
<text text-anchor="middle" x="198.5" y="-163.5" font-family="Helvetica,sans-Serif" font-size="10.00">UserControl</text>
</a>
</g>
</g>
<!-- Node6&#45;&gt;Node5 -->
<g id="edge5" class="edge"><title>Node6&#45;&gt;Node5</title>
<path fill="none" stroke="midnightblue" d="M190.482,-146.848C182.963,-129.826 172.046,-105.112 166.325,-92.1592"/>
<polygon fill="midnightblue" stroke="midnightblue" points="187.405,-148.545 194.647,-156.278 193.808,-145.717 187.405,-148.545"/>
</g>
<!-- Node7 -->
<g id="node7" class="node"><title>Node7</title>
<g id="a_node7"><a xlink:title=" ">
<polygon fill="white" stroke="#bfbfbf" points="251.5,-156.5 251.5,-175.5 301.5,-175.5 301.5,-156.5 251.5,-156.5"/>
<text text-anchor="middle" x="276.5" y="-163.5" font-family="Helvetica,sans-Serif" font-size="10.00">System</text>
</a>
</g>
</g>
<!-- Node7&#45;&gt;Node1 -->
<g id="edge9" class="edge"><title>Node7&#45;&gt;Node1</title>
<path fill="none" stroke="#9a32cd" stroke-dasharray="5,2" d="M273.449,-146.361C268.01,-118.928 254.096,-67.7223 222.5,-38 213.764,-29.782 202.101,-23.7632 191.381,-19.522"/>
<polygon fill="#9a32cd" stroke="#9a32cd" points="270.01,-147.014 275.239,-156.229 276.898,-145.764 270.01,-147.014"/>
<text text-anchor="middle" x="288" y="-80" font-family="Helvetica,sans-Serif" font-size="10.00"> components</text>
</g>
<!-- Node7&#45;&gt;Node5 -->
<g id="edge7" class="edge"><title>Node7&#45;&gt;Node5</title>
<path fill="none" stroke="#9a32cd" stroke-dasharray="5,2" d="M241.543,-154.512C230.709,-150.343 219.104,-144.873 209.5,-138 200.152,-131.311 179.962,-106.082 169.344,-92.4208"/>
<polygon fill="#9a32cd" stroke="#9a32cd" points="240.601,-157.893 251.196,-157.978 242.967,-151.305 240.601,-157.893"/>
<text text-anchor="middle" x="236.5" y="-130" font-family="Helvetica,sans-Serif" font-size="10.00"> lblTitle</text>
<text text-anchor="middle" x="236.5" y="-119" font-family="Helvetica,sans-Serif" font-size="10.00">components</text>
</g>
<!-- Node8 -->
<g id="node8" class="node"><title>Node8</title>
<g id="a_node8"><a xlink:title=" ">
<polygon fill="white" stroke="#bfbfbf" points="105,-156.5 105,-175.5 146,-175.5 146,-156.5 105,-156.5"/>
<text text-anchor="middle" x="125.5" y="-163.5" font-family="Helvetica,sans-Serif" font-size="10.00">static</text>
</a>
</g>
</g>
<!-- Node8&#45;&gt;Node5 -->
<g id="edge8" class="edge"><title>Node8&#45;&gt;Node5</title>
<path fill="none" stroke="#9a32cd" stroke-dasharray="5,2" d="M128.699,-146.443C130.747,-137.024 133.899,-125.58 138.5,-116 142.751,-107.148 149.53,-98.2581 154.801,-92.0191"/>
<polygon fill="#9a32cd" stroke="#9a32cd" points="125.249,-145.852 126.783,-156.335 132.121,-147.183 125.249,-145.852"/>
<text text-anchor="middle" x="156" y="-124.5" font-family="Helvetica,sans-Serif" font-size="10.00"> _nextId</text>
</g>
</g>
</svg>
