<?xml version="1.0" encoding="UTF-8" standalone="no"?>
<!DOCTYPE svg PUBLIC "-//W3C//DTD SVG 1.1//EN"
 "http://www.w3.org/Graphics/SVG/1.1/DTD/svg11.dtd">
<!-- Generated by graphviz version 2.38.0 (20140413.2041)
 -->
<!-- Title: IG.Forms.HashForm Pages: 1 -->
<!--zoomable 440 -->
<svg id="main" version="1.1" xmlns="http://www.w3.org/2000/svg" xmlns:xlink="http://www.w3.org/1999/xlink" xml:space="preserve" onload="init(evt)">
<style type="text/css"><![CDATA[
.edge:hover path { stroke: red; }
.edge:hover polygon { stroke: red; fill: red; }
]]></style>
<script type="text/javascript"><![CDATA[
var edges = document.getElementsByTagName('g');
if (edges && edges.length) {
  for (var i=0;i<edges.length;i++) {
    if (edges[i].id.substr(0,4)=='edge') {
      edges[i].setAttribute('class','edge');
    }
  }
}
]]></script>
        <defs>
                <circle id="rim" cx="0" cy="0" r="7"/>
                <circle id="rim2" cx="0" cy="0" r="3.5"/>
                <g id="zoomPlus">
                        <use xlink:href="#rim" fill="#404040">
                                <set attributeName="fill" to="#808080" begin="zoomplus.mouseover" end="zoomplus.mouseout"/>
                        </use>
                        <path d="M-4,0h8M0,-4v8" fill="none" stroke="white" stroke-width="1.5" pointer-events="none"/>
                </g>
                <g id="zoomMin">
                        <use xlink:href="#rim" fill="#404040">
                                <set attributeName="fill" to="#808080" begin="zoomminus.mouseover" end="zoomminus.mouseout"/>
                        </use>
                        <path d="M-4,0h8" fill="none" stroke="white" stroke-width="1.5" pointer-events="none"/>
                </g>
                <g id="dirArrow">
                        <path fill="none" stroke="white" stroke-width="1.5" d="M0,-3.0v7 M-2.5,-0.5L0,-3.0L2.5,-0.5"/>
                </g>
               <g id="resetDef">
                       <use xlink:href="#rim2" fill="#404040">
                               <set attributeName="fill" to="#808080" begin="reset.mouseover" end="reset.mouseout"/>
                       </use>
               </g>
        </defs>

<script type="text/javascript">
var viewWidth = 768;
var viewHeight = 440;
var sectionId = 'dynsection-1';
</script>
<script xlink:href="../../svgpan.js"/>
<svg id="graph" class="graph">
<g id="viewport">
<title>IG.Forms.HashForm</title>
<polygon fill="white" stroke="none" points="-4,4 -4,-436 763.5,-436 763.5,4 -4,4"/>
<!-- Node1 -->
<g id="node1" class="node"><title>Node1</title>
<g id="a_node1"><a xlink:title="A window form to calculate various checksums of selected files or inserted text.">
<polygon fill="#bfbfbf" stroke="black" points="0,-0.5 0,-19.5 105,-19.5 105,-0.5 0,-0.5"/>
<text text-anchor="middle" x="52.5" y="-7.5" font-family="Helvetica,sans-Serif" font-size="10.00">IG.Forms.HashForm</text>
</a>
</g>
</g>
<!-- Node2 -->
<g id="node2" class="node"><title>Node2</title>
<g id="a_node2"><a xlink:title=" ">
<polygon fill="white" stroke="#bfbfbf" points="42,-412.5 42,-431.5 81,-431.5 81,-412.5 42,-412.5"/>
<text text-anchor="middle" x="61.5" y="-419.5" font-family="Helvetica,sans-Serif" font-size="10.00">Form</text>
</a>
</g>
</g>
<!-- Node2&#45;&gt;Node1 -->
<g id="edge1" class="edge"><title>Node2&#45;&gt;Node1</title>
<path fill="none" stroke="midnightblue" d="M44.4527,-404.388C42.0428,-401.177 39.9092,-397.664 38.5,-394 -7.6259,-274.071 22.8694,-233.267 30.5,-105 32.2809,-75.0636 29.6778,-66.6623 38.5,-38 40.4882,-31.5404 43.9882,-24.7904 46.9912,-19.6553"/>
<polygon fill="midnightblue" stroke="midnightblue" points="41.9538,-406.848 51.1691,-412.075 47.2253,-402.242 41.9538,-406.848"/>
</g>
<!-- Node8 -->
<g id="node8" class="node"><title>Node8</title>
<g id="a_node8"><a xlink:href="../../da/df7/classIG_1_1Forms_1_1HashAboutForm.html" target="_top" xlink:title=" ">
<polygon fill="white" stroke="black" points="243,-185 243,-204 374,-204 374,-185 243,-185"/>
<text text-anchor="middle" x="308.5" y="-192" font-family="Helvetica,sans-Serif" font-size="10.00">IG.Forms.HashAboutForm</text>
</a>
</g>
</g>
<!-- Node2&#45;&gt;Node8 -->
<g id="edge9" class="edge"><title>Node2&#45;&gt;Node8</title>
<path fill="none" stroke="midnightblue" d="M67.8957,-402.668C79.8926,-371.074 108.853,-306.538 155.5,-273 182.632,-253.493 198.275,-269.252 228.5,-255 256.994,-241.564 285.408,-217.159 299.453,-204.173"/>
<polygon fill="midnightblue" stroke="midnightblue" points="64.4975,-401.77 64.3585,-412.364 71.0737,-404.169 64.4975,-401.77"/>
</g>
<!-- Node3 -->
<g id="node3" class="node"><title>Node3</title>
<g id="a_node3"><a xlink:href="../../d7/d96/classIG_1_1Forms_1_1HashControl.html" target="_top" xlink:title="A control used to calculate various checksums of selected files or inserted text.">
<polygon fill="white" stroke="black" points="311,-67.5 311,-86.5 424,-86.5 424,-67.5 311,-67.5"/>
<text text-anchor="middle" x="367.5" y="-74.5" font-family="Helvetica,sans-Serif" font-size="10.00">IG.Forms.HashControl</text>
</a>
</g>
</g>
<!-- Node3&#45;&gt;Node1 -->
<g id="edge2" class="edge"><title>Node3&#45;&gt;Node1</title>
<path fill="none" stroke="#9a32cd" stroke-dasharray="5,2" d="M316.03,-65.3792C253.99,-52.5772 150.97,-31.3191 93.8461,-19.5317"/>
<polygon fill="#9a32cd" stroke="#9a32cd" points="315.494,-68.8423 325.995,-67.4355 316.909,-61.9868 315.494,-68.8423"/>
<text text-anchor="middle" x="281" y="-41" font-family="Helvetica,sans-Serif" font-size="10.00"> hashGeneratorControl1</text>
</g>
<!-- Node4 -->
<g id="node4" class="node"><title>Node4</title>
<g id="a_node4"><a xlink:title=" ">
<polygon fill="white" stroke="#bfbfbf" points="506.5,-412.5 506.5,-431.5 574.5,-431.5 574.5,-412.5 506.5,-412.5"/>
<text text-anchor="middle" x="540.5" y="-419.5" font-family="Helvetica,sans-Serif" font-size="10.00">UserControl</text>
</a>
</g>
</g>
<!-- Node4&#45;&gt;Node3 -->
<g id="edge3" class="edge"><title>Node4&#45;&gt;Node3</title>
<path fill="none" stroke="midnightblue" d="M540.923,-402.144C541.831,-345.187 541.693,-176.227 509.5,-134 489.175,-107.341 454.264,-93.3544 424.145,-86.0263"/>
<polygon fill="midnightblue" stroke="midnightblue" points="537.422,-402.178 540.731,-412.243 544.421,-402.312 537.422,-402.178"/>
</g>
<!-- Node5 -->
<g id="node5" class="node"><title>Node5</title>
<g id="a_node5"><a xlink:href="../../de/d72/classIG_1_1Forms_1_1IndicatorLight.html" target="_top" xlink:title=" ">
<polygon fill="white" stroke="black" points="560.5,-185 560.5,-204 678.5,-204 678.5,-185 560.5,-185"/>
<text text-anchor="middle" x="619.5" y="-192" font-family="Helvetica,sans-Serif" font-size="10.00">IG.Forms.IndicatorLight</text>
</a>
</g>
</g>
<!-- Node4&#45;&gt;Node5 -->
<g id="edge5" class="edge"><title>Node4&#45;&gt;Node5</title>
<path fill="none" stroke="midnightblue" d="M546.844,-402.893C562.938,-356.951 604.906,-237.157 616.497,-204.073"/>
<polygon fill="midnightblue" stroke="midnightblue" points="543.504,-401.841 543.5,-412.435 550.11,-404.155 543.504,-401.841"/>
</g>
<!-- Node5&#45;&gt;Node3 -->
<g id="edge4" class="edge"><title>Node5&#45;&gt;Node3</title>
<path fill="none" stroke="#9a32cd" stroke-dasharray="5,2" d="M610.327,-175.955C598.527,-155.301 575.988,-121.704 546.5,-105 526.059,-93.4211 468.447,-86.158 424.049,-82.1188"/>
<polygon fill="#9a32cd" stroke="#9a32cd" points="607.366,-177.835 615.24,-184.923 613.505,-174.472 607.366,-177.835"/>
<text text-anchor="middle" x="596" y="-108" font-family="Helvetica,sans-Serif" font-size="10.00"> indicatorLight1</text>
</g>
<!-- Node6 -->
<g id="node6" class="node"><title>Node6</title>
<g id="a_node6"><a xlink:title=" ">
<polygon fill="white" stroke="#bfbfbf" points="119.5,-412.5 119.5,-431.5 169.5,-431.5 169.5,-412.5 119.5,-412.5"/>
<text text-anchor="middle" x="144.5" y="-419.5" font-family="Helvetica,sans-Serif" font-size="10.00">System</text>
</a>
</g>
</g>
<!-- Node6&#45;&gt;Node1 -->
<g id="edge14" class="edge"><title>Node6&#45;&gt;Node1</title>
<path fill="none" stroke="#9a32cd" stroke-dasharray="5,2" d="M110.201,-407.73C104.489,-404.088 99.2208,-399.563 95.5,-394 11.0605,-267.747 42.5596,-64.2544 50.7796,-19.7707"/>
<polygon fill="#9a32cd" stroke="#9a32cd" points="108.932,-411.025 119.385,-412.749 112.289,-404.882 108.932,-411.025"/>
<text text-anchor="middle" x="69" y="-108" font-family="Helvetica,sans-Serif" font-size="10.00"> components</text>
</g>
<!-- Node6&#45;&gt;Node3 -->
<g id="edge12" class="edge"><title>Node6&#45;&gt;Node3</title>
<path fill="none" stroke="#9a32cd" stroke-dasharray="5,2" d="M136.049,-402.918C114.401,-353.637 63.041,-215.231 127.5,-134 149.973,-105.679 247.368,-90.3456 310.971,-83.1944"/>
<polygon fill="#9a32cd" stroke="#9a32cd" points="132.967,-404.599 140.276,-412.269 139.346,-401.715 132.967,-404.599"/>
<text text-anchor="middle" x="180.5" y="-247" font-family="Helvetica,sans-Serif" font-size="10.00"> contextMenuStrip1</text>
<text text-anchor="middle" x="180.5" y="-236" font-family="Helvetica,sans-Serif" font-size="10.00">aboutToolStripMenuItem</text>
<text text-anchor="middle" x="180.5" y="-225" font-family="Helvetica,sans-Serif" font-size="10.00">lvlVerifyMain</text>
<text text-anchor="middle" x="180.5" y="-214" font-family="Helvetica,sans-Serif" font-size="10.00">contextMenuStrip2</text>
<text text-anchor="middle" x="180.5" y="-203" font-family="Helvetica,sans-Serif" font-size="10.00">btnClearHashes</text>
<text text-anchor="middle" x="180.5" y="-192" font-family="Helvetica,sans-Serif" font-size="10.00">lblSha512</text>
<text text-anchor="middle" x="180.5" y="-181" font-family="Helvetica,sans-Serif" font-size="10.00">chkGenerateFile</text>
<text text-anchor="middle" x="180.5" y="-170" font-family="Helvetica,sans-Serif" font-size="10.00">btnGenerate</text>
<text text-anchor="middle" x="180.5" y="-159" font-family="Helvetica,sans-Serif" font-size="10.00">txtMd5</text>
<text text-anchor="middle" x="180.5" y="-148" font-family="Helvetica,sans-Serif" font-size="10.00">lblVerify</text>
<text text-anchor="middle" x="180.5" y="-137" font-family="Helvetica,sans-Serif" font-size="10.00">...</text>
</g>
<!-- Node6&#45;&gt;Node5 -->
<g id="edge6" class="edge"><title>Node6&#45;&gt;Node5</title>
<path fill="none" stroke="#9a32cd" stroke-dasharray="5,2" d="M179.961,-421.101C240.752,-420.643 361.685,-416.792 396.5,-394 448.295,-360.092 419.688,-314.638 465.5,-273 479.927,-259.888 487.962,-263.514 505.5,-255 541.048,-237.743 581.937,-215.906 603.787,-204.071"/>
<polygon fill="#9a32cd" stroke="#9a32cd" points="179.676,-417.602 169.693,-421.15 179.71,-424.602 179.676,-417.602"/>
<text text-anchor="middle" x="506" y="-386" font-family="Helvetica,sans-Serif" font-size="10.00"> _colorLightError</text>
<text text-anchor="middle" x="506" y="-375" font-family="Helvetica,sans-Serif" font-size="10.00">_colorLabel</text>
<text text-anchor="middle" x="506" y="-364" font-family="Helvetica,sans-Serif" font-size="10.00">timer1</text>
<text text-anchor="middle" x="506" y="-353" font-family="Helvetica,sans-Serif" font-size="10.00">flowOuter</text>
<text text-anchor="middle" x="506" y="-342" font-family="Helvetica,sans-Serif" font-size="10.00">_colorLightOk</text>
<text text-anchor="middle" x="506" y="-331" font-family="Helvetica,sans-Serif" font-size="10.00">_specialBlinkColor</text>
<text text-anchor="middle" x="506" y="-320" font-family="Helvetica,sans-Serif" font-size="10.00">_colorLightOff</text>
<text text-anchor="middle" x="506" y="-309" font-family="Helvetica,sans-Serif" font-size="10.00">lblText</text>
<text text-anchor="middle" x="506" y="-298" font-family="Helvetica,sans-Serif" font-size="10.00">components</text>
<text text-anchor="middle" x="506" y="-287" font-family="Helvetica,sans-Serif" font-size="10.00">_colorLightBusy</text>
<text text-anchor="middle" x="506" y="-276" font-family="Helvetica,sans-Serif" font-size="10.00">...</text>
</g>
<!-- Node6&#45;&gt;Node8 -->
<g id="edge10" class="edge"><title>Node6&#45;&gt;Node8</title>
<path fill="none" stroke="#9a32cd" stroke-dasharray="5,2" d="M153.42,-402.976C168.046,-374.198 198.883,-316.671 232.5,-273 253.536,-245.673 283.333,-217.812 298.616,-204.145"/>
<polygon fill="#9a32cd" stroke="#9a32cd" points="150.148,-401.691 148.789,-412.198 156.404,-404.832 150.148,-401.691"/>
<text text-anchor="middle" x="261" y="-331" font-family="Helvetica,sans-Serif" font-size="10.00"> components</text>
</g>
<!-- Node7 -->
<g id="node7" class="node"><title>Node7</title>
<g id="a_node7"><a xlink:title=" ">
<polygon fill="white" stroke="#bfbfbf" points="599,-412.5 599,-431.5 640,-431.5 640,-412.5 599,-412.5"/>
<text text-anchor="middle" x="619.5" y="-419.5" font-family="Helvetica,sans-Serif" font-size="10.00">static</text>
</a>
</g>
</g>
<!-- Node7&#45;&gt;Node5 -->
<g id="edge7" class="edge"><title>Node7&#45;&gt;Node5</title>
<path fill="none" stroke="#9a32cd" stroke-dasharray="5,2" d="M619.5,-402.307C619.5,-355.942 619.5,-237.017 619.5,-204.073"/>
<polygon fill="#9a32cd" stroke="#9a32cd" points="616,-402.435 619.5,-412.435 623,-402.436 616,-402.435"/>
<text text-anchor="middle" x="689.5" y="-386" font-family="Helvetica,sans-Serif" font-size="10.00"> _defaultColorLabel</text>
<text text-anchor="middle" x="689.5" y="-375" font-family="Helvetica,sans-Serif" font-size="10.00">_defaultBorderOut</text>
<text text-anchor="middle" x="689.5" y="-364" font-family="Helvetica,sans-Serif" font-size="10.00">_defaultBorderLabel</text>
<text text-anchor="middle" x="689.5" y="-353" font-family="Helvetica,sans-Serif" font-size="10.00">_defaultColorLightOff</text>
<text text-anchor="middle" x="689.5" y="-342" font-family="Helvetica,sans-Serif" font-size="10.00">_defaultPaddingLabel</text>
<text text-anchor="middle" x="689.5" y="-331" font-family="Helvetica,sans-Serif" font-size="10.00">_defaultMarginLabel</text>
<text text-anchor="middle" x="689.5" y="-320" font-family="Helvetica,sans-Serif" font-size="10.00">_defaultColorLightBusy</text>
<text text-anchor="middle" x="689.5" y="-309" font-family="Helvetica,sans-Serif" font-size="10.00">_defaultBlinkIntervalMilliseconds</text>
<text text-anchor="middle" x="689.5" y="-298" font-family="Helvetica,sans-Serif" font-size="10.00">_defaultPaddingOut</text>
<text text-anchor="middle" x="689.5" y="-287" font-family="Helvetica,sans-Serif" font-size="10.00">_defaultColorLightError</text>
<text text-anchor="middle" x="689.5" y="-276" font-family="Helvetica,sans-Serif" font-size="10.00">...</text>
</g>
<!-- Node8&#45;&gt;Node3 -->
<g id="edge8" class="edge"><title>Node8&#45;&gt;Node3</title>
<path fill="none" stroke="#9a32cd" stroke-dasharray="5,2" d="M313.07,-174.778C318.158,-156.134 327.547,-127.171 341.5,-105 345.798,-98.1706 352.032,-91.6225 357.319,-86.6854"/>
<polygon fill="#9a32cd" stroke="#9a32cd" points="309.627,-174.11 310.512,-184.668 316.404,-175.863 309.627,-174.11"/>
<text text-anchor="middle" x="369" y="-108" font-family="Helvetica,sans-Serif" font-size="10.00"> _aboutForm</text>
</g>
<!-- Node9 -->
<g id="node9" class="node"><title>Node9</title>
<g id="a_node9"><a xlink:title=" ">
<polygon fill="white" stroke="#bfbfbf" points="344,-412.5 344,-431.5 373,-431.5 373,-412.5 344,-412.5"/>
<text text-anchor="middle" x="358.5" y="-419.5" font-family="Helvetica,sans-Serif" font-size="10.00">IG</text>
</a>
</g>
</g>
<!-- Node9&#45;&gt;Node3 -->
<g id="edge13" class="edge"><title>Node9&#45;&gt;Node3</title>
<path fill="none" stroke="#9a32cd" stroke-dasharray="5,2" d="M381.279,-407.571C385.789,-403.785 389.922,-399.242 392.5,-394 447.028,-283.113 395.611,-239.565 396.5,-116 396.535,-111.111 398.451,-109.483 396.5,-105 393.26,-97.5573 386.846,-91.2393 380.872,-86.5905"/>
<polygon fill="#9a32cd" stroke="#9a32cd" points="379.056,-404.859 373.007,-413.557 383.16,-410.53 379.056,-404.859"/>
<text text-anchor="middle" x="460" y="-192" font-family="Helvetica,sans-Serif" font-size="10.00"> backgroundWorker1</text>
</g>
<!-- Node9&#45;&gt;Node8 -->
<g id="edge11" class="edge"><title>Node9&#45;&gt;Node8</title>
<path fill="none" stroke="#9a32cd" stroke-dasharray="5,2" d="M334.624,-411.899C326.839,-407.681 319.037,-401.828 314.5,-394 277.327,-329.868 298.361,-233.448 306.052,-204.209"/>
<polygon fill="#9a32cd" stroke="#9a32cd" points="333.353,-415.169 343.892,-416.256 336.331,-408.834 333.353,-415.169"/>
<text text-anchor="middle" x="353.5" y="-331" font-family="Helvetica,sans-Serif" font-size="10.00"> hashFormAbout1</text>
</g>
</g>
</svg>
        <g id="navigator" transform="translate(0 0)" fill="#404254">
                <rect fill="#f2f5e9" fill-opacity="0.5" stroke="#606060" stroke-width=".5" x="0" y="0" width="60" height="60"/>
                <use id="zoomplus" xlink:href="#zoomPlus" x="17" y="9" onmousedown="handleZoom(evt,'in')"/>
                <use id="zoomminus" xlink:href="#zoomMin" x="42" y="9" onmousedown="handleZoom(evt,'out')"/>
                <use id="reset" xlink:href="#resetDef" x="30" y="36" onmousedown="handleReset()"/>
                <g id="arrowUp" xlink:href="#dirArrow" transform="translate(30 24)" onmousedown="handlePan(0,-1)">
                  <use xlink:href="#rim" fill="#404040">
                        <set attributeName="fill" to="#808080" begin="arrowUp.mouseover" end="arrowUp.mouseout"/>
                  </use>
                  <path fill="none" stroke="white" stroke-width="1.5" d="M0,-3.0v7 M-2.5,-0.5L0,-3.0L2.5,-0.5"/>
                </g>
                <g id="arrowRight" xlink:href="#dirArrow" transform="rotate(90) translate(36 -43)" onmousedown="handlePan(1,0)">
                  <use xlink:href="#rim" fill="#404040">
                        <set attributeName="fill" to="#808080" begin="arrowRight.mouseover" end="arrowRight.mouseout"/>
                  </use>
                  <path fill="none" stroke="white" stroke-width="1.5" d="M0,-3.0v7 M-2.5,-0.5L0,-3.0L2.5,-0.5"/>
                </g>
                <g id="arrowDown" xlink:href="#dirArrow" transform="rotate(180) translate(-30 -48)" onmousedown="handlePan(0,1)">
                  <use xlink:href="#rim" fill="#404040">
                        <set attributeName="fill" to="#808080" begin="arrowDown.mouseover" end="arrowDown.mouseout"/>
                  </use>
                  <path fill="none" stroke="white" stroke-width="1.5" d="M0,-3.0v7 M-2.5,-0.5L0,-3.0L2.5,-0.5"/>
                </g>
                <g id="arrowLeft" xlink:href="#dirArrow" transform="rotate(270) translate(-36 17)" onmousedown="handlePan(-1,0)">
                  <use xlink:href="#rim" fill="#404040">
                        <set attributeName="fill" to="#808080" begin="arrowLeft.mouseover" end="arrowLeft.mouseout"/>
                  </use>
                  <path fill="none" stroke="white" stroke-width="1.5" d="M0,-3.0v7 M-2.5,-0.5L0,-3.0L2.5,-0.5"/>
                </g>
        </g>
        <svg viewBox="0 0 15 15" width="100%" height="30px" preserveAspectRatio="xMaxYMin meet">
         <g id="arrow_out" transform="scale(0.3 0.3)">
          <a xlink:href="classIG_1_1Forms_1_1HashForm__coll__graph_org.svg" target="_base">
           <rect id="button" ry="5" rx="5" y="6" x="6" height="38" width="38"
                fill="#f2f5e9" fill-opacity="0.5" stroke="#606060" stroke-width="1.0"/>
           <path id="arrow"
             d="M 11.500037,31.436501 C 11.940474,20.09759 22.043105,11.32322 32.158766,21.979434 L 37.068811,17.246167 C 37.068811,17.246167 37.088388,32 37.088388,32 L 22.160133,31.978069 C 22.160133,31.978069 26.997745,27.140456 26.997745,27.140456 C 18.528582,18.264221 13.291696,25.230495 11.500037,31.436501 z"
             style="fill:#404040;"/>
          </a>
         </g>
        </svg>
</svg>
