<?xml version="1.0" encoding="UTF-8" standalone="no"?>
<!DOCTYPE svg PUBLIC "-//W3C//DTD SVG 1.1//EN"
 "http://www.w3.org/Graphics/SVG/1.1/DTD/svg11.dtd">
<!-- Generated by graphviz version 2.38.0 (20140413.2041)
 -->
<!-- Title: AForge.Math.Geometry.Posit Pages: 1 -->
<svg width="275pt" height="106pt"
 viewBox="0.00 0.00 275.00 106.00" xmlns="http://www.w3.org/2000/svg" xmlns:xlink="http://www.w3.org/1999/xlink">
<g id="graph0" class="graph" transform="scale(1 1) rotate(0) translate(4 102)">
<title>AForge.Math.Geometry.Posit</title>
<polygon fill="white" stroke="none" points="-4,4 -4,-102 271,-102 271,4 -4,4"/>
<!-- Node1 -->
<g id="node1" class="node"><title>Node1</title>
<g id="a_node1"><a xlink:title="3D pose estimation algorithm.">
<polygon fill="#bfbfbf" stroke="black" points="49,-0.5 49,-19.5 193,-19.5 193,-0.5 49,-0.5"/>
<text text-anchor="middle" x="121" y="-7.5" font-family="Helvetica,sans-Serif" font-size="10.00">AForge.Math.Geometry.Posit</text>
</a>
</g>
</g>
<!-- Node2 -->
<g id="node2" class="node"><title>Node2</title>
<g id="a_node2"><a xlink:href="../../d7/de2/structAForge_1_1Math_1_1Vector3.html" target="_top" xlink:title="3D Vector structure with X, Y and Z coordinates.">
<polygon fill="white" stroke="black" points="0,-78.5 0,-97.5 110,-97.5 110,-78.5 0,-78.5"/>
<text text-anchor="middle" x="55" y="-85.5" font-family="Helvetica,sans-Serif" font-size="10.00">AForge.Math.Vector3</text>
</a>
</g>
</g>
<!-- Node2&#45;&gt;Node1 -->
<g id="edge1" class="edge"><title>Node2&#45;&gt;Node1</title>
<path fill="none" stroke="#9a32cd" stroke-dasharray="5,2" d="M69.3792,-70.4421C82.9703,-54.7918 102.826,-31.9282 113.517,-19.6165"/>
<polygon fill="#9a32cd" stroke="#9a32cd" points="66.4853,-68.4366 62.571,-78.2818 71.7706,-73.0264 66.4853,-68.4366"/>
<text text-anchor="middle" x="125" y="-46.5" font-family="Helvetica,sans-Serif" font-size="10.00"> modelPoints</text>
</g>
<!-- Node3 -->
<g id="node3" class="node"><title>Node3</title>
<g id="a_node3"><a xlink:href="../../d9/d61/structAForge_1_1Math_1_1Matrix3x3.html" target="_top" xlink:title="A structure representing 3x3 matrix.">
<polygon fill="white" stroke="black" points="128.5,-78.5 128.5,-97.5 247.5,-97.5 247.5,-78.5 128.5,-78.5"/>
<text text-anchor="middle" x="188" y="-85.5" font-family="Helvetica,sans-Serif" font-size="10.00">AForge.Math.Matrix3x3</text>
</a>
</g>
</g>
<!-- Node3&#45;&gt;Node1 -->
<g id="edge2" class="edge"><title>Node3&#45;&gt;Node1</title>
<path fill="none" stroke="#9a32cd" stroke-dasharray="5,2" d="M179.429,-69.4236C174.096,-59.5407 166.621,-47.3497 158,-38 151.423,-30.8678 142.712,-24.4014 135.394,-19.5861"/>
<polygon fill="#9a32cd" stroke="#9a32cd" points="176.329,-71.0489 184.01,-78.3464 182.556,-67.8518 176.329,-71.0489"/>
<text text-anchor="middle" x="220.5" y="-52" font-family="Helvetica,sans-Serif" font-size="10.00"> modelPseudoInverse</text>
<text text-anchor="middle" x="220.5" y="-41" font-family="Helvetica,sans-Serif" font-size="10.00">modelVectors</text>
</g>
</g>
</svg>
