<?xml version="1.0" encoding="UTF-8" standalone="no"?>
<!DOCTYPE svg PUBLIC "-//W3C//DTD SVG 1.1//EN"
 "http://www.w3.org/Graphics/SVG/1.1/DTD/svg11.dtd">
<!-- Generated by graphviz version 2.38.0 (20140413.2041)
 -->
<!-- Title: DotNumerics.LinearAlgebra.CSLapack.DLASD6 Pages: 1 -->
<!--zoomable 646 -->
<svg id="main" version="1.1" xmlns="http://www.w3.org/2000/svg" xmlns:xlink="http://www.w3.org/1999/xlink" xml:space="preserve" onload="init(evt)">
<style type="text/css"><![CDATA[
.edge:hover path { stroke: red; }
.edge:hover polygon { stroke: red; fill: red; }
]]></style>
<script type="text/javascript"><![CDATA[
var edges = document.getElementsByTagName('g');
if (edges && edges.length) {
  for (var i=0;i<edges.length;i++) {
    if (edges[i].id.substr(0,4)=='edge') {
      edges[i].setAttribute('class','edge');
    }
  }
}
]]></script>
        <defs>
                <circle id="rim" cx="0" cy="0" r="7"/>
                <circle id="rim2" cx="0" cy="0" r="3.5"/>
                <g id="zoomPlus">
                        <use xlink:href="#rim" fill="#404040">
                                <set attributeName="fill" to="#808080" begin="zoomplus.mouseover" end="zoomplus.mouseout"/>
                        </use>
                        <path d="M-4,0h8M0,-4v8" fill="none" stroke="white" stroke-width="1.5" pointer-events="none"/>
                </g>
                <g id="zoomMin">
                        <use xlink:href="#rim" fill="#404040">
                                <set attributeName="fill" to="#808080" begin="zoomminus.mouseover" end="zoomminus.mouseout"/>
                        </use>
                        <path d="M-4,0h8" fill="none" stroke="white" stroke-width="1.5" pointer-events="none"/>
                </g>
                <g id="dirArrow">
                        <path fill="none" stroke="white" stroke-width="1.5" d="M0,-3.0v7 M-2.5,-0.5L0,-3.0L2.5,-0.5"/>
                </g>
               <g id="resetDef">
                       <use xlink:href="#rim2" fill="#404040">
                               <set attributeName="fill" to="#808080" begin="reset.mouseover" end="reset.mouseout"/>
                       </use>
               </g>
        </defs>

<script type="text/javascript">
var viewWidth = 1737;
var viewHeight = 646;
var sectionId = 'dynsection-0';
</script>
<script xlink:href="../../svgpan.js"/>
<svg id="graph" class="graph">
<g id="viewport">
<title>DotNumerics.LinearAlgebra.CSLapack.DLASD6</title>
<polygon fill="white" stroke="none" points="-4,4 -4,-641.5 1733,-641.5 1733,4 -4,4"/>
<!-- Node1 -->
<g id="node1" class="node"><title>Node1</title>
<g id="a_node1"><a xlink:title="– LAPACK auxiliary routine (version 3.1) – Univ. of Tennessee, Univ. of California Berkeley and NAG L...">
<polygon fill="#bfbfbf" stroke="black" points="1591,-250.5 1591,-280.5 1729,-280.5 1729,-250.5 1591,-250.5"/>
<text text-anchor="start" x="1599" y="-268.5" font-family="Helvetica,sans-Serif" font-size="10.00">DotNumerics.LinearAlgebra.</text>
<text text-anchor="middle" x="1660" y="-257.5" font-family="Helvetica,sans-Serif" font-size="10.00">CSLapack.DLASD6</text>
</a>
</g>
</g>
<!-- Node2 -->
<g id="node2" class="node"><title>Node2</title>
<g id="a_node2"><a xlink:href="../../d1/d2a/classDotNumerics_1_1LinearAlgebra_1_1CSLapack_1_1DCOPY.html" target="_top" xlink:title=" ">
<polygon fill="white" stroke="black" points="1168,-280.5 1168,-310.5 1306,-310.5 1306,-280.5 1168,-280.5"/>
<text text-anchor="start" x="1176" y="-298.5" font-family="Helvetica,sans-Serif" font-size="10.00">DotNumerics.LinearAlgebra.</text>
<text text-anchor="middle" x="1237" y="-287.5" font-family="Helvetica,sans-Serif" font-size="10.00">CSLapack.DCOPY</text>
</a>
</g>
</g>
<!-- Node2&#45;&gt;Node1 -->
<g id="edge1" class="edge"><title>Node2&#45;&gt;Node1</title>
<path fill="none" stroke="#9a32cd" stroke-dasharray="5,2" d="M1316.49,-289.907C1395.45,-284.28 1515.97,-275.692 1590.99,-270.346"/>
<polygon fill="#9a32cd" stroke="#9a32cd" points="1315.83,-286.445 1306.11,-290.647 1316.33,-293.427 1315.83,-286.445"/>
<text text-anchor="middle" x="1449" y="-288.5" font-family="Helvetica,sans-Serif" font-size="10.00"> _dcopy</text>
</g>
<!-- Node3 -->
<g id="node3" class="node"><title>Node3</title>
<g id="a_node3"><a xlink:href="../../d0/dac/classDotNumerics_1_1LinearAlgebra_1_1CSLapack_1_1DLASD7.html" target="_top" xlink:title="– LAPACK auxiliary routine (version 3.1) – Univ. of Tennessee, Univ. of California Berkeley and NAG L...">
<polygon fill="white" stroke="black" points="1380,-146.5 1380,-176.5 1518,-176.5 1518,-146.5 1380,-146.5"/>
<text text-anchor="start" x="1388" y="-164.5" font-family="Helvetica,sans-Serif" font-size="10.00">DotNumerics.LinearAlgebra.</text>
<text text-anchor="middle" x="1449" y="-153.5" font-family="Helvetica,sans-Serif" font-size="10.00">CSLapack.DLASD7</text>
</a>
</g>
</g>
<!-- Node2&#45;&gt;Node3 -->
<g id="edge13" class="edge"><title>Node2&#45;&gt;Node3</title>
<path fill="none" stroke="#9a32cd" stroke-dasharray="5,2" d="M1300.57,-277.023C1321.04,-269.51 1343.3,-259.683 1362,-247.5 1392.43,-227.677 1420.79,-195.669 1436.13,-176.799"/>
<polygon fill="#9a32cd" stroke="#9a32cd" points="1299.25,-273.775 1291,-280.419 1301.6,-280.372 1299.25,-273.775"/>
<text text-anchor="middle" x="1343" y="-269.5" font-family="Helvetica,sans-Serif" font-size="10.00"> _dcopy</text>
</g>
<!-- Node15 -->
<g id="node15" class="node"><title>Node15</title>
<g id="a_node15"><a xlink:href="../../df/dec/classDotNumerics_1_1LinearAlgebra_1_1CSLapack_1_1DLASD8.html" target="_top" xlink:title="– LAPACK auxiliary routine (version 3.1) – Univ. of Tennessee, Univ. of California Berkeley and NAG L...">
<polygon fill="white" stroke="black" points="1380,-431.5 1380,-461.5 1518,-461.5 1518,-431.5 1380,-431.5"/>
<text text-anchor="start" x="1388" y="-449.5" font-family="Helvetica,sans-Serif" font-size="10.00">DotNumerics.LinearAlgebra.</text>
<text text-anchor="middle" x="1449" y="-438.5" font-family="Helvetica,sans-Serif" font-size="10.00">CSLapack.DLASD8</text>
</a>
</g>
</g>
<!-- Node2&#45;&gt;Node15 -->
<g id="edge24" class="edge"><title>Node2&#45;&gt;Node15</title>
<path fill="none" stroke="#9a32cd" stroke-dasharray="5,2" d="M1285.61,-314.683C1292.53,-317.794 1299.51,-321.113 1306,-324.5 1332.02,-338.076 1339.08,-341.162 1362,-359.5 1390.19,-382.059 1418.86,-413.022 1434.95,-431.279"/>
<polygon fill="#9a32cd" stroke="#9a32cd" points="1286.82,-311.391 1276.25,-310.581 1284,-317.802 1286.82,-311.391"/>
<text text-anchor="middle" x="1343" y="-362.5" font-family="Helvetica,sans-Serif" font-size="10.00"> _dcopy</text>
</g>
<!-- Node3&#45;&gt;Node1 -->
<g id="edge2" class="edge"><title>Node3&#45;&gt;Node1</title>
<path fill="none" stroke="#9a32cd" stroke-dasharray="5,2" d="M1503.11,-180.128C1525.15,-188.504 1550.73,-199.075 1573,-210.5 1596.02,-222.312 1620.76,-238.54 1637.76,-250.305"/>
<polygon fill="#9a32cd" stroke="#9a32cd" points="1504.17,-176.788 1493.58,-176.558 1501.72,-183.343 1504.17,-176.788"/>
<text text-anchor="middle" x="1554.5" y="-213.5" font-family="Helvetica,sans-Serif" font-size="10.00"> _dlasd7</text>
</g>
<!-- Node4 -->
<g id="node4" class="node"><title>Node4</title>
<g id="a_node4"><a xlink:href="../../d4/dd0/classDotNumerics_1_1LinearAlgebra_1_1CSLapack_1_1DLAMCH.html" target="_top" xlink:title="– LAPACK auxiliary routine (version 3.1) – Univ. of Tennessee, Univ. of California Berkeley and NAG L...">
<polygon fill="white" stroke="black" points="642,-404.5 642,-434.5 780,-434.5 780,-404.5 642,-404.5"/>
<text text-anchor="start" x="650" y="-422.5" font-family="Helvetica,sans-Serif" font-size="10.00">DotNumerics.LinearAlgebra.</text>
<text text-anchor="middle" x="711" y="-411.5" font-family="Helvetica,sans-Serif" font-size="10.00">CSLapack.DLAMCH</text>
</a>
</g>
</g>
<!-- Node4&#45;&gt;Node3 -->
<g id="edge3" class="edge"><title>Node4&#45;&gt;Node3</title>
<path fill="none" stroke="#9a32cd" stroke-dasharray="5,2" d="M745.765,-399.293C761.351,-390.425 780.292,-380.285 798,-372.5 857.314,-346.423 893.226,-374.167 936,-325.5 962.642,-295.188 924.681,-264.231 954,-236.5 1011.42,-182.188 1227.87,-197.438 1306,-185.5 1330.92,-181.693 1337.14,-180.666 1362,-176.5 1367.83,-175.523 1373.88,-174.496 1379.95,-173.456"/>
<polygon fill="#9a32cd" stroke="#9a32cd" points="743.926,-396.313 737.01,-404.339 747.422,-402.377 743.926,-396.313"/>
<text text-anchor="middle" x="1130" y="-199.5" font-family="Helvetica,sans-Serif" font-size="10.00"> _dlamch</text>
</g>
<!-- Node16 -->
<g id="node16" class="node"><title>Node16</title>
<g id="a_node16"><a xlink:href="../../d9/d44/classDotNumerics_1_1LinearAlgebra_1_1CSLapack_1_1DLASD4.html" target="_top" xlink:title="– LAPACK auxiliary routine (version 3.1) – Univ. of Tennessee, Univ. of California Berkeley and NAG L...">
<polygon fill="white" stroke="black" points="1168,-529.5 1168,-559.5 1306,-559.5 1306,-529.5 1168,-529.5"/>
<text text-anchor="start" x="1176" y="-547.5" font-family="Helvetica,sans-Serif" font-size="10.00">DotNumerics.LinearAlgebra.</text>
<text text-anchor="middle" x="1237" y="-536.5" font-family="Helvetica,sans-Serif" font-size="10.00">CSLapack.DLASD4</text>
</a>
</g>
</g>
<!-- Node4&#45;&gt;Node16 -->
<g id="edge20" class="edge"><title>Node4&#45;&gt;Node16</title>
<path fill="none" stroke="#9a32cd" stroke-dasharray="5,2" d="M753.791,-438.514C767.647,-444.274 783.29,-450.205 798,-454.5 925.528,-491.735 962.159,-480.375 1092,-508.5 1120.96,-514.774 1152.96,-522.676 1179.43,-529.477"/>
<polygon fill="#9a32cd" stroke="#9a32cd" points="755.09,-435.263 744.517,-434.575 752.353,-441.706 755.09,-435.263"/>
<text text-anchor="middle" x="1023" y="-511.5" font-family="Helvetica,sans-Serif" font-size="10.00"> _dlamch</text>
</g>
<!-- Node18 -->
<g id="node18" class="node"><title>Node18</title>
<g id="a_node18"><a xlink:href="../../de/d85/classDotNumerics_1_1LinearAlgebra_1_1CSLapack_1_1DLAED6.html" target="_top" xlink:title="– LAPACK routine (version 3.1.1) – Univ. of Tennessee, Univ. of California Berkeley and NAG Ltd....">
<polygon fill="white" stroke="black" points="954,-432.5 954,-462.5 1092,-462.5 1092,-432.5 954,-432.5"/>
<text text-anchor="start" x="962" y="-450.5" font-family="Helvetica,sans-Serif" font-size="10.00">DotNumerics.LinearAlgebra.</text>
<text text-anchor="middle" x="1023" y="-439.5" font-family="Helvetica,sans-Serif" font-size="10.00">CSLapack.DLAED6</text>
</a>
</g>
</g>
<!-- Node4&#45;&gt;Node18 -->
<g id="edge23" class="edge"><title>Node4&#45;&gt;Node18</title>
<path fill="none" stroke="#9a32cd" stroke-dasharray="5,2" d="M790.234,-426.566C840.651,-431.12 905.564,-436.983 953.861,-441.345"/>
<polygon fill="#9a32cd" stroke="#9a32cd" points="790.305,-423.059 780.031,-425.645 789.675,-430.03 790.305,-423.059"/>
<text text-anchor="middle" x="867" y="-442.5" font-family="Helvetica,sans-Serif" font-size="10.00"> _dlamch</text>
</g>
<!-- Node19 -->
<g id="node19" class="node"><title>Node19</title>
<g id="a_node19"><a xlink:href="../../d5/d57/classDotNumerics_1_1LinearAlgebra_1_1CSLapack_1_1DLASCL.html" target="_top" xlink:title="– LAPACK auxiliary routine (version 3.1) – Univ. of Tennessee, Univ. of California Berkeley and NAG L...">
<polygon fill="white" stroke="black" points="1168,-334.5 1168,-364.5 1306,-364.5 1306,-334.5 1168,-334.5"/>
<text text-anchor="start" x="1176" y="-352.5" font-family="Helvetica,sans-Serif" font-size="10.00">DotNumerics.LinearAlgebra.</text>
<text text-anchor="middle" x="1237" y="-341.5" font-family="Helvetica,sans-Serif" font-size="10.00">CSLapack.DLASCL</text>
</a>
</g>
</g>
<!-- Node4&#45;&gt;Node19 -->
<g id="edge27" class="edge"><title>Node4&#45;&gt;Node19</title>
<path fill="none" stroke="#9a32cd" stroke-dasharray="5,2" d="M789.878,-402.585C837.152,-392.845 898.82,-381.072 954,-373.5 1026.78,-363.514 1110.72,-357.006 1167.98,-353.32"/>
<polygon fill="#9a32cd" stroke="#9a32cd" points="789.097,-399.172 780.016,-404.63 790.518,-406.027 789.097,-399.172"/>
<text text-anchor="middle" x="1023" y="-376.5" font-family="Helvetica,sans-Serif" font-size="10.00"> _dlamch</text>
</g>
<!-- Node5 -->
<g id="node5" class="node"><title>Node5</title>
<g id="a_node5"><a xlink:href="../../dd/dac/classDotNumerics_1_1LinearAlgebra_1_1CSLapack_1_1LSAME.html" target="_top" xlink:title="– LAPACK auxiliary routine (version 3.1) – Univ. of Tennessee, Univ. of California Berkeley and NAG L...">
<polygon fill="white" stroke="black" points="428,-404.5 428,-434.5 566,-434.5 566,-404.5 428,-404.5"/>
<text text-anchor="start" x="436" y="-422.5" font-family="Helvetica,sans-Serif" font-size="10.00">DotNumerics.LinearAlgebra.</text>
<text text-anchor="middle" x="497" y="-411.5" font-family="Helvetica,sans-Serif" font-size="10.00">CSLapack.LSAME</text>
</a>
</g>
</g>
<!-- Node5&#45;&gt;Node4 -->
<g id="edge4" class="edge"><title>Node5&#45;&gt;Node4</title>
<path fill="none" stroke="#9a32cd" stroke-dasharray="5,2" d="M576.328,-419.5C597.843,-419.5 620.993,-419.5 641.883,-419.5"/>
<polygon fill="#9a32cd" stroke="#9a32cd" points="576.245,-416 566.245,-419.5 576.245,-423 576.245,-416"/>
<text text-anchor="middle" x="604" y="-422.5" font-family="Helvetica,sans-Serif" font-size="10.00"> _lsame</text>
</g>
<!-- Node5&#45;&gt;Node19 -->
<g id="edge29" class="edge"><title>Node5&#45;&gt;Node19</title>
<path fill="none" stroke="#9a32cd" stroke-dasharray="5,2" d="M570.605,-402.238C631.065,-388.643 719.625,-370.53 798,-361.5 935.826,-345.62 971.292,-354.379 1110,-351.5 1128.81,-351.11 1149.2,-350.756 1167.99,-350.458"/>
<polygon fill="#9a32cd" stroke="#9a32cd" points="569.755,-398.841 560.775,-404.464 571.301,-405.668 569.755,-398.841"/>
<text text-anchor="middle" x="867" y="-364.5" font-family="Helvetica,sans-Serif" font-size="10.00"> _lsame</text>
</g>
<!-- Node23 -->
<g id="node23" class="node"><title>Node23</title>
<g id="a_node23"><a xlink:href="../../d8/dd1/classDotNumerics_1_1LinearAlgebra_1_1CSLapack_1_1DLASET.html" target="_top" xlink:title="– LAPACK auxiliary routine (version 3.1) – Univ. of Tennessee, Univ. of California Berkeley and NAG L...">
<polygon fill="white" stroke="black" points="798,-544.5 798,-574.5 936,-574.5 936,-544.5 798,-544.5"/>
<text text-anchor="start" x="806" y="-562.5" font-family="Helvetica,sans-Serif" font-size="10.00">DotNumerics.LinearAlgebra.</text>
<text text-anchor="middle" x="867" y="-551.5" font-family="Helvetica,sans-Serif" font-size="10.00">CSLapack.DLASET</text>
</a>
</g>
</g>
<!-- Node5&#45;&gt;Node23 -->
<g id="edge35" class="edge"><title>Node5&#45;&gt;Node23</title>
<path fill="none" stroke="#9a32cd" stroke-dasharray="5,2" d="M553.523,-437.75C575.555,-445.174 601.063,-453.996 624,-462.5 697.846,-489.879 783.106,-524.851 830.148,-544.446"/>
<polygon fill="#9a32cd" stroke="#9a32cd" points="554.583,-434.414 543.989,-434.552 552.357,-441.051 554.583,-434.414"/>
<text text-anchor="middle" x="604" y="-465.5" font-family="Helvetica,sans-Serif" font-size="10.00"> _lsame</text>
</g>
<!-- Node6 -->
<g id="node6" class="node"><title>Node6</title>
<g id="a_node6"><a xlink:href="../../dc/ddd/classDotNumerics_1_1LinearAlgebra_1_1CSLapack_1_1DLAMC2.html" target="_top" xlink:title="– LAPACK auxiliary routine (version 3.1) – Univ. of Tennessee, Univ. of California Berkeley and NAG L...">
<polygon fill="white" stroke="black" points="428,-482.5 428,-512.5 566,-512.5 566,-482.5 428,-482.5"/>
<text text-anchor="start" x="436" y="-500.5" font-family="Helvetica,sans-Serif" font-size="10.00">DotNumerics.LinearAlgebra.</text>
<text text-anchor="middle" x="497" y="-489.5" font-family="Helvetica,sans-Serif" font-size="10.00">CSLapack.DLAMC2</text>
</a>
</g>
</g>
<!-- Node6&#45;&gt;Node4 -->
<g id="edge5" class="edge"><title>Node6&#45;&gt;Node4</title>
<path fill="none" stroke="#9a32cd" stroke-dasharray="5,2" d="M576.066,-488.933C592.247,-485.763 608.942,-481.428 624,-475.5 649.365,-465.515 675.13,-447.462 691.756,-434.552"/>
<polygon fill="#9a32cd" stroke="#9a32cd" points="575.285,-485.518 566.078,-490.76 576.544,-492.403 575.285,-485.518"/>
<text text-anchor="middle" x="604" y="-490.5" font-family="Helvetica,sans-Serif" font-size="10.00"> _dlamc2</text>
</g>
<!-- Node7 -->
<g id="node7" class="node"><title>Node7</title>
<g id="a_node7"><a xlink:href="../../d5/db1/classDotNumerics_1_1LinearAlgebra_1_1CSLapack_1_1DLAMC1.html" target="_top" xlink:title="– LAPACK auxiliary routine (version 3.1) – Univ. of Tennessee, Univ. of California Berkeley and NAG L...">
<polygon fill="white" stroke="black" points="214,-421.5 214,-451.5 352,-451.5 352,-421.5 214,-421.5"/>
<text text-anchor="start" x="222" y="-439.5" font-family="Helvetica,sans-Serif" font-size="10.00">DotNumerics.LinearAlgebra.</text>
<text text-anchor="middle" x="283" y="-428.5" font-family="Helvetica,sans-Serif" font-size="10.00">CSLapack.DLAMC1</text>
</a>
</g>
</g>
<!-- Node7&#45;&gt;Node6 -->
<g id="edge6" class="edge"><title>Node7&#45;&gt;Node6</title>
<path fill="none" stroke="#9a32cd" stroke-dasharray="5,2" d="M362.058,-451.12C378.041,-454.702 394.661,-458.859 410,-463.5 427.365,-468.754 446.156,-475.994 461.731,-482.443"/>
<polygon fill="#9a32cd" stroke="#9a32cd" points="362.722,-447.683 352.205,-448.965 361.227,-454.521 362.722,-447.683"/>
<text text-anchor="middle" x="390" y="-466.5" font-family="Helvetica,sans-Serif" font-size="10.00"> _dlamc1</text>
</g>
<!-- Node8 -->
<g id="node8" class="node"><title>Node8</title>
<g id="a_node8"><a xlink:href="../../db/dbb/classDotNumerics_1_1LinearAlgebra_1_1CSLapack_1_1DLAMC3.html" target="_top" xlink:title="– LAPACK auxiliary routine (version 3.1) – Univ. of Tennessee, Univ. of California Berkeley and NAG L...">
<polygon fill="white" stroke="black" points="0,-518.5 0,-548.5 138,-548.5 138,-518.5 0,-518.5"/>
<text text-anchor="start" x="8" y="-536.5" font-family="Helvetica,sans-Serif" font-size="10.00">DotNumerics.LinearAlgebra.</text>
<text text-anchor="middle" x="69" y="-525.5" font-family="Helvetica,sans-Serif" font-size="10.00">CSLapack.DLAMC3</text>
</a>
</g>
</g>
<!-- Node8&#45;&gt;Node6 -->
<g id="edge8" class="edge"><title>Node8&#45;&gt;Node6</title>
<path fill="none" stroke="#9a32cd" stroke-dasharray="5,2" d="M127.505,-515.692C153.623,-508.497 185.084,-501.06 214,-497.5 286.644,-488.557 370.615,-490.059 427.909,-492.857"/>
<polygon fill="#9a32cd" stroke="#9a32cd" points="126.452,-512.352 117.773,-518.429 128.347,-519.091 126.452,-512.352"/>
<text text-anchor="middle" x="283" y="-500.5" font-family="Helvetica,sans-Serif" font-size="10.00"> _dlamc3</text>
</g>
<!-- Node8&#45;&gt;Node7 -->
<g id="edge7" class="edge"><title>Node8&#45;&gt;Node7</title>
<path fill="none" stroke="#9a32cd" stroke-dasharray="5,2" d="M91.3793,-511.184C107.654,-495.507 131.386,-475.303 156,-463.5 173.852,-454.939 194.42,-449.071 213.692,-445.056"/>
<polygon fill="#9a32cd" stroke="#9a32cd" points="88.6698,-508.941 84.0174,-518.46 93.5903,-513.92 88.6698,-508.941"/>
<text text-anchor="middle" x="176" y="-466.5" font-family="Helvetica,sans-Serif" font-size="10.00"> _dlamc3</text>
</g>
<!-- Node9 -->
<g id="node9" class="node"><title>Node9</title>
<g id="a_node9"><a xlink:href="../../de/dd1/classDotNumerics_1_1LinearAlgebra_1_1CSLapack_1_1DLAMC4.html" target="_top" xlink:title="– LAPACK auxiliary routine (version 3.1) – Univ. of Tennessee, Univ. of California Berkeley and NAG L...">
<polygon fill="white" stroke="black" points="214,-567.5 214,-597.5 352,-597.5 352,-567.5 214,-567.5"/>
<text text-anchor="start" x="222" y="-585.5" font-family="Helvetica,sans-Serif" font-size="10.00">DotNumerics.LinearAlgebra.</text>
<text text-anchor="middle" x="283" y="-574.5" font-family="Helvetica,sans-Serif" font-size="10.00">CSLapack.DLAMC4</text>
</a>
</g>
</g>
<!-- Node8&#45;&gt;Node9 -->
<g id="edge10" class="edge"><title>Node8&#45;&gt;Node9</title>
<path fill="none" stroke="#9a32cd" stroke-dasharray="5,2" d="M144.983,-550.831C168.52,-556.271 194.295,-562.229 217.075,-567.494"/>
<polygon fill="#9a32cd" stroke="#9a32cd" points="145.579,-547.377 135.048,-548.535 144.003,-554.197 145.579,-547.377"/>
<text text-anchor="middle" x="176" y="-564.5" font-family="Helvetica,sans-Serif" font-size="10.00"> _dlamc3</text>
</g>
<!-- Node10 -->
<g id="node10" class="node"><title>Node10</title>
<g id="a_node10"><a xlink:href="../../d7/d30/classDotNumerics_1_1LinearAlgebra_1_1CSLapack_1_1DLAMC5.html" target="_top" xlink:title="– LAPACK auxiliary routine (version 3.1) – Univ. of Tennessee, Univ. of California Berkeley and NAG L...">
<polygon fill="white" stroke="black" points="214,-518.5 214,-548.5 352,-548.5 352,-518.5 214,-518.5"/>
<text text-anchor="start" x="222" y="-536.5" font-family="Helvetica,sans-Serif" font-size="10.00">DotNumerics.LinearAlgebra.</text>
<text text-anchor="middle" x="283" y="-525.5" font-family="Helvetica,sans-Serif" font-size="10.00">CSLapack.DLAMC5</text>
</a>
</g>
</g>
<!-- Node8&#45;&gt;Node10 -->
<g id="edge12" class="edge"><title>Node8&#45;&gt;Node10</title>
<path fill="none" stroke="#9a32cd" stroke-dasharray="5,2" d="M148.328,-533.5C169.843,-533.5 192.993,-533.5 213.883,-533.5"/>
<polygon fill="#9a32cd" stroke="#9a32cd" points="148.245,-530 138.245,-533.5 148.245,-537 148.245,-530"/>
<text text-anchor="middle" x="176" y="-536.5" font-family="Helvetica,sans-Serif" font-size="10.00"> _dlamc3</text>
</g>
<!-- Node8&#45;&gt;Node15 -->
<g id="edge33" class="edge"><title>Node8&#45;&gt;Node15</title>
<path fill="none" stroke="#9a32cd" stroke-dasharray="5,2" d="M97.7129,-554.554C136.661,-581.989 210.819,-626.5 282,-626.5 282,-626.5 282,-626.5 1238,-626.5 1339.08,-626.5 1415.92,-504.798 1440.04,-461.537"/>
<polygon fill="#9a32cd" stroke="#9a32cd" points="99.6597,-551.643 89.4967,-548.649 95.5743,-557.327 99.6597,-551.643"/>
<text text-anchor="middle" x="711" y="-629.5" font-family="Helvetica,sans-Serif" font-size="10.00"> _dlamc3</text>
</g>
<!-- Node9&#45;&gt;Node6 -->
<g id="edge9" class="edge"><title>Node9&#45;&gt;Node6</title>
<path fill="none" stroke="#9a32cd" stroke-dasharray="5,2" d="M337.247,-564.012C342.247,-562.184 347.227,-560.328 352,-558.5 390.158,-543.883 433.219,-525.37 462.23,-512.594"/>
<polygon fill="#9a32cd" stroke="#9a32cd" points="335.872,-560.787 327.657,-567.478 338.251,-567.37 335.872,-560.787"/>
<text text-anchor="middle" x="390" y="-553.5" font-family="Helvetica,sans-Serif" font-size="10.00"> _dlamc4</text>
</g>
<!-- Node10&#45;&gt;Node6 -->
<g id="edge11" class="edge"><title>Node10&#45;&gt;Node6</title>
<path fill="none" stroke="#9a32cd" stroke-dasharray="5,2" d="M362.328,-520.199C383.843,-516.546 406.993,-512.614 427.883,-509.067"/>
<polygon fill="#9a32cd" stroke="#9a32cd" points="361.518,-516.786 352.245,-521.911 362.69,-523.688 361.518,-516.786"/>
<text text-anchor="middle" x="390" y="-522.5" font-family="Helvetica,sans-Serif" font-size="10.00"> _dlamc5</text>
</g>
<!-- Node11 -->
<g id="node11" class="node"><title>Node11</title>
<g id="a_node11"><a xlink:href="../../d1/dbf/classDotNumerics_1_1LinearAlgebra_1_1CSLapack_1_1DLAPY2.html" target="_top" xlink:title="– LAPACK auxiliary routine (version 3.1) – Univ. of Tennessee, Univ. of California Berkeley and NAG L...">
<polygon fill="white" stroke="black" points="1168,-49.5 1168,-79.5 1306,-79.5 1306,-49.5 1168,-49.5"/>
<text text-anchor="start" x="1176" y="-67.5" font-family="Helvetica,sans-Serif" font-size="10.00">DotNumerics.LinearAlgebra.</text>
<text text-anchor="middle" x="1237" y="-56.5" font-family="Helvetica,sans-Serif" font-size="10.00">CSLapack.DLAPY2</text>
</a>
</g>
</g>
<!-- Node11&#45;&gt;Node3 -->
<g id="edge14" class="edge"><title>Node11&#45;&gt;Node3</title>
<path fill="none" stroke="#9a32cd" stroke-dasharray="5,2" d="M1316.36,-75.7289C1331.93,-79.561 1347.83,-84.6778 1362,-91.5 1390.62,-105.282 1418.07,-130.378 1433.97,-146.477"/>
<polygon fill="#9a32cd" stroke="#9a32cd" points="1316.72,-72.2218 1306.19,-73.3912 1315.15,-79.0437 1316.72,-72.2218"/>
<text text-anchor="middle" x="1343" y="-94.5" font-family="Helvetica,sans-Serif" font-size="10.00"> _dlapy2</text>
</g>
<!-- Node12 -->
<g id="node12" class="node"><title>Node12</title>
<g id="a_node12"><a xlink:href="../../db/d6a/classDotNumerics_1_1LinearAlgebra_1_1CSLapack_1_1XERBLA.html" target="_top" xlink:title="– LAPACK auxiliary routine (version 3.1) – Univ. of Tennessee, Univ. of California Berkeley and NAG L...">
<polygon fill="white" stroke="black" points="954,-246.5 954,-276.5 1092,-276.5 1092,-246.5 954,-246.5"/>
<text text-anchor="start" x="962" y="-264.5" font-family="Helvetica,sans-Serif" font-size="10.00">DotNumerics.LinearAlgebra.</text>
<text text-anchor="middle" x="1023" y="-253.5" font-family="Helvetica,sans-Serif" font-size="10.00">CSLapack.XERBLA</text>
</a>
</g>
</g>
<!-- Node12&#45;&gt;Node1 -->
<g id="edge36" class="edge"><title>Node12&#45;&gt;Node1</title>
<path fill="none" stroke="#9a32cd" stroke-dasharray="5,2" d="M1102.49,-249.354C1170.95,-240.168 1272.95,-229.865 1362,-234.5 1440.69,-238.596 1530.64,-248.757 1590.74,-256.336"/>
<polygon fill="#9a32cd" stroke="#9a32cd" points="1101.66,-245.936 1092.22,-250.758 1102.61,-252.871 1101.66,-245.936"/>
<text text-anchor="middle" x="1343" y="-237.5" font-family="Helvetica,sans-Serif" font-size="10.00"> _xerbla</text>
</g>
<!-- Node12&#45;&gt;Node3 -->
<g id="edge15" class="edge"><title>Node12&#45;&gt;Node3</title>
<path fill="none" stroke="#9a32cd" stroke-dasharray="5,2" d="M1091.18,-243.448C1116.65,-235.311 1141.56,-225.334 1150,-215.5 1176.56,-184.54 1136.45,-151.362 1168,-125.5 1242.29,-64.5977 1366.95,-118.055 1421.31,-146.458"/>
<polygon fill="#9a32cd" stroke="#9a32cd" points="1089.94,-240.168 1081.43,-246.472 1092.02,-246.854 1089.94,-240.168"/>
<text text-anchor="middle" x="1237" y="-128.5" font-family="Helvetica,sans-Serif" font-size="10.00"> _xerbla</text>
</g>
<!-- Node12&#45;&gt;Node15 -->
<g id="edge25" class="edge"><title>Node12&#45;&gt;Node15</title>
<path fill="none" stroke="#9a32cd" stroke-dasharray="5,2" d="M1046.25,-283.593C1072.96,-308.906 1120.17,-349.919 1168,-373.5 1173.05,-375.989 1308.3,-410.782 1388.95,-431.421"/>
<polygon fill="#9a32cd" stroke="#9a32cd" points="1048.59,-280.991 1038.96,-276.588 1043.75,-286.039 1048.59,-280.991"/>
<text text-anchor="middle" x="1237" y="-412.5" font-family="Helvetica,sans-Serif" font-size="10.00"> _xerbla</text>
</g>
<!-- Node12&#45;&gt;Node19 -->
<g id="edge28" class="edge"><title>Node12&#45;&gt;Node19</title>
<path fill="none" stroke="#9a32cd" stroke-dasharray="5,2" d="M1102,-267.747C1118.96,-271.851 1136,-278.338 1150,-288.5 1162.89,-297.859 1156.13,-308.874 1168,-319.5 1174.63,-325.438 1182.63,-330.355 1190.78,-334.369"/>
<polygon fill="#9a32cd" stroke="#9a32cd" points="1102.56,-264.287 1092.04,-265.596 1101.08,-271.129 1102.56,-264.287"/>
<text text-anchor="middle" x="1130" y="-291.5" font-family="Helvetica,sans-Serif" font-size="10.00"> _xerbla</text>
</g>
<!-- Node13 -->
<g id="node13" class="node"><title>Node13</title>
<g id="a_node13"><a xlink:href="../../de/d74/classDotNumerics_1_1LinearAlgebra_1_1CSLapack_1_1DROT.html" target="_top" xlink:title=" ">
<polygon fill="white" stroke="black" points="1168,-146.5 1168,-176.5 1306,-176.5 1306,-146.5 1168,-146.5"/>
<text text-anchor="start" x="1176" y="-164.5" font-family="Helvetica,sans-Serif" font-size="10.00">DotNumerics.LinearAlgebra.</text>
<text text-anchor="middle" x="1237" y="-153.5" font-family="Helvetica,sans-Serif" font-size="10.00">CSLapack.DROT</text>
</a>
</g>
</g>
<!-- Node13&#45;&gt;Node3 -->
<g id="edge16" class="edge"><title>Node13&#45;&gt;Node3</title>
<path fill="none" stroke="#9a32cd" stroke-dasharray="5,2" d="M1316.29,-161.5C1337.15,-161.5 1359.53,-161.5 1379.8,-161.5"/>
<polygon fill="#9a32cd" stroke="#9a32cd" points="1316.18,-158 1306.18,-161.5 1316.18,-165 1316.18,-158"/>
<text text-anchor="middle" x="1343" y="-164.5" font-family="Helvetica,sans-Serif" font-size="10.00"> _drot</text>
</g>
<!-- Node14 -->
<g id="node14" class="node"><title>Node14</title>
<g id="a_node14"><a xlink:href="../../d0/d5e/classDotNumerics_1_1LinearAlgebra_1_1CSLapack_1_1DLAMRG.html" target="_top" xlink:title="– LAPACK routine (version 3.1) – Univ. of Tennessee, Univ. of California Berkeley and NAG Ltd....">
<polygon fill="white" stroke="black" points="1168,-0.5 1168,-30.5 1306,-30.5 1306,-0.5 1168,-0.5"/>
<text text-anchor="start" x="1176" y="-18.5" font-family="Helvetica,sans-Serif" font-size="10.00">DotNumerics.LinearAlgebra.</text>
<text text-anchor="middle" x="1237" y="-7.5" font-family="Helvetica,sans-Serif" font-size="10.00">CSLapack.DLAMRG</text>
</a>
</g>
</g>
<!-- Node14&#45;&gt;Node1 -->
<g id="edge38" class="edge"><title>Node14&#45;&gt;Node1</title>
<path fill="none" stroke="#9a32cd" stroke-dasharray="5,2" d="M1316.33,-26.0297C1331.72,-29.21 1347.55,-33.2911 1362,-38.5 1436.68,-65.4278 1454.58,-77.7549 1518,-125.5 1570.36,-164.919 1622.67,-222.943 1646.16,-250.242"/>
<polygon fill="#9a32cd" stroke="#9a32cd" points="1316.8,-22.5539 1306.31,-24.0671 1315.45,-29.4235 1316.8,-22.5539"/>
<text text-anchor="middle" x="1449" y="-128.5" font-family="Helvetica,sans-Serif" font-size="10.00"> _dlamrg</text>
</g>
<!-- Node14&#45;&gt;Node3 -->
<g id="edge17" class="edge"><title>Node14&#45;&gt;Node3</title>
<path fill="none" stroke="#9a32cd" stroke-dasharray="5,2" d="M1304.06,-33.9104C1323.79,-41.2394 1344.74,-50.9754 1362,-63.5 1394.61,-87.1633 1423.45,-125.299 1438,-146.341"/>
<polygon fill="#9a32cd" stroke="#9a32cd" points="1305.09,-30.5615 1294.49,-30.5042 1302.74,-37.1559 1305.09,-30.5615"/>
<text text-anchor="middle" x="1343" y="-66.5" font-family="Helvetica,sans-Serif" font-size="10.00"> _dlamrg</text>
</g>
<!-- Node15&#45;&gt;Node1 -->
<g id="edge18" class="edge"><title>Node15&#45;&gt;Node1</title>
<path fill="none" stroke="#9a32cd" stroke-dasharray="5,2" d="M1488.06,-426.465C1513.49,-412.125 1546.93,-391.372 1573,-368.5 1604.17,-341.154 1633.57,-302.04 1648.6,-280.743"/>
<polygon fill="#9a32cd" stroke="#9a32cd" points="1486.12,-423.536 1479.08,-431.45 1489.52,-429.656 1486.12,-423.536"/>
<text text-anchor="middle" x="1554.5" y="-398.5" font-family="Helvetica,sans-Serif" font-size="10.00"> _dlasd8</text>
</g>
<!-- Node16&#45;&gt;Node15 -->
<g id="edge19" class="edge"><title>Node16&#45;&gt;Node15</title>
<path fill="none" stroke="#9a32cd" stroke-dasharray="5,2" d="M1291.17,-525.667C1296.22,-523.666 1301.23,-521.595 1306,-519.5 1346.99,-501.508 1392.78,-477.164 1420.99,-461.643"/>
<polygon fill="#9a32cd" stroke="#9a32cd" points="1289.55,-522.544 1281.48,-529.416 1292.07,-529.072 1289.55,-522.544"/>
<text text-anchor="middle" x="1343" y="-514.5" font-family="Helvetica,sans-Serif" font-size="10.00"> _dlasd4</text>
</g>
<!-- Node17 -->
<g id="node17" class="node"><title>Node17</title>
<g id="a_node17"><a xlink:href="../../d7/dbb/classDotNumerics_1_1LinearAlgebra_1_1CSLapack_1_1DLASD5.html" target="_top" xlink:title="– LAPACK auxiliary routine (version 3.1) – Univ. of Tennessee, Univ. of California Berkeley and NAG L...">
<polygon fill="white" stroke="black" points="954,-529.5 954,-559.5 1092,-559.5 1092,-529.5 954,-529.5"/>
<text text-anchor="start" x="962" y="-547.5" font-family="Helvetica,sans-Serif" font-size="10.00">DotNumerics.LinearAlgebra.</text>
<text text-anchor="middle" x="1023" y="-536.5" font-family="Helvetica,sans-Serif" font-size="10.00">CSLapack.DLASD5</text>
</a>
</g>
</g>
<!-- Node17&#45;&gt;Node16 -->
<g id="edge21" class="edge"><title>Node17&#45;&gt;Node16</title>
<path fill="none" stroke="#9a32cd" stroke-dasharray="5,2" d="M1102.33,-544.5C1123.84,-544.5 1146.99,-544.5 1167.88,-544.5"/>
<polygon fill="#9a32cd" stroke="#9a32cd" points="1102.25,-541 1092.25,-544.5 1102.25,-548 1102.25,-541"/>
<text text-anchor="middle" x="1130" y="-547.5" font-family="Helvetica,sans-Serif" font-size="10.00"> _dlasd5</text>
</g>
<!-- Node18&#45;&gt;Node16 -->
<g id="edge22" class="edge"><title>Node18&#45;&gt;Node16</title>
<path fill="none" stroke="#9a32cd" stroke-dasharray="5,2" d="M1102.31,-452.098C1119.5,-456.246 1136.56,-463.166 1150,-474.5 1166.47,-488.388 1152.56,-504.485 1168,-519.5 1171.97,-523.358 1176.58,-526.628 1181.5,-529.399"/>
<polygon fill="#9a32cd" stroke="#9a32cd" points="1102.71,-448.605 1092.2,-449.964 1101.26,-455.454 1102.71,-448.605"/>
<text text-anchor="middle" x="1130" y="-477.5" font-family="Helvetica,sans-Serif" font-size="10.00"> _dlaed6</text>
</g>
<!-- Node19&#45;&gt;Node1 -->
<g id="edge37" class="edge"><title>Node19&#45;&gt;Node1</title>
<path fill="none" stroke="#9a32cd" stroke-dasharray="5,2" d="M1316.52,-345.871C1331.67,-344.587 1347.37,-342.85 1362,-340.5 1457.47,-325.165 1479.27,-311.259 1573,-287.5 1581.81,-285.266 1591.13,-282.893 1600.26,-280.564"/>
<polygon fill="#9a32cd" stroke="#9a32cd" points="1315.84,-342.414 1306.14,-346.689 1316.39,-349.392 1315.84,-342.414"/>
<text text-anchor="middle" x="1449" y="-340.5" font-family="Helvetica,sans-Serif" font-size="10.00"> _dlascl</text>
</g>
<!-- Node19&#45;&gt;Node15 -->
<g id="edge26" class="edge"><title>Node19&#45;&gt;Node15</title>
<path fill="none" stroke="#9a32cd" stroke-dasharray="5,2" d="M1307.89,-367.611C1325.92,-373.322 1345.02,-380.317 1362,-388.5 1386.66,-400.383 1412.35,-418.602 1429.16,-431.444"/>
<polygon fill="#9a32cd" stroke="#9a32cd" points="1308.59,-364.164 1298,-364.57 1306.53,-370.855 1308.59,-364.164"/>
<text text-anchor="middle" x="1343" y="-391.5" font-family="Helvetica,sans-Serif" font-size="10.00"> _dlascl</text>
</g>
<!-- Node20 -->
<g id="node20" class="node"><title>Node20</title>
<g id="a_node20"><a xlink:href="../../de/d1b/classDotNumerics_1_1LinearAlgebra_1_1CSLapack_1_1DDOT.html" target="_top" xlink:title=" ">
<polygon fill="white" stroke="black" points="1168,-431.5 1168,-461.5 1306,-461.5 1306,-431.5 1168,-431.5"/>
<text text-anchor="start" x="1176" y="-449.5" font-family="Helvetica,sans-Serif" font-size="10.00">DotNumerics.LinearAlgebra.</text>
<text text-anchor="middle" x="1237" y="-438.5" font-family="Helvetica,sans-Serif" font-size="10.00">CSLapack.DDOT</text>
</a>
</g>
</g>
<!-- Node20&#45;&gt;Node15 -->
<g id="edge30" class="edge"><title>Node20&#45;&gt;Node15</title>
<path fill="none" stroke="#9a32cd" stroke-dasharray="5,2" d="M1316.29,-446.5C1337.15,-446.5 1359.53,-446.5 1379.8,-446.5"/>
<polygon fill="#9a32cd" stroke="#9a32cd" points="1316.18,-443 1306.18,-446.5 1316.18,-450 1316.18,-443"/>
<text text-anchor="middle" x="1343" y="-449.5" font-family="Helvetica,sans-Serif" font-size="10.00"> _ddot</text>
</g>
<!-- Node21 -->
<g id="node21" class="node"><title>Node21</title>
<g id="a_node21"><a xlink:href="../../d3/df8/classDotNumerics_1_1LinearAlgebra_1_1CSLapack_1_1DNRM2.html" target="_top" xlink:title=" ">
<polygon fill="white" stroke="black" points="1168,-480.5 1168,-510.5 1306,-510.5 1306,-480.5 1168,-480.5"/>
<text text-anchor="start" x="1176" y="-498.5" font-family="Helvetica,sans-Serif" font-size="10.00">DotNumerics.LinearAlgebra.</text>
<text text-anchor="middle" x="1237" y="-487.5" font-family="Helvetica,sans-Serif" font-size="10.00">CSLapack.DNRM2</text>
</a>
</g>
</g>
<!-- Node21&#45;&gt;Node15 -->
<g id="edge31" class="edge"><title>Node21&#45;&gt;Node15</title>
<path fill="none" stroke="#9a32cd" stroke-dasharray="5,2" d="M1312.28,-478.169C1335.59,-472.729 1361.12,-466.771 1383.69,-461.506"/>
<polygon fill="#9a32cd" stroke="#9a32cd" points="1311.38,-474.785 1302.43,-480.465 1312.97,-481.601 1311.38,-474.785"/>
<text text-anchor="middle" x="1343" y="-478.5" font-family="Helvetica,sans-Serif" font-size="10.00"> _dnrm2</text>
</g>
<!-- Node22 -->
<g id="node22" class="node"><title>Node22</title>
<g id="a_node22"><a xlink:href="../../d2/dbc/interfaceDotNumerics_1_1LinearAlgebra_1_1CSLapack_1_1IDNRM2.html" target="_top" xlink:title=" ">
<polygon fill="white" stroke="black" points="996.5,-394 996.5,-413 1049.5,-413 1049.5,-394 996.5,-394"/>
<text text-anchor="middle" x="1023" y="-401" font-family="Helvetica,sans-Serif" font-size="10.00">IDNRM2</text>
</a>
</g>
</g>
<!-- Node22&#45;&gt;Node21 -->
<g id="edge32" class="edge"><title>Node22&#45;&gt;Node21</title>
<path fill="none" stroke="midnightblue" d="M1059.41,-412.744C1069.96,-415.672 1081.5,-419.049 1092,-422.5 1118.19,-431.107 1128.29,-427.512 1150,-444.5 1161.07,-453.16 1156.89,-461.896 1168,-470.5 1172.97,-474.35 1178.6,-477.65 1184.43,-480.467"/>
<polygon fill="midnightblue" stroke="midnightblue" points="1060.24,-409.343 1049.67,-410.088 1058.4,-416.096 1060.24,-409.343"/>
</g>
<!-- Node23&#45;&gt;Node15 -->
<g id="edge34" class="edge"><title>Node23&#45;&gt;Node15</title>
<path fill="none" stroke="#9a32cd" stroke-dasharray="5,2" d="M942.843,-576.435C1031.98,-593.192 1184.12,-610.895 1306,-569.5 1365.6,-549.256 1416.05,-489.626 1437.26,-461.503"/>
<polygon fill="#9a32cd" stroke="#9a32cd" points="943.305,-572.96 932.824,-574.506 941.981,-579.834 943.305,-572.96"/>
<text text-anchor="middle" x="1130" y="-597.5" font-family="Helvetica,sans-Serif" font-size="10.00"> _dlaset</text>
</g>
</g>
</svg>
        <g id="navigator" transform="translate(0 0)" fill="#404254">
                <rect fill="#f2f5e9" fill-opacity="0.5" stroke="#606060" stroke-width=".5" x="0" y="0" width="60" height="60"/>
                <use id="zoomplus" xlink:href="#zoomPlus" x="17" y="9" onmousedown="handleZoom(evt,'in')"/>
                <use id="zoomminus" xlink:href="#zoomMin" x="42" y="9" onmousedown="handleZoom(evt,'out')"/>
                <use id="reset" xlink:href="#resetDef" x="30" y="36" onmousedown="handleReset()"/>
                <g id="arrowUp" xlink:href="#dirArrow" transform="translate(30 24)" onmousedown="handlePan(0,-1)">
                  <use xlink:href="#rim" fill="#404040">
                        <set attributeName="fill" to="#808080" begin="arrowUp.mouseover" end="arrowUp.mouseout"/>
                  </use>
                  <path fill="none" stroke="white" stroke-width="1.5" d="M0,-3.0v7 M-2.5,-0.5L0,-3.0L2.5,-0.5"/>
                </g>
                <g id="arrowRight" xlink:href="#dirArrow" transform="rotate(90) translate(36 -43)" onmousedown="handlePan(1,0)">
                  <use xlink:href="#rim" fill="#404040">
                        <set attributeName="fill" to="#808080" begin="arrowRight.mouseover" end="arrowRight.mouseout"/>
                  </use>
                  <path fill="none" stroke="white" stroke-width="1.5" d="M0,-3.0v7 M-2.5,-0.5L0,-3.0L2.5,-0.5"/>
                </g>
                <g id="arrowDown" xlink:href="#dirArrow" transform="rotate(180) translate(-30 -48)" onmousedown="handlePan(0,1)">
                  <use xlink:href="#rim" fill="#404040">
                        <set attributeName="fill" to="#808080" begin="arrowDown.mouseover" end="arrowDown.mouseout"/>
                  </use>
                  <path fill="none" stroke="white" stroke-width="1.5" d="M0,-3.0v7 M-2.5,-0.5L0,-3.0L2.5,-0.5"/>
                </g>
                <g id="arrowLeft" xlink:href="#dirArrow" transform="rotate(270) translate(-36 17)" onmousedown="handlePan(-1,0)">
                  <use xlink:href="#rim" fill="#404040">
                        <set attributeName="fill" to="#808080" begin="arrowLeft.mouseover" end="arrowLeft.mouseout"/>
                  </use>
                  <path fill="none" stroke="white" stroke-width="1.5" d="M0,-3.0v7 M-2.5,-0.5L0,-3.0L2.5,-0.5"/>
                </g>
        </g>
        <svg viewBox="0 0 15 15" width="100%" height="30px" preserveAspectRatio="xMaxYMin meet">
         <g id="arrow_out" transform="scale(0.3 0.3)">
          <a xlink:href="classDotNumerics_1_1LinearAlgebra_1_1CSLapack_1_1DLASD6__coll__graph_org.svg" target="_base">
           <rect id="button" ry="5" rx="5" y="6" x="6" height="38" width="38"
                fill="#f2f5e9" fill-opacity="0.5" stroke="#606060" stroke-width="1.0"/>
           <path id="arrow"
             d="M 11.500037,31.436501 C 11.940474,20.09759 22.043105,11.32322 32.158766,21.979434 L 37.068811,17.246167 C 37.068811,17.246167 37.088388,32 37.088388,32 L 22.160133,31.978069 C 22.160133,31.978069 26.997745,27.140456 26.997745,27.140456 C 18.528582,18.264221 13.291696,25.230495 11.500037,31.436501 z"
             style="fill:#404040;"/>
          </a>
         </g>
        </svg>
</svg>
