<?xml version="1.0" encoding="UTF-8" standalone="no"?>
<!DOCTYPE svg PUBLIC "-//W3C//DTD SVG 1.1//EN"
 "http://www.w3.org/Graphics/SVG/1.1/DTD/svg11.dtd">
<!-- Generated by graphviz version 2.38.0 (20140413.2041)
 -->
<!-- Title: IG.Forms.ImageViewerForm Pages: 1 -->
<svg width="370pt" height="272pt"
 viewBox="0.00 0.00 369.50 272.00" xmlns="http://www.w3.org/2000/svg" xmlns:xlink="http://www.w3.org/1999/xlink">
<g id="graph0" class="graph" transform="scale(1 1) rotate(0) translate(4 268)">
<title>IG.Forms.ImageViewerForm</title>
<polygon fill="white" stroke="none" points="-4,4 -4,-268 365.5,-268 365.5,4 -4,4"/>
<!-- Node1 -->
<g id="node1" class="node"><title>Node1</title>
<g id="a_node1"><a xlink:title=" ">
<polygon fill="#bfbfbf" stroke="black" points="6.5,-0.5 6.5,-19.5 144.5,-19.5 144.5,-0.5 6.5,-0.5"/>
<text text-anchor="middle" x="75.5" y="-7.5" font-family="Helvetica,sans-Serif" font-size="10.00">IG.Forms.ImageViewerForm</text>
</a>
</g>
</g>
<!-- Node2 -->
<g id="node2" class="node"><title>Node2</title>
<g id="a_node2"><a xlink:title=" ">
<polygon fill="white" stroke="#bfbfbf" points="0,-67.5 0,-86.5 39,-86.5 39,-67.5 0,-67.5"/>
<text text-anchor="middle" x="19.5" y="-74.5" font-family="Helvetica,sans-Serif" font-size="10.00">Form</text>
</a>
</g>
</g>
<!-- Node2&#45;&gt;Node1 -->
<g id="edge1" class="edge"><title>Node2&#45;&gt;Node1</title>
<path fill="none" stroke="midnightblue" d="M33.5992,-59.6348C44.5512,-46.9228 59.305,-29.7978 68.0672,-19.6273"/>
<polygon fill="midnightblue" stroke="midnightblue" points="30.9279,-57.3732 27.0524,-67.2338 36.2312,-61.9422 30.9279,-57.3732"/>
</g>
<!-- Node3 -->
<g id="node3" class="node"><title>Node3</title>
<g id="a_node3"><a xlink:href="../../d1/d6d/classIG_1_1Forms_1_1ImageViewerControl.html" target="_top" xlink:title=" ">
<polygon fill="white" stroke="black" points="150.5,-67.5 150.5,-86.5 296.5,-86.5 296.5,-67.5 150.5,-67.5"/>
<text text-anchor="middle" x="223.5" y="-74.5" font-family="Helvetica,sans-Serif" font-size="10.00">IG.Forms.ImageViewerControl</text>
</a>
</g>
</g>
<!-- Node3&#45;&gt;Node1 -->
<g id="edge2" class="edge"><title>Node3&#45;&gt;Node1</title>
<path fill="none" stroke="#9a32cd" stroke-dasharray="5,2" d="M194.54,-63.281C165.23,-50.4085 120.707,-30.8545 95.2345,-19.6672"/>
<polygon fill="#9a32cd" stroke="#9a32cd" points="193.283,-66.5518 203.847,-67.3685 196.098,-60.1427 193.283,-66.5518"/>
<text text-anchor="middle" x="206" y="-41" font-family="Helvetica,sans-Serif" font-size="10.00"> imageViewerControl1</text>
</g>
<!-- Node4 -->
<g id="node4" class="node"><title>Node4</title>
<g id="a_node4"><a xlink:title=" ">
<polygon fill="white" stroke="#bfbfbf" points="293.5,-244.5 293.5,-263.5 361.5,-263.5 361.5,-244.5 293.5,-244.5"/>
<text text-anchor="middle" x="327.5" y="-251.5" font-family="Helvetica,sans-Serif" font-size="10.00">UserControl</text>
</a>
</g>
</g>
<!-- Node4&#45;&gt;Node3 -->
<g id="edge3" class="edge"><title>Node4&#45;&gt;Node3</title>
<path fill="none" stroke="midnightblue" d="M331.74,-234.285C337.522,-203.568 343.974,-142.163 313.5,-105 306.57,-96.5485 297.102,-90.6714 286.9,-86.6001"/>
<polygon fill="midnightblue" stroke="midnightblue" points="328.238,-233.939 329.635,-244.441 335.092,-235.36 328.238,-233.939"/>
</g>
<!-- Node5 -->
<g id="node5" class="node"><title>Node5</title>
<g id="a_node5"><a xlink:href="../../d6/d7a/interfaceIG_1_1Forms_1_1IFileViewer.html" target="_top" xlink:title=" ">
<polygon fill="white" stroke="black" points="161.5,-244.5 161.5,-263.5 225.5,-263.5 225.5,-244.5 161.5,-244.5"/>
<text text-anchor="middle" x="193.5" y="-251.5" font-family="Helvetica,sans-Serif" font-size="10.00">IFileViewer</text>
</a>
</g>
</g>
<!-- Node5&#45;&gt;Node3 -->
<g id="edge4" class="edge"><title>Node5&#45;&gt;Node3</title>
<path fill="none" stroke="midnightblue" d="M196.766,-233.951C203.22,-196.297 217.388,-113.654 222.01,-86.6932"/>
<polygon fill="midnightblue" stroke="midnightblue" points="193.269,-233.634 195.029,-244.081 200.168,-234.816 193.269,-233.634"/>
</g>
<!-- Node6 -->
<g id="node6" class="node"><title>Node6</title>
<g id="a_node6"><a xlink:title=" ">
<polygon fill="white" stroke="#bfbfbf" points="64.5,-244.5 64.5,-263.5 114.5,-263.5 114.5,-244.5 64.5,-244.5"/>
<text text-anchor="middle" x="89.5" y="-251.5" font-family="Helvetica,sans-Serif" font-size="10.00">System</text>
</a>
</g>
</g>
<!-- Node6&#45;&gt;Node1 -->
<g id="edge7" class="edge"><title>Node6&#45;&gt;Node1</title>
<path fill="none" stroke="#9a32cd" stroke-dasharray="5,2" d="M88.415,-234.245C85.5737,-185.132 77.997,-54.1626 75.9923,-19.5097"/>
<polygon fill="#9a32cd" stroke="#9a32cd" points="84.9299,-234.606 89.0017,-244.387 91.9183,-234.202 84.9299,-234.606"/>
<text text-anchor="middle" x="109" y="-74.5" font-family="Helvetica,sans-Serif" font-size="10.00"> components</text>
</g>
<!-- Node6&#45;&gt;Node3 -->
<g id="edge5" class="edge"><title>Node6&#45;&gt;Node3</title>
<path fill="none" stroke="#9a32cd" stroke-dasharray="5,2" d="M89.6245,-233.977C90.2598,-198.361 93.625,-123.533 110.5,-105 117.867,-96.9091 139.288,-90.8265 161.526,-86.5032"/>
<polygon fill="#9a32cd" stroke="#9a32cd" points="86.1195,-234.373 89.4981,-244.415 93.119,-234.458 86.1195,-234.373"/>
<text text-anchor="middle" x="153" y="-218" font-family="Helvetica,sans-Serif" font-size="10.00"> menuOptions</text>
<text text-anchor="middle" x="153" y="-207" font-family="Helvetica,sans-Serif" font-size="10.00">comboSizeMode</text>
<text text-anchor="middle" x="153" y="-196" font-family="Helvetica,sans-Serif" font-size="10.00">pictureBox1</text>
<text text-anchor="middle" x="153" y="-185" font-family="Helvetica,sans-Serif" font-size="10.00">menuShowControls</text>
<text text-anchor="middle" x="153" y="-174" font-family="Helvetica,sans-Serif" font-size="10.00">pnlControls</text>
<text text-anchor="middle" x="153" y="-163" font-family="Helvetica,sans-Serif" font-size="10.00">pnlOuter</text>
<text text-anchor="middle" x="153" y="-152" font-family="Helvetica,sans-Serif" font-size="10.00">pnlOptions</text>
<text text-anchor="middle" x="153" y="-141" font-family="Helvetica,sans-Serif" font-size="10.00">contextMenuMain</text>
<text text-anchor="middle" x="153" y="-130" font-family="Helvetica,sans-Serif" font-size="10.00">menuBrowse</text>
<text text-anchor="middle" x="153" y="-119" font-family="Helvetica,sans-Serif" font-size="10.00">components</text>
<text text-anchor="middle" x="153" y="-108" font-family="Helvetica,sans-Serif" font-size="10.00">...</text>
</g>
<!-- Node7 -->
<g id="node7" class="node"><title>Node7</title>
<g id="a_node7"><a xlink:title=" ">
<polygon fill="white" stroke="#bfbfbf" points="244,-244.5 244,-263.5 273,-263.5 273,-244.5 244,-244.5"/>
<text text-anchor="middle" x="258.5" y="-251.5" font-family="Helvetica,sans-Serif" font-size="10.00">IG</text>
</a>
</g>
</g>
<!-- Node7&#45;&gt;Node3 -->
<g id="edge6" class="edge"><title>Node7&#45;&gt;Node3</title>
<path fill="none" stroke="#9a32cd" stroke-dasharray="5,2" d="M254.69,-233.951C247.159,-196.297 230.631,-113.654 225.239,-86.6932"/>
<polygon fill="#9a32cd" stroke="#9a32cd" points="251.323,-234.962 256.716,-244.081 258.187,-233.589 251.323,-234.962"/>
<text text-anchor="middle" x="282" y="-163" font-family="Helvetica,sans-Serif" font-size="10.00"> fileSelector1</text>
</g>
</g>
</svg>
