<?xml version="1.0" encoding="UTF-8" standalone="no"?>
<!DOCTYPE svg PUBLIC "-//W3C//DTD SVG 1.1//EN"
 "http://www.w3.org/Graphics/SVG/1.1/DTD/svg11.dtd">
<!-- Generated by graphviz version 2.38.0 (20140413.2041)
 -->
<!-- Title: XORProblem.MainForm Pages: 1 -->
<svg width="580pt" height="285pt"
 viewBox="0.00 0.00 580.00 285.00" xmlns="http://www.w3.org/2000/svg" xmlns:xlink="http://www.w3.org/1999/xlink">
<g id="graph0" class="graph" transform="scale(1 1) rotate(0) translate(4 281)">
<title>XORProblem.MainForm</title>
<polygon fill="white" stroke="none" points="-4,4 -4,-281 576,-281 576,4 -4,4"/>
<!-- Node1 -->
<g id="node1" class="node"><title>Node1</title>
<g id="a_node1"><a xlink:title="Summary description for Form1.">
<polygon fill="#bfbfbf" stroke="black" points="336.5,-0.5 336.5,-19.5 455.5,-19.5 455.5,-0.5 336.5,-0.5"/>
<text text-anchor="middle" x="396" y="-7.5" font-family="Helvetica,sans-Serif" font-size="10.00">XORProblem.MainForm</text>
</a>
</g>
</g>
<!-- Node2 -->
<g id="node2" class="node"><title>Node2</title>
<g id="a_node2"><a xlink:title=" ">
<polygon fill="white" stroke="#bfbfbf" points="104,-112.5 104,-142.5 234,-142.5 234,-112.5 104,-112.5"/>
<text text-anchor="start" x="112" y="-130.5" font-family="Helvetica,sans-Serif" font-size="10.00">System::Windows::Forms</text>
<text text-anchor="middle" x="169" y="-119.5" font-family="Helvetica,sans-Serif" font-size="10.00">::Form</text>
</a>
</g>
</g>
<!-- Node2&#45;&gt;Node1 -->
<g id="edge1" class="edge"><title>Node2&#45;&gt;Node1</title>
<path fill="none" stroke="midnightblue" d="M191.172,-105.46C205.189,-93.0067 224.161,-77.6381 243,-67 282.162,-44.8862 331.699,-28.6394 363.615,-19.5024"/>
<polygon fill="midnightblue" stroke="midnightblue" points="188.581,-103.084 183.53,-112.397 193.286,-108.267 188.581,-103.084"/>
</g>
<!-- Node3 -->
<g id="node3" class="node"><title>Node3</title>
<g id="a_node3"><a xlink:href="../../df/d2d/classAForge_1_1Controls_1_1Chart.html" target="_top" xlink:title="Chart control">
<polygon fill="white" stroke="black" points="252.5,-118 252.5,-137 365.5,-137 365.5,-118 252.5,-118"/>
<text text-anchor="middle" x="309" y="-125" font-family="Helvetica,sans-Serif" font-size="10.00">AForge.Controls.Chart</text>
</a>
</g>
</g>
<!-- Node3&#45;&gt;Node1 -->
<g id="edge2" class="edge"><title>Node3&#45;&gt;Node1</title>
<path fill="none" stroke="#9a32cd" stroke-dasharray="5,2" d="M316.603,-108.751C325.266,-89.8507 340.75,-59.7259 360,-38 366.321,-30.8661 374.793,-24.3997 381.931,-19.5848"/>
<polygon fill="#9a32cd" stroke="#9a32cd" points="313.368,-107.412 312.511,-117.972 319.766,-110.252 313.368,-107.412"/>
<text text-anchor="middle" x="383" y="-41" font-family="Helvetica,sans-Serif" font-size="10.00"> errorChart</text>
</g>
<!-- Node4 -->
<g id="node4" class="node"><title>Node4</title>
<g id="a_node4"><a xlink:title=" ">
<polygon fill="white" stroke="#bfbfbf" points="0,-246.5 0,-276.5 130,-276.5 130,-246.5 0,-246.5"/>
<text text-anchor="start" x="8" y="-264.5" font-family="Helvetica,sans-Serif" font-size="10.00">System::Windows::Forms</text>
<text text-anchor="middle" x="65" y="-253.5" font-family="Helvetica,sans-Serif" font-size="10.00">::Control</text>
</a>
</g>
</g>
<!-- Node4&#45;&gt;Node3 -->
<g id="edge3" class="edge"><title>Node4&#45;&gt;Node3</title>
<path fill="none" stroke="midnightblue" d="M121.642,-243.087C157.87,-230.612 205.018,-211.824 243,-188 266.524,-173.244 289.597,-149.823 301.223,-137.217"/>
<polygon fill="midnightblue" stroke="midnightblue" points="120.083,-239.92 111.73,-246.437 122.324,-246.551 120.083,-239.92"/>
</g>
<!-- Node5 -->
<g id="node5" class="node"><title>Node5</title>
<g id="a_node5"><a xlink:href="../../dd/de1/structAForge_1_1Range.html" target="_top" xlink:title="Represents a range with minimum and maximum values, which are single precision numbers (floats).">
<polygon fill="white" stroke="black" points="148.5,-252 148.5,-271 227.5,-271 227.5,-252 148.5,-252"/>
<text text-anchor="middle" x="188" y="-259" font-family="Helvetica,sans-Serif" font-size="10.00">AForge.Range</text>
</a>
</g>
</g>
<!-- Node5&#45;&gt;Node3 -->
<g id="edge4" class="edge"><title>Node5&#45;&gt;Node3</title>
<path fill="none" stroke="#9a32cd" stroke-dasharray="5,2" d="M202.761,-244.397C228.638,-216.168 281.327,-158.689 301.189,-137.021"/>
<polygon fill="#9a32cd" stroke="#9a32cd" points="200.116,-242.102 195.939,-251.839 205.276,-246.833 200.116,-242.102"/>
<text text-anchor="middle" x="254.5" y="-220" font-family="Helvetica,sans-Serif" font-size="10.00"> rangeX</text>
<text text-anchor="middle" x="254.5" y="-209" font-family="Helvetica,sans-Serif" font-size="10.00">rangeY</text>
</g>
<!-- Node6 -->
<g id="node6" class="node"><title>Node6</title>
<g id="a_node6"><a xlink:href="../../d8/dbc/classAForge_1_1DoubleRange.html" target="_top" xlink:title="Represents a double range with minimum and maximum values">
<polygon fill="white" stroke="black" points="245.5,-252 245.5,-271 354.5,-271 354.5,-252 245.5,-252"/>
<text text-anchor="middle" x="300" y="-259" font-family="Helvetica,sans-Serif" font-size="10.00">AForge.DoubleRange</text>
</a>
</g>
</g>
<!-- Node6&#45;&gt;Node3 -->
<g id="edge5" class="edge"><title>Node6&#45;&gt;Node3</title>
<path fill="none" stroke="#9a32cd" stroke-dasharray="5,2" d="M295.233,-241.647C294.305,-237.2 293.475,-232.457 293,-228 289.406,-194.248 300.448,-154.511 306.007,-137.242"/>
<polygon fill="#9a32cd" stroke="#9a32cd" points="291.91,-242.809 297.588,-251.754 298.727,-241.22 291.91,-242.809"/>
<text text-anchor="middle" x="309.5" y="-220" font-family="Helvetica,sans-Serif" font-size="10.00"> rangeX</text>
<text text-anchor="middle" x="309.5" y="-209" font-family="Helvetica,sans-Serif" font-size="10.00">rangeY</text>
</g>
<!-- Node7 -->
<g id="node7" class="node"><title>Node7</title>
<g id="a_node7"><a xlink:title=" ">
<polygon fill="white" stroke="#bfbfbf" points="380,-252 380,-271 430,-271 430,-252 380,-252"/>
<text text-anchor="middle" x="405" y="-259" font-family="Helvetica,sans-Serif" font-size="10.00">System</text>
</a>
</g>
</g>
<!-- Node7&#45;&gt;Node1 -->
<g id="edge8" class="edge"><title>Node7&#45;&gt;Node1</title>
<path fill="none" stroke="#9a32cd" stroke-dasharray="5,2" d="M405.676,-241.727C405.811,-237.231 405.932,-232.445 406,-228 407.299,-143.566 420.898,-121.12 406,-38 404.871,-31.7021 402.371,-24.9521 400.153,-19.7765"/>
<polygon fill="#9a32cd" stroke="#9a32cd" points="402.17,-241.837 405.335,-251.948 409.167,-242.071 402.17,-241.837"/>
<text text-anchor="middle" x="456" y="-180" font-family="Helvetica,sans-Serif" font-size="10.00"> currentErrorBox</text>
<text text-anchor="middle" x="456" y="-169" font-family="Helvetica,sans-Serif" font-size="10.00">stopButton</text>
<text text-anchor="middle" x="456" y="-158" font-family="Helvetica,sans-Serif" font-size="10.00">sigmoidTypeCombo</text>
<text text-anchor="middle" x="456" y="-147" font-family="Helvetica,sans-Serif" font-size="10.00">learningRateBox</text>
<text text-anchor="middle" x="456" y="-136" font-family="Helvetica,sans-Serif" font-size="10.00">label1</text>
<text text-anchor="middle" x="456" y="-125" font-family="Helvetica,sans-Serif" font-size="10.00">saveFilesCheck</text>
<text text-anchor="middle" x="456" y="-114" font-family="Helvetica,sans-Serif" font-size="10.00">label2</text>
<text text-anchor="middle" x="456" y="-103" font-family="Helvetica,sans-Serif" font-size="10.00">label3</text>
<text text-anchor="middle" x="456" y="-92" font-family="Helvetica,sans-Serif" font-size="10.00">startButton</text>
<text text-anchor="middle" x="456" y="-81" font-family="Helvetica,sans-Serif" font-size="10.00">label4</text>
<text text-anchor="middle" x="456" y="-70" font-family="Helvetica,sans-Serif" font-size="10.00">...</text>
</g>
<!-- Node7&#45;&gt;Node3 -->
<g id="edge6" class="edge"><title>Node7&#45;&gt;Node3</title>
<path fill="none" stroke="#9a32cd" stroke-dasharray="5,2" d="M373.842,-247.206C364.912,-242.219 355.771,-235.821 349,-228 324.871,-200.131 314.138,-155.85 310.514,-137.216"/>
<polygon fill="#9a32cd" stroke="#9a32cd" points="372.471,-250.437 382.965,-251.894 375.67,-244.21 372.471,-250.437"/>
<text text-anchor="middle" x="377.5" y="-214.5" font-family="Helvetica,sans-Serif" font-size="10.00"> components</text>
</g>
<!-- Node8 -->
<g id="node8" class="node"><title>Node8</title>
<g id="a_node8"><a xlink:title=" ">
<polygon fill="white" stroke="#bfbfbf" points="524,-118 524,-137 572,-137 572,-118 524,-118"/>
<text text-anchor="middle" x="548" y="-125" font-family="Helvetica,sans-Serif" font-size="10.00">AForge</text>
</a>
</g>
</g>
<!-- Node8&#45;&gt;Node1 -->
<g id="edge7" class="edge"><title>Node8&#45;&gt;Node1</title>
<path fill="none" stroke="#9a32cd" stroke-dasharray="5,2" d="M539.828,-108.521C533.252,-95.646 522.978,-78.603 510,-67 484.52,-44.2196 448.103,-28.4956 423.334,-19.6344"/>
<polygon fill="#9a32cd" stroke="#9a32cd" points="536.792,-110.284 544.29,-117.77 543.097,-107.242 536.792,-110.284"/>
<text text-anchor="middle" x="508" y="-41" font-family="Helvetica,sans-Serif" font-size="10.00"> errorChart</text>
</g>
</g>
</svg>
