<?xml version="1.0" encoding="UTF-8" standalone="no"?>
<!DOCTYPE svg PUBLIC "-//W3C//DTD SVG 1.1//EN"
 "http://www.w3.org/Graphics/SVG/1.1/DTD/svg11.dtd">
<!-- Generated by graphviz version 2.38.0 (20140413.2041)
 -->
<!-- Title: NUnit.Engine.Services.DomainManager Pages: 1 -->
<svg width="290pt" height="163pt"
 viewBox="0.00 0.00 289.50 163.00" xmlns="http://www.w3.org/2000/svg" xmlns:xlink="http://www.w3.org/1999/xlink">
<g id="graph0" class="graph" transform="scale(1 1) rotate(0) translate(4 159)">
<title>NUnit.Engine.Services.DomainManager</title>
<polygon fill="white" stroke="none" points="-4,4 -4,-159 285.5,-159 285.5,4 -4,4"/>
<!-- Node1 -->
<g id="node1" class="node"><title>Node1</title>
<g id="a_node1"><a xlink:title="The DomainManager class handles the creation and unloading of domains as needed and keeps track of al...">
<polygon fill="#bfbfbf" stroke="black" points="88.5,-0.5 88.5,-30.5 237.5,-30.5 237.5,-0.5 88.5,-0.5"/>
<text text-anchor="start" x="96.5" y="-18.5" font-family="Helvetica,sans-Serif" font-size="10.00">NUnit.Engine.Services.Domain</text>
<text text-anchor="middle" x="163" y="-7.5" font-family="Helvetica,sans-Serif" font-size="10.00">Manager</text>
</a>
</g>
</g>
<!-- Node2 -->
<g id="node2" class="node"><title>Node2</title>
<g id="a_node2"><a xlink:href="../../df/d6e/classNUnit_1_1Engine_1_1Services_1_1Service.html" target="_top" xlink:title="Abstract base class for services that can use it. Some Services already inherit from a different clas...">
<polygon fill="white" stroke="black" points="39,-78.5 39,-97.5 87,-97.5 87,-78.5 39,-78.5"/>
<text text-anchor="middle" x="63" y="-85.5" font-family="Helvetica,sans-Serif" font-size="10.00">Service</text>
</a>
</g>
</g>
<!-- Node2&#45;&gt;Node1 -->
<g id="edge1" class="edge"><title>Node2&#45;&gt;Node1</title>
<path fill="none" stroke="midnightblue" d="M83.6166,-72.4653C101.028,-60.1899 125.809,-42.7198 143.034,-30.5762"/>
<polygon fill="midnightblue" stroke="midnightblue" points="81.4183,-69.7327 75.262,-78.3553 85.4518,-75.4538 81.4183,-69.7327"/>
</g>
<!-- Node3 -->
<g id="node3" class="node"><title>Node3</title>
<g id="a_node3"><a xlink:href="../../df/da1/interfaceNUnit_1_1Engine_1_1IService.html" target="_top" xlink:title="The IService interface is implemented by all Services. Although it is extensible, it does not reside ...">
<polygon fill="white" stroke="black" points="0,-135.5 0,-154.5 50,-154.5 50,-135.5 0,-135.5"/>
<text text-anchor="middle" x="25" y="-142.5" font-family="Helvetica,sans-Serif" font-size="10.00">IService</text>
</a>
</g>
</g>
<!-- Node3&#45;&gt;Node2 -->
<g id="edge2" class="edge"><title>Node3&#45;&gt;Node2</title>
<path fill="none" stroke="midnightblue" d="M36.79,-126.936C43.4809,-117.251 51.5726,-105.54 56.9788,-97.7149"/>
<polygon fill="midnightblue" stroke="midnightblue" points="33.7423,-125.189 30.9375,-135.406 39.5014,-129.168 33.7423,-125.189"/>
</g>
<!-- Node4 -->
<g id="node4" class="node"><title>Node4</title>
<g id="a_node4"><a xlink:title=" ">
<polygon fill="white" stroke="#bfbfbf" points="68.5,-135.5 68.5,-154.5 135.5,-154.5 135.5,-135.5 68.5,-135.5"/>
<text text-anchor="middle" x="102" y="-142.5" font-family="Helvetica,sans-Serif" font-size="10.00">IDisposable</text>
</a>
</g>
</g>
<!-- Node4&#45;&gt;Node2 -->
<g id="edge3" class="edge"><title>Node4&#45;&gt;Node2</title>
<path fill="none" stroke="midnightblue" d="M90.1117,-127.234C83.2043,-117.493 74.7854,-105.62 69.1797,-97.7149"/>
<polygon fill="midnightblue" stroke="midnightblue" points="87.2668,-129.273 95.9063,-135.406 92.977,-125.224 87.2668,-129.273"/>
</g>
<!-- Node5 -->
<g id="node5" class="node"><title>Node5</title>
<g id="a_node5"><a xlink:href="../../d5/d1d/interfaceNUnit_1_1Engine_1_1ISettings.html" target="_top" xlink:title="The ISettings interface is used to access all user settings and options.">
<polygon fill="white" stroke="black" points="105.5,-78.5 105.5,-97.5 220.5,-97.5 220.5,-78.5 105.5,-78.5"/>
<text text-anchor="middle" x="163" y="-85.5" font-family="Helvetica,sans-Serif" font-size="10.00">NUnit.Engine.ISettings</text>
</a>
</g>
</g>
<!-- Node5&#45;&gt;Node1 -->
<g id="edge4" class="edge"><title>Node5&#45;&gt;Node1</title>
<path fill="none" stroke="#9a32cd" stroke-dasharray="5,2" d="M163,-68.2362C163,-56.4079 163,-41.3829 163,-30.5762"/>
<polygon fill="#9a32cd" stroke="#9a32cd" points="159.5,-68.3553 163,-78.3553 166.5,-68.3554 159.5,-68.3553"/>
<text text-anchor="middle" x="200.5" y="-52" font-family="Helvetica,sans-Serif" font-size="10.00"> _settingsService</text>
</g>
<!-- Node6 -->
<g id="node6" class="node"><title>Node6</title>
<g id="a_node6"><a xlink:title=" ">
<polygon fill="white" stroke="#bfbfbf" points="240.5,-78.5 240.5,-97.5 281.5,-97.5 281.5,-78.5 240.5,-78.5"/>
<text text-anchor="middle" x="261" y="-85.5" font-family="Helvetica,sans-Serif" font-size="10.00">static</text>
</a>
</g>
</g>
<!-- Node6&#45;&gt;Node1 -->
<g id="edge5" class="edge"><title>Node6&#45;&gt;Node1</title>
<path fill="none" stroke="#9a32cd" stroke-dasharray="5,2" d="M253.572,-68.9606C249.995,-62.0057 245.134,-54.4346 239,-49 230.407,-41.3867 219.763,-35.3578 209.189,-30.6667"/>
<polygon fill="#9a32cd" stroke="#9a32cd" points="250.544,-70.7549 257.89,-78.389 256.908,-67.8398 250.544,-70.7549"/>
<text text-anchor="middle" x="257" y="-52" font-family="Helvetica,sans-Serif" font-size="10.00"> log</text>
</g>
</g>
</svg>
