<?xml version="1.0" encoding="UTF-8" standalone="no"?>
<!DOCTYPE svg PUBLIC "-//W3C//DTD SVG 1.1//EN"
 "http://www.w3.org/Graphics/SVG/1.1/DTD/svg11.dtd">
<!-- Generated by graphviz version 2.38.0 (20140413.2041)
 -->
<!-- Title: IG.Script.AppMarkoPetekDerivedScriptExt Pages: 1 -->
<svg width="373pt" height="375pt"
 viewBox="0.00 0.00 372.50 375.00" xmlns="http://www.w3.org/2000/svg" xmlns:xlink="http://www.w3.org/1999/xlink">
<g id="graph0" class="graph" transform="scale(1 1) rotate(0) translate(4 371)">
<title>IG.Script.AppMarkoPetekDerivedScriptExt</title>
<polygon fill="white" stroke="none" points="-4,4 -4,-371 368.5,-371 368.5,4 -4,4"/>
<!-- Node1 -->
<g id="node1" class="node"><title>Node1</title>
<g id="a_node1"><a xlink:title="Tells to the interpreter, which custom classes are available.">
<polygon fill="#bfbfbf" stroke="black" points="205.5,-0.5 205.5,-30.5 364.5,-30.5 364.5,-0.5 205.5,-0.5"/>
<text text-anchor="start" x="213.5" y="-18.5" font-family="Helvetica,sans-Serif" font-size="10.00">IG.Script.AppMarkoPetekDerived</text>
<text text-anchor="middle" x="285" y="-7.5" font-family="Helvetica,sans-Serif" font-size="10.00">ScriptExt</text>
</a>
</g>
</g>
<!-- Node2 -->
<g id="node2" class="node"><title>Node2</title>
<g id="a_node2"><a xlink:href="../../d0/d8c/classIG_1_1Script_1_1AppMarkoPetekExt.html" target="_top" xlink:title="Internal script for running EXTENDED embedded applications.">
<polygon fill="white" stroke="black" points="195.5,-67.5 195.5,-86.5 296.5,-86.5 296.5,-67.5 195.5,-67.5"/>
<text text-anchor="middle" x="246" y="-74.5" font-family="Helvetica,sans-Serif" font-size="10.00">AppMarkoPetekExt</text>
</a>
</g>
</g>
<!-- Node2&#45;&gt;Node1 -->
<g id="edge1" class="edge"><title>Node2&#45;&gt;Node1</title>
<path fill="none" stroke="midnightblue" d="M257.167,-58.9634C263.071,-49.9564 270.23,-39.0344 275.808,-30.523"/>
<polygon fill="midnightblue" stroke="midnightblue" points="254.143,-57.1929 251.588,-67.4751 259.997,-61.0303 254.143,-57.1929"/>
</g>
<!-- Node3 -->
<g id="node3" class="node"><title>Node3</title>
<g id="a_node3"><a xlink:href="../../dd/d51/classIG_1_1Script_1_1AppMarkoPetek.html" target="_top" xlink:title="Internal script for running embedded applications.">
<polygon fill="white" stroke="black" points="152,-123.5 152,-142.5 238,-142.5 238,-123.5 152,-123.5"/>
<text text-anchor="middle" x="195" y="-130.5" font-family="Helvetica,sans-Serif" font-size="10.00">AppMarkoPetek</text>
</a>
</g>
</g>
<!-- Node3&#45;&gt;Node2 -->
<g id="edge2" class="edge"><title>Node3&#45;&gt;Node2</title>
<path fill="none" stroke="midnightblue" d="M210.378,-115.718C219.367,-106.2 230.359,-94.5608 237.735,-86.7511"/>
<polygon fill="midnightblue" stroke="midnightblue" points="207.743,-113.41 203.422,-123.083 212.832,-118.216 207.743,-113.41"/>
</g>
<!-- Node4 -->
<g id="node4" class="node"><title>Node4</title>
<g id="a_node4"><a xlink:href="../../d9/d4e/classIG_1_1Script_1_1AppIgorGresovnik.html" target="_top" xlink:title="Internal script for running embedded applications.">
<polygon fill="white" stroke="black" points="53,-179.5 53,-198.5 145,-198.5 145,-179.5 53,-179.5"/>
<text text-anchor="middle" x="99" y="-186.5" font-family="Helvetica,sans-Serif" font-size="10.00">AppIgorGresovnik</text>
</a>
</g>
</g>
<!-- Node4&#45;&gt;Node3 -->
<g id="edge3" class="edge"><title>Node4&#45;&gt;Node3</title>
<path fill="none" stroke="midnightblue" d="M123.574,-174.177C141.239,-164.241 164.513,-151.149 179.614,-142.655"/>
<polygon fill="midnightblue" stroke="midnightblue" points="121.424,-171.371 114.424,-179.324 124.856,-177.472 121.424,-171.371"/>
</g>
<!-- Node5 -->
<g id="node5" class="node"><title>Node5</title>
<g id="a_node5"><a xlink:href="../../d0/dec/classIG_1_1Script_1_1AppExtBase.html" target="_top" xlink:title="Internal script for running embedded applications.">
<polygon fill="white" stroke="black" points="35.5,-235.5 35.5,-254.5 106.5,-254.5 106.5,-235.5 35.5,-235.5"/>
<text text-anchor="middle" x="71" y="-242.5" font-family="Helvetica,sans-Serif" font-size="10.00">AppExtBase</text>
</a>
</g>
</g>
<!-- Node5&#45;&gt;Node4 -->
<g id="edge4" class="edge"><title>Node5&#45;&gt;Node4</title>
<path fill="none" stroke="midnightblue" d="M80.3423,-225.983C85.095,-216.817 90.6559,-206.092 94.4624,-198.751"/>
<polygon fill="midnightblue" stroke="midnightblue" points="77.1197,-224.594 75.6236,-235.083 83.334,-227.817 77.1197,-224.594"/>
</g>
<!-- Node6 -->
<g id="node6" class="node"><title>Node6</title>
<g id="a_node6"><a xlink:href="../../d5/d63/classIG_1_1Script_1_1AppBase.html" target="_top" xlink:title="Base cls. for application scripts that can also be used on its own.">
<polygon fill="white" stroke="black" points="13,-291.5 13,-310.5 69,-310.5 69,-291.5 13,-291.5"/>
<text text-anchor="middle" x="41" y="-298.5" font-family="Helvetica,sans-Serif" font-size="10.00">AppBase</text>
</a>
</g>
</g>
<!-- Node6&#45;&gt;Node5 -->
<g id="edge5" class="edge"><title>Node6&#45;&gt;Node5</title>
<path fill="none" stroke="midnightblue" d="M50.8474,-282.275C55.9748,-273.045 62.0165,-262.17 66.1383,-254.751"/>
<polygon fill="midnightblue" stroke="midnightblue" points="47.7508,-280.642 45.9539,-291.083 53.8699,-284.041 47.7508,-280.642"/>
</g>
<!-- Node7 -->
<g id="node7" class="node"><title>Node7</title>
<g id="a_node7"><a xlink:href="../../db/da4/classIG_1_1Script_1_1ScriptAppBase.html" target="_top" xlink:title="Partial class definition containing tests of CSV utilities.">
<polygon fill="white" stroke="black" points="0,-347.5 0,-366.5 82,-366.5 82,-347.5 0,-347.5"/>
<text text-anchor="middle" x="41" y="-354.5" font-family="Helvetica,sans-Serif" font-size="10.00">ScriptAppBase</text>
</a>
</g>
</g>
<!-- Node7&#45;&gt;Node6 -->
<g id="edge6" class="edge"><title>Node7&#45;&gt;Node6</title>
<path fill="none" stroke="midnightblue" d="M41,-336.805C41,-327.91 41,-317.78 41,-310.751"/>
<polygon fill="midnightblue" stroke="midnightblue" points="37.5001,-337.083 41,-347.083 44.5001,-337.083 37.5001,-337.083"/>
</g>
<!-- Node8 -->
<g id="node8" class="node"><title>Node8</title>
<g id="a_node8"><a xlink:href="../../d7/d66/interfaceIG_1_1Lib_1_1ILoadableScript.html" target="_top" xlink:title="Interface for classes that can be dynamically loadeded from scripts and run, which provides functiona...">
<polygon fill="white" stroke="black" points="115.5,-347.5 115.5,-366.5 198.5,-366.5 198.5,-347.5 115.5,-347.5"/>
<text text-anchor="middle" x="157" y="-354.5" font-family="Helvetica,sans-Serif" font-size="10.00">ILoadableScript</text>
</a>
</g>
</g>
<!-- Node8&#45;&gt;Node1 -->
<g id="edge13" class="edge"><title>Node8&#45;&gt;Node1</title>
<path fill="none" stroke="midnightblue" d="M208.456,-345.204C257.849,-331.471 325,-302.425 325,-246 325,-246 325,-246 325,-132 325,-93.5908 305.004,-51.757 293.288,-30.5416"/>
<polygon fill="midnightblue" stroke="midnightblue" points="207.302,-341.889 198.528,-347.829 209.091,-348.657 207.302,-341.889"/>
</g>
<!-- Node8&#45;&gt;Node2 -->
<g id="edge12" class="edge"><title>Node8&#45;&gt;Node2</title>
<path fill="none" stroke="midnightblue" d="M192.041,-343.75C230.544,-327.787 287,-295.877 287,-246 287,-246 287,-246 287,-188 287,-148.054 262.967,-104.795 251.701,-86.7121"/>
<polygon fill="midnightblue" stroke="midnightblue" points="190.686,-340.522 182.684,-347.466 193.27,-347.028 190.686,-340.522"/>
</g>
<!-- Node8&#45;&gt;Node3 -->
<g id="edge10" class="edge"><title>Node8&#45;&gt;Node3</title>
<path fill="none" stroke="midnightblue" d="M160.202,-337.295C168.016,-291.644 187.836,-175.854 193.479,-142.884"/>
<polygon fill="midnightblue" stroke="midnightblue" points="156.727,-336.85 158.49,-347.297 163.627,-338.031 156.727,-336.85"/>
</g>
<!-- Node8&#45;&gt;Node4 -->
<g id="edge9" class="edge"><title>Node8&#45;&gt;Node4</title>
<path fill="none" stroke="midnightblue" d="M150.713,-337.749C142.537,-314.048 127.789,-271.403 115,-235 110.548,-222.327 105.323,-207.673 102.087,-198.62"/>
<polygon fill="midnightblue" stroke="midnightblue" points="147.501,-339.17 154.069,-347.484 154.118,-336.889 147.501,-339.17"/>
</g>
<!-- Node8&#45;&gt;Node5 -->
<g id="edge8" class="edge"><title>Node8&#45;&gt;Node5</title>
<path fill="none" stroke="midnightblue" d="M143.629,-339.441C136.816,-330.965 128.425,-320.464 121,-311 105.358,-291.061 87.2952,-267.425 77.7403,-254.873"/>
<polygon fill="midnightblue" stroke="midnightblue" points="141.051,-341.82 150.05,-347.412 146.502,-337.429 141.051,-341.82"/>
</g>
<!-- Node8&#45;&gt;Node6 -->
<g id="edge7" class="edge"><title>Node8&#45;&gt;Node6</title>
<path fill="none" stroke="midnightblue" d="M129.28,-343.096C107.608,-333.007 78.0979,-319.27 59.2946,-310.516"/>
<polygon fill="midnightblue" stroke="midnightblue" points="128.077,-346.396 138.619,-347.444 131.031,-340.05 128.077,-346.396"/>
</g>
<!-- Node9 -->
<g id="node9" class="node"><title>Node9</title>
<g id="a_node9"><a xlink:href="../../d3/db6/interfaceIG_1_1Lib_1_1ILockable.html" target="_top" xlink:title="Lockable object, has a Lock property that returns object on which lock must be performed in order to ...">
<polygon fill="white" stroke="black" points="201,-179.5 201,-198.5 259,-198.5 259,-179.5 201,-179.5"/>
<text text-anchor="middle" x="230" y="-186.5" font-family="Helvetica,sans-Serif" font-size="10.00">ILockable</text>
</a>
</g>
</g>
<!-- Node9&#45;&gt;Node3 -->
<g id="edge11" class="edge"><title>Node9&#45;&gt;Node3</title>
<path fill="none" stroke="midnightblue" d="M218.7,-170.566C212.678,-161.275 205.531,-150.248 200.672,-142.751"/>
<polygon fill="midnightblue" stroke="midnightblue" points="215.844,-172.595 224.22,-179.083 221.719,-168.788 215.844,-172.595"/>
</g>
</g>
</svg>
