<?xml version="1.0" encoding="UTF-8" standalone="no"?>
<!DOCTYPE svg PUBLIC "-//W3C//DTD SVG 1.1//EN"
 "http://www.w3.org/Graphics/SVG/1.1/DTD/svg11.dtd">
<!-- Generated by graphviz version 2.38.0 (20140413.2041)
 -->
<!-- Title: NUnit.Engine.ITestRunnerFactory Pages: 1 -->
<svg width="489pt" height="61pt"
 viewBox="0.00 0.00 489.00 61.00" xmlns="http://www.w3.org/2000/svg" xmlns:xlink="http://www.w3.org/1999/xlink">
<g id="graph0" class="graph" transform="scale(1 1) rotate(0) translate(4 57)">
<title>NUnit.Engine.ITestRunnerFactory</title>
<polygon fill="white" stroke="none" points="-4,4 -4,-57 485,-57 485,4 -4,4"/>
<!-- Node1 -->
<g id="node1" class="node"><title>Node1</title>
<g id="a_node1"><a xlink:title="A Test Runner factory can supply a suitable test runner for a given package">
<polygon fill="#bfbfbf" stroke="black" points="0,-22.5 0,-52.5 128,-52.5 128,-22.5 0,-22.5"/>
<text text-anchor="start" x="8" y="-40.5" font-family="Helvetica,sans-Serif" font-size="10.00">NUnit.Engine.ITestRunner</text>
<text text-anchor="middle" x="64" y="-29.5" font-family="Helvetica,sans-Serif" font-size="10.00">Factory</text>
</a>
</g>
</g>
<!-- Node2 -->
<g id="node2" class="node"><title>Node2</title>
<g id="a_node2"><a xlink:href="../../d1/d7b/classNUnit_1_1Engine_1_1Services_1_1DefaultTestRunnerFactory.html" target="_top" xlink:title="DefaultTestRunnerFactory handles creation of a suitable test runner for a given package to be loaded ...">
<polygon fill="white" stroke="black" points="335,-22.5 335,-52.5 481,-52.5 481,-22.5 335,-22.5"/>
<text text-anchor="start" x="343" y="-40.5" font-family="Helvetica,sans-Serif" font-size="10.00">NUnit.Engine.Services.Default</text>
<text text-anchor="middle" x="408" y="-29.5" font-family="Helvetica,sans-Serif" font-size="10.00">TestRunnerFactory</text>
</a>
</g>
</g>
<!-- Node1&#45;&gt;Node2 -->
<g id="edge1" class="edge"><title>Node1&#45;&gt;Node2</title>
<path fill="none" stroke="midnightblue" d="M138.242,-39.9686C146.923,-40.1874 155.659,-40.3736 164,-40.5 223.993,-41.4088 239.006,-41.3331 299,-40.5 310.628,-40.3385 322.959,-40.0793 334.97,-39.7791"/>
<polygon fill="midnightblue" stroke="midnightblue" points="138.194,-36.4662 128.104,-39.6983 138.008,-43.4637 138.194,-36.4662"/>
</g>
<!-- Node3 -->
<g id="node3" class="node"><title>Node3</title>
<g id="a_node3"><a xlink:href="../../db/df5/classNUnit_1_1Engine_1_1Services_1_1InProcessTestRunnerFactory.html" target="_top" xlink:title="InProcessTestRunnerFactory handles creation of a suitable test runner for a given package to be loade...">
<polygon fill="white" stroke="black" points="164,-0.5 164,-30.5 299,-30.5 299,-0.5 164,-0.5"/>
<text text-anchor="start" x="172" y="-18.5" font-family="Helvetica,sans-Serif" font-size="10.00">NUnit.Engine.Services.In</text>
<text text-anchor="middle" x="231.5" y="-7.5" font-family="Helvetica,sans-Serif" font-size="10.00">ProcessTestRunnerFactory</text>
</a>
</g>
</g>
<!-- Node1&#45;&gt;Node3 -->
<g id="edge2" class="edge"><title>Node1&#45;&gt;Node3</title>
<path fill="none" stroke="midnightblue" d="M138.016,-27.7939C146.588,-26.6545 155.301,-25.4962 163.781,-24.369"/>
<polygon fill="midnightblue" stroke="midnightblue" points="137.492,-24.3327 128.041,-29.12 138.415,-31.2717 137.492,-24.3327"/>
</g>
<!-- Node3&#45;&gt;Node2 -->
<g id="edge3" class="edge"><title>Node3&#45;&gt;Node2</title>
<path fill="none" stroke="midnightblue" d="M309.658,-25.2277C318.083,-26.2898 326.634,-27.3679 334.993,-28.4218"/>
<polygon fill="midnightblue" stroke="midnightblue" points="309.826,-21.7213 299.467,-23.9429 308.951,-28.6663 309.826,-21.7213"/>
</g>
</g>
</svg>
