<?xml version="1.0" encoding="UTF-8" standalone="no"?>
<!DOCTYPE svg PUBLIC "-//W3C//DTD SVG 1.1//EN"
 "http://www.w3.org/Graphics/SVG/1.1/DTD/svg11.dtd">
<!-- Generated by graphviz version 2.38.0 (20140413.2041)
 -->
<!-- Title: NUnit.Engine.Services.ResultService Pages: 1 -->
<svg width="191pt" height="151pt"
 viewBox="0.00 0.00 191.00 151.00" xmlns="http://www.w3.org/2000/svg" xmlns:xlink="http://www.w3.org/1999/xlink">
<g id="graph0" class="graph" transform="scale(1 1) rotate(0) translate(4 147)">
<title>NUnit.Engine.Services.ResultService</title>
<polygon fill="white" stroke="none" points="-4,4 -4,-147 187,-147 187,4 -4,4"/>
<!-- Node1 -->
<g id="node1" class="node"><title>Node1</title>
<g id="a_node1"><a xlink:title=" ">
<polygon fill="#bfbfbf" stroke="black" points="31,-0.5 31,-30.5 175,-30.5 175,-0.5 31,-0.5"/>
<text text-anchor="start" x="39" y="-18.5" font-family="Helvetica,sans-Serif" font-size="10.00">NUnit.Engine.Services.Result</text>
<text text-anchor="middle" x="103" y="-7.5" font-family="Helvetica,sans-Serif" font-size="10.00">Service</text>
</a>
</g>
</g>
<!-- Node2 -->
<g id="node2" class="node"><title>Node2</title>
<g id="a_node2"><a xlink:href="../../df/d6e/classNUnit_1_1Engine_1_1Services_1_1Service.html" target="_top" xlink:title="Abstract base class for services that can use it. Some Services already inherit from a different clas...">
<polygon fill="white" stroke="black" points="39,-67.5 39,-86.5 87,-86.5 87,-67.5 39,-67.5"/>
<text text-anchor="middle" x="63" y="-74.5" font-family="Helvetica,sans-Serif" font-size="10.00">Service</text>
</a>
</g>
</g>
<!-- Node2&#45;&gt;Node1 -->
<g id="edge1" class="edge"><title>Node2&#45;&gt;Node1</title>
<path fill="none" stroke="midnightblue" d="M74.4532,-58.9634C80.5083,-49.9564 87.8508,-39.0344 93.5728,-30.523"/>
<polygon fill="midnightblue" stroke="midnightblue" points="71.4056,-57.2234 68.731,-67.4751 77.2149,-61.1288 71.4056,-57.2234"/>
</g>
<!-- Node3 -->
<g id="node3" class="node"><title>Node3</title>
<g id="a_node3"><a xlink:href="../../df/da1/interfaceNUnit_1_1Engine_1_1IService.html" target="_top" xlink:title="The IService interface is implemented by all Services. Although it is extensible, it does not reside ...">
<polygon fill="white" stroke="black" points="0,-123.5 0,-142.5 50,-142.5 50,-123.5 0,-123.5"/>
<text text-anchor="middle" x="25" y="-130.5" font-family="Helvetica,sans-Serif" font-size="10.00">IService</text>
</a>
</g>
</g>
<!-- Node3&#45;&gt;Node2 -->
<g id="edge2" class="edge"><title>Node3&#45;&gt;Node2</title>
<path fill="none" stroke="midnightblue" d="M37.0647,-114.855C43.6447,-105.505 51.511,-94.3265 56.8418,-86.7511"/>
<polygon fill="midnightblue" stroke="midnightblue" points="34.1676,-112.891 31.2749,-123.083 39.8922,-116.919 34.1676,-112.891"/>
</g>
<!-- Node4 -->
<g id="node4" class="node"><title>Node4</title>
<g id="a_node4"><a xlink:title=" ">
<polygon fill="white" stroke="#bfbfbf" points="68.5,-123.5 68.5,-142.5 135.5,-142.5 135.5,-123.5 68.5,-123.5"/>
<text text-anchor="middle" x="102" y="-130.5" font-family="Helvetica,sans-Serif" font-size="10.00">IDisposable</text>
</a>
</g>
</g>
<!-- Node4&#45;&gt;Node2 -->
<g id="edge3" class="edge"><title>Node4&#45;&gt;Node2</title>
<path fill="none" stroke="midnightblue" d="M89.6178,-114.855C82.8646,-105.505 74.7914,-94.3265 69.3202,-86.7511"/>
<polygon fill="midnightblue" stroke="midnightblue" points="86.8676,-117.025 95.5599,-123.083 92.5424,-112.927 86.8676,-117.025"/>
</g>
<!-- Node5 -->
<g id="node5" class="node"><title>Node5</title>
<g id="a_node5"><a xlink:href="../../d3/d87/interfaceNUnit_1_1Engine_1_1IResultService.html" target="_top" xlink:title="IResultWriterService provides result writers for a specified well&#45;known format.">
<polygon fill="white" stroke="black" points="105,-67.5 105,-86.5 183,-86.5 183,-67.5 105,-67.5"/>
<text text-anchor="middle" x="144" y="-74.5" font-family="Helvetica,sans-Serif" font-size="10.00">IResultService</text>
</a>
</g>
</g>
<!-- Node5&#45;&gt;Node1 -->
<g id="edge4" class="edge"><title>Node5&#45;&gt;Node1</title>
<path fill="none" stroke="midnightblue" d="M132.26,-58.9634C126.054,-49.9564 118.528,-39.0344 112.663,-30.523"/>
<polygon fill="midnightblue" stroke="midnightblue" points="129.57,-61.2267 138.126,-67.4751 135.334,-57.2548 129.57,-61.2267"/>
</g>
</g>
</svg>
