<?xml version="1.0" encoding="UTF-8" standalone="no"?>
<!DOCTYPE svg PUBLIC "-//W3C//DTD SVG 1.1//EN"
 "http://www.w3.org/Graphics/SVG/1.1/DTD/svg11.dtd">
<!-- Generated by graphviz version 2.38.0 (20140413.2041)
 -->
<!-- Title: NUnit.Framework.Constraints.SamePathOrUnderTest_Windows Pages: 1 -->
<svg width="170pt" height="207pt"
 viewBox="0.00 0.00 170.00 207.00" xmlns="http://www.w3.org/2000/svg" xmlns:xlink="http://www.w3.org/1999/xlink">
<g id="graph0" class="graph" transform="scale(1 1) rotate(0) translate(4 203)">
<title>NUnit.Framework.Constraints.SamePathOrUnderTest_Windows</title>
<polygon fill="white" stroke="none" points="-4,4 -4,-203 166,-203 166,4 -4,4"/>
<!-- Node1 -->
<g id="node1" class="node"><title>Node1</title>
<g id="a_node1"><a xlink:title=" ">
<polygon fill="#bfbfbf" stroke="black" points="0,-0.5 0,-30.5 162,-30.5 162,-0.5 0,-0.5"/>
<text text-anchor="start" x="8" y="-18.5" font-family="Helvetica,sans-Serif" font-size="10.00">NUnit.Framework.Constraints.</text>
<text text-anchor="middle" x="81" y="-7.5" font-family="Helvetica,sans-Serif" font-size="10.00">SamePathOrUnderTest_Windows</text>
</a>
</g>
</g>
<!-- Node2 -->
<g id="node2" class="node"><title>Node2</title>
<g id="a_node2"><a xlink:href="../../dc/dcc/classNUnit_1_1Framework_1_1Constraints_1_1StringConstraintTests.html" target="_top" xlink:title=" ">
<polygon fill="white" stroke="black" points="26,-67.5 26,-86.5 136,-86.5 136,-67.5 26,-67.5"/>
<text text-anchor="middle" x="81" y="-74.5" font-family="Helvetica,sans-Serif" font-size="10.00">StringConstraintTests</text>
</a>
</g>
</g>
<!-- Node2&#45;&gt;Node1 -->
<g id="edge1" class="edge"><title>Node2&#45;&gt;Node1</title>
<path fill="none" stroke="midnightblue" d="M81,-57.2349C81,-48.5864 81,-38.4969 81,-30.523"/>
<polygon fill="midnightblue" stroke="midnightblue" points="77.5001,-57.4751 81,-67.4751 84.5001,-57.4751 77.5001,-57.4751"/>
</g>
<!-- Node3 -->
<g id="node3" class="node"><title>Node3</title>
<g id="a_node3"><a xlink:href="../../d5/d7a/classNUnit_1_1Framework_1_1Constraints_1_1ConstraintTestBase.html" target="_top" xlink:title=" ">
<polygon fill="white" stroke="black" points="30,-123.5 30,-142.5 132,-142.5 132,-123.5 30,-123.5"/>
<text text-anchor="middle" x="81" y="-130.5" font-family="Helvetica,sans-Serif" font-size="10.00">ConstraintTestBase</text>
</a>
</g>
</g>
<!-- Node3&#45;&gt;Node2 -->
<g id="edge2" class="edge"><title>Node3&#45;&gt;Node2</title>
<path fill="none" stroke="midnightblue" d="M81,-112.805C81,-103.91 81,-93.7798 81,-86.7511"/>
<polygon fill="midnightblue" stroke="midnightblue" points="77.5001,-113.083 81,-123.083 84.5001,-113.083 77.5001,-113.083"/>
</g>
<!-- Node4 -->
<g id="node4" class="node"><title>Node4</title>
<g id="a_node4"><a xlink:href="../../dc/d5c/classNUnit_1_1Framework_1_1Constraints_1_1ConstraintTestBaseNoData.html" target="_top" xlink:title=" ">
<polygon fill="white" stroke="black" points="14,-179.5 14,-198.5 148,-198.5 148,-179.5 14,-179.5"/>
<text text-anchor="middle" x="81" y="-186.5" font-family="Helvetica,sans-Serif" font-size="10.00">ConstraintTestBaseNoData</text>
</a>
</g>
</g>
<!-- Node4&#45;&gt;Node3 -->
<g id="edge3" class="edge"><title>Node4&#45;&gt;Node3</title>
<path fill="none" stroke="midnightblue" d="M81,-168.805C81,-159.91 81,-149.78 81,-142.751"/>
<polygon fill="midnightblue" stroke="midnightblue" points="77.5001,-169.083 81,-179.083 84.5001,-169.083 77.5001,-169.083"/>
</g>
</g>
</svg>
