<?xml version="1.0" encoding="UTF-8" standalone="no"?>
<!DOCTYPE svg PUBLIC "-//W3C//DTD SVG 1.1//EN"
 "http://www.w3.org/Graphics/SVG/1.1/DTD/svg11.dtd">
<!-- Generated by graphviz version 2.38.0 (20140413.2041)
 -->
<!-- Title: CShell.Framework.LayoutItemBase Pages: 1 -->
<svg width="830pt" height="304pt"
 viewBox="0.00 0.00 830.00 304.00" xmlns="http://www.w3.org/2000/svg" xmlns:xlink="http://www.w3.org/1999/xlink">
<g id="graph0" class="graph" transform="scale(1 1) rotate(0) translate(4 300)">
<title>CShell.Framework.LayoutItemBase</title>
<polygon fill="white" stroke="none" points="-4,4 -4,-300 826,-300 826,4 -4,4"/>
<!-- Node1 -->
<g id="node1" class="node"><title>Node1</title>
<g id="a_node1"><a xlink:title=" ">
<polygon fill="#bfbfbf" stroke="black" points="83,-128 83,-147 253,-147 253,-128 83,-128"/>
<text text-anchor="middle" x="168" y="-135" font-family="Helvetica,sans-Serif" font-size="10.00">CShell.Framework.LayoutItemBase</text>
</a>
</g>
</g>
<!-- Node3 -->
<g id="node3" class="node"><title>Node3</title>
<g id="a_node3"><a xlink:href="../../d1/d9b/classCShell_1_1Framework_1_1Document.html" target="_top" xlink:title=" ">
<polygon fill="white" stroke="black" points="289,-153 289,-172 432,-172 432,-153 289,-153"/>
<text text-anchor="middle" x="360.5" y="-160" font-family="Helvetica,sans-Serif" font-size="10.00">CShell.Framework.Document</text>
</a>
</g>
</g>
<!-- Node1&#45;&gt;Node3 -->
<g id="edge2" class="edge"><title>Node1&#45;&gt;Node3</title>
<path fill="none" stroke="midnightblue" d="M251.81,-148.367C264.109,-149.981 276.689,-151.632 288.712,-153.21"/>
<polygon fill="midnightblue" stroke="midnightblue" points="251.934,-144.854 241.563,-147.023 251.023,-151.794 251.934,-144.854"/>
</g>
<!-- Node10 -->
<g id="node10" class="node"><title>Node10</title>
<g id="a_node10"><a xlink:href="../../da/d37/classCShell_1_1Framework_1_1Tool.html" target="_top" xlink:title=" ">
<polygon fill="white" stroke="black" points="302,-79 302,-98 419,-98 419,-79 302,-79"/>
<text text-anchor="middle" x="360.5" y="-86" font-family="Helvetica,sans-Serif" font-size="10.00">CShell.Framework.Tool</text>
</a>
</g>
</g>
<!-- Node1&#45;&gt;Node10 -->
<g id="edge9" class="edge"><title>Node1&#45;&gt;Node10</title>
<path fill="none" stroke="midnightblue" d="M216.008,-125.409C248.823,-116.968 292.018,-105.858 322.411,-98.0399"/>
<polygon fill="midnightblue" stroke="midnightblue" points="214.995,-122.055 206.183,-127.936 216.739,-128.834 214.995,-122.055"/>
</g>
<!-- Node2 -->
<g id="node2" class="node"><title>Node2</title>
<g id="a_node2"><a xlink:title=" ">
<polygon fill="white" stroke="#bfbfbf" points="0,-128 0,-147 47,-147 47,-128 0,-128"/>
<text text-anchor="middle" x="23.5" y="-135" font-family="Helvetica,sans-Serif" font-size="10.00">Screen</text>
</a>
</g>
</g>
<!-- Node2&#45;&gt;Node1 -->
<g id="edge1" class="edge"><title>Node2&#45;&gt;Node1</title>
<path fill="none" stroke="midnightblue" d="M57.1644,-137.5C65.0078,-137.5 73.7444,-137.5 82.7685,-137.5"/>
<polygon fill="midnightblue" stroke="midnightblue" points="57.0796,-134 47.0795,-137.5 57.0795,-141 57.0796,-134"/>
</g>
<!-- Node4 -->
<g id="node4" class="node"><title>Node4</title>
<g id="a_node4"><a xlink:href="../../d4/dba/classCShell_1_1Framework_1_1Sink.html" target="_top" xlink:title=" ">
<polygon fill="white" stroke="black" points="493,-197 493,-216 612,-216 612,-197 493,-197"/>
<text text-anchor="middle" x="552.5" y="-204" font-family="Helvetica,sans-Serif" font-size="10.00">CShell.Framework.Sink</text>
</a>
</g>
</g>
<!-- Node3&#45;&gt;Node4 -->
<g id="edge3" class="edge"><title>Node3&#45;&gt;Node4</title>
<path fill="none" stroke="midnightblue" d="M412.785,-174.376C443.391,-181.464 481.739,-190.345 510.353,-196.971"/>
<polygon fill="midnightblue" stroke="midnightblue" points="413.259,-170.894 402.727,-172.047 411.68,-177.713 413.259,-170.894"/>
</g>
<!-- Node9 -->
<g id="node9" class="node"><title>Node9</title>
<g id="a_node9"><a xlink:href="../../d2/de9/classCShell_1_1Modules_1_1Editors_1_1ViewModels_1_1EditorViewModel.html" target="_top" xlink:title=" ">
<polygon fill="white" stroke="black" points="481,-147.5 481,-177.5 624,-177.5 624,-147.5 481,-147.5"/>
<text text-anchor="start" x="489" y="-165.5" font-family="Helvetica,sans-Serif" font-size="10.00">CShell.Modules.Editors.View</text>
<text text-anchor="middle" x="552.5" y="-154.5" font-family="Helvetica,sans-Serif" font-size="10.00">Models.EditorViewModel</text>
</a>
</g>
</g>
<!-- Node3&#45;&gt;Node9 -->
<g id="edge8" class="edge"><title>Node3&#45;&gt;Node9</title>
<path fill="none" stroke="midnightblue" d="M442.374,-162.5C455.115,-162.5 468.202,-162.5 480.692,-162.5"/>
<polygon fill="midnightblue" stroke="midnightblue" points="442.249,-159 432.249,-162.5 442.249,-166 442.249,-159"/>
</g>
<!-- Node5 -->
<g id="node5" class="node"><title>Node5</title>
<g id="a_node5"><a xlink:href="../../d9/dc3/classCShell_1_1Modules_1_1Sink_1_1ViewModels_1_1ControlSinkViewModel.html" target="_top" xlink:title=" ">
<polygon fill="white" stroke="black" points="673,-265.5 673,-295.5 822,-295.5 822,-265.5 673,-265.5"/>
<text text-anchor="start" x="681" y="-283.5" font-family="Helvetica,sans-Serif" font-size="10.00">CShell.Modules.Sink.View</text>
<text text-anchor="middle" x="747.5" y="-272.5" font-family="Helvetica,sans-Serif" font-size="10.00">Models.ControlSinkViewModel</text>
</a>
</g>
</g>
<!-- Node4&#45;&gt;Node5 -->
<g id="edge4" class="edge"><title>Node4&#45;&gt;Node5</title>
<path fill="none" stroke="midnightblue" d="M585.113,-220.081C609.082,-230.227 642.919,-244.229 673,-255.5 681.961,-258.858 691.605,-262.276 700.864,-265.463"/>
<polygon fill="midnightblue" stroke="midnightblue" points="586.376,-216.815 575.803,-216.124 583.637,-223.257 586.376,-216.815"/>
</g>
<!-- Node6 -->
<g id="node6" class="node"><title>Node6</title>
<g id="a_node6"><a xlink:href="../../df/d73/classCShell_1_1Modules_1_1Sink_1_1ViewModels_1_1GridSinkViewModel.html" target="_top" xlink:title=" ">
<polygon fill="white" stroke="black" points="679.5,-216.5 679.5,-246.5 815.5,-246.5 815.5,-216.5 679.5,-216.5"/>
<text text-anchor="start" x="687.5" y="-234.5" font-family="Helvetica,sans-Serif" font-size="10.00">CShell.Modules.Sink.View</text>
<text text-anchor="middle" x="747.5" y="-223.5" font-family="Helvetica,sans-Serif" font-size="10.00">Models.GridSinkViewModel</text>
</a>
</g>
</g>
<!-- Node4&#45;&gt;Node6 -->
<g id="edge5" class="edge"><title>Node4&#45;&gt;Node6</title>
<path fill="none" stroke="midnightblue" d="M622.314,-215.414C640.842,-217.814 660.858,-220.407 679.298,-222.795"/>
<polygon fill="midnightblue" stroke="midnightblue" points="622.559,-211.916 612.192,-214.103 621.66,-218.858 622.559,-211.916"/>
</g>
<!-- Node7 -->
<g id="node7" class="node"><title>Node7</title>
<g id="a_node7"><a xlink:href="../../dd/dad/classCShell_1_1Modules_1_1Sink_1_1ViewModels_1_1PlotSinkViewModel.html" target="_top" xlink:title=" ">
<polygon fill="white" stroke="black" points="680,-167.5 680,-197.5 815,-197.5 815,-167.5 680,-167.5"/>
<text text-anchor="start" x="688" y="-185.5" font-family="Helvetica,sans-Serif" font-size="10.00">CShell.Modules.Sink.View</text>
<text text-anchor="middle" x="747.5" y="-174.5" font-family="Helvetica,sans-Serif" font-size="10.00">Models.PlotSinkViewModel</text>
</a>
</g>
</g>
<!-- Node4&#45;&gt;Node7 -->
<g id="edge6" class="edge"><title>Node4&#45;&gt;Node7</title>
<path fill="none" stroke="midnightblue" d="M622.161,-197.962C640.962,-195.624 661.305,-193.094 679.984,-190.771"/>
<polygon fill="midnightblue" stroke="midnightblue" points="621.684,-194.494 612.192,-199.201 622.548,-201.441 621.684,-194.494"/>
</g>
<!-- Node8 -->
<g id="node8" class="node"><title>Node8</title>
<g id="a_node8"><a xlink:href="../../d9/d3b/classCShell_1_1Modules_1_1Sink_1_1ViewModels_1_1XhtmlSinkViewModel.html" target="_top" xlink:title=" ">
<polygon fill="white" stroke="black" points="676.5,-118.5 676.5,-148.5 818.5,-148.5 818.5,-118.5 676.5,-118.5"/>
<text text-anchor="start" x="684.5" y="-136.5" font-family="Helvetica,sans-Serif" font-size="10.00">CShell.Modules.Sink.View</text>
<text text-anchor="middle" x="747.5" y="-125.5" font-family="Helvetica,sans-Serif" font-size="10.00">Models.XhtmlSinkViewModel</text>
</a>
</g>
</g>
<!-- Node4&#45;&gt;Node8 -->
<g id="edge7" class="edge"><title>Node4&#45;&gt;Node8</title>
<path fill="none" stroke="midnightblue" d="M618.638,-193.918C624.981,-191.803 631.205,-189.347 637,-186.5 655.441,-177.441 654.939,-167.294 673,-157.5 679.136,-154.173 685.812,-151.207 692.555,-148.593"/>
<polygon fill="midnightblue" stroke="midnightblue" points="617.165,-190.708 608.619,-196.971 619.205,-197.405 617.165,-190.708"/>
</g>
<!-- Node11 -->
<g id="node11" class="node"><title>Node11</title>
<g id="a_node11"><a xlink:href="../../d4/ddf/classCShell_1_1Modules_1_1Repl_1_1ViewModels_1_1OutputViewModel.html" target="_top" xlink:title=" ">
<polygon fill="white" stroke="black" points="487,-98.5 487,-128.5 618,-128.5 618,-98.5 487,-98.5"/>
<text text-anchor="start" x="495" y="-116.5" font-family="Helvetica,sans-Serif" font-size="10.00">CShell.Modules.Repl.View</text>
<text text-anchor="middle" x="552.5" y="-105.5" font-family="Helvetica,sans-Serif" font-size="10.00">Models.OutputViewModel</text>
</a>
</g>
</g>
<!-- Node10&#45;&gt;Node11 -->
<g id="edge10" class="edge"><title>Node10&#45;&gt;Node11</title>
<path fill="none" stroke="midnightblue" d="M428.997,-97.3812C447.817,-99.8575 468.213,-102.541 486.864,-104.995"/>
<polygon fill="midnightblue" stroke="midnightblue" points="429.393,-93.9032 419.022,-96.0687 428.48,-100.843 429.393,-93.9032"/>
</g>
<!-- Node12 -->
<g id="node12" class="node"><title>Node12</title>
<g id="a_node12"><a xlink:href="../../de/d95/classCShell_1_1Modules_1_1Repl_1_1ViewModels_1_1ReplViewModel.html" target="_top" xlink:title=" ">
<polygon fill="white" stroke="black" points="487,-49.5 487,-79.5 618,-79.5 618,-49.5 487,-49.5"/>
<text text-anchor="start" x="495" y="-67.5" font-family="Helvetica,sans-Serif" font-size="10.00">CShell.Modules.Repl.View</text>
<text text-anchor="middle" x="552.5" y="-56.5" font-family="Helvetica,sans-Serif" font-size="10.00">Models.ReplViewModel</text>
</a>
</g>
</g>
<!-- Node10&#45;&gt;Node12 -->
<g id="edge11" class="edge"><title>Node10&#45;&gt;Node12</title>
<path fill="none" stroke="midnightblue" d="M428.997,-79.9741C447.817,-77.5968 468.213,-75.0205 486.864,-72.6646"/>
<polygon fill="midnightblue" stroke="midnightblue" points="428.504,-76.5084 419.022,-81.2341 429.382,-83.4532 428.504,-76.5084"/>
</g>
<!-- Node13 -->
<g id="node13" class="node"><title>Node13</title>
<g id="a_node13"><a xlink:href="../../da/d93/classCShell_1_1Modules_1_1Workspace_1_1ViewModels_1_1WorkspaceViewModel.html" target="_top" xlink:title=" ">
<polygon fill="white" stroke="black" points="468,-0.5 468,-30.5 637,-30.5 637,-0.5 468,-0.5"/>
<text text-anchor="start" x="476" y="-18.5" font-family="Helvetica,sans-Serif" font-size="10.00">CShell.Modules.Workspace.</text>
<text text-anchor="middle" x="552.5" y="-7.5" font-family="Helvetica,sans-Serif" font-size="10.00">ViewModels.WorkspaceViewModel</text>
</a>
</g>
</g>
<!-- Node10&#45;&gt;Node13 -->
<g id="edge12" class="edge"><title>Node10&#45;&gt;Node13</title>
<path fill="none" stroke="midnightblue" d="M389.062,-74.4179C410.282,-63.9216 440.534,-49.6989 468,-39.5 476.484,-36.3496 485.578,-33.3576 494.53,-30.6228"/>
<polygon fill="midnightblue" stroke="midnightblue" points="387.371,-71.3499 379.99,-78.9504 390.5,-77.6118 387.371,-71.3499"/>
</g>
</g>
</svg>
